<svg xmlns="http://www.w3.org/2000/svg" width="884.92" height="2084.19" viewBox="0 0 884.92 2084.19"><title>Asset 6</title><path d="M674.45,489.56c-1.2,4.5.81,6.28,5.16,6.07a3.72,3.72,0,0,1,1.33,0c3.8,1.24,9.54-1,11,4.12s-2.85,8.63-6.44,11.6c-5.34,4.4-10.91,8.63-18.25,9-2.26.12-4.89.07-4.69-3.21s2.63-1.77,4.51-1.86c7.28-.37,12.33-4.8,16.54-10.13,2.38-3,.3-4.29-2.78-4.54-5.27-.43-10,1.18-14.91,3-5.84,2.12-6.62,6.55-6.76,11.67,0,1.34-.25,2.82-1.94,3.08a2.93,2.93,0,0,1-3.41-2.35s0-.08,0-.12a11.69,11.69,0,0,1-.51-4.59,44.26,44.26,0,0,0-2.39-23.67c-1.49-3.81-.63-6,3.85-6.12,4-.07,8-.45,12-.41C673.54,481.2,675.09,483,674.45,489.56Zm-15.28,4.38c.32,1.16-.76,5.13,2.31,4.88,4.1-.33,5.65-4.66,6.74-8.25.77-2.5-1-3.73-3.48-3.4C661.45,487.63,658.44,488.51,659.17,493.94Z"/><path d="M764.67,528.1c-10.37-.59-13.47-2.87-16.06-11.87-2.92-10.12-.35-21.5,5.82-26a8.78,8.78,0,0,1,6.92-1.76c1.87.33,3.54,1,3.64,3.24.09,2-1,3.14-2.83,4-9.5,4.36-12.25,13.9-6.79,22.73a8.72,8.72,0,0,0,8.35,4.54c3.57-.19,3.66-3.37,4.61-5.77,2.18-5.55,2.61-11.88,7.17-16.38,1.72-1.7,3.3-3.91,6.22-3,3.3,1,2.4,3.91,2.39,6.22,0,10.44-8,16.51-13.61,23.8C769.27,529.48,766.65,527.92,764.67,528.1Z"/><path d="M413.42,503.43c-.06,2.68.82,7.38-1,11.93-2.58,6.51-5.82,7.41-10.94,2.77-3.3-3-6.41-6.19-9.62-9.29-3.93-3.8-5.75-2.11-6.26,2.5-.3,2.66-.11,5.39-.63,8-.56,2.8.16,7.35-4.35,6.87-4.25-.44-3.38-4.48-3.09-7.56.13-1.33.41-2.65.66-4A91.09,91.09,0,0,0,380,496.76c0-2.21.59-4,2.91-4.68a4.17,4.17,0,0,1,5,2.26C391.53,501,398,505,402.66,510.65c1,1.19,1.81,2.78,3.72,2.2a3.57,3.57,0,0,0,2.62-4.22c-1-5.15.36-10.86-3.51-15.35-1.24-1.44-2.17-2.93-.47-4.67,1.43-1.46,3.22-1.34,5-1,2.06.4,2.88,1.73,2.91,3.83C412.92,494.79,413.16,498.13,413.42,503.43Z"/><path d="M532.84,503.31c.38,5.32-1.56,11.3,2.53,16.45,1,1.33,1.09,3.14-.73,4-2.21,1-4.46.88-5.81-1.54a21,21,0,0,1-2.34-13c.59-5-1.06-6.79-6-4.87a31.11,31.11,0,0,1-5.74,1.73c-5.89,1.06-7.89,4.24-5.93,10a14.09,14.09,0,0,1,.79,4.55A3.08,3.08,0,0,1,506.9,524c-2,.33-3.85-.29-4.11-2.38-1.06-8.82-.81-17.76-2.53-26.54-.36-1.82,1.39-2.77,3-2.92,2.45-.23,3.35,1.53,4.18,3.52s0,6.35,4.43,4.85c4.61-1.58,11.65.86,12.78-6.89.43-2.91.62-5.5,4.43-5.17s3.79,3.07,3.75,5.89S532.84,500.06,532.84,503.31Z"/><path d="M578.33,496.23c-4.68,4.28-9.78,4.93-14.53,6.36-6.44,1.94-10.12,6.83-8.94,12.19.86,3.91,2.62,6.84,7.43,4.74,1.25-.55,2.67-1.19,3.64.15,1.15,1.6,0,2.93-1.09,4.1-2.26,2.41-5,3.83-8.35,3.27a7.08,7.08,0,0,1-6.24-6.13c-1.15-9-2.11-18.14-2.73-27.24-.25-3.64,2.54-5.44,5.92-6.14,6.11-1.25,12.21-2.56,18.33-3.75,2.5-.49,5.34-.61,6,2.57.7,3.57-2.85,2.8-4.61,3.33-4.68,1.41-9.51,2.33-14.27,3.5-1.77.44-3.79,1-3.39,3.33.43,2.49,2.61,1.84,4.35,1.68C565.61,497.63,571.21,494.94,578.33,496.23Z"/><path d="M238.67,507.8c9.64-8.38,10.15-8.19,16.74,2.09,1.75,2.73,2,8.3,6.55,7s1.92-6.16,2.25-9.44a98,98,0,0,0,.07-11.37c0-2.19.55-3.92,2.57-5a3.38,3.38,0,0,1,3.76.28c2.35,1.64.87,3.7.17,5.4-2.36,5.75-1.46,11.9-2.45,17.8-.6,3.53.12,8.11-4.57,9.53s-6.36-3-9-5.52-3.54-8.49-7.35-7.79c-4.43.82-2.9,6.68-4.1,10.29-.62,1.88-.52,4.18-3.34,4.18s-3.76-1.86-4.3-4.24c-1.84-8-1.18-16.44-3.64-24.41-.62-2,.93-3.26,3-3.56,2.33-.35,3.43,1,3.54,3C238.8,499.63,238.67,503.16,238.67,507.8Z"/><path d="M602.81,520.68c.09-1.79.15-3.58.28-5.36.32-4.47-.75-7.16-6.07-5.27-4.51,1.61-8-.13-10.12-4.17-2.67-5.06-3.95-10.45-1.85-16.08a3,3,0,0,1,3.34-1.74,3.53,3.53,0,0,1,3.12,3.08,53.5,53.5,0,0,1,.18,6.7c0,3.39.28,6.58,4.79,6.33,3.93-.23,7-1.83,7.19-6.35.06-1.11-.3-2.23-.25-3.34.13-3.21,1.61-5.07,5.09-4.54s3.49,2.87,3,5.54a127.1,127.1,0,0,0-2.72,28.65c.16,4.39-.22,8.92,2.83,12.82,1.49,1.91,1.67,4.45-1.15,5.53s-4.74-.32-5.5-3.21A65.12,65.12,0,0,1,602.81,520.68Z"/><path d="M295.41,515.87c.4,3.06.9,6.37,1.22,9.7.15,1.53.16,3.3-2,3.6a2.59,2.59,0,0,1-3-2.11v0c-2-10-3.95-20.08-5.74-30.15-.4-2.2,1.44-3.22,3.32-3.4,1.67-.17,3.22.7,3.24,2.59.07,7.52,4.7,7.32,10.1,6.27,5-1,11.27.11,11.59-7.91.06-1.52,1.87-1.64,3.25-1.6a2.37,2.37,0,0,1,2.46,2.26c0,.1,0,.21,0,.31.09,2,.12,4,.13,6,0,6.92,0,13.86,2.23,20.52.76,2.29,1.47,4.62-1.41,5.59-3.39,1.13-4.33-1.74-4.78-4.1a108.7,108.7,0,0,1-1.61-12.58c-.38-5.29-2.94-6.5-7.58-4.62-2.47,1-5,2-7.5,2.8C296,510.06,294.72,512.22,295.41,515.87Z"/><path d="M877.42,513.55c-8.55-.9-16.23-3-23.07-7.55-1.58-1.06-3-3.4-5.14-1.84-1.61,1.2-.5,3.28-.07,5,.73,2.86,1.72,6.35-2.48,6.9-4.54.6-3.62-3.37-3.88-6.1-.46-4.88-.89-9.76-1.41-14.64-.25-2.28-2.12-5.09,1.36-6.25,3-1,4.32,1.72,5.63,3.7,5.74,8.72,14.36,13.09,23.94,16,1.61.49,3.56,1.49,5.07,0,1.89-1.85.11-3.7-.5-5.49-1.5-4.43-3-8.86-4.6-13.25-.8-2.21-.81-4.16,1.87-4.65,2.49-.45,3.72,1,3.58,3.52-.33,5.71,2.55,10.25,5.33,14.84,1.42,2.36,2.73,4.92,1.16,7.53S879.57,513.36,877.42,513.55Z"/><path d="M720.42,528.22a11.22,11.22,0,0,1-7.95-5.55C707,514,705.2,504,702.62,494.41c-1.11-4.13,2.75-5.81,5.92-6.82,7-2.24,14.61-1.37,21.51-4.36,1.86-.81,3.49.68,3.92,2.66.54,2.41-1.26,3-3.11,3.41-5.24,1-10.47,2.19-15.75,2.89-3.38.44-5.89,1.41-5,5.27.8,3.64,3.71,2.1,6,1.86,2.82-.3,7-3.32,8.07.23.87,2.81-4.22,2.72-6.66,3.85-2,.92-4.93,1.17-4.54,4,.69,5,1.25,10.34,5.9,13.69a14.91,14.91,0,0,0,3.63,1.6c1.84.68,3.36,1.6,2.44,3.88C724.09,528.63,722.27,528.63,720.42,528.22Z"/><path d="M332.57,509.7c5.47-3.59,8.12-6.52,6.51-11.58-.73-2.29.92-3.66,3.17-4.26,8.18-2.19,16.27-4.78,24.78-5.41,2-.14,4.35-.57,4.56,2.4.23,3.44-2.3,3.19-4.6,3.07-6.44-.31-12.08,2.77-18.1,4.23-1.39.34-2.69,1-2.61,2.56.11,1.9,1.71,1.61,3,1.62s2.93-.7,3.31,1.13-1.52,1.72-2.62,2.28c-4.08,2-5.3,11.13-2,14.21,2,1.91,3.13.48,4.36-.87s2-4.35,4.42-1.89c1.87,1.88.25,3.68-1.21,5.17-2.58,2.62-4.47,6.72-9.2,5.19-4.2-1.37-5.37-5-5.7-9C340.3,514.37,339.52,510.52,332.57,509.7Z"/><path d="M468.74,490.35c6.41,1.2,12.2-3.48,18.77-2.9,2.66.23,6.38-1.65,7.51,2.27s-2.53,4.45-5.21,5.44-4.24,3.07-3.61,5.71c1.51,6.37-.24,13,1.82,19.27.85,2.57.89,5.26-2.39,5.82-3.53.61-4.6-2.23-4.84-5-.5-5.78-.91-11.59-1-17.39s-2-8.4-8.07-6.45a25.85,25.85,0,0,1-6,.85c-2.65.2-5.86.83-6-3.24-.09-3.9,2.67-4.71,5.95-4.51C466.68,490.26,467.57,490.29,468.74,490.35Z"/><path d="M821.36,508.43c-1.12,2.7.66,4.34,1.8,6.2s1.87,3.73-.38,5.24c-2.54,1.71-3.37-.51-4.62-2.09-2-2.52-.71-8.08-6.08-7.41s-9.57,3.46-11.12,9.2a19.88,19.88,0,0,1-2.06,4.19,3.17,3.17,0,0,1-3.91,1.75c-2-.57-2.16-2.31-1.75-3.8,2.12-7.73,3-15.85,6.64-23.09,3.83-7.66,11.38-8,15-.3C816.66,502.05,822,503.47,821.36,508.43Zm-9.3-2.95a3.94,3.94,0,0,0-3.5-3.89c-2.2-.29-2.78,1.75-3,3.5-.24,2.34,1.51,3,3.33,3.07,1.6.06,3.11-.44,3.17-2.68Z"/><path d="M884.92,429.88c0,9.61-2.39,11.45-10.34,9.19a35.23,35.23,0,0,1-17-10.24c-1.11-1.24-1.94-3.66-4-2.64-1.06.52-1.54,2.56-1.94,4-1,3.81.58,9.59-5.54,9.86s-5-5.91-6.68-9.4a112.6,112.6,0,0,1-4.2-11.25c-1-2.94.11-4.86,3-5.53,3.22-.75,3.74,1.43,3.77,3.94a5.41,5.41,0,0,0,.13,1.33c.72,2.48-.07,6.43,2.83,7,3.59.65,3-3.43,3.94-5.71s2.33-4.38,5.22-4.55c2.64-.15,4,1.5,5.12,3.59,3.21,6.11,7.6,10.88,14.18,13.59,4.55,1.87,6.2,1,5.57-4.12-.67-5.53-.81-11.13-1.17-16.69-.13-2-.6-4.46,2.09-4.87s3.32,2.24,3.28,4.07C883,418.15,884.24,424.73,884.92,429.88Z"/><path d="M569.39,426.39c0,4,.36,8-.09,12-.79,7-3,8.06-9.24,5.07a32.82,32.82,0,0,1-10.41-7.14c-1-1.07-1.92-2.83-3.79-1.64-1.27.81-1.08,2.33-1,3.66.15,1.78.37,3.55.56,5.32.23,2.29-.35,4-3,4.23-2.28.2-4-.59-4.55-2.94a67.73,67.73,0,0,1-1.35-25.17,3.75,3.75,0,0,1,4-3.51h.16c2.25,0,4,.8,4.44,3.17,1.73,8.3,8.94,11.88,14.53,16.82,2.82,2.49,4.31,1.29,4.56-2.2.4-5.57.84-11.13-1.59-16.42-1.17-2.52-1.65-4.89,2-5.58,3.34-.64,4.36,1.6,4.49,4.32.15,3.33,0,6.68,0,10Z"/><path d="M351.91,416.36c4.45,0,8.92-.61,13.26,1,7.08,2.68,9.94,8.4,6.33,14.88-4.87,8.73-11.51,16-21.36,19.38-6.92,2.42-8.67,1.16-8.13-6,.57-7.65.48-15.27-2.18-22.52-2.09-5.69-.18-7.43,5.39-6.83A62.22,62.22,0,0,0,351.91,416.36ZM348,436v3.35c-.1,2.25-.54,4.82,1.86,6s4.08-1.14,5.77-2.44c4.33-3.33,7.09-8,10.2-12.37,1.41-2,2-4.46-.29-6-4.55-3-9.57-3.32-14.77-1.59s-2.85,5.69-2.78,9c0,1.36,0,2.71,0,4Z"/><path d="M733.34,438c-6-1.05-12.3-1.39-18.22-3.67-4.31-1.66-6.61-1-5.15,4.38,1,3.88,1.82,7.83,2.67,11.76.45,2.05.76,4.24-2,4.87s-3.5-1.6-3.89-3.56c-2.16-10.73-4-21.52-8.19-31.75-1-2.4-.14-4.61,2.9-4.76,2.69-.13,5.08.68,4.85,4-.56,8.08,3.12,5.55,6.68,2.64,3.1-2.55,6-5.41,8.9-8.15,1.44-1.34,3-2.14,4.68-.53s.75,3.28-.44,4.68a43.09,43.09,0,0,1-3.37,3.25c-1.93,1.79-4.75,3.32-3.66,6.51s4.18,3.58,7.19,3.85c2.67.23,5.32.69,8,1.17,1.91.35,4.49.34,4.09,3.24C738,439,735.25,437.51,733.34,438Z"/><path d="M753.42,435.22c-.53-5.09-1.17-10.18-1.53-15.28-.19-2.54-1-5.67,2.74-6.6s4.4,2,5.35,4.52a28,28,0,0,0,18.15,17.44c4.4,1.45,6.59.65,5.08-4.62-1.4-4.93-2.44-10-3.72-14.92-.52-2-.34-3.8,1.83-4.29a3.17,3.17,0,0,1,4,2.1,3.05,3.05,0,0,1,.13,1.16c.25,7,2.64,13.55,3.77,20.36.76,4.61-.89,6.75-5.81,6.24a37.46,37.46,0,0,1-19.12-7.26c-1.15-.86-2.22-2.55-4-1.39s-.65,2.73-.61,4.22c.08,3.38,3.12,8.81-2.49,9.21-5.44.39-3.56-5.39-4-8.85a16.68,16.68,0,0,1,0-2Z"/><path d="M260,433.8c.2,4,.46,8,.56,12,.07,2.41.44,5.53-3.14,5.47s-3.16-3.2-3.27-5.58c-.15-2.9-.09-5.81,0-8.71.06-3.37,0-6.72-4.81-5.85-4.08.74-9.78-.51-10.07,6.11-.15,3.29.8,6.63,1.12,10,.23,2.3-.57,4-3.24,4-2.21,0-3.08-1.36-3.2-3.45-.45-7.57-1.06-15.14-1.37-22.71-.1-2.37-.18-5.5,2.76-6.19,3.72-.87,3.26,2.48,3.86,4.76,1.11,4.23,4.41,2.64,7.16,2.5,3.38-.17,6.35-.81,6.31-5.14,0-2.88-.7-6.52,3.67-6.39s3.9,4.13,4,7.12c.17,4,0,8,0,12Z"/><path d="M445,412.1c2.23-.2,4.45-.36,6.67-.62s3.65.5,3.87,2.65c.24,2.42-1.65,2.7-3.54,3-5.29.74-10.58,1.5-15.84,2.45-3,.55-5.8,1.84-5,5.71.89,4.23,4.06,2.87,7,2.72s7.72-4.17,8.61-.2c.93,4.17-5.11,4.58-8.48,5.57-6.26,1.83-7.14,3.11-4.47,8.77,1.19,2.55,2.76,4.13,5.69,2.27,1.15-.74,2.34-1.65,3.38,0s.58,2.92-.39,4.35c-3,4.36-8.18,4.87-11.07.51-5-7.53-8.36-15.65-7.75-25.08.43-6.62,3.29-10.4,10.06-11,3.76-.32,7.52-.82,11.27-1.24Z"/><path d="M294.72,413.85c1.43.14,4.37-1.05,4.6,2.36s-2.66,2.66-4.79,3c-4,.58-7.91,1.35-11.84,2.11s-5.34,3.07-4.25,6.82,3.69,2.68,6.48,2.29c3-.4,7.36-4.55,8.73-.2,1.72,5.49-4.54,3.87-7.36,4.91-6.59,2.43-7.26,3.7-2.75,8.72,2.7,3,2.77,5.59-.35,7.87-3.35,2.45-5.88.88-7.53-2.44-4.69-9.44-3.55-19.59-3.43-29.58,0-3.39,3.16-4,5.87-4.33C283.4,414.76,288.72,414.37,294.72,413.85Z"/><path d="M470.58,452.54c-4.69-.62-9.45-.42-13.83-2.41-1.72-.78-4.37-1.07-3.26-3.94.92-2.37,2.86-1.31,4.57-.82,6.3,1.81,12.68,2.69,19.17,1.12,1.68-.4,4.17-.22,4.33-2.39.17-2.33-2.33-2.21-4-2.63a17.55,17.55,0,0,1-12.18-10.6A13,13,0,0,1,468,416c1.38-1.48,3.12-2.88,5.24-1.19s3,3.92,1.64,6.51c-4,7.83-3.73,9.26,3.36,14.65a35.36,35.36,0,0,0,9.57,4.7c1.76.65,3.23,1.78,3.21,3.84s-1.32,3.25-3,4.06C482.5,451.2,476.59,452.18,470.58,452.54Z"/><path d="M591,427c-.27,4.34-.4,8.14,1.37,11.7,1.2,2.44,3.07,3.81,5.87,3.54s3.93-2.32,4.23-4.56c.95-6.86.7-13.49-5.8-18-1.48-1-3.46-1.79-2-4,1.27-2,3.36-1.25,4.86-.55,6.63,3.08,7.53,9.73,8.62,15.71,1.43,7.85-3.35,16.76-8.62,17.89-5.82,1.25-11-3.53-14-12.75a28.69,28.69,0,0,1-1.36-12.57c.36-2.76,1.2-5.84,4.56-5.56,4.06.35,2.53,3.91,2.57,6.38A16.08,16.08,0,0,1,591,427Z"/><path d="M409.59,434.14c0,8-4.29,12.13-12.54,12s-12.86-5.25-12.73-13.79c.11-8.24,3.85-13.79,9.36-13.91C403.42,418.24,409.61,424.34,409.59,434.14ZM404,436c0-5.58-4.45-13.53-7-12.9-4.51,1.11-6,4.82-6.16,9.16-.13,5,2.28,8,7.4,8.4C402.15,440.9,403.87,438.68,404,436Z"/><path d="M199.51,446.63c-.69-6.61-3-12.49-2.25-18.75.81-6.63,3.91-11.31,10.23-13.61,2.41-.88,5-1.28,6.16,1.88,1.29,3.55-1.17,3.87-3.83,4.51-7,1.71-7.51,7.56-7.59,13.25-.1,6.94,2.91,12.5,8.47,16.67,1.4,1,3.35,2,2.57,4.17S210.2,457,208.18,457c-6.71,0-14-5-16-11.33-.51-1.59-1.67-3.76.5-4.76,2.38-1.1,2.91,1.18,3.49,2.85A4.54,4.54,0,0,0,199.51,446.63Z"/><path d="M642.55,413.78c4-.12,8,1.27,5.4,4.59-5.48,7.13-2.25,14.07-1.42,21.14.3,2.59,2.15,5.62-1.57,6.75-4.19,1.26-4.67-2.26-5.14-5.15A131.42,131.42,0,0,1,638,427.86c-.28-4.62-2.5-5.8-6.61-4.9a38.28,38.28,0,0,1-4,.64c-2.63.3-6.34,2.75-7.2-1.66-.8-4.1,3.5-3.75,6-4.65A75.77,75.77,0,0,1,642.55,413.78Z"/><path d="M799,429.5c.34-5.34.55-8.93,2.54-12.06,1-1.58,2.48-2.69,4.5-1.63,1.71.9,1.76,2.5,1.27,4.08s-1.33,3.3-1.88,5c-1.1,3.33-1.46,6.63,1.33,9.36a4.31,4.31,0,0,0,5.58.51c3.06-2,6.92-3.61,6.94-8.26,0-3.86-1.29-7-5-8.76-2.13-1-3.37-2.7-1.67-4.75,1.49-1.79,3.66-1.27,5.51-.13,4.56,2.81,7.51,14.56,4.94,19.56-2.88,5.63-13.25,10.27-18.42,7.88S798.88,432.87,799,429.5Z"/><path d="M778.71,2060.1v-8.24c0-2.57.21-5.17,3.2-6.09,2.62-.8,4.84.14,6.87,1.9,4.09,3.56,6.16,11.57,11.5,10.86,7.14-1,13.22-6.57,19.44-10.72,2.73-1.82,4.36-6.52,8.58-4.54,4.42,2.07,2.3,6.65,2.43,10.13.17,4.78.32,9.5,2.26,13.95,1.08,2.46,2.07,4.92-1.62,5.9s-5.87-.4-6.39-4.21-.89-7.45-1.46-11.15-2.16-4.93-5.52-2.36c-4.55,3.48-9.64,6.4-13.68,10.39s-6.84,4-10-.78c-1.4-2.11-2.52-5.82-5.78-4.91-2.93.82-1.44,4.32-1.93,6.62-.67,3.18-.72,7.06-5.44,6.42s-2.45-4.55-2.69-7.17c-.18-2,0-4,0-6Z"/><path d="M731.38,2072.92a147.86,147.86,0,0,1,10-27.28c2.36-4.7,7.87-3.78,10.33,1.51,2.35,5,2.37,11.67,9.77,12.92a2.89,2.89,0,0,1,.62,2.57c-2.82,4.52-.55,8,1.87,11.71,1.6,2.43,1.42,4.88-1.45,6.3s-4.06-.77-5.06-2.87c-.76-1.57-1.39-3.22-2-4.85-1.34-3.47-3-6.34-7.54-5.76-4.13.52-7.94,1.1-8.87,6.31-.49,2.7-1.66,5.62-5.29,5.09C731.19,2078.2,731.16,2075.93,731.38,2072.92Z"/><path d="M845.42,2057.28c.3-1.89.65-5.12,1.33-8.29,1.29-5.95,4-9.37,11.21-9.21,6.87.15,13.77-2.14,20.71-3,2.17-.25,5.77-1,6.21,2.4.49,3.94-3.25,2.8-5.43,3.21-7.36,1.41-14.72,2.77-22.1,4-4.21.7-4,3.7-4,6.79.06,3.65,2.19,4.81,5.4,4.53,4.24-.38,8.45-1,12.68-1.33,1.57-.12,4-1.16,4.43,1.27.51,2.92-2.42,2.68-4.14,3.05-4.14.89-8.35,1.43-12.52,2.21-2.55.48-5.07,1.27-4.78,4.62.24,2.92,1.18,5.37,4.82,5.54,1.79.08,4.64-.7,4.37,2.42-.22,2.45-2.46,3.58-4.84,4-4.5.83-7.79-.59-9.72-4.95C846.83,2069.51,845.75,2064.16,845.42,2057.28Z"/><path d="M591.25,2056.07c-.73-14.24,2.33-17.58,16.31-18.68,4.7-.37,9.32-1.67,14-2.35,2.23-.33,4.75-.48,5.09,2.76s-2.14,3.32-4.43,3.63c-6.91.93-13.8,2-20.7,2.92-1.45.21-3.21,0-3.61,1.9-.49,2.29,1.43,2.9,3,3.6,2.7,1.19,5.33.2,8-.16,3-.39,7.9-2.71,8.52.77.82,4.59-4.95,3.31-7.87,4.45-1.82.71-3.95.55-5.87,1.05-4.14,1.08-6.73,3.5-5.66,8.12,1,4.31,2.92,6.09,7.24,2.68,1.86-1.46,2.43,1,2.32,2.35-.33,4.24-3.71,5.74-7.05,6.76s-5.84,0-7.13-3.58A44.42,44.42,0,0,1,591.25,2056.07Z"/><path d="M523.08,2028.66c6.72,1.11,12.6.91,18.15-2.21,2.47-1.4,5-1.43,6,1.84s-.2,5.88-3.68,5.8c-6-.15-6.25,3.73-6.36,7.93-.21,8-.27,16-.57,24-.13,3.48,1.29,8.77-4.54,8.32s-2.88-5.34-2.51-8.3c1-8,.93-16,1-24,0-4.88-2.18-6.73-7.15-5.71a56.2,56.2,0,0,1-10.44.83c-2.12,0-4.93.25-5.12-3-.18-3.06,1.93-4.62,4.63-4.94C516.16,2028.82,519.93,2028.82,523.08,2028.66Z"/><path d="M704.76,2084.19c-9.1-.29-15-3.88-18.43-11.13-.89-1.85-3.19-4.11-.06-5.59,2.46-1.16,3.33,1.39,4.13,3.21,3.09,7,9.14,7.83,15.68,7.54,1.75-.07,3.68-.53,4-2.69.24-1.94-1.54-2.18-2.9-2.8a48.54,48.54,0,0,1-6.62-3.48c-5.76-3.75-9.73-8.63-9.24-16,.46-7,5.14-10.71,11.1-12.67,3.63-1.19,8.43-7.76,11.19-1,2.36,5.83-5.43,4.56-8.43,6.77s-7.39,2.93-7.66,7.41c-.28,4.64,2.56,8,6.28,10.42,2.5,1.64,5.21,3,7.75,4.56,3,1.86,6.18,3.68,5.41,8.07s-4.4,5.72-8.1,6.68A33.44,33.44,0,0,1,704.76,2084.19Z"/><path d="M573.74,2059.77c-1.1-2.83,2.53-9.06-4.4-9.93-7.74-1-15.47,5.47-15.31,12.08.07,3,.22,5.85-3.64,6-4.75.17-3.8-3.2-3.7-6.27.21-6,0-11.94,0-17.91a3.11,3.11,0,0,1,2.36-3.38c1.29-.3,2.77.09,3.18,1.34,1,3.12,1.41,6.64,6.06,5.82,5.12-.91,10.6-1,13.73-6.29.26-.43.44-.91.74-1.31,1.08-1.43,2.3-2.79,4.32-2.28s2.59,2.17,2.72,4q1,12.69,1.84,25.37c.19,2.79-.59,5-3.88,5.21-3.48.23-4.17-1.9-4.09-4.76C573.79,2065.22,573.74,2063,573.74,2059.77Z"/><path d="M50.09,1960c0,5.75.22,11.52-.08,17.26-.19,3.64-1.61,6.79-5.94,7.55-3.91.68-6-1.44-7.85-4.39-3.2-5.08-6.53-10.08-9.84-15.09-1.05-1.6-1.73-4-4.34-3.26-2.33.65-2.54,3-2.8,4.88-.54,4-.3,8-2.07,11.76-1,2.16-1.36,5.15-4.9,4.54-3.07-.52-3.66-3-4.15-5.52-1.28-6.63-2.52-13.26-4-19.84-1-4.63-2.26-9.22-3.7-13.73-.93-2.92-.4-5.21,2.49-6,3.51-1,5.39,1.57,5.29,4.57-.18,5.64,1.86,10.83,2.55,16.27.2,1.59.06,4,2.43,3.93,2-.09,2.28-2.33,2.65-4,.54-2.45,1.09-4.89,1.52-7.35.38-2.19,1.45-3.93,3.67-4.17,1.94-.21,3,1.46,3.89,3q6.56,11.37,13.19,22.7c1,1.65,1.51,4.2,4.17,3.32,2.26-.75,2.33-3,2.23-5.06-.41-8.49-.91-17-1.2-25.47-.1-2.9-.61-6.7,4-6.52,4.22.17,3.08,3.72,3.1,6.32V1960Z"/><path d="M501.81,1974.74c-.5-7.07,2.64-14.36-1.62-21.26-1.09-1.76-.1-3.88,2-5,1.76-1,3.77-1,4.74.59,2.6,4.23,5.26,2.47,8.1.56a10.38,10.38,0,0,1,1.3-.74c8.12-4,13.18-3.48,15.86,1.52,2.85,5.32.13,11.54-7.44,15.58-2.91,1.55-3.51,2.8-2,5.71,4.87,9.62,10.22,11.79,20.11,7.74,1.41-.58,3-1.58,3.72.37a5,5,0,0,1-1.33,5.46c-4.76,4.91-13.91,5-19.79-.29-3.13-2.82-5.7-6.27-8.49-9.46-1.3-1.49-2.44-3.53-4.78-2.9-2.52.67-1.77,3.22-2.18,5a17.71,17.71,0,0,0-.11,3c-.12,2.79,0,6-4,5.87-4.35-.08-4.18-3.37-4-6.5C501.86,1978.24,501.8,1976.49,501.81,1974.74Zm24-19.1c-.4-2-1.47-3.15-3.59-2.37-4,1.46-9.41,1.2-10,7.1-.32,3.14,2.37,3.35,4.68,3.14,4.74-.44,7.29-3.53,8.88-7.91Z"/><path d="M642.05,1977.49c0-5.6.06-9.1,0-12.6,0-1.52-.36-3.11-2-3.68s-2.72.76-3.62,2a42.36,42.36,0,0,0-6,11.16c-1.5,4.15-4.39,5.18-8.25,2.56s-7.93-5.21-11.81-7.94c-3.68-2.59-5.5-2-5.34,2.73.16,4.5.25,9,.31,13.5,0,2.82-.93,5.11-4.14,5-2.91-.06-3.34-2.37-3.58-4.79-.79-7.7-1.56-15.4-2.59-23.07-.54-4,1-6.79,3.89-9.16,3.91-3.25,7.23-3.47,9,2.14a20.7,20.7,0,0,0,5.53,8.78c8.64,8.32,10.16,8.19,16.92-1.29a15.68,15.68,0,0,1,2.36-2.9c3.69-3.22,7.18-8.77,12.37-6.87,4.47,1.64,2.06,7.61,2.57,11.65.77,6.19,1.16,12.45,1.5,18.68.14,2.65.58,6.08-3.8,5.62-3.63-.38-4.06-3.17-3.8-6.15C641.72,1980.37,642,1977.89,642.05,1977.49Z"/><path d="M363.2,1953.65c5.48-8.62,13.49-11.25,21.78-13.42,5.29-1.39,7.34,1,6.1,5.85-1.77,7-4.84,13.17-12.31,15.83-1.89.68-4.09,1.39-3.79,3.9s2.64,2.84,4.54,3.27c4.86,1.1,9.8,1.88,14.65,3,1.85.44,5.4-.7,4.77,3-.51,3-3.59,2.06-5.66,2-8.58-.14-16.93-1.34-24.31-6.22-1-.68-2-1.54-3.53-1-2.61,2.4,1.56,9.61-4.9,8.84-6.67-.79-2.91-6.85-3.11-10.41a63,63,0,0,0-3.2-15.31c-.78-2.5-2.67-5.57,1-7.13,4.16-1.78,4.91,1.87,6.06,4.61A35.38,35.38,0,0,0,363.2,1953.65Zm15.91-6.38c-4,1.89-8.83,3.34-10.17,8.58-.53,2.1,1.49,3.29,3.41,2.64,4.57-1.55,8.87-3.8,10.18-8.93.45-1.76-1.44-2.31-3.42-2.29Z"/><path d="M278.79,1974.19c.16,2.64.26,3.39.25,4.13,0,2.8,1.51,6.89-3,7s-3.1-4.29-4.2-7.08c-4.19-10.7,1.5-21.71-1.75-32.33-.77-2.52.69-4.45,3.33-4.89,2.33-.38,3.72,1.07,4.37,3.19a24.36,24.36,0,0,1,.49,2.94c.68,3.79-2,9.94,1.87,10.91,4.59,1.15,10.17-1.18,15.2-2.46,2.47-.62,3.21-2.79,2.32-5.41-.79-2.36-1.85-5.22,1.74-6.12s4.83,1.74,5.82,4.49c2.49,6.89,2.8,14.19,3.62,21.34.38,3.22,4.45,9-2.24,9.61-5.82.52-3.43-5.57-3.92-8.74-1.59-10.37-3.17-11-13.1-7.93C282.55,1965.08,276.32,1966.66,278.79,1974.19Z"/><path d="M181,1957l20.26-3.35c1.61-.27,3.68-1.49,4.35,1.08s-1.29,3.65-3.33,4q-9.19,1.74-18.44,3.17c-2.86.44-5.7,1-6.42,4.21a11.31,11.31,0,0,0,2.33,9.88c2.45,2.85,5-.11,7.31-1.18,1.52-.68,3.13-2.6,4.48-.51s-.15,3.59-2,4.86c-4,2.72-8.18,5.51-13.14,3.46s-5.14-6.83-5.73-11.39a103.32,103.32,0,0,0-2.71-14.7c-1.47-5.28-.26-8.53,5.05-10.55,9.2-3.49,19-4.19,28.45-6.48,1.84-.45,3.72.07,4.13,2.18.5,2.6-1.39,3.34-3.55,3.8-7.08,1.52-14.17,3-21.19,4.76-2.11.52-5.83-.46-5.45,3.46C175.72,1957,179,1956.47,181,1957Z"/><path d="M848.83,1971.15c.79,4.83,1.4,10.52,4.07,15.77,1.2,2.37,2.74,5.56-1.16,6.86-3.65,1.22-5.58-1.19-6.26-4.57-1.39-6.84-3-13.67-4-20.57-.68-4.7,6.32-11.33,12-10.82,10.32.92,20.16,3.74,27.73,11.54,3.62,3.73,4.8,8.16,2.62,13.06-4.28,9.66-11.77,15.3-22.15,16.92-2,.31-4.92,1.1-5.37-2.27-.39-3,2.36-2.64,4.12-3.19a31.15,31.15,0,0,0,16.25-11.45c3.63-5,3.16-9.1-2.38-12.51a42.73,42.73,0,0,0-21.31-6.13C849,1963.65,848.49,1964.6,848.83,1971.15Z"/><path d="M744,1976.9c0-3.75-.16-7.51,0-11.24.23-4.48,3.65-6.34,7.22-7.7s4.68,2,6.15,4.1c5.81,8.3,14.93,12.38,22.75,18.11,3.45,2.52,4.65,0,4.91-2.65.5-5,.47-10,.66-15,.08-1.9-.7-4.58,2.08-4.8s2.59,2.39,2.58,4.37c0,6.26.05,12.51-.15,18.76-.28,8.49-3,10-10,5.64s-13.89-8.91-20.73-13.52c-4.25-2.86-6.28-2.27-6.25,3.2,0,4-.37,8-.55,12-.12,2.62-1.27,4.3-4.08,4.32s-4-1.87-4-4.36c-.13-3.75,0-7.5,0-11.25Z"/><path d="M340.27,1975.6c-1.74,4.52-3,8.1-8.33,7.77-4.84-.29-8.26-2.2-9.53-6.89-2.64-9.75-5.11-19.54-2.72-29.79a3.44,3.44,0,0,1,2.75-3c6.68-1.88,13.33-3.88,20-5.85,2.76-.81,5.71-1.54,6.85,2.1,1.4,4.51-2.57,3.84-4.94,4.55-4.06,1.21-8.17,2.28-12.22,3.53-1.68.51-3.55,1.35-3.08,3.54s2.57,2,4.27,1.68c2.95-.54,5.84-1.39,8.8-1.8,2-.27,4.94-1.85,5.61,1.47.59,2.89-2.36,3.47-4.42,4.13a66.62,66.62,0,0,1-10.83,2.92c-9.28,1.3-4.92,7.6-4.29,12,.75,5.16,3.64,7.56,8.76,3.66C337.44,1975.26,338.41,1975.6,340.27,1975.6Z"/><path d="M695.58,1970.16c-6.41,4.84.31,9,1.08,13.68.2,1.18.68,2.61-.51,3.45-1.4,1-2.86.33-4.13-.53-2.44-1.66-3.19-4.31-4.11-6.91-1-2.85-1-6.58-5.9-6.14-4.48.41-8.46,1.15-10.23,5.92-.69,1.85-1,3.87-1.84,5.64a3.13,3.13,0,0,1-4,1.82l-.33-.15a3.06,3.06,0,0,1-1.87-3.66c1.71-8.75,3.22-17.6,6.64-25.87,2-4.82,10.14-6.23,13.27-2.39,3.66,4.48,4.73,11.11,11.16,13.33C695.07,1968.45,695.16,1969.19,695.58,1970.16Z"/><path d="M832.75,1968.53c-6.19,1.31-12.15,2.46-18,3.89-2.46.59-6.35.45-5.74,4.36s-.11,8.87,4.28,11.47c4.23,2.49,5.5-1.7,7.74-3.69.32-.28.92-.26,1.7-.45.71,4.1-.07,7.53-4,9.4-3.6,1.7-7.3,1.8-10.58-.93-4.75-3.95-10.7-26.86-8.88-32.81.91-3,2.72-4,5.45-4.08a109.12,109.12,0,0,0,22.26-2.8c2.6-.61,6.11-1.1,6.53,2.8.44,4.06-3.24,2.69-5.42,3.09-5.65,1-11.31,2-17,2.93-1.8.3-3.77.6-3.68,2.85s1.88,3.45,4.16,3.3c5-.34,10-.93,14.94-1.14C828.48,1966.6,831,1965.6,832.75,1968.53Z"/><path d="M63.4,1951.88a10,10,0,0,0-.62-5.43c-.94-2.45-.38-4.53,2.48-5.19s4.55,1,4.49,3.59c-.17,7.41,3.74,7.72,9.65,6.68,4.3-.75,6.24-2.36,6-6.73-.17-2.84-.08-5.79,4-5.61s3.66,3.06,3.66,5.92c0,8.81,3,17.13,4.57,25.68.4,2.2,2,4.64-1.33,5.48-2.52.64-4.32-1.18-5-3.51-1.17-4.06-2.18-8.19-3-12.35-.92-4.78-3.81-5.24-7.77-4.07-3.78,1.11-8.15,1.25-6.93,7.4.68,3.44,4,8.68-1.75,10.09s-3.42-5.32-5.48-8C63.41,1962,63,1957.13,63.4,1951.88Z"/><path d="M581,1964.6c-3.92,4.51-8.66,4.56-12.72,6.07-2.84,1-7.46-.25-7.82,4.11a12.1,12.1,0,0,0,5,11.18,13.06,13.06,0,0,0,3.39,1.51c1.72.58,3.69,1.1,2.9,3.44s-2.69,2.76-4.92,2.27c-4.37-1-8-3-9.78-7.35-2.94-7.16-5.84-14.34-8.56-21.59-1.33-3.54-1-6.71,3.84-6.82,9.61-.24,18.69-3.23,28-5.14,2.59-.53,6-2.26,6.8,1.74,1,5.19-3.56,3.32-6.08,3.89q-8.77,2-17.56,3.86c-1.81.4-3.65,1-3.28,3.25.43,2.51,2.6,1.66,4.26,1.62C569.63,1966.53,574.47,1963.6,581,1964.6Z"/><path d="M427.54,1979.13c-6.47.12-10.52-.87-14.24-3.19-1.44-.9-2.3-2-1.74-3.68s2.33-1.77,3.75-1.46a62,62,0,0,1,7.18,2.09c2.2.77,4.54,1.72,6-.86,1.72-3.11-1.35-3.8-3.11-4.8A21.85,21.85,0,0,1,415,1954.94c-2.61-7.79,2.17-14.59,10-14.61,1.79,0,3.61,0,4.33,2.05.67,1.89-.29,3.18-1.63,4.57-7.34,7.62-7.34,7.7.86,14.91a90.05,90.05,0,0,0,7.74,5.88c2,1.38,5.3,1.76,4.79,5-.49,3-3.44,4.21-6.06,5A61.2,61.2,0,0,1,427.54,1979.13Z"/><path d="M141.52,1955.08c0,1.5-.06,3,0,4.5.57,12.33.63,12.35,12.32,9a21.72,21.72,0,0,1,5.12-.83c2.49-.07,3.52,1.85,3.82,3.86s-1.14,3.16-3,3.67c-5.3,1.44-10.57,3-15.89,4.28s-8.38-1.23-8.74-6.35c-.63-9-.8-18-1.12-26.93-.09-2.57.91-4.48,3.78-4.51s4,1.78,4.1,4.33c.11,3,0,6,0,9Z"/><path d="M121.08,1973.23c.1,3-.72,5-3.5,5.24s-3.92-1.63-4.19-4.13a165.24,165.24,0,0,0-5-27.11c-.66-2.37-.14-4.53,2.84-5,2.44-.4,5.11.09,5.1,2.86C116.27,1954.91,119,1964.22,121.08,1973.23Z"/><path d="M723.9,1981.51c.12,2.76.3,5.76.37,8.76,0,1.91-.49,3.58-2.83,3.54-1.94,0-3.44-.92-3.47-3.11-.14-9.75-.42-19.49-2.42-29.1-.36-1.74,1-2.7,2.72-2.83,2.72-.2,4.14,1.11,4.53,3.82C723.69,1968.79,724.53,1975,723.9,1981.51Z"/><path d="M864.15,724.38c9.94.31,11.05,1.38,11,11,0,2.86.37,5,2.92,7.11,6.36,5.27,8.46,14.26,5.6,21-2.79,6.58-10.32,10.91-18.42,10.59-10.09-.39-14.94-6.45-12-16,1.42-4.6,2.12-7.63-1.83-11.8-4.93-5.21,0-10.73,2.26-15.85C855.72,725.78,859.1,723.33,864.15,724.38Zm1.62,43.71c6.68.5,10.61-1.58,12.91-6.37,2.41-5,1.16-9.64-1.68-14.06-1.3-2-3-2.62-5-1.17-4,2.88-8.49,5.38-11.25,9.63C856.61,762.51,859.56,767.84,865.77,768.09Zm4.83-33.77c-.32-2.41-1.48-3.87-3.8-4-2.66-.1-9.89,7.84-9.71,10.48.16,2.45,2,2.85,3.71,2.41C865.6,742,869.25,739.31,870.6,734.32Z"/><path d="M590.77,751.78c.1-8.26,5.19-14.88,12.16-15.73,2.5-.31,5.25-.77,6.29,2.44s-1.43,4.19-3.8,5.33c-7.87,3.8-10,9.28-6,15.35,2.88,4.35,5.75,4.71,8.2-.34s4.79-10.47,7.33-15.63c1.38-2.78,3.3-5.44,6.95-4.26s3.58,4.59,3,7.58c-1.75,9.71-7.23,17.49-13.41,24.82-2.2,2.61-5.43,3.23-8.17,1.29C596.25,767.53,590.33,761.51,590.77,751.78Z"/><path d="M295.79,776.68c-.07,1.63-.67,3-2.38,3.36a6.26,6.26,0,0,1-6.17-1.85,10,10,0,0,1-1.85-4.79c-.62-3.88-1.63-7.86-5.69-8.92-4.46-1.16-7.06,2.74-9.83,5.49-3,2.93-4.11,6.81-5.23,10.63-1,3.42-3,5.43-6.54,4.22s-2-4.25-1.36-6.39q5.28-16.36,11-32.59c1.58-4.5,4.71-5.33,7.83-1.63,5.26,6.24,11.48,11.9,13.2,20.51a13.63,13.63,0,0,0,4.77,7.45A5.52,5.52,0,0,1,295.79,776.68Z"/><path d="M793.89,744.14c-3.46,6.3-8.8,7.12-13.83,8.23-6.25,1.39-10.75,3.74-9.87,11.45.32,2.85-.4,6.52-4.77,6s-3-3.8-2.65-6.42c1-6.74-1.32-13.46,0-20.22.44-2.3-1.4-3.6-3.13-4.69-3.29-2-3.14-4.65-1.48-7.71,1.57-2.89,3.18-4.72,7.07-3.55,7.25,2.19,14.37-.88,21.57-1.2,2.21-.1,5.42-1.28,5.83,2.67.43,4.14-2.61,3.94-5.43,4.28-4.46.54-8.89,1.35-13.31,2.18-3.85.71-5.59,2.89-4.67,7s3.19,5.16,7.15,4.44C781.77,745.62,787.25,745.05,793.89,744.14Z"/><path d="M551.1,764.55c.78-7.83,6.38-14.14,6.94-22a25.36,25.36,0,0,1,.87-3.64c.81-3.64-.73-8.87,5-9.42,5-.48,5.57,4.42,7,7.57,4.21,9.08,10.44,17.14,13.53,26.78.79,2.46,3.46,5.28-.3,7s-5.47-1.23-6.62-4.16c-1.4-3.53-1-8.52-6.6-8.56s-9.7,2-11.45,7.71c-1,3.19-3.47,4.24-6.48,3.59C550.39,768.85,551,766.52,551.1,764.55Zm15.42-10.35c2.22-.16,3.82-1.17,3.53-3.68-.26-2.2-.65-4.81-3.62-4.73-2.48.07-2.88,2.39-3.2,4.36-.36,2.46.87,3.7,3.33,4.05Z"/><path d="M661.38,761.78c-.88,7.21-4,11-10.37,11.57-5.91.5-7.52-3.52-9.83-8.17-4.92-9.91.72-19.64-.75-29.37-.32-2.07,1.92-2.72,3.48-3.39,6.05-2.58,12.56-3.18,18.94-4.32,1.6-.29,3.15,0,3.69,1.72.66,2.1-.7,3.27-2.49,3.9-3.52,1.24-7.12,2.28-10.6,3.61-3.83,1.47-7,4-5.27,8.47,1.8,4.78,5.5,1.07,8.36.92.93,0,1.82-.76,2.75-1.14,2-.82,4.36-2.81,5.5.62,1,3-1.71,3.62-3.84,4.4-2.34.87-4.6,1.93-7,2.72-3.14,1-6.45,1.89-6.4,6.13,0,2.52.17,5.46,2.69,6.61,3.3,1.5,5.36-1.72,7.89-3.07C658.79,762.67,659.51,762.49,661.38,761.78Z"/><path d="M422.1,746.94v-4.5c0-1.88.44-3.6,2.53-4,2.47-.52,3.88.81,4.12,3.16.54,5.14,4,5.44,7.58,4.12,4.09-1.52,11.1,1.55,11.42-6.3.14-3.25,1.58-4.66,4.3-5,3.08-.41,3.71,2.33,4.18,4.37,1.82,8,.63,16.51,4.38,24.24.77,1.59-.71,3.32-2.71,3.78a4.22,4.22,0,0,1-5.11-2.12c-.64-1.27-.46-2.94-.89-4.35-1-3.41.39-8.69-4.07-9.65a19.9,19.9,0,0,0-15.69,3.48c-2.78,2-2.26,5.16-1.47,8.27.71,2.84,1.72,6.45-2.85,7s-4.28-2.81-4.39-6c-.2-5.49-.73-11-1.13-16.47Z"/><path d="M489.16,748.46c1.83-.12,4.5-2.54,5.51.91.88,3-2.06,3.52-4.09,4.34-4,1.6-6,4.23-5.19,8.73s3.77,5.23,7.77,4.64c4.22-.62,3,2.32,2.22,4.25-1.14,2.84-3.77,3.92-6.64,4.21a6.62,6.62,0,0,1-7.18-4.34c-2.27-5.38-2.26-11.89-8.47-15.25-1.61-.87-.45-3,.89-3.65,4.8-2.45,4.09-6.25,3-10.34-.82-3-.22-6,3.19-6.43,5.81-.68,11.17-2.65,16.65-4.4,2.46-.78,5.47-1,6.25,2.13s-2.45,3-4.45,3.72c-3.78,1.28-7.61,2.44-11.3,3.95-2.4,1-3,3.19-2.44,5.65S487.1,748.9,489.16,748.46Z"/><path d="M715.75,751.26c.1-10.28,9.79-20,19.59-19.75,7.28.23,13.93,8,13.74,16-.2,8.2-11,17.54-20.3,17.62C720.43,765.14,715.67,760.09,715.75,751.26Zm26.78-5.15c-.18-4.08-3.86-8-7.55-8-5.42,0-13.7,7.83-12.74,12.7.73,3.71,1.47,8.31,6.93,8.38,6.09.11,13.62-7.36,13.36-13.08Z"/><path d="M399.53,756.94v-3.76c0-9.89.06-9.89-9.88-8.14-2.69.47-5.86,1.52-6.68-2.38-.67-3.17,1.95-4.25,4.48-5,5.29-1.47,10.52-3.24,15.9-4.22,3.26-.59,8.37-.83,5.83,4.94-3.76,8.57-2.68,17.11-1.74,25.83.35,3.32,1.75,7.8-3.62,8.1-4.77.27-4.17-4.06-4.38-7.17-.18-2.74,0-5.5,0-8.25Z"/><path d="M332,771.07c.55,3.31-1,5.37-4.21,5.77-3.7.47-3.74-2.5-4-5-.51-5.21-.77-10.46-1.41-15.66-.83-6.65-2.95-7.61-8.95-4.35-.66.35-1.24.86-1.9,1.21-3.05,1.61-7,4.43-8.9-.17C301,749,306,749,308.35,747.72c3.75-2,7.65-3.63,11.51-5.4,4.6-2.11,7.55-1.52,8.29,4.33C329.22,754.84,330.72,762.94,332,771.07Z"/><path d="M305.11,859.78c.34-8.39-.09-14.59-3.39-20.24-1.21-2.06-2.11-4.44.53-5.87,2.79-1.5,4.9,0,5.81,2.76,1.72,5.25,4,3.07,6.17.51a27.5,27.5,0,0,1,14.47-8.89c3.39-.85,6.64-1.31,8.63,2.17s2.29,7.39-.58,10.5a128.71,128.71,0,0,1-10,9.11c-2.75,2.42-2.83,3.78,1.18,4.75,5.59,1.36,11.08,3.12,16.55,4.89,2,.65,5.09,1.18,3.95,4.27-.95,2.6-3.34,2.1-5.75,1.31-7.84-2.56-15.84-4.63-23.62-7.34-4.6-1.6-6.69-.84-6.36,4.31.09,1.49-.21,3-.22,4.5,0,2.38-1.05,4-3.49,3.92a3.6,3.6,0,0,1-3.88-3.32,2.54,2.54,0,0,1,0-.39C305,863.78,305.11,860.72,305.11,859.78Zm27.19-24a3.18,3.18,0,0,0-3.36-2.64c-4.77-.28-14.63,8-15.09,12.83-.3,3,.86,4.37,3.86,2.79A43.93,43.93,0,0,0,331,838.14,14.7,14.7,0,0,0,332.3,835.78Z"/><path d="M603.2,826.33c13.61-.08,23.78,9,22.84,19.13-1,10.34-15.88,22.26-25.89,20.77-1.85-.28-3.71-.57-3.67-2.79s2.25-2.46,3.9-2.61c8.46-.76,13.1-6.64,17.48-12.86,3.72-5.29,2-9.39-3.13-12.5s-10.36-3.14-15.87-1.32c-5,1.66-6.74,4.71-4.69,9.77,1.31,3.24,2.46,6.57,2.17,10.16-.22,2.66-1.12,5-4,5.63-3.42.69-4.58-2.09-4.93-4.43-1.13-7.62-1.91-15.3-2.63-23-.16-1.73.45-3.39,2.81-3.7C593.24,827.87,598.9,827,603.2,826.33Z"/><path d="M523.77,837.78c.41,4.28-.58,7.81-4,10.21-5.06,3.55-7.06,8.92-9,14.4-.58,1.68-1.55,3.49.27,4.76,1.35.94,3,.08,4.23-.73,2.5-1.64,4.84-3.51,7.27-5.26,1.06-.77,2.24-1.37,3.3-.14a2.41,2.41,0,0,1-.25,3.39l0,0c-4.68,4.11-9.07,9-15.5,10.13-4.74.88-7.73-1.42-7.66-6.64,0-2.84,1.29-5.32,2.46-7.82.9-2,2.82-3.84,1.13-6.2s-3.57-.66-5.46-.38c-2.71.41-6.22.92-6.75-2.61-.59-3.94,3.26-3.69,5.84-4.08,5.72-.86,12.33.89,15.69-6.24,2-4.33,1.85-7-3.75-6-4.91.86-9.75,2.2-14.57,3.53-2.58.7-5.25,1.49-6.29-1.74s1.76-4.27,4.17-5.1c6.43-2.22,13-3.63,19.87-3.2C521.15,828.47,524.72,831.21,523.77,837.78Z"/><path d="M845.3,863.34c.12-8-2-14-3.35-20-.52-2.34-2-5.53,1.38-6.4,2.75-.7,3.26,2.5,3.89,4.57.57,1.86.26,4.61,2.69,4.81,3.08.26,2.86-2.79,3.49-4.85,2.12-6.91,6.7-10.3,14-9.87,2.42.14,5.36-.87,6.53,2.22,1.09,2.87,1.3,6-.89,8.54-2.61,3.09-5.58,5.82-9.41,7.28-6.34,2.43-4.28,5.12-.09,7.3,5.77,3,11.8,5.48,17.66,8.31,1.65.79,4.46,1.13,3.55,3.91s-3.35,1.43-5.13,1c-7.89-1.94-14.89-5.85-21.68-10.14-4.08-2.57-6.39-2.1-6.87,3.16-.23,2.5.78,6.69-3.19,6.37C842.73,869.09,845.51,864.57,845.3,863.34Zm24.24-26.16c-.44-.49-1.07-1.78-2.06-2.17-3.11-1.24-5.26,1-7.18,2.81-2.12,2-4.52,4.1-4.14,7.51a2.45,2.45,0,0,0,1.28,1.58c3.14,1.5,12.52-5.56,12.13-9.73Z"/><path d="M682.62,856.94c.7-4.19,1.14-8.45,2.17-12.56,2.14-8.52,7.85-11.17,16-7.71,10.28,4.4,15.25,21.16,8.81,30.36-3.84,5.48-8.79,9-16,6.72C685.65,871.33,682.8,866.84,682.62,856.94Zm23.26-1.59c-.38-5.85-1-11.3-8.09-11.63s-7.08,5.62-8,10.36a17.84,17.84,0,0,0,.12,5.16c.45,4.51,1.85,8.59,7.15,8.94s6.9-4,8.26-8.07A21.8,21.8,0,0,0,705.88,855.35Z"/><path d="M561.37,839.29a24.15,24.15,0,0,1-8.81,5.64c-2.91,1-7.35.5-6.39,5.38.89,4.48,3.18,8.46,8.07,9.93a17.92,17.92,0,0,0,3.73.26c1.6.13,2.95.67,3.21,2.5s-.81,2.75-2.18,3.56a8.05,8.05,0,0,1-8.53,0c-6.71-3.66-11.57-8.61-12.31-16.73-.24-2.7,0-5.55-1.6-8-3.7-5.62-1.59-8.56,4.4-10.23A156.27,156.27,0,0,1,565.23,827c2-.22,5-1,5,2.58.06,3.23-2.62,3.33-4.85,3.23-5.9-.25-11.29,2-16.91,3.12-1.24.25-2.61.73-2.37,2.3.3,2,1.76,2,3.42,1.66C553.15,839.13,556.7,837.66,561.37,839.29Z"/><path d="M407.77,852.78c-3.12.92-4.89,3.24-6.14,6.09-1,2.28-1.67,4.77-3,6.84-1.94,3-6.17,2.86-6.51.27-.63-4.74-.66-11.25,2.08-14.3a21.39,21.39,0,0,0,5.26-11c.79-4,2.46-6.94,6.73-8.06,4.68-1.22,5,2.9,7,5.16,3.54,4,4.77,8.7,4.89,13.82.09,4.08.7,8,3.3,11.31,1.33,1.7,2.35,3.42-.24,5s-4.55.59-5.63-1.68c-1.5-3.13-2.45-6.52-3.68-9.78C411.1,854.57,410.5,852.54,407.77,852.78Z"/><path d="M758.14,849.78c0-3.26-.07-6.51,0-9.76.06-1.83.58-3.54,2.84-3.77,2.06-.21,3.33.66,3.65,2.81.35,2.33.08,6.51,3.3,5.33,4.62-1.68,11.06-.34,13.52-6.44.85-2.13-.06-5.5,3.92-5.06,3.71.41,4,3.52,4.23,6.18.87,8.46,1.1,17,3.18,25.31.73,2.94-.51,5.06-3.62,5.36-2.9.27-3.92-1.8-4-4.31-.21-4.75-.26-9.51-.49-14.26-.2-4.27-2.36-5.58-6.53-4.48-8.74,2.29-11.54,5.3-11.29,13.58.08,2.61-.8,3.88-3.13,4-2.75.19-5.06-.69-5.15-4-.1-3.51,0-7,0-10.53Z"/><path d="M189.57,865.23c-.76-5.73-1.6-12.42-2.57-19.1-.39-2.73-.37-5.27,3-5.71s3.36,2.14,3.62,4.47c.29,2.63,0,6.53,4,5.75,4.52-.89,10.76.62,12.51-6,.77-2.89.52-6.62,4.6-6.5,4.42.13,4.36,4.33,4.85,7.34,1.18,7.15,2,14.35,2.87,21.54.28,2.35,0,4.69-3,5.06s-3.93-1.74-4.13-4.16c-.26-3.24-.06-6.52-.42-9.74-.55-5-2.23-8.48-8.19-5a15.55,15.55,0,0,1-5.53,2.13c-5.47.75-6.3,4.1-5.33,8.66a35.12,35.12,0,0,1,1,3.61c.3,3.15,1.44,7.11-3.62,7.32-4.63.19-3.86-3.53-3.82-6.47A16.28,16.28,0,0,1,189.57,865.23Z"/><path d="M369.76,848.12a13.26,13.26,0,0,1,3.9-1.14c2.16,0,5.13-3.7,6.29.17.88,2.93-3,3.3-5.07,4.39-1.76.92-3.66,1.58-5.46,2.44-4.55,2.19-6.06,5.5-4.16,10.42s4.65,4.2,7.92,1.48a1.59,1.59,0,0,1,2.23-.14,1.86,1.86,0,0,1,.33.41,3.77,3.77,0,0,1,.35,2.77,9.44,9.44,0,0,1-8.62,6.21c-3.8.21-7-1.42-8.07-5.34-2.53-9.27-1.4-18.85-1.87-28.29-.14-2.77,2.44-4.7,5-4.8,6.14-.24,11.67-2.47,17.3-4.45,2.12-.75,4.19-.83,4.88,1.71s-1.28,3.25-3.35,4c-4.49,1.51-8.9,3.23-13.3,5-1.61.64-3.43,1.49-3,3.71C365.62,849.17,367.68,848.27,369.76,848.12Z"/><path d="M157.91,881.84c-9.61.22-15.8-5-15.45-12.42.08-1.89-.32-4.45,2.54-4.63,2.58-.17,2.24,2.13,2.45,3.81a7.92,7.92,0,0,0,4.31,6.59c3,1.56,5.72,1.76,8.1-1s.81-5-1.19-7.18c-2.21-2.38-4.74-4.58-6.48-7.28-4.78-7.42,0-19.07,8.24-20.49,2.1-.36,4.23-.24,5.26,1.86s-.79,3-2.26,4c-8,5.46-8.43,10.13.1,16.62,7.57,5.75,7.07,14.69-2,19.13A17.49,17.49,0,0,1,157.91,881.84Z"/><path d="M232.39,845.14c.21-3.39,1.36-6.21,4.47-7.43,5.57-2.2,11.27-4.08,17-5.93,1.66-.54,3.68-.63,4.35,1.62s-1,3.26-2.66,3.88c-3.51,1.32-7.14,2.31-10.65,3.62-1.87.7-4,1.69-2.93,4.3.9,2.2,3,1.09,4.61,1.14,3,.09,7-4.51,8.51-.69,1.83,4.81-4.26,4.18-7,5.59-7.2,3.74-8.34,7.82-3.46,14.24,1.13,1.49,3.47,2.4,2.19,5-1,1.94-2.74,1.95-4.5,2a4.52,4.52,0,0,1-4.85-3.83C235.73,860.78,234.08,853,232.39,845.14Z"/><path d="M738.91,860.21v-3.75c0-11.19,0-11.12-11.35-9.88-2.74.3-6.44,1.7-7.09-2.94-.63-4.45,2.79-4.38,5.83-4.86,6.15-1,12.41-1.33,18.32-3.68,4.3-1.7,6.37,1.35,4.64,4.37-5.18,9-3,18.48-2.91,27.85,0,3,.55,6.4-4.07,6.36-4.37,0-3.45-3.33-3.48-6s0-5,0-7.5Z"/><path d="M819.69,830.27c-.12,3-2.25,3.43-4,4.15s-4.32,1.38-3.66,3.85c.71,2.69,3.07,1.59,5,1.22a17.68,17.68,0,0,1,8.67.15c-3.65,2-7.19,4.18-11,5.82-4.66,2-6.88,5-4.91,10,1.62,4.1,1.76,10.4,9.19,7.08,1-.45,2-.44,2.45.72.51,1.35-.22,2.33-1.21,3.24-3.68,3.38-9.61,2.43-13-2.5-4.11-6-5.47-12.77-5-20,.1-1.56,1.74-3.47-.44-4.72-9.32-5.34-1-5.4,2-6.13C809,831.86,814.08,829.7,819.69,830.27Z"/><path d="M439.17,848.69c.3-4.23.62-8.45.88-12.68.14-2.18.78-4.17,3.24-4.24,3-.09,3.47,2.24,3.49,4.66,0,5.73,0,11.47.19,17.2.09,3,.4,6.47,3.78,7.45s3.75-2.6,4.95-4.55,2.65-3.23,4.81-1.94c1.89,1.13,1.14,2.83.44,4.59-2.42,6-6.32,9.32-13.17,8.54-6.6-.76-7.37-5.94-8.25-10.82-.48-2.65-.09-5.46-.09-8.21Z"/><path d="M474.17,853.5a38.64,38.64,0,0,0-1-15.58c-.91-3-.85-5.61,2.82-6.37,4-.83,4.56,2.29,4.89,5,1,7.89.29,15.9,2.91,23.68,1.06,3.14-1.9,4.86-5,5.09s-4.71-1.15-4.63-4.38C474.22,858.47,474.17,856,474.17,853.5Z"/><path d="M360.57,948.05c0-2.5-.08-5,0-7.51.11-2.74.94-5.12,4.3-4.87,3.19.24,4.27,2.53,3.83,5.32a73.24,73.24,0,0,0-.55,15.73c.28,5.38,2.5,7.62,7.66,4.61,6.48-3.78,12.83-7.78,19.26-11.64,3.17-1.91,3.29-5.45,4.67-8.32,3.13-6.49,6.41-6.85,12.5-3.4,8.88,5,10.3,13.5,12,22.09.36,1.86.16,3.56-2.11,4.07-2.73.6-4-.71-4.91-3.26-1.21-3.39.35-8.92-5.77-9-5.42,0-8.34,3.34-10.62,8-3,6.16-5.36,6.25-9.4.5-2.35-3.36-3.78-.78-5.35.36-3.62,2.61-6.39,6.34-10.86,7.87-7.28,2.51-11.44.31-13.39-7.2C360.68,957.06,360.62,952.56,360.57,948.05Z"/><path d="M271,942.19c3.8-3.91,4.63-9.53,9-12.27,3.24-2,6.69-5.43,10.75-1.8,3.7,3.31,4.6,7.69,2.77,12.34-3.17,8-1.07,12,7.36,13.28,2.16.33,4.75-.32,5.52,2.64.53,2-.95,3.18-2.31,4.34-2.12,1.81-4.33,2.47-6.81.76-3.7-2.55-7.16-5.56-11.12-7.59-8.45-4.31-12.41-2-13.59,7.29-.41,3.22-.56,6.48-.89,9.71a3.33,3.33,0,0,1-3.32,3.34h0c-2.2,0-3-1.68-3.16-3.5-.82-11.21-.37-22.51-2.45-33.63-.29-1.54-.05-3.09,1.85-3.53s3.53-.1,4.27,2S270.22,939.65,271,942.19Zm13.63-8c-3.62.72-5.43,3.39-6.39,6.6-.75,2.54,1.42,3,3.15,2.9,3.51-.2,5.31-2.46,5.75-5.8.24-1.85,0-3.58-2.51-3.71Z"/><path d="M125.35,933.44c2.42.75,4.4-.43,6.39-1.46,8.33-4.28,16.88-3.84,25.44-1s11.44,9.15,6.51,16.81c-6.86,10.66-17,17.47-29.22,20.83-6,1.65-9.6-1-10-7.51-.5-8.22-.89-16.4-3.72-24.34C119.27,932.62,122,932.11,125.35,933.44Zm5.3,23.26c-.81,6.89,1.23,8.48,5.83,6.41,8.58-3.86,15.41-10.1,21.49-17,3-3.43,2.24-7.82-2.19-10.07-12.52-6.36-24.44.68-24.75,14.37C131,953.14,130.7,955.87,130.65,956.7Z"/><path d="M518.5,954c.41-3.47.61-7,1.27-10.39,1.75-9.18,6.68-12.14,15.61-9.64,14.59,4.1,19,20.85,8.47,31.64-6.1,6.24-13.26,9.67-22,9.72-2.43,0-5.67.16-5.58-3.35.08-3.27,3-2.38,5.21-2.43,8.09-.2,14.22-4.43,19.25-10.22,4.77-5.51,1.91-14.87-5-17.3-3.68-1.3-5.76.24-6.46,3.91-.81,4.17-1.45,8.37-2.36,12.51-.62,2.87-1,6.6-5.2,5.9s-3.07-4.44-3.11-7.32c0-1,.08-2,.13-3Z"/><path d="M828.66,944c-3.41,2.36-3.64,5.27-4.74,7.73-1.22,2.71-2.15,5.83-5.79,6.25-4,.47-6.4-2-8.77-4.79-2-2.33-2.15-8-5.78-6.65-4.22,1.55-.28,6.06-.5,9.27-.14,2,0,4-.24,6A2.72,2.72,0,0,1,800,964.4l-.28,0a2.39,2.39,0,0,1-2.43-2.37h0c0-8-2.52-15.91-1.11-24,.33-1.92.57-4.27,2.69-5.07,2.86-1.08,4,1.61,5.2,3.29,2.79,3.84,5.34,7.87,7.84,11.91,1.21,1.94,2.12,4.16,4.89,4s3.45-2.66,4.33-4.66a39.06,39.06,0,0,0,3.3-11.51c.26-2.44,1.54-4.32,4-4.81,3.1-.59,3.6,2.1,4.52,4.06,1.81,3.92,2.19,8.17,2.86,12.39.57,3.58-.83,8.47,5.3,9.24,2.08.27,1.29,2.34.52,3.61-1.23,2-1.56,5-4.77,5.19a4.18,4.18,0,0,1-4.33-3.52C831.18,956.29,830,950.4,828.66,944Z"/><path d="M615.13,972.32c-9-.32-10-1.28-8.67-10.11.93-6.38-1.18-12.35-1.87-18.51-1-9,1.64-12,10.58-11.92a57,57,0,0,1,9.67.91c9.67,1.81,14.58,9,12.92,18.5C635.66,963.24,625.57,972.7,615.13,972.32Zm-3.82-28.08c.94,6.43,1.79,12.88,2.89,19.29.41,2.39,1.76,4,4.72,3.57,6.2-.87,13.56-11.62,13-19.22-.47-6.26-6.54-10.49-14.3-10-4,.19-6.86,1.56-6.31,6.36Z"/><path d="M453.77,974.67c0-3-.06-6,0-9,.15-5.82,1.14-11.75-8.43-7.52-4.78,2.11-6.72-3.1-8.58-6.52-2.05-3.77-4-8-.83-11.92,2-2.43,4.57-1.91,5.91,1.06.58,1.3.21,3,.55,4.43.49,2.14.68,4.81,3.41,5.29,3,.53,3.66-2.18,4.47-4.18,1.5-3.7,2.67-7.54,4.14-11.26a3.48,3.48,0,0,1,3.44-2.45c2,.06,2.2,1.71,2.73,3.08,1.2,3.14,1,6.39.75,9.65-1.13,14.21-2.64,28.42-.29,42.65.49,3-.66,5.1-3.48,5.72-3.82.84-4-2.42-4.08-4.76-.26-4.74-.08-9.51-.08-14.27Z"/><path d="M660.75,954.7a56.13,56.13,0,0,0-.4-7.44c-.63-3.54-4.89-8.86,4.16-6.22,2,.57,3-3,4.33-4.7,3.38-4.55,7.36-8.24,13.21-5.32s4.6,8.67,3.92,13.92c-.41,3.2-4.73,6.81-2.45,8.82a155.63,155.63,0,0,0,12.74,10c2,1.45,4.26,0,6.12-1.5,1.28-1,2.89-1.45,3.93.06.93,1.35.13,2.83-.79,4.11-3.21,4.42-9.08,4.83-14.71.83-3.65-2.59-6.58-6.44-11-7.72-5.3-1.56-12-5.68-13.61,4.51a2.29,2.29,0,0,1-2.6,1.91l-.18,0a3,3,0,0,1-2.8-3c-.11-2.74,0-5.49,0-8.24Zm20.76-14.09c.11-2.8.46-5.83-3.36-6.37-2.75-.39-10.13,9.22-10.06,13,.06,3.08,2.48,3.61,4.76,3.41,6-.5,8.6-4.26,8.66-10Z"/><path d="M336.21,962.61c1.3,5.26-1.43,8.36-5.58,10.06-4.38,1.8-8.54.43-11.33-3.42-7-9.64-6.68-20.61-5.17-31.69a4.06,4.06,0,0,1,3.71-3.3q9.68-1.15,19.39-1.93c1.81-.15,3.66.43,3.58,2.8-.07,2.14-1.7,3.14-3.54,3.14a33.65,33.65,0,0,0-13.71,3.43c-1.63.73-3.42,1.77-2.86,3.82.69,2.48,2.93,2.46,5,1.88,3.79-1.07,7.31-3.35,12.08-2.57-2.66,4-6.48,5.66-10.17,7.54-6.09,3.08-7.4,6.69-4,11.74,3.88,5.76,7,2,10.19-1C334.23,962.7,335.17,962.78,336.21,962.61Z"/><path d="M494,947.52c2.06-.47,3.8-1.17,4.48.75s-1.23,2.63-2.44,3.2c-6.55,3.13-9.44,7.86-7.41,15.19,1.1,4,2.71,6.66,7.31,4,1.49-.85,3.09-2.47,4.36-.13,1.05,1.93.26,3.82-1.29,5.43a8.92,8.92,0,0,1-12.61.46,8.82,8.82,0,0,1-2.25-3.33c-2.94-7.19-5.89-14.8-2.66-22.5,1.75-4.2-4-9.64,1.82-12.16,3.71-1.61,8.39-.84,12.57-1.55,3.68-.62,7.25-1.9,10.91-2.71,2-.44,4.15-.46,4.62,2.34.42,2.54-1,3.6-3.31,4-4.69.75-9.38,1.55-14.07,2.36-2,.35-4.38.82-3.78,3.52S493,947.41,494,947.52Z"/><path d="M90.68,942.59c-8.63,4.85-16.57,4.92-24.46,4.62-6.22-.23-10.06.66-6.67,8.17,1,2.22,1.63,5.26-2,6.11-3.91.93-4.68-1.91-4.81-4.9q-.6-13.53-1-27.06c-.08-2.22-.32-5,2.94-5.06,3.92-.13,3.13,3,3.29,5.4.11,1.86-1.08,4.27,1.47,5.26,2.29.9,3.6-1.2,5.15-2.35,3-2.21,5.85-4.62,9-6.6,1-.65,3-1.29,3.92.59.71,1.39-.27,2.4-1.16,3.26-1.8,1.75-3.65,3.44-5.51,5.12-1.34,1.2-2.83,2.47-2,4.42s2.76,1.9,4.56,1.93C78.68,941.58,84.07,939.86,90.68,942.59Z"/><path d="M854,964.24c4.66.48,8.74,1.15,12.83,1.23,2,0,5.11,1,5.71-2,.51-2.53-2.53-2.65-4.09-3.68s-3.61-1.77-5.25-2.9c-5.45-3.79-8.45-12.75-6.41-18.74,1.85-5.48,10.79-11.89,16.37-11.61,2.24.12,4.82.33,5.33,3.14.69,3.86-2.52,2.79-4.48,3.14-5.08.92-9,3.32-10.24,8.63s1.18,9.22,5.16,12.44c3.56,2.88,7.73,4.49,12,6.05s5.57,4.55,1.51,7.7C874.57,973.78,861.57,972.28,854,964.24Z"/><path d="M754.93,953.72c6,0,8.33-3.51,9.85-8.16a18.51,18.51,0,0,1,3.22-5.83c6-7.42,7.61-7.41,10.73,1.72,2.5,7.32,7.63,2.87,11.49,3.4.06.66.2,1,.09,1.11-2.66,3.7-3.8,10.51-2.42,15.36.64,2.23.17,4-1.89,5.09-2.77,1.44-3.42-.82-4.17-2.66a36.9,36.9,0,0,1-1.43-4.23c-.87-3.07-1-6.73-5.62-6.59-4.12.12-7.16,2-8.78,5.84a35.85,35.85,0,0,0-1.29,4.29c-.65,2.28-2.09,3.3-4.46,2.86-2.2-.41-3-2-2.36-3.85C759.05,958.78,756.05,957.17,754.93,953.72Z"/><path d="M735.69,950c-3.34,4.11-7.45,4.68-11.1,6-4.06,1.47-4,4.19-2.31,7.12,1.86,3.28,4,1.83,6-.15,1-1,2.2-2.72,3.68-1.39,1.67,1.5.33,3.13-.72,4.6-4.3,6-9.75,6-13.84-.17-4.48-6.75-4.71-14.64-5.57-22.31-.34-3.08,1.76-4.48,4.47-5,6.85-1.42,13.71-2.83,20.58-4.18,1.7-.33,3.76-.73,4.47,1.46.94,2.87-1.59,3.38-3.4,3.8-4.62,1.06-9.3,1.83-14,2.7-3.6.67-6.33,2.19-5.25,6.49,1,4,4,2.64,6.69,2.19C728.57,950.63,731.57,949,735.69,950Z"/><path d="M182.39,970.34a14.07,14.07,0,0,1-10.9-3.28c-1.44-1.19-2.91-2.42-1.58-4.32s3.07-1.46,4.55-.1c3.62,3.33,7.84,4.09,12.55,3.31,5.63-.94,7.42-4,4.76-9-2.81-5.3-6-10.39-9-15.6-2-3.43-2.94-7.1-.53-10.63s5.39-.31,8.13-.18c4.26.22,8.52.1,12.78.22,1.69,0,3.85-.16,3.92,2.34s-2.08,2.31-3.8,2.26c-1.25,0-2.49-.35-3.74-.36-9-.06-11.42,3.6-7.62,11.63a21.41,21.41,0,0,0,2.44,4.64C203.46,962.32,195.3,971.54,182.39,970.34Z"/><path d="M109.43,947.16c-.21,3.62-.25,6.87-.62,10.08-.29,2.54-1.81,4.15-4.58,3.72s-3.06-2.63-2.4-4.58c2.49-7.32.12-14.27-1.2-21.32-.42-2.24-1-4.74,2.06-5.5s4.47,1.12,5.24,3.9C109.21,938.09,109.23,942.78,109.43,947.16Z"/><path d="M428.85,1237.61c-.63,5.47-.92,10.92.42,16.34.58,2.32,1.55,5.33-2.26,5.84s-4.57-2.31-4.7-5.26c-.33-7-.58-13.92-.81-20.88-.26-8.1-1.41-9.15-9.37-8-3.19.47-6.33,1.37-9.53,1.76-7.45.91-11.13,4.41-11.82,12.45-1,11-8.2,14.78-20.15,11.74-9.57-2.44-9.55-2.44-10,7.25-.17,3.45.18,8-4.69,7.76s-4.53-4.84-3.88-8.14c1.51-7.55-1.31-14.87-.63-22.29.22-2.41-1.08-6.06,2.75-6.9s5.31,1.9,6.35,4.92c2.49,7.21,8.37,10.23,15.12,11.89,4.87,1.19,8.4-.48,9.24-5.87.66-4.25,4.36-9.76-4.06-10.51-1.69-.15-3-.91-3-2.67a3.82,3.82,0,0,1,3.75-3.89h0c13.86-1.4,27.73-2.69,41.58-4.07,3.84-.38,5.59,1.45,5.64,5.09C428.9,1228.61,428.85,1233.09,428.85,1237.61Z"/><path d="M67,1223.49c7.59,0,14,.19,20.08,3.08,7,3.39,9.3,7.93,6.59,15.17-5.23,14-15.55,22.8-29.32,27.87-4.57,1.67-6.73-.47-6.7-4.92.06-11.72-.3-23.39-2.47-35-.9-4.79,1.37-7,6.21-6.7Zm3.37,6.35c-5.53-.5-8.5,1.75-7.31,7.35a98,98,0,0,1,2,20c0,5,2.3,5.57,6.09,3.07a45,45,0,0,0,13.41-12.85c6.77-10.42,4.55-15.19-7.67-16.55C74.68,1230.61,72.48,1230.19,70.37,1229.84Z"/><path d="M302.93,1255.36c-8-.68-15.92-1.86-22.39-7.16-2.51-2.06-4.37-3.43-5.71,1-.7,2.32-2.31,4-5,3.09s-1.56-3.29-1.61-5.12a51.42,51.42,0,0,0-3.57-18.18c-1.36-3.34-1.29-6.18,3.72-5.17a9.92,9.92,0,0,0,8.92-2.71c3.71-3.32,8.43-4.06,13-5.2,2.88-.72,5.58-.28,7.16,2.49a6.44,6.44,0,0,1-1.15,8.22c-2.77,2.81-5.23,5.88-8.87,7.86-6.16,3.37-6.22,6-.64,10.23,4.93,3.77,10.82,4.8,16.75,5.73,2,.31,5.23-.76,4.85,2.81C308,1256.52,304.9,1255,302.93,1255.36Zm-12.81-30.69a2.1,2.1,0,0,0-1.28-2.6c-2.25-1-10.66,2.59-11.47,5-.3.92-.61,2,.52,2.57,2.49,1.32,4.7,0,7-.84S289.44,1227.07,290.12,1224.67Z"/><path d="M851.66,1246.32c1.65,5-.84,6.81-4.81,7.59-7.52,1.49-14.83.42-22.13-1.63-7.78-2.19-9.62-1-11.51,6.86-.51,2.16-.31,4.94-3.43,4.82-3.28-.12-2.53-3-2.85-5.13-1.45-9.43,1.61-19.63-5-28.21-1.06-1.38.49-2.83,1.84-3.5,2.13-1.07,3.67-.18,5.09,1.65,2.12,2.71.55,9.37,6.73,7.57,3.72-1.09,4.25-5.88,5.93-9.14,2.09-4,4.92-6.89,9.49-7.58,1.88-.29,3.84.73,4.19,2.46.94,4.65-1.91,8-4.78,11.16a27.52,27.52,0,0,1-8.42,6.12c-1.55.76-3.3,1.43-2.93,3.73.29,1.77,1.72,2.46,3.14,2.79,7,1.63,14.08,3.17,21.13,4.67C846.84,1251.3,848.18,1247.45,851.66,1246.32Z"/><path d="M533,1234.11c.38-4.58.59-7.31.83-10,.2-2.19.89-3.93,3.58-3.74a4.16,4.16,0,0,1,4.28,4v.21c.25,3-2.74,8.44,3,7.94,5.33-.46,12.59,1,15.28-6.48.71-2,0-5.13,3.4-4.63,2.68.41,4,2.69,4.32,5.44.85,8.41,1.77,16.82,2.51,25.25.27,3.17-1.32,5.55-4.64,5.52-3,0-4-2.26-4-5.18,0-3.73-.15-7.47-.37-11.2-.31-5.39-3.2-6.84-8.07-5l-7,2.56c-4.58,1.67-6.43,4.45-3.95,9.21a12.23,12.23,0,0,1,1.32,4.22c.28,2.55-.86,4.42-3.55,4.82-2.4.35-3.87-1-4.2-3.25C534.67,1246.61,533.77,1239.48,533,1234.11Z"/><path d="M749,1240.84c-.09,3.26-.3,8.24,2,12.91,1.35,2.7,1.8,5.74-1.73,6.78-4,1.16-5.14-1.86-5.49-5.16-.39-3.71-.71-7.42-1.09-11.14s.51-8.62-5.94-7.86c-8.54,1-12.49,4.56-11.22,10.56,1,4.45,2.14,8.74-.45,13-.63,1-.82,2.57-2.34,2.57s-2-1.32-2.42-2.44a14.47,14.47,0,0,1-1.24-5c.17-5.58-.54-10.85-3.38-15.83a9.58,9.58,0,0,1-1-5.78c.45-3-.34-7.49,3.32-8.4,3.87-1,4.25,3.26,5.18,6,.64,1.88,1.69,3.42,3.75,2.34,4.08-2.14,9.9,2.4,12.87-3.32,1.3-2.51,1.2-6.41,5.73-4.91,4,1.31,3.84,4.78,3.89,8C749.52,1235.14,749.31,1237.13,749,1240.84Z"/><path d="M627.47,1242.38v-9.71c0-2.39.43-4.58,2.77-5.64,2.61-1.19,4.78-.17,6.65,1.85,6.54,7.07,14.79,11.72,23.16,16.14,5.66,3,7.11,2.07,6.56-4.19-.46-5.17.56-10.47-1.35-15.54-.58-1.53-.22-3.06,1.56-3.62s2.89.73,3.28,2.19c2.15,8,3.36,16.13,1.61,24.33-1.12,5.26-5.42,4.39-9,3.53-7.1-1.69-13.2-5.67-19.47-9.23-2.11-1.19-4.25-3.33-6.83-2-2.9,1.46-1.07,4.45-1.32,6.74a57.21,57.21,0,0,0,.1,6c0,2.93-1.83,3.77-4.44,3.7s-3.22-1.82-3.21-4C627.48,1249.35,627.47,1245.86,627.47,1242.38Z"/><path d="M582.38,1256.19c2.39-10.33,6.56-20.22,8.71-30.71.81-4,4.94-3.89,7-1.31,6.6,8.1,15.84,14.55,17.13,26.2.29,2.58-.22,4.46-2.67,5.43-2.69,1.07-3.27-1.25-4.35-2.86-2-3-1-8.82-7-8-5.49.77-8.64,4.43-10.15,9.68a19.18,19.18,0,0,1-2,4c-1.09,1.87-2.58,3.11-4.89,2.19S582.81,1257.91,582.38,1256.19Z"/><path d="M324.76,1238.27c1.21-.26,2.9-.72,4.62-1s4.27-1.52,4.83,1.52c.51,2.77-2,3.1-3.87,3.55-5.74,1.39-11.45,2.41-8.77,10.89,1,3,1.76,5.06,5.23,5,1.75,0,3.74-.09,4.11,2.21.39,2.47-1.58,3.52-3.36,4.39-4.85,2.37-8.32.8-9.93-4.19-1.91-5.92-3.43-12-5.1-18-.6-2.16-.83-4.48-1.77-6.47-3.74-7.87-3.71-8,5.26-9.41,6.65-1,13.27-2.27,19.94-3,2.25-.26,6.17-2.67,6.57,1.81.33,3.62-3.46,2.59-5.72,2.91a59,59,0,0,0-14.45,3.64c-1.62.68-3.27,1.84-2.85,3.88C320,1238.55,322.16,1238.61,324.76,1238.27Z"/><path d="M253.58,1221.15c-4.58,4.89-10.39,4.29-14,7.68-1.36,1.29-4,2.06-2.68,4.55,1.2,2.17,3.5,1.16,5.42.76a4.44,4.44,0,0,1,.71-.21c2.82-.2,5.8-5.72,8.14-1.08,2.46,4.84-3.52,4.77-5.93,6.66-1.55,1.21-3.57,1.8-5.18,3-3,2.13-4.22,4.86-2,8.34,2.53,4,4.88,1.76,7.31-.16,1.27-1,2.75-3,4.32-1.16,1.37,1.66.49,3.77-1,5.36-3.38,3.55-7,6.38-12.41,5.11-5.11-1.21-5.21-5.45-5.73-9.36a80.89,80.89,0,0,1-1-11.1c0-3-.15-5.5-3.46-6.53-1.45-.45-3-.81-2.91-2.77.1-2.17,1.86-2.77,3.53-3.3C234.87,1224.24,243.11,1221.39,253.58,1221.15Z"/><path d="M214.12,1221.61c2.5.11,5-.26,5.33,2.35.39,3.15-2.37,3.32-4.58,3.54a65.31,65.31,0,0,0-16,3.34c-1.36.48-3.09.9-2.25,3a2.61,2.61,0,0,0,3.1,1.48c2.92-.57,5.81-1.34,8.73-1.93,1.85-.37,4.3-1.54,5.13,1.06s-1.86,3.19-3.5,4.06a30.44,30.44,0,0,1-9.77,3.47c-4.64.71-6.44,3.26-4.29,7.93a16.65,16.65,0,0,1,1.65,5.65c.18,2.61-.69,5.16-3.71,5.62-3.6.55-3.68-2.3-4.13-4.81-1.44-8-.63-16.45-4.88-23.93-1.51-2.66.46-4.48,2.75-5C196.64,1225.23,205.64,1223.4,214.12,1221.61Z"/><path d="M168,1236.26a26.52,26.52,0,0,1-15.5,8.63c-6.07,1.09-8.91,3.79-6.16,10.36,1.16,2.77,2.7,6.93-2.32,7.72-4.68.72-3.83-3.57-4.21-6.27-1-7.4-1.64-14.87-2.88-22.23-1-5.63,1.23-8.48,6.55-9.64,9.24-2,18.46-4.12,27.7-6.15,1.3-.29,3.06-1.61,3.81.49.81,2.29-1.13,3-2.84,3.49-6,1.77-12,3.46-17.93,5.22a67.15,67.15,0,0,0-7.08,2.29c-3.1,1.31-4.73,3.65-3.73,7.15,1.1,3.83,4.11,2.86,6.77,2.48C155.76,1239,160.6,1234.82,168,1236.26Z"/><path d="M500.31,1227.68c-3.72-1.24-10.32,1.94-10.55-3.77s6.17-2.74,9.65-3.38c7.1-1.3,14.28-2.13,21.37-3.43,3.3-.61,6.39-.92,6.79,3.26.37,3.77-2.21,5.33-5.8,5-4.27-.46-5.38,1.79-4.71,5.41,1.21,6.59.15,13.51,3.06,19.85,1.37,3,1.89,6.27-2.31,7-3.73.69-5.25-2.29-5.67-5.49-.67-5.19-1.36-10.4-1.56-15.62C510.36,1229.61,508.64,1225,500.31,1227.68Z"/><path d="M791.79,1246.8c1.22,6.67-1.21,11.7-7.59,13.77s-10.37-1.64-13.4-6.77-2.37-10.6-2.23-16.06c.08-3,.72-6.09-3-7.56-1.37-.53-3-1.16-2.57-3.06s2-2,3.5-2.26c2-.37,3.89-.86,5.86-1.12,6.9-.93,14-1.16,20.14-5,1.32-.82,2.88-1.58,3.87.18,1.14,2-.12,3.36-2,3.88-4.81,1.29-9.66,2.43-14.49,3.65-1.66.41-4,.59-3.64,2.84.41,2.55,2.88,2.48,4.86,2.06a38.79,38.79,0,0,0,6.39-2c1.42-.57,3-1.61,3.86.22,1.17,2.37-1,2.83-2.58,3.51-2.29,1-4.51,2.11-6.83,3-6.68,2.49-8.86,13.41-3.42,18.11,3.4,2.92,7,2.56,9.73-1A51.65,51.65,0,0,0,791.79,1246.8Z"/><path d="M853.38,1255.47c5.74,1.65,10.24,5.17,15.73,4.86,2.56-.15,6.17,1.33,7.14-2.13s-2.92-3.34-4.89-4.42c-11.89-6.49-16.09-15.32-11.59-24.68a14.62,14.62,0,0,1,4.61-5.75c2.18-1.59,4.6-2.82,6.58-.36s-.79,3.72-2.29,5.27c-5.32,5.49-5.14,11.74.78,16.74,3.78,3.2,8,5.85,12,8.78,5.11,3.71,4.52,8.53-1.34,11.11C873.07,1268,858.69,1263.29,853.38,1255.47Z"/><path d="M114.5,1258c.9-5.77-1.89-10.53-4.22-15.43-1.19-2.51-2.66-5.32,1.14-6.73,3.4-1.27,4.94,1.2,5.91,4,2.13,6.08,4,12.25,3.83,18.77-.07,2.68,1.29,6.91-3.33,6.75S113.9,1261.26,114.5,1258Z"/><path d="M807.5,134c.08-3.5-1.35-7.36,3.4-7.56,4.22-.18,3.88,3,3.45,6-.47,3.2,1.28,4.26,4.1,4a82,82,0,0,0,17.83-3.38c3-.93,3.53-3.2,3.89-5.94.4-3.06,2.6-5,5.44-3.27,10.13,6.3,19.13.44,28.37-2.31,2.36-.71,4.29-2.9,7.11-1.75,1.78.73,3.43,1.6,3.78,3.74s-1.14,3.09-2.68,3.55c-3.94,1.16-4.59,4.11-4.75,7.6-.23,5.12-.67,10.23-.93,15.36-.19,3.53-.28,7,3.15,9.44,1.67,1.17,2.56,2.77,1.06,4.75s-3.34,1.52-5.11.92c-4.16-1.43-5.45-4.91-5.54-8.85-.17-7.23-.18-14.47-.13-21.7,0-4.56-1.29-6.28-6.31-4.78-4.28,1.29-8.3,4.48-13.39,2.57-1.59-.59-2,1.48-2.25,2.86-1.14,5.74-2.46,11.45.9,17,1.39,2.29,2.13,4.87,0,7.1a4.62,4.62,0,0,1-5.17,1.15c-3.3-1.18-2.71-3.91-2.8-6.41-.14-3.5-.64-7-.38-10.48.47-6.51-2.37-7.06-7.59-5.06a69.66,69.66,0,0,1-11.43,3.17c-5.34,1.06-7.18,3.83-5.11,8.95.81,2,1.36,4,.34,6.07a3.28,3.28,0,0,1-3.35,2c-2.32-.22-3-1.87-3.22-3.9C809.32,147.71,808.36,140.54,807.5,134Z"/><path d="M558.81,143c8.3,3.92,15.36,5.94,23,5.44,1.69-.11,4.16-.78,4.08,2.23-.07,2.23-2.06,2.14-3.68,2.29-10.38,1-20.61,1-29.48-5.7-3.94-3-5.83-2.05-6.14,2.79-.22,3.49-.45,7-.85,10.47-.24,2-1.3,3.46-3.68,3.38-2.58-.09-4-1.51-3.8-4a73.18,73.18,0,0,0-3.7-31c-.82-2.39,0-4.26,2.44-5,2.68-.75,4.6.45,5.27,3.15a26.48,26.48,0,0,1,.27,4.17c.14,1.82-.18,4,2.18,4.61,2,.5,2.72-1.44,3.5-2.8,5.44-9.41,14.44-10,23.83-9.77,3.38.08,4.43,2.07,4.43,5,0,5.3-2.79,8.8-7.41,10.88C566.23,140.5,563.18,141.42,558.81,143Zm-1.3-5.74c4-1.16,9-1.74,11-6.59.71-1.71-1.38-2.77-3.21-2.35-4.56,1.06-10.19.7-11.64,6.74-.51,2.12,1.84,2.15,3.85,2.22Z"/><path d="M156.12,125.05c-.14,1.84-1.65,5.22-3.46,8.51-5.3,9.64-12.58,17.34-22.38,22.45-3,1.56-6.55,2.29-9-.66s.51-4.22,2.66-5.72c1.81-1.25.88-3.43.81-5.21q-.69-17.1-1.47-34.23c-.12-2.58-.62-5.35,2.86-6.19s4.42,1.51,5,4.23c.75,3.21,3.31,3.56,6,3.62a35.1,35.1,0,0,1,14.15,3.5C154.56,116.88,156.46,119.33,156.12,125.05Zm-16-6.06c-8.07-.35-9.26.7-9.49,8.87-.12,4.4,0,8.82.07,13.23a4.62,4.62,0,0,0,2.71,4.5c2.13.88,3.54-.54,4.8-1.91a64.27,64.27,0,0,0,8.67-12.58C151.64,122.48,149.9,119.37,140.12,119Z"/><path d="M169.66,142.53c1.12-4.82,2.55-10.71-2.41-16-1.37-1.46,0-3.57,1.7-4.7s3.53-1.74,4.89.33c2.31,3.48,4.27,2.23,6.68,0a25.48,25.48,0,0,1,15.2-6.38q10.41-1,6.18,8.71a14.5,14.5,0,0,1-6.67,6.88c-1.39.77-3.32,1-3.35,3.07,0,2.44,2.22,2.72,3.83,3.45,3.6,1.63,7.24,3.17,10.88,4.7,2.5,1.06,5.1,2.33,3.58,5.55s-4.56,3.48-7,1.32c-5.56-5-12.9-6.36-19-10.08-4.12-2.5-6.44-2.53-6.35,3.11a8,8,0,0,1-.59,2.69c-.77,2.21-2.25,3.55-4.73,3.24C169.55,148.05,169.61,145.83,169.66,142.53Zm15.49-12.47c3.54-1.26,7.67-2.16,9.13-6.32.44-1.26-1.67-2.09-3.12-1.49-3.33,1.38-7.5,1.81-8.82,5.91-.62,2,1.22,2,2.81,1.9Z"/><path d="M344.72,131.39a24.87,24.87,0,0,0,4.59,17.26c1.63,2.26,2.57,4.85-.43,6.59s-5.34.51-6.9-2.46c-2-3.8-2.37-8-3.07-12.11-.3-1.78-.56-4-2.4-4.81-2.43-1-2.9,1.75-4,3-7.37,8.22-7.66,8.27-16.09,1.14-1.33-1.12-2.41-3.46-4.55-2.2-1.54.91-.8,3-.78,4.53,0,2.09.41,4.19-.81,6.11s-2.78,3.28-5.16,2.71-2.64-2.44-2.49-4.4c.56-7.43,1.14-14.85,1.79-22.27a3.73,3.73,0,0,1,3.62-3.61c2.22-.22,4.23.2,5,2.77a20.2,20.2,0,0,0,.76,2.69c2,4.66,5.09,8.61,10.22,9.61,4.63.9,6.69-3.45,9.4-6.2.48-.49.81-1.14,1.28-1.65,2.2-2.42,3.07-7.26,7.61-5.75C347,123.88,343.93,128.37,344.72,131.39Z"/><path d="M405.93,128.39c-1.11-4,2.71-5.86,8.47-6.52,8.32-1,16.78-.92,24.91-3.27,2.62-.76,4.92-.54,5.15,2.65s-2.37,3.94-4.77,3.85c-6.6-.25-12.89,1.66-19.34,2.47-2.22.27-5.62.35-5.22,3.3.55,3.93,3.95,1.87,6.21,1.55,3.68-.52,7.32-1.46,11-1.91,1.64-.2,4.22-1.49,4.89.86.76,2.67-2.18,2.46-3.74,2.89-4.25,1.18-8.55,2.22-12.87,3.08-3.14.63-6.07,1.28-6.26,5.24s0,8,4,10.5c3.55,2.21,5.59-.56,7.91-2.37.92-.71,1.78-1.5,2.64-2.29,1.29-1.2,2.65-2,4.24-.55s.91,3-.42,4.2c-2.79,2.46-5.45,5.21-8.61,7.08-6.72,4-13.4,1.18-14.94-6.47C407.72,145.62,407.22,138.38,405.93,128.39Z"/><path d="M691.34,151.57c-.6,2.9,2.91,8.72-3.06,9.17s-4-5.74-4.17-9.13a139.5,139.5,0,0,0-1.67-19.46c-.69-4-.57-7.83,4.12-9,4.93-1.25,4.82,3.28,5.75,6.1,3.71,11.16,12.78,16.13,22.82,19.89,4.1,1.53,5.92-.8,5.16-4.63-1.16-5.88-1.38-12.09-5.14-17.24-1.26-1.71-2.63-3.77.19-5.23,2.37-1.24,4.7-1,5.54,2,2,7.39,5,14.62,4.6,22.48-.32,7.29-2.51,8.92-9.85,7.26a48.07,48.07,0,0,1-18.22-8.48c-1.57-1.16-2.75-4-5.09-2.81-2.58,1.33-.94,4.2-1.12,6.39A21.93,21.93,0,0,0,691.34,151.57Z"/><path d="M763.41,137.46A51.89,51.89,0,0,0,766.27,156c1.42,4.2,3.81,6.32,8.36,4.95,4.18-1.25,5-4,4.11-8.12-1.22-5.46-1.77-11.06.78-16.43,1.17-2.49,3-4.22,5.81-4.36s4.68,1.71,5.83,4.19c2.87,6.21,4.33,12.37-.64,18.31-1,1.24-2.55,2.62-1.73,4.28,4.42,9-.9,6.74-5.88,5.31-2.06-.59-4.08.32-6.1,1-7.56,2.52-12.22.93-15.63-5.9-4.62-9.26-4.51-19.34-4.26-29.39a2.88,2.88,0,0,1,2.59-3.13h.41c2,0,3.77.77,3.81,3.12C763.78,132.35,763.53,134.9,763.41,137.46Zm20.21,10.2c.34,2-1,5.07,2.17,5,3.85-.11,3.37-3.64,3.5-6.31.12-2.31.16-5.69-2.52-5.57C782.33,141,784.72,145.38,783.62,147.66Z"/><path d="M277.31,121.23c1.76.35,3.12.21,3.51.75,3.59,5,7.7,8.64,14.51,6.81.23-.06.87,1.41,1.33,2.16-1,.52-1.93,1.38-3,1.49-6.61.7-5.76,3.59-2.66,7.75,2.32,3.12,7.2,7.51,2.46,10.46-5.6,3.49-6.75-3.51-8.78-7-1.89-3.24-3.19-7.51-7.6-7.2-4.67.32-5.85,4.69-7.13,8.53a58.45,58.45,0,0,1-2.86,7.12c-1.2,2.47-3.23,3.25-5.83,2.12s-2.6-3.39-1.64-5.3c2.15-4.22,4.8-8.18-.18-12.29-.59-.48-.06-2,.94-2.22,4.91-.86,4.61-4.85,5.72-8.4C268.07,119.89,275.2,126,277.31,121.23Z"/><path d="M624.52,137.28a44.09,44.09,0,0,1-1.92,11.11c-2.31,6.59-2,13.28-.33,20,.57,2.35,1.06,4.61,3.79,5.31,2.07.52,3.48,1.52,2.82,3.89a6,6,0,0,1-4,4.49,4.18,4.18,0,0,1-5.33-2.1,35.85,35.85,0,0,1-4.75-18.76c0-3.85-1-5.94-5.57-5.94-7.79,0-17.47-12.82-16.12-20.52.4-2.31,1.79-3.09,3.86-3.2,2.43-.14,3.15,1.37,3.51,3.44.71,4.13,1.15,8.39,4.43,11.54,2,1.94,4.11,4.17,7.28,3,2.79-1,3.26-3.67,3.46-6.35.16-2.09.42-4.18.78-6.25.54-3.11.18-7.18,5.1-6.74C626.72,130.66,623.09,135.14,624.52,137.28Z"/><path d="M249.65,131.05c-6.62,2.5-13.19,5.15-19.89,7.43-2.7.92-4.94,1.8-4.47,5.1s1.91,5.69,5.63,6.12c1.74.2,4.81-1.4,4.63,2.06-.14,2.62-2.75,3.53-5.15,3.9-4.52.69-7.64-1.34-9.77-5.18-4.73-8.5-4.11-17.54-2.4-26.58.57-3,3.11-4.38,6.18-4.81,8.07-1.14,16.13-2.41,24.19-3.63,2.15-.33,4.53-.71,5,2.14.59,3.34-2.23,3.64-4.49,4-6.2,1-12.44,1.9-18.64,2.93-3.54.58-6.7,2.15-5.62,6.33s4.22,2,6.85,1.4c5.73-1.39,11.52-2.57,17.29-3.84Z"/><path d="M521.28,119c2.64.63,5.62-1.06,5.76,2.32s-2.79,3.19-5.08,3a21.7,21.7,0,0,0-10.16,2c-1.43.62-3.29,1.35-2.4,3.5.66,1.59,2.16,1.44,3.58,1a7.08,7.08,0,0,1,1.36-.32c2.27-.15,5.5-3.17,6.57.55,1.2,4.2-3.41,3.7-5.64,4.3-6.45,1.75-8,5.34-5.87,11.47,3,8.68,4.26,9.59,11.93,7,1.44-.49,2.8-1.07,3.71.35,1.19,1.85-.35,2.94-1.61,4-6.57,5.56-16.24,3.63-18.71-4.81-2.58-8.79-7.07-17-7.69-26.47-.17-2.64.43-3.38,2.46-3.77C507,121.7,514.53,120.31,521.28,119Z"/><path d="M484.06,128.71c-.23-2.72-.38-3.88-.42-5-.09-2.25.93-3.5,3.29-3.51s4,.76,4,3.61c-.3,10.55-2.44,20.47-10.18,28.26-5.3,5.33-10.1,4.79-13.45-1.78-4.34-8.51-8.06-17.33-12.14-26-1-2.06-.9-3.73,1.28-4.61,3.12-1.28,5.57-.13,6.85,2.9,2.53,6,4.88,12.1,7.3,18.17.93,2.35,1.39,5.49,4.36,5.78,3.34.33,4.47-3,5.92-5.25A22.74,22.74,0,0,0,484.06,128.71Z"/><path d="M734.58,123.39c3.19,0,4.14,1.63,4.62,3.91,1.84,8.85,3.24,17.79,6.38,26.34.67,1.81,1,4.4-2.15,4.83-2.26.3-4.33-.26-4.86-2.82-2-9.53-3.8-19.06-7.53-28.15C729.81,124.51,732.72,123.75,734.58,123.39Z"/><path d="M164.08,26.47c0-6.3-.05-12.59,0-18.88.1-2.8-.06-5.9,3.74-6.53s4.41,2.51,5.36,5.11c2.61,7.25,5.4,14.42,9.5,21a43,43,0,0,0,4.6,6.13A6.3,6.3,0,0,0,194.92,35c2.69-1.18,3.52-3.54,3.53-6.3,0-7.76-.72-15.4-4.19-22.49-1.23-2.52-2.49-5,1.4-6,2.87-.73,5.12.5,5.52,3.71,1,7.62,2.15,15.23,2.79,22.89.5,5.81-1.79,10.75-7.34,13.19-5.82,2.44-10.45-.26-14.09-4.8-2.61-3.28-4.93-6.79-7.26-10.27-.89-1.34-1.27-3.27-3.48-2.39-1.68.68-1.24,2.3-1.2,3.65.16,5.83.37,11.66.51,17.49.07,2.91,0,6-4.07,5.84-3.43-.15-3.86-2.78-3.86-5.52V26.49Z"/><path d="M295.18,35.68c-.19-6.51-.07-13.06-3.69-18.94-1-1.67-1.29-3.75.25-5.15a5,5,0,0,1,3.85-1c2.12.51,2.41,2.51,2.41,4.5,0,1.79-.47,4.23,2,4.55,2.65.34,2.29-2.43,2.93-4,3.9-9.51,10.88-14.18,17.16-11.41s8.45,11.85,4.21,20.28c-2.75,5.46-1.87,8.18,4.21,9.09a39.78,39.78,0,0,1,4,1.06c2,.52,4.65.78,3.76,3.74s-3.41,1.48-5.26,1c-6.95-1.91-14-3.64-20.77-6-5.22-1.81-7.2-.24-8,5-.54,3.64,2,10.29-4.12,9.89s-2.26-6.76-3-10.43A10,10,0,0,1,295.18,35.68Zm25.53-18.39c-.25-3.93-.84-7.22-5.15-7.4-3.25-.14-9.31,7.73-9.52,11.78s2.53,3.8,5.1,3.67C316.57,25.06,320.53,23,320.71,17.29Z"/><path d="M790.18,43.1c-.21-3.26-.63-6.52-.58-9.78,0-2.3.43-4.78,3.36-5.48,2.6-.63,4.56.37,6.07,2.45.54.75,1,1.54,1.55,2.32,3,4.48,6.81,8.22,12.46,7.65,6-.61,9-5.3,10.75-10.7.92-2.88,2.07-5.42,5.66-4.92,3.77.52,2.59,3.72,3,6.08,1.57,9-1.31,18.78,4.56,27.15,1.16,1.65-.3,3.14-2,3.67a4.15,4.15,0,0,1-5.38-2c-2.52-4.73-2.24-9.91-2.39-15-.06-2.21.94-5.28-1.66-6.24-2.94-1.09-3.48,2.4-4.82,4-5.84,7.15-8,7.5-15.78,2.35-2-1.32-3.78-4.27-6.64-2.2-2.48,1.8-1.19,4.73-1.12,7.21,0,1.85.39,3.72.25,5.55-.18,2.47-1.7,3.75-4.24,3.58-2.32-.15-3.25-1.59-3.27-3.74V43.15Z"/><path d="M418.69,46.35c-.7,2.5,2.82,6.83-2.77,6.91-4.34.06-4-3.71-4.11-6.71-.14-4.2-.16-8.4-.28-12.6-.1-3.58-1.93-4.86-5.49-4.4-9.69,1.25-9.86,1.4-9.73,11.64,0,2.73.69,6.13-3.52,6.27s-4-3.25-3.83-6c.34-4.68.11-8.72-5-11.07-2.31-1.06-1.81-3.41.51-4.1,5.32-1.59,4.58-5.55,4.47-9.56-.07-2.4-.74-5.87,3-6,4.38-.1,3.73,3.82,3.21,6.21-1.11,5.09.59,8.46,5.6,7.62,3.79-.64,11.73,2.37,9.82-7a2.8,2.8,0,0,1,1.9-3.32,3.29,3.29,0,0,1,3.88.67c2.21,2.49,4.73,5.57,3.35,8.73C416.41,31.26,417.92,38.8,418.69,46.35Z"/><path d="M592.18,29.36V17.46c0-2.49,1-4.14,3.64-4,2.94.15,3,2.44,3,4.59.07,2.62-3.24,6.31,1.71,7.43A18.15,18.15,0,0,0,614,23c1.74-1,.66-2.83.06-4.39-1.2-3.07-.63-5.8,3-6.45,4.25-.78,5,2.19,5.06,5.61.05,9.76-1.74,19.58,1.23,29.23.5,1.62,0,3.46-2.09,3.75-2.49.35-4.65-.31-5.47-3.12-1.21-4.13-.64-8.35-.64-12.53,0-4.64-1.51-6.75-6.34-4.73a17.64,17.64,0,0,1-4.65,1.48c-5.79.66-6.67,3.74-5.27,8.87.74,2.72,3,7.32-2.06,7.86-4.6.49-4-4.25-4.17-7.32-.25-4-.06-7.92-.06-11.89Z"/><path d="M657,51.9c-2.73,4-5.91,6.23-10.28,5.08s-6-4.69-6.79-8.87c-1.81-9.44-2.07-19-1.9-28.52.07-4.09,1.49-6.6,6.09-6.63,5.35,0,10.7-.44,16.06-.59,1.35,0,3.08-.08,3.32,1.72.31,2.28-1.55,2.33-3.2,2.67-3.63.75-7.22,1.7-10.83,2.53-1.71.39-3.33,1-2.87,3.12s2.31,2,4,1.88c3.25-.32,6.48-.78,9.72-1.08,1.35-.13,3.1-.45,3.6,1.24.71,2.39-1.64,2.43-3,3a27.57,27.57,0,0,1-4.75,1.21c-5.45,1.19-11.38,1.56-11.22,9.6C645.18,47.34,646.88,49.62,657,51.9Z"/><path d="M764.12,47a16.24,16.24,0,0,0-12.62,9.24c-1.22,2.39-2.81,4.56-6,2.82-2.93-1.6-1.67-3.83-.72-6,3-6.82,5.84-13.7,8.92-20.47,2.9-6.37,10-6.88,14.36-1.23,5.19,6.72,7.31,15,11.72,22.18,1.28,2.07.83,4.21-1.73,5.08-2.36.8-3.9-.26-4.84-2.64-1.79-4.54-3.69-9-5.76-13.45-1-2.05-2-4.41-4.76-4.61-1.71-.13-2.38,1.28-2.92,2.57C758.18,44.28,762.72,43.89,764.12,47Z"/><path d="M723.3,65.48c-8-.66-14-2.89-18.84-7.73-1.37-1.38-3.71-3-1.56-5.22,2-2,3.85-.56,5.25,1.24,3.45,4.4,8.51,5.41,13.53,6.55,1.77.4,3.77,1.43,5-.76s-.79-3.34-2.21-4.43a23,23,0,0,1-9-16.71c-1-10.39,5.09-19,15.17-21.21,2.06-.46,4.29-1.18,5.16,1.75.64,2.17-.53,3.39-2.3,4.5C716.75,34,716.27,42,731.59,54.37c1.91,1.53,3.75,2.88,2.93,5.69a5.8,5.8,0,0,1-4.89,4.41C727.11,64.9,724.58,65.28,723.3,65.48Z"/><path d="M431.08,44.42c.13-3.75,1.51-6.45,2.8-9.19,2.67-5.65,6.45-10.83,7.18-17.31.28-2.51,2.25-3.46,4.46-3.66a4.2,4.2,0,0,1,4.74,3.33c1.51,8.6,5.84,16.17,8.56,24.31.8,2.39,1.7,5.47-1.51,6.68-3.72,1.41-3.72-2.42-4.9-4.42a12.68,12.68,0,0,1-1-2.61c-.86-2.69-.15-6.7-4.71-6.41-3.71.23-5.63,3-6.87,6.16-.5,1.29-.77,2.68-1.16,4-.66,2.26-1.88,3.8-4.52,3.21a3.57,3.57,0,0,1-3.08-4S431.08,44.45,431.08,44.42Z"/><path d="M273.18,23.79c.55-4.2-.83-8.16-2.06-12.16-.57-1.85-.75-3.91,1.6-4.62s4.3.17,4.75,2.74c1.72,9.86,3.65,19.78-.73,29.47-4.1,9.08-12.82,10-18.4,1.67-4.9-7.28-5.21-16.27-8.21-24.3-.73-2,.54-3.61,2.74-4.06,2.67-.54,4.06.84,4.15,3.34.22,7.12,3.27,13.49,5.37,20.12.82,2.59,2,5,5.23,4.5,3.06-.44,5.17-2.16,5.13-5.56C272.69,31.23,274.64,27.63,273.18,23.79Z"/><path d="M483.61,47.09c-3.71-2.47-7.41-4.43-10.49-7.1-7.09-6.17-7-13.52,0-19.66A37.79,37.79,0,0,1,484.93,13c2.17-.79,5-1.37,6,1.5,1,2.68-1.65,3.33-3.52,4.22-2.93,1.4-6.05,2.55-8.68,4.4-6.18,4.36-6.16,10.23-.16,14.91,3.52,2.75,7.74,4.19,11.81,5.9,1.88.8,4,1.6,4,4.26,0,3.19-2.63,3.41-4.77,4.17-7.67,2.72-14-1-20.52-4.15a2.32,2.32,0,0,1-1.4-3,2.3,2.3,0,0,1,.26-.52c1.06-1.75,2.71-1.5,4.29-.75C475.72,45.64,478.72,48.77,483.61,47.09Z"/><path d="M574.18,12.36c1.63-.14,3.25-.37,4.88-.41,2.09,0,3.67.72,3.86,3.09.15,1.89-.67,3.31-2.59,3.51-6.68.66-6.62,5.22-6.23,10.21.41,5.32-.51,10.71,1.4,16,.76,2.1,1.47,5-1.87,5.68-3.18.67-4.78-1.41-5-4.38-.49-6.28-1.24-12.57-1.12-18.85.12-6-2.34-7.51-7.66-6.06-1.35.37-2.72.68-4.09,1-3.1.65-5.06-.54-5.39-3.75s1.67-3.92,4.34-4.14c6.5-.55,13-1.23,19.48-1.86Z"/><path d="M216.45,25.58c.17-13.65,3.4-18.66,11.58-19.83,2.65-.38,4.79-.22,5.35,2.79,1.28,7,4.83,13.52,3.77,21.12-.79,5.69-2.33,10.21-8.63,10.81s-9.24-3.78-11.21-8.72C216.39,29.45,216.58,26.71,216.45,25.58Zm6.09-1.94h.11a33.26,33.26,0,0,0,0,4.89c.52,3.24,1.91,6,5.83,5.49,3.68-.5,4-3.35,3.66-6.38-.23-2.08-.07-4.28-.69-6.23-1-3,.86-8.45-4.2-8.15-4.62.27-4.14,5.4-4.74,9A7.93,7.93,0,0,0,222.54,23.64Z"/><path d="M878.31,32.7c-3.08,3.26-7,2.61-10.6,3-4.28.47-8.9,1.88-7.15,6.95,1.41,4.1-3,13,7.43,11.5,1.57-.23,2.85.06,3.25,1.69s-.68,2.63-1.84,3.48c-3.92,2.88-10.37.75-12.74-4.58-3.4-7.62-3.27-15.89-3.58-24-.1-2.34,2.27-4.14,3.5-2.93,5.71,5.6,12.65,3,19.09,3.71A9.65,9.65,0,0,1,878.31,32.7Z"/><path d="M870.65,24H859.52c-2,0-3.76-.5-3.59-3.09.14-2.2,1.74-2.61,3.45-2.4a75.56,75.56,0,0,0,21.45.06c2-.32,3.86.5,4.07,2.79.26,2.78-2,2.64-3.83,2.67-3.47.06-7,0-10.42,0Z"/><path d="M660.8,1678c.28,4.12.6,6.81.61,9.5,0,1.66,0,3.65-2.36,4s-3.79-1.06-4.09-3.26a118.36,118.36,0,0,1-1.23-12.46,78.43,78.43,0,0,0-2.29-18.24c-.83-3.1-1.36-5.94,2.31-7.4,3.91-1.57,5.19,1.54,6.58,4.12,5,9.28,13.21,15,22,20.12,4.61,2.67,6.45.73,6.2-4-.3-5.63-.62-11.26-2.27-16.74-.82-2.7-2-6.43,2.29-7.15,3.93-.66,3.76,3,4,5.59.77,8.82,1.51,17.64,2.08,26.46.33,5.18-2.12,6.67-6.88,4.64-7.74-3.3-14.66-8-21.6-12.62-1.35-.91-2.35-3.11-4.24-2.29-2.39,1-.93,3.46-1.08,5.26A37,37,0,0,0,660.8,1678Z"/><path d="M262.63,1679.24c-.28-3.79-.63-8.45-1-13.1-.19-2.65-1-5.7,2.33-7,3.89-1.48,5.09,1.81,6.56,4.29,4.55,7.67,10.69,14.08,16.33,20.89,1.24,1.51,2.54,3.66,4.68,2.94,2.61-.88,1.9-3.64,2-5.79.29-5-1.13-9.73-2.45-14.47-.64-2.29-.56-4.46,1.1-6.22a3.23,3.23,0,0,1,4.08-.43c2.55,1.4,1.52,3.79,1.62,5.92.31,6.87.81,13.72,1,20.59.11,3.52-.36,7.09-4.19,8.68-4.2,1.73-6.18-1.58-8.48-4.13-3.94-4.39-8-8.7-11.91-13.08-1-1.14-2.07-2.24-3.72-1.58s-1.36,2.36-1.33,3.79l.39,17c.07,2.69-.49,5.27-3.73,5.16-2.7-.09-3.36-2.5-3.37-4.88C262.56,1691.91,262.63,1686,262.63,1679.24Z"/><path d="M390.49,1679.34v-14c0-1.65-.25-3.66,2.26-3.84a2.65,2.65,0,0,1,2.93,2.33c0,.1,0,.21,0,.31.52,6.85,5,6.35,9.52,5,6.55-2,15.12.43,18.56-8.89.83-2.24,4.49-2.26,5.4,1.25,2.45,9.47,2.7,19.38,5.67,28.78.64,2-.62,3.83-3.05,4.16s-3.92-.52-4.26-2.91c-.64-4.36-1.14-8.73-1.68-13.11-.92-7.57-2.22-8.44-9.31-6.24-3.27,1-6.52,2.11-9.84,3-10.15,2.57-11.85,5.36-9.35,15.72a16.87,16.87,0,0,1,.62,2.1c.24,2.67,2.44,6.47-2,7.22-4.56.78-3.76-3.49-4-6.18-.49-4.87-.71-9.77-1-14.66Z"/><path d="M340.3,1680.8c-.7-5.2-.08-9.52,2.71-13.24,1.53-2,3.09-5.17,6.35-3,3,2,1.77,4.76,0,7-4.95,6.47-4.28,13.2-1.15,20.09.7,1.56,1.51,3.68,3.4,3.34s1.69-2.72,1.79-4.38c.5-8,5.41-13.41,10.79-18.54,1.49-1.42,3.2-2.31,5.32-1.41,2.36,1,2.14,3.17,1.9,5.06a50.72,50.72,0,0,1-5.78,18.82c-2.47,4.4-5.9,7.28-11.15,7a13,13,0,0,1-11.54-7.8A25.1,25.1,0,0,1,340.3,1680.8Z"/><path d="M794.1,1665c-.35-3.42-.62-6.85-1.09-10.25-.23-1.61-.29-3.06,1.53-3.54a2.53,2.53,0,0,1,3.24,1.51,2.72,2.72,0,0,1,.13.49c.86,4,2.9,7.89,7.14,6.75,7-1.89,15.89,1.08,20.72-6.87,1.33-2.19,2.13-4.93,5.13-4,2.62.83,1.65,3.72,1.85,5.82.71,7.33,1.44,14.66,2.1,22,.2,2.22.48,4.81-2.52,5.25-3.26.47-4.07-2-4.48-4.62-.08-.49-.05-1-.15-1.47-1.06-4.63,2.09-12-2.7-13.48-6.82-2-14.59.74-21.15,4-4.88,2.44-2.61,7.83-2.94,12.08-.19,2.39,1.88,6.25-2.07,6.75-4.36.54-3.74-3.76-4.1-6.42-.62-4.61-.79-9.29-1.15-13.94Z"/><path d="M551.26,1657.81c-5.27,1.11-10.52,2.41-15.83,3.26-2,.32-5,.64-5.33-2.39-.32-2.59,2.31-2.81,4.14-3.24q14.31-3.4,28.67-6.63c2.07-.46,4,0,4.94,2.14s1,4-1.22,5.07-3.67,2.52-3.16,5.12c2.25,11.35.18,23.15,3.7,34.36.87,2.78,2.27,6.45-1.9,7.25s-5.27-3.14-5.36-6.33c-.3-10.08-.49-20.15-2.51-30.08-.44-2.16-.92-4.32-1.5-6.45C555.22,1657.43,553.37,1657.17,551.26,1657.81Z"/><path d="M762.08,1678.16c-.32-6.47.22-11.78,3.48-16.42,2.91-4.13,5.92-4,8.54.25,6.22,10.21-3.49,28.62-15.46,29.42-5.74.39-9.12-2.65-11.26-7.61-3.22-7.47-2.7-15.32-2.44-23.15.08-2.48.81-4.58,3.76-4.11,2.71.43,2.61,3,2,4.69-2,5.66-.58,11.18.37,16.67.77,4.41,2.09,9.26,8.12,8.23C765,1685.12,761.77,1680.39,762.08,1678.16Zm5.21-5c.35,1.78-.8,4.65,1.83,4.76,3.12.14,3.26-3,3.49-5.33.17-1.72.91-4.58-1.73-4.67-3-.14-3.25,2.86-3.59,5.2Z"/><path d="M878.57,1644.29c3.29.62,6.22.9,6.35,4,.16,3.56-3,3.58-5.35,3.24-7.06-1-8.42,2.27-7.55,8.5,1.45,10.41-.26,21.14,3,31.41.75,2.4.27,4.58-2.7,4.93s-3.54-1.85-3.72-4.25c-.76-10.27-2-20.54-2.19-30.83-.12-7.54-3.38-9.11-10.11-8.36-3,.34-8.71,3.37-9-1.84-.26-4.28,5.57-2.22,8.54-2.41C863.85,1648.14,872.05,1648.85,878.57,1644.29Z"/><path d="M604.75,1672.3c.48,4-1.2,8-4.17,11.46a12.5,12.5,0,0,1-12.5,4.47c-4.51-.89-5.71-4.71-7.11-8.5-3.23-8.74,1.23-16.35,3.58-24.13,1.08-3.56,9.58-3.31,13.11.35C601.8,1660.24,604.76,1665.31,604.75,1672.3Zm-4.41-.57c-.63-5-1.79-11.21-7.57-11.72-4.46-.39-4.76,5.83-6.1,9.6a9.91,9.91,0,0,0-.38,1.42c-.78,3.69-1.21,7.4,2.13,10.14,1.85,1.52,4.08,1.47,6.24.42,4-1.95,5.43-5.4,5.68-9.86Z"/><path d="M473.15,1695.81c-3.25,0-3.9-2.11-4.24-4.43-.91-6.07-1.9-12.13-2.68-18.22-1-7.46-2.14-8.27-9.55-5.81-2.55.85-5,2-7.52,3-2.12.78-4.58,1.56-5.78-1.09-1.33-2.93,1.2-3.9,3.3-4.49q12.75-3.58,25.57-6.87a4.2,4.2,0,0,1,5.09,2c1.08,2.1-1,2.65-2,3.94-5.12,6.68-1.3,14-.94,21,.12,2.14,1.4,4.18,1.79,6.33C476.63,1693.71,475.63,1695.54,473.15,1695.81Z"/><path d="M728.83,1690c-.05,1,.23,3-2.33,3-2.75,0-3.94-1.79-4.2-4.17-.67-6.32-1.48-12.56-3.69-18.6-1.61-4.39-3.09-8.73-6.66-12-1.91-1.76-3.72-3.89-.75-6s5.54-1,7.11,2.25c3.83,7.93,7.31,16,8.65,24.77C727.48,1682.6,728.13,1685.94,728.83,1690Z"/><path d="M317.3,1659.11c2.51.13,2.73,2,3.18,3.63,3.12,11.06,4,22.62,7.62,33.58a3.85,3.85,0,0,1-2.2,5,3.61,3.61,0,0,1-.64.19c-3.17.76-4.69-1.52-4.84-4.12a168,168,0,0,0-5.36-34.68C314.63,1660.92,315.11,1659.24,317.3,1659.11Z"/><path d="M638.5,1589.68c-.07-9.34,2.76-17.83,7.55-25.75,1.29-2.12,2.74-4.16,5.09-5.14s5-1.73,6.58.92-.12,4.67-2.49,5.88c-7,3.56-8.55,10.33-10.25,17-.46,1.81-1.43,4.09.54,5.43s3.7-.28,5.22-1.51c3.81-3.08,7.55-6.25,11.38-9.31,2.59-2.08,5.74-3.71,8.8-2,3.27,1.8,2.52,5.5,2.22,8.63a25.4,25.4,0,0,1-9.16,17.83c-5.49,4.57-11.78,6.09-18.47,3C639.19,1601.67,638.31,1595.85,638.5,1589.68ZM653.1,1601c5.65-.22,13.85-7.11,15-12.63.3-1.44.62-3.15-.65-4.14s-2.74-.21-4.05.56a67.94,67.94,0,0,0-12.61,10.07c-1.16,1.12-3.5,1.62-2.61,3.8S651,1601.12,653.1,1601Z"/><path d="M773.08,1580.81c-.47-6.79,1.47-13.12,3.67-19.4.93-2.66,2.26-5.53,5.68-4.17,4,1.61,2.53,4.8,1,7.36-4.48,7.34-5.15,15.29-3.86,23.47,1.16,7.33,6.41,9.82,12.92,6.28a26.64,26.64,0,0,0,12.26-14.19c.8-2,.78-4.06-1.16-5.25s-3.15.57-4.38,1.68a35.69,35.69,0,0,0-9.36,13.06c-.67,1.65-1.54,3.29-3.76,2.49-1.36-.49-1.35-1.89-1.39-3.11-.2-6.35,8.26-19,14.3-21.14,3.3-1.18,6.82-1.87,9.69.9,2.62,2.54,2.22,5.85,1.28,9a38.51,38.51,0,0,1-12.08,19c-4.81,4-10.06,6.3-16.25,3.62s-7.93-8.29-8.5-14.41C773,1584.26,773.09,1582.54,773.08,1580.81Z"/><path d="M764.5,1572.91c-1.07,6,.48,14.12-6.18,17.48-6.48,3.28-11.73-2.88-17.16-6-2.87-1.65-5-6.47-8.41-4.76-3.91,2-.79,6.68-1.27,10.14-.38,2.71,1.07,6.88-3.27,6.91-4,0-3.38-4-3.62-6.83-.61-6.85-1-13.72-1.72-20.56-.34-3.31.24-5.89,3.72-7,3.66-1.18,4.59,1.65,5.86,4,4.18,8,11.6,12.57,18.52,17.62,4.37,3.19,6.6-.06,7.1-3.77.72-5.26,1.74-10.83-2.29-15.5-1.91-2.22-2.54-4.56.76-5.83,2.67-1,5.28-.84,6.47,2.71S764.27,1568.79,764.5,1572.91Z"/><path d="M616.6,1572.29a43.69,43.69,0,0,0-1.67-13.74c-.52-2-.79-4,2.09-4.47s4,.87,4,3.7c.16,9,.72,18.1.63,27.15-.07,7.35-2.17,8.4-8.5,4.81-6-3.4-11.3-7.76-16.55-12.18-1.27-1.07-2.52-2.83-4.39-1.63-1.37.88-.64,2.69-.83,4.1-.45,3.42,3.5,9.22-2.25,9.75-6.39.59-2.56-5.82-3.55-9s-1.26-6.73-2.1-10-.58-6.47,2.54-8.44c3.5-2.22,5.33.9,7.35,2.87,5.07,5,10,10.08,15.11,15,1.83,1.79,3.44,4.83,6.64,3.23,2.82-1.4,1.2-4.38,1.44-6.67C616.7,1575.54,616.6,1574.32,616.6,1572.29Z"/><path d="M537.58,1591.3a4,4,0,0,1,0,1.46c-1.2,2.88,1.21,8.42-3.6,8.33-5.11-.09-2.48-5.35-2.89-8.33-.69-5,2.11-11.5-1.28-15-4.39-4.48-9,2.2-13.8,3.12-10.45,2-12.66,6.15-11.71,17.47.16,2,1.52,5-1.59,5.52-2.91.49-3.21-2.34-3.39-4.6-.74-9.28-1.57-18.56-2.12-27.86-.12-2.09-1.55-5.55,2.35-5.78,3.13-.18,3,3,3,5-.22,7,2.38,8.41,9,6.15s13.33-2.78,18.18-8.66c2.09-2.54,5.1-1.9,5.65,2,1,7,1.7,14.12,2.52,21.18Z"/><path d="M484.28,1598.39c-1.48,7.55-6.42,11.76-12.65,14.29-7.25,2.94-16.24-1-18.33-9-3.76-14.39-4.92-29,2.44-42.93a22.42,22.42,0,0,1,6.49-7.88c5.26-3.84,11.09-2.43,14.06,3.37,1.19,2.3,3.4,5.13.5,7.22-2.56,1.85-4.45-1-6.06-2.65-3.59-3.78-6.23-2.73-8.72,1.23-8.1,12.86-8.37,26.38-3.1,40.16,2.47,6.44,8.39,8.21,14.49,4.79a44.14,44.14,0,0,0,5.85-4.41C481,1601.25,482.6,1599.8,484.28,1598.39Z"/><path d="M572,1580c-1.77,4.23.19,7.26,1.28,10.46.62,1.8,1.53,4-.8,5.17-2.65,1.31-4-.66-5.05-2.76-.22-.44-.45-.87-.63-1.32-1.17-2.94-.31-7.8-5.32-7.37a10.83,10.83,0,0,0-9.76,7.76,16.49,16.49,0,0,1-2.08,4.63,2.84,2.84,0,0,1-3.84,1.08c-1.25-.69-1.46-1.83-1.41-3.12.4-9.54,6.06-17.92,5.89-27.69,0-3,3.72-3,6-2,6.45,2.73,9.35,9.85,15.52,13.08C572.19,1578.08,571.93,1579.63,572,1580Z"/><path d="M701,1570.22c-.75-2.74-1.93-6.65,2.52-6.7,4.21,0,2.86,3.72,3.09,6.15.74,7.78,1.39,15.58,2,23.38.21,2.7.59,6-2.92,6.57-4.33.71-4.52-3.21-4.62-5.93C700.85,1585.88,701,1578.05,701,1570.22Z"/><path d="M838.54,1599.74c.07,4.1-2.24,5.1-5.14,5.23-2.69.13-4.12-1.42-3.89-4s1-5.48,4.57-5.31A4.28,4.28,0,0,1,838.54,1599.74Z"/><path d="M884.92,1602.05c-.1,3.36-2.15,4-4.92,4-3.18,0-4.24-1.94-4.27-4.69,0-2.56,1.09-4.29,3.92-4S884.81,1598.75,884.92,1602.05Z"/><path d="M857.79,1605.8c-3.11-.2-4.2-1.93-4.07-4.37.17-3.12,2-4.82,5.17-4.83,2.48,0,3.33,1.79,3.24,3.88C862,1603.4,860.7,1605.54,857.79,1605.8Z"/></svg>