<svg xmlns="http://www.w3.org/2000/svg" width="947.79" height="1516.32" viewBox="0 0 947.79 1516.32"><title>c0-txt1</title><path d="M652.12,555.12c11.1-.27,12.54,2,9.13,10.37-1.83,4.52-3.75,8.9-8,11.8a2.68,2.68,0,0,0-1.24,3.45c.7,1.59,2.09,1.31,3.45,1.11a58.09,58.09,0,0,1,26.58,2.5c4.17,1.36,5.39,3.83,4.09,8a22.73,22.73,0,0,1-8,11.2c-8.1,6.46-17.21,10.11-27.76,8.87-7.64-.9-11.21-4.34-12.46-12-.7-4.22-2.61-5.88-6.87-4.37-2.28.81-4.75,1-6.47-1.07s-.7-4.34.61-6.41c3.16-5,2.49-10.44,1.88-16-1.53-14-1.41-14,12.38-15.61C644.42,556.46,649.33,555.55,652.12,555.12Zm12.46,33c-5.81.28-11.61.42-17.24,2.15-3.2,1-6.13,2.19-5.41,6.39s2.12,7.86,7,8.49c10,1.29,18-3.37,25.63-8.9a4.25,4.25,0,0,0,1.52-4.92c-.67-2.22-2.35-3.13-4.52-3.19S666.9,588.12,664.58,588.12Zm-27.53-11.67c.05,1.14-.19,2.42,1,3.14,1.36.83,2.13-.38,2.93-1.09,3.09-2.75,6.11-5.57,9.17-8.35,1.14-1,2.18-2.11,1.48-3.84s-2.37-2.08-4.1-2.07C641.69,564.27,636.93,569.84,637.05,576.45Z"/><path d="M835.84,593.16c.25-5.55.51-11.85.83-18.15.13-2.59.09-5.13-2.56-6.51a5.84,5.84,0,0,0-7,1.21c-6.55,6.21-14.5,6.79-22.85,6.26-6.76-.42-7.88.86-7.72,7.49.24,10.24-4.63,17.9-12.81,23.48-4.61,3.14-9.07,1.66-12.21-3.5-3.45-5.69-4.32-12.16-5.55-18.53-.64-3.26-1.28-6.52-2-9.77-.52-2.34-1.29-4.73,2-5.6s5.76.32,6.55,3.62a62.52,62.52,0,0,1,1.25,9.39,44.33,44.33,0,0,0,2.83,12.11c1.59,4.18,5.57,4.8,8.67,1.57,7.48-7.79,7.44-13.22-.19-21.33-1.43-1.53-2.81-3.06-1.22-5.2,1.41-1.89,3.26-2.84,5.66-1.86,1.7.69,3.37,1.43,5,2.16,8.34,3.61,16.09,2.56,22.65-3.7,8.13-7.77,18.28-7.13,28.19-7.23,3.31,0,3.54,3,2.86,5.68-1.49,5.8-3.19,11.54-4.57,17.36-2,8.35-1.55,16.51,2.53,24.27,1.25,2.38,1.67,4.83-.48,6.89a5.34,5.34,0,0,1-6,1.4c-2.54-1-2.88-3.35-3-5.8C836.6,603.88,836.22,598.9,835.84,593.16Z"/><path d="M520.9,712.59c.41-2.46.8-4.91,1.22-7.37a59.34,59.34,0,0,0-2.4-29.05,11.25,11.25,0,0,1-.87-4.85c.26-2.39,1.86-3.45,4-3.78,2.3-.36,3.31,1.15,3.83,3.07.26,1,.25,2,.47,3,.33,1.46.67,3.28,2.29,3.54s1.69-1.78,2.29-2.82c4.76-8.39,12.59-12.11,21.49-13.91,4.72-1,7.62,2.31,6.86,7.15a19.26,19.26,0,0,1-7.47,12.57c-3.15,2.44-6.61,4.46-9.8,6.85-3.44,2.58-3.14,5.84.84,7,9.55,2.83,18.33,8,28.43,9.1,2.9.3,4.34,2.28,4.83,5,.34,1.83.36,3.73-1.57,4.86a3.86,3.86,0,0,1-4.66-.39c-5.42-4.48-12-5.45-18.63-6.3-5-.64-9.54-2.88-14.37-4.11-6.24-1.59-6.26-1.63-6.67,4.6a18.48,18.48,0,0,1-2,7.65c-1.09,2-2.91,2.61-5.08,2.19S520.85,714.7,520.9,712.59Z"/><path d="M509.94,697c-3.62,12.83-12.68,16.92-23.53,10.86-7-3.88-13.36-8.74-20.26-12.76-9.57-5.59-12.6-3.66-12.77,7.55-.07,4.14.1,8.33-1.43,12.31-.8,2.09-1.67,4.29-4.43,3.82s-3.1-2.65-3.14-5c-.12-7,.08-14-1.44-20.88-.68-3.07-1.68-6.07-2.61-9.08-.72-2.33-.94-4.6.62-6.66,2.21-2.92,5.34-2.59,6.94.67,2.9,5.9,3.18,5.81,7.19.47,7.38-9.8,17.48-14.06,29.57-13.42,5.74.31,7,2.58,5.21,7.89s-4.6,9.41-9.76,12c-4.44,2.27-4.63,4.57-.76,7.43,5.21,3.86,10.63,7.44,17.31,8.4C501.39,701.39,505.37,699.38,509.94,697Zm-42.08-14.75a33.91,33.91,0,0,0,11.26-7.46c.76-.8,1.85-1.64,1.26-3-.64-1.48-2-1.54-3.39-1.43-5,.42-9.12,2.77-12.73,6.1-1.15,1.07-3,2.13-2,4.05C463,682.14,464.83,682.46,467.86,682.28Z"/><path d="M872,691.11c-12.15-.33-23.69,1-35.23-.6-6.28-.87-8.09,1-8.1,7.35,0,8.23,3.55,14.74,9.54,20.07,3.25,2.89,6.66,3.48,10.28.41,2-1.72,4.41-3.84,6.62-.35,2,3.09.27,5.3-2.36,7.06-8,5.41-17,4-23-3.64-7-8.9-8.46-19.27-7.79-30.18,1.08-17.71,5.36-22,23.13-24.1,10.42-1.23,20.79-2.69,31.3-1.47,2,.22,4.91-.58,4.54,3-.32,3.06-2.93,2.87-5,2.61-13.6-1.71-26.44,1.23-39,6.18a14.05,14.05,0,0,0-3.51,1.81,3,3,0,0,0-.89,4c1.06,2,2.74,1.13,4.38,1.07,11.56-.48,22.86.83,33.61,5.42C870.92,689.88,871.19,690.31,872,691.11Z"/><path d="M586.87,704.92c-.77-6.44.67-11.42,7-14.08,2.69-1.12,2.61-4.06,2.91-6.49.89-7.23,3.7-12.53,11.79-13.81,4.09-.64,6.92.23,8.51,4,1.4,3.37,2.55,6.84,3.86,10.25,2.27,5.92,4.43,7.25,10.56,6.34,2.25-.34,4.47-.84,5.32,2,1,3.29-1.51,3.28-3.66,3.74-2.83.6-2.49,2.54-1.74,4.65,1,2.95,1.77,6-1.87,7.73s-5.78-.53-7.85-3.24c-6.68-8.74-17.28-8.45-23.83.55-1.37,1.88-2.72,3.78-4.19,5.57s-3,2.72-5.23,1.65c-2-1-2.15-2.82-2-4.71C586.52,707.64,586.74,706.15,586.87,704.92Zm23.31-11.6c2.47,0,3.72-1.22,3.67-3.61s-.77-4.37-3.53-4.41c-2.55,0-3.94,1.67-4.11,4C606,692,607.81,693.05,610.18,693.32Z"/><path d="M604.84,578.61a2.33,2.33,0,0,1-2.31,2.49c-1.46.26-2.92.54-4.35.92-2,.55-4.64.63-4.95,3.39s2.41,2.7,4.07,3.55c.45.23,1.13.36,1.28.72,1.69,4-1.34,6.65-3.2,9.24-1.74,2.42-4.61,1.7-6.34-.67a21.5,21.5,0,0,1-2.86-5.78c-1.07-3.16-2.3-6-6.18-6.21a9.57,9.57,0,0,0-9.53,5.15c-2,3.61-4,7.22-5.84,10.91-1.23,2.5-3,3.58-5.6,2.55-2.9-1.12-3-3.41-1.8-5.73a7.19,7.19,0,0,0,.33-6.61,7.12,7.12,0,0,1,2.14-8.62c6.24-5.19,9-12.23,11-19.68.81-2.92,1.81-5.74,4.18-7.79,3.71-3.21,7.85-2,9.09,2.71,1,3.85,1.81,7.78,3,11.59,1.86,6.1,4.25,7.28,10.37,5.51,2.23-.64,4.54-1.57,6.52.5A6.23,6.23,0,0,1,604.84,578.61Z"/><path d="M108.17,310.4a26.6,26.6,0,0,1,1.84-5.55c6.88-12.15,9.76-25.7,13.74-38.86.68-2.23.83-4.73,3.7-5.32s5.25.69,7,2.82A39.1,39.1,0,0,1,141.9,278c2.34,8.21,3.07,8.66,11.36,7.39,1.55-.23,3.06-.36,3.75,1.48.87,2.35-.41,3.87-2.25,4.94-7.44,4.33-7.51,4.36-1,10.49,2.4,2.26,2.08,4.64,1.14,7.29-.72,2-1.82,3.51-4.17,3.72-3.09.28-4.47-1.8-5.55-4.12A26.16,26.16,0,0,1,143,301.6c-.67-4.86-2.86-6.61-7.77-6.15-7.89.74-13.77,4.58-17.21,11.8-1.24,2.59-2.6,5-5,6.72-1.09.76-2.25,1.51-3.65.58S108,312.39,108.17,310.4Zm28.7-25.77c0-4.58-2.8-8.61-6-8.46s-6.48,5.66-6.68,11.16c-.09,2.37,1.4,2.77,3.18,2.85C133.19,290.44,136.84,288.28,136.87,284.63Z"/><path d="M231.76,302.14c.28-8.61-.89-16.8-5.61-24.37-3-4.85-.13-9.15,5.59-8.56,13.11,1.36,26,3.83,37.85,10,6.67,3.46,8,6.6,6,13.82a10.71,10.71,0,0,1-1,2.81c-7.23,11.55-17.95,18.75-30.77,22-8.46,2.13-12.23-2.24-12-11.16C231.79,305.13,231.76,303.63,231.76,302.14Zm10.59-23c-5.12-.2-6.34,1.27-5.75,6.15.88,7.25,4.17,14,4.17,21.45,0,4.87,1.26,5.55,5.85,3.86,8.76-3.25,14.82-9.91,20.83-16.59,3.84-4.25,3.38-6.62-1.59-9.3C258.33,280.65,249.82,280.78,242.35,279.15Z"/><path d="M358,688.7c.43-4.81-2.78-9.33-1-14.27,1-2.76,1.26-6.51,5.61-5.13,3.72,1.19,5.35,4.4,3.92,8-2.51,6.24-2.58,12.65-2.55,19.15,0,1.67,0,3.34-.1,5-.57,8.41-3.32,10.13-10.86,6.54s-15.78-5.18-22.68-10.21c-3.16-2.3-4,1.08-4.24,3.3-.61,5-.83,10-1.3,14.92-.26,2.82-.29,6.16-4.53,5.57-3.6-.49-5-2.87-4.46-6.46a76.07,76.07,0,0,0-1.1-31.22c-.73-2.83.07-4.92,2.88-6,3.47-1.37,6.58-.36,8.31,2.6,4.53,7.74,11.64,12.15,19.28,16C354.68,701.22,358,699.26,358,688.7Z"/><path d="M897.77,42.54a68.34,68.34,0,0,1-16.29-2.12,9.93,9.93,0,0,1-7.62-8.28c-.85-4.46,1.8-6.79,5.2-8.65,3.21-1.74,6.46-3.4,9.69-5.11,1.48-.78,3.22-1.57,2.71-3.63s-2.15-2.86-4-3.31c-5.59-1.33-12.36,3.38-13.94,10.14-1.7,7.28-3,14.66-4.45,22-.52,2.53-.52,6-4.31,5.38-3.32-.53-3.46-3.61-3.25-6.4.73-9.41,2.41-18.8-.5-28.22-1-3.34,1.71-4.33,4.18-3.12,4.45,2.17,7.24.15,10-2.85,4.72-5.11,10.74-5.14,16.64-3.39,7.2,2.14,8.84,10.74,3.67,17.2a18.49,18.49,0,0,1-7.69,5.37c-1.8.74-3.23,2-2.76,4.17.39,1.9,1.81,2.52,3.68,2.69,6.12.56,12.23,1.29,18.35,1.85,1.5.13,3.21-.23,3.43,1.88a3.09,3.09,0,0,1-2.77,3.56C904.41,42.16,901.08,42.27,897.77,42.54Z"/><path d="M604.88,1479.59c0,14.13-13.52,23.67-27.14,18.89-3.77-1.33-6.84-2.39-10.45.85-2.93,2.63-5.6,1-6.29-3.61-.81-5.42-1.26-10.9-1.93-16.34a42.47,42.47,0,0,0-4.06-13.8c-1.17-2.37-1.93-4.62.48-6.75s4.38-1.4,6.57.48c2.92,2.51,6.53,2,10,1.73,6.33-.58,12.64-.71,18.78,1.23C599.67,1465.05,604.85,1471.54,604.88,1479.59Zm-29.65-10.17c-4-.35-6.82-.56-8,3-1.74,5.13.23,16.39,3.81,18.87,5.68,3.92,11.71,2.91,17.55.17a23.56,23.56,0,0,0,5.38-3.58c6.76-5.93,6.15-11.23-1.58-15.78C586.64,1468.75,580.61,1467.82,575.23,1469.42Z"/><path d="M379.7,714.09c.77-4.38,2.56-9.58.11-14.83-.14-.28.24-1,.57-1.28,5.16-4.56,5.49-11.17,7.32-17.14,2-6.66,4.49-9.07,9.11-8.86s8.83,4.06,10,9.61c.92,4.28,1.84,8.32,7.64,7.85,1.24-.1,1.79,1,1.33,2.06-1.54,3.56.41,6.43,1.67,9.46,2.11,5.07,1.3,9.52-1.88,10.48-3,.9-7.22-2.49-8.63-6.88-.15-.47-.12-1-.26-1.48-.72-2.42-.21-5.71-3.87-6.16s-6.48,1.26-8.26,4.42a40.51,40.51,0,0,0-2.59,5.92,32,32,0,0,1-5.36,10.07c-1.29,1.52-2.48,3.32-4.94,2.28C379.53,718.7,379.76,716.75,379.7,714.09Z"/><path d="M609.45,37.87c.63-7.69.68-13.79-6.77-16.7-1.83-.71-1.4-2.53-.52-3.83,1.08-1.62,2.59-2.7,4.65-1.54,2.47,1.39,4,4.93,7.58,3.75,2.91-.95,3.69-4.2,5.81-6a25,25,0,0,1,20-5.73c5.13.67,7.29,4.94,6,10.05-.91,3.72-3.38,6.42-5.64,9.3-4.53,5.78-3.46,8.67,3.82,10.14a25.63,25.63,0,0,0,5,.38c2.22,0,4.17.52,4.25,3.1s-1.43,4.24-4.27,4.41a25.82,25.82,0,0,1-19.73-6.77,26.83,26.83,0,0,0-7.38-5c-2.63-1.14-4.21-.36-4.36,2.63-.12,2.49,0,5-.29,7.48-.24,2.28-1.1,4.22-4,4.15s-3.78-1.65-3.87-4.17C609.64,41.2,609.5,38.89,609.45,37.87ZM628.64,26c5.5,0,10.86-4.67,10.66-8.95-.17-3.48-2.75-3.79-5.31-3.79-5.14,0-10.69,4.33-10.44,8.07C623.77,24.65,626.26,25.5,628.64,26Z"/><path d="M235.72,29.2c0-4.15.07-8.31,0-12.46-.05-2.57.73-4.58,3.06-5.8s4.22-.21,6,1.08c3.78,2.72,7.39,5.69,11.3,8.21,5.62,3.62,9.08,3.11,13.65-1.78C272,16,274,13.33,276,10.7c1.46-1.89,2.85-3.76,5.64-3.4,3,.4,3.87,2.68,4.79,5.1,2.85,7.49,3.36,15.6,6.24,23.1,1.06,2.75-.61,5-3.53,5.49s-4.9-.69-5.38-3.8c-.66-4.28-1.26-8.56-2-12.83-.28-1.65-.75-3.5-2.51-4-2.08-.63-3.36,1.05-4.53,2.45-1.82,2.17-3.53,4.42-5.28,6.65-3.13,4-6.7,4.44-10.81,1.45-2.82-2.06-5.64-4.15-9-5.34-4.45-1.59-6-.42-5.33,4.21a58.17,58.17,0,0,1,.51,13.44c-.22,2.56-1.3,4.56-4.3,4.47s-4.3-1.91-4.41-4.48c-.2-4.65-.06-9.31-.06-14Z"/><path d="M337.48,577.48c-.21.32-.38.9-.75,1.07-5.66,2.63-3.44,6.1-1.13,9.67a7,7,0,0,1,1.18,5.23c-.45,2.33-.73,4.72-3.9,4.92-2.93.18-4.1-1.74-4.94-4-.93-2.57.38-6.39-2.57-7.64-3.31-1.39-6.81.57-10.11,1.58a17.38,17.38,0,0,0-10.56,8.57q-1.44,2.63-3.08,5.13c-1.33,2-3.11,3.09-5.5,1.8s-3.35-3.5-2-5.88c3.52-6,4.83-13.06,9.45-18.6,2.84-3.4,3.59-7.9,3-12.32-.61-4.63,1.89-6.63,5.7-8,4.15-1.52,5.69,1.34,7.37,4.08,1.56,2.55,3.11,5.12,4.69,7.66,1.89,3.05,4.13,5.13,8.18,3.81C335,573.67,336.76,574.77,337.48,577.48Z"/><path d="M750.74,314.84c-6.82.36-12.55,2.6-14.83,10a13.84,13.84,0,0,1-3.61,5.32c-1.33,1.39-2.81,2.46-4.81,1.21-1.71-1.07-2.71-2.63-2.24-4.62.92-3.89,1.86-7.67.43-11.72-.71-2,.72-3.42,2.78-4,5.63-1.56,7.36-5.81,7.38-11.05,0-2.78.54-5.25,2.46-7.35,4.43-4.83,7.43-4.41,11.47.66,4.25,5.32,6.28,12.79,14,15,1.35.39,1.52,2,1.11,3-1.49,3.64.3,6.32,2.06,9.22a10.53,10.53,0,0,1,1.61,5.15,4.64,4.64,0,0,1-4.21,4.8c-2.49.45-3.76-.9-4.41-3-.84-2.69-1.54-5.43-2.32-8.14C756.6,316,754.48,314.28,750.74,314.84Z"/><path d="M104.92,707.27A99.1,99.1,0,0,0,104.1,691c-.72-5-3.44-7.41-8.34-7.31-5.48.1-11,.44-16.44.65-3.75.15-7.24-.48-10.27-3-1.86-1.54-2.85-3.29-2-5.64s2.72-2.7,4.85-2.67c6,.1,11.79,1.91,17.84,1.58,9.39-.52,18.34-3,27.27-5.64,2.26-.67,4.67-1.78,6.26.84,1.76,2.9-.88,4.12-2.64,5.51-8.35,6.54-10.63,15.36-9.4,25.38.58,4.77,1.61,9.49,2.4,14.24a27.84,27.84,0,0,1,.41,4,4.77,4.77,0,0,1-3.06,4.72c-2.32,1.05-3.22-1.12-4.43-2.3-1.94-1.87-2.24-4.36-2.06-6.94C104.63,711.6,104.82,708.78,104.92,707.27Z"/><path d="M811.88,1479.48c.08,7-3,9.67-9.18,7.52-9.23-3.2-18.49-6.53-26.6-12.26-1.55-1.09-3-3.26-5.17-2.07-1.92,1.06-1.66,3.51-1.8,5.43-.31,4.11.44,8.33-1.75,12.19-.94,1.63-1.76,3.33-4,3-2.47-.34-2.5-2.3-2.61-4.16-.52-9-1.09-17.9-4.41-26.42-.87-2.21-1.2-5.06,1.87-5.75,3.5-.78,7.66-5.5,10.67-.43,7.21,12.09,19.28,17.41,30.89,23.45,4.51,2.34,6.77.68,6-4.44a139.56,139.56,0,0,1-1.31-19.37c0-1.75-.29-4,2.26-4.28s2.7,2.13,2.89,3.82C810.44,1463.83,811.16,1471.94,811.88,1479.48Z"/><path d="M591.93,1358.72a40.66,40.66,0,0,1-17.3-4.12c-6.66-3.18-8.18-2.52-10.57,4.27-.75,2.13-1.81,3.72-4.2,3.33-2.72-.44-2.54-2.69-2.33-4.72.34-3.3,1.15-6.6,1.09-9.89-.11-5.9-2.19-11-7.25-14.61-1.66-1.16-3.51-2.45-1.81-4.82,1.45-2,3.49-2.3,5.78-1.49,3.25,1.13,4.31,4,5.35,6.79,1.49,4,3.41,3.92,5.74.74,1.18-1.61,2.29-3.27,3.42-4.91,3.69-5.4,10-7.59,14.62-5.08,4.17,2.25,5.91,9.75,3.47,15.24-.81,1.81-1.83,3.54-2.79,5.28-1.93,3.5-1.51,5.7,3.05,5.78,1.82,0,3.65.17,5.47.21,2.72.07,5.18.53,5,4-.19,3.23-2.4,4.07-5.22,4C592.93,1358.71,592.43,1358.73,591.93,1358.72Zm-18.11-14.81c4.15.17,10-4.63,9.8-8.39-.13-3.22-1.55-5.86-5.13-6.37-3.22-.46-8.25,5.7-8.68,10.25C569.53,1342.43,571.11,1343.63,573.82,1343.91Z"/><path d="M59.48,23.9c1-3.26-.17-5.78-.87-8.32a9.7,9.7,0,0,1,.44-6.8,3.49,3.49,0,0,1,3.26-1.93,2.73,2.73,0,0,1,3,2.12,11.92,11.92,0,0,0,.61,1.89c1.49,2.89-1.31,8.76,4.38,8.52C77.05,19.1,85.51,22.46,89.4,13a6.71,6.71,0,0,1,6.54-4.55c3.45,0,3.43,2.94,4.37,5.17,4.15,9.87,3.85,20.93,8.27,30.76,1,2.31-.32,4.66-2.87,5.58s-4-.84-4.91-3c-2.14-5.29-2.89-10.89-3.65-16.5-.84-6.24-3.06-7.58-9.21-6-3.54.91-7.08,1.8-10.66,2.53-6.78,1.37-7.06,1.7-5.63,8.5.47,2.27.31,4.36-1.71,5.82a4.91,4.91,0,0,1-5.64.22c-.82-.47-2-1.31-2-2C62,34,58.86,29,59.48,23.9Z"/><path d="M245.88,1508.62c-1.12-9.72-2.34-20.11-3.51-30.51-.34-3-.67-6-.8-8.94-.1-2.22.72-3.9,3.36-4s3.13,1.39,3.12,3.5c0,2.48-.07,5,0,7.45.12,2.95,1.19,4.1,3.91,1.85,5-4.12,10-8.16,16.83-9.19,9-1.36,14.21,3.32,13.27,12.31-1.4,13.43-9.76,19.83-23.4,17.92-6.26-.88-7.44.34-6.54,6.59a36.8,36.8,0,0,1,.59,6.43c-.1,2.62-1.4,4.51-4.39,4.26s-2.62-2.5-2.63-4.5C245.73,1511,245.8,1510.14,245.88,1508.62Zm14.57-15.48c5.59-.1,11.31-2.3,14.48-9,2.3-4.88.24-8.74-5-8.17-6.09.66-12.12,2.18-15.53,8.32-1.25,2.26-2.43,4.6-1.15,7C254.42,1493.55,257,1493,260.45,1493.14Z"/><path d="M763.43,32.42A35.61,35.61,0,0,1,768.93,14c1.8-2.93,4.2-3.73,7.18-2.18,3.21,1.66,1.28,3.88.41,5.94-1.68,4-3.72,7.85-4.93,12-2,6.87.55,12,6.22,13.78,3.35,1.08,4.93.29,5.13-3.53.52-10.41,3.85-14.47,13.42-17,6.58-1.75,10.26,1.43,9.53,8.25a13.55,13.55,0,0,1-3.71,7.48c-1,1.13-2.56,2.08-2.91,3.37-2.7,10-11.33,8.7-18.5,9.61C772,52.78,763.43,42.91,763.43,32.42Z"/><path d="M148.38,574.23c-.12,11.82-12.81,28.27-24.31,31.53-10.69,3-22.35-7.2-21.35-18.08.88-9.42,1-19-1.89-28.19-.63-2-1.27-4,1.14-5.14s3.54.42,4.28,2.61c1,3.07,3.46,2.48,5.81,1.88a50.53,50.53,0,0,1,22.75-.53C143.56,560.08,148.47,566,148.38,574.23ZM125.2,563.32a24.76,24.76,0,0,0-13.62,3.09c-3.57,1.88-5.1,4.61-4.51,9,.76,5.59,2.68,11,3.36,16.4,1.13,9,9.68,12.18,17.08,6.19a54.06,54.06,0,0,0,14.4-18.25c3.75-7.63-1-15.46-9.43-16.39C130.51,563.14,128.5,563.32,125.2,563.32Z"/><path d="M672.27,671.07h20c2.5,0,4.91.35,4.94,3.52s-2.63,3.07-4.7,3.09c-4.09.05-5.67,2.16-5.56,6,.31,10.67.85,21.28,6.54,30.82,1.61,2.69,2.08,5.52-1.34,7.17s-6.61,1.32-8.4-2.5c-2.5-5.34-3-11.16-3.79-16.92-.7-5.43-1.24-10.9-2.24-16.28-1.06-5.75-3.17-7.26-9-6.65-5.44.57-10.83,1.62-16.26,2.27-3.15.37-6.23.12-6.47-4.15-.23-4.11,1.85-6.26,5.91-6.3C658.64,671,665.46,671.08,672.27,671.07Z"/><path d="M723,1474.47c.77-3.86,0-7.72-1.45-11.51-.76-2-.88-4.07,1.71-4.89s4.24.43,4.7,3c1.87,10.5.75,20.94-1.62,31.14-1.1,4.76-6.79,5.84-9.47,1.41-2.48-4.1-6.31-7.26-8.71-11.5-2.13-3.76-3.89-2.7-5.32.62-1.25,2.9-2.4,5.85-3.85,8.64-1.3,2.48-3.33,4.26-6.41,3.8-2.79-.42-3.52-2.76-4.19-5-2.06-7-4-14-8.9-19.78-1.86-2.19-1.37-5,.14-7.5a3.59,3.59,0,0,1,4.33-1.62c2.78.77,3.61,2.93,4.21,5.56,1,4.2,2.39,8.28,3.56,12.43.38,1.37.9,2.61,2.44,2.78,1.73.2,2.77-1,3.45-2.37a19.88,19.88,0,0,0,2.13-8.14c.08-2.25.3-4.52,3-5.09,2.47-.53,4,1,5.24,3,2.47,3.92,5,7.77,7.5,11.69,1.14,1.8,1.89,4.2,4.7,3.54,3.16-.74,3.28-3.35,3.18-5.94C723.26,1477.32,723.09,1476,723,1474.47Z"/><path d="M791.92,688.46c.59-2.63-.75-4.77-1.91-7-1-1.9-1.31-3.85.55-5.42a5.24,5.24,0,0,1,5.54-1.23c2.18.83,4.08,2.14,3.71,4.66-2.15,14.38-5.27,28.48-14.46,40.29-2.87,3.69-6,3.26-9.5-.93-6.76-8-13.32-16.16-20.91-23.41-1.69-1.6-3.43-3.15-5.1-4.77-3.4-3.29-3.65-6.39-.75-9s6.21-2.12,9,1.43c5.16,6.51,10.13,13.17,15.16,19.78,6.72,8.86,9.5,8.63,14.41-1.28C789.74,697.48,792,693.38,791.92,688.46Z"/><path d="M712.05,1354.39c-.28-4.54.73-9.73-1.33-14.71a3.62,3.62,0,0,1,1.49-4.8,4.94,4.94,0,0,1,4.73-.64c2,.9,2,2.78,2,4.66,0,6.55.69,7.18,7.18,6.24a56.92,56.92,0,0,1,10.42-.75c4.24.15,6.22-1.87,5.69-6.11-.35-2.81-.4-5.46,3-6.41,3.71-1,4.91,1.7,6.19,4.29,2.2,4.44,3.22,8.84,1.71,13.91a17,17,0,0,0,1.48,12.61,9.58,9.58,0,0,1,1.33,5.24,4.56,4.56,0,0,1-4.07,4.36c-2.5.48-3.62-.91-4.22-3.14a37.92,37.92,0,0,1-1.63-13.26c.31-3.64-1.24-5.49-5-5.87-6.5-.66-12.53.91-18.43,3.3-2.59,1-3.24,3.11-2.45,5.73a9.61,9.61,0,0,1,.69,3.36c-.31,3.45-2.21,6.45-5.58,6.6-3.8.16-3.12-3.5-3.18-6.06S712.05,1357.62,712.05,1354.39Z"/><path d="M677.81,1371.43c-8.8-.17-18.64-8.91-19.53-17.66-.7-7-.9-13.91,3.18-20.28,2.81-4.38,6.6-5.81,11.48-5.22,2.21.27,3.72,1.34,3.92,3.75s-1.33,3.3-3.32,3.53c-5.61.64-7.55,4.76-9.14,9.33a3.86,3.86,0,0,0,1,4.53c1.55,1.43,2.71.13,4-.57,3.48-1.92,6.92-3.95,10.51-5.65a12.89,12.89,0,0,1,14.79,2.26c3.22,3.31,3.55,7.74.68,13.43C691.75,1366.11,686.66,1371.45,677.81,1371.43Zm.09-5.79c5.32,0,12.84-6.13,13.85-11.32.65-3.33-1.22-5.24-5-4.8a31.42,31.42,0,0,0-15.37,6.55c-2.57,1.94-2.39,4.16-.57,6.45S675.19,1365.42,677.9,1365.64Z"/><path d="M175.73,592.5c0,.94,0,1.94,0,2.93,0,2.33.66,4.34,2.9,5.36,2.45,1.12,4.12-.62,5.71-2a34.1,34.1,0,0,0,2.86-3.44c1.12-1.27,2.5-1.81,3.91-.56s1.11,2.73,0,4c-2.88,3.21-5.42,6.79-9.14,9.14-4.59,2.9-8.6,1.54-10-3.67a72.41,72.41,0,0,1-2.15-16.79c-.18-5.4-.93-10.48-4.79-14.82-2.48-2.79-1.14-6,2.87-6.26,10.65-.76,21.08-2.82,31.57-4.55,2.56-.42,4.7.34,4.91,3.49s-1.72,3-4.17,3.25c-7.77.74-15.49,1.91-23.22,3a3.14,3.14,0,0,0-3,3.36,3.38,3.38,0,0,0,2.93,3.47,21.26,21.26,0,0,0,11.3-.3c4.47-1.25,9-2.37,13.47-3.56,1.48-.4,3.1-.94,3.79,1s-.66,3.21-2.41,3.6c-8.32,1.87-15.18,8.31-24.6,7.17C174,585.81,176.48,590.26,175.73,592.5Z"/><path d="M699.74,590c-.15-5.37.34-10.66,2.51-15.63,4.39-10.06,15.44-12.2,23.32-4.58,11.15,10.81,9.44,30.1-3.46,38.85-9.5,6.44-21.48-.32-22.36-12.65C699.61,594,699.73,592,699.74,590ZM727,588.74a16,16,0,0,0-4.16-10.91c-3.67-4.09-8.72-4.33-12.8-.76-6.65,5.82-6.18,18.59.89,23.83,2.12,1.58,4.39,2.25,7,1.19C722.47,600.24,726.92,593.75,727,588.74Z"/><path d="M131.69,697.51c.69-4.66-.92-8.25-1.58-12-.39-2.19-1.09-5,2.34-5.55,3.14-.49,4.21,1.4,4.7,4.36,1,6.08,2.93,7.3,9,5.89,4.87-1.13,9.7-2.23,14.75-2.22,3.33,0,5.79-1.37,6-5.21.14-2.34,1-4.36,3.68-4.54,2.52-.16,2.55,2.21,3.27,3.77A27.9,27.9,0,0,1,176,695.18c-.19,4.48.55,8.57,4,11.84,2.57,2.41,1.66,5.16.2,7.75-.86,1.54-2.13,2.66-4.07,1.85-2.64-1.1-4.43-2.91-4.48-6-.09-4.67-2.17-9-2.38-13.68a4.79,4.79,0,0,0-6.44-4.53c-6.79,2.07-13.91,3.39-20,7.43-3,2-4.17,4.23-1.49,7.33,1.45,1.68,2,3.5.51,5.43-1.15,1.52-2.61,2.77-4.63,2.33-2.31-.5-3.06-2.55-3.21-4.57C133.75,705.77,130.34,701.68,131.69,697.51Z"/><path d="M125.19,21.58c.38-2.29.76-4.75,1.2-7.2.83-4.65,3.78-6.89,8.36-7a48.7,48.7,0,0,0,18.95-3.7c2.54-1.1,5.51-1.56,6.65,1.94,1.27,3.88-1.69,4.89-4.59,5.56-5.82,1.35-11.68,2.58-17.51,3.93-2.1.48-4.73,1-4,4s3.32,2.16,5.45,1.77c3.93-.7,7.85-1.42,11.76-2.23,1.86-.38,3.44-.16,4.06,1.79.73,2.29-.75,3.46-2.71,3.93-3.07.73-6.19,1.21-9.28,1.87-2.79.61-5.77,1.25-6.46,4.61s1.38,5.66,3.48,7.87,4.12.94,6.12-.45c1.38-.95,2.88-3,4.62-.65,1.47,2,1.23,4-.36,5.93-4.2,5.05-12.44,5.18-17.14-.38A37.47,37.47,0,0,1,125.19,21.58Z"/><path d="M262.84,558.24c5.62,0,10.12,1.94,14.8,0,2-.85,3.88.38,4.37,2.85.44,2.22.57,4.05-2.05,5.39-6.39,3.24-7.07,4.68-5.09,11.37,1.47,4.93,1.16,9.89,1.15,14.86,0,3.33.45,6.41,3.5,8.29,2.55,1.58,1.8,3.66,1.17,5.72-.69,2.23-2.49,3-4.68,2.93-2.46-.1-4.12-1.3-4.58-3.78a111.69,111.69,0,0,1-2.4-19.28c0-4.49.16-9-.81-13.43-1.43-6.57-4.06-8.62-10.54-7.36-9.13,1.78-18.19,3.94-27.28,5.92a18.47,18.47,0,0,1-3,.46c-2,.09-3.72-.7-4.06-2.85s.79-3.91,2.81-4C239.07,564.49,251,558.74,262.84,558.24Z"/><path d="M472.58,29.11a26.58,26.58,0,0,1,3.82.21c2,.36,2.63,1.82,2.59,3.69a2.88,2.88,0,0,1-3.05,3.19c-3.49.18-7,.3-10.47.49-2.26.12-3.79,1-3.76,3.61s.17,5.24,3.36,5.82c2.77.5,5.79.73,4.64,4.64s-4.3,3.45-7.42,2.81a8.87,8.87,0,0,1-7.19-6.83c-2.39-8.9-2.27-18.13-3.3-27.22-.39-3.49,2.32-5.16,5.3-5.52,9.08-1.07,18.19-1.93,27.3-2.71,3.16-.27,3.84,2.09,3.82,4.64,0,3.24-2.05,4.73-4.92,4-6.69-1.66-12.81.69-19.11,2-1.58.34-3,.6-3.21,2.46s1.23,2.59,2.69,3.11C466.5,28.57,469.34,29.58,472.58,29.11Z"/><path d="M849,5.84c2.49,0,4.47-.41,5.07,2.11.67,2.8-1.4,3.46-3.34,4-5.61,1.54-11.26,2.9-16.86,4.47-1.67.46-4.19.83-3.69,3.21.55,2.57,2.77,1.29,4.54,1.14,2.71-.23,6.61-2.91,7.86,1,1.45,4.47-3.56,4.33-6.11,5.5-4,1.83-7.63,3.39-6.48,9,.72,3.54,2.38,5.32,6.09,5,2.06-.17,4.12-.12,4.66,2.53s-1,4-3,5.18c-5.8,3.31-12.29,1.14-14.63-5.42-2.21-6.18-2.61-12.81-5.87-18.87-2.33-4.34,4.36-13.49,9.84-15a18.19,18.19,0,0,1,2-.32Z"/><path d="M466,597.39c-4.67-.17-9.32-.41-13.81-1.89-1.91-.63-4.19-1.07-4-3.67.18-2.33,2.28-2.5,4.14-2.78a21.22,21.22,0,0,0,3.39-.83c2.51-.82,3.09-2.46,1.54-4.58s-3.21-3.82-4.74-5.79c-9.75-12.59-3.13-24.76,10.51-30.48a3,3,0,0,1,3.91,1.29,4.81,4.81,0,0,1,.41,5.19,4.9,4.9,0,0,1-1.78,1.69c-4.73,2.76-9.82,5.78-8.15,12.21,2,7.72,5.66,14.9,14.43,16.93,4.19,1,6.06,2.76,5.64,7.12-.37,3.81-1.95,5.87-6,5.61C469.66,597.29,467.82,597.39,466,597.39Z"/><path d="M738,35.23c-1.25,6.93-5.28,12.08-7,18.12a2.54,2.54,0,0,1-4.16,1.08c-4.35-3.43-9.61-3.27-14.61-4.25C701.1,48,694,32.74,699.37,22.81a12.21,12.21,0,0,1,2.39-3.14,4.1,4.1,0,0,1,5.49-.27c2.23,1.56.78,3.09-.11,4.69-3.68,6.64-.78,16.28,5.75,19.27,4,1.82,6.43.69,7.3-3.58.72-3.57.84-7.3,1.86-10.77,2-6.73,8.92-9.07,14.84-5.3A3.15,3.15,0,0,1,738.58,27a2.68,2.68,0,0,1-2.85,2.27c-4.63.2-6.76,2.83-7.37,7.21-.2,1.44-.35,2.68,1,3.47s2.58.06,3.49-1A14.32,14.32,0,0,1,738,35.23Z"/><path d="M235.28,668.13c.49-.08,1-.17,1.48-.22,1.88-.19,3.84-.42,4.08,2.27.25,2.87-1.68,3.29-3.88,3.2-8.14-.32-15.83,1.61-23.34,4.53-2.51,1-5.49,1.77-4.59,5.35s3.86,3.14,6.55,2.77c5.6-.76,11.19-1.63,16.79-2.44,1.85-.27,3.91-.6,4.36,1.93s-1.68,3.3-3.43,3.32c-5.81.07-10.9,3-16.46,3.9-4.3.73-5.91,3.27-5.25,7.47.16,1,.2,2,.27,3,.47,6.46,2.31,8.09,8.72,8,2.07,0,5.16-1.52,5.58,2.17.39,3.53-2.47,4.34-5.2,4.78-6.88,1.12-11.82-1.9-13.5-8.68-1.88-7.58-3.56-15.22-5-22.9-1.46-8.1,1.21-12.18,9.2-14.51C219.4,669.86,227.36,669.08,235.28,668.13Z"/><path d="M215,279.17c-.52,11.77-4.62,22-13,30.43-5.11,5.13-14.65,4.06-18-2.23-4.71-9-6.68-19.1-11.62-28-1.36-2.47.56-4.36,2.93-5.43s4.26-.55,5.5,1.72c1.7,3.09,2.27,6.57,3.08,10,1.49,6.15,3,12.3,7.81,16.93,1.75,1.68,3.52,2.74,5.6.77,5.73-5.43,10.94-11.14,11.79-19.59.28-2.8,0-4.93-2.83-6.1a3.48,3.48,0,0,1-2.13-4.87c.82-2.28,2.19-4.2,4.87-4.41a4.5,4.5,0,0,1,4.69,3A18.8,18.8,0,0,1,215,279.17Z"/><path d="M15.78,2.87c7,.22,13.93.77,20.52-2.49a3.13,3.13,0,0,1,4.07.92c1.32,1.86,2.16,4.17.76,6.06-6.76,9.07-4.26,18.57-1.69,28.14a19.37,19.37,0,0,1,.67,3.92c.17,2.75.17,5.65-3.58,5.87-3.49.21-5.79-1.55-6.07-5.15-.33-4.3-.4-8.62-.57-12.94-.06-1.49-.09-3-.15-4.48-.4-9.84-1.94-11.29-11.58-10.65-5.19.34-10.29.14-15.22-1.73-1.86-.7-3.32-1.73-2.85-4A3.86,3.86,0,0,1,3.83,2.91C7.81,2.79,11.8,2.87,15.78,2.87Z"/><path d="M638.85,1464.06c9.66-.06,19.93,8.75,20,17.2.11,9.19-10.12,18.1-20.82,18.13s-16.28-5.42-16.35-16.16C621.64,1469.79,626.7,1464.14,638.85,1464.06ZM628.92,1482c-.23,5.35,4.71,9.71,11.42,10.07,5.28.28,11.35-4.65,11.75-9.55s-7.94-12.29-13.75-12.43C633,1470,629.23,1474.67,628.92,1482Z"/><path d="M932.83,52.22c-4.69.16-8.9-.87-13.14-1.75a7.14,7.14,0,0,1-4.63-2.7c-1-1.42-1.53-3-.33-4.62s2.75-.84,3.94,0c4,3,8.57,2.17,13,2.08,1.95-.05,3.63-.77,4.28-2.81.76-2.33-1.05-3.19-2.56-4.25-5.23-3.66-9.92-7.9-12.92-13.62-4.66-8.92-1.2-16.33,8.53-18.47,4.15-.91,5.63,2.28,6.84,5.15,1.38,3.24-1.25,3.82-3.6,4.52-4.84,1.43-5.38,2.72-2.83,7.06,3.25,5.53,7.1,10.48,13.21,13.18,3.28,1.46,5.59,3.69,5.08,7.68s-2.79,6.58-6.79,7.66A28.1,28.1,0,0,1,932.83,52.22Z"/><path d="M803,332.75c-5.34.38-8.7-2.46-11.38-6.68-3.45-5.44-3.81-11.57-4.35-17.7a63.87,63.87,0,0,0-.92-6.9c-.7-3.39.43-5.72,3.85-6.26,3.79-.6,4.28,2.43,4.58,5.11.42,3.79.44,7.63.84,11.42,1,9.14,3.62,11.53,12.65,11.48,9.22-.05,18.24-1.05,26.34-6.05,1.33-.82,2.68-1.43,4,0s1.21,3,0,4.48c-1.79,2.19-3.6,4.47-6.43,5.34A133,133,0,0,1,803,332.75Z"/><path d="M202.72,1375.7c-5,.08-8.5-2.73-9.76-8.22-1.18-5.16-.37-11-6.29-14.26-1.87-1-.34-2.54.84-3.56,2.59-2.25,3.79-4.72,2.45-8.34-1.08-2.93.45-5.14,3.47-6.13,5.53-1.82,11.07-3.59,16.56-5.49a4.6,4.6,0,0,1,5.07.93c.93.89,2.24,1.65,1.92,3.25s-1.68,1.45-2.75,1.75c-3.19.91-6.41,1.71-9.61,2.61a17,17,0,0,0-7.69,4.42,3.2,3.2,0,0,0-.54,4.11c1,1.75,2.27,1.23,3.83.69,4.86-1.7,9.78-3.22,14.7-4.7,2-.6,4.28-.89,5,1.63.82,2.77-1.82,2.59-3.41,3.11-5.36,1.78-10.74,3.51-16.11,5.23-2.15.69-4.62,1.68-4.18,4.2.78,4.35-.73,9.66,4.34,12.56,3.08,1.77,5.35,0,7.63-1.77a18,18,0,0,0,5-6.09,2.56,2.56,0,0,1,3.77-1.27c1.24.65,1.3,1.77,1,3C217,1367.85,207.33,1375.63,202.72,1375.7Z"/><path d="M701.72,310.3a22.72,22.72,0,0,0-4.37-13.89c-1.68-2.42-2.67-4.86.91-6.54s4.52,1,5.36,3.37c1.74,4.83,4,9.54,4.46,14.75a23.7,23.7,0,0,1,0,5.95c-1,6.21-3.67,11.73-9.91,13.91-6.46,2.25-11.11-1.75-15.2-6.17-3.33-3.61-5.28-8-7-12.56s-3.39-9.38-5.32-14c-1-2.52-1.22-4.58,1.51-5.86,2.58-1.2,4.37-.1,5.78,2.26a17.57,17.57,0,0,1,2.48,7.51c.54,6.09,3.65,11,6.91,15.81,1.89,2.78,4.1,6.18,8.38,4.66S702.68,315,701.72,310.3Z"/><path d="M335.71,273.07c9.71-.06,17.35,4.94,20,11.78,2.14,5.6-.23,12.81-5.85,17.83-7.05,6.29-18.18,4.77-24-3.4-4.17-5.89-4.52-12.47-2.2-19S331.84,273.26,335.71,273.07Zm3.65,7.15c-6.72.14-9.62,2.36-9.62,7.37,0,5.82,5.39,11,11.35,10.78,5.13-.15,8.76-3.33,8.7-7.62C349.71,284,345.79,280.08,339.36,280.22Z"/><path d="M625.9,322c-8,.22-16.27-5-18.47-11.57-.6-1.8-1.24-3.73.83-4.87,2.25-1.23,3.86,0,4.78,2.06,2.3,5.19,6.75,6,11.64,5.67,4-.3,5-2.89,2.63-6.05a53.27,53.27,0,0,1-7.66-14.46c-2.82-8,4.39-16,12.77-14.54,2.76.49,2.93,2.41,2.34,4.51a6.74,6.74,0,0,1-1.7,2.41c-7.4,8.38-7.43,9.86-.1,18.31,1.31,1.51,2.69,3,4.14,4.33,2.22,2.1,3.51,4.43,2.33,7.55s-3.27,5.4-6.78,5.9C630.35,321.59,628,321.78,625.9,322Z"/><path d="M420.31,51.18c-7.52.28-12.77-3-15.14-9.71-.81-2.27-1.14-4.59,1.12-6.36,2.45-1.94,4.74-1.11,5,2s1.14,6,5,6.34c5,.39,10.16,1.07,14-3.26,1.48-1.68-.2-3.12-1.28-4.28-2.95-3.16-6.22-6-9-9.34-5.3-6.28-4.71-12,1.46-17.34,1.35-1.16,2.66-3,4.64-1.21s4,3.89,2.08,6.43c-3.86,5.17-1.55,8.86,2.12,12.65a75.74,75.74,0,0,1,6.83,7.93c4.23,5.78,2.26,11.84-4.52,14.32C428.64,50.85,424.46,51,420.31,51.18Z"/><path d="M545.6,312c4.55-7.67,6.14-15.69,3.53-24.39-.84-2.81-2.2-5.81.58-8.39a3.9,3.9,0,0,1,4.65-.59c3.43,1.8,2.63,5.08,2.37,8-.93,10.26-1.61,20.58-4.85,30.47-1,3-1.85,6.15-6,6.36s-4.84-2.85-6-5.58c-4-9.52-8.15-18.95-15.28-26.69a7.23,7.23,0,0,1-2-6,4.35,4.35,0,0,1,3.39-3.87c2-.55,3,.77,3.85,2.35q6.39,12.13,12.81,24.25C543.5,309.29,543.82,311,545.6,312Z"/><path d="M568.3,22.28c-3.45.55-7.22,1.27-11,1.7-2.32.26-4.9.28-5.46-2.89-.6-3.36,1.65-4.38,4.36-4.8A302.57,302.57,0,0,0,586,10.35c2.38-.62,4.54-.38,4.63,2.7.08,2.65,1.15,6.38-3.17,6.54-5.25.2-5.78,2.46-5,7.09,1.25,7.13.55,14.49,5,21.08,1.93,2.9-1.39,5.15-4.07,6.23-3.06,1.23-4.82-.64-5.42-3.42-1.49-6.86-1.4-13.89-2.05-20.84C575.4,24.18,573.37,22.12,568.3,22.28Z"/><path d="M268.41,1328.3c1.36,0,3.19,0,5,0s3.93-.41,4.18,2.22-1.86,3.19-3.9,3.55c-4.25.76-8.51,1.48-12.75,2.25a6.92,6.92,0,0,0-4.07,1.72c-1.6,1.72-1.31,3.67-.4,5.57,1.09,2.28,2.92,1.77,4.69,1,6.31-2.65,13-2.65,19.64-2.57,1.76,0,3.55.1,3.64,2.37.09,2.43-1.61,3.09-3.69,2.86-6.89-.74-13.09,1.76-19.33,4.07-3.48,1.29-4.87,3.79-2.64,7,2.81,4-.13,6.74-2.08,9.23-1.79,2.3-4.09,1.18-4.64-1.54a26.53,26.53,0,0,1-.15-7c.17-2.77.33-5.39-2.74-6.8-1.46-.66-1.51-1.63-.49-2.73,2.81-3,1.52-6.07.19-9.23-2.68-6.4-1.51-8.59,5.2-10.41C258.63,1328.67,263.33,1328.93,268.41,1328.3Z"/><path d="M437.33,586.54A29.63,29.63,0,0,1,417.47,602c-7.58,1.87-13.31-1.66-15.87-9.22-3.45-10.19-2.83-20.66-1.93-31.13.21-2.5,1.46-4,4.22-3.76,2.54.24,3.88,1.59,4,4.2.22,5.82-.92,11.62-.12,17.44a56.92,56.92,0,0,0,1,6.38c1.46,5.64,3.86,7.19,9.44,6C424.66,590.49,431.34,589.91,437.33,586.54Z"/><path d="M349.26,1320.3c2.79-.16,4.37.15,4.86,2.22.52,2.24-.8,3.51-2.62,4.2a27.4,27.4,0,0,1-3.92.63c-3.42.72-5.47,2.74-4.75,6.35,1.45,7.17,2.34,14.41,3.11,21.68.26,2.42,1.85,3.29,4.15,3.38,3.54.14,3.59,2.45,2.65,4.9-1.21,3.13-3.54,5.55-7,5.57-3.63,0-3.46-3.43-4-5.91-1.85-8.09-3.75-16.13-4-24.52-.22-7.44-2.78-8.83-10.05-6.78-4,1.12-7.69,3.21-11.93,3.35-1.78.06-3.44-.26-3.64-2.46-.16-1.81.51-3.52,2.4-3.87A276.62,276.62,0,0,0,349.26,1320.3Z"/><path d="M172.9,1482.07c.19-2.15.27-4.32.59-6.45.26-1.74,1-3.35,3.19-3,2,.32,2.56,1.82,2.47,3.72-.17,3.49-.45,7-.32,10.46.35,9,7.62,14.25,16.52,12,12.88-3.26,17.75-16.6,9.93-27.33-1.35-1.85-2.51-3.65-1.4-5.92.9-1.85,2.77-2.38,4.63-2.39,2.91,0,3.19,2.57,3.87,4.52,4.77,13.73.09,27.59-11.9,35.48-9.69,6.37-18.76,4.13-24.29-6.1C173.68,1492.41,172.89,1487.33,172.9,1482.07Z"/><path d="M261,1002.75c0,9.15.14,18.31-.06,27.46-.09,4.34,1,6.82,5.92,6.08,1.26-.2,2.85-.41,3.28,1.38s-.87,2.69-2.39,3.18c-.78.26-1.63.32-2.43.53-10.28,2.71-11,2-8.9-8.38,2.27-11.43.29-22.89.11-34.33-.12-8.33-1.5-16.55-2.55-24.79-.22-1.71-.51-3.42-1.75-4.56-2.4-2.23-1.3-4.05.25-6.05s3.22-2.41,5.55-1c2.82,1.74,6,1.51,9.22,1.15a26.42,26.42,0,0,1,5.48-.08,2.66,2.66,0,0,1,2.47,3.16c-.13,1.66-1,2.79-2.88,2.7-2.16-.1-4.33-.12-6.49-.18-6.26-.15-6.4.23-6.25,6.78.21,9,.05,17.95.05,26.93Z"/><path d="M808.82,1322.3c2.38-.09,3.76-.06,4.1,1.68a3.19,3.19,0,0,1-1.58,3.83,17.22,17.22,0,0,1-6.74,1.6c-3,.26-4.91,1.75-5.33,4.91-1.22,9.15-2.07,18.24,3,26.69,1.09,1.82,1.56,3.73.27,5.62-.79,1.15-2,2-3.42,1.43-2.36-.84-4.09-2.48-4.26-5-.55-8.13-3-16-3-24.23,0-5.71-1.73-6.94-7.42-5.61-4,.94-8.08,2-12.13,2.87-2.07.46-3.73-.22-4.21-2.41-.45-2,.77-3.18,2.61-3.56C783.72,1327.4,796.75,1324.76,808.82,1322.3Z"/><path d="M677.83,1001.59c0,10.47-.07,20.95,0,31.42,0,3.29.23,6.89-3.65,7.75s-6.67-2.36-9.77-4.13c-.31-.18-.38-1.31-.14-1.78a1.82,1.82,0,0,1,2.21-.67c6.3,1.74,6.45-2.19,6.4-6.67-.24-19,.63-37.93-.87-56.87-.55-7-1.73-8.16-8.95-8.23a84.25,84.25,0,0,1-15.36-1.66c-1.39-.27-3.2-.4-2.75-2.65.42-2,2-2,3.54-1.75,7.59,1.45,15.15,1.86,22.76.07,3.15-.74,3.6,1.44,3.72,3.81.46,9.14,1,18.27,1.35,27.4.19,4.65,0,9.31,0,14Z"/><path d="M172.25,1021.51c.46-4-1.08-6.54-4.88-7.66-2-.59-3.74-1.2-3.69-3.9,0-2.47,1.06-3.81,3.22-5,7.31-4.17,7.22-4.26,4.09-12-.76-1.89-2.55-4.07-.28-5.88s4.17-1,5.84,1.37c1.31,1.92,1.7-.53,2.47-1,1.25-.71,2.43-1.11,3.71-.21s1.24,2.24.83,3.58c-.3,1-.72,1.87-1,2.81-1.46,4.47-.4,6.16,4.23,6.76,2.05.27,4.82-.4,5.4,2.4.64,3.07-2.3,3.61-4.28,4.66-1.32.7-2.78,1.15-4.06,1.9-3,1.77-4.35,4.07-2.07,7.39,1.31,1.89,2,4,.54,6s-3,1-4.62-.12c-.8-.55-1.49.39-2.15.84-.91.61-1.55,2.17-2.84,1.52C171.06,1024.17,172.35,1022.63,172.25,1021.51Zm6.46-15.67c0-1.26-.64-2.27-1.73-2a5.54,5.54,0,0,0-4.06,4.51c-.31,1.56.87,2,2.15,1.94C178,1010.18,177.9,1007.59,178.71,1005.84Z"/><path d="M340,27.35c-.23,8.6-4.06,14.41-10.35,15.69-5.26,1.08-9.52-.69-12.14-5.57A28.9,28.9,0,0,1,315,16.26a6.19,6.19,0,0,1,4.49-4.88C328.27,9,340.21,18.33,340,27.35Zm-18.26-1.82c.53,7.32,2.92,11,6.81,10.77,3.05-.18,5.53-3.85,5.29-7.82-.31-5.15-3.41-8.09-8.25-7.92C322,20.69,321,22.61,321.72,25.53Z"/><path d="M395,25.53c.18,4.14-.87,9.7-7.05,12.78S375,39.74,370.71,33.84c-3.46-4.77-5.18-10.41-7.52-15.72-1.22-2.77,0-4.82,2.83-5.91,3-1.14,4.26.5,5.24,3,1.47,3.7,2,7.74,4.12,11.22,2.95,4.93,6.35,6,10.17,3.32,4.19-3,4.59-7.45,1-11.62a22.48,22.48,0,0,1-1.71-1.82c-2.09-3-.88-5.28,1.89-7.06s4.84-1.25,6.21,2C394.61,15.22,394.63,19.37,395,25.53Z"/><path d="M758.13,1004.13c-2.51,3-2.31,6.33-3.3,9.17-.48,1.37-.65,3.31-2.75,2.64-1.87-.59-.86-2.16-.57-3.38.81-3.39,1.7-6.76,2.42-10.17,1.12-5.29-1-8.35-6.33-9.11-1.92-.28-4.24.28-4.79-2.45s1.56-3.56,3.59-4.53c6.79-3.27,7.63-5.69,4.63-12.23a16.61,16.61,0,0,1-1.1-3.3c-.4-1.79-.07-3.46,1.91-4,2.23-.64,2.16,1.5,2.8,2.69,1.11,2.11,1,8,4.73,1.38a1.83,1.83,0,0,1,2.65-.5c1.27.73,1.23,1.95.73,3-.9,2-3.74,3.35-1.85,6a14,14,0,0,0,8.56,5.58c1.18.29,2.93-.52,3.29,1.38s-1.1,3-2.6,3.81c-1.76.91-3.79,1.36-5.43,2.43-3,2-5.71,4.12-2.61,8.4,2.33,3.21.69,7.1.62,10.69,0,1.46-1.35,1.78-2.59,1.69-1.61-.12-1.61-1.29-1.54-2.55C758.72,1008.9,759.47,1006.93,758.13,1004.13ZM762,987.77a5.58,5.58,0,0,0-4.58-4,4.7,4.7,0,0,0-4.54,4.25,4.89,4.89,0,0,0,4.59,4.41C760.09,992.45,760.73,989.61,762,987.77Z"/><path d="M140.82,1335.25c1.19,6.36.37,12.28-.26,18.2-.07.66-.28,1.3-.39,2-1.86,11.67-.51,13,11.37,12.37,5.79-.3,11.61.19,17.42.28,1.66,0,2.94.42,3.38,2.22a3.71,3.71,0,0,1-1.48,4c-1.76,1.48-3.91,1.74-6.09,1.81a146,146,0,0,1-22.9-1c-6.08-.74-7.58-2.45-7-8.44.85-9.27,2-18.5,3-27.75A3.79,3.79,0,0,1,140.82,1335.25Z"/><path d="M445.25,262.78c-1.1,4.67-2.16,9.35-3.3,14q-4.47,18.38-9,36.74a25.07,25.07,0,0,1-1.49,4.21,3.1,3.1,0,0,1-3.68,1.86,3.57,3.57,0,0,1-3.19-3.32,5.64,5.64,0,0,1,.37-2.92c7.74-15.77,10.06-32.92,12.82-50a11.84,11.84,0,0,1,.23-1.47c.7-2.28,2-3.94,4.64-3.53S444.9,260.86,445.25,262.78Z"/><path d="M373.89,578.43c0,3.16,0,6.33,0,9.49a7.41,7.41,0,0,0,3.42,6.79c1.4.89,3.28,1.64,2.09,3.77-1.52,2.7-3.72,4.78-7,5.11-1.93.19-3.74-.51-4.42-2.53a19.75,19.75,0,0,1-.92-4.89c-.46-6.64-.88-13.29-1.2-19.94-.16-3.35-.41-6.6-2.12-9.63s-1.38-5.58,2.08-6.93,5.59.58,6.69,3.45a23.67,23.67,0,0,1,1.13,6.84c.19,2.82.05,5.65.05,8.47Z"/><path d="M720.46,707.47c.5-6.91.15-13.51-4.7-19.24-2.59-3.05-2.15-6.54,1.08-9.22s5.2-2,7,1.6a44.73,44.73,0,0,1,4.85,21.6,55.53,55.53,0,0,0,.65,10.91c.56,3-.22,5.73-3.94,6.21-4.06.53-5.29-2-5.36-5.41C720.05,711.77,720.32,709.62,720.46,707.47Z"/><path d="M463.88,1336.75c-.3,5.68-.33,11.32,3,16.37,1.7,2.6.4,4.42-2.06,5.57s-4.51.79-5.86-1.82c-1.62-3.12-1.2-6.49-1.23-9.8-.06-9.67-2.16-11.84-11.6-12-2.17,0-5.18,1.1-5.56-2.41-.35-3.34,2.53-3.84,5-4.4,3.72-.85,7.45-1.73,11.2-2.44,6-1.15,7.11-.16,7.12,5.94Z"/><path d="M490.57,1335.39c9.42.07,13.48,3.32,13.47,10.78,0,7.25-5.34,12-13.44,12-7.39,0-12.23-5-12.19-12.69C478.44,1338.19,481.88,1335.33,490.57,1335.39Zm2.44,6.37c-5.34-.1-8.22,1.72-8.06,5s1.78,5.54,5.53,5.59c4.9.06,8.45-2.17,8.5-5.63C499.05,1342.33,495.74,1342.06,493,1341.76Z"/><path d="M478.84,985.72c6.62-.48,12.56-.19,18.22,2.22,6.54,2.78,7.28,5.75,2.79,11.39a28.76,28.76,0,0,1-14.53,10.08c-5,1.49-11.21-2.65-11.55-7.81a21.77,21.77,0,0,0-2.79-10c-2.62-4.43-1.76-5.81,3.45-5.91C476.09,985.69,477.76,985.72,478.84,985.72Zm7.75,4.41c-9.49.17-9.49.17-8.06,9.52a3.38,3.38,0,0,1,.11,1.46c-1.86,5,1.91,4.28,4.36,3.92,6.49-.95,10.68-5.66,14.83-10.13,1.91-2.06.14-3.35-1.91-3.68C492.83,990.71,489.7,990.48,486.59,990.13Z"/><path d="M427,1478.51c3.58-4.84,8.11-7.06,13.87-5.6,5.51,1.4,8.76,6.68,6.61,11.87-2.9,7-9.2,9.86-16.22,10.8-6,.8-10-2.52-12.89-7.58-1.77-3.14-1.72-6.32-.85-9.64.51-2,1.43-3.47,3.76-3s1.91,2.24,1.82,3.94c-.4,7.39,2,10.43,8.68,11.34,3.15.43,11.12-4.73,11.88-7.69s-1.84-5.6-5.44-5.48C434.47,1477.58,430.74,1478.14,427,1478.51Z"/><path d="M636.77,994.69c-.08,9.64,1.78,12.35-10.2,8.29a38.86,38.86,0,0,0-6.28-1.53c-3.94-.64-9.31-3.91-8.72,4.52.09,1.25-1.16,2.34-2.78,2.31-2.09,0-2.37-1.53-2.37-3.09A45,45,0,0,0,605,992.86a3.6,3.6,0,0,1,1.71-4.32c1.85-1,2.58.56,3.58,1.65,5.14,5.61,12.49,6.6,19.17,8.94,2.29.8,2.7-1.23,2.86-3,.23-2.48.37-5,.65-7.44.17-1.54.73-3.21,2.59-3,2,.21,1.8,2,1.62,3.52C637,991,636.91,992.87,636.77,994.69Z"/><path d="M301,1020.15a13.32,13.32,0,0,1-9-2.22c-1.28-.95-2.9-2.23-1.16-4.06,1.37-1.43,2.52-.53,3.81.56,5.51,4.66,15,3.35,19.34-2.48,2-2.72,2.09-4.68-1.39-6.15a46.32,46.32,0,0,1-10.6-6.54c-5.93-4.69-5.92-11.34.08-16,3.12-2.43,6-5.35,10.21-6,1.57-.24,3.53-.77,4,1.65.36,2-1.19,2.64-2.63,3.05-2.73.77-5.47,1.4-7.72,3.29-4.7,3.93-4.91,8-.52,12.27a29.92,29.92,0,0,0,8.39,5.29c6.28,3,7.07,8.17,2.12,13.05C312,1019.69,307.06,1020.19,301,1020.15Z"/><path d="M576.44,284.85a4.91,4.91,0,0,1,4.16-5.27c2.45-.59,3.8,1.07,4.29,3.15,2.35,10,4.7,20,6.77,30.06a6.12,6.12,0,0,1-2.68,6.56c-2.19,1.35-5,1.81-5.16-1.73-.64-10.83-1.65-21.5-7.06-31.22A4.41,4.41,0,0,1,576.44,284.85Z"/><path d="M618.41,1323.4c2.63.38,2.87,2.76,3.3,4.8,1.48,7,2.85,14,4.21,21,.58,3,1.22,5.84,3.54,8.06,2,1.89,1.94,4.12.61,6.36-1,1.65-2.31,3.08-4.41,2.56-2.63-.66-3.42-2.91-3.82-5.31-1.81-10.8-2.67-21.79-7.48-31.92C613.15,1326.42,615.55,1323.35,618.41,1323.4Z"/><path d="M305.13,303.21c-.52,4-2.22,6.51-5.63,6.79-3.8.31-3.35-2.84-3.46-5.29-.38-8.82-.51-17.66-3.9-26-1.1-2.71-.46-4.91,2.82-5.66,3.06-.7,4.81.55,5.5,3.49a29.4,29.4,0,0,1,.47,3C301.85,287.67,300.89,296.2,305.13,303.21Z"/><path d="M672.18,12.3c2.37.33,2.69,2.16,2.94,4,.86,6.26,1.69,12.53,2.53,18.79.61,4.54,2.57,8.23,6.75,10.47,2.43,1.3,3.67,3.34,2,5.68s-4,1-5.82-.16c-6.72-4.33-9.77-10.92-10.11-18.54a71.91,71.91,0,0,0-1.72-14.71C668,15,669.06,12.93,672.18,12.3Z"/><path d="M392.45,1476.88c-1.17.2-3.3.56-5.42,1-1.91.36-3.53-.14-3.77-2.16-.23-1.84,1.26-2.46,2.94-2.59a54.36,54.36,0,0,0,16.34-4.25c1.57-.64,3.24-1.39,4.67,0s.05,2.79-.49,4.06c-2.05,4.87-1.44,9.8-.41,14.72a20.74,20.74,0,0,1,.61,5.92c-.16,1.88-.92,3.32-2.9,3.45s-2.75-1.36-3-3.22c-.51-4-1.25-7.88-1.67-11.84C399,1478.17,397.09,1476.52,392.45,1476.88Z"/><path d="M430.35,1001.35c-.18,1.58.72,4.27-2.41,4.17-2.74-.08-1.81-2.6-2.09-4.26q-.77-4.41-1.65-8.79c-.34-1.7-.67-3.35,1.3-4.3,1.62-.8,2.88-.18,3.93,1.1,3.51,4.3,8.9,4.91,13.58,6.86,2.63,1.09,4.12-.57,4.66-3a54.43,54.43,0,0,0,.69-5.43c.24-2,1.27-3.1,3.36-2.37,1.66.58,3.18,1.67,2.24,3.7-1.42,3.06-2,6.31-2.77,9.53-.7,2.95-2.78,3.55-5.35,2.85A103.78,103.78,0,0,1,434.42,998C430.82,996.51,429.78,997.53,430.35,1001.35Z"/><path d="M571.23,1010.36c-5.63,0-8.53-2.83-8.46-8.15s5.88-10.29,11.59-10.14c4.21.12,10.33,5.58,10.48,9.36S576.86,1010.41,571.23,1010.36Zm1.33-5.17c2.43-.83,6.5.1,7-4.23.26-2.26-2.09-3-4-2.56-2.86.59-7-.38-7.47,4C567.91,1004.61,570.18,1005.1,572.56,1005.19Z"/><path d="M69.3,1010.32c4.13-.62,8.5.29,12.72-1.07,2.08-.68,4.23-.43,4.51,2.28a3.17,3.17,0,0,1-3.6,3.76c-10.85-1-21.49,1.27-32.25,1.75a14.87,14.87,0,0,1-3-.3c-1.33-.22-2.7-.46-2.78-2.24-.1-2.06,1.38-2.46,2.92-2.63C55,1011.1,62,1009.8,69.3,1010.32Z"/><path d="M346.82,1010.23c-2.95-.8-7.2-.46-8.15-5.16-.92-4.49.84-7.41,5.28-9.34,8.27-3.6,11.07-3.62,14.41,1.1,3,4.22,2.48,7.16-1.84,10C353.74,1008.72,350.79,1010.23,346.82,1010.23Zm2.21-4c3-.78,7.67-.42,7.41-5.15-.25-4.54-4.48-3.16-7.47-3.1-.33,0-.66.08-1,.07-2.79,0-5.1.77-4.93,4.08C343.24,1005.63,346,1006.07,349,1006.22Z"/><path d="M179,973c-2.62-.79-5.34-1.16-8.11.07-1,.46-2.3.81-3-.58a2.75,2.75,0,0,1,.31-3.26c3.35-3.65,4.49-8,4.28-12.8-.07-1.47.2-3.07,2.29-3.18s2.59,1.4,2.54,2.91c-.15,5,1.55,8.68,6.3,10.75,1.27.56,1.42,1.62.74,2.9A5.56,5.56,0,0,1,179,973Z"/><path d="M392.38,1007.06a14.09,14.09,0,0,1-13.66-11c-.25-1.33-.7-2.89,1-3.41,1.37-.43,2.54.59,3.23,1.8s1,2.45,1.69,3.59c2.53,4.42,7.83,6,12,3.47,3.24-2,5.5-4.55,2.45-8.53-1-1.36-2.18-3,.07-4.11,2-1,3,.85,3.78,2.26C406.88,998,401,1006.92,392.38,1007.06Z"/><path d="M848.8,997.11c-1.57-.06-3.4.73-4.47-1.17a2.58,2.58,0,0,1,.39-2.8c1.33-1.86,2.95-.32,4.48-.32,9.43,0,18.85-.14,28.08-2.5,1.2-.31,3.12-2.6,3.71.68.41,2.29-.75,3.24-3,3.58C868.33,996.05,858.54,996.22,848.8,997.11Z"/><path d="M757,1042.12c1.93-4.53,0-8.28-1.74-12.08-1.24-2.74-1.43-4.89,2.65-4.87a8,8,0,0,0,3.29-.91c2-.91,4.15-1,5.49.59,1.46,1.74-.82,2.92-1.65,4.17-2.53,3.83-2.73,8.09-2.72,12.44a3.34,3.34,0,0,1-3.76,3.67C756.89,1045,757.14,1043.23,757,1042.12Z"/><path d="M180.35,1047a7,7,0,0,1-6.32,4.08c-2,0-2.33-1.56-2-3.13.45-2.4,1.37-4.55,4.44-4A4.53,4.53,0,0,1,180.35,1047Z"/><path d="M130.87,1009.44c-.13,2.17-.77,3.88-3.42,3.93-1.8,0-3-.68-2.84-2.57.18-2.09.14-4.56,3.3-4.6C130.06,1006.17,130.74,1007.54,130.87,1009.44Z"/><path d="M795.81,995.41c-1.81-.42-1.92-2-1.82-3.41.11-1.6,1-2.84,2.79-2.76a2,2,0,0,1,2,2.73C798.45,993.56,798,995.2,795.81,995.41Z"/></svg>