<svg xmlns="http://www.w3.org/2000/svg" width="128.52" height="210.94" viewBox="0 0 128.52 210.94"><title>c0-txt3</title><path d="M25.84,2.18c.24,1.08-.64,1.31-1.33,1.67-.2.1-.53.07-.53.38s.3.36.53.4c1.11.21,2.17.94,3.35.24a.49.49,0,0,1,.77.29c.16.52-.22.55-.58.68A5,5,0,0,1,23.21,5c-.63-.48-1-.52-1,.4a2.81,2.81,0,0,1-.19.81c-.06.19-.18.38-.42.36a.44.44,0,0,1-.41-.49,8.44,8.44,0,0,0-.85-3.45c-.14-.32-.16-.61.22-.81s.56,0,.72.35c.28.57.53,1.1,1,.08.3-.63,2.38-1.32,3-1.12S25.94,1.69,25.84,2.18Z"/><path d="M86.76,6.74a2.65,2.65,0,0,0-.88-2.34c-.35-.27-.45-.57,0-.84S86.82,3,87,3.71c.34,1.11.76.78,1.25.15l.09-.09c.58-.62,1.19-1.68,2.1-.93s.21,1.71-.13,2.56c-.12.31-.67.47-.44.88s.72.21,1.1.22a2,2,0,0,0,1.69-.4c.18-.2.39-.29.61-.08s.19.49,0,.75c-.47.75-1.28.77-2,.86a5.55,5.55,0,0,1-1.9-.17c-.84-.21-1.69-.67-1.89.73a.35.35,0,0,1-.5.19A.67.67,0,0,1,86.69,8,7.52,7.52,0,0,1,86.76,6.74Z"/><path d="M61.92,8c-.8.17-1.05-.24-1.06-1.19a8.63,8.63,0,0,0-.55-3.16c-.25-.62-.07-.83.71-.91a6.36,6.36,0,0,1,3.92.87,1.49,1.49,0,0,1,.76,2.08C65.09,7.26,64,8,61.92,8Zm.32-2.41c.25.4-.55,1.35.65,1.35.71,0,2-1.14,1.91-1.71-.22-1-1.21-.91-1.93-1C61.83,4.13,62.3,5,62.24,5.57Z"/><path d="M82.85,6.7a.75.75,0,0,1-.37.79c-.33.16-.53-.09-.67-.34A1.77,1.77,0,0,0,79.74,6a1.45,1.45,0,0,0-1.32,1c-.11.35-.17.81-.61,1-.26.11-.53.22-.79,0s-.14-.48,0-.74a30.26,30.26,0,0,0,1.85-3.9c.28-.81.79-.78,1.36-.23s1.07,1.41,2,1.82C82.77,5.25,82.28,6.3,82.85,6.7Z"/><path d="M33.47,5.71a10.7,10.7,0,0,0,.34,3.13c.12.51.06,1-.53,1.14s-.67-.53-.73-.89A10.21,10.21,0,0,1,32.45,7c0-.75-.14-1.09-.94-.74a1,1,0,0,1-1.4-.51A11.94,11.94,0,0,0,29,3.48c-.25-.32-.07-.62.26-.78s.57.08.7.4.37.89.59,1.3.44.85,1,.63.85-.41.81-1-.41-1.5.57-1.47.59,1,.65,1.57A11.27,11.27,0,0,1,33.47,5.71Z"/><path d="M58,5c0,.69,0,1.27-.44,1.51s-.84-.21-1.14-.48A9.43,9.43,0,0,0,54,4.75c-.55-.27-.93-.22-.86.54a1.66,1.66,0,0,1,0,.59c-.11.41-.33.78-.78.8s-.42-.47-.43-.79c0-.9-.08-1.81-.1-2.71a.89.89,0,0,1,.62-.81c.41-.19.66,0,.9.35.73,1,2,1.34,2.85,2.14.43.38.66,0,.64-.42A5.27,5.27,0,0,1,56.75,3c0-.24.11-.47.42-.47s.46.21.43.35C57.41,3.72,58,4.41,58,5Z"/><path d="M49.67,4.39a1.19,1.19,0,0,0,0,.42c.1.38.15.71-.3.89s-.69-.06-1-.32c-.9-.92-1.77-.83-2.4.28a2.51,2.51,0,0,1-.6.72c-.25.19-.5.47-.83.18s-.07-.49,0-.76c.42-1.27,1.32-2.33,1.47-3.73.09-.78.87-.9,1.44-.33s.78,2,2.12,2C49.82,3.71,49.8,4,49.67,4.39Z"/><path d="M2.54,6.82a5.44,5.44,0,0,1-2.45-2c-.22-.25,0-.63.3-.8S.93,4,1,4.32s.39.57.7.76.82.8,1.23.39-.07-1-.39-1.45-.73-.84-1.08-1.26c-1-1.2-.32-2,.83-2.63C2.58,0,3-.12,3.18.36s.17.78-.25.94c-1.2.46-.61,1.05-.15,1.62A6.52,6.52,0,0,1,4,4.79,1.48,1.48,0,0,1,2.54,6.82Z"/><path d="M15,1.48c.78-.4,1.33.14,1.89.47a2,2,0,0,1,1.17,2.26,1.92,1.92,0,0,1-1.7,1.48A2.31,2.31,0,0,1,14,4.42a3.69,3.69,0,0,1-.31-2.22C13.76,1.31,14.26,1.12,15,1.48Zm1,3.25c.5-.1,1.11-.18,1.26-.84s-1.18-1.44-2-1.46-.66.49-.66.89A1.3,1.3,0,0,0,16,4.73Z"/><path d="M9.15,1.82c-.54,0-1.28.33-1.28-.47,0-.63.67-.55,1.21-.59A9.65,9.65,0,0,0,12,.18c.31-.12.59-.33.79.1s.13.72-.17.86C10.81,2,12,3.33,12,4.46c0,.28.25.57.1.9a.69.69,0,0,1-.64.45c-.37,0-.45-.25-.49-.55-.1-.82-.25-1.63-.31-2.45C10.58,1.71,9.92,1.64,9.15,1.82Z"/><path d="M97,5.87a5.6,5.6,0,0,1,0-.68c.19-1-.32-1.2-1.16-1.06l-.59.09c-.38,0-.64-.09-.64-.51s.2-.47.54-.49a10.75,10.75,0,0,0,3-.62c.34-.11.62-.12.81.25a.58.58,0,0,1-.2.74,3.47,3.47,0,0,0-.53,3.91c.32.46.38.84-.06,1.11s-.7-.13-.94-.48C96.84,7.43,97.1,6.65,97,5.87Z"/><path d="M34.71,67.63A4.35,4.35,0,0,0,34,65c-.19-.29-.48-.76,0-1s.8-.05,1,.45c.27.68.68.37,1,.07a2.46,2.46,0,0,1,1.86-.92c.41,0,.93-.31,1.16.25a1.51,1.51,0,0,1-.1,1.38c0,.07-.12.12-.13.19-.13.56-1.35.68-.79,1.36a2.66,2.66,0,0,0,2.52.74c.4-.06,1-.65,1.16.12s-.5,1.06-1.13,1.06a6.7,6.7,0,0,1-3.61-1c-.4-.26-.86-.5-1.12.25-.13.37-.15,1-.73.9S34.77,68,34.71,67.63Z"/><path d="M54.49,64.22c0,.47.06.79,0,1.11-.08,1.62-.3,1.74-1.7,1a4.4,4.4,0,0,0-1-.38c-.65-.17-1.21-1-1.82-.69s-.15,1.24-.2,1.88-.26,1-.8,1-.6-.58-.62-1A6.49,6.49,0,0,0,48,64.21c-.33-.63.37-1.08.78-1.47s.64.14.93.35c.92.68,1.85,1.36,2.8,2,.6.4,1,.2,1-.53,0-.36,0-.73,0-1.08s.16-.78.6-.77.44.46.43.82S54.49,64.09,54.49,64.22Z"/><path d="M58.44,68.2a2.15,2.15,0,0,1-2.21-2,5.31,5.31,0,0,1,.59-3.35c.23-.41.44-.7.91-.51s.4.71.24,1a4.43,4.43,0,0,0-.54,2.06,3.78,3.78,0,0,0,.17,1,.58.58,0,0,0,.62.46c.4,0,.39-.38.38-.63a3.18,3.18,0,0,1,.29-1.64,1.62,1.62,0,0,1,2-.88c.94.25.92.93.87,1.7C61.66,67,59.9,68,58.44,68.2Zm1.92-3.11a.76.76,0,0,0-.63.82c0,.23.21.52.44.45a.94.94,0,0,0,.74-.92C60.9,65.17,60.66,65.07,60.36,65.09Z"/><path d="M14.82,63.33a1.2,1.2,0,0,1,1.13.45c.39.37.71.87,1.35.91.32,0,.47.26.34.61a1.67,1.67,0,0,0,.72,2c.51.4.34.73,0,1.1s-.67.18-1-.11-.47-1-.78-1.46-.32-.86-.9-.81a1.33,1.33,0,0,0-1.33.82,6.46,6.46,0,0,1-.67,1.13.55.55,0,0,1-.72.25c-.33-.16-.27-.43-.17-.72a18.71,18.71,0,0,0,1-3.54C13.87,63.4,14.29,63.23,14.82,63.33Z"/><path d="M8.94,62.67l.48,0c.32,0,.7-.1.71.38s-.24.65-.62.55c-.77-.21-1.36.35-2.07.41-.25,0-.49.15-.47.44s.34.42.62.36c.59-.12,1.16-.29,1.74-.42a.43.43,0,0,1,.53.17c.1.23-.1.33-.3.41-.44.18-.87.39-1.31.58s-.93-.16-1,.38a2.57,2.57,0,0,0,.45,1.7.43.43,0,0,0,.7.13,5.25,5.25,0,0,1,.69-.47c.39-.19.68-1,1.11-.56s-.23,1-.62,1.31c-1.38,1.25-2.67.89-3-1A27.62,27.62,0,0,1,5.81,64c0-.85.15-1.08.87-1.14Z"/><path d="M2.37,63.63c-.58-.1-1.12-.19-1.15.44s.61.56,1.06.61a5.52,5.52,0,0,0,1.4-.28c.27,0,.6-.11.71.24s-.22.43-.5.49a3.56,3.56,0,0,0-.47.1c-1.62.45-1.7.62-1.57,2.25,0,.49.33,1.34-.41,1.41s-.77-.83-.71-1.3C.92,66.07.24,64.74,0,63.32a.67.67,0,0,1,.56-.87c.66-.15,1.33-.25,2-.4s1.19,0,1.29.78-.6.63-1,.74C2.63,63.61,2.43,63.62,2.37,63.63Z"/><path d="M33,66.15a2.86,2.86,0,0,1-2.29,2.68,1.63,1.63,0,0,1-1.91-1.08A11,11,0,0,1,28,64.64c0-.47,0-1,.56-1s.67.37.69.82a5.22,5.22,0,0,0,.52,2.19c.32.59.59,1.16,1.44.81a1.26,1.26,0,0,0,.89-1.68,1.78,1.78,0,0,0-.5-.91c-.28-.26-.57-.71-.11-1s.74,0,1,.37A3,3,0,0,1,33,66.15Z"/><path d="M22.26,63.62c.8.13,1.74-.35,2.74-.3.42,0,.83-.07,1,.39s-.18.58-.56.71-.42.62-.33,1c.16.7.37,1.38.52,2.08.1.47,0,.95-.53,1s-.61-.37-.69-.79c-.12-.62-.38-1.23-.44-1.85-.11-1.26-.76-1.42-1.78-1a3.4,3.4,0,0,1-.93.22.88.88,0,0,1-1-.84c-.05-.49.38-.63.83-.62Z"/><path d="M43.35,63.89a.89.89,0,0,1,1,.81,17.69,17.69,0,0,0,1,3c.13.38.13.75-.26.92a.65.65,0,0,1-1-.46,11.74,11.74,0,0,0-1.18-3.62C42.64,64.18,43.08,64,43.35,63.89Z"/><path d="M111.17,93.51c-.65.17-1.49.33-2.29.61a1,1,0,0,0-.58,1.19c.13.7.67.37,1.06.34a6.68,6.68,0,0,0,2.2-.48c.34-.15.66-.11.82.21s-.24.44-.41.62a3.78,3.78,0,0,1-2.09.81c-.7.15-1.31.26-1.25,1.23,0,.33,0,1-.67.94-.49,0-.51-.53-.54-.94a1.17,1.17,0,0,0-.12-.57,1.6,1.6,0,0,1-.2-1.93c.31-.68-.38-1.74.5-2.3.71-.45,1.63-.15,2.44-.32s1.49-.27,2.21-.47c.34-.1.58-.24.74.22s0,.64-.46.76A2.58,2.58,0,0,1,111.17,93.51Z"/><path d="M100.56,98.75a2.14,2.14,0,0,1-2.07-2.23c.07-1.21,1.26-2.81,2.07-2.78,1.23.06,3.13,1.68,3.15,2.69S102.09,98.78,100.56,98.75Zm.12-1.19c.86-.11,1.85-.35,2-1.13s-.88-1.05-1.51-1-1.47,0-1.42,1C99.77,97.1,100,97.55,100.68,97.56Z"/><path d="M30.83,95.31a1.07,1.07,0,0,0-.06-.87c-.13-.31-.21-.7.16-.83a.66.66,0,0,1,.86.4c.41.83,2.27.75,2.72-.08.16-.29.11-.84.57-.76a1.21,1.21,0,0,1,1,1c.13.5.25,1,.33,1.52a4.54,4.54,0,0,0,.54,2A.93.93,0,0,1,36.47,99c-.59.23-.63-.45-.74-.82a13.75,13.75,0,0,1-.48-2.09c-.11-.68-.46-.77-1-.57a7.9,7.9,0,0,1-1.13.38c-.68.12-1,.36-.73,1.12a1.19,1.19,0,0,1,0,.81c-.11.27-.28.62-.66.6s-.38-.36-.44-.62a2.45,2.45,0,0,1-.17-.82C31.16,96.38,30.68,95.86,30.83,95.31Z"/><path d="M40.46,94.91a2.1,2.1,0,0,1,2-2.36A7,7,0,0,0,44,92.16c.45-.17.86-.14,1,.32s-.24.71-.7.8c-.74.15-1.46.35-2.2.51-.16,0-.33,0-.36.22s.16.35.37.39a2.54,2.54,0,0,0,1.51-.2c.28-.13.67-.39.85,0s-.35.52-.58.72a2.35,2.35,0,0,1-.76.32c-1.45.49-1.6.87-.73,2.08.34.46.72.83,1.15,0,.14-.25.35-.51.66-.25s.15.5,0,.74a2.16,2.16,0,0,1-1.65,1c-.66,0-.9-.67-1.16-1.22A12.71,12.71,0,0,1,40.46,94.91Z"/><path d="M24.41,93.15a11.33,11.33,0,0,0,3.17-.49c.42-.09.68-.17.86.27s.3.88-.17,1c-.63.21-.5.6-.48,1,.07,1.16.13,2.31.17,3.46,0,.44,0,1-.56,1s-.63-.65-.58-1a15.2,15.2,0,0,0-.2-3.44c0-.64-.33-.78-.95-.68a23.37,23.37,0,0,1-2.37.15c-.52,0-.85-.19-.81-.77s.4-.6.85-.57S24.05,93.15,24.41,93.15Z"/><path d="M84,92.79c.39,0,.79,0,1.19,0s.75.11.68.59-.35.66-.78.47c-1.06-.45-2,.22-3,.22-.23,0-.62.13-.56.5s.4.33.68.3a8.9,8.9,0,0,0,2.36-.32c.27-.1.54-.32.63.14s-.13.53-.44.6a6.68,6.68,0,0,1-2.32.49c-.36,0-1.09,0-1.08.46a2.39,2.39,0,0,0,1.1,2c.37.22.9-.12,1.14-.59.15-.28.3-.71.66-.51s.18.66,0,.93-.43.81-.91,1.07c-1.35.71-1.92.53-2.36-1-.34-1.11-.62-2.23-.87-3.35a1.44,1.44,0,0,1,1.45-2c.83-.07,1.67-.09,2.51-.13Z"/><path d="M90.42,99.9c-.77-.34-1.67-.12-2.18-.93-.18-.27-.48-.51-.22-.82a.58.58,0,0,1,.94,0c.52.7,1.12.41,1.73.26.27-.07.6-.14.6-.48s-.31-.42-.59-.48a3.39,3.39,0,0,1-2.31-2.08A1.59,1.59,0,0,1,89.16,93c.36-.14.76-.19,1,.18s.31.86-.12,1.07c-1,.52-.42,1,0,1.49A4.48,4.48,0,0,0,92.23,97a1,1,0,0,1,.83,1c.06.6-.08,1-.64,1.26S91.07,99.7,90.42,99.9Z"/><path d="M64.1,95.5a2.93,2.93,0,0,1-2.54,2.11,2.55,2.55,0,0,1-2.14-2.71c.07-.93.56-2,1.35-2.14A3.08,3.08,0,0,1,64.1,95.5Zm-3.63-.35c.07.61.33,1.24,1.09,1.24s1.7-.38,1.64-1.07c-.1-1-1.28-.86-2-1.08S60.54,94.65,60.47,95.15Z"/><path d="M56.35,93.26a10.05,10.05,0,0,1-.89,3.92c-.45.82-.91.77-1.41,0-1-1.47-1.66-3.17-2.82-4.56a.69.69,0,0,1,.08-1.06c.45-.3.55.19.78.45.83,1,1,2.3,1.87,3.29.22.27.29.72.77.59a.81.81,0,0,0,.52-.86c0-.8,0-1.6,0-2.39,0-.53-.27-1.28.6-1.26s.48.77.53,1.24A4,4,0,0,1,56.35,93.26Z"/><path d="M72.82,95.14c0-1.87,1-2.57,2.55-1.81.39.19.56.42.49.82a.55.55,0,0,1-.81.45c-1.08-.38-1.14.3-1.12,1.05a1.79,1.79,0,0,0,2.8,1.55.84.84,0,0,1,.21-.11c.47-.16,1.13-.64,1.39-.22s-.5.75-.83,1.06a2.54,2.54,0,0,1-3.18.51C73.06,97.74,72.8,96.48,72.82,95.14Z"/><path d="M69.66,97.26a.89.89,0,0,1-.86.86c-.47,0-.54-.39-.54-.78a9.3,9.3,0,0,0-.58-3.26c-.17-.45-.38-1,.24-1.24s.76.42.88.87A15,15,0,0,0,69.66,97.26Z"/><path d="M32.33,26.53a1.55,1.55,0,0,1-1.84-1.42A16.18,16.18,0,0,0,30,22.17a.41.41,0,0,1,.23-.57c.23-.13.35,0,.45.22s.49.19.77.18c1.21,0,1.41.14,1.57,1.34,0,.29.06.57.47.59s.84,0,.89.45a1.56,1.56,0,0,1-.41,1.51A2.13,2.13,0,0,1,32.33,26.53Zm-1.27-1.6c1,1.23,1.23,1.28,2,.53.14-.14.35-.26.26-.49a.52.52,0,0,0-.58-.28C32.2,24.75,31.64,24.84,31.06,24.93Zm.73-2.06c-.39.17-1.06,0-1,.76,0,.18,0,.53.24.43.45-.17,1-.25,1.19-.82C32.31,23,32.07,22.85,31.79,22.87Z"/><path d="M97.74,26.78a5,5,0,0,0,.67-.13c.17-.06.35-.33.47,0s-.09.42-.38.54a3.74,3.74,0,0,1-3.29-.31l-.68-.36c-.47-.26-.79-.28-.89.39,0,.27-.14.7-.55.64s-.3-.48-.35-.78c-.09-.56-.23-1.12-.33-1.68,0-.25-.09-.53.26-.63s.41.16.47.38c.17.63.4.41.63,0a2.93,2.93,0,0,1,2.61-1.16c.44,0,.6.19.49.66A2,2,0,0,1,96,25.77c-.15.08-.41.22-.29.45a.59.59,0,0,0,.44.22C96.69,26.48,97.17,26.82,97.74,26.78Zm-2.92-1.24c.63-.1,1.18-.26,1.35-.93.07-.28-.15-.33-.37-.33-.56,0-1.61.62-1.54.91S94.59,25.54,94.82,25.54Z"/><path d="M47.55,25.86a12.59,12.59,0,0,0-.29-2.28c-.23-.93,0-1,.92-.85.61.13,1.25,0,1.87.12a1.67,1.67,0,0,1,1.29,2.7,2.83,2.83,0,0,1-2.1,1c-.36,0-.66,0-1,.35s-.63.11-.73-.29A3.29,3.29,0,0,1,47.55,25.86Zm1.81-2.15c-1.35,0-1.56.32-1.07,1.52a1.1,1.1,0,0,0,1.45.66c.6-.11,1.39-.91,1.27-1.35-.18-.61-.73-.74-1.29-.8Z"/><path d="M80.17,26.22c0,.06.17.44-.17.48a.87.87,0,0,1-.75-.47.86.86,0,0,0-1.55,0,1.71,1.71,0,0,1-.28.42c-.26.27-.42.78-.92.6s0-.6-.13-.89a.94.94,0,0,1,.43-1.27c.21-.15.25-.56.33-.86s0-.69.42-.72,1-.26,1.23.27C79.21,24.58,80.33,24.92,80.17,26.22Z"/><path d="M53.71,26.1c0-.84.62-1.65.76-2.62.08-.54.88-.67,1.26-.26s.8,1.28,1.67,1.35c.06,0,.17.25.16.26-.66.46-.15.91,0,1.39A.62.62,0,0,1,57,27c-.42.08-.41-.32-.5-.56s0-.23,0-.34c-.07-.33-.12-.86-.47-.81s-1.08,0-1.3.63c-.11.27-.16.55-.46.7-.15.07-.3.21-.47.1S53.64,26.43,53.71,26.1Z"/><path d="M74.28,24.35c.07-.33-.21-1,.23-1.06s.28.62.37,1a5.74,5.74,0,0,1,.22.91c.11,1.2-.32,1.53-1.47,1.13a12.08,12.08,0,0,1-1.71-.8c-.51-.27-.69-.14-.64.41a.78.78,0,0,1,0,.34c-.1.28-.09.69-.53.66s-.35-.38-.38-.65c-.1-.73-.2-1.45-.28-2.18a.63.63,0,0,1,.34-.72.43.43,0,0,1,.59.2,5.39,5.39,0,0,0,2.43,1.84c.26.13.52.34.79.16s.11-.48.12-.72A3.31,3.31,0,0,0,74.28,24.35Z"/><path d="M66.64,25.51c.42.27.51.57.17,1a5.88,5.88,0,0,0-.46.72c-.24.38-.51.7-1,.63a1.18,1.18,0,0,1-1-.93c-.2-.92-.3-1.87-.42-2.8a.37.37,0,0,1,.38-.46c.22,0,.42.14.38.38-.14.78.32.71.85.68a9.18,9.18,0,0,0,2.21-.29c.26-.08.69-.33.78.15s-.36.31-.63.36a1.67,1.67,0,0,0-1.19.59,1.73,1.73,0,0,0-.75-.09c-1,.08-1.23.48-.67,1.37.23.35.39.41.7.06A11.68,11.68,0,0,0,66.64,25.51Z"/><path d="M99.75,25.44c.56.2.64-.15.73-.5s-.06-.86.38-.84,1.16-.33,1.58.3a1.17,1.17,0,0,0,1.23.58c.16,0,.45.18.33.23-.69.34-.19.81-.2,1.22a.35.35,0,0,1-.26.39.42.42,0,0,1-.47-.14c-.13-.18-.22-.4-.36-.58a1,1,0,0,0-1.79.15c-.09.18-.17.36-.26.53s-.29.58-.64.44-.09-.44,0-.66,0-.52-.32-.57-.43-.09-.36-.36S99.6,25.39,99.75,25.44Z"/><path d="M39.63,28.46a.39.39,0,0,1-.35.43c-.34,0-.41-.26-.43-.53-.06-.77-.11-1.54-.17-2.31,0-.42-.11-.65-.62-.35a1.33,1.33,0,0,1-1.6-.22,2.87,2.87,0,0,1-.84-1.74c0-.22.18-.35.39-.39s.3.11.36.29a3,3,0,0,0,.25.81c.23.33.42.84,1,.67s1-.3.88-1a.49.49,0,0,1,.49-.65c.39,0,.28.34.3.58C39.37,25.44,39.49,26.87,39.63,28.46Z"/><path d="M106,25.82c0,.17,0,.37-.07.57a.27.27,0,0,1-.29.25.29.29,0,0,1-.3-.26,10.74,10.74,0,0,1-.2-2c0-.51.48-.57.91-.33.75.41,1.49.85,2.26,1.22.26.12.63.55.89.13a1,1,0,0,0-.14-1.2c-.12-.14-.43-.16-.3-.43a.57.57,0,0,1,.49-.31c.29,0,.38.22.46.43a3.16,3.16,0,0,1-.15,2.34c-.11.26-.25.46-.56.15a5.68,5.68,0,0,0-2.27-1.15C106.22,25,105.7,24.91,106,25.82Z"/><path d="M87.83,23.74c.87.14,1.67-.4,2.54-.25.17,0,.36,0,.42.2s0,.43-.11.46c-.68.15-.43.62-.37,1a3.44,3.44,0,0,0,.28,1.25.65.65,0,0,1-.32.93c-.47.16-.54-.36-.61-.65a7.61,7.61,0,0,1-.24-1.76c0-.7-.25-.74-.83-.65a13.49,13.49,0,0,1-1.8,0c-.22,0-.51.1-.5-.26s.29-.31.51-.32Z"/><path d="M60.38,27.46c-.78.13-.9-.57-1-1.08-.13-.7-.2-1.41-.36-2.11-.07-.29-.05-.7.35-.75s.49.29.54.63.17.73.2,1.09c.11,1.43.7,1.73,1.94.94a2.67,2.67,0,0,1,.36-.22.39.39,0,0,1,.32,0c.15.12,0,.25-.05.36A3.77,3.77,0,0,1,60.38,27.46Z"/><path d="M66.58,23.25l1.15-.07c.27,0,.35.16.38.37s-.13.3-.3.33c-.73.11-1.47.22-2.2.29-.29,0-.63,0-.64-.41s.23-.53.63-.48S66.27,23.15,66.58,23.25Z"/><path d="M45.73,181.19c1.7-.09,2.45.72,2.17,2.41-.16,1-.12,1.37,1,1.45.67,0,1.34.28,1.35,1.3A1.64,1.64,0,0,1,49,188a3,3,0,0,1-3.07-.2c-.28-.2-.73-.44-.5-.82s.54,0,.8.17a3.78,3.78,0,0,0,3.21-.57c.27-.36-.05-.51-.34-.54-1.63-.18-3.3-.68-4.78.55-.31.26-.56,0-.64-.25a20.64,20.64,0,0,1-.82-4c0-.2.07-.48.28-.47C44.15,182,44.82,180.79,45.73,181.19Zm.26,1c-1,0-2,.64-1.9,1.42,0,.55-.06,1.26.88,1.26A2.23,2.23,0,0,0,47.08,183C47.1,182.06,46.38,182.32,46,182.17Z"/><path d="M5.2,183.71c-.69.75-.38,1.68-.71,2.43-.47,1.1-.68,1.13-1.55.28-.62-.59-.9-1.41-1.57-2.1-.16,1.06.43,2,.28,2.91,0,.29.05.74-.38.78s-.42-.44-.47-.71c-.29-1.72-.54-3.45-.79-5.18a.39.39,0,0,1,.27-.47.76.76,0,0,1,.88.48A13.3,13.3,0,0,0,3,185.18c.22.26.32.76.75.63s.27-.53.33-.83c.16-.78.31-1.56.47-2.34,0-.24.06-.52.35-.56s.45.19.53.41c.32.85.63,1.72.9,2.59.1.3.06.66.38.84.53.32.2.68.07,1a.35.35,0,0,1-.47.24,1,1,0,0,1-.54-.87A6.77,6.77,0,0,0,5.2,183.71Z"/><path d="M55.82,184.18a4,4,0,0,0,0-.6c-.08-.41,0-.74.46-.81s.5.29.61.59a13.62,13.62,0,0,1,.33,3.55,9.69,9.69,0,0,0,.44,3.17,1,1,0,0,1-.07.8c-.11.27-.06.72-.52.67s-.48-.38-.53-.71c-.15-1.13-.3-2.26-.43-3.4-.08-.64-.14-1-1-.7s-1.54-.6-2-1.28a6.12,6.12,0,0,1-.61-1.29c-.13-.29-.29-.64.12-.82s.55.09.69.44a11.69,11.69,0,0,0,.55,1.05c.32.62.69,1.23,1.52,1S55.83,184.79,55.82,184.18Z"/><path d="M29.82,185c0-.88.08-1.74,1-2.25a1.55,1.55,0,0,1,1.69,0c.3.18.72.44.5.82s-.57,0-.79-.16c-.63-.6-.8.1-1.06.39a1.91,1.91,0,0,0-.21,2.23,1.53,1.53,0,0,0,1.72,1,2.23,2.23,0,0,0,1.67-1.33c.13-.3.18-.71.59-.59s.19.55.17.84a2.66,2.66,0,0,1-2.24,2.25,3.06,3.06,0,0,1-3-2.5A5.74,5.74,0,0,1,29.82,185Z"/><path d="M21,186.63c-1.3-.51-2.54-.26-3.45-1.17a2.69,2.69,0,0,1-.65-2.44c.08-.63.74-1,1.38-1.18.24-.08.48-.14.62.14s-.08.43-.27.57c-.41.32-1.21.51-.85,1.2s.45,1.68,1.69,1.75a15.45,15.45,0,0,1,2.32.48c.27.05.59.07.6.45a.65.65,0,0,1-.47.64,11.51,11.51,0,0,1-4.49.25c-.16,0-.31-.1-.29-.31.05-.39.36-.37.64-.37Z"/><path d="M13.41,185a4.3,4.3,0,0,0-.75-2.14c-.18-.29-.37-.71.13-.89s.53.21.63.54c.44,1.54,1.21,3.06,0,4.63a.74.74,0,0,1-1.09.27,5.1,5.1,0,0,1-2.67-4.12c0-.18,0-.43.21-.48s.39.22.46.45a4.89,4.89,0,0,0,1.06,2.49c.39.38.66,1.09,1.44.77S13.25,185.48,13.41,185Z"/><path d="M26.58,187.46c-.84-.83-.76-1.84-1-2.72a4.67,4.67,0,0,0-.48-1.58.39.39,0,0,1,.06-.54c.18-.16.37-.08.54,0C26.21,183.08,27,186.68,26.58,187.46Z"/><path d="M91.47,210.11a1.76,1.76,0,0,1-1.45-.62c-.31-.37-.64-.54-.81.13,0,.16-.13.3-.3.27s-.19-.25-.21-.43a5,5,0,0,0-.71-2.83c-.16-.2,0-.41.24-.49a.36.36,0,0,1,.52.33c.12,1.17.53.69.94.17a2,2,0,0,1,1.27-.8c.29,0,.58-.24.84.06s.1.57,0,.86c-.08.5-.54.7-.84,1s-.88.2-.55.72.57,1,1.27.81a2.37,2.37,0,0,0,1.39-.58c.14-.14.31-.26.47-.1s0,.43-.14.51C92.79,209.48,92.31,210.16,91.47,210.11Zm-.88-2.79a1.32,1.32,0,0,0,.92-.87.26.26,0,0,0-.33-.31,1.35,1.35,0,0,0-1,.74C90.15,207.08,90.32,207.27,90.59,207.32Z"/><path d="M50.52,206.74a18.4,18.4,0,0,0-1.11,1.88c-.21.49-.44.51-.81.24l-1.1-.77c-.17-.13-.36-.27-.57-.12s-.15.38-.09.58a2.09,2.09,0,0,1-.11,1.62c-.49-.25-.52-.71-.57-1.14L46,207.32c0-.3-.1-.67.25-.78a.75.75,0,0,1,.87.34,3.18,3.18,0,0,0,1.23,1,.6.6,0,0,0,.92-.19c.35-.48.78-.9,1.13-1.39s.42-.31.57.09a13.76,13.76,0,0,1,.7,2.43c.09.4.05.83.43,1.15s0,.5-.09.74a.28.28,0,0,1-.37.17.56.56,0,0,1-.38-.56A18.06,18.06,0,0,0,50.52,206.74Z"/><path d="M106.56,208.24c-.12.32.23,1-.37,1.07-.45,0-.41-.64-.47-1.05-.08-.56-.2-1.12-.26-1.69,0-.34-.2-.76.25-1s.63.15.83.39c.7.83,1.79,1.08,2.58,1.8.32.29.45-.13.47-.4a5.62,5.62,0,0,0-.34-1.94c-.07-.27-.3-.68.07-.79s.42.37.52.67a5.91,5.91,0,0,1,.22,3.12c-.1.49-.23.69-.69.26a7.57,7.57,0,0,0-2.36-1.26C106.15,207.11,106.65,207.87,106.56,208.24Z"/><path d="M59.72,209.4c0,.15.23.66-.21.69s-.42-.49-.47-.88a4.71,4.71,0,0,0-.35-2,.69.69,0,0,1,.32-.94c.38-.21.52.2.67.44a4.18,4.18,0,0,0,2,1.77,1,1,0,0,0,1.31-.28c.32-.43,0-.84-.31-1.17s-.54-.4-.28-.64.51.11.69.33c.68.83.77,1.49.28,2.07a1.56,1.56,0,0,1-2.25.29l-.48-.26c-.25-.13-.42-.53-.77-.3S59.78,209,59.72,209.4Z"/><path d="M77.1,206.24c.63-.3,1.48,0,2.27-.36a3.18,3.18,0,0,1,1.24-.06.36.36,0,0,1,.24.21c.05.16,0,.35-.2.34-1.08,0-2.07.7-3.18.36-.18,0-.41-.1-.5.07s.15.33.31.45c.7.51,1.48.23,2.23.2.18,0,.45-.22.5.13s-.22.3-.42.36a2.5,2.5,0,0,1-1.84.17c-.52-.23-.6.08-.48.48s.08.86.46,1.14.21.4.1.64-.18.32-.4.27-.32-.35-.37-.56c-.29-1.11-.58-2.22-.81-3.34C76.12,206.15,76.48,206.06,77.1,206.24Z"/><path d="M82.13,208.46c.05-1.05.83-2.22,1.47-2.2,1.36,0,3,1.19,3,2.13s-1.73,2.24-2.64,2.14A2,2,0,0,1,82.13,208.46Zm.67-.06a1.63,1.63,0,0,0,1.5,1.71c.55,0,1.75-1.07,1.76-1.54s-1.43-1.75-1.9-1.74A1.81,1.81,0,0,0,82.8,208.4Z"/><path d="M44,207.5a4.07,4.07,0,0,1-1.93.67c-.42,0-.64.21-.36.64a2,2,0,0,1,.16.33c.52,1.13.52,1.13,1.2.19.36.58,0,1-.36,1.34s-.47.19-.7-.06c-.69-.73-.77-1.79-1.41-2.57-.15-.18.08-.88-.12-1.33,0-.05,0-.17.12-.22a4.46,4.46,0,0,1,3.56-.17,1.35,1.35,0,0,1-1.14.38,2,2,0,0,0-1.12.18c-.24.13-.74,0-.67.42s.54.36.89.34Z"/><path d="M34.24,208.12a3,3,0,0,1-1.79,2,2.34,2.34,0,0,1-2.26-1.48,3.83,3.83,0,0,1-.24-1.87,1.27,1.27,0,0,1,.94-1.11,1.55,1.55,0,0,1,1.45.33c.17.14.33.32.18.54s-.31.08-.48,0a1.1,1.1,0,0,0-1.35.08c-.43.39-.21.92-.05,1.36.46,1.23,2,2.12,3.15.5C33.9,208.32,34,208.06,34.24,208.12Z"/><path d="M96,206.35c-.42-.2-.75.25-1.19.22-.27,0-.48,0-.49-.37s.11-.37.38-.41c.83-.14,1.65-.33,2.47-.47.47-.08.8,0,.64.63s.16,1.45-.12,2.16a.48.48,0,0,0,.13.4c.19.14.61.06.51.48s-.51.62-.76.91-.39-.24-.42-.5c-.11-.78-.18-1.56-.27-2.35S96.75,206.29,96,206.35Z"/><path d="M66.3,207.4c.3-.83,0-1-.82-1a5.76,5.76,0,0,0-1.49.08.35.35,0,0,1-.44-.21c-.07-.25.14-.29.31-.35a20.28,20.28,0,0,1,3.65-.39.38.38,0,0,1,.4.31c0,.26-.18.27-.36.27s-.47.07-.48.32c-.06,1-.36,2,.25,2.89.12.19.27.33.11.55s-.28.34-.53.25-.39-.18-.41-.43C66.42,208.94,66.36,208.16,66.3,207.4Z"/><path d="M53.74,208.15a7.38,7.38,0,0,1-.07-.81c0-.18.17-.41.34-.2.46.53,1,.38,1.6.37.17,0,.41,0,.4.22s-.2.19-.35.2h-.18c-1.21.1-1.52.7-.95,1.79.31.6.55.06.83,0s.51-1,1-.4-.37.61-.65.84c-1,.81-1.54.61-1.81-.63a12.11,12.11,0,0,1-.14-1.35Z"/><path d="M39.87,209.08a17,17,0,0,1-2.11,1.52c-.34.18-.83-.24-1-.6a6.94,6.94,0,0,1-1-3.17c0-.24-.05-.61.22-.63s.32.35.31.62a5.51,5.51,0,0,0,.77,2.67c.21.44.43.54.92.33S39,209,39.87,209.08Z"/><path d="M102.29,208.48a7.28,7.28,0,0,0-.33-2.22c-.09-.25-.15-.5.15-.62s.45.17.56.42a5.78,5.78,0,0,1,.23,1.6,3.76,3.76,0,0,0,.25,1.31.78.78,0,0,1-.18.84.23.23,0,0,1-.32.07.88.88,0,0,1-.37-.86A2.43,2.43,0,0,0,102.29,208.48Z"/><path d="M56.16,205.94c.48,0,.93-.17,1,.18s-.44.35-.75.41c-.93.21-1.92-.08-2.83.32-.15.06-.34,0-.36-.16,0-.34.26-.41.48-.43A24.32,24.32,0,0,1,56.16,205.94Z"/><path d="M43.36,202.53c-.18.6-.84.92-1.14,1.5-.07.14-.27-.2-.21-.41.15-.58.73-.86,1-1.37C43.12,202.05,43.3,202.28,43.36,202.53Z"/><path d="M74,118.88c-.56-.41-1.54-.48-2.08-1.3-.19-.3-.38-.56-.8-.45s-.74.26-.8.74a3.82,3.82,0,0,1-.15.48c-.08.35-.44.6-.65.54-.39-.13-.08-.46,0-.71l.63-2.44c.07-.26,0-.61.35-.7s.55.18.78.39c.7.61,1,1.52,1.69,2.15a4,4,0,0,0,1.07.59c.33.17.67-.1.85-.39s-.14-.45-.31-.61c-.72-.72-.76-1.63-.06-2.09.2-.13.44-.37.68-.16s.1.49,0,.72c-.4,1.07-.27,1.32.87,1.54.27.06.51.11.51.44s0,.59-.33.71A6.14,6.14,0,0,1,74,118.88Z"/><path d="M95.53,118.58c-.73-.26-1.57.06-2.25-.51-.45-.38-.45.17-.6.38s-.12.36-.35.3-.13-.27-.14-.43a3,3,0,0,0-.75-2.1.47.47,0,0,1,0-.74c.32-.22.58-.16.72.25s.38.31.47,0c.2-.55.73-.67,1.12-1s.85-.52,1.15-.21,0,.81-.16,1.18a4.24,4.24,0,0,1-.61.8c-.52.62-.45,1,.36,1,.6,0,1.39.68,1.83-.34,0,0,.22,0,.29,0a.43.43,0,0,1,.17.53A1,1,0,0,1,95.53,118.58Z"/><path d="M48.12,116.23c-.19.85-.64,1.06-1.32.83a14.34,14.34,0,0,1-2-.73c-.53-.28-.63-.16-.67.36,0,.26,0,.66-.34.67s-.25-.42-.32-.65c-.23-.78-.06-1.65-.57-2.36a.28.28,0,0,1,0-.39c.17-.14.33,0,.43.1.32.43.57.23.8-.08.05-.06.09-.14.14-.21.41-.58,1-1.18,1.65-.81s.42,1.23.29,1.93c-.06.35-.64.57-.35.94s.9.44,1.4.51A3.15,3.15,0,0,0,48.12,116.23Zm-2.31-2.15a.43.43,0,0,0-.39-.5c-.41-.06-1.06.68-1.09,1.25,0,.23,0,.47.3.48A1.4,1.4,0,0,0,45.81,114.08Z"/><path d="M100.71,114.58c0,.66-.14,1.1-.69,1.29-.23.08-.42.22-.39.48s.35.28.61.3c.56,0,1.12.09,1.68.13.15,0,.39-.09.39.16a1.14,1.14,0,0,1-.21.8.35.35,0,0,1-.47,0,9.65,9.65,0,0,0-2.38-.53c-.41-.12-.4.28-.35.57s0,.31-.12.35-.31-.09-.36-.28c-.28-1-.14-2.14-.46-3.17a.35.35,0,0,1,.13-.28c.14-.1.27,0,.33.12.17.43.33.25.52,0a5.64,5.64,0,0,1,.72-.82c.57-.52.71-.46.89.27C100.61,114.22,100.68,114.47,100.71,114.58Zm-1.11.71c.16-.13.46-.19.49-.53a.23.23,0,0,0-.24-.27.58.58,0,0,0-.6.47C99.21,115.14,99.33,115.28,99.6,115.29Z"/><path d="M128.46,118c.09.55-.11.77-.73.8a10.47,10.47,0,0,0-2.12.42c-.34.09-.58,0-.66-.29s.19-.4.46-.44a7.94,7.94,0,0,0,1.66-.3.82.82,0,0,0,.65-1,28.16,28.16,0,0,1-.39-3.78c0-.61-.36-.71-.85-.59s-.69.24-1,.33a.41.41,0,0,1-.57-.35c0-.27,0-.45.4-.5.66-.09,1.31-.26,2-.39s.58.27.64.65c.22,1.31.1,2.65.32,4C128.27,117,128.66,117.42,128.46,118Z"/><path d="M59.58,116.25c.16.51-.17.62-.65.59a7.78,7.78,0,0,1-2.79-.84c-.53-.25-.67-.11-.65.41a2.92,2.92,0,0,1,0,.51c0,.21-.12.39-.35.41s-.27-.17-.32-.34c-.19-.73-.4-1.46-.57-2.19a.43.43,0,0,1,.27-.56c.3-.07.59-.2.92.12A5.28,5.28,0,0,0,58.19,116c.53.08.64-.13.51-.53a8.42,8.42,0,0,1-.21-1.41c0-.16,0-.37.21-.4s.39.09.37.26C59,114.72,59.61,115.37,59.58,116.25Z"/><path d="M65.49,114.49a22.73,22.73,0,0,0,.39,3.49c.09.69.39.83,1,.63.41-.14.78-.28.92.3s-.26.59-.64.67a5.5,5.5,0,0,0-.63.25c-.79.23-1,0-1.18-.77-.46-1.78-.17-3.67-.82-5.42a.83.83,0,0,1,.16-.8c.2-.26.46,0,.69,0a2.84,2.84,0,0,0,1.22.29c.18,0,.47,0,.44.26s-.29.24-.49.23a3.83,3.83,0,0,0-.58-.07C65.29,113.64,65.49,114.11,65.49,114.49Z"/><path d="M84.33,116.12c.09-.43-.14-1.18.39-1.21s.31.71.38,1.11a4.3,4.3,0,0,1,.08,1.6c-.11.6-.36.62-.8.34s-1-.57-1.43-.9-.57-.13-.56.28a2.93,2.93,0,0,1-.15,1.25c-.06.13-.1.29-.28.26s-.23-.12-.24-.19c-.08-1.09-.6-2.12-.36-3.24,0-.22.06-.49.35-.52s.37.23.47.48c.35.83,1.2,1.1,1.92,1.39C84.57,117,84.29,116.37,84.33,116.12Z"/><path d="M107.68,116.15c-.07.31-.32.26-.54.27s-.5,0-.58.27.09.43.32.53.28.32.11.54-.11.44-.33.46-.28-.29-.39-.46-.16-.3-.25-.44c-.47-.76-.85-.76-1.39,0-.25.33-.37,1-.77.89s-.07-.74,0-1.1c.06-.82.62-1.53.55-2.41,0-.31.39-.24.64-.25s.45-.15.55.2c.24.91.66,1.58,1.78,1.26C107.52,115.82,107.67,115.93,107.68,116.15Z"/><path d="M90.24,117.16a.66.66,0,0,0,.33.8.46.46,0,0,1,.05.74c-.31.26-.5,0-.64-.29s-.42-.79-.94-.66a1.42,1.42,0,0,0-1.21.92c-.07.21,0,.59-.42.45s-.13-.38-.08-.59a11,11,0,0,0,.3-2.42.81.81,0,0,1,.5-.88c.38-.13.62.1.85.38s.55.78,1.06.93C90.37,116.64,90.26,116.94,90.24,117.16Z"/><path d="M49,117c.18-1,.35-1.9.53-2.84,0-.15.16-.33.26-.25.3.23.83-.12,1,.33a1.58,1.58,0,0,0,1.77,1.09c.14,0,.36-.15.4.12s-.24.26-.41.3-.5-.14-.6.15.21.41.4.55a.5.5,0,0,1,.24.64c0,.16-.08.35-.3.35s-.43-.19-.55-.43a3.19,3.19,0,0,0-.35-.47c-.16-.19-.13-.64-.55-.47s-.9.07-1,.65a.77.77,0,0,1-.28.51c-.12.11-.23.27-.43.19S49,117.12,49,117Z"/><path d="M31.94,117.54c-1.57-.07-1.58-.1-1.73-1.66A9,9,0,0,0,30,114c-.2-.62.1-.75.74-.66A6.36,6.36,0,0,1,33,114.39a1.91,1.91,0,0,1,.7,2.1A1.56,1.56,0,0,1,31.94,117.54Zm-.13-.44a1.17,1.17,0,0,0,1.2-.6,1.46,1.46,0,0,0-.08-1.36c-.39-.79-1.19-.63-1.8-.92-.46-.22-.57,0-.5.4a8.06,8.06,0,0,1,.36,1.74C30.89,117.33,31.5,117,31.81,117.1Z"/><path d="M119.52,115.2a1.73,1.73,0,0,1,1-1.85c.44-.2.94-.34,1.26,0a1.29,1.29,0,0,1,0,1.51c-.06.12-.21.19-.31.29-.84.83-.82.91.35,1.31.84.29,1.1.24,2.2-.35-.07.65-.24.83-1.08,1.11a2.85,2.85,0,0,1-2.82-.86c-.3-.43-.36-.81.22-1.1a5.64,5.64,0,0,0,.82-.59.48.48,0,0,0,.17-.66c-.15-.29-.39-.29-.65-.23a1,1,0,0,0-.75.62c-.13.27-.15.62-.48.76Z"/><path d="M114.42,114.76a2.43,2.43,0,0,1-.24,1,1,1,0,0,0,.28,1.15,1.16,1.16,0,0,0,1.26.2,1.23,1.23,0,0,0,.76-1.13c0-.57-.51-.68-.94-.79-.21,0-.51,0-.49-.32s.37-.32.61-.31a1.33,1.33,0,0,1,1.19,1c.29.9-.35,1.49-.9,2a1.19,1.19,0,0,1-1.56.15,1.71,1.71,0,0,1-.94-1.66C113.52,115.58,113.4,114.81,114.42,114.76Z"/><path d="M110.84,116.66c0-.33,0-.5,0-.67,0-1.09-.12-1.21-1.16-.93-.35.09-.71.16-1.07.24s-.55.06-.63-.24a.48.48,0,0,1,.45-.6c.92-.12,1.85-.21,2.77-.28.45,0,.56.18.47.65a4.25,4.25,0,0,0,0,3,.32.32,0,0,1-.11.45c-.23.14-.35,0-.48-.18C110.77,117.64,111,117,110.84,116.66Z"/><path d="M41.62,116.47c0,.27.26.59-.18.64s-.43-.2-.47-.48l-.3-1.83c-.16-.94-.38-1.1-1.29-.86-.3.08-.5.09-.58-.24s.13-.42.43-.46c.64-.08,1.28-.22,1.92-.31a.65.65,0,0,1,.67.27c.19.3-.2.31-.31.48-.44.66,0,1.34,0,2C41.51,116,41.68,116.23,41.62,116.47Z"/><path d="M119.5,115.18a13.11,13.11,0,0,1-.29,2.42c0,.18-.11.35-.31.34s-.26-.28-.25-.46a10.34,10.34,0,0,0-.32-2.93c0-.18,0-.36.15-.44a.55.55,0,0,1,.4,0c.24.12.17.32.07.51s-.2.49,0,.69.36,0,.53-.13Z"/><path d="M58.73,148.45c-.88.18-1.66-.46-2.56-.48-.28,0-.24-.28-.27-.46-.12-.84-.25-1.67-.36-2.51-.08-.59.46-1,1.28-.92a12.74,12.74,0,0,1,1.74.34c.72.17,1,.66.75,1.32s.14.66.54.82c.23.09.66-.18.68.28a1.26,1.26,0,0,1-.4,1.23A1.87,1.87,0,0,1,58.73,148.45ZM57,145c-.36-.09-.65,0-.54.32s-.29,1,.39,1.14c.38.08,1.64-.73,1.55-1C58.14,144.71,57.39,145.27,57,145Zm.64,2.55a1.16,1.16,0,0,0,1.37-.08.16.16,0,0,0,0-.28,1.26,1.26,0,0,0-1.31.23S57.66,147.47,57.64,147.55Z"/><path d="M119.14,149.81c-.51-.07-1.21-.14-1.9-.29-.22,0-.62-.15-.49-.55s.4-.12.63-.08a4.36,4.36,0,0,0,1.24.1c.53-.07,1-.17.84-1a18.87,18.87,0,0,1-.51-4.62c0-.74-.51-.88-1.1-.85s-1,.11-1.48.17-.75,0-.77-.42.29-.48.69-.52a7.38,7.38,0,0,0,2.6-.33c.32-.15.51,0,.55.38.15,1.74.35,3.47.5,5.21a3,3,0,0,0,.34,1.21C120.87,149.35,120.62,149.8,119.14,149.81Z"/><path d="M44.91,144a6.16,6.16,0,0,0,1.5-.21c.73-.26,1,0,.88.67a2,2,0,0,1-.15.74c-.25.44-.1.64.34.67.7,0,.84.5.76,1a1.89,1.89,0,0,1-1.41,1.62c-.73.22-1.07-.34-1.58-.7-1.28-.9-.74-2.29-1-3.43C44.06,143.87,44.47,143.85,44.91,144Zm.29,2.54c-.13.07-.25.22-.16.33a2,2,0,0,0,1.45.85.82.82,0,0,0,.91-.8c0-.5-.58-.33-.9-.32a2.65,2.65,0,0,1-1.31-.09A5.16,5.16,0,0,1,46.4,145c.12-.11.28-.24.16-.43s-.29-.18-.5-.1C45,144.86,44.84,145.21,45.2,146.5Z"/><path d="M111.71,146.15c-.48.4-.25.89-.4,1.27-.07.18-.08.43-.35.39a.36.36,0,0,1-.29-.38,11.42,11.42,0,0,0-.25-2.42c0-.4.08-.87.67-.5.22.14.37.11.5-.06a2.3,2.3,0,0,1,1.41-.66,1.06,1.06,0,0,1,1.29.57c.22.43-.12.83-.46,1.16s-1,.23-.94.82.79.56,1.23.77.7.4,1.12.16c.19-.11.47-.21.55.12s-.21.42-.46.5a3.23,3.23,0,0,1-3.3-1.18C111.93,146.55,111.84,146.38,111.71,146.15Zm1.86-1.46c0-.22-.18-.25-.35-.27a1.4,1.4,0,0,0-1.47.73c-.1.17-.21.39,0,.54s.27-.12.4-.19c.35-.18.7-.34,1-.5C113.35,144.93,113.52,144.9,113.57,144.69Z"/><path d="M99.42,147c0,1.18-.3,1.37-1.12.91a10.92,10.92,0,0,1-2.41-1.22c-.3-.29-.39,0-.39.34,0,.47.35.91.06,1.4-.09.16,0,.43-.31.43s-.2-.23-.26-.38a23.12,23.12,0,0,0-.84-2.92.6.6,0,0,1,.28-.74.75.75,0,0,1,.88.08,7.32,7.32,0,0,1,.83.84,5.92,5.92,0,0,0,2,1.29c.45.24.55,0,.49-.41s-.2-1.05-.29-1.58c0-.2-.26-.47.06-.58a.5.5,0,0,1,.64.4C99.17,145.68,99.31,146.48,99.42,147Z"/><path d="M77.13,143.91c.27,0,.69-.08,1.11-.1.23,0,.47,0,.51.32a.46.46,0,0,1-.39.56,1.84,1.84,0,0,1-.25.05c-1.29.3-1.29.3-1.14,1.64.1,1,.21,1.9.28,2.86,0,.57.25.72.74.42.21-.13.41-.23.57.05a.46.46,0,0,1-.13.61,1.61,1.61,0,0,1-1.28.54c-.51-.1-.51-.59-.59-1-.3-1.76-.28-3.56-.7-5.32C75.66,143.66,76.47,143.9,77.13,143.91Z"/><path d="M38.65,146.69a16.41,16.41,0,0,1,1.24-3.14c.17-.39.49-.12.7,0A8.63,8.63,0,0,1,41.88,145c.32.39.47,1.14.84,1.69a.55.55,0,0,1-.25.73c-.3.13-.47-.09-.62-.31s-.27-.43-.38-.66-.23-.84-.77-.73-1,.19-1.13.83a1.93,1.93,0,0,1-.15.4c-.09.19-.11.5-.41.44S38.7,146.93,38.65,146.69Z"/><path d="M84.36,146.79c-.13.33.14.51.27.75s.43.62,0,.88-.55-.14-.69-.38c-.34-.61-.72-.89-1.47-.56-.35.15-.55.28-.64.66a2.26,2.26,0,0,1-.36.75A.35.35,0,0,1,81,149a.38.38,0,0,1-.17-.44c.15-.86.57-1.65.71-2.53.08-.55,1-.78,1.49-.46s.7.63,1.22.7C84.5,146.27,84.43,146.57,84.36,146.79Z"/><path d="M64.61,145.12a2.86,2.86,0,0,1,2.09,1.75c.14.74-.22,1.22-1.06,1.46a2.16,2.16,0,0,1-2.72-2c0-.47,0-1,.78-.86C64.05,145.51,64.25,145,64.61,145.12Zm.6,2.43c.25,0,.53,0,.65-.26s-.09-.48-.28-.65a8.44,8.44,0,0,0-.74-.56.7.7,0,0,0-1,.16c-.33.36,0,.63.21.86A1.45,1.45,0,0,0,65.21,147.55Z"/><path d="M32.25,145.43a6.77,6.77,0,0,1,0,1.72c-.18.7-.61.88-1.16.44A4,4,0,0,1,30,146a.73.73,0,0,1,.08-.8.39.39,0,0,1,.44-.18c.2.06.23.22.2.41s-.1.22-.08.32c.08.43.33.94.69.94s.26-.58.22-.86a26.75,26.75,0,0,0-.2-3c-.08-.31-.08-.67.34-.73s.34.36.41.6A11.67,11.67,0,0,1,32.25,145.43Z"/><path d="M87,149.06a2.15,2.15,0,0,1-.6-.17c-.2-.13-.46-.31-.27-.61s.36-.48.68-.17a.58.58,0,0,0,1-.11c.26-.38-.25-.4-.42-.56-1-.86-1.13-1.87-.38-2.53.17-.16.35-.32.58-.13a.58.58,0,0,1,.12.63c-.06.27-.54.41-.29.79a2.59,2.59,0,0,0,1,.86c.27.14.78-.05.79.54a1.05,1.05,0,0,1-.82,1.11C87.94,148.86,87.47,149,87,149.06Z"/><path d="M103.79,146.65a1.55,1.55,0,0,1-1.49,1.73c-.63.06-1.17-.45-1.31-1.27a2.44,2.44,0,0,1,.52-1.91c.57-.77,1.66-.47,2.08.56A4.36,4.36,0,0,1,103.79,146.65Zm-2,0c0,.68.29.9.8.93s.71-.29.69-.74a1,1,0,0,0-.95-1.08C101.75,145.72,101.82,146.32,101.75,146.62Z"/><path d="M108.31,146.22a5.59,5.59,0,0,1,0,.71,1.46,1.46,0,0,1-.77,1.15c-.5.25-.87-.12-1.2-.42a3.26,3.26,0,0,1-.83-2.07c-.05-.28,0-.6.37-.66s.42.28.5.55c.15.53.11,1.12.64,1.51s.7.26.7-.28.16-1.25-.41-1.74a.42.42,0,0,1,.08-.72c.32-.22.56,0,.69.26A3.25,3.25,0,0,1,108.31,146.22Z"/><path d="M53.85,145.9c.1.93-.62,1.44-1.68,1.76-.59.18-1.06-.22-1.3-.8a12.92,12.92,0,0,1-.56-1.41.59.59,0,0,1,.38-.75c.32-.07.35.31.43.53s.17.66.32,1a1.09,1.09,0,0,0,1,.71.8.8,0,0,0,.79-.54,1.18,1.18,0,0,0-.28-1.18c-.05-.06-.13-.09-.19-.15a.37.37,0,0,1,.07-.64c.24-.14.49-.18.63.15A3.5,3.5,0,0,1,53.85,145.9Z"/><path d="M34.92,145.67c0,.38.08.67-.23.68a.64.64,0,0,1-.63-.57c-.05-.3.1-.47.42-.49S34.91,145.54,34.92,145.67Z"/></svg>