<svg xmlns="http://www.w3.org/2000/svg" width="683.76" height="1889.41" viewBox="0 0 683.76 1889.41"><title>c0-txt2</title><path d="M324.14,153.35c-1.9-.09-2.12-2.68-3.15-1.22-.75,1.06-.94,4.1.78,4.25,4.24.35,3.07,3.3,3.19,5.47.32,5.83-.47,11.61-1.06,17.41-.48,4.67-5.31,7-5.53,11.62l-.79-2.84c-.3.37-.59.55-.62.78-.51,3.46-1.08,6.91-1.45,10.38-.17,1.65-2,3.76,1.36,4.75,1.35.39,0,2.06-.34,3-2.63,6.84-5,14-9.66,19.62-6.49,7.78-4.66,15.69-2.23,23.87,2.56,8.63,8.89,13.77,16.72,17.46,10.73,5.07,22.24,6.65,33.86,7.81,3.48.34,8.56-.52,10,1.4,2.27,2.92,5.21,2.68,7.71,4.05-.9,2.05-2.81,2.08-4.32,2.21-18,1.48-35.87,1.31-53.18-5.12-13.11-4.88-20.67-14.1-22.64-27.85-.6-4.18-1.84-4.84-5-1.89-2.54,2.39-5.15,4.77-8.47,6.07-1.33.52-3,1.56-4.16.12-1.05-1.26.29-2.44.91-3.57a4.6,4.6,0,0,0,.68-2c-11.15,7.71-23.54,10.4-36.75,10.06-.16,0-.33,0-.5,0-12.35-.24-15.65-4-14.38-16.33.27-2.63.79-5.25,1.31-7.86.61-3,1.33-6-2.61-7.48-1-.39-1.67-1.21-1-2.34a1.61,1.61,0,0,1,2.47-.8c3.49,2.23,4.29-.61,5.28-2.85,5.55-12.57,14.73-22.49,23.66-32.6,2.37-2.68,4.95-2.8,7.89-.57,8,6,11.61,15,9.35,23.61-2.75,10.46-9.78,16.71-20.22,17.92-2.32.26-4.64.57-7,.6-3.87.06-6.12,2.12-7.53,5.49-3,7.28-.73,10.45,7.11,10.93,16.19,1,30.21-5.49,44.18-12.26,2.24-1.09,2.84-3.06,2.46-5.47C286,200.51,287,171.75,288.8,143c.49-7.76,2.83-15,6-22a19.11,19.11,0,0,1,2-3.43c3.06-4.15,6.78-8,12.2-7.54s7.19,5.52,8.8,9.84C321.86,130.56,323.13,141.78,324.14,153.35Zm-26.06,69.44c2.56-2.62,3-5.27,3.74-7.79,6.94-25,7-50.2,1.37-75.45-.35-1.59.27-4.33-2.28-4.21-1.87.1-1.69,2.51-2,4.1-3.89,17.84-4.67,35.92-3.87,54.07C295.43,203.11,295.6,212.78,298.08,222.79ZM246,225c6.37,1.27,10.13-1,13.73-3.54,1.14-.81,2.92-1.85,1.82-3.5-.88-1.31-2.85-1.13-4.12-.37C254,219.67,250.64,222,246,225Z"/><path d="M440.77,288.71a89.7,89.7,0,0,1-2,9.19c-1.09,3.29.17,4.59,3.14,4.92,1.88-11.15,8-20.38,13.22-31.1,1.69,3.25.06,4.75-.73,6.33-4.76,9.61-8.85,19.4-8.52,30.42a23.84,23.84,0,0,0,.78,5.91c1.36,4.66,5.2,5.68,8.7,2.29,5.56-5.39,8.42-12.29,10.35-19.62,1.31-5,2.65-10,3.72-15,4.15-19.61,1.67-39.06-1.66-58.46-.17-1-.38-2.09-1.68-2s-1.76,1.37-2.17,2.42c-2.83,7.27-8,11.62-15.75,13-6.18,1.09-9.76-.29-13.1-5.66a62,62,0,0,1-9.21-26.14c-.37-3.38-.05-7.31-5.49-4.26-2.17,1.22-2.53-.52-2.51-2.19.06-6.1,2.18-11.73,4.08-17.4.62-1.85,2.3-1.59,3.79-1.65,9.3-.38,17.73,2.77,25.66,7.06,2.17,1.18,6.26.31,6.42,4.13.13,2.86-1.77,5.26-3.16,7.74-3.59,6.41-4.84,12.94-1.08,19.9,1.77,3.25,2.94,2.34,4.46.09a9.32,9.32,0,0,0,1.29-7.16c-.78-4.38,1.11-6.91,5.5-7.87,5.62-1.24,11.18-1.65,16.78-.06,3.66,1,5.1,2.72,2.72,6.47-2.84,4.47-4.51,19.58-3.78,25,.58,4.25.29,8.63.19,12.94-.35,16.3,1.47,32.65-.84,48.89a50.84,50.84,0,0,1-12.39,26.82c-3.73,4.24-7.61,8.34-11.15,12.78-4.66,5.86-15.63,7.44-20.4,3.42-6.06-5.1-7.39-15.88-2.46-22.19,1.5-1.92,1.56-3.92,1.83-6q1.2-9.4,2.39-18.81C437.89,291.27,438,289.73,440.77,288.71Zm36.08-13.6c2.81-8.55,2-17.18,1.82-25.77,0-1.28.35-2.77-1.15-3.52-.28-.14-1,.22-1.29.55-1.05,1.14-1.74,2.36-.89,4,1.8,3.56,1.45,7.45,1.49,11.26C476.88,266.14,476.85,270.62,476.85,275.11Zm-2.77-45c.82,2.11.89,4.74,1,7.37,0,.79,0,1.78,1.26,1.48.85-.2,1.73-.7,1.38-1.65-1-2.7-.86-5.47-.88-8.26a1.46,1.46,0,0,0-1.58-1.52C473.76,227.58,473.91,228.68,474.08,230.11Z"/><path d="M208.72,272.4c-.6-7.4,2.12-14.63,2.34-22.12.05-1.66.3-3.32.25-5-.14-6.11-2.41-7.67-8.33-5.68-6.52,2.2-12.12,6.21-18.08,9.49-7.46,4.1-15,7.95-23.61,9a28.45,28.45,0,0,1-8.93-.23c-8-1.5-10-5.18-7-12.82a40.73,40.73,0,0,1,15.26-19.28q14-9.57,28.2-18.89c3.63-2.39,7.16-4.74,9.79-8.36,2.15-2.94,6.3-2.38,9.91,1,.78.73,1.15,2.38,2.59,1.74,1.29-.57.86-2.1.81-3.16-.34-8.47-1.08-16.94-1.15-25.42-.14-16.64.06-33.29.15-49.93,0-2.53,0-5-1.65-7.13-.81-1-1.82-2.09-.78-3.54s2.45-1.59,4-1.33a7.58,7.58,0,0,1,4,1.92C227.33,122.78,234.34,134.53,233,150A17.05,17.05,0,0,1,229,160.47c-7.62,8.72-9.26,19.73-11,30.56-3.57,22-2.53,44.15-1.13,66.26.4,6.18,3.19,11.86,4.54,17.86.92,4.1,1.66,8.2-.43,12.18-1.27,2.43-2.75,4.67-6,4.28-3-.36-4-2.72-4.66-5.18A47.42,47.42,0,0,1,208.72,272.4Zm-15-43.8c-13.35.47-23,8.62-33.05,16a2.61,2.61,0,0,0-.61,3.6c.9,1.53,2.48,1.69,4,1.41,13-2.5,24.57-8.07,35.17-15.85,1.08-.79,2-1.94,1.32-3.43a2.88,2.88,0,0,0-2.81-1.71Z"/><path d="M425.86,252.3c-22.84-3.61-31.71-11.24-31.28-26.68-2.19.6-2.3,2.66-3.06,4.07-5.45,10.11-10.41,20.44-21.52,26.08-6.74,3.42-12.82,2.67-18.93-.83-3.72-2.14-5.36-9.56-3.28-13.5.4-.75.84-1.63,1.75-1.46,1.23.23,1.23,1.36,1.25,2.39.07,3-1.63,6,.37,8.91,1.1-4.76.87-9.67,2.31-14.21-1.32-1.57-2.27,1.46-3.88-.43,6.76-6.77,10.67-15.76,17.31-22.77,6.2-6.53,10.71-14,12.42-22.94.43-2.26,1-4.22,4.07-3.35a4.78,4.78,0,0,0,2.4-.43c9.89-3,16.14.69,17.94,10.72.2,1.15.29,1.94,1.63,1.8,4.26-.44,5,2.4,5.21,5.64a4.45,4.45,0,0,0,1.05,3.23c2.62,2.49,2.23,5.38,1.09,8.31a25.5,25.5,0,0,0-1,14.72c.95,4.6,2.9,8.43,7.1,10.92A14.77,14.77,0,0,1,425.86,252.3Zm-35.18-29.73c-7.79,3.33-15.09,4.54-20,10.38-.8,1-1.73,2.07-3.39.17-.86-1-2.67,1-3.11,2.29-.82,2.39.7,1.3,1.7.91.52-.2,1.06.09,1,.63s-.45,1.54-.84,1.62c-5.33,1.11-3.41,4.7-3.06,8,.38,3.63,1.32,4.48,5,2.92,6-2.58,9.63-7.41,13.17-12.42C384.17,232.73,388,228.77,390.68,222.57Zm-34.37,28.09c.25-6,2.63-10.15,3.63-15.16C354.07,240.11,352.64,245,356.31,250.66Z"/><path d="M302.2,1152.48a30.19,30.19,0,0,1,14.45,3.31,5.84,5.84,0,0,1,3.66,6c-.24,4-2.74,5.43-5.92,3-5.32-4.08-11.24-4.67-17.52-3.74-4.13.61-7.71,2.11-9.06,6.63-1.54,5.13-2.14,10.09,1.78,14.58,11.86,13.56,31.14,12,40.68-3.28a51.66,51.66,0,0,0,4.89-11.41c3-9.06,7.39-12.7,14.17-12.1,6.34.55,11.33,5.41,12.59,12.25,1.56,8.5-1.65,15.7-8.54,18.92-3.22,1.51-6.65,2.41-10.18,1.67-6.74-1.41-12.52.61-17.71,4.67-10.67,8.34-21.91,8.58-33.63,2.59-11.48-5.86-16.26-20.61-10.51-32.14C285.68,1154.72,293.5,1152.76,302.2,1152.48ZM355,1171.1c.06-4.63-2.67-6-6.14-6.08-4.31-.15-7.9,3.93-7.9,8.65,0,3.44,1.61,5.21,5.2,5.15C351.25,1178.75,355.05,1175.3,355,1171.1Z"/><path d="M192.81,1870c.05-8.5,0-17-1.71-25.37a24.4,24.4,0,0,1-.35-5.47,6.42,6.42,0,0,1,4.4-6.09c2.73-1.09,4.9.23,6.64,2.19,3,3.36,5.77,6.89,9.52,9.5,6.35,4.43,11.35,4.18,17.13-1a45,45,0,0,0,7.19-8.28c1.56-2.3,3.56-3.42,6.35-3s3.59,2.68,4.15,5c2.3,9.37,4.62,18.74,6.79,28.14.83,3.57,1,7.29-3.55,8.55-3.38.93-7.18-3.08-7.45-7.68-.21-3.48,0-7-.23-10.48a6.73,6.73,0,0,0-4-5.93c-2.74-1.29-4.37.53-6.12,2.07-4.4,3.88-9.5,6.73-14.4,9.88-3.46,2.22-6.22,1.63-8.59-1.66-1.1-1.52-1.87-4-4.5-2.75-2.12,1-1.92,3.21-1.81,5.26.34,6.14,1.28,12.3-.42,18.39a42.44,42.44,0,0,1-1.27,4.3c-.82,2-1.72,4.23-4.54,3.7-2.6-.48-3.31-2.4-3.28-4.84C192.86,1879.67,192.81,1874.84,192.81,1870Z"/><path d="M301.15,1345.33c-.18-2.66-.25-6-.67-9.29-.53-4.22,1.2-6.6,5.22-7.73,6-1.7,11.85-1.54,17.28,1.88,4.08,2.56,8,5.33,12.12,7.9s8.07,2.29,11.65-1.44c3.92-4.09,8.11-7.93,10.7-13.08,1.19-2.37,3-3.46,5.67-3a5.35,5.35,0,0,1,4.66,4.56,100.49,100.49,0,0,1,2.2,17.8c.17,6.76,1.28,13.23,6,18.57,1.76,2,1.74,4.24.18,6.41s-3.52,4.13-6.58,3.69a5.4,5.4,0,0,1-5-4.8c-1.43-8.38-2-16.84-2.71-25.29-.16-2,.06-4.23-2.36-5s-3.54,1.29-4.78,2.78a77.8,77.8,0,0,1-8.81,9.51c-7.37,6.34-10.28,6.26-17.4-.58-1.91-1.85-3.77-3.76-5.75-5.54-2.53-2.29-5.43-3.33-8.7-1.7s-3.36,4.58-3.15,7.73c.24,3.48.34,7,.38,10.47,0,2.34-.71,4.27-3.44,4.71s-4-1.1-5-3.2C300.57,1356,300.62,1351,301.15,1345.33Z"/><path d="M494.69,1879.06c-3.16.13-5-1.63-5.89-4.4-1.28-3.78-2.47-7.58-3.65-11.38s-3.37-5.92-7.57-5.88c-3.14,0-6.31-.62-9.44-.45-5.31.28-9,3.28-11.06,8.07-1.56,3.65-4.14,6.38-6.85,9.09-2.17,2.15-4.46,2.06-6.68.25s-2.41-3.87-.9-6.19c6-9.24,10-19.49,14.64-29.42,2.21-4.73,5.4-8.41,10.65-9.77,6.51-1.68,11.82.51,14.64,7.17,2.62,6.19,5.64,10.39,13.23,8.42,2.18-.57,3.8.91,4.66,2.93,1,2.37-.41,3.78-2.17,5-4.22,2.82-4.78,6.41-2.54,10.79a94.07,94.07,0,0,1,3.87,8.64C501.36,1876.39,499.5,1879,494.69,1879.06Z"/><path d="M526.49,1191.15c-4.54.16-8.44-1.79-12.13-4.06-5.52-3.4-10.85-7.1-16.33-10.57-5.26-3.33-6.62-2.68-7,3.37a28.75,28.75,0,0,1-2.59,10.09c-1,2.18-2.57,3.45-5.12,3s-2.91-2.39-3-4.47c-.18-5.49-.34-11-.45-16.47-.11-5,.12-10-1.43-14.85-.88-2.76-.05-4.67,2.68-5.41,3.18-.87,4,1.55,4.63,3.88a8.2,8.2,0,0,1,.18,1.49c.18,1.85.3,3.85,2.48,4.45,2.34.64,3.09-1.33,4.07-2.86,4.28-6.69,10.51-10,18.35-10.27,4.68-.13,9.79-.43,11.8,5.17,1.87,5.2-1,12-5.93,15.14s-4.79,7.31.29,10.17a6.84,6.84,0,0,0,1.83.77c7,1.61,13.91,5.37,20.79-.64,2-1.73,3.74.24,4.71,2.1,1.22,2.33,1.17,4.59-1.48,6A35.82,35.82,0,0,1,526.49,1191.15Zm-18.14-35c-5.77,0-9.73,2.33-9.53,5.46s2.47,3,4.7,3c4.93,0,9.41-2.66,9.32-5.65C512.74,1155.68,510.08,1156.41,508.35,1156.17Z"/><path d="M424.85,1679.47c-.17,18.47-18.51,30.84-35.16,24.23-4.16-1.66-7-4.41-8-8.84s-2-8.75-2.9-13.14c-.86-4.12-2.11-8-5.16-11.14-1.88-1.91-2.74-4.18-1.74-6.82s3.25-3.48,5.94-3.69c2-.16,4.28-.2,5.77-1.25,6.42-4.54,13.06-2.67,19.63-1a36.63,36.63,0,0,1,17.39,10.29A14.39,14.39,0,0,1,424.85,1679.47Zm-27.78-11.25c-7.14-.13-9.72,2.85-8.46,9.89.35,2,.25,4,.41,6,.38,4.66.41,9.64,5.65,11.83s9.4-.21,13.36-3.23a19.74,19.74,0,0,0,5-5.56c3-4.93,2.53-9.14-1.65-13C407.42,1670.45,402.63,1668.69,397.07,1668.22Z"/><path d="M251.52,811.47c3.66.58,6.78-.66,9.87-1.89a22.62,22.62,0,0,1,11.2-1.86c3.92.48,7,1.93,7.54,6.52.47,4,2.91,5.39,6.93,5.5,11.63.33,15.76,6.89,11.14,17.56-3.54,8.17-9.5,14-18.07,16.81-7,2.26-11.05.13-13.7-6.67a48.62,48.62,0,0,1-3.19-11c-.69-5,1.12-9.13,4.89-12.43,1.69-1.47,3.53-3,1.52-5.37-1.81-2.17-3.85-1.29-5.83-.16-3.15,1.8-4.94,4.43-4.79,8.14a30.67,30.67,0,0,1-1.44,8.83c-.63,2.47-2.09,4.2-4.94,4a4.66,4.66,0,0,1-4.59-4.46c-.78-6.77-1.53-13.55-2-20.34C245.77,810.13,249.22,811.47,251.52,811.47Zm32.42,17.17c-4.45.51-8.82,2.25-11.83,6.45-2,2.78-1.65,5.73.3,8.33s4.71,2.73,7.59,1.44a21.56,21.56,0,0,0,9.08-7.5c1.22-1.78,2.5-3.75,1.37-6S286.88,828.67,283.94,828.64Z"/><path d="M530.64,1492.33c.37-2.95-.44-6,1-8.85a6.57,6.57,0,0,1,5.3-4.06c2.82-.31,2.7,2.35,3.68,3.94,3.51,5.74,3.65,11.66,2.41,18.22-2.56,13.6.52,27.2,1.16,40.8a10.75,10.75,0,0,0,3.58,7c2,2,2.72,4.13,1,6.67-1.56,2.29-3.26,4.33-6.46,3.67s-3.95-3.31-4.23-6q-1.63-15.66-3.11-31.32c-.74-7.87-1.5-8.44-8.77-6-9.91,3.35-16.64,1.5-22.78-7-3.8-5.24-7.06-10.89-10.34-16.48-1.44-2.45-.78-4.89,1.52-6.65,2.51-1.93,5.12-2.43,7.66,0,4.12,3.88,6.23,9,8.5,14,1.72,3.82,4,6.92,8.54,7.53,6.44.86,10.63-2.39,11.34-8.93A58.5,58.5,0,0,0,530.64,1492.33Z"/><path d="M213,1504.66c.11,23-21.48,37.5-42.82,28.63-2.28-.94-4.68-2.16-2.24-5,6.52-7.7,6-16.61,4.41-25.6-1.35-7.8.2-15.19,2.35-22.57.62-2.11,1.81-3.18,4-2.64,5.61,1.36,11.27.27,16.9.38,8.65.17,13.13,3.67,15.34,12.06A62,62,0,0,1,213,1504.66Zm-33.28,4.19c.51,5.12.94,10.26,1.54,15.37.49,4.1,2.7,5.23,6.67,3.89,11.1-3.74,18.43-14.73,17.69-27.21-.46-7.73-3.52-14.36-13.85-12.28a10.11,10.11,0,0,1-3.47,0c-4.26-.68-6.18,1.62-6.9,5.36A104.07,104.07,0,0,0,179.74,1508.85Z"/><path d="M358.12,1687c.11,4.74,1.57,9.94-3.94,12.86s-9.13-.86-13-3.64c-5.42-3.86-10.76-7.82-16.18-11.67-3.61-2.56-5.85-1.48-6.28,3-.18,2-.27,4-.36,6-.11,2.54-.75,4.69-3.77,4.94s-5.59-.9-6.26-3.81c-1.82-7.93-3.29-16-3.12-24.15a10,10,0,0,1,7.61-9.52c4.11-1.17,6.24,2,8.36,4.93,6.13,8.35,15.22,13.3,22.9,19.89a2.79,2.79,0,0,0,3.66.35,3.92,3.92,0,0,0,1.65-4.34,77.51,77.51,0,0,0-3.72-12.92c-2.27-5.89-1.58-9.61,1.88-10.88,3.93-1.44,7.21.66,8.48,7.25C357.4,1672.35,357.47,1679.72,358.12,1687Z"/><path d="M335.84,1858.69a59.86,59.86,0,0,0-3.49-21.45c-2.26-6.72-1-8.53,6.07-9.7,4.09-.68,8.12-1.71,12.2-2.44,17.53-3.13,28.63,8.05,25.28,25.48a40.88,40.88,0,0,1-8.8,19.26,20.4,20.4,0,0,1-23.07,5.81c-6.61-2.59-8.29-5.15-8.19-12.41C335.86,1861.91,335.84,1860.58,335.84,1858.69Zm7.87-9.61a45.2,45.2,0,0,0,1.37,11.73c1.86,7,8.48,9.08,13.85,4.31a26,26,0,0,0,9.08-20.8c-.09-5-2.64-8.07-7.26-9.55-10.25-3.28-17.45,2-17.22,12.68C343.54,1847.94,343.64,1848.44,343.71,1849.08Z"/><path d="M399.25,1347.29c.21-10.43,1.15-17.66,3.94-24.54,1.76-4.35,4.47-6.5,9.65-5.58,7.61,1.34,14.82-1.08,21.86-3.75,2.49-.94,4.92-2,7.39-3,2.92-1.17,5.35-.77,6.36,2.54s.16,6.07-3.62,6.86c-10.23,2.14-20.17,5.7-30.72,6.35-1.81.12-4.59-.53-4.43,2.52.13,2.57,2.72,2.52,4.62,2.84,3.94.67,7.55-.65,11.13-2.07,2-.79,4-1.58,6.07-2.25,2.95-1,4.87.48,5.94,3,1.17,2.79-.48,4.43-2.84,5.45-5.24,2.27-10.91,2.89-16.46,3.82-11.79,2-13.29,4-10.85,15.86a20.87,20.87,0,0,0,2,5.6c1.86,3.53,4.34,5.07,7.82,1.68a6.48,6.48,0,0,1,5.93-1.93c3.5.68,4.81,4.16,2.35,6.68a30.23,30.23,0,0,1-9.14,6.84c-6.33,2.84-12.62,0-14.43-6.85C399.78,1359.85,399.55,1352,399.25,1347.29Z"/><path d="M324.84,991.2c0,2.54-1.83,6.53-4.75,10.13-1.93,2.39-4.76,4.67-2.51,8.29s5.74,4.86,9.82,4.67a37.91,37.91,0,0,0,3.93-.66c1.62-.25,3.34-.86,4.55.88,1.33,1.91.91,3.87-.22,5.62-2.36,3.68-5.17,5.66-10,3.74-8.89-3.53-17.45-7.41-23.5-15.23-2.65-3.42-4.14-1.74-5,1.24-.68,2.38-.88,4.9-1.34,7.35-.7,3.66-3.19,4.29-6.36,3.66s-3.73-2.7-3.21-5.59c1.51-8.37,2.94-16.63-2.55-24.46-2.35-3.35,1.21-5,3.63-6.25s4.87-1.22,5.77,2.2c.17.64.43,1.26.54,1.91.26,1.61.06,3.5,2.27,3.92s3.24-1.22,4.27-2.76A25.42,25.42,0,0,1,312,980.27C320.23,976.91,324.85,980.07,324.84,991.2Zm-12.66-2.94c-3.5,0-9.5,5-10.24,8.45-.36,1.67.45,3,1.95,2.45,3.22-1.22,6.82-1.59,9.6-3.8a4.67,4.67,0,0,0,1.84-5.25A2.75,2.75,0,0,0,312.18,988.26Z"/><path d="M235.63,1709.72c.48-1,1.25-2.87,2.17-4.62,6.4-12.28,12.51-24.61,12.15-39-.11-4,3.11-5.62,6.6-6.29,3.32-.64,4.85,1.52,5.82,4.23,1.29,3.59,2.58,7.19,3.76,10.82,1.66,5.13,4.85,7.5,10.48,7,5.22-.49,5.56.2,3.16,4.89-1.26,2.47-.44,4.53.68,6.59,1.27,2.34,2.75,4.59,3.28,7.23.59,2.91-.18,5.28-3.09,6.6-2.75,1.26-4.79.19-6.54-1.94a91,91,0,0,0-6.74-8c-4.17-4.05-8.34-3.84-11.89.84s-6.57,10-10,14.88c-2.63,3.71-6.31,4.13-8.83,1.38C235.65,1713.18,235.25,1712,235.63,1709.72Z"/><path d="M297.3,1505.36a68.94,68.94,0,0,0-1-13.9,38.18,38.18,0,0,1-.39-6c0-3,1.16-5.17,4.27-5.87s4.9,1,6,3.78c4.71,11.56,13.36,18.82,25.08,22.59,6.1,2,8.48.06,8.1-6.31-.31-5.26-1.34-10.21-5.46-14-2-1.85-2.76-4.12-1.38-6.76a5.74,5.74,0,0,1,5.2-3.25c3-.15,4.57,1.62,5.55,4.12a55.28,55.28,0,0,1,4,23.42c-.63,11.14-9.59,16.76-20.09,12.71-5-1.93-9.23-5.26-13.87-7.85s-6.6-1.57-7.07,3.84a45.64,45.64,0,0,0,.07,5c.07,2.46-.71,4.43-3.45,4.54s-4.92-.85-5.19-4.1C297.36,1513.32,296.63,1509.37,297.3,1505.36Z"/><path d="M31.59,1177.69c4-4.64,4.58-9.25,5.38-13.81.49-2.75.62-6,3.84-7,3.43-1.1,5,1.82,6.81,3.94,2.91,3.41,5.78,6.87,8.7,10.28,1.25,1.46,2.74,2.54,4.79,1.66a4.31,4.31,0,0,0,2.7-4.38c-.09-3.82-.36-7.64-.44-11.46-.07-2.7.48-5.16,3.91-5.19,2.93,0,4.67,1.54,5,4.49a69.32,69.32,0,0,1-1.79,24.73c-1.3,5.09-5.44,6.87-10.58,5.17-4.54-1.51-7.26-5.07-10-8.68-1.4-1.85-2.86-4-5.62-3.34-2.58.58-2.75,3.06-3.36,5.1-1.54,5.07-2.62,10.33-6.45,14.39-1.7,1.81-3.52,3-6.14,2.26s-3.16-2.81-3.43-5c-1.17-9.38-1.51-18.9-5.19-27.82a6.52,6.52,0,0,1-.33-2.46c0-2.63,1-4.51,3.83-5s4.39.82,4.9,3.61C29.18,1165,30.3,1170.83,31.59,1177.69Z"/><path d="M606.16,1010.12c1.8-.21,4.28-.53,6.76-.79,1.64-.17,3.44-.62,4.08,1.67s-.51,3.55-2.27,4.46c-5.88,3-12,3.83-18.32,1.55a40.35,40.35,0,0,1-15.32-10c-1.24-1.26-2.12-3.37-4.32-2.69-2.5.77-2.71,3.11-2.82,5.32-.07,1.67-.07,3.33-.11,5-.06,2-.56,3.69-2.88,4-2.1.26-3.43-.81-4.37-2.62-1.05-2.06-.79-4.25-.72-6.38.24-6.93-.48-13.62-4.1-19.76-1.35-2.28-1.48-4.64,1.26-5.93,3.13-1.46,3.94,1.07,4.91,3.28.85,1.93,1.35,4.35,4.07,4.52s3.55-2.16,4.56-4c3.92-7.17,10.8-9.52,18.09-11.08,3.63-.77,6,1.24,7.57,4.37,3.82,7.71.28,16-8,18.77-1.49.5-3.49.45-3.58,2.76-.08,1.92,1.17,3,2.56,4A22.19,22.19,0,0,0,606.16,1010.12Zm-18.84-17.48a20,20,0,0,0,2.21,0c3.11-.36,6.38-1.14,5.93-5-.5-4.34-3.92-2.82-6.58-2.34a13,13,0,0,0-2.4.59c-2.26.87-4.38,2.08-3.83,4.94S585.81,992.27,587.32,992.64Z"/><path d="M538.3,652.66c-.74-10,4.5-16.1,16.89-16.84A93.36,93.36,0,0,0,568,633.9c3.65-.73,6.85-.1,7.68,4.19.87,4.57-2.37,5.85-5.88,6.32-5.44.72-10.93,1.11-16.39,1.66-2.24.23-4.57.58-4.4,3.57s2.48,3,4.76,3c6,.14,11.91-1.29,17.89-1.53,2.88-.12,7.42-2.78,8.1,2.46.72,5.58-4.52,4.26-7.54,4.72-5.41.81-10.93,1-16.4,1.46-5.64.49-6.86,2.45-5.21,7.9a10.8,10.8,0,0,0,8.29,7.81c4.1,1,6.49-1.57,8.46-4.74,1-1.68,2.43-2.87,4.52-1.41a3.22,3.22,0,0,1,1.08,4.74,25.79,25.79,0,0,1-6.89,8.45c-6.28,4.62-14.67,3.94-18.21-2.89C543.85,671.89,538.53,664.35,538.3,652.66Z"/><path d="M300,647.1c.23,3.84-1.53,6.53-4.3,8.7s-5.93,4.33-8.62,6.8c-2.85,2.61-2.32,4.54,1.33,5.68,3,.94,6.14,1.51,9.11,2.56a8.73,8.73,0,0,0,8.1-.74c2.66-1.7,5.07-1.51,7,1.06a8.07,8.07,0,0,1,.55,9.37c-1.78,3.22-4.25,1.61-6.49.64-5.41-2.32-11.21-3.07-16.9-4.29a36.31,36.31,0,0,1-9.46-3c-3.47-1.83-6.28-2.17-7.91,2.31a3.05,3.05,0,0,1-4,2.1,3.52,3.52,0,0,1-2.71-3.73,52.05,52.05,0,0,0-4.64-23.79c-1.06-2.26-.59-4.73,2.09-5.89s5.21-.55,6.2,2.27c1.76,5,3.41,3.32,6.12.65a22.35,22.35,0,0,1,19.59-6.53C298.67,641.73,300.51,643.49,300,647.1ZM278.9,658.37c2.61.17,7.87-4.59,8-7a2.14,2.14,0,0,0-2.33-2.52c-2.41-.09-7.45,4.81-7.46,7.23A2,2,0,0,0,278.9,658.37Z"/><path d="M525.38,500.33c3-9.63.35-18.38-5.25-26.66-1.75-2.58-.79-5.14,2.34-6.45s4.56.35,5.74,2.94c1.11,2.43-.12,6.56,3.47,7.06,3.31.46,3.79-3.69,5.81-5.51.37-.33.67-.74,1-1.1,6-6.42,13.24-7.88,17.42-3.4s6.44,17.59-1.33,21.82c-1.36.74-3.17,1.67-1.86,3.85,1.16,1.93,2.87,2,4.78,1.34,1.56-.57,3.13-1.13,4.66-1.77,2.1-.88,4.2-1.64,5.62,1,1.29,2.37.66,4.46-1.22,6.3-4.15,4.07-12.15,5-18.27,1.89a49.17,49.17,0,0,1-9.88-6.71c-.95-.81-1.85-2.17-3.41-1.5s-1,2.24-1.16,3.51a22.37,22.37,0,0,1-.38,4.44c-.78,2.65-1.26,6-5.24,5.37S526.27,502.77,525.38,500.33Zm22.16-27.12c-3.19.33-6.3,1.36-6.29,5.37,0,3.69,2.74,5,6.11,5.07s4.6-2,4.62-5.09C552,475.68,551.44,473.18,547.54,473.21Z"/><path d="M234.33,678.15a41.17,41.17,0,0,1-11.3-1.8c-5.14-1.36-9.63-1.24-12.25,4.37a2.83,2.83,0,0,1-3.66,1.76,3.09,3.09,0,0,1-2.21-3.94c2.06-8.66.06-16.81-2.75-24.94-1-2.9,0-5.29,3-6.51,3.22-1.33,4.47.87,5.67,3.24,2.39,4.72,2.69,4.76,6.2.45,2.34-2.87,4.7-5.62,8.45-6.72,3.56-1,6.58,0,9.22,2.34s2.77,5.27,1.82,8.28c-.89,2.84-1.84,5.71-3.94,8-1.35,1.46-4.15,2.68-1.7,5.19s5.36,2.6,8.17.71c1-.69,1.66-2,2.42-3.09,1.07-1.54,2.06-3.21,4.36-2.05a4.49,4.49,0,0,1,2.63,5.33C247.34,674.61,242.17,678.07,234.33,678.15Z"/><path d="M132.81,1181.34a66.5,66.5,0,0,0,0-6.82c-.71-5.94-4.06-8.19-9.72-6.36a55,55,0,0,1-13.61,2.93c-4.51.29-6,2.87-5.55,7.08.31,2.64.68,5.28.8,7.93.13,2.91-1.4,5-4.27,5.19-2.68.22-4.31-1.57-4.71-4.2-.81-5.26-1.75-10.45-4-15.36-1-2.17,0-4.59.61-6.84.91-3.55,2-7,.74-10.76a3.58,3.58,0,0,1,2.8-5c2.69-.65,4,.87,4.82,3.14,1.29,3.67.45,8.61,4.48,10.62,3.73,1.85,7.75-.85,11.69-1.11,6.7-.45,12.24-2.52,15.46-9.09,1.28-2.62,3.77-2.76,5.69-.42,2.38,2.88,4.28,6.36,3.52,10.07-1.3,6.35.25,12.23,1.76,18.19.78,3.08,1.49,6.14.71,9.35-.67,2.76-2.38,4.39-5.21,4.52-3.06.15-4.41-1.75-5-4.52A35.39,35.39,0,0,1,132.81,1181.34Z"/><path d="M639,1176.78c.05,9.67-2.54,11.84-12.09,10.28-6.34-1-12.31-2.8-17-7.61-.89-.93-1.86-2.08-3.41-1.15s-1.75,2.28-1.26,3.9c.76,2.49-.09,4.93-.31,7.4-.28,3.17-1.85,5-5.11,4.81-3-.2-4.2-2.09-4.26-5.07-.1-5.31-.46-10.62-.63-15.93a20.64,20.64,0,0,0-2.27-9.12c-2.06-3.84-1.78-7,2.18-9.35,3.73-2.19,6.27-1.22,9.21,3.61,4.82,7.92,10.23,15.23,19.33,18.69,1.91.73,3.86,2.44,6,.54s1.33-4.24.93-6.52a76.82,76.82,0,0,0-4-13.34c-1.57-4.23.66-7.52,4.87-7.69,1.85-.08,3.39.38,3.62,2.51C635.83,1160.84,639,1168.55,639,1176.78Z"/><path d="M255.1,1533.8a10,10,0,0,1-6.4-2.47,23.39,23.39,0,0,1-9.5-15.86c-1.09-8.08-1.95-16.21-2.44-24.34-.51-8.46,1.92-11.23,10.31-12,9.33-.89,18.51-2.16,26.94-6.61,1.83-1,3.57-.92,5,.61s1.6,3.53,1.06,5.6-2.26,2-3.94,2.16c-7.3.55-14.59,1.29-21.55,3.79-1.88.67-3.71,1.46-5.52,2.3-2.05,1-3.16,2.52-2.33,4.82.75,2.09,2.45,2.51,4.47,2.1,4.24-.86,8.49-1.67,12.72-2.57,2.06-.44,4.16-.9,4.83,1.83.74,3-1.43,3.78-3.73,4.07-5,.62-9.49,3-14.2,4.63-3.85,1.3-5.26,4.41-4.87,8.3a21.39,21.39,0,0,0,3,8.41c2.23,3.94,5.34,5.25,9.64,3.37a12.28,12.28,0,0,1,3.78-1.17,4,4,0,0,1,4.21,5.6C265.11,1530.29,259.38,1534,255.1,1533.8Z"/><path d="M204,1323.66a141,141,0,0,1,18.93.86,36.12,36.12,0,0,0,14.83-1.08c3.09-.89,5.81-.28,6.81,3.13s.87,6.67-2.68,8.75a13.45,13.45,0,0,1-2.32.9c-9.4,3.24-11.83,6.83-11.31,17,.17,3.49.63,7,.86,10.45a23.64,23.64,0,0,1-.08,4.45c-.4,3.29-2.17,5.16-5.66,4.88s-4.21-2.89-4-5.74c.53-6.12,1.26-12.23,1.91-18.35.14-1.32.34-2.64.4-4,.35-7.14-1.93-9.86-9.05-10.18-6.32-.29-12.65-.16-19-.27a17.14,17.14,0,0,1-4.43-.43c-3.24-.91-4.42-3.42-4.18-6.53s2.72-3.83,5.41-3.85C195,1323.64,199.48,1323.66,204,1323.66Z"/><path d="M345,644.65a10.13,10.13,0,0,1,9.36,4.69c1.95,2.9,3.75,5.9,5.57,8.88,2,3.29,4.16,6.41,7.56,8.49,1.73,1,3.32,2.47,3.33,4.69,0,3.15.15,6.77-3.26,8.22s-5.37-1.53-7.19-3.92c-.2-.26-.37-.56-.59-.81-1.89-2.07-.68-7.1-5.64-6.19-5.93,1.09-12.56.84-15.75,7.72-1.39,3-3.06,5.91-4.64,8.83-1,1.89-2.41,3.15-4.8,2.71s-3.29-2.18-3.52-4.26c-.81-7.27-1.14-14.33,6-19.24,3.44-2.35,3-6.45,3.23-10.06C335.08,647.13,337.62,644.67,345,644.65Z"/><path d="M453.34,479.26c.12,9.64-11.29,21.39-22.71,23.39-.82.14-1.66.18-2.47.32-7,1.19-7.47,1.87-4.81,8.29a21.74,21.74,0,0,1,1,12.69c-.38,2.11-1.27,3.87-3.87,3.67-2.43-.19-3.45-1.86-3.69-4-1.42-12.71-2.92-25.4-4.06-38.13-.39-4.45-.21-8.95-.84-13.41-.23-1.62-.38-3.41,1.46-4.4s3.14.16,4.29,1.42c2.55,2.81,5.38,2.9,8.5,1,5.29-3.13,11-3.37,16.9-2.44C449.35,468.69,453.27,473.17,453.34,479.26Zm-33.61,8.13a61.69,61.69,0,0,0,.85,6.39c.79,3.36,3.17,4.73,6.4,3.76a29.75,29.75,0,0,0,18.95-15.8c1.7-3.47-.34-6.81-4.3-7A32.91,32.91,0,0,0,426,477.32C421.71,479.31,418.83,482.12,419.73,487.39Z"/><path d="M83.79,671.83a26.21,26.21,0,0,1-1.15,10.69c-.63,1.72-1.32,3.46-3.76,3.26a3.9,3.9,0,0,1-3.79-3.93,42.33,42.33,0,0,1,.19-7.46c.61-7.14,1.18-14.29-.23-21.4-.63-3.19.59-5.31,3.68-6,2.92-.66,6.18-1.42,7.66,2.43,4.4,11.48,14.44,17.56,23.54,24.46,3.41,2.59,7,1,8.63-3.28,1.75-4.7.56-9.16-1.26-13.58-1.53-3.68-3.08-7.37-1.71-11.56,1.14-3.45,3.32-4.93,6.83-4.05s2.92,3.72,2.21,6.08c-1.34,4.42,0,8.56.76,12.79,1.48,7.91.91,15.31-5.53,21.15-4.7,4.27-8.64,4.5-13.83.51-5.85-4.49-10.38-10.32-15.4-15.65-1.41-1.48-2.35-4.2-5-3.21-2.93,1.09-1.85,3.85-1.81,6.09C83.81,670.16,83.79,671.16,83.79,671.83Z"/><path d="M234.23,845a8.08,8.08,0,0,1-7.13-5.12c-2.27-4.82-5.83-6.9-11.21-6.32-5.85.63-11.43,1.66-13.83,7.93-1.36,3.53-3.68,6.29-5.93,9.16-1.66,2.12-3.82,2.87-6.16,1.62-2.68-1.45-2.18-3.88-1.08-6.11,3.28-6.72,6.71-13.38,10-20.11,1.66-3.44,3.17-7,4.56-10.52,3-7.69,10.18-9.3,15.6-3.22,3.8,4.27,5.84,10.17,11.94,12.29,1.26.44,1.08,2,.61,3.12-1.78,4.14.65,5.4,4,6.08,2.72.54,5.63,1.16,5,4.84C239.91,842.17,238,844.78,234.23,845Z"/><path d="M207.37,490.54c-.51,2.72-.45,5.33-3.31,6.1a5.31,5.31,0,0,1-6.1-2.28c-.87-1.22-1.72-2.45-2.69-3.59-6.64-7.77-16.48-8.13-23.55-.79-2.89,3-5.55,6.2-8.35,9.27-1.73,1.89-3.76,2.94-6.09,1.08-2.18-1.74-1.56-3.83-.29-5.8q4.72-7.33,9.54-14.61a89.93,89.93,0,0,0,8.2-14.81c1.33-3.15,1.86-6.59,6.76-6.59s8,1,10,6c1.79,4.38,5.25,8.05,7.63,12.22,2.19,3.83,1.78,9.26,7.22,11.1C207,488,207.14,489.86,207.37,490.54Z"/><path d="M37.33,1020.72c0-1.59,0-2.92,0-4.25-.21-6.14-2.22-8.12-8.39-7.58-6.46.57-12.88,1.55-19.33,2.28-8.67,1-11.23-2-8.66-10.2,1.64-5.21,3.94-10.23,3.62-15.92-.12-2.2,1.55-3.16,3.6-3.35a3.26,3.26,0,0,1,3.87,3c.69,3.55-.22,6.93-.93,10.35-1.21,5.91.45,7.8,6.36,7.4q5.24-.36,10.45-.93c4.12-.45,6.37-2.57,5.92-7-.36-3.48-.68-7-1-10.44-.19-2.2.33-4,2.86-4.48s4.71.08,5.78,2.68A35.21,35.21,0,0,1,43.67,993c.48,6.14.76,12.29,1,18.43.13,3.38.48,6.69,2.36,9.56,2,3,1.36,5.6-.83,8.16a5.18,5.18,0,0,1-6.31,1.52c-3.52-1.34-2.83-4.46-2.82-7.23C37.07,1022.45,37.26,1021.46,37.33,1020.72Z"/><path d="M209.82,1003.12a47.28,47.28,0,0,0,1.66,16.86c1,3.26,1.24,7-3.54,7.73-4.59.72-5.65-2.57-6-6.14-.47-5.13-.81-10.27-1.11-15.41-.23-3.88-2.21-5.75-6.07-5.64a53,53,0,0,0-17.48,3.63c-4.66,1.79-5.58,4.78-3.34,9.67,1.43,3.14,3.58,6,3,9.8a4.72,4.72,0,0,1-5.09,4.42c-2.53,0-5-1-4.91-3.82.39-10.79-2.89-21-4.26-31.54-.55-4.17,2.1-6.39,5.47-4.88a4.64,4.64,0,0,1,2.53,3.51c.81,3.69,3.25,4.65,6.66,4.38,5-.4,9.95-.72,14.92-1,3.08-.18,4.92-1.66,5.58-4.69s1.62-5.65,5.42-5.16,6.2,2.57,6.47,6.42C210,994.89,209.82,998.56,209.82,1003.12Z"/><path d="M278.6,495.52c2.69.4,3.53,2.42,4.8,3.85A12.89,12.89,0,0,0,295,503.8c3.87-.39,5.14-3,2.87-6.22a21.8,21.8,0,0,0-3.81-3.93c-5-4.11-7.77-9.48-9.47-15.52-1.57-5.56-.15-9.82,4.52-13.15a20.81,20.81,0,0,1,15.09-3.83c8.71,1,17.31,3.75,26.26,1.78,2.05-.45,3.57.69,3.75,3s-.15,4.3-2.93,5c-3.62.91-7.3.62-10.94.72-6.83.18-13.67,0-20.49.25-7.14.28-8.85,3.45-5.54,9.78,2.2,4.21,5.65,7.35,9.1,10.51,5.59,5.1,6.54,8.23,4.24,13-2.49,5.14-7.24,7.2-13.94,6.06C284.44,509.58,279.81,504.92,278.6,495.52Z"/><path d="M481.84,1523.55c-.18,3.23-2.12,4.84-5.37,5.23s-5.08-1-5.63-4.19a171,171,0,0,1-2-24.87c-.27-9.64-2.85-11.86-12.31-10.52-3.13.45-6.25,1-9.37,1.44s-5.41-.23-6-3.64c-.52-3.21,1.19-5.06,4.17-5.8,6-1.5,12.22-1.43,18.33-2.12a105.73,105.73,0,0,0,18.17-3.2c2.37-.69,5.27-1.26,6.5,1.82,1,2.53,1.15,5.37-1.48,7.24-8.49,6-9.12,14.51-7.66,23.68C480,1513.55,480.94,1518.45,481.84,1523.55Z"/><path d="M253.61,1003.32c-5.58.42-9.84,2.83-12.29,8-1.41,3-2.8,6-4.3,9s-4.09,3.23-6.74,1.78-3.24-3.82-1.62-6.34c2.4-3.75,3-7-.39-10.76-2.41-2.62-.65-4.76,2.36-5.28,4.62-.81,6.37-3.27,7.32-7.93,1.28-6.34,7.73-7.75,12.79-9.78,4.22-1.68,6.11,2.36,8,5.18,4.83,7.23,8.69,14.92,10.43,23.52a15.84,15.84,0,0,1,.46,4.42c-.22,2.44-1.09,4.55-4.13,4.68s-4.61-1.49-4.94-4.38c-.26-2.31-.4-4.63-.55-6.95C259.76,1004.37,257.26,1003.12,253.61,1003.32Z"/><path d="M407.19,1184.15a29.48,29.48,0,0,1-15.65-4.27c-4.51-2.77-5.81-2-6.79,3.39a18.37,18.37,0,0,1-.95,3.85,4,4,0,0,1-4.07,2.32,3.13,3.13,0,0,1-3.32-3c-.85-7.91-2-15.77-3.57-23.58-.79-3.88,2-6.75,5.59-7.83s4.91,2,6.11,4.58c3.93,8.23,10.58,13,19.15,15.44,1.95.56,3.64.61,5-1a4,4,0,0,0,.36-4.67c-1.4-2.82-2.77-5.65-4.2-8.45-1.66-3.24-1.68-6.21,1.87-8.08,3.76-2,4.86,1.15,6.26,3.61,3.57,6.28,4.36,13.23,4.61,20.21C417.8,1182.26,414.74,1184.25,407.19,1184.15Z"/><path d="M375.1,1484.5c-2.89-.06-5.52,1-8.21,1.87a38.36,38.36,0,0,1-5.77,1.45c-2.6.42-4.61-.45-5.27-3.28s.5-5,3.41-5.63c10.05-2.18,20.11-4.35,30.22-6.22,3.66-.68,6.12,2,5.74,6.24a40.13,40.13,0,0,1-2.1,8.16c-3.76,12-4.34,23.81,1.62,35.35a7.73,7.73,0,0,1,.85,5.78c-.85,3-2.6,5.19-5.93,5-3.11-.17-4.58-2.3-4.93-5.3a250.31,250.31,0,0,1-2.09-28.83,65.27,65.27,0,0,0-.72-8.92C381.38,1486.33,379.14,1484.27,375.1,1484.5Z"/><path d="M165.32,666.62c-4.42.13-7.48,2.32-9.82,5.52-2.16,2.94-4.05,6.08-6.05,9.14-1.18,1.79-2.68,3.18-4.95,2.27a3.9,3.9,0,0,1-2.34-5.33c1.12-3.1.51-5.85-.84-8.64s-.48-4.41,2.55-5.06c5.47-1.16,7.81-5.07,9-10.15,3.18-14,5-14.6,15.69-5.23,3.88,3.39,7.7,6.86,11.48,10.36a15.94,15.94,0,0,1,5.14,9.45c.36,2.35-.17,4.34-2.36,5.54s-4.2.54-5.86-1.18C173.63,669.91,170.14,666.91,165.32,666.62Z"/><path d="M464.38,499.32c.94-4.78,2.11-9.65,5.18-13.72,3.21-4.25,6.34-8.52,9.14-13.06,2.91-4.71,6.26-5.78,11.49-4.13a18.2,18.2,0,0,1,12.66,12.94c1.42,4.77,2.64,9.56,6.53,13.2,2.56,2.41.24,4.18-1.51,5.68-2.24,1.91-4.71,2.14-6.4-.54a30,30,0,0,1-2.55-6.45c-1.86-5.59-3.26-6.3-8.75-4.71-7.32,2.13-13.25,6-17.17,12.71-1.31,2.22-3.11,3.44-5.82,2.47C465.18,503,464.42,501.48,464.38,499.32Z"/><path d="M464.5,1154.2c-6.18-.43-11.66,2.46-17.49,3.68-1.19.25-2.27,1.06-2,2.44.34,1.87,2,1.58,3.21,1.34,5.39-1,10.78-2.06,16.11-3.31,2.32-.54,4.45-.95,5.31,1.85s-1.67,3.06-3.44,3.82a63.38,63.38,0,0,1-19.79,4.75c-5.63.47-6.91,2.37-5.64,7.86.9,3.84,3,7.44,2.1,11.64-.57,2.57-1.33,5-4.47,5.15s-3.68-2.39-4-4.7a49.12,49.12,0,0,1-.64-7.93c.1-7-2.23-13.38-4.24-19.9s-.82-8,5.87-8.63a158.67,158.67,0,0,0,27.06-4.29,4,4,0,0,1,1.46-.27c2.7.34,6.87-1.53,7.16,3S467.4,1154.34,464.5,1154.2Z"/><path d="M179.36,1193.49c-13.24-.06-20.21-10.26-17.21-24a29.9,29.9,0,0,1,2.09-6.1c2.92-6.34,6.95-7.56,12.72-3.81,4.73,3.07,9.63,6,13.45,10.23,3.51,3.93,6.63,8,4.83,13.82-1.88,6-6.6,8.38-12.35,9.31C181.41,1193.2,179.94,1193.4,179.36,1193.49Zm1.32-9.69c3.07.1,5.21-1.18,5.48-4.38s-7-9.63-10.86-9.66c-3.15,0-4.27,2.08-4.42,4.85C170.63,1179.28,175.35,1183.67,180.68,1183.8Z"/><path d="M286.51,1882.77c-5.49,0-9.23-3-10.47-8.62-1.88-8.42-1.53-17.24-5-25.39-1-2.24.21-4.58,2.23-6.18a4.14,4.14,0,0,1,5.52,0c5.08,4.15,10.76,3.71,16.63,2.59,3.27-.62,6.57-1.07,9.86-1.54,1.67-.23,3.46-.49,3.91,1.87a3.34,3.34,0,0,1-2.53,4.24c-5.58,1.63-11.11,3.63-16.81,4.62-8.82,1.53-10.47,5.31-6.51,15,1.14,2.77,3.69,3.82,6.68,2.63,3.39-1.35,6.75-2.81,10.11-4.25,1.56-.67,3.15-1.51,4.39.43,1.1,1.71,1.25,3.63-.22,5.08C299.21,1878.25,293.66,1882.4,286.51,1882.77Z"/><path d="M510.88,998.24c-.14-9.87,2.39-12.77,10-13.87,7.21-1,14.61-.69,21.62-3.26,2.19-.8,3.93.23,4.4,2.69s-.71,3.78-3.09,4.17c-7,1.17-14.08,2.38-21.13,3.48-1.89.3-3.88.41-3.71,2.95.14,2.28,2,2.84,3.92,3.11,3.32.48,6.62.56,9.75-1,2.47-1.26,4.61-1.15,5.42,2,.74,2.87-1.11,3.83-3.52,4.26-3.59.63-7.16,1.49-10.78,1.9s-4.92,2.52-4.68,5.75a23.53,23.53,0,0,0,1.75,8.24c3,6.63,5.95,7.52,11.78,3.38,1.75-1.25,3.42-2.37,5.27-.54s.44,3.63-.8,5.2c-5.54,7-13.82,7-19.44-.05a18.17,18.17,0,0,1-3.88-8.52C512.62,1010.7,511.61,1003.3,510.88,998.24Z"/><path d="M349.7,1018.58c-.15-1.65.75-3,1.65-4.45,6.08-9.59,11.14-19.63,13.18-30.94a6.21,6.21,0,0,1,5.6-5.48c3.16-.51,4.39,1.78,5.53,4,4.85,9.64,9.49,19.39,17.87,26.72,2.34,2,1.57,4.58-.62,6.47s-4.37,1.49-6.06-.68c-2.35-3-4.42-6.22-6.74-9.25-4.34-5.67-9.27-5.62-13.28.29-3.45,5.07-6.58,10.37-9.92,15.52a4.23,4.23,0,0,1-5.16,2C349.74,1022.13,349.66,1020.44,349.7,1018.58Z"/><path d="M612.59,489.88c-.62,6.61.78,12.21,6.94,15.92,3.69,2.22,2.47,4.87.24,7.45-2.36,2.73-5,4.18-8.06,1.23-3.29-3.17-4.36-7.44-4.7-11.8-.58-7.29-1-14.6-1.31-21.91-.27-5.64-1.68-6.94-7.44-6.45-3,.25-6,.64-9,.77-2.43.11-4.16-.9-4.48-3.62s1.19-4,3.68-4.23q7.46-.64,14.93-1.09c5.49-.34,10.95-.81,16.16-2.74,2.81-1,5.23-.73,7.17,1.69a4.64,4.64,0,0,1,.58,5.16c-1.29,2.72-3.65,3.05-6.33,2.71-4.49-.56-6.95,1.44-7.35,6C613.36,482.6,613,486.24,612.59,489.88Z"/><path d="M309.85,834.74c0-11,8.89-20.42,19.1-20.42,7.19,0,15.75,9.32,15.88,17.28.14,8.71-9.25,16.85-19.49,16.89C315.85,848.52,309.82,843.18,309.85,834.74Zm26.75-3.33c0-4.17-3.7-7.31-8.45-7.21-5,.11-9,3.71-9.08,8.1a7.49,7.49,0,0,0,7.82,7.3C331.92,839.48,336.62,835.52,336.6,831.41Z"/><path d="M129.7,1021.82c-15.68,0-25.19-11-22.64-24.78,2-10.65,11.2-16.36,21.59-13.31a30.25,30.25,0,0,1,11.85,7.18c1.52,1.4,2,3.11,1,4.94-1.2,2.13-3,1.59-4.77.75-3.31-1.56-6.58-3.21-10-4.63s-6.91-1.79-9.62,1.37-4.17,6.71-2.64,11a14.87,14.87,0,0,0,24.09,6.08,25,25,0,0,0,2.61-3c1.26-1.6,2.73-2.61,4.7-1.35a3.77,3.77,0,0,1,1.57,4.79c-2.27,6.68-7.7,9.25-13.95,10.64A18.8,18.8,0,0,1,129.7,1021.82Z"/><path d="M67.16,499.68c-4.83.23-8.68-1.79-12.06-5.05-2.73-2.65-2.54-5.3,0-7.79,2.81-2.72,3.89.23,5.41,1.81,3.19,3.35,8.92,4.49,12.89,2.53,1.48-.73,3.12-1.61,3.39-3.41.31-2-1.74-2.18-2.94-2.84-8.16-4.55-12.27-11.43-12.21-20.78,0-5.07,2.56-8.46,7-10.58,1.68-.8,3.42-1.57,5.12-.11s1.33,3.67.84,5.56a10.65,10.65,0,0,1-1.79,3c-4.38,6.38-3.86,9.44,2.38,14.21A36,36,0,0,0,86,481.35c2.61.86,5.13,1.74,5.33,5.09.19,3.17-1.32,5.35-3.89,7A39.41,39.41,0,0,1,67.16,499.68Z"/><path d="M391.66,836.73c.13,8.66-4.36,15.56-11.26,18.44-5.71,2.39-11.62.56-15.06-5.17-5.41-9-6-19.25-6.83-29.35-.23-2.73,1.5-4.16,4.41-4.19s4.66,1.17,5,4.27c.59,6,1.24,11.91,2,17.85.67,5.3,2.95,7.49,7.13,7.13,4.44-.37,7.06-3.74,6.9-8.72a15.22,15.22,0,0,0-2.14-6.57,18.43,18.43,0,0,1-1.85-4c-.64-2.65-.12-5,2.74-6.19s4.71.32,6.14,2.64C391.65,827.47,391,832.79,391.66,836.73Z"/><path d="M546.2,1168.43c.78-4.76.34-11,5.7-14.14,5.54-3.25,10.52.32,15.27,3.12a36.47,36.47,0,0,1,9.17,7.65c6.37,7.37,6.16,15.85-.43,21.13-8.2,6.57-19.34,5.83-25-1.64C547.44,1180,546.45,1174.62,546.2,1168.43Zm6.83,1.28c.42,4.81,2.4,9.93,7.84,13,3.85,2.15,7.41,1.17,10.36-1.89s1.41-6.12-.68-8.88a29.9,29.9,0,0,0-9.18-8.23C555.74,1160.54,553,1162.2,553,1169.71Z"/><path d="M673.7,1147.69c10.51-.24,11.52,1.21,8.73,9.9-2.54,7.88-5.85,15.61-3.75,24.23a40.27,40.27,0,0,0,3.52,8.74c1,2,1.44,4.15-.56,5.89-2.2,1.91-4.59,1.78-6.87.2-4-2.74-5.13-6.86-4.83-11.36.47-7.13,1.36-14.22,1.83-21.35.4-5.94-.57-6.76-6.42-6.26-4.14.36-8.26.83-12.4,1.11-2.33.15-4.84.34-5.21-3s1.84-4.3,4.45-4.84c3.58-.74,7.15-1.57,10.75-2.08C667.05,1148.23,671.2,1148,673.7,1147.69Z"/><path d="M409.82,665.08c.18-3.66.54-7.31.5-11,0-4-2.22-5.72-6.2-5-5.56.95-11.29.45-16.74,2.39-2.29.81-4.32,0-4.82-2.84-.43-2.49.8-3.74,3.14-4.14,13.11-2.26,26.2-4.6,39.33-6.73,3.67-.59,5.53,1.52,5.82,5.15s-1.6,5-5,5.27c-8.24.64-9.11,1.59-8.38,9.69a79,79,0,0,0,1.92,10.27,14.71,14.71,0,0,1,.41,5.93,4.24,4.24,0,0,1-4.09,3.69,4.16,4.16,0,0,1-4.48-2.43C410,673.17,409.61,670.46,409.82,665.08Z"/><path d="M644.56,1020.85c-6.12.75-11.47-1.28-16.44-4.61-1.46-1-2.77-2.19-2.1-4.08.75-2.1,2.8-1.73,4.31-1.38a76.45,76.45,0,0,1,7.53,2.52c1.78.62,3.37.5,4.17-1.45.71-1.72-.2-2.86-1.73-3.56-5.38-2.48-8.69-7.16-12.17-11.6-4.71-6-4.28-11,1.19-16.34,3.17-3.11,7.08-5,11.17-6.4,2.29-.81,4.39-.31,5.25,2.29.78,2.33-.29,3.89-2.54,4.6-13.51,4.26-10.06,11.87-2.5,19.44a29.25,29.25,0,0,0,7.34,5.13c6.42,3.36,8,5.83,6.76,10.59C653.87,1019.63,652,1020.51,644.56,1020.85Z"/><path d="M424,839.37c0-3-.07-6,0-9,.12-4.32-2-6.13-6.18-5.66-2,.23-3.9.75-5.88,1-2.75.36-4.52-.85-5-3.63-.48-3,.94-4.83,3.92-5.24a142.22,142.22,0,0,0,23.4-4.79c2-.63,3.6-.24,4.79,1.5s1.74,4.35.32,5.61c-9.39,8.37-6.88,18.57-4.9,28.76.44,2.28.05,4.33-1.82,5.86a5.41,5.41,0,0,1-5.66.68,4.8,4.8,0,0,1-3.15-4.66c-.09-3.49,0-7,0-10.47Z"/><path d="M415.4,999.61c.59,14.07,9.22,19.59,21.75,14.4a8.18,8.18,0,0,1,.93-.37c2.48-.68,5.27-4.13,7.41-.61,2.33,3.84-1.89,5.06-4.2,6.53-15.65,10-30.42,2.47-31.51-16.17-.32-5.47-.66-11,2.24-16.1,3.66-6.44,8.34-7.62,14.49-3.52a18.32,18.32,0,0,1,6.15,6.44c.93,1.72,2.34,3.71.59,5.48s-3.72.29-5.38-.78c-1.25-.81-2.38-1.81-3.56-2.74-1.68-1.32-3.24-3.2-5.7-2-2.21,1.07-2.71,3.21-2.86,5.47C415.66,997.12,415.49,998.61,415.4,999.61Z"/><path d="M516.16,644.05c-1.53,7.78-1.46,16.58-4.66,24.73-3.08,7.83-7.66,9.07-14.18,3.83A48.15,48.15,0,0,1,481.55,650a13.66,13.66,0,0,1-.65-2.39c-.34-2.25.39-4,2.72-4.64s3.38,1,3.92,2.85c2.25,7.49,7.41,12.84,12.9,18,3.14,2.95,5.33,1.59,6.22-1.76,1.44-5.38,3.25-10.84-.25-16.33-1.49-2.34-.55-4.78,1.45-6.75a4.82,4.82,0,0,1,5.9-1.13C516.08,639,516.5,641,516.16,644.05Z"/><path d="M482,1006.45c0-2.75.17-5.74,0-8.71-.36-5.21-3-6.91-8.09-5.49-1.91.54-3.79,1.23-5.7,1.8-2.61.78-5.2.74-6.26-2.2-1-2.75.93-4.29,3.26-5.31,8-3.53,16.75-4,25.19-5.61,3.31-.63,4.4,2.5,3,5.07-5.94,10.66-5.64,21.6-2.09,32.78.81,2.55.95,4.76-2.19,5.46-3.35.75-5.67-.79-6.09-4.15C482.4,1015.65,482.31,1011.15,482,1006.45Z"/><path d="M223.71,56.3a21.58,21.58,0,0,1-.67,2.29c-1.17,2.94-2.13,6-6.17,6.25s-6-2.16-7.65-5.27c-3.72-7.11-3.85-7.22-11.42-4-2.81,1.21-4.74.94-6.15-1.92-.43-.87-.7-2.53-2.4-1.25-.72.55-1.49,1.75-2.44.59s-.38-2.3.39-3.22c2.39-2.83,4.54-5.6.71-8.9,2.43-11.86-1.14-24.13,2.39-35.9.74-2.46,2.16-4.88,5-5,3.17-.13,3.8,2.84,4.55,5.15,3.94,12.25,3.51,24.23-2.62,35.76C196.11,43,194.94,45,194,47.08a4.82,4.82,0,0,0,1,5.55c1.42,1.58,2.77.09,4-.39,9-3.4,13-2.1,17.55,6.17,1.15,2.1,2.1,1.69,3.37.49,1.06-1,2-2.11,3-3.17ZM192.76,42c6.8-12.25,6-23.67,2.68-35.26C195.23,6,194.92,5,193.92,5c-1.36.08-1.91,1.12-2.13,2.34C189.77,18.48,188.86,29.56,192.76,42Z"/><path d="M140.87,1518.76c-.9-14.07-.58-28.26-3.28-42.2-.55-2.85-.32-5.48,3.44-5.87,3.6-.37,4.08,2.23,4.27,4.81.63,8.78,2,17.53,1.56,26.37-.23,4.9.14,9.75,2.25,14.15,2.51,5.21,1.1,10-.46,15a3.48,3.48,0,0,1-4.15,2.71,3.76,3.76,0,0,1-3.61-4C140.83,1526.05,140.87,1522.41,140.87,1518.76Z"/><path d="M407.86,1865.86a59,59,0,0,0-4.27-21.41c-1.51-3.78-2-7.44.76-10.83a3.74,3.74,0,0,1,5-1c3.81,2.15,4.63,5.83,4.52,9.86A48.27,48.27,0,0,0,418,1864.4a13.28,13.28,0,0,1,.84,7.83c-.48,2.91-1.37,5.71-5.22,5.39-3.48-.29-5.46-2.28-5.72-5.77C407.74,1869.87,407.86,1867.86,407.86,1865.86Z"/><path d="M434,1519.65c-.06,3.38-1.14,6.19-5.25,6.34-4.37.16-4.9-2.79-5.1-6.3-.57-9.78-1.35-19.54-2-29.31-.09-1.33-.21-2.65-.23-4,0-2.74,1.25-4.51,4.05-4.68s4.3,1.5,4.56,4.2c.61,6.28,1,12.58,1.75,18.84C432.3,1509.7,433.21,1514.6,434,1519.65Z"/><path d="M299.14,1836.8c-4.18,0-8.66.06-13.14,0-3.48-.06-5.73-1.75-5.93-5.36-.22-4,2.9-3.6,5.53-3.89,8.56-1,17.11-2.06,25.68-3,4.9-.54,7.11,1.18,7.6,5.53.57,5.07-2.67,5.64-6.55,5.79C308,1836,303.74,1836.46,299.14,1836.8Z"/><path d="M42,488.47c.09,3.12-1.69,4.29-4.31,4.56s-5.15,0-5.8-3.22a44.63,44.63,0,0,1-.82-6.91c-.33-7.47-1-14.89-3.22-22.08-.92-2.93-.44-5.34,3-6.17s5.42.92,5.86,4.26c.8,6.08,1.23,12.22,2.24,18.26C39.54,481.05,41,484.81,42,488.47Z"/><path d="M269.84,1343c.1,5.79-.29,11.66,1.74,17.28a6.74,6.74,0,0,1-.65,5.79,5.21,5.21,0,0,1-5.88,2.75c-2.71-.47-3.36-2.43-3.34-4.78.05-6.33.15-12.66.22-19,0-3.82.44-7.66-.52-11.44-.71-2.82.25-4.62,3.25-4.9s5.27.62,5.2,4.3C269.79,1336.32,269.84,1339.65,269.84,1343Z"/><path d="M149.87,36.78c8.1,1.49,8.45,1.18,8-6.56-.07-1.33-.15-2.66-.11-4a1.65,1.65,0,0,1,.66-1.16,1.1,1.1,0,0,1,1.62.63c1.08,2.7,3.37,5.27,1.78,8.4-2.1,4.14.45,4.37,3.46,4.69,5.67.6,11.48-.25,17.13,1.75-5.48.94-10.9,2-16.34,2.74-3.81.51-3.89,1.92-2.77,4.88,3.54,9.32,10.71,13.62,20.81,12.29,1.79-.24,3.57-.58,5.83-1-4.05,3.29-9.9,4.23-15.51,2.65A22.46,22.46,0,0,1,159,48.46c-1-2.46-1.59-5.67-5.32-2.36-1.71,1.51-2.65,0-3.25-1.51C149.47,42.18,150,39.7,149.87,36.78Z"/><path d="M247.93,52.53C242.9,58.91,237,61.25,230,61c-3.78-.13-5.13-2.25-5-5.9.26-7.93,5.09-13.38,9.9-18.86,1.54-1.75,3.07-1.41,4.66.13a8.3,8.3,0,0,1-3.33,13.71,20.47,20.47,0,0,1-3.92.56,3.19,3.19,0,0,0-3.19,3.67c.14,2.24,2,2.35,3.71,2.3C237.87,56.47,242.44,54.47,247.93,52.53Z"/><path d="M449.85,659.83c0-4.48,0-9,0-13.44,0-2.13.26-4.25,2.86-4.43s3.4,1.79,3.85,3.84a25.06,25.06,0,0,1,0,8.42c-.72,6-.43,11.89,2,17.55,1.05,2.41,1.23,4.85-.91,6.9a4.35,4.35,0,0,1-5.05,1c-2.85-1.22-2.74-3.84-2.74-6.35Z"/><path d="M586.16,1528.76a16.12,16.12,0,0,1-1.12,2.3,84.68,84.68,0,0,0-7.91,16.62c-.66,1.74-1.32,3.47-2.91,4.53-2.06,1.36-4.41,2.08-6.49.37s-.54-3.7.38-5.36c3.72-6.67,7.54-13.3,11.37-19.91.95-1.64,2.22-3.1,4.4-2.37A3.22,3.22,0,0,1,586.16,1528.76Z"/><path d="M366.6,490.74c-1.49,0-2.5.06-3.48,0a3.67,3.67,0,0,1-3.64-4c-.06-2.25,1.34-3.15,3.5-3.3,5.95-.41,11.82-.78,17.4-3.6,2.69-1.36,5.76.15,6.48,3.55s-1.3,4.89-4.43,5.29Z"/><path d="M478.81,1363.25c-1.78,4.52-2.68,10.23-7.24,14.17-1.33,1.14-2.84,1.91-4.53,1-1.87-1-1.48-2.86-1.07-4.43a37.87,37.87,0,0,1,6.73-13.73c1-1.27,1.88-2.94,4-1.89C478.4,1359.21,478.88,1360.73,478.81,1363.25Z"/><path d="M504.94,218.37q-9.37,9.18-18.73,18.38c-.8.78-1.61,1.25-2.58.47a1.71,1.71,0,0,1-.15-2.62,16.49,16.49,0,0,1,2.41-3.09c5.94-4.78,12-9.46,17.95-14.17Z"/><path d="M468.67,250.11c-1.3,5.12-6.31,7.19-5.21,11.93a6.84,6.84,0,0,1-2.3.42c-1.67-.27-1.48-1.69-1.09-2.73C461.53,255.89,464.38,253.21,468.67,250.11Z"/></svg>