<svg xmlns="http://www.w3.org/2000/svg" width="1022.08" height="2006.61" viewBox="0 0 1022.08 2006.61"><title>c0-txt4</title><path d="M623.67,49.06c-6,6.67-6.12,8.6-1.09,15.27,1.43,1.9,2.79,3.74,2.5,6.28-.37,3.27-2.4,5.09-5.44,5.66s-4.08-1.65-4.81-4c-.89-2.85-1.75-5.71-2.46-8.61-1-4-3.21-6-7.47-5.63-1.82.18-3.66.11-5.49.21-6.73.39-11.79,3.08-14,9.94-1.11,3.48-3.14,6.23-7.32,4.63-4-1.51-3.49-4.76-2.27-8,2.58-6.83,5.28-13.63,7.76-20.5,1.66-4.61,4.9-7.34,9.35-9,2.49-.92,5.28-1.57,7.26-3.18,3.71-3,5.59-1.38,7.19,2,.92,1.95,1.75,4,2.47,6C612.06,46.29,615.88,50.08,623.67,49.06Z"/><path d="M652.43,60.27a117.8,117.8,0,0,0-1.94-18,25.37,25.37,0,0,1-.57-6.43c.22-3.38,2.4-5.41,5.56-6.27s5.12.86,6.43,3.44c5.18,10.2,14.17,16.11,23.86,21.2,5.26,2.77,8,1.58,9.75-4.09,1.64-5.2,2-10.13-2.78-14.13-2-1.66-3.61-3.55-2.17-6.47,1.07-2.16,2.69-3.4,5.12-3.26,2.85.17,5.22,1.32,6.25,4.17a31.75,31.75,0,0,1,1.62,12.29,111.25,111.25,0,0,1-2.66,17.74c-1.41,6.5-5,8.25-11.07,5.49-7.59-3.45-14.47-8.19-21.38-12.81-2.15-1.44-4.14-3-6.76-1.26s-1.86,4.29-1.31,6.76c1,4.27,1.54,8.56-.71,12.64-1.1,2-2.66,3.53-5.22,2.91-2.76-.66-2.9-2.82-2.71-5.12C652,66.27,652.18,63.45,652.43,60.27Z"/><path d="M747.54,66.19c-5.59-1.89-10,1-14.29,5.42-3.06,3.16-6.06,2.32-6.72-2-1.85-12.23-5.47-24-9-35.77-1-3.35,0-6.06,3.49-7.18,3.89-1.25,4.94,1.83,5.81,4.52s1.3,5.84,2.16,8.7c1.29,4.29,3.41,5,7,2.33,4.42-3.35,7.82-7.7,11.18-12,2.28-2.95,4.82-4.81,8.39-2,3,2.39,3.05,5.76-.45,9-3.91,3.6-8.27,6.71-12.38,10.09-1.81,1.49-3.68,3.1-2.88,5.86s3.3,3.77,5.83,3.89c6.15.31,12.32.28,18.47.46a31.38,31.38,0,0,1,4.93.54,3,3,0,0,1,2.53,3.24,2.92,2.92,0,0,1-2.92,2.88C761.88,64.81,755.09,65.45,747.54,66.19Z"/><path d="M559.82,48.78c.43,6.46.9,12.92,1.26,19.39.1,1.8.17,3.65-1,5.27a5,5,0,0,1-4.76,2.11c-2-.17-2.65-1.75-3.22-3.36-1.79-5-1-10.21-1.27-15.32-.39-8.36-2-9.86-10-8.14-5.51,1.18-11,2.66-16.37,4.28-5.93,1.77-7,4.25-3.82,9.52,2.63,4.38,1.39,8-1.58,11.32-2,2.22-5,2.07-5.47-.79-1.7-9.92-7.1-19.13-5.76-29.61a26.8,26.8,0,0,1,1.1-4.83,4.51,4.51,0,0,1,4.8-3.52c2.77.09,3,2.12,3.24,4.16.49,4.6,2.84,6.24,7.49,5.45,5.89-1,11.86-1.64,17.81-2.24,2.61-.27,4.33-1.2,5.09-3.86.71-2.45,1.74-5,4.92-4.73a7.51,7.51,0,0,1,6.8,5C560.43,42.15,559.65,45.49,559.82,48.78Z"/><path d="M271.79,56.27c3.13-11.72,6.65-24,15.37-34,2.95-3.36,6.72-2.53,8.8,1.75,1.36,2.81,2,6,3.07,8.94,1.56,4.33,4.43,6,9,4.33a13.37,13.37,0,0,1,4.31-1,3.41,3.41,0,0,1,3.49,3c.37,1.93-1,2.48-2.56,3-2.75,1-6.65,1.15-7,4.64-.32,3.24,3.07,4.84,5.46,6.59,2.23,1.65,4.34,3.31,3.26,6.54a6.29,6.29,0,0,1-5.9,4.59c-3.35.27-4.46-2-5.66-4.58-2.22-4.8-4.17-10.9-10.12-11.32s-8.49,5.57-11.47,9.92c-.19.28-.37.56-.53.85-1.34,2.53-3.11,4.53-6.28,3.65S272.25,59.47,271.79,56.27Z"/><path d="M61.56,13.71c5.65,4.87,11.23,5.36,17.22,4.72a140.6,140.6,0,0,1,15-.65c3.63,0,7.63-.13,9.39,4.08a12.46,12.46,0,0,1-1.49,12.76c-5,7-16.44,10.52-25.22,7.93-7.4-2.18-7.67-1.87-6.6,5.83.57,4.14,1.17,8.11,3.48,11.82,2.16,3.47.19,10.65-3,13.26a3.49,3.49,0,0,1-3.74.51c-1.86-.76-2-2.53-2-4.21Q63.69,55.32,63,40.86C62.5,32.23,62.06,23.59,61.56,13.71Zm19,24.43a14.77,14.77,0,0,0,12.53-7c1.92-2.94.47-5.69-3.06-5.95a43.28,43.28,0,0,0-17.65,2.35c-2,.72-3.42,2.06-3.43,4.38a4.38,4.38,0,0,0,3.45,4.35C75.28,37.08,78.22,37.6,80.59,38.14Z"/><path d="M451.62,21.23,483.07,19c3.07-.21,6.43-1.37,8.16,2.67,1.61,3.8-.68,5.83-3.24,8-3.53,2.93-5.48,6.79-5,11.43a84.53,84.53,0,0,0,4.66,20.79c1.87,5.06.25,8.84-5,10.41-4,1.2-6.09-.19-6.56-5-.58-6-.76-12-1.14-17.95-.22-3.48-.34-7-.77-10.45-1-7.64-3.48-9.78-11.15-9.5-4,.15-8,.57-11.95.91s-6.81-.83-6.84-5.19,3.34-4.16,6.45-3.94A7.94,7.94,0,0,0,451.62,21.23Z"/><path d="M938.93,61.72c0-5.44.24-9.77-.06-14.07-.35-5-2.93-7.14-8-6.62-4.79.49-9.55,1.33-14.39,1-3.45-.21-6.44-1.14-6.5-5.29,0-4.51,3.21-4.79,6.59-4.7a326.46,326.46,0,0,0,41.83-1.81c2.93-.3,6.25-.93,6.91,3.5.57,3.87-1.71,6.92-6.06,7.68a16,16,0,0,1-4.94.05c-3.42-.45-5.38.82-6.1,4.24-1.69,8.15-3.92,16.13,2.32,23.74,2.75,3.35-1,10.06-5.46,10.67-3.32.45-5-1.56-5.25-4.61C939.42,70.57,939.18,65.59,938.93,61.72Z"/><path d="M804.82,89.4a60.73,60.73,0,0,1-11.45-2,10.83,10.83,0,0,1-5.63-3.94c-1.12-1.38-1.75-3-.79-4.61,1.16-2,2.87-1.16,4.4-.5a26.89,26.89,0,0,0,14.64,2c2.38-.31,4.25-1.22,4.82-3.6.64-2.65-1.26-4-3.27-5C797.27,67,793,58.11,791.34,47.62c-.9-5.55,1.71-9.7,6.28-12.62a16.74,16.74,0,0,1,15.28-1.85c2.78,1,2.52,4-.4,5.72-2.28,1.36-4.83,2.27-7.06,3.69-6.66,4.28-7.32,9.06-1.83,14.72,3.58,3.7,7.66,6.91,11.39,10.46a14.61,14.61,0,0,1,4.87,8.51C821,84,815.28,89.41,804.82,89.4Z"/><path d="M1002,41.12a24.5,24.5,0,0,1,14,5.5c7.53,6.13,8.09,14.91,1.16,21.64-5.93,5.75-13.09,9-21.54,9s-14.1-5-15.53-13.3C978.1,52,987.74,40.84,1002,41.12ZM999.5,68.74c2.4-.68,5.62-1.48,8.76-2.51a7.82,7.82,0,0,0,5.54-7c.42-3.5-1.27-6.08-4-8-6.28-4.44-11.82-3.62-17.69,2.49-2.69,2.79-4.59,5.81-2.89,9.8S994.66,68.47,999.5,68.74Z"/><path d="M24.74,0c.58.05,2.09.11,3.57.32,3.48.51,4.12,2.94,3.75,5.9s-2.7,2.95-4.92,2.69c-2.65-.31-5.24-.71-7.94-.15-9.29,1.89-13,10.09-8,18.13,3.94,6.24,9.21,11.37,14.92,16,2,1.6,3.66,3.31,4.19,6,1.16,5.89-1.93,9.42-7.89,8.86-4.49-.43-8.92-1.05-13-3.3-3.26-1.83-6.11-4.14-7.72-7.56-.93-2-2.94-4.87-.87-6.29s3.24,1.94,4.79,3.26a17.54,17.54,0,0,0,4.53,3c2.12.86,4.35.7,5.75-1.51,1.65-2.64-.73-3.56-2.27-4.59a27,27,0,0,1-8.5-9.67C2,25.23,0,19.07,3.9,12.68,8.47,5.26,14.21-.46,24.74,0Z"/><path d="M138.92,51.85c3.86-.69,7.2-1.09,7.36,3.72.11,3.14-6.07,7-10.07,6.3A9.94,9.94,0,0,1,131,59.15c-10.54-9.8-11.69-22.26-9.89-35.44.42-3.08,3-4.74,5.87-5.53q12.48-3.48,25-6.73c2.08-.54,4.19-.34,4.8,2.2s-1,3.84-3.06,4.45c-5.73,1.72-11.5,3.29-17.27,4.87a13.61,13.61,0,0,0-5,2.1,4.77,4.77,0,0,0-1.62,6.17c1,2.42,2.84,3.05,5.26,2.62,2.12-.37,4.25-.8,6.4-1,1.48-.12,3.38,0,3.73,1.75.29,1.39-1.27,2.18-2.47,2.74-2.26,1-4.68,1.78-6.81,3-2.61,1.55-3.23,3.94-2.16,6.91C134.78,50.11,136.18,52.05,138.92,51.85Z"/><path d="M344.69,41.36a27.11,27.11,0,0,0,.11,11.37c1.43,6,4.49,8.22,10.75,7.73a35.42,35.42,0,0,0,8.2-2c3.47-1.12,7-2.16,10.52-3,2.8-.69,5.48-.35,6.45,2.92s-.91,4.91-3.75,6c-5.45,2-10.84,4.17-16.31,6.11-12.33,4.36-21.91-1-24.42-13.86-1.5-7.68-1.39-15.53-1.74-23.32-.12-2.66.66-5,3.95-5.32s3.75,2,4.53,4.22C343.9,34.84,345,37.47,344.69,41.36Z"/><path d="M186.79,40c-.08,8.27,2.89,12.49,8.41,15,7,3.19,13.86,3.46,20.09-1.82,1.76-1.5,3.17-3.41,4.82-5a2.9,2.9,0,0,1,4.42,0c1.33,1.22,1.16,2.53.38,4C221,59.75,208.37,66.77,199.8,66c-11.84-1.07-18-7.44-20-19.25-1.4-8.65-.12-15.89,7.56-21a15.85,15.85,0,0,1,13.3-2.45c2.64.69,4.52,2.29,4.6,5.19.09,3.06-.66,5.43-4.64,4.19a14.07,14.07,0,0,0-3.42-.58C190,31.73,186.8,34.76,186.79,40Z"/><path d="M252,59.91c0,2.32.15,4,0,5.64-.28,2.52-2.17,3.14-4.34,3.14s-3.57-.87-3.72-3.15q-1.06-15.63-2.07-31.26c-.16-2.63,1.46-3.5,3.77-3.5,3,0,4.28,1.86,4.24,4.47C249.73,43.77,251.68,52.1,252,59.91Z"/><path d="M388,1054.47c1.73.42,6.38-2.32,6.33,3-.06,4.79-4.62,3.33-7.46,3.32-10.7,0-20-7.8-20.81-17.07-.25-2.76-.22-5.45,2.6-7s4.28.66,5.94,2.25,3.44,2,5.26.31c1.65-1.57,3.95-2.94,3.11-5.74-.78-2.6-3.09-2.7-5.32-2.67-10.65.14-15.77,5.09-16.59,15.8a81.06,81.06,0,0,1-1.31,8.87c-.37,1.93-.63,4.17-3.52,3.89s-3.16-2.45-3.3-4.72c-.24-4-.36-8-.87-11.94-.58-4.44-1.46-8.85-2.35-13.25-.6-3,.38-5.09,3.28-5.71,3.36-.72,3.09,2.11,3.41,4.17.57,3.69,2.21,4.62,5.3,2.16a26,26,0,0,1,17.11-5.81c8.19.11,12,4.56,10.34,12.58a14.16,14.16,0,0,1-7.31,10.17c-1.74.93-4,1.39-3.25,4.14.68,2.42,2.5,3.37,4.95,3.28C384.68,1054.44,385.84,1054.47,388,1054.47Z"/><path d="M436.31,1020.52c2.3.52,7.14-1,7.41,2.65.28,3.89-4.74,3.14-7.55,3.66-5.22,1-10.59,1.05-15.58,3.19-1.37.59-3.19.82-2.6,2.88s2.43,1.56,3.82,1.29c5.37-1.07,10.72-2.31,16.07-3.48,2.37-.52,5-1,5.57,2.22.56,3-2.11,3.48-4.14,3.92-4.54,1-9.13,1.78-13.72,2.55-2.76.47-5.64,1-5.2,4.61.43,3.44,1.74,6.53,6.08,6.62,2.11,0,5.09-2,6,1.36,1,3.64-1.91,5.71-4.62,7.47s-5.06,1.25-7.12-1.07c-4.24-4.76-6-10.64-7.47-16.65-3.94-15.92-4-15.91,12.16-19.78A36.37,36.37,0,0,1,436.31,1020.52Z"/><path d="M456,1047c0-1.6-.59-3.11.95-3.92,4.69-2.46,6.23-7.12,8.23-11.5a21.41,21.41,0,0,1,2-3.45c2.73-3.78,5.16-3.89,7.81-.11,2.48,3.53,4.65,7.29,6.91,11,2.54,4.13,5.18,8.2,9,11.28,2.38,1.94,2.24,3.72.59,6-1.84,2.5-4,2.77-6.48,1.18-3-1.89-4.07-5.18-5.73-8-1.24-2.11-1.88-5-5.06-4.72-3.49.32-6.37,1.92-7.78,5.41-.62,1.54-1.13,3.13-1.83,4.63-.9,2-2.28,3.27-4.68,2.87-2.24-.37-2.86-2-3.1-3.95C456.51,1051.33,456.24,1049,456,1047Z"/><path d="M525.51,1061.46c-6.15-.37-11.68-1.22-16.76-4-3.13-1.73-3.47-3.48-.2-5.27s3.24-3.22.5-5.87c-5.32-5.14-6.47-11.72-3.71-17.24s8.67-8.36,16-7.73c3,.26,4.73,1.6,4.43,4.7-.27,2.81-2,4-4.83,3.56-3.2-.5-6.7-.83-8.57,2.32-2.07,3.47,0,6.73,1.94,9.68,3.23,4.89,8.07,7.77,13.17,10.32,2.68,1.35,6.57,1.86,5.41,6.35S528,1061.22,525.51,1061.46Z"/><path d="M181.26,1047.33c0,1.84-.33,3.15-1.75,3.71a3.36,3.36,0,0,1-4.35-1.37c-2.07-3.19-4.22-6.36-6-9.7-1.32-2.44-3-3.22-5.65-2.75-5.83,1-11.08,2.55-12.4,9.47a16.23,16.23,0,0,1-1.67,3.6c-.83,1.71-2.11,2.66-4,1.91a2.93,2.93,0,0,1-1.78-4.07c3.31-8.48,6.52-17,10.2-25.32,1.36-3.06,4.92-4.38,7.66-6.18,2.08-1.37,3.34.43,4.08,2.25,1.55,3.84,3,7.73,4.57,11.55,2.11,5.11,4.83,9.84,9,13.6C180.25,1045.05,181.31,1046.08,181.26,1047.33Z"/><path d="M116,1055.86c-11.39-.76-18.34-9.49-16.78-21.85a28.23,28.23,0,0,1,11.32-19.25c3.18-2.46,6.18-1.76,9,.84,3,2.81,4.72,6.19,3.21,10.26-.9,2.41-2.49,1.34-3.83,0-5.61-5.57-8.46-5.11-12.06,2.15-2.82,5.68-3.43,11.6.33,17,5.1,7.39,14.55,6.57,19.23-1.45,1.11-1.91,1.71-5,4.91-2.91,2.74,1.78,1.27,4.08,0,6.06C127.68,1052.18,123.85,1057.22,116,1055.86Z"/><path d="M231.82,1032.08c0-7,1.91-9.18,7.45-9.19a40.86,40.86,0,0,0,13.15-2.52c2.07-.71,4.59-1.26,5.46,1.58,1,3.29-1.65,4-4,4.28-3.29.43-4.9,1.72-3.87,5.27.78,2.68-1.21,2.85-3.09,3.27-8,1.78-9.75,5.22-6.64,12.43,1.41,3.27,3.35,4.92,6.94,3,1.23-.64,2.52-1.15,3.6.19a3.1,3.1,0,0,1-.11,4.13c-1.83,2.38-3.68,4.89-7.23,4.54s-5.16-2.71-6-5.82C235.44,1045.76,233.45,1038.21,231.82,1032.08Z"/><path d="M301.11,1034.77c.38,6.47.73,12.94,1.15,19.41.19,2.86.64,5.54,3.48,7.29,2.17,1.34,1.64,3.36.55,5.26s-2.67,3.39-5.23,2.84c-2.22-.48-2.85-2.1-2.81-4.08.1-4.48-.76-8.91-.41-13.43.48-6.15-2.14-7.89-7.78-5.62-6.67,2.68-12.1.53-15.12-6q-2.07-4.51-4-9.1c-.81-1.91-1.55-4,1.1-5,2.49-1,3.1,1.08,3.85,2.74,1,2.26,2.08,4.52,3.1,6.79,1.57,3.5,4.4,5.24,8,6,7.06,1.49,10.15-1.35,8.9-8.29-.32-1.79-.92-3.55-1.15-5.35-.29-2.22.91-3.45,3.11-3.62s3.38,1,3.35,3.25,0,4.65,0,7Z"/><path d="M205.7,1053.42c-6,.45-9.86-2.69-13.86-5.33a2.18,2.18,0,0,1-.85-3c.73-1.27,2-.92,3.13-.52,2.49.9,4.92,2,7.41,2.89a2.84,2.84,0,0,0,3.84-1.35c1-1.92-.6-2.73-1.84-3.48-3.11-1.91-6.49-3.44-9.41-5.6-5.52-4.06-5.79-9-.9-13.9a75.52,75.52,0,0,1,6.88-5.74c1.83-1.43,3.67-1.53,5.18.55s.43,3.59-1.45,4.88c-9,6.15-8.85,8.37.73,14a54.22,54.22,0,0,0,5.36,2.62c3.48,1.56,6,3.82,5.14,8s-3.95,5.47-7.65,6A8.59,8.59,0,0,1,205.7,1053.42Z"/><path d="M309.92,656.65c-.16,6.11-5,12.11-11.13,13.79-1.82.5-4.42.18-4.69,2.81s2.28,3,4,3.74c5.28,2.37,9.86,6.1,15.58,7.69,2.65.74,3.26,3.26,2.17,5.73-1.28,2.92-3.74,2.52-5.87,1.28-6-3.51-11.9-7.25-17.87-10.85-4.89-3-5.54-2.68-6.69,2.87-.45,2.11-.91,3.91-3.64,3.75s-3.39-1.93-3.54-4c-.22-3-.15-6-.18-9-.05-3.86-.43-7.65-2.57-11-1.23-1.91-1.37-3.75.26-5.45s3.21-1.16,4.81.16c1.86,1.54,3.43.45,4.85-.79,5.29-4.63,11.76-5.93,18.45-6.51C308.26,650.5,310,652.31,309.92,656.65Zm-17.57,8.41c4.13-.09,9-3.91,8.84-6.76-.11-1.79-1.31-2-2.74-2.08-3.94-.07-9.63,3.78-9.59,6.51C288.91,665.3,291.07,664.61,292.35,665.06Z"/><path d="M768.34,705.78c-5.21-.07-7.52-3.63-5.36-7.84,1.59-3.09,3.74-5.89,5.53-8.88,1.31-2.17,2-4.16-1.94-3.84-2.16.19-4.58.58-4.76-2.72-.19-3.5,2.22-3.93,4.89-4.24a52.79,52.79,0,0,0,7.83-1.38,3,3,0,0,0,2.27-4.27c-.69-1.9-2.15-2.29-4-1.73-4.13,1.24-8.26,2.51-12.44,3.55-2.26.56-4.9,1.05-5.46-2.36-.52-3.17,1.61-4.05,4.21-4.22,6.85-.46,13.36-2.57,20-3.9,5.38-1.08,7-.05,6.91,5.16,0,3.89,1.5,5.15,5.13,4.5,1.63-.29,3.21,0,3.39,1.95s-1.3,2.58-2.95,2.58c-10.5.06-14.25,8.63-19.29,15.44-1.71,2.3.25,3.44,2.29,3.48,3.53.05,7-.6,9.84-2.92,2.07-1.69,4.18-2,6.34-.38,2,1.47,1.41,3.62,1,5.53-.52,2.67-2.56,3.16-4.95,3-4.41-.22-8.48,1.49-12.7,2.34C772,705.09,769.91,705.48,768.34,705.78Z"/><path d="M849.15,702.16c.35-7.93.91-15.08-2.85-21.68a2.93,2.93,0,0,1,.59-4.05,4.2,4.2,0,0,1,4.18-.94c1.68.55,2.08,2,2.29,3.53.28,2.19-2.14,5.44,1.71,6.23,3.56.73,3.92-2.8,5.14-5a16.8,16.8,0,0,1,12.61-8.79c2.89-.48,6.25-1,8,2.3s1,6.91-1.36,9.78a19,19,0,0,1-10.79,6.75c-1.87.4-3.67.87-3.74,3.24-.06,2,1.44,2.88,3,3.53,5.07,2.11,9.53,6.31,15.83,4.19,1.65-.55,2.71,1.12,2.88,2.73a4.78,4.78,0,0,1-2.82,5.31c-2.29,1-4.61.39-6.84-.25a48.7,48.7,0,0,1-15.6-7.58c-2.46-1.81-4.44-1.89-5.74,1.57-.76,2,0,5.94-3.92,5.09C848.26,707.32,849.31,703.9,849.15,702.16Zm25.54-24.66a4.64,4.64,0,0,0-1-1.33c-2.37-1.64-4.5-.4-6.41.87a8.73,8.73,0,0,0-4,6.51c0,.2.37.57.63.64,2.52.75,4.42-.87,6.49-1.79A7.08,7.08,0,0,0,874.69,677.5Z"/><path d="M664.76,679.56a25.64,25.64,0,0,1,2.46-11.7,10.31,10.31,0,0,1,16-3.34c2.71,2.4,3,5.32,1,8s-3.79.06-5.37-1c-2.9-2-5-1.18-6.61,1.59-2.57,4.47-2.41,9.31-1,14,.9,3.1,3.6,3.56,6.53,2.84,5.36-1.32,9.36-4.87,13.5-8.19,2.35-1.88,4.89-4.3,8-2.17,3.31,2.29,2.67,6.1,1.37,9.12a31.54,31.54,0,0,1-14.16,15.56c-4.65,2.53-10.6.76-14.63-4.11A29.89,29.89,0,0,1,664.76,679.56Zm27.78,13.23c-.07-.18-.09-.38-.19-.47-3-2.26-5.24.51-7.67,1.29-1.88.6-4,1.85-3.48,4.65,0,.25.41.53.7.65,2.25,1,4.24.07,6.09-1.09S691.83,695.18,692.54,692.79Z"/><path d="M983.09,697.1c.13,10.61-1,11.38-10.55,7.66-6.06-2.37-12-4.94-17.31-8.78-1-.7-1.87-1.54-3.08-.62-1,.76-.57,1.8-.32,2.76.61,2.31.25,4.64,0,7-.19,2-1.21,3.45-3.4,3.65a3.8,3.8,0,0,1-4.44-3.13,59.05,59.05,0,0,1-.62-6.94c-.36-4.49-1-8.9-3.16-13a6.14,6.14,0,0,1,1.46-8.13c2.66-2.31,4.83-2.78,7.2,1,5.58,8.78,13.17,15.39,23.09,19,4.4,1.59,5.55.76,5-3.9-.48-4.29-1.37-8.54-2.22-12.78-.37-1.82-2.2-3.93,1.05-4.75,2.74-.69,4,1,4.48,3.45C981.51,685.51,983.3,691.45,983.09,697.1Z"/><path d="M626.68,670.11c-2,6.11-.5,11.94,2,17.76a4,4,0,0,1-2.17,5.46c-2.51,1.12-4.41.18-5.87-2.17a12,12,0,0,1-1.66-7.65c.36-4.12-1.66-6-5.59-5.62-6,.66-11.86,1.61-17.78,2.51-3.05.46-3,2.78-2.52,5a38,38,0,0,1,1.05,9.39c-.08,1.78-.84,2.94-2.57,3.09-1.56.13-3.06-.39-3.54-2.13a125.21,125.21,0,0,1-4-28.1c-.09-2,1.78-2.71,3.43-3s2.52.73,2.84,2.19c1.11,5.05,4.68,5.81,9.1,5.58,4-.22,8-.08,12-.06,2.84,0,5-1,5.29-4.06.35-3.34,1.33-6.14,5.33-5.67C626.33,663.1,625.69,667.09,626.68,670.11Z"/><path d="M491.3,683.61c-.11-3.05,1.68-7.39-3.84-7.33-7.58.1-12.08,3.82-11.64,9,.23,2.65.18,5.32.26,8,.05,2-.76,3.26-2.81,3.38s-3.87-.84-4-2.95c-.45-10.18-5.44-20.07-1.89-30.53.58-1.71,1-3.25,2.94-3.48,2.36-.27,3.14,1.41,3.59,3.32.08.32.08.67.18,1,.86,2.65-1,6.82,4.24,7,7.52.23,9.26-.66,11.31-6.72.51-1.51,1-2.84,2.81-3a3.62,3.62,0,0,1,4,2.35c1.24,2.74,2.27,5.55,1.84,8.66a48.17,48.17,0,0,0,1.1,17.33c.57,2.51,1.09,5.47-2.24,6.13-3.59.71-4.92-2-5.26-5.12C491.65,688.25,491.5,685.93,491.3,683.61Z"/><path d="M443.33,684.4A106.26,106.26,0,0,1,425,682.09c-1.56-.36-3.33-1.72-4.65-.15-1.07,1.28.36,2.79.72,4.19a2.62,2.62,0,0,0,.19.46c.91,2,1.11,3.88-.64,5.49a3.77,3.77,0,0,1-4.15.9c-2.22-.9-2.64-2.72-2.58-4.89a100,100,0,0,0-2-22.83c-.56-2.76-1.49-5.45-2.15-8.19-.42-1.73-.39-3.34,1.8-4,2-.6,3.13.38,3.95,2.06a23.49,23.49,0,0,1,2.41,10.11c0,1.62-.53,3.6,1.18,4.59,2.06,1.2,3.32-.86,4.76-1.78,3.5-2.23,7-4.43,9.72-7.74,1-1.29,2.44-2.42,4.32-1.29,2.09,1.26,1.4,3.11,1,4.9-.8,3.65-4.13,4.46-6.73,6.14-1.45.93-3.86,1.43-3.55,3.7.33,2.44,2.86,1.87,4.48,2.25a44.86,44.86,0,0,0,14.38,1.18c2.48-.23,4.84,0,4.88,3.35s-2.26,4-5.06,3.85C446,684.35,444.66,684.4,443.33,684.4Z"/><path d="M796.59,701a25.52,25.52,0,0,1,1-2.77c4-8,7.94-16.07,12.11-24,2.85-5.41,4.61-5.54,9-1.54a35.94,35.94,0,0,1,9.32,13.35c1.66,4.14,3.44,8.24,6.67,11.56,2.52,2.59,2.38,5.56-.52,7.74-3.32,2.48-4.81-.51-6.08-2.76-1.93-3.45-4.46-6.61-5.28-10.65-.48-2.37-2.14-3.22-4.49-2.64-5.17,1.27-9.68,3.37-12.11,8.6a42.61,42.61,0,0,1-3.86,6.36c-.87,1.25-2.09,2.18-3.83,1.38S796.32,703.35,796.59,701Z"/><path d="M891.34,706.49a64.9,64.9,0,0,1,14.16-27.4c2.84-3.32,6.41-2.55,8.93,1.71s4.66,8.2,10.65,6.64c1.2-.31,2.2.67,2.55,1.91s-.61,1.75-1.42,2.34c-5.91,4.27-6.1,4.51-.41,9.39,2.54,2.17,3.45,4.19,2.57,7.27-.37,1.29-.53,2.65-2.16,3s-2.86-.54-3.7-1.9c-1.82-3-3.63-6-5.4-9-3.81-6.48-10-6.56-14.28,0-2,3-3.67,6.3-5.59,9.41a3.07,3.07,0,0,1-3.9,1.37C891.5,710.55,891,709.07,891.34,706.49Z"/><path d="M104.11,677.15a35.86,35.86,0,0,0,1.21,5.38c2.23,6.3,7.67,7.88,13,3.79,4.93-3.76,8.7-8.66,12.66-13.37,1.84-2.2,3.93-4.58,7.06-2,2.93,2.46,2.14,5.34.25,8a62.63,62.63,0,0,1-15.75,15.1,9.44,9.44,0,0,1-9,1.28C105,692.2,100.71,685.59,99.32,677a21.56,21.56,0,0,1,7.32-20.64c4.37-3.82,10.32-2.57,13.27,2.4.81,1.36,1.23,2.73.16,4.17-1.26,1.73-2.53.81-3.9.11-5.14-2.64-7.68-1.76-10.19,3.42A26.73,26.73,0,0,0,104.11,677.15Z"/><path d="M325.42,666.71c0-10.31,0-10.35,10.16-11.08a43.86,43.86,0,0,0,10.78-1.84c1.93-.63,4-1.1,5.45.9.81,1.1,1.36,2.46.66,3.75-1,1.89-3,1.78-4.85,1.88-2.65.13-5.32.14-7.95.45a2.41,2.41,0,0,0-2.4,2.68c.21,1.67,1.59,1.75,3,1.89,2.4.25,6.32-2.49,6.53,2.46.17,4.24-3.78,3.23-6.33,3.84-.48.11-1,.18-1.45.33-2.42.81-6.84-1-5.73,4.41,1.06,5.14,4.79,7.89,9.19,6.9,1.95-.43,4.49-3.3,5.71.54,1,3.27-1.09,5.24-4,6.46-6,2.48-10.44,1.1-14.14-4.5C326.67,680.7,325.44,675.62,325.42,666.71Z"/><path d="M177.5,649.37c2.62-.15,4.49.35,4.72,2.6.25,2.47-1.34,3.61-3.75,3.5-7.1-.32-11.63,5.25-17.55,7.64a1.78,1.78,0,0,0-.91,2.52c.73,1.64,2.17,2,3.76,1.37,5-1.86,10.24-2.8,14.94-5.4,1.48-.82,3.46-2.59,4.65-.06s-1.49,3-3,3.65c-5.71,2.69-11.45,5.31-17.27,7.75-2,.82-3.75,1.32-3.47,4,.41,3.83.45,7.72,4.89,9.54,2.67,1.09,5,.71,6.77-1.38s3.3-4.58,4.91-6.89c.86-1.25,1.72-2.72,3.53-1.87s1.36,2.57.76,3.89a28.22,28.22,0,0,1-11.61,12.65c-2.22,1.34-4.54.54-6.55-.87a16,16,0,0,1-6.41-9.22,65.19,65.19,0,0,1-2-16.28,8.82,8.82,0,0,1,4.82-8.19c5.55-3,11.26-5.66,16.92-8.42A7.59,7.59,0,0,1,177.5,649.37Z"/><path d="M559,700.22c-4.72.86-7.54-2.15-10.21-5.52-.87-1.11-1.69-2.25-.6-3.54s2.39-1,3.61-.19c3.33,2.16,6.92,2.19,10.57,1.17,2.2-.61,5-1.11,5.12-4,.15-2.67-2.46-3.17-4.42-4-7-3-9.91-7.93-9.09-14.9.65-5.5,7.21-12.25,12.51-12.87a3.44,3.44,0,0,1,3.75,1.86,3.24,3.24,0,0,1-.72,4.09c-2.07,2.17-4.27,4.21-6.25,6.45-2.44,2.75-2.23,5.47.74,7.72,2.64,2,5.5,3.75,8.1,5.81,5.07,4,5,9.4,0,13.47C568.9,698.45,564.35,700,559,700.22Z"/><path d="M231.47,682.48c.08-5.42,1.93-9.46,4.16-13.39,2-3.45,3.87-7,5.62-10.51,1.57-3.2,2.86-3.77,6.41-1.65,8.78,5.25,11.52,14.63,16.72,22.32.94,1.39.48,2.51-.58,3.52s-2.42,1.74-4.05,1A10.72,10.72,0,0,1,253.6,677c-.76-2.29-.95-5.15-4.54-4.82-3.38.31-6.08,1.55-7.26,5-.8,2.35-1.12,4.92-2.73,6.89-1.39,1.69-2.42,4.48-5.29,3.56S231.74,683.9,231.47,682.48Z"/><path d="M521.39,690.47c-6.56-.05-12.08-6-11.89-12.88.18-6.52,7.55-14.27,13.38-14.06s15.32,9.84,15.45,15.88C538.44,684.66,529.46,690.52,521.39,690.47Zm1.46-7.72c5.78-.1,7.53-1.26,7.5-4.7,0-4.17-3.28-7.83-6.82-7.69s-6.76,4.09-6.68,8C516.94,682.76,520.37,682.36,522.85,682.75Z"/><path d="M728.88,672.15c9.19,0,14,3.85,14,11.09,0,6.92-7.35,13.09-15.57,13.08-6.71,0-11.52-5.74-11.42-13.6C716,675.05,719.61,672.14,728.88,672.15Zm-.81,5.71c-2.71.08-5.91.62-6,4.82-.12,3.92,2.23,6.11,6.06,6.4a25.15,25.15,0,0,0,5.39-.44c2.16-.3,3.77-1.38,4-3.71a5.57,5.57,0,0,0-2.56-5.52C733,678.16,730.82,678.29,728.07,677.86Z"/><path d="M210.53,691.17c-3.49-.29-5.57-1.72-6.62-4.48-3.4-8.85-2.86-18.3-4-27.48a2.56,2.56,0,0,1,2.71-2.93c2.17-.1,2.92,1.45,3.1,3.18.5,4.79.78,9.6,1.26,14.4.35,3.4-.12,7.57,3.59,9.21s7-1.07,10-3.06c.83-.54,1.56-1.23,2.39-1.78,1.42-.94,2.82-1,4,.45s1.51,3.16-.07,4.43A40.36,40.36,0,0,1,210.53,691.17Z"/><path d="M368.83,1587.5c.07,5.32-.27,10,1.15,14.54,1.15,3.7-.43,6.39-4.29,6.91-4,.54-4.47-2.52-4.52-5.55-.08-5,0-10-.21-15-.16-4.76-2-6-6.38-4.25a45.29,45.29,0,0,1-12.51,3.12c-4.95.48-6.58,2.73-6.13,7.71.23,2.46,1.45,4.82.62,7.37a4.26,4.26,0,0,1-4.39,3.35c-2.49,0-2.86-2-3-3.83-.18-2.65.9-6.27-.45-7.81-4.83-5.51-3.25-10.36-.88-16.25,1.19-3-.6-7.12-1.05-10.74-.26-2.09-.25-4.1,2.16-5,2.81-1,5-.77,5.17,2.94s-.2,7.64.56,11.45c.65,3.23,2.51,4.72,5.61,4.22,5.58-.9,11.12-2,16.65-3.14,2.8-.58,3.67-2.54,3.29-5.25a4.81,4.81,0,0,1,3.16-5.6c2.32-.9,4.55-.66,4.53,2.53C367.89,1575.6,369.89,1581.82,368.83,1587.5Z"/><path d="M635.85,1589.81c0-3.33,0-6.65,0-10,0-2.44,1-3.76,3.58-3.65s3.93,1.32,3.58,3.76c-1.35,9.27.66,18.63-1,27.87-.92,5.28-2.88,6.59-7.9,4.75-10-3.67-19.78-7.76-28.45-14.17-4.75-3.52-5.83-2.94-7,2.87-.53,2.6-.91,5.25-2.38,7.56-.66,1-1.46,1.91-2.76,1.82a2.77,2.77,0,0,1-2.38-2.25c-2.78-9.07-2.81-18.4-2-27.69.3-3.42,3.4-3.47,5.79-2.12a24.45,24.45,0,0,1,5.15,4.63c8.67,9.07,17.47,17.8,30.6,20.3,4.08.77,5.6,0,5.34-4.22-.19-3.15,0-6.32,0-9.48Z"/><path d="M480.16,1587.14c0,3.16,0,6.32,0,9.47-.12,5.72-1.85,7.13-7.48,5.74a67.7,67.7,0,0,1-16.09-6.59c-3.93-2.15-7.85-4.34-11.77-6.5-3.34-1.85-5-1-4.81,3,.14,3,.67,6-.75,8.83-1.1,2.19-2.55,4.18-5.22,3.87-3.15-.38-3-3.11-3-5.44a98.33,98.33,0,0,0-2.29-21.78c-.63-2.76-.38-5,2.09-6.51,2.76-1.75,5-.6,7.18,1.32a167.73,167.73,0,0,0,15.73,13,98.48,98.48,0,0,0,15.13,8.64c3.32,1.53,5.11.59,5.13-3.18,0-5.16.22-10.31-1.41-15.33-.86-2.62-.78-5.08,2.7-5.71s4,1.76,4.13,4.22c.16,4.31,0,8.63,0,13Z"/><path d="M261.42,1589c-.42,2.32-.77,4.19-3,4.67a4.55,4.55,0,0,1-4.86-1.82c-.7-.92-1.3-1.93-2-2.84-4.85-6.23-11.6-6.66-17.1-.89a77.1,77.1,0,0,0-5.83,7.47c-1.35,1.84-2.92,2.83-5.06,1.46s-2.26-3.28-1.47-5.29a28.93,28.93,0,0,1,2.46-4.32c4.29-7,6.87-14.74,9.28-22.53,2.08-6.72,6.42-7.7,11.28-2.49,6.64,7.14,10.24,16.31,15.83,24.17A5.43,5.43,0,0,1,261.42,1589Z"/><path d="M555,1606c1.44-.32,3.08-1.06,4,.73s.06,3.25-.9,4.66a8,8,0,0,1-10.69,1.82,15,15,0,0,1-2.21-2c-5.2-5.51-8.27-23-5.33-30a10.55,10.55,0,0,0,1.1-3.29c.2-3.8,2.41-4.63,5.73-4.46a42.7,42.7,0,0,0,17.21-2.28c1.92-.71,3.63-.82,4.46,1.55s-.27,4.06-2.46,4.59c-4,1-8.17,1.52-12.24,2.39-1.51.32-3.78.3-3.57,2.63.25,2.88,2.75,2,4.31,1.74,7.06-1.32,14.12-2.37,21.33-1.77,2,.16,4.32,0,4.15,3-.17,2.8-2.52,2.17-4.21,2.19a115.72,115.72,0,0,0-21.33,2.29c-2.85.57-6,1.61-6.08,5-.09,3.54,0,7.39,2.53,10.37C551.87,1606.32,553.5,1606.3,555,1606Z"/><path d="M379.83,1598.62a72.18,72.18,0,0,1,9.18-28.75c1.76-3.06,5-3.87,7-1.21,5,6.62,10.95,12.48,15.9,19.12,2.17,2.91,2.78,6.7,3.38,10.34.44,2.66-.25,4.59-2.79,5.7s-4.47.32-6.06-1.83a20.5,20.5,0,0,1-3.52-7.09c-.82-3.15-2.33-5.7-6.12-5.26s-7.36,1-8.28,5.72a23.28,23.28,0,0,1-1.7,5.18c-.85,1.86-2,3.61-4.54,2.9S379.74,1600.71,379.83,1598.62Z"/><path d="M505.89,1614.27a11.18,11.18,0,0,1-11.53-11.09,2.86,2.86,0,0,1,2.07-3,2.28,2.28,0,0,1,2.91,1.23,19.86,19.86,0,0,0,2,3.42c2.33,2.63,5.13,4,8.21,1.31,3.25-2.84,1.95-5.75-.75-8-4.66-4-7.22-9.07-8.62-14.8-1.48-6,1.3-11.65,6.22-13,2.27-.63,4.65-1.1,6,1.76,1.18,2.53.6,4.63-1.8,6-2.78,1.54-2.86,3.54-1.91,6.29,1.33,3.83,3,7.34,6.13,10a12.28,12.28,0,0,1,4.37,10.63C518.77,1611.42,515.18,1614,505.89,1614.27Z"/><path d="M140,1590.8c-3.7-.43-7.11-.31-10-2.35-1.54-1.09-3.08-2.31-2-4.48,1.2-2.44,3.08-1.33,4.68-.51,2.59,1.33,5.19,2.36,8.08,1.19,3.26-1.31,3.71-3.89.91-5.91a22.39,22.39,0,0,1-5.46-5,13.75,13.75,0,0,1,9.69-21.7c1.53-.18,2.66.36,3,1.9.6,2.52.27,4.62-2.66,5.53-4.64,1.44-6.31,4.74-5.13,9.28,1.13,4.34,4.76,6.23,8.63,7.51,2.62.87,5.17,1.48,5.27,5s-1.49,6-4.8,7.36A28,28,0,0,1,140,1590.8Z"/><path d="M181.17,1576.42c0-3.66,0-7.33,0-11,0-1.93.45-3.81,2.92-3.86a3.36,3.36,0,0,1,3.48,3.55,134.33,134.33,0,0,1-.21,13.46c-.58,9.11,1.44,10.92,10.23,8.58,2.24-.59,4.36-1.64,6.56-2.4,1.94-.67,4.05-1.28,5.23,1.12s1.27,5.24-1.3,6.66c-6.18,3.42-12.79,5.92-20,4.73-4.15-.68-6.19-4-6.52-7.87-.35-4.3-.08-8.65-.08-13Z"/><path d="M99,1572.35c0-4.83,0-9.65,0-14.47,0-2.06.41-3.8,2.78-3.92,2.59-.13,3.38,1.6,3.4,3.91,0,5.15.16,10.31.17,15.46,0,3.37.3,6.58,2.28,9.52s.42,8.84-2.81,10.17-4.79-.93-4.9-3.71c-.25-5.64-.08-11.31-.08-17Z"/><path d="M645.08,1985.84v-6.36c0-1.27.12-2.7-1.46-3.14s-2.3.78-3,1.79c-1.43,1.93-2.72,4-4.21,5.84-3.91,4.91-6.88,4.89-10.87,0-.26-.33-.52-.67-.77-1-1-1.32-2.08-2.49-3.87-1.77s-2.33,2.28-1.83,4.18c.75,2.86,0,5.63-.79,8.32a3.57,3.57,0,0,1-4.26,2.65c-2.36-.33-2.39-2.16-2.26-3.86a115.14,115.14,0,0,0,.12-18.57,6.7,6.7,0,0,1,2.55-6c1.83-1.49,3.48-1.79,4.85.64,2.23,4,6.08,6.2,9.53,8.85a4.26,4.26,0,0,0,6.4-.7c2.37-2.79,4.57-5.73,6.77-8.67,1.16-1.55,2.36-2.85,4.52-2.46,2.32.42,2.54,2.22,2.88,4.11a55.26,55.26,0,0,1,.9,11.77c-.16,4.12.24,8.22,2.55,11.83.91,1.42,1.44,2.85.36,4.3a4.16,4.16,0,0,1-4.1,1.69,4,4,0,0,1-3.39-3.35C644.93,1992.63,645.09,1989.23,645.08,1985.84Z"/><path d="M421.9,1965.69c6.14.07,10.66,5.94,9.57,12.87-.53,3.32-1.78,6.52-2.66,9.78-.95,3.53-.19,4.36,3.35,4,5.82-.62,11.86.3,17.28-3,1.5-.92,2.94.23,3.78,1.79,1.38,2.56,2.32,5.21.87,8-.93,1.83-2.56,1.2-4.11.89-9.75-2-19.37-1-28.91,1.39-3,.74-6,1.53-7.45-2.35-1.33-3.62.85-5.65,3.73-7,6.19-2.92,6.84-9,8.15-14.5.61-2.61-1.9-3.18-4-2.68-2.32.54-4.53,1.54-6.84,2.12-1.37.35-3,.35-3.84-1s-.19-2.74.74-3.88C414.25,1968.79,417.1,1965.65,421.9,1965.69Z"/><path d="M593.89,1978.37a20,20,0,0,1-14.21,19.44c-4,1.31-8.2,2-12.14,3.57-2.36,1-4.5.06-6-1.88a4.52,4.52,0,0,1,.2-6.18c3.06-3.59,3.16-7.68,2.07-12-1-3.95-2.39-7.82-2.1-12s1.59-4.89,5-2.81,6.88,1.3,10.28.53c5.18-1.19,9.45.68,13.46,3.48C593.13,1972.37,593.83,1975.29,593.89,1978.37Zm-16.09-5.81c-.85,0-1.7-.06-2.54,0-6.25.54-8,2.8-6.64,8.91a33.91,33.91,0,0,1,.61,7.16c0,3,1.78,4.29,4.52,4.58,6,.62,14.83-8.2,14.26-14.29a6.26,6.26,0,0,0-2.82-5C582.94,1972.53,580.35,1972.53,577.8,1972.56Z"/><path d="M666.27,1996.28c-.6-5,1.34-9.09,3.51-13.1s4.31-7.86,5.1-12.46c.7-4.06,4.89-5,7.65-1.81,2.44,2.84,5.32,5.47,5.84,9.63.32,2.59,2.1,3,4.4,2,1.38-.61,3-1.6,4.19.15,1.3,2-.77,2.65-1.83,3.6-4,3.66-3.81,6.34,1.34,10.17,2.26,1.68,3.84,3.21,2.64,6.26-1.36,3.45-3.89,4-6.44,1.29-2.11-2.27-2.58-5.28-3.52-8.08-.87-2.57-.68-5.92-4.45-6.4s-8.21,2.16-9.77,5.55c-.94,2.05-1.67,4.19-2.56,6.26-.78,1.8-1.41,4.08-4,3.36-2.24-.61-2.24-2.62-2.06-4.55A16.82,16.82,0,0,0,666.27,1996.28Z"/><path d="M126,1975.72a44.69,44.69,0,0,1-2.56,14.5c-1.37,3.72-.14,5,3.74,4.26,3.17-.65,6-2.55,9.35-2.56,2.63,0,5.47.14,5.37,3.78-.11,3.46-2.82,3.22-5.31,3.18a45,45,0,0,0-22.78,5.53,17.63,17.63,0,0,1-8.91,2.2c-1.81,0-3-.75-3.34-2.56s.85-2.79,2.46-3.38c14-5.14,17.69-10.78,17-25.57-.14-2.88-.91-5.38-3.73-6.59s-4.47.83-6.16,2.56c-2.27,2.32-4.49,4.69-6.79,7-1.22,1.22-2.64,1.72-4.11.36-1.27-1.19-1.8-2.75-.69-4.18,4.2-5.41,9-10.31,15.78-12.18,4.63-1.28,8.68,1.66,9.73,6.5C125.65,1971.17,125.8,1973.87,126,1975.72Z"/><path d="M760.45,1981.36c.08-9.65,6.36-16.58,15.22-16.95,3.81-.16,6.1,1.75,7.61,5,.52,1.1.61,2.32-.43,3.09s-1.92,0-2.6-.72c-2.4-2.64-5.1-3.48-8.29-1.48-3.72,2.34-7.62,4.4-7.43,9.86.35,9.7,3,14.43,9.77,16.43,4.18,1.25,5.75.38,6.42-4a21.16,21.16,0,0,1,7.16-13.56c1.41-1.2,2.8-3.24,5.1-1.73s4.27,3.35,3.88,6.52a18.42,18.42,0,0,1-3.93,9.24c-.27.33-.54.66-.82,1-5.6,6.27-15.38,9.66-21.34,7.41S760.38,1990.37,760.45,1981.36ZM791,1984.5c-1.88.11-5.33,4.61-5.31,6.71,0,1.25.54,1.78,1.8,1.69,2.08-.13,5.19-4.08,5.17-6.56A1.6,1.6,0,0,0,791,1984.5Z"/><path d="M474.16,1995.85c-7.71.06-12.76-4.48-12.81-11.53s6.76-15.55,12.43-15.53c9.17,0,18.26,7.63,18.11,15.15C491.77,1990.16,483.42,1995.77,474.16,1995.85Zm2.56-18.26c-4.94,0-7.44,2-7.57,5.73-.12,3.3,1.64,4.92,4.77,5.28,5.12.59,9.57-1.49,10.2-4.77a4.61,4.61,0,0,0-2-4.78A7.88,7.88,0,0,0,476.72,1977.59Z"/><path d="M346.47,1995.56c-7-.93-12.38.9-17.75,2.71-1.64.56-3.29,1.08-4.91.14-2.48-1.43-2.32-4.53.73-6.5,6.18-4,8.73-9.7,9-16.8.07-1.94.12-3.78-1.81-4.79a5.14,5.14,0,0,0-5.94.72,14.92,14.92,0,0,1-2.71,2,3.05,3.05,0,0,1-3.51-4.7,21.84,21.84,0,0,1,2.14-2c5.54-4.92,8.93-5.86,12.79-3.58,4.06,2.42,6.49,9.23,5,14.75a30.64,30.64,0,0,1-2.56,7.14c-1.76,3.19-.45,5.18,3.26,5.05a16.13,16.13,0,0,0,8.16-2c1.84-1.13,3.73-1.4,5.49.16a3.72,3.72,0,0,1,1.09,4.59,4.76,4.76,0,0,1-5,3.13C348.39,1995.48,346.84,1995.56,346.47,1995.56Z"/><path d="M830.81,1992a21.72,21.72,0,0,1-9.84-2c-3.1-1.34-5.22-.77-5.9,2.85-.29,1.52-.4,3.41-2.51,3.28s-1.84-2.1-2-3.59a49.41,49.41,0,0,0-5.25-16.45c-.63-1.29-2.15-2.6-.63-4.16a2.83,2.83,0,0,1,2.72-.88c1.77.51,2.31,1.92,2.32,3.62q0,.42,0,.84c.08,1.07.4,2,1.67,2s1.67-.82,1.82-1.89c.49-3.58,1.64-6.76,4.52-9.25,2.3-2,4.69-3.21,7.71-2.22s4,3.7,4.48,6.61c.64,4-.36,7.81-1.67,11.59-1.52,4.42-.83,5.35,3.79,5.34,3.34,0,6.81.64,9.83-1.63,1.15-.86,2.63-1.66,3.44.36.73,1.81-.29,3.08-2,3.57A41.3,41.3,0,0,1,830.81,1992ZM826,1974.28c-.25-1.71.56-4.31-2.64-4.57-3.45-.29-7.44,3.91-7.48,7.79,0,3.12,2.07,3.58,4.54,3.62C824.37,1981.18,825.9,1979.4,826,1974.28Z"/><path d="M241.46,1995.68c.39-6.21-1.73-8.79-8-8.51-5.89.26-9.61-2.12-12.18-7.23s-2.19-7.14,2.21-10.53a25.33,25.33,0,0,1,9.2-4.17c1.45-.38,2.93-.65,3.63,1a3,3,0,0,1-1.43,4,27.62,27.62,0,0,1-4.35,1.52c-1.33.45-2.79.69-3.39,2.23-1,2.5,1.57,6.39,5.11,7.83,4.19,1.69,7.2.78,8.5-2.61,1.09-2.86.63-5.87.87-8.82.14-1.77.44-3.61,2.67-3.63s2.77,1.64,3.09,3.43c.9,5,1.69,10-.16,15-1.07,2.91-.55,5.69,2,7.66,1.84,1.45,2.78,2.84,1.11,4.89s-2.91,5-6.21,4.15c-2.62-.67-3.2-2.93-2.69-5.45A8.17,8.17,0,0,0,241.46,1995.68Z"/><path d="M380.62,1994.56c-9.53.07-13.64-3.48-13.55-10.52.12-8.56,6.06-15.42,13.26-15,6.72.38,12.25,3.18,15.76,9.12,2.46,4.16,2,6.91-1.53,10.16A23.29,23.29,0,0,1,380.62,1994.56Zm2-16.32c-1.35.21-3.17.39-4.94.81-2.79.67-3.8,2.72-3.6,5.39s2.25,3.79,4.65,4a23.07,23.07,0,0,0,5-.49c4.36-.69,6.89-2.92,6.34-5.87C389.32,1978.05,386,1978.46,382.59,1978.24Z"/><path d="M908.24,1978.27c0,7.42-6.66,17.37-13.54,20.29-4.41,1.87-9.19-.23-10.22-5.15a151.12,151.12,0,0,1-2.42-18c-.32-3.75,2.08-6.14,5.64-6.91a25,25,0,0,1,15,1.16A8.23,8.23,0,0,1,908.24,1978.27Zm-12.35-4.22c-4.73,0-7.79,1.86-7.76,5.38a83.36,83.36,0,0,0,1.18,11.77c.39,2.59,2,3.33,4.26,1.75,3.37-2.38,6.5-5,8.5-8.73C905.35,1978.11,902.9,1974.08,895.89,1974.05Z"/><path d="M180.59,1980.63a19.54,19.54,0,0,1-.51,3.12c-2.45,7.2-15.94,13.5-23.09,10.82-4.22-1.58-7.35-6.29-7.52-11.33-.14-3.91,3.51-10.07,6.94-11.42,1.09-.43,2.55-1,3.5.25s.27,2.43-.59,3.47a43.56,43.56,0,0,0-3,3.58,7.58,7.58,0,0,0,.3,9.1c1.88,2.67,4.56,2.39,7.26,1.7a22.63,22.63,0,0,0,8.09-3.54c4.2-3.14,4-6.64-.56-9.24a55.85,55.85,0,0,0-6.21-2.63c-1.53-.64-2.23-1.71-1.6-3.36.55-1.43,1.69-2.81,3.14-2.21,4.89,2,10.19,3.56,13,8.62A11.25,11.25,0,0,1,180.59,1980.63Z"/><path d="M849.5,1991.46c-3-4-1.92-7.3,3.4-9.89,1.74-.84,1-3.92,1-6,0-2.38.76-4.17,3.27-4.74s5,.13,5.85,2.82a9.85,9.85,0,0,0,5.87,6.2c1.67.75,2.82,1.82,1.31,3.93a5.16,5.16,0,0,0,2.39,8.15c1.63.64,2.86,1.15,2.65,3.12a3.05,3.05,0,0,1-2.2,2.82c-1.78.53-3.57.3-4.49-1.38a47.43,47.43,0,0,1-2.75-6.61c-.62-1.71-.82-3.71-3.29-3.76a5.58,5.58,0,0,0-5.31,2.83c-.91,1.59-1.62,3.28-2.51,4.87s-1.67,3.17-3.84,2.5S849.44,1993.87,849.5,1991.46Z"/><path d="M926.86,2004.84a10,10,0,0,1-2.89-.49,3,3,0,0,1-1.93-3.43c.3-1.45,1.66-1.31,2.8-1.15,2.58.37,4.64-.84,6.72-2.08,1.36-.81,2.92-1.5,2.77-3.38s-1.7-2.78-3.42-3.29c-5.4-1.59-9.66-4.6-12.24-9.74-3.3-6.57,2.55-16,9.89-15.85,1.6,0,3.71-.17,4.15,2.06.53,2.66-1.85,2.34-3.32,2.79-3,.9-5.49,2.43-6.33,5.65s1.93,4.65,3.85,6.43a26.3,26.3,0,0,0,8.68,5.19c5.45,2.08,6.86,8.26,2.7,12.43A16.3,16.3,0,0,1,926.86,2004.84Z"/><path d="M296,1997c0,2-.41,3.82-2.61,4.26s-3.32-1.44-3.94-3.11c-2.7-7.25-5.35-14.53-7.78-21.87-1.73-5.23-3.41-10.4-6.58-15-1.59-2.3-2.72-5-1.54-8,1.1-2.77,3.22-3.15,5.13-.88a21.82,21.82,0,0,1,3.55,7.16q3.88,11.16,7.54,22.4c1.27,3.89,2.48,7.8,5.07,11.07A6.3,6.3,0,0,1,296,1997Z"/><path d="M196.66,1968.07c-.12-.79.56-1.77,1.94-2.19a3,3,0,0,1,3.61,1.5,8.93,8.93,0,0,1,1,4.9c0,6.47-.12,12.91,3.21,18.9,1.46,2.62-.47,4.31-2.94,4.91s-4.3-.08-4.39-3C198.78,1984.94,198.62,1976.78,196.66,1968.07Z"/><path d="M620.05,1405.44c.61-4.6,3.58-6.75,6.58-8.9a12.69,12.69,0,0,0,4.64-5.1c.5-1.13.45-3,2.2-2.91,1.93.09,2.86,1.79,3.17,3.41.81,4.24,1.23,8.56,2.06,12.8.38,2-.59,4.88,2.23,5.51,2.53.56,4.41-1.46,5.79-3.28,1.7-2.23,2.85-4.87,4.42-7.21a27,27,0,0,1,4.31-5.44c2.58-2.26,5-1.77,6.11,1.67a34.39,34.39,0,0,1,1.63,9.31c.28,5.65.59,11.35,3.85,16.31,1,1.47,1.06,2.81-.52,3.86-1.85,1.23-3.23.32-4.12-1.29-1.1-2-2-4.14-2.91-6.17-.55.16-1,.15-1.09.33-10.56,18.42-21.59,16.37-36.94,12.25-4.48-1.2-6.79-4.72-7.3-9.21s-.63-9-1-13.44c-.24-2.65.62-6.43-3.4-6.6s-3.63,3.72-4.16,6.32c-.7,3.41-.9,6.93-1.51,10.37-1.2,6.68-3.08,7.64-9.13,4.8-3-1.42-6-2.9-8.93-4.46-3.41-1.82-5.67-.85-7.15,2.59-1.25,2.89-2.46,5.82-4,8.57-1.08,2-2.78,3.42-5.34,2.71-2.37-.65-2.8-2.71-3-4.71-.82-7.27-1.53-14.56-2.28-21.85-.18-1.79.07-4-2.39-4.3-2.19-.27-2.52,1.8-3.14,3.29a60.13,60.13,0,0,1-12.06,18.79c-2.64,2.76-5.18,3.4-8.83,1.44-8.69-4.67-11.88-4-18.86,3.24-1.57,1.62-2.89,4.13-5.67,3.19-2.56-.86-2.68-3.56-3.23-5.78-1.57-6.36-.75-13-1.82-19.36-.58-3.49-.16-8.57-4.91-8.44-4.27.11-3.23,5-3.61,8.14-.41,3.29-.43,6.64-.54,10a13.52,13.52,0,0,1-4.75,10.08,4.32,4.32,0,0,1-4.56,1.15c-1.71-.61-1.77-2.19-1.88-3.73-.3-4.32-.6-8.64-1.06-12.95-.23-2.15-.63-4.55-3.33-5s-3.56,1.92-4.41,3.92c-1.56,3.67-3.17,7.32-4.64,11a6.3,6.3,0,0,1-7,4.36c-3.44-.28-4.23-3-4.79-5.57a40,40,0,0,1-.56-6.94c-.07-1.8-.4-3.49-2.43-3.79a2.73,2.73,0,0,0-3.05,2.7c-.71,9.85-6.19,12.41-15.4,11.69-5.67-.44-11.51,1.45-17.29,2.19-6.18.8-7.34-.43-5.76-6.34,2.29-8.54,1-17.22,1.18-25.84a4.6,4.6,0,0,0-.89-2.26c-3.23-5.14-2.06-8.61,3.63-10.87,1.06-.42,2-.52,2.64.46,2.8,4.1,6.79,3.54,10.81,2.81,6.22-1.13,6.7-.9,7.89,5.44,1.23,6.54,2.22,13.12,3.36,19.68.3,1.72,0,4,2.58,4.19s2.54-2.07,3-3.81c1.68-6,1.85-12.14,1.65-18.33-.08-2.21-.93-4.92,2.28-5.8,2.85-.78,3.81,1.24,4.54,3.42.61,1.83,1.54,1.54,3,.83,4.61-2.19,5.55-1.55,6,3.65,0,.66,0,1.33,0,2,0,2.5,1.17,4.15,3.64,4.65,2.66.53,4.67-.56,5.49-3.12,1-3.15,1.62-6.43,2.54-9.62.66-2.24,1.41-4.67,4.13-5.14,3.05-.53,2.53,2.44,3.48,4,.17.28.4.53.58.8,5.75,8.56,5.9,8.56,11.72.23,1.3-1.86,2.28-4.3,5.26-3.77,2.81.5,2.74,3,3.28,5a90.46,90.46,0,0,1,3.52,26.13,35.38,35.38,0,0,0,.07,4c.16,1.62.78,3,2.75,2.82a2.64,2.64,0,0,0,2.71-2.94,53.72,53.72,0,0,0-.77-5.93c-1.28-7.2.78-12.78,7.55-16.28,2.52-1.3,4.9-2.77,5.56-6a3,3,0,0,1,3.25-2.57,3.77,3.77,0,0,1,3.59,3c1.91,7,5,13.78,5.61,21.17.1,1.28-.3,3,1.41,3.33,1.52.32,2.27-1.16,3.07-2.19,4.74-6.14,7.36-13.38,10.57-20.31,1-2.16,1.82-4.41,4.65-4.63,3.25-.25,3.22,2.66,4.43,4.52,2.63,4,5.54,7.89,8.34,11.81,2.12,3,4,2.57,5.48-.52,1.83-3.73,3.45-7.57,5.42-11.23,2.34-4.35,4.35-4.32,7-.11,2.86,4.62,4.86,5.08,9.32,2.16.7-.46,1.34-1,2-1.45,2.28-1.54,4.3-4.73,7.27-3.4,3.27,1.46,3.64,5.33,4.22,8.57C617.62,1399.82,617.15,1402.62,620.05,1405.44Zm-178.84,4.28a29.2,29.2,0,0,0,0-4c-.45-3.1-2.31-4-4.94-2.45-3.9,2.37-4.55,6.71-5.77,10.63-.27.87.61,1.39,1.41,1.76C436.05,1417.61,441.45,1414.2,441.21,1409.72Zm95.76.91c0-3.69-1.42-6.88-3-6.87-2.87,0-3.64,2.46-4.61,4.53a26.29,26.29,0,0,0-1.13,3.27c-1.05,3.42.72,5.46,4.19,4.7C535.71,1415.55,536.86,1413.15,537,1410.63Zm96.82,6.22h.12c0-1.64.08-3.29,0-4.93a2.52,2.52,0,0,0-1.8-2.16c-.88-.34-2,0-2.11.71-.62,4-3.7,7.44-2.94,11.75.3,1.7,1.13,3.2,3.17,3.19s2.94-1.39,3.2-3.15S633.67,1418.65,633.79,1416.85Zm-39.59-7.71c-.79-2.92.1-7.5-4.47-8-3.43-.34-3.41,3.32-3.7,5.88-.45,4,2.18,5.67,5.54,6.12C594.3,1413.55,594,1411.14,594.2,1409.14Zm-169.59-10.72c.28,1.4,0,3.47,2.21,3.06,4.08-.73,2.91-4.65,3.85-7.23a2,2,0,0,0-1.95-2.76C424.47,1392,425.46,1395.75,424.61,1398.42Z"/><path d="M181.14,1403.75c-.16,2.17-.28,4.67-.54,7.14-.2,1.9-1.33,3.14-3.3,3s-3.21-1.47-2.89-3.38c1.4-8.52-.18-16.93-.71-25.38-.1-1.69.2-3.39,2.24-4a4.44,4.44,0,0,1,5,1.39c2.94,3.39,5.71,7,8.83,10.18,5.13,5.3,8,5.1,12.56-.65,2.18-2.73,4.14-5.64,6.31-8.38,1.48-1.89,2.64-4.67,5.81-3.69,3.4,1.06,2.73,4.16,2.87,6.73.19,3.33.21,6.66.41,10a19.91,19.91,0,0,0,3,9.92c1.22,1.87,1.59,3.64.11,5.48-1.19,1.48-2.87,1.55-4.57,1.32-2.38-.33-3.44-2-3.59-4.15-.27-4-.37-8-.53-12-.08-1.79.39-4-1.77-4.76-2.54-.88-3.35,1.52-4.45,3.09-7.79,11.14-9.22,11.31-18.2,2.16-1.46-1.49-2.64-4.08-5.16-3.1s-1.33,3.73-1.44,5.77C181.09,1401.43,181.14,1402.43,181.14,1403.75Z"/><path d="M324.14,1394.28c-.87-5.37.84-10.67,5.32-15.11,2-2,4-3.13,6.39-.73,2.15,2.17,2,4.55-.07,6.59-3.33,3.22-5.95,6.63-5.84,11.63.13,5.81,3,9.71,7.89,12.36,3.18,1.74,5.4.84,6.33-2.8a28,28,0,0,1,5.87-12c3-3.43,6.58-5.25,11.05-3.08,4.2,2,4.45,6,3.92,9.92-1.49,11.05-16.07,19.39-26.46,15.28C327.94,1412.18,324.25,1406.72,324.14,1394.28Zm35.53,7.21a2.56,2.56,0,0,0-3.53-2.77c-2.22.63-7,7.12-6.94,9.31,0,1.08.7,1.37,1.6,1.44C353.43,1409.66,359.54,1404.16,359.67,1401.49Z"/><path d="M267,1388.35c0-.34,0-2.17,0-4s.24-3.76,2.21-4.65c2.19-1,3.33.68,4.56,2a74.92,74.92,0,0,0,19.24,14.9c1.84,1,3.8,2.79,5.94,1.33s1.93-4.18,1.51-6.43c-.48-2.59-1.69-5-2.21-7.62s-1.07-5.69,3-6c3.5-.26,4.07,2.21,3.89,5-.37,5.9,2.2,11.43,2,17.3-.23,7.23-2.36,8.71-9,6-5.56-2.28-10.62-5.48-15.73-8.6s-6.59-2.52-7.13,3.46a2.75,2.75,0,0,1,0,.5c-.64,2.78-.17,6.79-4.37,6.6-4-.18-2.44-4-2.88-6.37a58.91,58.91,0,0,1-.55-6C267.34,1393.82,267.23,1391.83,267,1388.35Z"/><path d="M153.38,1376.12c1.17.08,2.33.14,3.49.23,2.41.21,3.62,1.47,3.4,4-.23,2.67-2.19,2.64-4,2.38-2.68-.38-5.25-.65-7.68,1s-3.14,3.38-1.65,5.9c1.57,2.67,3.23.88,5.06.22,2.14-.79,4.93-4.66,6.56-.65,1.46,3.6-3,3-5,3.73-5.68,2.08-7.89,5.57-6.81,11.51.33,1.8.76,3.58,1.17,5.36.5,2.19,1.3,4.27,3.77,4.8,2.19.46,3.14-1.45,4.38-2.75s2.52-3.85,4.72-1.72c1.86,1.81-.21,3.21-1.36,4.56-2.65,3.12-5.33,6.28-10.07,4.5-4.52-1.69-5.75-5.6-6.32-9.93-.6-4.58.77-10-4.92-12.62-1.17-.55-.59-1.61-.17-2.59,1.51-3.5,2.89-7.06,4.33-10.59C144.29,1378.44,147.65,1375.49,153.38,1376.12Z"/><path d="M99.64,1399.32c0-7.8,0-15.6,0-23.4,0-1.71-.53-4.06,2.4-3.92,2.61.12,2.59,2.29,2.53,4.09-.25,8-.77,16-.9,23.94s1.36,9,8.76,6.32c3.88-1.41,8-2.36,11.34-5,1.49-1.18,3.1-.92,4.52.39s2.24,2.47,1.89,4.35c-.38,2.06-2,2.66-3.69,2.66-4.48,0-8.36,2-12.41,3.47-11.36,4.18-15.1,1.58-15.13-10.37v-2.5Z"/><path d="M250.91,1408a3.38,3.38,0,0,1-3.4,4c-2.72.14-4.5-1.34-4.33-4.24a74.46,74.46,0,0,0-2-21.76c-.54-2.24-.13-4.43,2.9-4.72,2.82-.26,3.82,1.42,4.11,3.87C249.1,1392.52,250,1400,250.91,1408Z"/><path d="M615.13,506.69c.27-2.63.44-6.63,1.16-10.54.9-5,3.93-6.28,8.35-3.72a36.76,36.76,0,0,1,9.88,8.27c3.35,4,5.41,4.05,8.88.22,2.78-3.08,5.35-6.36,8.15-9.42,2.55-2.77,4.79-2.39,5.72,1.24,1.9,7.39,3.39,14.85,7.47,21.53,1.49,2.45.6,5-2.35,6s-4.49-.58-5.08-3.23c-.89-4.06-1.57-8.15-2.42-12.22-.37-1.75-.49-3.88-2.81-4.21-2-.28-2.93,1.38-3.72,2.82a40.21,40.21,0,0,1-6.82,8.53c-3.06,3.14-5,2.9-6.54-1.27-1.26-3.49-3.83-5.25-6.62-7-1.27-.81-2.57-1.66-4.13-.65a3.68,3.68,0,0,0-1.55,4.36,13.51,13.51,0,0,1-1.86,11c-.68,1-1.27,2.68-2.87,2.37s-2.35-1.75-2.79-3.23C614.26,514.33,615.29,511.19,615.13,506.69Z"/><path d="M223.17,501.32a26.51,26.51,0,0,1-12.81-3.61c-4.18-2.24-8-2.68-10.29,2.58-.67,1.51-1.77,2.43-3.55,2a3.15,3.15,0,0,1-2.58-3.74c1.59-6.64,0-12.84-2.08-19-.52-1.59-.47-3.07,1.09-3.92s2.78,0,3.69,1.43c1.57,2.52,3.3,2.53,5,.07,2-3,5.44-3.68,8.39-5.1,2.31-1.12,4.9-1.61,6.92.59a7.08,7.08,0,0,1,1.63,7.82c-1,2.62-2.93,4.35-5,6-3.45,2.79-3.36,4.39.43,6.7a14.88,14.88,0,0,0,13.82,1.37c1.57-.62,3.32-2.58,4.41.33a4,4,0,0,1-2.18,5.43C227.83,501.38,225.5,501.34,223.17,501.32Z"/><path d="M171.78,504.2c-4-.19-6.9-1.52-9.85-2.66-4.24-1.64-7.91-1.69-9.53,3.58-.45,1.48-1.19,2.39-2.83,2.11a2.84,2.84,0,0,1-2.56-2.67c-.58-7.46-3.77-14.09-6.39-20.91-.6-1.56-1.28-3.38,1-4.17s3,.9,3.56,2.52c1,2.55.47,6.7,3.66,7,3.45.32,3.46-4.27,5.37-6.41a35.42,35.42,0,0,1,3.18-3.79c3.62-3.06,8.95-3.2,11.94-.49,2.52,2.27,2.3,8.19-.34,12.59-1,1.73-4.55,2.91-1.89,5.68a7.46,7.46,0,0,0,8.26,1.9,27.83,27.83,0,0,0,4.44-2.21c2-1.18,3.82-1.35,4.91,1.15s-.38,4-2.47,4.53C178.55,502.94,174.78,503.57,171.78,504.2Zm-12.51-14.63c3.68,0,6.19-2,6.06-4.63a2.52,2.52,0,0,0-2.84-2.69c-2.6,0-6.29,3.43-6.1,5.67S158.27,489.27,159.27,489.57Z"/><path d="M590.74,521.48c-3.38-.82-5.08-3.61-6.57-6.63-1.11-2.25-1.07-5.63-4.75-5.51a9.9,9.9,0,0,0-8.61,5.12c-1.16,2-1.88,4.25-3,6.28-1,1.85-2.46,3.26-4.84,1.93-2.06-1.14-1.85-2.76-1.17-4.7,1.91-5.45,3.1-11.15,7.06-15.75,1.58-1.83,2.15-4.45,2.5-7,.32-2.31,1.34-4.18,3.81-4.65s4,.92,5.15,3c2.87,5.28,6.46,9.41,13.37,7.88a1.86,1.86,0,0,1,2.41,1.21,2.23,2.23,0,0,1-1.35,2.86c-.89.43-1.89.64-2.78,1.07-1.16.54-2.72.82-2.76,2.49,0,1.52,1.31,2.22,2.37,3a12.42,12.42,0,0,0,2.18,1.19c2.1,1,3.1,2.6,2.35,4.84S593.28,521.22,590.74,521.48Z"/><path d="M380.58,485.41c-.22,5.24,1.74,7.11,7.47,6,5.29-1,10.24-2.88,12.82-8.28,1.23-2.58,2.59-2.62,4.34-.29a19.84,19.84,0,0,1,4.47,11.87,43.46,43.46,0,0,0,1.3,10.85c.54,1.95.53,4.19-2.11,4.8-2.4.55-4.22-.54-5.28-2.76s-.69-4.89-.81-7.36c-.32-6.33-2.84-7.93-8.75-5.69a23.18,23.18,0,0,1-5.2,1.56c-6.6.8-7.52,1.95-6.37,8.63.26,1.47.56,2.93.79,4.41.3,1.95-.42,3.34-2.48,3.54-1.9.2-3.37-.77-3.51-2.72-.53-7-5-13.71-1.57-21,1-2.07.22-4.27-.44-6.33-.7-2.22-1.3-4.52,1.9-5s3.21,2.16,3.41,4.32C380.66,482.9,380.58,483.9,380.58,485.41Z"/><path d="M466.56,509.52c-1.14-6.7-2.2-13.41-3.47-20.08-.45-2.33-.91-4.53,2.15-5,3.22-.47,3.72,1.8,3.93,4.4.49,6.35,2.16,7.81,8.48,7.43,4.31-.25,8.62-.64,12.91-1.12,2.9-.32,5.33-1.15,3.95-5.06-.71-2-.73-4.12,2.11-4.57,2.43-.38,3.82,1,4.26,3.22.86,4.4,1.4,8.87,2.37,13.24a79.23,79.23,0,0,0,3.09,10.48c1.07,2.9.68,5-2.4,5.83s-4.92-.77-5.26-3.74c-.32-2.79-.12-5.64-.24-8.46-.29-6.59-3-8.66-9.31-7.2a139.11,139.11,0,0,1-13.63,2.86c-4.71.59-5.51,2.54-3.57,6.92a14.92,14.92,0,0,1,1.25,2.7c.49,2.26.5,4.6-2.49,5-2.59.3-4.6-.8-4.82-3.77a21.18,21.18,0,0,1,.15-3Z"/><path d="M99,495l4-3.55c3.18-2.81,2.87-5.32-.62-7.6-1.47-1-3.71-1.59-3-3.95.73-2.51,3.12-2.1,5.05-2.08,6.65.09,13.35.52,19.2-3.64a2.2,2.2,0,0,1,3.44.58c.83,1.31.31,2.53-.82,3.52a16.92,16.92,0,0,1-9.93,4.16,21.52,21.52,0,0,0-4.87.86c-2.41.8-2.48,2.9-2.13,5,.41,2.38,2.09,2.78,4.13,2.25,1.76-.46,3.51-1,5.24-1.56,2.1-.69,4.06-.91,4.69,1.84.57,2.51-1,3.69-3.18,4.16-1.45.32-3,.31-4.43.67-2.54.64-5,1.89-5,4.78,0,3.71,1.1,7.37,4.49,9.49,2.65,1.66,5.15.37,7.21-1.55a29.67,29.67,0,0,0,2.84-3.44c.74-.94,1.48-1.93,2.86-1.25s1.42,2,1,3.43c-1.69,5.83-6.58,9.76-11.48,9.23-5.7-.63-9.85-5.2-10.46-11.53C106.47,497.34,106.33,497.16,99,495Z"/><path d="M536.45,509c0-4.82-.06-9.65,0-14.47.06-3.77-1.52-5.67-5.42-5.14-3.12.42-6.22,1-9.35,1.39-2.05.23-4.12.16-4.51-2.64-.37-2.65.87-4.21,3.35-4.66,8.15-1.5,16.56-1.71,24.26-5.32a2.4,2.4,0,0,1,3.09.94c.9,1.34.16,2.51-.52,3.68-4.11,7.2-6.62,14.83-6.59,23.22a47.53,47.53,0,0,0,2.94,16.1c.69,1.89,1.46,3.85-.52,5.47a4.44,4.44,0,0,1-4.72.63c-2-.87-2-2.88-2-4.72,0-4.83,0-9.65,0-14.48Z"/><path d="M275.57,497.15c-4-1.59-9.22-.41-14.32-1.2-3.77-.58-6.28.71-5.92,5.08.16,2-.2,3.86-2.49,4.16-2.58.34-3.37-1.65-3.82-3.72-1.17-5.35-2.16-10.75-3.53-16.05-.66-2.54-2.05-4.88-3.06-7.34-.61-1.49-.8-3,1-3.81a2.67,2.67,0,0,1,3.81,1.27c.81,1.62,1.49,3.32,2.14,5,1.6,4.18,2.71,4.47,5.87,1.38,2.37-2.32,4.67-4.73,7.09-7,1-1,2.44-1.52,3.54-.31s.62,2.55-.41,3.58a64.93,64.93,0,0,1-5.13,4.69c-1.34,1.07-2.81,1.95-2.18,4s2.27,2.38,4,2.4c4.84.07,9.45,1.92,14.35,1.64,2.22-.12,3.28,1.36,3.24,3.54C279.7,496.47,278.76,497.57,275.57,497.15Z"/><path d="M692.33,518.48c-7.73-.11-11.2-3.73-11.19-10.4,0-7.58,5-13,13.87-15.06,7-1.6,11.76.59,14.75,6.73,1.4,2.87,1.77,5.7-.24,8.43A24.54,24.54,0,0,1,692.33,518.48Zm.88-7.31a15.65,15.65,0,0,0,7.41-1.44c3.54-1.81,5.19-6.22,3.54-9.22-1.84-3.32-5.73-4.09-9.46-1.61a31.69,31.69,0,0,0-4.8,4.26c-1.62,1.65-2.4,3.7-1.24,5.89S691.83,511.21,693.21,511.17Z"/><path d="M451.67,497.59a63.29,63.29,0,0,1-1.4,6.31c-1.66,5-6.6,9.3-10.76,9.2-5.18-.12-7.33-4.1-9.26-8-2.47-5-2.77-10.58-3.37-16-.15-1.33-.14-2.82,1.71-3.05,1.69-.21,2.25.93,2.69,2.33q1.94,6.19,4,12.33c.89,2.58,1.95,5.23,5.33,5s4.64-2.85,5.55-5.65c1.07-3.26-.26-6.22-1.14-9.25-.6-2.07-1.69-4.55,1.39-5.36,2.83-.73,3.15,2,3.57,3.8C450.63,492,451.68,494.65,451.67,497.59Z"/><path d="M297.42,476.56c1.89.39,2.72,1.62,3,3.47,1.07,7.85,1.47,15.83,5.2,23.11.92,1.8.14,3.6-1.82,4.53-2.2,1-3.9.27-5-1.74a24.16,24.16,0,0,1-2.31-8.6c-.7-5.58-1.15-11.19-1.63-16.79C294.67,478.64,294.87,476.8,297.42,476.56Z"/><path d="M437.25,1782.84c-7-.28-12.81-3.13-18-7.66-1.46-1.28-2.81-3.41-5-2.69-2.36.78-1.71,3.28-2,5.19-.32,2.16-.55,4.66-3.54,4.52s-3.13-2.46-3.26-4.73a69.6,69.6,0,0,0-5-22.31,10.53,10.53,0,0,1-1-4.33,2.75,2.75,0,0,1,2.15-2.95c1.55-.41,2.52.42,3.16,1.75.14.3.29.6.44.9,1.08,2.25-.28,6,3.07,6.72,3,.66,3.63-3,5.52-4.43,5.89-4.61,12.8-5.27,19.85-5.42,2.34-.05,3,1.67,3.17,3.69.72,7.24-2.68,12.56-9.69,15-1.55.53-3.64.52-3.9,2.52s1.76,2.64,3.09,3.54c4.65,3.12,9.41,5.8,15.33,3.41,1.25-.5,2.8-.74,3.48.83a3.93,3.93,0,0,1-1.18,5C442,1782.86,439.61,1782.86,437.25,1782.84ZM421,1761.35c2.08-1,5.1-2.28,8-3.87a2.94,2.94,0,0,0,1.16-3.93c-.77-1.84-2.23-2.33-4.06-1.86a22.23,22.23,0,0,0-8.36,4.17,3,3,0,0,0-1.08,3.91C417.24,1761.25,418.52,1761.38,421,1761.35Z"/><path d="M503.54,1783.25c1.1-9.39,1.49-19-1.28-28.47-.72-2.47.93-4.47,1.74-6.6a2.91,2.91,0,0,1,3-2.18c1.54.15,2.08,1.36,2.5,2.73a37.28,37.28,0,0,0,10.5,16.71c4.2,3.86,6.79,3.77,10.57-.43a26.27,26.27,0,0,0,6.13-12.9c.47-2.44,1.14-5.16,4.58-4.84s2.85,3.12,3,5.35c.48,6.81.9,13.62,1.33,20.43.19,2.88.56,5.64,3.32,7.4,2,1.27,1.62,3,.75,4.8a4.73,4.73,0,0,1-5.17,3c-2.41-.24-2.61-2-3.06-3.89-1.29-5.43-.69-10.94-.86-16.41-.05-1.61.43-3.67-1.62-4.28s-2.58,1.59-3.47,2.87c-.75,1.1-1.34,2.31-2.13,3.37-5.51,7.3-10.71,7.84-17.59,1.86-.62-.55-1.19-1.17-1.8-1.74-1-.9-1.94-2.2-3.37-1.72-1.67.56-.94,2.28-1,3.5-.09,4,0,8-.07,12-.06,2.38.54,5.65-3.26,5.47S503.74,1785.82,503.54,1783.25Z"/><path d="M636.31,1768.24c0,5.67,0,10.17,0,14.66,0,2.11-.38,4.1-2.51,5a5.51,5.51,0,0,1-6.46-1.25c-2.88-3-5.56-6.2-8.28-9.34-4.08-4.69-5.79-4.37-8.08,1.58a54.16,54.16,0,0,1-2.21,5.54,5.5,5.5,0,0,1-6.68,3c-3.18-.73-3.48-3.18-3.45-5.8.08-7.75-1.72-15.15-4.32-22.37-.75-2.07-2-4.38.72-5.63,3.26-1.51,3.32,1.74,4.1,3.49a41.36,41.36,0,0,1,3.48,14.49c.1,1.67.21,3.68,2.14,4.08,2.13.44,2.66-1.69,3.22-3.15.71-1.85,1-3.84,1.58-5.76s1-3.65,3.27-3.9a4.72,4.72,0,0,1,4.7,2.26c2.24,3.5,4.39,7.06,6.56,10.6,1.13,1.85,2.13,4.15,4.87,3.27,2.55-.83,2.73-3.12,2.42-5.39-.79-5.74-.29-11.63-2.69-17.18-1.18-2.73-.25-5.54,3.12-6.16,3.65-.66,3.33,2.43,3.53,4.62C635.78,1759.77,636.05,1764.59,636.31,1768.24Z"/><path d="M852.35,1782.82c1.68-5.43,1.1-11.53.18-17.65-.3-2,.11-4,2.28-5.07,2.33-1.16,4.31-.38,5.83,1.33,3.66,4.08,7.13,8.34,10.74,12.47,3.16,3.62,5,3.52,7.8-.43a89.24,89.24,0,0,0,7.3-13.59c.95-2,2-4,4.76-3.51,2.38.43,2.93,2.4,3.3,4.44,1,5.4,2.08,10.77,2.87,16.19.51,3.51,1.07,6.86,3.73,9.52a3.64,3.64,0,0,1,.84,4.56c-.84,1.56-2.33,1.76-3.87,1.68-2.07-.09-3.52-1.09-3.83-3.21-.66-4.44-1.22-8.89-1.83-13.33-.25-1.81-.49-3.62-.8-5.42-.2-1.21-.7-2.27-2.09-2.45s-1.79,1-2.39,2c-2.18,3.73-4.41,7.43-6.81,11-2,3-4.79,3.52-7.63,1.11s-5.62-5.17-8.39-7.8c-.86-.82-1.66-1.74-3-1.32-1.58.49-1.68,1.87-1.71,3.23-.08,2.65.13,5.33-.68,7.92-.66,2.16-1.37,4.33-4.29,3.73C852,1787.7,852.31,1785.47,852.35,1782.82Z"/><path d="M295.44,1779.43c-2.18-.37-5.62-.89-9-1.57-3.56-.7-4.77-3.33-4.88-6.58-.24-6.63-.68-13.19-2.61-19.65-1.29-4.35.95-7.53,5.56-8.26,9.43-1.5,18.57-.53,26.89,4.54,3.69,2.24,6.22,5.38,6.26,10.07C317.72,1767.12,305.86,1779.33,295.44,1779.43Zm-8.84-20.76h-.15c.19,2.15.33,4.31.58,6.45.46,4,2.55,6.85,6.39,8.12a9.31,9.31,0,0,0,10.44-2.78,59.5,59.5,0,0,0,5.83-6.8c3.62-5.41,1.6-10.78-4.8-12.13a94.4,94.4,0,0,0-14.36-1.54c-3-.17-4.65,1.52-4.35,4.7C286.31,1756,286.46,1757.35,286.6,1758.67Z"/><path d="M381.23,1781.32c-9.36-.18-14.41-4.18-16.74-13a11.13,11.13,0,0,0-1.29-3.74c-3-4.08-5-7.78,1.39-10.71,1.55-.71,1.12-2.69.9-4.13-.54-3.63,1.12-5.11,4.57-5.58,5.44-.75,10.83-1.8,16.24-2.73,2.22-.39,4,0,4.62,2.53.65,2.76-1.38,3.45-3.38,3.93-4.2,1-8.43,1.88-12.63,2.9-2.05.5-4,1.38-3.4,4s2.53,2.52,4.68,2,4.26-.72,4.89,1.89c.74,3-1.94,3.39-3.91,4.11a6.1,6.1,0,0,1-2,.25c-1.73,0-4-1-4.78,1.33s.28,4.23,1.71,6c3.64,4.44,9.25,5.13,14.28,1.82,1.53-1,3-3.34,5-.87,1.64,2,.83,4.14-.76,5.86C388.08,1780,384.92,1781.62,381.23,1781.32Z"/><path d="M836.61,1769.91a30.61,30.61,0,0,1-1.77,3.28c-2.41,3.21-2.34,5.17,2.36,5,2.62-.12,4.87.26,4.26,3.72-.51,2.92-2.23,4.31-5.33,3.72a9.76,9.76,0,0,1-7.62-5.75c-1.17-2.63-2.63-4.82-5.94-4-3.82.89-8.73-.2-10.16,5.35a53.64,53.64,0,0,1-1.75,5.19,2.94,2.94,0,0,1-3.55,2,2.77,2.77,0,0,1-2.35-3.31,39.13,39.13,0,0,1,1.57-8.79c2.51-7.2,5.36-14.29,8.14-21.41,1.39-3.56,3.56-2.37,5.28-.46a35.18,35.18,0,0,1,5.73,9.31C827.54,1768.26,830,1772.08,836.61,1769.91Z"/><path d="M272.27,1763.28a9.44,9.44,0,0,1,0,2c-.54,2.38-.07,5.51-2.69,6.63-2.83,1.2-4.45-1.57-6.13-3.26A38.64,38.64,0,0,0,249,1759c-5.41-1.93-6.7-.88-5.85,4.67.35,2.3.74,4.61-.47,6.84-.75,1.37-1.53,2.74-3.34,2.4a3.11,3.11,0,0,1-2.66-3.18,138.17,138.17,0,0,0-1.62-21.4c-.32-1.86,1-3.1,2.54-3.93a3.61,3.61,0,0,1,4.6.61c5.34,5.65,12.42,8.92,18.44,13.63,1.13.88,2.28,2.32,3.93,1.16s1.79-2.64,1.32-4.45c-.62-2.41-1.11-4.86-1.61-7.31-.36-1.77-.32-3.4,2-3.8s3.62.39,4,2.68c.78,5.43,1.51,10.86,2.26,16.3Z"/><path d="M99,1755c-.12-16,10.48-26.81,23-25.76a19.51,19.51,0,0,1,5.29,1.3c2.7,1,3.16,3.23,2.26,5.74-1,2.7-2.86,2.13-4.89,1.29A15.49,15.49,0,0,0,113,1737c-7.45,2.75-10.73,10.61-8.15,19.53,2,6.73,10.13,10.47,18.53,8.38,6.08-1.51,9.7-5.5,11.13-11.53.27-1.13.42-2.29.63-3.43.29-1.61.92-3,2.88-2.69,2.24.29,2.58,2,2.21,3.73-1.63,7.8-4.95,14.52-12.65,18-7.54,3.44-14.78,3-21.72-1.85C100.62,1763.55,98.91,1758.48,99,1755Z"/><path d="M179.38,1759.24c-.15-3.3-.28-6.61-.45-9.92s-2.05-4.34-5.06-3.76c-5.39,1-10.77,2.11-16.16,3.19-3.52.7-5.14,2.77-4.55,6.42s1.25,7.55,1.74,11.35c.2,1.5.1,3.24-1.92,3.44-1.84.18-2.54-1.09-2.75-2.81a278.81,278.81,0,0,1-2.55-27.83,11.3,11.3,0,0,1,.68-3.89c.39-1.1,1.27-2.14,2.62-1.86,1.07.22,1.28,1.27,1.43,2.34,1.12,8,1.13,7.92,9.18,6.56,2.45-.41,5-.49,7.45-.66,4.17-.28,8.31-.07,9.65-5.7.63-2.64,3.09-2.37,4.39,0,2,3.69,3.24,7.6,2.18,12-1.55,6.35-2.61,12.71-.09,19.15.85,2.18-.11,4.15-2.5,4.55s-3.12-1.49-3.18-3.49c-.08-3,0-6,0-9Z"/><path d="M196,1774.66c-2.58-.11-3.34-1.92-2.39-3.75,4.69-9,6.3-19.32,11.47-28.13,2.38-4.06,3.94-4.16,7.22-.72s5,7.81,6.2,12.34c1.41,5.14,2.68,10.35,6.38,14.47,1.23,1.37,1.8,2.74.79,4.5a4.61,4.61,0,0,1-4.61,2.36c-1.93-.1-3-1.42-3.43-3.14-1-3.53-1.72-7.11-2.74-10.62-.59-2-1-4.5-3.59-5-2.78-.5-4.26,1.77-5.47,3.65-2.15,3.35-3.83,7-5.86,10.43C199.08,1772.63,198.1,1774.28,196,1774.66Z"/><path d="M936.28,1798.5c-4.92.18-9.66-.4-13.88-3.19-.75-.49-2-.9-1.51-2.16s1.7-.87,2.64-.73c1.47.23,2.9.73,4.37.94s3.56.86,4.33-1.23c.83-2.25-1.28-2.78-2.67-3.5a25.81,25.81,0,0,1-13.4-16c-1.49-4.92-.74-8.64,3.91-11.54,3.83-2.39,7.47-5.11,12.11-5.51,2.23-.18,5.14-.44,5.55,2.73s-2.45,2.8-4.5,3.18c-4.84.9-10.64.74-12.4,6.6-1.68,5.6,2.6,9.26,6,12.9a30.7,30.7,0,0,0,16.77,9.24c2.48.51,4.51,1.33,4.34,4.42s-2.52,3-4.68,3.19Z"/><path d="M689.45,1773.1q.39-4.71.77-9.42c.16-2,.81-3.76,3.15-3.7,2.84.06,2.28,2.35,2.16,4.08-.27,4-1,7.92-1,11.89-.12,10.39,7.22,15.26,17,11.45a17.79,17.79,0,0,0,8.17-6.29c1.17-1.62,2.7-2.71,4.6-1.15s1.56,3.43.26,5.3c-4.43,6.39-18.9,11-26.26,8.31-6.61-2.38-7.73-8.14-8.57-14a46.52,46.52,0,0,1-.05-6.47Z"/><path d="M329.4,1758.07c0-2.32-.13-4.65,0-7,.18-2.54,1.3-4.74,4.22-4.46s3.06,2.74,2.75,5c-.77,5.46-1.15,10.86.21,16.29,2.08,8.33,4.74,10.1,13,8.15,2.37-.56,4.38-.78,5.18,2s-1.06,3.7-3.4,4.31c-14.68,3.86-18.72,1.21-21.26-13.91A64.86,64.86,0,0,1,329.4,1758.07Z"/><path d="M740.94,1793.78c-4.82.12-8.12-2.39-9.57-7.33-2.47-8.42-.84-16.83.11-25.24a2.16,2.16,0,0,1,2.39-2,2.32,2.32,0,0,1,2.5,2.51,27.86,27.86,0,0,1-.26,4c-.32,2.64-1,5.28-1,7.91,0,4.78-.43,10.23,4.35,13.06,4.49,2.65,8.62-.44,12.49-2.66,1.89-1.08,3.59-2.61,5.89-1.1a3.57,3.57,0,0,1,1.5,4A5.28,5.28,0,0,1,755,1791C750.42,1792.05,746,1793.8,740.94,1793.78Z"/><path d="M663.52,1779.48a60.58,60.58,0,0,0-1.72-15.8c-.56-2.34-.87-4.92,2.48-5.4s3.24,2.16,3.48,4.28q1.4,12.39,2.64,24.78c.18,1.77.46,3.85-2.29,4.09-2.59.24-4.3-.93-4.53-3.48C663.33,1785.15,663.52,1782.31,663.52,1779.48Z"/><path d="M774,1762.1c0-1.79.4-3.51,2.75-3.84s2.86,1.28,3.09,3c.45,3.44.81,6.9,1.16,10.35.41,4.1.36,8.35,3.4,11.67,1.21,1.32,1.14,2.58.25,4-1.1,1.83-2.74,2.25-4.68,2.05s-2.56-1.42-2.74-3c-.57-5.27-1-10.54-1.66-15.8C775.22,1767.78,774.55,1765,774,1762.1Z"/><path d="M573,1791.31c-5.28-.2-10.49-5.09-10.68-9.73s5.24-10.63,9.79-11c2.09-.19,3.67.59,4,2.76.43,2.64-1.54,3.4-3.55,3.91-2.2.56-4.22,1.26-4.24,4,0,3,2.17,3.79,4.54,4.34.32.08.62.24.93.35,1.58.54,3.44,1,2.88,3.24C576.19,1791.2,574.33,1791.18,573,1791.31Z"/><path d="M886.54,1244.22c.35,5.73-.27,9.9-2.92,13.62-5.79,8.13-17.11,8.75-26,1.24-6.53-5.51-11.67-11.48-7.58-21.08,1.4-3.29-.54-6.85-1.68-10.14-.67-1.9-1.43-3.74-1.1-5.8s1.14-3.34,3.32-2.34c3.3,1.52,6.14.4,9-1.15a14.87,14.87,0,0,1,5.74-1.55c5.42-.56,7.28.76,6.94,6.17-.37,5.86,1.38,8.87,7.64,9.71C885.14,1233.6,886.45,1236.93,886.54,1244.22Zm-13.73-4.91c-4.27-.26-9.46,2.07-14.51,4.57-3.53,1.74-4.12,5.83-1.72,8.9,6.27,8,20.15,6.26,24.14-3C883.06,1244.25,880.11,1239.37,872.81,1239.31Zm-12.35-5.59c3-.41,5-2,5.24-5.06.19-2.31-1.35-3.44-3.45-3.16-2.65.36-4.68,1.75-4.94,4.73C857.12,1232.49,858.28,1233.61,860.46,1233.72Z"/><path d="M388.86,1199.64a35.43,35.43,0,0,0-11.32,1.33c-1.68.41-3.21,1.47-2.8,3.52s2.07,2.83,4.18,2.42c1.64-.32,3.27-.67,4.92-.89s3.35-1.36,4.63.37,1.06,3.8.19,5.71a18.2,18.2,0,0,1-1.54,2.57c-.91,1.34-1.48,2.69,0,4a3.39,3.39,0,0,0,4.18.26,11.4,11.4,0,0,0,4.22-4.17,3.33,3.33,0,0,1,6.15,1.64c.51,5,1.3,9.84,3.74,14.36,1.16,2.14.16,4.23-1.6,5.81a3.37,3.37,0,0,1-4.15.59,5.56,5.56,0,0,1-3.28-5.15c-.11-7.83-.18-7.83-8.07-6.72-7.15,1-9.36-.67-10.08-7.84-.32-3.15-1.55-5.37-4.82-6.12s-5.74-2.59-6-6.34c-.29-4,2.4-5.57,5.49-6.77,4-1.56,8.06-3.1,12.14-4.51s6.57-3.91,5-8.64c-.56-1.7-.75-3.35.74-4.6a3.15,3.15,0,0,1,3.32-.32c2.19.95,1.06,2.84,1.15,4.37a58.89,58.89,0,0,0,.46,7.42C397.05,1199.2,396.26,1200.19,388.86,1199.64Z"/><path d="M664.6,1240.87c0,3.67-1.16,6.61-5.1,6.77s-4-3-4.06-6c-.3-12.08,0-12.85-11.75-10.46-3.4.69-6.89.92-10.31,1.53-3.78.67-5.26,2.79-3.21,6.38s.83,5.77-2.61,7c-3.7,1.32-5.29-1.14-5.88-4.18-1.36-7-2.52-14.06-3.66-21.1-.39-2.39.34-4.4,3.06-4.84s4.12.92,4.39,3.52c.53,5.13,3.79,6.65,8.36,6.33,4.14-.28,8.26-.74,12.4-1.1,3.78-.32,6.29-1.88,6.3-6.14a3.28,3.28,0,0,1,3.36-3.58,4,4,0,0,1,4.3,3.42C661.75,1225.86,663.14,1233.37,664.6,1240.87Z"/><path d="M138.06,1226.63c-.07,1.7-.24,3.58-2.73,3.76s-3.25-1.48-3.38-3.45c-.29-4.15-.34-8.31-.59-12.46-.49-7.8-2.82-9.34-10.24-6.88-.63.21-1.24.48-1.86.72-10.6,4-11.8,3.78-9,15.23a12.83,12.83,0,0,1,0,4.46c-.22,1.74-1.58,2.49-3.2,2.59a2.8,2.8,0,0,1-3-2.1,16.06,16.06,0,0,1-.75-5.91c0-3.83.37-7.66-3.45-10.34-1.33-.92-1.21-2.75.17-3.91,3.25-2.75,2.61-6.16,1.91-9.66a47.55,47.55,0,0,1-1-6.89c-.12-2.27,1-3.82,3.53-3.9,2.32-.07,3.34,1.37,3.51,3.39.21,2.65.22,5.32.25,8,0,3.13,1.42,4.77,4.66,4.09,3.9-.82,7.77-1.79,11.63-2.76a4.73,4.73,0,0,0,3.51-3.87c.48-2.24.86-4.53,3.86-4.08,2.71.42,3,2.82,3.24,5,.43,4.48.84,9,1,13.45A106.46,106.46,0,0,0,138.06,1226.63Z"/><path d="M503.32,1233.62c.08,2-.48,3.45-2.47,3.94s-3.63,0-4.57-1.94a11.35,11.35,0,0,1-.53-1.41c-3-10.08-3.64-10.4-13.52-6.62-5.29,2-9.92,4.74-11.82,10.55-.62,1.9-2,2.71-3.86,2a3.12,3.12,0,0,1-2.08-4.4c4.11-10.52,8.31-21,13.45-31.08,1.55-3,4.84-3.86,7.08-1.31,7.58,8.63,14.78,17.6,18.14,28.92A7.27,7.27,0,0,1,503.32,1233.62Zm-20.55-12.25c1.76-.15,3.48-.89,3.33-3.14-.13-2-1.64-3.18-3.7-3.18-2.27,0-3.17,1.46-3.13,3.54S480.64,1221.39,482.77,1221.37Z"/><path d="M672.56,1244.28a39.62,39.62,0,0,1,3.66-11.7c2.31-4.78,5.14-9.33,6.58-14.49a5.14,5.14,0,0,1,4.93-4.17c2.67-.2,4.94.5,6.44,2.9,2.05,3.27,3.19,6.92,4.38,10.56,1.71,5.24,3.64,10.32,8.19,13.95,2.7,2.15,1.68,4.51-.41,6.33s-4.17,1.34-5.86-1c-2.2-3.09-4.85-5.78-6.25-9.51-1.49-4-4-4.17-7.23-1-3,3-4.57,6.9-6.8,10.39-1.1,1.73-2.52,2.63-4.6,2C673.3,1247.85,672.66,1246.05,672.56,1244.28Z"/><path d="M182.37,1219.06a72.54,72.54,0,0,0-2-15.31,26.67,26.67,0,0,1-.81-4.39c-.12-1.73-.84-4.09,1.93-4.29s1.81,2.2,2.12,3.67c.11.49.14,1,.22,1.48.32,1.84-.65,4.44,2,5.07,2.83.68,2.84-2.09,3.65-3.78,2.8-5.81,11.74-10.88,18.21-10.34,4.17.35,6.1,4.29,4.4,9.12-1,2.79-3.16,4.62-5.32,6.49-5.46,4.73-5.06,6.87,1.75,9.6,3.09,1.24,6.28,2.22,9.35,3.49,2.73,1.13,4.83,3.13,3.1,6.18s-4.06,1-6.05-.08c-5.45-2.86-10.93-5.68-16.28-8.71-5.8-3.29-6-6.34-.79-10.68,1.78-1.49,3.66-2.88,5.52-4.28,1.56-1.17,2.94-2.56,1.88-4.59-1.23-2.37-3.43-1.67-5.27-.92-5.81,2.35-9.66,6.5-10.58,12.83-.57,3.94-.65,8-1,11.93-.22,2.39.34,5.69-3.24,5.7-3.87,0-2.71-3.37-2.84-5.69C182.22,1220.73,182.33,1219.9,182.37,1219.06Z"/><path d="M832.06,1250.88a3.18,3.18,0,0,1-1.77,3,3.58,3.58,0,0,1-4.17-.46c-2.88-2.11-3.71-5.4-5.09-8.4-1.29-2.77-1.89-6.57-5.94-6.47-4.68.11-9.36.71-11.88,5.7a30.18,30.18,0,0,1-3.29,5,3.12,3.12,0,0,1-3.59,1.09c-1.43-.46-1.36-1.7-1.47-2.85,0-.33.08-.71-.05-1-2.88-5.82-2.37-9.72,4.78-12.14,3.94-1.34,4.76-6.53,6.71-10.16,2.8-5.23,3.9-4.73,8.25-.76a61.11,61.11,0,0,1,16.21,23.94C831.23,1248.62,831.68,1249.86,832.06,1250.88Z"/><path d="M754.62,1250.75c-3.81-.27-7.64-.42-11.31-1.62-2.22-.73-4.9-1.44-3.82-4.65s3.51-1.69,5.39-.93a15.78,15.78,0,0,0,6.8,1.25c1.88-.09,3.93-.3,4.34-2.5s-1.71-2.41-3.16-3.12c-7.5-3.7-11.56-10.2-11-17.42.51-6.26,8.81-14.42,15-14.73a3.37,3.37,0,0,1,3.64,2.74c.54,1.86.09,3.28-1.88,4a6.53,6.53,0,0,1-1,.27c-4.55.81-9.06,1.86-10.07,7.33-1,5.29,2.93,8.21,6.19,11.21a20.54,20.54,0,0,0,12.92,5.8c2.26.13,4.4.55,4.7,3.4s-.37,5.29-3.25,6.62A27.27,27.27,0,0,1,754.62,1250.75Z"/><path d="M291.17,1225.26c-7.24-.07-9.56-2.27-9.92-9.42-.24-4.81-.49-9.62-.69-14.43-.21-5,2.06-7.25,6.9-6.67a111.85,111.85,0,0,1,18.6,3.56c6.26,1.87,8.46,6,6.7,12.24C310.43,1218.89,301,1225.35,291.17,1225.26Zm-6-18.68a17.1,17.1,0,0,0,1.67,7.71c3,6.53,6.1,7.47,12,3.37a37.1,37.1,0,0,0,5.94-5.26c3.89-4.24,2.4-9.4-3.26-10.93a60.53,60.53,0,0,0-9.36-1.23C286.17,1199.62,285.08,1200.63,285.21,1206.58Z"/><path d="M597.87,1249.42c-6.21.43-10.37-2.24-13.57-6.71-1.2-1.67-2.43-3.66-.37-5.29,1.8-1.42,3.38,0,4.74,1.38a21.58,21.58,0,0,0,3.3,3c1.49,1,3.16,1.15,4.4-.56,1.5-2.09-.2-3-1.58-3.88-2.36-1.55-4.95-2.8-7.13-4.55a13.3,13.3,0,0,1-5-12.85c.73-5,4.41-7.58,8.9-9.13,2-.7,4.08-.92,5.31,1.23,1.51,2.65-1,3.37-2.5,4.47-6.91,4.87-7.08,7.48-.56,13a42.63,42.63,0,0,0,10.39,6.8c2.17,1,4.49,1.45,4.35,4.58s-1.22,5.5-3.92,7.05A13.17,13.17,0,0,1,597.87,1249.42Z"/><path d="M233.26,1220.93c1.53-8,3.55-16,9.1-22.64,3.29-3.93,5.11-3.51,6.77,1.26,2,5.8,4,6.94,10.17,5.57,1.82-.4,4.08-1.38,4.78.82.81,2.56-2.11,2.43-3.59,3.13-1.76.83-4.15.93-4.26,3.52-.1,2.4,2.09,2.77,3.73,3.4,2,.76,3.07,2,2.78,4.12-.23,1.67-.55,3.42-2.35,4.1-2,.78-3.51-.32-4.76-1.82-2-2.43-4.07-4.84-6.09-7.27-2.2-2.65-4.26-2.19-6.07.36s-3.38,5-4.95,7.5c-.94,1.55-2,2.83-4,2.1S233.24,1222.66,233.26,1220.93Z"/><path d="M539.62,1217.69c.17-1.29-.63-3.23-1.74-5.16a4.42,4.42,0,0,1,.15-5.15,3.05,3.05,0,0,1,4.05-.83c1.83.9,3.7,2.2,3.33,4.5-1.34,8.35-.66,17-3.58,25.1-.73,2.06-1.49,4.17-4.22,4.27s-4.27-1.56-5.24-3.86c-3.27-7.83-6.81-15.52-12.16-22.22-1.28-1.6-1.64-3.41.29-4.78,2.16-1.53,4.23-1,5.56,1.16,2.35,3.82,4.49,7.76,6.68,11.68.91,1.61.75,4.39,3.62,3.91s2.52-3.1,2.9-5.16C539.41,1220.34,539.44,1219.5,539.62,1217.69Z"/><path d="M569.59,1239.7c-.14,2.12-.88,3.44-2.9,3.71-2.32.31-3.93-.48-4.31-2.94-.69-4.42-1.51-8.82-1.92-13.26-.35-3.66-.72-7.19-2.47-10.53-1.23-2.32-1.72-5,1.4-6.29,3.55-1.47,4.83,1.13,5.46,3.87.7,3,1.07,6.19,1.5,9.3C567.11,1229.09,566.55,1234.88,569.59,1239.7Z"/><path d="M161.64,1193.78a3.06,3.06,0,0,1,2.52,3.24c.1,3,.23,6,.17,9-.11,6,.55,11.92,3,17.49.86,2,1.51,4-1.12,5s-3.8-.62-4.21-2.87a169.36,169.36,0,0,1-2.45-28.7A3,3,0,0,1,161.64,1193.78Z"/><path d="M279.24,844c.59,4.67-1.93,7.28-5.32,9.55-5.45,3.63-5.44,5.42-.28,9.6,3.69,3,7.65,5.26,12.63,5.15,2.06,0,4.7-.69,4.75,2.7s-2,4.94-5,4.93a25.2,25.2,0,0,1-9.58-2.46c-5.38-2.27-9-6.67-13.3-10.32-1.41-1.2-2.72-2.68-4.77-1.77s-1.12,2.83-1.29,4.4c-.31,2.9,1,7.14-3.41,7.54-4.85.44-3.95-4.28-4.28-7-.89-7.24-.78-14.61-4.91-21.11-1.13-1.78.26-3.12,1.7-4.13s3.31-1.57,4.38.21c2,3.36,4.26,2.05,6.78.92a42.77,42.77,0,0,1,16.32-4C278.19,838.07,280.38,839.37,279.24,844Zm-11.35.37c-2.8,1.21-7.17.38-7.85,5.13a2.21,2.21,0,0,0,2.69,2.69c3.35-.49,6.6-1.46,7.49-5.39C270.56,845.31,270,844.17,267.89,844.35Z"/><path d="M198.8,865.75c.95-7,2.42-14.53.78-22.24-.58-2.72,1.59-4.21,4-5s3.74.41,4.85,2.38c3,5.37,6,10.82,10.65,15a30.47,30.47,0,0,0,5.75,3.9,4.41,4.41,0,0,0,5.51-.76c1.77-1.7,1.37-3.54.57-5.5-1.24-3-3.58-5.15-5.74-7.46-1.87-2-2.94-4.36-.4-6.51s4.62-.55,6.16,1.72c2.79,4.13,5.78,8.17,6.66,13.26,1,5.66-.92,10.15-5.24,12.38-5.15,2.65-9.87,1.89-14-2.42-2.3-2.4-4.44-5-6.62-7.48-.87-1-1.63-2.25-3.22-1.89-1.87.43-2,2.16-2.13,3.58-.24,2.65-.12,5.32-.29,8-.16,2.5-.22,5.5-3.65,5.5C198.53,872.19,198.84,869,198.8,865.75Z"/><path d="M102.07,868.49c1-5.06,1.66-9.68-2.78-13.19a1.41,1.41,0,0,1-.23-1.35c2.79-5.3,1.88-11,2-16.65a2.14,2.14,0,0,1,2.08-2.29c1.65-.28,2.25.65,2.74,2.13,3.75,11.11,3.76,11,15.48,8.71,5.09-1,9.81-1.77,8.39-8.79-.27-1.34.63-2.21,2-2.41,1.54-.23,2.5.69,3.16,1.94,2.22,4.24,2.64,8.9,3,13.53.48,6.36-.79,13,4,18.53,1.51,1.76.28,3.78-1.7,5-2.26,1.38-3.85.26-5.05-1.53-2.71-4.08-2.44-8.88-3-13.47-.22-2,0-4-.83-5.88-1-2.24-2.42-3.54-5-2.82-4.8,1.32-9.64,2.49-14.37,4-5,1.6-5.9,3.74-4.13,8.67a20.35,20.35,0,0,1,1.51,5.23c.17,2.63.28,5.86-3.6,5.81C102.21,873.6,102.43,870.56,102.07,868.49Z"/><path d="M154.13,853.4c0-.33,0-.66.05-1,1.46-14.79.77-11.8,12.16-14.71q7.23-1.83,14.54-3.37c2-.42,4.52-1.59,5.33,1.62s-1.27,3.92-3.85,4.52c-5.65,1.32-11.26,2.83-16.86,4.38-2.38.67-5.4,1.4-4.1,4.85,1.25,3.29,4.11,1.95,6.44,1.23,1.25-.39,2.34-1.24,3.57-1.74,1.59-.65,3.52-2.17,4.62.44s-.27,4-2.74,4.84c-2.67.88-5.27,2-7.9,3a5.45,5.45,0,0,0-3.74,5.38,7,7,0,0,0,3.77,6.09c2.41,1.4,4.44.24,6.15-1.65,1-1.11,2.08-2.49,3.69-1,1.31,1.27,1,2.77-.07,4-2.55,3.15-5.35,6.15-9.83,5.91-4-.2-5.92-3.22-7.52-6.44C155.26,864.64,154.56,859.05,154.13,853.4Z"/><path d="M542.67,887.87c-2.67,0-5.37.13-7.88-.93-1.6-.67-3-1.75-2.27-3.81.66-1.9,2.17-1.72,3.72-1.2a4,4,0,0,0,1.44.35c3-.2,6.86,1.9,8.5-1.9s-2.67-4.26-4.62-5.89a17.39,17.39,0,0,1-6.47-16.84c.79-5.54,8.07-10.35,13.57-9.1,2.86.65,2.66,2.5,1.6,4.55a2.71,2.71,0,0,1-1.09,1c-3,1.7-7.73,2.18-7.1,7.07.72,5.59,4.17,9.63,9,12.44,3,1.71,6.32,2,9.56,2.66,2,.41,4.73,0,4.4,3.33-.31,3-.68,6.33-4.57,6.73C554.57,886.94,548.67,888.14,542.67,887.87Z"/><path d="M520.83,878.64c-.31,1.55-.63,3.32-2.15,4.22a4.23,4.23,0,0,1-5.09-.71c-2-1.76-3.78-3.73-5.61-5.64-3-3.1-6-3.23-9.05-.16-1.05,1-2,2.18-3.1,3.22-3.81,3.73-8.16,2.58-9.86-2.55-.47-1.44-.39-2.75,1-3.47,5.63-2.88,6.55-8.44,7.85-13.74.74-3.06,1.54-5.92,5.3-6.25s4.61,2.54,5.66,5.2A32.32,32.32,0,0,0,517.12,873C519,874.37,520.77,875.9,520.83,878.64Z"/><path d="M445.1,866.54c0-11.25,6-18.6,15.86-19.47,1.89-.17,3.67-.15,5.1,1.29s2.43,2.86,1.55,4.87c-.77,1.78-2.32,2.09-4.13,2.08-8.78,0-12,2.5-12.45,9.69s5.42,14.49,12.28,15.34a22.62,22.62,0,0,0,15.21-3.63c1.07-.68,2.52-1.92,3.57-.7,1.34,1.55-.63,2.65-1.44,3.61-5.42,6.37-16.46,9.8-23.06,7.32C450.14,884.15,445.1,875.91,445.1,866.54Z"/><path d="M361.55,851.87c.23,6.89,2.08,13.67,3.68,20.44,1,4.27,4.57,5.52,8.65,4.73a46.06,46.06,0,0,0,15.71-6.14c1.71-1.07,3.65-2.44,5.07.16,1.19,2.18,0,3.75-2.06,4.8-5,2.53-9.89,5.55-15.13,7.59-10,3.92-16.07.65-18.71-9.71-2-7.87-1.57-16.19-4.78-23.9-1.2-2.89,1.5-4.52,4.26-4.82,3-.32,3.52,1.83,3.51,4.22C361.74,850.07,361.63,850.9,361.55,851.87Z"/><path d="M421.16,859.6a10.48,10.48,0,0,0-3.87-8.17c-2.18-1.92-1.65-3.82.45-5.38s3.87-1.77,5.56.58c4.65,6.5,5.21,17,1.08,23.68-2.38,3.83-5.43,6.77-10.42,6.48s-8-3.09-9.8-7.34c-2.18-5.21-4-10.56-3.38-16.39.2-1.92.58-3.79,2.88-4,2.76-.3,2.55,2.14,2.94,3.76.75,3.06,1.33,6.16,1.85,9.27.68,4.07,2.41,7,7.09,6.63C419.47,868.39,421.39,865.41,421.16,859.6Z"/><path d="M312.44,865.15c-.17,2.52-.95,3.72-2.6,4.14s-3.26,0-3.81-1.58q-3.55-10.1-6.72-20.34a2.46,2.46,0,0,1,1.93-3c1.17-.36,2.66-.32,3.15.81C307.41,851.94,308.68,859.43,312.44,865.15Z"/><path d="M412.75,317.39c2.31-7.56,1-15.4-.74-23.25-.47-2.16-.4-4.45,2.11-5.54s4,.48,5.55,2.14c3.64,3.87,7.3,7.74,11.12,11.44,4.13,4,7,3.83,10.28-.7,2.61-3.56,6.51-6.27,7.28-11.11.26-1.63,1.74-2.33,3.45-2.15,2.29.23,3,1.85,3.22,3.79.69,6.28,1.44,12.55,1.94,18.85.24,3.08.71,5.92,3.11,8.12,1.78,1.62,1.71,3.49.49,5.38-.83,1.3-1.92,2.33-3.63,2.22-2.4-.16-2.7-2-3.21-3.83-1.54-5.51-1.52-11.17-1.71-16.81-.07-2.1.57-4.81-2-5.61-3.16-1-3.39,2.42-4.75,4.07a5.28,5.28,0,0,0-.47.88c-4.35,8.14-8.75,11.89-15.66,2.69a14.36,14.36,0,0,0-3.1-2.49c-1.68-1.25-3.51-2.11-5.52-.87s-1.26,3.12-1,4.93c.53,3.12.92,6.29-.08,9.38-.64,2-.88,4.67-3.84,4.36C412.18,322.91,413.12,320,412.75,317.39Z"/><path d="M634.09,326.23c-4.05.82-7.7-1-11.05-4.21-4-3.87-5.71-3.32-6.8,2-.42,2.06-.08,4.84-3.22,4.61-3.38-.24-2.88-3.17-2.8-5.4a74.57,74.57,0,0,0-2.52-21.25c-.57-2.25-1.07-4.72,1.84-5.23,3.15-.55,2.4,2.39,2.76,4.18.45,2.22-.18,5.84,2.17,6.12,2.85.34,2.89-3.47,3.77-5.6,1.43-3.46,3.28-6.07,7.35-6.53,6-.69,10.21,1.34,11.33,5.72a11.93,11.93,0,0,1-6.19,13.89c-1.49.68-4.13.33-3.61,3.13.44,2.34,2.57,2.83,4.54,3.31a12.39,12.39,0,0,0,6.38-.55c1.91-.53,4.24-1.23,4.64,1.83.35,2.74-1.42,3.89-3.94,4C637.41,326.28,636.07,326.23,634.09,326.23Zm-2.59-21.75c.06-2.75-.5-5.17-3.93-4.88-2.59.22-5.6.5-5.63,4.16,0,3.82,2.8,5,5.89,5.33S631.43,306.94,631.5,304.48Z"/><path d="M232.45,290.37c1.73-2.06,3.11-3.91,4.7-5.55A14.64,14.64,0,0,1,255,282.11c2.87,1.52,3.78,3.7,2.5,6.6-1.93,4.34-4.46,8.2-9.32,9.77-1.16.37-2.29.74-2.31,2.19a2.94,2.94,0,0,0,1.91,2.7c3.56,1.71,7.17,2.63,11,.61,1.66-.88,3.58-1.62,4.72.66s-.55,3.69-2.31,4.77c-4.92,3-14.74,1.44-20.07-3.14-1.68-1.43-2.84-4.3-5.62-3.34s-1.61,3.95-2,6.11c-.37,2,.32,4.83-2.83,5s-3.08-2.61-3.26-4.65a54.82,54.82,0,0,1-.09-9c.37-4.54.19-9-1.54-13.24-.61-1.51-1.23-3,.75-3.71s3.65-.23,4.42,1.94C231.47,286.89,231.87,288.44,232.45,290.37Zm9.18,5.07c5.47.06,10.54-4.05,10.33-7.79s-3.45-3.61-5.91-3.81a7.47,7.47,0,0,0-8.05,7C237.92,293.93,239.53,295.36,241.63,295.44Z"/><path d="M348.49,296.35a33.87,33.87,0,0,0-2.07-9.62c-.79-2.15-.89-4.52,1.9-5.31,3.13-.88,3.44,1.54,3.86,3.77,1,5.39,2.34,10.72,3.15,16.13.73,4.84-1.19,6.59-6,5.56-7.41-1.58-15.14-2.15-21.57-7-2.65-2-4.27-.31-4.71,2.61-.32,2.13-.52,4.27-.94,6.38a3,3,0,0,1-3.65,2.57c-1.81-.24-2.42-1.57-2.52-3.2-.37-5.61-.81-11.22-1-16.84a5.93,5.93,0,0,1,4.68-6.26c2.82-.82,4.29,1.13,5.45,3.27,4.13,7.62,11.66,10,19.16,12.28C348.19,301.85,348.33,298.68,348.49,296.35Z"/><path d="M702.41,322.16c.63-6-1.62-11.33-.62-16.86.35-1.93.19-4.25,3.17-4.09,2.73.14,2.44,2.11,2.43,4,0,2.32,1.45,3.14,3.56,3.25,3.83.2,7.65.45,11.46.7,3.48.23,5.89-1,6.41-4.73.22-1.62.57-3,2.55-3.05s2.35,1.44,2.76,2.93a27.69,27.69,0,0,1,.32,11.88c-.69,4.23-.92,8.28,2.44,11.69,1.59,1.61,1,3.4-.19,5s-2.62,2.62-4.7,2.1-2.56-2.19-2.64-3.84c-.2-4.15-.22-8.32-.17-12.48.06-4.42-2.05-6-6.27-5.27s-8.23,1.22-12.29,2.1c-4.59,1-5.62,3.64-3.18,7.6a11.57,11.57,0,0,0,1.66,1.85c1.37,1.38,2.32,2.84,1.22,4.87a3.15,3.15,0,0,1-3.26,1.82c-2.15-.2-4-1.18-4.34-3.45A44.64,44.64,0,0,1,702.41,322.16Z"/><path d="M771,350c0-3.16.11-6.33,0-9.48-.22-5-2.31-9.2-6.83-11.45-8.85-4.4-10.51-13.73-15-21.12-1-1.61,0-3.22,2-3.78,2.49-.69,3.91.61,4.48,2.76a41.88,41.88,0,0,0,8.8,16.05c1.49,1.79,2.74,4,5.59,3.27,2.57-.68,2.77-3,3.21-5.14.78-3.75,1.57-7.49,2.52-11.19.48-1.89,0-5.22,3.22-4.46s1.72,3.71,1.28,5.85c-1.26,6-2.82,12-3.85,18.05-1.53,9.07-1.9,18.19.41,27.25a19.55,19.55,0,0,1,.5,2.95c.21,2.06-.27,3.62-2.74,3.84s-3.73-.87-3.7-3.41c0-3.33,0-6.66,0-10Z"/><path d="M302.61,292.19c-5.9,3.44-11.07,5.53-16.86,5.62-3.79.06-4.88,2-4.47,5.49.89,7.54,2.77,9.38,10.49,9.68,1.35.06,2.76-.28,3.2,1.48a3.32,3.32,0,0,1-1.33,3.53c-2.46,2-5.27,3.06-8.36,2a10.21,10.21,0,0,1-7-8.38,61.67,61.67,0,0,0-3.06-12.5c-2.86-7.79,2-14.93,10.08-15.68,5.14-.48,10.29-.84,15.44-1.17,1.72-.11,3.57.06,3.38,2.51-.18,2.28-2,2.54-3.68,2.21-5.27-1-10.21,1-15.31,1.5-1.68.17-3.49.72-3.25,3s2.28,1.94,3.89,2.06c2.89.21,5.59-.79,8.34-1.38A15.85,15.85,0,0,1,302.61,292.19Z"/><path d="M592,306.94c0,1.36-1,2-2,2.59-4,2.19-3,4.09.31,5.92a6,6,0,0,1,2,1.46c1.72,2.37,1.5,4.87-.65,6.67s-4.13.63-5.67-1.13a9.93,9.93,0,0,1-1.58-3.07c-1.09-2.95-1.71-6.36-5.95-6.18s-7.73,1.79-9.62,5.89a20.56,20.56,0,0,1-1.7,3.57,3.1,3.1,0,0,1-4.4.88c-1.76-1-1.37-2.36-.75-3.85q4.51-10.77,8.95-21.58c.67-1.64,1.57-2.95,3.51-3.05s3,1.18,3.68,2.79c2.29,5.22,5.14,9.47,12,7.45A1.47,1.47,0,0,1,592,306.94Z"/><path d="M694,293.78a2.21,2.21,0,0,1-1.44,2.37,14.4,14.4,0,0,1-2.39.67C678,298.86,679,300.88,679,312c0,2.81.17,5.63.13,8.44,0,2.58.26,5.05,2.28,6.86,1.85,1.66,1.94,3.35.51,5.23-1.06,1.41-1.75,3.47-4.09,3s-2.89-2.42-3-4.53c-.34-7.8-.66-15.61-1-23.41a32.88,32.88,0,0,0-.65-5.42c-.72-3.26-2.79-4.42-5.93-3.15a16.55,16.55,0,0,1-8.24,1.45,3,3,0,0,1-3-2.8c-.21-2,1.24-2.68,2.76-2.86,10.73-1.23,21.47-2.38,32.21-3.51C692.66,291.17,693.92,291.81,694,293.78Z"/><path d="M136.85,306.53c1.84-6.12,3.8-13.52,6.31-20.72,1.47-4.21,5.27-4.6,8.75-1.29,2.36,2.24,3.84,5.41,7.63,6,1.65.26,1.23,2,1,3.34-1.11,5.87.08,10.91,5.52,14.24,1.61,1,2.46,2.22,1.9,4.12a4,4,0,0,1-2.77,2.66c-1.91.63-3.32-.41-4.14-1.95-1.79-3.36-3.4-6.82-5-10.27-1-2-1-4.82-4.24-4.74a7.18,7.18,0,0,0-6.76,4.31c-1.14,2.4-2.07,4.89-3.13,7.32a2.72,2.72,0,0,1-3.6,1.77C136.49,310.74,136.15,309.4,136.85,306.53Z"/><path d="M209.09,292.42c2,9.19-9.31,19.11-18.1,19.34-4.12.1-7.51-1.39-9.3-5.42a103.37,103.37,0,0,1-5.3-15.56c-.57-2.12-.42-4.13,2.22-4.68s2.82,1.58,3.37,3.33c1.39,4.42,2,9.1,4.54,13.15,2.4,3.81,5.34,4.8,9.17,2.12a50.9,50.9,0,0,0,4.45-3.22c5-4.42,5.5-7.55,2.27-13.86-.75-1.46-1.68-3-.52-4.67a3.52,3.52,0,0,1,4-1.42c2,.46,2.35,2.14,2.62,3.83.15,1,.3,2,.39,3C209,289.65,209,291,209.09,292.42Z"/><path d="M512.86,304.93c0-12.39,10.37-20,20-14.65,1.67.92,2.78,2,2,3.91-.69,1.74-2.11,1-3.4.69-8.3-2-12.06-.51-14.14,5.5-2.45,7.07.45,15,6.62,18,7,3.48,14.72,2.06,21.09-3.88,1.13-1.06,2.12-3.21,4-1.72,2,1.61.32,3.3-.67,4.76-4.43,6.49-15.11,9.35-24,6.45C517.27,321.67,512.87,314.42,512.86,304.93Z"/><path d="M100.07,274.86c3.31,2.12,3.83,4.44,3.36,7.29-1.22,7.49-.48,15,.47,22.39.6,4.64,2.85,6,7.34,4.23,3.85-1.5,7.75-2.85,11.25-5.26,3.75-2.59,7.45-.45,7.6,4,.06,1.93-.4,3.22-2.65,3.32-5.27.22-9.94,2.54-14.8,4.23-8.4,2.93-11.78.8-12.82-8A135.71,135.71,0,0,1,100.07,274.86Z"/><path d="M487.87,328.16c-4.64.06-7.25-2.12-8.37-6.07s1.14-6.6,4.07-8.78c1.15-.85,2.4-1.15,3.6,0s.8,2.31.27,3.62c-2.6,6.38-2.56,6.42,4.13,5.51,1.46-.19,3.12-.72,3.52,1.47.32,1.76-.63,2.81-2.27,3.28-.79.23-1.6.39-2.41.55C489.44,327.9,488.46,328.06,487.87,328.16Z"/></svg>