<?xml version="1.0" encoding="utf-8"?>
<!-- Generator: Adobe Illustrator 22.0.1, SVG Export Plug-In . SVG Version: 6.00 Build 0)  -->
<svg version="1.1" id="Layer_1" xmlns="http://www.w3.org/2000/svg" xmlns:xlink="http://www.w3.org/1999/xlink" x="0px" y="0px"
	 viewBox="0 0 128.5 210.9" style="enable-background:new 0 0 128.5 210.9;" xml:space="preserve">
<title>c0-txt3</title>
<path d="M25.8,2.2c0.2,1.1-0.6,1.3-1.3,1.7C24.3,3.9,24,3.9,24,4.2s0.3,0.4,0.5,0.4c1.1,0.2,2.2,0.9,3.4,0.2
	c0.2-0.2,0.5-0.1,0.7,0.1c0,0.1,0.1,0.1,0.1,0.2c0.2,0.5-0.2,0.6-0.6,0.7c-1.6,0.6-3.5,0.3-4.8-0.8c-0.6-0.5-1-0.5-1,0.4
	c0,0.3-0.1,0.6-0.2,0.8c-0.1,0.2-0.2,0.4-0.4,0.4c-0.2,0-0.4-0.2-0.4-0.5c0,0,0,0,0,0c0-1.2-0.3-2.4-0.9-3.5
	c-0.1-0.3-0.2-0.6,0.2-0.8s0.6,0,0.7,0.3c0.3,0.6,0.5,1.1,1,0.1c0.3-0.6,2.4-1.3,3-1.1S25.9,1.7,25.8,2.2z"/>
<path d="M86.8,6.7c0.1-0.9-0.2-1.8-0.9-2.3c-0.3-0.3-0.4-0.6,0-0.8S86.8,3,87,3.7c0.3,1.1,0.8,0.8,1.3,0.2l0.1-0.1
	c0.6-0.6,1.2-1.7,2.1-0.9s0.2,1.7-0.1,2.6c-0.1,0.3-0.7,0.5-0.4,0.9s0.7,0.2,1.1,0.2c0.6,0.1,1.2,0,1.7-0.4C92.8,5.9,93,5.8,93.3,6
	s0.2,0.5,0,0.8c-0.5,0.8-1.3,0.8-2,0.9c-0.6,0.1-1.3,0-1.9-0.2c-0.8-0.2-1.7-0.7-1.9,0.7c-0.1,0.2-0.3,0.3-0.4,0.2c0,0,0,0-0.1,0
	c-0.1-0.1-0.2-0.2-0.3-0.4C86.7,7.6,86.7,7.2,86.8,6.7z"/>
<path d="M61.9,8c-0.8,0.2-1-0.2-1.1-1.2c0-1.1-0.2-2.2-0.5-3.2C60.1,3,60.2,2.8,61,2.7c1.4-0.1,2.7,0.2,3.9,0.9
	c0.8,0.3,1.1,1.2,0.8,1.9c0,0,0,0.1-0.1,0.1C65.1,7.3,64,8,61.9,8z M62.2,5.6c0.3,0.4-0.5,1.3,0.7,1.3c0.7,0,2-1.1,1.9-1.7
	c-0.2-1-1.2-0.9-1.9-1C61.8,4.1,62.3,5,62.2,5.6L62.2,5.6z"/>
<path d="M82.8,6.7c0.1,0.3-0.1,0.6-0.4,0.8c-0.3,0.2-0.5-0.1-0.7-0.3c-0.3-0.9-1.2-1.4-2.1-1.1c-0.6,0-1.1,0.4-1.3,1
	c-0.1,0.3-0.2,0.8-0.6,1c-0.3,0.1-0.5,0.2-0.8,0s-0.1-0.5,0-0.7c0.7-1.3,1.3-2.6,1.8-3.9c0.3-0.8,0.8-0.8,1.4-0.2s1.1,1.4,2,1.8
	C82.8,5.3,82.3,6.3,82.8,6.7z"/>
<path d="M33.5,5.7c0,1.1,0.1,2.1,0.3,3.1c0.1,0.5,0.1,1-0.5,1.1s-0.7-0.5-0.7-0.9c-0.1-0.7-0.1-1.4-0.1-2.1c0-0.8-0.1-1.1-0.9-0.7
	c-0.5,0.3-1.1,0.1-1.4-0.4c0,0,0-0.1,0-0.1C29.8,5,29.4,4.2,29,3.5c-0.3-0.3-0.1-0.6,0.3-0.8s0.6,0.1,0.7,0.4s0.4,0.9,0.6,1.3
	s0.4,0.8,1,0.6s0.9-0.4,0.8-1S32,2.5,32.9,2.6s0.6,1,0.7,1.6C33.6,4.7,33.5,5.2,33.5,5.7z"/>
<path d="M58,5c0,0.7,0,1.3-0.4,1.5S56.7,6.3,56.4,6c-0.7-0.5-1.6-1-2.4-1.3c-0.5-0.3-0.9-0.2-0.9,0.5c0,0.2,0,0.4,0,0.6
	c-0.1,0.4-0.3,0.8-0.8,0.8s-0.4-0.5-0.4-0.8c0-0.9-0.1-1.8-0.1-2.7c0-0.4,0.3-0.7,0.6-0.8c0.4-0.2,0.7,0,0.9,0.3
	c0.7,1,2,1.3,2.8,2.1c0.4,0.4,0.7,0,0.6-0.4c-0.1-0.5-0.1-1-0.1-1.4c0-0.2,0.1-0.5,0.4-0.5s0.5,0.2,0.4,0.3C57.4,3.7,58,4.4,58,5z"
	/>
<path d="M49.7,4.4c0,0.1,0,0.3,0,0.4c0.1,0.4,0.2,0.7-0.3,0.9s-0.7-0.1-1-0.3c-0.9-0.9-1.8-0.8-2.4,0.3c-0.2,0.3-0.4,0.5-0.6,0.7
	c-0.3,0.2-0.5,0.5-0.8,0.2s-0.1-0.5,0-0.8C45,4.5,45.9,3.5,46,2.1c0.1-0.8,0.9-0.9,1.4-0.3s0.8,2,2.1,2C49.8,3.7,49.8,4,49.7,4.4z"
	/>
<path d="M2.5,6.8c-1-0.4-1.8-1.1-2.5-2c-0.2-0.3,0-0.6,0.3-0.8S0.9,4,1,4.3s0.4,0.6,0.7,0.8s0.8,0.8,1.2,0.4S2.9,4.5,2.5,4
	S1.8,3.2,1.5,2.8c-1-1.2-0.3-2,0.8-2.6C2.6,0,3-0.1,3.2,0.4s0.2,0.8-0.3,0.9c-1.2,0.5-0.6,1-0.2,1.6C3.3,3.5,3.7,4.1,4,4.8
	c0.3,0.8-0.1,1.6-0.8,1.9C3,6.8,2.8,6.8,2.5,6.8z"/>
<path d="M15,1.5c0.8-0.4,1.3,0.1,1.9,0.5c0.9,0.4,1.4,1.3,1.2,2.3c-0.2,0.8-0.9,1.4-1.7,1.5c-1,0.1-1.9-0.4-2.4-1.3
	c-0.3-0.7-0.4-1.5-0.3-2.2C13.8,1.3,14.3,1.1,15,1.5z M16,4.7c0.5-0.1,1.1-0.2,1.3-0.8s-1.2-1.4-2-1.5s-0.7,0.5-0.7,0.9
	c-0.1,0.7,0.5,1.3,1.2,1.4C15.9,4.7,15.9,4.7,16,4.7z"/>
<path d="M9.1,1.8c-0.5,0-1.3,0.3-1.3-0.5c0-0.6,0.7-0.6,1.2-0.6c1,0,2-0.2,2.9-0.6c0.3-0.1,0.6-0.3,0.8,0.1s0.1,0.7-0.2,0.9
	C10.8,2,12,3.3,12,4.5c0,0.3,0.3,0.6,0.1,0.9c-0.1,0.3-0.4,0.4-0.6,0.4c-0.4,0-0.4-0.3-0.5-0.6c-0.1-0.8-0.3-1.6-0.3-2.5
	C10.6,1.7,9.9,1.6,9.1,1.8z"/>
<path d="M97,5.9c0-0.2,0-0.5,0-0.7c0.2-1-0.3-1.2-1.2-1.1l-0.6,0.1c-0.4,0-0.6-0.1-0.6-0.5s0.2-0.5,0.5-0.5c1-0.1,2-0.3,3-0.6
	c0.3-0.1,0.6-0.1,0.8,0.3c0.1,0.3,0,0.6-0.2,0.7c-1,1.1-1.2,2.6-0.5,3.9c0.3,0.5,0.4,0.8-0.1,1.1s-0.7-0.1-0.9-0.5
	C96.8,7.4,97.1,6.7,97,5.9z"/>
<path d="M34.7,67.6c0.1-0.9-0.2-1.9-0.7-2.6c-0.2-0.3-0.5-0.8,0-1s0.8,0,1,0.4c0.3,0.7,0.7,0.4,1,0.1c0.5-0.6,1.1-0.9,1.9-0.9
	c0.4,0,0.9-0.3,1.2,0.3c0.2,0.4,0.2,1-0.1,1.4c0,0.1-0.1,0.1-0.1,0.2c-0.1,0.6-1.3,0.7-0.8,1.4c0.7,0.7,1.6,1,2.5,0.7
	c0.4-0.1,1-0.7,1.2,0.1s-0.5,1.1-1.1,1.1c-1.3,0-2.5-0.3-3.6-1c-0.4-0.3-0.9-0.5-1.1,0.3c-0.1,0.4-0.2,1-0.7,0.9S34.8,68,34.7,67.6z
	"/>
<path d="M54.5,64.2c0,0.5,0.1,0.8,0,1.1c-0.1,1.6-0.3,1.7-1.7,1c-0.3-0.2-0.7-0.3-1-0.4c-0.7-0.2-1.2-1-1.8-0.7s-0.2,1.2-0.2,1.9
	s-0.3,1-0.8,1s-0.6-0.6-0.6-1c0.1-1,0-2-0.4-2.9c-0.3-0.6,0.4-1.1,0.8-1.5s0.6,0.1,0.9,0.3c0.9,0.7,1.8,1.4,2.8,2
	c0.6,0.4,1,0.2,1-0.5c0-0.4,0-0.7,0-1.1s0.2-0.8,0.6-0.8s0.4,0.5,0.4,0.8S54.5,64.1,54.5,64.2z"/>
<path d="M58.4,68.2c-1.2,0-2.1-0.8-2.2-2c-0.2-1.2,0-2.3,0.6-3.3c0.2-0.4,0.4-0.7,0.9-0.5s0.4,0.7,0.2,1c-0.3,0.6-0.5,1.3-0.5,2.1
	c0,0.3,0.1,0.7,0.2,1c0.1,0.3,0.3,0.5,0.6,0.5c0.4,0,0.4-0.4,0.4-0.6c-0.1-0.6,0-1.1,0.3-1.6c0.3-0.8,1.2-1.1,2-0.9
	c0.9,0.3,0.9,0.9,0.9,1.7C61.7,67,59.9,68,58.4,68.2z M60.4,65.1c-0.4,0.1-0.7,0.4-0.6,0.8c0,0.2,0.2,0.5,0.4,0.4
	c0.4-0.1,0.7-0.5,0.7-0.9C60.9,65.2,60.7,65.1,60.4,65.1z"/>
<path d="M14.8,63.3c0.4-0.1,0.9,0.1,1.1,0.5c0.4,0.4,0.7,0.9,1.3,0.9c0.3,0,0.5,0.3,0.3,0.6c-0.3,0.8,0,1.6,0.7,2
	c0.5,0.4,0.3,0.7,0,1.1s-0.7,0.2-1-0.1s-0.5-1-0.8-1.5S16.3,66,15.7,66c-0.6,0-1.1,0.3-1.3,0.8c-0.2,0.4-0.4,0.8-0.7,1.1
	c-0.1,0.3-0.5,0.4-0.7,0.3c-0.3-0.2-0.3-0.4-0.2-0.7c0.4-1.1,0.8-2.3,1-3.5C13.9,63.4,14.3,63.2,14.8,63.3z"/>
<path d="M8.9,62.7h0.5c0.3,0,0.7-0.1,0.7,0.4s-0.2,0.7-0.6,0.5c-0.8-0.2-1.4,0.3-2.1,0.4c-0.3,0-0.5,0.2-0.5,0.4s0.3,0.4,0.6,0.4
	c0.6-0.1,1.2-0.3,1.7-0.4c0.2-0.1,0.4,0,0.5,0.2c0.1,0.2-0.1,0.3-0.3,0.4c-0.4,0.2-0.9,0.4-1.3,0.6s-0.9-0.2-1,0.4
	c-0.1,0.6,0.1,1.2,0.4,1.7c0.1,0.2,0.3,0.3,0.6,0.2c0.1,0,0.1-0.1,0.1-0.1c0.2-0.2,0.4-0.3,0.7-0.5c0.4-0.2,0.7-1,1.1-0.6
	s-0.2,1-0.6,1.3c-1.4,1.3-2.7,0.9-3-1c-0.3-1-0.6-2-0.8-3c0-0.8,0.2-1.1,0.9-1.1L8.9,62.7z"/>
<path d="M2.4,63.6c-0.6-0.1-1.1-0.2-1.1,0.4s0.6,0.6,1.1,0.6c0.5,0,0.9-0.1,1.4-0.3c0.3,0,0.6-0.1,0.7,0.2s-0.2,0.4-0.5,0.5
	c-0.2,0-0.3,0.1-0.5,0.1c-1.6,0.4-1.7,0.6-1.6,2.3c0,0.5,0.3,1.3-0.4,1.4s-0.8-0.8-0.7-1.3c0.2-1.5-0.5-2.8-0.7-4.3
	c-0.1-0.4,0.1-0.7,0.4-0.8c0,0,0.1,0,0.1,0c0.7-0.2,1.3-0.3,2-0.4s1.2,0,1.3,0.8s-0.6,0.6-1,0.7C2.6,63.6,2.4,63.6,2.4,63.6z"/>
<path d="M33,66.2c-0.1,1.3-1,2.4-2.3,2.7c-0.8,0.2-1.6-0.3-1.9-1.1c-0.4-1-0.7-2-0.8-3.1c0-0.5,0-1,0.6-1s0.7,0.4,0.7,0.8
	c0,0.8,0.2,1.5,0.5,2.2c0.3,0.6,0.6,1.2,1.4,0.8c0.7-0.2,1.1-0.8,0.9-1.5c0-0.1,0-0.1-0.1-0.2c-0.1-0.3-0.2-0.7-0.5-0.9
	c-0.3-0.3-0.6-0.7-0.1-1s0.7,0,1,0.4C32.9,64.8,33.1,65.5,33,66.2z"/>
<path d="M22.3,63.6c0.8,0.1,1.7-0.3,2.7-0.3c0.4,0,0.8-0.1,1,0.4s-0.2,0.6-0.6,0.7s-0.4,0.6-0.3,1c0.2,0.7,0.4,1.4,0.5,2.1
	c0.1,0.5,0,0.9-0.5,1s-0.6-0.4-0.7-0.8c-0.1-0.6-0.4-1.2-0.4-1.8c-0.1-1.3-0.8-1.4-1.8-1c-0.3,0.1-0.6,0.2-0.9,0.2
	c-0.5,0.1-0.9-0.3-1-0.8c0,0,0-0.1,0-0.1c0-0.5,0.4-0.6,0.8-0.6L22.3,63.6z"/>
<path d="M43.3,63.9c0.5-0.1,0.9,0.3,1,0.8c0,0,0,0,0,0c0.2,1,0.6,2,1,3c0.1,0.4,0.1,0.8-0.3,0.9c-0.3,0.2-0.7,0.1-0.9-0.2
	c-0.1-0.1-0.1-0.2-0.1-0.3c-0.2-1.3-0.6-2.5-1.2-3.6C42.6,64.2,43.1,64,43.3,63.9z"/>
<path d="M111.2,93.5c-0.7,0.2-1.5,0.3-2.3,0.6c-0.5,0.2-0.7,0.7-0.6,1.2c0.1,0.7,0.7,0.4,1.1,0.3c0.8,0,1.5-0.2,2.2-0.5
	c0.3-0.2,0.7-0.1,0.8,0.2s-0.2,0.4-0.4,0.6c-0.6,0.5-1.3,0.8-2.1,0.8c-0.7,0.2-1.3,0.3-1.3,1.2c0,0.3,0,1-0.7,0.9
	c-0.5,0-0.5-0.5-0.5-0.9c0-0.2,0-0.4-0.1-0.6c-0.5-0.5-0.6-1.3-0.2-1.9c0.3-0.7-0.4-1.7,0.5-2.3c0.7-0.4,1.6-0.2,2.4-0.3
	s1.5-0.3,2.2-0.5c0.3-0.1,0.6-0.2,0.7,0.2s0,0.6-0.5,0.8C112.1,93.6,111.6,93.6,111.2,93.5z"/>
<path d="M100.6,98.8c-1.2,0-2.1-1-2.1-2.2c0,0,0,0,0,0c0.1-1.2,1.3-2.8,2.1-2.8c1.2,0.1,3.1,1.7,3.2,2.7S102.1,98.8,100.6,98.8z
	 M100.7,97.6c0.9-0.1,1.8-0.3,2-1.1s-0.9-1.1-1.5-1s-1.5,0-1.4,1C99.8,97.1,100,97.6,100.7,97.6z"/>
<path d="M30.8,95.3c0.1-0.3,0.1-0.6-0.1-0.9c-0.1-0.3-0.2-0.7,0.2-0.8c0.3-0.1,0.7,0,0.9,0.4c0,0,0,0,0,0c0.4,0.8,2.3,0.8,2.7-0.1
	c0.2-0.3,0.1-0.8,0.6-0.8c0.5,0.1,0.9,0.5,1,1c0.1,0.5,0.3,1,0.3,1.5c0,0.7,0.2,1.4,0.5,2c0.2,0.5,0.1,1-0.4,1.3c0,0-0.1,0-0.1,0
	c-0.6,0.2-0.6-0.4-0.7-0.8c-0.2-0.7-0.4-1.4-0.5-2.1c-0.1-0.7-0.5-0.8-1-0.6c-0.4,0.2-0.7,0.3-1.1,0.4c-0.7,0.1-1,0.4-0.7,1.1
	c0.1,0.3,0.1,0.5,0,0.8c-0.1,0.3-0.3,0.6-0.7,0.6s-0.4-0.4-0.4-0.6c-0.1-0.3-0.2-0.5-0.2-0.8C31.2,96.4,30.7,95.9,30.8,95.3z"/>
<path d="M40.5,94.9c-0.1-1.2,0.7-2.2,1.8-2.3c0.1,0,0.1,0,0.2,0c0.5-0.1,1-0.2,1.5-0.4c0.5-0.2,0.9-0.1,1,0.3s-0.2,0.7-0.7,0.8
	c-0.7,0.2-1.5,0.3-2.2,0.5c-0.2,0-0.3,0-0.4,0.2s0.2,0.3,0.4,0.4c0.5,0.1,1,0,1.5-0.2c0.3-0.1,0.7-0.4,0.8,0s-0.3,0.5-0.6,0.7
	c-0.2,0.2-0.5,0.3-0.8,0.3c-1.5,0.5-1.6,0.9-0.7,2.1c0.3,0.5,0.7,0.8,1.2,0c0.1-0.3,0.3-0.5,0.7-0.3s0.2,0.5,0,0.7
	c-0.4,0.6-1,0.9-1.7,1c-0.7,0-0.9-0.7-1.2-1.2C41,96.7,40.7,95.8,40.5,94.9z"/>
<path d="M24.4,93.2c1.1,0,2.1-0.2,3.2-0.5c0.4-0.1,0.7-0.2,0.9,0.3s0.3,0.9-0.2,1c-0.6,0.2-0.5,0.6-0.5,1c0.1,1.2,0.1,2.3,0.2,3.5
	c0,0.4,0,1-0.6,1s-0.6-0.7-0.6-1c0.1-1.2,0-2.3-0.2-3.4c0-0.6-0.3-0.8-1-0.7c-0.8,0.1-1.6,0.1-2.4,0.2c-0.5,0-0.9-0.2-0.8-0.8
	s0.4-0.6,0.9-0.6S24,93.2,24.4,93.2z"/>
<path d="M84,92.8c0.4,0,0.8,0,1.2,0s0.8,0.1,0.7,0.6s-0.3,0.7-0.8,0.5c-1.1-0.4-2,0.2-3,0.2c-0.2,0-0.6,0.1-0.6,0.5s0.4,0.3,0.7,0.3
	c0.8,0,1.6-0.1,2.4-0.3c0.3-0.1,0.5-0.3,0.6,0.1s-0.1,0.5-0.4,0.6c-0.7,0.3-1.5,0.5-2.3,0.5c-0.4,0-1.1,0-1.1,0.5
	c0,0.8,0.4,1.6,1.1,2c0.4,0.2,0.9-0.1,1.1-0.6c0.2-0.3,0.3-0.7,0.7-0.5s0.2,0.7,0,0.9s-0.4,0.8-0.9,1.1c-1.3,0.7-1.9,0.5-2.4-1
	c-0.3-1.1-0.6-2.2-0.9-3.3c-0.3-0.7,0-1.6,0.8-1.9c0.2-0.1,0.5-0.1,0.7-0.1c0.8-0.1,1.7-0.1,2.5-0.1L84,92.8z"/>
<path d="M90.4,99.9c-0.8-0.3-1.7-0.1-2.2-0.9c-0.2-0.3-0.5-0.5-0.2-0.8c0.2-0.3,0.6-0.3,0.8-0.1c0.1,0,0.1,0.1,0.1,0.1
	c0.5,0.7,1.1,0.4,1.7,0.3c0.3-0.1,0.6-0.1,0.6-0.5s-0.3-0.4-0.6-0.5c-1.1-0.3-1.9-1.1-2.3-2.1c-0.5-0.7-0.3-1.7,0.4-2.2
	c0.1-0.1,0.2-0.1,0.3-0.2c0.4-0.1,0.8-0.2,1,0.2s0.3,0.9-0.1,1.1c-1,0.5-0.4,1,0,1.5c0.6,0.6,1.4,1.1,2.2,1.3c0.5,0.1,0.8,0.5,0.8,1
	c0.1,0.6-0.1,1-0.6,1.3S91.1,99.7,90.4,99.9z"/>
<path d="M64.1,95.5c-0.3,1.2-1.3,2-2.5,2.1c-1.3-0.2-2.2-1.4-2.1-2.7c0.1-0.9,0.6-2,1.3-2.1C62.4,92.6,63.9,93.8,64.1,95.5z
	 M60.5,95.2c0.1,0.6,0.3,1.2,1.1,1.2s1.7-0.4,1.6-1.1c-0.1-1-1.3-0.9-2-1.1S60.5,94.7,60.5,95.2z"/>
<path d="M56.3,93.3c0,1.4-0.3,2.7-0.9,3.9c-0.5,0.8-0.9,0.8-1.4,0c-1-1.5-1.7-3.2-2.8-4.6c-0.3-0.3-0.3-0.7,0-1c0,0,0.1-0.1,0.1-0.1
	c0.5-0.3,0.5,0.2,0.8,0.4c0.8,1,1,2.3,1.9,3.3c0.2,0.3,0.3,0.7,0.8,0.6c0.4-0.1,0.6-0.5,0.5-0.9c0-0.8,0-1.6,0-2.4
	c0-0.5-0.3-1.3,0.6-1.3s0.5,0.8,0.5,1.2C56.4,92.8,56.4,93,56.3,93.3z"/>
<path d="M72.8,95.1c0-1.9,1-2.6,2.6-1.8c0.4,0.2,0.6,0.4,0.5,0.8c0,0.3-0.3,0.5-0.6,0.5c-0.1,0-0.2,0-0.2-0.1
	c-1.1-0.4-1.1,0.3-1.1,1.1c0,1,0.7,1.8,1.7,1.9c0.4,0,0.8-0.1,1.1-0.3c0.1,0,0.1-0.1,0.2-0.1c0.5-0.2,1.1-0.6,1.4-0.2
	s-0.5,0.8-0.8,1.1c-0.8,0.9-2.1,1.1-3.2,0.5C73.1,97.7,72.8,96.5,72.8,95.1z"/>
<path d="M69.7,97.3c0,0.5-0.4,0.8-0.9,0.9c-0.5,0-0.5-0.4-0.5-0.8c0-1.1-0.2-2.2-0.6-3.3c-0.2-0.4-0.4-1,0.2-1.2s0.8,0.4,0.9,0.9
	C68.9,94.9,69.2,96.1,69.7,97.3z"/>
<path d="M32.3,26.5c-0.8,0.2-1.7-0.4-1.8-1.2c0-0.1,0-0.1,0-0.2c-0.1-1-0.2-2-0.5-2.9c-0.1-0.2,0-0.4,0.2-0.6c0,0,0,0,0,0
	c0.2-0.1,0.4,0,0.5,0.2s0.5,0.2,0.8,0.2c1.2,0,1.4,0.1,1.6,1.3c0,0.3,0.1,0.6,0.5,0.6s0.8,0,0.9,0.5c0.1,0.5,0,1.1-0.4,1.5
	C33.5,26.3,32.9,26.6,32.3,26.5z M31.1,24.9c1,1.2,1.2,1.3,2,0.5c0.1-0.1,0.3-0.3,0.3-0.5c-0.1-0.2-0.3-0.3-0.6-0.3
	C32.2,24.8,31.6,24.8,31.1,24.9z M31.8,22.9c-0.4,0.2-1.1,0-1,0.8c0,0.2,0,0.5,0.2,0.4c0.5-0.2,1-0.3,1.2-0.8
	C32.3,23,32.1,22.9,31.8,22.9z"/>
<path d="M97.7,26.8c0.2,0,0.4-0.1,0.7-0.1c0.2-0.1,0.3-0.3,0.5,0s-0.1,0.4-0.4,0.5c-1.1,0.4-2.3,0.3-3.3-0.3l-0.7-0.4
	c-0.5-0.3-0.8-0.3-0.9,0.4c0,0.3-0.1,0.7-0.6,0.6s-0.3-0.5-0.3-0.8c-0.1-0.6-0.2-1.1-0.3-1.7c0-0.3-0.1-0.5,0.3-0.6s0.4,0.2,0.5,0.4
	c0.2,0.6,0.4,0.4,0.6,0c0.6-0.8,1.6-1.3,2.6-1.2c0.4,0,0.6,0.2,0.5,0.7c-0.1,0.6-0.4,1.1-0.9,1.4c-0.2,0.1-0.4,0.2-0.3,0.5
	c0.1,0.1,0.3,0.2,0.4,0.2C96.7,26.5,97.2,26.8,97.7,26.8z M94.8,25.5c0.6-0.1,1.2-0.3,1.3-0.9c0.1-0.3-0.2-0.3-0.4-0.3
	c-0.6,0-1.6,0.6-1.5,0.9S94.6,25.5,94.8,25.5z"/>
<path d="M47.5,25.9c0-0.8-0.1-1.5-0.3-2.3c-0.2-0.9,0-1,0.9-0.9c0.6,0.1,1.3,0,1.9,0.1c0.9,0,1.7,0.8,1.6,1.7c0,0.4-0.1,0.7-0.4,1
	c-0.5,0.6-1.3,1-2.1,1c-0.4,0-0.7,0-1,0.4s-0.6,0.1-0.7-0.3C47.5,26.4,47.5,26.1,47.5,25.9z M49.4,23.7c-1.3,0-1.6,0.3-1.1,1.5
	c0.2,0.6,0.8,0.9,1.4,0.7c0,0,0,0,0.1,0c0.6-0.1,1.4-0.9,1.3-1.4c-0.2-0.6-0.7-0.7-1.3-0.8L49.4,23.7z"/>
<path d="M80.2,26.2c0,0.1,0.2,0.4-0.2,0.5c-0.3,0-0.6-0.2-0.8-0.5c-0.2-0.4-0.7-0.6-1.1-0.4c-0.2,0.1-0.3,0.2-0.4,0.4
	c-0.1,0.2-0.2,0.3-0.3,0.4c-0.3,0.3-0.4,0.8-0.9,0.6s0-0.6-0.1-0.9c-0.2-0.5,0-1,0.4-1.3c0,0,0,0,0,0c0.2-0.1,0.3-0.6,0.3-0.9
	s0-0.7,0.4-0.7s1-0.3,1.2,0.3C79.2,24.6,80.3,24.9,80.2,26.2z"/>
<path d="M53.7,26.1c0-0.8,0.6-1.6,0.8-2.6c0.1-0.5,0.9-0.7,1.3-0.3s0.8,1.3,1.7,1.4c0.1,0,0.2,0.3,0.2,0.3c-0.7,0.5-0.2,0.9,0,1.4
	c0.1,0.3-0.1,0.7-0.4,0.8c0,0-0.1,0-0.1,0c-0.4,0.1-0.4-0.3-0.5-0.6s0-0.2,0-0.3c-0.1-0.3-0.1-0.9-0.5-0.8s-1.1,0-1.3,0.6
	c-0.1,0.3-0.2,0.5-0.5,0.7c-0.2,0.1-0.3,0.2-0.5,0.1S53.6,26.4,53.7,26.1z"/>
<path d="M74.3,24.4c0.1-0.3-0.2-1,0.2-1.1s0.3,0.6,0.4,1c0.1,0.3,0.2,0.6,0.2,0.9c0.1,1.2-0.3,1.5-1.5,1.1c-0.6-0.2-1.2-0.5-1.7-0.8
	c-0.5-0.3-0.7-0.1-0.6,0.4c0,0.1,0,0.2,0,0.3c-0.1,0.3-0.1,0.7-0.5,0.7s-0.3-0.4-0.4-0.6c-0.1-0.7-0.2-1.5-0.3-2.2
	c-0.1-0.3,0.1-0.6,0.3-0.7c0.2-0.1,0.5,0,0.6,0.2c0,0,0,0,0,0c0.6,0.8,1.5,1.5,2.4,1.8c0.3,0.1,0.5,0.3,0.8,0.2s0.1-0.5,0.1-0.7
	C74.3,24.7,74.3,24.5,74.3,24.4z"/>
<path d="M66.6,25.5c0.4,0.3,0.5,0.6,0.2,1c-0.2,0.2-0.3,0.5-0.5,0.7c-0.2,0.4-0.5,0.7-1,0.6c-0.5-0.1-0.9-0.4-1-0.9
	c-0.2-0.9-0.3-1.9-0.4-2.8c-0.1-0.2,0.1-0.4,0.3-0.4c0,0,0.1,0,0.1,0c0.2,0,0.4,0.1,0.4,0.4c-0.1,0.8,0.3,0.7,0.8,0.7
	c0.7,0,1.5-0.1,2.2-0.3c0.3-0.1,0.7-0.3,0.8,0.1s-0.4,0.3-0.6,0.4C67.4,25,67,25.2,66.6,25.5c-0.2-0.1-0.4-0.1-0.7-0.1
	c-1,0.1-1.2,0.5-0.7,1.4c0.2,0.4,0.4,0.4,0.7,0.1C66.2,26.4,66.5,26,66.6,25.5z"/>
<path d="M99.8,25.4c0.6,0.2,0.6-0.1,0.7-0.5s-0.1-0.9,0.4-0.8s1.2-0.3,1.6,0.3c0.2,0.4,0.7,0.7,1.2,0.6c0.2,0,0.4,0.2,0.3,0.2
	c-0.7,0.3-0.2,0.8-0.2,1.2c0,0.2-0.1,0.3-0.3,0.4c-0.2,0.1-0.4,0-0.5-0.1c-0.1-0.2-0.2-0.4-0.4-0.6c-0.3-0.5-0.9-0.6-1.4-0.3
	c-0.2,0.1-0.3,0.3-0.4,0.5c-0.1,0.2-0.2,0.4-0.3,0.5s-0.3,0.6-0.6,0.4s-0.1-0.4,0-0.7s0-0.5-0.3-0.6s-0.4-0.1-0.4-0.4
	S99.6,25.4,99.8,25.4z"/>
<path d="M39.6,28.5c0,0.2-0.1,0.4-0.3,0.4c0,0,0,0,0,0c-0.3,0-0.4-0.3-0.4-0.5c-0.1-0.8-0.1-1.5-0.2-2.3c0-0.4-0.1-0.6-0.6-0.4
	c-0.5,0.3-1.2,0.2-1.6-0.2c-0.5-0.5-0.8-1.1-0.8-1.7c0-0.2,0.2-0.4,0.4-0.4s0.3,0.1,0.4,0.3c0,0.3,0.1,0.6,0.3,0.8
	c0.2,0.3,0.4,0.8,1,0.7s1-0.3,0.9-1c-0.1-0.3,0-0.5,0.3-0.6c0.1,0,0.1,0,0.2,0c0.4,0,0.3,0.3,0.3,0.6C39.4,25.4,39.5,26.9,39.6,28.5
	z"/>
<path d="M106,25.8c0,0.2,0,0.4-0.1,0.6c0,0.1-0.1,0.3-0.3,0.3c0,0,0,0,0,0c-0.2,0-0.3-0.1-0.3-0.3c-0.1-0.7-0.2-1.3-0.2-2
	c0-0.5,0.5-0.6,0.9-0.3c0.8,0.4,1.5,0.9,2.3,1.2c0.3,0.1,0.6,0.5,0.9,0.1c0.2-0.4,0.2-0.9-0.1-1.2c-0.1-0.1-0.4-0.2-0.3-0.4
	c0.1-0.2,0.3-0.3,0.5-0.3c0.3,0,0.4,0.2,0.5,0.4c0.3,0.8,0.2,1.6-0.2,2.3c-0.1,0.3-0.3,0.5-0.6,0.1c-0.7-0.6-1.4-0.9-2.3-1.1
	C106.2,25,105.7,24.9,106,25.8z"/>
<path d="M87.8,23.7c0.9,0.1,1.7-0.4,2.5-0.3c0.2,0,0.4,0,0.4,0.2s0,0.4-0.1,0.5c-0.7,0.1-0.4,0.6-0.4,1c0,0.4,0.1,0.9,0.3,1.3
	c0.2,0.3,0.1,0.7-0.2,0.9c0,0-0.1,0-0.1,0c-0.5,0.2-0.5-0.4-0.6-0.6c-0.1-0.6-0.2-1.2-0.2-1.8c0-0.7-0.3-0.7-0.8-0.6
	c-0.6,0-1.2,0-1.8,0c-0.2,0-0.5,0.1-0.5-0.3s0.3-0.3,0.5-0.3L87.8,23.7z"/>
<path d="M60.4,27.5c-0.8,0.1-0.9-0.6-1-1.1c-0.1-0.7-0.2-1.4-0.4-2.1c-0.1-0.3,0-0.7,0.3-0.8s0.5,0.3,0.5,0.6s0.2,0.7,0.2,1.1
	c0.1,1.4,0.7,1.7,1.9,0.9c0.1-0.1,0.2-0.2,0.4-0.2c0.1,0,0.2,0,0.3,0c0.2,0.1,0,0.3,0,0.4C62.1,27,61.3,27.4,60.4,27.5z"/>
<path d="M66.6,23.3l1.2-0.1c0.3,0,0.3,0.2,0.4,0.4s-0.1,0.3-0.3,0.3c-0.7,0.1-1.5,0.2-2.2,0.3c-0.3,0-0.6,0-0.6-0.4s0.2-0.5,0.6-0.5
	S66.3,23.1,66.6,23.3z"/>
<path d="M45.7,181.2c1.7-0.1,2.5,0.7,2.2,2.4c-0.2,1-0.1,1.4,1,1.4c0.7,0,1.3,0.3,1.3,1.3c0,0.8-0.5,1.5-1.3,1.6
	c-1,0.5-2.2,0.4-3.1-0.2c-0.3-0.2-0.7-0.4-0.5-0.8s0.5,0,0.8,0.2c1.1,0.3,2.3,0.1,3.2-0.6c0.3-0.4,0-0.5-0.3-0.5
	c-1.6-0.2-3.3-0.7-4.8,0.6c-0.3,0.3-0.6,0-0.6-0.3c-0.4-1.3-0.7-2.6-0.8-4c0-0.2,0.1-0.5,0.3-0.5C44.2,182,44.8,180.8,45.7,181.2z
	 M46,182.2c-1,0-2,0.6-1.9,1.4c0,0.6-0.1,1.3,0.9,1.3c1.1,0,1.9-0.8,2.1-1.9C47.1,182.1,46.4,182.3,46,182.2L46,182.2z"/>
<path d="M5.2,183.7c-0.7,0.8-0.4,1.7-0.7,2.4c-0.5,1.1-0.7,1.1-1.5,0.3c-0.6-0.6-0.9-1.4-1.6-2.1c-0.2,1.1,0.4,2,0.3,2.9
	c0,0.3,0,0.7-0.4,0.8s-0.4-0.4-0.5-0.7c-0.3-1.7-0.5-3.4-0.8-5.2c-0.1-0.2,0.1-0.4,0.3-0.5c0.4-0.1,0.7,0.1,0.9,0.5
	c0.5,1.1,1.1,2.1,1.8,3.1c0.2,0.3,0.3,0.8,0.8,0.6s0.3-0.5,0.3-0.8c0.2-0.8,0.3-1.6,0.5-2.3c0-0.2,0.1-0.5,0.3-0.6s0.4,0.2,0.5,0.4
	c0.3,0.9,0.6,1.7,0.9,2.6c0.1,0.3,0.1,0.7,0.4,0.8c0.5,0.3,0.2,0.7,0.1,1c0,0.2-0.2,0.3-0.4,0.3c0,0,0,0,0,0
	c-0.3-0.2-0.5-0.5-0.5-0.9C5.8,185.4,5.6,184.5,5.2,183.7z"/>
<path d="M55.8,184.2c0-0.2,0-0.4,0-0.6c-0.1-0.4,0-0.7,0.5-0.8s0.5,0.3,0.6,0.6c0.3,1.2,0.4,2.4,0.3,3.6c0,1.1,0.1,2.1,0.4,3.2
	c0.1,0.3,0.1,0.6-0.1,0.8c-0.1,0.3-0.1,0.7-0.5,0.7s-0.5-0.4-0.5-0.7c-0.2-1.1-0.3-2.3-0.4-3.4c-0.1-0.6-0.1-1-1-0.7s-1.5-0.6-2-1.3
	c-0.3-0.4-0.5-0.8-0.6-1.3c-0.1-0.3-0.3-0.6,0.1-0.8s0.5,0.1,0.7,0.4c0.2,0.4,0.3,0.7,0.5,1.1c0.3,0.6,0.7,1.2,1.5,1
	S55.8,184.8,55.8,184.2z"/>
<path d="M29.8,185c0-0.9,0.1-1.7,1-2.3c0.5-0.3,1.2-0.3,1.7,0c0.3,0.2,0.7,0.4,0.5,0.8s-0.6,0-0.8-0.2c-0.6-0.6-0.8,0.1-1.1,0.4
	c-0.5,0.6-0.6,1.5-0.2,2.2c0.2,0.7,1,1.1,1.7,1c0.7-0.1,1.4-0.6,1.7-1.3c0.1-0.3,0.2-0.7,0.6-0.6s0.2,0.6,0.2,0.8
	c-0.2,1.2-1.1,2.1-2.2,2.3c-1.5,0-2.7-1.1-3-2.5C29.8,185.5,29.8,185.2,29.8,185z"/>
<path d="M21,186.6c-1.3-0.5-2.5-0.3-3.5-1.2c-0.6-0.7-0.9-1.6-0.6-2.4c0.1-0.6,0.7-1,1.4-1.2c0.2-0.1,0.5-0.1,0.6,0.1
	s-0.1,0.4-0.3,0.6c-0.4,0.3-1.2,0.5-0.9,1.2s0.5,1.7,1.7,1.8c0.8,0.1,1.6,0.3,2.3,0.5c0.3,0.1,0.6,0.1,0.6,0.4
	c0,0.3-0.2,0.6-0.5,0.6c-1.5,0.4-3,0.5-4.5,0.3c-0.2,0-0.3-0.1-0.3-0.3c0-0.4,0.4-0.4,0.6-0.4L21,186.6z"/>
<path d="M13.4,185c-0.1-0.8-0.3-1.5-0.8-2.1c-0.2-0.3-0.4-0.7,0.1-0.9s0.5,0.2,0.6,0.5c0.4,1.5,1.2,3.1,0,4.6
	c-0.2,0.4-0.6,0.5-1,0.3c0,0-0.1,0-0.1-0.1c-1.5-0.8-2.5-2.4-2.7-4.1c0-0.2,0-0.4,0.2-0.5s0.4,0.2,0.5,0.4c0.1,0.9,0.5,1.8,1.1,2.5
	c0.4,0.4,0.7,1.1,1.4,0.8S13.3,185.5,13.4,185z"/>
<path d="M26.6,187.5c-0.8-0.8-0.8-1.8-1-2.7c-0.1-0.6-0.2-1.1-0.5-1.6c-0.1-0.2-0.1-0.4,0.1-0.5c0.2-0.2,0.4-0.1,0.5,0
	C26.2,183.1,27,186.7,26.6,187.5z"/>
<path d="M91.5,210.1c-0.6,0-1.1-0.2-1.4-0.6c-0.3-0.4-0.6-0.5-0.8,0.1c0,0.2-0.1,0.3-0.3,0.3s-0.2-0.3-0.2-0.4c0-1-0.2-2-0.7-2.8
	c-0.2-0.2,0-0.4,0.2-0.5c0.2-0.1,0.4,0,0.5,0.2c0,0.1,0,0.1,0,0.2c0.1,1.2,0.5,0.7,0.9,0.2c0.3-0.4,0.8-0.7,1.3-0.8
	c0.3,0,0.6-0.2,0.8,0.1s0.1,0.6,0,0.9c-0.1,0.5-0.5,0.7-0.8,1s-0.9,0.2-0.6,0.7s0.6,1,1.3,0.8c0.5,0,1-0.2,1.4-0.6
	c0.1-0.1,0.3-0.3,0.5-0.1s0,0.4-0.1,0.5C92.8,209.5,92.3,210.2,91.5,210.1z M90.6,207.3c0.4-0.1,0.8-0.4,0.9-0.9
	c0-0.1-0.1-0.3-0.2-0.3c0,0-0.1,0-0.1,0c-0.4,0.1-0.8,0.3-1,0.7C90.2,207.1,90.3,207.3,90.6,207.3z"/>
<path d="M50.5,206.7c-0.4,0.6-0.8,1.2-1.1,1.9c-0.2,0.5-0.4,0.5-0.8,0.2l-1.1-0.8c-0.2-0.1-0.4-0.3-0.6-0.1s-0.2,0.4-0.1,0.6
	c0.2,0.5,0.1,1.1-0.1,1.6c-0.5-0.3-0.5-0.7-0.6-1.1l-0.2-1.7c0-0.3-0.1-0.7,0.3-0.8c0.3-0.1,0.7,0,0.9,0.3c0.3,0.4,0.7,0.8,1.2,1
	c0.3,0.2,0.6,0.2,0.8-0.1c0,0,0.1-0.1,0.1-0.1c0.3-0.5,0.8-0.9,1.1-1.4s0.4-0.3,0.6,0.1c0.3,0.8,0.5,1.6,0.7,2.4
	c0.1,0.4,0,0.8,0.4,1.1s0,0.5-0.1,0.7c0,0.1-0.2,0.2-0.4,0.2c0,0,0,0,0,0c-0.2-0.1-0.4-0.3-0.4-0.6
	C51.1,209.1,50.9,207.9,50.5,206.7z"/>
<path d="M106.6,208.2c-0.1,0.3,0.2,1-0.4,1.1c-0.4,0-0.4-0.6-0.5-1.1c-0.1-0.6-0.2-1.1-0.3-1.7c0-0.3-0.2-0.8,0.3-1s0.6,0.1,0.8,0.4
	c0.7,0.8,1.8,1.1,2.6,1.8c0.3,0.3,0.4-0.1,0.5-0.4c0-0.7-0.1-1.3-0.3-1.9c-0.1-0.3-0.3-0.7,0.1-0.8s0.4,0.4,0.5,0.7
	c0.4,1,0.4,2.1,0.2,3.1c-0.1,0.5-0.2,0.7-0.7,0.3c-0.7-0.6-1.5-1-2.4-1.3C106.2,207.1,106.7,207.9,106.6,208.2z"/>
<path d="M59.7,209.4c0,0.1,0.2,0.7-0.2,0.7s-0.4-0.5-0.5-0.9c0-0.7-0.1-1.4-0.3-2c-0.2-0.3,0-0.8,0.3-0.9c0,0,0,0,0,0
	c0.4-0.2,0.5,0.2,0.7,0.4c0.5,0.8,1.2,1.4,2,1.8c0.4,0.3,1,0.1,1.3-0.3c0.3-0.4,0-0.8-0.3-1.2s-0.5-0.4-0.3-0.6s0.5,0.1,0.7,0.3
	c0.7,0.8,0.8,1.5,0.3,2.1c-0.5,0.7-1.5,0.9-2.2,0.3c0,0,0,0-0.1-0.1l-0.5-0.3c-0.3-0.1-0.4-0.5-0.8-0.3S59.8,209,59.7,209.4z"/>
<path d="M77.1,206.2c0.6-0.3,1.5,0,2.3-0.4c0.4-0.1,0.8-0.1,1.2-0.1c0.1,0,0.2,0.1,0.2,0.2c0.1,0.2,0,0.4-0.2,0.3
	c-1.1,0-2.1,0.7-3.2,0.4c-0.2,0-0.4-0.1-0.5,0.1s0.2,0.3,0.3,0.4c0.7,0.5,1.5,0.2,2.2,0.2c0.2,0,0.4-0.2,0.5,0.1s-0.2,0.3-0.4,0.4
	c-0.6,0.3-1.2,0.4-1.8,0.2c-0.5-0.2-0.6,0.1-0.5,0.5s0.1,0.9,0.5,1.1s0.2,0.4,0.1,0.6s-0.2,0.3-0.4,0.3s-0.3-0.4-0.4-0.6
	c-0.3-1.1-0.6-2.2-0.8-3.3C76.1,206.1,76.5,206.1,77.1,206.2z"/>
<path d="M82.1,208.5c0.1-1.1,0.8-2.2,1.5-2.2c1.4,0,3,1.2,3,2.1s-1.7,2.2-2.6,2.1C82.9,210.4,82.1,209.5,82.1,208.5z M82.8,208.4
	c0,0.9,0.6,1.6,1.5,1.7c0.6,0,1.8-1.1,1.8-1.5s-1.4-1.8-1.9-1.7C83.4,207,82.9,207.6,82.8,208.4L82.8,208.4z"/>
<path d="M44,207.5c-0.6,0.4-1.2,0.6-1.9,0.7c-0.4,0-0.6,0.2-0.4,0.6c0.1,0.1,0.1,0.2,0.2,0.3c0.5,1.1,0.5,1.1,1.2,0.2
	c0.4,0.6,0,1-0.4,1.3s-0.5,0.2-0.7-0.1c-0.7-0.7-0.8-1.8-1.4-2.6c-0.2-0.2,0.1-0.9-0.1-1.3c0-0.1,0-0.2,0.1-0.2
	c1.1-0.5,2.4-0.6,3.6-0.2c-0.3,0.3-0.7,0.4-1.1,0.4c-0.4,0-0.8,0-1.1,0.2c-0.2,0.1-0.7,0-0.7,0.4s0.5,0.4,0.9,0.3L44,207.5z"/>
<path d="M34.2,208.1c-0.2,0.9-0.9,1.7-1.8,2c-1,0-1.9-0.6-2.3-1.5c-0.2-0.6-0.3-1.2-0.2-1.9c0-0.5,0.4-1,0.9-1.1
	c0.5-0.1,1.1,0,1.4,0.3c0.2,0.1,0.3,0.3,0.2,0.5s-0.3,0.1-0.5,0c-0.4-0.3-1-0.3-1.4,0.1c-0.4,0.4-0.2,0.9,0,1.4
	c0.5,1.2,2,2.1,3.1,0.5C33.9,208.3,34,208.1,34.2,208.1z"/>
<path d="M96,206.4c-0.4-0.2-0.8,0.3-1.2,0.2c-0.3,0-0.5,0-0.5-0.4s0.1-0.4,0.4-0.4c0.8-0.1,1.7-0.3,2.5-0.5c0.5-0.1,0.8,0,0.6,0.6
	s0.2,1.4-0.1,2.2c0,0.1,0,0.3,0.1,0.4c0.2,0.1,0.6,0.1,0.5,0.5s-0.5,0.6-0.8,0.9s-0.4-0.2-0.4-0.5c-0.1-0.8-0.2-1.6-0.3-2.4
	S96.8,206.3,96,206.4z"/>
<path d="M66.3,207.4c0.3-0.8,0-1-0.8-1c-0.5,0-1,0-1.5,0.1c-0.2,0.1-0.4,0-0.4-0.2c-0.1-0.3,0.1-0.3,0.3-0.4
	c1.2-0.2,2.4-0.4,3.6-0.4c0.2,0,0.4,0.1,0.4,0.3c0,0.3-0.2,0.3-0.4,0.3s-0.5,0.1-0.5,0.3c-0.1,1-0.4,2,0.3,2.9
	c0.1,0.2,0.3,0.3,0.1,0.6s-0.3,0.3-0.5,0.3s-0.4-0.2-0.4-0.4C66.4,208.9,66.4,208.2,66.3,207.4z"/>
<path d="M53.7,208.1c0-0.3-0.1-0.5-0.1-0.8c0-0.2,0.2-0.4,0.3-0.2c0.5,0.5,1,0.4,1.6,0.4c0.2,0,0.4,0,0.4,0.2s-0.2,0.2-0.3,0.2h-0.2
	c-1.2,0.1-1.5,0.7-1,1.8c0.3,0.6,0.5,0.1,0.8,0s0.5-1,1-0.4s-0.4,0.6-0.7,0.8c-1,0.8-1.5,0.6-1.8-0.6
	C53.8,209.1,53.8,208.6,53.7,208.1L53.7,208.1z"/>
<path d="M39.9,209.1c-0.7,0.6-1.4,1.1-2.1,1.5c-0.3,0.2-0.8-0.2-1-0.6c-0.6-1-0.9-2-1-3.2c0-0.2,0-0.6,0.2-0.6s0.3,0.4,0.3,0.6
	c0,0.9,0.3,1.9,0.8,2.7c0.2,0.4,0.4,0.5,0.9,0.3S39,209,39.9,209.1z"/>
<path d="M102.3,208.5c0-0.8-0.1-1.5-0.3-2.2c-0.1-0.3-0.2-0.5,0.2-0.6s0.4,0.2,0.6,0.4c0.2,0.5,0.2,1.1,0.2,1.6
	c0,0.4,0.1,0.9,0.3,1.3c0.1,0.3,0,0.6-0.2,0.8c-0.1,0.1-0.2,0.1-0.3,0.1c0,0,0,0,0,0c-0.3-0.2-0.4-0.5-0.4-0.9
	C102.3,208.8,102.3,208.7,102.3,208.5z"/>
<path d="M56.2,205.9c0.5,0,0.9-0.2,1,0.2s-0.4,0.4-0.8,0.4c-0.9,0.2-1.9-0.1-2.8,0.3c-0.2,0.1-0.3,0-0.4-0.2c0-0.3,0.3-0.4,0.5-0.4
	C54.5,206.1,55.3,206,56.2,205.9z"/>
<path d="M43.4,202.5c-0.2,0.6-0.8,0.9-1.1,1.5c-0.1,0.1-0.3-0.2-0.2-0.4c0.2-0.6,0.7-0.9,1-1.4C43.1,202.1,43.3,202.3,43.4,202.5z"
	/>
<path d="M74,121.9c-0.6-0.4-1.5-0.5-2.1-1.3c-0.2-0.3-0.4-0.6-0.8-0.4s-0.7,0.3-0.8,0.7c0,0.2-0.1,0.3-0.2,0.5
	c-0.1,0.3-0.4,0.6-0.7,0.5c-0.4-0.1-0.1-0.5,0-0.7l0.6-2.4c0.1-0.3,0-0.6,0.3-0.7s0.6,0.2,0.8,0.4c0.7,0.6,1,1.5,1.7,2.2
	c0.3,0.3,0.7,0.4,1.1,0.6c0.3,0.2,0.7-0.1,0.8-0.4s-0.1-0.4-0.3-0.6c-0.7-0.7-0.8-1.6-0.1-2.1c0.2-0.1,0.4-0.4,0.7-0.2
	s0.1,0.5,0,0.7c-0.4,1.1-0.3,1.3,0.9,1.5c0.3,0.1,0.5,0.1,0.5,0.4s0,0.6-0.3,0.7C75.5,121.7,74.8,121.8,74,121.9z"/>
<path d="M95.5,121.6c-0.7-0.3-1.6,0.1-2.3-0.5c-0.4-0.4-0.4,0.2-0.6,0.4s-0.1,0.4-0.3,0.3s-0.1-0.3-0.1-0.4c0-0.8-0.2-1.5-0.8-2.1
	c-0.2-0.2-0.2-0.5-0.1-0.7c0,0,0.1-0.1,0.1-0.1c0.3-0.2,0.6-0.2,0.7,0.3s0.4,0.3,0.5,0c0.2-0.6,0.7-0.7,1.1-1s0.8-0.5,1.2-0.2
	s0,0.8-0.2,1.2c-0.2,0.3-0.4,0.6-0.6,0.8c-0.5,0.6-0.4,1,0.4,1c0.6,0,1.4,0.7,1.8-0.3c0,0,0.2,0,0.3,0c0.2,0.1,0.3,0.3,0.2,0.5
	c0,0.6-0.5,1-1.1,0.9C95.6,121.6,95.6,121.6,95.5,121.6z"/>
<path d="M100.7,117.6c0,0.7-0.1,1.1-0.7,1.3c-0.2,0.1-0.4,0.2-0.4,0.5s0.3,0.3,0.6,0.3c0.6,0,1.1,0.1,1.7,0.1c0.2,0,0.4-0.1,0.4,0.2
	c0,0.3,0,0.6-0.2,0.8c-0.1,0.1-0.3,0.1-0.5,0c-0.8-0.3-1.6-0.5-2.4-0.5c-0.4-0.1-0.4,0.3-0.3,0.6s0,0.3-0.1,0.3s-0.3-0.1-0.4-0.3
	c-0.3-1-0.1-2.1-0.5-3.2c0-0.1,0-0.2,0.1-0.3c0.1-0.1,0.3,0,0.3,0.1c0.2,0.4,0.3,0.3,0.5,0c0.2-0.3,0.5-0.6,0.7-0.8
	c0.6-0.5,0.7-0.5,0.9,0.3C100.6,117.2,100.7,117.5,100.7,117.6z M99.6,118.3c0.2-0.1,0.5-0.2,0.5-0.5c0-0.1-0.1-0.2-0.2-0.3
	c0,0,0,0-0.1,0c-0.3,0-0.5,0.2-0.6,0.5C99.2,118.1,99.3,118.3,99.6,118.3z"/>
<path d="M128.5,121c0.1,0.6-0.1,0.8-0.7,0.8c-0.7,0.1-1.4,0.2-2.1,0.4c-0.3,0.1-0.6,0-0.7-0.3s0.2-0.4,0.5-0.4
	c0.6,0,1.1-0.1,1.7-0.3c0.4-0.1,0.7-0.5,0.7-1c0,0,0,0,0,0c-0.2-1.2-0.3-2.5-0.4-3.8c0-0.6-0.4-0.7-0.8-0.6s-0.7,0.2-1,0.3
	c-0.2,0.1-0.4,0-0.5-0.2c0,0,0-0.1,0-0.1c0-0.3,0-0.4,0.4-0.5c0.7-0.1,1.3-0.3,2-0.4c0.7-0.1,0.6,0.3,0.6,0.7c0.2,1.3,0.1,2.7,0.3,4
	C128.3,120,128.7,120.4,128.5,121z"/>
<path d="M65.5,117.5c0,1.2,0.2,2.3,0.4,3.5c0.1,0.7,0.4,0.8,1,0.6c0.4-0.1,0.8-0.3,0.9,0.3s-0.3,0.6-0.6,0.7
	c-0.2,0.1-0.4,0.2-0.6,0.3c-0.8,0.2-1,0-1.2-0.8c-0.5-1.8-0.2-3.7-0.8-5.4c-0.1-0.3,0-0.6,0.2-0.8c0.2-0.3,0.5,0,0.7,0
	c0.4,0.2,0.8,0.3,1.2,0.3c0.2,0,0.5,0,0.4,0.3s-0.3,0.2-0.5,0.2c-0.2,0-0.4-0.1-0.6-0.1C65.3,116.6,65.5,117.1,65.5,117.5z"/>
<path d="M84.3,119.1c0.1-0.4-0.1-1.2,0.4-1.2s0.3,0.7,0.4,1.1c0.1,0.5,0.2,1.1,0.1,1.6c-0.1,0.6-0.4,0.6-0.8,0.3s-1-0.6-1.4-0.9
	s-0.6-0.1-0.6,0.3c0,0.4,0,0.8-0.2,1.3c-0.1,0.1-0.1,0.3-0.3,0.3s-0.2-0.1-0.2-0.2c-0.1-1.1-0.6-2.1-0.4-3.2c0-0.2,0.1-0.5,0.3-0.5
	s0.4,0.2,0.5,0.5c0.3,0.8,1.2,1.1,1.9,1.4C84.6,120,84.3,119.4,84.3,119.1z"/>
<path d="M107.7,119.2c-0.1,0.3-0.3,0.3-0.5,0.3s-0.5,0-0.6,0.3s0.1,0.4,0.3,0.5s0.3,0.3,0.1,0.5s-0.1,0.4-0.3,0.5s-0.3-0.3-0.4-0.5
	s-0.2-0.3-0.3-0.4c-0.5-0.8-0.8-0.8-1.4,0c-0.3,0.3-0.4,1-0.8,0.9s-0.1-0.7,0-1.1c0.1-0.8,0.6-1.5,0.6-2.4c0-0.3,0.4-0.2,0.6-0.3
	s0.4-0.2,0.6,0.2c0.2,0.9,0.7,1.6,1.8,1.3C107.5,118.8,107.7,118.9,107.7,119.2z"/>
<path d="M90.2,120.2c-0.1,0.3,0,0.7,0.3,0.8c0.2,0.1,0.3,0.4,0.1,0.6c0,0-0.1,0.1-0.1,0.1c-0.3,0.3-0.5,0-0.6-0.3s-0.4-0.8-0.9-0.7
	c-0.5,0-1,0.4-1.2,0.9c-0.1,0.2,0,0.6-0.4,0.4s-0.1-0.4-0.1-0.6c0.2-0.8,0.3-1.6,0.3-2.4c-0.1-0.4,0.1-0.7,0.5-0.9
	c0.4-0.1,0.6,0.1,0.8,0.4s0.6,0.8,1.1,0.9C90.4,119.6,90.3,119.9,90.2,120.2z"/>
<path d="M119.5,118.2c-0.1-0.8,0.3-1.5,1-1.8c0.4-0.2,0.9-0.3,1.3,0c0.3,0.5,0.3,1.1,0,1.5c-0.1,0.1-0.2,0.2-0.3,0.3
	c-0.8,0.8-0.8,0.9,0.3,1.3c0.8,0.3,1.1,0.2,2.2-0.3c-0.1,0.7-0.2,0.8-1.1,1.1c-1,0.3-2.1-0.1-2.8-0.9c-0.3-0.4-0.4-0.8,0.2-1.1
	c0.3-0.2,0.6-0.4,0.8-0.6c0.2-0.1,0.3-0.4,0.2-0.7c0,0,0,0,0,0c-0.2-0.3-0.4-0.3-0.7-0.2c-0.3,0.1-0.6,0.3-0.8,0.6
	C119.8,117.7,119.8,118,119.5,118.2L119.5,118.2z"/>
<path d="M114.4,117.8c0,0.3-0.1,0.7-0.2,1c-0.2,0.4-0.1,0.9,0.3,1.2c0.3,0.3,0.8,0.4,1.3,0.2c0.5-0.2,0.8-0.6,0.8-1.1
	c0-0.6-0.5-0.7-0.9-0.8c-0.2,0-0.5,0-0.5-0.3s0.4-0.3,0.6-0.3c0.6,0,1,0.4,1.2,1c0.3,0.9-0.3,1.5-0.9,2c-0.4,0.4-1.1,0.5-1.6,0.2
	c-0.6-0.3-1-1-0.9-1.7C113.5,118.6,113.4,117.8,114.4,117.8z"/>
<path d="M110.8,119.7c0-0.3,0-0.5,0-0.7c0-1.1-0.1-1.2-1.2-0.9c-0.3,0.1-0.7,0.2-1.1,0.2s-0.6,0.1-0.6-0.2c-0.1-0.3,0.1-0.5,0.3-0.6
	c0,0,0.1,0,0.1,0c0.9-0.1,1.8-0.2,2.8-0.3c0.4,0,0.6,0.2,0.5,0.7c-0.4,1-0.4,2,0,3c0.1,0.1,0.1,0.3-0.1,0.4c0,0,0,0,0,0
	c-0.2,0.1-0.3,0-0.5-0.2C110.8,120.6,111,120,110.8,119.7z"/>
<path d="M119.5,118.2c0,0.8-0.1,1.6-0.3,2.4c0,0.2-0.1,0.3-0.3,0.3s-0.3-0.3-0.3-0.5c0-1-0.1-2-0.3-2.9c0-0.2,0-0.4,0.2-0.4
	c0.1-0.1,0.3-0.1,0.4,0c0.2,0.1,0.2,0.3,0.1,0.5s-0.2,0.5,0,0.7S119.3,118.3,119.5,118.2L119.5,118.2z"/>
<path d="M58.7,154.4c-0.9,0.2-1.7-0.5-2.6-0.5c-0.3,0-0.2-0.3-0.3-0.5c-0.1-0.8-0.3-1.7-0.4-2.5c-0.1-0.6,0.5-1,1.3-0.9
	c0.6,0.1,1.2,0.2,1.7,0.3c0.7,0.2,1,0.7,0.8,1.3s0.1,0.7,0.5,0.8c0.2,0.1,0.7-0.2,0.7,0.3c0.1,0.5-0.1,0.9-0.4,1.2
	C59.7,154.4,59.2,154.5,58.7,154.4z M57,151c-0.4-0.1-0.7,0-0.5,0.3s-0.3,1,0.4,1.1c0.4,0.1,1.6-0.7,1.5-1
	C58.1,150.7,57.4,151.3,57,151z M57.6,153.6c0.4,0.3,1,0.2,1.4-0.1c0.1,0,0.1-0.1,0.1-0.2c0,0,0,0-0.1-0.1c-0.4-0.2-1-0.1-1.3,0.2
	C57.7,153.4,57.7,153.5,57.6,153.6z"/>
<path d="M119.1,155.8c-0.5-0.1-1.2-0.1-1.9-0.3c-0.2,0-0.6-0.1-0.5-0.6s0.4-0.1,0.6-0.1c0.4,0.1,0.8,0.1,1.2,0.1
	c0.5-0.1,1-0.2,0.8-1c-0.4-1.5-0.5-3.1-0.5-4.6c0-0.7-0.5-0.9-1.1-0.9s-1,0.1-1.5,0.2s-0.8,0-0.8-0.4s0.3-0.5,0.7-0.5
	c0.9,0,1.8-0.1,2.6-0.3c0.3-0.1,0.5,0,0.6,0.4c0.2,1.7,0.3,3.5,0.5,5.2c0,0.4,0.1,0.8,0.3,1.2C120.9,155.4,120.6,155.8,119.1,155.8z
	"/>
<path d="M44.9,150c0.5,0,1-0.1,1.5-0.2c0.7-0.3,1,0,0.9,0.7c0,0.3-0.1,0.5-0.2,0.7c-0.3,0.4-0.1,0.6,0.3,0.7c0.7,0,0.8,0.5,0.8,1
	c-0.1,0.8-0.6,1.4-1.4,1.6c-0.7,0.2-1.1-0.3-1.6-0.7c-1.3-0.9-0.7-2.3-1-3.4C44.1,149.9,44.5,149.9,44.9,150z M45.2,152.5
	c-0.1,0.1-0.3,0.2-0.2,0.3c0.3,0.5,0.9,0.8,1.5,0.9c0.5,0,0.9-0.3,0.9-0.7c0,0,0-0.1,0-0.1c0-0.5-0.6-0.3-0.9-0.3
	C46.1,152.7,45.6,152.6,45.2,152.5c0.3-0.6,0.7-1.1,1.2-1.5c0.1-0.1,0.3-0.2,0.2-0.4s-0.3-0.2-0.5-0.1
	C45,150.9,44.8,151.2,45.2,152.5L45.2,152.5z"/>
<path d="M111.7,152.1c-0.5,0.4-0.3,0.9-0.4,1.3c-0.1,0.2-0.1,0.4-0.3,0.4c-0.2,0-0.3-0.2-0.3-0.4c0-0.8-0.1-1.6-0.3-2.4
	c0-0.4,0.1-0.9,0.7-0.5c0.2,0.1,0.4,0.1,0.5-0.1c0.4-0.4,0.9-0.6,1.4-0.7c0.5-0.2,1.1,0.1,1.3,0.6c0.2,0.4-0.1,0.8-0.5,1.2
	s-1,0.2-0.9,0.8s0.8,0.6,1.2,0.8s0.7,0.4,1.1,0.2c0.2-0.1,0.5-0.2,0.6,0.1s-0.2,0.4-0.5,0.5c-1.2,0.3-2.5-0.2-3.3-1.2
	C111.9,152.6,111.8,152.4,111.7,152.1z M113.6,150.7c0-0.2-0.2-0.3-0.3-0.3c-0.6-0.1-1.2,0.2-1.5,0.7c-0.1,0.2-0.2,0.4,0,0.5
	s0.3-0.1,0.4-0.2c0.3-0.2,0.7-0.3,1-0.5C113.3,150.9,113.5,150.9,113.6,150.7L113.6,150.7z"/>
<path d="M99.4,153c0,1.2-0.3,1.4-1.1,0.9c-0.9-0.3-1.7-0.7-2.4-1.2c-0.3-0.3-0.4,0-0.4,0.3c0,0.5,0.3,0.9,0.1,1.4
	c-0.1,0.2,0,0.4-0.3,0.4s-0.2-0.2-0.3-0.4c-0.2-1-0.5-2-0.8-2.9c-0.1-0.3,0-0.6,0.3-0.7c0.3-0.2,0.6-0.1,0.9,0.1
	c0.3,0.3,0.6,0.5,0.8,0.8c0.6,0.6,1.3,1,2,1.3c0.4,0.2,0.6,0,0.5-0.4s-0.2-1.1-0.3-1.6c0-0.2-0.3-0.5,0.1-0.6
	c0.3-0.1,0.5,0.1,0.6,0.3c0,0,0,0,0,0.1C99.2,151.7,99.3,152.5,99.4,153z"/>
<path d="M77.1,149.9c0.3,0,0.7-0.1,1.1-0.1c0.2,0,0.5,0,0.5,0.3c0.1,0.2-0.1,0.5-0.3,0.6c0,0,0,0,0,0c-0.1,0-0.2,0-0.3,0.1
	c-1.3,0.3-1.3,0.3-1.1,1.6c0.1,1,0.2,1.9,0.3,2.9c0,0.6,0.3,0.7,0.7,0.4c0.2-0.1,0.4-0.2,0.6,0.1c0.1,0.2,0.1,0.5-0.1,0.6
	c-0.3,0.4-0.8,0.6-1.3,0.5c-0.5-0.1-0.5-0.6-0.6-1c-0.3-1.8-0.3-3.6-0.7-5.3C75.7,149.7,76.5,149.9,77.1,149.9z"/>
<path d="M38.7,152.7c0.3-1.1,0.7-2.1,1.2-3.1c0.2-0.4,0.5-0.1,0.7,0c0.5,0.4,0.9,0.9,1.3,1.4c0.3,0.4,0.5,1.1,0.8,1.7
	c0.1,0.3,0,0.6-0.3,0.7c-0.3,0.1-0.5-0.1-0.6-0.3s-0.3-0.4-0.4-0.7s-0.2-0.8-0.8-0.7s-1,0.2-1.1,0.8c0,0.1-0.1,0.3-0.2,0.4
	c-0.1,0.2-0.1,0.5-0.4,0.4S38.7,152.9,38.7,152.7z"/>
<path d="M84.4,152.8c-0.1,0.3,0.1,0.5,0.3,0.8s0.4,0.6,0,0.9s-0.6-0.1-0.7-0.4c-0.3-0.6-0.7-0.9-1.5-0.6c-0.3,0.1-0.6,0.3-0.6,0.7
	c-0.1,0.3-0.2,0.5-0.4,0.8c-0.1,0.2-0.3,0.2-0.5,0.1c-0.2-0.1-0.2-0.3-0.2-0.4c0.2-0.9,0.6-1.6,0.7-2.5c0.1-0.6,1-0.8,1.5-0.5
	s0.7,0.6,1.2,0.7C84.5,152.3,84.4,152.6,84.4,152.8z"/>
<path d="M64.6,151.1c0.9,0.2,1.7,0.9,2.1,1.8c0.1,0.7-0.2,1.2-1.1,1.5c-1.2,0.3-2.3-0.4-2.6-1.5c0-0.2-0.1-0.3-0.1-0.5
	c0-0.5,0-1,0.8-0.9C64.1,151.5,64.3,151,64.6,151.1z M65.2,153.5c0.3,0,0.5,0,0.7-0.3s-0.1-0.5-0.3-0.6c-0.2-0.2-0.5-0.4-0.7-0.6
	c-0.3-0.2-0.7-0.2-1,0.1c0,0,0,0,0,0c-0.3,0.4,0,0.6,0.2,0.9C64.3,153.4,64.8,153.6,65.2,153.5L65.2,153.5z"/>
<path d="M32.3,151.4c0.1,0.6,0.1,1.1,0,1.7c-0.2,0.7-0.6,0.9-1.2,0.4c-0.5-0.4-0.9-1-1.1-1.6c-0.1-0.3-0.1-0.6,0.1-0.8
	c0.1-0.2,0.3-0.2,0.4-0.2c0.2,0.1,0.2,0.2,0.2,0.4s-0.1,0.2-0.1,0.3c0.1,0.4,0.3,0.9,0.7,0.9s0.3-0.6,0.2-0.9c0-1-0.1-2-0.2-3
	c-0.1-0.3-0.1-0.7,0.3-0.7s0.3,0.4,0.4,0.6C32.3,149.6,32.3,150.5,32.3,151.4z"/>
<path d="M87,155.1c-0.2,0-0.4-0.1-0.6-0.2c-0.2-0.1-0.5-0.3-0.3-0.6s0.4-0.5,0.7-0.2c0.2,0.3,0.6,0.3,0.8,0.1
	c0.1-0.1,0.1-0.1,0.2-0.2c0.3-0.4-0.3-0.4-0.4-0.6c-1-0.9-1.1-1.9-0.4-2.5c0.2-0.2,0.3-0.3,0.6-0.1c0.2,0.2,0.2,0.4,0.1,0.6
	c-0.1,0.3-0.5,0.4-0.3,0.8c0.3,0.4,0.6,0.7,1,0.9c0.3,0.1,0.8-0.1,0.8,0.5c0,0.5-0.3,1-0.8,1.1C87.9,154.9,87.5,155,87,155.1z"/>
<path d="M103.8,152.6c0.1,0.9-0.5,1.6-1.4,1.7c0,0-0.1,0-0.1,0c-0.6,0.1-1.2-0.4-1.3-1.3c-0.1-0.7,0.1-1.4,0.5-1.9
	c0.6-0.8,1.7-0.5,2.1,0.6C103.7,152,103.8,152.3,103.8,152.6z M101.8,152.6c0,0.7,0.3,0.9,0.8,0.9s0.7-0.3,0.7-0.7
	c0-0.6-0.4-1-0.9-1.1c0,0,0,0,0,0C101.8,151.7,101.8,152.3,101.8,152.6L101.8,152.6z"/>
<path d="M108.3,152.2c0,0.2,0,0.5,0,0.7c0,0.5-0.3,0.9-0.8,1.1c-0.5,0.3-0.9-0.1-1.2-0.4c-0.5-0.6-0.8-1.3-0.8-2.1
	c-0.1-0.3,0-0.6,0.4-0.7s0.4,0.3,0.5,0.6c0.2,0.5,0.1,1.1,0.6,1.5s0.7,0.3,0.7-0.3s0.2-1.3-0.4-1.7c-0.2-0.1-0.2-0.4-0.1-0.6
	c0-0.1,0.1-0.1,0.2-0.1c0.3-0.2,0.6,0,0.7,0.3C108.3,151,108.4,151.6,108.3,152.2z"/>
<path d="M53.8,151.9c0.1,0.9-0.6,1.4-1.7,1.8c-0.6,0.2-1.1-0.2-1.3-0.8c-0.2-0.5-0.4-0.9-0.6-1.4c-0.1-0.3,0.1-0.6,0.4-0.7
	c0,0,0,0,0,0c0.3-0.1,0.3,0.3,0.4,0.5s0.2,0.7,0.3,1c0.2,0.4,0.6,0.7,1,0.7c0.4,0,0.7-0.2,0.8-0.5c0.1-0.4,0-0.9-0.3-1.2
	c0-0.1-0.1-0.1-0.2-0.1c-0.2-0.1-0.2-0.4-0.1-0.5c0-0.1,0.1-0.1,0.2-0.1c0.2-0.1,0.5-0.2,0.6,0.1C53.7,151,53.8,151.4,53.8,151.9z"
	/>
<path d="M34.9,151.7c0,0.4,0.1,0.7-0.2,0.7c-0.3,0-0.6-0.2-0.6-0.6c0-0.3,0.1-0.5,0.4-0.5S34.9,151.5,34.9,151.7z"/>
<g>
	<path d="M60.1,130.6c0,0.7,0,1.2-0.3,1.6c-0.7,1-2,1-3,0.1c-0.8-0.7-1.4-1.4-0.9-2.5c0.2-0.4-0.1-0.8-0.2-1.2
		c-0.1-0.2-0.2-0.4-0.1-0.7s0.1-0.4,0.4-0.3c0.4,0.2,0.7,0,1-0.1c0.2-0.1,0.4-0.2,0.7-0.2c0.6-0.1,0.8,0.1,0.8,0.7
		c0,0.7,0.2,1.1,0.9,1.1C59.9,129.4,60,129.8,60.1,130.6z M58.5,130c-0.5,0-1.1,0.2-1.7,0.5c-0.4,0.2-0.5,0.7-0.2,1.1
		c0.7,0.9,2.3,0.7,2.8-0.4C59.6,130.6,59.3,130,58.5,130L58.5,130z M57,129.4c0.3,0,0.6-0.2,0.6-0.6c0-0.3-0.2-0.4-0.4-0.4
		c-0.3,0-0.5,0.2-0.6,0.6C56.6,129.2,56.8,129.4,57,129.4z"/>
	<path d="M42.9,121.5c0,0.4-0.1,0.8-0.6,0.8c-0.5,0-0.5-0.4-0.5-0.7c0-1.4,0-1.5-1.4-1.2c-0.4,0.1-0.8,0.1-1.2,0.2
		c-0.4,0.1-0.6,0.3-0.4,0.8s0.1,0.7-0.3,0.8c-0.4,0.2-0.6-0.1-0.7-0.5c-0.2-0.8-0.3-1.7-0.4-2.5c0-0.3,0-0.5,0.4-0.6
		c0.3-0.1,0.5,0.1,0.5,0.4c0.1,0.6,0.4,0.8,1,0.7c0.5,0,1-0.1,1.5-0.1c0.4,0,0.7-0.2,0.7-0.7c0-0.2,0.1-0.4,0.4-0.4c0,0,0,0,0,0
		c0.3,0,0.5,0.2,0.5,0.4C42.6,119.7,42.8,120.6,42.9,121.5z"/>
	<path d="M23.8,120.6c0,0.2-0.1,0.4-0.3,0.5c-0.2,0.1-0.4,0-0.5-0.2c0-0.1,0-0.1-0.1-0.2c-0.4-1.2-0.4-1.2-1.6-0.8
		c-0.6,0.2-1.2,0.6-1.4,1.2c-0.1,0.2-0.2,0.3-0.5,0.2c-0.2,0-0.3-0.2-0.3-0.4c0,0,0-0.1,0-0.1c0.5-1.2,1-2.5,1.6-3.7
		c0.2-0.4,0.6-0.5,0.8-0.2c0.9,1,1.7,2.1,2.1,3.4C23.8,120.5,23.8,120.5,23.8,120.6z M21.4,119.1c0.2,0,0.4-0.1,0.4-0.4
		c0-0.2-0.2-0.4-0.4-0.4c-0.3,0-0.4,0.2-0.4,0.4S21.2,119.1,21.4,119.1L21.4,119.1z"/>
	<path d="M43.9,121.9c0.1-0.5,0.2-0.9,0.4-1.4c0.3-0.6,0.6-1.1,0.8-1.7c0.1-0.3,0.3-0.5,0.6-0.5c0.3,0,0.6,0.1,0.8,0.3
		c0.2,0.4,0.4,0.8,0.5,1.3c0.2,0.6,0.4,1.2,1,1.7c0.3,0.3,0.2,0.5,0,0.7c-0.2,0.2-0.5,0.2-0.7-0.1c-0.3-0.4-0.6-0.7-0.7-1.1
		c-0.2-0.5-0.5-0.5-0.9-0.1c-0.4,0.4-0.5,0.8-0.8,1.2c-0.1,0.2-0.3,0.3-0.5,0.2C44,122.3,43.9,122.1,43.9,121.9z"/>
	<path d="M53.7,131.4c0,0.1-0.1,0.3-0.2,0.4c-0.2,0.1-0.4,0.1-0.5-0.1c-0.3-0.2-0.4-0.6-0.6-1c-0.2-0.3-0.2-0.8-0.7-0.8
		c-0.5,0-1.1,0.1-1.4,0.7c-0.1,0.2-0.2,0.4-0.4,0.6c-0.1,0.1-0.3,0.2-0.4,0.1c-0.2-0.1-0.2-0.2-0.2-0.3c0,0,0-0.1,0-0.1
		c-0.3-0.7-0.3-1.2,0.6-1.4c0.5-0.2,0.6-0.8,0.8-1.2c0.3-0.6,0.5-0.6,1-0.1c0.8,0.8,1.5,1.7,1.9,2.8
		C53.6,131.1,53.7,131.3,53.7,131.4z"/>
	<path d="M44.7,131.4c-0.4,0-0.9,0-1.3-0.2c-0.3-0.1-0.6-0.2-0.4-0.6s0.4-0.2,0.6-0.1c0.3,0.1,0.5,0.2,0.8,0.1c0.2,0,0.5,0,0.5-0.3
		c0-0.3-0.2-0.3-0.4-0.4c-0.9-0.4-1.3-1.2-1.3-2.1c0.1-0.7,1-1.7,1.7-1.7c0.2,0,0.4,0.1,0.4,0.3c0.1,0.2,0,0.4-0.2,0.5
		c0,0-0.1,0-0.1,0c-0.5,0.1-1.1,0.2-1.2,0.9c-0.1,0.6,0.3,1,0.7,1.3c0.4,0.4,0.9,0.6,1.5,0.7c0.3,0,0.5,0.1,0.5,0.4
		c0,0.3,0,0.6-0.4,0.8C45.8,131.3,45.2,131.4,44.7,131.4z"/>
	<path d="M35,122.5c-0.7,0.1-1.2-0.3-1.6-0.8c-0.1-0.2-0.3-0.4,0-0.6c0.2-0.2,0.4,0,0.6,0.2c0.1,0.1,0.2,0.3,0.4,0.4
		c0.2,0.1,0.4,0.1,0.5-0.1c0.2-0.2,0-0.4-0.2-0.5c-0.3-0.2-0.6-0.3-0.8-0.5c-0.5-0.4-0.7-0.9-0.6-1.5c0.1-0.6,0.5-0.9,1.1-1.1
		c0.2-0.1,0.5-0.1,0.6,0.1c0.2,0.3-0.1,0.4-0.3,0.5c-0.8,0.6-0.8,0.9-0.1,1.5c0.4,0.3,0.8,0.6,1.2,0.8c0.3,0.1,0.5,0.2,0.5,0.5
		c0,0.4-0.1,0.7-0.5,0.8C35.6,122.4,35.3,122.5,35,122.5z"/>
	<path d="M28.1,118.7c0-0.2-0.1-0.4-0.2-0.6c-0.1-0.2-0.1-0.4,0-0.6c0.1-0.2,0.3-0.2,0.5-0.1c0.2,0.1,0.4,0.3,0.4,0.5
		c-0.2,1-0.1,2-0.4,3c-0.1,0.2-0.2,0.5-0.5,0.5c-0.3,0-0.5-0.2-0.6-0.5c-0.4-0.9-0.8-1.8-1.4-2.6c-0.2-0.2-0.2-0.4,0-0.6
		c0.3-0.2,0.5-0.1,0.7,0.1c0.3,0.5,0.5,0.9,0.8,1.4c0.1,0.2,0.1,0.5,0.4,0.5s0.3-0.4,0.3-0.6C28.1,119,28.1,118.9,28.1,118.7z"/>
	<path d="M31.7,121.3c0,0.3-0.1,0.4-0.3,0.4c-0.3,0-0.5-0.1-0.5-0.3c-0.1-0.5-0.2-1-0.2-1.6c0-0.4-0.1-0.9-0.3-1.2
		c-0.1-0.3-0.2-0.6,0.2-0.7c0.4-0.2,0.6,0.1,0.6,0.5c0.1,0.4,0.1,0.7,0.2,1.1C31.4,120.1,31.3,120.7,31.7,121.3z"/>
</g>
</svg>
