<?xml version="1.0" encoding="utf-8"?>
<!-- Generator: Adobe Illustrator 22.0.1, SVG Export Plug-In . SVG Version: 6.00 Build 0)  -->
<svg version="1.1" id="Layer_1" xmlns="http://www.w3.org/2000/svg" xmlns:xlink="http://www.w3.org/1999/xlink" x="0px" y="0px"
	 viewBox="0 0 1022.1 2006.6" style="enable-background:new 0 0 1022.1 2006.6;" xml:space="preserve">
<title>c0-txt4</title>
<path d="M623.7,49.1c-6,6.7-6.1,8.6-1.1,15.3c1.4,1.9,2.8,3.7,2.5,6.3c-0.4,3.3-2.4,5.1-5.4,5.7s-4.1-1.7-4.8-4
	c-0.9-2.8-1.8-5.7-2.5-8.6c-1-4-3.2-6-7.5-5.6c-1.8,0.2-3.7,0.1-5.5,0.2c-6.7,0.4-11.8,3.1-14,9.9c-1.1,3.5-3.1,6.2-7.3,4.6
	c-4-1.5-3.5-4.8-2.3-8c2.6-6.8,5.3-13.6,7.8-20.5c1.7-4.6,4.9-7.3,9.3-9c2.5-0.9,5.3-1.6,7.3-3.2c3.7-3,5.6-1.4,7.2,2
	c0.9,2,1.8,4,2.5,6C612.1,46.3,615.9,50.1,623.7,49.1z"/>
<path d="M652.4,60.3c-0.2-6-0.8-12.1-1.9-18c-0.5-2.1-0.7-4.3-0.6-6.4c0.2-3.4,2.4-5.4,5.6-6.3s5.1,0.9,6.4,3.4
	c5.2,10.2,14.2,16.1,23.9,21.2c5.3,2.8,8,1.6,9.8-4.1c1.6-5.2,2-10.1-2.8-14.1c-2-1.7-3.6-3.5-2.2-6.5c1.1-2.2,2.7-3.4,5.1-3.3
	c2.8,0.2,5.2,1.3,6.3,4.2c1.3,4,1.9,8.1,1.6,12.3c-0.4,6-1.3,11.9-2.7,17.7c-1.4,6.5-5,8.3-11.1,5.5c-7.6-3.5-14.5-8.2-21.4-12.8
	c-2.2-1.4-4.1-3-6.8-1.3s-1.9,4.3-1.3,6.8c1,4.3,1.5,8.6-0.7,12.6c-1.1,2-2.7,3.5-5.2,2.9c-2.8-0.7-2.9-2.8-2.7-5.1
	C652,66.3,652.2,63.5,652.4,60.3z"/>
<path d="M747.5,66.2c-5.6-1.9-10,1-14.3,5.4c-3.1,3.2-6.1,2.3-6.7-2c-1.8-12.2-5.5-24-9-35.8c-1-3.4,0-6.1,3.5-7.2
	c3.9-1.3,4.9,1.8,5.8,4.5s1.3,5.8,2.2,8.7c1.3,4.3,3.4,5,7,2.3c4.4-3.3,7.8-7.7,11.2-12c2.3-3,4.8-4.8,8.4-2c3,2.4,3,5.8-0.5,9
	c-3.9,3.6-8.3,6.7-12.4,10.1c-1.8,1.5-3.7,3.1-2.9,5.9s3.3,3.8,5.8,3.9c6.2,0.3,12.3,0.3,18.5,0.5c1.7,0,3.3,0.2,4.9,0.5
	c1.6,0.2,2.7,1.7,2.5,3.2c0,1.6-1.3,2.9-2.9,2.9C761.9,64.8,755.1,65.4,747.5,66.2z"/>
<path d="M559.8,48.8c0.4,6.5,0.9,12.9,1.3,19.4c0.1,1.8,0.2,3.7-1,5.3c-1.1,1.5-2.9,2.4-4.8,2.1c-2-0.2-2.7-1.8-3.2-3.4
	c-1.8-5-1-10.2-1.3-15.3c-0.4-8.4-2-9.9-10-8.1c-5.5,1.2-11,2.7-16.4,4.3c-5.9,1.8-7,4.3-3.8,9.5c2.6,4.4,1.4,8-1.6,11.3
	c-2,2.2-5,2.1-5.5-0.8c-1.7-9.9-7.1-19.1-5.8-29.6c0.2-1.6,0.6-3.3,1.1-4.8c0.5-2.2,2.5-3.7,4.8-3.5c2.8,0.1,3,2.1,3.2,4.2
	c0.5,4.6,2.8,6.2,7.5,5.5c5.9-1,11.9-1.6,17.8-2.2c2.6-0.3,4.3-1.2,5.1-3.9c0.7-2.5,1.7-5,4.9-4.7c3.1,0.1,5.8,2.1,6.8,5
	C560.4,42.2,559.7,45.5,559.8,48.8z"/>
<path d="M271.8,56.3c3.1-11.7,6.6-24,15.4-34c3-3.4,6.7-2.5,8.8,1.8c1.4,2.8,2,6,3.1,8.9c1.6,4.3,4.4,6,9,4.3c1.4-0.6,2.8-0.9,4.3-1
	c1.8-0.1,3.3,1.2,3.5,3c0.4,1.9-1,2.5-2.6,3c-2.8,1-6.6,1.2-7,4.6c-0.3,3.2,3.1,4.8,5.5,6.6c2.2,1.7,4.3,3.3,3.3,6.5
	c-0.7,2.7-3.1,4.5-5.9,4.6c-3.4,0.3-4.5-2-5.7-4.6c-2.2-4.8-4.2-10.9-10.1-11.3s-8.5,5.6-11.5,9.9c-0.2,0.3-0.4,0.6-0.5,0.8
	c-1.3,2.5-3.1,4.5-6.3,3.7S272.3,59.5,271.8,56.3z"/>
<path d="M61.6,13.7c5.6,4.9,11.2,5.4,17.2,4.7c5-0.5,10-0.7,15-0.6c3.6,0,7.6-0.1,9.4,4.1c1.9,4.2,1.3,9.1-1.5,12.8
	c-5,7-16.4,10.5-25.2,7.9c-7.4-2.2-7.7-1.9-6.6,5.8c0.6,4.1,1.2,8.1,3.5,11.8c2.2,3.5,0.2,10.7-3,13.3c-1,0.9-2.5,1.1-3.7,0.5
	c-1.9-0.8-2-2.5-2-4.2C64,60.1,63.5,50.5,63,40.9C62.5,32.2,62.1,23.6,61.6,13.7z M80.6,38.1c5.1,0,9.8-2.7,12.5-7
	c1.9-2.9,0.5-5.7-3.1-6c-6-0.4-12,0.4-17.7,2.4c-2,0.7-3.4,2.1-3.4,4.4c0,2.1,1.4,3.9,3.4,4.3C75.3,37.1,78.2,37.6,80.6,38.1
	L80.6,38.1z"/>
<path d="M451.6,21.2l31.5-2.2c3.1-0.2,6.4-1.4,8.2,2.7c1.6,3.8-0.7,5.8-3.2,8c-3.5,2.9-5.5,6.8-5,11.4c0.7,7.1,2.2,14.1,4.7,20.8
	c1.9,5.1,0.3,8.8-5,10.4c-4,1.2-6.1-0.2-6.6-5c-0.6-6-0.8-12-1.1-18c-0.2-3.5-0.3-7-0.8-10.5c-1-7.6-3.5-9.8-11.1-9.5
	c-4,0.1-8,0.6-12,0.9s-6.8-0.8-6.8-5.2s3.3-4.2,6.5-3.9C451,21.2,451.3,21.2,451.6,21.2z"/>
<path d="M938.9,61.7c0-5.4,0.2-9.8-0.1-14.1c-0.3-5-2.9-7.1-8-6.6c-4.8,0.5-9.5,1.3-14.4,1c-3.5-0.2-6.4-1.1-6.5-5.3
	c0-4.5,3.2-4.8,6.6-4.7c14,0.3,27.9-0.3,41.8-1.8c2.9-0.3,6.3-0.9,6.9,3.5c0.6,3.9-1.7,6.9-6.1,7.7c-1.6,0.3-3.3,0.3-4.9,0
	c-3.4-0.5-5.4,0.8-6.1,4.2c-1.7,8.2-3.9,16.1,2.3,23.7c2.8,3.3-1,10.1-5.5,10.7c-3.3,0.4-5-1.6-5.3-4.6
	C939.4,70.6,939.2,65.6,938.9,61.7z"/>
<path d="M804.8,89.4c-3.9-0.3-7.7-1-11.5-2c-2.3-0.7-4.2-2.1-5.6-3.9c-1.1-1.4-1.8-3-0.8-4.6c1.2-2,2.9-1.2,4.4-0.5
	c4.6,2,9.7,2.7,14.6,2c2.4-0.3,4.3-1.2,4.8-3.6c0.6-2.7-1.3-4-3.3-5C797.3,67,793,58.1,791.3,47.6c-0.9-5.5,1.7-9.7,6.3-12.6
	c4.5-3.1,10.2-3.8,15.3-1.8c2.8,1,2.5,4-0.4,5.7c-2.3,1.4-4.8,2.3-7.1,3.7c-6.7,4.3-7.3,9.1-1.8,14.7c3.6,3.7,7.7,6.9,11.4,10.5
	c2.6,2.2,4.3,5.2,4.9,8.5C821,84,815.3,89.4,804.8,89.4z"/>
<path d="M1002,41.1c5.1,0.3,10,2.2,14,5.5c7.5,6.1,8.1,14.9,1.2,21.6c-5.9,5.8-13.1,9-21.5,9s-14.1-5-15.5-13.3
	C978.1,52,987.7,40.8,1002,41.1z M999.5,68.7c2.4-0.7,5.6-1.5,8.8-2.5c3.1-0.9,5.3-3.7,5.5-7c0.4-3.5-1.3-6.1-4-8
	c-6.3-4.4-11.8-3.6-17.7,2.5c-2.7,2.8-4.6,5.8-2.9,9.8S994.7,68.5,999.5,68.7z"/>
<path d="M24.7,0c0.6,0.1,2.1,0.1,3.6,0.3c3.5,0.5,4.1,2.9,3.7,5.9s-2.7,2.9-4.9,2.7c-2.6-0.3-5.2-0.7-7.9-0.1
	c-9.3,1.9-13,10.1-8,18.1c3.9,6.2,9.2,11.4,14.9,16c2,1.6,3.7,3.3,4.2,6c1.2,5.9-1.9,9.4-7.9,8.9c-4.5-0.4-8.9-1-13-3.3
	c-3.3-1.8-6.1-4.1-7.7-7.6c-0.9-2-2.9-4.9-0.9-6.3s3.2,1.9,4.8,3.3c1.3,1.2,2.9,2.2,4.5,3c2.1,0.9,4.3,0.7,5.8-1.5
	c1.7-2.6-0.7-3.6-2.3-4.6c-3.6-2.5-6.5-5.8-8.5-9.7C2,25.2,0,19.1,3.9,12.7C8.5,5.3,14.2-0.5,24.7,0z"/>
<path d="M138.9,51.8c3.9-0.7,7.2-1.1,7.4,3.7c0.1,3.1-6.1,7-10.1,6.3c-2-0.4-3.8-1.3-5.2-2.7c-10.5-9.8-11.7-22.3-9.9-35.4
	c0.4-3.1,3-4.7,5.9-5.5c8.3-2.3,16.7-4.6,25-6.7c2.1-0.5,4.2-0.3,4.8,2.2s-1,3.8-3.1,4.4c-5.7,1.7-11.5,3.3-17.3,4.9
	c-1.8,0.4-3.5,1.1-5,2.1c-2,1.3-2.7,4-1.6,6.2c1,2.4,2.8,3,5.3,2.6c2.1-0.4,4.3-0.8,6.4-1c1.5-0.1,3.4,0,3.7,1.8
	c0.3,1.4-1.3,2.2-2.5,2.7c-2.3,1-4.7,1.8-6.8,3c-2.6,1.5-3.2,3.9-2.2,6.9C134.8,50.1,136.2,52,138.9,51.8z"/>
<path d="M344.7,41.4c-0.8,3.8-0.7,7.6,0.1,11.4c1.4,6,4.5,8.2,10.8,7.7c2.8-0.3,5.6-1,8.2-2c3.5-1.1,7-2.2,10.5-3
	c2.8-0.7,5.5-0.3,6.5,2.9s-0.9,4.9-3.8,6c-5.5,2-10.8,4.2-16.3,6.1c-12.3,4.4-21.9-1-24.4-13.9c-1.5-7.7-1.4-15.5-1.7-23.3
	c-0.1-2.7,0.7-5,4-5.3s3.8,2,4.5,4.2C343.9,34.8,345,37.5,344.7,41.4z"/>
<path d="M186.8,40c-0.1,8.3,2.9,12.5,8.4,15c7,3.2,13.9,3.5,20.1-1.8c1.8-1.5,3.2-3.4,4.8-5c1-1.2,2.9-1.4,4.1-0.3
	c0.1,0.1,0.2,0.2,0.3,0.3c1.3,1.2,1.2,2.5,0.4,4c-3.9,7.6-16.5,14.6-25.1,13.8c-11.8-1.1-18-7.4-20-19.3c-1.4-8.7-0.1-15.9,7.6-21
	c3.8-2.8,8.7-3.7,13.3-2.5c2.6,0.7,4.5,2.3,4.6,5.2c0.1,3.1-0.7,5.4-4.6,4.2c-1.1-0.3-2.3-0.5-3.4-0.6C190,31.7,186.8,34.8,186.8,40
	z"/>
<path d="M252,59.9c0,2.3,0.1,4,0,5.6c-0.3,2.5-2.2,3.1-4.3,3.1s-3.6-0.9-3.7-3.2c-0.7-10.4-1.4-20.8-2.1-31.3
	c-0.2-2.6,1.5-3.5,3.8-3.5c3,0,4.3,1.9,4.2,4.5C249.7,43.8,251.7,52.1,252,59.9z"/>
<g>
	<path d="M369.1,944.8c1.6,0.4,6-2.2,5.9,2.8c-0.1,4.5-4.3,3.1-7,3.1c-10,0-18.7-7.3-19.4-16c-0.2-2.6-0.2-5.1,2.4-6.5
		c2.6-1.4,4,0.6,5.6,2.1c1.6,1.5,3.2,1.9,4.9,0.3c1.5-1.5,3.7-2.7,2.9-5.4c-0.7-2.4-2.9-2.5-5-2.5c-10,0.1-14.7,4.8-15.5,14.8
		c-0.3,2.8-0.7,5.6-1.2,8.3c-0.3,1.8-0.6,3.9-3.3,3.6c-2.7-0.3-3-2.3-3.1-4.4c-0.2-3.7-0.3-7.5-0.8-11.2c-0.5-4.1-1.4-8.3-2.2-12.4
		c-0.6-2.8,0.4-4.8,3.1-5.3c3.1-0.7,2.9,2,3.2,3.9c0.5,3.4,2.1,4.3,5,2c4.5-3.7,10.2-5.6,16-5.4c7.7,0.1,11.2,4.3,9.7,11.8
		c-0.7,4.1-3.2,7.6-6.8,9.5c-1.6,0.9-3.7,1.3-3,3.9c0.6,2.3,2.3,3.1,4.6,3.1C366,944.7,367,944.8,369.1,944.8z"/>
	<path d="M414.2,913c2.1,0.5,6.7-0.9,6.9,2.5c0.3,3.6-4.4,2.9-7.1,3.4c-4.9,0.9-9.9,1-14.6,3c-1.3,0.6-3,0.8-2.4,2.7
		c0.6,1.9,2.3,1.5,3.6,1.2c5-1,10-2.2,15-3.3c2.2-0.5,4.7-0.9,5.2,2.1c0.5,2.8-2,3.3-3.9,3.7c-4.2,0.9-8.5,1.7-12.8,2.4
		c-2.6,0.4-5.3,0.9-4.9,4.3c0.4,3.2,1.6,6.1,5.7,6.2c2,0,4.8-1.9,5.6,1.3c0.9,3.4-1.8,5.3-4.3,7c-2.5,1.6-4.7,1.2-6.7-1
		c-4-4.4-5.6-9.9-7-15.6C389,918,388.9,918,404,914.4C407.3,913.4,410.8,913,414.2,913z"/>
	<path d="M432.6,937.8c0-1.5-0.6-2.9,0.9-3.7c4.4-2.3,5.8-6.7,7.7-10.7c0.5-1.1,1.1-2.2,1.9-3.2c2.6-3.5,4.8-3.6,7.3-0.1
		c2.3,3.3,4.3,6.8,6.5,10.3c2.4,3.9,4.8,7.7,8.4,10.5c2.2,1.8,2.1,3.5,0.6,5.6c-1.7,2.3-3.7,2.6-6.1,1.1c-2.8-1.8-3.8-4.8-5.4-7.5
		c-1.2-2-1.8-4.7-4.7-4.4c-3.3,0.3-6,1.8-7.3,5.1c-0.6,1.4-1.1,2.9-1.7,4.3c-0.8,1.9-2.1,3.1-4.4,2.7c-2.1-0.3-2.7-1.9-2.9-3.7
		C433.1,941.8,432.8,939.7,432.6,937.8z"/>
	<path d="M497.6,951.3c-5.7-0.3-10.9-1.1-15.7-3.7c-2.9-1.6-3.2-3.3-0.2-4.9c3.1-1.7,3-3,0.5-5.5c-5-4.8-6-11-3.5-16.1
		s8.1-7.8,15-7.2c2.8,0.2,4.4,1.5,4.1,4.4c-0.3,2.6-1.9,3.7-4.5,3.3c-3-0.5-6.3-0.8-8,2.2c-1.9,3.2,0,6.3,1.8,9
		c3,4.6,7.5,7.3,12.3,9.6c2.5,1.3,6.1,1.7,5.1,5.9C503.4,952.5,499.9,951.1,497.6,951.3z"/>
	<path d="M175.9,938.1c0,1.7-0.3,2.9-1.6,3.5c-1.5,0.7-3.3,0.1-4.1-1.3c-1.9-3-3.9-5.9-5.6-9.1c-1.2-2.3-2.8-3-5.3-2.6
		c-5.4,0.9-10.4,2.4-11.6,8.8c-0.4,1.2-0.9,2.3-1.6,3.4c-0.8,1.6-2,2.5-3.7,1.8c-1.4-0.4-2.3-2-1.8-3.4c0-0.1,0.1-0.3,0.1-0.4
		c3.1-7.9,6.1-15.9,9.5-23.7c1.3-2.9,4.6-4.1,7.2-5.8c1.9-1.3,3.1,0.4,3.8,2.1c1.4,3.6,2.8,7.2,4.3,10.8c2,4.8,4.5,9.2,8.4,12.7
		C174.9,936,175.9,936.9,175.9,938.1z"/>
	<path d="M114.9,946.1c-10.6-0.7-17.1-8.9-15.7-20.4c0.9-7.2,4.7-13.7,10.6-18c3-2.3,5.8-1.6,8.4,0.8c2.8,2.6,4.4,5.8,3,9.6
		c-0.8,2.3-2.3,1.3-3.6,0c-5.2-5.2-7.9-4.8-11.3,2c-2.6,5.3-3.2,10.8,0.3,15.9c4.8,6.9,13.6,6.1,18-1.4c1-1.8,1.6-4.7,4.6-2.7
		c2.6,1.7,1.2,3.8,0,5.7C125.8,942.6,122.2,947.3,114.9,946.1z"/>
	<path d="M223.1,923.8c0-6.5,1.8-8.6,7-8.6c4.2-0.1,8.3-0.9,12.3-2.4c1.9-0.7,4.3-1.2,5.1,1.5c0.9,3.1-1.5,3.7-3.7,4
		c-3.1,0.4-4.6,1.6-3.6,4.9c0.7,2.5-1.1,2.7-2.9,3.1c-7.5,1.7-9.1,4.9-6.2,11.6c1.3,3.1,3.1,4.6,6.5,2.8c1.1-0.6,2.4-1.1,3.4,0.2
		c1,1.1,0.9,2.8-0.1,3.9c-1.7,2.2-3.4,4.6-6.8,4.2c-3.3-0.3-4.8-2.5-5.6-5.4C226.5,936.6,224.6,929.6,223.1,923.8z"/>
	<path d="M287.9,926.4c0.4,6,0.7,12.1,1.1,18.1c0.2,2.7,0.6,5.2,3.3,6.8c2,1.3,1.5,3.1,0.5,4.9c-1,1.8-2.5,3.2-4.9,2.7
		c-2.1-0.4-2.7-2-2.6-3.8c0.1-4.2-0.7-8.3-0.4-12.6c0.4-5.7-2-7.4-7.3-5.3c-6.2,2.5-11.3,0.5-14.1-5.6c-1.3-2.8-2.5-5.6-3.7-8.5
		c-0.8-1.8-1.4-3.7,1-4.7c2.3-0.9,2.9,1,3.6,2.6c0.9,2.1,1.9,4.2,2.9,6.3c1.5,3.3,4.1,4.9,7.5,5.6c6.6,1.4,9.5-1.3,8.3-7.7
		c-0.3-1.7-0.9-3.3-1.1-5c-0.3-2.1,0.9-3.2,2.9-3.4c2.1-0.2,3.2,0.9,3.1,3C287.9,922,287.9,924.2,287.9,926.4L287.9,926.4z"/>
	<path d="M198.7,943.8c-5.6,0.4-9.2-2.5-13-5c-1-0.5-1.4-1.8-0.8-2.8c0,0,0,0,0,0c0.7-1.2,1.9-0.9,2.9-0.5c2.3,0.8,4.6,1.9,6.9,2.7
		c1.3,0.7,2.9,0.1,3.6-1.2c0,0,0,0,0-0.1c0.9-1.8-0.6-2.6-1.7-3.3c-2.9-1.8-6.1-3.2-8.8-5.2c-5.2-3.8-5.4-8.4-0.8-13
		c2-1.9,4.2-3.7,6.4-5.4c1.7-1.3,3.4-1.4,4.8,0.5c1.4,1.9,0.4,3.4-1.4,4.6c-8.4,5.7-8.3,7.8,0.7,13.1c1.6,0.9,3.3,1.7,5,2.4
		c3.3,1.5,5.6,3.6,4.8,7.5c-0.8,3.9-3.7,5.1-7.1,5.6C199.8,943.9,199.2,943.8,198.7,943.8z"/>
</g>
<g>
	<path d="M296.1,568.4c-0.1,5.7-4.7,11.3-10.4,12.9c-1.7,0.5-4.1,0.2-4.4,2.6c-0.3,2.5,2.1,2.8,3.7,3.5c4.9,2.2,9.2,5.7,14.6,7.2
		c2.5,0.7,3,3,2,5.4c-1.2,2.7-3.5,2.4-5.5,1.2c-5.6-3.3-11.1-6.8-16.7-10.1c-4.6-2.8-5.2-2.5-6.3,2.7c-0.4,2-0.9,3.7-3.4,3.5
		c-2.6-0.1-3.2-1.8-3.3-3.7c-0.2-2.8-0.1-5.6-0.2-8.4c0-3.6-0.4-7.1-2.4-10.3c-1.1-1.8-1.3-3.5,0.2-5.1c1.5-1.6,3-1.1,4.5,0.1
		c1.7,1.4,3.2,0.4,4.5-0.7c4.9-4.3,11-5.5,17.2-6.1C294.5,562.6,296.2,564.3,296.1,568.4z M279.7,576.2c3.9-0.1,8.4-3.7,8.3-6.3
		c-0.1-1.7-1.2-1.9-2.6-1.9c-3.7-0.1-9,3.5-9,6.1C276.5,576.5,278.5,575.8,279.7,576.2z"/>
	<path d="M724.5,602.2c-4.9-0.1-7-3.4-5-7.3c1.5-2.9,3.5-5.5,5.2-8.3c1.2-2,1.9-3.9-1.8-3.6c-2,0.2-4.3,0.5-4.4-2.5
		c-0.2-3.3,2.1-3.7,4.6-4c2.5-0.2,4.9-0.7,7.3-1.3c1.5-0.2,2.6-1.6,2.4-3.2c0-0.3-0.1-0.6-0.2-0.8c-0.6-1.8-2-2.1-3.7-1.6
		c-3.9,1.2-7.7,2.3-11.6,3.3c-2.1,0.5-4.6,1-5.1-2.2c-0.5-3,1.5-3.8,3.9-3.9c6.4-0.4,12.5-2.4,18.7-3.6c5-1,6.5,0,6.5,4.8
		c0,3.6,1.4,4.8,4.8,4.2c1.5-0.3,3,0,3.2,1.8c0.2,1.8-1.2,2.4-2.8,2.4c-9.8,0.1-13.3,8.1-18,14.4c-1.6,2.1,0.2,3.2,2.1,3.3
		c3.3,0,6.5-0.6,9.2-2.7c1.9-1.6,3.9-1.9,5.9-0.4c1.9,1.4,1.3,3.4,0.9,5.2c-0.5,2.5-2.4,3-4.6,2.8c-4.1-0.2-7.9,1.4-11.9,2.2
		C727.9,601.5,726,601.9,724.5,602.2z"/>
	<path d="M800,593.4c0.3-7.4,0.9-14.1-2.7-20.3c-0.9-1.2-0.6-2.9,0.6-3.8c1-1,2.5-1.3,3.9-0.9c1.6,0.5,1.9,1.9,2.1,3.3
		c0.3,2-2,5.1,1.6,5.8c3.3,0.7,3.7-2.6,4.8-4.7c2.4-4.5,6.8-7.5,11.8-8.2c2.7-0.4,5.8-0.9,7.5,2.1s0.9,6.5-1.3,9.1
		c-2.5,3.2-6.1,5.4-10.1,6.3c-1.7,0.4-3.4,0.8-3.5,3c-0.1,1.9,1.3,2.7,2.8,3.3c4.7,2,8.9,5.9,14.8,3.9c1.5-0.5,2.5,1,2.7,2.6
		c0.4,2.1-0.7,4.1-2.6,5c-2.1,0.9-4.3,0.4-6.4-0.2c-5.2-1.5-10.2-3.9-14.6-7.1c-2.3-1.7-4.1-1.8-5.4,1.5c-0.7,1.9,0,5.6-3.7,4.8
		C799.2,598.2,800.2,595,800,593.4z M823.9,570.3c-0.2-0.5-0.6-0.9-0.9-1.2c-2.2-1.5-4.2-0.4-6,0.8c-2.1,1.3-3.5,3.6-3.7,6.1
		c0,0.2,0.3,0.5,0.6,0.6c2.4,0.7,4.1-0.8,6.1-1.7C821.9,574.1,823.4,572.4,823.9,570.3z"/>
	<path d="M627.7,578.6c-0.1-3.8,0.7-7.5,2.3-10.9c2.3-4.8,8.1-6.8,12.9-4.5c0.8,0.4,1.5,0.8,2.1,1.4c2.5,2.2,2.8,5,0.9,7.5
		c-1.9,2.5-3.5,0.1-5-0.9c-2.7-1.9-4.7-1.1-6.2,1.5c-2.4,4.2-2.3,8.7-0.9,13.1c0.8,2.9,3.4,3.3,6.1,2.7c5-1.2,8.7-4.6,12.6-7.7
		c2.2-1.8,4.6-4,7.5-2c3.1,2.1,2.5,5.7,1.3,8.5c-2.6,6.2-7.3,11.4-13.2,14.5c-4.3,2.4-9.9,0.7-13.7-3.8
		C629.8,592.5,627.4,585.6,627.7,578.6z M653.7,590.9c-0.1-0.2-0.1-0.4-0.2-0.4c-2.8-2.1-4.9,0.5-7.2,1.2c-1.8,0.6-3.7,1.7-3.3,4.3
		c0,0.2,0.4,0.5,0.7,0.6c2.1,0.9,4,0.1,5.7-1C651.1,594.5,653,593.2,653.7,590.9L653.7,590.9z"/>
	<path d="M925.2,586.9c0.1,9.9-0.9,10.6-9.9,7.2c-5.7-2.2-11.2-4.6-16.2-8.2c-0.9-0.7-1.7-1.4-2.9-0.6c-0.9,0.7-0.5,1.7-0.3,2.6
		c0.6,2.2,0.2,4.3,0,6.5c-0.2,1.9-1.1,3.2-3.2,3.4c-1.9,0.4-3.8-0.9-4.1-2.8c0,0,0-0.1,0-0.1c-0.3-2.1-0.5-4.3-0.6-6.5
		c-0.3-4.2-0.9-8.3-3-12.1c-1.6-2.5-1-5.8,1.4-7.6c2.5-2.2,4.5-2.6,6.7,0.9c5.2,8.2,12.3,14.4,21.6,17.8c4.1,1.5,5.2,0.7,4.7-3.6
		c-0.4-4-1.3-8-2.1-11.9c-0.3-1.7-2.1-3.7,1-4.4c2.6-0.6,3.7,0.9,4.2,3.2C923.7,576.1,925.4,581.7,925.2,586.9z"/>
	<path d="M592.1,573c-1.9,5.7-0.5,11.2,1.9,16.6c0.9,1.9,0.1,4.1-1.8,5c-0.1,0-0.2,0.1-0.3,0.1c-2.3,1-4.1,0.2-5.5-2
		c-1.3-2.1-1.8-4.7-1.6-7.1c0.3-3.9-1.6-5.6-5.2-5.3c-5.6,0.6-11.1,1.5-16.6,2.3c-2.9,0.4-2.8,2.6-2.4,4.7c0.7,2.9,1,5.8,1,8.8
		c-0.1,1.7-0.8,2.7-2.4,2.9c-1.5,0.1-2.9-0.4-3.3-2c-2.2-8.6-3.5-17.4-3.7-26.3c-0.1-1.9,1.7-2.5,3.2-2.8s2.4,0.7,2.7,2
		c1,4.7,4.4,5.4,8.5,5.2c3.7-0.2,7.5-0.1,11.2-0.1c2.7,0,4.7-0.9,4.9-3.8c0.3-3.1,1.2-5.7,5-5.3C591.8,566.4,591.2,570.2,592.1,573z
		"/>
	<path d="M465.6,587.5c-0.1-2.9,1.6-6.9-3.6-6.8c-7.1,0.1-11.3,3.6-10.9,8.4c0.2,2.5,0.2,5,0.2,7.5c0,1.9-0.7,3-2.6,3.2
		c-1.9,0.1-3.6-0.8-3.7-2.8c-0.4-9.5-5.1-18.8-1.8-28.5c0.5-1.6,0.9-3,2.7-3.3c2.2-0.3,2.9,1.3,3.4,3.1c0.1,0.3,0.1,0.6,0.2,0.9
		c0.8,2.5-0.9,6.4,4,6.5c7,0.2,8.7-0.6,10.6-6.3c0.5-1.4,0.9-2.7,2.6-2.8c1.6-0.3,3.2,0.7,3.7,2.2c1.2,2.6,2.1,5.2,1.7,8.1
		c-0.6,5.4-0.3,10.9,1,16.2c0.5,2.3,1,5.1-2.1,5.7c-3.4,0.7-4.6-1.9-4.9-4.8C465.9,591.9,465.8,589.7,465.6,587.5z"/>
	<path d="M420.8,593c-5.8-0.2-11.5-0.9-17.1-2.2c-1.5-0.3-3.1-1.6-4.3-0.1c-1,1.2,0.3,2.6,0.7,3.9c0,0.1,0.1,0.3,0.2,0.4
		c0.9,1.9,1,3.6-0.6,5.1c-1,1.1-2.5,1.4-3.9,0.8c-2.1-0.8-2.5-2.5-2.4-4.6c0.2-7.2-0.4-14.3-1.9-21.3c-0.5-2.6-1.4-5.1-2-7.7
		c-0.4-1.6-0.4-3.1,1.7-3.7c1.9-0.6,2.9,0.4,3.7,1.9c1.4,2.9,2.2,6.2,2.3,9.4c0,1.5-0.5,3.4,1.1,4.3c1.9,1.1,3.1-0.8,4.4-1.7
		c3.3-2.1,6.5-4.1,9.1-7.2c0.9-1.2,2.3-2.3,4-1.2c2,1.2,1.3,2.9,0.9,4.6c-0.7,3.4-3.9,4.2-6.3,5.7c-1.4,0.9-3.6,1.3-3.3,3.5
		c0.3,2.3,2.7,1.7,4.2,2.1c4.4,1.1,8.9,1.5,13.4,1.1c2.3-0.2,4.5,0,4.6,3.1c0,3.1-2.1,3.7-4.7,3.6C423.3,593,422,593,420.8,593z"/>
	<path d="M750.9,594.5c0.3-0.9,0.6-1.7,0.9-2.6c3.7-7.5,7.4-15,11.3-22.4c2.7-5.1,4.3-5.2,8.4-1.4c3.8,3.4,6.8,7.7,8.7,12.5
		c1.6,3.9,3.2,7.7,6.2,10.8c2.4,2.4,2.2,5.2-0.5,7.2c-3.1,2.3-4.5-0.5-5.7-2.6c-1.8-3.2-4.2-6.2-4.9-10c-0.4-2.2-2-3-4.2-2.5
		c-4.8,1.2-9,3.1-11.3,8c-1,2.1-2.2,4.1-3.6,5.9c-0.8,1.2-2,2-3.6,1.3C751.1,598.1,750.6,596.7,750.9,594.5z"/>
	<path d="M839.4,593.9c2.3-9.5,6.8-18.3,13.2-25.6c2.7-3.1,6-2.4,8.3,1.6c2.4,4,4.4,7.7,10,6.2c1.1-0.3,2.1,0.6,2.4,1.8
		c0.3,1.2-0.6,1.6-1.3,2.2c-5.5,4-5.7,4.2-0.4,8.8c2.4,2,3.2,3.9,2.4,6.8c-0.3,1.2-0.5,2.5-2,2.8c-1.5,0.3-2.7-0.5-3.5-1.8
		c-1.7-2.8-3.4-5.6-5-8.4c-3.6-6.1-9.3-6.1-13.3,0c-1.9,2.8-3.4,5.9-5.2,8.8c-0.7,1.3-2.3,1.9-3.6,1.3
		C839.6,597.7,839.1,596.3,839.4,593.9z"/>
	<path d="M103.8,584.4c0.2,1.7,0.6,3.4,1.1,5c2.1,5.9,7.2,7.4,12.1,3.5c4.6-3.5,8.1-8.1,11.8-12.5c1.7-2.1,3.7-4.3,6.6-1.9
		c2.7,2.3,2,5,0.2,7.5c-4,5.5-9,10.3-14.7,14.1c-2.4,1.8-5.6,2.3-8.4,1.2c-8-2.9-12-9.1-13.3-17.1c-1.4-7.2,1.2-14.6,6.8-19.3
		c4.1-3.6,9.6-2.4,12.4,2.2c0.8,1.3,1.1,2.6,0.1,3.9c-1.2,1.6-2.4,0.8-3.6,0.1c-4.8-2.5-7.2-1.6-9.5,3.2
		C104.3,577.6,103.7,581,103.8,584.4z"/>
	<path d="M310.6,577.2c0-9.6,0-9.7,9.5-10.4c3.4-0.2,6.8-0.7,10.1-1.7c1.8-0.6,3.7-1,5.1,0.8c0.8,1,1.3,2.3,0.6,3.5
		c-0.9,1.8-2.8,1.7-4.5,1.8c-2.5,0.1-5,0.1-7.4,0.4c-1.2,0-2.3,1-2.3,2.2c0,0.1,0,0.2,0,0.3c0.2,1.6,1.5,1.6,2.8,1.8
		c2.2,0.2,5.9-2.3,6.1,2.3c0.2,4-3.5,3-5.9,3.6c-0.4,0.1-0.9,0.2-1.4,0.3c-2.3,0.8-6.4-0.9-5.4,4.1c1,4.8,4.5,7.4,8.6,6.4
		c1.8-0.4,4.2-3.1,5.3,0.5c0.9,3.1-1,4.9-3.7,6c-5.6,2.3-9.8,1-13.2-4.2C311.7,590.3,310.6,585.5,310.6,577.2z"/>
	<path d="M172.4,561.8c2.4-0.1,4.2,0.3,4.4,2.4c0.2,2.3-1.3,3.4-3.5,3.3c-6.6-0.3-10.9,4.9-16.4,7.1c-0.9,0.3-1.3,1.3-0.9,2.2
		c0,0.1,0.1,0.1,0.1,0.2c0.7,1.5,2,1.9,3.5,1.3c4.7-1.7,9.6-2.6,14-5c1.4-0.8,3.2-2.4,4.3-0.1c1.1,2.4-1.4,2.8-2.8,3.4
		c-5.3,2.5-10.7,5-16.1,7.2c-1.9,0.8-3.5,1.2-3.2,3.7c0.4,3.6,0.4,7.2,4.6,8.9c2.5,1,4.7,0.7,6.3-1.3c1.7-2,3.1-4.3,4.6-6.4
		c0.8-1.2,1.6-2.5,3.3-1.7c1.7,0.8,1.3,2.4,0.7,3.6c-2.3,5-6.1,9.1-10.8,11.8c-2.1,1.3-4.2,0.5-6.1-0.8c-3-2.1-5.1-5.1-6-8.6
		c-1.3-5-1.9-10.1-1.9-15.2c-0.1-3.2,1.6-6.2,4.5-7.7c5.2-2.8,10.5-5.3,15.8-7.9C171.2,562.1,171.8,561.9,172.4,561.8z"/>
	<path d="M528.9,602.9c-4.4,0.8-7-2-9.5-5.2c-0.8-1-1.6-2.1-0.6-3.3s2.2-0.9,3.4-0.2c3.1,2,6.5,2,9.9,1.1c2.1-0.6,4.7-1,4.8-3.7
		c0.1-2.5-2.3-3-4.1-3.7c-6.5-2.8-9.3-7.4-8.5-13.9c0.6-5.1,6.7-11.4,11.7-12c1.4-0.3,2.9,0.4,3.5,1.7c0.7,1.3,0.4,2.9-0.7,3.8
		c-1.9,2-4,3.9-5.8,6c-2.3,2.6-2.1,5.1,0.7,7.2c2.5,1.9,5.1,3.5,7.6,5.4c4.7,3.7,4.7,8.8,0,12.6
		C538.1,601.3,533.9,602.7,528.9,602.9z"/>
	<path d="M222.8,592.5c0.1-5.1,1.8-8.8,3.9-12.5c1.9-3.2,3.6-6.5,5.3-9.8c1.5-3,2.7-3.5,6-1.5c8.2,4.9,10.8,13.7,15.6,20.9
		c0.9,1.3,0.4,2.3-0.5,3.3s-2.3,1.6-3.8,0.9c-2.8-1.1-4.9-3.5-5.7-6.3c-0.7-2.1-0.9-4.8-4.2-4.5c-3.2,0.3-5.7,1.4-6.8,4.7
		c-0.7,2.2-1,4.6-2.6,6.4c-1.3,1.6-2.3,4.2-4.9,3.3C222.3,596.4,223,593.8,222.8,592.5z"/>
	<path d="M493.7,595.1c-6.1,0-11.3-5.6-11.1-12c0.2-6.1,7.1-13.3,12.5-13.1c5.4,0.2,14.3,9.2,14.4,14.8
		C509.6,589.6,501.3,595.1,493.7,595.1z M495.1,587.8c5.4-0.1,7-1.2,7-4.4c0-3.9-3.1-7.3-6.4-7.2c-3.3,0.1-6.3,3.8-6.2,7.5
		C489.6,587.8,492.8,587.5,495.1,587.8L495.1,587.8z"/>
	<path d="M687.6,571.2c8.6,0,13.1,3.6,13.1,10.4c0,6.5-6.9,12.2-14.5,12.2c-6.3,0-10.8-5.4-10.7-12.7
		C675.6,573.9,678.9,571.2,687.6,571.2z M686.9,576.5c-2.5,0.1-5.5,0.6-5.6,4.5c-0.1,3.7,2.1,5.7,5.7,6c1.7,0,3.4-0.1,5-0.4
		c2-0.3,3.5-1.3,3.7-3.5c0.3-2-0.6-4.1-2.4-5.2C691.5,576.8,689.4,576.9,686.9,576.5L686.9,576.5z"/>
	<path d="M203.2,598.8c-3.3-0.3-5.2-1.6-6.2-4.2c-3.2-8.3-2.7-17.1-3.7-25.7c-0.2-1.3,0.7-2.5,2-2.7c0.2,0,0.3,0,0.5,0
		c2-0.1,2.7,1.4,2.9,3c0.5,4.5,0.7,9,1.2,13.5c0.3,3.2-0.1,7.1,3.4,8.6c3.5,1.5,6.5-1,9.3-2.9c0.8-0.5,1.5-1.1,2.2-1.7
		c1.3-0.9,2.6-0.9,3.7,0.4c1.1,1.4,1.4,3-0.1,4.1C214.1,594.9,208.8,597.5,203.2,598.8z"/>
</g>
<g>
	<path d="M351.1,1459.9c0.1,5-0.3,9.3,1.1,13.6c1.1,3.5-0.4,6-4,6.5c-3.7,0.5-4.2-2.4-4.2-5.2c-0.1-4.7,0-9.3-0.2-14
		c-0.1-4.4-1.9-5.6-6-4c-3.7,1.5-7.7,2.5-11.7,2.9c-4.6,0.4-6.1,2.6-5.7,7.2c0.2,2.3,1.4,4.5,0.6,6.9c-0.4,1.9-2.2,3.2-4.1,3.1
		c-2.3,0-2.7-1.9-2.8-3.6c-0.2-2.5,0.8-5.9-0.4-7.3c-4.5-5.1-3-9.7-0.8-15.2c1.1-2.8-0.6-6.7-1-10c-0.2-2-0.2-3.8,2-4.7
		c2.6-0.9,4.7-0.7,4.8,2.7c0.2,3.5-0.2,7.1,0.5,10.7c0.6,3,2.3,4.4,5.2,3.9c5.2-0.8,10.4-1.9,15.6-2.9c2.6-0.5,3.4-2.4,3.1-4.9
		c-0.5-2.2,0.8-4.5,3-5.2c2.2-0.8,4.3-0.6,4.2,2.4C350.3,1448.8,352.1,1454.6,351.1,1459.9z"/>
	<path d="M600.7,1453.2c0-3.1,0-6.2,0-9.3c0-2.3,0.9-3.5,3.3-3.4c2.4,0.1,3.7,1.2,3.3,3.5c-1.3,8.7,0.6,17.4-0.9,26
		c-0.9,4.9-2.7,6.2-7.4,4.4c-9.3-3.4-18.5-7.3-26.6-13.2c-4.4-3.3-5.4-2.7-6.5,2.7c-0.5,2.4-0.9,4.9-2.2,7.1
		c-0.6,0.9-1.4,1.8-2.6,1.7c-1.1-0.1-2-1-2.2-2.1c-2.6-8.5-2.6-17.2-1.9-25.9c0.3-3.2,3.2-3.2,5.4-2c1.8,1.2,3.4,2.7,4.8,4.3
		c8.1,8.5,16.3,16.6,28.6,19c3.8,0.7,5.2,0,5-3.9c-0.2-2.9,0-5.9,0-8.9L600.7,1453.2z"/>
	<path d="M455.2,1457.6c0,3,0,5.9,0,8.8c-0.1,5.3-1.7,6.7-7,5.4c-5.3-1.4-10.3-3.5-15-6.2c-3.7-2-7.3-4.1-11-6.1
		c-3.1-1.7-4.7-0.9-4.5,2.8c0.1,2.8,0.6,5.6-0.7,8.3c-1,2-2.4,3.9-4.9,3.6c-2.9-0.4-2.8-2.9-2.8-5.1c0-6.8-0.7-13.7-2.1-20.4
		c-0.6-2.6-0.4-4.7,2-6.1c2.6-1.6,4.7-0.6,6.7,1.2c4.6,4.3,9.6,8.4,14.7,12.1c4.5,3.1,9.2,5.8,14.1,8.1c3.1,1.4,4.8,0.6,4.8-3
		c0-4.8,0.2-9.6-1.3-14.3c-0.8-2.4-0.7-4.7,2.5-5.3c3.3-0.6,3.7,1.6,3.9,3.9c0.1,4,0,8.1,0,12.1L455.2,1457.6z"/>
	<path d="M250.8,1467.7c-0.4,2.2-0.7,3.9-2.8,4.4c-1.7,0.4-3.5-0.2-4.5-1.7c-0.7-0.9-1.2-1.8-1.9-2.7c-4.5-5.8-10.8-6.2-16-0.8
		c-2,2.2-3.8,4.5-5.4,7c-1.3,1.7-2.7,2.6-4.7,1.4c-2-1.3-2.1-3.1-1.4-4.9c0.6-1.4,1.4-2.8,2.3-4c4-6.5,6.4-13.8,8.7-21.1
		c1.9-6.3,6-7.2,10.5-2.3c6.2,6.7,9.6,15.2,14.8,22.6C250.7,1466.2,250.8,1467,250.8,1467.7z"/>
	<path d="M525.1,1470.3c1.3-0.3,2.9-1,3.7,0.7c0.9,1.7,0.1,3-0.8,4.4c-2.4,3.1-6.7,3.8-10,1.7c-0.7-0.6-1.4-1.2-2.1-1.9
		c-4.9-5.1-7.7-21.5-5-28c0.5-1,0.9-2,1-3.1c0.2-3.6,2.3-4.3,5.4-4.2c5.5,0.4,10.9-0.3,16.1-2.1c1.8-0.7,3.4-0.8,4.2,1.4
		c0.8,2.2-0.3,3.8-2.3,4.3c-3.7,0.9-7.6,1.4-11.4,2.2c-1.4,0.3-3.5,0.3-3.3,2.5c0.2,2.7,2.6,1.9,4,1.6c6.6-1.2,13.2-2.2,19.9-1.7
		c1.9,0.1,4,0,3.9,2.8c-0.2,2.6-2.4,2-3.9,2c-6.7,0.1-13.4,0.8-19.9,2.1c-2.7,0.5-5.6,1.5-5.7,4.7c-0.1,3.3,0,6.9,2.4,9.7
		C522.2,1470.6,523.7,1470.6,525.1,1470.3z"/>
	<path d="M361.4,1469.9c0.9-9.5,3.9-18.6,8.6-26.9c1.6-2.9,4.7-3.6,6.5-1.1c4.7,6.2,10.2,11.7,14.9,17.9c2,2.7,2.6,6.3,3.2,9.7
		c0.4,2.5-0.2,4.3-2.6,5.3c-2.4,1-4.2,0.3-5.7-1.7c-1.5-2-2.6-4.2-3.3-6.6c-0.8-2.9-2.2-5.3-5.7-4.9s-6.9,0.9-7.7,5.3
		c-0.3,1.7-0.9,3.3-1.6,4.8c-0.8,1.7-1.9,3.4-4.2,2.7C361.3,1473.8,361.3,1471.9,361.4,1469.9z"/>
	<path d="M479.2,1478.6c-5.8,0.2-10.6-4.3-10.8-10.1c0-0.1,0-0.2,0-0.2c-0.1-1.3,0.7-2.5,1.9-2.8c1.1-0.4,2.3,0.1,2.7,1.1
		c0.5,1.1,1.1,2.2,1.9,3.2c2.2,2.5,4.8,3.7,7.7,1.2c3-2.7,1.8-5.4-0.7-7.5c-4.4-3.7-6.7-8.5-8.1-13.8c-1.4-5.6,1.2-10.9,5.8-12.1
		c2.1-0.6,4.3-1,5.6,1.6c1.1,2.4,0.6,4.3-1.7,5.6c-2.6,1.4-2.7,3.3-1.8,5.9c1.2,3.6,2.8,6.9,5.7,9.3c2.9,2.4,4.5,6.2,4.1,9.9
		C491.3,1475.9,487.9,1478.3,479.2,1478.6z"/>
	<path d="M137.3,1476c-3.5-0.4-6.6-0.3-9.3-2.2c-1.4-1-2.9-2.2-1.9-4.2c1.1-2.3,2.9-1.2,4.4-0.5c2.4,1.2,4.8,2.2,7.6,1.1
		c3-1.2,3.5-3.6,0.9-5.5c-1.9-1.3-3.7-2.8-5.1-4.7c-4.1-5.8-2.8-13.8,2.9-17.9c1.8-1.3,3.9-2.1,6.1-2.3c1.4-0.2,2.5,0.3,2.8,1.8
		c0.6,2.4,0.3,4.3-2.5,5.2c-4.3,1.3-5.9,4.4-4.8,8.7c1.1,4.1,4.4,5.8,8.1,7c2.4,0.8,4.8,1.4,4.9,4.7c0.1,3.3-1.4,5.6-4.5,6.9
		C143.8,1475.2,140.6,1475.9,137.3,1476z"/>
	<path d="M175.8,1454.9c0-3.4,0-6.8,0-10.3c0-1.8,0.4-3.6,2.7-3.6c1.7-0.1,3.2,1.3,3.3,3c0,0.1,0,0.2,0,0.3
		c0.1,4.2,0.1,8.4-0.2,12.6c-0.5,8.5,1.3,10.2,9.6,8c2.1-0.6,4.1-1.5,6.1-2.2c1.8-0.6,3.8-1.2,4.9,1s1.2,4.9-1.2,6.2
		c-5.8,3.2-12,5.5-18.7,4.4c-3.9-0.6-5.8-3.7-6.1-7.4c-0.3-4-0.1-8.1-0.1-12.1L175.8,1454.9z"/>
	<path d="M99,1456.6c0-4.5,0-9,0-13.5c0-1.9,0.4-3.6,2.6-3.7c2.4-0.1,3.2,1.5,3.2,3.7c0,4.8,0.1,9.6,0.2,14.4c0,3.1,0.3,6.1,2.1,8.9
		c1.9,2.7,0.4,8.3-2.6,9.5c-3,1.2-4.5-0.9-4.6-3.5c-0.2-5.3-0.1-10.6-0.1-15.9L99,1456.6z"/>
</g>
<g>
	<path d="M609.3,1986.2v-5.9c0-1.2,0.1-2.5-1.4-2.9c-1.5-0.4-2.1,0.7-2.8,1.7c-1.3,1.8-2.5,3.7-3.9,5.5c-3.7,4.6-6.4,4.6-10.2,0
		c-0.2-0.3-0.5-0.6-0.7-0.9c-0.9-1.2-1.9-2.3-3.6-1.7c-1.7,0.7-2.2,2.1-1.7,3.9c0.7,2.7,0,5.3-0.7,7.8c-0.4,1.8-2.2,2.9-4,2.5
		c-2.2-0.3-2.2-2-2.1-3.6c0.5-5.8,0.5-11.6,0.1-17.4c-0.2-2.2,0.7-4.3,2.4-5.6c1.7-1.4,3.3-1.7,4.5,0.6c2.1,3.7,5.7,5.8,8.9,8.3
		c1.6,1.5,4.1,1.4,5.6-0.2c0.1-0.1,0.2-0.3,0.4-0.4c2.2-2.6,4.3-5.4,6.3-8.1c1.1-1.4,2.2-2.7,4.2-2.3c2.2,0.4,2.4,2.1,2.7,3.8
		c0.7,3.6,1,7.3,0.8,11c-0.1,3.9,0.2,7.7,2.4,11.1c0.9,1.3,1.3,2.7,0.3,4c-0.9,1.2-2.4,1.8-3.8,1.6c-1.6-0.2-2.9-1.5-3.2-3.1
		C609.2,1992.6,609.3,1989.4,609.3,1986.2z"/>
	<path d="M400.7,1966.1c5.7,0.1,10,5.6,8.9,12c-0.5,3.1-1.7,6.1-2.5,9.1c-0.9,3.3-0.2,4.1,3.1,3.7c5.4-0.6,11.1,0.3,16.1-2.8
		c1.4-0.9,2.7,0.2,3.5,1.7c1.3,2.4,2.2,4.9,0.8,7.5c-0.9,1.7-2.4,1.1-3.8,0.8c-9.1-1.9-18.1-0.9-27,1.3c-2.8,0.7-5.6,1.4-7-2.2
		c-1.2-3.4,0.8-5.3,3.5-6.5c5.8-2.7,6.4-8.4,7.6-13.6c0.6-2.4-1.8-3-3.7-2.5c-2.2,0.5-4.2,1.4-6.4,2c-1.3,0.3-2.8,0.3-3.6-0.9
		c-0.8-1.3-0.2-2.6,0.7-3.6C393.6,1969,396.3,1966,400.7,1966.1z"/>
	<path d="M561.5,1978.2c0.1,8.3-5.3,15.8-13.3,18.2c-3.7,1.2-7.7,1.9-11.3,3.3c-2.2,0.9-4.2,0.1-5.6-1.8c-1.5-1.7-1.4-4.2,0.2-5.8
		c2.9-3.4,3-7.2,1.9-11.2c-0.9-3.7-2.2-7.3-2-11.2c0.3-3.9,1.5-4.6,4.7-2.6c3.2,1.9,6.4,1.2,9.6,0.5c4.8-1.1,8.8,0.6,12.6,3.3
		C560.8,1972.6,561.4,1975.3,561.5,1978.2z M546.4,1972.8c-0.8,0-1.6-0.1-2.4,0c-5.8,0.5-7.5,2.6-6.2,8.3c0.4,2.2,0.6,4.4,0.6,6.7
		c0,2.8,1.7,4,4.2,4.3c5.6,0.6,13.9-7.7,13.3-13.4c-0.1-1.9-1.1-3.6-2.6-4.7C551.2,1972.7,548.8,1972.7,546.4,1972.8L546.4,1972.8z"
		/>
	<path d="M629.1,1993.3c-0.6-4.7,1.3-8.5,3.3-12.2c2-3.7,4-7.3,4.8-11.6c0.7-3.8,4.6-4.7,7.1-1.7c2.3,2.7,5,5.1,5.5,9
		c0.3,2.4,2,2.8,4.1,1.9c1.3-0.6,2.8-1.5,3.9,0.1c1.2,1.9-0.7,2.5-1.7,3.4c-3.7,3.4-3.6,5.9,1.3,9.5c2.1,1.6,3.6,3,2.5,5.8
		c-1.3,3.2-3.6,3.7-6,1.2c-2-2.1-2.4-4.9-3.3-7.6c-0.8-2.4-0.6-5.5-4.2-6c-3.5-0.4-7.7,2-9.1,5.2c-0.9,1.9-1.6,3.9-2.4,5.8
		c-0.7,1.7-1.3,3.8-3.7,3.1c-2.1-0.6-2.1-2.4-1.9-4.3C629.2,1994.4,629.1,1993.8,629.1,1993.3z"/>
	<path d="M124.2,1975.1c0,4.6-0.9,9.2-2.4,13.6c-1.3,3.5-0.1,4.7,3.5,4c3-0.6,5.6-2.4,8.7-2.4c2.5,0,5.1,0.1,5,3.5
		c-0.1,3.2-2.6,3-5,3c-7.4-0.2-14.8,1.6-21.3,5.2c-2.5,1.4-5.4,2.1-8.3,2.1c-1.7,0-2.8-0.7-3.1-2.4c-0.3-1.7,0.8-2.6,2.3-3.2
		c13.1-4.8,16.5-10.1,15.9-23.9c-0.1-2.7-0.9-5-3.5-6.2c-2.6-1.1-4.2,0.8-5.8,2.4c-2.1,2.2-4.2,4.4-6.3,6.5
		c-1.1,1.1-2.5,1.6-3.8,0.3c-1.2-1.1-1.7-2.6-0.6-3.9c3.9-5.1,8.4-9.6,14.7-11.4c4.3-1.2,8.1,1.6,9.1,6.1
		C123.9,1970.9,124,1973.4,124.2,1975.1z"/>
	<path d="M717.1,1981.3c0.1-9,5.9-15.5,14.2-15.8c3.6-0.1,5.7,1.6,7.1,4.7c0.5,1,0.6,2.2-0.4,2.9s-1.8,0-2.4-0.7
		c-2.2-2.5-4.8-3.3-7.7-1.4c-3.5,2.2-7.1,4.1-6.9,9.2c0.3,9.1,2.8,13.5,9.1,15.4c3.9,1.2,5.4,0.4,6-3.7c0.6-4.9,3-9.4,6.7-12.7
		c1.3-1.1,2.6-3,4.8-1.6s4,3.1,3.6,6.1c-0.4,3.2-1.7,6.2-3.7,8.6c-0.3,0.3-0.5,0.6-0.8,0.9c-5.2,5.9-14.4,9-19.9,6.9
		C721.2,1998,717,1989.7,717.1,1981.3z M745.7,1984.2c-1.8,0.1-5,4.3-5,6.3c0,1.2,0.5,1.7,1.7,1.6c1.9-0.1,4.8-3.8,4.8-6.1
		c0.1-0.8-0.4-1.6-1.3-1.7C745.9,1984.2,745.8,1984.2,745.7,1984.2z"/>
	<path d="M449.6,1995.7c-7.2,0.1-11.9-4.2-12-10.8c0-6.6,6.3-14.5,11.6-14.5c8.6,0,17.1,7.1,16.9,14.2
		C466,1990.4,458.2,1995.6,449.6,1995.7z M452,1978.6c-4.6,0-7,1.9-7.1,5.4c-0.1,3.1,1.5,4.6,4.5,4.9c4.8,0.6,8.9-1.4,9.5-4.5
		c0.4-1.7-0.4-3.5-1.9-4.5C455.6,1978.9,453.8,1978.5,452,1978.6z"/>
	<path d="M330.3,1997.4c-6.5-0.9-11.6,0.8-16.6,2.5c-1.5,0.5-3.1,1-4.6,0.1c-2.3-1.3-2.2-4.2,0.7-6.1c5.8-3.7,8.2-9.1,8.4-15.7
		c0.1-1.8,0.1-3.5-1.7-4.5c-1.8-1-4-0.7-5.6,0.7c-0.8,0.7-1.6,1.3-2.5,1.9c-1.5,0.6-3.1-0.2-3.7-1.7c-0.4-0.9-0.2-2,0.4-2.7
		c0.6-0.7,1.3-1.3,2-1.9c5.2-4.6,8.3-5.5,12-3.3c3.8,2.3,6.1,8.6,4.7,13.8c-0.5,2.3-1.3,4.6-2.4,6.7c-1.6,3-0.4,4.8,3,4.7
		c2.7,0.1,5.3-0.6,7.6-1.9c1.7-1.1,3.5-1.3,5.1,0.1c1.3,1,1.7,2.8,1,4.3c-0.7,1.9-2.6,3.1-4.7,2.9
		C332,1997.3,330.6,1997.4,330.3,1997.4z"/>
	<path d="M782.9,1994.3c-3.2,0.1-6.3-0.5-9.2-1.9c-2.9-1.3-4.9-0.7-5.5,2.7c-0.3,1.4-0.4,3.2-2.3,3.1c-2-0.1-1.7-2-1.9-3.4
		c-0.7-5.4-2.4-10.6-4.9-15.4c-0.6-1.2-2-2.4-0.6-3.9c0.6-0.7,1.6-1,2.5-0.8c1.7,0.5,2.2,1.8,2.2,3.4c0,0.3,0,0.5,0,0.8
		c0.1,1,0.4,1.9,1.6,1.9s1.6-0.8,1.7-1.8c0.5-3.3,1.5-6.3,4.2-8.6c2.1-1.9,4.4-3,7.2-2.1c2.8,0.9,3.7,3.5,4.2,6.2
		c0.6,3.7-0.3,7.3-1.6,10.8c-1.4,4.1-0.8,5,3.5,5c3.1,0,6.4,0.6,9.2-1.5c1.1-0.8,2.5-1.6,3.2,0.3c0.7,1.7-0.3,2.9-1.9,3.3
		C790.8,1993.6,786.8,1994.3,782.9,1994.3z M778.4,1977.7c-0.2-1.6,0.5-4-2.5-4.3c-3.2-0.3-7,3.7-7,7.3c0,2.9,1.9,3.3,4.2,3.4
		C776.8,1984.2,778.3,1982.5,778.4,1977.7z"/>
	<path d="M232.1,1994.4c0.4-5.8-1.6-8.2-7.5-8c-5.5,0.2-9-2-11.4-6.8c-2.4-4.8-2-6.7,2.1-9.8c2.6-1.9,5.5-3.2,8.6-3.9
		c1.4-0.4,2.7-0.6,3.4,0.9c0.7,1.4,0.1,3.1-1.3,3.7c0,0,0,0,0,0c-1.3,0.6-2.7,1.1-4.1,1.4c-1.2,0.4-2.6,0.6-3.2,2.1
		c-0.9,2.3,1.5,6,4.8,7.3c3.9,1.6,6.7,0.7,7.9-2.4c1-2.7,0.6-5.5,0.8-8.2c0.1-1.7,0.4-3.4,2.5-3.4c2.1,0,2.6,1.5,2.9,3.2
		c0.8,4.7,1.6,9.3-0.1,14c-1,2.7-0.5,5.3,1.9,7.2c1.7,1.4,2.6,2.7,1,4.6c-1.6,1.9-2.7,4.7-5.8,3.9c-2.4-0.6-3-2.7-2.5-5.1
		C232.1,1994.9,232.1,1994.7,232.1,1994.4z"/>
	<path d="M362.2,1995c-8.9,0.1-12.7-3.3-12.7-9.8c0.1-8,5.7-14.4,12.4-14c6.3,0.4,11.4,3,14.7,8.5c2.3,3.9,1.9,6.5-1.4,9.5
		C371.6,1992.5,367,1994.6,362.2,1995z M364,1979.7c-1.3,0.2-3,0.4-4.6,0.8c-2.6,0.6-3.6,2.5-3.4,5s2.1,3.5,4.3,3.7
		c1.6,0,3.1-0.1,4.7-0.5c4.1-0.6,6.4-2.7,5.9-5.5C370.3,1979.6,367.2,1979.9,364,1979.7L364,1979.7z"/>
	<path d="M855.2,1978.1c0,6.9-6.2,16.2-12.7,19c-4.1,1.7-8.6-0.2-9.6-4.8c-1.1-5.6-1.8-11.2-2.3-16.8c-0.3-3.5,1.9-5.7,5.3-6.5
		c4.7-1.1,9.6-0.7,14,1.1C853.4,1971.2,855.6,1974.6,855.2,1978.1z M843.7,1974.2c-4.4,0-7.3,1.7-7.3,5c0.1,3.7,0.5,7.4,1.1,11
		c0.4,2.4,1.9,3.1,4,1.6c3.1-2.2,6.1-4.7,7.9-8.2C852.5,1978,850.2,1974.2,843.7,1974.2z"/>
	<path d="M175.2,1981.8c-0.1,1-0.2,2-0.5,2.9c-2.3,6.7-14.9,12.6-21.6,10.1c-3.9-1.5-6.9-5.9-7-10.6c-0.1-3.7,3.3-9.4,6.5-10.7
		c1-0.4,2.4-0.9,3.3,0.2c0.9,1.2,0.3,2.3-0.6,3.2c-1,1.1-1.9,2.2-2.8,3.3c-1.8,2.6-1.7,6,0.3,8.5c1.8,2.5,4.3,2.2,6.8,1.6
		c2.7-0.6,5.3-1.7,7.6-3.3c3.9-2.9,3.7-6.2-0.5-8.6c-1.9-0.9-3.8-1.8-5.8-2.5c-1.4-0.6-2.1-1.6-1.5-3.1c0.5-1.3,1.6-2.6,2.9-2.1
		c4.6,1.9,9.5,3.3,12.1,8.1C174.8,1979.8,175.1,1980.8,175.2,1981.8z"/>
	<path d="M800.3,1989.7c-2.8-3.7-1.8-6.8,3.2-9.2c1.6-0.8,0.9-3.7,0.9-5.6c0-2.2,0.7-3.9,3.1-4.4c2.3-0.5,4.7,0.1,5.5,2.6
		c0.9,2.7,2.9,4.8,5.5,5.8c1.6,0.7,2.6,1.7,1.2,3.7c-1.7,2.1-1.4,5.1,0.7,6.8c0.5,0.4,1,0.7,1.5,0.8c1.5,0.6,2.7,1.1,2.5,2.9
		c0,1.2-0.9,2.3-2.1,2.6c-1.7,0.5-3.3,0.3-4.2-1.3c-1-2-1.9-4.1-2.6-6.2c-0.6-1.6-0.8-3.5-3.1-3.5c-2-0.2-4,0.9-5,2.6
		c-0.9,1.5-1.5,3.1-2.3,4.6c-0.8,1.5-1.6,3-3.6,2.3C799.6,1993.6,800.3,1991.9,800.3,1989.7z"/>
	<path d="M872.6,2001.5c-0.9,0-1.8-0.2-2.7-0.5c-1.3-0.5-2.1-1.8-1.8-3.2c0.3-1.4,1.6-1.2,2.6-1.1c2.4,0.3,4.3-0.8,6.3-1.9
		c1.3-0.8,2.7-1.4,2.6-3.2s-1.6-2.6-3.2-3.1c-5-1.5-9-4.3-11.4-9.1c-3.1-6.1,2.4-15,9.2-14.8c1.5,0,3.5-0.2,3.9,1.9
		c0.5,2.5-1.7,2.2-3.1,2.6c-2.8,0.8-5.1,2.3-5.9,5.3s1.8,4.3,3.6,6c2.4,2.1,5.1,3.8,8.1,4.8c5.1,1.9,6.4,7.7,2.5,11.6
		C880.5,1999.8,876.6,2001.4,872.6,2001.5z"/>
	<path d="M283.1,2002.6c0,1.9-0.4,3.6-2.4,4s-3.1-1.3-3.7-2.9c-2.5-6.8-5-13.6-7.3-20.4c-1.6-4.9-3.2-9.7-6.1-14
		c-1.5-2.1-2.5-4.7-1.4-7.5c1-2.6,3-2.9,4.8-0.8c1.5,2,2.6,4.3,3.3,6.7c2.4,7,4.8,13.9,7,20.9c1.2,3.6,2.3,7.3,4.7,10.3
		C282.8,1999.9,283.2,2001.2,283.1,2002.6z"/>
	<path d="M190.3,1971c-0.1-0.7,0.5-1.7,1.8-2c1.3-0.4,2.7,0.2,3.4,1.4c0.7,1.4,1.1,3,0.9,4.6c0,6-0.1,12.1,3,17.7
		c1.4,2.4-0.4,4-2.7,4.6c-2.3,0.6-4-0.1-4.1-2.8C192.2,1986.7,192.1,1979.1,190.3,1971z"/>
</g>
<g>
	<path d="M585.9,1281.9c0.6-4.3,3.3-6.3,6.1-8.3c1.9-1.2,3.4-2.8,4.3-4.8c0.5-1.1,0.4-2.8,2.1-2.7c1.8,0.1,2.7,1.7,3,3.2
		c0.8,4,1.1,8,1.9,12c0.4,1.9-0.6,4.6,2.1,5.1c2.4,0.5,4.1-1.4,5.4-3.1c1.6-2.1,2.7-4.6,4.1-6.7c1.1-1.9,2.5-3.6,4-5.1
		c2.4-2.1,4.7-1.7,5.7,1.6c0.9,2.8,1.4,5.7,1.5,8.7c0.3,5.3,0.6,10.6,3.6,15.2c0.9,1.4,1,2.6-0.5,3.6c-1.7,1.1-3,0.3-3.9-1.2
		c-1-1.9-1.9-3.9-2.7-5.8c-0.5,0.1-0.9,0.1-1,0.3c-9.9,17.2-20.2,15.3-34.5,11.4c-4.2-1.1-6.3-4.4-6.8-8.6
		c-0.5-4.2-0.6-8.4-0.9-12.6c-0.2-2.5,0.6-6-3.2-6.2s-3.4,3.5-3.9,5.9c-0.7,3.2-0.8,6.5-1.4,9.7c-1.1,6.2-2.9,7.1-8.5,4.5
		c-2.8-1.3-5.6-2.7-8.3-4.2c-3.2-1.7-5.3-0.8-6.7,2.4c-1.2,2.7-2.3,5.4-3.7,8c-1,1.9-2.6,3.2-5,2.5c-2.2-0.6-2.6-2.5-2.8-4.4
		c-0.8-6.8-1.4-13.6-2.1-20.4c-0.2-1.7,0.1-3.7-2.2-4c-2-0.3-2.4,1.7-2.9,3.1c-2.6,6.5-6.5,12.5-11.3,17.6c-2.5,2.6-4.8,3.2-8.3,1.3
		c-8.1-4.4-11.1-3.7-17.6,3c-1.5,1.5-2.7,3.9-5.3,3c-2.4-0.8-2.5-3.3-3-5.4c-1.5-5.9-0.7-12.1-1.7-18.1c-0.5-3.3-0.1-8-4.6-7.9
		c-4,0.1-3,4.7-3.4,7.6c-0.4,3.1-0.4,6.2-0.5,9.3c-0.1,3.6-1.7,7.1-4.4,9.4c-1.1,1.2-2.8,1.6-4.3,1.1c-1.6-0.6-1.7-2-1.8-3.5
		c-0.3-4-0.6-8.1-1-12.1c-0.2-2-0.6-4.3-3.1-4.7c-2.5-0.4-3.3,1.8-4.1,3.7c-1.5,3.4-3,6.8-4.3,10.3c-0.9,2.8-3.7,4.5-6.5,4.1
		c-3.2-0.3-4-2.8-4.5-5.2c-0.4-2.1-0.5-4.3-0.5-6.5c-0.1-1.7-0.4-3.3-2.3-3.5c-1.4-0.2-2.7,0.8-2.8,2.2c0,0.1,0,0.2,0,0.3
		c-0.7,9.2-5.8,11.6-14.4,10.9c-5.3-0.4-10.8,1.4-16.2,2c-5.8,0.7-6.9-0.4-5.4-5.9c2.1-8,0.9-16.1,1.1-24.1
		c-0.1-0.8-0.4-1.5-0.8-2.1c-3-4.8-1.9-8,3.4-10.2c1-0.4,1.9-0.5,2.5,0.4c2.6,3.8,6.3,3.3,10.1,2.6c5.8-1.1,6.3-0.8,7.4,5.1
		c1.1,6.1,2.1,12.3,3.1,18.4c0.3,1.6,0,3.7,2.4,3.9c2.4,0.2,2.4-1.9,2.8-3.6c1.6-5.6,1.7-11.3,1.5-17.1c-0.1-2.1-0.9-4.6,2.1-5.4
		c2.7-0.7,3.6,1.2,4.2,3.2c0.6,1.7,1.4,1.4,2.8,0.8c4.3-2,5.2-1.4,5.6,3.4c0,0.6,0,1.2,0,1.9c0,2.3,1.1,3.9,3.4,4.3
		c2.5,0.5,4.4-0.5,5.1-2.9c0.9-2.9,1.5-6,2.4-9c0.6-2.1,1.3-4.4,3.9-4.8c2.9-0.5,2.4,2.3,3.3,3.7c0.2,0.3,0.4,0.5,0.5,0.7
		c5.4,8,5.5,8,11,0.2c1.2-1.7,2.1-4,4.9-3.5c2.6,0.5,2.6,2.8,3.1,4.7c2.3,7.9,3.4,16.2,3.3,24.4c0,1.2,0,2.5,0.1,3.7
		c0.1,1.5,0.7,2.8,2.6,2.6c1.4,0,2.5-1,2.5-2.4c0-0.1,0-0.2,0-0.4c-0.1-1.9-0.4-3.7-0.7-5.5c-1.2-6.7,0.7-11.9,7.1-15.2
		c2.4-1.2,4.6-2.6,5.2-5.6c0.2-1.5,1.5-2.5,3-2.4c1.6,0,3,1.2,3.4,2.8c1.8,6.5,4.7,12.9,5.2,19.8c0.1,1.2-0.3,2.8,1.3,3.1
		c1.4,0.3,2.1-1.1,2.9-2c4.4-5.7,6.9-12.5,9.9-19c0.9-2,1.7-4.1,4.3-4.3c3-0.2,3,2.5,4.1,4.2c2.5,3.7,5.2,7.4,7.8,11
		c2,2.8,3.7,2.4,5.1-0.5c1.7-3.5,3.2-7.1,5.1-10.5c2.2-4.1,4.1-4,6.5-0.1c2.7,4.3,4.5,4.7,8.7,2c0.7-0.4,1.3-0.9,1.9-1.4
		c2.1-1.4,4-4.4,6.8-3.2c3.1,1.4,3.4,5,3.9,8C583.6,1276.6,583.2,1279.2,585.9,1281.9z M418.8,1285.9c0.1-1.2,0.1-2.5,0-3.7
		c-0.4-2.9-2.2-3.7-4.6-2.3c-3.6,2.2-4.3,6.3-5.4,9.9c-0.3,0.8,0.6,1.3,1.3,1.6C414,1293.3,419,1290.1,418.8,1285.9z M508.3,1286.7
		c0-3.4-1.3-6.4-2.8-6.4c-2.7,0-3.4,2.3-4.3,4.2c-0.4,1-0.8,2-1.1,3.1c-1,3.2,0.7,5.1,3.9,4.4
		C507.1,1291.3,508.2,1289.1,508.3,1286.7L508.3,1286.7z M598.7,1292.5h0.1c0-1.5,0.1-3.1,0-4.6c-0.1-1-0.8-1.8-1.7-2
		c-0.8-0.3-1.9,0-2,0.7c-0.6,3.7-3.5,7-2.7,11c0.3,1.6,1.1,3,3,3c1.9,0,2.7-1.3,3-2.9C598.7,1296,598.6,1294.2,598.7,1292.5z
		 M561.8,1285.3c-0.7-2.7,0.1-7-4.2-7.5c-3.2-0.3-3.2,3.1-3.5,5.5c-0.4,3.7,2,5.3,5.2,5.7C561.8,1289.5,561.6,1287.2,561.8,1285.3
		L561.8,1285.3z M403.3,1275.3c0.3,1.3,0,3.2,2.1,2.9c3.8-0.7,2.7-4.3,3.6-6.8c0.4-1-0.1-2-1-2.4c-0.3-0.1-0.5-0.2-0.8-0.1
		C403.1,1269.3,404.1,1272.8,403.3,1275.3L403.3,1275.3z"/>
	<path d="M175.8,1289.2c-0.1,2-0.3,4.4-0.5,6.7c-0.2,1.8-1.2,2.9-3.1,2.8s-3-1.4-2.7-3.2c1.3-8-0.2-15.8-0.7-23.7
		c-0.1-1.6,0.2-3.2,2.1-3.7c1.7-0.6,3.6-0.1,4.7,1.3c2.7,3.2,5.3,6.5,8.3,9.5c4.8,5,7.5,4.8,11.7-0.6c2-2.6,3.9-5.3,5.9-7.8
		c1.4-1.8,2.5-4.4,5.4-3.4c3.2,1,2.6,3.9,2.7,6.3c0.2,3.1,0.2,6.2,0.4,9.3c0.1,3.3,1.1,6.5,2.8,9.3c1.1,1.7,1.5,3.4,0.1,5.1
		c-1.1,1.4-2.7,1.4-4.3,1.2c-2.2-0.3-3.2-1.9-3.4-3.9c-0.3-3.7-0.3-7.5-0.5-11.2c-0.1-1.7,0.4-3.7-1.7-4.4c-2.4-0.8-3.1,1.4-4.2,2.9
		c-7.3,10.4-8.6,10.6-17,2c-1.4-1.4-2.5-3.8-4.8-2.9c-2.4,0.9-1.2,3.5-1.3,5.4C175.7,1287.1,175.8,1288,175.8,1289.2z"/>
	<path d="M309.4,1280c-0.8-5,0.8-10,5-14.1c1.9-1.9,3.7-2.9,6-0.7c2,2,1.9,4.3-0.1,6.2c-3.1,3-5.6,6.2-5.5,10.9
		c0.1,5.4,2.8,9.1,7.4,11.6c3,1.6,5,0.8,5.9-2.6c0.9-4.1,2.8-8,5.5-11.2c2.8-3.2,6.1-4.9,10.3-2.9c3.9,1.9,4.2,5.6,3.7,9.3
		c-1.4,10.3-15,18.1-24.7,14.3C312.9,1296.7,309.5,1291.6,309.4,1280z M342.6,1286.7c0.2-1.3-0.7-2.5-2-2.7c-0.4-0.1-0.9,0-1.3,0.2
		c-2.1,0.6-6.5,6.7-6.5,8.7c0,1,0.7,1.3,1.5,1.3C336.8,1294.4,342.5,1289.2,342.6,1286.7z"/>
	<path d="M256,1278.4c0-0.3,0-2,0-3.7s0.2-3.5,2.1-4.3c2-0.9,3.1,0.6,4.3,1.9c5.2,5.6,11.3,10.3,18,13.9c1.7,0.9,3.6,2.6,5.6,1.2
		s1.8-3.9,1.4-6c-0.4-2.4-1.6-4.7-2.1-7.1s-1-5.3,2.8-5.6c3.3-0.2,3.8,2.1,3.6,4.7c-0.3,5.5,2.1,10.7,1.9,16.2
		c-0.2,6.8-2.2,8.1-8.4,5.6c-5.2-2.1-9.9-5.1-14.7-8c-4.8-2.9-6.2-2.4-6.7,3.2c0,0.2,0,0.3,0,0.5c-0.6,2.6-0.2,6.3-4.1,6.2
		c-3.7-0.2-2.3-3.7-2.7-6c-0.3-1.9-0.4-3.7-0.5-5.6C256.3,1283.5,256.2,1281.7,256,1278.4z"/>
	<path d="M149.8,1262.4c1.1,0.1,2.2,0.1,3.3,0.2c2.3,0.2,3.4,1.4,3.2,3.7c-0.2,2.5-2,2.5-3.7,2.2c-2.5-0.4-4.9-0.6-7.2,0.9
		c-2.3,1.5-2.9,3.2-1.5,5.5c1.5,2.5,3,0.8,4.7,0.2c2-0.7,4.6-4.4,6.1-0.6c1.4,3.4-2.8,2.8-4.7,3.5c-5.3,1.9-7.4,5.2-6.4,10.8
		c0.3,1.7,0.7,3.3,1.1,5c0.5,2,1.2,4,3.5,4.5c2,0.4,2.9-1.4,4.1-2.6s2.4-3.6,4.4-1.6c1.7,1.7-0.2,3-1.3,4.3c-2.5,2.9-5,5.9-9.4,4.2
		c-4.2-1.6-5.4-5.2-5.9-9.3c-0.6-4.3,0.7-9.3-4.6-11.8c-1.1-0.5-0.6-1.5-0.2-2.4c1.4-3.3,2.7-6.6,4-9.9
		C141.3,1264.6,144.5,1261.8,149.8,1262.4z"/>
	<path d="M99.6,1288.6c0-7.3,0-14.6,0-21.9c0-1.6-0.5-3.8,2.2-3.7c2.4,0.1,2.4,2.1,2.4,3.8c-0.2,7.5-0.7,15-0.8,22.4
		c-0.1,7.4,1.3,8.4,8.2,5.9c3.6-1.3,7.5-2.2,10.6-4.7c1.4-1.1,2.9-0.9,4.2,0.4s2.1,2.3,1.8,4.1c-0.4,1.9-1.9,2.5-3.4,2.5
		c-4.2,0-7.8,1.9-11.6,3.2c-10.6,3.9-14.1,1.5-14.1-9.7v-2.3L99.6,1288.6z"/>
	<path d="M241,1293.4c0.3,1.7-0.8,3.4-2.5,3.7c-0.2,0-0.4,0.1-0.7,0.1c-2.5,0.1-4.2-1.3-4-4c0.4-6.8-0.2-13.7-1.9-20.3
		c-0.5-2.1-0.1-4.1,2.7-4.4c2.6-0.2,3.6,1.3,3.8,3.6C239.3,1278.9,240.1,1285.9,241,1293.4z"/>
</g>
<g>
	<path d="M581.3,408.7c0.3-2.5,0.4-6.2,1.1-9.8c0.8-4.7,3.7-5.9,7.8-3.5c3.5,2,6.6,4.6,9.2,7.7c3.1,3.7,5.1,3.8,8.3,0.2
		c2.6-2.9,5-5.9,7.6-8.8c2.4-2.6,4.5-2.2,5.3,1.2c1.8,6.9,3.2,13.9,7,20.1c1.4,2.3,0.6,4.7-2.2,5.6c-2.8,0.9-4.2-0.5-4.7-3
		c-0.8-3.8-1.5-7.6-2.3-11.4c-0.3-1.6-0.5-3.6-2.6-3.9c-1.9-0.3-2.7,1.3-3.5,2.6c-1.8,2.9-3.9,5.6-6.4,8c-2.9,2.9-4.7,2.7-6.1-1.2
		c-1.2-3.3-3.6-4.9-6.2-6.5c-1.2-0.8-2.4-1.6-3.9-0.6c-1.4,0.8-2,2.5-1.4,4.1c0.9,3.5,0.3,7.3-1.7,10.3c-0.6,0.9-1.2,2.5-2.7,2.2
		c-1.5-0.3-2.2-1.6-2.6-3C580.5,415.9,581.5,412.9,581.3,408.7z"/>
	<path d="M215,421c-4.2-0.1-8.3-1.2-12-3.4c-3.9-2.1-7.5-2.5-9.6,2.4c-0.6,1.4-1.7,2.3-3.3,1.9c-1.6-0.3-2.7-1.8-2.4-3.4
		c0,0,0-0.1,0-0.1c1.5-6.2,0-12-1.9-17.8c-0.5-1.5-0.4-2.9,1-3.7c1.5-0.8,2.6,0,3.4,1.3c1.5,2.4,3.1,2.4,4.7,0.1
		c1.9-2.8,5.1-3.4,7.8-4.8c2.2-1,4.6-1.5,6.5,0.6c2,1.9,2.6,4.8,1.5,7.3c-0.9,2.4-2.7,4.1-4.7,5.6c-3.2,2.6-3.1,4.1,0.4,6.3
		c3.8,2.5,8.7,3,12.9,1.3c1.5-0.6,3.1-2.4,4.1,0.3c0.9,1.9,0.1,4.1-1.8,5c-0.1,0-0.2,0.1-0.2,0.1C219.4,421.1,217.2,421,215,421z"/>
	<path d="M167,418.9c-3.7-0.2-6.4-1.4-9.2-2.5c-4-1.5-7.4-1.6-8.9,3.3c-0.4,1.4-1.1,2.2-2.6,2c-1.3-0.1-2.3-1.2-2.4-2.5
		c-0.5-7-3.5-13.2-6-19.5c-0.6-1.5-1.2-3.2,0.9-3.9s2.8,0.8,3.3,2.4c0.9,2.4,0.4,6.3,3.4,6.5c3.2,0.3,3.2-4,5-6
		c0.9-1.2,1.9-2.4,3-3.5c3.4-2.9,8.4-3,11.2-0.5c2.4,2.1,2.1,7.7-0.3,11.8c-0.9,1.6-4.3,2.7-1.8,5.3c2,2.1,5,2.8,7.7,1.8
		c1.4-0.6,2.8-1.3,4.1-2.1c1.9-1.1,3.6-1.3,4.6,1.1c1,2.3-0.4,3.7-2.3,4.2C173.3,417.8,169.8,418.4,167,418.9z M155.3,405.3
		c3.4,0,5.8-1.9,5.7-4.3c0.1-1.3-0.9-2.4-2.2-2.5c-0.2,0-0.3,0-0.5,0c-2.4,0-5.9,3.2-5.7,5.3C152.8,405.8,154.4,405,155.3,405.3z"/>
	<path d="M558.5,421.1c-3.2-0.8-4.7-3.4-6.1-6.2c-1-2.1-1-5.3-4.4-5.1c-3.4,0-6.4,1.9-8,4.8c-1.1,1.9-1.8,4-2.8,5.9
		c-0.9,1.7-2.3,3-4.5,1.8c-1.9-1.1-1.7-2.6-1.1-4.4c1.8-5.1,2.9-10.4,6.6-14.7c1.5-1.7,2-4.2,2.3-6.5c0.3-2.2,1.3-3.9,3.6-4.3
		s3.7,0.9,4.8,2.8c2.7,4.9,6,8.8,12.5,7.4c0.9-0.3,1.9,0.1,2.2,1c0,0,0,0.1,0,0.1c0.4,1.1-0.2,2.3-1.3,2.7c0,0,0,0,0,0
		c-0.8,0.4-1.8,0.6-2.6,1c-1.1,0.5-2.5,0.8-2.6,2.3c0,1.4,1.2,2.1,2.2,2.8c0.6,0.4,1.3,0.8,2,1.1c2,0.9,2.9,2.4,2.2,4.5
		C562.8,420,560.9,420.8,558.5,421.1z"/>
	<path d="M362.1,398.3c-0.2,4.9,1.6,6.6,7,5.6c4.9-0.9,9.6-2.7,12-7.7c1.1-2.4,2.4-2.4,4.1-0.3c2.6,3.1,4,7,4.2,11.1
		c0,3.4,0.4,6.8,1.2,10.1c0.5,1.8,0.5,3.9-2,4.5c-2.2,0.5-3.9-0.5-4.9-2.6c-1-2.1-0.6-4.6-0.8-6.9c-0.3-5.9-2.7-7.4-8.2-5.3
		c-1.6,0.7-3.2,1.2-4.9,1.5c-6.2,0.7-7,1.8-6,8.1c0.2,1.4,0.5,2.7,0.7,4.1c0.3,1.8-0.4,3.1-2.3,3.3c-1.8,0.2-3.1-0.7-3.3-2.5
		c-0.5-6.5-4.7-12.8-1.5-19.6c0.9-1.9,0.2-4-0.4-5.9c-0.7-2.1-1.2-4.2,1.8-4.7c3-0.4,3,2,3.2,4C362.2,395.9,362.1,396.9,362.1,398.3
		z"/>
	<path d="M442.5,414.9c-1.1-6.3-2.1-12.5-3.2-18.8c-0.4-2.2-0.9-4.2,2-4.7c3-0.4,3.5,1.7,3.7,4.1c0.5,5.9,2,7.3,7.9,6.9
		c4-0.2,8.1-0.6,12.1-1c2.7-0.3,5-1.1,3.7-4.7c-0.7-1.9-0.7-3.9,2-4.3c2.3-0.4,3.6,0.9,4,3c0.8,4.1,1.3,8.3,2.2,12.4
		c0.7,3.3,1.7,6.6,2.9,9.8c1,2.7,0.6,4.7-2.2,5.4s-4.6-0.7-4.9-3.5c-0.3-2.6-0.1-5.3-0.2-7.9c-0.3-6.2-2.8-8.1-8.7-6.7
		c-4.2,1.1-8.4,2-12.7,2.7c-4.4,0.6-5.1,2.4-3.3,6.5c0.5,0.8,0.9,1.6,1.2,2.5c0.5,2.1,0.5,4.3-2.3,4.7c-2.4,0.3-4.3-0.7-4.5-3.5
		c0-0.9,0-1.9,0.1-2.8L442.5,414.9z"/>
	<path d="M99,407.4l3.7-3.3c3-2.6,2.7-5-0.6-7.1c-1.4-0.9-3.5-1.5-2.8-3.7c0.7-2.3,2.9-2,4.7-1.9c6.2,0.1,12.5,0.5,17.9-3.4
		c0.8-0.8,2.1-0.7,2.9,0.1c0.1,0.1,0.2,0.3,0.3,0.4c0.8,1.2,0.3,2.4-0.8,3.3c-2.6,2.3-5.8,3.6-9.3,3.9c-1.5,0.1-3.1,0.4-4.6,0.8
		c-2.3,0.7-2.3,2.7-2,4.7c0.4,2.2,2,2.6,3.9,2.1c1.6-0.4,3.3-0.9,4.9-1.5c2-0.6,3.8-0.9,4.4,1.7c0.5,2.3-0.9,3.4-3,3.9
		c-1.4,0.3-2.8,0.3-4.1,0.6c-2.4,0.6-4.7,1.8-4.7,4.5c0,3.5,1,6.9,4.2,8.9c2.5,1.6,4.8,0.3,6.7-1.4c1-1,1.9-2.1,2.7-3.2
		c0.7-0.9,1.4-1.8,2.7-1.2c1.3,0.6,1.3,1.9,0.9,3.2c-1.6,5.4-6.1,9.1-10.7,8.6c-5.3-0.6-9.2-4.9-9.8-10.8
		C106,409.6,105.8,409.4,99,407.4z"/>
	<path d="M507.8,412.7c0-4.5-0.1-9,0-13.5c0.1-3.5-1.4-5.3-5.1-4.8c-2.9,0.4-5.8,0.9-8.7,1.3c-1.9,0.2-3.9,0.1-4.2-2.5
		c-0.3-2.5,0.8-3.9,3.1-4.4c7.6-1.4,15.5-1.6,22.7-5c1-0.5,2.3-0.1,2.9,0.9c0.8,1.3,0.1,2.3-0.5,3.4c-3.8,6.7-6.2,13.9-6.2,21.7
		c0,5.1,1,10.2,2.7,15c0.6,1.8,1.4,3.6-0.5,5.1c-1.2,1-3,1.3-4.4,0.6c-1.9-0.8-1.9-2.7-1.9-4.4C507.8,421.8,507.8,417.3,507.8,412.7
		L507.8,412.7z"/>
	<path d="M264,414.5c-3.7-1.5-8.6-0.4-13.4-1.1c-3.5-0.5-5.9,0.7-5.5,4.7c0.1,1.9-0.2,3.6-2.3,3.9c-2.4,0.3-3.1-1.5-3.6-3.5
		c-1.1-5-2-10-3.3-15c-0.6-2.4-1.9-4.6-2.9-6.9c-0.6-1.4-0.7-2.8,0.9-3.6c1.2-0.7,2.7-0.3,3.4,0.9c0.1,0.1,0.1,0.2,0.1,0.3
		c0.8,1.5,1.4,3.1,2,4.7c1.5,3.9,2.5,4.2,5.5,1.3c2.2-2.2,4.4-4.4,6.6-6.5c0.9-0.9,2.3-1.4,3.3-0.3c1,1.1,0.6,2.4-0.4,3.3
		c-1.5,1.5-3.1,3-4.8,4.4c-1.3,1-2.6,1.8-2,3.7c0.6,1.9,2.1,2.2,3.7,2.2c4.5,0.1,8.8,1.8,13.4,1.5c2.1-0.1,3.1,1.3,3,3.3
		C267.9,413.8,267,414.9,264,414.5z"/>
	<path d="M653.5,419.5c-7.2-0.1-10.5-3.5-10.5-9.7c0-7.1,4.7-12.1,13-14.1c6.5-1.5,11,0.6,13.8,6.3c1.3,2.7,1.7,5.3-0.2,7.9
		C665.8,415.2,659.9,418.7,653.5,419.5z M654.3,412.7c2.4,0.1,4.8-0.3,6.9-1.3c3.3-1.7,4.9-5.8,3.3-8.6c-1.7-3.1-5.4-3.8-8.8-1.5
		c-1.6,1.2-3.1,2.5-4.5,4c-1.5,1.5-2.2,3.5-1.2,5.5C651.1,412.8,653,412.7,654.3,412.7L654.3,412.7z"/>
	<path d="M428.6,405.9c-0.3,2-0.8,4-1.3,5.9c-1.6,4.7-6.2,8.7-10.1,8.6c-4.8-0.1-6.8-3.8-8.7-7.5c-2.3-4.7-2.6-9.9-3.1-15
		c-0.1-1.2-0.1-2.6,1.6-2.9c1.6-0.2,2.1,0.9,2.5,2.2c1.2,3.9,2.5,7.7,3.7,11.5c0.8,2.4,1.8,4.9,5,4.7c3.2-0.2,4.3-2.7,5.2-5.3
		c1-3-0.2-5.8-1.1-8.6c-0.6-1.9-1.6-4.3,1.3-5c2.6-0.7,2.9,1.9,3.3,3.6C427.6,400.6,428.6,403.1,428.6,405.9z"/>
	<path d="M284.4,392.6c1.8,0.4,2.5,1.5,2.8,3.2c1,7.3,1.4,14.8,4.9,21.6c0.9,1.7,0.1,3.4-1.7,4.2c-2.1,0.9-3.6,0.3-4.7-1.6
		c-1.2-2.5-1.9-5.2-2.2-8c-0.7-5.2-1.1-10.5-1.5-15.7C281.8,394.6,282,392.9,284.4,392.6z"/>
</g>
<g>
	<path d="M415.1,1649.5c-6.5-0.3-12-2.9-16.8-7.2c-1.4-1.2-2.6-3.2-4.7-2.5c-2.2,0.7-1.6,3.1-1.9,4.8c-0.3,2-0.5,4.4-3.3,4.2
		c-2.8-0.1-2.9-2.3-3-4.4c-0.4-7.2-2-14.2-4.7-20.8c-0.6-1.3-0.9-2.6-0.9-4c-0.1-1.3,0.7-2.5,2-2.8c1.4-0.4,2.4,0.4,3,1.6
		c0.1,0.3,0.3,0.6,0.4,0.8c1,2.1-0.3,5.6,2.9,6.3c2.8,0.6,3.4-2.8,5.2-4.1c5.5-4.3,12-4.9,18.5-5.1c2.2,0,2.8,1.6,3,3.4
		c0.7,6.8-2.5,11.7-9.1,14c-1.4,0.5-3.4,0.5-3.6,2.4s1.6,2.5,2.9,3.3c4.3,2.9,8.8,5.4,14.3,3.2c1.2-0.5,2.6-0.7,3.3,0.8
		c0.8,1.6,0.4,3.6-1.1,4.7C419.5,1649.5,417.3,1649.5,415.1,1649.5z M399.9,1629.4c1.9-0.9,4.8-2.1,7.5-3.6c1.3-0.7,1.8-2.4,1.1-3.7
		c-0.7-1.7-2.1-2.2-3.8-1.7c-2.9,0.7-5.5,2.1-7.8,3.9c-1.2,0.8-1.7,2.4-1,3.7C396.4,1629.3,397.6,1629.4,399.9,1629.4z"/>
	<path d="M477,1647.5c1-8.8,1.4-17.8-1.2-26.6c-0.7-2.3,0.9-4.2,1.6-6.2c0.3-1.3,1.5-2.1,2.8-2c1.4,0.1,1.9,1.3,2.3,2.6
		c1.8,6,5.2,11.4,9.8,15.6c3.9,3.6,6.3,3.5,9.9-0.4c3-3.4,5-7.6,5.7-12.1c0.4-2.3,1.1-4.8,4.3-4.5c3.2,0.3,2.7,2.9,2.8,5
		c0.4,6.4,0.8,12.7,1.2,19.1c0.2,2.7,0.5,5.3,3.1,6.9c1.9,1.2,1.5,2.8,0.7,4.5c-0.7,2-2.8,3.1-4.8,2.8c-2.3-0.2-2.4-1.9-2.9-3.6
		c-1.2-5.1-0.6-10.2-0.8-15.3c0-1.5,0.4-3.4-1.5-4c-1.9-0.6-2.4,1.5-3.2,2.7c-0.7,1-1.3,2.2-2,3.1c-5.1,6.8-10,7.3-16.4,1.7
		c-0.6-0.5-1.1-1.1-1.7-1.6c-0.9-0.8-1.8-2.1-3.1-1.6c-1.6,0.5-0.9,2.1-0.9,3.3c-0.1,3.7,0,7.5-0.1,11.2c-0.1,2.2,0.5,5.3-3,5.1
		C476,1653,477.2,1649.9,477,1647.5z"/>
	<path d="M601.1,1631.9c0,5.3,0,9.5,0,13.7c0,2-0.4,3.8-2.3,4.7c-2,1-4.5,0.5-6-1.2c-2.7-2.8-5.2-5.8-7.7-8.7
		c-3.8-4.4-5.4-4.1-7.6,1.5c-0.6,1.8-1.3,3.5-2.1,5.2c-1.1,2.4-3.8,3.6-6.2,2.8c-3-0.7-3.3-3-3.2-5.4c0.1-7.2-1.6-14.2-4-20.9
		c-0.7-1.9-1.9-4.1,0.7-5.3c3-1.4,3.1,1.6,3.8,3.3c1.9,4.3,3,8.9,3.3,13.5c0.1,1.6,0.2,3.4,2,3.8c2,0.4,2.5-1.6,3-2.9
		c0.7-1.7,0.9-3.6,1.5-5.4c0.5-1.8,0.9-3.4,3.1-3.6c1.8-0.2,3.5,0.6,4.4,2.1c2.1,3.3,4.1,6.6,6.1,9.9c1.1,1.7,2,3.9,4.6,3.1
		c2.4-0.8,2.6-2.9,2.3-5c-0.7-5.4-0.3-10.9-2.5-16.1c-1.1-2.6-0.2-5.2,2.9-5.8c3.4-0.6,3.1,2.3,3.3,4.3
		C600.6,1624,600.9,1628.5,601.1,1631.9z"/>
	<path d="M803,1640.7c1.6-5.1,1-10.8,0.2-16.5c-0.3-1.9,0.1-3.7,2.1-4.7c2.2-1.1,4-0.4,5.4,1.2c3.4,3.8,6.7,7.8,10,11.7
		c3,3.4,4.7,3.3,7.3-0.4c2.6-4,4.9-8.3,6.8-12.7c0.9-1.9,1.9-3.7,4.4-3.3c2.2,0.4,2.7,2.2,3.1,4.1c0.9,5,1.9,10.1,2.7,15.1
		c0.5,3.3,1,6.4,3.5,8.9c1.2,1,1.6,2.8,0.8,4.3c-0.8,1.5-2.2,1.6-3.6,1.6c-1.9-0.1-3.3-1-3.6-3c-0.6-4.1-1.1-8.3-1.7-12.5
		c-0.2-1.7-0.5-3.4-0.7-5.1c-0.2-1.1-0.7-2.1-2-2.3c-1.3-0.2-1.7,0.9-2.2,1.9c-2,3.5-4.1,6.9-6.4,10.3c-1.9,2.8-4.5,3.3-7.1,1
		c-2.7-2.3-5.3-4.8-7.8-7.3c-0.8-0.8-1.6-1.6-2.8-1.2c-1.5,0.5-1.6,1.7-1.6,3c-0.1,2.5,0.1,5-0.6,7.4c-0.6,2-1.3,4-4,3.5
		C802.7,1645.2,803,1643.1,803,1640.7z"/>
	<path d="M282.6,1650.1c-2-0.3-5.3-0.8-8.4-1.5c-3.3-0.7-4.5-3.1-4.6-6.1c-0.2-6.2-0.6-12.3-2.4-18.4c-1.2-4.1,0.9-7,5.2-7.7
		c8.8-1.4,17.4-0.5,25.1,4.2c3.4,2.1,5.8,5,5.8,9.4C303.4,1638.6,292.3,1650,282.6,1650.1z M274.3,1630.7h-0.1c0.2,2,0.3,4,0.5,6
		c0.4,3.7,2.4,6.4,6,7.6c3.5,1.3,7.4,0.3,9.8-2.6c2-2,3.8-4.1,5.4-6.4c3.4-5.1,1.5-10.1-4.5-11.3c-4.4-0.8-8.9-1.3-13.4-1.4
		c-2.8-0.2-4.3,1.4-4.1,4.4C274,1628.2,274.2,1629.4,274.3,1630.7z"/>
	<path d="M362.7,1651.6c-8.7-0.2-13.5-3.9-15.6-12.1c-0.2-1.2-0.6-2.4-1.2-3.5c-2.8-3.8-4.7-7.3,1.3-10c1.4-0.7,1-2.5,0.8-3.9
		c-0.5-3.4,1-4.8,4.3-5.2c5.1-0.7,10.1-1.7,15.2-2.6c2.1-0.4,3.7,0,4.3,2.4c0.6,2.6-1.3,3.2-3.2,3.7c-3.9,0.9-7.9,1.8-11.8,2.7
		c-1.9,0.5-3.7,1.3-3.2,3.7s2.4,2.4,4.4,1.9c2-0.5,4-0.7,4.6,1.8c0.7,2.8-1.8,3.2-3.7,3.8c-0.6,0.2-1.2,0.3-1.9,0.2
		c-1.6,0-3.7-0.9-4.5,1.2c-0.7,2.2,0.3,4,1.6,5.6c3.4,4.1,8.6,4.8,13.3,1.7c1.4-0.9,2.8-3.1,4.7-0.8c1.5,1.9,0.8,3.9-0.7,5.5
		C369.1,1650.4,366.2,1651.9,362.7,1651.6z"/>
	<path d="M788.3,1632.3c-0.5,1.1-1,2.1-1.7,3.1c-2.3,3-2.2,4.8,2.2,4.7c2.4-0.1,4.6,0.2,4,3.5c-0.5,2.7-2.1,4-5,3.5
		c-3.1-0.4-5.8-2.5-7.1-5.4c-1.1-2.5-2.5-4.5-5.6-3.7c-3.6,0.8-8.2-0.2-9.5,5c-0.5,1.6-1,3.3-1.6,4.8c-0.4,1.4-1.9,2.2-3.3,1.9
		c-1.4-0.2-2.4-1.5-2.2-2.9c0-0.1,0-0.1,0-0.2c0.2-2.8,0.7-5.5,1.5-8.2c2.3-6.7,5-13.4,7.6-20c1.3-3.3,3.3-2.2,4.9-0.4
		c2.2,2.6,4,5.5,5.4,8.7C779.8,1630.8,782.1,1634.3,788.3,1632.3z"/>
	<path d="M260.9,1637.5c0.1,0.6,0.1,1.2,0,1.9c-0.5,2.2-0.1,5.1-2.5,6.2c-2.6,1.1-4.2-1.5-5.7-3c-3.8-4-8.4-7.1-13.5-9
		c-5.1-1.8-6.3-0.8-5.5,4.4c0.3,2.1,0.7,4.3-0.4,6.4c-0.7,1.3-1.4,2.6-3.1,2.2c-1.5-0.2-2.5-1.5-2.5-3c0-6.7-0.5-13.4-1.5-20
		c-0.3-1.7,0.9-2.9,2.4-3.7c1.4-0.9,3.2-0.6,4.3,0.6c5,5.3,11.6,8.3,17.2,12.7c1.1,0.8,2.1,2.2,3.7,1.1c1.5-1.1,1.7-2.5,1.2-4.2
		c-0.6-2.3-1-4.5-1.5-6.8c-0.3-1.7-0.3-3.2,1.9-3.6c2.2-0.4,3.4,0.4,3.7,2.5c0.7,5.1,1.4,10.1,2.1,15.2L260.9,1637.5z"/>
	<path d="M99,1637.4c-0.1-15,9.8-25.1,21.5-24.1c1.7,0.2,3.4,0.6,4.9,1.2c2.5,0.9,3,3,2.1,5.4c-0.9,2.5-2.7,2-4.6,1.2
		c-3.4-1.6-7.3-1.8-10.9-0.5c-7,2.6-10,9.9-7.6,18.3c1.9,6.3,9.5,9.8,17.3,7.8c5.7-1.4,9.1-5.1,10.4-10.8c0.3-1.1,0.4-2.1,0.6-3.2
		c0.3-1.5,0.9-2.8,2.7-2.5c2.1,0.3,2.4,1.9,2.1,3.5c-1.5,7.3-4.6,13.6-11.8,16.8c-7,3.2-13.8,2.8-20.3-1.7
		C100.5,1645.4,98.9,1640.6,99,1637.4z"/>
	<path d="M174.1,1639c-0.1-3.1-0.3-6.2-0.4-9.3c-0.2-3.1-1.9-4.1-4.7-3.5c-5,0.9-10.1,2-15.1,3c-3.3,0.7-4.8,2.6-4.3,6
		s1.2,7.1,1.6,10.6c0.2,1.4,0.1,3-1.8,3.2c-1.7,0.2-2.4-1-2.6-2.6c-1.2-8.6-2-17.3-2.4-26c0-1.2,0.2-2.5,0.6-3.6
		c0.4-1,1.2-2,2.4-1.7c1,0.2,1.2,1.2,1.3,2.2c1,7.5,1.1,7.4,8.6,6.1c2.3-0.4,4.7-0.5,7-0.6c3.9-0.3,7.8-0.1,9-5.3
		c0.6-2.5,2.9-2.2,4.1,0c1.9,3.4,3,7.1,2,11.2c-1.4,5.9-2.4,11.9-0.1,17.9c0.8,2-0.1,3.9-2.3,4.3s-2.9-1.4-3-3.3
		c-0.1-2.8,0-5.6,0-8.4L174.1,1639z"/>
	<path d="M189.6,1648.8c-2.4-0.1-3.1-1.8-2.2-3.5c4.4-8.4,5.9-18.1,10.7-26.3c2.2-3.8,3.7-3.9,6.7-0.7c3.1,3.2,4.7,7.3,5.8,11.5
		c1.3,4.8,2.5,9.7,6,13.5c1.1,1.3,1.7,2.6,0.7,4.2c-0.8,1.5-2.6,2.4-4.3,2.2c-1.8-0.1-2.8-1.3-3.2-2.9c-0.9-3.3-1.6-6.6-2.6-9.9
		c-0.6-1.9-0.9-4.2-3.4-4.7c-2.6-0.5-4,1.7-5.1,3.4c-2,3.1-3.6,6.5-5.5,9.7C192.5,1646.9,191.6,1648.4,189.6,1648.8z"/>
	<path d="M881.4,1653c-4.6,0.2-9-0.4-13-3c-0.7-0.5-1.9-0.8-1.4-2s1.6-0.8,2.5-0.7c1.4,0.2,2.7,0.7,4.1,0.9c1.4,0.2,3.3,0.8,4-1.1
		c0.8-2.1-1.2-2.6-2.5-3.3c-6.1-3-10.6-8.4-12.5-15c-1.4-4.6-0.7-8.1,3.7-10.8c3.6-2.2,7-4.8,11.3-5.1c2.1-0.2,4.8-0.4,5.2,2.6
		s-2.3,2.6-4.2,3c-4.5,0.8-9.9,0.7-11.6,6.2c-1.6,5.2,2.4,8.7,5.6,12.1c4.2,4.5,9.7,7.5,15.7,8.6c2.3,0.5,4.2,1.2,4.1,4.1
		s-2.4,2.8-4.4,3L881.4,1653z"/>
	<path d="M650.8,1629.1c0.2-2.9,0.5-5.9,0.7-8.8c0.1-1.9,0.8-3.5,2.9-3.5c2.7,0.1,2.1,2.2,2,3.8c-0.3,3.7-0.9,7.4-0.9,11.1
		c-0.1,9.7,6.7,14.3,15.9,10.7c3.1-1.2,5.7-3.2,7.6-5.9c1.1-1.5,2.5-2.5,4.3-1.1c1.8,1.5,1.5,3.2,0.2,5c-4.1,6-17.7,10.3-24.5,7.8
		c-6.2-2.2-7.2-7.6-8-13.1c-0.2-2-0.2-4,0-6H650.8z"/>
	<path d="M314.3,1626.2c0-2.2-0.1-4.3,0-6.5c0.2-2.4,1.2-4.4,3.9-4.2c2.7,0.3,2.9,2.6,2.6,4.7c-0.7,5.1-1.1,10.1,0.2,15.2
		c1.9,7.8,4.4,9.4,12.1,7.6c2.2-0.5,4.1-0.7,4.8,1.9c0.7,2.6-1,3.5-3.2,4c-13.7,3.6-17.5,1.1-19.9-13
		C314.5,1632.7,314.3,1629.4,314.3,1626.2z"/>
	<path d="M698.9,1649.1c-4.5,0.1-7.6-2.2-8.9-6.8c-2.3-7.9-0.8-15.7,0.1-23.6c0.1-1.1,1-2,2.2-1.9c0,0,0.1,0,0.1,0
		c1.2-0.1,2.2,0.8,2.3,2c0,0.1,0,0.2,0,0.4c0,1.3-0.1,2.5-0.2,3.7c-0.3,2.5-0.9,4.9-0.9,7.4c0,4.5-0.4,9.6,4.1,12.2
		c4.2,2.5,8.1-0.4,11.7-2.5c1.8-1,3.4-2.4,5.5-1c1.2,0.8,1.8,2.3,1.4,3.7c-0.4,2-2.1,3.5-4.1,3.8
		C707.7,1647.4,703.6,1649.1,698.9,1649.1z"/>
	<path d="M626.5,1637.2c0.1-5-0.4-9.9-1.6-14.8c-0.5-2.2-0.8-4.6,2.3-5c3.1-0.4,3,2,3.3,4c0.9,7.7,1.7,15.4,2.5,23.2
		c0.2,1.7,0.4,3.6-2.1,3.8c-2.4,0.2-4-0.9-4.2-3.3C626.4,1642.5,626.5,1639.9,626.5,1637.2z"/>
	<path d="M729.8,1622c0-1.7,0.4-3.3,2.6-3.6c2.2-0.3,2.7,1.2,2.9,2.8c0.4,3.2,0.8,6.4,1.1,9.7c0.4,3.8,0.3,7.8,3.2,10.9
		c1.1,1.2,1.1,2.4,0.2,3.7c-1,1.7-2.6,2.1-4.4,1.9c-1.8-0.2-2.4-1.3-2.6-2.8c-0.5-4.9-0.9-9.8-1.6-14.8
		C730.9,1627.3,730.3,1624.7,729.8,1622z"/>
	<path d="M541.9,1642.6c-4.9-0.2-9.8-4.8-10-9.1c-0.2-4.3,4.9-9.9,9.1-10.3c2-0.2,3.4,0.6,3.7,2.6c0.4,2.5-1.4,3.2-3.3,3.7
		c-2.1,0.5-3.9,1.2-4,3.7c0,2.8,2,3.5,4.2,4.1c0.3,0.1,0.6,0.2,0.9,0.3c1.5,0.5,3.2,0.9,2.7,3
		C544.9,1642.5,543.2,1642.5,541.9,1642.6z"/>
</g>
<g>
	<path d="M834.9,1111c0.3,5.4-0.3,9.3-2.7,12.7c-5.4,7.6-16,8.2-24.3,1.2c-6.1-5.1-10.9-10.7-7.1-19.7c1.3-3.1-0.5-6.4-1.6-9.5
		c-0.6-1.8-1.3-3.5-1-5.4c0.3-1.9,1.1-3.1,3.1-2.2c3.1,1.4,5.7,0.4,8.4-1.1c1.7-0.8,3.5-1.3,5.4-1.4c5.1-0.5,6.8,0.7,6.5,5.8
		c-0.3,5.5,1.3,8.3,7.1,9.1C833.6,1101.1,834.9,1104.2,834.9,1111z M822.1,1106.5c-4-0.2-8.8,1.9-13.6,4.3c-3.3,1.6-3.9,5.4-1.6,8.3
		c5.9,7.5,18.8,5.8,22.6-2.8C831.7,1111.1,828.9,1106.5,822.1,1106.5L822.1,1106.5z M810.6,1101.2c2.8-0.4,4.7-1.9,4.9-4.7
		c0.2-2.2-1.3-3.2-3.2-3c-2.5,0.3-4.4,1.6-4.6,4.4C807.4,1100.1,808.5,1101.1,810.6,1101.2z"/>
	<path d="M369.9,1099.2c-3.6-0.2-7.1,0.3-10.6,1.2c-1.6,0.4-3,1.4-2.6,3.3c0.4,1.9,1.9,2.6,3.9,2.3c1.5-0.3,3.1-0.6,4.6-0.8
		c1.5-0.2,3.1-1.3,4.3,0.3c1.2,1.6,1,3.6,0.2,5.3c-0.4,0.8-0.9,1.6-1.4,2.4c-0.9,1.3-1.4,2.5,0,3.7c1.1,1,2.7,1.1,3.9,0.2
		c1.6-0.9,3-2.3,3.9-3.9c0.9-1.5,2.8-1.9,4.3-1c0.9,0.5,1.4,1.5,1.5,2.5c0.5,4.7,1.2,9.2,3.5,13.4c1.1,2,0.1,4-1.5,5.4
		c-1,1.1-2.6,1.3-3.9,0.6c-1.9-0.8-3.1-2.7-3.1-4.8c-0.1-7.3-0.2-7.3-7.5-6.3c-6.7,0.9-8.7-0.6-9.4-7.3c-0.3-2.9-1.4-5-4.5-5.7
		c-3.1-0.7-5.4-2.4-5.6-5.9c-0.3-3.7,2.2-5.2,5.1-6.3c3.7-1.5,7.5-2.9,11.3-4.2c3.8-1.3,6.1-3.7,4.7-8.1c-0.5-1.6-0.7-3.1,0.7-4.3
		c0.9-0.7,2.1-0.8,3.1-0.3c2,0.9,1,2.7,1.1,4.1c0,2.3,0.1,4.6,0.4,6.9C377.5,1098.8,376.8,1099.7,369.9,1099.2z"/>
	<path d="M627.5,1116.6c0,3.4-1.1,6.2-4.8,6.3s-3.7-2.8-3.8-5.6c-0.3-11.3,0-12-11-9.8c-3.2,0.6-6.4,0.9-9.6,1.4
		c-3.5,0.6-4.9,2.6-3,6c1.9,3.4,0.8,5.4-2.4,6.5c-3.5,1.2-4.9-1.1-5.5-3.9c-1.3-6.5-2.4-13.1-3.4-19.7c-0.4-2.2,0.3-4.1,2.9-4.5
		c2.5-0.4,3.9,0.9,4.1,3.3c0.5,4.8,3.5,6.2,7.8,5.9c3.9-0.3,7.7-0.7,11.6-1c3.5-0.3,5.9-1.8,5.9-5.7c-0.2-1.7,1.1-3.2,2.8-3.3
		c0.1,0,0.2,0,0.4,0c2-0.2,3.7,1.2,4,3.2C624.9,1102.6,626.2,1109.6,627.5,1116.6z"/>
	<path d="M135.5,1123.9c-0.1,1.6-0.2,3.3-2.6,3.5c-2.3,0.2-3-1.4-3.2-3.2c-0.3-3.9-0.3-7.8-0.6-11.6c-0.5-7.3-2.6-8.7-9.6-6.4
		c-0.6,0.2-1.2,0.4-1.7,0.7c-9.9,3.7-11,3.5-8.4,14.2c0.2,1.4,0.2,2.8,0,4.2c-0.2,1.6-1.5,2.3-3,2.4c-1.3,0.1-2.5-0.7-2.8-2
		c-0.6-1.8-0.8-3.7-0.7-5.5c0-3.6,0.3-7.2-3.2-9.7c-1.2-0.9-1.1-2.6,0.2-3.7c3-2.6,2.4-5.8,1.8-9c-0.5-2.1-0.8-4.3-0.9-6.4
		c-0.1-2.1,0.9-3.6,3.3-3.6c2.2-0.1,3.1,1.3,3.3,3.2c0.2,2.5,0.2,5,0.2,7.5c0,2.9,1.3,4.5,4.4,3.8c3.6-0.8,7.3-1.7,10.9-2.6
		c1.7-0.4,3-1.9,3.3-3.6c0.4-2.1,0.8-4.2,3.6-3.8c2.5,0.4,2.8,2.6,3,4.7c0.4,4.2,0.8,8.4,0.9,12.6
		C133.9,1114.3,134.5,1119.1,135.5,1123.9z"/>
	<path d="M476.8,1119.4c0.1,1.9-0.4,3.2-2.3,3.7s-3.4,0-4.3-1.8c-0.2-0.4-0.4-0.9-0.5-1.3c-2.8-9.4-3.4-9.7-12.6-6.2
		c-4.9,1.9-9.3,4.4-11,9.9c-0.6,1.8-1.9,2.5-3.6,1.9c-1.6-0.4-2.5-1.9-2.2-3.5c0-0.2,0.1-0.4,0.2-0.6c3.8-9.8,7.8-19.6,12.6-29
		c1.4-2.8,4.5-3.6,6.6-1.2c7.1,8.1,13.8,16.4,17,27C476.8,1118.5,476.8,1118.9,476.8,1119.4z M457.6,1107.9c1.6-0.1,3.3-0.8,3.1-2.9
		c-0.1-1.9-1.5-3-3.5-3c-2.1,0-3,1.4-2.9,3.3C454.4,1107.3,455.6,1107.9,457.6,1107.9L457.6,1107.9z"/>
	<path d="M635,1119.8c0.6-3.8,1.7-7.5,3.4-10.9c2.2-4.5,4.8-8.7,6.1-13.5c0.4-2.2,2.3-3.8,4.6-3.9c2.5-0.2,4.6,0.5,6,2.7
		c1.9,3.1,3,6.5,4.1,9.9c1.6,4.9,3.4,9.6,7.7,13c2.5,2,1.6,4.2-0.4,5.9c-2,1.7-3.9,1.3-5.5-0.9c-2.1-2.9-4.5-5.4-5.8-8.9
		c-1.4-3.7-3.7-3.9-6.8-0.9c-2.8,2.8-4.3,6.4-6.4,9.7c-1,1.6-2.4,2.5-4.3,1.9C635.7,1123.1,635.1,1121.4,635,1119.8z"/>
	<path d="M176.9,1116.7c-0.1-4.8-0.7-9.6-1.9-14.3c-0.4-1.3-0.6-2.7-0.8-4.1c-0.1-1.6-0.8-3.8,1.8-4c2.6-0.2,1.7,2.1,2,3.4
		c0.1,0.5,0.1,0.9,0.2,1.4c0.3,1.7-0.6,4.1,1.9,4.7c2.6,0.6,2.7-2,3.4-3.5c2.6-5.4,11-10.2,17-9.7c3.9,0.3,5.7,4,4.1,8.5
		c-0.9,2.6-3,4.3-5,6.1c-5.1,4.4-4.7,6.4,1.6,9c2.9,1.2,5.9,2.1,8.7,3.3c2.6,1.1,4.5,2.9,2.9,5.8c-1.6,2.9-3.8,0.9-5.7-0.1
		c-5.1-2.7-10.2-5.3-15.2-8.1c-5.4-3.1-5.6-5.9-0.7-10c1.7-1.4,3.4-2.7,5.2-4c1.5-1.1,2.7-2.4,1.8-4.3c-1.1-2.2-3.2-1.6-4.9-0.9
		c-5.4,2.2-9,6.1-9.9,12c-0.5,3.7-0.6,7.5-0.9,11.1c-0.2,2.2,0.3,5.3-3,5.3c-3.6,0-2.5-3.1-2.7-5.3
		C176.8,1118.3,176.9,1117.5,176.9,1116.7z"/>
	<path d="M784,1120.3c0.1,1.2-0.6,2.3-1.7,2.8c-1.3,0.7-2.8,0.5-3.9-0.4c-2.7-2-3.5-5-4.8-7.8c-1.2-2.6-1.8-6.1-5.6-6
		c-4.4,0.1-8.7,0.7-11.1,5.3c-0.9,1.7-1.9,3.2-3.1,4.7c-0.8,1-2.1,1.5-3.4,1c-1.3-0.4-1.3-1.6-1.4-2.7c0-0.3,0.1-0.7,0-0.9
		c-2.7-5.4-2.2-9.1,4.5-11.3c3.7-1.3,4.4-6.1,6.3-9.5c2.6-4.9,3.6-4.4,7.7-0.7c6.8,6.1,12,13.8,15.1,22.4
		C783.3,1118.2,783.7,1119.4,784,1120.3z"/>
	<path d="M711.7,1128.1c-3.6-0.3-7.1-0.4-10.6-1.5c-2.1-0.7-4.6-1.3-3.6-4.3c1-3,3.3-1.6,5-0.9c2,0.9,4.2,1.3,6.4,1.2
		c1.8-0.1,3.7-0.3,4.1-2.3s-1.6-2.3-3-2.9c-7-3.5-10.8-9.5-10.3-16.3c0.5-5.8,8.2-13.5,14-13.8c1.6-0.2,3.1,1,3.4,2.6
		c0.5,1.7,0.1,3.1-1.8,3.7c-0.3,0.1-0.6,0.2-0.9,0.3c-4.3,0.8-8.5,1.7-9.4,6.8c-0.9,4.9,2.7,7.7,5.8,10.5c3.3,3.2,7.5,5.1,12.1,5.4
		c2.1,0.1,4.1,0.5,4.4,3.2c0.3,2.7-0.3,4.9-3,6.2C720.3,1127.7,716,1128.4,711.7,1128.1z"/>
	<path d="M278.6,1122c-6.8-0.1-8.9-2.1-9.3-8.8c-0.2-4.5-0.5-9-0.6-13.5c-0.2-4.7,1.9-6.8,6.4-6.2c5.9,0.6,11.7,1.7,17.4,3.3
		c5.8,1.7,7.9,5.6,6.3,11.4C296.6,1116,287.8,1122.1,278.6,1122z M273,1104.5c0,2.5,0.5,5,1.6,7.2c2.8,6.1,5.7,7,11.2,3.1
		c2-1.4,3.9-3.1,5.6-4.9c3.6-4,2.2-8.8-3-10.2c-2.9-0.6-5.8-1-8.7-1.1C273.9,1098,272.9,1099,273,1104.5L273,1104.5z"/>
	<path d="M565.2,1125.9c-5.8,0.4-9.7-2.1-12.7-6.3c-1.1-1.6-2.3-3.4-0.3-4.9c1.7-1.3,3.2,0,4.4,1.3c0.9,1,2,2,3.1,2.8
		c1.4,0.9,3,1.1,4.1-0.5c1.4-2-0.2-2.8-1.5-3.6c-2.2-1.4-4.6-2.6-6.7-4.3c-3.7-2.8-5.5-7.4-4.7-12c0.7-4.7,4.1-7.1,8.3-8.5
		c1.9-0.7,3.8-0.9,5,1.1c1.4,2.5-0.9,3.1-2.3,4.2c-6.5,4.6-6.6,7-0.5,12.1c2.9,2.6,6.2,4.7,9.7,6.4c2,0.9,4.2,1.4,4.1,4.3
		c-0.1,2.9-1.1,5.1-3.7,6.6C569.6,1125.6,567.4,1126,565.2,1125.9z"/>
	<path d="M224.5,1117.5c1.4-7.5,3.3-15,8.5-21.2c3.1-3.7,4.8-3.3,6.3,1.2c1.9,5.4,3.7,6.5,9.5,5.2c1.7-0.4,3.8-1.3,4.5,0.8
		c0.8,2.4-2,2.3-3.4,2.9c-1.6,0.8-3.9,0.9-4,3.3c-0.1,2.2,2,2.6,3.5,3.2c1.9,0.7,2.9,1.9,2.6,3.9c-0.2,1.6-0.5,3.2-2.2,3.8
		c-1.9,0.7-3.3-0.3-4.4-1.7c-1.9-2.3-3.8-4.5-5.7-6.8c-2.1-2.5-4-2-5.7,0.3c-1.7,2.4-3.2,4.7-4.6,7c-0.9,1.4-1.9,2.6-3.7,2
		C223.8,1120.7,224.4,1119.1,224.5,1117.5z"/>
	<path d="M510.7,1102.5c0.2-1.2-0.6-3-1.6-4.8c-1-1.5-0.9-3.4,0.1-4.8c0.9-1.2,2.5-1.5,3.8-0.8c1.7,0.8,3.5,2.1,3.1,4.2
		c-1.3,7.8-0.6,15.9-3.3,23.5c-0.7,1.9-1.4,3.9-3.9,4c-2.6,0.1-4-1.5-4.9-3.6c-3.1-7.3-6.4-14.5-11.4-20.8c-1.2-1.5-1.5-3.2,0.3-4.5
		c2-1.4,4-0.9,5.2,1.1c2.2,3.6,4.2,7.3,6.2,10.9c0.9,1.5,0.7,4.1,3.4,3.7s2.4-2.9,2.7-4.8C510.6,1104.9,510.6,1104.2,510.7,1102.5z"
		/>
	<path d="M538.8,1119.8c-0.1,2-0.8,3.2-2.7,3.5c-2.2,0.3-3.7-0.4-4-2.7c-0.6-4.1-1.4-8.2-1.8-12.4c-0.3-3.4-0.7-6.7-2.3-9.8
		c-1.1-2.2-1.6-4.7,1.3-5.9c3.3-1.4,4.5,1.1,5.1,3.6c0.7,2.8,1,5.8,1.4,8.7C536.4,1109.9,535.9,1115.3,538.8,1119.8z"/>
	<path d="M157.5,1091.3c1.4,0.3,2.5,1.6,2.4,3c0.1,2.8,0.2,5.6,0.2,8.4c-0.1,5.6,0.5,11.1,2.8,16.3c0.8,1.9,1.4,3.7-1,4.7
		c-2.5,0.9-3.6-0.6-3.9-2.7c-1.5-8.9-2.3-17.8-2.3-26.8C155.4,1092.9,156.3,1091.7,157.5,1091.3z"/>
</g>
<g>
	<path d="M267.4,745.3c0.6,4.4-1.8,6.8-5,8.9c-5.1,3.4-5.1,5.1-0.3,9c3.4,2.8,7.1,4.9,11.8,4.8c1.9,0,4.4-0.6,4.4,2.5
		c0,3.2-1.9,4.6-4.7,4.6c-3.1-0.2-6.1-0.9-9-2.3c-5-2.1-8.4-6.2-12.4-9.6c-1.3-1.1-2.5-2.5-4.5-1.7c-1.9,0.9-1,2.6-1.2,4.1
		c-0.3,2.7,0.9,6.7-3.2,7c-4.5,0.4-3.7-4-4-6.5c-0.8-6.8-0.7-13.7-4.6-19.7c-1.1-1.7,0.2-2.9,1.6-3.9c1.3-0.9,3.1-1.5,4.1,0.2
		c1.9,3.1,4,1.9,6.3,0.9c4.8-2.2,10-3.5,15.3-3.7C266.4,739.8,268.5,741,267.4,745.3z M256.8,745.7c-2.6,1.1-6.7,0.4-7.3,4.8
		c-0.3,1.1,0.4,2.2,1.5,2.5c0.3,0.1,0.7,0.1,1,0c3.1-0.5,6.2-1.4,7-5C259.3,746.6,258.8,745.5,256.8,745.7L256.8,745.7z"/>
	<path d="M192.3,767.4c0.9-6.5,2.3-13.6,0.7-20.8c-0.5-2.5,1.5-3.9,3.7-4.7s3.5,0.4,4.5,2.2c2.8,5,5.6,10.1,10,14
		c1.6,1.4,3.4,2.6,5.4,3.6c1.7,1,3.8,0.7,5.1-0.7c1.7-1.6,1.3-3.3,0.5-5.1c-1.2-2.8-3.3-4.8-5.4-7c-1.7-1.9-2.7-4.1-0.4-6.1
		c2.4-2,4.3-0.5,5.8,1.6c2.6,3.9,5.4,7.6,6.2,12.4c0.9,5.3-0.9,9.5-4.9,11.6c-4.8,2.5-9.2,1.8-13.1-2.3c-2.1-2.2-4.1-4.7-6.2-7
		c-0.8-0.9-1.5-2.1-3-1.8c-1.7,0.4-1.9,2-2,3.3c-0.2,2.5-0.1,5-0.3,7.5c-0.1,2.3-0.2,5.1-3.4,5.1C192,773.4,192.3,770.4,192.3,767.4
		z"/>
	<path d="M101.9,770.7c0.9-4.7,1.6-9-2.6-12.3c-0.3-0.4-0.4-0.8-0.2-1.3c2.6-5,1.8-10.3,1.9-15.6c-0.1-1.1,0.8-2.1,1.9-2.1
		c0,0,0.1,0,0.1,0c1.5-0.3,2.1,0.6,2.6,2c3.5,10.4,3.5,10.3,14.5,8.1c4.8-0.9,9.2-1.7,7.8-8.2c-0.3-1.3,0.6-2.1,1.9-2.3
		c1.4-0.2,2.3,0.6,3,1.8c2.1,4,2.5,8.3,2.8,12.6c0.4,5.9-0.7,12.1,3.7,17.3c1.4,1.6,0.3,3.5-1.6,4.7c-2.1,1.3-3.6,0.2-4.7-1.4
		c-2.5-3.8-2.3-8.3-2.8-12.6c-0.2-1.9,0-3.7-0.8-5.5c-0.9-2.1-2.3-3.3-4.7-2.6c-4.5,1.2-9,2.3-13.4,3.7c-4.7,1.5-5.5,3.5-3.9,8.1
		c0.7,1.6,1.2,3.2,1.4,4.9c0.2,2.5,0.3,5.5-3.4,5.4C102,775.4,102.2,772.6,101.9,770.7z"/>
	<path d="M150.5,756.1c0-0.3,0-0.6,0-0.9c1.4-13.8,0.7-11,11.4-13.7c4.5-1.1,9-2.2,13.6-3.1c1.9-0.4,4.2-1.5,5,1.5
		c0.8,3-1.2,3.7-3.6,4.2c-5.3,1.2-10.5,2.6-15.8,4.1c-2.2,0.6-5,1.3-3.8,4.5c1.2,3.1,3.8,1.8,6,1.1c1.2-0.4,2.2-1.2,3.3-1.6
		c1.5-0.6,3.3-2,4.3,0.4c1,2.4-0.3,3.7-2.6,4.5c-2.5,0.8-4.9,1.9-7.4,2.8c-2.2,0.7-3.6,2.8-3.5,5c0,2.4,1.4,4.6,3.5,5.7
		c2.3,1.3,4.1,0.2,5.7-1.5c0.9-1,1.9-2.3,3.4-0.9c1.2,1.2,0.9,2.6-0.1,3.7c-2.4,2.9-5,5.7-9.2,5.5c-3.7-0.2-5.5-3-7-6
		C151.6,766.6,150.9,761.3,150.5,756.1z"/>
	<path d="M513.6,776c-2.5,0-5,0.1-7.4-0.9c-1.5-0.6-2.8-1.6-2.1-3.6c0.6-1.8,2-1.6,3.5-1.1c0.4,0.2,0.9,0.3,1.3,0.3
		c2.8-0.2,6.4,1.8,7.9-1.8c1.5-3.6-2.5-4-4.3-5.5c-4.8-3.7-7.1-9.8-6-15.7c0.7-5.2,7.5-9.7,12.7-8.5c2.7,0.6,2.5,2.3,1.5,4.3
		c-0.2,0.4-0.6,0.7-1,0.9c-2.8,1.6-7.2,2-6.6,6.6c0.7,5.2,3.9,9,8.4,11.6c2.8,1.6,5.9,1.9,8.9,2.5c1.9,0.4,4.4,0,4.1,3.1
		c-0.3,2.8-0.6,5.9-4.3,6.3C524.7,775.1,519.2,776.2,513.6,776z"/>
	<path d="M493.2,767c-0.3,1.4-0.6,3.1-2,3.9c-1.6,0.9-3.5,0.6-4.8-0.7c-1.9-1.6-3.5-3.5-5.2-5.3c-2.8-2.9-5.6-3-8.5-0.1
		c-1,0.9-1.9,2-2.9,3c-3.6,3.5-7.6,2.4-9.2-2.4c-0.4-1.3-0.4-2.6,0.9-3.2c5.3-2.7,6.1-7.9,7.3-12.8c0.7-2.9,1.4-5.5,5-5.8
		c3.5-0.3,4.3,2.4,5.3,4.9c2.2,5.4,5.9,10,10.6,13.3C491.5,763,493.1,764.5,493.2,767z"/>
	<path d="M422.4,756.8c0-10.5,5.6-17.4,14.8-18.2c1.8-0.2,3.4-0.1,4.8,1.2c1.3,1.3,2.3,2.7,1.4,4.6c-0.7,1.7-2.2,2-3.9,1.9
		c-8.2,0-11.2,2.3-11.6,9.1c-0.4,6.7,5.1,13.5,11.5,14.3c5,0.6,10-0.6,14.2-3.4c1-0.6,2.4-1.8,3.3-0.7c1.3,1.4-0.6,2.5-1.3,3.4
		c-5.1,6-15.4,9.2-21.5,6.8C427.1,773.2,422.4,765.5,422.4,756.8z"/>
	<path d="M344.3,745.2c0.2,6.4,1.9,12.8,3.4,19.1c0.9,4,4.3,5.2,8.1,4.4c5.2-1,10.2-2.9,14.7-5.7c1.6-1,3.4-2.3,4.7,0.1
		c1.1,2,0,3.5-1.9,4.5c-4.7,2.4-9.2,5.2-14.1,7.1c-9.3,3.7-15,0.6-17.5-9.1c-1.9-7.4-1.5-15.1-4.5-22.3c-1.1-2.7,1.4-4.2,4-4.5
		c2.8-0.3,3.3,1.7,3.3,3.9C344.5,743.6,344.4,744.3,344.3,745.2z"/>
	<path d="M400,756.4c0-3-1.3-5.8-3.6-7.6c-2-1.8-1.5-3.6,0.4-5c2-1.5,3.6-1.7,5.2,0.5c4.3,6.1,4.9,15.9,1,22.1
		c-2.2,3.6-5.1,6.3-9.7,6.1c-4.7-0.3-7.5-2.9-9.2-6.9c-2-4.9-3.7-9.9-3.2-15.3c0.2-1.8,0.5-3.5,2.7-3.7c2.6-0.3,2.4,2,2.7,3.5
		c0.7,2.9,1.2,5.8,1.7,8.7c0.6,3.8,2.3,6.5,6.6,6.2C398.5,764.6,400.3,761.8,400,756.4z"/>
	<path d="M298.5,765.3c-0.2,2.4-0.9,3.5-2.4,3.9c-1.5,0.4-3,0-3.6-1.5c-2.2-6.3-4.3-12.6-6.3-19c-0.3-1.2,0.5-2.5,1.7-2.8
		c0,0,0.1,0,0.1,0c1.1-0.3,2.5-0.3,2.9,0.8C293.8,753,294.9,760,298.5,765.3z"/>
</g>
<g>
	<path d="M392.2,241.7c2.2-7.1,0.9-14.4-0.7-21.7c-0.4-2-0.4-4.2,2-5.2s3.7,0.4,5.2,2c3.4,3.6,6.8,7.2,10.4,10.7
		c3.9,3.7,6.5,3.6,9.6-0.7c2.4-3.3,6.1-5.9,6.8-10.4c0.2-1.5,1.6-2.2,3.2-2c2.1,0.2,2.8,1.7,3,3.5c0.6,5.9,1.3,11.7,1.8,17.6
		c0.2,2.9,0.7,5.5,2.9,7.6c1.7,1.5,1.6,3.3,0.5,5c-0.8,1.2-1.8,2.2-3.4,2.1c-2.2-0.1-2.5-1.9-3-3.6c-1.4-5.1-1.4-10.4-1.6-15.7
		c-0.1-2,0.5-4.5-1.9-5.2c-3-0.9-3.2,2.3-4.4,3.8c-0.2,0.3-0.3,0.5-0.4,0.8c-4.1,7.6-8.2,11.1-14.6,2.5c-0.9-0.9-1.8-1.7-2.9-2.3
		c-1.6-1.2-3.3-2-5.2-0.8c-1.9,1.2-1.2,2.9-0.9,4.6c0.5,2.9,0.9,5.9-0.1,8.8c-0.6,1.9-0.8,4.4-3.6,4.1
		C391.7,246.8,392.5,244.1,392.2,241.7z"/>
	<path d="M599,245.9c-3.8,0.8-7.2-0.9-10.3-3.9c-3.7-3.6-5.3-3.1-6.4,1.9c-0.4,1.9-0.1,4.5-3,4.3c-3.2-0.2-2.7-3-2.6-5
		c0.2-6.7-0.6-13.4-2.4-19.9c-0.5-2.1-1-4.4,1.7-4.9c2.9-0.5,2.2,2.2,2.6,3.9c0.4,2.1-0.2,5.5,2,5.7c2.7,0.3,2.7-3.2,3.5-5.2
		c1.3-3.2,3.1-5.7,6.9-6.1c5.6-0.6,9.5,1.3,10.6,5.3c1.4,5.2-1,10.6-5.8,13c-1.4,0.6-3.9,0.3-3.4,2.9c0.4,2.2,2.4,2.6,4.2,3.1
		c2,0.4,4.1,0.2,6-0.5c1.8-0.5,4-1.1,4.3,1.7c0.3,2.6-1.3,3.6-3.7,3.7C602.1,245.9,600.9,245.9,599,245.9z M596.6,225.6
		c0.1-2.6-0.5-4.8-3.7-4.6c-2.4,0.2-5.2,0.5-5.3,3.9c0,3.6,2.6,4.7,5.5,5C596.1,230.2,596.5,227.8,596.6,225.6z"/>
	<path d="M223.7,226c1.6-1.9,2.9-3.7,4.4-5.2c4.3-4.6,11.2-5.6,16.7-2.5c2.7,1.4,3.5,3.5,2.3,6.2c-1.8,4.1-4.2,7.7-8.7,9.1
		c-1.1,0.3-2.1,0.7-2.2,2c0,1.1,0.7,2.1,1.8,2.5c3.3,1.6,6.7,2.5,10.3,0.6c1.6-0.8,3.3-1.5,4.4,0.6c1.1,2.1-0.5,3.4-2.2,4.5
		c-4.6,2.8-13.8,1.3-18.8-2.9c-1.6-1.3-2.7-4-5.3-3.1c-2.6,0.9-1.5,3.7-1.9,5.7c-0.3,1.9,0.3,4.5-2.6,4.7c-2.9,0.2-2.9-2.4-3-4.3
		c-0.3-2.8-0.3-5.6-0.1-8.4c0.3-4.2,0.2-8.4-1.4-12.4c-0.6-1.4-1.1-2.8,0.7-3.5c1.9-0.7,3.4-0.2,4.1,1.8
		C222.8,222.7,223.2,224.2,223.7,226z M232.3,230.7c5.1,0.1,9.8-3.8,9.7-7.3c-0.2-3.5-3.2-3.4-5.5-3.6c-3.8-0.3-7.2,2.6-7.5,6.4
		c0,0,0,0.1,0,0.1C228.8,229.3,230.3,230.7,232.3,230.7z"/>
	<path d="M332.1,232.3c-0.2-3.1-0.9-6.1-1.9-9c-0.7-2-0.8-4.2,1.8-5c2.9-0.8,3.2,1.4,3.6,3.5c0.9,5,2.2,10,2.9,15.1
		c0.7,4.5-1.1,6.2-5.6,5.2c-6.9-1.5-14.1-2-20.2-6.5c-2.5-1.9-4-0.3-4.4,2.4c-0.3,2-0.5,4-0.9,6c-0.2,1.5-1.6,2.6-3.1,2.5
		c-0.1,0-0.2,0-0.3-0.1c-1.7-0.2-2.3-1.5-2.4-3c-0.3-5.2-0.8-10.5-0.9-15.7c-0.2-2.8,1.7-5.3,4.4-5.8c2.6-0.8,4,1.1,5.1,3.1
		c3.9,7.1,10.9,9.3,17.9,11.5C331.9,237.4,332,234.5,332.1,232.3z"/>
	<path d="M662.9,236.1c0.6-5.6-1.5-10.6-0.6-15.8c0.3-1.8,0.2-4,3-3.8c2.6,0.1,2.3,2,2.3,3.7c0,2.2,1.4,2.9,3.3,3
		c3.6,0.2,7.1,0.4,10.7,0.7c3.3,0.2,5.5-0.9,6-4.4c0.2-1.5,0.5-2.8,2.4-2.9c1.9,0,2.2,1.3,2.6,2.7c0.9,3.6,1,7.4,0.3,11.1
		c-0.6,4-0.9,7.7,2.3,10.9c1.5,1.5,0.9,3.2-0.2,4.7s-2.4,2.4-4.4,2c-1.9-0.5-2.4-2-2.5-3.6c-0.2-3.9-0.2-7.8-0.2-11.7
		c0.1-4.1-1.9-5.6-5.9-4.9c-3.9,0.7-7.7,1.1-11.5,2c-4.3,0.9-5.3,3.4-3,7.1c0.5,0.6,1,1.2,1.6,1.7c1.3,1.3,2.2,2.7,1.1,4.6
		c-0.5,1.2-1.8,1.9-3,1.7c-2-0.2-3.7-1.1-4.1-3.2C662.9,239.8,662.8,237.9,662.9,236.1z"/>
	<path d="M727,247.5c0-3,0.1-5.9,0-8.9c-0.2-4.7-2.2-8.6-6.4-10.7c-8.3-4.1-9.8-12.8-14-19.7c-0.9-1.5,0-3,1.9-3.5
		c2.3-0.6,3.7,0.6,4.2,2.6c1.6,5.5,4.4,10.7,8.2,15c1.4,1.7,2.6,3.7,5.2,3.1c2.4-0.6,2.6-2.8,3-4.8c0.7-3.5,1.5-7,2.4-10.5
		c0.4-1.8,0-4.9,3-4.2s1.6,3.5,1.2,5.5c-1.2,5.6-2.6,11.2-3.6,16.9c-1.4,8.5-1.8,17,0.4,25.5c0.2,0.9,0.4,1.8,0.5,2.8
		c0.2,1.9-0.3,3.4-2.6,3.6c-2.3,0.2-3.5-0.8-3.5-3.2c0-3.1,0-6.2,0-9.3L727,247.5z"/>
	<path d="M289.3,223.8c-5.5,3.2-10.3,5.2-15.8,5.3c-3.5,0.1-4.6,1.9-4.2,5.1c0.8,7,2.6,8.8,9.8,9c1.3,0.1,2.6-0.3,3,1.4
		c0.3,1.3-0.2,2.6-1.2,3.3c-2.3,1.9-4.9,2.9-7.8,1.9c-3.5-1.1-6.1-4.2-6.5-7.8c-0.5-4-1.5-7.9-2.9-11.7c-2.7-7.3,1.9-14,9.4-14.7
		c4.8-0.4,9.6-0.8,14.4-1.1c1.6-0.1,3.3,0.1,3.2,2.3c-0.2,2.1-1.9,2.4-3.4,2.1c-4.9-0.9-9.5,0.9-14.3,1.4c-1.6,0.2-3.3,0.7-3,2.8
		c0.2,2.1,2.1,1.8,3.6,1.9c2.7,0.2,5.2-0.7,7.8-1.3C283.9,223,286.7,223,289.3,223.8z"/>
	<path d="M559.7,229.7c0,1.3-0.9,1.9-1.9,2.4c-3.7,2-2.8,3.8,0.3,5.5c0.7,0.3,1.3,0.8,1.9,1.4c1.6,2.2,1.4,4.6-0.6,6.2
		c-2,1.7-3.9,0.6-5.3-1.1c-0.7-0.9-1.2-1.8-1.5-2.9c-1-2.8-1.6-5.9-5.6-5.8s-7.2,1.7-9,5.5c-0.4,1.2-1,2.3-1.6,3.3
		c-0.9,1.4-2.6,1.8-4,0.9c0,0-0.1-0.1-0.1-0.1c-1.6-0.9-1.3-2.2-0.7-3.6c2.8-6.7,5.6-13.4,8.4-20.2c0.6-1.5,1.5-2.8,3.3-2.9
		s2.8,1.1,3.4,2.6c2.1,4.9,4.8,8.8,11.2,7c0.7-0.2,1.5,0.2,1.7,0.9C559.7,229.3,559.7,229.5,559.7,229.7z"/>
	<path d="M655,213.9c0.1,1-0.4,1.9-1.3,2.2c-0.7,0.3-1.5,0.5-2.2,0.6c-11.4,1.9-10.4,3.8-10.4,14.2c0,2.6,0.2,5.3,0.1,7.9
		c0,2.4,0.2,4.7,2.1,6.4c1.7,1.6,1.8,3.1,0.5,4.9c-1,1.3-1.6,3.2-3.8,2.8s-2.7-2.3-2.8-4.2c-0.3-7.3-0.6-14.6-0.9-21.9
		c-0.1-1.7-0.3-3.4-0.6-5.1c-0.7-3-2.6-4.1-5.5-2.9c-2.4,1.1-5.1,1.6-7.7,1.4c-1.5,0-2.7-1.1-2.8-2.6c-0.2-1.9,1.2-2.5,2.6-2.7
		c10-1.1,20.1-2.2,30.1-3.3C653.8,211.5,654.9,212.1,655,213.9z"/>
	<path d="M134.4,239.6c1.7-5.7,3.6-12.6,5.9-19.4c1.4-3.9,4.9-4.3,8.2-1.2c2.2,2.1,3.6,5.1,7.1,5.6c1.5,0.2,1.1,1.9,0.9,3.1
		c-1,5.5,0.1,10.2,5.2,13.3c1.5,0.9,2.3,2.1,1.8,3.9c-0.4,1.2-1.4,2.2-2.6,2.5c-1.8,0.6-3.1-0.4-3.9-1.8c-1.7-3.1-3.2-6.4-4.7-9.6
		c-0.9-1.9-0.9-4.5-4-4.4c-2.7-0.1-5.2,1.5-6.3,4c-1.1,2.2-1.9,4.6-2.9,6.8c-0.4,1.3-1.8,2.1-3.2,1.7c-0.1,0-0.1,0-0.2-0.1
		C134,243.6,133.7,242.3,134.4,239.6z"/>
	<path d="M201.9,228.4c1.9,8.6-8.7,17.9-16.9,18.1c-3.9,0.1-7-1.3-8.7-5.1c-2-4.7-3.7-9.6-5-14.5c-0.5-2-0.4-3.9,2.1-4.4
		c2.5-0.5,2.6,1.5,3.1,3.1c1.3,4.1,1.9,8.5,4.2,12.3c2.2,3.6,5,4.5,8.6,2c1.4-0.9,2.8-1.9,4.2-3c4.7-4.1,5.1-7.1,2.1-13
		c-0.7-1.4-1.6-2.8-0.5-4.4c0.8-1.2,2.3-1.8,3.7-1.3c1.9,0.4,2.2,2,2.4,3.6c0.1,0.9,0.3,1.9,0.4,2.8
		C201.8,225.8,201.8,227.1,201.9,228.4z"/>
	<path d="M485.7,230.5c0-11.6,9.7-18.7,18.7-13.7c1.6,0.9,2.6,1.9,1.9,3.7c-0.6,1.6-2,0.9-3.2,0.6c-7.8-1.9-11.3-0.5-13.2,5.1
		c-2.3,6.6,0.4,14,6.2,16.8c6.5,3.3,13.8,1.9,19.7-3.6c1.1-1,2-3,3.7-1.6c1.9,1.5,0.3,3.1-0.6,4.4c-4.1,6.1-14.1,8.7-22.4,6
		C489.9,246.2,485.8,239.4,485.7,230.5z"/>
	<path d="M100,213c3.1,2,3.6,4.1,3.1,6.8c-1.1,7-0.4,14,0.4,20.9c0.6,4.3,2.7,5.6,6.9,4c3.6-1.4,7.2-2.7,10.5-4.9
		c3.5-2.4,7-0.4,7.1,3.7c0.1,1.8-0.4,3-2.5,3.1c-4.9,0.2-9.3,2.4-13.8,4c-7.8,2.7-11,0.7-12-7.5C98.6,233,98.7,222.9,100,213z"/>
	<path d="M462.4,239.6c-4.3,0.1-6.8-2-7.8-5.7c-1-3.7,1.1-6.2,3.8-8.2c1.1-0.8,2.2-1.1,3.4,0c1.1,1.1,0.7,2.2,0.3,3.4
		c-2.4,6-2.4,6,3.9,5.1c1.4-0.2,2.9-0.7,3.3,1.4c0.3,1.6-0.6,2.6-2.1,3.1c-0.7,0.2-1.5,0.4-2.3,0.5
		C463.9,239.4,462.9,239.5,462.4,239.6z"/>
</g>
<g>
	<path d="M121.5,1828.1c-4.6,0.2-9-0.4-13-3c-0.7-0.5-1.9-0.8-1.4-2c0.5-1.2,1.6-0.8,2.5-0.7c1.4,0.2,2.7,0.7,4.1,0.9s3.3,0.8,4-1.1
		c0.8-2.1-1.2-2.6-2.5-3.3c-6.1-3-10.6-8.4-12.5-15c-1.4-4.6-0.7-8.1,3.7-10.8c3.6-2.2,7-4.8,11.3-5.1c2.1-0.2,4.8-0.4,5.2,2.6
		c0.4,3-2.3,2.6-4.2,3c-4.5,0.8-9.9,0.7-11.6,6.2c-1.6,5.2,2.4,8.7,5.6,12.1c4.2,4.5,9.7,7.5,15.7,8.6c2.3,0.5,4.2,1.2,4.1,4.1
		c-0.2,2.9-2.4,2.8-4.4,3L121.5,1828.1z"/>
	<path d="M181.9,1819.7c0.1,1.9-0.4,3.2-2.3,3.7s-3.4,0-4.3-1.8c-0.2-0.4-0.4-0.9-0.5-1.3c-2.8-9.4-3.4-9.7-12.6-6.2
		c-4.9,1.9-9.3,4.4-11,9.9c-0.6,1.8-1.9,2.5-3.6,1.9c-1.6-0.4-2.5-1.9-2.2-3.5c0-0.2,0.1-0.4,0.2-0.6c3.8-9.8,7.8-19.6,12.6-29
		c1.4-2.8,4.5-3.6,6.6-1.2c7.1,8.1,13.8,16.4,17,27C181.8,1818.8,181.8,1819.2,181.9,1819.7z M162.6,1808.2c1.6-0.1,3.3-0.8,3.1-2.9
		c-0.1-1.9-1.5-3-3.5-3c-2.1,0-3,1.4-2.9,3.3C159.4,1807.6,160.7,1808.2,162.6,1808.2L162.6,1808.2z"/>
	<path d="M194.7,1815.7c1.6-5.1,1-10.8,0.2-16.5c-0.3-1.9,0.1-3.7,2.1-4.7c2.2-1.1,4-0.4,5.4,1.2c3.4,3.8,6.7,7.8,10,11.7
		c3,3.4,4.7,3.3,7.3-0.4c2.6-4,4.9-8.3,6.8-12.7c0.9-1.9,1.9-3.7,4.4-3.3c2.2,0.4,2.7,2.2,3.1,4.1c0.9,5,1.9,10.1,2.7,15.1
		c0.5,3.3,1,6.4,3.5,8.9c1.2,1,1.6,2.8,0.8,4.3c-0.8,1.5-2.2,1.6-3.6,1.6c-1.9-0.1-3.3-1-3.6-3c-0.6-4.1-1.1-8.3-1.7-12.5
		c-0.2-1.7-0.5-3.4-0.7-5.1c-0.2-1.1-0.7-2.1-2-2.3c-1.3-0.2-1.7,0.9-2.2,1.9c-2,3.5-4.1,6.9-6.4,10.3c-1.9,2.8-4.5,3.3-7.1,1
		c-2.7-2.3-5.3-4.8-7.8-7.3c-0.8-0.8-1.6-1.6-2.8-1.2c-1.5,0.5-1.6,1.7-1.6,3c-0.1,2.5,0.1,5-0.6,7.4c-0.6,2-1.3,4-4,3.5
		C194.4,1820.3,194.7,1818.2,194.7,1815.7z"/>
	<path d="M279.9,1819.7c0.1,1.9-0.4,3.2-2.3,3.7s-3.4,0-4.3-1.8c-0.2-0.4-0.4-0.9-0.5-1.3c-2.8-9.4-3.4-9.7-12.6-6.2
		c-4.9,1.9-9.3,4.4-11,9.9c-0.6,1.8-1.9,2.5-3.6,1.9c-1.6-0.4-2.5-1.9-2.2-3.5c0-0.2,0.1-0.4,0.2-0.6c3.8-9.8,7.8-19.6,12.6-29
		c1.4-2.8,4.5-3.6,6.6-1.2c7.1,8.1,13.8,16.4,17,27C279.9,1818.8,279.9,1819.2,279.9,1819.7z M260.7,1808.2c1.6-0.1,3.3-0.8,3.1-2.9
		c-0.1-1.9-1.5-3-3.5-3c-2.1,0-3,1.4-2.9,3.3C257.5,1807.6,258.8,1808.2,260.7,1808.2L260.7,1808.2z"/>
	<path d="M322.6,1814.1c-0.1-3.1-0.3-6.2-0.4-9.3c-0.2-3.1-1.9-4.1-4.7-3.5c-5,0.9-10.1,2-15.1,3c-3.3,0.7-4.8,2.6-4.3,6
		c0.6,3.4,1.2,7.1,1.6,10.6c0.2,1.4,0.1,3-1.8,3.2c-1.7,0.2-2.4-1-2.6-2.6c-1.2-8.6-2-17.3-2.4-26c0-1.2,0.2-2.5,0.6-3.6
		c0.4-1,1.2-2,2.4-1.7c1,0.2,1.2,1.2,1.3,2.2c1,7.5,1.1,7.4,8.6,6.1c2.3-0.4,4.7-0.5,7-0.6c3.9-0.3,7.8-0.1,9-5.3
		c0.6-2.5,2.9-2.2,4.1,0c1.9,3.4,3,7.1,2,11.2c-1.4,5.9-2.4,11.9-0.1,17.9c0.8,2-0.1,3.9-2.3,4.3c-2.2,0.4-2.9-1.4-3-3.3
		c-0.1-2.8,0-5.6,0-8.4L322.6,1814.1z"/>
	<path d="M400.3,1828.1c-4.6,0.2-9-0.4-13-3c-0.7-0.5-1.9-0.8-1.4-2c0.5-1.2,1.6-0.8,2.5-0.7c1.4,0.2,2.7,0.7,4.1,0.9
		c1.4,0.2,3.3,0.8,4-1.1c0.8-2.1-1.2-2.6-2.5-3.3c-6.1-3-10.6-8.4-12.5-15c-1.4-4.6-0.7-8.1,3.7-10.8c3.6-2.2,7-4.8,11.3-5.1
		c2.1-0.2,4.8-0.4,5.2,2.6c0.4,3-2.3,2.6-4.2,3c-4.5,0.8-9.9,0.7-11.6,6.2c-1.6,5.2,2.4,8.7,5.6,12.1c4.2,4.5,9.7,7.5,15.7,8.6
		c2.3,0.5,4.2,1.2,4.1,4.1c-0.2,2.9-2.4,2.8-4.4,3L400.3,1828.1z"/>
	<path d="M455.9,1819.7c0.1,1.9-0.4,3.2-2.3,3.7s-3.4,0-4.3-1.8c-0.2-0.4-0.4-0.9-0.5-1.3c-2.8-9.4-3.4-9.7-12.6-6.2
		c-4.9,1.9-9.3,4.4-11,9.9c-0.6,1.8-1.9,2.5-3.6,1.9c-1.6-0.4-2.5-1.9-2.2-3.5c0-0.2,0.1-0.4,0.2-0.6c3.8-9.8,7.8-19.6,12.6-29
		c1.4-2.8,4.5-3.6,6.6-1.2c7.1,8.1,13.8,16.4,17,27C455.8,1818.8,455.9,1819.2,455.9,1819.7z M436.7,1808.2c1.6-0.1,3.3-0.8,3.1-2.9
		c-0.1-1.9-1.5-3-3.5-3c-2.1,0-3,1.4-2.9,3.3C433.5,1807.6,434.7,1808.2,436.7,1808.2L436.7,1808.2z"/>
	<path d="M480.7,1797.4c-3.6-0.6-6.5-1.2-6.5,2.4c0,3.6,3.6,3.6,6.5,3.6c3,0,5.3-0.6,8.3-1.8c1.8,0,3.6-0.6,4.1,1.2
		c0.6,1.8-1.2,2.4-3,3c-1.2,0-1.8,0.6-3,0.6c-9.5,2.4-10.1,3.6-9.5,13.6c0,3,1.8,7.7-2.4,8.3c-4.1,0.6-4.7-4.7-4.1-7.7
		c1.2-8.9-3-16.6-4.1-25.5c-0.6-2.4,0.6-4.1,2.4-4.7h0.6c4.1-1.2,7.7-1.8,11.9-2.4c4.1-0.6,7.1,0,7.7,4.7c0.6,4.7-3.6,3.6-5.9,4.1
		C481.9,1797.4,480.7,1797.4,480.7,1797.4z"/>
	<path d="M506,1812.3c0.1-5-0.4-9.9-1.6-14.8c-0.5-2.2-0.8-4.6,2.3-5c3.1-0.4,3,2,3.3,4c0.9,7.7,1.7,15.4,2.5,23.2
		c0.2,1.7,0.4,3.6-2.1,3.8c-2.4,0.2-4-0.9-4.2-3.3C505.8,1817.6,506,1815,506,1812.3z"/>
	<path d="M544.3,1806.8c0-3-1.3-5.8-3.6-7.6c-2-1.8-1.5-3.6,0.4-5c2-1.5,3.6-1.7,5.2,0.5c4.3,6.1,4.9,15.9,1,22.1
		c-2.2,3.6-5.1,6.3-9.7,6.1c-4.7-0.3-7.5-2.9-9.2-6.9c-2-4.9-3.7-9.9-3.2-15.3c0.2-1.8,0.5-3.5,2.7-3.7c2.6-0.3,2.4,2,2.7,3.5
		c0.7,2.9,1.2,5.8,1.7,8.7c0.6,3.8,2.3,6.5,6.6,6.2C542.7,1815,544.5,1812.3,544.3,1806.8z"/>
	<path d="M566.2,1804.2c0.2-2.9,0.5-5.9,0.7-8.8c0.1-1.9,0.8-3.5,2.9-3.5c2.7,0.1,2.1,2.2,2,3.8c-0.3,3.7-0.9,7.4-0.9,11.1
		c-0.1,9.7,6.7,14.3,15.9,10.7c3.1-1.2,5.7-3.2,7.6-5.9c1.1-1.5,2.5-2.5,4.3-1.1c1.8,1.5,1.5,3.2,0.2,5c-4.1,6-17.7,10.3-24.5,7.8
		c-6.2-2.2-7.2-7.6-8-13.1c-0.2-2-0.2-4,0-6H566.2z"/>
	<path d="M614.3,1824.1c-4.5,0.1-7.6-2.2-8.9-6.8c-2.3-7.9-0.8-15.7,0.1-23.6c0.1-1.1,1-2,2.2-1.9c0,0,0.1,0,0.1,0
		c1.2-0.1,2.2,0.8,2.3,2c0,0.1,0,0.2,0,0.4c0,1.3-0.1,2.5-0.2,3.7c-0.3,2.5-0.9,4.9-0.9,7.4c0,4.5-0.4,9.6,4.1,12.2
		c4.2,2.5,8.1-0.4,11.7-2.5c1.8-1,3.4-2.4,5.5-1c1.2,0.8,1.8,2.3,1.4,3.7c-0.4,2-2.1,3.5-4.1,3.8
		C623.1,1822.5,619,1824.2,614.3,1824.1z"/>
	<path d="M675.3,1819.7c0.1,1.9-0.4,3.2-2.3,3.7s-3.4,0-4.3-1.8c-0.2-0.4-0.4-0.9-0.5-1.3c-2.8-9.4-3.4-9.7-12.6-6.2
		c-4.9,1.9-9.3,4.4-11,9.9c-0.6,1.8-1.9,2.5-3.6,1.9c-1.6-0.4-2.5-1.9-2.2-3.5c0-0.2,0.1-0.4,0.2-0.6c3.8-9.8,7.8-19.6,12.6-29
		c1.4-2.8,4.5-3.6,6.6-1.2c7.1,8.1,13.8,16.4,17,27C675.2,1818.8,675.3,1819.2,675.3,1819.7z M656.1,1808.2c1.6-0.1,3.3-0.8,3.1-2.9
		c-0.1-1.9-1.5-3-3.5-3c-2.1,0-3,1.4-2.9,3.3C652.8,1807.6,654.1,1808.2,656.1,1808.2L656.1,1808.2z"/>
	<path d="M717.9,1814.1c-0.1-3.1-0.3-6.2-0.4-9.3c-0.2-3.1-1.9-4.1-4.7-3.5c-5,0.9-10.1,2-15.1,3c-3.3,0.7-4.8,2.6-4.3,6
		s1.2,7.1,1.6,10.6c0.2,1.4,0.1,3-1.8,3.2c-1.7,0.2-2.4-1-2.6-2.6c-1.2-8.6-2-17.3-2.4-26c0-1.2,0.2-2.5,0.6-3.6
		c0.4-1,1.2-2,2.4-1.7c1,0.2,1.2,1.2,1.3,2.2c1,7.5,1.1,7.4,8.6,6.1c2.3-0.4,4.7-0.5,7-0.6c3.9-0.3,7.8-0.1,9-5.3
		c0.6-2.5,2.9-2.2,4.1,0c1.9,3.4,3,7.1,2,11.2c-1.4,5.9-2.4,11.9-0.1,17.9c0.8,2-0.1,3.9-2.3,4.3c-2.2,0.4-2.9-1.4-3-3.3
		c-0.1-2.8,0-5.6,0-8.4L717.9,1814.1z"/>
</g>
</svg>
