<svg xmlns="http://www.w3.org/2000/svg" width="1098.92" height="2753.19" viewBox="0 0 1098.92 2753.19"><title>c10-txt</title><path d="M866.18,1777.63a69.65,69.65,0,0,1,3.57-24.48c.55-1.66,1-3.69,3-3.79,1.9-.08,3,1.66,3.91,3.14,2.36,3.73,2.45,8.15,3.56,12.25,1.87,6.9,3.22,7.86,10.31,6.66,4-.68,8-1.63,12-2.34,7-1.23,9.3-3.88,9-11.11-.11-3.1-.47-6.07,3.67-6.55s7.41.28,8.6,4.92a26.78,26.78,0,0,1,.41,10.43,98.86,98.86,0,0,0,2.58,40.46,28.38,28.38,0,0,1,1.08,5.13c.28,3.36-.47,6.27-4.38,7.11s-5.14-1.73-6.07-4.71c-3-9.47-5.58-19-6.73-28.91-.89-7.61-1.67-8.2-8.37-5.21a20.16,20.16,0,0,1-6.8,1.3c-9,.76-11.94,5-9.7,13.75.73,2.81,1.91,5.54,1.36,8.55-.46,2.48-1.66,4.49-4.12,5.2-2.74.79-4.71-.94-5.58-3.15-2.53-6.4-6.55-11.87-10.18-17.6C865.07,1785,866.52,1780.68,866.18,1777.63Z"/><path d="M456.87,838.79c3.43-3.4,4.11-6.93,5.68-9.95,2.25-4.34,4.58-8.64,9-11.22,6.87-4,13.52-.93,13.63,6.89.14,11.39.78,23.16-8,32.44a5.72,5.72,0,0,0-.91,1.48c-2.35,5,8.5,22.6,14,22.51,3.31-.06,4.92-2.76,6.51-5.23.62-1,1.05-2.37,2.43-2.21,1.74.2,1.73,1.87,2,3.16a14.92,14.92,0,0,1-7.48,15.76c-5,2.57-9.09,1.73-12-2.94-4.9-7.8-12.41-13.4-17.37-21.15-2.08-3.24-3.67-1.78-4.5,1.23-1.39,5.09-1.63,10.34-2,15.57a28.92,28.92,0,0,1-.52,5.2c-.4,1.58-.5,3.82-2.85,3.83s-3.3-2.07-3.53-4a38.08,38.08,0,0,1-.21-8.73c1.79-16.35.4-32.59-1.5-48.82-.39-3.32-1.71-8.49,2.43-9,3.95-.45,2.79,5,3.63,7.91C455.8,833.63,456.17,835.71,456.87,838.79Zm20.49-2.38c-.09-2.23-.22-4.14-1.71-5.2-1.85-1.31-3.28.54-4.55,1.44-4.27,3-5.84,7.56-5.79,12.59,0,3.45,2.08,4.43,5,2.73C475,845.34,476.37,840.75,477.36,836.41Z"/><path d="M976.47,1340.4l21.49-1.25c3-.18,6.35-.3,6.9,3.53s-3.07,4-5.57,4.47c-9.84,2-19.39,5.65-29.77,4.71-4.3-.39-5.81,2.81-4.89,6.68a39.38,39.38,0,0,0,6.71,14.12c2.65,3.62,5.76,3.74,8.8.54,2-2.11,3.69-4.49,5.53-6.74,1.34-1.64,2.88-2.65,5-1.47s2.35,3.21,1.54,5c-2,4.6-4,9.25-7.72,12.92-8.33,8.29-18.32,6.78-22.89-4-5.39-12.73-8.43-26.22-11.61-39.64-2.45-10.34.83-17.74,10.06-22.8,3.24-1.77,6.68-1.91,10.17-2,8.57-.14,17.07-.71,25.41-2.89,3.11-.82,6.41-1.19,7.5,3.08,1.15,4.53-1.37,6.53-5.39,7.2-10.73,1.78-21.46,3.55-32.2,5.21-3,.47-6,.78-6.27,4.66-.21,3.69,1.46,6.28,5,7.68C968.67,1341.2,973.15,1340.39,976.47,1340.4Z"/><path d="M739,1310c0-3.69,0-7.38,0-11.06,0-2.25.3-4.45,2.9-5.07a5.94,5.94,0,0,1,6.3,2,11,11,0,0,1,2.28,8.2,309.16,309.16,0,0,1-3.74,33c-1.2,6.8-5.46,8.7-11.47,5.23-6.26-3.63-11.24-8.93-16.67-13.62-6-5.22-8.75-4.52-11,3.1s-4.47,15.31-9.76,21.58c-2.45,2.92-5.18,5.46-9.39,4.62s-5.36-4.39-6.18-7.74c-2.63-10.73-4.86-21.57-7.43-32.32-1-4.33-2.62-8.53-3.81-12.82-.94-3.38-.4-6.43,3.49-7.39,4.1-1,4.85,2.15,5.45,5.11,2.17,10.65,4.27,21.32,6.47,32,.58,2.82,1,6.21,4.57,6.66,4.2.51,4.82-3.21,5.83-6.06,2.79-7.86,5.22-15.86,8.24-23.63,2.65-6.8,6.08-7.14,11.05-1.66s10,10.86,15,16.32c1.36,1.5,2.72,3,4.94,2.1a4.77,4.77,0,0,0,3.09-4.56c0-4.65,0-9.31,0-14Z"/><path d="M766.78,1764.56c.63,8.14,1.33,16.28,1.87,24.42.68,10.29-3.61,13.26-12.84,9.2-4.26-1.87-8.74-3.23-13.07-5s-7.54-4.69-10.42-8.2a4.75,4.75,0,0,0-5.22-1.8c-2.43.77-2.08,3-2.07,4.88,0,4.06.79,8.19-1.51,12-1.46,2.38-2.9,4.87-6.31,3.93-3.15-.86-3.89-3.41-4.05-6.34-.67-12.23-1.59-24.44-3.29-36.58-.3-2.11-.73-4.22-.93-6.34-.31-3.21-1.69-7,2.24-8.82a10.94,10.94,0,0,1,11.56,1.46c2.28,1.72,3.26,4.3,4.23,6.85,3.22,8.41,7.13,16.43,13.57,22.91a41.89,41.89,0,0,0,6.26,5.16c2.74,1.85,5.8,2.35,8.77.43,2.78-1.8,2.43-4.68,2.12-7.38a96.65,96.65,0,0,1-.27-18.63c.29-3.64,1.46-6.86,5.64-6.77,4.62.11,3.82,4,3.87,7,0,2.52,0,5,0,7.58Z"/><path d="M271.87,1360.58c3.2-3.57,4.51-7.22,5.83-10.86.93-2.55,1.6-5.2,2.57-7.73,4.48-11.64,7.41-12.24,15.66-2.94a164.2,164.2,0,0,0,19.22,18.63c2.28,1.85,4.5,4.22,7.7,2.31,3-1.77,2.51-4.84,2.39-7.82-.37-9.7-.55-19.41-.76-29.12,0-1.73-.23-3.49.82-5.09a4.13,4.13,0,0,1,4.5-1.94,3.28,3.28,0,0,1,3,3.64c.09,14.17.29,28.35.3,42.52a13.13,13.13,0,0,1-3.31,9.12c-3.55,3.87-8.06,4.5-11.76.77-7.26-7.32-16.13-12.79-22.91-20.66-4.3-5-7.85-4.24-10.14,2.07-2.78,7.69-5.65,15.29-10.16,22.17-1.29,2-2.4,4.14-5.33,3.69s-4.27-2.42-4.76-5.14a226.59,226.59,0,0,0-11.5-42,10,10,0,0,1-.64-3.42c-.05-3.33,1.37-5.53,4.89-6.14s5.17,1.47,5.77,4.34c1.47,7,2.6,14.11,4,21.15A36.86,36.86,0,0,0,271.87,1360.58Z"/><path d="M774.74,1344.17c.18-3.22,1.72-6,3-8.77,5.22-10.82,11.2-21.26,14.06-33.16,1.47-6.1,10.55-6.89,15.41-1.59a52.67,52.67,0,0,1,9.91,15.7c2.19,5.34,5.28,9.59,12,9.11a3.88,3.88,0,0,1,4.06,2.72c.93,2.41-1.35,2.86-2.61,3.86-5.25,4.16-5.65,6.84-1.72,12.24,2.39,3.28,5.44,6.14,6.25,10.38.61,3.18,0,5.85-3.11,7.37s-5.19-.35-6.94-2.59c-3-3.77-3.68-8.5-5.26-12.82-3.53-9.63-3.66-9.69-13.62-10-8.82-.25-16.2,1.41-19.93,10.66a5.16,5.16,0,0,1-6.69,3.24C776.49,1349.58,774.6,1347.61,774.74,1344.17Z"/><path d="M678.56,467c-11.58-1.75-23.95-3-35-9.54-6.19-3.64-7.69-3-11.32,3.47-1,1.69-1.63,3.76-4.18,3.11-2.39-.6-3.46-2.36-3.43-4.76a97.34,97.34,0,0,0-6.57-35.86c-1.44-3.8.33-6.6,4-7.7,4-1.22,6.35,1.09,7,4.86.57,3,.59,6.17,1,9.25.21,1.84.95,3.47,3.11,3.6a3.2,3.2,0,0,0,3.4-2.63c2.12-8.08,8.63-9.59,15.55-10.79a71.79,71.79,0,0,1,18.5-1.14c3.12.27,5.74,1.4,7,4.4s-.36,5.64-2.3,7.9c-5.84,6.83-14,9.43-22.14,12.13-2.12.7-5,.36-5.32,3.49s2.56,3.49,4.47,4.61c8.41,5,17.71,6.66,27.28,7.33,3,.2,6.86-.7,6.9,4C686.58,468,682.39,466.68,678.56,467Zm-32.94-29.73c6.22-1.07,11.71-3.92,16.9-7.29,2.38-1.54,1.59-3.33-.8-4.21-2.88-1-17.19,3.47-19,5.82-1,1.33-1.47,2.73-.6,4.28C642.88,437.21,644.18,437.43,645.62,437.23Z"/><path d="M919.19,1349.8c-9,.25-17.87-.67-26.77-1.57-6.88-.7-8.35.8-8.15,7.56a31.48,31.48,0,0,1-.64,7.5c-.46,2.16-.71,5-3.85,5s-4.81-1.95-5.43-5q-2.64-13.14-5.5-26.23a107.35,107.35,0,0,0-7.48-22.64c-1.39-3-2.55-6,1.28-8s6.4,0,8.06,3.29c2.28,4.5,4.39,9.1,6.36,13.74s4.81,5.74,9,2.62q7.24-5.38,14.58-10.67c2.72-1.94,5.69-3.14,8.28,0,2.83,3.47.63,6.24-2,8.5-1.72,1.52-3.91,2.49-5.85,3.77-2.27,1.48-5,2.85-4.1,6.25,1,3.72,4,5.27,7.63,5a85.87,85.87,0,0,1,23.19,1.44c2.67.53,5.31,1.16,7.93,1.86,2.28.61,3.93,2,3.49,4.57-.4,2.32-2.15,3-4.34,3C929.69,1349.76,924.44,1349.8,919.19,1349.8Z"/><path d="M651.15,1819.42c-9.87.07-14.31-4.42-16.84-10.7-6.27-15.54-8.55-31.82-7.76-48.52a106.36,106.36,0,0,1,1.07-11c.43-2.77,2.17-5,5.16-4.4,11,2.26,21.56-1.64,32.36-2.06,1,0,1.92-.34,2.88-.37,2.59-.06,5.24-.06,6,3.22.91,4-2.43,3.56-4.62,4.41a58.45,58.45,0,0,1-22.8,4,8.29,8.29,0,0,0-8.05,4.75c-1.34,2.53-2.1,5.11.1,7.56s4.47,1.38,6.92.39c3.22-1.31,6.53-2.45,9.86-3.44,1.64-.49,3.62-.85,4.41,1.45s.28,4.23-2.1,5.33c-4.23,2-8.61,3.63-12.66,5.9-6.2,3.48-7.46,6.73-5.36,13.56a71.85,71.85,0,0,0,4.91,12.41c3.25,6.16,7.2,6.52,11.85,1.48a44.36,44.36,0,0,0,3.44-4.68c1-1.41,1.81-3.3,4-2.63s2.85,2.36,2.91,4.53C667,1807.6,655.68,1819.43,651.15,1819.42Z"/><path d="M2.24,53.69a245.35,245.35,0,0,0-2-35.42c-.12-1-.16-1.94-.19-2.91-.34-11.93,8.74-18.3,20.07-14C23.25,2.52,24.85,5,25.67,8.27c1.25,5,1,10.05.61,15.06-.49,5.72.51,10.29,6.21,13.06a8.05,8.05,0,0,1,4.76,7.51C37,58.05,33.63,71.25,23.51,81.76c-5.94,6.18-8.09,5.7-12.16-1.64-.93-1.67-1.78-3.21-3.88-1.35-4.64,4.12-5-.65-5.09-3C2,68.45,2.24,61.06,2.24,53.69ZM7,58.35C6.79,66.51,10.31,73.11,17,74c5.52.7,5.8-5.81,8.36-9.14a29.59,29.59,0,0,0,3-5c2.21-4.45,2.53-9.11,0-13.42-2.38-4.12-6-.51-9-.82C7.8,44.43,7.85,48.93,7,58.35ZM5.85,25.79c.05,6.8,2.4,9.36,6.68,7.26,5.12-2.51,9.46-11.2,8.25-16.7-.8-3.62-2.62-5.21-6.63-3.77C7.54,15,5.79,17.47,5.85,25.79Z"/><path d="M595.2,1312c4.64.46,9.31.72,13.91,1.42,11.21,1.72,17.08,11.17,12.35,21.43-6.84,14.86-17.67,26-33.93,30.66-8.3,2.36-14-2.11-12.73-10.55,1.55-10.17-1.63-18.74-6.51-27.14-6.93-11.91-6.27-13.24,7.14-14.71C582,1312.44,588.53,1311.16,595.2,1312Zm-5.49,9.7c-7-.06-9.58.91-9.4,4.22.45,8.49,1.17,17,6.67,24.21,2.82,3.67,5.68,3.87,9.31.95a62.25,62.25,0,0,0,13.44-14.34c4-6.17,1.15-12.59-6.21-13.72C598.76,1322.32,593.91,1322.12,589.71,1321.74Z"/><path d="M722.5,908.58c-.82,18.26-1.89,36.55,1.09,54.72a23.54,23.54,0,0,1-1,9.81c-.49,1.81-.88,4.17-3.4,4-2.22-.11-2.33-2.3-2.64-4-1.79-9.42-.94-19-1.43-28.48s-.46-19.05-.61-28.57c-.07-4.88-1.51-7.3-7-5.24-4.89,1.82-8.69-.76-11.59-4.56-3.51-4.6-4.93-10.07-6-15.64-1.85-9.64-1.55-19.37-.74-29.06.23-2.79-.38-7.34,4-7.21,4.15.12,2.89,4.52,3.09,7.08.74,9.28-.11,18.67,1.85,27.87,1.54,7.22,4.95,8.84,11.87,6.36,3.24-1.16,4.06-3.59,4-6.34,0-6.2-.4-12.41-.62-18.61a23.59,23.59,0,0,1,1-9.22,3.88,3.88,0,0,1,3.33-2.87c1.85-.12,2.75,1.37,3.24,2.86a32.41,32.41,0,0,1,1.55,10.32C722.48,884.1,722.5,896.34,722.5,908.58Z"/><path d="M191.28,53.62c-2.09,4.33-1.49,8.87-2.1,13.18-.57,4-1,8.11-1.58,12.14-.21,1.32-.88,2.75-2.49,2.86-1.91.13-2.8-1.3-3-2.91a35.66,35.66,0,0,1-.35-6.36c.63-14.39,1.44-28.77-3.18-42.79a14,14,0,0,1,0-9.21c.59-1.62,1.43-3.41,3.6-3.26,2,.14,2.22,2,2.51,3.46.54,2.85.72,5.78,1.38,8.61.37,1.54-.1,4,2.21,4.26,2.08.24,2.74-2,3.59-3.38,4.45-7.39,11.05-10.48,19.53-10.52,3,0,4.07,1,4.48,3.9,1.21,8.4-.73,14.94-8.37,20-7.86,5.19-7.67,10.36-.45,16.73,3.93,3.48,8,6.75,12.16,10,2.05,1.63,3.9,3.31,3.78,6.18-.08,2.08.53,4.59-1.67,5.85s-3.46-1-5.1-1.88C205.48,74.7,196.57,67.25,193,54.94,192.82,54.5,192.1,54.24,191.28,53.62Z"/><path d="M285.68,1749.21c-.31-5-.63-10-.91-15.07-.11-2,0-4.17,2.57-4.42,2.05-.19,3.12,1.45,3.54,3.25a62.06,62.06,0,0,1,1.29,7.41c.48,4.65,2.72,7.1,7.6,6.62,3.67-.37,7.36-.51,11-1.1,8.8-1.43,8.82-1.51,9-10.3.06-2.51.66-4.81,3.11-5.77s3.27,1.38,4.56,2.74c6.38,6.74,8.73,14.92,8.7,24,0,10.46-.69,20.93,3.93,30.9,1.8,3.87-1.79,9-6,9.62-5.18.77-5.68-3.16-6-6.62-1-9.27-1.74-18.55-2.46-27.84-.69-8.76-2.66-10.23-11.3-9.05a64.42,64.42,0,0,0-13.05,2.79c-4.39,1.57-6.44,4.62-6.18,9.36a81.71,81.71,0,0,0,2.41,13.73c.65,2.86,1.1,6.16-3.06,6.86s-5-2.23-5.13-5.37C288.94,1770.25,285.26,1760,285.68,1749.21Z"/><path d="M282,415.27c1.2-1.75,2.37-3.51,3.58-5.24,7.75-11,20.28-14.92,32.9-10.26,6.79,2.51,8.74,10,3.95,15.56-3,3.47-7,5.42-11.26,7-2.25.83-4.62,2-4.93,4.46s2.33,3.29,4,4.46c5.72,3.95,11,8.7,18,10.47,1.69.43,3.27,1.53,2.5,3.83s-2.11,3.64-4.59,3.82c-2.1.16-3.72-1-5.36-2-9.42-5.77-19.26-10.85-28.17-17.47-1.76-1.31-3.88-3.22-6.29-2s-1.62,4.09-1.76,6.34c0,.58.11,1.17.05,1.75-.34,3.31-1.26,6.37-5.36,6.22-3.85-.14-4.74-3.36-4.61-6.26.26-5.5.08-10.89-1.68-16.1-1.05-3.11-2.55-6.07-3.83-9.1-1.35-3.21-1.57-6.26,2.35-7.69s5.6,1.13,6.61,4.46C279,410.28,278.87,413.44,282,415.27Zm15.29,2.53c5.37-.34,9.51-3,13.75-5.29,1.52-.83,3.2-1.73,2.88-3.91-.35-2.4-2.33-3-4.25-3.29-5.21-.81-10,.61-14.47,3.2-2.29,1.32-5.48,2-4.65,5.66C291.42,418,294.94,417.2,297.29,417.8Z"/><path d="M251.06,1773.06c-.12-8.35-.31-16.68-1.19-25-.68-6.49-4-10.17-10.23-11.7-7.13-1.75-14.58-2.21-21.27-5.69-3.14-1.63-5.72-3.41-5.37-7.4s2.09-5.32,6.25-4a97.68,97.68,0,0,0,51,2.08c6.32-1.41,8.34-.41,8.66,4.72.26,4-1.08,6-5.65,5.86-9.75-.33-13.8,3.27-14.21,12.74-.66,15.48-2.5,31,1.78,46.34,1,3.59.35,7.45-4.14,8.19-5.17.86-5.45-3.39-5.56-6.87C250.91,1785.89,251.06,1779.47,251.06,1773.06Z"/><path d="M520.65,1739.83c3.29,0,5.73.37,6.27,3.66s-1.57,4.34-4.21,5.21c-14.68,4.83-18.2,14.62-10.1,28.1,3.64,6.07,8.61,11,13.74,15.8,4.5,4.18,5.33,8.73,2.63,14.16-3.24,6.52-6.2,13.5-15.09,13.37-12.76-.19-25.7-12.24-27-24.86a27.25,27.25,0,0,1,0-3.5,3.13,3.13,0,0,1,2.77-3.26c1.83-.32,2.75.8,3.34,2.49a72.93,72.93,0,0,0,4,10.28c3.34,6.29,9.16,8.86,15.55,7.6a7.86,7.86,0,0,0,6.5-5.9c.92-3.11-.61-5.37-2.92-7-11.42-8.29-15.12-20.77-18.28-33.52a11.56,11.56,0,0,1,2.77-10.86C506.1,1745.26,512.42,1740.36,520.65,1739.83Z"/><path d="M234.35,52.74c-.35-8.87,1.33-18.64,2.78-28.45.66-4.49,2.8-6.81,7.56-7.15s9.58-1.6,14.4-2.17c2.06-.25,4.75-1.79,6,1.47s1,6.17-1.64,8.55A17.66,17.66,0,0,1,254,29.13c-3.82.61-7.6,1.2-11.06,3.34a5.75,5.75,0,0,0-3,6.28c.43,3.21,2.92,3.39,5.28,3.18,4.63-.39,9.22,1.11,13.87,0,1.88-.43,4.23-.62,4.52,2.16.29,2.61,1,6.2-2.51,6.87-5.31,1-9.16,6-15.15,5.1a3.9,3.9,0,0,0-4.13,3.48,20.54,20.54,0,0,0,3.47,15.53c2.37,3.25,7.86,2,10.87-2.13,2.22-3.09,2.69-6.79,3.47-10.4.25-1.16.24-3.12,2.11-3,2,.12,2.24,2,2.15,3.52-.47,7.84-1.73,15.5-6.44,22.07-5.06,7-12.37,7-17.12-.31-5.1-7.81-5.82-16.75-6-25.76C234.32,57.35,234.35,55.6,234.35,52.74Z"/><path d="M884.86,2699.26a28.81,28.81,0,0,0-3.37-18c-1.76-3.13-1.76-6.06,2-7.79,3.95-1.83,4.33,1.44,5.49,3.89,2.59,5.48,4.56,1.85,6.38-.65,9.64-13.24,18.18-16.05,33.79-11,8,2.56,9.61,8.91,3.88,15.11a21,21,0,0,1-11.09,6c-1.73.41-3.69.63-4,2.75a3.76,3.76,0,0,0,2.6,4.15c9,2.5,17.23,8.73,27.36,5.38,2.36-.78,5-1.15,5.56,2.07s-2.34,3.74-4.6,4.05c-9.26,1.3-18.2-.35-26.92-3.44a107.41,107.41,0,0,1-19.77-9.89c-5.8-3.51-6.51-3.17-7.24,3.75a57.55,57.55,0,0,1-2.24,11.36c-.72,2.28-1.94,3.8-4.61,3.43s-3.17-2.46-3.2-4.72S884.86,2701.4,884.86,2699.26Zm32.88-29.87c-6.56.15-12.29.17-16.07,5.55-2.53,3.59-1.79,6.24,2.37,7.63a19.07,19.07,0,0,0,15.25-1.53c3.65-1.9,9.54-3.31,8.59-8.14C926.83,2667.54,920.82,2670,917.74,2669.39Z"/><path d="M799.6,1783c.91-13.25,7.35-25,20.39-32.77,2.9-1.74,4.49-1,5.72,2.1,2.9,7.42,1.91,10.37-5.07,13.73-7.47,3.59-12.4,16.1-9.76,24.75,2.49,8.13,10.35,12.53,20,11.21,4.68-.65,7.35-4,10.11-7.28,1.38-1.63,2.58-3.42,4.09-4.9s3.46-1.89,5.24-.37a4.11,4.11,0,0,1,1.39,4.65c-2.63,9.52-17.48,21.8-27.29,22.12-7.45.24-12.85-3.82-17.3-9.27S799.63,1792.32,799.6,1783Z"/><path d="M635,2707.73c.24-3.34.59-6.05.59-8.76,0-2.19-.52-4.32-3.08-5s-4.14.71-5.26,2.66c-2.23,3.89-4.51,7.72-7.81,10.83-6,5.65-10.59,6-17,.84-2.56-2.06-4.74-4.59-7.1-6.9-1-1-2-2.06-3.51-1.46-1.72.65-2.09,2.14-2.05,3.8.11,4.46.27,8.93.32,13.4,0,2.44-.3,4.87-3.45,5.13-3.4.3-4.3-1.95-4.45-4.78-.22-4.27-.54-8.53-.62-12.8-.06-4-.47-7.79-2.56-11.22-2.37-3.9-1.39-7.06,2-9.69s5.8-.39,8.11,1.78c5.1,4.78,10.26,9.52,15.14,14.53,3.77,3.85,7.21,3.88,11.1.34a84.11,84.11,0,0,0,13.57-16.69,21.17,21.17,0,0,1,3.49-4.62c3-2.6,5.7-2.3,7.08,1.86,2.15,6.47,3.74,13,3.62,19.94-.09,5.44-.07,10.88,1.27,16.23.86,3.45-.57,5.76-4.12,6.35s-4.11-2.13-4.38-4.73C635.49,2714.87,635.24,2711,635,2707.73Z"/><path d="M565.36,1752a136.85,136.85,0,0,0,32.72-5.31,37,37,0,0,1,4.51-1.09c3.35-.47,5.07,1.35,5.69,4.43s-.72,4.82-3.76,5.4c-3.23.62-6.45,1.63-5.72,5.8,2.3,13.09.08,26.43,2.35,39.5.4,2.29,1.09,4.54,1.33,6.84.3,2.94.49,6.1-3.25,7.17s-5.12-1.71-6.33-4.47a26.31,26.31,0,0,1-2.15-11.93c.49-10.36-1.21-20.54-2.49-30.74-.77-6.18-3-7.46-9.11-6.45-6.31,1-12.66,2-19,2.55-5.38.5-8-2-7.93-6.85,0-5.35,3.78-4.93,7.36-4.86C561.49,1752,563.42,1752,565.36,1752Z"/><path d="M742,2695.52c0,4.9-.33,9.71-3,14.06-.92,1.52-1.75,3.16-3.91,2.87a3.65,3.65,0,0,1-3.25-3.59c-.74-7.53-1.74-15.06-1.95-22.61-.13-4.59,6.23-11.11,10.61-12.09,2.9-.65,4.67.79,6.41,2.93,3.54,4.37,7.34,8.53,11,12.79,2.56,3,5.27,3.59,8.53.92,6.91-5.67,15.35-9.15,22-15.25,2.93-2.69,5.64-2.47,7.07,1.76,3.24,9.56,3.54,19.84,7.36,29.31,1.09,2.71-.86,5.34-4.07,6s-4-1.94-4.53-4.19c-1.38-5.66-2.45-11.39-3.82-17-1.66-6.8-4.38-7.42-9.48-2.87-5.35,4.78-11.05,9.17-16.66,13.65-2.83,2.26-5.4,1.52-7.63-1.05-2.93-3.38-5.78-6.82-8.78-10.13-1.22-1.36-2.19-3.76-4.54-2.89s-1.4,3.28-1.41,5.13C741.94,2694,742,2694.74,742,2695.52Z"/><path d="M231.9,2253.78a27.24,27.24,0,0,1-.71,3.65c-.5,1.76-1.93,2.3-3.66,2.14a2.52,2.52,0,0,1-2.43-2.74c-.22-11.13-4.32-21.17-8.62-31.17-.87-2-1.47-4.39,1.21-5.48,2.94-1.2,3.54,1.29,4.28,3.31a5.12,5.12,0,0,0,.25.53c4.75,11,4.47,10.78,12.78,2.22,6.78-7,15.71-9.08,25.16-7.73,5.35.77,7.22,5.15,6.78,10-.52,5.8-2.62,11-8.7,13.33-3.45,1.3-3.12,3.25-1.64,5.9,3.34,6,7.16,7.85,14.42,7.25,2.07-.18,5-1.76,5.9,1.64s-2.12,4.07-4.3,5.25a11.16,11.16,0,0,1-13.06-1c-3.67-2.86-7.09-6-10.69-9a54.64,54.64,0,0,0-6.93-5.25C234.37,2242.2,231.84,2243.7,231.9,2253.78Zm13.73-15.94c5.26.16,9.1-1.09,12.34-3.8a5.62,5.62,0,0,0,1.53-7.34c-1.29-2.69-3.61-2.74-6-2.19a50.29,50.29,0,0,0-12.09,4.1c-2,1-3.81,2.19-3.31,4.84.45,2.41,2.2,3.55,4.47,4C243.92,2237.66,245.28,2237.79,245.63,2237.84Z"/><path d="M583.39,431.85a28.53,28.53,0,0,0,10.94-1.54c1.89-.68,3.66-.7,4.4,1.33.87,2.4-.69,3.47-2.9,4-6.16,1.51-11.24,6.33-18.14,5.79a3.44,3.44,0,0,0-3.43,2.63c-1.53,5,3.18,16.33,7.89,18.35,3.83,1.65,6.68-.79,9.62-2.6,1.77-1.09,3.5-3.19,5.48-.68s.82,4.81-1.44,6.51a55.55,55.55,0,0,1-7.24,4.87c-7.43,3.92-12.47,2.88-16.86-4.36-9.24-15.27-11.81-31.32-4.22-48.19a4.27,4.27,0,0,1,4.08-2.66c8.52-.63,17-1.32,25.58-1.93,2.14-.15,4.66-.27,4.88,2.72.18,2.47-1.51,3.89-3.89,4.32-6.31,1.15-12.64,2.17-18.92,3.44-2.62.53-6.58-.11-6.39,4.24.2,4.73,4.12,3.61,7.09,3.75C580.89,431.89,581.86,431.85,583.39,431.85Z"/><path d="M944.56,437.3c0,2.83,0,5,0,7.11,0,1.84-.37,3.6-2.66,3.85a3.23,3.23,0,0,1-3.76-2.9c-1.47-9.79-3.52-19.52-3.38-29.48,0-2.23.77-4.27,3.26-5a5.87,5.87,0,0,1,6.38,1.74c1.53,1.76,2.81,3.73,4.26,5.55,11.73,14.74,24.37,14.12,34.69-1.62,1.35-2.07,1.46-5.79,5.4-4.95,3.45.73,3.33,3.85,3.94,6.44q2.25,9.65,4.53,19.28c.86,3.64,2,7,5.44,9.27,2.4,1.57,2.89,4,2,6.69-.68,2-1.94,3.38-4.16,3.5-3,.16-4.58-1.7-5.74-4.13a71,71,0,0,1-6.19-21.16c-.26-1.85-.16-4.29-2.24-5.08-2.42-.94-3.85,1.28-5.31,2.72-13.42,13.24-14.3,13.33-29.63,2.36a18.22,18.22,0,0,1-2.25-1.84c-1-1-1.81-2.26-3.4-1.55-1.76.79-1.6,2.41-1.45,4C944.44,434.1,944.49,436.05,944.56,437.3Z"/><path d="M578.42,98.05c.46-10-2.41-19.63-3.27-29.49-.28-3.29-.71-6.58-.74-9.87-.08-9,2.28-11.46,11.12-12C603,45.51,616,62.17,611,79.63a51.82,51.82,0,0,1-22.58,30.13c-5.86,3.78-8.74,2.34-9.58-4.76C578.61,102.7,578.57,100.37,578.42,98.05Zm2.08-31.67c1.8,9.89,3.57,19.78,5.41,29.66.78,4.15,2.7,5.07,5.48,1.45,3.89-5,7.81-10.11,11.34-15.41,3.19-4.77,5.89-10.25,2.08-15.64s-9.72-8.18-16.55-8C582.47,58.49,580.71,60.53,580.5,66.38Z"/><path d="M1046,2246.35c-.41-5.72,1.21-11.17,2.22-16.71.37-2,1.36-3.15,3.54-3,2.6.21,3.21,2,3.06,4.11a27.56,27.56,0,0,1-1.14,5.08c-3.26,12-.63,22.63,7.7,31.82,1.83,2,3.87,4,7,2.54s2.09-4.16,2-6.62c-.5-9.37,3.65-17,9.66-23.6,3.38-3.72,9-2.3,13,2.68,6.77,8.31,7.79,20.74,2.36,28.85-6,9-15.68,11.91-27.36,8.24C1054.06,2275.36,1046.6,2264.07,1046,2246.35Zm46.67,14.58a19.76,19.76,0,0,0-1-7.63c-1-2.89-3-4.65-6.11-4.22-4.44.61-6.65,3.87-7.66,7.78-1.13,4.4-3,9.09,1.15,13.07a6.66,6.66,0,0,0,2.54,1.3C1088.83,2273.51,1092.93,2269.84,1092.7,2260.93Z"/><path d="M387.58,831.8c-2.56-5.94-2-11.57-3.7-16.66-1-2.88-1.43-6.59-5.13-7.07s-6,2.59-7.44,5.55c-7.22,14.7-7.66,29.85-2.22,45.18,1.47,4.16,4.6,7.1,8.45,9.28,5.69,3.21,9.44,2.58,13.9-2.3.94-1,1.37-3.34,3.34-2.46,1.63.73,1,2.73,1.09,4.21.4,7.61-5.81,10.32-10.86,12.88-4.65,2.36-9.95.66-13.9-3-6.32-5.9-8.36-13.81-9.59-22-2.54-16.75-1.94-33.29,4-49.35,1.82-4.95,4.31-9.59,8.87-12.67,2.46-1.66,5.25-2.55,7.15.42a51.12,51.12,0,0,1,8,35.52C389.39,830,388.62,830.48,387.58,831.8Z"/><path d="M358.14,1347.57a23.15,23.15,0,0,1,5.06-15.16c7.71-9.7,18.07-10.76,27.32-2.52,7.07,6.29,11.93,13.83,11.1,23.89a21.91,21.91,0,0,1-16,19.38c-9.07,2.44-16.95-.69-22.55-9.1A27.79,27.79,0,0,1,358.14,1347.57Zm24.21,15c7.22,0,10.78-3.08,10.81-9.23,0-8.57-8-19.91-14.09-19.93-6.36,0-11.6,5.84-11.49,12.86C367.76,1356.81,373.06,1362.66,382.35,1362.6Z"/><path d="M424.43,1329.54c0-1.35-.08-2.7,0-4,.2-2.79,1.79-4.25,4.55-4.24,2.57,0,3.86,1.55,4.14,4,.36,3.09.5,6.21,1,9.26a37.45,37.45,0,0,0,10.59,20.34c5.33,5.31,11.09,5,15.23-1.17,6.29-9.33,8.93-19.33,3.88-30.24a34.93,34.93,0,0,1-2.3-6.58c-.61-2.57.31-4.72,3-5.48,2.51-.7,4.67,0,5.75,2.61,6.54,15.83,4.95,37.29-5.9,49.67-7.69,8.77-14.94,9.19-23.62,1.47C430.15,1355.67,425.31,1343.55,424.43,1329.54Z"/><path d="M823.4,447a33.73,33.73,0,0,1,.23,3.85c-.19,2.49-.75,4.59-4,4.54-3.06-.06-4.27-1.92-4.32-4.43-.07-3.28.54-6.57.59-9.86.09-5.51-.66-10.84-4.1-15.47-1.48-2-2.51-4.27-.06-6.17s4.35-.57,5.75,1.69c2.71,4.39,4.35,3.06,6.21-.83,4.09-8.56,12.25-12.14,20.33-15.52,3.51-1.46,5.88.61,7.22,4,2.51,6.25.91,12-2.74,17.06-3.3,4.55-2.49,6.85,2.45,9.17,5.22,2.45,9.67,6.55,15.95,6.53a3,3,0,0,1,3.25,3.32,3.58,3.58,0,0,1-3.56,3.84,11.06,11.06,0,0,1-8.61-2.61c-8.6-7.3-19.5-7.45-29.8-8.07C822,437.66,823.81,444,823.4,447Zm22-31.2c-.06-1.3-.14-2.83-2.4-2.82-4.42,0-13.15,6.57-14.26,10.7-1,3.8.55,5.69,4.32,5.52C838.34,429,845.24,421.52,845.36,415.82Z"/><path d="M47.48,39.2c-.12-1.93-.31-3.87-.37-5.8-.47-15,1.19-17.7,15-23.95a54.49,54.49,0,0,1,8.07-3.3c2.12-.58,4.9-3.88,6.51-.48S78.55,13.58,74.42,16c-5,3-10.22,5.56-15.48,8-4.38,2.05-5.91,5.31-5.23,9.89.43,2.91,1.89,4.06,4.85,3,2.56-.92,5.17-1.66,7.75-2.5,1.93-.63,3.92-1.26,4.8,1.39.7,2.13.78,4.28-1.43,5.71-2.76,1.79-5.42,3.86-8.41,5.15-4.59,2-6.32,5.51-6.53,10.07a36.42,36.42,0,0,0,3,15.31c1.61,4,3.93,5.24,7.26,1.47.93-1,1.67-3,3.6-1.9,1.51.87,1.6,2.66,1.46,4.19C69.54,81.05,67,85,62.08,87c-3.51,1.43-5.88-.4-7.72-3.35C50.53,77.5,49.7,70.54,49,63.6c-.8-8.11-1.21-16.25-1.79-24.38Z"/><path d="M98,24.48c-.27-9.12.15-9.62,7.65-10.15,5.71-.4,11-2.32,16.13-4.61,2.71-1.2,5.64-2.72,7.55.95,2,3.89,1.28,7.92-.43,11.76-.17.37-1.4.51-2.06.38-7.32-1.38-13,2.89-19.06,5.61-2.68,1.2-3.27,3.71-2.48,6.44.33,1.12,1.22,2.6,2.39,2,5.23-2.81,11.82.36,16.67-4,2.11-1.91,3.53-1,3.88,1.64.46,3.52-.18,6.62-3.81,8.29s-6.92,3.71-10.62,4.68c-5.3,1.4-6.73,4.83-6.29,9.57.65,6.94,1.73,13.86,2.19,20.81.19,2.82,1.5,7.56-2.37,7.92-4.43.42-3.75-4.59-4.07-7.57C101.31,59.82,99.6,41.46,98,24.48Z"/><path d="M374.8,2682a11.54,11.54,0,0,1,5.58-9.83c3.41-2.09,4.71,1.27,6,3.56,3.76,6.6,8.18,12.21,16.32,13.75s13.35-.64,17.42-8c.84-1.53,1.56-3.13,2.27-4.72A4.25,4.25,0,0,1,427,2674c2.17.16,3,1.75,3.46,3.45q4.08,14.58,8,29.2c.76,2.82.9,5.66-2.86,6.37-3.32.63-5.24-1.36-5.84-4.33-.78-3.8-1-7.72-1.71-11.53-1.48-7.79-3.3-8.5-9.78-3.85-8,5.71-16.18,5.67-24.73,1.5-5.38-2.61-6.31-2.05-6.56,3.85-.14,3.5,0,7-.24,10.49-.18,2.49-1.22,4.59-4.23,4.6-3.51,0-3.2-2.6-3.35-4.94C378.54,2699.49,378.39,2690.12,374.8,2682Z"/><path d="M360.45,1762.84c.32-4.12.05-8.76,1.08-13.38,1.39-6.19,4.92-10,11-11.34a57.16,57.16,0,0,1,20.82-.66c2.76.41,4.67,1.68,4.83,4.82.19,3.52-2.16,3.83-4.78,4.51-5.79,1.53-11.54,3.28-17.19,5.25-4.93,1.72-7.31,5.5-7.4,10.72a68.39,68.39,0,0,0,1.06,14.5,6.73,6.73,0,0,0,4.62,5.51c2.67.89,4.32-.89,6-2.63s3.59-3.52,5.38-5.29c1.52-1.51,3.2-2.43,5.09-.77a3.81,3.81,0,0,1,.75,5.3c-4.87,5.71-9.6,11.71-15.3,16.51-4.28,3.59-11.28-.41-13.17-7.16C360.94,1780.46,360.73,1771.89,360.45,1762.84Z"/><path d="M584.6,884.61c-2-6.44-4.17-12.78-6-19.22-1.76-6.18-2.82-12.47-2-19a22,22,0,0,1,6.88-13.17c3.17-3.14,7-3.9,10.37-.6s2.79,7.3.07,10.56c-3.79,4.52-10.33,7.59-10,14.35.45,8.28,4.83,15.46,9.06,22.45,1.41,2.33,3.18,4.43,4.69,6.69a17.76,17.76,0,0,1,3.33,9.8c0,3.88.41,8.36-3.16,10.7s-7.48-.38-10.17-2.3C580.91,900,577,892.72,574,885.11c-.74-1.85-.91-4.79,1.11-5.9,2.46-1.36,3.53,1.47,4.91,2.95C581.17,883.37,581.83,885.3,584.6,884.61Z"/><path d="M813.31,2267.82a184.59,184.59,0,0,0,.25-28.51c-.22-3.13.35-5.85,4-6.8s6.18.73,7.53,3.84c4.27,9.78,12.76,14.81,21.51,19.6,2.1,1.14,4.34,2.22,6.54.57s1.56-4.11.84-6.41c-1.62-5.18-3.25-10.36-4.75-15.58-.6-2.09-1-4.44,1.79-5.35s3.64,1.36,4.41,3.39a93,93,0,0,1,6,24.23c.85,9.29-4.09,13.08-12.33,9.13-7.13-3.42-14.88-5.64-21.06-11-3.7-3.23-4.22.69-4.47,2.91-.57,5,.35,10.14-1.5,15-1,2.48-.43,6.56-4.75,6-3.8-.5-3.62-4-3.91-6.89A39.43,39.43,0,0,1,813.31,2267.82Z"/><path d="M239.11,410.9c1.17-.06,2.33-.1,3.5-.19,2-.16,4.68-1.49,5.47,1.4.92,3.35-2.07,4.08-4.44,5a45.49,45.49,0,0,1-10.2,2.2c-7.53,1-9.2,3.64-7.39,11.16a21.56,21.56,0,0,0,1.71,4.92c4,7.57,8.87,8.54,15.33,3.1,1.68-1.41,3.13-4.36,5.65-1.89,2.7,2.65.42,4.89-1.5,6.92-4.15,4.38-8.71,8-15.25,6.5-7.11-1.65-11.75-6.37-13.09-13.37A253.52,253.52,0,0,1,215,408.41c-.65-8.64,1.67-10.24,10.17-9.46,7.91.73,15.85,1.72,23.74-.5,2.42-.68,4.27.15,4.44,3,.16,2.63-1,4.14-3.77,3.8-6.06-.74-11.56,3.63-17.75,1.86-1.36-.39-2.14.75-2.31,2-.27,2,1.23,2.22,2.61,2.19C234.47,411.28,236.79,411.05,239.11,410.9Z"/><path d="M492.66,1332.19c0-4.09,0-7,0-9.91.06-3.73,1.81-5.83,5.72-5.75,4.16.09,5.34,2.58,4.87,6.23-.84,6.52-2.17,13-.4,19.62,3.16,11.92,12.4,16.17,23.14,10.17,7.86-4.39,15-9.67,19.8-17.6,1.17-1.93,2.64-5.15,5.77-3.3,2.8,1.65,1.71,4.69.57,6.84-7,13.18-17.44,22.94-31.23,28.36-8.54,3.35-18.65-2.25-23.72-11.54C493.54,1348.62,492.22,1341.47,492.66,1332.19Z"/><path d="M410.7,2251.78c.29,3.65,2.06,7.59,3.29,11.66.95,3.16.9,6-2.8,7.08-4.27,1.28-4.87-1.94-5.39-4.91-2-11.3-3.87-22.61-5.88-33.89-.57-3.19.19-5.52,3.58-6.07,3.88-.63,3.72,2.23,3.91,4.86.43,6.22,2.08,7.32,8.17,6.43,5.76-.84,11.56-1.49,17.37-1.9,4.68-.34,9.08-.18,12.18-5.07,1.94-3.08,6-1.3,6.86,3.11,1.12,5.92,1.79,11.92,2.53,17.9.41,3.35.93,6.54,3.88,8.76,2.32,1.76,2,4,.87,6.27a6.3,6.3,0,0,1-6,3.85c-2.95,0-3.81-2.3-4.39-4.64-1.4-5.65-3.25-11.2-3.17-17.14.07-5.16-2.17-7.34-7.68-6.37-6.89,1.21-13.9,1.61-20.83,2.63C412.48,2245,410.74,2247.09,410.7,2251.78Z"/><path d="M956.05,2681.66c1-2.15-2.1-6.92,2.47-7.27,5-.39,3.6,4.52,3.71,7.5.5,12.9,9.57,20.65,22.48,19.15,4.14-.48,5.8-2.74,5.46-6.68-.46-5.35,1.33-10.35,2.32-15.48.34-1.77.94-3.42,3.15-3.6,1.85-.15,2.79,1,3.62,2.43,2.74,4.67,4.85,9.69,2.3,14.9-4.75,9.72-5.14,19.74-3.46,30.13a93.82,93.82,0,0,1,1.24,11.57c.1,2.92.77,5.29,3.15,7.12,1.79,1.37,3.11,3.29,2.36,5.54-.87,2.65-1.53,6.28-5.08,6.22-3.19-.05-5.1-2.64-5.44-5.89q-1.68-15.93-3.21-31.87c-.86-9.14-1.07-9.37-10.15-8.8C964.35,2707.69,956.2,2699.66,956.05,2681.66Z"/><path d="M562.9,868.39c.1,8.27-1,16.3-5.12,23.62-2,3.61-4.56,7-9.3,6.9-4.41-.13-6.26-3.74-7.73-7-7.58-17-6.21-34,.89-50.75,1.53-3.63,4.2-6.9,8.69-6.72s6,4,7.48,7.34C561.61,850.18,563,859.17,562.9,868.39Zm-20.22.54c.08,2.23-.06,5.92,1.23,9.46.81,2.23,1.63,4.75,4.18,5.11s4.66-1.56,6.18-3.66c3.82-5.26,4-21.35.36-26.9-1.22-1.86-2.67-3.35-5.14-3.15s-3.58,2.07-4.43,4.06C543.19,858.2,542.79,862.82,542.68,868.93Z"/><path d="M876.67,2245.39c-.12-2.56-.31-5.67-.38-8.77-.06-2.32.53-4.54,3.26-4.68,3-.15,3.22,2.29,3.25,4.49.08,5.84-.11,11.68.12,17.51.41,10.38,4.42,16.24,11.87,17.86,6.55,1.42,9-.72,7.48-7.29-1.43-6.13-.37-12,.67-17.92,1-5.7,5.71-7.48,10.86-8s6.41,3.19,7.9,7c3.76,9.53.89,18.35-2.68,27.09a4.84,4.84,0,0,1-2.85,2.7c-7,1.42-13.7,4.5-21.09,4.06-8.88-.54-15.4-6.09-17-14.86A108.37,108.37,0,0,1,876.67,2245.39Zm31.63,12a40,40,0,0,0,.25,4.15c.37,2.06.4,4.57,3.17,4.89s4.2-1.5,5.11-3.87c1-2.61.94-5.34.87-8-.07-2.38-.31-5.05-3.27-5.35s-4.63,1.76-5.48,4.33A20.36,20.36,0,0,0,908.3,2257.43Z"/><path d="M390.83,75.14a66.31,66.31,0,0,1,4.87-25,21.14,21.14,0,0,1,5.63-8c3.67-3.15,8-4.6,12.35-2.11,4.75,2.71,5.89,7.5,5.22,12.66-.32,2.52-1.27,3.78-4.3,2.13-6.73-3.65-11.8-1.8-14.63,5.46-6.76,17.34.27,31,13.58,42,2.22,1.83,5.05,1.93,7.81,1.37,2-.41,4.61-2.76,5.11,1.53.4,3.42.4,7.19-3.9,7.88-7.22,1.18-14.27,1.09-19.69-5.3C395.67,99.28,390.7,86.22,390.83,75.14Z"/><path d="M524.75,2242.06c0-1.13,0-2.68,0-4.23,0-2.19,0-4.66,2.93-4.84s3.35,2.09,3.48,4.38a48.1,48.1,0,0,0,3.06,13,12.45,12.45,0,0,0,4.2,6.2c3.29,2.39,6.78,5.24,11.14,3.7s4-5.84,4.53-9.42c.68-4.61,1.06-9.27,1.59-13.9.24-2,.93-3.91,3.27-4.23s3.29,1.55,4,3.47c1.68,4.81,2.72,9.5,1.3,14.78-3.53,13.07-4.13,26.08,2.64,38.54,1.1,2,1.24,4.22-1.28,5.49-2.93,1.46-5.46.57-7.05-2.08a34.94,34.94,0,0,1-4.59-16.68,40.81,40.81,0,0,0-.65-6.36c-.57-2.68-2.32-3.81-5.17-3.35-12.25,1.95-19-2.54-22-14.82A95.56,95.56,0,0,1,524.75,2242.06Z"/><path d="M1033.3,2252c-.24,12.29-2.87,14-14.18,8.42-4.71-2.31-9.24-5-13.85-7.47-1.14-.62-2.15-1.88-3.66-.92s-1.4,2.58-1.15,4.17c.38,2.44,1.79,4.91.16,7.34-1,1.42-1.89,3.3-4,2.94a3.91,3.91,0,0,1-3.1-3.8,83.33,83.33,0,0,0-6-26.58c-1.4-3.53,1-5.91,4-7.45,3.48-1.78,4.29,1.27,5.6,3.29a53.78,53.78,0,0,0,23.33,19.64c4.87,2.23,6.36,1.22,5.76-4.35-.68-6.36-1.93-12.66-2.92-19a32.33,32.33,0,0,1-.48-4c-.08-2.64,1.49-3.84,3.93-4.14,2.77-.34,3.93,1.26,4.14,3.71C1031.75,2233,1032.5,2242.34,1033.3,2252Z"/><path d="M461.39,2682.49c.22-2.8,1.31-4.83,4.35-5.34,3.8-.64,4.07,2.18,4.45,4.66.9,5.93.81,12.05,3.45,17.64,1.5,3.18,1.69,7.81,6.8,7.39s9.94-2.18,12-7.75a36.12,36.12,0,0,0,2-13.76c-.11-3.59,1.19-6.12,5.17-6.34,1.94-.12,3.84.61,3.6,2.79-.43,3.87,1.16,7.47.51,11.5-1.05,6.47-.95,13.16-1,19.77a18.6,18.6,0,0,0,4.13,12.46c2.36,2.87,2.31,5.78-.95,8-3.51,2.41-5.35-.16-6.95-2.72-3.11-5-3.53-10.6-3.9-16.25-.41-6.38-2-7.17-7.49-3.92-10.23,6-18.27,3.06-21.5-8.26C464.1,2695.85,462.9,2689.14,461.39,2682.49Z"/><path d="M515.85,71.14c.62,11.88.63,23.72-3.31,35.14-1.42,4.14-2.58,9.4-7.86,9.81-5,.39-6.88-4.49-8.89-8.16-7.69-14-9.45-29.41-10.1-45-.12-2.78-.29-6.73,3.41-7,4.14-.27,4.54,3.94,4.52,6.85-.1,10.38.8,20.55,4.72,30.27a43.79,43.79,0,0,0,2.78,6.38c2.35,3.92,4.63,3.82,6.58-.32,2.62-5.58,2.75-11.68,3-17.68a128.24,128.24,0,0,0-1.29-23.24,19.43,19.43,0,0,1-.34-3.47c.1-3-1-7.6,2.81-7.81,4.47-.24,2.76,4.64,3,7.34C515.49,59.88,515.56,65.52,515.85,71.14Z"/><path d="M410.88,840.67c0-4.09-.1-8.17,0-12.25.07-2.4-.66-6.26,2.33-6.35,3.87-.11,2.54,4.16,2.72,6.47.54,7,.49,14,.78,21a83.37,83.37,0,0,0,2.34,17.31c.74,2.9,1.09,6.89,5.13,6.73,4.26-.17,4.92-4.34,5.07-7.45.66-13.58,1.71-27.24-2.2-40.57a25.29,25.29,0,0,1-1-10.95c.23-1.58.88-3.24,2.67-3.41,2.13-.21,2.42,1.87,2.62,3.24,3.14,21,6.14,42,1.29,63.15-1.09,4.78-2.28,11-8.55,11-5.94,0-7-6-8.49-10.53C411.65,866,410.72,853.36,410.88,840.67Z"/><path d="M649.94,847.79c6.57-.87,12.63,1,18.81,1.44,1.8.13,3.51.8,3.74,3s.83,4.53-1.64,5.67c-4.33,2-4.3,5.94-3.9,9.46,1.76,15.57-.47,31.52,4.3,46.82a9.59,9.59,0,0,1,.08,3.47,4.28,4.28,0,0,1-4,4.32c-2.43.24-3.48-1.81-3.75-3.71-.73-5.17-1.26-10.39-1.62-15.61-.81-11.8-1.42-23.62-2.24-35.43a22.9,22.9,0,0,0-1.42-6.19c-.93-2.56-2.81-3-5.07-1.48-.64.43-1.13,1.08-1.77,1.51-3.4,2.24-7.84,3.7-10.81,1.41-3.61-2.78-2.39-7.83-1.49-12,.41-1.92,2.13-2.64,4.06-2.65Z"/><path d="M680.24,2727.55a9.07,9.07,0,0,1-6.48-3.65,27.25,27.25,0,0,1-4.92-10.45,60.93,60.93,0,0,0-6-15.71c-2.53-4.34-1-9.86-2.47-14.75-.61-1.92,2.06-2.95,4.12-3.13a169.38,169.38,0,0,0,32.69-5.53c2-.56,4.65-1.08,5.5,1.65,1,3.18-1.66,3.93-4,4.49-7.36,1.77-14.74,3.46-22.12,5.18-2.34.55-4.93,1.19-4.3,4.32s3.28,3,5.64,2.65c2.67-.43,5.29-1.21,7.92-1.89,1.65-.42,3.21-.47,3.86,1.43s-.62,3-2,3.71a15.17,15.17,0,0,1-3.91,1.13c-3.75.72-7.7,1.57-7.87,6.26-.18,5.33,1,10.61,5.05,14.39,2.32,2.18,4.64-.43,6.8-1.53,1.38-.71,2.92-1.8,4.16-.24,1,1.31.62,2.88-.43,4.28C688.6,2724,685.25,2727.1,680.24,2727.55Z"/><path d="M439.94,83.94c.2-10.41,1.77-18.58,6.51-25.78,4.28-6.51,10.31-6.78,15.39-1,7.83,8.94,9.79,31.45,3.55,41.6-2.83,4.61-6.81,7.51-12.45,7.19-5.15-.29-7.81-4-9.83-8.1A30.06,30.06,0,0,1,439.94,83.94Zm5.95-2.85c.28,1.29.63,3.4,1.22,5.44,1.18,4.07,4.24,6.28,8.22,6.06,4.24-.23,7.05-2.72,7.58-7.38a31,31,0,0,0-1.54-13.16c-1.05-3.24-2.69-6.55-6.44-6.68-3.55-.12-5,3.32-6.45,6A21.09,21.09,0,0,0,445.89,81.09Z"/><path d="M163.53,58.5c-.08,1.35-.1,2.13-.16,2.9-.41,5.34-.82,10.83-7.12,12.68-4.92,1.45-12.1-2.41-14.69-8.34a43.23,43.23,0,0,1-1.65-31.82c1.41-4.21,3.37-8.24,5.19-12.31.53-1.19,1.05-2.95,2.61-2.81,2,.18,1.79,2.3,2.08,3.71,1.17,5.76-.13,11.17-2.7,16.34-3,6-3.3,11.94.21,17.79,1.57,2.62,3.75,4.86,7.12,3.71s3.28-4.24,2.84-6.91c-1.44-8.6-3.14-17.16-4.77-25.73a15.84,15.84,0,0,1,.43-6.92,3.05,3.05,0,0,1,2.78-2.61c1.79,0,2.17,1.58,2.32,2.87C159.44,33.78,162.81,46.23,163.53,58.5Z"/><path d="M464.09,414.68l23.16-3.29c2.3-.33,4.59-.79,6.91-1,2-.17,3.91.24,4.58,2.61.7,2.53-.34,4.31-2.7,5-5.62,1.6-6.72,5.5-6.4,10.74.34,5.6.07,11.25.09,16.87,0,2.56.14,5.08,2.64,6.69,2.32,1.49,3.9,3.42,2.4,6.29a6.83,6.83,0,0,1-7.23,3.8,5.57,5.57,0,0,1-5.42-5.14c-.51-3.25-.85-6.54-1.08-9.83-.43-6.19-.8-12.38-1.05-18.58-.2-4.6-1.74-6.82-6.92-5.53-3.7.92-7.65.88-11.5,1.18-3.42.27-6.34-.37-6.45-4.67s2-6.06,6.19-5.51Z"/><path d="M678.16,2281.9a34,34,0,0,1-12.71-.78c-16.6-4.73-23.57-22-15.09-37.22,4.33-7.79,16.2-11.49,24-7.35,3.13,1.67,4.33,4.48,3.1,7.85-1.28,3.53-4,3.13-6.72,1.84-3.83-1.81-8-4.86-11.64-.66-3.88,4.46-6.28,9.84-4.35,16.14a16.35,16.35,0,0,0,7.57,9.25c10.85,6.62,26.34,5.05,35.69-3.67,1.29-1.19,2.39-2.94,4.37-1.64,2.21,1.43,1.35,3.42.32,5.12-3.26,5.35-7.4,9.53-14.08,10.16C685.13,2281.27,681.65,2281.58,678.16,2281.9Z"/><path d="M776.14,429.11c3.1-.18,6.2-.41,9.3-.54,1.47-.06,2.76.39,3,2.09s-.93,2.49-2.32,2.87c-4.29,1.18-8.5,2.67-13,3-7.86.62-9.71,3.59-7.24,11.25.59,1.85,1.33,3.66,1.75,5.55.71,3.24.71,6.77-3.29,7.43s-5.15-3-5.46-6.09c-.55-5.6-.7-11.24-.91-16.87a109.12,109.12,0,0,0-2-15.6c-1.1-6.05.42-8.64,6.34-9.43,9.82-1.3,19.71-2.17,29.58-3.08,2.46-.23,5.45-.51,5.67,3.23s-2.27,5.06-5.62,5.05c-7.4,0-14.8-.08-21.87,2.58a30.1,30.1,0,0,0-4.73,2.24,3.53,3.53,0,0,0-1.54,4.55,3.34,3.34,0,0,0,3.63,2.3c2.92-.11,5.83-.26,8.75-.39Z"/><path d="M530,437.64c.27-11.53.89-10.51-12.63-10.47a41.22,41.22,0,0,1-6.39-.35c-2.35-.36-3.92-1.71-3.64-4.37.23-2.24.9-4.4,3.55-4.62q17.12-1.49,34.25-2.71c2.34-.17,2.72,1.84,2.94,3.61.28,2.37-.44,4.58-3,4.77-4.12.3-4.74,2.31-5,6.1-.5,8.89-2.29,17.66,3.58,25.82,1.91,2.65,0,5.54-3.19,6.95-3.41,1.52-5.71,0-7.21-2.84C530.16,453.49,529.65,446.94,530,437.64Z"/><path d="M271.72,2688.71c0-4.27,0-8.54,0-12.81,0-2.73.57-5,3.72-5.71s4.77.75,5.85,3.43c3.21,8,9.74,12.37,17.1,15.79,4.75,2.2,7.59.78,8.07-4.5.39-4.4-.29-8.89-.36-13.34,0-2.44-.6-5.69,2.87-6s3.65,2.79,3.69,5.35c.11,6.6.35,13.21.12,19.8-.23,6.81-3.54,9.23-10.42,7.79-5.56-1.16-10.49-3.93-15.38-6.75s-5.91-2.12-6.31,3.44a46.92,46.92,0,0,1-.91,8.07,4.18,4.18,0,0,1-4.74,3.44c-2.73-.31-3.33-2.2-3.31-4.59C271.76,2697.64,271.72,2693.17,271.72,2688.71Z"/><path d="M312.64,2242.46c-1.45,4.27-5.22,4.49-8,6-6,3.4-8,7.09-6.64,12.69,2.25,9,7.78,11.1,15.19,5.5,1.69-1.28,3.29-2.5,5.08-.79s1.14,3.74-.45,5.61c-7.77,9.08-19.29,7.18-23.33-4.1a48.48,48.48,0,0,1-2.59-11.9c-.71-7.92-.82-15.88-1.34-23.82-.24-3.73,1.06-6,4.88-6.56,10.57-1.45,21.19-2.54,31.56-5.21,2.33-.59,4.47.19,4.36,3.13-.14,3.84-2.66,5.8-6.19,5.37-7.77-.93-15,1.42-22.33,3.09-2.85.64-4.95,2-5.8,5-.69,2.43-.57,4.74.94,6.64,1.75,2.2,3.87.75,5.84,0C306.59,2242.25,309.36,2241.43,312.64,2242.46Z"/><path d="M530.24,65.67c0-3.49-.21-7,.09-10.47.15-1.78.51-4.2,3.18-4.12,2.36.07,2.29,2.27,2.67,3.9,1.26,5.37.81,10.84.8,16.27,0,7.67.74,15.16,4.89,21.86,3.42,5.5,5.82,5.74,10.36,1a34.88,34.88,0,0,0,8.6-16.9c.32-1.38.09-4.13,2.72-3.58,1.92.4,2.68,2.8,2.29,4.26-3.25,12.19-6.19,24.68-16.89,33-4,3.06-7.78,1.74-10.53-3.23-4.31-7.77-6-16.38-7.07-25.07-.7-5.58-.9-11.23-1.33-16.84Z"/><path d="M436.33,422.23c.4,4.44,1,8.87,1.17,13.32a25.21,25.21,0,0,1-6.05,17.22c-4.55,5.57-8.74,6.21-14.73,2.29a30.41,30.41,0,0,1-9.27-9.55c-4.56-7.31-5.9-15.55-7-23.86-.43-3.27,1.11-5.47,4.38-5.61s3.55,2.46,3.57,4.93c.08,8.77,4.55,16,8.56,23.26,2.73,4.95,7.54,4.64,10.52-.24,2.54-4.16,3-8.72,2.41-13.49-.52-4.23-.95-8.49-1.28-12.74-.19-2.45.07-4.89,3.33-5.07s4.29,2.11,4.52,4.86c.13,1.55,0,3.11,0,4.67Z"/><path d="M829.41,2692.41c-.49-5.53.83-10.36,2.72-15.1.88-2.2,2.22-3.94,4.79-3,2.34.88,2,3.08,1.56,5-.61,2.85-1.41,5.66-2,8.52-1.35,7.19,1.67,12.73,7.69,14.29s14.38-2.84,16-8.64c1.52-5.38-2.63-13.06-8.23-15.21a6.33,6.33,0,0,0-1.66-.5c-4-.33-8.42-1.29-7-6.17s6.21-3.49,9.86-2.16c9.52,3.46,15.86,14.86,13.78,24.4-1.92,8.84-12.81,16.8-22.34,16.34S829.22,2702.75,829.41,2692.41Z"/><path d="M361.23,2263.94c-11.61,1.1-17-7.61-23.42-14.36-1.2-1.25-.55-3,1-4,2.09-1.24,3.64-.33,5,1.45a19.85,19.85,0,0,0,12.39,8c1.75.35,3.58,1,4.55-1.08s-.65-3.22-2.15-4.15c-6.2-3.85-10.57-9.12-12.43-16.23a11.72,11.72,0,0,1,8.13-14.66c3.72-1,5.68.73,5,4.53-2.8,15.43-2.82,15.46,10.34,23.6,3.41,2.11,5.86,4.61,4.85,9-1.09,4.64-3.91,7.51-8.84,7.86C364.09,2264,362.52,2263.94,361.23,2263.94Z"/><path d="M94.8,414.62c1.52-4.85-1.63-10.7,1.83-13.77,3.65-3.25,8.15,1.62,12.46,2.21,5,.68,10.06.63,15.08.94,2.35.14,5.14-.16,5.1,3.18,0,3.13-2.84,3.38-5.15,3.44-4.84.13-9.71.26-14.53-.09-4.33-.32-6.46,1.48-7.44,5.51-1.69,6.88,1.31,15.69,6.52,18.58,6.44,3.56,14.31,2.12,20.12-3.79,1.23-1.25,2.1-3.14,4.16-1.35,1.75,1.52,1.67,3.39.59,5.25-3.76,6.5-16.84,11.58-24.17,9.43-8.3-2.44-12.13-8.67-13.54-16.58C95.06,423.21,95.1,418.7,94.8,414.62Z"/><path d="M200.62,2215.07c-7.88,0-16.16,4-25,5.09-1.46.19-2,1.68-1.88,3.21.27,2.35,1.82,3.32,4,3.48,4.83.35,9.72-.25,14.5.92,1,.26,2.65-.11,2.78,1.44.15,1.87-1.54,1.92-2.85,2.09-3.08.42-6.16.77-9.24,1.15-8.52,1.05-9.74,3.07-7.15,11.53.73,2.39,1.78,4.77,1.1,7.38-.51,1.92-1.07,3.92-3.49,4-2.24.11-2.94-1.84-3.3-3.45a126.26,126.26,0,0,1-3.12-15.93c-.67-6.74-.54-13.51-3.23-20-1.4-3.35.33-5.52,4-4.83,10.95,2.06,21.64,0,32.39-1.51a18.35,18.35,0,0,1,4.05-.2c2.24.18,4.59.86,4.36,3.6-.25,3.07-2.78,2.59-4.94,2.29C203,2215.33,202.38,2215.27,200.62,2215.07Z"/><path d="M879,434.78a20.1,20.1,0,0,1,20.93-20.22c9.82.26,18.22,10.58,18,22.07-.21,9.93-9.55,17.85-20.75,17.6C886.89,454,878.85,445.38,879,434.78ZM898,447c7.55.12,13.44-4.14,13.61-9.83.21-7.22-7.73-17.14-13.9-17.37-5.18-.19-12.06,8.83-12.09,15.85C885.62,441.76,891.23,446.91,898,447Z"/><path d="M732.31,2281.48c-3.95.23-6.46-2.1-8.79-4.85-6.6-7.79-8.35-17.35-9.89-27-.49-3.07-.92-6.15-1.37-9.22-.35-2.45.37-4.27,3-4.76s4,.89,4.49,3.36c1.33,6.27,2.64,12.54,4.07,18.79a40.4,40.4,0,0,0,2,6.66c2.82,6.62,7.9,8.57,14.73,6,5.73-2.2,9.46-6.6,13-11.34,1.2-1.61,2.32-4.28,4.93-2.88s1.51,4,.72,6.21C756.1,2271.08,741.34,2281.5,732.31,2281.48Z"/><path d="M194.71,403c-1.7,9.69-1.77,19.78-6.73,28.72-2.74,4.93-5,5.3-9,1.4-8.77-8.52-14.51-19.16-20.46-29.63-1.22-2.14-1.28-4.23,1.17-5.45,2.78-1.39,4.91-.14,6.35,2.34,3.31,5.71,6.49,11.52,10.73,16.63,1.44,1.73,2.57,4.6,5.16,4.13s2.56-3.63,3.19-5.74a41.84,41.84,0,0,0,1.65-12.66c0-2.62-.74-6,3.44-6S194.13,400.2,194.71,403Z"/><path d="M153.19,1372.91a49.12,49.12,0,0,1-.67,5.66c-.63,2.52-2.16,4.06-5,3.87-2.62-.17-3.87-1.79-4.08-4.12-.49-5.22-1-10.46-1.11-15.69-.27-11.1-.79-22.11-4.5-32.77-1.22-3.5-2-7.85,3.2-8.94,4.89-1,7.39,2.48,7.8,6.67.76,7.72.85,15.51,1.19,23.28S151.86,1366.26,153.19,1372.91Z"/><path d="M478.19,2241.71c-.18-2.71-.43-5.42-.52-8.13-.08-2.22,0-4.5,3-4.72,2.74-.21,4.59,1.2,4.89,3.89.5,4.63.77,9.29,1,13.94.62,11.87,6,16.37,17.87,14.66,2.11-.3,4.19-.9,6.31-1.14,1.72-.2,3.6-.34,4.16,2,.46,2-.19,3.57-2.11,4.24-5.66,2-11.21,4.51-17.45,4.06-10.87-.78-17.65-10-17.26-23.62.05-1.74.21-3.47.32-5.2Z"/><path d="M516.05,889.2c-.71,3.54.58,9.72-3.29,10-4.56.31-3-5.83-3.32-9-1.79-16.39-3.16-32.82-4.44-49.25-.26-3.27-1.21-8.71,2.73-8.91s3.12,5.31,3.46,8.49C512.93,856.65,514.45,872.87,516.05,889.2Z"/><path d="M343.82,96a27.94,27.94,0,0,1-.69,3.57c-.62,1.85-1.4,3.93-3.7,3.91-2.14,0-2.54-2.18-3.08-3.76-1.32-3.89-1.48-8-1.78-12Q333,66.8,331.49,45.93a30.46,30.46,0,0,1,.09-5.23c.21-2,.7-4.11,3.31-3.87,2.29.2,2.32,2.25,2.45,4,.76,11,1.56,22,2.27,33C340.1,81.45,342.43,88.68,343.82,96Z"/><path d="M634.05,900.61a19.13,19.13,0,0,1-.51,4c-.71,1.89-.74,4.83-3.47,4.73-2.53-.1-2.07-2.94-2.51-4.66-3.86-15.24-2.75-30.86-3.55-46.34a80.09,80.09,0,0,1-.16-9.29c.09-1.4.49-3.46,2.35-3.61s2.41,1.66,3,3.09c1.89,4.63,1.41,9.58,1.63,14.39C631.41,875.72,631.29,888.55,634.05,900.61Z"/><path d="M373.13,1721.33c8.37-.21,15.89-1.47,22.58-6,2.92-2,6.14-3.25,8.18,1.14,1.87,4-.31,5.93-4,7.3-7.59,2.86-15.15,5.76-23.15,7.33a17.6,17.6,0,0,1-6.31,0c-3.62-.57-5.66-2.3-5.3-6.17C365.77,1718.46,370.63,1722,373.13,1721.33Z"/><path d="M783.49,2272.69c-.37,2.61,0,5.42-3.1,5.89s-3.91-2-4.37-4.35c-1-5.13-2.07-10.26-2.71-15.44-.94-7.52-2-15-4.59-22.14-.92-2.55-.93-5.31,2.17-6.28,3.36-1,3.57,2.05,4.34,4.12,3.36,9,3.74,18.58,5.78,27.84C781.79,2265.91,782.71,2269.46,783.49,2272.69Z"/><path d="M235.53,2698.58a139.6,139.6,0,0,0-1.62-20.57c-.3-2.11-.72-4.21-.87-6.33-.16-2.43.93-4.17,3.48-4.54,2.86-.41,3.75,1.46,4,3.82.45,5,1,10,1.19,15.06.18,4.84-.1,9.65,2,14.25a5.87,5.87,0,0,1-.8,6.08c-1.51,2-3,4.78-5.78,4.09-3.29-.81-2.29-3.93-2.08-6.38C235.17,2702.51,235.31,2701,235.53,2698.58Z"/><path d="M954,2252.09c1.05-4.87-1.27-10.72-1.28-16.72,0-2.38-.11-4.86,3.17-5.2s4,1.88,4.25,4.34c.51,5,1.33,10,1.16,15s-1.21,9.56,3.12,13.42c1.65,1.47,1.25,3.68-.56,5.09-2.24,1.73-4.62,1.86-6.87-.12C952.35,2263.83,953.52,2258.48,954,2252.09Z"/><path d="M112,393.48H97.46c-2.19,0-3.95-.76-3.85-3.25.09-2.11,1.26-3.9,3.52-4,10.61-.23,21.24-.95,31.84.14a2.73,2.73,0,0,1,2.76,3.07c-.08,2.6-1.51,3.91-4,3.94-5.23.05-10.47,0-15.7,0Z"/></svg>