<svg xmlns="http://www.w3.org/2000/svg" width="1233.39" height="471.05" viewBox="0 0 1233.39 471.05"><title>c11-txt</title><path d="M1199.29,464c-6.58-.38-12.38-2.11-16.85-6.73-3.06-3.15-5.59-6.82-8.68-9.94-2.69-2.7-3.8-8.78-8.58-7.16-3.64,1.23-2.4,6.55-3,10.16-.92,5.34.24,14.11-7.11,13.17-6.89-.88-3.45-8.9-2.6-13.81,1.24-7.13,2.23-14.07-1.1-20.86-1.16-2.36-1.6-4.53.93-6.23,2.11-1.41,4.63-2.26,6.5-.2,2.94,3.22,5.06,2,7.53-.43,6-5.86,13.64-7.21,21.53-7.59,8.57-.42,11,2.95,8.36,11.29-1.61,5.14-5.1,8.75-9.62,11.37-5.06,2.93-4.59,6.05-.7,9.54,6,5.41,11.57,12,21.21,7.83,1.93-.82,4.8-2.58,6,.8,1,2.78-1.56,4.09-3.72,5.23C1206.07,462.16,1203.06,464.62,1199.29,464ZM1180,429.49c2.6-.76,6.88-1,6.93-5.77,0-3.46-3.22-2.56-5.33-2.38-3.72.31-7.78,1.33-8.09,5.59C1173.34,429.64,1176.81,429.44,1180,429.49Z"/><path d="M1029.14,445.3c0-13.88,6-22.95,17-25.64,2.6-.63,5.58-1.59,7.25,1.5,1.8,3.33,0,5.91-2.68,7.79-1.91,1.37-4.29,2.07-6.2,3.43-10.15,7.24-9.15,23.16,1.81,28.91,4.38,2.3,7.92,1.12,10.13-3.26s4.07-9.32,6.52-13.74c3.65-6.58,14.88-9.5,21.33-5.86,6.82,3.84,8.65,12.56,3.11,17.94-9,8.74-19.94,14.25-32.55,14.66C1038.38,471.57,1029.14,461.88,1029.14,445.3Zm53,5.3c.6-2.75-1.31-3.15-2.85-3.22-5.07-.24-9.31,1.23-10.76,6.74-.42,1.58,0,3.9,2.22,3.25C1075.17,456.1,1079.94,455.09,1082.18,450.6Z"/><path d="M688.69,325c-.65-5.64.36-11.15-2.28-16.25-1.27-2.47-1.88-5.46,1.35-7,3-1.44,5.36,0,6.42,3,2.08,5.91,5.07,3.56,8.36,1.25a20.58,20.58,0,0,1,17.35-3.4c3.64.9,8.85-.47,9.82,5.19.9,5.29-2.33,8.74-5.93,12.14-2.71,2.56-10.13,1.62-8.29,6.58,2,5.31,8.25,7.53,14.42,7.76,4.22.16,8-1.23,11.67-3,2.18-1,4.51-2.29,6.13.64,2.11,3.79-1.31,4.54-3.52,5.78-16,9-21.73,8.13-38-5.72-3.25-2.76-6.71-7.61-9,.64-.93,3.35-1.2,7.21-6.09,5.89-4.16-1.12-2.8-4.79-2.74-7.69C688.36,328.75,688.57,326.72,688.69,325Z"/><path d="M525.64,49.6c2.85-8.52,2.87-17.16-3.91-25-2.13-2.46-.66-5.14,1.84-6.91s4.72-.69,5.82,1.69c3.61,7.77,7.22,4.6,11.09.31a21.56,21.56,0,0,1,10.07-6.56c5.39-1.49,12-4.34,15.88,1.29,4.14,6,.33,12.22-3.26,17.7-1.91,2.91-8.54,3.69-4.58,9.24,3.37,4.72,7.11,9.38,14.12,7,2.19-.74,4.61-2.38,5.89,1,1.15,3-1.28,4.14-3.4,5.26-6.89,3.61-13.31,4.7-18.81-2.65a37.85,37.85,0,0,0-7.26-7c-9.33-7.2-10.5-6.72-14,4.2-1,3-1.42,7.22-5.91,7.14C525.44,56.22,525.65,53,525.64,49.6Zm33.17-27.17c-.85-3.13-3.24-2.82-5.56-2.39-4.46.81-9,2.13-9.35,7.48-.19,2.8,2.87,3.59,5.32,3C553.64,29.51,557.16,27.15,558.81,22.43Z"/><path d="M855.69,11c.18,7.14-2.27,11.42-6.82,13.39-8.51,3.68-5.48,7.54-.81,11.64,4.23,3.71,8.77,6.34,14.75,3.64a4.41,4.41,0,0,1,6.1,2.06c1.31,3.14-2,3.85-3.86,4.84-7.3,4-14.41,3.17-20.86-1.91-2.63-2.07-4.68-4.87-7.17-7.15s-3.77-7.52-8.28-6.19c-3.62,1.08-1.45,5.33-2.15,8.1s-1.92,5.26-5.13,5.44c-4,.23-3.72-3.21-4.19-5.7-1.51-8,1.62-16.65-5-24.17-2.33-2.67,1.52-8.09,5.94-5.78,5.35,2.79,7.92.06,11.56-2.46,5.88-4.09,12.46-4.6,19.4-2.84C854.08,5.12,855.68,8.3,855.69,11Zm-13.87-.48c-3.91.87-9.11.5-10.16,6C831,20,834,21,836.94,20.73c4.62-.4,8.85-2,9.9-7C847.56,10.41,844.49,10.44,841.82,10.49Z"/><path d="M1188.48,161.66c-2.25-5.72,2.67-12.54-3.48-18-2.38-2.1-.32-5,3.17-5.51,11.36-1.79,22.86-2.84,33.74-7,2.53-1,4.76.14,5.39,3,.74,3.37-1.25,5.17-4.21,5.81-6.28,1.34-12.64,2.36-18.93,3.71-2.9.62-6.66,1.1-6.2,5.23s4.28,3.64,7.21,3.46a69.86,69.86,0,0,0,20.76-4.54c2.51-1,5.6-2.81,7,.58,1.79,4.25-2.44,5-5.1,5.87-8,2.56-15.77,6.4-24.42,6.6-6.88.15-7.65,4.47-6.73,9.7,1.08,6.19,4.65,7.36,10.41,5.18,4.91-1.85,9.52-3.74,11.83-8.79,1-2.24,2-5.13,4.82-3.61,3.49,1.86,1.31,4.79-.24,6.84-2.43,3.22-4.87,6.64-8,9.07-6.25,4.85-13.57,9.48-21.43,5.52-7.53-3.81-6.32-11.93-5.63-19.11C1188.58,164.39,1188.47,163,1188.48,161.66Z"/><path d="M1019.48,163c.35,8.68-8.55,19.41-20.33,22-10.41,2.32-16.11,5.83-12.95,17.52.66,2.42,1,6.87-3.26,7.28-3.72.36-3.37-3.49-4-6-1.83-7.79-1.16-16.35-7.11-22.85,6.75-9.84-.31-19.57,0-29.32.1-3.12,5.07-5.62,6.46-1.78,2.88,7.94,7,3.95,11,2.44,8.22-3.06,16-.72,23.82,1.66C1017.7,155.42,1018.84,159.5,1019.48,163Zm-19-2.93a13.16,13.16,0,0,0-11.17,3.67c-4.2,4.22-8,9.69-4.2,15.3,3.67,5.39,8.42.06,12.54-1.24a22.72,22.72,0,0,0,6.19-3.44c3.45-2.49,8.65-4.23,7.67-9.63C1010.36,158.38,1004.23,161.7,1000.49,160.08Z"/><path d="M881,302.73c-.17-5.66,5.09-9.18,10.39-6.59,3,1.46,5.46,4,8.38,5.69,15,8.74,15,8.67,25.11-4.68,2.15-2.85,3.69-7.07,8.35-6.34,5.36.85,4.61,5.83,5.84,9.5,3.71,11.08,0,23,4.08,34.12,1.09,3-2.24,4.56-5.13,5-3.57.49-3.58-2.12-3.76-4.54-.57-7.43-1-14.86-1.82-22.26-.16-1.5-1.14-3.59-2.33-4.13-1.72-.8-3.12,1.06-3.6,2.62-2.78,8.95-8.42,9.08-15.81,5.77-8.18-3.67-16.51-6.82-16.79,7.6,0,2.28-1.87,3.56-4.14,3.67s-3.71-1.36-4.18-3.56C884,317.29,882.5,310,881,302.73Z"/><path d="M725,42.31c-2.56,5.52-4.56,10.06-6.74,14.5-1.61,3.27-4,5.26-8.08,4.84s-6-2.94-7.08-6.34c-3.54-11.63-3.36-24.12-8.37-35.45-1.06-2.38.68-4.61,3.45-5.22,3-.66,4.57,1,5,3.68,1.3,8,2.38,16.06,3.64,24.07.56,3.53.13,8.5,5.15,8.48,4.11,0,4.24-4.47,5-7.77,1.19-5-.81-12.52,5.63-14s7.27,6.63,10.94,10.13c2.91,2.78,5,6.38,7.64,9.49,1.87,2.21,3.25,6,7,4.6,4.07-1.54,3.06-5.6,2.82-8.87-.41-5.74-1.19-11.45-1.61-17.19-.22-2.93-1.12-6.45,2.72-7.84,1.8-.65,4.59-1.26,5.79-.36,3,2.23.77,5.4.52,8.34-.73,8.41-.57,16.9-1.35,25.31-.38,4.2-.66,9.21-6.1,10.65-5,1.32-8.35-1.7-11.41-5C734.87,53.16,730.2,48,725,42.31Z"/><path d="M1128.13,18.58c.12-7.07,2.88-11.63,9.69-12.81,9.67-1.68,19.37-3.18,29-4.75,3.05-.5,5.57-.05,5.71,3.72s-2.42,4.28-5.35,4.65c-7.71,1-15.41,2-23.11,3.13-2.8.39-6,1.4-5.54,4.65.56,3.93,3.9,2.45,6.54,2,5.29-.9,10.87-.31,15.68-3.5,2-1.35,4.68-2.42,5.93.7,1.43,3.56-1.55,4.86-4.18,5.58a135.25,135.25,0,0,1-14.82,3.41c-7.32,1.14-9.58,4.85-8,12.06,1,4.77,1,10.32,7.39,10.13,7-.22,9.84-5,9.64-11.8-.08-2.87-.64-7.47,2.94-7.32,4.28.17,3.65,4.89,3.41,8.21a23.24,23.24,0,0,1-7.9,16c-9.27,8.34-17.73,6-21.19-5.77A155.81,155.81,0,0,1,1128.13,18.58Z"/><path d="M452.43,170.91c-.15,2.85,2,8.19-3.49,9.28-5.64,1.12-5.45-4.87-6.89-8.27a135.31,135.31,0,0,1-5.42-15.24c-1.3-4.48,2.63-9.26,5.1-7.3,6,4.73,8.4-.06,12.34-2,9.13-4.54,34.25,7.2,36.82,17.13.93,3.63,1.2,7.54-1.71,10.56-9.14,9.44-19.57,16.67-33.09,18-3.65.36-8.45.75-8.94-4.14-.53-5.31,4.7-3.52,7.57-4.1,9.1-1.82,17.47-5.05,24.82-10.85,5.58-4.39,4.87-8.4-.6-12a43.85,43.85,0,0,0-9-4.64C456.2,152.27,452.08,155.3,452.43,170.91Z"/><path d="M1094.52,24.25c-4.32,17-13.16,18.38-25.91,7.31,0,7,.38,11.37-.12,15.62-.35,2.92-1.55,6.36-5.47,6.15s-3-3.81-3.51-6.29c-1.73-8.82,1.49-18.34-4-26.71-1.17-1.77.73-3.84,2.42-5a5.16,5.16,0,0,1,6.59.25c4,3.14,8.06,6.22,11.73,9.71,4.53,4.32,8.08,4.46,11-1.51a13.7,13.7,0,0,1,1.51-2.64c3.43-4.21,4.2-13,11-11.39,6.33,1.52,3.91,9.88,5.28,15.19,1,3.86.56,8.08.8,12.14.17,2.72.16,5.53,4,5.93,2,.2,5.75-1.61,4.81,2.63a10,10,0,0,1-8.42,7.85c-3.4.58-5-1.6-5.52-4.57-1.3-7.25-2.49-14.53-3.73-21.79Z"/><path d="M179.42,180.23c0,8.45.32,13.39-.14,18.27-.2,2.22-2,4.76-4.6,4.7-3-.06-3.26-2.88-3.46-5.28-.79-9.75-2-19.49-2.2-29.25-.13-5.68,3.51-7.24,8-3.66,4,3.13,7.39,6.92,11.07,10.41,5.09,4.83,9.91,5.08,14.72-.56,2.62-3.08,5.64-5.82,8.46-8.74,1.79-1.85,2.9-5.31,6.14-4.22,2.29.76,2.55,3.72,3.24,6,2.93,9.59,0,20.22,5.76,29.47,1.46,2.33-1.53,6-4.79,6.58-3.5.67-4.62-2.5-5-5.13-.75-5.67-.76-11.44-1.57-17.1-.65-4.54-3.13-6.25-6.53-2C200.44,189.83,191.68,194.41,179.42,180.23Z"/><path d="M346.23,167.26a23.56,23.56,0,0,0,1.77,13c3.71,8.26,8.26,9.56,16.07,4.65,2.63-1.66,5.53-6.39,8.4-2.73,3.55,4.54-2.53,6.07-5,8.08-12.47,10.33-18,9.57-26.62-3.59-2.42-3.69-4.1-4.87-7.62-1.22-5.44,5.63-11.44,11.79-20.11,8.63-9.07-3.3-9.05-12.7-10.95-20.44-.79-3.26-.8-6.72-1.13-10.09-.29-3.11.85-5.59,4.08-6,3.73-.44,4.25,2.45,4.44,5.33.34,5.41.41,10.82,2.17,16.06,1.9,5.68,5.06,7.53,10.79,4.82,8.09-3.82,14.78-8.56,14.38-18.73-.17-4.16-.87-9.45,4.67-9.37s4.06,5.88,4.58,9.65A7.8,7.8,0,0,1,346.23,167.26Z"/><path d="M669.59,291.51c3.09-.59,5.62.23,5.82,3.7s-2.53,4.37-5.47,4.4A71.79,71.79,0,0,0,649,303.24c-2.11.66-3.89,1.71-3.4,4.16.56,2.78,3,2.31,4.92,2,5-.79,10-1.81,15-2.76,2-.38,4.46-1.2,5.16,1.39s-1.91,2.92-3.76,3.44c-5.53,1.55-11.11,2.93-16.58,4.68-3,1-7.18,1.13-6.89,5.93.31,5.32-.82,11.42,3.92,15.17,4.1,3.25,7.52.52,10-3.32,1.22-1.89,2.22-4.86,5.22-2.29,2.4,2.06,1.17,4.35-.49,6.19-4,4.41-7,10.5-14.46,9.45-7.86-1.11-10.11-7.24-11.39-13.75s-1-13.11-4.34-19.52c-2.92-5.6,3.48-16.62,9.69-18C650.81,294.05,660.25,293,669.59,291.51Z"/><path d="M414,318.79c-.06,13.31-9.77,27.57-21.41,31.78-7.64,2.77-12.57.56-14.47-7.42-2.34-9.83-4.47-19.72-6.68-29.58a7.84,7.84,0,0,1,.64-5.86c3.32-5.91,15.42-9.86,23.7-7.64C407.2,303.12,414.07,310.18,414,318.79Zm-31.12.95c.66,4.06,1.08,8.46,2.14,12.7.94,3.76-2.42,9.29,1.77,11,5,2.1,8.16-3.51,11.64-6.4a29.56,29.56,0,0,0,8.3-11.35c2.15-5.09.27-9.39-3.6-12.68a17.25,17.25,0,0,0-16.09-3.85C381.79,310.64,383.24,315.56,382.92,319.74Z"/><path d="M624.32,22.86c-5,9.54-13.11,7.87-19.41,9.92-3.89,1.27-9.37-.6-10.07,5.9-.59,5.44.84,10.22,5.68,13.2s8.27-.26,11.65-3.16a12.31,12.31,0,0,1,5.26-3.18c.14,7.62-4.15,12.6-10.8,15s-13,1-16.33-6.13c-5.17-11.16-4.34-23.11-3.49-34.92.23-3.12,2.82-5.62,5.71-6.68,10.21-3.76,21-5.26,31.68-6.59,2.08-.26,4.3.25,4.52,2.86.29,3.35-1.71,5.21-4.9,5-8.42-.61-15.67,3.91-23.67,5.1-2.21.33-5.44.76-5.12,3.77.43,4,4,2.74,6.47,2.5C608.53,24.72,615.53,23.85,624.32,22.86Z"/><path d="M1095.61,456.6c1.58-9.64,3.36-19.25,4.68-28.93.82-6,5.56-4.77,9.18-5.75,3.9-1.05,7.76-2.67,10.44,2.48,3.88,7.45,9.51,11.24,18.24,7.62,1.83-.76,4.35-.9,5,1.67s-1.86,3-3.6,3.95c-2.83,1.49-8.9,1.45-4.73,7,3.17,4.21,3.2,7.74-1,10.15-5.4,3.1-6.74-2.57-8.83-5.54-5.35-7.6-12.35-7.22-16.55,1.19-1.5,3-2.67,6.17-4.17,9.17-1.21,2.43-2.7,5.31-6,4C1095.48,462.38,1095.07,459.44,1095.61,456.6Z"/><path d="M951.77,157.87c-2.83,10.44-.73,20.73,4.85,30.59,1.56,2.76,2,6-2.16,7.39-3.45,1.13-6.28-.19-7.34-3.5a155.41,155.41,0,0,1-5-18.57c-1.14-6-4.27-8-10-6.71-4,.88-8,1.51-11.86,2.63-6.75,1.94-9.48,6.08-6.55,13a31.89,31.89,0,0,1,2.21,6.7c.4,2.28.67,4.89-2.34,5.95-3.32,1.16-5.26-.83-6.37-3.43a26.08,26.08,0,0,1-1.54-6.83c-.72-5.7-1.15-11.43-2-17.12-.5-3.47-3.82-7.07.05-10.27,4.34-3.59,5.33,3.07,8,3.12,11,.17,22.3,1.12,31.36-7.15,1.77-1.61,3.27-3.82,6-2.64S951.61,154.84,951.77,157.87Z"/><path d="M1168.61,296.12c-.31-6.35,2.44-9.54,7.14-10.87,14-4,29-2.06,42.71-8,2.22-1,4,.9,4.11,3.16.1,2.75-1.88,4.15-4.47,4.61-7.33,1.29-14.68,2.47-22,3.86a108.87,108.87,0,0,0-11.83,2.84c-3,.95-5.89,3-5,6.58,1,3.86,4.53,3.79,7.53,2.71,7.93-2.83,16.14-1.22,24.2-1.86,2.47-.19,6-1.39,6.26,2.8.19,3.76-2.68,5.27-6,5.39-6.76.24-13.48,0-20.19,1.68-5,1.25-8.3,2.39-6.07,8.68,1.26,3.54,1.17,8.35-3.46,9.12s-6.51-4-6.54-7.47C1174.9,310.59,1170.4,303.17,1168.61,296.12Z"/><path d="M401.69,154.06c6.43,3.73,12.18.16,18.22.6,1.57.12,3.66-.25,3.83,2.17S422,159,420.33,159.2c-8.61,1.27-16.34,6.72-25.53,5.4-2.33-.33-4.06.68-4.21,3.18-.25,4.52.47,8.85,4.06,12.06,2.3,2.06,4.87,4,8.15,2.1a28.49,28.49,0,0,0,4.69-3.82c1.74-1.63,3.61-2.1,5.31-.33a3.5,3.5,0,0,1,0,4.66c-3.82,4.81-7.73,9.72-14.63,9.78-6.17.06-10.09-3.52-12.4-8.91-2-4.65-4.26-9.2-4.81-14.37-1.46-13.62,1.72-18.16,15-20.91,6.94-1.43,13.75-3.88,21-3.29,2.39.19,6.23-1.54,6.71,2.33.56,4.49-3.78,3.94-6.52,4.48C412,152.56,406.84,153.24,401.69,154.06Z"/><path d="M883,17.29c8.56,5.44,16.61,1.19,24.75,1.11,2.21,0,5.18-1.33,6,1.74s-2.3,3.64-4.47,4.26c-5.2,1.46-10.42,2.86-15.69,4.05-3.49.79-7.45,1.52-5.37,6.21,1.51,3.43,1.7,9.75,8.49,7.25,2.63-1,5.32-2.62,6.52,1.32.94,3.09-1.36,5.11-3.72,6.5-6.42,3.78-12.1,2.18-15.61-3.95-4.51-7.87-9.52-15.92-11.69-24.55-1.94-7.69,6.69-11.46,11.95-14,7.7-3.8,16.74-4.91,25.26-7,2.51-.6,4.72,0,5,3.33S912.87,8.4,910,9.26C901,11.91,892,14.61,883,17.29Z"/><path d="M568,322.78c-.38-4.88-1.15-8-.74-10.94.69-5.12,4.08-6,8.06-3.36,9.69,6.33,25,3.46,29.64-6.09,1.33-2.73,2.77-3.53,5.42-2.92a6.62,6.62,0,0,1,5.57,6.37c.5,6.41.82,12.83,1.27,19.24.28,4,.28,8.14,1.12,12.06.77,3.6,1.71,7.32-2.86,8.11-4.8.81-5-3.7-5.37-6.92-.61-5-.68-10.12-1.09-15.18-.56-7-3.88-9.78-10.87-7a67.47,67.47,0,0,1-8.64,2.91c-14.14,3.59-14.24,3.58-10.06,17.74,1,3.54.48,6.21-2.92,7.45-3.73,1.37-4.57-2.08-5.52-4.42A46,46,0,0,1,568,322.78Z"/><path d="M994.55,304.78c-6.67,8.06-13.51,8.23-19.32,10.31-3.82,1.37-7.12,2.58-6.94,7.26.11,3,.42,6.17,3.65,7.84,4.5,2.33,6.7-1.32,9.48-3.59,2.37-1.94,4.57-6.93,8-3.37,3.18,3.34-1.12,5.88-3.66,7.91a67.85,67.85,0,0,1-9,6.51c-7.37,4.1-12.68.94-15.27-6.09-3.63-9.86-1.39-20.82-5.08-30.86-1.08-2.95,1.58-5,4.67-5.32,11.43-1.13,22.5-5.06,34.17-4.2,2.9.21,6.89-.7,6.49,4-.35,4.2-4,2.62-6.42,2.39-8-.77-15.41,1.56-22.78,4.07-2.19.75-4.57,2.08-3.41,5.17,1,2.61,3.15,1.81,5.14,1.46C980.09,307.22,986,306.24,994.55,304.78Z"/><path d="M1072.59,159.48c-8.36,5.31-7.63,9.54-4.14,14.2a34.1,34.1,0,0,1,3.75,7.16c1.28,3,1.67,6.19-2.21,7.56-3.54,1.24-4.63-1.56-5.63-4.18a15.37,15.37,0,0,0-1.3-2.75c-2.25-3.68-.88-10.34-7.7-10.28-6.59.05-11.54,3.25-14.63,9.19a49.57,49.57,0,0,1-3.14,5.18c-1.53,2.25-3.22,4.89-6.42,3.55-3.7-1.54-2.92-4.78-2.08-7.82,2.07-7.48,4.47-14.88,6.08-22.46,1.57-7.34,7.16-9.21,13-11s6.63,3.69,8.54,6.67C1059.85,159.34,1064.5,159.17,1072.59,159.48Z"/><path d="M968.81,429.21c.19,3.88.31,5.24.32,6.59,0,5.65,1.92,12.41-3.93,15.79-6,3.48-11.72,0-16.67-4-4.7-3.79-8-3.16-9.32,3.09-.65,3.17-1.65,6.71-5.17,6.48-4.63-.29-3.56-4.81-4.06-7.95-1.07-6.6,0-13.42-3.38-19.83-2.16-4.05-.17-8,4.18-10,4.89-2.23,5.43,2.26,7.05,4.95A44.4,44.4,0,0,0,953.3,440.1c5.87,3.46,9.49,3.18,9.63-4.88.07-4.46.09-8.77-2.13-12.83-1.55-2.83-2.37-5.85.46-8.33a5.44,5.44,0,0,1,5.78-.58c3.3,1.45,2.21,4.53,2.16,7.1C969.13,424.3,968.87,428,968.81,429.21Z"/><path d="M311.79,320.4c-.63,1.19-.9,2.57-1.52,2.75-7.63,2.21-14.41,4.5-6.8,14.22,1.29,1.65.59,4.81-2.06,6-3.14,1.47-4.07-1.07-5.12-3.2-.9-1.82-1.87-3.59-2.72-5.42-1.49-3.24-3.22-6-7.51-5.33-4,.62-5.39,3.53-6.51,6.89-2.14,6.4-4.34,12.78-6.7,19.1-.81,2.18-2.05,4.79-5,4.13-3.61-.83-3.32-4-2.57-6.63,1.31-4.53,5.43-9.75,4.22-13.24C266,329.59,273,323.56,276.2,316c1-2.42.87-5.33,1.52-7.95a5.39,5.39,0,0,1,4.88-4.48,4,4,0,0,1,4.3,3.55c2.39,13.05,11,14.83,22,12.5C309.66,319.45,310.58,320.05,311.79,320.4Z"/><path d="M604.26,170.89c1-4.53-1.15-8.65-1.88-12.92-1-5.73.12-8.9,6.81-9.39,10.78-.8,21.49-2.49,32.25-3.64,2.85-.31,6.71-1.33,6.8,3.44.08,4.3-3,4.22-6.42,4.15a104.12,104.12,0,0,0-23.2,2.11c-6,1.22-7.85,5.25-7,10.42,1.1,6.37,5.8,2.46,8.93,2.26,5.73-.39,11.42-1.37,17.14-1.83,2.73-.22,6.87-2,7.15,2.8.23,3.93-3.54,4.6-6.59,4.7-5.81.19-11.34,1.55-16.92,3-5.28,1.37-8.29,3.26-6.56,9.72.92,3.44,1.94,9.39-3.76,9.85s-4.31-5.31-3.9-8.43C607.91,181.25,600.37,177.11,604.26,170.89Z"/><path d="M1192.67,64.31c-7.6-.1-13.6-3.13-19.49-6.61-2.42-1.43-3.74-3.38-2.26-5.78,1.63-2.63,4.33-1.65,6.22-.18a18.41,18.41,0,0,0,18.16,3.19c2.07-.68,5.15-.8,5.2-3.8,0-2.26-2.42-3-4.19-3.89-5.2-2.54-10.19-5.31-14.13-9.71-5-5.51-7.14-11.46-3.39-18.51,4-7.53,10.2-11.59,18.82-11.58,2.48,0,4.76.59,5.27,3.62.58,3.43-2.08,3.77-4.29,4.45-5.09,1.56-11.17,1.89-11.71,9.14-.56,7.58,5.16,10.4,10.51,13.43.59.34,1.26.53,1.81.92,5.25,3.69,14.35,5.3,11.71,14.17C1208.41,61.6,1200.28,63.72,1192.67,64.31Z"/><path d="M776,19.19c4.11,5,7.91,3,11.81,1.92,2.36-.66,5.6-2.26,6.43,2,.58,2.93-1.6,4.2-3.94,5-3.52,1.26-9.52-.95-9.88,4.69-.37,5.93,1.13,12,2.09,18a3.32,3.32,0,0,0,3.84,2.6c3-.39,4.33-2.79,5.88-5.07,1.8-2.67,1.15-9.51,6-7,4.62,2.35.21,7.28-1.34,10.6-2.58,5.5-5.73,11.8-13,10.92s-9.23-7.68-9.81-13.75c-1-10.74-7.45-20.31-6.18-31.54.48-4.3,1.63-6.65,6.12-7.77,8.33-2.07,16.82-1.17,25.2-2.13,2.17-.24,4.17.77,4,3.34-.11,2.38-1.9,3.35-4.17,3.41C791.34,14.61,783.69,15.34,776,19.19Z"/><path d="M249.79,166.68c5.14,4.44,9.71.41,14.5.27,1.87-.06,4.38-1,4.79,2,.3,2.29-2.06,2.23-3.47,2.89-1.84.85-3.76,1.53-5.58,2.44-3.72,1.85-9.67,1.67-9.63,7.41,0,5.54,3.17,10.62,7.25,14.08,5,4.22,6.88-.62,8.58-4.4,1.09-2.41,1.73-5.85,5.47-3.92,2.82,1.45,1.33,4.05.53,6.25-2.32,6.41-5.74,11.67-13.41,12s-10.87-5-12.81-11c-2.83-8.64-6-17.31-5.19-26.71.57-6.79,2.53-11.21,10.93-11.37,7.32-.14,14.59-2.59,21.89-4,2.26-.43,5-1.53,6,1.72,1.06,3.81-1.78,4.44-4.68,4.83C266.2,160.34,258.73,165.7,249.79,166.68Z"/><path d="M431.75,47.76c-1.4,3.6,5.17,11.77-2.16,12.75-8.4,1.12-5-8.41-6.23-13.26-1.69-6.84-2.18-14-3-21-.3-2.5.38-4.87,3.15-5.62,2.12-.56,3.63.35,5,2.27,5.5,7.44,15.11,7.9,21.38,1.38,1.88-2,2-6.69,6.24-5.17a9.63,9.63,0,0,1,6.39,8.48c.75,8.67-.41,17.57,3.83,25.79,1,1.93-.3,4-2.54,4.79-3.3,1.17-5.61-.8-6.31-3.42a148.86,148.86,0,0,1-2.88-15.91c-.63-4.06-2.21-6.35-6.74-4.51C441.38,36.93,431.09,34.61,431.75,47.76Z"/><path d="M351.7,328.67c2.08-7.94-2-13.6-3-19.77-.48-3.09-.07-5.57,3.83-5.41,2.79.11,6.72,1.15,5.7,4.1-2.64,7.65,1.36,13.86,2.92,20.6.72,3.09,1.27,6.48-1,8.71-3,2.92-6.36.7-9.33-.86-6.27-3.3-12.66-6.42-18.64-10.19-4.41-2.78-5.68-.82-5.18,3,.54,4.07,1.29,7.93-.29,11.94-.77,2-1.27,4.3-3.62,4.25a4.69,4.69,0,0,1-4.73-4.46c-.8-9.74-.12-19.59-2.77-29.19-.67-2.41,1.3-4.61,3.64-5.51,3-1.16,5.19.7,6.91,2.94C332.85,317.55,341.75,323.23,351.7,328.67Z"/><path d="M494,63.29c-5.83-.17-9.77-2.66-11.58-8.24-3.95-12.19-2-24.62-1.5-37,.13-2.87,2.76-3.71,4.93-4.5,6-2.19,12.14-4.19,18.21-6.27,3.06-1,6.32-1.86,7.39,2.33,1,4-2.2,5.15-5.23,6-4.21,1.24-8.48,2.3-12.65,3.69-1.86.62-4.12,1.66-3.5,4.2s2.8,3.61,5.51,3.15c.33-.06.67-.11,1-.15,4.45-.67,11.9-4.29,12.68-.24,1.28,6.64-7.34,4.56-11.46,6.34-7.95,3.44-11.53,10-8.37,18.16,2.25,5.8,7,5.81,12.48.08,1.4-1.46,1.95-5.3,5.07-2.78,2.13,1.73,1.28,4.54-.11,6.52C503.65,59.16,499.85,63,494,63.29Z"/><path d="M802.93,305.29c-3,.14-6.07.39-9.11.39-2.75,0-5.57-.1-5.66-4-.08-3.37,1.65-4.93,4.82-5.25,15.4-1.54,31.13-.81,45.89-6.77,1.66-.67,3.5-.42,3.93,1.76.47,2.4.21,4.66-2.08,6.29-4.09,2.92-12.37,1.91-11.64,9.19.87,8.56.53,17.72,5.42,25.39,2.41,3.77,3.73,7-1.3,8.81-4.53,1.61-6.92-1.79-7.91-5.68a139.37,139.37,0,0,1-2.64-13.92C820.14,304.63,819.91,304.4,802.93,305.29Z"/><path d="M723.64,183.87c0-1.68.12-3.37,0-5.05-1.52-19.22,3.56-21.31-20.84-19.64a29.26,29.26,0,0,1-7.06-.34,4.48,4.48,0,0,1-3.87-5.11c.16-2.47,2.07-3.54,4.17-3.64,14.5-.73,29-1.1,43.41-3.37,2.22-.35,4.26.31,4.4,2.89.15,3-1.37,5.57-4.58,5.6-8.12.07-7.9,5.46-7.85,11.18q.14,16.74-.1,33.47c0,2.5.54,5.91-3.65,5.81-3.48-.09-4.43-2.64-4.47-5.59-.07-5.4,0-10.81,0-16.21Z"/><path d="M1008.17,432.31c-3.06,4.09-7.19,3.9-10.42,5.53-4.35,2.2-5.82,5.48-4.27,10,1.13,3.33,1.4,7.95,7.21,4.38,2.26-1.39,3.62,1,3.84,3.2.49,4.79-2.54,7.46-6.2,9.6-3.1,1.81-6,1.62-7.75-1.78a73.65,73.65,0,0,1-3.61-9.45c-1.75-5.11-1-10.84-7.8-14.11-4.66-2.23,2.11-21.32,7.72-22,8.7-1.12,17.63-.11,26.19-2.86,2-.65,4.18-.06,4.81,2.41.74,2.9-.82,4.56-3.53,5.07-6,1.12-12,2.11-18,3.15-2.41.42-5.09,1-4.58,4.14s3.45,2.34,5.73,2.39C1000.74,432,1004,430.34,1008.17,432.31Z"/><path d="M1128.49,324.52c-11.49-.07-17.67-6.2-16.87-16.74.92-12.23,11.62-23.8,20.79-22.48,4.75.68,20.29,17.45,20.52,22.14C1153.32,315.4,1140.17,324.59,1128.49,324.52Zm4.27-25.27c-7,0-11.87,2.51-12.25,8.94-.32,5.45,3.35,8.77,9.14,8.24,6.21-.57,13.32-2.16,13.94-9.11C1144.19,300.58,1137.64,299.44,1132.76,299.25Z"/><path d="M1001.27,326c9.17.88,15.26,7.84,23.51,5.8,2.57-.63,6.36.19,7.2-2.62,1-3.46-3.07-3.93-5.24-5.06-5.18-2.7-10-5.74-13.49-10.51-4-5.45-7.23-11.17-2-17.45,5.49-6.62,12.54-10.22,21.45-8.84,1.7.26,3.37,1.09,3.62,3s-1.22,3.08-2.85,3.69a44.73,44.73,0,0,1-4.88,1.25c-4.87,1.19-9.3,3.47-10.21,8.68-.87,5,3.22,8,6.82,10.46,4.72,3.24,9.79,6,14.73,8.88,5.83,3.46,6.25,8.9,1,12.72C1029.13,344.43,1010.23,340.26,1001.27,326Z"/><path d="M882,156.34c-4.24,12.35-4.36,25.88-.29,39.59,1,3.51-1.71,5.84-5,6.32-3.89.55-5.56-2.39-5.73-5.6-.4-7.73-.33-15.49-.5-23.24-.25-10.94-1.47-11.94-11.8-9.32-4.89,1.25-9.71,2.77-14.56,4.18-3,.87-5.55.16-6.66-2.83s.6-5.38,3.36-6.42c12.08-4.54,24.92-5.69,37.48-8.05C881.29,150.4,882.57,152.12,882,156.34Z"/><path d="M883.23,421c-1.86,15.2-2.79,29.48-9.78,42.32-5,9.23-11,9.63-16.38.83-6.5-10.68-12.56-21.62-19-32.37-2.08-3.51-3.7-6.93.86-9.46s5.81,1.78,7.22,4.56c4.25,8.45,8.21,17,12.36,25.55,1.3,2.66,2.19,6.2,6,6.06,3.5-.13,5.33-3,6.14-6,2.61-9.62,8-18.93,3.73-29.42-1.14-2.78-1.19-5.35,1.34-7.31,1.56-1.21,3.38-2.44,5.47-1C883.93,416.57,883.21,419.46,883.23,421Z"/><path d="M1103.33,144.7c3,0,6.69-.48,7.73,3.14,1.16,4-2.81,5-5.4,6.11-8.91,3.63-7.15,8.35-1.56,13.37,3,2.69,6.44,4.86,9.61,7.34,7.76,6.08,7.21,13.75-1.27,18.62-13.4,7.67-26.59,3.2-27.46-9.41-.17-2.42-1.46-5.8,2.44-6.64,3.18-.68,3.64,2,4.45,4.28,1.05,2.91,2.58,5.59,5.73,6.7,4.75,1.68,9.25.24,11.53-3.69s-2.57-4.66-4.84-6.17c-5.13-3.42-9.65-7.43-12.83-12.73C1085.1,155,1090.87,144.9,1103.33,144.7Z"/><path d="M832.31,177.43c-.32,9.92-13,19.68-24.93,19.1-10.68-.52-17.73-7.45-17.27-17,.61-12.35,7.65-18.57,20.48-18.08C824.34,162,832.61,168.07,832.31,177.43Zm-23.14,10.9c6.76.17,14.88-4.88,14.68-9.81-.3-7.48-6-8.9-12.07-9.05-7-.17-12.16,3-12.64,10.1C798.73,185.66,803.44,188.1,809.17,188.33Z"/><path d="M537.49,171.79c-.09-12.76,7.71-22.44,18.26-22.65,10.91-.23,24.48,10.3,24.4,18.93-.1,9.8-13.58,20-26.75,20.32C543.33,188.61,537.57,182.59,537.49,171.79Zm16.67,8.79c8.34.3,19-6.68,18.33-12.49-.77-6.84-6-9.28-12.11-9.76-8.84-.68-14.33,4.3-14.87,12.53C545.09,177.26,548.14,180.14,554.16,180.58Z"/><path d="M138.87,196.86c-7.85-4.5-11.45-9.73-15-15.09s-5.08-10.62-.52-15.75c5.1-5.72,11.69-9.28,19.56-8.94,3.66.16,4.35,2.75,2,5.66a8.73,8.73,0,0,1-2.44,1.75c-16.35,9.87-16.42,15.22.13,26,3.94,2.57,7.6,4.88,6.36,10.16s-6.06,6.28-10.35,6.54c-10.51.62-20.06-2.21-27.58-10-2.15-2.23-4.28-5.15-1.27-7.88,3.22-2.91,4.59.89,6.21,2.69C121.67,198.3,128.2,200.84,138.87,196.86Z"/><path d="M462.89,328.92c.34-15.58,5.56-22.11,17.41-21.8,13.46.37,22,7.68,21.82,18.75-.15,10.7-11.79,22.62-22.05,22.57C469.6,348.38,462.64,340.48,462.89,328.92ZM495,325.66c-1.43-4.16-1-10.54-8.79-10.49-11.58.08-15.73,3.3-15.89,12.19-.13,7.36,3.58,11.48,10.65,12.21C487.67,340.26,495,333.09,495,325.66Z"/><path d="M1157.56,139.79c1.47-.07,3.74,1.29,4.7,4.83,3.76,14,.33,29,5.63,42.86.8,2.1-.79,3.91-3,4.51a4.33,4.33,0,0,1-5.15-2.19c-2.1-3.57-2.71-7.59-3-11.62-.4-5-.32-10.13-1-15.14-1.64-13.11-3.84-14.41-16.29-10.26-3.83,1.28-7.62,2.77-11.53,3.71-2.83.68-6.44,1.6-7-3-.38-3.14.09-6.22,4-7C1135.17,144.32,1145.4,142.26,1157.56,139.79Z"/><path d="M994.22,7.79c5.4-.35,10.8-.78,16.21-1,2.49-.11,4.91.52,5.37,3.45.51,3.23-1.9,4.23-4.39,4.23-12.87.05-12.49,7.24-10,16.82,1.66,6.45.44,13.54,3.1,20,1.22,2.93,1.06,5.53-2.37,6.49-3.16.88-5.4-1.07-6.13-3.9a28.5,28.5,0,0,1-.46-8.06,53.54,53.54,0,0,0-1.95-17.09c-3.27-11.23-7.2-13.46-18.43-10.65-3.51.88-8.19,3-9.48-2s3.8-5.9,7.32-6.41c7-1,14.14-1.35,21.21-2Z"/><path d="M758.68,164.11c10.35.22,23.7,11.61,23.52,20.06-.16,7.88-10.65,16.35-20.23,16.34-10.06,0-17.39-9.64-16.92-22.2C745.38,169.5,750.71,164,758.68,164.11Zm4.55,27.83c5.65-.38,11.28-1.87,10.65-7.47-.78-6.94-7-10.45-13.62-11.32-5-.65-7.16,3-6.77,7.77C754,187.27,756.61,191.82,763.23,191.94Z"/><path d="M396.06,47.7c0-.42-.19-1.76-.25-3.1-1-20-1-19.91-20.79-19.87-2.76,0-7,1.66-7.61-2.47-.78-5.24,4.28-4.25,7.2-4.58,9.75-1.11,19.37-2.69,28.61-6,3.07-1.12,6-2.08,7.45,2,1.21,3.42.23,6.12-3.6,6.83-5.75,1.06-5.08,4.93-4.8,9.23.65,10.08.88,20.19,1.24,30.29.13,3.44-1,6.3-5,6s-3.11-3.71-3.06-6.26C395.54,56,395.82,52.32,396.06,47.7Z"/><path d="M535.32,297.94c7.69-.32,9.91,4.12,10.79,10.76,1.54,11.7-.69,23.73,3.32,35.23,1.07,3.07-1,5.35-4,5.83-3.63.58-4.74-2.51-4.95-5.11-.57-7.08-.49-14.21-1-21.3-1-14.6-4.76-16.91-18.81-12.93-3.84,1.09-9.92,6.9-11.94-.06-1.87-6.45,5.41-8.16,10.67-9.38S530,298.93,535.32,297.94Z"/><path d="M61.3,160.32c3.78.21,6.86,0,8,3.06,1.34,3.54-1.57,4.7-4.09,5.71-3.72,1.49-3.26,4.48-3.23,7.6.07,6.44.08,12.82,3.36,18.69,1.43,2.53,4,5.17,1.16,8.18C65.14,205,63,206.12,61,205.25c-3.29-1.44-3.19-4.81-3.62-7.82-.91-6.34-2.15-12.65-2.83-19-.63-6-3-8.49-9.25-6.66-4.52,1.32-9.23,2-13.86,2.88-2.84.56-5.64.61-6.41-3s1.59-4.84,4.52-5.39C40.46,164.21,51.4,162.18,61.3,160.32Z"/><path d="M0,171.81c0-3.39,0-6.88,4.22-6.92,3.6,0,3.74,3.41,4.09,6,1.34,9.77-.9,20.07,6.26,28.93,2.37,2.94-.48,7.4-4.63,8.47s-6.63-1.77-6.65-5.56A183.42,183.42,0,0,0,0,171.81Z"/><path d="M903.5,415.48c2.89-.21,4.15,1.45,4.8,4,2.52,10.05,1,20.73,5.11,30.61.91,2.2-1.37,5.06-4.41,5.83-2.61.65-5.3-.09-5.61-2.73-1.38-11.54-2.39-23.12-3.32-34.7C899.92,416.7,901.67,415.75,903.5,415.48Z"/><path d="M857,299.13c2.38-.25,3.58,1.05,4.18,3.27,2.78,10.3,3.29,21.19,8.26,30.93.71,1.4.35,3.68-1.5,4.22a6.45,6.45,0,0,1-4.75-.54c-3.3-2.09-4.64-5.8-5.53-9.31-1.8-7.13-3.15-14.38-4.51-21.62C852.55,302.91,852.91,300,857,299.13Z"/><path d="M1031.17,14.67c2.11.39,2.57,3.08,3,5.78,1.46,8.54.79,17.48,5.56,25.4,1.65,2.73-.12,5.18-3.06,6.33-2.76,1.08-5.16-.27-5.65-2.64q-3.16-15.26-5.46-30.67C1025.23,16.5,1026.76,14.28,1031.17,14.67Z"/></svg>