<svg xmlns="http://www.w3.org/2000/svg" width="1118.22" height="619.98" viewBox="0 0 1118.22 619.98"><title>c12-txt</title><path d="M817.75,165.8c21.12-.1,43.25,7,61.7-10,2.76-2.53,5.46-5.58,9.67-3.54,4.59,2.21,3.92,6.52,3.77,10.68-.31,8.91-.59,17.83-.47,26.75.11,8.17,4.63,10.41,11.9,7.6,17.31-6.68,20.68-23,25.57-38,1.22-3.74-.15-9.13,5.35-9.41,5.27-.26,5.4,5.05,6.75,8.8,3,8.36-.13,16.95,1.21,25.46,1.49,9.46,5.8,12.32,14.48,8.68,4.45-1.86,8.77-4,13.19-6,1.94-.84,4.39-2.53,6,0,1.79,2.89-.44,5-2.79,6.23-7.27,3.66-13.89,8.67-21.91,10.81-12.14,3.25-17.28-.26-19.26-12.69-.72-4.5,1.37-9.78-4.5-14.7-2.34,17.9-14.23,26.78-28.62,33.23-9.7,4.34-14.85,1.8-16.35-8.91a132.64,132.64,0,0,1-.86-23.33c.3-8.35-1.74-11.65-10.95-9.11-14.29,3.94-28.9,6.75-43.39,9.94-4.49,1-10.11,2-9.1,7.56,1.28,7-.35,16.69,6.51,20.3,6.31,3.32,8.62-4.51,10.85-9.44,1.42-3.12-1.28-10.12,5.5-8.12,5.09,1.5,2.39,6.82,1.56,10.73a26.3,26.3,0,0,1-5.37,10.88c-4,5.09-8.63,9.53-15.9,8.25s-8.47-7.7-9.87-13.39c-3.55-14.42-3.2-29.51-7.83-43.8-2.21-6.85,2.08-10.91,8.54-11.39,15.55-1.16,31.14-1.76,46.72-2.4,3.37-.14,7.39.47,7.78,4.58.46,4.71-4.32,4.42-7.21,5.23-5.06,1.42-10.27,1-15.45-.08C834.46,155,825.86,159.3,817.75,165.8Z"/><path d="M1070.28,545.68c-.37.07-.86,0-1.08.23-20.46,19.23-21,19-36.35-4.5-2.56-3.93-2.78-12-11.24-9.2-7.2,2.37-14.14,4.23-12.55,14.89.78,5.19-1.19,11.72-7.87,13.19-7.43,1.62-10.2-4.16-13-9.65-2.19-4.27-1.75-11.3-9.11-10.85s-7.73,6.76-9,12.19a16.86,16.86,0,0,1-2.79,6c-2,2.66-4.43,5.7-8.28,3.79-3.37-1.66-2.55-5.28-1.72-7.95,2.06-6.67,4.27-12.86-5.19-15.89-2.29-.74-2.73-4.36-.61-5.56,8.18-4.62,11.43-13.58,18-19.52,9.32-8.46,17.13-6.18,20.6,5.87,1.21,4.18-.79,11.17,7,10,8.52-1.27,19.62,3.49,24.12-8.69,1.43-3.85,1.71-8.71,7.11-8.41,5.17.28,5.73,5.06,6.74,9,2.13,8.4,6.71,15.66,10.88,23.09q5.27,9.38,13.68,2.61c8-6.41,13.45-13.63,10.74-24.9-1-4.35-2.2-10.56,5.29-10.94s6.38,5.35,6.15,10.21c-1,22.68,4.56,45.13,2.31,67.86-.24,2.35,1,3.93,2.63,5.73,3.81,4.29,2.29,18.17-2.22,21.65-4.66,3.61-7-.26-8.28-3.64-2.6-7.1-2.46-14.67-1.64-22.07,1.45-13.08-1.12-26-1.42-38.93C1073.06,549,1072.4,547,1070.28,545.68Z"/><path d="M584.79,383.87c2.76-4.9-1.58-6.14-4.33-8.44-1.7-1.41-2.94-3.45-1.65-5.9,1.13-2.13,2.79-3.74,5.34-2.66,8.07,3.43,10.47-2.29,13.1-7.84,1.11-2.35,2.44-4.59,3.57-6.92,2.65-5.47,2.78-13.76,10.55-14.22,7.07-.41,8.29,7.55,11.42,12.16,12.78,18.88,28.9,18.35,39.43-1.72,2.7-5.14,6.37-11.56,12.12-7.9,6.26,4,2.76,10.17-1.76,15.06-5.79,6.27-7.74,13.46-3,21.36,3.42,5.68,7.53,9.89,15.13,9.11,6.57-.68,9.42-3.36,8.07-10.15a45.33,45.33,0,0,1-1-11c.41-7.85,1.93-15.13,12.29-15,8.71.11,16.69,7.72,16,16.47-.54,7-2.55,13.82-4,20.71-.66,3.23-3.39,3.55-6,3.93-9.15,1.37-18.28,3-27.48,4-13.74,1.54-22.5-5.87-24.91-20.81-.59-3.65,0-8-5.35-8-4.9,0-9.95,1.12-13.17,5-2.68,3.19,1.43,4.32,3.33,5.4,4.78,2.74,6.62,7.26,3.28,11-3.72,4.13-7.57-.33-10.2-3.11-5.16-5.44-9.88-11.37-18.37-11-9.46.45-17.56,2.87-20.38,13.64-.94,3.6-3.18,7.08-8,5.87S584,387.93,584.79,383.87Z"/><path d="M776.6,536.76a75.9,75.9,0,0,0,1.87,19.61c.92,4-.27,7.58-5.17,8.16-5.45.64-5.83-3.17-6-7.14-.35-8.9-.45-17.82-1.22-26.69-1.09-12.55-3.1-13.77-15.67-10.65-3.6.89-7.14,2-10.72,3-4.2,1.18-7.59.25-8.47-4.4-.8-4.17,2-6.25,5.73-6.63,16.59-1.68,32.9-5.91,49.71-5.58,5.61.1,10.6,1.79,12.39,7.52,2.41,7.69,7.85,8.88,14.75,8.52,4.81-.26,9.65,0,14.47.23,5.72.22,10.38-.89,11.4-7.69.4-2.68,1.57-5.47,4.61-5.46,2.73,0,4.36,2.6,5.71,4.83,4.44,7.3,2.09,15.18,1.8,22.85-.21,5.45-1.93,10.86,4.52,14.7,5.07,3,2.23,7.81.68,12-1.13,3-2.79,5.39-6.41,5-4.82-.55-6.54-4.12-7.82-8.26-2.15-7-.33-14-.65-21-.33-7.2-3.46-10.16-10.62-8.6-2.9.63-5.86,1.6-8.77,1.5-9.47-.31-14.81,2.23-10.88,13.1.68,1.89.07,4.48-.56,6.57-1.23,4.09-1.46,9.58-7.55,9.41-5.79-.16-5.14-5.43-6-9.18-2-9-3.38-18.25-5.87-27.15-1.29-4.61-2.48-10.82-9.85-9.81-8.18,1.12-5.3,7.38-5.44,12.18C776.55,529.8,776.6,532,776.6,536.76Z"/><path d="M571.21,516.12c-2.39,8.57,1.34,11.68,8.74,12a54.69,54.69,0,0,1,11,1.12c11.31,2.89,15.47,11.14,11.24,22s-11.58,18.94-22.56,23.22c-10.46,4.06-22-.29-25.55-9.22-1-2.53-1.87-5.18,1-6.86,2.33-1.36,4.33,0,5.56,2.11,3.28,5.55,7.9,8.28,13.92,5.16,7.76-4,16.64-7.33,18.94-17.29,1.18-5.08-1.13-9.59-6.22-10-9.91-.87-19.88-2.84-29.89-1.15-7.35,1.25-11.86,4.43-8.24,12.92a16.1,16.1,0,0,1,1.1,6.5c-.06,3-.64,6.36-4.14,7-4,.75-6.5-2-6.86-5.62-1.35-13.63-2.82-27.13-6.71-40.43-2.13-7.28,5-9.19,10.34-10.31,9.06-1.9,18.51-7.6,27.25-.08C572,508.76,571,513.52,571.21,516.12Zm-18.29-.83c-4.23.85-8.15,2.81-7.89,8.3.13,2.56,1.7,5.13,5.12,4.17,4.52-1.26,8.19-3.88,8.61-8.86C559,515.48,556.2,515,552.92,515.29Z"/><path d="M368.69,378.38a33,33,0,0,0-4.13-18.76c-2-3.7-3.06-8.11,1.23-10.93s6.75.37,8.29,4.09,3.36,3.48,5.66.86c9.18-10.47,22.25-10.6,34.47-13.23,4.45-1,8.28-1.33,10.54,3.14,2.13,4.22,2.09,8.63-1.33,12.41a48.74,48.74,0,0,1-15.18,11c-5.3,2.56-6.41,5.7,0,7.78,10.71,3.47,19,14.87,32.66,9.36,3.63-1.46,5.57,3.08,4.48,6.78-1.64,5.51-4.71,9.39-11.41,7-13.93-5-28-9.74-40.62-17.7s-13.17-7.54-14.37,7.16a58.34,58.34,0,0,1-.63,6.63c-.52,2.64-1.62,5.16-4.9,5-2.83-.12-3.31-2.49-3.66-4.74C369,389.17,367.41,384.13,368.69,378.38Zm39.22-24.23c.37-2.77-1.33-3.91-3.14-3.58-4.92.88-10.5,1.07-12.9,6.61a2.48,2.48,0,0,0,3,3.31C399.73,359.46,404.92,358.68,407.91,354.15Z"/><path d="M96.3,22.91c5.3-.88,12.91-2.75,20.62-3.3,9.89-.72,13.18,3,11,12.7-1.59,7-1.32,12.49,3.72,18.43,5.42,6.41,1.82,19.31-5.85,25.91-8.37,7.2-25.27,8.68-34.8,3.34-4.24-2.38-5.42-5.87-4.95-10.22C87.5,56.43,88,43.24,84.5,30,82.83,23.67,84.57,22.73,96.3,22.91Zm1,39.24c1.82,5.32.19,11.5,7.72,11.47,7.22,0,19.83-9.44,19.18-14.6-.6-4.71-4.55-5-7.63-4C110,56.91,100.47,52.48,97.31,62.15Zm14.8-31.65C105.82,32,97.73,32,95.53,41.13a3,3,0,0,0,4,3.62c6.88-2.19,15-2.92,17.77-11.24C118.29,30.55,115.2,30.35,112.11,30.5Z"/><path d="M316.28,192c4.67-9.11,9.15-16.53,18.14-20,7-2.72,13.1-2.63,18.25,3.11s3,11.32.18,17.48c-2.06,4.6-10.82,6.87-6.06,13.75,4.31,6.21,11.2,8,18.67,8,3.43,0,8.84-3.48,9.24,3.77.38,6.85-4.9,7.65-9.78,7.94-13.5.81-22.6-7.94-32.35-15.3-2.47-1.87-4.25-6.51-8-4.62-3.42,1.73-1.42,6-1.55,9.14-.1,2.21.4,4.5,0,6.64-.65,3.37-2.45,7-6,7.18-4.5.27-4.69-4.12-4.78-7.33-.29-10.23-1.77-19.87-9.17-27.83-3.4-3.67-4.27-8.2.74-11.4,6-3.85,7.59,1.1,9.4,5.31C313.7,188.78,314.54,189.58,316.28,192Zm18.66-.27c4.35,0,9,.66,9.54-5,.28-3.11-1.9-5.84-5.38-5.44-4.21.48-9.14.87-9.75,6.66C328.84,192.79,332.68,191.46,334.94,191.68Z"/><path d="M810.16,9.79A30.63,30.63,0,0,1,828,15.27c9.13,6.45,12.88,18.1,8.45,26.29-5.09,9.4-19.44,14.61-29,9.12-6.38-3.67-10.82-3.06-15.75,1.42a20.49,20.49,0,0,1-3.78,2.35c-22.16,12.41-33.83,7-38.74-17.88-1.3-6.54-2.94-13-4.43-19.52-.93-4.07-.56-7.59,4.37-8.51,4.59-.86,5.75,2.64,6.43,6,1.57,7.63,2.81,15.32,4.24,23,1.34,7.24,4.79,12.76,12.88,13,10.5.29,22.56-7.11,23.94-14.44a44.82,44.82,0,0,0,1-12.12C796.55,11.85,798.26,9.69,810.16,9.79Zm-2.35,21.27c-.63,7.33,2.7,11,8.78,10.84s11.85-2.37,13-9.5c.79-4.85-9-13.82-14.27-13.14C807.76,20.21,808.39,26.56,807.81,31.06Z"/><path d="M655.87,524.43c6.48-19.67,21.27-19,36.11-18.43,11,.39,14.54,5.81,9.89,15.84-2.79,6-7.91,9.61-13.81,12.29-6.07,2.76-6.83,6.22-1.3,10.56,6.9,5.42,12.87,12.74,23.47,7.79,5.3-2.47,6,1.74,4.61,5.26-3.45,8.89-10.73,8-17.7,5.48-10.78-3.91-18.47-12.09-26.2-20.17-8-8.34-9-8.06-12.33,2.67-.65,2.12-1.19,4.28-1.89,6.38-1.1,3.3-2.5,6.61-6.86,5.6-3.91-.9-3.26-4.49-3.36-7.32-.32-10,1-20.06-3.83-29.48-1.33-2.59-.11-5,2.53-6.53,3.15-1.83,4.77-.08,6.19,2.39C652.43,518.57,653.5,520.37,655.87,524.43Zm30-11.48c-4.66,3.16-14.66-2.09-17.16,7.49-1.1,4.23,3.94,6.95,8.35,6.41,6.78-.82,14.53-1.34,16.33-9.87C694.23,513.1,690.31,512.83,685.9,513Z"/><path d="M765.28,173.83c-4.69,3.36-4.59,8.67-6.94,12.64-5.35,9-11.26,10.74-19.77,4.38-5.49-4.1-6.79-2.69-7,3.31-.1,2.52-1.06,5-1.71,7.5-.75,2.87-2.65,4.41-5.64,4.27-3.19-.15-4.56-2.3-4.71-5.15-.74-13.67-1.49-27.35-1.94-41-.14-4.23,2.8-6.89,6.7-7.83,4.26-1,5.76,2.51,7.26,5.45,2.85,5.61,5.45,11.35,8.3,16.95,1.53,3,3.33,6.1,7.21,6.16,4.49.06,6.36-3.55,7.75-6.94,2-4.77,3.41-9.75,5-14.68,1.12-3.5,3.15-5.92,7.06-5.91,3.72,0,4.73,3,5.84,5.77,4.88,12.37,7.08,25.65,13.42,37.57,2.4,4.5-.43,9.06-5.1,10.67-5.56,1.93-6.89-2.6-7.76-6.79C771.35,191.29,770.79,182,765.28,173.83Z"/><path d="M318.68,572.82c1.66-6.09-.9-10.26-6.82-14-8.15-5.17-8.88-13.33-5-21.61s11-7.48,18.25-5.58c8.26,2.16,16.81,3.5,16.84,15.37,0,4.54,5.61,6.54,8.74,9.64,12,12,10.58,28.6-3.1,35.44C331.72,600,318.07,591.21,318.68,572.82Zm20.47,10.12c4.83-.49,10.57-1.15,10.5-8,0-5.36-1-12.21-8.14-12.22-6.79,0-11.39,4.54-11.91,11.9C329.13,581.14,333.43,582.6,339.15,582.94Z"/><path d="M890.74,573.5c-5.26.11-9-.44-10.89-4.32-1.65-3.36-1.14-6.7,2.16-8.82,5.57-3.58,5-8.67,3.62-13.84-2.24-8.59-5-17-7.07-25.68-2.23-9.13,1.09-11.88,10.29-9.84,16.27,3.61,32.79,6.28,46.38,17.19,10.78,8.65,11.18,16.64.67,25.38C922.39,564.83,905.78,569,890.74,573.5Zm12-49.1c-7-.93-9.71,1.36-8.67,7.37,1.33,7.65,2.61,15.31,3.91,23,.64,3.75,2,6.66,6.56,4.51,8.68-4.11,17.47-8,25.86-12.7,5.8-3.22,5.34-7.57-.16-11A89.43,89.43,0,0,0,902.78,524.4Z"/><path d="M31.05,577.77c.2,4.43,1.52,8.81.17,13.28-1,3.34-3.19,4.91-6.57,4.82s-4.83-2.16-4.47-5.12C21.76,578,18.47,565.6,17.87,553a21.88,21.88,0,0,1,1.77-9.77c2.32-5.09,6.25-5.9,10.66-2.08.54.46.71,1.31,1.18,1.87,17.63,21,17.64,21,37.21,1.18,7.35-7.45,11.3-6.57,15.24,2.94,4.62,11.15,4.5,24,13.21,33.81,2.9,3.27.93,8.38-3.58,10-4.21,1.49-8.39.29-9.14-5.15A103.44,103.44,0,0,0,77,560.18c-2.61-6.26-6-7.33-10-.86a97.68,97.68,0,0,1-5.34,8.49c-7.34,9.68-11.81,9.78-20.88,1.49-2.72-2.49-4.09-8.8-9-6.31-3.63,1.84-.3,6.81-.92,10.34A20.18,20.18,0,0,0,31.05,577.77Z"/><path d="M856.29,32.79a42.83,42.83,0,0,1,6.08-22.26c3.29-5.38,8-8.72,14.62-8.54,4.58.13,8.1,1.78,8.48,6.86.35,4.8-2,8.28-6.93,8.18-8.1-.16-11.34,4.63-12.62,11.39-1.33,7-1.87,14.18,4.47,19.53,2,1.66,4.14,3.66,6.92,2.86,3.06-.88,2.88-4,3.24-6.48s.11-5.19.36-7.77c1-10.46,8.62-16.78,19.92-16.59,9,.15,14.34,6.4,14.7,17.38.59,18.11-10.13,28.08-27.87,25.9C864,60.34,855.87,52.43,856.29,32.79ZM898.48,31c-5.77,1.07-8.36,5.63-8.49,12.3-.07,4.13.71,8.12,5.8,6.9,6.63-1.59,10.71-6.62,11.45-13.34C907.77,32,903.86,31,898.48,31Z"/><path d="M15.7,187.08c.17-5.53,8.67-9.58,17.12-4.88a60.85,60.85,0,0,1,19.79,17.65c4,5.43,7.24,5.78,10.23-.89,2.27-5.07,5-10,7.4-15,1.14-2.33,2-5.12,5.36-4.49,2.37.43,3.73,2.19,4.2,4.61,2.49,12.71,5.06,25.41,7.49,38.14.7,3.72-1.84,5.32-4.89,6.3-4.22,1.35-5.32-1.5-5.71-4.63-.77-6.26-1.2-12.56-1.91-18.83-.21-1.77-.54-3.9-2.76-4.26s-3,1.63-3.83,3.29c-.48,1-1,2-1.46,3C59.61,221.37,58,221.56,49,209.31a25,25,0,0,0-4.37-5c-3.06-2.38-5.58-7.37-10-5.43-4,1.77-1.51,6.66-2,10.12-1,6.6-1.29,13.29-2.28,19.89-.45,3-2.13,5.6-5.93,5.36-2.86-.18-3.5-2.12-3.77-4.53C19.08,216.46,17.54,203.21,15.7,187.08Z"/><path d="M294.13,194.8c.13,13.33-22.27,37.44-36.46,39.25-2.53.32-5.91-.19-7.44,1.24-10.07,9.42-10.43,1.84-11.83-6-2.4-13.48-5.52-26.83-8.23-40.26-.72-3.55-2.16-7.5,1.51-10.26,3.29-2.47,5.45.82,7.77,2.28,2.93,1.84,5.61.74,8.52.09,11.4-2.56,22.86-2,34.25.1C289.57,182.6,294.38,186.57,294.13,194.8Zm-31.28-5.66c-13.94-.16-19.8,4.15-19.52,14.21.2,7.32.15,15.62,8,19.43,8.65,4.2,15-1.68,20.44-7.22,5.55-5.69,15.14-12.13,12.43-19.5C281.2,187.8,269.38,191,262.85,189.14Z"/><path d="M515,183.3c-.17-2.22-.19-4.47-.53-6.67-.83-5.45-.75-10.69,5-13.42s8.68,1.85,11.85,5.55c1.91,2.25,4.33,4.07,6.35,6.24,6.07,6.56,11.5,7,17.22-.74a119.77,119.77,0,0,1,12.75-14c4.43-4.33,9-4.3,11.11,2.15,3.66,11.28,6.84,22.73,9.81,34.21.88,3.41,1.58,7.88-4,8.63-4.63.63-6.69-2.13-7.51-6.34-1.15-5.83-2.49-11.62-3.7-17.43-.61-2.93-1-6.26-4.49-7s-5,2.72-6.83,4.86a79.64,79.64,0,0,0-8.23,10.53c-5.07,8.44-10.3,8.38-16.64,1.4-2.07-2.27-4.09-6.43-7.87-4.76-4.29,1.91-1.38,5.87-.93,8.92.79,5.29.14,10.45-5.75,11.51-6.9,1.25-5.93-5.43-6.76-9.22-1-4.66-.78-9.61-1.08-14.43Z"/><path d="M1062.38,32.64c.49-4.84,1.12-11.11,1.74-17.37.27-2.73,1.09-5.38,4.1-5.85,3.88-.6,4.76,2.6,5.82,5.43,1.52,4.07.7,8-.4,12a41.39,41.39,0,0,0,.42,24.12c1.14,3.56,2.93,7.51,7.55,6.71,4.85-.83,3-5.25,3-8.24,0-6,.25-11.91,3.16-17.29,4.22-7.8,11-11,19.55-9.22,9,1.82,11.21,8.31,10.9,16.71-.76,20.61-18.94,34.69-38.08,29.22C1068,65.37,1061.87,53.43,1062.38,32.64Zm36,23.08c7.07-1.88,10.63-7.59,12.09-14.73.79-3.89-1.44-6.81-5.53-6.12-7.54,1.27-10.87,6.83-11.81,13.9C1092.65,52.1,1092.73,55.64,1098.34,55.72Z"/><path d="M10.3,389.25c3.69,9.51,10.62,11.57,19,11.08,2.16-3.79-1.29-5.46-2.67-7.7-10.41-16.91-2.27-36,17.16-38.87,17.28-2.51,34.69-4.07,52.05-5.89,2.51-.26,6.73-2.67,6.83,2.38.08,3.83-3.94,3.8-6.83,4.1-15.94,1.62-31.38,5.82-46.89,9.49-7.71,1.83-17,2.93-16.83,14.28.14,8.9,7.2,15.08,19.14,16.54,4.35.53,8.1.64,8.61,6.33.45,5.07-2.19,7.42-6.38,9.09C41,415,18.14,409.74,9.85,399.89,7.53,397.14,6.35,394.22,10.3,389.25Z"/><path d="M256,73.36c-25.22-.35-40.45-17.64-33.34-37.93,3.46-9.87,11-14.56,21-15.55,4.14-.4,7.51,1.11,8.1,5.69s-2.74,5.23-6.39,5.53c-8.15.67-13.4,5-13.57,13.35-.18,9.09,5.17,15.37,13,19.14,5.34,2.57,7.37-.48,7.28-5.75-.19-10.54,6.68-17.07,14-22.82,8.13-6.35,16.11-2.48,17.1,7.77C285.18,62.5,275.26,73.63,256,73.36Zm12.92-12.15a25.52,25.52,0,0,0,6.31-11.85c.6-3.14-2.53-3.13-4.54-2.67-5.33,1.22-6.48,5.29-5.9,10C265.05,58.7,265,61.32,268.93,61.21Z"/><path d="M340.69,398.67a6.05,6.05,0,0,1-6-3,81.86,81.86,0,0,1-4.2-7.84c-7.2-15.05-18.36-15.82-27.93-1.66-2.68,4-4.44,8.54-6.59,12.86-1.58,3.19-3.65,6.17-7.64,4.52-4.51-1.86-4-6-2.61-9.58,3.32-8.66,7.27-17.07,10.53-25.74,2.52-6.71,2.28-14.3,10-18.8,9.36-5.46,12.77-5.4,17.06,4.65,3.77,8.83,8.69,13.46,18.82,10.1,2.74-.9,7.48-2.62,8.32,2.16.67,3.8-3.53,3.94-6.43,4.28-10.58,1.27-8.95,6.27-4,12.59a30.1,30.1,0,0,1,5.12,8.46C346.44,395.48,344.26,398,340.69,398.67Z"/><path d="M430.48,166c1.94.12,4.16.24,6.37.41,2.62.2,5.74.33,5.95,3.64.25,4-3.33,4.65-6.22,4.69-11.63.13-22.37,5-33.81,6.12-2.41.24-5.83.17-5.22,3.95.45,2.79,3.39,2.29,5.52,2.4,8.62.46,16.87-2.09,25.28-3.3,3-.43,6.39-1.44,6.95,2.81.43,3.32-2.83,4-5.29,4.59-8.26,2.05-16.53,4.05-24.85,5.84-6,1.29-8.21,4.63-6.27,10.42,1.68,5,2.08,11.73,10.44,9.27,2.55-.75,5.43-1.76,7,1,1.74,3-.44,5.76-2.32,8-5,6-14.23,5.88-18.91-1.73-8.75-14.24-10.72-30.41-9.28-46.83.34-3.88,2.74-7.52,7.92-7.93C405.91,168.41,418.05,167.14,430.48,166Z"/><path d="M999.83,47.44c-.54,3,1.56,8.37-3.24,9.06-4.45.65-5.28-4.25-5.91-8a131.19,131.19,0,0,0-8.93-29.76C980,14.66,977.3,10,982.82,7.05c5.84-3.11,8.55,1.56,11.29,5.76,8.87,13.59,21.37,22.46,36.56,27.79,2.77,1,5.65,3,8.19.21s.48-5.48-.66-8.21c-2.69-6.5-5.77-12.92-7.67-19.66s.75-10.24,8.22-7.43a43.61,43.61,0,0,1,6,2.84c3.3,1.88,9.8-.14,9.82,5.1,0,6.14-6.08,3.32-9.66,4.11-4.17.92-2.7,3.74-1.77,6,2.2,5.49,5.21,10.73,6.85,16.38,2.75,9.49-.39,12.53-10.16,11.49a75.09,75.09,0,0,1-30.32-10.26C1000.06,35.67,999.81,35.87,999.83,47.44Z"/><path d="M1019.71,206c-3.07-4.64-7.54-4.68-10.92-6.48-14.8-7.9-22.1-22.86-18.8-39.19,2.47-12.27,18.53-17.78,28.19-9.65,2.75,2.31,4.35,5.24,3.28,8.84-1.33,4.44-5.46,5.82-9.21,7.33-1.07.43-3.34.38-2.72-2,.82-3.16,1.5-6.4-3.14-6.2-4.4.2-6.23,3.7-6.72,7.64-1.09,8.86,1.86,16.06,9.35,21.19a100.22,100.22,0,0,0,23.91,11.68c3.44,1.19,7.46,2.17,6.8,7.3-.54,4.28-3.46,6.22-7.2,7.55-15.87,5.63-31.45,3.4-46.95-1.59-2.3-.74-4.32-2-3.83-4.63.81-4.35,4.38-3.26,7.12-2.75C998.83,206.91,1008.74,209.42,1019.71,206Z"/><path d="M157.6,573.17c2.2,8.91-2.88,21.88,6.92,32.36,3.35,3.58-.12,8.46-2.65,12.17a4.49,4.49,0,0,1-5.84,1.83c-4.05-1.86-4.19-5.77-4.56-9.47q-1.2-12.19-2.36-24.39c-.21-2.18.21-4.78-2.14-5.93-2.62-1.29-3.89,1.41-5.47,2.69-2,1.62-3.66,3.7-5.6,5.43-10,8.83-20.09,6.06-23.74-6.59-2-6.77-3.56-13.63-5.36-20.44-1.18-4.46-2.51-9.81,3.19-11.25,6.48-1.63,6,5.32,7.3,8.87,1.67,4.44,1.5,9.54,2.81,14.16,3.07,10.9,8.11,12,16.36,4,7.48-7.25,10.51-16,9-26.31-.68-4.52-.45-8.62,5.18-9.06,5.45-.44,6.86,3.56,6.95,8C157.7,556.36,157.6,563.42,157.6,573.17Z"/><path d="M234.53,413.71c-7.47.07-11.51-4.27-13.7-10.81a72.91,72.91,0,0,1-3.42-23c0-6.09-.44-11.39-4.37-16.59-4.19-5.55-1.25-9.09,5.15-9.39,14.05-.66,28.12-.87,42.16-1.57,8.3-.41,7.94,7.06,9.64,11.36,2,5.13-4.36,4.66-7.18,5.65-10.1,3.51-19.74,8.46-30.47,10.16-2.82.44-7.47.8-6.87,4,1.1,5.9-.38,13,5.41,17.36,3.29,2.46,7.08,1.61,10.51-.28,4-2.23,6.2-6.26,9.07-9.62.87-1,2.37-2.4,3.74-1.16a5.4,5.4,0,0,1,1.41,3.84C255.25,401.8,242.43,413.85,234.53,413.71Zm29.61-52.46c-12.11-4.47-21.52-.54-31,1.24-2.28.43-6.1.15-5.45,3.8s4.18,3.72,7.18,3.21C244.2,367.91,253.7,366.83,264.14,361.25Z"/><path d="M679.88,50.17c3.41-4.92,2.38-8.91-4-11.67-2.9-1.27-2.57-4.27-1.77-6.86a4.25,4.25,0,0,1,5.25-3.05c7.93,1.84,9.53-3.21,10.67-9.17.91-4.76,2.1-9.46,6.08-12.82C701,2.5,705.35,2,708.87,8.25c2.17,3.88,4.91,7.54,6.49,11.65,2.34,6,6.1,8.06,12.15,6.14,3.24-1,7-2.52,8.19,2.24,1.34,5.36-2.86,4.71-6.21,4.77-6.94.12-5.08,4.84-4.34,8.74.87,4.6,4,10.61-2.4,12.45-7.09,2-6.23-5.22-7.68-9.41-1.14-3.29-.73-8-6-8-5.62.08-11.46.38-14.52,6.24a117.45,117.45,0,0,0-4.69,11.28c-1.12,2.85-2.15,5.94-6.18,4.51C679.89,57.56,678.76,54.66,679.88,50.17Z"/><path d="M661.7,189c-.18-1.29-.1-1.75-.29-2-7.67-10.38-15.47-21-6-34,5.35-7.35,31-9.13,42.27-3.58,2.52,1.24,6.31,2.27,5,6.07-1.21,3.49-4.87,2.68-7.77,2.39-5.89-.58-11.76-1.41-17.65-2-4.77-.44-9.91-1.46-12,4.8-2.06,6.07-4.18,12.32,1.52,17.54,5.46,5,11.2,9.68,17,14.27,3.85,3.05,6.34,6.15,3.76,11.3-2.76,5.48-6.56,2.74-10.42,1.79-10.42-2.57-20.92-4.8-31.35-7.3-3.84-.91-8.83-1.22-7.88-7.11.9-5.52,5.69-4.62,9.68-5.14C652.51,185.42,656.11,190.58,661.7,189Z"/><path d="M499.07,185.71c-10.48,3.42-4.28,10.85-3.86,17.47.2,3.13-3.46,4.63-6.56,4.88-3.95.33-6-2-7-5.67-1.35-5.1-.74-11.46-9.24-11.16-7.65.26-9.8,4.77-11.43,11.1-1,3.7-2.79,8.4-8,7.77-4.83-.57-3.6-4.73-3.27-7.95.4-3.85-1.64-5.38-5.1-5.64s-5.66-1.86-5.1-5.64a5.06,5.06,0,0,1,5.45-4.55c7.4.1,9.6-3.44,10.85-10.68,1.42-8.24,9.44-11.93,16.76-14.7,4.57-1.73,6.9,2.16,8.08,5.68,2.57,7.62,4.87,15,15.25,14.4C497.71,180.91,499.12,182.63,499.07,185.71Z"/><path d="M474.68,404.82c-3.79-.22-7.81-.63-11.29-3.16s-5.32-5.94-3.59-9.6c1.94-4.08,5.05-.59,7.55.21,6.6,2.12,13.19,1.51,19.77.11,2.56-.55,5.47-1.44,5.54-4.54.07-3.5-3.21-3.49-5.66-4-10.4-2-18.66-7.13-23.76-16.54-4.07-7.51-3.62-15.13,1.54-21.93,4.21-5.54,10.28-7.08,16.94-5.44,3.22.8,6.59,2,6.77,6.26.24,5.59-4.09,4.08-7.06,4.26-4,.25-7.56,1.31-8.65,5.52s1,8.07,3.73,11.16c6.56,7.36,16,8.83,24.8,11.51,4.57,1.39,10,1.32,10.18,8,.15,6-3.39,9.35-8.52,11.73C494.07,402.54,484.63,404,474.68,404.82Z"/><path d="M941.37,363.54c1-3.61-2.14-8.76,2.15-11.11,4.92-2.7,8.09,2.26,11.35,4.92,9.22,7.51,18.68,14.57,29.33,20,3.46,1.75,6.94,3.34,10.45,1,3.94-2.59,2.36-6.37,1.45-10-2-7.88-3.73-15.82-5.46-23.76-.55-2.55-1-5.5,2.31-6.51a4.56,4.56,0,0,1,6,3.53c1.59,13.88,8.47,26.92,6.18,41.47-1.22,7.71-4.47,10.15-12.1,7.81-11.17-3.44-20.55-10.11-30.58-15.65-2.12-1.17-4.38-3.89-7-2s-1.11,4.75-.43,7.23a26,26,0,0,1,1.28,4.24c.42,4.63-.06,10.23-4.65,11.41-5.66,1.46-5.25-4.73-6.26-8.31C943.23,379.9,941.36,372,941.37,363.54Z"/><path d="M318.29,41.56A16.33,16.33,0,0,0,305,50.92c-1.65,3.3-3.29,6.62-5.16,9.8-1.35,2.31-3.32,4.32-6.31,3.33A5.25,5.25,0,0,1,290,57.77c4.05-14.84,6.46-30.58,17.8-42.16,5.34-5.47,11.46-7.09,15.6,2.14,3.9,8.68,8.59,16.11,20.19,10.88,1.59-.72,4-.39,4.54,1.83.67,2.57-.77,4.15-3.35,4.71-9.43,2-11.5,5.4-1.95,10.87,3.72,2.13,3.09,5.56,2.29,8.84a5.72,5.72,0,0,1-4.71,4.24c-4.16.78-5.63-2.63-7.47-5.37C329.78,49,330.54,40.47,318.29,41.56Z"/><path d="M425.77,34.6c.46,14.8-2.08,16.53-16.73,12.07-8.49-2.59-17.35-4.12-25.65-7.17-6.93-2.55-7.77,0-7.06,5.83a39.19,39.19,0,0,1,.09,8.86c-.36,3.27-3,3.86-5.8,3.8-2.48-.05-4.79-1.07-4.72-3.65.29-10.57-4.18-20.3-5-30.64-.27-3.4-.36-6.86,3.6-8.45,3.63-1.45,6.6-.07,8.93,2.65,9.21,10.72,22.3,14.11,34.8,18.72,6.13,2.27,8.57-.09,8.21-5.94-.4-6.52.85-13.55-4.4-18.94-2.65-2.73-4.42-5.5-.16-8.07s7.42.12,8.82,3.71C424.11,16.07,425.46,25.27,425.77,34.6Z"/><path d="M766.7,385.87c-14.76.21-23.64-9-22.75-23.64,1.52-25,19.24-33.81,42-20.86,16.49,9.38,17.09,26.63,1.18,36.85C780.91,382.21,774.52,386,766.7,385.87ZM768,374.32c10.15-.17,21.65-7.42,21.9-13.81.23-6.22-11.21-16.37-18.72-16.6-8-.25-17.14,10-16.66,19.15C754.92,371.37,760.13,374.56,768,374.32Z"/><path d="M553.65,53c-1.93-15,6.5-27.67,8.74-41.84,1.15-7.24,7.91-5,12-.73,2.79,2.91,4.47,6.84,7.09,9.93,4.71,5.57,10.45,4.11,16.33,2,2.57-.92,5.5-.52,6.15,2.83.56,2.85-2,3.39-4.08,4.32-13,5.95-13.08,6-3.55,17.52,2.22,2.68,4.48,5.19,3.16,8.86a5.49,5.49,0,0,1-5.05,3.83c-4.11-.05-5.11-3.62-6.47-6.69a65.15,65.15,0,0,0-4.42-8.94c-1.63-2.52-1.39-7.19-6.28-6.51a10.64,10.64,0,0,0-9.08,7.21c-1.41,3.83-2.58,7.76-4.18,11.5-1.37,3.18-3.57,6.29-7.53,5S552.42,56.38,553.65,53Z"/><path d="M167.72,26.91c6.59,4.14,11.35,2.58,16.05,2.13,1.86-.18,3.94-.2,4.44,2.15.61,2.81-1.23,4-3.66,4.39-4,.7-8.05,1.94-12.06,1.88-6.51-.11-11.17,1.42-10.9,8.94.3,8.17,2.47,15.66,10.95,18.95,3.72,1.44,6.1-1.56,7.94-4.55,1.19-1.93,2.58-4,5.24-2.8,3.39,1.57,2,4.47,1,6.72-2.36,5.49-4.86,11-12,11.83s-13.41-1.72-15.8-7.9c-4.69-12.08-7.93-23-4.92-38.16,3.48-17.53,13.8-14.1,23.08-17.33a47.43,47.43,0,0,1,10.74-2.61c3.26-.32,5.7,1.47,5.9,5.18.2,3.52-2,4.23-4.94,4.46C181.88,20.73,175.72,23.69,167.72,26.91Z"/><path d="M135.48,194.76c.84-4.46-5-13,4.27-13.73,10-.83,7.65,8.7,8.16,14.86,1.07,12.93-3,26.46,7.6,38.06,3.43,3.77-.53,10.75-5.82,12.46-5.61,1.82-7.63-3.48-8.32-8-.94-6.2-1.16-12.52-1.64-18.79-.43-5.57-2.44-6.84-7.93-4.31-16.53,7.63-30.85-3.22-29.24-21.74.24-2.69.4-5.49,3.59-6.07,4.08-.74,4.78,2.4,5.42,5.44.45,2.17,1.05,4.32,1.65,6.46,2,7.13,7.19,8.85,13.81,7.87C133.91,206.29,136.32,202,135.48,194.76Z"/><path d="M180.67,378.55a182.46,182.46,0,0,0-.12,36.36c.58,5.37-.91,11,5.75,14.39,2.95,1.48,1.54,5.43.23,8.14-1.15,2.38-2.79,4.56-6,3.87a6.76,6.76,0,0,1-5.62-6.18q-1.44-15.51-2.32-31.09c-.32-5.62-1.1-9.1-8.49-7.12-10.76,2.88-15.92-6-21.75-12.48-3-3.26-5-7.36-7.2-11.24-1.88-3.34-6-7.62-.68-10.44,5.18-2.74,6.38,3.31,8.5,6.38,2.74,4,5.09,8.21,7.71,12.26,3.29,5.11,7.6,8.62,13.95,6s7.27-7.83,5.65-13.95a45.14,45.14,0,0,1-.83-16.62c.3-2.73,1.58-5.41,4.63-5.36,2.41,0,3.13,2.63,3.92,4.77C180.64,363.36,180.58,370.79,180.67,378.55Z"/><path d="M524.4,64.84c-16.37.09-23.93-9.33-29.84-20.6-5.69-10.87-4.12-21.69,2-31.81,3.53-5.83,9.45-7,15.73-5.34,8.29,2.13,17.17,4.07,21.56,12.29,2.09,3.91-.93,7.08-5.77,6.56-1.34-.15-2.68-1.29-3.79-2.25-6-5.18-13.09-9.35-19.85-3.26-6.41,5.76-2.86,13.82-.69,20.89,3,9.63,10.93,12.63,19.67,14,8.27,1.28,14.21-2.92,18.84-9.41,1.53-2.13,1.47-7.12,5.59-5.16,4.93,2.35,1.88,6.73.35,9.66C542.86,60.65,533.64,64.61,524.4,64.84Z"/><path d="M906.57,400.27c-14.87.32-26.68-8.68-29.05-19.39-2.5-11.33,4.46-25.38,15-29.51,5.32-2.08,10.89-3.81,13.23,4.41,1.6,5.66,6.81,8.61,10.59,12.64,4.94,5.25,9.6,10.82,5.77,18.73S912.29,400.07,906.57,400.27ZM895.8,367.88c-4.54-.56-8.47-.22-8.31,6.48.19,8.39,8,16.35,16.54,16,5.21-.19,9.76-1.91,10-8C914.28,375.32,904.71,367.8,895.8,367.88Z"/><path d="M457.26,529.18a98.18,98.18,0,0,0,2.18,22.08c.67,3.33.61,7.17-3.81,7.93-4.26.73-5.88-2.75-6.59-6.06-.77-3.6-.45-7.43-1.22-11-.87-4.1.16-9.78-5.36-11.12-5.22-1.26-10.3,1-14.81,3.59-3.33,1.87-2.21,5.08-.78,7.86,2.23,4.37.77,7.2-3.74,8.39-4.77,1.26-7-1.23-7.27-5.76-.35-5.54-.74-11.1-.77-16.65,0-8.56.94-14.53,11.86-7.44,5.94,3.85,13.07,1.73,18.12-3.87,2.65-2.93,4.36-7.91,9.44-5.58,4.8,2.2,2.51,7.13,2.73,11C457.37,524.72,457.26,527,457.26,529.18Z"/><path d="M646.47,41.55c.37-4.71.85-11.38,1.42-18,.74-8.64-2-12.59-11.48-9.88-7.1,2-14.48,3.21-21.77,4.53-3.32.6-6.91.87-8-3.65-1.13-4.69,1.57-6.8,5.57-8a48.73,48.73,0,0,1,15.38-2c4.79.1,9.49.1,14.16-2,11.07-4.94,14.58-3,15.84,9,.57,5.45-.1,11.1-.77,16.6-1.07,8.84-2.61,17.69.35,26.37,1.83,5.37-.78,8.32-5.2,8.91-5.23.7-5.39-3.88-5.48-7.67C646.39,51.68,646.47,47.59,646.47,41.55Z"/><path d="M397.25,511.9c4,.3,7.17-.48,9.11,2.62,2.16,3.46-.26,5.73-2.47,7.53-7.23,5.9-4.47,13.43-3.65,20.61.46,4.06,1.88,9.1-3.39,10.16-6.29,1.27-6.67-4.2-7.07-8.75-.26-3-.69-5.9-.73-8.85-.1-8.2-3.6-11.5-12-9.25-3.67,1-8.56,2.85-9.4-3.7-.71-5.49,3.09-6.86,7.53-7.44C382.91,513.84,390.61,512.79,397.25,511.9Z"/><path d="M961.73,63.43c-4.19-.6-6.45-2.7-7.15-6.39-2.72-14.45-4.25-29.17-11.12-42.59-1.65-3.22-.4-6.67,3.6-7.91s6.4.68,7.88,4.17a63,63,0,0,1,4.88,16.93c.92,7.64-1.36,16.19,8.29,21.13,4,2-1.53,6.3-1.75,9.77C966.17,61.56,964.1,62.94,961.73,63.43Z"/><path d="M288.53,583.74c-.59,4.57-2.07,6.93-5.48,7.57-3.22.61-5.86-.12-7.24-3.49-5.89-14.44-8.07-29.91-12.27-44.81-1-3.5,1.31-6.64,5.15-7.31,4.82-.85,4.91,2.78,5.59,6.23,1.94,9.78,4.94,19.41,6.14,29.27C281.18,577.41,287.06,579.74,288.53,583.74Z"/><path d="M630.22,558c0,1.8,2.38,6.5-3.45,7.08-5,.48-5.89-3.85-6.15-7.55-.89-12.58-2.67-24.94-7.73-36.62-1.83-4.23-.47-7.2,3.77-8.75,4.73-1.73,5.81,2,6.73,5.11A158.67,158.67,0,0,1,630.22,558Z"/><path d="M3.69,26.09c3.25.27,4,2.58,4.75,5.22C12.12,44.72,11,59.05,17,72.13c1.58,3.49-1.26,8.51-5.81,9.26s-4.68-3.48-5.09-6.83C4.37,60.7,4.83,46.56.43,33.05-.6,29.91.11,27.24,3.69,26.09Z"/></svg>