<svg xmlns="http://www.w3.org/2000/svg" width="610.44" height="817.5" viewBox="0 0 610.44 817.5"><title>c13-txt</title><path d="M524,55.7c1.41-1.88,2.77-3.8,5.34-4.46,2.28-.58,4.53-1.18,6,1.2s.57,4.45-.68,6.71c-.83,1.5-4.57,1.6-2.71,4,1.63,2.12,4.66,1.92,7.17,1.13,2.3-.72,4.12-2.32,3.5-4.95-.53-2.29-1.65-4.31,1.82-5.09,3.28-.73,3.66,1.69,4.38,3.78,1.27,3.63,3.4,6.54,7.06,8,2.73,1.09,4.12,0,3.57-2.89a16.59,16.59,0,0,0-2.67-6.62c-.91-1.28-1.4-2.9.21-3.73s3.26.7,3.81,2c.91,2.16,1,4.66,1.77,6.91.37,1.06-.64,3.46,1.83,3,1.74-.33,2.39-1.92,2.35-3.71,0-2.08-2.13-4.86,2-5.49,3.43-.53,6.15.31,7.33,3.75,1.38,4,3.87,4.55,7.47,3.08,1-.42,2.89-1.2,3.29.45.5,2-1.61,1.52-2.66,1.6-3.46.25-3.27,1.94-2.3,4.53.49,1.3,1.53,3.47-.38,4.27s-2.51-1.49-3.19-2.78c-.83-1.59-1.34-3.44-3.69-2.87s-5.37.06-6.06,3.5c-.23,1.14-.54,2.41-2,2.24s-1-1.63-1.27-2.67c-.56-2.8-1.72-4.22-4.42-1.66s-5.3,1.72-7.89,0c-2.31-1.51-3-.58-3.17,1.75-.23,2.71.62,7.11-2.8,7-2.68-.06-2.42-4.61-2.7-7.39-.33-3.3-.79-5.24-5-3A9.64,9.64,0,0,1,529,66.18c-2.39-1.81-3.27-1.17-3.46,1.57-.08,1.17.28,2.91-1.75,2.69s-1.83-2-1.71-3.37a16.29,16.29,0,0,0-1.59-9.3c-.77-1.44-1.86-3,0-4.19C522.62,52.16,522.44,55.47,524,55.7Z"/><path d="M568.82,409.4c2.64,5.65,11.47,7.17,19.88,3.48-.18,3.55-.54,4.24-4.05,4.54-2.48.21-3.24,1.17-3.47,3.49-.42,4.1-2.63,6.87-6.94,7.25s-6.54-2.44-7.64-6c-1.74-5.6-2.42-11.22,1.56-16.46,1.68-2.21,3.91-2,6-2,3,0,6,.46,9-.25,1.36-.32,2.81-1.05,4.1.09a1.53,1.53,0,0,1,.1,2.15c-1.08,1.5-2.73,1.61-4.32,1.41A24.31,24.31,0,0,0,568.82,409.4Zm10.53,10.25c-1.07-3.6-4.35-1.41-6.58-1.88-1.5-.31-4.07-.51-3.6,2.15a5.11,5.11,0,0,0,5.44,4.33C577.26,424.2,579.12,423,579.35,419.65Z"/><path d="M190.41,667a8.94,8.94,0,0,1-1.36,4.31c-.8,1.07-3.38,1.88-1.29,3.72,1.7,1.5,3.32,3.79,6.19,2.66,1.34-.52,2.92-1.66,3.41.57s-1.38,3.17-3.2,3.38c-3.21.36-5.87-1.22-8.37-3-1.16-.84-2.29-1.73-3.44-2.6-2.11-1.61-3.46-1.4-3.76,1.52a16.92,16.92,0,0,1-.49,2.83c-.24.88-.39,2.1-1.63,2a1.78,1.78,0,0,1-1.48-2.12,14.56,14.56,0,0,0-2.37-10,2.3,2.3,0,0,1,.56-3c.62-.61,1.5-1,2.07-.16,1.79,2.58,2.72.75,3.85-.6a10.41,10.41,0,0,1,7-3.73C189.25,662.27,190.63,663.7,190.41,667Z"/><path d="M205.75,76.64c-.13,1.16-.17,1.48-.2,1.79-.72,7-3.91,11.45-8.48,11.71-4.88.27-9.58-4.5-10.7-11.06a18.42,18.42,0,0,1,.93-10.36c1.85-4.37,7.84-6.2,11.27-3.57,1.12.86,1.72,1.87,1.08,3.3-.53,1.18-1.46.89-2.43.75-6.67-1-9.39,2-8,8.7a12.71,12.71,0,0,0,1.33,3.57c1,1.75,1.79,4.3,4.13,4.09,1.9-.18.84-2.7,1.49-4.09a19.27,19.27,0,0,1,4.14-6.36c1.21-1.11,2.15-3.41,4.19-2.39C206.3,73.62,205.73,75.76,205.75,76.64Z"/><path d="M321.34,258.33c1.81-2.65,3.38-4.83,5.81-6.1,1.15-.61,2.26-1.34,3.55-.45a3.48,3.48,0,0,1,1.25,3.86,9.26,9.26,0,0,1-4.11,6.23c-2.15,1.41-1.78,2.54.62,2.91,5.13.81,10,4.94,15.52,1.21.62-.42,1.19.19,1.35.87a2.06,2.06,0,0,1-1.76,2.82c-4,.83-8,0-11.92-.46a25.19,25.19,0,0,1-5.16-1.08c-2.72-.88-4.74-1-4.91,2.72-.05,1.07-.44,2.5-1.84,2.37-1.81-.16-1.37-1.85-1.45-3-.27-4.15-.48-8.3-.7-12.45-.08-1.61-1.53-4.12.86-4.5C321.31,252.81,320.11,256,321.34,258.33Z"/><path d="M388.72,376c.79,3.23-.47,5.25-3,6.45-3.69,1.74-10.7-1.37-17.13-7.52-1.44,2.88.09,5.75-.31,8.49-.24,1.58-.1,3.71-2.09,3.72-1.76,0-1.69-2.11-1.72-3.47-.11-4.15.12-8.28-2.14-12.1-.7-1.17.15-3.32,1.51-2.12,2.75,2.45,3.27.28,4.53-1.26,2.5-3.06,6.13-3.37,9.63-3.18,3.15.17,3.76,3.84,2.08,7.24-.85,1.72-6,1.86-2.56,5,2.7,2.47,6.34,3.06,9.55.08C387.5,376.87,388,376.52,388.72,376Zm-13.24-8c-1.87.63-4.49.47-5.44,2.92-.48,1.25.89,1.58,1.82,1.43,2.2-.36,4.5-.84,5.46-3.18C377.6,368.41,376.61,367.81,375.48,367.93Z"/><path d="M394.19,8.14c4.05,5.62,5.8-1,8.79-1.87a10.74,10.74,0,0,1,1.79-.65c2.05-.17,4.76-2.15,5.93.61a5.42,5.42,0,0,1-2.37,6.71c-3.83,2.18-2.82,3.37.36,4.78,1.74.77,3.4,1.73,5.09,2.63.93.5,3.09-.08,2.24,2.07a2.77,2.77,0,0,1-4,1.59,66,66,0,0,1-7.37-4.39c-4.5-3-4.46-3-5.67,2a15,15,0,0,1-.65,2.29,2,2,0,0,1-1.76,1.38c-1.08,0-1.12-1-1.3-1.69-1.08-4.38.15-9.29-3.31-13.19C391.32,9.64,392.65,8.49,394.19,8.14Z"/><path d="M454.71,377.27A23.46,23.46,0,0,0,452,365.71c-.54-1-1-2.09-.12-3.12,1.06-1.3,2-.52,2.78.34,1.07,1.14,1.91.53,2.91-.14a9.79,9.79,0,0,1,2.59-1.18c4.51-1.4,10.9.23,12.59,3.53,2.26,4.4,0,8.05-2.72,11.33a18.67,18.67,0,0,1-8.11,5.79C456.15,384.33,454.58,383.27,454.71,377.27Zm3.3-5.18c.13,1.19.34,3.25.58,5.3.09.75,0,1.92,1,1.87,2.72-.16,4.73-1.91,6.41-3.79,2-2.19,4.39-4.24,4.4-7.59a1.2,1.2,0,0,0-.52-.77c-2.66-1.95-5.57-3.36-8.89-2.26C458,365.85,457.86,368.56,458,372.09Z"/><path d="M85.52,795.19c2,.14,2.91,0,3.71-.75s1.55-2.25,2.64-.92.16,2.74-1.05,3.69c-3.54,2.78-7.31,1.61-10.93.34-3.38-1.18-6.44-2.42-6.8,3a1.91,1.91,0,0,1-1.92,1.82c-1.12-.08-1.19-1.27-1.44-2.21-1.25-4.6-.88-9.57-3.27-13.91a1.58,1.58,0,0,1,.64-2.43c1.6-.7,2.52.33,2.8,1.67.82,4,2.13,4.1,4.42.89a4.78,4.78,0,0,1,2.84-1.63c2.34-.44,5.36-2.55,6.9.32s-1.3,4.48-3.52,5.86c-.78.48-2,.9-1.53,2,.22.57,1.23,1,2,1.18C82.81,794.66,84.69,795,85.52,795.19Z"/><path d="M415,72.7a2,2,0,0,1-1.63-2.83c.91-3.19,1.23-6.59,3.91-9.06,1.41-1.31,2.8-2.94,2.92-4.84.17-2.63,1.89-3.17,3.77-3.44a3.75,3.75,0,0,1,4.11,2.68c1.28,3.64,2.52,6.84,7.31,4a1.38,1.38,0,0,1,1.92.92A1.34,1.34,0,0,1,436.4,62c-4.09,1.08-3.49,3.19-1.52,5.86.81,1.1.89,2.53-.56,3.31s-2.46-.32-2.94-1.53c-.94-2.38-1.43-5-4.88-5a9.88,9.88,0,0,0-8.75,4.92C417,70.76,416.77,72.4,415,72.7Z"/><path d="M412.25,672c-.45,2.61-.76,4.32-1,6-.18,1.14-.35,2.48-1.81,2.3s-1.41-1.53-1.43-2.68c-.08-3,.39-6.07-2.14-8.53-1.12-1.08-.66-2.48.52-3.3,1.57-1.09,1.87.52,2.31,1.4,1.29,2.57,2.41,1.67,3.77,0,2.43-2.94,5.73-3.87,9.42-3.76,1.59.05,3.33-.25,4.16,1.59s-.18,3.38-1.49,4.66c-.56.56-1.32.93-1.82,1.53-1,1.16-4.57.16-3.31,2.66a6.06,6.06,0,0,0,7,2.89c1.46-.36,3.36-3,4.28-.37.66,1.89-2.16,2.7-3.82,3.48-3.39,1.59-6.29.21-8.82-1.9A79.12,79.12,0,0,1,412.25,672Z"/><path d="M482.28,16.7c-.1,2.55.1,4.47-1.81,5.43s-3-.42-4.29-1.35c-2.05-1.53-4-3.15-6-4.76s-3.32-1.93-3.59,1.33c-.2,2.42.54,6.62-2.06,6.56-3.16-.07-1.81-4.37-2.29-6.79-.53-2.67-.85-5.34-2.07-7.81-.67-1.35-2.07-2.79-.15-4.18,1.71-1.25,3.56-.62,4.87.51,2.66,2.29,5,5,7.59,7.33,1.68,1.5,3.43,4.81,5.54,3.45,2.58-1.65.11-4.54-.69-6.82a16.44,16.44,0,0,1-.79-1.72c-.21-1.07-.55-2.32,1-2.79s2.54,0,2.86,1.57C481.06,10.26,481.74,13.87,482.28,16.7Z"/><path d="M315.08,16.31c-2.66,2.92-2.5,7.16-5.83,8.56-4.65,1.95-4.4-3.37-7-5.19-1.3,2.58-.33,5.24-.65,7.75-.2,1.55,0,3.66-2.12,3.68-2.58,0-1.66-2.24-1.54-3.64a29.38,29.38,0,0,0-.75-9.5,6.1,6.1,0,0,1,1.47-5.72c1.51-1.86,2.79-1.92,3.92.37,1,2,2.1,4,3.11,5.94,1.58,3.1,3.19,2.77,4.63,0A58.14,58.14,0,0,0,313,12.41c.55-1.45.56-3.55,2.6-3.45,2.21.1,1.62,2.44,2,3.79a48.84,48.84,0,0,1,1.26,7.05c.2,1.43.09,3.06,1.88,3.45,2.26.49,1.14,1.78.79,2.83a2.5,2.5,0,0,1-2.45,2c-1.6-.05-2-1.22-2.09-2.64A24.47,24.47,0,0,0,315.08,16.31Z"/><path d="M343.89,66.55a33.82,33.82,0,0,1-.44,3.76,1.73,1.73,0,0,1-1.61,1.52,1.64,1.64,0,0,1-1.76-1.31c-.78-3.88-2.15-7.75-1.24-11.78.77-3.41,3.24-4.28,6-2a28.08,28.08,0,0,1,4.92,5.18c2,2.78,3.45,2.12,5-.38a18.57,18.57,0,0,0,2.64-5.58,2.17,2.17,0,0,1,4.18-.29c2,4.57,1.63,9.7,3.32,14.35.3.8-.32,1.53-1.2,1.77a1.79,1.79,0,0,1-2.12-.71A29.17,29.17,0,0,1,360,66.59c-.39-1.32.52-3.4-1.06-3.88-1.88-.56-2.17,1.89-3.3,2.86a2.2,2.2,0,0,0-.3.37c-2.09,2.85-4.27,3-6.56.23a10.26,10.26,0,0,0-1.25-1.45c-1-.89-1.58-3-3.17-2.4C342.39,63.09,343.88,65.08,343.89,66.55Z"/><path d="M89.77,676.74c-3.47,3.39-3.52,3.49-8.23,1.13-2.44-1.23-3.56-.89-3.5,2a4.39,4.39,0,0,1,0,1c-.39,1.9.52,5.09-2.09,5.14-3.21.07-1.53-3.06-1.8-4.89-.41-2.82-.23-5.71-1.2-8.49a3,3,0,0,1,1.7-4c1.53-.65,2.74.06,3.77,1.25a24.48,24.48,0,0,0,3,3.07c2.47,2,4.69,2.7,6-1.37.45-1.45,1.27-3.3,3.2-3,2.12.31,2,2.43,2.6,4.07,1.18,3.37-.57,7.28,2.4,10.4,1.08,1.14-.52,2.61-2.09,2.95s-2.29-.41-2.47-2C90.68,681.6,90.2,679.34,89.77,676.74Z"/><path d="M425.75,419.82c-3.09,1.82-2.92,5.28-5.14,7.24-3.26,2.88-4.7-.53-7-2.11-1.3,2.62.31,5-.45,7.23-.3.89-.19,2-1.54,2a1.64,1.64,0,0,1-1.62-1.48c-.75-5.71-.36-11.51-1.55-17.19a1.56,1.56,0,0,1,1.38-1.7c1.36-.29,2,.48,2.57,1.6a40.62,40.62,0,0,0,3,6c2.53,3.58,3.48,3.44,5.49-.4l3.33-6.37c.52-1,1-2.18,2.39-1.9,1.1.21,1.28,1.28,1.57,2.19,1.76,5.55,1.55,11.7,5.54,16.59.83,1-.17,2.89-1.81,3.31s-2.38-.84-2.55-2.17A43.35,43.35,0,0,0,425.75,419.82Z"/><path d="M254.47,794c.05,5.15-2.8,8.24-8.82,9.58-5.05,1.12-8.3-.51-10.4-5.28-1.47-3.34-1.57-7.16-3.63-10.32a2,2,0,0,1,.85-2.88c1.57-.78,2.39.4,2.78,1.68.71,2.28,1.3,4.59,1.84,6.91.61,2.61,1.77,4.82,4.25,6a4.39,4.39,0,0,0,4.16.13c1.53-.95,0-2.26-.1-3.42,0-.31-.21-.6-.27-.91-.68-3.61,2.1-9.84,4.55-10.22C252.29,784.86,254.4,788.72,254.47,794Z"/><path d="M107.8,796.25a22,22,0,0,1-3.35,0c-2.56-.39-4.49-.15-4.39,3.16,0,1.15-.35,2.42-1.78,2.35s-1.34-1.47-1.58-2.55c-.83-3.88-.68-7.95-2.43-11.67-.4-.85-.38-3.15.6-2.69,3.79,1.76,4.71-2,7-3s4.91-.92,6.73.9c2,2,1,4.4-.13,6.63-.49,1-2.43,1.56-1.21,3.13.81,1,2.11.3,3.14.53,2,.45,5.54-1.8,5.62,1.23.08,3.47-3.81,1.26-5.84,1.93a9.32,9.32,0,0,1-2.38.16Zm-2.29-9.17c.21-1.34-.46-2.18-1.46-2-1.72.33-3.26,1.19-3.57,3.21-.15,1-.12,2.05,1.16,2.06C103.89,790.39,104.81,788.73,105.51,787.08Z"/><path d="M278.12,377.49c0,3.84.13,6.54-.06,9.23-.08,1.18-.5,2.81-2.12,2.71-1.39-.09-1.34-1.55-1.44-2.65-.49-5.24-.68-10.51-2-15.64-.24-.92-.52-1.95.4-2.65s1.71.24,2.58.48c3.39.95,4.06,4.31,6,6.54,3.87,4.53,5.52,4.41,8.16-.84.75-1.5.7-4,2.81-4.05,2.39-.08,2.46,2.59,3.32,4.16,1.21,2.23,2.15,4.61,3.21,6.93a1.9,1.9,0,0,1-.93,2.8c-1.51.68-1.92-.52-2.33-1.59a7.94,7.94,0,0,0-.32-.9c-1-1.76-.42-4.82-2.58-5.26-2-.4-2.2,2.68-3.63,3.9a5,5,0,0,1-6.56.41C281.34,380.24,280.22,379.18,278.12,377.49Z"/><path d="M245.38,667.18a3.54,3.54,0,0,1,2.05-4.29c2.48-1.25,3.38.75,4.67,2.05.78.79,1.65,1.51,2.38,2.34,2.1,2.41,3.86,2.33,5.56-.47.95-1.57,1.73-3.8,4.15-3.25,2,.46,2,2.71,2.64,4.25.94,2.18,1.59,4.49,2.5,6.69.57,1.38,1.4,2.88-.35,3.72s-2.35-1.07-3.14-2.12a18.29,18.29,0,0,1-1.28-2.54c-.94-1.78-1.4-3.95-3.46-.4-1.79,3.1-4.28.4-6-.72-3.45-2.24-5.32-3-4.29,2.49.28,1.43.37,3.93-2.21,4-2.37,0-1.87-2.15-2.11-3.6C246.08,673,245.83,670.57,245.38,667.18Z"/><path d="M451.24,72.55c-1.06,6.61,2.15,10.84,6.71,14.26,5.44,4.08,9,2.49,9.71-4.21,1-9.09-1.11-17.81-3.33-26.5a20.3,20.3,0,0,1-.79-2.75,1.82,1.82,0,0,1,1.5-2.11,1.56,1.56,0,0,1,2.07,1.41c1.95,12.11,5.24,24.16,2.37,36.57-.77,3.35-3.39,4.26-6.34,3.22-7-2.48-12-7.18-14.44-14.34C448,76,448.07,74,451.24,72.55Z"/><path d="M593.67,5.07a27.94,27.94,0,0,1,13.44,2.79c4.31,2.2,4.43,5.65.38,8.37-4.77,3.21-10.26,4.23-15.79,5.1-2,.31-2.91-.45-2.81-2.65a15.59,15.59,0,0,0-1.71-8.81c-2-3.37-.95-4.63,2.66-4.63C591.12,5.24,592.39,5.13,593.67,5.07Zm3.61,3.81c-2.25.42-5.78-1.29-5.15,3.71.75,5.9.74,6.18,6.54,3.8,2.71-1.11,7.72-1.27,7.11-4.78C605.29,8.74,600.46,9.25,597.28,8.88Z"/><path d="M547.06,428c-7.21.25-11.15-3.4-11.07-10.6a56.94,56.94,0,0,1,1-8.07c.17-1.11.56-2.44,2-2.27,1.56.18,1.26,1.59,1.09,2.67-.3,1.89-.7,3.77-1,5.66-.42,2.43-.42,4.86,1.1,6.92,1.19,1.61,2.89,2.74,5,2,2.33-.83,1-2.59.74-4.05-.41-2.92-.38-5.87,1.77-8.14,1.37-1.45,3.29-.86,5-.36a4.19,4.19,0,0,1,2.71,2.52C558.23,420.88,554.07,427.79,547.06,428Zm1.94-9c.22.84-.59,2.72,1.32,2.67s2.66-1.94,3-3.73c.25-1.44-.09-2.58-1.81-2.59C549.18,415.39,549.36,417.29,549,419.06Z"/><path d="M526.36,415.84c.75,1.22,1.09,1.74,1.39,2.27,1.08,1.9,1.94,4.63.11,5.57s-2.82-1.81-3.67-3.45c-1.12-2.15-2.76-3.53-5.28-3.48s-4.3,1.5-5.59,3.81-1.82,6.62-4.79,5.22c-3.57-1.67,1-4.53.86-6.91a13.26,13.26,0,0,1,3-9.46c2.69-3.35,5.42-3.67,7.93-.17,2.1,2.94,4.37,5.11,8.37,3.7.85-.3,2-.53,2.27.84s-.67,1.57-1.75,1.63C528.46,415.45,527.71,415.63,526.36,415.84Z"/><path d="M229.11,795.38c-.37,2.54-1.49,4.54-4.93,3.89-2.84-.54-5.73-1.12-8.16-2.68s-3.29-1-3.62,1.71c-.16,1.35-.31,3.22-2.41,2.8-1.52-.3-1.61-1.78-1.59-3.11,0-3.68.12-7.32-2.07-10.62a2.29,2.29,0,0,1,1.13-3.59c1.77-.67,3.08,0,3.77,1.84,1.74,4.72,5.27,7.48,9.94,9,1.26.41,2.56.94,3.61-.08s0-2.12-.31-3.1a43.84,43.84,0,0,0-2-4.87c-.82-1.78-.67-3.16,1.48-3.63,1.86-.41,2.73.61,2.69,2.37C226.55,788.78,228.73,791.66,229.11,795.38Z"/><path d="M386.42,626.08c-1.93,0-2.38-1.21-2.67-2.47-1.08-4.65-2.09-9.31-3.13-14-.28-1.21-.18-2.32,1.19-2.68a2.18,2.18,0,0,1,2.91,1.76c.91,6.11,5.52,3.17,8.68,3.59,1.26.17,1.36-1.07,1.32-2.06,0-1.15-.12-2.39,1.3-2.71s2.38.63,3.2,1.67c1.57,2,1.82,4.37,2,6.76s0,5.12,1.4,7.43c.77,1.29.77,2.44-.83,3.11a2.25,2.25,0,0,1-3.19-1.19,20,20,0,0,1-1-4.63c-.27-2,.22-4.58-2.39-5.14a9.34,9.34,0,0,0-7.79,1.36c-2.29,1.76-.84,3.68.34,5.43.52.76,1.41,1.43.85,2.51A2.77,2.77,0,0,1,386.42,626.08Z"/><path d="M352.77,722.55c-2.88,4.82-6.78,3.53-9.93,4.22-1.31.28-3.52-.41-3.4,1.57.13,2.32,2.38,1.58,3.85,1.36,2.68-.42,5.33-1.06,8-1.54,1-.19,2.42-.67,2.76.89.25,1.14-.9,1.49-1.75,1.94-2.61,1.35-5.46,1.7-8.3,2.15-1.52.24-3.58.21-3.78,2.24a8,8,0,0,0,1.86,5.81c1.6,1.88,2.72-.13,3.89-1,.68-.53,1.45-.93,2,0a2,2,0,0,1,.17,1.72c-1.39,2-3.2,3.75-5.68,4.06s-3.62-1.73-4.43-3.7a43.24,43.24,0,0,1-2.73-12.59c-.28-3,1.3-5.49,4.38-6C343.69,723,347.77,722.94,352.77,722.55Z"/><path d="M357.22,674.22c.63-3.3.55-5.62-3.6-4.6-1.2.3-2.13-.52-2.19-1.93s.81-1.58,1.82-1.73c3.47-.53,7-.48,10.39-1.72a1.51,1.51,0,0,1,2.11,1.3,1.58,1.58,0,0,1-1.53,2c-2.43.36-4.13,1.52-3,4.16s3.08.55,4.6.37a42.28,42.28,0,0,0,5.08-1.34c1.16-.29,2.88-1.23,3.35.25.56,1.78-1.4,2.18-2.74,2.6-2.29.73-4.6,1.35-6.89,2.07-1.85.59-4,1.17-3.29,3.79.49,1.92.59,4.5,3.31,4.68,2.36.16,3.83-1.23,4.28-3.66.22-1.17.32-3,2.16-2.29,1.15.47.64,2,.23,3.05-1.35,3.32-2.84,6.83-7.13,6.72-4.54-.11-5.42-3.81-6-7.4C357.74,678.32,357.49,676.1,357.22,674.22Z"/><path d="M493.13,24.59c-1.43,0-3.48.22-4.31-1.7-1-2.38,1.76-1.55,2.41-2.48,1.06-1.52.62-3.42.3-5.08a54.05,54.05,0,0,0-1.9-6.41c-1.24-3.8-.3-5,3.73-4.78A17.45,17.45,0,0,1,502,6.89c2.82,1.87,5.74,3.87,5.49,7.81s-2.88,6.28-6.1,8A18.24,18.24,0,0,1,493.13,24.59Zm2.62-16.34a1.66,1.66,0,0,0-1.44,2.54c1.35,3.2-1.16,8.63,3.92,9.38,2.43.35,5.28-2.76,5.84-6C504.41,12.34,498.45,8.12,495.75,8.25Z"/><path d="M170.82,789.94c.31-1.86-2.16-5.34,1.36-5.75s2.26,3.5,2.58,5.55a102.55,102.55,0,0,1,1.62,18.1c0,1.61,0,3.21,1.34,4.43s.81,2.55-.11,3.8c-.7,1-1.47,1.81-2.76,1.24-1.47-.65-1.23-2.13-1.31-3.35-.28-4.62-.48-9.25-.72-13.87-.13-2.54-.58-4.43-3.53-1.93-2.39,2-4.42.74-6.41-.84-2.32-1.85-3.6-4.44-5.06-6.91-.75-1.26-1.63-2.71.16-3.68,1.61-.87,2.18.72,2.85,1.76.95,1.47,1.81,3,2.81,4.45,1.18,1.7,2.74,2.72,4.9,1.95S171.09,792.25,170.82,789.94Z"/><path d="M358.18,436.88c.21-5,3.66-10.29,5.16-16.16.48-1.87,2.06-1.7,3.5-.85s1.8,2.2,2.41,3.5c1.77,3.77,4,6.66,8.84,4.75.81-.32,2-.69,2.53.49s-.67,1.56-1.44,2-1.9.65-2,1.12c-1.14,7-4.32,2.38-6.76,1.17-3.05-1.51-5.24-.63-6.83,2.16-.79,1.38-1.39,2.88-2.19,4.26-.53.9-1,2.22-2.47,1.59C357.7,440.39,357.69,439.22,358.18,436.88Z"/><path d="M551.5,17.8c1.09-3.85-1.12-4.37-4.46-3.65-1.25.26-2.5.52-3.76.68-6.17.82-6.15.8-4.55,6.94.38,1.49,1.23,3.52-.83,4.15-2.47.74-2.74-1.53-3-3.24-.77-4.88-1.48-9.77-2.17-14.66-.18-1.27-.34-2.73,1.47-3,2-.26,1.81,1.45,1.84,2.6.07,4,2.09,4.92,5.63,4a37,37,0,0,1,4.71-.75c2.24-.29,4.74-.18,3.84-3.74a1.42,1.42,0,0,1,1.42-2,1.77,1.77,0,0,1,1.9,1.73c.75,4.86,1.53,9.71,2.17,14.58a1.74,1.74,0,0,1-1.67,2,1.81,1.81,0,0,1-1.89-1.12C551.38,21,551.47,19.59,551.5,17.8Z"/><path d="M156.86,665.45c.44,0,1.88-.13,3.3-.25,6.52-.59,9.57,3.24,7.57,9.49-2.14,6.7-8.1,8.57-13.74,10.75-1.81.7-2.05-1.06-2.34-2.23q-1.68-7-3.2-14a2.83,2.83,0,0,1,2.64-3.74A45.67,45.67,0,0,1,156.86,665.45Zm2.21,3.26c-1.84,1.15-6.23-1.22-5.7,3.22.37,3.07-1.78,7.94,3.34,9,3,.64,8.35-5.33,8.22-8.69C164.79,668.47,161.62,669.22,159.07,668.71Z"/><path d="M233.58,732a5.75,5.75,0,0,1-.14-1.42c.29-2.35.16-5,2.56-6.34,1.23-.71,2.43.06,3.46.94A6.72,6.72,0,0,1,241.8,732c-.52,2.42-2.71,4.37-2,7.18.18.68-.63,1.43-1.12,1.17-3.45-1.81-6.85.62-10.25,0-2.83-.53-4.36-2.52-5.25-5a23.39,23.39,0,0,1-1.32-8.93c.06-1.29-.56-3.27,1.75-3.15,1.87.09,2,1.75,2.08,3.23a55.9,55.9,0,0,0,.49,6.62c.53,2.75,2.48,4,5.26,3.67C234.64,736.34,233.87,734,233.58,732Z"/><path d="M432.2,375.94a28.79,28.79,0,0,1,0,2.95,2,2,0,0,1-1.8,1.91c-1.33.09-1.38-1.19-1.5-2-.72-5.13,0-10.49-2.78-15.3a1.82,1.82,0,0,1,1.53-2.5c1.72-.36,2.72.67,3.36,2.06,1.84,4,5.05,6.49,8.74,8.51a3.07,3.07,0,0,0,2.18.49c1.08-.44.77-1.6.54-2.5-.51-2-1.17-4-1.64-6-.29-1.27-.37-2.71,1.26-3.15s2.21.73,2.51,2.1c.68,3.1,1.36,6.2,2.07,9.3.4,1.75.77,3.58-.8,4.88s-3.36.16-4.9-.54-3-1.76-4.58-2.54c-1.1-.55-2-2.05-3.34-1.44C431.34,373,432.46,374.72,432.2,375.94Z"/><path d="M303.53,266.54c1.17,4.62-2,10-5.88,10.37-2.45.24-3.92-1.16-4.6-3.36a66.35,66.35,0,0,1-3.14-16.41c-.13-2.74.74-4.15,3.72-4.23,3.35-.08,6.68-.54,10-.82.81-.07,1.71-.06,2,.88.35,1.22-.59,1.76-1.53,1.95a84.31,84.31,0,0,0-10.06,2.3c5.25,2.18,10.48-.81,15.82.35-3.89,1.1-7.76,2.29-11.68,3.26-2.18.55-4.11,1.15-3.93,3.88.2,3.15,0,6.53,2.78,8.8,1.36,1.1,2.3-.3,3.26-1.05C302.07,271.06,302.14,268.6,303.53,266.54Z"/><path d="M111.84,731.44c-.56,3.31-.82,5.47-1.32,7.58-.3,1.24-1,2.47-2.57,2.4-1.41-.06-1.74-1.29-2.1-2.31-1.34-3.75-2.08-7.71-4.24-11.16-.63-1-.71-2.26.68-2.82s2.49.12,2.89,1.59c.76,2.75,1.46,5.53,2.2,8.38,2.16-.58,1.48-2.34,2-3.46.92-1.87-.44-5.23,2.44-5.58,2.42-.29,2.51,2.87,3.65,4.49.74,1,1.29,2.22,2.07,3.22s1.94,2.37,3.57,1.88c1.45-.43,1.44-1.92,1.67-3.18a21.38,21.38,0,0,0,0-6.68c-.18-1.37.12-2.7,1.89-2.66s1.93,1.4,1.78,2.76a87.76,87.76,0,0,1-1.17,9c-.47,2.12-1.07,4.65-3.69,5.15-2.28.43-3.88-1.25-5.26-2.81S113.84,734,111.84,731.44Z"/><path d="M207.71,662.6c3.21.62,6.22-1.22,9.44-.86,1.09.12,2.45.06,2.43,1.63s-1.25,1.58-2.41,1.7c-3.48.37-6.95.8-10.44,1.14-.92.09-2.09-.18-2.18,1.13s1.12,1.43,2,1.39c2.38-.09,4.75-.36,7.13-.49.9,0,2.19-.34,2.46.79.36,1.5-1.1,1.79-2.11,2-2.19.41-4.43.58-6.64.9-1.23.18-2.71.15-2.8,1.94s.31,3.5,2.13,4.44c1.36.71,2.65,1.13,3.79-.44.58-.79,1.06-2.41,2.46-1.21s.08,2.33-.56,3.31c-2,3.07-5.48,3.72-8.21,1.62-3.89-3-4.84-14.74-1.53-18.19C204.23,661.79,206.05,663,207.71,662.6Z"/><path d="M294.5,65.2l.2-3.72c.13-2.13-.14-4.78,3.26-2.3,1.32,1,2.42-.21,3.59-.52,4.54-1.22,9.44.23,11.56,3.61,2.62,4.16.71,7.77-1.9,10.93s-5.26,6.16-9.79,6.07c-1,0-2.52.45-2.8-1.1s1.2-1.53,2.24-1.77c4-.92,6.69-3.56,8.78-6.93,1.08-1.75,1.59-3.55.09-5.3-2.26-2.63-5.2-2.79-8.36-2.22-2.45.43-2.94,2.13-2.93,4.22s.09,4.16-.06,6.23a2,2,0,0,1-1.8,1.95c-1.2.07-1.63-.92-1.75-1.88C294.53,69.94,294,67.4,294.5,65.2Z"/><path d="M23.93,735.12c-1,1.64.1,3.4-.22,5.08-.18,1-.32,2-1.5,2.11s-1.75-.83-1.88-1.75c-.57-4.25-1-8.51-2.27-12.65a2.48,2.48,0,0,1,1.85-3c1.56-.53,2.31.34,2.88,1.69a14.92,14.92,0,0,0,2,3.76c4.1,5,6.84,4.64,9.31-1.17a18.88,18.88,0,0,1,1.52-3,2.12,2.12,0,0,1,2.43-1.06c1,.27,1,1.17,1.1,1.93.34,2,.61,4.1,1,6.13.26,1.34.11,3,2,3.37,1.19.22,2.31.45,1.83,2a4,4,0,0,1-2.78,2.44c-1.42.52-2-.61-2.4-1.67s-.5-2.17-.84-3.22-.57-3-1.38-3.36c-1.49-.72-1.82,1.28-2.65,2.12C31.53,737.44,31.13,737.46,23.93,735.12Z"/><path d="M374.41,57.69c4.32,1.26,8.12-1.6,12.28-.18-1.85,3.27-5.16,3.38-8.08,4.14-3.54.93-4.4,3.36-2.07,6,2.9,3.29,3.17-2,5.46-1.48.47,3.27-.42,5.86-4,6.69s-4.65-1.95-5.18-4.36c-.91-4.1-4.46-7.89-1.71-12.55.45-.77.27-2.18,1.24-2.42,4.63-1.14,9.29-2.06,13.7-4,.8-.35,1.53.46,1.62,1.33a2.06,2.06,0,0,1-1.57,2.15c-2.41.85-4.91,1.44-7.27,2.37C377.46,56,375.69,55.86,374.41,57.69Z"/><path d="M407.67,367.21c4,1.17,7-.35,10.37-.6-1.75,3.25-5.15,3.75-8.18,4.75-1.53.5-3.81-.35-4,2.3a4.63,4.63,0,0,0,2.57,4.74c2,1,3.87,1.21,5.75-.41,1-.84,1.3-3.85,3.26-1.89,1.42,1.42-.13,3.33-1.33,4.59a7.21,7.21,0,0,1-7.93,1.84,7.86,7.86,0,0,1-5.7-7c-.2-1.89,0-3.82-.06-5.72-.11-4.25,2-6.48,6.14-7.07a68.88,68.88,0,0,0,7-1.24c1.2-.31,2.34-.74,2.67.76s-1.07,1.81-2.11,2.11C413.5,365.16,410.59,365.15,407.67,367.21Z"/><path d="M49.43,787.94c3.62,2.19,6.58-.48,10,.52-1.78,2.89-4.8,2.92-7.26,3.8-1.57.57-4,.09-3.63,2.72s.43,5.63,3.39,7c2.12.94,3.14-.85,4.27-2.18.74-.87,1.22-2.82,2.7-1.71,1.31,1-.08,2.4-.71,3.37-1.63,2.46-3.69,4.74-6.94,4.28-3-.42-3.85-3.1-4.55-5.59-1-3.7-1.9-7.43-2.87-11.14-.72-2.73.2-4.22,3.08-4.71,3.46-.59,6.87-1.42,10.3-2.17,1.27-.28,2.41,0,2.66,1.3s-1.12,1.24-2,1.56C55.26,785.93,52.31,786,49.43,787.94Z"/><path d="M200.6,733.63a5.8,5.8,0,0,1,.07,1.16c-.32,2,1,5.35-2.2,5.34-3.07,0-1.54-3.25-1.7-5a26.91,26.91,0,0,0-1.78-6.42c-.64-1.88-.75-3.87,1-5.28s3.55-.66,5.2.57c2.06,1.52,4.14,3,6.28,4.39,1.13.74,2.16,2.44,3.57,1.8s.94-2.49.8-3.91a7.91,7.91,0,0,1-.06-1.88c.17-1.18.65-2.18,2.09-2.14a1.93,1.93,0,0,1,2,2.17,29.34,29.34,0,0,1-.14,4.3c-.41,2.74.33,6.4-2.63,7.66-2.59,1.1-3.64-2.5-5.58-3.72-.67-.43-1.24-1-1.92-1.42-1.48-.88-3.05-2.64-4.66-1.78S200.83,732.33,200.6,733.63Z"/><path d="M524.73,683.7c-6.53,0-9.35-2.37-10-7.84-.34-3-.45-6.06-.67-9.09-.1-1.39.19-2.73,1.69-3,1.9-.37,2,1.4,2.08,2.53.13,2.21-.15,4.45-.16,6.68,0,3.18.56,6.08,4.06,7.41,4.49,1.7,6,.6,6.55-4.17.35-3.22.7-8,4.73-7.49,3.54.4,3.26,5,2.84,8.16-.47,3.63-2,6.32-6.48,6.12A19.32,19.32,0,0,0,524.73,683.7Z"/><path d="M358.63,373.88c-2.35,4.26-5.84,4.68-8.82,5.79-5.23,1.94-5.83,2.95-3.83,8a6.93,6.93,0,0,1,.69,3.7c-.17,1.2-.67,2.21-2,2.34-1.49.16-1.82-.9-2-2.11-.8-6-1.07-12.08-2.5-18-.49-2,1.14-3.29,2.91-3.84a39.76,39.76,0,0,1,13.64-2.2c1.08.05,2.51-.25,2.62,1.33.15,2.11-1.6,1.4-2.73,1.59-3.61.62-7.23,1.21-10.82,1.94a2.34,2.34,0,0,0-2,3.17c.46,1.58,1.85,1.5,3.16,1.41C350.68,376.71,354.12,375,358.63,373.88Z"/><path d="M441.37,8.54c3.64.89,6.44-.26,9.26-1.16.93-.29,2.07-.65,2.59.33.66,1.23-.2,2.17-1.35,2.58-2.23.81-4.54,1.4-6.76,2.25-1.16.45-3.19-.46-3.3,1.83a3.4,3.4,0,0,0,1.93,3.53c1.11.53,2.57.76,2.14,2.58a2.51,2.51,0,0,1-2.14,2.24,3,3,0,0,1-3.1-1.81c-6-9.74-7.51-15.76,6.92-19.56,1.54-.41,3.11-.72,4.66-1.08,1.25-.28,2.66-.76,3,1.12.31,1.67-1,2.25-2.26,2.5C449,4.68,445,5.61,441.37,8.54Z"/><path d="M154,729.31c-.58,1.7-2.31,1.65-3.53,2-2.75.73-4,1.8-2.35,4.66.72,1.22.78,2.61-.79,3.19s-2.25-.74-2.77-1.94c-.87-2-1.12-4.57-4.27-4.24-2.92.3-4.05,2.1-4.3,4.85-.11,1.27-.6,2.73-2.3,2.45s-1.72-1.78-1.45-3.06A97.1,97.1,0,0,1,135,725.55c1.43-4.19,4.86-4.64,7.16-1s4.92,5.8,9.42,4C152.47,728.21,153.49,728.13,154,729.31Z"/><path d="M155.77,277.7c-.63-4.86-1.14-8.65-1.62-12.44-.14-1.11-.39-2.39,1.11-2.72s2,.55,2.2,1.87c.25,1.92,1.34,3.06,3.26,2.37,2.66-1,6.45.3,7.72-3.36.47-1.36.11-3,2.18-2.93,1.86.06,2.08,1.7,2.53,3,1.09,3.26,1,6.83,3.16,9.86.93,1.31,0,3.22-1.86,3.74-1.66.48-2.15-.9-2.59-2.14-.05-.15-.06-.31-.11-.46-2.15-6.66-3.56-7.19-10.15-4.32-3.07,1.33-3.69,3.51-3.41,6.54.16,1.75,2.5,4.83-.77,5.1C153.83,282.14,156.16,278.44,155.77,277.7Z"/><path d="M514.7,364.39c-.19,1.72-1.55,1.78-2.5,1.95-2.78.5-3.61,1.19-.93,3.28a2.32,2.32,0,0,1,0,3.77c-2,1.43-2.33-.84-3-1.84-1.36-2-2.52-4.22-5.51-3.72s-3.46,2.93-4.2,5.23c-.45,1.41-.45,3.74-2.7,3.08s-1.09-2.65-.76-4.12c1.05-4.66,2.19-9.3,3.23-14,.21-.95.15-1.95,1.31-2.29a2.49,2.49,0,0,1,2.93,1,12.64,12.64,0,0,1,1.52,2.43c1.53,3.74,4,5.69,8.21,4.53A2.16,2.16,0,0,1,514.7,364.39Z"/><path d="M254.67,422.48a14.34,14.34,0,0,1,2.64-.16c1.34.14,3.69-1.62,3.77,1.06.08,2.24-2.37,1.51-3.82,1.7-2.06.28-4.14.41-6.2.65-1.13.12-2.38.25-2.15,1.88s1.44,1.43,2.58,1.26c.47-.07.94-.41,1.38-.36,1.7.17,3.81-3.06,4.74-.32.55,1.62-2.78,2.26-4.42,2.66-3.67.89-4.19,3-3.16,6a3.22,3.22,0,0,0,6.35-.48c.13-.94.1-1.91.17-2.86.06-.65.19-1.32,1-1.43,1.05-.16,1.27.62,1.51,1.41,1.12,3.58-1.06,8.77-4.15,9.81-3.39,1.15-6.41-1.11-7.51-6-.68-3-2.34-5.68-1.9-9.21.56-4.42,1.93-6.53,6.56-5.64A15,15,0,0,0,254.67,422.48Z"/><path d="M302.4,622.08c-.85,1.6,1.65,5.56-1.73,5.43s-1.32-3.77-1.32-6c0-3.42-1.32-6.53-2.26-9.73-.42-1.43-1.54-3.29.55-4.16,1.76-.72,2.24.9,2.95,2.26,1.41,2.7,7,2.38,8.69-.48.7-1.16.58-3.07,2.68-2.61,1.75.39,1.69,2.06,2.14,3.4,1.38,4.11.55,8.59,2.31,12.68.68,1.6-.69,2.77-2.3,2.91s-2-1.18-2-2.57c0-1,.1-1.92.08-2.87-.15-7.08-.75-7.5-7.28-5.2C302.18,616.14,302.18,616.14,302.4,622.08Z"/><path d="M221.63,674.42c.42-3.27,3.27-6.45,5-10,1.13-2.3,3.69-.14,5.35,1,2.47,1.66,3.86,5.19,7.94,4,1.11-.32,1.58,1.48.52,1.79-3.81,1.11-2.32,3.21-1.54,5.51.51,1.48.67,3.48-1.43,3.93-1.74.37-1.83-1.43-2.13-2.6-.47-1.84-.46-3.95-3.15-4.07s-4.76.48-6.26,2.75c-.79,1.19-.36,3.82-2.67,3.24S222.05,677,221.63,674.42Z"/><path d="M316.83,373.83a9.91,9.91,0,0,1-.1-1.52c.17-1.45-.72-3.65,1.69-3.75s2.33,2.21,2.37,3.88c.13,5.41-.11,10.83.71,16.22.38,2.51.27,5,1.88,7.29.93,1.29,1,2.89-.91,3.47s-2.48-1-2.7-2.43c-.56-3.61-1-7.24-1.52-10.87-.27-2-.12-4.13-3.18-1.9-2.22,1.62-4.65,1-6.33-1.23-2.45-3.23-3.1-7.3-4.88-10.85a1,1,0,0,1,.64-1.47,2,2,0,0,1,1.65.53c1,1.81,1.81,3.69,2.6,5.58.88,2.13,1.06,5.18,4.46,4.41,3-.68,3.55-3.32,3.61-6C316.84,374.54,316.83,373.9,316.83,373.83Z"/><path d="M149.14,608.08c1.4.19,2.66.34,3.91.54,5.62.89,8.57,3.68,8,7.57-.74,5.26-6.35,9.56-11.29,8.73-2.47-.42-3.93-1.5-4.29-4.24a88.83,88.83,0,0,0-1.59-8.9C142.72,606.85,147.33,609.26,149.14,608.08Zm-.53,8c.6,1.81.49,5.33,3.53,5.29a5.56,5.56,0,0,0,5.08-5.47c.08-3.69-3.46-3.07-5.73-3.5S148.31,613.33,148.61,616.05Z"/><path d="M58.63,616c1.16,1.23,2.55,1.17,4,.94.9-.15,2.05-.68,2.28.75.2,1.22-.94,1.52-1.83,1.8a18.32,18.32,0,0,1-3.24.82c-6,.77-6.19,1-5.1,7.13.35,2,1,4.16-1.83,4.29-2.54.11-2.12-2.17-2.18-3.92-.19-4.71,1.46-9.55-1.3-14.1-.78-1.27.61-2,1.79-2.06q6.23-.29,12.46-.36c1,0,2,.47,2,1.65,0,1.52-1.1,1.7-2.3,1.78C61.73,614.79,59.84,614,58.63,616Z"/><path d="M243,68.61c-2.26,4.31-6,4.69-9.22,5.34s-4,1.89-3.3,4.85a12.17,12.17,0,0,1,0,3.76,1.81,1.81,0,0,1-3.62-.26c.33-4.19-.65-8.21-1.22-12.3-.41-2.94,2.17-4.47,4.41-5.66,3.47-1.84,7.48-1.29,11.21-2.06,1.63-.34,2.08,1.1,2,2.53s-.83,1.78-2.23,1.64a16.61,16.61,0,0,0-9.76,1.48c-.66.35-1.53.76-1.3,1.72s1.19,1,2,.89C235.33,70,238.74,69.36,243,68.61Z"/><path d="M209.29,616c-.13-1.27-.25-2.53-.37-3.79-.09-1-.07-2,1.08-2.33s1.78.39,2.06,1.45c.59,2.27,2.26,2.45,4.12,2s3.69-.45,3.87-3.24c.2-3.13,2-3.26,4.14-1.32,1.82,1.65,4.9,13,4.08,15.22-.62,1.67-1.71,1.79-2.9.64s-1.29-2.51-1.6-3.91c-.46-2.08.49-5.76-3.39-4.64-2.75.8-8.52-1-6.78,5.69.35,1.36.05,3.07-1.94,3.14-1.81.07-1.78-1.53-1.93-2.74-.27-2-.41-4.12-.6-6.18Z"/><path d="M377.35,617.9c-.48,2.26.95,6-3.14,7.09s-10.72-1.71-12-5.14a23.9,23.9,0,0,1-.88-11.84c.18-1.23.68-2.77,2.29-2.54,1.88.27,1.91,1.79,1.59,3.36-.72,3.46-1.39,6.91.54,10.27.85,1.47,1.77,2.9,3.62,2.55s1.29-2.25,1.42-3.58c.17-1.75.22-3.51.44-5.25.18-1.44.49-3,2.34-3.15s2.35,1.23,3,2.55C377.35,613.88,377.4,615.61,377.35,617.9Z"/><path d="M185.32,260.79a17.89,17.89,0,0,0,7.08-.47c1-.21,2,0,2.28,1.12.38,1.38-.42,2.09-1.67,2.35-1.56.32-3.16.49-4.69.92-2,.56-3.34,1.8-3.28,4.1,0,1.83.47,3.65,2,4.68s1.95-1.83,3.83-1.47c.8,3-.44,5.23-3.2,6.19-3.1,1.09-3.54-1.85-4.4-3.79a22.35,22.35,0,0,1-1.88-7.86c-.46-8.62,4.83-13.51,13.48-12.45.6.07,1.41.07,1.43.87a3.1,3.1,0,0,1-.58,1.74c-1,1.46-2.8,1.32-4.29,1.81C189.49,259.15,187.19,258.58,185.32,260.79Z"/><path d="M121.7,618.19c0,2.72,0,4.62,0,6.53,0,1.23-.59,2.23-2,2.14-1.15-.08-1.54-1-1.57-2.05a40.4,40.4,0,0,0-2-11.27c-.35-1.06-.36-2.28.92-2.9s2.09.09,3,.83a49,49,0,0,0,9.69,6.1c3,1.41,3.81.32,3.57-2.52-.06-.63-.25-1.25-.33-1.88-.23-1.85-2.19-4.54,1-5.1,2.52-.44,2.25,2.6,2.66,4.31a15.79,15.79,0,0,1,.35,4.75c-.33,4.43-3.18,6.19-7.28,4.57-1.33-.53-2.56-1.29-3.87-1.87C124.69,619.32,123.51,618.9,121.7,618.19Z"/><path d="M289.56,662.79c0-.76,0-1.8,1.19-2.07,1.45-.34,2,.56,2,1.88,0,2.83,1.85,2.87,3.93,2.72a12.93,12.93,0,0,1,2.85.09c2.79.44,6.24.36,6.57,4.15s-2,6.4-5.55,7.38c-3.19.88-6.78.86-5,5.89a1.79,1.79,0,0,1-1.77,2.32c-1.4.05-1.78-1.07-1.92-2.27C291.12,676.26,290.35,669.64,289.56,662.79Zm9.06,5.52c-1.66.45-4.79-.5-5.09,3a3.11,3.11,0,0,0,3.64,3.5c2.53-.24,5.47-.85,5.76-4C303.12,668.8,301.12,668.05,298.62,668.31Z"/><path d="M177.45,732.26c-.36,1.52-1.59,1.44-2.67,1.5-3.34.17-6.69.32-10,.41-2,.05-3.14.42-2.05,2.79.77,1.66.49,3.29-1.58,3.73-2.49.54-2.45-1.64-2.59-3.06a30.11,30.11,0,0,0-3.29-10.9c-.67-1.32-1.51-2.67.43-3.6,1.68-.8,2.88,0,3.29,1.6.73,3,2,2.83,3.86.94a3.84,3.84,0,0,1,1.07-.95c1.89-.83,4.21-3.55,5.75-1.34,1.8,2.57-1.9,2.84-3.28,4-.71.6-1.9,1-1.37,2.13a2.69,2.69,0,0,0,2,1c2.71.13,5.42.05,8.13.11C176.22,730.7,177.48,730.63,177.45,732.26Z"/><path d="M84.26,271.41c0,4.95-5.51,10-10,12-6.84,3-5.65-1.66-6.08-5.15-.3-2.49.25-5.12-1.74-7.25a2.05,2.05,0,0,1,.22-3c1.1-1,2.1-.56,2.64.72.8,1.88,1.61,1.42,2.64.18,1.65-2,4-2.5,6.43-2.79C82.55,265.57,84.27,267.12,84.26,271.41ZM71.82,277c.17,1.07,0,3.06,2.55,3.1,2.25,0,7-5.79,7-8.37,0-1.69-1-2.11-2.41-2.22C75.4,269.24,72,272.41,71.82,277Z"/><path d="M286.76,64c-1.8,3.33-3.89,3.5-5.83,4-1.46.37-3.41.16-3.59,2.39-.13,1.6-.08,3.25,1.21,4.45,1.86,1.73,2.68-.92,4.12-1,.31,0,.62-.09,1.23-.18.29,3.1-1,5.31-3.85,6.08-3.22.87-4.43-1.6-5.42-4.1-1.55-3.94-.71-8.56-3.7-12.17-1.07-1.28.28-2.3,1.71-2.56q7.53-1.36,15.05-2.65c1-.17,2.05,0,2.07,1.25,0,.88-.76,1.27-1.61,1.45-2.95.61-5.91,1.22-8.84,1.92-1.1.26-3.05,0-2.47,1.93.47,1.57,2.11.93,3.32.69C282,65.13,283.8,64.69,286.76,64Z"/><path d="M289.64,427.06a26.72,26.72,0,0,1-10.94,4.37c-3.21.6-3.79,2.38-3.05,5.15a21.53,21.53,0,0,1,.77,3.22,1.88,1.88,0,0,1-1.81,2.31,2,2,0,0,1-2.05-1.64c-1-3.09.87-7.2-3.31-9.27-.51-.25.36-1.38.93-1.94s1.81-1.3,1.18-2.32c-3.41-5.45.81-5.25,4.15-5.76,2.68-.41,5.35-.87,8-1.29,1.38-.22,3.24-.9,3.53,1.11.35,2.39-1.88,2-3.36,2.24-1.89.26-3.82.31-5.69.64-1.67.3-3.84.39-3.45,3,.43,2.79,2.45,1.63,4.11,1.47C282,428,285.12,426.52,289.64,427.06Z"/><path d="M505.78,671c-.49-2-1.07-4-1.43-6a1.93,1.93,0,0,1,1.22-2.33c1.26-.37,1.71.66,1.95,1.56a52.2,52.2,0,0,1,1.52,6.49c1,7.4-.56,8.57-7.67,5.69a22,22,0,0,1-2.6-1.21c-3-1.68-4.72-1.53-4.37,2.57.12,1.45-.26,3.07-2.27,2.92s-1.48-1.79-1.49-3c0-2.88.07-5.75-1.69-8.27-.81-1.16-1.06-2.42.23-3.37a2.77,2.77,0,0,1,4.19.57c2.35,2.94,5.54,4.75,8.73,6.55C504.61,674.65,506.1,674.49,505.78,671Z"/><path d="M118.73,688c0,1.65-.62,2.94-2.32,3.09s-2.11-1.13-2.16-2.54a25.17,25.17,0,0,1,0-2.88c.25-4-.41-5.83-4.84-3.08-3.6,2.24-6.44.76-7.66-3.39a40.42,40.42,0,0,1-1.18-6.59,2,2,0,0,1,1.81-2.37c1.44-.18,2,.6,2.12,1.93.1,1.12.27,2.23.47,3.33.34,1.87.41,4.16,3.06,4.1s4-1.9,4.58-4.22c.26-1-.2-2.2-.1-3.28a2.55,2.55,0,0,1,2.35-2.61c1.5-.08,1.7,1.32,1.83,2.37C117.34,677.22,117.11,682.71,118.73,688Z"/><path d="M341.8,17c-.93,5.54-1.72,12,.85,18.4.46,1.12.66,3.18-1.47,3.37-2,.19-2.13-1.47-2.28-3-.2-1.9-.32-3.83-.68-5.7-.53-2.69,1.45-7.79-5-5-1.67.72-3.49-1.38-4.37-3.14-1.21-2.42-2.17-5-3.23-7.45-.56-1.32-.54-2.77.82-3.33,1.92-.8,1.82,1.14,2.21,2.2.62,1.64,1.08,3.33,1.67,5s1.39,3.14,3.29,2.95a4,4,0,0,0,3.68-3.3c.29-1.39.35-2.83.55-4.24s0-3.2,2.1-3c1.55.13,1.85,1.54,1.86,2.9C341.8,14.41,341.8,15.21,341.8,17Z"/><path d="M154.45,790.17c-2.2.5-4,1-5.92,1.33-3.41.58-7.47.44-4.82,6a2,2,0,0,1-1.9,2.72c-1.55.13-1.75-1-1.81-2.2-.24-4.24-2.9-7.75-3.67-11.85-.46-2.47-.16-3.85,3-3.92,3.95-.09,7.88-.91,11.83-1.31,1.24-.12,2.84-.2,2.94,1.58s-1.42,1.84-2.71,2l-7.13.88c-1.28.17-3,.35-3,1.82.08,1.8,1.95,1.17,3.1,1.19a55.16,55.16,0,0,0,5.75-.23C151.7,788.08,153.32,787.7,154.45,790.17Z"/><path d="M65.05,732.16c0,4.62,0,9.24,0,13.85,0,1.91-.08,3.91,1.76,5.2,1.55,1.08.66,2.18.08,3.29a2.09,2.09,0,0,1-2.27,1.38c-1.74-.31-1.53-1.81-1.65-3-.36-3.65-.72-7.3-.95-11-.15-2.46-.62-3.46-3.44-2.18-4.33,2-6.08,1-7.4-3.44-.59-2-1.08-4-1.49-6-.21-1.06-.53-2.44.93-2.82s1.78.9,2,2c.28,1.41.55,2.82.85,4.22.42,2,1,3.88,3.64,3.4,2.31-.42,4.37-1.26,4.22-4.23a4.3,4.3,0,0,1,0-1c.39-1.75-1.46-4.92,1.93-4.81C66,727.19,65.27,730.21,65.05,732.16Z"/><path d="M322.27,676.82c.4,3.69-.33,6.83-3.88,7.74-3.87,1-4.65-2.35-5.39-5.2-.37-1.39-.75-2.77-1-4.17a10.66,10.66,0,0,1,13.65-12.68c1,.29,1.74.81,1.64,2-.08,1-.81,1.3-1.66,1.36-1.59.1-3.2,0-4.77.26-2.09.32-4.44.19-6.27,2.8,3.17,1,5.89.37,8.59-.1.91-.16,1.64,0,1.89.93s-.52,1.39-1.31,1.62c-1.53.44-3.07.84-4.61,1.25-3.61,1-4.45,3.51-2.25,6.8,1.11,1.68,2.09,1.88,3-.16A3.37,3.37,0,0,1,322.27,676.82Z"/><path d="M453.35,679.49c0,1.18-.19,2.08-1.3,2.43a1.6,1.6,0,0,1-2-.92c-.39-.69-.65-1.45-1.07-2.12-1.11-1.78-1.11-4.89-4.06-4.59s-4.6,2.65-5.72,5.23c-.37.87-.45,1.86-.81,2.73a1.73,1.73,0,0,1-2.23,1.24,1.59,1.59,0,0,1-1.06-1.88c.37-5.43,2.2-10.51,4.36-15.38,1.34-3,3.87-2.75,5.9-.31,3.14,3.78,5.09,8.22,7.56,12.37A4.89,4.89,0,0,1,453.35,679.49Z"/><path d="M103.77,272.66c1.25,3.73.07,6.19-1.43,8.44s-3.9,4-6.88,3.52c-3.21-.52-4.39-3.24-4.66-6-.37-3.81-.22-7.67-.21-11.51,0-.92.15-2,1.37-2.19a1.36,1.36,0,0,1,1.61,1.37c.17,3.11,2.36,2.53,4.16,2.21,2.35-.42,4.64-1.2,7-1.73,1-.24,2.37-.74,2.7.91.23,1.11-.62,1.72-1.6,2-3.19,1-6.37,2.1-9.57,3.11-1.59.51-3.1,1-2.7,3.2.35,1.95.85,3.82,2.82,4.74s2.9-.53,4.07-1.66C102.05,277.55,101.86,275,103.77,272.66Z"/><path d="M409.22,610.67c-1.48-.32-4.24,1.34-4.47-1.61-.22-2.77,2.48-2.88,4.55-3,4.29-.23,8.62.13,12.83-1.12.85-.25,2-.31,2.27,1a1.94,1.94,0,0,1-.51,1.67c-7.31,4-4.58,10.18-3.58,16,.22,1.3,1.81,2.59.13,3.79a3.67,3.67,0,0,1-2.71.41c-1.69-.42-1.88-1.94-1.91-3.44-.05-2.55-.1-5.11-.17-7.66C415.48,610.54,415.32,610.39,409.22,610.67Z"/><path d="M385.12,5.39c1.35.58,5.22-1.61,5.26,1.5,0,2.8-3.64,1-5.61,1.17a36.13,36.13,0,0,0-8.89,1.7c-.9.31-2.19.57-2,1.67.21,1.34,1.55,1.41,2.71,1.27,1.74-.2,3.48-.51,5.22-.65.88-.08,2.14-.44,2.38.85.28,1.52-1,1.64-2.13,1.95-2.35.67-5.43.09-6.87,2.3s.15,4.88,1.06,7.26A2,2,0,0,1,375,27.15a2,2,0,0,1-2.64-2c0-5.3-2.09-10.25-2.26-15.51C370,7,371.91,6.76,373.51,6.47,377.11,5.81,380.71,4.94,385.12,5.39Z"/><path d="M466,422.05c-5.63-6.3-6.13-10.18-2.22-15.06.71-.89,1.47-1.95,2.69-1.18.91.56.62,1.68.39,2.65-2.38,10.11-2,10.68,8.56,12.54,1.59.29,3.91-.19,3.82,2.52-.07,2.45-2.28,1.84-3.66,2.08-5.44.92-10.86,1-16-1.51-1-.5-2.85-.9-2.14-2.59.78-1.87,2.13-.67,3.15,0A5.74,5.74,0,0,0,466,422.05Z"/><path d="M347.74,670.43c0,.64,0,1.28,0,1.92-.1,5.72-.86,6.38-6.09,4.57-3.3-1.14-6.88-3.66-5.94,3.15a2.2,2.2,0,0,1-2.46,2.38c-1.39-.06-1.78-1.13-1.8-2.35-.09-3.83-.16-7.65-.25-11.48,0-1.18.26-2.4,1.37-2.86,1.73-.71,1.95,1,2.69,2a28.34,28.34,0,0,0,3.21,3.54c1.43,1.34,3.22,2.59,5.16,1.82,2.19-.85.77-3.07,1-4.66.14-.94-.08-1.92,0-2.87s.5-1.94,1.67-1.95c1.34,0,1.37,1.11,1.4,2,.05,1.6,0,3.2,0,4.8Z"/><path d="M321.26,723.06c1.52.87,5.78-1.67,5.59,2.18-.17,3.49-3.91.6-5.94,1.23a8.43,8.43,0,0,1-1.43,0c-2.33.25-5.91.28-5.66,2.9s3.44.6,5.33.66c1,0,1.91-.17,2.87-.16.59,0,1.45,0,1.35.88a2,2,0,0,1-.95,1.43,11,11,0,0,1-3.23.76c-3.69.27-5.14,2-4.19,5.71a9.11,9.11,0,0,1,.26,2.85c-.05,1-.49,1.86-1.74,1.85s-1.91-.71-1.82-1.76c.38-4.3-1.28-8.14-2.44-12.11-.69-2.37.26-4,2.59-4.91A19.1,19.1,0,0,1,321.26,723.06Z"/><path d="M546.06,366.87c.8-1.92-.54-3.66-.68-5.54-.27-3.46.67-6.29,3.57-8.35.93-.67,1.94-1.42,2.94-.35s.52,2.07-.2,3.05c-4.44,5.95-4.39,6.06,1.7,10.4a34.9,34.9,0,0,1,4.75,4,4.63,4.63,0,0,1,.67,5.78c-1.18,2.06-3.2,2.34-5.44,1.79C548.34,376.41,545.57,372.41,546.06,366.87Zm9.66,5.82c-1.29-2.48-3.71-3.73-6.08-4.95-1-.5-1.48.58-1.43,1.32.2,3.17,2.63,4,5.16,4.72A1.67,1.67,0,0,0,555.72,372.69Z"/><path d="M148.34,278.33c-.13,1.53-.66,3.21-2.23,3.28-2.36.11-1.15-2.05-1.43-3.22a13.68,13.68,0,0,1,0-2.4c-.55-10.82-.55-10.81-11.1-9.45-1.13.14-2.69,1-3.14-1-.34-1.51.54-2.46,2-2.75,5.33-1.07,10.66-2.09,16-3.12,1-.2,1.92-.17,2.46.9s.56,2.21-.39,2.55c-4.31,1.56-3,5-2.93,8C147.57,273.61,147.45,276,148.34,278.33Z"/><path d="M578.22,374.11c-6.51,0-10.7-3.77-10.57-8.8.18-6.63,3-8.61,9.18-6.39,1.34.47,2.61,1.16,3.91,1.75,3.64,1.67,6.31,4.09,5,8.49C584.6,373.22,581,373.84,578.22,374.11Zm-1-3.45c2.48-.3,5.28.07,5.71-3.23.29-2.19-4.78-5.66-8.08-5.61-2.21,0-4.59.69-4.24,3.38C571.07,368.83,573.66,370.59,577.2,370.66Z"/><path d="M11.11,278.07c.93-2.22-2.21-6,1.23-7s2.51,3.74,4.4,5.24c.25.2.4.51.64.71,2.15,1.8,4.29,5.14,7.2,3.46,3.18-1.82.67-5.08,0-7.69-.24-.92-.8-1.74-1.06-2.66s-.14-2,1-2.31a1.45,1.45,0,0,1,1.81,1.16c.94,3.87,2.43,7.71,2.08,11.74-.34,3.85-5.81,5.21-9.64,2-3.55-3-4.94-3.27-4.64,1.93.06,1-.43,2-1.57,2s-1.41-1.14-1.43-2.12C11.08,282.43,11.11,280.35,11.11,278.07Z"/><path d="M494,422.4c-3.12-3-6.43-4.54-8.29-7.63a8,8,0,0,1-.51-7.79c.74-1.61,2.41-2,4.09-1.94.79,0,1.73-.07,2.11.76.6,1.31-.55,1.54-1.39,1.94-3.71,1.75-2.7,4.17-.82,6.56a16.15,16.15,0,0,0,7.38,5.12c1.74.63,3.18,1.43,3,3.7-.23,2.42-2.18,2.61-3.8,2.9-5.47,1-10.53.14-14.45-4.24-.69-.78-1.72-1.86-.38-2.84,1.06-.78,1.69.34,2.27,1C486,423.3,489.29,424.21,494,422.4Z"/><path d="M293.73,605.5c-.13.31-.2,1.17-.62,1.42-6.47,3.77-2.86,9.33-2.46,14.23.1,1.3,1.56,2.49.23,3.91-.57.6-1.22,1.15-2.06.64-1.39-.84-1.58-2.32-1.71-3.75-.32-3.48-.73-7-.82-10.46-.07-2.89-1-4.14-4.05-3.34a40.75,40.75,0,0,1-5.65.87,1.91,1.91,0,0,1-2.35-1.79c-.19-1.42.67-2,1.94-2.15,5.06-.53,10.12-1.05,15.19-1.52C292.5,603.46,293.67,603.58,293.73,605.5Z"/><path d="M17,680c.05-5.44,3.24-9.33,7.6-9.26,3.5,0,6.7,4.69,6.65,9.62-.05,4.44-2.88,7.36-7.09,7.3C19.53,687.62,17,684.86,17,680Zm7.73,3.82c1.95.15,3.39-.8,3.23-3.24s-.7-5.43-3.93-5.47c-2.62,0-3.66,2.47-3.8,4.69C20.06,682.4,21.68,683.85,24.73,683.84Z"/><path d="M24.83,784.82l-1.57.12c-1.15.08-2.4.14-2.66-1.32-.31-1.75,1-2.21,2.35-2.28,5.57-.26,11.15-.3,16.66-1.38,1.19-.23,2.34.09,2.5,1.52.19,1.7-.94,2.24-2.4,2.15-3.11-.18-3.76,1.48-3.56,4.2.29,4.11-.44,8.33,1.54,12.22.68,1.34.64,2.45-.92,3.11-1.84.77-2.1-.66-2.58-1.83-1.3-3.23-.73-6.62-.87-9.94C33,784.65,32.83,784.45,24.83,784.82Z"/><path d="M39,677.31c0-.36,0-1.79,0-3.22-.05-3.65,1.11-6.11,5.3-6.35a50.11,50.11,0,0,0,6.55-1.27c1.21-.23,2.35,0,2.54,1.42s-.58,2.33-2.16,2.49c-2.2.23-4.41.51-6.59.92a2,2,0,0,0-1.67,2.49c.27,1.57,1.48,1.36,2.6,1.22.32,0,.62-.16.94-.18,2-.09,5-2.43,5.62.19.51,2.19-3.29,2.24-5.26,2.82-2.77.81-4.77,1.48-3.29,5.1a2.67,2.67,0,0,1-2.19,3.61c-2.51.26-2-1.93-2.08-3.4S39.09,680,39,677.31Z"/><path d="M306.62,423.54c-2.51.46-5,.95-7.53,1.36a1.8,1.8,0,0,1-2.28-1.24c-.33-1.43.74-2.05,1.92-2.18,4.13-.46,8.11-1,11.51-3.92a3.6,3.6,0,0,1,4.82.67c1.42,1.52-.31,2.52-1,3.69-1.9,3.45-1.07,12.58,1.69,15.21a2.59,2.59,0,0,1,.82,3.29,1.81,1.81,0,0,1-1.86,1.2c-1.53-.05-2.23-1.1-2.68-2.36-1.42-4-1-8.21-1.72-12.3C310,424.68,309.57,422.78,306.62,423.54Z"/><path d="M352.52,614.8a5.64,5.64,0,0,0-1.78-4.66c-1.23-1.24-2.14-2.76-.11-3.9s3,.39,3.59,2c.74,2.08,1.66,4.25,1.72,6.4.1,3.75-1.44,7-5.28,8.22s-6-1.43-7.54-4.32a48.73,48.73,0,0,0-3.88-6.56c-.94-1.21-1.15-2.65.6-3.62s3-.29,3.72,1.5c1,2.34,1.93,4.7,3.08,7,.75,1.47,2,2.59,3.85,2S352.58,616.57,352.52,614.8Z"/><path d="M579.39,17.12c0,1.11-.12,2.07-1.1,2.09a3.26,3.26,0,0,1-2.08-.85c-5.22-4.76-5.27-4.84-10.42-.73-1.7,1.35-2.62.58-3.44-.72a3.26,3.26,0,0,1,.18-3.57c6.2-10.84,6.21-10.87,15-2.07C579.11,12.91,577.76,15.65,579.39,17.12Z"/><path d="M398.63,664c2.58-.51,3.95-.22,4.12.95.22,1.46-1.33,1.51-2.4,1.6-3.31.28-4.38,2-3.64,5.17s.06,6.42,2.26,9.16c1,1.19.11,2.14-1,2.68-1.31.65-2.06-.11-2.57-1.29a25.81,25.81,0,0,1-1.67-7.45c-.73-6.43-2-7.43-8.35-6.37-.47.08-.92.26-1.39.34-1.45.25-3.46,1.57-3.95-.83-.45-2.16,1.58-2.35,3.23-2.5l10-.93C395.55,664.28,397.77,664.05,398.63,664Z"/><path d="M600.58,78.45a8.77,8.77,0,0,1-8.93-8.31c-.29-3.65-.14-7.33-.11-11,0-1.21-.23-2.9,1.78-2.6,1.75.27,3.06,1.38,2.3,3.35a18.65,18.65,0,0,0-1.07,6.56c0,3.3,1.05,6.08,4.24,7.34s5.49-.45,7.66-2.53c.89-.85,1.45-3.35,3-1.67a3.71,3.71,0,0,1-.44,5.2A14.31,14.31,0,0,1,600.58,78.45Z"/><path d="M266.63,72.15c.1,1.91.19,3.83.3,5.74.06,1.15.13,2.43-1.39,2.57a2.12,2.12,0,0,1-2.45-2.32c0-2.87.12-5.75.06-8.62-.12-5.45-.89-5.94-5.88-4-2.08.79-4.17,1.6-6.3,2.24-1.05.32-2.35.47-2.66-1.12A2.08,2.08,0,0,1,249.87,64c4.42-1.35,8.85-2.69,13.29-4,2.11-.6,2.91.69,3.13,2.53A37.31,37.31,0,0,1,266.63,72.15Z"/><path d="M239.87,274.86c-3.86,4.78-9.14,5.61-14.59,5.18-3.41-.27-4.49-3.39-5-6.23a14.42,14.42,0,0,1,4.53-13.9c2.21-2.09,4.81-2.28,7.53-1.09,1.38.6,2.93,1.62,2.34,3.11s-2.2.39-3.29,0a4.86,4.86,0,0,0-6.24,2c-2.13,3-3.31,6.33-2,9.89,1,2.68,3.46,3.38,6.26,3.45C233.13,277.34,236.2,275,239.87,274.86Z"/><path d="M466.75,675c0-.32,0-.64,0-1,.15-8,.15-8-7.56-5.66-.76.23-1.51.51-2.29.69-1.48.36-3.06.51-3.41-1.44-.3-1.64,1.05-2.13,2.38-2.39,3.91-.78,7.86-1.27,11.5-3.18,1.9-1,2.57.68,2.66,2.22.32,5.42-.28,10.87.57,16.28a1.79,1.79,0,0,1-1.79,2.29c-1.44.07-2-.8-2-2.09,0-1.92,0-3.84,0-5.76Z"/><path d="M196.91,618.46c.06-.94.09-1.89.17-2.84.3-3.53-1.14-5.14-4.77-4.4-2.05.42-4.72,1.12-4.93-1.81s2.78-2.42,4.67-2.53c10.23-.63,10.24-.59,8.68,9.52a13,13,0,0,0,.59,6.11c.53,1.63.47,3.31-1.81,3.55-2.06.22-2.27-1.31-2.3-2.82s0-3.18,0-4.77Z"/><path d="M514.31,65.17c-.15,2.08-.3,4.54-2.87,5.78s-4.14-.75-5.84-2.1c-3.39-2.69-4.66-6.75-6.59-10.38-.7-1.32-.72-2.53.83-3.15s2.29.42,2.76,1.76c1,2.84,1.73,5.83,4,8,.9.86,1.82,2,3.27,1.45S511,64.45,511,63.22A14.13,14.13,0,0,0,508.87,56c-.67-1.17-1.28-2.46.47-3.14,1.53-.6,2.52.43,2.8,1.76C512.87,58,514.42,61.25,514.31,65.17Z"/><path d="M321.79,613c-.36-2.93.32-5.31,4.48-5.11,4.41.2,8.84,5.08,8.48,9.91-.28,3.66-2.45,5.91-6.2,6.07C324.59,624.07,321.76,619.56,321.79,613Zm5.72-1c-2.29.45-2.24,2.15-2.1,3.75.18,2.2.9,4.25,3.51,4.39,2.17.12,2.63-1.52,2.41-3.29C331,614.53,330,612.69,327.51,612.06Z"/><path d="M33.62,278.58a16.73,16.73,0,0,0,2.76,2.89c1.74,1.08,4,1.34,5.26-.31,1.64-2.21-1.24-2.32-2.23-3.13-4.61-3.76-4.94-9.78-.54-12a2.45,2.45,0,0,1,2.7-.05c.9.76.31,1.68-.21,2.5-3,4.75-2.34,6.74,3,9,1.19.51,3.16.06,3.35,2.08s-1.39,3.11-2.88,4a13.27,13.27,0,0,1-7.26,2.07C32.66,285.64,31.57,283.85,33.62,278.58Z"/><path d="M246.62,267.91c.17-1.06.3-2.5.63-3.89.4-1.76-.18-4.15,2.35-4.73,2.19-.5,4.05.54,5.66,1.94,3.23,2.82,4.73,8.54,3,11.7-1.59,2.83-4,5-7.36,4.05C246.56,275.76,246.81,271.81,246.62,267.91Zm3,0c.22,2.28-.61,5.28,2.73,5.7a3.34,3.34,0,0,0,4-3.63c-.2-2.91-1.1-6.2-4.34-6.63S250.16,266.16,249.58,267.87Z"/><path d="M242.74,620.38c1.94-.48,2.15.63,1.39,2.37s-1.65,3.11-3.77,3.13a3.55,3.55,0,0,1-3.53-2.66c-1.09-2.8-2.24-5.59-3.29-8.41a4.55,4.55,0,0,1,1.12-5.27c1.76-1.46,2.18,1,3.26,1.65,2.22,1.23,4.3.19,6.45-.29,1.13-.25,2.68-1,3.12.87.38,1.68-1.07,2.12-2.27,2.52a17.63,17.63,0,0,1-3.68,1c-2,.22-3,1.1-2.49,3.11C239.47,620,239.79,622.07,242.74,620.38Z"/><path d="M79.29,627.1a6.44,6.44,0,0,1-6.3-7c.18-3.19,1.05-6.52,4.6-7.58,2.31-.69,8.65,5.1,8.74,7.52C86.46,623.65,83.14,627,79.29,627.1Zm1.06-3.68c1.26-.32,3.16-.37,2.93-2.64-.22-2.06-2-2.85-3.69-3.18s-2.77.86-2.72,2.5C76.93,622,77.84,623.45,80.35,623.42Z"/><path d="M491.73,64.82c.14,3.67-1.85,5.24-5.29,5.26-4,0-7.47-3.63-7.51-7.79,0-3.39,3.61-7,7.18-7.06C488.55,55.17,491.81,60.73,491.73,64.82Zm-3.07-.89c-.94-1.64-.41-4.43-3.16-4.72-2-.21-2.74,1.43-2.77,3.12a3.8,3.8,0,0,0,3.75,4.09C487.88,66.55,488.77,65.55,488.66,63.93Z"/><path d="M108.21,617.57c-.58,3.07.08,7.48-3.94,8.28s-5.25-3.33-6.64-6.36c-.6-1.3-1.15-2.64-1.62-4s-1.42-3.28,1-3.83c1.88-.43,2.34,1,2.69,2.54a34.11,34.11,0,0,0,1.69,5c.34.87.79,2,1.93,1.76s1.42-1.36,1.42-2.3a20.57,20.57,0,0,0-.5-4.27c-.32-1.49-.74-3,1.36-3.32,1.71-.24,2,1.36,2.28,2.55A28.77,28.77,0,0,1,108.21,617.57Z"/><path d="M281.7,744c-2.41-.35-3.89-1.93-5.13-3.88-2.53-4-1.54-8.7-2.72-13-.32-1.13.84-1.66,1.8-1.77a2.06,2.06,0,0,1,2.32,1.93,57,57,0,0,1,.41,5.71c.13,2.65.57,5.24,3.39,6.29s4.53-.42,5.72-2.87c.32-.67.86-1.55,1.82-1a2.11,2.11,0,0,1,.73,2.93C288.41,741.94,285.37,743.45,281.7,744Z"/><path d="M450.41,416.85c-.82,1.77-2.57,2.22-4.21,2.78s-3.21,1-2.87,3.14c.38,2.42,1.23,4.82,3.44,6,1.7.93,2.36-.93,3.1-2.13.56-.89,1.73-2.49,2.2-.66a6.36,6.36,0,0,1-2.49,6.34c-1.81,1.44-3.78.73-5.18-.74-3.57-3.78-3.73-9-5.46-13.57-.14-.37.14-1.31.29-1.32,3.63-.32,7.28-.56,10.92-.76C450.22,416,450.31,416.5,450.41,416.85Z"/><path d="M275.31,269.08c.48-3.55.6-6.24-.4-9a1.88,1.88,0,0,1,1.22-2.7,1.59,1.59,0,0,1,2.21,1.72c-.09,4,.57,8-.43,11.92-.31,1.2-.75,2.6-2.12,3-1.54.43-2.35-.88-3-1.93-2.2-3.68-4.32-7.43-6.39-11.19a2.13,2.13,0,0,1,1.1-3.18c1.75-.9,2.28.56,2.78,1.67C271.69,262.44,271.81,266.14,275.31,269.08Z"/><path d="M524.31,361.14c.35-1.41-.52-3.18,1.59-3.19,1.67,0,1.27,1.5,1.48,2.51.57,2.82.91,5.71,1.75,8.44,1.16,3.78,3.27,4.35,6.42,1.93A51.73,51.73,0,0,0,539.8,367c.58-.56,1.08-1.34,1.93-.66s.37,1.54-.06,2.16c-2.25,3.18-4.92,6.24-8.6,7.36-3.42,1-5.81-1.47-6.73-4.66C525.37,367.81,524.93,364.3,524.31,361.14Z"/><path d="M240,432.41c1,5-1.43,8.32-5.06,10.49-2.8,1.68-5.74,1.07-7-2.43-2-5.82-1.51-11.92-1.57-18,0-.84.48-1.65,1.45-1.49s.75,1.15.8,1.9c.22,4,.46,7.93.68,11.89.09,1.76,0,3.82,1.86,4.56,2.18.87,4.08-.52,5.48-2A37.66,37.66,0,0,0,240,432.41Z"/><path d="M196.62,803.31a2.13,2.13,0,0,1-1.49,2.4,1.78,1.78,0,0,1-2.46-1.53,46.45,46.45,0,0,1-.6-5.65,14.85,14.85,0,0,0-2.13-7.69c-.88-1.36-1.95-3.05.08-4s2.71,1,3.44,2.41C195.78,793.72,194.47,799,196.62,803.31Z"/><path d="M426.14,25.46c-2.19-.35-2.87-2-3.43-3.69-1.36-4.06-1.53-8.48-3.83-12.27a1.59,1.59,0,0,1,.7-2.43,1.92,1.92,0,0,1,2.73,1.17,65.09,65.09,0,0,1,2.23,6.8c.7,2.59.79,5.33,2.74,7.52C428.54,24,428.16,25.2,426.14,25.46Z"/><path d="M188.34,737c-.09,1.18.16,3-1.92,3-1.75,0-1.61-1.64-1.74-2.9-.41-4-.29-8-2.86-11.46-.88-1.18-.18-2.13.87-2.79,1.61-1,2.47.24,3,1.36C187.47,728.2,187.81,732.53,188.34,737Z"/><path d="M130.56,797.24c-.14,1.71.09,3.51-1.95,3.49-1.63,0-1.77-1.65-1.83-2.89-.25-4.6-.22-9.23-2.07-13.61a1.78,1.78,0,0,1,1.33-2.59c1.45-.32,1.88.71,2.33,1.81C130.22,788,128.87,793,130.56,797.24Z"/><path d="M216,80.5c1-3.78.67-8,.81-12.09,0-1.06-.09-2.44,1.5-2.55,1.94-.12,1.95,1.52,1.87,2.68-.33,4.79-.77,9.56-.28,14.37.15,1.47-.68,2.72-2.23,2.35C215.12,84.66,216.44,82.37,216,80.5Z"/><path d="M477.84,672.5c-.07-1.27-.12-2.55-.23-3.81s-.65-2.84,1.22-3,1.8,1.63,2,2.78c.63,3.75,0,7.63,1.31,11.34a2,2,0,0,1-1.8,2.81c-1.81.22-2-1.15-2.11-2.49-.2-2.54-.38-5.08-.57-7.62Z"/><path d="M297.65,727.64c1.19.14,1.57,1.27,1.6,2.37a29.9,29.9,0,0,0,2.53,11c.51,1.21.48,2.15-.82,2.74a1.78,1.78,0,0,1-2.7-1.07c-1.06-4.29-2-8.62-2.82-13C295.2,728.48,296.05,727.67,297.65,727.64Z"/><path d="M.86,281.1c-.27-2.84-.5-5.68-.82-8.5-.16-1.31.14-2.29,1.54-2.41s1.9.8,1.95,2.1c.18,4.55-.51,9.14,1,13.65a2.23,2.23,0,0,1-2.29,2.91c-1.52-.12-1.62-1.63-1.57-3,.06-1.58,0-3.17,0-4.76Z"/><path d="M389.61,367c1.55.09,1.75,1.38,2.3,2.55,2,4.22,1.67,9.47,5.81,12.76.89.71.21,1.9-.64,2.37a2.14,2.14,0,0,1-3-.69c-2.67-4.94-3.87-10.44-5.7-15.7C388.18,367.66,388.86,367.13,389.61,367Z"/><path d="M22.64,612.57c1.73,0,1.92,1.37,2,2.62.32,3.32.31,6.66,1.41,9.9a2.57,2.57,0,0,1-2.3,3.48c-2.05.28-2.1-1.47-2.15-2.94-.11-3.49.13-7-.57-10.47A2,2,0,0,1,22.64,612.57Z"/><path d="M342,283.06c5.31-3.54,9.13-6.46,7.49-12.51-.55-2,1.41-2.14,2.84-1.27a3.77,3.77,0,0,1,1.59,3.75C353.58,277.46,348.09,282.75,342,283.06Z"/><path d="M56.72,267.58a2.94,2.94,0,0,1,1.61,2.27c1.15,4.31,1.1,8.84,2.71,13.07a2.05,2.05,0,0,1-1.74,2.85c-1.95.31-1.95-1.18-1.92-2.48.12-4.48-.1-8.89-1.8-13.14C55.17,269.13,55.24,267.9,56.72,267.58Z"/><path d="M443.66,414a1.41,1.41,0,0,1-1.51-1.28c-.31-1.36.55-2.08,1.8-2.31,2.81-.52,5.63-1,8.46-1.5a1.89,1.89,0,0,1,2.42,1.67,2,2,0,0,1-1.92,2.31C450.23,413.2,447.54,413.49,443.66,414Z"/><path d="M100.36,261.18c1.1-.08,2.21-.22,3.32-.22.88,0,1.6.45,1.6,1.39,0,.57-.23,1.45-.62,1.64a13.4,13.4,0,0,1-7.84,1.41c-1.17-.16-1.44-1.14-1.4-2.15s.49-1.92,1.61-2A28.44,28.44,0,0,1,100.36,261.18Z"/><path d="M241,608.49c-1.77.19-3.25,0-2.88-1.44,1.1-4.2,5.36-2.16,7.94-3.59a1.67,1.67,0,0,1,2.55,1.73C247.73,610.51,242.56,605.93,241,608.49Z"/></svg>