<svg xmlns="http://www.w3.org/2000/svg" width="1104.88" height="2382.82" viewBox="0 0 1104.88 2382.82"><title>c14-txt</title><path d="M786,1233.76c.59,6.12-2.77,10.44-8.29,13.58-2.25,1.28-5.23,2.32-4.49,5.77.68,3.1,3.64,2.88,6,3.54,4,1.12,8,2.28,11.9,3.67,6.36,2.28,12.21,2.36,17.8-2.26,3.55-2.94,7.06-1.3,8.08,3.25,2,9-3.16,14.21-12.07,12.22q-29.22-6.49-58.47-12.91c-6.68-1.47-9.43.68-9.63,7.46-.12,4,.7,8.55-5.22,9-4.34.31-6.57-2.84-6.77-9.17-.12-4,0-8-.21-12-.34-7.07-1.55-13.9-6-19.75-2.48-3.29-1.27-6,1.62-8.13,2.72-2,5.42-3.12,8.34,0,5.06,5.47,7.37,5.67,13.56,1,8.28-6.29,17.32-10.57,27.86-11S785.87,1222.68,786,1233.76Zm-36.23,12.42a56.8,56.8,0,0,0,12.83-2.24,13.62,13.62,0,0,0,8.73-7.65c2-4.73.63-7.17-4.47-7.11-8.62.11-15.9,3.22-21,10.46-1,1.46-2.76,3-1.88,4.86C745,1246.6,747.42,1246,749.77,1246.18Z"/><path d="M622,1258.14c-.48,4.29-.68,7.45-1.22,10.56-.94,5.35-3.39,6.71-8.54,4.67a75.51,75.51,0,0,1-19.89-12.25,107.49,107.49,0,0,0-8.6-6.81c-4.28-2.83-7.13-2.13-9.24,2.52-2,4.37-3.25,9.05-4.89,13.58-1.14,3.12-2.28,6.24-3.6,9.28a7.17,7.17,0,0,1-7.49,4.64c-3.56-.13-5.37-2.13-6.61-5.12-3.13-7.54-5.24-15.41-7.45-23.24-2.35-8.33-5.11-16.49-9.48-24.06-2.48-4.31-1.34-7.68,2.75-9.45s7.72-.3,9,4.26c2.61,9.62,4.75,19.36,7.12,29a23,23,0,0,0,1.31,4.27,4.31,4.31,0,0,0,4.39,2.69c1.93-.15,2.63-1.78,3.22-3.4,2-5.6,4-11.24,6.16-16.79,2.88-7.39,6.44-8.57,13-4.27,6.14,4,11.3,9.28,16.85,14,2.79,2.4,5.67,6.22,9.89,4,4.38-2.32,3.21-6.79,2.39-10.72-1.22-5.85-1.88-11.82-4.2-17.41-1.35-3.27-.83-6.27,2.11-8.45,3.74-2.78,7.43-1.62,8.15,3C618.94,1234.82,620.44,1247,622,1258.14Z"/><path d="M859.46,1221.22c8.3.32,17,1.38,23.85,8a22.66,22.66,0,0,1,4.64,26.57c-7.54,15.43-25.41,24.62-42.31,21.75-6.24-1.06-8.76-2.88-9.21-9.23-.87-12.13-3-24-4.84-36-.72-4.55,1.52-6.92,5.59-7.93A98.07,98.07,0,0,1,859.46,1221.22Zm2.15,12.77c-11.64-.5-14.82,2.53-14.75,14.32,0,3.32.34,6.63.66,9.94.74,7.63,6,11.17,13.27,8.43a28.28,28.28,0,0,0,17.46-18c2.11-6.16-1.48-12.12-7.74-13.86C867.57,1234,864.58,1234.22,861.61,1234Z"/><path d="M935.06,1280.1c-10.8.45-18.81-4-25.42-11.51-2.47-2.81-3.87-5.68-.46-8.61s6-1,8,1.87c8.18,11.67,18.92,9.61,30.27,4.35,3.83-1.78,3.62-5.81-.34-8.11a81.21,81.21,0,0,1-12.82-8.62,54.44,54.44,0,0,1-13.46-17.79c-3-6.37-1.54-11.28,4.58-14.82,5.67-3.29,11.6-5.12,18-2,1.86.89,3.57,1.93,3.55,4.34s-1.66,3.5-3.39,4.57a8.88,8.88,0,0,1-1.39.53c-9.34,3.82-9.94,6.28-3.42,13.89,4.76,5.55,9.31,11.09,16.39,14.25,5.59,2.49,6.81,8.13,6.73,14-.07,5.26-4,6.74-7.72,8.71C948,1278.4,941.57,1280.38,935.06,1280.1Z"/><path d="M453.07,1115.22c-2.15-.14-4.33-.14-6.47-.44-7.17-1-9.92-3.5-11.13-10.65a72.5,72.5,0,0,1-.78-10.93c-.09-6.52-.45-13-3-19.07a5.47,5.47,0,0,1,1.24-6.4c1.61-1.71,3.45-1.58,5.47-.66,5.47,2.48,11.12,1.54,16.7.58a30.92,30.92,0,0,1,9.44-.37c6.95.92,9.63,5.83,6.87,12.24-3.75,8.72-3.75,8.72,5.79,10.64,5.14,1,6.76,4.9,3.74,9.82C474.57,1110.32,465.48,1115.81,453.07,1115.22Zm9-20.15c-5.76-1.26-11.25,2.81-17.32,2.09a2.12,2.12,0,0,0-1.92,1.37c-2.13,4,2.13,11.47,6.75,11.57a27.61,27.61,0,0,0,15.28-3.9c3.15-2,7.83-3.91,6.74-8.24C470.6,1093.81,465.83,1095.3,462.11,1095.07Zm-16.55-6.68c6.29-.36,12.11-1.81,16.28-7.06,1.45-1.83,2-3.92.71-6s-3.1-2.1-5.25-1.56c-4.49,1.12-9,2.1-13.53,3.08-4.33.95-4.66,4.19-4.33,7.67C439.79,1088.36,442.43,1088.85,445.56,1088.39Z"/><path d="M445.82,2317.15c-.12-1.16-.32-2.31-.36-3.47,0-1.34,0-2.75,1.52-3.35,1.31-.52,2.23.28,3,1.21,2.54,3.05,4.76,2.08,7-.45a20.16,20.16,0,0,1,16.77-7.22c5,.22,8.11,2.6,9.3,7.42,2,8.29.86,15.77-5.31,22.15-1.85,1.91-5.24,3.77-3.57,6.93,1.51,2.89,5.13,2.7,8.11,2.7a62.24,62.24,0,0,0,6.91-.71c2.48-.29,5.21-1,6.12,2.42s-.93,5.33-3.9,6.46a25.54,25.54,0,0,1-17.1.29c-4.19-1.28-7.79-3.64-11.48-5.9-4.49-2.74-6.29-1.83-7,3.27-.27,2,.41,4.88-2.74,4.94s-3.43-2.62-3.72-5q-1.92-15.84-3.81-31.67Zm19,15.08c3.74,0,9.46-5.36,11.89-11.05,1-2.38,1.73-4.77-.33-7a6.48,6.48,0,0,0-7.3-1.71,17.74,17.74,0,0,0-10.69,9.8A7.2,7.2,0,0,0,464.86,2332.23Z"/><path d="M437.28,1681.44c-9.21,1.61-15.74-6.06-23.37-11-1.67-1.09-1.63-3.37-.94-5.09,3-7.51,2.08-15,.38-22.59-1.35-6-.05-7.33,6.14-7.49,3.81-.1,7.59-1,11.39-1.14,9.28-.47,14.32,5.1,13.12,14.35-.21,1.64-.62,3.26-1,4.89-.77,3.65.45,6.08,4.09,7.4,6.5,2.37,7.87,4.62,7.54,11.42-.28,5.78-4.65,7.24-9,8.46C443.43,1681.21,441,1681.1,437.28,1681.44Zm-5.89-37.4c-4.41-.17-7.08,3.12-7.37,8.33-.13,2.31.07,4.47,3.09,4.69,3.57.26,7.74-4.66,7.73-9C434.83,1645.29,433.28,1644.17,431.39,1644Zm2.9,21.93a25,25,0,0,0-4.39.57,3.8,3.8,0,0,0-3,4c.09,2.17,1.7,2.51,3.42,2.83a26.64,26.64,0,0,0,8.36-.1c2.61-.33,4.59-1.35,4.41-4.25s-2.62-3-4.8-3C437.43,1665.94,436.61,1666,434.29,1666Z"/><path d="M701.26,1254.27c-.08,11.12-9.7,20.48-20.94,20.36-12.85-.14-26-13.57-26-26.18,0-11.56,13.05-20.92,29.6-22C691.83,1225.87,701.34,1241.59,701.26,1254.27Zm-19.4,9c4.59.36,7.67-1.6,9.15-6,1.83-5.47-5-18.82-10.49-20.51a4,4,0,0,0-.94-.28c-3.36-.19-11.14,7.23-12.94,12.32-1.34,3.78.5,8.72,4.31,11.27C674.23,1262.23,678,1263,681.86,1263.24Z"/><path d="M951.72,1889.71a20.13,20.13,0,0,0-2.85-12.88,10,10,0,0,1-1.43-3.66c-.37-2.83,1.27-4.42,3.91-4.76s3.43,1.45,3.62,3.69c.17,1.92-.33,4.44,2.23,4.94s3.16-2,4.25-3.6a15.61,15.61,0,0,1,5.38-5.09c7.87-4.3,14.48-.75,15.09,8.16.14,2.15.5,4.49-.14,6.45-1.49,4.56,1,6.06,4.59,7l6.25,1.66c3.56.95,6.61,2.58,7.21,6.63.68,4.52-.09,8.51-4.12,11.51a29.28,29.28,0,0,1-40.69-5C951.83,1900.94,951.05,1897.53,951.72,1889.71Zm30.45,7.41c-4.92-1.23-9.27,1.45-13.73,3.63-1.85.91-4.71,1.14-4.44,4s2.89,3.77,5.35,4.5c5.11,1.51,9.85-.33,14.61-1.67,3.49-1,7.66-2,7.09-6.83s-4.92-3.18-7.95-3.58C982.93,1897.1,982.76,1897.12,982.17,1897.12ZM960.69,1888c-.11,2.81,1.54,3.94,4,3.9,5.19-.09,12.54-9.58,11.32-14.54-.63-2.57-2.35-3.51-4.87-2.93C966.85,1875.39,960.6,1883.52,960.69,1888Z"/><path d="M15.55,42.12c.57-8.39-1-16.57-2.33-24.79-1.46-9.23.29-11.76,9.37-13.86C26.47,2.57,30.21,1,34.12.32c7.46-1.31,10.35,1.34,10,8.81a57.75,57.75,0,0,1-1.06,8.4c-.72,3.8,0,6.57,3.5,9,8.68,5.91,9.8,14.44,3.42,22.77a25.25,25.25,0,0,1-27.77,8.48C15.73,55.57,15,54.51,15.3,47.6,15.38,45.77,15.46,44,15.55,42.12Zm15.32,11c5.61,0,11.88-3.74,14.19-8.62,1.14-2.41,2.32-5,.52-7.52-1.94-2.69-5-3.37-8-2.84a50.49,50.49,0,0,1-7.85,1c-5.65.1-8.21,2.2-8.19,6.46C21.54,47.82,25.84,53.1,30.87,53.12ZM37.93,14a3.66,3.66,0,0,0-2.8-4.18c-5.35-1.46-9.58,1.63-13.8,4-3.21,1.8-3.82,5.28-3.41,8.78.25,2,.95,3.89,3.29,4.5C27.73,28.85,38.06,20.76,37.93,14Z"/><path d="M89.79,1626.83c0-1,0-2,0-3a3.41,3.41,0,0,1,3.2-3.74c2.32-.31,3.2,1.24,3.8,3.13.69,2.13.38,4.25.23,6.41-.32,4.78,2.12,6.55,6.46,4.57,4.52-2.07,8.79-4.72,13.37-6.62,5.23-2.17,6.55-.87,7.06,4.79.45,5-.39,9.17-3.55,13.41-5.29,7.09-.33,15.54,9.18,16.5,2.57.26,5.77-.22,5.69,3.81-.07,3.67-2.37,4.82-5.72,4.48-8-.82-13.77-5.35-18.64-11.34-1.25-1.55-2.43-3.17-3.82-4.6-1.23-1.27-2.72-1.85-4.47-.72s-1.52,2.55-1.11,4.34a72.74,72.74,0,0,1,1.23,8.37c.29,2.62-.4,4.72-3.48,4.93-2.91.2-5.29-.33-5.62-4C92.38,1654,91.07,1640.4,89.79,1626.83Z"/><path d="M633.15,1403c-.34,6.88-.22,13.07,3.17,18.87,1.77,3,.51,6.14-1.55,8.79-1.62,2.08-3.85,1.73-5.94,1.08-3.34-1-3.6-4-3.86-6.85-.35-3.8-.65-7.62-1.23-11.38-.48-3.08-2.26-5.26-5.58-5.43-5.65-.27-11.32-.42-16.9.7-4.67.94-5.61,2.75-3.23,7a17.14,17.14,0,0,1,2,9.57c-.14,3.32-1.12,6-5,6.14s-4.55-2.93-4.87-5.74c-.51-4.45-.57-9-.9-13.43a32.24,32.24,0,0,0-3.35-12.93c-1.62-3-.79-5.6,2.13-7.17,3.15-1.69,4.38.45,5.4,3.07a6,6,0,0,0,5.83,3.94c6.14.26,12.28.64,18.42.74,3.59.06,5.49-1.8,5.27-5.64-.16-2.77-1.75-6.34,2.86-7.16,2.89-.52,6.86,3.08,7.31,6.92A72.16,72.16,0,0,1,633.15,1403Z"/><path d="M814,1889.7c1.09-6.52-1-12.84-1.24-19.27-.06-1.83-.28-3.67,1.22-5.15a3.92,3.92,0,0,1,4.15-1c1.74.55,2,2.21,1.82,3.72-.56,5.37,2.23,6.52,7,6.23,6.46-.41,12.92-1,19.43-.45,3.16.26,6-.85,6.57-4.65s2.73-4.77,6-4c3.53.84,5.88,3,4.78,6.81-2.27,7.91-2.57,16-3.54,24.13-.48,4-.06,7.72,3.67,10.12,2.81,1.8,3.08,3.9.81,6.08s-5.09,2.77-7.48.15a14.3,14.3,0,0,1-3.37-9.19c-.29-5.47-.48-11-1-16.42-.53-6-2.18-7.68-8.23-7.49s-12.36-.08-18.18,2.4c-5,2.15-7.08,6.09-5.76,10.67.79,2.74,2,4.53,5.32,3.24,2.67-1,3.86.51,3.61,3-.45,4.3-2.4,7.6-7,8.66-3.71.86-6.38-.42-7-4.28C814.83,1898.64,814.5,1894.15,814,1889.7Z"/><path d="M613.78,2331.7c-.12,2.43-2.12,2.77-3.78,3.37-2.45.88-6.26-.2-6.5,3.91-.22,3.74,2.09,5.67,5.65,6.44a3,3,0,0,1,2.41,3.78c-.4,2.36-1.23,4.56-3.67,5.57a3.82,3.82,0,0,1-4.91-1.27,39.68,39.68,0,0,1-5.41-9.52c-1.45-4.22-4.36-5.31-8.6-4.72-6.08.84-11.15,2.58-13.71,9-1.54,3.85-4.78,6.77-7.61,9.83-1.49,1.61-3.33,2.26-5.35.92s-2.74-3.84-1.35-5.68c6-8,7.24-18.61,14.32-26.12,3.21-3.42,3.86-8.4,5.62-12.69.91-2.23,1.36-5.25,4.52-5.27,2.84,0,2.73,3,3.66,4.77,1.15,2.2,1.91,4.61,3,6.84,3.85,7.79,8.35,10.18,16.91,8.82C611.18,2329.34,613,2329.14,613.78,2331.7Z"/><path d="M462.31,1414.16c0,8.88-5.64,12.25-12.73,8.44-4-2.15-7-5.63-10.33-8.59s-5.45-2.25-7.35,1.47c-1.81,3.54-3.7,7.06-5.81,10.44a6.33,6.33,0,0,1-6.78,3.23c-3.05-.56-3.67-3.14-4-5.65a89,89,0,0,0-5.17-20.74c-.91-2.35-1.25-5.12,2-6.24s4.91.83,5.86,3.7a24.73,24.73,0,0,1,1.63,7.77c0,1.73,0,3.45,2.19,3.9a3.87,3.87,0,0,0,4.26-1.94c1.58-2.53,3-5.19,4.56-7.72,3-4.71,5-5,8.89-.89,2.51,2.64,4.66,5.63,7,8.46,1.69,2,3.63,3.7,6.39,2s2.38-4.18,1.31-6.61c-.93-2.13-2.16-4.12-3.23-6.19s-2-4.29-.09-6.47c1.38-1.6,3.22-1.67,5.05-1.29,2.65.54,3.8,2.45,4.11,5C460.85,1402.53,461.64,1408.8,462.31,1414.16Z"/><path d="M543.18,1647.49a28.8,28.8,0,0,0,9.38-1c2-.57,3.73-.61,4.35,1.82s-.49,4.06-2.75,4.5c-4.41.85-8.86,1.46-13.31,2.06-2,.26-4.38-.16-4.83,2.45-.71,4.07-.21,8,2.88,11.15a5.13,5.13,0,0,0,6.41,1c3.46-1.76,6.58-3.93,8.23-7.67,1.1-2.5,2.9-3.86,5.5-2.3s2,4.05.42,6c-3.53,4.44-7.26,8.78-11.86,12.09a10.84,10.84,0,0,1-16.81-6.72c-1.81-9.63-4.88-19-5.25-28.92-.29-7.93,1.39-10,9.26-9.87a91.28,91.28,0,0,0,17.85-1.71,52.23,52.23,0,0,1,5.46-.49,3.77,3.77,0,0,1,4.45,3.66,3.71,3.71,0,0,1-3.58,4.5c-6.61.75-13.25,1.3-19.86,2-2.52.27-6-.37-6,3.55.1,3.54,3.36,3.58,6,3.8C540.51,1647.58,541.85,1647.49,543.18,1647.49Z"/><path d="M416.8,483c.93-5,.27-9.16.06-13.3a16.76,16.76,0,0,1,.18-4.48c.77-3.38,1.32-7.34,5.11-8.55,3.48-1.1,5.67,2,7.94,4.09,2.44,2.26,4.77,4.64,7.22,6.89,3.15,2.9,6.49,3,9.92.47,2.79-2.1,5.51-4.29,8.36-6.31,3.68-2.6,5.51-2.08,7.19,2.12,2.63,6.57,2.68,13.66,3.86,20.52.31,1.8.67,3.59.92,5.4.38,2.8-.91,4.56-3.66,4.95s-4.6-1-4.83-3.76c-.31-3.81-.22-7.65-.45-11.46a27.93,27.93,0,0,0-.86-5.38,3.57,3.57,0,0,0-3.34-2.6c-1.47-.14-2.37.85-2.92,2.24a23.83,23.83,0,0,1-5.43,7.7c-3.86,4-7.95,3.35-10.15-1.81a20.64,20.64,0,0,0-4.8-7.45c-1.34-1.22-2.9-1.79-4.57-1s-1.09,2.41-1.24,3.89c-.61,5.89,1.14,11.94-1.3,17.7-.67,1.58-1.06,3.32-3.27,3.05s-3.78-1.57-3.89-3.85C416.68,488.83,416.8,485.5,416.8,483Z"/><path d="M562.85,1891c.43-5.37.11-10.52-2.24-15.6-1.85-4,.42-8,4.55-9.59s5.56,1.38,6.94,4.37c4.65,10.1,13.88,15.52,22.53,21.32,4,2.65,8-.8,7.16-5.78-.84-5.3-3.38-10.06-5.26-15-.72-1.9-1.47-3.83,0-5.68,1.91-2.47,7.1-1.55,7.62,1.73,1.29,8.19,5.47,15.74,4.93,24.34-.59,9.4-4.95,12.35-13.44,8.38-5.87-2.75-11.68-5.58-16.79-9.74-3.54-2.89-5.72-1.86-6.39,2.67-.39,2.62-.35,5.32-.79,7.93-.5,2.9-2.41,4.19-5.4,3.92s-4-2.09-3.88-4.77S562.68,1893.82,562.85,1891Z"/><path d="M345.27,1902.35a26.56,26.56,0,0,1-11.21-2.09c-3.26-1.46-3.64-3.49-.78-5.47,2.65-1.83,3.1-4,2.49-6.85-1.62-7.69-.32-15.86-5-23.11-2-3.13,1.21-6.27,3.58-8.57,2.1-2,4.07-.15,5.73,1,4.69,3.37,10.24,3.64,15.59,4.69,6.79,1.32,13.19,3.48,18.15,8.59,5.58,5.75,5.83,13.91.29,19.73C366.33,1898.53,356.69,1902.7,345.27,1902.35Zm3.69-34.68c-6.48-.17-8.8,2.2-7.95,8.66a42.71,42.71,0,0,0,2.31,8.11c1,3,2.55,5.89,2.44,9.1-.16,4.43,2,5.29,5.62,4a37.15,37.15,0,0,0,19-14.72c2.7-4,1.81-7-2.46-9.57A38.35,38.35,0,0,0,349,1867.67Z"/><path d="M401,1999.71c0,3.17,0,6.33,0,9.49,0,2-.74,3.69-3.05,3.83s-3.3-1.39-3.31-3.47c0-10.8-.61-21.56-1.48-32.33a4.58,4.58,0,0,1,3.43-5,5.25,5.25,0,0,1,5.86,1.7c3.38,3.9,6.75,7.82,10.94,10.9,7.62,5.63,14.45,5,20.59-2.33,2.55-3,4.49-6.57,6.76-9.85,1.07-1.53,2.31-3,4.45-2.66,2.39.36,2.4,2.37,2.7,4.19,1,6.07,2.07,12.12,3.07,18.19A11,11,0,0,0,454,1999c2.48,2.4,2.5,5.33.9,8.24A4.72,4.72,0,0,1,450,2010c-2.21-.29-2.17-2.28-2.48-3.83-1.28-6.53-2.52-13.06-3.67-19.61-.23-1.34-.14-2.77-1.68-3.28s-2.47.54-3.4,1.54a88.5,88.5,0,0,1-10.13,9.61c-4.36,3.42-8.85,3.58-13.35.51-3-2.06-5.83-4.41-8.74-6.63-1.38-1.06-2.88-1.83-4.6-1s-1.62,2.7-1.52,4.38Z"/><path d="M416,2208.38c0-5.1.29-9.43-.63-13.71-.52-2.38-.21-4.52,2.52-5.07,3-.59,4.28,1.45,4.64,4a22.93,22.93,0,0,1-.22,7.43c-.9,4.77.79,6.71,5.66,6,6.59-1,13.22-1.38,19.84-2.06,6.32-.64,8.65-4,7.74-10.3-.32-2.28-.86-4.73,2.05-5.17,2.6-.39,2.81,2.14,3.34,4.09,2,7.16,2.78,14.3,1.05,21.68-1.07,4.57-.6,9,3.83,12,1.34.91,2.23,2.11,1.23,3.79-1.48,2.47-3.21,4.78-6.34,5.06-2,.19-2.93-1.52-3.38-3.12a42.12,42.12,0,0,1-1.44-15.32c.77-8.11.4-8.41-7-5.81-4.3,1.51-8.85,1.39-13.27,2.11-2.3.38-4.61.7-6.86,1.27-3.05.77-4.69,2.35-3,5.79a15.52,15.52,0,0,1,1.17,6.83c0,2.36-.56,4.45-3.22,4.9s-3.8-1.45-4.58-3.63C416.53,2222.16,414.94,2215.07,416,2208.38Z"/><path d="M760.59,2225.47c0-6.65,0-13.29,0-19.94,0-2.09-.22-4.29,2.69-4.33s3,2.09,3.06,4.2c.24,5.49.33,5.56,5.21,3.36,3-1.36,6-2.88,9-4.25a27.61,27.61,0,0,1,14.09-2.45c10,.9,15.45,8.43,13,18.18-3,12.12-19.64,20-31,14.63-1.33-.63-3.79-1-3.12-3.11.54-1.72,2.6-.81,4-.68,9.65.89,17.33-2.53,22.58-10.72,4.32-6.73,2.05-10.86-5.82-11.06a31.53,31.53,0,0,0-22.41,8.13,13.9,13.9,0,0,0-4.79,13.85c.89,5.07,1.33,10.22,1.81,15.35.22,2.34-.39,4.39-3.37,4.47s-3.79-1.77-3.82-4.17c-.07-7.16,0-14.31,0-21.46Z"/><path d="M621.74,1883.83a44.68,44.68,0,0,1,1.74-12.8c1-3.47,3.37-5.12,6.81-3.55,3.23,1.48,2.9,4.3,1.23,6.75-3.24,4.73-3,10.09-3.14,15.38,0,1.69-.54,4,2,4.5,2.67.5,3.14-1.69,3.81-3.64,2.76-8,6.54-10.69,14.24-10.48,4.73.13,8.33,2.11,10.5,6.36,2.3,4.55,3,9.16,0,13.74-4.93,7.69-12.62,11.57-20.14,10.18-8.17-1.51-13.94-7.49-15.87-16.55A40.6,40.6,0,0,1,621.74,1883.83Zm19.65,11.55c.11,3,1.91,5.15,5.46,5.08,4-.07,5.86-3,6.14-6.5.3-3.92-3.07-4.43-5.8-4.46C643.93,1889.46,641.46,1891,641.39,1895.38Z"/><path d="M372.23,1632.63a7.46,7.46,0,0,1,6.85,4.34c2.87,5.34,4.63,11.66,11.73,13.31,1,.24.88,1.31,1,2.1.49,4.27,2.51,7.85,4.87,11.33,2.23,3.31,1.76,7.45-1,8.68-4,1.77-5.21-1.51-6.8-4a7.94,7.94,0,0,1-.61-1.36c-4.22-10.68-15-12.29-22.29-3.22-2.29,2.83-4.1,6-6.17,9.07-2,2.84-4.46,4-7.7,2.17-3.44-1.94-1.62-4.48-.7-6.92a56.29,56.29,0,0,1,6.27-11.31c4.34-6.48,9.15-12.72,10.4-20.78A3.78,3.78,0,0,1,372.23,1632.63Z"/><path d="M711.79,870.52c.61-7.21,1.62-15.18-2-22.81-.61-1.26-.65-2.68.8-3.5a2.6,2.6,0,0,1,3.82,1.18c1.86,3.35,3.69,2.26,5.87.33a44,44,0,0,1,12.6-8c2.84-1.13,5.9-1.65,8.42.79s2.91,5.51,1.65,8.75c-1.33,3.43-2.79,6.64-6.24,8.7-3,1.78-2.76,4.84.6,5.8,5.81,1.66,11.84,4,17.78.15,1.64-1.07,3.41-1.8,5.06-.39,2.31,2,1.53,4.51.75,6.94-.63,1.94-1.8,3.29-4,2.92-11.34-1.91-23.47-.71-33.28-8.74-2.82-2.3-4.62-.84-4.83,2.57-.15,2.66,0,5.36-1.43,7.77-.91,1.57-2.23,2.53-4.14,2S711.38,872.83,711.79,870.52Zm15.83-18.29c3.68,0,8.59-3.32,8.73-5.87.1-1.88-1-2.54-2.82-2.55-3.68,0-8.79,3.24-8.94,5.88C724.45,852.14,726.3,852.08,727.62,852.23Z"/><path d="M681.75,2243.27c-3.34,0-4.27-2.8-5.39-5.43-3.22-7.63-6.6-9.19-14.4-6.54a8.64,8.64,0,0,0-6.11,6.69c-.61,3.1-2.52,5.38-4.2,7.83-.84,1.22-1.76,2.54-3.64,1.65s-3.45-2.26-2.75-4.19c1.89-5.27,1.53-10.86,2.86-16.18a2.67,2.67,0,0,1,.38-.92c3.87-5.39,6.47-11.35,8.84-17.54,1.62-4.25,5-4.56,8.43-1.56,3,2.62,6,5.25,7.38,9.25,1.22,3.57,3.64,5.08,7.38,3.48,1.77-.76,3.4-.67,4.19,1.22s-.74,2.61-2.11,3.37c-4.08,2.26-2.86,4.53,0,6.8a25.74,25.74,0,0,1,3.4,2.9,5.53,5.53,0,0,1,.71,6.11C685.9,2242.27,684.2,2243.18,681.75,2243.27Z"/><path d="M1000,374.52c0,11.08-13.17,20.43-23.58,16.78-10-3.51-14.4-10.16-14.12-20.72.21-8,1.88-15.44,7.28-21.74,2.24-2.62,4.68-3.5,7.92-2.32,4.52,1.64,9.33,2.79,12,7.44.66,1.17,1.33,2.62.44,3.76-1.13,1.43-2.73.72-4.11.08-.6-.28-1.13-.7-1.71-1-9.24-4.91-16.31-.46-16,10.06.09,3.36,2.39,4.85,5.82,3.61,4.84-1.76,9.51-4.09,14.45-5.38C995.45,363.22,1000,367.17,1000,374.52Zm-18,10.77a11.15,11.15,0,0,0,10.52-6.94c1.17-2.51.63-5.16-2.6-4.87a55.11,55.11,0,0,0-15.29,4.12,3.3,3.3,0,0,0-2,3.67,3.14,3.14,0,0,0,2.93,2.89Z"/><path d="M524.46,2307.15c6.72.21,13.3-.19,19.44-3.42,2.46-1.3,4.67-.62,5.64,2.13s-.47,4.47-3.06,5.28c-6.55,2.06-13.34,2.74-20.12,3.51-1.54.17-3.74-.24-3.56,2.33s2,1.68,3.71,1.54c3.08-.26,6.2.45,9.25-.93,1.57-.71,2.85.29,3.32,2.06.57,2.14-.1,3.71-2.3,4.18-4.22.88-8.31,2.43-12.72,2.32-2.46-.05-4.75.47-5.33,3.4a10.3,10.3,0,0,0,3.76,10.7c2.13,1.72,4.45,2.24,6.86.53a26.32,26.32,0,0,0,2.23-2c1.42-1.29,2.93-2.41,4.84-1,2.14,1.64,1.28,3.52.18,5.3a50.39,50.39,0,0,1-3,4.58c-4.47,5.71-12.06,5.85-16.08-.14-7.75-11.54-7.49-24.5-5.7-37.58.3-2.19,2.26-2.75,4.18-2.81C518.8,2307.08,521.63,2307.15,524.46,2307.15Z"/><path d="M575.34,2213.08c.14,8.42-3.32,15.69-8.46,21.83-4.9,5.84-11.39,3.56-17.51,1.41-5.25-1.84-7.77-5.3-7.56-10.87a68.73,68.73,0,0,0-3.07-24.57c-1.49-4.51.07-6.2,4.9-5.65a17.1,17.1,0,0,0,6.82-.77C566.63,2189.79,575,2196.12,575.34,2213.08Zm-19.74,18.17c3.31.33,5.77-1.52,7.84-4.07,3.34-4.12,4.75-9,5.76-14.12.84-4.22.6-8-3.26-10.63s-7.88-2.08-11.74.1-6.25,5.24-5.66,10.11c.53,4.25,2.23,8.4,1.31,12.78C548.87,2230.07,551.34,2231.38,555.6,2231.25Z"/><path d="M942.83,593.77c-.06-13.07,6-19.46,17.67-18.64,3.54.25,8.35,4.93,8,8.22s-2.63,4.41-5.8,3.23c-2.3-.85-4.38-2.44-7-2-5.45.81-9.3,9.79-6.26,14.55.89,1.39,2.26,1.19,3.56,1.17,3.94-.09,7.44-1.67,10.81-3.47a65.18,65.18,0,0,1,11.78-5.29c2-.59,3.89-2.6,5.87-.29a8.25,8.25,0,0,1,2,7.39c-1.71,8.06-9.49,15.17-18.12,16.47C951.66,617.13,942.89,608.81,942.83,593.77Zm19.24,16c3.13.12,10.36-2.35,11.52-4,.55-.77,1.36-1.56.84-2.66a1.83,1.83,0,0,0-2.11-.91c-4.08.68-8.21,1.21-11.64,3.85-.77.59-1.86,1.29-1.49,2.33C959.62,609.57,961.09,609.42,962.07,609.74Z"/><path d="M183.74,1643.63c-2.65,3.73-6,5.94-10.25,6.43a25.89,25.89,0,0,0-8.49,2.76c-4.7,2.3-5.81,5.75-3.31,10.12,2.14,3.72,4.51,3.91,9.13.61,1.63-1.17,3.23-2.93,5.07-.6,1.66,2.11.23,3.64-1.38,5.07a50.21,50.21,0,0,0-3.87,3.85c-4.3,4.74-10.18,4.28-13.69-1.13-1.77-2.72-2.34-5.87-3-9-1.43-6.83-2.51-13.72-4.82-20.37-1.78-5.09.4-9.4,5.57-11.13,8.48-2.83,17.43-2.29,26.21-2.86a3.44,3.44,0,0,1,3.8,3.74c0,2.54-1.82,3.54-3.89,3.77-4.3.49-8.63.62-12.94,1a33.47,33.47,0,0,0-5.85,1.16c-2.22.63-4.9,1.16-4.4,4.36s3,3.06,5.43,2.89c4.82-.34,9.63-.71,14.45-1C179.44,1643.33,181.39,1642.75,183.74,1643.63Z"/><path d="M773.68,863.74c-.15-5.22-.72-11.11-3.22-16.75-2-4.54.15-7.51,4.94-6.61,9.3,1.74,18.74,3,27.59,6.67,7.51,3.08,10.28,9.12,7,16.51a36.5,36.5,0,0,1-20.36,19.52c-3.88,1.57-7,.58-9.9-2.39C774.89,875.7,773.37,872,773.68,863.74Zm14.77-13.09c-7.18-.1-8.62,1.54-7.13,9.34a21.53,21.53,0,0,1-.4,8.35,6.75,6.75,0,0,0,3.53,7.57,6.3,6.3,0,0,0,7.82-.85A57.24,57.24,0,0,0,804,861c1.84-3.08,1.17-5.67-2.33-7.3A33.36,33.36,0,0,0,788.45,850.65Z"/><path d="M285.32,1667.76c-.21,1.87-.31,3.85-2.66,4.26a6.07,6.07,0,0,1-6.77-3.12,47.27,47.27,0,0,1-4.06-11.21c-1.65-6.12-3.78-7-9.21-3.79a14.83,14.83,0,0,0-5.36,5.76c-1.07,1.88-2,3.85-3,5.72-1.38,2.42-2.52,5.51-6.26,4.18-4.12-1.46-2.88-4.74-2-7.55,2.62-8.52,7.13-16.36,8.27-25.5.55-4.47,5.85-4.87,9.54-6.11,3-1,5.07.83,6.79,3,3.54,4.53,6.17,9.36,6.22,15.39a17.42,17.42,0,0,0,6,13.23C284.61,1663.65,285.09,1665.61,285.32,1667.76Z"/><path d="M329.33,593.56c-.1-5.79.45-11.64-3.19-16.84-1.5-2.15-.62-4.13,1.9-5.17,2.34-1,3.92-.19,4.65,2.16.5,1.59.65,3.53,2.94,3.25,2.06-.25,2.31-2.2,2.74-3.76,1.33-4.78,4.42-6.71,9.32-6.24s7.4,3.57,8,8.12c.46,3.58,1,7.31-1,10.71-.8,1.37-1.46,2.7-.17,4.09a3.89,3.89,0,0,0,4.57,1c1.69-.7,3.29-1.59,4.92-2.41,1.24-.62,2.48-1.14,3.66,0s.89,2.71.15,4.13c-1.88,3.61-5.13,5.1-8.93,5.5a23.39,23.39,0,0,1-14.9-2.88c-4.85-2.88-6.1-2.17-7.2,3.49-.16.82-.22,1.65-.41,2.46-.51,2.17-1.52,3.62-4.14,3.21-2.34-.36-2.94-1.84-2.93-3.89C329.35,598.2,329.34,595.88,329.33,593.56Zm21.48-15.77c-.55-2.22-2-4.12-5-3.82s-4.07,2.51-4.14,5.24c-.07,2.95,2.22,3.55,4.36,3.58C348.85,582.83,350.75,581.41,350.81,577.79Z"/><path d="M884.9,1900.16c.16-.78,0-2.36.74-3.3,2.91-3.86,3.81-7-.57-10.83-2.1-1.83.54-4.18,2.84-4.22,5.13-.08,7.24-3.21,8.67-7.38a3.71,3.71,0,0,1,.19-.46c4.37-8.68,6.73-9.07,13.13-1.9,2.46,2.75,4.74,5.34,8.72,6,3.33.54,4.39,3.22,3.11,6-1.41,3.1-.28,5.31,1.2,7.83,1.83,3.12,3.83,6.19,4.41,9.94.41,2.65.77,5.35-2.64,5.85-3.1.45-4.41-2-4.79-4.63-.57-4-1.54-7.72-4-11.08-5.69-7.69-15.25-6.69-19.27,2.15-1.3,2.87-2.52,5.77-3.84,8.62-1,2.08-1.7,4.71-4.81,4S885.11,1903.17,884.9,1900.16Z"/><path d="M257.82,582.29c-.16,4.13,1.44,8.25.18,12.4-.73,2.43-1.33,5-4,5.9s-4.67-1.08-6.51-2.78c-2.43-2.26-4.81-4.59-7.25-6.84-2.81-2.6-5.68-2.58-8.36.14-2.33,2.37-4.5,4.89-6.77,7.32-3.06,3.29-7,2.62-7.65-1.74a135,135,0,0,0-5.88-25.19c-.75-2.19-.09-4.4,2.47-5.27s3,1.24,3.94,2.79a14.1,14.1,0,0,1,1.92,7.62,23.7,23.7,0,0,0,.83,5.38c.46,2,1.36,3.94,3.79,4s3.32-1.87,4-3.83c2.64-7.67,3.73-8,10.14-3.23a30.35,30.35,0,0,1,6,6.59c1.09,1.45,2.33,3.21,4.48,2.17s2.9-3,2.11-5.46a29.7,29.7,0,0,1-1.3-10.82c.13-2.43.49-4.35,3.43-4.43s4.32,1.61,4.42,4.3C257.93,575,257.82,578.63,257.82,582.29Z"/><path d="M174.74,2212.42c.18-3.35.4-7.16.59-11,.13-2.58,1.18-5.05,3.86-4.89,2.5.15,2.8,2.76,2.78,5.08-.07,7.18,0,7.23,6.69,5.22a81.79,81.79,0,0,1,15.18-2.72c2.7-.27,4.81-1.29,5.93-3.84.95-2.16,2.23-3.71,4.89-3.25a5.7,5.7,0,0,1,4.84,5.06c.5,3.09.29,6.29.51,9.44.32,4.68-.62,9.83,5.07,12.46,1.61.74,1.33,2.51.5,3.95-1.47,2.55-3.4,4.65-6.51,4.84-2.22.14-3.65-1.23-4.45-3.32-1.68-4.41-1.8-9.1-2.49-13.69-.92-6.07-1.8-6.85-7.78-5.61-6.33,1.32-12.68,2.66-18.9,4.43-5.07,1.46-5.65,3.64-2.58,7.93,1.42,2,2.49,3.94,1.55,6.43-.73,2-1.73,3.71-4.19,3.56s-4-1.16-4.59-3.74C174.49,2223.52,174.6,2218.21,174.74,2212.42Z"/><path d="M909.08,2227.66c-6.77,5.79-6.89,6.26-3,13.53a8,8,0,0,1,1,5.74,3.7,3.7,0,0,1-3.26,3.28,3.2,3.2,0,0,1-3.77-2.51c-.86-2.86-1.53-5.78-2.24-8.68s-2.47-4.64-5.59-4.68a19.11,19.11,0,0,0-18.53,12.54c-1.09,2.76-2.2,5.61-6,3.7-3.33-1.66-2.52-4.21-1.08-6.74a65.45,65.45,0,0,0,7.07-20.14c1.13-5.86,4.28-9,9.63-10.83,2.9-1,5-.46,6.16,2.3C893,2223.39,899.16,2227.59,909.08,2227.66Z"/><path d="M803.71,2333.9c-1,5.95-2.51,13.11-3.12,20.43a122.56,122.56,0,0,0,0,22.42c.27,2.7.27,5.87-3.43,6.06s-5.34-2.54-5.14-5.93c.34-5.47,1-10.92,1.63-16.38.63-5.85-.93-7.35-6.68-6.31-15.44,2.81-17.27,1.7-21.59-13.22-1.16-4-2.31-8-4.77-11.45-1.66-2.35-1.92-4.69.79-6.44,3-1.91,4.13.49,5.37,2.5,2.34,3.75,3.1,8,4.12,12.23,2.73,11.16,8,14.06,19.13,10.81,3.14-.91,4.76-2.8,4.84-6.08.09-3.79,1.13-7.55,0-11.37a8.14,8.14,0,0,1,.06-4,3.83,3.83,0,0,1,3.42-3.15c2-.3,3.1.7,3.9,2.34A13.15,13.15,0,0,1,803.71,2333.9Z"/><path d="M531.56,377.12c-7.43,0-12.1-3.75-13-11-.89-6.72-.89-13.56-3-20.13-.81-2.52.58-4.19,3-4.8,13.84-3.4,26.67-.44,38.65,6.68,3.36,2,3,5.67,2.15,9C557,366.52,542.29,377.16,531.56,377.12Zm5.79-29.45c-1.83,0-3.67-.1-5.49,0-6.72.46-8.84,3.17-7.57,9.84a82,82,0,0,1,1.64,11.36c.11,2.51,1.19,4.27,4.15,3.32a47.66,47.66,0,0,0,19.53-11.68c4.23-4.26,2.39-9.73-3.35-11.68C543.34,347.87,540.31,348.24,537.35,347.67Z"/><path d="M479.5,2228.36a30.28,30.28,0,0,1,3-11.76c2.92-6.51,5.76-13,7.53-20,1.24-4.85,3.65-5.5,7.59-2.47a19.52,19.52,0,0,1,6.52,8c2.63,6.19,5.83,7.44,12.33,5.58,1.87-.54,4.34-1.83,5.11.8.92,3.11-2.2,3-4.14,3.6-.47.14-1,.09-1.46.27-1.78.69-4.52.4-4.88,2.72s2,3.22,3.65,4.29c2.05,1.37,4,2.74,2.82,5.56-.91,2.16-2.18,4.3-5,4.28s-3.68-2.52-4.69-4.55c-1.25-2.54-.19-6.73-3.95-7.36-4.38-.72-8.52,1-12.11,3.58-2.61,1.88-3.33,4.86-3.9,7.83-.6,3.13-2.53,4.72-5.63,4.3C479.11,2232.58,479.56,2229.87,479.5,2228.36Z"/><path d="M342.66,2336.75c.35-5.15.73-10.29,1-15.44.14-2.29.45-4.57,3.2-4.85,2.4-.25,3.38,1.62,4.1,3.62,2.88,7.94,7,15.11,13.58,20.57a27.3,27.3,0,0,0,10.36,5.83c6.07,1.61,10.61-1.68,11-7.91a32.25,32.25,0,0,0-3.45-17.39,15.62,15.62,0,0,1-1.63-4.65c-.36-2.34,1-3.87,3.22-4.26s2.65,1.44,3,3.1c1.78,7.57,5,14.78,4.85,22.83-.19,11.59-11.81,19.1-22.13,13.75-5-2.57-10-5-13.87-9.52-3.17-3.74-5.43-3-7,1.73-.71,2.18-.72,5-4.16,4.27-3.25-.72-2.43-3.4-2.35-5.69.08-2,0-4,0-6Z"/><path d="M509.36,1979.47c-2.76,3.57-6.14,4.88-9.5,6.06-4.55,1.58-9.16,3-13.81,4.32-3.59,1-5.4,3.08-3.92,6.55,1.38,3.21,4,5.52,7.94,4.28,1.67-.54,3.1-1.88,4.56-3s2.66-1.46,4-.22.84,2.45.09,3.63c-2.56,4.07-4.77,8.77-10.49,8.92s-8.47-3.9-10.64-8.42c-4.73-9.84-4.38-20-1.62-30.21a6.79,6.79,0,0,1,6.1-5.18c9.61-1.11,19-3.29,28.48-5.12,2.13-.42,4.91-1.59,5.33,2.23.4,3.62-1.76,4.88-4.89,4.55-9.86-1.05-18.5,3.5-27.6,5.87-4,1-4.05,4.32-2.95,7.72,1.2,3.71,3.81,3,6.48,2.16C494,1981.4,501.09,1979.23,509.36,1979.47Z"/><path d="M507.81,455.64c2.49,0,5-.08,7.48,0,2.23.09,4.58.35,4.47,3.42s-2.1,4.26-4.69,4c-7.34-.84-14.12,2-21.19,2.82-2.24.26-4.55.76-4.4,3.67s2.42,3.24,4.66,3.52a14.21,14.21,0,0,0,9.54-2.1c2-1.22,4.08-1.89,5.41.95s-.32,4.3-2.84,5.15a76.1,76.1,0,0,1-11.47,3.35c-1.94.34-4.27.83-4.55,3.23a5.38,5.38,0,0,0,2.72,5c2,1.25,3.88.47,5.53-.83,1.29-1,2.45-2.23,3.64-3.39s2.44-1.94,3.92-.68,2,3.23.58,4.84a76.9,76.9,0,0,1-8.78,8.81c-3.56,2.83-9.51.43-12.46-4.75s-3.13-10.77-2.92-16.47c.05-1.33.28-2.65.46-4,1.51-11,6.37-15.47,17.41-16,2.48-.13,5,0,7.48,0Z"/><path d="M843.75,596.8a103.24,103.24,0,0,0,0-21.88c-.55-6.75,1.37-8.13,7.88-6.48a17.58,17.58,0,0,0,6.89.16,39.34,39.34,0,0,1,7.94-.54c10,.66,15.47,10,11.3,19.07-3.9,8.51-12.73,12.66-22.44,10.56-4.84-1.05-5.42-.47-4.1,4.3.54,1.93,1.52,4-.18,5.61a4.78,4.78,0,0,1-5.2.63c-2.49-1-2.56-3.27-2.52-5.46C843.38,600.78,843.61,598.79,843.75,596.8ZM865,576c-4.84-.14-8.67.67-11.85,3.44a6.81,6.81,0,0,0-2.17,7.22c.64,2.59,2.71,3.69,5.05,4.23a23.61,23.61,0,0,0,5.42.63c5.13-.06,11.91-6.23,11.52-10.57C872.41,575.33,867.85,576.34,865,576Z"/><path d="M741.72,578.74c-1.33,3.94,0,7.89.06,11.86a9,9,0,0,0,3.12,7.09c1.41,1.2,3.17,2.36,2,4.5-1.39,2.52-4,3.37-6.66,3.87-2.17.41-3.41-1-4.22-2.8a21.25,21.25,0,0,1-1.66-10.75c.38-4.64-1.63-6.33-6.13-5.91s-9.3.48-13.67,2.44c-2.45,1.1-3.36,2.49-1.89,5a9.73,9.73,0,0,1,1.54,5.7c-.24,2.8-1.79,5-4.54,5.14s-4.63-2-4.73-4.78c-.14-4,.36-8,.34-12s-.29-8-.58-12c-.19-2.71,1.09-4,3.64-4.35s3.73.9,3.64,3.41c-.11,3.3,1.81,4.31,4.74,4.35,3.49,0,7,.27,10.47.26,2.13,0,4.23-.64,4.11-3.27-.13-3.13-.67-6.33,3.79-6.57,4.24-.23,4.71,3.51,6,6.23A12.07,12.07,0,0,1,741.72,578.74Z"/><path d="M1082.47,1915.13c-4.91.52-9.06-1.79-12.16-5.78-6.32-8.12-8.46-17.14-4.74-27,.67-1.81,1.55-4,4-3.81s2.92,2.21,3.21,4.35c.59,4.42,3.5,5.68,7.54,5.11,5.61-.8,11-2.62,16.35-4.22,5.92-1.76,8,0,6.92,5.84a53.34,53.34,0,0,1-8.18,20.14C1092.43,1914.18,1088,1915.55,1082.47,1915.13Zm.84-8.86a13.68,13.68,0,0,0,13.23-9.12c1.67-4.3-.44-7-5-6.09-4,.82-8,2-12,3.1-2.46.7-5.91.63-6.25,3.91-.31,3.06,2.38,5,4.66,6.62A8.56,8.56,0,0,0,1083.31,1906.27Z"/><path d="M915.81,591.86c-7,.31-10.84,3.26-13.25,8.39-1.4,3-3,5.92-4.55,8.84-.76,1.43-1.93,2.38-3.67,1.7a3.34,3.34,0,0,1-2.49-3.36c.06-1.32-.17-2.83.37-3.93,4-8.07,6.09-16.87,9.72-25.09,3.15-7.15,6.45-7.93,12.49-2.82a58.34,58.34,0,0,1,4.59,4.58c2.78,2.94,5.94,4.74,10.2,3.9,1.36-.27,3.13-1,3.64,1.25.36,1.57-.68,2.28-1.92,3.07-5.44,3.43-5.41,4-.08,7.58,4.23,2.84,4.85,5.26,2.31,9-2.2,3.29-5.53,3.19-7.34-.32-1.37-2.66-2.47-5.45-3.74-8.16C920.61,593.33,918.2,591.6,915.81,591.86Z"/><path d="M240.33,468.45c0-4.49,0-9,0-13.48,0-2.28.91-4.08,3.19-4.42s3.1,1.76,3.29,3.56c.52,4.9,3.61,5.74,7.75,5.53,5.43-.27,10.47-.76,13.91-6.08,2.05-3.17,6.82-1.89,8.24,1.88a14.14,14.14,0,0,1,.45,5.91c-.38,6.31-1,12.67,2,18.63,1.38,2.75.09,4.79-2,6.57-1.27,1.09-2.54,2.38-4.4,1.59-2.55-1.08-2.94-3.34-3-5.8-.12-4.32-.31-8.65-.54-13-.2-3.88-2.13-5.64-5.9-4a20.3,20.3,0,0,1-7.79,1.3c-7,.18-9.54,3.6-7.63,10.41.41,1.44,1,2.81,1.47,4.24.88,3,.51,5.43-3.1,6-3.28.51-4.45-1.43-4.61-4.39-.27-4.82-.61-9.63-.92-14.45Z"/><path d="M286.34,2195c-.22-3,2-3.78,4.77-3.88,7.32-.25,14.63-.59,21.95-.78a30.39,30.39,0,0,0,13.89-3.56c2.57-1.38,5.1-1.69,7.39.4,2.46,2.25,1,4.42-.23,6.71-3.23,6.3-3.76,13.06-2.86,20,.69,5.26,1.1,10.54,2.59,15.71.82,2.82,1.85,6.76-2.88,7.57-4.36.75-5.37-2.51-5.61-5.9-.59-8.46-1-16.94-1.56-25.4-.66-9.13-2.76-10.61-11.67-9-6.54,1.21-13.1,2.43-19.69,3.23C288.25,2200.64,286.41,2198.9,286.34,2195Z"/><path d="M708.27,1884.61c.07-4.67-1.92-9.36-8.23-11.3-2-.61-3-2-2.44-4.21a3.61,3.61,0,0,1,4.56-2.85c3.82.8,7.27,2.29,9.25,6.06a29,29,0,0,1,1.22,25.93c-4,9.61-14.25,12.64-23.16,6.67a27.57,27.57,0,0,1-11.64-16.28c-1.25-4.81-2.07-9.74-3.12-14.61-.55-2.58-.31-4.89,2.82-5.25s5.19,1.19,5.27,4.5c.14,6.3,2.31,12,4.83,17.65,2.93,6.54,6.24,8.81,11.11,7.63C705.49,1896.9,708.51,1892.93,708.27,1884.61Z"/><path d="M319.1,445.45c1.45.15,4.45,0,4.75,3.71.36,4.21-2.87,4.33-5.72,4.42-5.81.17-11.65-.15-17.37,1.32-1.79.46-4,.9-3.51,3.31s2.33,2.9,4.66,2.37c3.4-.77,6.84-1.39,10.28-2,1.65-.28,3.77-1.68,4.69.89,1.05,2.92-1.32,3.79-3.4,4.46-3.47,1.13-7,2.27-10.52,3.07-6.94,1.55-6.75,6-4.47,11.49,1.25,3,3.17,1.53,4.76.24,1.8-1.47,3.48-3.67,5.85-1.07s.32,4.45-1.59,6.19c-.86.78-1.63,1.67-2.41,2.53-5.09,5.58-10.24,4.8-13.51-2.06a17.72,17.72,0,0,1-1.6-7.24,86.81,86.81,0,0,0-.77-11.91c-1.19-7.28,8-18.3,15.23-18.84C308.93,446,313.41,445.79,319.1,445.45Z"/><path d="M1024,583.17c2.07.42,4.51,0,6.3,2.18-5.71,4.57-12.61,6.45-19.15,9-5.93,2.36-7.1,6.21-3.81,13.14,2.42,5.12,6.27,6.32,11.48,3.31a35.52,35.52,0,0,0,5-4.07c1.1-1,2.32-1.62,3.51-.46a2.73,2.73,0,0,1,.15,4.06c-3.25,3-6.44,6.32-10.16,8.7-4.59,2.94-11.75.38-14-5.56-4.33-11.26-5.11-23-1.37-34.66.71-2.22,2.43-2.83,4.66-3,5.81-.3,11.6-.89,17.4-1.21,2.09-.12,4.76-.55,5.48,2.19s-1.76,3.51-3.8,4.31A2.28,2.28,0,0,0,1024,583.17Zm-2,1.63c-3.88-3.62-7.63-2.16-11.35-.66-1.31.53-2.41,1.39-1.85,3s2,1.21,3,.92C1015.13,587.14,1018.4,586,1022,584.8Z"/><path d="M389.6,570.16a84.56,84.56,0,0,1,16.56,2.76c7.64,2.12,10.43,8.44,6.73,15.51-4.86,9.28-19.93,16.86-30.06,15.15-2.75-.46-4-2-4-4.74,0-7.46.36-14.91,0-22.38C378.56,571.54,381.71,569.88,389.6,570.16Zm3.31,7.83c-3.26.67-7.21-.7-8,3.37a19.27,19.27,0,0,0,1.28,12.22c1,2,2.71,3.16,4.87,2.63,6.11-1.5,11.63-4.2,15.22-9.61,1.5-2.27,1.81-4.94-1.74-5.9C400.58,579.62,396.51,578.81,392.91,578Z"/><path d="M241.14,2221.36c-.49-5.31,1.76-9.85,4.87-14.11,2.83-3.89,5.93-7.61,7.89-12.08,1.31-3,3.58-2.76,5.72-1.23,5.06,3.63,10.77,6.68,12,13.8a12.94,12.94,0,0,0,4.46,7.08c1.72,1.54,2.55,3.13,1.21,5.18-1.69,2.61-3.9,4.54-7.26,4.59-2.39,0-3.66-1.3-4.27-3.43-.41-1.43-.66-2.91-1.1-4.34-.68-2.23-1.32-4.56-4.19-5s-4.74,1.17-6.1,3.43c-1.71,2.84-3.28,5.77-4.92,8.66-1.31,2.31-1.69,6-5.74,4.69C240,2227.45,240.79,2224.34,241.14,2221.36Z"/><path d="M605,582.21A23.44,23.44,0,0,1,603.87,594c-2.28,6-5.76,7.27-11.2,4.06-2.15-1.27-4.2-2.69-6.28-4.07-6.23-4.15-7.8-3.56-9.34,3.54a8.27,8.27,0,0,0-.12,1c-.19,1.84-1,3.28-3,3.28-1.81,0-3.67-1-3.68-2.74,0-7.9-2.94-15.81,0-23.7.76-2.06,1.56-4.08,4.26-4.26s4,1.44,4.82,3.56c2.55,6.43,7.74,10.24,13.36,13.63,3.11,1.88,5.06,1,5.53-2.65s.91-7.56-1.36-11.1c-1.87-2.9-.06-4.69,2.39-5.93,2.9-1.47,3.69.71,4.65,2.78C605.36,574.76,604.88,578.27,605,582.21Z"/><path d="M329.24,46.09a58.63,58.63,0,0,0-.41-14.91c-1-7-3.84-8.9-10.58-7.1-.8.21-1.58.57-2.39.7-2.69.45-5.12.08-6.05-2.93s-.14-6,3.19-6.78c8.26-1.87,16.6-3.44,25-4.8,3.14-.51,4.71,2,5.72,4.64s.34,4.65-2.38,6.16c-4.37,2.43-6.09,6.44-5.63,11.36.58,6.12,1.25,12.23,1.85,18.34a31.88,31.88,0,0,1,.29,5c-.19,3-1.62,5.14-4.89,5.2s-3.58-2.48-3.66-4.87C329.15,52.75,329.24,49.42,329.24,46.09Z"/><path d="M917.65,372.75a60.86,60.86,0,0,1-.06,6.48,2.85,2.85,0,0,1-2.94,2.82,2.73,2.73,0,0,1-2.89-2.8c-.88-9.11-1.57-18.23-3.27-27.25-.39-2.05.74-3.52,2.84-4.06s4.28-.46,5.3,1.6c4,8.09,11.94,12.39,17.8,18.68,1.93,2.07,4.45,3.31,7.17,1.7s2-4.1,1.4-6.68c-1.27-5-.83-10.77-6.4-13.89-1.13-.64-1-2.07-.11-3.1a4.73,4.73,0,0,1,4.38-1.9c2.63.36,4.09,2.16,4.82,4.51a61.1,61.1,0,0,1,2.9,21.16c-.38,7.32-5.08,9.93-11.59,6.7-4.35-2.15-8.47-4.63-11.72-8.34-1.62-1.87-3.19-4.37-6.11-3.27-3.11,1.18-1.19,4-1.35,6.14,0,.5,0,1,0,1.5Z"/><path d="M753.65,475.13a23.57,23.57,0,0,1-2.51,13.25c-2.27,4.51-4.8,5.39-9.35,3.2a37.22,37.22,0,0,1-4.26-2.59c-5.18-3.45-5.6-3.35-7.75,2.56-.57,1.54-1.3,2.86-3.12,2.54-2.36-.41-5.38-1.47-5.13-3.92.65-6.44-1.58-12.52-1.54-18.83,0-2.77.27-5.5,3.64-6.26s5.18,1.19,6.3,4.18c1.85,4.95,6.51,7.44,9.94,11,1.22,1.27,3,1.18,4.66.35s1.55-2.44,1.28-3.93c-.53-2.94-1.16-5.87-1.75-8.81-.47-2.31-.27-4.5,2.21-5.45,2.66-1,4.42.5,5.71,2.71C753.84,468.31,753.74,471.82,753.65,475.13Z"/><path d="M771.44,340.1c4.28-.21,8.64.93,12.86-.72,1.35-.53,3.13-.71,3.59,1.39s-.39,3.51-2.7,3.86c-5.25.78-10.49,1.63-15.74,2.4-3.65.54-6,2.37-5.52,6.26.51,4.18,4,3.88,6.94,3.78a36.29,36.29,0,0,0,4.86-1c2.11-.36,3.64.33,3.92,2.66s-1.08,3.35-3.25,3.33a35.22,35.22,0,0,0-7.35.87c-2.81.57-4.57,1.48-4.81,4.61-.2,2.58-.54,5,2.18,6.56s5.13.68,7.38-1.05c1.7-1.31,3.3-2.77,5.08-4a2.35,2.35,0,0,1,3.17.51c1,1.11.57,2.24-.31,3.11-3.18,3.16-6.13,6.65-10.09,8.84a8.52,8.52,0,0,1-12.59-6.85c-.53-4.86-.84-9.59-4.38-13.42a2.24,2.24,0,0,1,0-3.2c3.28-3.22,2.06-6.43.63-10-1.49-3.78.08-6.72,4.24-7.29C763.46,340.24,767.47,340.3,771.44,340.1Z"/><path d="M555,1409.5c0-2.16,0-4.31,0-6.47-.07-6-2.26-7.8-8.08-6.59-3.9.82-7.78,1.73-11.71,2.34-2.2.33-4.91.94-5.57-2.42-.6-3,1.56-4.08,3.84-4.89,2.81-1,5.61-2.1,8.65-2.2a21,21,0,0,0,12.52-4.21,9.39,9.39,0,0,1,5-1.93c4.62-.31,7.31,2.29,6,6.64-3.13,10.38-3.37,20.42,1.1,30.57,1.81,4.1-.84,7.9-4.92,8.67-3.55.67-5.64-1.49-6.13-6.59-.42-4.29-.65-8.6-1-12.91Z"/><path d="M997.36,2227c-7.28-.51-8.34.49-8.35,7.88,0,5.44,3.29,11.14,7.06,12.23s11.33-2.49,13.67-6.41c.86-1.43,1.38-3.38,3.58-2.19,1.75.94,1.7,2.69,1.2,4.41-1.45,4.93-12.68,12.55-18.24,12.37-5.87-.18-9.84-4.4-11.65-12.34-1.7-7.43-.85-15.21-3.59-22.56-1.14-3.06,2.2-4.92,4.41-6.59,2.57-1.94,3.24.83,4.61,2.06,3.94,3.56,8.75,3.67,13.62,3,3.79-.54,7.52-1.37,11.29-2a2.75,2.75,0,0,1,3.48,2,2.64,2.64,0,0,1-1.92,3.52C1010.21,2224.19,1004.35,2228,997.36,2227Z"/><path d="M790.19,1908.62c-10.19.29-18.62-3.91-25-12.28-1.38-1.81-2.61-3.95-.27-5.65,2.56-1.87,4.43-.14,5.53,2.17,2.76,5.8,7.84,7.82,13.67,8.64,1.72.24,3.38-.08,4.16-2s-.76-2.58-1.87-3.56c-3.23-2.87-6.6-5.62-9.54-8.77a17.34,17.34,0,0,1,1.36-25.32c1.86-1.59,3.87-2.6,6.37-2.05a4.32,4.32,0,0,1,3.42,3.27c.51,1.87-.86,2.73-2.2,3.43-9.46,5-7.72,11.21-2.37,17.84,3.18,3.93,7.39,6.67,11.43,9.59,2.21,1.59,4.16,3.35,4.78,6.14C801,1906,797.93,1908.83,790.19,1908.62Z"/><path d="M302.56,1639.94c-.95.06-1.78.13-2.61.16-1.89.07-3.82.1-4.21-2.39a3.86,3.86,0,0,1,2.69-4.7,43.16,43.16,0,0,1,14.63-2.79c5.5-.12,10.94-.47,16.26-2.17,2.82-.9,5.93-.91,7.3,2.34s-.65,5.17-3.74,6.31a5.86,5.86,0,0,0-3.8,5.94c.1,5.48.34,11,.83,16.44.27,3.05,2.08,5.54,4.17,7.78,2.72,2.91,1.7,5.61-1,7.69-3,2.36-4.86.14-6.39-2.25-2.59-4-3.59-8.52-3.94-13.24a123.31,123.31,0,0,0-1.46-14.38c-1.07-5.48-4-7.08-9.48-5.86A30.39,30.39,0,0,1,302.56,1639.94Z"/><path d="M720.38,2315.92c7.71.24,16.68.75,25.65-.17,2.44-.25,4.71.45,5.16,3.48.43,2.87-1.39,3.82-3.7,4.33-4.26,1-5.62,3.76-5,7.8,1.17,8.14-.92,16.59,3.16,24.54,1.6,3.12-1,5.69-4.51,6.28-3.75.65-4.52-2-4.7-4.88a164.06,164.06,0,0,1-.16-22c.63-8.72-1.29-10.8-10.07-11.44-5.3-.39-10.55-1.27-15.88.05-2.59.65-4.59-.48-4.91-3.49-.36-3.26,1.52-3.88,4.27-3.9C712.81,2316.55,716,2316.2,720.38,2315.92Z"/><path d="M271.3,63.64c-8.9-.2-13.91-5.29-18.61-10.82-1.19-1.41-.73-2.85.69-3.88,1.87-1.35,3.21-.18,4.13,1.28,1.32,2.09,2.12,4.52,4.61,5.69,3,1.41,6,2.1,9.1.54,2-1,3.58-2.55,3.67-5,.09-2.19-1.69-3.08-3.24-4-2.25-1.41-4.66-2.61-6.78-4.19-7.39-5.52-8.35-14.17-2.47-21.36,3.37-4.11,7.85-6.64,12.69-8.54,2.49-1,5.06-1.35,5.87,2.23.69,3.06.23,5.73-3.26,6.75a28.43,28.43,0,0,1-4.43.73c-3.32.42-6.35,1.47-7.3,5a9.06,9.06,0,0,0,2.61,9.6c2.87,2.61,6.34,4.26,9.77,5.94,3.8,1.86,6.95,4.11,6.39,9s-3,8.35-8.05,9.58C274.6,62.72,272.53,63.31,271.3,63.64Z"/><path d="M343.67,2001.89c.46-1.83-.64-4,1.09-4.39,2.05-.41,2.25,2,2.79,3.45a15.18,15.18,0,0,1,.3,2.46c1.7,9.16,9.61,12,16.71,6,4.15-3.51,4.23-7-.21-10.24a61.77,61.77,0,0,0-9.1-5.11,40.62,40.62,0,0,1-10-6.43c-5.26-5-4.92-12.23,1.07-16.28,5.26-3.56,11.31-5.58,17.43-7.18,2-.52,4.28-.45,4.73,2.23s-1.9,2.79-3.58,3.28c-3.82,1.13-7.82,1.68-11.33,3.73-5,2.91-5.38,6.31-1.19,10.36a33.07,33.07,0,0,0,7,4.78,47.56,47.56,0,0,1,7.52,4.85c5.92,5,7.71,10.57,5.49,15.75-2.42,5.65-9.23,9.84-15.22,9.37-6.37-.51-10.61-4.43-12.52-11.7C344.11,2005.06,343.91,2003.24,343.67,2001.89Z"/><path d="M471,349.83c-.31-8.47,1.21-10.21,6.84-10.75q11.65-1.12,23.32-2.3c1.93-.2,4.34-1.07,4.67,1.94s-2.09,3.35-4.34,3.52A72.61,72.61,0,0,0,483,346.06c-2.5.87-5.67,1.58-4.72,5.16s4.2,1.91,6.39,1.74a89,89,0,0,0,9.77-1.88c2.16-.43,4.65-1,5.2,2s-2.06,3.47-4.15,3.92c-4.06.87-8.16,1.54-12.23,2.34-1.79.35-3.72.64-4.27,2.84a4.07,4.07,0,0,0,1.62,4.41c1.84,1.41,3.67,1,5.51-.2,1.54-1,3.18-3.18,5.07-.8,1.72,2.16.32,4-1.22,5.71-2.8,3-5.85,5.75-10.34,4.72-4.69-1.07-5.86-5.18-6.5-9.14C472.11,360.34,471.5,353.72,471,349.83Z"/><path d="M471.7,59.63c-1.39,0-3.72,0-6.05,0-9.48-.12-13.28-4.38-12-14,.69-5.25,2.06-10.42,2.95-15.66a21.23,21.23,0,0,0-.14-8.44c-.56-2.34-.3-4.3,1.82-5.68a3.84,3.84,0,0,1,4.26,0c2.21,1.35,2.23,3.52,1.92,5.73-.95,6.58-2.11,13.13-2.85,19.73-.85,7.57,1,9.45,8.63,9.94,7.25.46,14.24-.88,21.21-2.53,3.23-.77,6.25-.92,6.78,3.32.5,4.05-2,5.63-5.69,5.91C485.9,58.48,479.27,59,471.7,59.63Z"/><path d="M550.09,1077.12c-2.71-.29-4.89-1.16-5.37-4.24s1.08-4.85,3.81-5.51a93.86,93.86,0,0,1,10.78-2c5.13-.61,10.24-1.17,15.14-2.94,1.87-.68,3.54-.64,4.83,1.26s1.78,3.73.09,5.43c-7.92,7.94-7.43,17.23-4.54,27,.8,2.71,1.62,5.42,2.22,8.18.87,4-1,6.9-4.73,7.45-3.88.58-4.82-2.68-5-5.94-.46-9.31-1-18.61-1.3-27.92-.12-4.1-1.46-5.42-5.54-4C557.07,1075,553.82,1076.89,550.09,1077.12Z"/><path d="M448.91,847.42c-.09,2.47-1.94,2.47-3.51,3-6.48,2.05-6.79,3-2.91,8.29,1.78,2.42.2,8.4-2.56,9.33-2,.67-3.25-.62-3.85-2.27-.91-2.49-1.43-5.12-2.29-7.63-1.22-3.57-3.19-5.14-7.18-3.16-4.59,2.26-8.05,5.14-9.05,10.46a8.64,8.64,0,0,1-2.84,5.17c-1.81,1.49-3.81,2.13-6,.69-2.51-1.69-.8-3.36,0-5.14,4.11-9.09,8.12-18.21,12.19-27.32,1-2.23,1.52-5.08,4.76-5,2.91.06,3.49,2.6,4.44,4.73,3.12,7,6,8.42,13.76,6.82C446.11,844.9,448.35,844.4,448.91,847.42Z"/><path d="M549.81,844.69c.43,2.42-.54,5.59-1.45,8.81-2,7.07-2.62,14.07,1.73,20.63,1.54,2.32.19,4-1.14,5.83-1.17,1.58-2.49,2.75-4.6,2.13-2.29-.66-2.93-2.67-3.16-4.66-.31-2.63-.31-5.31-.38-8-.13-5-2.44-7.9-7.58-8.89-11.45-2.19-17.73-9-19.29-20.34-.26-1.94-.16-3.75,2-4.57,2.41-.92,3.84.44,4.71,2.43s1.49,4,2.16,6.09c.74,2.24,1.55,4.5,3.26,6.11,3,2.88,6.43,6,11,4.47s3.33-6,3.89-9.45c.29-1.79,0-3.67.14-5.48.26-2.69,1.13-4.9,4.54-4.71s4.09,2.35,4.2,5.09C549.85,841.38,549.81,842.54,549.81,844.69Z"/><path d="M763.83,586.61c-.58-5.64,3.38-10.39,3.14-16-.07-1.63,1.79-1.85,3-2.06,6.88-1.15,13.77-2.2,20.66-3.27,3.15-.48,4.82,1.12,4.91,4.1s-2.1,3.28-4.5,3c-4.54-.47-8.91.61-13.3,1.51-1.51.31-3.19.56-2.95,2.6.26,2.36,2.26,2.11,3.85,2a31.83,31.83,0,0,0,5.37-1c1.9-.51,3.71-.92,4.4,1.58a3.59,3.59,0,0,1-2.65,4.67,84.48,84.48,0,0,1-9.2,2.09c-3.77.7-5.81,2.56-4.51,6.57,1.22,3.75,3.81,4.22,7.07,2.51,1.77-.93,3.45-1.26,4.83.66s.57,3.72-.79,5.37c-5.16,6.24-12.91,5.46-16.68-1.75C764.46,595.24,764,591,763.83,586.61Z"/><path d="M812,484c0-8.85,3.43-13.07,12-15.09a32.63,32.63,0,0,1,10.4-.69c8.81.75,14.23,6.68,14.38,15.46a7.16,7.16,0,0,1-.27,2.45c-2.79,8.29-19.05,16-27.28,13C815.49,497.09,812,491.35,812,484Zm15.63,8.29c6.85.07,14.21-4.74,14.28-9.33.06-4.35-7.65-9.21-14-8.81-.33,0-.67,0-1,.06-4.45.73-7.55,5.51-7.2,11.08C820,489.93,822.61,492.23,827.62,492.28Z"/><path d="M531.51,603.28c-10.42,0-15.25-5.53-13.84-14.43a25.22,25.22,0,0,1,1.61-5.72c3.07-7.31,10.7-12.58,16.87-11.79s15.3,9.51,16.37,15.94c.85,5.14-1.92,8.6-5.91,11.15A31.61,31.61,0,0,1,531.51,603.28Zm2.06-7.28c1.42-.28,4.06-.63,6.6-1.33a5.47,5.47,0,0,0,4.39-4.86c.26-2.76-1.16-4.77-3.51-6.12-3.28-1.88-7-2.06-10.6-2.33-3-.23-5,1.58-6.08,4.26C521.75,591.85,524.69,595.63,533.57,596Z"/><path d="M645.31,860.86c0,3.26,2.07,7.44-2.25,9.3-4,1.73-6.42-1.72-9.16-3.7-3-2.14-5.73-4.57-8.76-6.62-3.95-2.66-5.86-1.89-7.35,2.7-.72,2.21-1.21,4.5-1.95,6.7a3.88,3.88,0,0,1-4.2,2.84,3.66,3.66,0,0,1-3.54-3.58c-1.08-9.16-4.63-17.68-6.75-26.56a22.5,22.5,0,0,1-.64-3.43c-.18-2.23-.27-4.65,2.86-4.73,2.69-.07,3.18,2.08,3.21,4.17.08,6.22,1.62,12.18,3.11,18.15.39,1.58.64,3.58,3,3.17,1.89-.32,1.88-2,2-3.55.13-2.29-.34-5.16,2.06-6.28,2.69-1.25,4.49,1.36,6.47,2.75,4.09,2.87,8.11,5.84,12.31,8.53,3.12,2,5.29.88,5.22-2.75-.08-4.46.5-9-1.41-13.32-.56-1.25-1-2.51.15-3.68a3.66,3.66,0,0,1,3.75-.68c1.84.48,1.9,2.13,1.92,3.63C645.33,849.57,645.31,855.21,645.31,860.86Z"/><path d="M503.84,852.13c.33,7.67-1.32,9.34-7.28,8.86-6.49-.54-12.86-1.7-18.71-4.83-3.54-1.89-5.35-.94-5.21,3.24.09,2.55.11,5.55-3.39,5.52-3.27,0-4.06-2.62-4.33-5.61-.55-6-1.48-11.87-2.17-17.82-.28-2.39.41-4.25,3.16-4.79s4.92.28,5.6,2.86c1.79,6.69,6.79,9.49,12.74,11.38,2.38.76,4.7,1.67,7.08,2.4,4.52,1.38,6.72-.44,6.26-5.15-.24-2.53-1.39-4.76-2.45-7s-1.25-4.73,1.76-5.72,4.64.69,5.06,3.7C502.65,844.08,503.39,849,503.84,852.13Z"/><path d="M212,477.13c.29-4.91.78-10.88.95-16.86.16-5.58-1-6.43-6.43-5.42a23.68,23.68,0,0,1-10.84-.76c-1.5-.43-2.85-1.06-2.81-3s1.35-2.95,3.18-3.15c5-.54,9.91-1,14.87-1.5a51.33,51.33,0,0,0,13.52-3.25c2.27-.88,4.6-1.08,6.34,1.18a6.08,6.08,0,0,1,.63,6.6c-1.14,2.41-3.34,2.25-5.62,1.66-3.05-.78-5,.55-5.12,3.66-.2,8.09-4,16.41,1.66,24.17,1.44,2-.23,3.83-1.6,5.27-1.69,1.78-3.76,2.8-6.29,1.87-2.07-.75-2.47-2.48-2.44-4.44C212,481.52,212,479.85,212,477.13Z"/><path d="M151.84,53.33c1.68-10.67-1.61-21-.15-31.51.65-4.63-1.6-5.94-6.2-4.41a31.91,31.91,0,0,1-8.75,1.74c-2.3.09-4-.69-4.48-3s1-3.36,2.78-4.19C139.77,9.73,144.9,9,150,8.22c4.6-.72,9.21-1.39,13.54-3.16,2.71-1.1,4.61-.66,5.37,2.28s.11,5.17-3.31,6.05c-8.21,2.12-8.1,2.18-7.79,10.63.16,4.31,0,8.64-.15,13-.15,4.9.37,9.62,3.2,13.83,1.51,2.25.48,4.16-1.07,5.83s-3.62,2.5-5.87,1.59S151.9,55.05,151.84,53.33Z"/><path d="M123.9,2188.61c8.87.89,17.31,1.3,25-3.68a3,3,0,0,1,4.41.77c1.6,2.13,2.35,4.45.89,7a28.56,28.56,0,0,0-4.39,14.62c0,7.49,2.52,14.35,5,21.24a25.15,25.15,0,0,1,1.28,3.75,5.14,5.14,0,0,1-4.23,6.35c-3.31.72-4.7-1.77-5-4.76-1-9.6-2-19.2-2.83-28.81-.71-8.13-2.56-9.82-10.55-9.49-3.14.14-6.31-.13-9.47-.27-2.49-.12-5.56.07-5.43-3.52S121.83,2188.78,123.9,2188.61Z"/><path d="M1054.93,614.21c-3.15-.24-6.4,0-8.89-2.5-1.12-1.15-1.86-2.42-1.11-4s2.17-1.13,3.44-.71c7.68,2.54,14.33-.53,21-3.79,1.56-.76,3-1.63,2.73-3.68s-1.94-2.7-3.53-3.06c-4.25-.94-8.39-2.08-12-4.64a22.7,22.7,0,0,1-5.54-5.69c-4.26-6.23-3.31-9.9,3.51-12.9a15.12,15.12,0,0,0,3.79-2.32c1.34-1.14,2.79-2.07,4.28-.29a3.63,3.63,0,0,1,.24,5,9.32,9.32,0,0,1-.66.75c-5.45,5.87-5.39,6.36,1.36,10.87a32.88,32.88,0,0,0,11.32,5c2.62.57,5.35,1.07,5.83,4.47s.13,6.84-2.81,9.07C1071.1,610.91,1063.6,614.22,1054.93,614.21Z"/><path d="M621.89,1996.26c-1.87.16-5-.82-8.23-1.78-2.41-.73-4-2.08-2.85-4.74s3-1.6,4.89-.62c6.7,3.5,15.07,1.9,20.56-3.65,2.36-2.39,1.14-3.86-1-5-4.49-2.5-9.18-4.65-13.61-7.26-5.77-3.42-8.06-8.64-6.85-14.74a11.54,11.54,0,0,1,6-8.16c1.58-.87,3.28-.89,4.5.69,1,1.34.73,2.73-.09,4.17-4.45,7.77-4.26,9.1,3.31,14.17,5.1,3.41,10.54,6.3,15.81,9.47,2.47,1.49,4.71,3.16,4.51,6.57s-2.62,4.79-5.24,6A50.21,50.21,0,0,1,621.89,1996.26Z"/><path d="M534.76,1082c.15,6.7-.35,13.33-4.26,19.11-5.9,8.71-13.52,8.87-19.58.39-5.54-7.74-7.77-16.81-10.05-25.82-.83-3.26,1-5.61,4.21-6.22,3.74-.7,3.75,2.28,4.05,4.79a60.45,60.45,0,0,0,5.63,19c1.2,2.55,2.89,4.62,5.92,4.63,3.28,0,4.89-2.26,6.19-5,2.2-4.62,2-9.32.83-14.11a17.66,17.66,0,0,1-.76-4.38c.07-2.47,1.82-3.31,4.07-3.43s3.6.83,3.72,3C534.87,1076.67,534.76,1079.33,534.76,1082Z"/><path d="M681.22,591.25c0-3.16.06-6.32,0-9.48-.08-4-2.41-5.66-6.2-5.29a65.72,65.72,0,0,0-11.82,1.74c-2.68.77-5,.49-5.64-3-.58-3.28.77-5.2,4-5.62,4.46-.58,8.93-1,13.4-1.45a29.26,29.26,0,0,0,12.32-3.73c2.69-1.62,5.44-2.58,6.82,1.39,1.06,3,3.74,6.71-1.91,8.41-3.36,1-4.71,3.41-4.39,6.89a30.18,30.18,0,0,1-.53,8.94,10.05,10.05,0,0,0,3,10c1.48,1.34,2,2.65.78,4.3-1.51,2-3.14,4.07-6.05,3.71-2.15-.27-3-2-3.18-3.93-.34-4.31-.54-8.63-.8-13Z"/><path d="M429,1909.29a15.76,15.76,0,0,1-9.42-2.86c-2.55-1.74-2.87-4.64-1.28-6.58,1.91-2.34,3.33.29,4.59,1.72,1.6,1.82,3.79,2,6,2a23.91,23.91,0,0,0,8.7-2c8.32-3.57,8.81-6.76,1.87-12.17-4.07-3.17-8.39-6.09-11.63-10.17-5.21-6.53-3.2-14.37,4.39-17.72,1.4-.62,2.9-1.23,4.17.07a3.2,3.2,0,0,1,.22,3.76c-5.34,11-.27,16.48,10.08,21.34,3.78,1.77,7.25,3.42,7.25,8.39s-3,7.86-7.1,9.91C442.24,1907.16,433.9,1909.27,429,1909.29Z"/><path d="M262,352.53c1.08-14.77,1.07-14.82,14.1-16.74a75.91,75.91,0,0,1,9.43-.57c2.21,0,3.41,1.3,3.32,3.48s-1.86,2.47-3.61,2.41A42,42,0,0,0,272,342.9c-2.64.78-4.77,2.09-4.15,5.2.71,3.54,3.61,2.31,5.67,1.92,4.4-.84,8.74-2,13.09-3.11,1.63-.4,3.52-1.18,4.05,1.19.49,2.21-1.5,2.62-3.1,3.11-4.76,1.47-9.52,2.91-14.27,4.4-2.48.77-4.67,1.8-4.62,5,0,3,.37,5.78,3.41,7.17,2.86,1.31,5.08,0,7.07-2.09,1.57-1.64,3.3-4.06,5.82-2,2.73,2.23.66,4.44-.79,6.47-2.77,3.88-6.19,6.64-11.28,5.84-4.79-.75-6.56-4.55-8.19-8.51C262.48,362.15,262.3,356.53,262,352.53Z"/><path d="M811.4,386c-10,.11-16.44-5.09-18.06-14.94-1.22-7.44.84-14.16,5.34-20.13,2.27-3,5.36-4.84,9.11-3.62,4,1.28,5.75,4.84,6.77,8.64a3.55,3.55,0,0,1-1.47,4c-1.47.93-2.79.07-4.08-.82-5.09-3.5-6.71-2.93-8.6,2.91-1.75,5.42.85,13.35,5.08,15.5,4.68,2.37,14.22-1,17.59-6.23a19.41,19.41,0,0,0,1.35-2.65c.85-2,2.27-2.26,4.07-1.44s1.91,2.09,1.5,3.74C828,378.74,819.26,385.87,811.4,386Z"/><path d="M639.24,2330.27c.27,3.77.33,6.95.77,10.08,1.11,7.88,4.2,10,12,8.43,6.38-1.29,12.45-3.61,18.62-5.58,2-.65,4.61-2.69,6.14.36s-1.31,4.33-3.42,5.61A82,82,0,0,1,649,2359.26c-6,1.37-9.51-.3-12.18-5.81-2.51-5.15-3.46-10.73-4-16.39-.47-4.78.46-9.64-.9-14.4-.63-2.18.16-4.06,2.78-4.28s4.33.89,4.5,3.54C639.39,2324.9,639.24,2327.9,639.24,2330.27Z"/><path d="M957.55,2242c-6,11.47-21.73,13.19-29.3,2.93a26,26,0,0,1-4.46-22.73,17.34,17.34,0,0,1,24.35-11,6.35,6.35,0,0,1,3.85,6.4c-.1,4-1.45,4.84-4.93,2.82-4.49-2.6-8.9-5-13.58-.5-4.14,4-4.78,9.49-1.9,15.65,4.18,8.93,9.83,11.14,19,7.44C954,2241.61,954.07,2241.59,957.55,2242Z"/><path d="M332,361c-4.27-.26-9.07-.94-13.27-4.28-3.28-2.61-4.75-1.66-5.35,2.66-.37,2.63,1.37,7-3.53,6.61-4.55-.39-3.08-4.55-3.37-7.54-.38-4-1.19-7.89-1.56-11.85-.22-2.42-.59-5.16,2.43-6.43s4.56.63,6.32,2.58c4.27,4.74,9.08,8.8,15.3,10.81,3.48,1.12,7.07,1.73,9.42-1.87,2.18-3.33.11-6-2.19-8.35-1.71-1.76-3.36-3.64-.87-5.9s4.29-.4,5.91,1.34c4.06,4.34,5.23,9.6,4.21,15.28C344.5,359.05,340.54,361.09,332,361Z"/><path d="M213,1650.46c-.06,1.07-.13,1.9-.15,2.74-.28,10.17,7.38,15.29,16.94,11.36a8.8,8.8,0,0,0,4.77-4.85c.91-2,1.34-5.22,4.61-3.43,2.78,1.53,4.28,4.27,3.11,7.64a11.52,11.52,0,0,1-4.75,5.68c-8,5.26-16.78,4.73-25.52,2.79-3.38-.75-4.65-4-5.2-7.32-1.39-8.35-1.24-16.92-3.92-25.11-1-2.94.72-5.19,3.65-6.16,3.23-1.06,3.88,1.52,4.88,3.63C213.42,1641.69,212.92,1646.22,213,1650.46Z"/><path d="M477.51,1865.26c7.52.18,13.72-1.09,20-1.9,2.57-.33,5.5-1.07,7.37,1.55s-.15,4.78-1.39,6.82c-5.12,8.38-3.34,17.32-2.34,26.22.15,1.31.46,2.61.62,3.93.33,2.73-.74,4.61-3.57,5a4.4,4.4,0,0,1-5.29-3.46,32.84,32.84,0,0,1-.61-13.84,88.12,88.12,0,0,0,.7-11.91c.11-3.68-1.77-5.42-5.32-5.88a45.25,45.25,0,0,0-13.89.17c-2.48.45-5.47.6-5.61-3s2.56-4.19,5.53-4C475.35,1865.13,477,1865.23,477.51,1865.26Z"/><path d="M636.75,489.27c.17,3.75-.63,5.94-2.93,6.58-7.12,2-14.13,5.06-21.82,3.16-1.93-.48-4.2-.74-4.09-3.45.14-3.09,2.64-2.37,4.51-2.42,2.82-.07,5.65,0,8.41-.78,1.52-.44,2.92-1.08,3-2.88.05-2.05-1.62-2.09-3.12-2.42-7.65-1.72-11.08-6.55-11.68-16.23-.43-7.12,2.56-11.07,10.34-13.8,2-.69,4-1.44,5.14,1.05,1,2.21,1.1,4.52-1.27,6.24a63.67,63.67,0,0,0-5.89,4.55c-2.4,2.23-2.39,4.54.26,6.74,4.63,3.85,8.24,9.09,15.45,8.93C636.23,484.46,636.64,487.89,636.75,489.27Z"/><path d="M386.84,496.28c-6.86-.14-11.18-5.55-16.11-9.86-1-.86-.75-2.1.07-3.16a2.66,2.66,0,0,1,3.54-.88,28.18,28.18,0,0,1,3.93,3c1,.82,2,1.26,3.07.16s.66-2.11-.35-3c-.25-.22-.54-.4-.78-.63-4.36-4.12-7.26-9-5.28-15.08,2.06-6.35,7-9.91,13.48-11.3a7.31,7.31,0,0,1,5.33.52c2,1.16,2.38,3.07,2.19,5.16-.21,2.34-2.06,2.24-3.71,2.39s-3.32.14-5,.38c-2.91.44-4.66,2.32-5.75,4.95s.7,4.34,2.3,6a38.17,38.17,0,0,0,7.94,6.79c4.24,2.52,5.21,6.4,4,10.77S390.59,495.77,386.84,496.28Z"/><path d="M82.89,28.43a24.9,24.9,0,0,0,.92,9.66c1.21,3.65,3.44,6,7.56,6s7.67-1.35,9.18-5.46,2-8.42-.3-12.55c-.81-1.47-1.66-3-1-4.7s1.56-3.46,3.71-3.56,2.53,1.68,2.93,3.34c1.48,6.14,3.09,12.27,1.06,18.62A17.64,17.64,0,0,1,82.58,50.16a10.25,10.25,0,0,1-5.65-7.74,117.58,117.58,0,0,1-2.05-19.8c0-2.82.05-6.19,4-6.19,3.6,0,3.76,3.16,4,5.83C83,24.07,82.89,25.91,82.89,28.43Z"/><path d="M38.79,857.42c.18,4.81-1.54,6.32-6.71,5.19a54.64,54.64,0,0,1-19.73-8.08c-1.19-.81-2.4-2.13-4-1.14-1.79,1.09-1.22,2.81-1,4.48.6,3.77,1.18,7.56,1.57,11.35.19,1.82.12,3.85-2.53,4a2.94,2.94,0,0,1-3.24-3.08,205,205,0,0,0-3.1-27.73c-.4-2.17,1-3.81,3.07-4.62s2.88,1,3.72,2.34c4.84,8,12.77,12,20.81,15.64,3.53,1.62,6-.09,5.88-4.1-.11-4.3-1-8.58-1.47-12.87-.24-2.13-.86-5,2.15-5.16,2.62-.13,2.3,2.76,2.52,4.66C37.46,844.59,38.1,850.88,38.79,857.42Z"/><path d="M437.61,608.35c-4.07.27-7.47-1.56-10.92-3.2a2.92,2.92,0,0,1-1.75-3.69,2.83,2.83,0,0,1,3.34-2.3,38.1,38.1,0,0,1,5.84,1.11c1.93.57,3.85,1.33,5.85.85,1.85-.45,4.28-.45,4.71-2.93s-1.84-2.83-3.42-3.62c-5.45-2.74-8.48-7.49-10.07-13.05-2.05-7.2,5.44-15.06,12.37-13.27,2.15.56,4.34,1.47,4.15,4.19s-2.37,2.68-4.44,2.89c-5.06.5-6.55,4.34-3.32,8.8,2.49,3.44,6.09,5.66,9.8,7.55,3.33,1.71,6,3.63,5.48,7.92s-3.49,6.3-7.28,7.15C444.55,607.51,441.06,607.83,437.61,608.35Z"/><path d="M425.93,50.3c2.83,0,5.65,0,8.47,0,3,0,4.63,1.18,4.62,4.45s-1.63,5.48-4.73,5c-7.63-1.07-15.3-.32-22.91-1.08-5.78-.57-7.5-2.68-7.7-8.4-.34-9.28,2-18.53.11-27.85-.5-2.39.87-4.15,3.63-4.32s4.07,1.67,4.12,4c.11,5.65.57,11.31-.42,16.94C409.3,49.42,411.25,51.54,422,51c1.32-.07,2.65-.19,4-.29Z"/><path d="M277.66,585.57c-.06-10.3,7.43-17.23,18.84-17.43,6.73-.12,14.29,8.91,14.32,17.1,0,7.83-9.2,15-19.22,15C283.19,600.29,277.71,594.5,277.66,585.57ZM292.32,594c7.33.08,12.75-3.13,12.88-7.61.15-5.65-4.52-11.33-9.23-11.21-4.92.12-12.42,6.13-12.4,9.93C283.61,590.36,287.17,594,292.32,594Z"/><path d="M800.75,458.82c3-.1,4.85.62,5.17,3.37.27,2.41-.35,4.55-3,4.92-6.09.85-7.2,4.77-7,10a31.44,31.44,0,0,1-1.17,7.83c-.8,3.56-.44,6.68,2.81,8.81,2.12,1.39,2.92,3.2,2.2,5.52s-2.49,3-4.69,2.95c-2.71,0-5-.84-5.89-3.62-1.16-3.54-.91-7.23-.75-10.88.17-3.82.54-7.63.53-11.44,0-5.06-2.16-6.48-7-4.92-.79.26-1.55.61-2.31.94-2.42,1.07-4.85,2.06-6-1.55-1-3.24.51-5.1,3.56-5.92,5.45-1.45,10.92-2.84,16.38-4.25C796.14,460,798.71,459.33,800.75,458.82Z"/><path d="M621,381.11c-7.23.09-14.24-5.31-17.17-12.62s-1.44-14.95,4-19.65a21.4,21.4,0,0,1,14.58-5.53c4.82.05,7.57,2.93,9.22,7.11a3.21,3.21,0,0,1-1.11,4c-1.44,1.1-3.13,1-4-.3-3.47-4.86-7.49-6.25-12.75-2.84-4.25,2.75-5.93,6.54-5.06,11.5a14.24,14.24,0,0,0,11.24,11.33,19.8,19.8,0,0,0,16.44-3.88c1.15-.88,2.16-3.27,4-1.25,1.65,1.8.8,3.87-.67,5.35-2.65,2.67-6.14,3.85-9.65,4.95A39.46,39.46,0,0,1,621,381.11Z"/><path d="M855.36,365.07c-.13-1.13-.31-2.12-.33-3.11-.3-11.52-.32-11.5-11.92-10.67-3,.22-7.52,2.28-7.91-2.94s4.41-4.6,7.7-4.88c4.46-.38,9-.31,13.46-.33,3.18,0,6.24-.06,9.14-1.8,2.39-1.43,4.51-.75,5.59,2s-.42,4-2.87,4.6c-3.77.94-5.37,3.64-5.78,7.25-.59,5.29-1.48,10.61,1.39,15.6a2.65,2.65,0,0,1,.44,1.42c-.34,3.21,1.59,7.89-3.53,8.47-4.92.57-5.08-3.81-5.34-7.3C855.19,370.6,855.36,367.76,855.36,365.07Z"/><path d="M834.68,881.28c-7,.57-12-.44-16.23-3.84-1.4-1.12-3.38-2.23-2-4.4s3.51-1.44,5.21-.23c5.35,3.8,10.87,3.57,16.51.86,1.6-.76,3.7-1.32,3.79-3.52.07-1.92-1.74-2.71-3.14-3.54-5.61-3.34-9.55-8.21-12.68-13.8-1.87-3.34-2.23-6.61,1.2-9.37,4.48-3.59,9.72-4.46,12.85-2.05,2.37,1.83,1.76,3.11-.63,4.38-7.06,3.74-7.42,5.82-1.85,11.56,2.55,2.61,5.47,4.87,8.1,7.4,5.32,5.11,4.15,11.61-2.58,14.79A21.43,21.43,0,0,1,834.68,881.28Z"/><path d="M450.94,347.45c-.74,5.35-1.51,10.94-2.3,16.53a23.56,23.56,0,0,0,1.56,13.19,8.51,8.51,0,0,1-.06,7.23c-.87,2-1.88,3.58-4.43,3a4.12,4.12,0,0,1-3.53-4.68c.3-5,.39-10,1.18-14.89.59-3.71-.59-6-3.55-8q-8.1-5.38-16-11.08c-2.19-1.57-4.66-3.66-2.28-6.53s4.8-.62,6.93,1c3.35,2.45,6.48,5.26,10,7.37,4.1,2.44,6.27.94,6.11-3.82-.06-1.82-.5-3.62-.59-5.44s.52-3.36,2.64-3.54c1.77-.15,2.76.88,3.2,2.52a18.57,18.57,0,0,1,.63,2.41C450.7,344.21,450.78,345.7,450.94,347.45Z"/><path d="M476.72,1646.21c-.08-3.27,1-5.69,4.59-6,3.89-.32,4.67,2.33,4.79,5.47.17,4.31.29,8.63.59,12.93.34,4.74,1,9.75,5.93,11.81,5.29,2.22,10.42.6,14.93-2.79,3.61-2.71,5.74-2.43,6.32.86a4.09,4.09,0,0,1-2,4.28c-5.81,4.06-12.15,7-19.32,7.21-5.46.2-9.36-3.08-11.53-9.3C478.31,1662.77,478.3,1654.35,476.72,1646.21Z"/><path d="M372.75,389.05c0,2.83.19,5.67,0,8.48-.49,5.75-3.37,8.18-8.78,7.72-5.66-.47-11.54-5.79-11.25-10.18.06-1,.08-2.05,1.11-2.6,1.35-.72,2.18.25,3,1,.48.46.88,1,1.32,1.5,1.82,2,3.6,4.11,6.77,2.43,2.92-1.56,2.63-4,2.47-6.87-.65-11.62-.86-23.28-3.49-34.69-.93-4-2-8.05-3.25-12-.84-2.74-1.72-5.58,2.16-6.26,3.31-.57,5.4,1.49,5.79,4.75.45,3.8.49,7.64.84,11.45C370.51,365.56,372.92,377.18,372.75,389.05Z"/><path d="M383.66,357a15.92,15.92,0,0,1,2.53-9.62c1.48-2.23,3.6-3,6.05-1.73s1.93,3.53,1.06,5.6-2.26,4.12-2.82,6.32c-1.12,4.4,1.16,7.4,4.91,9.24,3.59,1.77,6.45.4,8.57-2.73a31,31,0,0,0,2.55-4.28c2.33-5.13,1-8.06-4.5-9.82-2.48-.8-5.25-1.44-3.88-4.89,1.27-3.2,4-2.24,6.41-1.43,7.12,2.42,10.34,12.31,6.84,20.76-3.13,7.54-9.78,12.1-16,11C388.18,374.09,383.62,367.09,383.66,357Z"/><path d="M223.23,874.18c-.25,7-.34,13.9-3.78,20.39-3.3,6.23-8.65,7.81-14.16,3.32-6.12-5-7.2-12.45-8.94-19.52a1.82,1.82,0,0,1,1.93-2.32,2.22,2.22,0,0,1,2.41,2,28.94,28.94,0,0,0,2.71,9c1.45,2.65,3.11,5.42,6.62,5.3s4.81-3.06,5.94-5.91a30.08,30.08,0,0,0,1.79-13.22c-.65-9.95-1.41-19.89-2-29.84-.13-2-.86-4.93,2.4-5s2.57,2.85,2.73,4.91Q222.09,858.77,223.23,874.18Z"/><path d="M820.34,2227.94c0-3,0-6,0-9,0-2.69,1.2-4.16,4-3.72,2.53.4,4,2.05,3.3,4.6-2,7.14-.4,14.21.06,21.31.3,4.66,2.88,6.82,7.38,7,8.23.42,15.24-2.68,21.65-7.52,1.56-1.18,3.17-3.08,5-.76s-.29,3.54-1.83,4.74a69,69,0,0,1-19.44,11c-7.66,2.67-13.25.16-16.81-7.16a30.71,30.71,0,0,1-2.54-10.1c-.41-3.46-.46-7-.67-10.44Z"/><path d="M534.63,1973.09c-.09,5.37,1.08,10.59,2,15.8.85,4.57,4,6.27,9.11,5.17a48.15,48.15,0,0,0,13.81-5.6c1.85-1.08,3.86-2.71,5.2.61,1.07,2.65,1.6,5.47-1.72,6.77-6.18,2.42-12.42,4.77-18.77,6.66-5.82,1.73-12.88-3.69-14.38-10.85a86.06,86.06,0,0,1-2.14-21.78c.14-2.84.58-5,4.07-4.86s3.15,2.74,3,5.1C534.84,1971.1,534.72,1972.1,534.63,1973.09Z"/><path d="M342.67,855.52c.22-3.64.58-6.8.56-9.95,0-3.8-1.78-6-6-5.27-3.57.6-7.29.12-10.71,1.92-1.88,1-3.68.25-4.39-1.88-.79-2.35.84-3.55,2.7-4,8.27-1.83,16.58-3.5,24.88-5.19,1.74-.36,3.31-.09,4.35,1.6a4.64,4.64,0,0,1,.07,5.17,31.9,31.9,0,0,0-3.15,5.63c-2.25,6.4-3.54,12.85.36,19.22a3.65,3.65,0,0,1-.83,5A5.48,5.48,0,0,1,345,869c-2-.58-2.27-2.24-2.28-4C342.66,861.69,342.67,858.37,342.67,855.52Z"/><path d="M648.82,357.37c0-9.84,4-12.71,13.14-9.18a27.88,27.88,0,0,1,6.49,3.61c4.16,3.09,7.54,6.85,6,12.58A15.18,15.18,0,0,1,663,375.68c-4.06,1.06-7.13-1-9.55-3.94A21.12,21.12,0,0,1,648.82,357.37Zm7,1.59c0,6.18,1.71,8.42,5.83,8.35,3.79-.07,6-1.84,6-5.78,0-4.26-3.54-8.38-7.21-8.14C656.42,353.65,655.92,356.68,655.83,359Z"/><path d="M581.21,1994.89c-4.44-.05-6.73-2.72-8.26-6.32-3.37-7.93-2.72-16.67-4.77-24.88-.41-1.63.78-3.23,2.73-3.59,2.3-.43,3.49.92,3.81,2.94.74,4.76,1.33,9.54,1.95,14.32.9,7,4.3,9.38,11.32,8.07,4.47-.83,8.5-2.76,12.64-4.46,2.32-1,5-2.27,6.44.93s-1.63,3.78-3.6,4.68c-5,2.28-10,4.57-15,6.59A47.77,47.77,0,0,1,581.21,1994.89Z"/><path d="M1016.94,1889.4c0-3-.09-6,0-9,.09-2.4,1.08-4.25,3.84-4.27,3.25,0,3,2.3,3,4.54.08,5.49-.5,11,.39,16.45,1.33,8.28,8.26,11.94,15.8,8.29a22.5,22.5,0,0,0,7.6-6.35c.94-1.16,2.23-1.65,3.51-.77a2.59,2.59,0,0,1,.54,4c-5.2,5.22-9.55,11.81-18.13,12-7.26.14-12.71-3.91-14.71-11C1017.57,1898.72,1017.83,1894,1016.94,1889.4Z"/><path d="M695.68,355.37c0,3.31,0,6.61,1,9.85,2,6.5,5.82,8,11.69,4.37,1.27-.78,2.47-1.67,3.69-2.54,1.55-1.1,3.07-1.27,4.45.23a3.88,3.88,0,0,1,.61,5c-2.87,5.21-10.52,9-16.53,8.08s-8.69-4-9.94-11.83c-1-6.22-1.92-12.45-2.67-18.7-.29-2.41-.65-5.28,2.95-5.79s4.53,2,4.76,4.88C695.82,351,695.68,353.21,695.68,355.37Z"/><path d="M582.5,495.61c-6.22,0-9.6-2.29-11.29-8.08-2-6.92-2.35-14.07-2.3-21.24,0-2.11.7-4.07,3.34-4.11s3.46,1.69,3.64,3.88c.31,4,.59,7.95.76,11.93.31,6.88,3.42,9.92,10.22,10.17,4.12.15,7.81-1.3,11.62-2.48,2.32-.72,5.2-1.86,6.19,1.68s-1.94,4.1-4.39,4.69q-6.76,1.63-13.58,3.07A41.7,41.7,0,0,1,582.5,495.61Z"/><path d="M291.45,873.13c-5.74.09-8.84-2.31-10.7-6.47-.82-1.83-.8-3.63,1.17-4.78,2.23-1.29,3.2.22,4.26,1.92,3.14,5,4.58,5.22,9.45,1.72,7.79-5.6,7.95-7.83,1.23-14.76-3.94-4.07-7.29-8.49-5-14.6,1-2.82,2.71-5.93,6.48-4.64,3.62,1.24,2.85,4.19,1.78,7.09a7.77,7.77,0,0,0,2.25,9.08c4.46,3.92,7.37,8.21,4.46,14.36C303.52,869,298.23,872.89,291.45,873.13Z"/><path d="M561.19,492.18c-5.68-.32-10.41,2.08-15.41,3.16-6.17,1.34-8.9-.22-9.65-6.43-1-8.05-.32-16.25-2.22-24.24-.43-1.83.6-3.19,2.5-3.71s3.06.51,3.83,2.21c2,4.33,2.38,8.94,2.58,13.6.09,2.31.16,4.64.48,6.94.44,3.19,2,4.52,5.52,3.63a96.36,96.36,0,0,1,11.29-1.72c3-.38,6.23-.3,6.5,3.45C566.91,493.39,563.24,492,561.19,492.18Z"/><path d="M735.79,378.28c-5.1-.1-8.53-2.83-10.34-7.32-3.36-8.36-2.66-17.36-3.56-26.09-.19-1.86,1.2-2.59,2.85-2.81,2.28-.29,3.51.94,3.78,3,.51,4,.83,7.95,1.26,11.92a42.61,42.61,0,0,0,.65,4.93C732,368.66,735,370,741.3,367c2.57-1.21,5.52-4.91,8-.55,2.33,4-1.38,5.88-4.06,7.81C742.43,376.35,739.56,378.39,735.79,378.28Z"/><path d="M270.31,847.22c-.35,4.15-.75,8.28-3,11.94-4.7,7.51-14,8-19,.72-3.67-5.34-4.59-11.69-5.53-17.94a2.78,2.78,0,0,1,2.12-3.45c2.05-.52,3.29.68,3.73,2.41a54.47,54.47,0,0,1,1.38,7.82c.44,4.12,2,7.35,6.09,8.91,2.23.85,4.39.8,5.86-1.21,2.46-3.36,3.64-7.07,2.1-11.25a10,10,0,0,0-3.08-4.45c-2.39-1.94-3.61-4.46-1.06-6.76,3-2.7,4.66.3,6.29,2.34C268.66,839.49,270.59,842.94,270.31,847.22Z"/><path d="M692.66,857.59c0,8.77-4.34,13.54-12.32,13.53-8.9,0-16.42-7.25-16.51-15.91-.09-7.84,6.44-12.68,17-12.58C688.86,842.7,692.65,847.48,692.66,857.59Zm-23.31-2.84c0,6.22,5.37,12.13,11,12.19,4.9,0,8.79-4.57,8.65-10.26a10.59,10.59,0,0,0-10.69-10.35C672.58,846.31,669.31,849.39,669.35,854.75Z"/><path d="M88.3,853.06c-.09,7.42-6.45,12.75-15,12.55-8.08-.18-14.21-7-14-15.64.22-8.34,6.46-13.05,17.25-13C83.74,837,88.43,843.44,88.3,853.06ZM73.12,841.3c-5.66,0-9.22,3.13-9.29,8.14-.09,6,5.15,12.21,10.18,12.13A10.17,10.17,0,0,0,84,851.81C84,845.73,79.36,841.28,73.12,841.3Z"/><path d="M129.64,836.29c-6,1.14-10.53,2.06-15.12,2.84-1.41.24-3.21.62-3.75-1.38-.57-2.16,1-3,2.71-3.43,8.54-2.11,17.4-2.8,25.68-6a2.92,2.92,0,0,1,3.56,1.12,2.65,2.65,0,0,1,.11,3.29c-8,8.56-4.5,18-2.2,27.33a14.76,14.76,0,0,1,.31,1.47c.3,2.09.31,4.34-2.22,4.82-2.81.53-4.4-1.37-4.72-3.94s-.06-5-.19-7.48c-.27-4.81-.54-9.63-1-14.42C132.56,837.87,131.25,836.09,129.64,836.29Z"/><path d="M366.73,45.37a53.76,53.76,0,0,0-1.82-18.71c-1.35-4.59,0-7.25,3.6-7.61,4.44-.44,4.69,2.76,4.79,5.86.18,4.95.44,9.92.24,14.87-.17,4,.07,7.58,3.48,10.3,2.1,1.68,2,3.75.4,5.67-2.17,2.64-4.71,4.88-8.47,4.1-2.63-.55-3.07-2.78-2.94-5.07C366.19,51.64,366.49,48.51,366.73,45.37Z"/><path d="M496,1391.23c.32-2.62,1.52-4.28,4-4.76s3.15,1.32,3.81,3.08a70.52,70.52,0,0,1,4,14.33c.73,4.83,1.69,9.53,6,12.6,1.42,1,1.27,2.06.6,3.41-1.2,2.41-2.34,4.81-5.41,5.29a3,3,0,0,1-3.55-2.08C502.19,1412.5,499.11,1401.86,496,1391.23Z"/><path d="M748.77,1905.59a5,5,0,0,1-5-4.68c-.94-6.09-2-12.15-2.81-18.26-.5-4-1-7.89-3.06-11.46-1.39-2.44-1.06-4.58,1.84-5.6,2.72-.95,4.19.71,4.73,3,1.22,5.35,2.69,10.71,3.15,16.14.42,4.84,1.38,9.12,4.67,12.8a4.75,4.75,0,0,1,.7,6C752,1905.25,750.51,1905.6,748.77,1905.59Z"/><path d="M696.57,2351.35c-.54,2.6-.36,5.43-3.56,5.62s-4.51-1.83-4.63-4.71c-.44-10.31-.88-20.61-4.49-30.46a3.13,3.13,0,0,1,1.59-4.25,3.18,3.18,0,0,1,4.58,1.66,28.49,28.49,0,0,1,2.68,6.4C694.62,2334.22,693.4,2343.28,696.57,2351.35Z"/><path d="M702.32,468.11c-.35,3.33-.81,7.79-1.29,12.25-.37,3.47-.77,6.87,1.25,10.14,1.42,2.29.63,4.51-1.47,6.15-1.64,1.27-3.52,2.24-5.5,1.06-2.62-1.55-1.54-3.94-1.11-6.23,1.4-7.41.29-14.9.62-22.34,0-1.33,0-2.66,0-4,0-2.67.29-5.28,3.66-5.39s3.75,2.6,3.84,5.22C702.34,465.64,702.32,466.31,702.32,468.11Z"/><path d="M324.79,2357.54c.43,3.34-.75,4.6-2.74,5.12s-3.53-.56-4.34-2.39c-1.19-2.68-.85-5.57-.85-8.37,0-9,.5-17.94-1.95-26.73-.46-1.66-.47-3.45,1.78-3.94,2.05-.45,3.24.87,3.71,2.54a80.33,80.33,0,0,1,1.71,8.27C323.57,2340.86,321.36,2350.07,324.79,2357.54Z"/><path d="M535.32,1894.3c.62-8.53,1.21-16.46-1.7-24.21-.93-2.48-.12-4.65,2.89-5.25s4.18,1.25,4.45,3.91q1.26,12.39,2.48,24.79c.3,3,.83,6.49-3.7,6.56C535.5,1900.17,535.38,1896.85,535.32,1894.3Z"/><path d="M588.07,1681c-1.82,9.55-5.19,19.09-14.2,25.58-2.25,1.62-4.87,3.12-6.83-.1-1.8-3,.94-4.11,3-5.18,5.27-2.8,7.73-7.54,9.26-13,.85-3,1.71-6.07,2.56-9.11.55-2,1.14-4.14,3.75-3.78S587.88,1678.2,588.07,1681Z"/><path d="M522.08,62.18c-.49,7.5-1,14.31-3.16,20.85-.69,2.13-1.08,5.13-4.37,4.15-3.07-.92-1.72-3.5-1.18-5.47,2.23-8.15,3.14-16.31.87-24.62-.54-2-.65-4.17,2-4.86s4.73.55,5.3,3.18A42.33,42.33,0,0,1,522.08,62.18Z"/><path d="M999.94,2214.58c-3.16-.06-4.87-1-5.2-3.66-.3-2.48.57-4.55,3.07-4.91q10.8-1.58,21.69-2.57c2-.18,3.3,1.39,3.61,3.45a2.48,2.48,0,0,1-2,3C1013.82,2211.53,1006.53,2213.11,999.94,2214.58Z"/><path d="M885.52,367.11c-.24-4.64-.38-9.29-.78-13.92-.24-2.79.54-4.72,3.52-4.8,3.63-.09,2.4,2.69,2.5,4.68.41,8.57-1.21,17.28,1.8,25.69.83,2.32.22,4.5-2.5,5a3.87,3.87,0,0,1-4.89-3.73c-.31-4.29-.08-8.62-.08-12.93Z"/><path d="M402.43,1899.38c-.14,1.91-.68,3.43-2.84,3.51-2.42.09-4.56-1-4.62-3.51a180.61,180.61,0,0,0-2.91-27.25c-.32-1.81.37-3.45,2.41-3.73s3.08,1.13,3.38,2.92C399.42,1880.67,400.91,1890,402.43,1899.38Z"/><path d="M1081.44,1866.7c5.74-.25,11.53,1.38,17.19-1.36,2.16-1,4,1,5.42,2.72a3.43,3.43,0,0,1,.24,4.18c-1.17,2-3.2,2.42-5.22,1.91-6.57-1.66-13.21-1.05-19.84-.89a14.06,14.06,0,0,1-4-.36,3.26,3.26,0,0,1-2.52-3.77c.17-2,1.72-2.29,3.22-2.4C1077.79,1866.61,1079.62,1866.7,1081.44,1866.7Z"/><path d="M198.27,359.44c1.68-8.16.26-16.63-1.47-25.12-.39-1.91-1.47-4.75,1.83-5.19s2.77,2.53,3.21,4.51a84.65,84.65,0,0,1,1.56,15.81c.1,3.09,0,6,2.84,8.55s-.35,4.74-1.56,6.9c-.88,1.57-2.14,2.61-4.08,1.64C197.71,365.1,198.47,362.36,198.27,359.44Z"/></svg>