<svg xmlns="http://www.w3.org/2000/svg" width="978.61" height="2232.55" viewBox="0 0 978.61 2232.55"><title>c15-txt</title><path d="M859.07,1889.87c.38,4.42-.69,8.3-1.44,12.19-.7,3.6-3.23,4.77-6.65,4.56s-5.26-2.5-5.2-5.58c.27-12.66-1.76-25.22-1.49-37.89.11-4.94-1.08-9.9-1.65-14.86-.35-3.11-.54-6.32,3.46-7.15s5.55,1.95,6.76,5.14a20,20,0,0,1,.79,5.4c.22,2.18.35,4.47,3,5.14s4.47-.82,5.76-3c7.75-12.72,20.29-15.27,33.67-15.46,6.89-.09,9.67,3.78,9.13,10.8-.87,11.31-5.29,20.16-16.39,24.69-2.57,1-4.59,2.79-4.45,6,.14,3,2.22,4.24,4.55,5.37,4,2,8,4,12.06,6,3.81,1.85,7.73,3,12,1.91,3.4-.83,6.66-.64,7.07,3.8.38,4-2.07,6.28-5.92,6.54a49.42,49.42,0,0,1-19.66-2.72c-10.57-3.67-20-9-26.31-18.72-1.16-1.77-2.57-3.13-5-2.42-2.77.83-3.95,2.93-4.19,5.61C859,1886.92,859.07,1888.6,859.07,1889.87Zm17.24-25.59c8.83-.08,14.22-3.64,16.36-10.23,1.23-3.81-.17-6.09-3.82-6.41-6.58-.59-12.59,1.11-17.08,6.32-1.91,2.21-3.25,5-2.1,7.84C870.92,1864.91,874.15,1864,876.31,1864.28Z"/><path d="M855.79,1548.32c.21-10.13-1.33-19.83-6.58-28.77-3.29-5.61-2.26-10,2.36-12.41,3.8-2,6.32-1.1,7.82,2.95.58,1.55.82,3.22,1.27,4.82,2,7.27,4.9,8.18,10.26,2.94a29.57,29.57,0,0,1,16.06-8.47,90,90,0,0,1,13.88-1.34c6.12,0,9.67,3.54,9.73,9.63.09,10.34-3.06,19.24-11.81,25.64-5.79,4.22-5.34,6.77,1.34,9.51,7.24,3,14.46,3.72,21.63-.25,2.24-1.25,4.47-1.46,6.36.59s1,3.94,0,6c-2.9,5.91-7.22,9-14.19,8.91-13-.26-23.73-5.62-33.81-13.12-2.68-2-5.22-5.74-9.06-3.63-3.5,1.93-3.86,6-3.69,9.75.12,2.75-.35,5.28-3.69,5.35s-6.33-.94-7.36-4.67C855.05,1557.3,855.83,1552.8,855.79,1548.32Zm28.15-12.54c6.36,0,11.91-4,13.47-9.25,1.19-4-.86-7.59-4.26-7-4,.72-8.21,1.3-11.93,3.23-3.35,1.73-5.61,4.55-4.66,8.44S881.2,1535.42,883.94,1535.78Z"/><path d="M71.55,1840c-1.33,3.86.27,6,5,7.43,6.9,2.16,9.76,7.36,8.08,14.51-2.72,11.6-8.23,21.86-18.11,29-11.68,8.41-28.73,4.9-37.55-7.27-10.71-14.79-10.46-36.38.58-50.86,6.72-8.82,21.17-13.51,30.9-10C68.85,1825.71,72,1830.35,71.55,1840Zm-1.76,6.12c-4.75-1.82-8.17-4.44-11.77-6.81-7.64-5-15-3.62-20.52,3.7-7.68,10.11-7.63,23.23.15,34.38,1.47,2.12,3.13,3.85,6.06,3.64s4.21-2.39,5.1-4.79C53.12,1864.62,59.56,1854.49,69.79,1846.08Zm-7.54,28.35c.06,1.67.11,3.74,3.06,3.62,3.17-.12,7.88-5.35,8.13-9.13.14-2.13-.63-3.51-3.08-3.5C66.32,1865.44,62.37,1869.59,62.25,1874.43Z"/><path d="M442.72,1218.35c-.21,1.65-.48,3.3-.6,5s-.07,3.14,2,3.39c1.88.22,2.75-1.08,3.13-2.6.47-1.92.61-3.93,1-5.87.73-3.43,2.77-5.75,6.34-6.13s4.78,2.28,6.09,4.91c2.51,5,5.73,9.62,7.71,15,1.92,5.2,6.74,6.68,11.94,6.07,3.61-.41,7.13-1.5,10.72-2.19,3.17-.61,5.68.13,6.38,3.75.74,3.85-2,4.55-4.76,4.86a31.83,31.83,0,0,0-11.27,3.82c-4.41,2.33-5.62,5.43-3.48,9.93a116,116,0,0,0,6.55,11.17c2.84,4.61,2.26,8.64-1.66,10.71-3.55,1.86-8-.27-9.72-5.08-2.05-5.61-3.82-11.34-5.58-17.06-1.3-4.23-3.62-6.07-8.2-4.64a84.2,84.2,0,0,1-10.2,2.34c-8.12,1.46-13.47,5.69-15.7,14-1.75,6.53-6.69,8.72-11.63,5.93-2.45-1.39-3.47-3.44-2-5.8,7.67-12.31,8.5-26.42,10.76-40.14.64-3.93,1.11-7.9,1.48-11.87.34-3.74,1.94-6,6-5.68C441.78,1212.43,443.13,1214.75,442.72,1218.35Zm9.3,26.88c4.36,0,8.29-3.28,7.92-6.46s-1.71-5.81-5.46-5.92c-3.49-.09-7,3.81-7,7.64C447.43,1243.87,449.45,1245.11,452,1245.23Z"/><path d="M165.14,1835.65c.5,7.61-1.63,13.26-6.23,18.18-4.27,4.55-3.55,7.63,2.06,10.43,2.38,1.18,4.82,2.24,7.24,3.34,4.27,2,8.51,2.64,12.91.22,2.84-1.57,5.56-1.3,7.35,1.69s.33,5.39-2.08,7.33c-6.92,5.56-14.45,6.33-22.44,2.66a126.28,126.28,0,0,1-19-10.89,49.26,49.26,0,0,0-5.12-3.08c-3.76-2-6.6-.68-8,3a53.76,53.76,0,0,0-2.21,9.19c-.62,3.28-2,5.89-5.71,5.7s-4.34-2.9-4.5-6c-.62-12.36-4-24.26-6.27-36.33a24,24,0,0,1-.59-4.44c0-4.67,2.45-6.84,6.64-4.93,5.88,2.67,9.55.9,14-3.33,7.05-6.75,16.25-7.17,25.35-5.24C163.61,1824.24,165.13,1828,165.14,1835.65ZM140.81,1850c7.27.06,12.36-3.54,13.33-9.46.49-3-.22-5.32-3.49-6.15-3.88-1-12.62,2.21-14.82,5.55-1.51,2.28-2.51,4.87-1.11,7.5C136,1849.73,138.4,1850,140.81,1850Z"/><path d="M242.44,989.94c-14.35-.77-25.77-6.8-35-17.25a21.06,21.06,0,0,0-4.29-4.1c-3.35-2.09-6.37-.63-6.73,3.27s-1.73,7.43-3,11A4.44,4.44,0,0,1,187.9,986c-2.7-.48-3.43-2.41-3.51-4.72-.22-6.48,0-13-.68-19.44s-2.21-12.76-5.58-18.44c-1.66-2.78-2.17-5.61-.39-8.46a6.9,6.9,0,0,1,5.71-3.54c2.53-.07,3.09,2.13,4,3.9a35.73,35.73,0,0,0,1.85,3.52c2.11,3.27,4.24,2.51,6.28-.11,3.08-4,6.37-7.67,10.69-10.35a21.78,21.78,0,0,1,29.12,6.49c4.92,7.56,1.45,22.45-6.35,27.18-1.13.68-2.37,1.19-3.54,1.83-5,2.74-5.18,5.21-.48,8.28a124.08,124.08,0,0,0,10.74,6.3,11.22,11.22,0,0,0,7.76,1c4.95-1.08,7.39.33,7.73,4.13s-2.31,6.3-7.06,6.4C243.49,990,242.83,989.94,242.44,989.94Zm-25-55.31c-6.46.91-12.15,4-16,9.89-2.3,3.59-.95,7.83,2.83,9,6,1.81,12.07,1.94,17.86-1,4.42-2.28,6.8-7.11,5.49-11.61C226.29,936,222.25,935.08,217.46,934.63Z"/><path d="M244.54,56.29a52.87,52.87,0,0,1,0,5.49c-.4,3.84-2.38,6.14-6.52,6s-5.37-2.66-5.51-6.28c-.25-6.65-.54-13.3-.83-19.94A23.72,23.72,0,0,0,227,28.08c-2.45-3.29-1.88-6.31,1-8.86s5.72-2,8.31.73c3.45,3.65,6.81,2.54,10-.37,7.15-6.43,15.4-9.66,25.12-8.9,7.13.55,11.29,3.3,13.06,8.88,2.36,7.43.75,14.55-4.38,18.74-2.18,1.78-4.69,3.18-6.83,5-2.38,2-2.81,4.44-.27,6.83,4.81,4.53,10.2,8,16.76,9.41a10.14,10.14,0,0,0,6.28-.83c3.79-1.61,6.25.28,5.81,4.23-.77,7-7.26,11.15-13.7,8.46-13.41-5.59-26.24-12.12-36.07-23.3a4.25,4.25,0,0,0-7.57,2.68c-.1,1.83,0,3.66,0,5.49Zm9.92-19.45c2.83-.55,6.76-1.17,10.62-2.1a9.69,9.69,0,0,0,6.45-5.08c1.14-2.17,1.85-4.42.17-6.52a5.16,5.16,0,0,0-6.23-1.65c-3,1-6.12,1.52-9.08,2.57a11.87,11.87,0,0,0-7.22,6.44C247.12,35.15,248.39,37.14,254.46,36.84Z"/><path d="M332.38,2232.47c-2.43-.19-3.59-.27-4.75-.38-18.61-1.81-27.85-11.26-28.51-30.13-.38-10.83,2.11-21.22,8.5-30.25,4.34-6.14,10.23-9.49,18.05-8,4,.75,6.57,3.11,6.93,7.36s-3.09,4.62-5.83,5.58c-14,4.84-20.62,16.58-16.89,30.05.63,2.27,1.25,4.77,4.13,5,2.57.2,2.88-2.26,3.9-3.92,6.31-10.23,14.46-18.29,26.53-21.3,7.81-1.95,13.3.93,16.5,8.32,8.31,19.22-6.52,39-28.33,37.71C332.11,2232.47,331.62,2232.37,332.38,2232.47Zm21.23-26.64c-.25-3.32-2.34-4.81-5.53-5.15-7.88-.85-19,7.86-20.08,15.71-.74,5.44,2.29,8.41,7.68,7.21a23.25,23.25,0,0,0,11.15-6.32C350.11,2214.12,353,2210.74,353.61,2205.83Z"/><path d="M669.27,385.07c-17.19-.85-31.6-5.77-44.39-15.31a27.21,27.21,0,0,0-3.84-2.32c-3.07-1.58-4.79-.14-5.45,2.8a34.17,34.17,0,0,0-.29,5c-.19,2.35-.17,4.94-3.65,4.71-3.28-.22-6.61-1.43-6-5.14,2.18-13.14-2.82-24.9-6.26-37a84.67,84.67,0,0,1-2.15-9.72c-.49-3,.61-5.24,4-5.7s4.41,1.68,4.84,4.38c.74,4.76,1.46,9.52,2.08,14.3.39,2.95.88,5.93,4.62,6,3.51.06,4-3,4.66-5.54,3.27-13.32,10.51-20.18,23.49-22.19,10.15-1.57,15.66,4.2,13.77,14.19s-5.93,18-16.36,21.32c-2.36.77-4.72,2.21-4.82,5.14-.09,2.76,2.24,3.87,4.3,5,7.34,3.91,14.6,8,23.08,9a32.23,32.23,0,0,0,12.32-1.05c3.07-.8,6.46-1.69,7.56,2.94s-.91,8-5.36,9.11A17.83,17.83,0,0,1,669.27,385.07Zm-41.56-35.28c6.33-1.08,11.53-5.3,16-10.68,1.67-2,2.5-4.32,1.1-6.91-1.54-2.85-4.17-3.06-6.91-2.78-6.47.66-14.46,7.84-15.94,14.24C621,347.55,622.72,349.66,627.71,349.79Z"/><path d="M296.48,639c-.85,9.19-3.2,18.07-11.64,24.36-5.41,4-4.88,6.92,1.17,9.64q5.46,2.46,10.92,4.88c4.47,2,9,2.61,13.39-.05,2.05-1.24,4.31-1,5.5.33s.53,3.67-.75,5.47c-6.38,9-11.71,10.3-21.77,5.38a155,155,0,0,1-19-11c-7-4.75-10.68-4-15.6,2.69-1.48,2-2.93,3.76-5.66,3.09-3.07-.75-3.39-3.4-3.53-5.92a113.58,113.58,0,0,0-7.3-35c-1.35-3.46-1.08-6.55,1.95-9,3.32-2.66,6.11-1.89,7.78,2,3.27,7.67,4.7,7.89,10.39,1.58,7.61-8.43,17.58-9.65,28-8.49C295.34,629.56,296.54,633.88,296.48,639Zm-28.24,21.83c6.73-.14,16.52-9.13,17-15.61.25-3.62-1.32-6.15-5.24-6.47-7.58-.62-17.74,10.73-16.23,18.08C264.27,659.29,265.44,661.12,268.24,660.78Z"/><path d="M193.35,2208a136.79,136.79,0,0,0-4.06-32.6c-.79-3.25-1.23-6.39,1.91-8.58a8,8,0,0,1,10.23.28c13.16,11,29.12,18.19,40.94,31,4,4.37,8.17,3.52,11.6-1.44,5.82-8.43,4.47-17.14-3.61-23.76a26.32,26.32,0,0,1-4.2-4.24c-1.64-2.08-2.45-4.49-.54-6.85s4.4-3.43,7.52-2.29a17.09,17.09,0,0,1,9.06,8.2c6.71,11.89,4.67,33.09-4.1,43.53-6.11,7.27-10.24,7.56-16.61.62-7.86-8.57-17.79-14.46-26.89-21.43-2-1.52-4.27-1.95-6.49-.39a5.49,5.49,0,0,0-2.16,6.17,37.22,37.22,0,0,1-.71,20.21c-1.18,3.57-3,6.42-7.48,5.74-4.62-.72-4.39-4.27-4.41-7.66C193.34,2212.37,193.35,2210.21,193.35,2208Z"/><path d="M456.48,1863.46c.24-7.53.48-17.51-1.27-27.42a9.82,9.82,0,0,1,3-9.09c3.47-3.37,5.8-2.73,8.73,1.16q8.73,11.54,18.12,22.54c3,3.5,6.83,3.56,10,.18,6.51-6.86,14-12.9,18.73-21.32,1.3-2.29,2.83-4.84,6-4.64,3.39.22,4.5,3.17,5.55,5.75a101.54,101.54,0,0,1,6.76,29.06c.63,6.78,3.35,12.82,5.18,19.19,1.64,5.66.11,9.13-4.09,10.05-4.41,1-6.72-1.06-7.19-5.31-.92-8.43-1.64-16.88-2.62-25.31a73,73,0,0,0-2-10.25,6.47,6.47,0,0,0-5.77-4.86c-2.75-.34-4,1.71-5.39,3.7-4.28,6.41-9.72,11.83-15.25,17.11-4.07,3.88-6.67,3.76-10.61-.51-2.92-3.16-5.46-6.69-8.15-10.07-1.87-2.37-3.56-5.08-7.3-3.67s-2.53,4.5-2.39,7.23c.52,10,2,19.91-.13,29.83-.58,2.73-.91,6-4.88,5.72s-5.17-3-5.12-6.63C456.55,1879.24,456.48,1872.58,456.48,1863.46Z"/><path d="M696.14,1542.82c.3,3.88,2.72,9.17,5.23,14.43a40.72,40.72,0,0,1,2.46,5.44c1.23,4-1,8.19-4.78,9-4.53,1-6.5-1.77-7.32-5.54a138.66,138.66,0,0,1-3.3-21.18c-.5-8.27-1.69-9.78-9.5-12.3-3.45-1.11-4.57-3.9-2.08-6.33,4.74-4.59,4.44-9.66,2.31-15.14-.18-.47-.4-.92-.57-1.39-2-5.53-.67-9.3,3.71-10.58,3.87-1.13,7.08,1.72,8.15,7.28.12.65.12,1.33.2,2,1.25,10.67,2.16,11.47,12.78,10.56,5.63-.48,11.23-1.36,16.87-1.76,4.27-.32,6.4-2.29,6.36-6.58a6.66,6.66,0,0,1,.11-1c.58-3.27,1.47-6.24,5.62-6.45,4.3-.21,5.32,2.83,5.89,6,1.7,9.5,3.5,19,4.77,28.55a46.83,46.83,0,0,0,6.14,18.28c2.07,3.44,1.62,6.6-1.51,8.76s-6.39,1.18-8.85-1.73c-3.47-4.1-4.7-9.08-5.38-14.26s-1.29-10.23-2.13-15.32c-.69-4.19-3-6.38-7.6-6.06-7,.5-14,1.08-20.59,3.5C698.72,1532.69,695.77,1535.61,696.14,1542.82Z"/><path d="M726.41,964.59c-.21-3.47-.09-7-.71-10.41-.87-4.84-5-6.44-8.86-3.5-6.73,5.09-14.18,9.21-19.5,16.18-3.68,4.84-8.13,4.89-13.25,1.39a38.59,38.59,0,0,1-8.9-8.68c-1.88-2.47-4.16-4-7.28-2.15s-2.6,4.41-1.45,7c2.41,5.46,2.48,10.64-1.54,15.4-1.54,1.84-3.29,3.35-6,2.45-2.53-.84-3.13-3-3.13-5.17a213.36,213.36,0,0,0-2.06-31.34,11.53,11.53,0,0,1,2.81-9.31c3.25-3.79,7.54-3.79,10.46.2,4.35,6,10.23,10.43,15.07,15.93,3.63,4.14,8.64,4.29,13.3,1.78,10-5.39,19.72-11.16,27.17-20,2-2.4,4.26-4.48,7.68-3.22s3.07,4.37,3.24,7.18q1,15.95,2,31.88c.29,4.54,1.72,8.49,5.82,11,3.88,2.36,4.13,5.78,2.73,9.56-1.14,3.07-2.84,6-6.64,5.75-4.06-.27-6.75-2.89-7.8-6.73A90.58,90.58,0,0,1,726.41,964.59Z"/><path d="M815,1499c1.17,0,2.34,0,3.5,0,2.86.14,4.75,1.37,5,4.47s-1.12,5.25-4.31,5.63c-8.43,1-16.88,1.8-25.32,2.71-2.31.25-4.65.44-6.93.9-3.19.64-5.84,2.21-5.45,5.94.44,4.15,4,4.23,6.9,3.91,7.6-.86,15.15-2.17,22.73-3.24,4.12-.58,8.24-1.11,12.38-1.53,2.7-.27,4.63.92,4.92,3.75.32,3-1.51,5.11-4.22,5.19-12.27.34-23.49,6.17-35.78,6.49-5.76.15-7.28,2.53-6.6,8.15a37.29,37.29,0,0,0,5.49,15.38c2.16,3.5,5,4.28,8.44,2.27,2.29-1.32,4.42-2.94,6.62-4.44,1.94-1.32,3.93-2.55,6.35-2.7a4.07,4.07,0,0,1,4.26,2.79c.73,1.73-.16,2.89-1.35,3.91-3.29,2.8-6.54,5.66-9.92,8.35-8.78,7-19,5-24.48-4.71-5.37-9.48-7-20-8.48-30.59-1-6.59-1.81-13.19-2.77-19.78-.55-3.77.9-6.93,4.68-6.7,13.27.83,25.54-4.33,38.41-5.76,2-.22,4-.36,6-.54Z"/><path d="M870.48,1246.71a41.46,41.46,0,0,0,14.8-1.66c2.8-.78,6-1.43,8.12,1.8,2.24,3.49.72,7.21-3.88,8.25-6.48,1.46-13.08,2.4-19.63,3.54-4.07.71-8.18,1.71-9.23,6.35s.73,9,4.19,12.21,7.47,2.15,11.23.41c2.71-1.25,5.3-2.78,7.91-4.23,1.55-.87,3.1-1.41,4.59,0,1.72,1.59,2.1,4,.74,5.44a43,43,0,0,1-20.2,12.15c-6.14,1.64-11-1.49-15.29-5.46a7.46,7.46,0,0,1-2.22-3.22c-3.4-12.33-7.5-24.52-8.12-37.46s3.57-21.24,18-23.43c9.2-1.4,18.34-3.24,27.52-4.82,2.54-.44,5.08-.38,6.75,2,2.28,3.31.44,6.75-4.34,8-8.71,2.17-17.46,4.23-26.18,6.36a35.61,35.61,0,0,0-4.79,1.41c-3,1.2-4.44,3.46-3.92,6.71s2.2,5.33,5.43,5.65C864.81,1246.93,867.66,1246.71,870.48,1246.71Z"/><path d="M94.46,2207.74c.7-2.61-.42-5.07-1.86-7.64-3.33-6-2.3-8.21,4.22-9.67a12.92,12.92,0,0,0,9.61-7.9c1.5-3.52,2.67-7.17,4.14-10.69,3.47-8.31,11.93-10.52,19.18-5.14,2.76,2.05,4.42,4.93,6.24,7.71,4.84,7.39,11.25,11.13,20.33,8.83,2.16-.55,4.41-.74,5.28,2.13s-1.24,3.4-3,4.29c-10.77,5.31-11.11,7.25-1.86,15.44,4.07,3.62,5.71,7.47,4.14,12.77-.77,2.57-1.65,4.69-4.62,5.17a5.92,5.92,0,0,1-6.41-2.85,104.09,104.09,0,0,1-8.33-16.41c-3.18-7.82-5.05-8.93-13.21-7.53l-6.87,1.2c-7.06,1.25-11.68,5.21-13.58,12.22-.75,2.8-1.9,5.44-4.72,6.71C97.74,2218.79,93.78,2215,94.46,2207.74Z"/><path d="M642.44,1257c-.61-6.45-1.4-15.23-2.29-24-.37-3.66,0-6.62,4.49-7.39s5.94,1.94,6.82,5.45c3,11.9,2.5,24.1,3,36.22.39,8.82.6,17.64,6.11,25.3a6.28,6.28,0,0,1-.71,8.3c-2.31,2.45-5.09,4.72-8.74,3.58s-4.25-4.29-4.53-7.61c-1.35-16-4.65-18.48-20.77-15.19-7.61,1.55-14.14-.41-19.84-5.52a41.91,41.91,0,0,1-9.64-12.63c-4.81-9.64-6.81-20.12-8.74-30.58-.84-4.57,1.47-7.5,5.46-8,4.85-.6,5.88,2.7,6.37,6.45,1,7.93,2.31,15.82,5.4,23.25,5.83,14,15.91,19.69,29,16.43C642,1269,643,1267.75,642.44,1257Z"/><path d="M27.18,1553.06c-.08-12.72-3.22-25-5.11-37.53a60.16,60.16,0,0,1-.71-7c-.13-3.82,2-6.25,5.37-7.6,3.21-1.29,5.74,0,8.07,2.29q15.57,15.52,31.26,30.93c2.12,2.09,4.21,4.66,7.71,2.62s2.57-4.94,1.85-8c-.57-2.43-.82-4.93-1.17-7.4-.86-6-2.52-11.67-7-16.19-2.37-2.39-3.1-5.19-.26-7.87a6.24,6.24,0,0,1,9.25.59,22.69,22.69,0,0,1,4.43,8.32,99.52,99.52,0,0,1,4.61,34.91,18.23,18.23,0,0,1-.53,3.44c-2.68,11-8.53,12.89-16.9,5.41-7.95-7.1-16.51-13.51-23.81-21.32-1.46-1.57-3.12-2.65-5.29-1.63s-3.59,2.53-3.51,5a16.69,16.69,0,0,0,.68,4.4c2.48,7.81.83,15.51-.42,23.23-.38,2.36-1.64,3.63-4.07,3.32s-4.14-1.52-4.41-4A56.75,56.75,0,0,1,27.18,1553.06Z"/><path d="M86.35,1230.68A67.45,67.45,0,0,1,84,1249.09c-1,3.28-2.76,5.65-6.43,6.11-3.39.42-5.21-1.65-6.7-4.21-2.14-3.66-5.25-6.46-8.39-9.17-4.33-3.74-7.37-3.12-9.83,2-1.59,3.28-2.59,6.84-4.14,10.14-2.34,5-5.25,9.47-11.74,9.14-5.73-.3-11.68-5-13.55-11-2.1-6.66-3.77-13.45-5.87-20.1a84.47,84.47,0,0,0-7.66-16.76c-2.59-4.49-1.94-7.54,1.61-9.35s6.26-.55,8.41,4.3c4.8,10.79,9.53,21.62,11.61,33.36.45,2.53,1.44,4.51,4.13,4.94,2.91.46,5-1.21,5.88-3.67,2.63-6.9,7.83-12.85,7.35-20.93a5.85,5.85,0,0,1,4.4-6c3-.92,5.1.59,6.83,2.88,3.21,4.24,6.35,8.54,9.71,12.66,1.1,1.34,2.7,3,4.63,2.22,1.68-.64,1.61-2.8,1.92-4.38.62-3.2-.37-6.28-1.16-9.33a53.39,53.39,0,0,1-1.7-10.81c-.15-3.32.85-5.59,4.38-6,3.73-.48,6.35,1.19,6.86,4.88.75,5.43,1,10.93,1.46,16.39C86.1,1227.69,86.21,1229,86.35,1230.68Z"/><path d="M60.1,2147.63c2.65.12,5.84-.25,8.85,1.12,4,1.79,6.39,4.62,6.69,9.11.26,3.71-1.5,5.33-5.06,4.88-2.47-.31-4.88-1-7.33-1.45a34.22,34.22,0,0,0-20.51,2.31c-7.86,3.48-9.86,8.76-6.4,16.55,3.93,8.85,10.82,14.58,19.49,18.41,7.13,3.15,9,5.71,8.29,11.25-1,7.34-4,10.52-11.36,11.83-11.58,2.08-23.1,2.65-34.58-.73a37.69,37.69,0,0,1-16.45-10c-1.76-1.8-2.28-3.67-.76-5.78s3.62-2.11,5.82-1.28a5.41,5.41,0,0,1,1.7,1c8.9,8.21,19.85,7.39,30.69,6.93a5.16,5.16,0,0,0,5.08-4.08c.64-2.51-1-4.11-2.89-5.32a38.73,38.73,0,0,1-15.49-19c-3.9-10-1.85-18.54,6.21-25.72C39.93,2150.67,49.26,2147.75,60.1,2147.63Z"/><path d="M607,1536.7c-.26,4.68-.14,9.53-1.53,14.21-1.88,6.37-6,8.17-11.78,4.72-4.69-2.82-9-6.34-13.64-9.2-8.51-5.21-17.17-10.16-25.78-15.21-2.17-1.28-4.44-2.63-6.91-.8-2.27,1.69-1.66,4-1.28,6.39.82,5.25,1.62,10.51.44,15.86-.68,3.08-1.8,5.35-5.42,5.28-3.46-.08-5.25-2.13-5.63-5.23-1.28-10.4-2.41-20.82-3.51-31.24-.34-3.31-.44-6.64-.59-10-.24-5.53,3-7.6,7.88-4.82,3.31,1.88,6.4,4.17,9.57,6.32q19.83,13.44,39.64,26.91c2,1.33,3.91,2.61,6.43,1.34s3-3.75,3.14-6.32c.35-7.83-1.66-15.14-4.87-22.2-.75-1.66-1.31-3.41-2-5.1-1.52-3.67-.46-6.22,3.37-7.34s6.76.44,7.71,4.23a167.94,167.94,0,0,1,4.17,23.56C606.74,1530.91,606.84,1533.74,607,1536.7Z"/><path d="M764.43,1269c1.15-6.45-.95-13.81-3.26-21.15a63.87,63.87,0,0,1-1.77-6.22c-1.24-6.17.39-9.74,5.09-11.53,4.48-1.7,7.85-.24,10.8,5.36,3.59,6.79,8.81,12,14.68,16.78,5.43,4.39,10.89,8.76,16.33,13.14s10.16,3,12.32-3.43c1-3.15,2-6.32,3.12-9.47,1.69-5,1.11-9.49-2.74-13.34-1.67-1.67-3.52-3.41-1.84-6a9.78,9.78,0,0,1,8.39-4.61c2.94,0,4.47,2,5.16,4.58,2,7.39,1.62,14.88.42,22.3a99.62,99.62,0,0,1-5.45,19.16c-2.69,7.16-5.12,8.17-12.09,5.25-9.73-4.08-18.39-10-27.11-15.79-2-1.29-3.73-3-6.31-1.76s-2.77,3.82-2.74,6.41c.06,4.32.28,8.63-.78,12.92-.75,3-1.23,6.26-5.28,5.93-3.87-.31-6.59-2.52-6.89-6.62C764.23,1277.41,764.43,1273.9,764.43,1269Z"/><path d="M4.34,56.37C4.4,43.06,2.41,30.54,1,18Q.36,11.76,0,5.53C-.11,3.28.37,1.15,2.89.26,5.59-.7,6.56,1.2,8,3Q25.63,25,43.51,46.86a5.61,5.61,0,0,0,6.7,2c2.64-1,3.1-3.16,3.39-5.58a50.18,50.18,0,0,0-.82-18.31c-1-4.05-.67-8.27-.36-12.42.21-2.8,1.34-4.9,4.41-5.1s5.59.58,6.81,3.83a16.48,16.48,0,0,1,.6,7.4q-1.3,14.92-2.82,29.83c-.44,4.31-1.1,8.61-3.78,12.25-3.94,5.36-8.72,5.53-13.23.66-7.26-7.8-14.64-15.49-21.92-23.27C20.76,36.27,19,35,16.39,36.42s-3,3.63-2.18,6.4c2.07,7.24,2.21,14.44-.85,21.51-1.07,2.48-2.36,4.47-5.53,3.8S3.58,65.2,3.75,62.22C3.87,60.06,4.18,57.92,4.34,56.37Z"/><path d="M466.65,940.16c.73,4.16-.59,8.48-3.33,12.81-3.52,5.56-2.52,10.45,3.27,13.59,7.67,4.17,13.52,10.82,21.36,14.63,2.55,1.24,3,3.51,2.31,5.94s-2.66,4-5.32,3.46c-3.6-.68-7.22-1.67-9.63-4.76-4.09-5.26-9.45-8.84-15.22-11.91-5.44-2.89-10.86-5.78-16-9.15-5.43-3.53-8.22-2.07-8.88,4.47-.37,3.64-.23,7.33-.63,11-.43,4-2.82,5.95-6.9,5.25-4.35-.75-4-3.64-3.6-7.19,1.21-11.3.19-22.44-4-33.13-.61-1.54-1.52-3-2-4.56-.94-3-1.2-6,2.18-7.82s5.32.24,7.16,2.55c4.42,5.52,4.4,5.53,10,1,5.2-4.19,10.35-8.43,17.23-9.61,8.94-1.53,12,1,12,10.13Zm-20.48,11.65c5.75,0,10.41-3,11.79-7.38,1.26-4-1.67-8.18-5.25-7.17-4.36,1.24-8.28,3.42-10.73,7.48-.91,1.52-2.15,3.18-1.07,5.06S444.12,951.91,446.17,951.81Z"/><path d="M357.89,1518.56c-7,6.08-14.79,8.6-22.95,10.19-4.56.88-9.22,1.29-13.81,2.08-6.6,1.13-8.71,4.26-6.58,10.5a141.12,141.12,0,0,0,6.92,17.07c2.82,5.68,6.76,6.26,11.73,2.28a65.7,65.7,0,0,0,5.06-4.82c1.7-1.69,3.53-2.66,5.69-.9s2.59,4.48.9,6.21c-4.83,4.94-9.19,10.73-16.09,13-6,2-13.13-1.79-16.27-8.49-3.78-8-5-16.86-6.93-25.43a79.24,79.24,0,0,1-2.12-23.28c.26-3.88-1.6-6.62-4.57-8.9-1.84-1.41-3.92-3-3.21-5.72s3.22-3.22,5.52-3.6c14.31-2.38,28.77-3.14,43.22-3.92,4.57-.25,5.45,3.11,5.4,6.71s-1.88,5.59-5.7,5.21c-9.2-.92-18.08,2.56-27.3,1.85-3.08-.24-5.45,1.33-5.48,5,0,4,2.2,5.89,5.81,6.08,8.67.46,17.26-1,25.89-1.44C347.72,1518,352.45,1517,357.89,1518.56Z"/><path d="M285,1248.61v-2.39c0-9.45-3.87-12.56-13.25-10.61-6.65,1.38-13.18,3.16-20.07,3.54-5.76.32-7.64,3.61-6.58,9.31.57,3.07,1.73,6.06.51,9.3-1.42,3.78-4.07,5.6-8,5.46-4.28-.15-5.68-3.3-5.82-6.8-.27-7.15-.13-14.31-.12-21.46,0-4.68-.16-9.28-2-13.72-1.05-2.59-1-5.28,1.35-7.34,2-1.77,4.31-2.53,6.91-1.48,2.91,1.18,3.48,3.64,3.57,6.51.26,7.43,2.7,9.58,9.88,8.87,5.62-.56,11.22-1.35,16.84-1.78,7-.54,11.84-3.89,14.85-10.12,1-2.09,1.84-4.46,4.85-4.24s4.34,2.24,5.46,4.54a23.78,23.78,0,0,1,2.07,9.18c.36,6,.73,11.95,1,17.93a21.23,21.23,0,0,0,4,12.09c3.2,4.35,2.61,8.75-1.27,12.51s-9.46,2.9-11.88-2.14C285.25,1261.52,284.46,1256.23,285,1248.61Z"/><path d="M383,1889.78c-2.5-.66-4.89.73-7.42,1.5-8.64,2.63-14-.27-15-9.17-1.75-15-3.58-30-8.25-44.54a6.18,6.18,0,0,1,2.09-7.19c2.2-1.74,3.9-.27,5.83.84,2.82,1.62,6.09,1.41,9.24,1.59,12.42.72,25,.28,36.61,6.11q4.23,2.13,8.4,4.38c7,3.82,8.36,6.47,7.15,14C419.29,1872.09,398.18,1889.94,383,1889.78Zm-17.37-36.17a54.87,54.87,0,0,0,3.24,19.08c2.91,7.7,6.78,9.69,14.76,7.71,10.47-2.6,18.58-8.63,25-17.14,5.51-7.29,4-12.48-4.74-15.55-8.87-3.14-18.15-4.13-27.44-4.69C367.65,1842.49,365.64,1844.67,365.63,1853.61Z"/><path d="M816.35,1846.65a94.62,94.62,0,0,0-23.57,3.78c-3.41,1-5.9,2.75-5.18,6.66s3.7,4.89,7.17,4.66c7.3-.48,14.59-1,21.88-1.67,2.17-.19,4.57-1,5.35,2s-1.47,4.07-3.81,4.77a222.17,222.17,0,0,1-25.24,5.9c-7.73,1.36-10.5,5.29-9,12.52,1.87,8.92,5.27,11.36,13.33,9.64,3.24-.69,6.54-1,9.37-3.08,1.93-1.39,4.13-1.81,5.54.75s2,5.59-1.18,6.88c-8,3.23-15.78,7.3-24.6,7.74-6.71.33-11-3.57-12.9-10.84-1.95-7.47-.83-14.88.32-22.29,1.32-8.52,1.34-16.84-2.69-24.85-1.93-3.84,0-7.26,4.25-7.42,13.52-.49,26.77-2.87,40.08-4.93a16.56,16.56,0,0,1,5,0c3.38.52,5.43,2.34,5.18,6.07s-3,3.76-5.79,3.71C818.68,1846.63,817.51,1846.65,816.35,1846.65Z"/><path d="M686,1871.58c0-7,0-14,0-21,0-3.87.75-7.25,5.51-7.22s5.31,3.67,5.46,7.37c0,1.32,0,2.65.06,4,.16,4.31,2.35,6.21,6.72,6.1,5.5-.14,11,.23,16.36-1.46a20,20,0,0,0,11-8.2c1.58-2.39,3.26-4.84,6.69-4.29s5.56,2.78,6.73,6a61.27,61.27,0,0,1,4,18.45c.31,7,1.26,14,5.68,19.85,1.61,2.14,1.21,4-.73,5.69a16.66,16.66,0,0,1-9,3.9c-3.63.41-5.72-1.3-6.09-5-.65-6.46-1.26-12.92-1.88-19.39-1-9.82-4.16-11.93-13.36-9-5.86,1.89-11.78,3.58-17.64,5.45-6.28,2-7.92,4.73-6.57,11.3a34.54,34.54,0,0,1,.56,10.43c-.36,3.62-1.71,6.67-6,6.53-4.08-.13-5.83-2.91-6-6.64-.44-7.64-.72-15.29-1.07-22.94Z"/><path d="M148.78,924.64c2.23,0,3.39,0,4.56,0,2.61-.08,4.08,1.11,4.26,3.76.18,2.82-1.62,3.88-4,4.18-12.89,1.6-25.32,5.5-38.11,7.58-.82.13-1.62.37-2.44.52-1.91.35-3.56,1-3.75,3.29s.4,4,2.35,5.14a10.21,10.21,0,0,0,6.7,1.29c10.21-1.37,20.42-2.79,30.49-5,2-.44,3.74-.7,4.5,1.6.81,2.48-.15,4.22-2.7,5-9.68,2.89-19,7-29.37,7.46-7.48.36-8.91,2.45-7.9,9.85a23.6,23.6,0,0,0,3.22,8.84c4,6.76,6.5,7.32,13.13,2.89,1.73-1.16,3.44-2.4,5.32-.59s1.18,3.86,0,5.89c-6.55,11.32-19,11.67-26,.65-6.18-9.66-8.2-20.6-9.42-31.74-.47-4.3-.86-8.61-1.11-12.92-.45-7.74,3.89-13.64,11.6-14C123.42,927.58,136.61,926,148.78,924.64Z"/><path d="M145.63,654c-.84,7.65-.89,15.27,2.5,22.79,2.11,4.7-1.37,9.36-6.52,10.27-4.5.8-6.16-.49-6.28-5.13a100.79,100.79,0,0,0-1.9-17.33c-.9-4.53-3.65-7-8.36-7a103.17,103.17,0,0,0-17.91,1c-7.74,1.31-10.13,5-8.31,12.71.88,3.72,1.79,7.43,2.47,11.18.55,3,.26,5.74-3.52,6.54-3.58.76-6.22-.28-7.63-3.81a5.2,5.2,0,0,1-.57-1.89c.6-16.28-4.89-31.89-5.29-48,0-2.35-.63-4.86,2.55-5.64,3-.72,4.11,1.41,5.22,3.55a22.23,22.23,0,0,1,2.25,8.12c.44,4.4,2.67,6.49,7.2,6.44,8.52-.1,16.89-1.36,25.28-2.64,2.93-.45,4-2.06,4.11-4.69.08-1.49.08-3,.28-4.48.33-2.43,1.25-4.54,3.93-5.2a6,6,0,0,1,6.23,2.2,14.92,14.92,0,0,1,4.28,10.34C145.6,646.85,145.63,650.35,145.63,654Z"/><path d="M84,977.23c.08,3.83-1.8,5.68-4.83,6.54-3.75,1.07-6.64-.18-8.22-3.72-2.34-5.23-2.58-10.95-3.39-16.53-.6-4.11-1.07-8.24-1.63-12.36-.36-2.6-1.58-3.73-4.45-3.07a193,193,0,0,0-25.36,7.25c-3.72,1.41-4.4,3.51-2.89,6.92a48.81,48.81,0,0,1,3,7.9c1.06,4.3-1,7.84-4.58,8.69-4,.94-6.35-.8-7.41-5.93a59.5,59.5,0,0,1-.77-7.92c-.41-5.7-2.36-10.18-8.22-12.46-3.9-1.53-3.84-4-.23-6.39,5.72-3.74,6.29-5.29,4.55-12-.74-2.89-1.85-5.69-1.9-8.74-.06-4,2-6.53,5.64-7.12,3.87-.63,4.77,2.54,5.57,5.62,1,3.79.7,7.6.82,11.42.18,5.81,1.85,7.41,7.48,7.44,4,0,8,.23,12,.15,7.3-.13,10.92-3.17,12.58-10.3.27-1.14.49-2.28.77-3.41a5.21,5.21,0,0,1,5.08-4.06c2.41-.17,4,1.2,4.95,3.42a50.48,50.48,0,0,1,3.85,15.93c.88,10.27,1.22,20.63,6.91,29.8A8.36,8.36,0,0,1,84,977.23Z"/><path d="M352.52,929.74a108.67,108.67,0,0,1,27.75,5.94c20.79,7.56,19.81,29.09,7.48,40.43a41.3,41.3,0,0,1-13.69,8c-6.84,2.59-12.65,6.34-16.22,13.19-2.33,4.47-5.16,4.44-8.36.32-1.52-2-3.58-2.88-5.59-4-3.08-1.79-4-4.35-1.1-6.77,4.62-3.84,4.89-8.24,4-13.83-1.83-11.12-2.16-22.44-7.13-33-2.34-5,0-8.3,5.49-9.4C347.54,930.15,350.05,930,352.52,929.74Zm34.18,28.39c.17-5.42-2.69-8.82-7.06-11.22-7.21-4-15.29-4.09-23.15-5.15-2.56-.34-3.7,1.41-3.88,3.55a24.59,24.59,0,0,0,.32,6.41c1.34,7.69,2.54,15.38,2.56,23.22,0,6.22,2.63,8.11,8.5,5.59a50.06,50.06,0,0,0,20.53-16.08A9.19,9.19,0,0,0,386.7,958.13Z"/><path d="M393.26,384.94c-6.8-.22-12.27-4-14.22-10.56a218.82,218.82,0,0,1-7.59-34c-1.27-9.86,2.2-14.61,12-16.45,5.39-1,10.84-1.72,16.28-2.45,7.75-1,15.52-1.91,23.27-2.95a10.94,10.94,0,0,1,5.88.59c2.31,1,2.85,3,2.74,5.38s-1.48,3.1-3.57,3.33c-13.73,1.52-27.14,4.9-40.78,7-4,.6-6.59,2.16-5.91,6.8s3.57,6.31,7.72,6c11.43-.83,22.89-1.35,34.23-3.15.65-.11,1.3-.29,2-.34,3.1-.24,6.55-.44,6.85,3.72.28,3.85-3.22,3.4-5.74,3.9-5.54,1.09-11.1,2.13-16.59,3.42A74,74,0,0,1,393.47,357c-6.21.08-8.69,3.93-6.4,9.68a17.21,17.21,0,0,0,2.88,4.62c3.3,3.88,6.08,3.89,9.52.15,1.58-1.73,3-4.14,5.71-2.39s1.37,4.38.32,6.66C402.37,382.52,398.9,385.11,393.26,384.94Z"/><path d="M602.34,933.81a6.34,6.34,0,0,1,5.47,2.94c2.49,3.31,5.06,6.58,7.46,10,2.79,3.94,5.87,7.17,11.24,7.15,3.1,0,3.58,2.46,2.74,4.61-2.43,6.22.37,10.45,4.56,14.57s4.65,8.32,1.76,13.56c-1,1.87-2.28,3.21-4.61,3.2s-3.6-1.5-4.48-3.39c-2.18-4.66-4.31-9.35-6.46-14-2-4.37-4.75-7.72-10.21-7-6,.81-12.17,1.64-14.28,8.75A39.51,39.51,0,0,1,585.2,991.5c-2.32,2.27-4.8,4.07-7.81,1.61s-2.27-5.54-.47-8.5a40.38,40.38,0,0,0,2.94-5.19c1.88-4.37.35-8-2.58-11.43s-2.57-6.13,2-7.21c8-1.92,10.88-7,11.42-14.72C591.17,939,596.55,933.87,602.34,933.81Z"/><path d="M273.24,1866.26c.34-7.82-.28-14.88-2.66-21.77a13,13,0,0,1-.45-5.41c.38-3.85,2.66-6.33,6.27-7.62s5.83.85,7.58,3.32c8.73,12.35,21.17,20,34,27.17,1.8,1,3.76,2.75,5.94,1.13s1.69-4.2,1.26-6.48c-1.7-9-3.41-18-5.28-26.91-.7-3.34-.73-6.24,3.45-6.7,3.74-.41,7.43,1.26,7.05,5.19-1.34,13.57,4.8,25.71,6.6,38.65.5,3.57,2,7.31-1.73,10.1s-7.59,1.68-11.21-.36q-16.49-9.35-32.88-18.84c-4-2.34-6.85-1-6.83,3.76,0,4.3.74,8.6.91,12.92.15,3.73-1.17,6.59-5.49,6.85-3.68.21-6.28-1.17-6.5-5.17C273.09,1872.62,273.24,1869.13,273.24,1866.26Z"/><path d="M403,673c1.05-7.89-.55-17-2.27-26.2-1.61-8.62,2.1-13,11-13a91.21,91.21,0,0,1,41.69,10.41c6.86,3.49,8.54,10.42,4.57,17.93a48.23,48.23,0,0,1-14.81,16.62c-7.1,5.1-15,8.45-23.32,11.07-11.2,3.56-16.08.3-16.85-11.34C402.93,677.19,403,675.85,403,673Zm19.41-27.22c-8.84-.14-10.5,1.62-9.8,9.15.56,6,1.24,11.9,1.88,17.84.89,8.32,3.82,9.81,11.12,5.59,7.84-4.53,14-11.13,20.91-16.87,5.11-4.26,4.78-7.44-1.34-10.18C437.54,647.91,429.37,646.48,422.42,645.81Z"/><path d="M570.42,1246.63c.72,7.65,1.09,15.29-1,22.8-2.51,8.87-6.28,10-13.44,4.22q-11.27-9.08-22.73-17.94c-6.41-4.93-8.52-4.19-10.57,3.52-.61,2.32-1.18,4.72-3.68,5.53-3.47,1.12-6-.24-6.66-3.89-1.44-8-2.83-16-3.91-24.1-.66-4.94.95-9.57,3.54-13.77s6.87-4.06,8.73.48c3.49,8.52,9.77,14.52,16.75,20,5.21,4.14,10.43,8.29,14.57,13.59,1.23,1.57,2.25,3.54,4.73,2.79a5.18,5.18,0,0,0,3.57-5c.44-7.27,1.48-14.62-1.87-21.59-1.42-3-1.49-5.86,1.49-8,4.08-2.95,8.25-1.48,9.68,3.41C571.3,1234.63,570.13,1240.67,570.42,1246.63Z"/><path d="M478.49,1496.82c3.32,0,6.65-.09,10,0,2.4.08,4.84.46,5,3.62.16,2.89-1.65,4.3-4.24,4.59-8.75,1-17.52,1.8-26.28,2.74a41,41,0,0,0-5.4,1c-3.53.88-4.79,3.24-4.2,6.75s2.85,4.74,6.1,4.34c9.24-1.13,18.47-2.38,27.71-3.54q6.69-.84,13.38-1.51c2.34-.23,4.5.22,4.81,3.07.34,3.14-2.2,3.28-4.3,3.67-13.23,2.44-26.48,4.82-39.71,7.29-7.54,1.41-9.29,4.09-7.63,11.51a19.8,19.8,0,0,0,7,11.21c3.91,3.22,7.72,3.26,11.79.17,1.06-.8,2-1.77,3.08-2.53,2.53-1.76,5.16-2.72,7.44.29s1.57,5.57-.9,8a20.8,20.8,0,0,1-23.64,3.63c-8.63-4.42-12.87-12-13.7-21.26a124.67,124.67,0,0,1,.21-18.93c.37-5.76-.67-7.78-6.18-9.7-1.45-.5-3.62-.13-3.7-2.54a4.65,4.65,0,0,1,3.17-4.66,99,99,0,0,1,11.51-3.18A229.73,229.73,0,0,1,478.49,1496.82Z"/><path d="M555.79,955.64c-5.31-.19-10.15,1.66-15,3.5-5.3,2-10.58,4-16.34,4.19-3.62.13-5.1,2.33-4.62,5.65.9,6.14,3.43,11.47,8.62,15.2,4.09,2.94,7.23,2.6,10.35-1.36,2.57-3.26,4.84-6.77,7.3-10.12,1.25-1.69,2.78-3.08,5.06-1.8,2.07,1.17,1.67,3.28,1.08,4.91-3.37,9.18-9.45,16.23-18.52,19.8-6,2.34-10.91-1.31-15.12-5.35a13.3,13.3,0,0,1-3.18-4.43c-6.55-16.49-9.19-33.15-1.9-50.21,1-2.39,2.92-2.71,4.86-2.6,12.46.74,24.54-1.25,36.46-4.63,3.56-1,6.37-.29,7,4s-1.91,6.12-5.43,6.16c-9.93.11-19.37,3-29.07,4.46-3.32.48-6.86,1.09-6.69,5.76.15,4,2.46,5.81,7.35,5,8-1.28,16-2.93,24-4.41,2-.36,3.92-.76,5.9-1,2.63-.3,4.71.37,4.86,3.53s-1.93,3.88-4.55,3.86C557.45,955.76,556.62,955.68,555.79,955.64Z"/><path d="M76.84,328.82a53.69,53.69,0,0,0,2.53,24.05,8.21,8.21,0,0,1-3.11,9.77c-1.59,1.19-3.14,2.56-5.41,1.45s-3-3-2.86-5.35c.24-5.32.57-10.62-.16-15.93-1-7.12-3.54-9.2-10.37-7.68-7.58,1.7-14.76,4.8-22.74,5.21-4.9.25-6.46,3.62-5.5,8.72.37,1.95,1.19,3.86,1.3,5.81.24,4.22-2.49,5.92-6.21,6.29s-5.75-1.73-5.59-5.32A31.55,31.55,0,0,0,16,342.27a3.11,3.11,0,0,1-.33-.94,227.79,227.79,0,0,1,2.76-36.23,2.68,2.68,0,0,1,2.77-2.41,3.89,3.89,0,0,1,3.63,2.24,19,19,0,0,1,2,10.64,40.74,40.74,0,0,0-.21,7c.45,3.95,2.68,6.45,6.91,6.39,10.24-.14,20.14-2.4,29.86-5.41,4-1.23,4.37-4.37,3.86-8.08-.39-2.85-1.1-6.27,2.78-7.62,3.7-1.28,6.52.62,6.81,4.93C77.09,317.56,76.84,322.41,76.84,328.82Z"/><path d="M349.65,652.79c7.51.06,15-.1,22.24-2.44,2.75-.89,5.55-.72,6.41,2.73,1,3.84-1.91,5.09-4.82,5.54-9.86,1.5-19.76,2.78-29.65,4.13-6.15.85-8.45,2.9-8.16,7.33.37,5.5,3.77,8.63,9.66,8.48,2.64-.06,5.24-.86,7.88-1.12,3-.29,5,.18,3.4,4.11-2.53,6.35-5.78,8.21-12.66,7.76-9.19-.61-15-4.77-18.1-13.68-2.92-8.47-5.51-16.81-3.29-25.81.85-3.44-.57-6.05-2.16-8.87-3.16-5.62-1.91-8.12,4.4-8.51,13.62-.85,27.25-1.51,40.89-2.1,2.91-.13,6.44-.45,7.1,3.69s-2,5.6-5.64,5.84c-9.3.63-18.59,1.31-27.9,1.87-3.57.21-7,.53-6.72,5.29.24,4.39,3,5.94,7.12,5.78C343,652.69,346.32,652.79,349.65,652.79Z"/><path d="M163.29,682a5.23,5.23,0,0,1,.39-1.49c5.9-9.35,7.26-20.24,10.23-30.56a24.21,24.21,0,0,1,11.61-14.92c5.87-3.37,7.65-3,11.64,2.38q4.59,6.21,9.29,12.34c2.73,3.58,6.11,5.93,10.87,6.09,3.43.11,5.94,1,2.62,5-2.09,2.53-1.76,5.55-.89,8.55a65.15,65.15,0,0,1,2.33,9.14,5.67,5.67,0,0,1-3.95,6.25c-3,1.11-5.25-.52-6.58-3.06a29.14,29.14,0,0,1-2.31-6.53c-1.17-4.75-4.14-7.62-8.88-8.2a42.92,42.92,0,0,0-9.94,0c-6,.66-8.68,4.74-10.1,10.2-1.59,6.16-6.18,9.83-11.64,9.64C164.83,686.81,162.91,685.47,163.29,682Z"/><path d="M224.56,1826a9.69,9.69,0,0,1,7.2,4.17c1.83,2.57,3.56,5.22,5.25,7.89,2,3.21,4.54,5.82,8.43,6.49,4.33.74,5.72,3.51,4.53,7.21-1.61,5-.54,9,2.93,12.8a11.91,11.91,0,0,1,2.33,4.9c.77,2.81.08,5.36-2.66,6.85s-5,.39-7-1.82c-3-3.32-4-7.62-5.94-11.45-4-8-9.87-9.71-17.38-4.8a18.14,18.14,0,0,0-7.14,9.32,69.36,69.36,0,0,1-3.8,8.65c-1.6,3-4.1,4.14-7.55,2.85s-4.29-4.15-3.19-6.84c1.9-4.62,1-7.87-2.46-11.32-2.49-2.48-1.74-5.57,1-7.81a29.46,29.46,0,0,1,4.53-3.09,12.94,12.94,0,0,0,7.13-10.08C212.24,1831.38,217.91,1825.87,224.56,1826Z"/><path d="M280.79,360c0-9.8-.41-19.63.12-29.4.57-10.62,5.06-12.54,13.83-6.63,9,6.05,17.94,12.12,26.94,18.13,2.45,1.63,4.89,3.89,8.1,1.49s2.67-5.47,1.71-8.61c-1-3.33-2.37-6.57-3.25-9.94-1.1-4.16.55-6.37,4.81-6.88,3.86-.45,5.56,1.51,5.58,5.2.05,8.8,2.11,17.53,1,26.39a13.37,13.37,0,0,1-2.21,6.54c-2.51,3.41-5.87,5-9.39,2-6.31-5.35-13.57-8.91-20.92-12.43a20.12,20.12,0,0,1-5.71-4.79c-2-2.14-4.45-3-7.23-1.76-2.57,1.13-2.72,3.49-2.6,5.94.32,6.81.82,13.63.79,20.45,0,4.17-1.21,8.11-6.47,8.54-3.77.31-6.16-1.21-6.24-5.28-.07-3,0-6,0-9Z"/><path d="M606.49,1863.42c-.11,18.09-9.8,31.77-24,36.2-9.52,3-17.82,0-22.57-8.66-6.71-12.29-7.48-25.56-3.59-38.68s21.51-19.74,33.79-13.24C600.69,1844.63,605.86,1853.88,606.49,1863.42Zm-8.85,2.91c-.24-14.46-14.66-23.89-28.28-18.52a7.89,7.89,0,0,0-5,6.33c-.6,3.09-.87,6.24-1.55,9.3a26.73,26.73,0,0,0,3.12,19.65c3.15,5.56,8.74,7.6,15,6C590.59,1886.53,597.81,1876.74,597.64,1866.33Z"/><path d="M163.64,1532.7c0,14.91-18.54,31.18-33.35,29.12-5.83-.81-9.86-4.59-13.26-9-10.76-14-7.06-39.8,7.15-50.39,3.6-2.69,7.57-4.12,12.13-3.21C149.14,1501.77,163.62,1519.53,163.64,1532.7Zm-26.16,18.24c6.38-.36,12.14-3.75,16.08-10.17,3.81-6.23,1.51-11.83-2-17.21a33.3,33.3,0,0,0-11.26-11.1c-7.25-4.21-14.41-1.81-17.27,6.12a55.16,55.16,0,0,0-2.89,12.07C118.84,1542,126.06,1550.83,137.48,1550.94Z"/><path d="M547,340.75c4.56.1,8.17.06,11.77-1,2.89-.85,5.3-.12,5.74,3.53s-1.41,5.31-4.89,5.07c-5.54-.37-10.86,1.27-16.33,1.64-5.31.36-7.29,4.79-4.46,9.38a22.41,22.41,0,0,0,8.37,7.68c2.82,1.58,5.13.62,7-1.68.95-1.15,1.67-2.5,2.66-3.61a3.3,3.3,0,0,1,4.9-.38,3.72,3.72,0,0,1,1.22,4.85c-5.57,12.95-18.5,14.74-27.24,3.72-4.53-5.7-7.08-12.38-9.22-19.23-2.23-7.13-4-14.43-7.28-21.19-1.47-3-.06-4.6,2.51-5.21,17.1-4.1,33.77-10.27,51.6-10.92,3.22-.12,5.74.65,5.49,4.57-.22,3.49-2.36,5.34-5.68,4.68-9.21-1.83-17.81.73-26.47,3.12-3.84,1.05-7.72,2-11.57,3-2.3.61-4.57,1.27-4.76,4.27-.21,3.15,1.41,5,4.22,6C538.87,340.61,543.38,340.59,547,340.75Z"/><path d="M689.77,1249.93c.23-2.82.24-5.68.74-8.45a11.65,11.65,0,0,1,7.44-9.32,6.59,6.59,0,0,1,7.44,1.34c2.27,2.27.49,4.32-.73,6.25-5.86,9.31-4.23,19-.68,28.34,2.31,6.08,8.65,6.67,14.46,6.83,5.6.16,10.08-2,12.77-7.09,1.92-3.68,1-7.11-1.27-10.29-3.66-5.06-8.44-8.93-13.34-12.7a20.4,20.4,0,0,1-4-3.64c-2-2.59-1.62-5.32.49-7.75,2.25-2.58,4.88-2.06,7.13-.27,7.06,5.62,13.77,11.62,18.43,19.51,8.17,13.85.07,29.32-16.23,31.07C700.54,1286.1,688.22,1273.28,689.77,1249.93Z"/><path d="M31.48,688.79a29.47,29.47,0,0,1-22.43-10.3,11.88,11.88,0,0,1-.52-15.19c1.17-1.53,2.58-2.62,4.67-2.17s2.45,2,2.71,3.73c.12.82.31,1.64.46,2.45,2.1,10.79,7.88,14,18,9.85,6.32-2.58,7.53-7,2.82-12-5.61-5.88-9.56-12.81-13.11-19.94-6.94-14,3.28-32.11,18.76-33.84,3.93-.44,6.84.38,7.88,4.83,1.07,4.62-1.46,6.35-5.22,7.45a57.61,57.61,0,0,0-8,2.68c-6.81,3.15-8.67,8.38-5.42,15.17,3,6.25,7.83,11.14,12.62,16s7,10.41,5.33,17.24C47.72,684.1,41.35,688.94,31.48,688.79Z"/><path d="M109.41,63.94c-16,0-27.23-15.56-22.4-31.95,4.58-15.54,16.28-27.75,35.22-10.89a43.75,43.75,0,0,1,9.12,11.12c5,8.76,4.05,15.86-3,23.06C123,60.78,116.08,64,109.41,63.94Zm15.23-21.11c0-9.28-7.64-15.88-17-14.87-6,.64-10,4.26-10.92,9.83a12,12,0,0,0,7,13c6.34,3,12.3.57,18.06-1.83C124.3,48,124.86,45.22,124.64,42.83Z"/><path d="M145.48,365.25c.06,4.32-1.89,6.47-5.06,7.35s-4.93-1.33-5.94-4c-1.93-5.11-2.27-10.66-4.64-15.72-2.82-6-6-7.85-12.18-5.78-4.84,1.61-8.07,5.07-10.45,9.5-1.58,2.91-2.79,6.06-5.2,8.47-2.09,2.09-4.34,2.13-6.81.69s-2.74-3.93-1.55-6.06c5.34-9.49,5.62-20.43,8.94-30.5a28,28,0,0,1,8-12.33c3-2.71,5-2.16,7.54.39A92.22,92.22,0,0,1,134.7,340.9c3.42,6.84,6.46,13.87,9.6,20.84A29.23,29.23,0,0,1,145.48,365.25Z"/><path d="M230.63,1501.57c0,3.86-2.62,5-5.74,5.73-6.88,1.64-7.9,2.82-7.88,9.8,0,10.13-1,20.32,1.1,30.37a45.47,45.47,0,0,0,2.45,8.09c2.25,5.32,0,9.76-2.51,14.11a4.11,4.11,0,0,1-4.83,1.77c-2.64-.68-3.65-2.63-3.9-5.17-.93-9.61-1.93-19.22-2.84-28.83-.58-6.12-.73-12.31-1.62-18.38-1-6.62-3.81-8.14-10.15-6.23-1.91.57-3.75,1.42-5.69,1.84-4,.87-6.36-1-7.19-4.94s1.2-6.1,4.85-6.66a178.2,178.2,0,0,0,31.89-8C224.9,1492.91,230.72,1496.47,230.63,1501.57Z"/><path d="M646.64,1877.45c0-6.32.05-12.65,0-19s-1.58-8-7.61-9c-5.46-.94-10.94-.5-16.42-.23-3.15.15-6.18-.26-6.78-4.21-.53-3.45.56-6.16,4.41-6.4,11.61-.72,23.23-1.42,34.86-1.73,4.83-.12,6.85,2.55,6.31,8.08-.94,9.76-2.2,19.49-3.51,29.21-.68,5-1.53,9.74,3.2,13.67,2.34,1.94,2.11,5.18.58,7.86-1.31,2.3-2.9,4.45-4.43,6.62a5.87,5.87,0,0,1-6.47,2.66c-3.12-.65-3.9-3.1-4-5.61-.18-7.31-.06-14.64-.06-22Z"/><path d="M204.53,33.91c-.42,10.62-4.1,19.68-11.6,27-7.88,7.67-18.88,6.5-24.8-2.75-7.26-11.34-8.75-24.26-9.28-37.29-.14-3.61,1.75-6.41,6-6.54,4-.12,5.57,2.32,6.09,5.83,1,6.59-.11,13.31,1.41,19.88a27.49,27.49,0,0,0,3.67,9.2c4.22,6.39,9.71,6.36,13.65-.16,5.73-9.49,6.71-19-.13-28.47-1.56-2.16-3-4.71-1-7.34,1.77-2.31,4.41-2.92,7.2-2.53,3.05.43,4.4,2.85,5.44,5.31C203.64,21.79,204.11,27.94,204.53,33.91Z"/><path d="M151.87,1219.65c-3.66-.1-6.67-1-7.08-5s2.61-5.17,5.71-5.55c14.7-1.79,29.41-3.55,44.15-5,5.37-.55,8.55,4.28,5.82,8.91-7.95,13.47-4.86,27.31-1.67,41.12.93,4,1.79,7.58-2.5,10-5.16,2.9-10.1.3-10.88-5.83-1.29-10.1-1.09-20.27-1.11-30.43,0-9.72-2.79-12.23-12.39-11.06-3.47.42-6.9,1.11-10.36,1.62C158.27,1218.84,155,1219.24,151.87,1219.65Z"/><path d="M181.68,369.29c-8.19.46-16.24-1.12-24.34-1.9-2.88-.28-4.62-1.85-4.18-5s2.66-3.59,5.17-3.38c6.14.51,12.26,1.17,18.39,1.7,2.67.23,5.62.58,6.64-2.82.9-3-1.24-4.67-3.41-6-7-4.32-10.12-11.4-12.72-18.55-2.29-6.28,5.33-17.86,11.86-19.13,2.67-.53,4.62.76,5.94,2.77,1.21,1.84.77,3.82-.71,5.51-3.22,3.66-8.88,7-6.35,12.47a32,32,0,0,0,16.08,15.66,21.62,21.62,0,0,0,2.86.91c3.11.91,6.4,1.87,6.48,5.85.08,4.31-1.76,7.78-6,9.49C192.37,368.91,187,368.7,181.68,369.29Z"/><path d="M425.85,1525.67c-.11,13.1-3.19,23-9.42,31.77-5.23,7.38-10.87,7.21-15.49-.5-2.65-4.41-4.91-9.06-7.22-13.66-4-7.88-8-15.72-13.57-22.61-2.22-2.74-2.67-5.48.55-7.69s5.9-.71,7.48,2.25c5.33,10,10.45,20,15.63,30.07,1.06,2,1.65,4.59,4.63,4.56s3.58-2.5,4.67-4.54c4.74-8.88,5.61-18,1.61-27.36a23.52,23.52,0,0,1-.65-2.4c-1.07-3.64-.18-6.23,3.78-7.24,4.13-1,6,1.25,6.55,4.8C425.15,1518.05,425.56,1523,425.85,1525.67Z"/><path d="M483.76,349.27c.44-4.49-.47-8.22-1-12-.67-4.66,1.15-7.27,5-7.6,4.6-.39,7.28,1.93,6.83,6.93-.95,10.81-4.05,21.23-6.3,31.8-.21,1-.45,2-.75,2.9-1,3.1-1.07,7.07-5.09,7.83s-5.93-2.52-8-5.1c-6.79-8.64-11.26-18.85-18.53-27.22-2.8-3.23-1.37-8,2.15-9.91,4.22-2.24,6.09.71,7.74,3.78,2.36,4.39,4.6,8.85,6.89,13.28,1.47,2.83,2.73,6,6.92,5,4.42-1,4.27-4.48,4.29-7.87A15.84,15.84,0,0,0,483.76,349.27Z"/><path d="M135.71,1252.67c-.35,2.17-.58,3.81-.88,5.44-.55,3-2.2,4.68-5.42,4.73-3.58.05-5.15-2.18-5.63-5.17-.55-3.43-.59-6.94-.91-10.41-1.05-11.43-3.69-22.58-5.81-33.82a34.22,34.22,0,0,1-.67-4.92,4.37,4.37,0,0,1,3.85-5c2.91-.59,4.53,1,5.14,3.48,1.86,7.57,3.53,15.18,5.24,22.79C132.37,1237.59,134.08,1245.35,135.71,1252.67Z"/><path d="M978.61,1907.36c-1.53,10.17-3,20.35-4.63,30.49-.63,3.82-3,5.84-7.09,5.19-4.3-.68-5.27-3.85-4.81-7.41,1.47-11.35,3.91-22.54,6.32-33.72.42-2,1.46-3.48,3.48-3.76s3.86.89,5.1,2.54C978.43,1902.64,978.64,1905,978.61,1907.36Z"/><path d="M954.33,1300.52c.84,9.31,0,18.3-5.73,26.15-2.22,3-5,5-9,3.34-3-1.25-4.33-3.22-1.68-6.1,8.41-9.13,10-19.5,5.76-31a11.91,11.91,0,0,1-.52-2.44c-.65-4.3,1.25-7.83,4.62-8.06,4.55-.31,6.14,2.84,6.44,6.61S954.33,1296.69,954.33,1300.52Z"/></svg>