<svg xmlns="http://www.w3.org/2000/svg" width="746.08" height="1868.91" viewBox="0 0 746.08 1868.91"><title>c16-txt</title><path d="M99.47,731.51c3.36.17,7.53.23,11.66.63,3.43.33,6,2.21,6.81,5.67.93,4,.82,8-2,11.37-1.63,2-4,1.59-6,.79a60.53,60.53,0,0,1-6.19-3.21c-10.51-5.55-20.79-3.2-30.43,6.94-9,9.45-10.83,20.19-5,30,7.8,13.19,20,16.66,34.3,15.16,13-1.35,25.24-4.53,35-14a4.91,4.91,0,0,1,4.6-1.26,23.14,23.14,0,0,0,4.47.39c9.48-.13,12.31-4.38,8.82-13.15-3.56-8.92-3.57-9,5.16-12.3,5.65-2.16,8.37-6.82,10.46-12,1.91-4.78,3.13-9.83,5.62-14.39,3.59-6.57,7.26-7.31,13.15-2.6a53.5,53.5,0,0,1,11,12.81c2.61,4,5.77,7.36,10.72,8.35,1.65.32,2.72.87,2.4,2.91-1.11,7.23,2.62,12.82,6.44,18.34,2.57,3.7,5.23,7.37,6.25,11.84.67,3,.9,6.08-1.63,8.4s-5.76,2.24-8.91,1.13a15.27,15.27,0,0,1-9.3-9.17c-1.62-4-2.94-8.13-4.67-12.09-3.62-8.3-8.82-10.35-17.31-7.13-5.87,2.23-9.47,6.58-11.74,12.22-2,5.09-3.91,10.25-6.09,15.28a34.81,34.81,0,0,1-4.2,7.33c-4.78,6.22-9.1,5.88-13.05-.8-4.07-6.87-5.59-7.12-11.8-1.82-14.72,12.55-31.52,18.25-50.85,15.12-20.81-3.37-33.93-20.27-33-42.14,1-21.14,16-36.62,37-38.06C93.68,731.84,96.17,731.71,99.47,731.51Z"/><path d="M98.81,1783.77c-.23,1.15-.65,3.26-1.06,5.38-1.6,8.14.53,11.72,8.6,14.1,5.88,1.73,12,2.53,17.48,5.7,9.34,5.43,12.74,13.84,9.54,24.18-2,6.49-5.67,12-10.08,17.08C112,1863.13,97.1,1868,80.61,1868.88a13.58,13.58,0,0,1-12.51-6.05c-2.16-3.18-4.76-4.33-8.83-3.9-10.06,1-14.2-2.51-14.69-12.79-.67-14-.64-28-4.48-41.58-1.35-4.8-3.05-9.5-4.44-14.29-3.07-10.59.52-15.89,11.46-16.1a160.73,160.73,0,0,0,29.17-3.65,28.15,28.15,0,0,1,14.81.85C96.56,1773.24,99.05,1777,98.81,1783.77Zm1.81,30.24c-.67,0-1.85,0-3,.19-13.67,1.88-23.49,11.16-34.49,18.13-1.89,1.2-2,3.5-.85,5.41,2.85,4.68,5.08,9.74,8.64,14a17.17,17.17,0,0,0,14.36,6.64c12.66-.31,32-15.74,34.77-28,1.49-6.56-.39-10.54-6.41-13.45A29.62,29.62,0,0,0,100.62,1814Zm-41.37-1.84c7.31.07,23.22-11.65,25.46-18.76a6.82,6.82,0,0,0-6.9-9A30.21,30.21,0,0,0,64.49,1788c-6,3.12-11.43,6.85-13.13,14C49.88,1808.24,52.9,1812.1,59.25,1812.17Z"/><path d="M426.28,1475.42c13.27,4.67,24.8,11.65,38.62,9.79,2.64-.35,5.23-1,7.87-1.34a6.85,6.85,0,0,1,7.38,4c1.46,2.81.4,5.17-1.38,7.34-4.07,5-8.79,7.41-15.69,6.24A204,204,0,0,1,411,1484.69a100.16,100.16,0,0,0-10.14-4.13c-3.42-1.16-5.87.18-6.95,3.69a40,40,0,0,0-1.72,12.3,28.33,28.33,0,0,1-2,11.23c-1.24,3.06-3.32,5-6.8,4.83-3.65-.16-5.73-2.26-6.77-5.63a14.17,14.17,0,0,1-.36-7.41c4.82-21.07,2.75-40.91-9.65-59.25-3.51-5.18-2.4-10.3,1.57-12.88,5.6-3.64,11.48-1.65,13.5,4.72.75,2.36.86,4.92,1.46,7.33.67,2.66,1.78,5.1,4.94,5.61,3,.48,4.66-1.45,6-3.64,9.78-16.33,25-19.7,42.33-17.5,6.73.86,10.11,4.55,11.71,11.16,3.33,13.75.13,25-12.12,33C433,1470.15,430.15,1472.51,426.28,1475.42Zm-16.82-15.26c5.15,0,12.93-1.92,16.59-3.93,5-2.74,7.3-7.09,7.41-12.68.07-3.12-1.56-4.92-4.58-5.62-6.68-1.55-21.45,4-25.17,9.56-1.86,2.8-3.8,6-2.28,9.3C403.05,1460.34,406.88,1460,409.46,1460.16Z"/><path d="M319.06,1154.15a188.25,188.25,0,0,0,1-22.69c-.19-11.49-3.2-21.93-10.31-31.16-4.54-5.88-3.18-10.77,3.14-13,4.68-1.64,8.06-.18,9.95,4.65,1.64,4.17,2.88,8.5,4.38,12.72.87,2.48,2.22,4.56,5.28,4.47,2.8-.08,4.18-2,4.83-4.34,4.64-16.68,18.5-23.09,32.59-29,5.87-2.47,11.22-.94,15.85,3.88,7.65,7.95,10.44,16.51,6.09,27.26-2.71,6.68-5.24,13.14-10.45,18.46-4,4.06-3.09,8.23,2.26,10.2,9.94,3.65,19.45,8.73,30.33,9.57,5.86.45,9.09,3.86,8.68,8.27-.59,6.3-5,9.76-10.78,7.17-21.09-9.43-44.05-12.78-65.56-20.76-6.8-2.52-9.4-.94-10.33,6.42a53,53,0,0,1-2.33,11.21c-2.18,6.19-4.6,8.22-8.9,7.41C320.23,1164,318.79,1161.49,319.06,1154.15Zm33-29.51c14.13,0,26.2-12.64,25.78-27-.14-4.85-2.68-6.92-7.49-5.93-12.1,2.49-19.57,10.64-25.25,20.9C340.71,1120.52,343.13,1124.65,352.05,1124.64Z"/><path d="M581.49,1426.66c12.39-.11,23,4.58,32.54,12.11,5.1,4,10.24,8,16,11,9.21,4.84,16,4,23.75-3,6.5-5.8,11.83-12.63,17-19.56.8-1.06,1.48-2.22,2.33-3.24,2.26-2.74,4.93-4.39,8.71-3.37,3.6,1,4.28,3.85,4.68,6.92,1.46,11.38,3,22.76,4.32,34.16,1,8.35,3.48,15.9,10,21.65a9.73,9.73,0,0,1,3.13,6.09c.58,3.8-.48,7-3.87,9s-6.4.69-9.12-1.6a37.12,37.12,0,0,1-13-23.49c-.74-4.76-1.37-9.55-2-14.33-.47-3.78-1.17-7.41-5.55-8.53s-6.67,1.92-8.84,5c-3.54,5-6.82,10.28-11.11,14.73s-7.19,4.91-12.4,1.68a109.15,109.15,0,0,1-10.83-8,95.9,95.9,0,0,0-24.53-14.19c-6.38-2.54-9.74-.76-11.72,5.79-1.84,6.08-2.35,12.41-3,18.7a55.1,55.1,0,0,1-4.42,15.77,8.06,8.06,0,0,1-6.79,5.21c-7.32.89-10.76-2.7-9.43-9.94,2-11.06.91-22.24,1.13-33.36.09-4.84-1.59-9.41-4-13.76-2.86-5.28-1.33-8.35,4.52-10A46.32,46.32,0,0,1,581.49,1426.66Z"/><path d="M309.9,1779c.31,12.32-6.31,21.07-17.8,26.68-1.79.87-3.55,1.84-5.27,2.85-6.94,4.08-7.27,6.34-1.11,11.28,6.61,5.32,13.42,10.41,20.26,15.43a39.09,39.09,0,0,0,20.24,7.79,8.68,8.68,0,0,1,7.32,4.52,7.47,7.47,0,0,1-.5,8.49,6.1,6.1,0,0,1-7.6,2.16c-16.54-7.63-34.49-12.57-48.5-25.09a45.36,45.36,0,0,1-11.58-15.47c-3.76-8.47-1.47-14.87,7-18.31,6.4-2.6,12.06-6.3,17.75-10,3.16-2.08,6.14-4.35,4.59-8.87-1.39-4-4.81-5.54-10.28-4.74-12.12,1.78-20,9-25.42,19.54s-5.78,22.09-6.94,33.49c-.21,2-.45,4-.74,5.94-.58,3.93-2.33,6.59-6.85,6.1-5-.55-8-3.38-7.53-8,.6-6.45,1.78-12.85,2.56-19.29,1.22-10.16,1.4-20.28-2.51-30-1.6-4,.19-6.6,3.52-8.06s6.32-.74,8.13,3.2c3.15,6.89,4.68,6.93,9.23.77,9.89-13.38,27.66-19.75,41.88-15C307.33,1766.81,310.43,1771,309.9,1779Z"/><path d="M262,781.48c-.44-4.26,1-9,1.56-13.73,1.22-10.82-.52-20.87-7.07-29.86-3.15-4.33-2.49-8.11,1.57-10.59,3.9-2.39,6.6-1.27,9.34,3.89,3.61,6.79,6.36,7.14,10.54.64,7.06-11,16.27-17.41,29.87-15.86a13.76,13.76,0,0,0,3-.26c11.41-1.27,14.91,1.4,16,12.82.9,9.22-2,17.06-9.34,23a42.81,42.81,0,0,0-7.76,7.75c-3.37,4.63-2.84,7.37,2.35,9.92,7.65,3.76,16,5.64,24.13,7.92a50.55,50.55,0,0,1,6.62,2.13c2.62,1.13,3.58,3.39,3.11,6.16-.5,2.93-2.12,5-5.23,5.15a18.88,18.88,0,0,1-5.9-.56c-15.25-4.14-30.72-7.46-45.39-13.58-7.37-3.08-10-1.51-12.39,6.31a51.83,51.83,0,0,1-2.14,6.1c-1.58,3.6-4.46,4.72-8.2,3.88-3.55-.8-4.81-3.21-4.66-6.64C262.06,784.78,262,783.45,262,781.48ZM304.83,729c-10.26.14-17.48,4.68-20.52,12.81-1,2.57-2.4,5.37-.09,8s5.29,2.55,8.29,2c7.41-1.42,13-5.68,17.21-11.74,1.47-2.12,4.36-3.86,2.56-7.35S307.6,728.82,304.83,729Z"/><path d="M1.88,1140.25c3-21.19-1.44-42.16-1.87-63.24a29.77,29.77,0,0,1,1.1-9.4c1-3.09,2.87-5.19,6.3-5.58s4.47,2.16,5.65,4.6c3.07,6.33,8.5,10.66,13.45,15.28,12.3,11.46,26.21,21.09,37.95,33.22,1.26,1.3,2.88,2.59,4.87,1.77,2.66-1.1,3.4-3.69,3.56-6.18.82-12.83-.21-25.24-8-36.27-3.7-5.24-2.33-9.82,3-12.34,5.08-2.39,10.34-.07,10.85,5.54,1.23,13.3,5.35,26.07,6.76,39.33a59.61,59.61,0,0,1-2,21.74c-1.16,4.43-3.71,7.77-8.56,8.79-4.52,1-7.81-1.08-10.44-4.36-10.21-12.69-22.81-22.81-35.32-33-1-.84-2.1-1.64-3.18-2.41-2.63-1.88-5.42-2.52-8.41-.88-3.2,1.75-3.33,4.6-2.86,7.78A198.45,198.45,0,0,1,17,1139c-.12,4.32-.57,8.64-.94,12.94a12.11,12.11,0,0,1-2.48,6.45,7,7,0,0,1-7.61,2.5c-3.1-.74-4.05-3.19-4.06-6.11C1.87,1149.91,1.88,1145.08,1.88,1140.25Z"/><path d="M402,109.17c-14.61-.06-29.49-10.71-33.49-24.57-5.22-18-5.09-35.51,7.74-51,9-10.92,24.67-11.14,34-.29a7.94,7.94,0,0,1,1,9.71c-1.93,3.45-5.15,2.34-8,1.71-9.06-2-16.08,1.48-21.4,8.48-5,6.57-6.36,13.84-2.3,21.51,3.74,7.08,9,7.51,13.1.64,5.82-9.66,14.63-14.9,24.59-19.38,13.61-6.11,19.51,3.81,21.7,14.36a8.48,8.48,0,0,1-.17,4.45c-5.39,14.25-13.16,26.56-27.87,32.87A18.67,18.67,0,0,1,402,109.17Zm13.75-33.08c-7,.13-15.49,5.64-17.5,11.38-1.58,4.54.81,8.42,5.25,8.5,6.47.12,15.16-6.56,16.82-12.94C421.39,79,419.42,76,415.77,76.09Z"/><path d="M136.53,20.35a20.46,20.46,0,0,1,12.74,6.48c5.36,5.47,10.61,11.05,16,16.44,7.65,7.59,16.61,11.07,27.27,7.57,3.18-1.05,5.27.26,6,2.57.94,2.81-1.86,4-4.06,4.61-2.86.82-5.87,1.11-8.79,1.76-3.57.79-6,2.93-6.62,6.62s1.29,6,4.14,7.84c.7.46,1.44.85,2.11,1.34,3.05,2.24,8.05,2.93,7.48,8.18-.52,4.83-8.12,12.63-12.41,13.4a5.71,5.71,0,0,1-6.34-3c-2.43-4.3-5.45-8.35-6.23-13.46A31.57,31.57,0,0,0,166.35,75c-1.89-5.33-5.14-7.36-10.44-5.43-6.76,2.46-13.74,3.93-20.61,5.85A17.79,17.79,0,0,0,123.37,85.9c-2.61,6-5.57,7.66-9.65,5.84-4.35-1.92-5.91-6.55-3.5-11.91,6.89-15.34,13.11-30.91,17.24-47.25.57-2.26,1-4.56,1.69-6.78C130.28,22.19,132.92,20.48,136.53,20.35Z"/><path d="M246.28,77.08a37.12,37.12,0,0,1-1.11,13.44c-1.32,4.52-4.24,6.54-8.94,6s-5.35-3.83-5.64-7.51c-.93-11.93-.24-24-2.19-35.84a61.68,61.68,0,0,0-4.78-15.68c-3.61-7.95,1-16.54,9.66-18.23,4.09-.8,6.82,1.34,8.77,4.41,13.09,20.51,32.74,32.66,54.07,42.7,2.34,1.1,4.92,3.17,7.42,1.25,2.83-2.18,1.68-5.5,1-8.37-2.53-10.5-5.37-20.93-7.19-31.59-.45-2.67-.84-5.37,1.37-7.51,2.91-2.81,7.23-1.68,9.25,2.74,3.12,6.84,4.56,14.23,6.42,21.47,1.95,7.56,3.75,15.17,5.31,22.82,1.21,5.91.69,11.66-3.6,16.43-3.72,4.14-6.88,4.37-11.36,1.25-15.49-10.79-33-17.77-49.83-26-4.9-2.39-7.27-.68-8.38,4.82C245.75,67.54,246,71.37,246.28,77.08Z"/><path d="M538.72,1825.51c1.38-19-6.78-26.9-25.72-25-7.11.71-14.23.94-21.4,1-5.59,0-11.13.85-16.72-.41-2.68-.61-3.85,1.15-4.3,3.64-1.53,8.43,1.16,15.76,5.93,22.49,1.73,2.43,3.91,4.54,5.64,7,3.12,4.41,2.54,10.48-1,13.06s-10.23,1.09-13.3-3.16a18.79,18.79,0,0,1-3.07-7.82c-2.82-15.71-5.7-31.41-8.5-47.12a11.1,11.1,0,0,1,.35-6.4c1.23-2.89,3.61-3.83,6.49-3.54s3.88,2.27,4,4.86c.09,1.49,0,3,.14,4.48.31,2.72,1.76,4.61,4.65,3.75,15.8-4.73,31.74-1.43,47.62-1,2.66.07,5.33,0,8-.11,4.24-.2,6-2.56,5.2-6.65a26.58,26.58,0,0,1-.36-8.93c.46-3.25,1.65-6.39,5.19-7.26,4-1,8.08-.56,11,2.84,5.92,6.84,7.37,14.89,4.84,23.35a84,84,0,0,0-3.35,22.1c-.17,6.5,1.93,12.12,7.46,16,4.84,3.41,3.57,7.68,1.74,12-2.26,5.39-5.39,7.15-11.45,6.46-4.64-.53-7.13-3.32-7.8-7.77C539.13,1837.46,538,1831.55,538.72,1825.51Z"/><path d="M286.38,1451.27c10.09-1.16,21.16-2.46,32.23-3.69a23.29,23.29,0,0,1,5.95-.13c3.13.46,4.46,2.77,4.37,5.75s-2.05,3.67-4.64,4.19c-10.75,2.14-21.54,4.19-32.16,6.87-11.89,3-14.56,7.87-11.72,19.76a53.83,53.83,0,0,0,4.64,13.12c2.48,4.62,3.07,9.48.47,14.32-1.53,2.85-3.42,5.69-7.09,5.41a9.79,9.79,0,0,1-8.28-5.67,11.71,11.71,0,0,1-1.21-5.28c.6-19.27-4.2-37.57-9.78-55.74a93.53,93.53,0,0,1-2.78-10.61c-1-5.28,1.1-8.65,6.18-10.44a21,21,0,0,1,5.81-1.31c19.48-1,38.62-4.57,57.9-7,6.85-.87,10.72,3.17,9.78,9.64-.54,3.77-2.62,6.71-6.6,5.8-17.25-3.92-32.59,4.83-48.92,6.92-2.19.28-3.71,1.42-3.64,3.93a4,4,0,0,0,3.56,4.15A40,40,0,0,0,286.38,1451.27Z"/><path d="M369,750.89c.21-9.43,1.74-19.61,3.69-29.76.85-4.43,3.23-6.85,7.65-7.12,13.45-.82,26.91-1.56,40.36-2.34,6.95-.4,13.9.17,20.87-.55,5.07-.52,7,1.8,6.95,6.76s-2,7.28-7.2,6.32c-17.75-3.28-34.63,2.77-51.91,4.3-7.61.68-9,3.17-8.51,11.67.39,7.28,3.34,10.45,10.28,11,9.12.66,17.83-1.93,26.68-3.34,2.3-.37,4.59-.82,6.91-1,2.51-.24,4.73.25,5.2,3.31.43,2.81-1,4.55-3.56,5.17-4.36,1-8.75,2-13.18,2.72-7.88,1.24-15.67,3.06-23.7,3.42-5.09.24-7.6,4.17-6.06,9.11,1.43,4.6,4.66,8,8.1,11.2,2.49,2.27,4.95,1.23,7.09-.79,3.09-2.92,6.19-6.25,10.7-2.62,3.07,2.47,2.28,6.77-1.84,12-2.94,3.72-6.33,6.81-11,8.28-7.23,2.26-14.1-.66-18.35-8.29C371.52,778.31,369,765.35,369,750.89Z"/><path d="M65.15,0c9.47-.07,13.44,3.19,12.74,10.44-.46,4.73-2.4,6.31-6.94,4.87-9.76-3.09-18.74-.93-27.37,3.65-9.18,4.87-10.52,11.38-4.16,19.49,5.58,7.11,12.93,11.93,21,15.71C64.92,56.28,69.62,58,74.19,60c5.27,2.33,7,5.51,6.13,11.13-2.51,17-25.13,33.35-42,30.15-9.21-1.74-16.2-7.55-22.9-13.55C12.31,84.92,13,73.82,16,70.8a5,5,0,0,1,5-1.47c2.05.51,2.78,2,3.08,4,1.8,12,5.45,14.86,17.53,13.76A28,28,0,0,0,61.1,77.07c3.89-4.58,3-8.47-2.62-10.81-3.52-1.48-7.22-2.55-10.7-4.11-7.22-3.25-13.6-7.69-18.45-14.1C21,37,21.68,24.56,31.19,14.55A48.59,48.59,0,0,1,65.15,0Z"/><path d="M607.13,799.38c-18.87-.06-31.39-9.33-34.64-25.83a26.94,26.94,0,0,1,2.94-19.27,69,69,0,0,1,22.46-23.64,23.91,23.91,0,0,1,17.53-3.81c9.71,1.55,18.73,4.4,26.53,10.53,15.29,12,16.8,31.7,3.53,45.94C635.12,794.42,622.1,799.26,607.13,799.38Zm1-13.68c9-.5,15.16-1.42,20.93-4.35,9-4.56,13.68-13.86,11.63-23.17-2.16-9.84-13.49-20.55-22-20.7a14.88,14.88,0,0,0-4.91.77,47.7,47.7,0,0,0-27.43,22.63c-2.66,4.79-2,9.75,1,14.21C592.9,783.5,601.32,785.77,608.18,785.7Z"/><path d="M389.93,391.54c9,0,17.58,1.45,25.32,6.3,9.61,6,13.64,15.44,11.42,26.54a45.62,45.62,0,0,1-3.87,11.28c-12.16,24.49-47.2,27.12-63,4.58-7.32-10.46-7.41-21.94-2.56-33.27,4.44-10.37,13.82-13.73,24.23-14.88C384.28,391.78,387.12,391.71,389.93,391.54Zm2.33,50.62c11.7-.36,22.28-10.92,22.23-22.17-.05-9.57-8.24-15.67-17.23-13.07A103.45,103.45,0,0,1,386,409.1c-3.63.62-7.29,1.26-10.35,3.38-3.46,2.38-6.74,5.13-6.22,10C370.48,432.21,382.42,442.46,392.26,442.16Z"/><path d="M224,397.11c1.48,10.49.46,22.41,2.75,34.08a67.79,67.79,0,0,0,3.9,12.85,13.75,13.75,0,0,1-4.17,15.75,5.07,5.07,0,0,1-6,.59c-5.05-2.46-7.1-6.61-7.56-12-1.2-14.08-1-28.29-3.9-42.21a78.72,78.72,0,0,0-3.09-11.53c-2.06-5.6-5.07-6.85-11.06-5-5.72,1.75-11.23,4.14-17.19,5.08a24.92,24.92,0,0,1-8.44.05c-4.17-.77-6.4-3.18-6.39-7.58s2.11-7.25,6.24-7.78c22.17-2.89,43.8-8.14,65.32-14,5.88-1.61,7.64-.05,8.71,6.19.28,1.63.72,3.26.86,4.9.53,6.54-2.13,9.21-8.33,8.46C225.57,383.7,223.4,385.74,224,397.11Z"/><path d="M717.16,739c-2.65,0-5.32-.17-8,0-7.12.55-10.16,4-10.28,11.42s2.8,11.29,9.77,11.93A68.21,68.21,0,0,0,733,760.66a39.67,39.67,0,0,1,5.34-1.23c4.62-.6,7.2,1.39,7.72,5.65.53,4.44-1.74,6.56-5.85,7-6.95.72-13.91,1.29-20.87,1.94a80.07,80.07,0,0,0-8.91,1c-7.26,1.51-9.77,5.51-8,12.67.66,2.73,1.9,5.33,2.59,8,.6,2.37.21,4.67-1.94,6.28s-4.12,1-6.15.12a9.6,9.6,0,0,1-5.79-8.12c-.34-3-.61-6-1.08-8.92-1.09-6.8-4.31-12.1-10.63-15.37-3.89-2-3.93-4.26-.39-6.9,10-7.49,10.16-8,5.32-20a112.7,112.7,0,0,1-4-10.75c-1.54-5.27-.22-7.39,5.28-7.37,10.29.05,20.61.36,30.87,1.16,6.21.49,11.9.34,16.92-3.89,3.65-3.08,6.66-2.6,9.58,1.27s2.79,7.7-.89,10.45c-5.29,4-11.55,4.92-17.92,5.32C721.83,739.12,719.49,739,717.16,739Z"/><path d="M116.73,1117.61c.38-12.47,4.27-22.54,14-29.69,6.14-4.49,13-5.82,20.33-3.33a52.37,52.37,0,0,1,29.57,24.65c3.26,5.78,3.54,12,1.41,18.32-6.57,19.61-26.88,30.25-43.69,22.45C124.44,1143.54,117.23,1132.35,116.73,1117.61Zm28.82-16.44c-10.16-.1-15.47,6.26-15.67,18.78-.17,9.89,8.66,18.64,18.86,18.7,11,.06,21.71-9.47,21.75-19.3C170.52,1109.76,158.9,1101.3,145.55,1101.17Z"/><path d="M293.29,449.13c-2.83-.48-7-.93-11-1.88-10.12-2.39-17.76-7.87-20-18.55-2.4-11.41.19-21.65,9.55-29.22,10.71-8.67,23.5-11.53,36.66-9.16,12.2,2.19,19.15,11.38,22.66,22.91,3.2,10.49-2.22,18-9.54,24.44A43.2,43.2,0,0,1,293.29,449.13ZM296.1,403c-12-.08-17.76,5.12-18.94,17.08-.91,9.16,2.59,13.33,11.87,14,6.53.48,13-.58,19.27-2,5.11-1.19,9.44-3.74,10.43-9.44A14.33,14.33,0,0,0,313,408.09C308,404.29,302.26,402.93,296.1,403Z"/><path d="M491.52,1464.46c.32-5.64.76-11.26,2.51-16.7,5.14-16,22.74-21.85,36.56-12.09,18.93,13.38,21.87,43.74,5.85,60.45-10.61,11.07-27.83,9.78-37.37-2.84C492.61,1484.72,491.27,1474.79,491.52,1464.46Zm13.43,5.06a28.37,28.37,0,0,0,1.46,9.48c1.65,5,5,8.24,10.31,8.94,5.74.76,11-.34,14.67-5.35,5.47-7.48,4.66-23.67-1.44-30.56-7-7.89-18-6.43-22.51,3.06C505.41,1459.37,504.71,1464,505,1469.52Z"/><path d="M273.81,1128c-.16,6-1.1,14.64-5.14,22.55-5.11,10-14.6,12.41-23.8,5.92-11.09-7.81-17.47-19-21.72-31.53-3.42-10.11-5.41-20.59-8-30.91-.84-3.33-.28-6.35,3.35-7.92a9.07,9.07,0,0,1,10.71,3,11.39,11.39,0,0,1,1.83,6.62c.07,15.71,6.8,29.32,13.71,42.82,2.2,4.31,6.06,5.53,10.62,4.29,4.23-1.15,6.71-4.24,6.36-8.46-.64-7.8.3-15.65-1-23.4a43.76,43.76,0,0,0-7.33-17.86c-3.41-4.93-2.56-9.62,1.64-12.16,5.35-3.24,11.19-1.15,12.39,5C270,1099.05,273.25,1112,273.81,1128Z"/><path d="M401.89,1769.68c6.55-.74,12.89.27,19.18-.89a8.15,8.15,0,0,1,8.74,3.58,7.62,7.62,0,0,1,.83,7.62c-1.05,2.2-3.53,2.12-5.74,2.2-8.23.28-10.11,2.43-10,10.72.16,11.16.26,22.32.19,33.48,0,6,1.67,11,6.24,15.13,4.09,3.69,3.77,7.24-.6,12-3.93,4.32-5.57,4.15-10.52.53-4.78-3.5-6.49-8-6.75-13.7-.64-14-1.28-27.94-2.4-41.87-1.07-13.19-6.68-17.13-19.71-14.77a62.67,62.67,0,0,0-11,3.19,15.25,15.25,0,0,1-14.7-2,5.91,5.91,0,0,1-2.65-6.49c.53-2.76,2.54-3.88,5-4.15C372.7,1772.68,387.3,1769.89,401.89,1769.68Z"/><path d="M548.53,423a263.68,263.68,0,0,1-42.26-3.82,25.76,25.76,0,0,1-6.18-1.86c-5.69-2.52-7.42-6.76-5.36-12.6,1.72-4.88,5.1-8.57,8.84-11.91,7.3-6.54,16-11.47,22.13-19.36,1.55-2,3.89-1.69,5.91-.41a8.39,8.39,0,0,1,4,8.55,12.67,12.67,0,0,1-5.89,9.44c-1.39.89-3,1.53-4.41,2.32-2.78,1.49-6,2.69-5.37,6.82s3.51,6,7.1,6.77c7.15,1.53,14.37,2.74,21.55,4.09,1,.19,2,.37,2.92.64,3.66,1,5.9,3.12,5.11,7.24S552.9,423.6,548.53,423Z"/><path d="M468.89,378.87c0-4.79,2.26-7.38,6.68-8.16,4.26-.75,7.23,1,8.47,5.05,1.8,5.92,3,12.26,2.51,18.19-1.2,14.23,4.36,26.87,7.95,39.93,1.3,4.73,1.47,8.64-.73,12.85-2,3.81-4.95,5.84-9.29,5.14-4.58-.72-7-3.75-7.32-8.21-.34-5.14-.13-10.32-.39-15.47-.83-15.8-2.15-31.53-7.4-46.63A14.48,14.48,0,0,1,468.89,378.87Z"/><path d="M197.12,1815.81c-1.26,7,1,14,3.34,21.2,1,3.18,1.44,6.71-1.69,9.16a8.16,8.16,0,0,1-8.5,1c-3.62-1.48-4.87-4.8-4.63-8.13,1.45-20.64-3.33-40.21-9.48-59.62-1.15-3.63-.34-6.49,4-7.62,5.21-1.37,9.48.22,10.78,5.09,2,7.52,3.52,15.19,5.1,22.82A67.75,67.75,0,0,1,197.12,1815.81Z"/></svg>