<svg xmlns="http://www.w3.org/2000/svg" width="797.58" height="1427.12" viewBox="0 0 797.58 1427.12"><title>c17-txt</title><path d="M66.43,1411.46a44.67,44.67,0,0,1,7.69-25.92c2.38-3.61,4.52-7.37,6.73-11.09,3.33-5.6,5.73-5.83,9.46-.59q9.54,13.46,19.8,26.35c4.78,6,9.81,11.43,18.24,11.66,2.31.07,4.7.68,6.29-1.81,1.74-2.74-.53-4.28-1.76-6.12-3.92-5.85-7.39-11.87-8.24-19-.71-6,1.28-10.62,5.55-12.9,1.72-.91,3.35-1.52,4.95.24,1.45,1.6,1.65,3.27.25,4.93-5.75,6.85-3.7,13.23,1.16,19.41,2.36,3,4.95,5.84,7.28,8.88,3.61,4.72,2.54,9.93-2.85,12.27-4.43,1.92-9.1,3.1-14,1.26-2.8-1-5.73-1.73-8.62-2.51-9-2.41-15.3-7.46-18.4-16.58-2.29-6.76-4.13-7.29-10.81-5.68-7.46,1.8-13.77,4.37-13.19,13.88.1,1.66-1.2,3.42-1.87,5.11-.88,2.2-1.69,4.59-4.85,3.82S66.28,1413.83,66.43,1411.46Z"/><path d="M31.51,1425.93c-1.83-.45-4.57-.7-6.93-1.79-3.91-1.82-7.33-3.74-11.94-1.28-2.7,1.44-4.09-1.2-4.28-3.84-.38-5.14-.74-10.28-1-15.43-.31-6.27-1.66-12.15-5.72-17.19-2.68-3.32-2.08-6.18,1.7-8.14,6.49-3.36,12.83-7,19.72-9.55,4.1-1.51,8.32-2.21,11.53,1.51a11.56,11.56,0,0,1,2.19,12.51c-2.4,6-1.06,8.84,5,11.14.78.29,1.57.56,2.36.8,11.82,3.51,14.83,14.73,6.11,23.48C45.39,1423.05,39.21,1425.4,31.51,1425.93Zm-2-7.73c5.61-.27,10.7-1.9,14.94-5.75,2.25-2,2.48-4.67,1.71-7.33s-3.2-2.83-5.6-3.16c-7.84-1.09-15.08.78-22.08,4-4.4,2-4.87,5.43-1.05,8.32A18.94,18.94,0,0,0,29.53,1418.2Zm1.62-36.63c0-3.63-2.25-5-5.48-5-6.93.13-11.85,4-15.5,9.39-2.16,3.21,1.68,10.19,5.36,10.45C20.62,1396.81,31.19,1386.75,31.15,1381.57Z"/><path d="M781.62,1410.17c-13.26.43-23.32-4.52-30-15.71-.9-1.5-1.78-3-3.81-2.37-1.77.53-1.64,2.25-1.92,3.71-.52,2.68.25,5.29.33,7.94s.1,5.25-3.59,5.24c-3.33,0-4.1-2.34-4.22-5-.23-5-.19-10-.61-14.94a96.34,96.34,0,0,0-3.13-16.63c-.68-2.56-1.2-5.29,1.23-7.42,1-.84,2-1.28,3.12-.32,2.33,2.07,3.89,4.54,3.48,7.86,0,.32-.12.65-.17,1-.34,2.08-2.74,4.89.63,5.92,2.78.86,2.91-2.52,3.76-4.32,3.79-8.11,9-14.3,18.78-15,8.57-.58,14,3.05,15.24,10.77,1.39,8.55-4.13,17.12-12.32,19.09-.81.2-1.69.1-2.46.37-1.39.47-3.08.83-3.35,2.57-.22,1.49,1.06,2.41,2.13,3.14,8,5.53,16.56,6.36,25.52,2.48,2.15-.93,4.46-3.4,6.32,0,1.66,3,1.33,6.17-1.52,8.56C791,1410.47,786.08,1410.21,781.62,1410.17Zm-22.06-26.67c5.69-.29,10.51-2.63,13.69-7.58,2.72-4.24.69-8.29-4.28-9.17-5.33-.94-9.85.81-13.75,4.3-2.64,2.36-5.31,5-4,9S756.49,1382.71,759.56,1383.5Z"/><path d="M571.49,877.82c0,1,.06,1.66,0,2.32-.27,2.59.1,5.78-3.73,6s-4.55-2.88-4.51-5.81c.13-9.65-.88-18.92-7-27-1.47-1.94-.61-3.88,1.21-5.18s3.78-.81,5.26.94a17.09,17.09,0,0,1,1.07,1.68c3.05,4.52,3.77,4.61,6.8-.22a21.35,21.35,0,0,1,15.76-10.24c6.59-1,12.64.48,17.54,5.19s4.24,9.65-1.2,13.37c-3.48,2.38-7.53,3.46-11.41,4.94-1.83.7-4.23,1-4.47,3.4-.28,2.79,2.47,2.69,4.16,3.41,6.51,2.76,12.37,7.37,20,6.77,1.87-.14,3.66,0,4.87-1.75,1.06-1.58,1.57-4,4.22-3.43,1.89.45,2.27,2.21,2.39,4,.17,2.72-.51,5-3.28,6.07-3.92,1.57-8,2.68-12.18,1.67-9.7-2.35-19.28-5.12-28.06-10.09-1.94-1.1-3.88-3.45-6.22-2.13S571.61,875.9,571.49,877.82Zm25.61-27c-.46-1.45-1.22-2.86-3.28-2.81a54.82,54.82,0,0,0-8.42.33A15.23,15.23,0,0,0,574.28,856c-.78,1.37-1.09,2.75,0,4.17s2.33,1.19,3.6.73q8.16-2.94,16.27-6A4.44,4.44,0,0,0,597.1,850.86Z"/><path d="M749.94,391.66c.08,3.31,1.29,6.54-2.61,7.2s-4.41-2.53-5.2-5.33c-1.68-6-2.31-12.08-3.23-18.17s-2.3-12.09-5.41-17.54c-1.56-2.73-1.48-5.36,1.73-6.6,3.41-1.33,4.32,1.5,5,3.95.84,3,1.4,6.16,2.13,9.24.42,1.74.57,3.9,3.08,3.81,2.27-.08,2.36-2.19,2.6-3.71,1.13-7,4.18-12.48,11-15.59,7.43-3.43,13.32-.24,14.34,7.95a20.64,20.64,0,0,1-3.82,14.6c-4,6-2.89,9,3.9,11.71,5.23,2.1,10.51,1,15.79.54a33.23,33.23,0,0,1,4.95-.39,3.09,3.09,0,0,1,3.13,2.71c.27,1.83-.21,3.54-2.14,4-9.3,2.15-18.61,6-28,.15-3.11-1.94-6.28-3.8-9.54-5.44-5.56-2.78-7.12-1.87-7.65,4.2A25.18,25.18,0,0,0,749.94,391.66Zm2.44-23.44c0,2.23,1.43,3.8,4.62,3.39,4.47-.58,10.06-8.1,9.26-12.54-.49-2.71-2.26-3.34-4.78-2.77C756.57,357.43,752.58,362.26,752.38,368.22Z"/><path d="M531.33,852.66a11.3,11.3,0,0,1-.4,2.91c-1.14,3.38.59,5,3.4,6.06,2,.73,4.18,1.12,6.19,1.88,7.48,2.81,10.52,8.66,8.78,16.69-1.37,6.34-6.88,10.06-14.49,9.15-8.26-1-16.17-3.65-24-6.36-4.94-1.7-6.75-6-7.51-10.89-1.21-7.87-.38-16-2.83-23.7a3.19,3.19,0,0,1,2.31-4.31c4.12-1.25,8.17-2.79,12.34-3.82C524.36,838,531.44,843,531.33,852.66Zm-1.82,29.51a14.26,14.26,0,0,0,7-.35c2.71-.69,4.11-2.67,4.25-5.49.11-2.42-.78-4.46-3.17-5.06-6.2-1.55-12.47-2.25-18.67,0-2,.73-3.48,2-3.6,4.32-.12,2.58,1.42,4,3.5,4.94C522.11,882,525.61,882.2,529.51,882.17Zm-13.6-20c3.35-.22,6.1-2.51,8.06-5.79a4.53,4.53,0,0,0-2.84-7,6.24,6.24,0,0,0-7.12,2.33c-1.92,2.58-3.1,5.52-2.05,8.84C512.46,862.05,513.84,862.16,515.91,862.13Z"/><path d="M673.82,1073.06c-14.25.42-25.42-5.83-34.25-16.86-.83-1-1.52-2.37-3.14-1.74s-2.1,2-2.07,3.64c.07,3.82,1,7.63.24,11.44-.43,2.21-.4,5.14-3.46,5.33-3.42.21-3.87-2.69-4-5.21-.45-9.33-1.76-18.48-4.95-27.32a4.51,4.51,0,0,1,1.93-5.67c2.4-1.51,3.7.27,5,1.75,2.14,2.42,3.79,1.82,5.65-.46,5-6.14,12-8.19,19.45-8.7,6.78-.46,11.73,2.68,13,7.73a14.1,14.1,0,0,1-7.12,16,12.37,12.37,0,0,1-1.83.8c-1.76.57-3.71,1.06-3.87,3.31-.19,2.49,1.53,3.89,3.49,5,6.83,3.86,14,6.09,22,4.72,2.23-.38,4.6-.53,4.76,2.67s-2.08,3.75-4.68,3.62c-.5,0-1-.07-1.5-.08Zm-26.53-25.19c2.82.06,6.33.69,9.45-1.51,3.4-2.38,4.33-8.56,1.33-9-5.22-.74-10.84-2.59-15.78,1.08-2.46,1.82-4.64,4.31-3.61,7.54s4.19,1.74,6.51,2A16.78,16.78,0,0,0,647.29,1047.87Z"/><path d="M346.85,700.42c.3,6-1.69,11.2-8.44,13.66-3.12,1.14-3.85,2.9-1,5.44a48.37,48.37,0,0,1,4.26,4.87c2.48,2.89,5.27,4.58,9.17,2.68,1.94-1,4.05-1.34,5,1.21s-.67,4.14-2.95,4.85c-6.51,2-12.5,1.22-17.54-3.74-3.66-3.62-7.07-7.53-12.07-9.46s-7.05-.92-7.8,4.52a20.66,20.66,0,0,0-.12,2.49c0,1.8-.46,3.56-2.51,3.69-1.84.13-3.07-1.26-3.46-3a91,91,0,0,1-1.85-9.78c-1-8.91-1.11-17.93-4.06-26.55-.64-1.89-.78-4.28,1.89-4.87s3.41,1.45,3.8,3.55c.16.82.11,1.67.26,2.49,1,5.4,3.16,6.37,7.81,3.39,3.77-2.42,7.3-5.32,11.28-7.31C340.18,682.66,346.83,686.88,346.85,700.42ZM324,710.18c8.23-.13,14-3.71,15.67-9a4.76,4.76,0,0,0-1-5.06c-1.2-1.28-2.65-.84-4.15-.32-5.2,1.78-10.2,3.9-14.47,7.5-2.46,2.08-2.34,4.86.56,6.22A10.77,10.77,0,0,0,324,710.18Z"/><path d="M377.17,31.89c.06,15.61-12,23-25.86,17.16-4.3-1.81-8.11-3.46-11,2-1,1.81-2.21.81-3.2-.21a4.74,4.74,0,0,1-1.19-3.72c.94-12.28-2.25-24.12-3.79-36.14-1-7.57.41-8.91,8-8.07a10.51,10.51,0,0,0,5.31-.95A22.12,22.12,0,0,1,354.15,0c7.11.07,11.18,3.84,11.57,11a32.12,32.12,0,0,1-.35,5c-.67,6.42-.68,6.45,6,6.61,2.94.06,4.7,1.39,5.15,4.32C376.81,29,377.07,31.13,377.17,31.89ZM354,45.22c7-.15,13.05-1.38,16-8.33,1.89-4.47-.21-7.43-4.91-6.71C359,31.09,353,32.32,347,33.39c-3.45.61-4.2,2.79-3.49,5.85C344.6,44,347.69,45.62,354,45.22ZM344.57,25c3.54-.86,7.48-.69,10.91-2.63a8.66,8.66,0,0,0,3.8-10.73c-1.5-4.24-4.86-5.36-8.79-4.63a15.2,15.2,0,0,0-10.82,8.05C337.18,19.7,340,25.24,344.57,25Z"/><path d="M294.42,1422.07c.22,2.72-.59,4.23-2.65,4.84-2.52.74-4.31-.47-5.29-2.62-1.82-4-2.2-8.36-3-12.6-1.17-6.55-2.08-13.15-3.06-19.73-.33-2.21-.66-4.43-3.28-5-2.78-.63-4.33,1.16-5.59,3.25-2.51,4.12-4.72,8.45-7.53,12.35-5.09,7.08-10.56,7.3-16.54,1-1.6-1.69-3-3.55-4.59-5.27-1.26-1.37-2.63-2.71-4.73-1.49-1.8,1-1.65,2.54-1.27,4.33,1.1,5.25.95,10.6.9,15.93,0,2,.09,4.26-2.81,4.36s-4.37-1.69-4.57-4.28c-.29-3.81-.21-7.66-.27-11.49-.12-6.86-.86-13.63-3.23-20.12a10.69,10.69,0,0,1-.64-5.38,4.77,4.77,0,0,1,3.31-4c2-.67,3.54.15,4.8,1.74q5,6.24,10,12.44c.63.77,1.26,1.55,1.93,2.29,7.52,8.33,10,8.14,16.71-.84,4.39-5.86,9-11.52,13.55-17.29,1.13-1.45,2.46-2.25,4.32-1.68,2.22.69,3,2.56,3.33,4.57.88,5.93,1.25,12,2.5,17.8,1.87,8.68,1.6,18,7.33,25.62A2.33,2.33,0,0,1,294.42,1422.07Z"/><path d="M748.44,190.94a35.91,35.91,0,0,1,18.27-13.44c8.13-2.59,12.15.07,12.7,8.53.39,5.95.05,11.69-4.73,16.16a2.18,2.18,0,0,0-.15,3.47c5,5.38,11.51,6.14,17.87,1.9,1.26-.84,2.42-1.08,3.64-.13,1.56,1.22,1.52,2.84,1,4.52-2.32,6.91-9.47,10.1-16.67,7.37-8.62-3.26-15-9.79-21.92-15.46-1.61-1.32-2.94-3.72-5.45-2.67s-1.66,3.69-1.76,5.76c-.17,3.82-.21,7.65-.38,11.47-.1,2.26-.51,4.41-3.44,4.6-2.74.18-3.73-1.64-4.49-3.83a11.22,11.22,0,0,1-.22-6.41c1.71-7,.11-13.52-2.62-19.92-1-2.47-3.54-5.34.15-7.36,3.91-2.15,5.65,1,7.14,3.94A15.07,15.07,0,0,0,748.44,190.94Zm20.1-7.37c-3.12.44-6.58.9-9.49,3.15a4.84,4.84,0,0,0-2.06,4.79c.36,2.29,2.27,2.62,4.14,2.88,2.3.32,4.62.57,6.91,1,5.05.85,4.72-3.22,5.15-6C773.64,186.36,773,183.5,768.54,183.57Z"/><path d="M728.54,544c-.64,3.19-1.18,6.82-2.11,10.35-1.32,5-3,5.68-7.45,2.85-7.74-4.88-15.33-10-23.05-14.91-1.88-1.2-3.82-3.28-6.3-1.82s-1.36,4.16-1,6.37a32.37,32.37,0,0,1-.72,11.4c-.67,3.25-2.69,4.84-6.07,4.58s-3.81-2.73-3.93-5.34c-.26-5.65-.28-11.32-.71-17a34.8,34.8,0,0,0-3.26-12c-1.7-3.66-.22-6.46,2.76-8.64,3.21-2.34,4.81.35,6.55,2.29,4.85,5.42,10.92,9.19,17.08,12.86,5.15,3.07,10.32,6.09,14.88,10,1.05.91,2.1,2.46,3.85,1.43,1.47-.86,1.62-2.49,1.7-4,.17-3-.88-5.88-1.86-8.72a65.93,65.93,0,0,1-2.43-8.09c-.51-2.49-.64-5.15,2.77-5.94s5.42.83,6.3,4C727.27,530.27,727.43,537,728.54,544Z"/><path d="M209.34,381.74c0,3,0,6,0,9,0,1.93-.1,3.84-2.5,4.2s-3.67-1.35-4.11-3.43c-.8-3.74-1.45-7.52-2-11.3-.88-5.93-1.81-11.84-4.09-17.44-.71-1.74-1.11-3.69.53-5.11s3.45-.79,5,.42c2.82,2.19,4.6,1.07,6.6-1.44,6-7.54,21.89-10.62,30.3-6.08,5.43,2.93,6.16,10.33,1.48,16.51a16.94,16.94,0,0,1-4,3.68c-6.14,4.16-6.42,5.87-1.61,11.23,6.2,6.93,10.92,7.83,19.41,3.6,1.4-.7,2.77-1.52,4.12-.3,1.53,1.37.85,3,.14,4.56-2.39,5.34-6.35,7.46-12.09,6.35a25.14,25.14,0,0,1-11.39-5.93c-5.59-4.74-11-9.68-17.69-12.93-1.88-.92-3.35-2.37-2.42-4.79.83-2.14,2.64-2.15,4.58-2a18.43,18.43,0,0,0,16.89-10.24c1.63-3.59-.7-4.84-3.61-5.47-12.7-2.73-21.86,3.7-23.24,16.48a96.54,96.54,0,0,0-.06,10.49Z"/><path d="M687.13,379.62c.64-4.46.56-9.2-5-11.78-.36-.17-.58-.79-.71-1.25-1-3.74,6.39-16.17,10.14-16.55a76.85,76.85,0,0,0,23.94-6.57c2.52-1.13,4.89-1,6.49,1.74,2.1,3.56.79,7.09-3.32,7.24-6,.2-11.14,3.36-17,3.64-2.25.1-3.89,1.35-3.52,3.85s2.3,2.61,4.24,2.37q11.15-1.38,22.28-2.84c2.19-.28,4.85-.77,5.25,2.12.48,3.43-2.51,3.35-4.83,3.39-9.59.15-18.55,3.76-27.94,5a4.28,4.28,0,0,0-3.84,5,76.21,76.21,0,0,0,2.11,12.24c1.15,4.07,5.12,5.69,9.79,4.41a18.64,18.64,0,0,0,10.94-8.2c.81-1.25,1.49-2.65,3-3.27a3.26,3.26,0,0,1,3.33.19c1.11.81,1.07,1.95.73,3.15-1.94,6.91-12.69,15.75-20,16.46-9,.87-14.66-3.95-15.66-13.37C687.3,384.51,687.27,382.34,687.13,379.62Z"/><path d="M773.73,571.16c-20-.66-32.83-13-32.21-31,.21-6.08,2.52-11.67,4.38-17.34.88-2.7,3.11-3.33,5.65-2.79s2.9,2.4,3,4.57c.06,2.61-1.06,4.78-2.17,7-5.31,10.79-2.24,23.29,7.22,29.73,1.34.91,2.65,2.24,4.5,1.23s1.22-2.84,1.08-4.45c-.73-8.22,2.7-14.6,9.12-19.35,5.73-4.24,14-3.63,18.37.94,5.49,5.71,6.37,15.76,1.89,21.64A24.29,24.29,0,0,1,773.73,571.16Zm-1.51-10.86c-.3,3,.52,5.14,4,4.6a19.57,19.57,0,0,0,13.37-7.78c2.08-2.84,1.06-8.54-1.91-10.78-3.49-2.64-6.9-1.9-9.78,1.06A20.58,20.58,0,0,0,772.22,560.3Z"/><path d="M448.18,374.84a24.74,24.74,0,0,1,4.48-14.27,12,12,0,0,1,10-5.56c4.17-.16,5.91,2.41,6.68,6,.87,4.12-2,4.44-4.94,5.1-7.61,1.71-11.16,10-7.17,16.31,2.15,3.41,4.08,3.62,6.31.24,4.32-6.57,11.21-9.73,17.56-13.59a6.74,6.74,0,0,1,8.36.84c3.54,3.06,6.07,6.74,5.51,11.67-1.37,12-13.56,22.57-25.68,22.21-7-.21-12.4-3.79-15.94-9.68A36.2,36.2,0,0,1,448.18,374.84ZM470.87,396c8.2,0,14.81-4.58,17-11.66.51-1.65.89-3.32-.5-4.66s-3.14-.94-4.65-.15c-4.84,2.54-9.67,5.12-14.42,7.83-1.95,1.12-4.5,2.26-3.63,5.21C465.61,395.68,468.26,396.2,470.87,396Z"/><path d="M217.92,738.5c-5,0-8.09-2.72-9.62-7.25-.86-2.5-1.3-5.15-1.93-7.73-.93-3.83-3-6.57-6.94-7.76-1.15-.35-2.9-.24-3.06-2s1.14-2.68,2.44-3.46c8.07-4.83,8.07-4.82,3.73-12.83-2.12-3.9-1.37-5.47,3.31-6.5,9-2,18.22-1.72,27.15-3.92a40.4,40.4,0,0,1,6.81-1.41c2.69-.2,4.43,1.19,4.51,4.11s-1.88,3.23-4.27,3.51c-7.59.9-15.17,2-22.72,3.16-3.21.51-5.62,2.12-5.35,6,.3,4.18,2.17,5.57,6.29,4.62q11.41-2.64,22.84-5.25c.81-.18,1.6-.47,2.42-.57a2.85,2.85,0,0,1,3.4,2.26c.31,1.66-1.44,1.5-2.44,1.81-8.26,2.57-16.51,5.15-24.8,7.59-6.43,1.89-8.67,7-5.52,13a6.91,6.91,0,0,0,10.15,2.83,19,19,0,0,0,7.26-8c.73-1.47,1.84-2.91,3.87-2.55a4.84,4.84,0,0,1,3.63,3.13c.78,1.86-.3,3.29-1.69,4.29-4.59,3.31-7.78,8.24-12.89,11A13.46,13.46,0,0,1,217.92,738.5Z"/><path d="M598.49,719.31c.44,4.29.66,7.87-.82,11.43-.87,2.11-1.36,4.23-4.36,3.51-2.64-.63-4-2.28-3.86-5,.46-6.49.63-13-1-19.33a57.19,57.19,0,0,0-2.37-7.6c-1.28-3.15-1-6.05,1.51-8.19s5.67-1.57,8.41,0a18.82,18.82,0,0,1,3.78,3.21c8.56,8.52,18.74,14.87,28.71,21.51,1.39.93,2.91,1.8,4.62.78,1.91-1.14,1.75-3,1.55-4.89-.63-5.93-.82-11.88-4.17-17.26-1.6-2.57-.7-5.33,2.55-6.36,2.72-.85,5.57-.15,5.77,2.94.59,9.43,3.95,18.6,2.66,28.2-1.05,7.8-4.92,10.1-11.58,6.17-7.87-4.64-15.42-9.83-23.07-14.84-2.14-1.39-3.82-4.3-6.85-2.82-3.24,1.59-1.34,4.7-1.49,7.19A13.56,13.56,0,0,0,598.49,719.31Z"/><path d="M708.21,865.29c4.11,2.39,7.64,4.6,11.32,6.52a12.46,12.46,0,0,0,12.42,0c1.75-1,3.37-3.57,5.61-1.37,1.92,1.89,2,4.39,1,7-1,2.78-2.9,4.24-5.7,3.64-7.45-1.6-15.22-1.69-22.28-5.14-5.75-2.81-6.59-2.27-8.42,4.16-.38,1.31-.73,2.63-2.31,2.92a3.63,3.63,0,0,1-3.9-1.69c-3.69-6-6.18-12.44-3.75-19.38,1.87-5.36,1.31-9.73-2.53-13.77-2.08-2.19-3.2-4.39-.26-6.74s5-.83,6.4,1.84c1.92,3.53,4.34,3.62,7.38,1.51,2.6-1.8,5.25-3.48,8.48-4.06,3.83-.7,6.93.36,9.17,3.57s1.69,6.23-.28,9.32A33.43,33.43,0,0,1,708.21,865.29Zm-3.11-7.56c2.53-1.4,6-2.05,6.31-6a2.22,2.22,0,0,0-2.8-2.58c-3.23.58-6.18,1.75-6.37,5.76C702.15,856.68,703,857.72,705.1,857.73Z"/><path d="M781.84,901.43c0-.42,0-1.41.12-2.41.67-9.38-1.14-11.85-10.45-13.38-5.61-.93-9.78-3.9-13.31-8.1-5.86-7-9.13-15.41-13.27-23.35-1.39-2.66,0-4.52,2.33-5.69s4.23-.06,5.22,2.2c1.68,3.79,3.22,7.65,4.76,11.51a35.61,35.61,0,0,0,12.27,15.39,13.15,13.15,0,0,0,6.83,2.84c3.92.3,6.38-.85,6.24-5.5-.16-5.31.12-10.63.28-15.94.08-2.77.43-5.56,4.06-5.77s4.2,2.39,4.69,5.22c1.73,9.86.73,19.56-1.53,29.18a51,51,0,0,0-.68,20.77c.53,3,1.54,5.51,4.82,6.2,2.74.57,3.42,2.32,3.09,4.76-.44,3.23-2.59,4.9-5.51,5.72a4.35,4.35,0,0,1-5.44-2.33C782.74,916.29,782.13,909.19,781.84,901.43Z"/><path d="M125.15,377.23c.08,4.08.14,7.58-.75,11-1.76,6.77-7.62,8.94-12.91,4.4S101,384,96.69,378.54c-1.22-1.56-2.54-3.2-5-2.63-2.57.62-2.48,2.87-2.85,4.76-.86,4.41-1.67,8.82-2.38,13.25-.36,2.26-.81,4.55-3.51,4.73a6.25,6.25,0,0,1-5.77-3.33c-1.73-2.76-2-6-2.63-9.06-1.63-8.54-3.83-16.85-8.18-24.48-1.51-2.66-1.72-5.34,1.69-6.55s4.78,1.14,5.49,4c1.78,7.27,3.55,14.54,5.37,21.8.43,1.69.46,4.07,3,3.78s2.28-2.44,2.35-4.29c.15-4.16.25-8.32.56-12.47.16-2.06-.11-4.54,2.71-5.31,2.28-.63,3.76.68,5.19,2.18,5.29,5.53,10.58,11.07,16,16.53a14.67,14.67,0,0,0,4.3,3.31c3.16,1.35,6.35-1,6.18-4.88-.3-6.95-.44-14-4-20.38a9.73,9.73,0,0,1-1.3-3.2c-.38-2.73.41-5.3,3.33-5.87a4.15,4.15,0,0,1,5.18,4.11C122.69,362.42,126.06,369.87,125.15,377.23Z"/><path d="M516.28,364c4.47,3,8.35,1.84,12.18.76,1.78-.51,3.73-1.57,4.56,1,.79,2.39-1.32,3.21-3,3.83-3.58,1.33-7.21,2.5-10.86,3.64s-4.72,3.14-3.15,6.77c1.78,4.13,3.33,8.34,6.35,11.79,4.12,4.71,7.55,4.69,11.48-.12a26.37,26.37,0,0,0,2.21-3.3c.9-1.54,1.83-2.94,3.89-1.83,1.85,1,2.65,2.51,1.87,4.57-2.11,5.54-5.47,10.07-11.41,11.66a13.32,13.32,0,0,1-14.68-5.16,56.47,56.47,0,0,1-11.63-38.75c.24-3.53,2.13-5.07,5.41-5.17,4.66-.15,9.32-.12,14-.3,5.69-.21,11.23-1.12,16.37-3.83,2-1.06,4.51-1.65,5.34,1.24.73,2.55.76,5.56-2.87,6.33-5.46,1.15-10.55,3.93-16.52,2.87C522.39,359.38,519.73,362.11,516.28,364Z"/><path d="M605.78,561.53c-18.87-.28-29.27-15.52-22.32-32.7,3.86-9.54,19.26-12.47,26.47-5,1.81,1.87,2.56,4,1,6.26s-3.72,2.23-6.12.9c-7.21-4-10.55-3.85-14.12.44-3.31,4-3.18,12.34.26,16.86,2,2.66,4.63,3.29,7.47,1.7a96.54,96.54,0,0,0,8.33-5.42c5-3.47,10.22-6.21,16.25-7.24,2.21-.38,4.67-1.72,6.33.92s2.5,5.79.74,8C623.85,554.21,617.18,561.76,605.78,561.53Z"/><path d="M766.11,1079.05c-2.19-.24-4-.4-5.81-.66-4.14-.62-6-3.24-4.87-7.09,2-6.92.45-13.45-1.14-20.13-4-16.83-.27-20.79,16.71-18.39a42.12,42.12,0,0,1,18.54,6.81c8.82,6.14,10.42,15.68,4.08,24.27C786.7,1073.21,777.6,1078.62,766.11,1079.05Zm5.91-38.3c-9.16-.16-11.45,2.34-10.1,11.38.84,5.55,3.1,10.79,3.11,16.57,0,3.32,2.56,3.81,5.45,2.75a37.87,37.87,0,0,0,13.79-8.66c3.2-3.16,6.91-6,5.5-11.35-1.48-5.62-5.46-8.55-10.86-9.76C776.65,1041.18,774.32,1041.05,772,1040.75Z"/><path d="M438.22,717.38a17.43,17.43,0,0,1-.56,6.48c-.48,1.7-1,3.21-3.11,3.28s-3.94-.92-4.5-3.13a14.59,14.59,0,0,1-.49-4.91c.62-6.82,1.17-13.58-1.29-20.22-1.08-2.93,1.2-4.09,3.3-5.29,2.5-1.43,4.67-1.35,6.67.92q6.12,6.91,12.33,13.74c4.29,4.75,6.59,4.81,11,.07a121.18,121.18,0,0,0,11.5-13.78c2.34-3.4,5.48-3.24,7,.64a55.44,55.44,0,0,1,2.72,10.59c1,5.38,1.4,10.77,5.22,15.32,2.07,2.48-.09,8.25-3.11,9.45-3.46,1.38-5-.74-5.5-3.75-.85-4.74-1.42-9.53-2.31-14.27-.38-2.08-.83-4.58-3.18-5.28s-3.38,1.57-4.76,2.94c-3.4,3.4-7,6.54-9.32,10.94-2,3.67-5.06,2.6-7.44.16-3.26-3.33-6.21-6.94-9.4-10.34-1-1-1.61-3.14-3.3-2.47-1.33.53-1.5,2.45-1.52,4S438.22,715.45,438.22,717.38Z"/><path d="M392.79,545.61c0-3.82,0-7.65,0-11.47,0-1.73-.56-3.35-2.42-4-2-.67-3.09.66-4,2.14q-3.63,6-7.23,11.93c-3.08,5.15-5.31,5.3-8.84.56-1.3-1.73-2.55-3.5-3.84-5.23-.7-.94-1.46-2-2.83-1.59-1.78.47-1.48,2.06-1.38,3.3.24,3.14.77,6.26,1,9.41.16,2,.41,4-.73,5.82a4,4,0,0,1-3.69,2.12c-1.68-.12-2.44-1.42-2.63-3.13-1.25-11.39-2.61-22.77-3.81-34.16a6.67,6.67,0,0,1,3.37-6.78c2.74-1.58,5.12-1.51,6.05,2.22a64.7,64.7,0,0,0,4.7,12,13.85,13.85,0,0,0,5.89,5.92c3,1.75,5.27,1.21,7.12-1.8,2.78-4.54,5.72-9,8.56-13.46,1.06-1.67,1.77-3.78,4.31-3.49s2.25,2.53,2.92,4.13c3.07,7.37,3,15.26,3.86,23,.39,3.63.94,7.25,1.11,10.89.14,2.88-.89,5.39-4.19,5.8-2.61.33-4.09-.9-3.91-3.75.21-3.48.34-7,.5-10.45Z"/><path d="M550.48,1061.29c.14,11-5,14.18-14,9.27a61.06,61.06,0,0,1-15-12.23c-5.15-5.5-6.57-5.12-9.16,2.18-1.61,4.54-3.26,9.07-4.78,13.64-.62,1.85-1.31,3.55-3.54,3.6s-3.12-1.59-3.66-3.45c-3.37-11.56-8.53-22.34-14.13-32.94-.93-1.76-2.15-4,.16-5.26,2.81-1.55,4.19.75,5.24,3q4.69,9.92,9.35,19.85c.62,1.32.73,3,2.69,3.14s2.16-1.64,2.95-2.87c2.11-3.33,2.71-7.11,3.55-10.83.58-2.53,1.46-4.86,4.42-5.41s4.94.81,6.35,3c4.09,6.47,10,11.09,15.77,15.84,1.57,1.28,3.06,2.72,5.28,1.29a5,5,0,0,0,2.29-5.63c-1.41-5.85-.88-12.35-6.36-16.83-2.39-2-1.54-4.63.92-6.31,2.8-1.9,4.4-.51,5.82,2.17C548.9,1044.56,549.53,1053.37,550.48,1061.29Z"/><path d="M554.5,211.05c-1.07-6.88-.82-15-3.94-22.49-1-2.35-1.72-4.74-1-7.27a5.5,5.5,0,0,1,4.67-4,5,5,0,0,1,5.77,3c4.5,10.88,14.3,15.77,23.52,21.37,1.72,1.05,3.47,2.26,5.51,1,1.85-1.13,1.63-3.09,1.6-4.93-.07-4.35-.16-8.65-3.06-12.32a6.87,6.87,0,0,1-1.14-5.25c.35-2.89.81-6,4.47-6.2,4-.27,4.17,3.06,4.5,5.86.94,7.9,2.69,15.77,1.14,23.8-.19,1-.24,2-.47,3-2.33,9.73-5.61,10.9-13.67,4.85q-8-6-15.93-12c-1.19-.9-2.29-2.14-3.94-.95-1.49,1.09-1.32,2.64-.78,4.07a24.16,24.16,0,0,1,1.64,11.73c-.38,2.84-.55,6-4.69,5.61-3.86-.38-4.85-2.94-4.4-6.4C554.31,213.05,554.35,212.55,554.5,211.05Z"/><path d="M636.56,380.4a25.09,25.09,0,0,0,2.79,13c1.39,2.72.77,4.89-2.27,5.92-3.25,1.09-5.34-.35-5.75-3.54a114.76,114.76,0,0,1-.79-12.44,13.28,13.28,0,0,0-4-9.84c-3.74-3.69-3.87-10.92-.62-15.14,1.78-2.32,3.73-1.61,4.83.35,3.35,6,8,6.23,13.55,3.64a4.47,4.47,0,0,1,1.92-.53c7.14.17,11.58-2.46,12-10.35.15-2.7,2.58-2.48,4.64-1.4,4.82,2.55,8.34,9,7,14.34-1.92,7.69-2.17,14.7,3.93,20.89,2.09,2.12.67,4.76-.78,6.87-1.28,1.87-2.93,3.11-5.5,2.19s-4.51-2.14-4.38-5.23c.22-5.72-1.07-11.26-2-16.82-.9-5.23-2.86-6.25-7.48-4a38.16,38.16,0,0,1-9.57,2.66C637,372.32,636.2,373.29,636.56,380.4Z"/><path d="M422.18,1399.64c0,6.88-2.42,9.2-7.77,8.58-8.78-1-16.87-3.75-23.29-10.24-1-1-2-2.54-3.75-1.53-1.54.86-1.55,2.47-1.48,4,.09,2.16.31,4.32.44,6.48.19,3.12-1.51,4.77-4.43,4.79-2.66,0-4.48-1.44-4.36-4.34.37-8.82-1.68-17.12-4.91-25.27-1.23-3.09-.9-6.32,2.86-8s6.74-.77,8.48,2.72c5.19,10.45,14.59,16.14,24.07,21.79,1.72,1,3.54,2.07,5.55.57s1.88-3.66,1.27-5.87c-1.88-6.72-3.76-13.45-5.54-20.21-.65-2.45-1.29-5.27,2.23-6,3.34-.74,3.71,2.1,4.23,4.33C418.06,1381.27,420.27,1391.17,422.18,1399.64Z"/><path d="M176,1374.45c6-.14,12.13-.75,17.77-3.63a10.73,10.73,0,0,1,3.68-1.44c2.79-.24,4.3,1.44,4.72,4.06.45,2.81-1.44,3.11-3.63,3.49-8.34,1.45-16.65,3.06-25,4.7-2.26.45-5,.92-4.13,4.28.86,3.15,3.39,1.9,5.4,1.45,2.91-.65,5.77-1.5,8.67-2.22a15.63,15.63,0,0,1,7.89-.23c1.58.42,2.87,1.24,2.82,3s-1.77,1-2.73,1.37c-6.43,2.21-12.89,4.36-19.34,6.5-3.1,1-4.3,2.88-2.92,6.08,1.32,3,2.29,6.25,3.81,9.18,2.88,5.55,5.66,6,10.74,2.4,2.21-1.55,4.46-6.17,7.56-1.61,2.84,4.19-1.18,6.13-3.93,8.17a21.52,21.52,0,0,1-3,1.76c-8,4.13-13,2.5-17.12-5.55-1.62-3.15-2.14-6.62-3.05-10-1-3.84-2.85-7-6.78-8.68-3.71-1.59-4.07-3.67-.86-6.4a11.23,11.23,0,0,0,3.68-6.82c1.94-9.45,3.57-10.72,13.09-10.13C174.22,1374.25,175,1374.35,176,1374.45Z"/><path d="M376.32,225.7c-3.72-.31-5.68-2.37-6.72-5.46-1.43-4.27-2.4-9-8.35-9-7.6,0-13.35,3.68-15.33,10.39a14.47,14.47,0,0,1-6.19,8.69,3.59,3.59,0,0,1-4.2.07c-1.53-1-1.4-2.41-1.23-4,.9-8.41,3.22-16,9.48-22.35,3.14-3.17,3-8,2.26-12.4s1.22-6.59,5.14-7.68c4.21-1.17,5.1,2,6.13,4.81,2.66,7.34,7.32,12.17,15.53,12.77,1.6.12,3.6,0,4.3,1.88.83,2.28-1.3,2.69-2.68,3.46-2.43,1.36-1.13,2.65.06,3.91,2.31,2.41,4.67,4.8,5.45,8.2C380.8,222.59,379,225.66,376.32,225.7Z"/><path d="M501,727.17c1.29-3.56,2.38-7.69.29-12A1.85,1.85,0,0,1,502,713c5.49-3.73,7.67-9.91,11.15-15.13.09-.14.17-.29.26-.42,6.61-9.67,11.73-9.75,17.71,0,4.5,7.37,8.59,15,12.77,22.56,1.85,3.36.87,8.23-1.91,9.28-4.07,1.53-6.17-1.16-7.8-4.27A18.51,18.51,0,0,1,533,721.3c-1.7-6.45-3.07-7.31-9.5-6-6.89,1.41-11.1,5.68-13.05,12.3-.88,3-2.12,5.28-5.85,4.63C502,731.79,500.8,730.35,501,727.17Z"/><path d="M736.5,709.64c0,3.33,0,6.66,0,10,0,2.65.44,5.56-2.6,7s-5.43,0-7.91-1.55c-6.85-4.43-13.72-8.82-20.68-13.07-2-1.21-3.87-3.92-6.6-2.17-3,1.91-1.34,4.7-.68,7.22a14.38,14.38,0,0,1-.55,8.81c-.76,2.06-1,4.54-4,4a4.82,4.82,0,0,1-4.24-4.83c-.21-3.66-.22-7.32-.4-11-.24-5.06-1.31-9.87-4.21-14.16-2.06-3-.84-4.89,2.32-6,3.9-1.41,7.29-1.09,10.69,1.67,8,6.51,16.25,12.73,24.4,19.08,2,1.52,3.83,3.66,6.58,1.82s1.74-4.42,1.26-6.85c-.79-3.91-1.78-7.79-2.5-11.71-.56-3-.34-5.81,3.71-6.15s5.4,1.8,5.4,5.41Z"/><path d="M749.3,711.52a31.74,31.74,0,0,1,5.76-18.42c1.23-1.85,2.58-3.25,4.87-2s3.08,3.44,1.71,5.93c-2.44,4.4-4.45,8.91-4.77,14-.44,7.11,2.54,11.7,9,13.68,3.68,1.13,6.21.3,6.89-3.92a50.2,50.2,0,0,1,4.83-14.1c1.79-3.65,4.44-6.28,8.95-5.89a10.49,10.49,0,0,1,9.51,6.94q4.78,11.85-5.66,19.27c-10.22,7.22-21.31,6-31.88,1.84C750.75,725.83,749.85,717.83,749.3,711.52Zm35.43,10.91c3.27,0,6.21-3,6-6-.14-2.26-1.56-3.51-3.58-3.22-3.59.51-5.38,3.11-5.74,6.54C781.21,721.91,782.89,722.41,784.73,722.43Z"/><path d="M146.37,713.22c.81-5.89,3.11-11.5,3.41-17.53.08-1.57,1.77-2.4,3.38-2.39a3.15,3.15,0,0,1,3.28,2.54,22.5,22.5,0,0,1,.41,3.94c.19,4,2.16,5.34,6,4.24,2.54-.74,5.1-1.47,7.66-2.16a8.6,8.6,0,0,0,6.6-6.68c1.15-4.35,3.61-4.92,6.52-1.52s4.78,7.1,4.37,11.78c-.84,9.55-2.51,19.11,2.6,28.26,1.75,3.15-1.61,4.15-4,4.75-3.37.84-5.66-.5-6-4-.5-5.29-.69-10.61-1-15.92a35.91,35.91,0,0,0-.61-6.42c-.77-3-2.82-4.44-6-3.36a72.32,72.32,0,0,1-10.1,2.61c-4.08.76-5.55,3.34-3.95,7.34a11.76,11.76,0,0,1,1,5.35c-.19,2.41-1.39,4.06-3.88,4.52s-3.86-1-4.45-3C150.22,721.21,146,718.18,146.37,713.22Z"/><path d="M542.52,1224.94a115.8,115.8,0,0,0-1.15-15.9c-.24-1.8-.46-3.79,1.55-4.86a5.33,5.33,0,0,1,5.66.46,10,10,0,0,1,2.69,2.21c6.25,8.48,16.23,12,24.22,18.1a4,4,0,0,0,5.46,0c1.88-1.65,1.42-3.45.51-5.41q-4.08-8.82-8-17.7c-1.13-2.56-2-5.39,1.65-6.58s4.93,1.29,5.49,4.46c.88,5,3.14,9.42,5.25,13.93s3.63,8.94,3.29,13.9c-.43,6.31-3.59,8.51-9.66,6.79-8.1-2.3-15-6.91-22.19-11.12-1.61-1-3.11-2.83-5.35-1.27-2,1.4-1.7,3.47-1.43,5.44a23.83,23.83,0,0,1-.29,9.41c-.6,2.28-2,3.94-4.63,3.59s-3-2.35-3.07-4.44C542.46,1232.25,542.52,1228.59,542.52,1224.94Z"/><path d="M569.57,1376.74c-5.3,5.07-11.81,6.17-18.32,7.33-4.11.73-9.54-.63-11.54,4.17a19.59,19.59,0,0,0,1.32,18.25,33.25,33.25,0,0,0,2.39,3.2c1.49,1.91,1.83,3.89.28,5.93-1.17,1.53-2.65,2.61-4.68,2.3a4.48,4.48,0,0,1-4-4.4c-.48-4.8-1-9.61-1.25-14.42a10,10,0,0,0-3-7c-4.15-4.39-4.61-8-1.37-13.09,1.91-3,.92-4.25-1.42-6s-6.76-2.06-5.37-6c1.22-3.5,5.16-4.75,8.68-4.89,6.5-.26,12.92-1,19.35-1.85,3.31-.45,6.57-.7,9.7-2,1.89-.81,4-1,5.52.83a5.47,5.47,0,0,1,1.32,5.57c-.86,2.33-3.17,2-5.12,2.19-6.78.72-13.57,1.41-20.34,2.21-3.31.39-6.5,1.33-6.3,5.56.2,4.44,3.43,4.65,6.84,4.37Q555.92,1377.85,569.57,1376.74Z"/><path d="M478.77,185.21c8.87.23,16.75,1.63,22.72,8.31a15.13,15.13,0,0,1,3.72,14.33c-3,12.68-20.19,22.67-32.59,19-6.31-1.87-9.28-5.36-9.37-11.89a37.35,37.35,0,0,0-4.73-18.12c-2.16-3.83-1-6.17,2.82-7.82A53.41,53.41,0,0,1,478.77,185.21Zm2.94,6.82c-8.85-.08-12.57,2.1-13.27,7a28.28,28.28,0,0,0,4.1,19.63c2.08,3.3,4.94,4.32,8.56,2.9a30.73,30.73,0,0,0,16.3-14.05c2.62-4.82,1.51-8.53-3.21-11.45A27.27,27.27,0,0,0,481.71,192Z"/><path d="M441.54,215.52a17.66,17.66,0,0,1,.22,3c-.17,2.16-.35,4.42-2.77,5.44-2.23.94-4.25.27-6.06-1.12-6.36-4.86-13.45-8.56-20.23-12.74-5.21-3.21-6.72-2.42-7.16,3.52-.23,3-.65,5.92-4.37,6.1s-5.16-2.49-5.43-5.81c-.46-5.79-.85-11.59-1.21-17.4a5.8,5.8,0,0,1,4.05-6.19,5.74,5.74,0,0,1,7.13,2c6.35,8.25,15.17,13.33,23.81,18.64,1.4.86,2.89,2.11,4.53.82s1-3,.5-4.61c-1.31-4.46-2.71-8.9-3.87-13.39-.64-2.47-1-5.14,2.62-5.79,3.12-.56,4.64,1,5.13,3.93C439.73,199.71,441.27,207.53,441.54,215.52Z"/><path d="M638,56.17c6.31-10.71,4.06-25.28,15.44-33.77,5.11-3.81,6.34-3.6,9.21,2.2,3.27,6.58,6.88,12.41,15.91,10,1.89-.49,3.58.58,3.75,3,.2,2.67-1.25,3.31-3.65,3.48-5.41.36-6,1.67-3.46,6.4,1.43,2.61,3.76,4.65,4.52,7.69.65,2.62.18,4.7-2.28,5.88s-4.05-.22-5.59-2c-1.68-1.93-1.47-4.34-2-6.56-.95-3.74-.77-8.39-6.24-8.89-6.92-.65-12.09,2.22-14.2,7.72a68.63,68.63,0,0,1-2.89,7.39c-1.14,2.16-3.17,2.74-5.57,1.79A4,4,0,0,1,638,56.17Z"/><path d="M357.08,1039.73c-.1-3.69-.85-6.56,2.24-7.64s4.46,1.51,5.65,3.7a31.53,31.53,0,0,1,4.24,15.7c-.09,6.13-.45,12.26,2.17,18.16,1.13,2.54.74,5.54-2.79,6.3s-4.83-1.6-5.33-4.5c-.73-4.26-1.24-8.56-1.91-12.83-.75-4.79-3.68-6.93-8.42-6.41-4,.43-7.9,1.07-11.84,1.71-3.6.58-5.32,2.41-4.12,6.29.92,3,.88,5.88-2.91,6.69s-4.23-2.15-4.81-4.83c-.77-3.57-1.47-7.16-3.87-10.15-1.07-1.33-1.84-3.33-.87-4.67,2.69-3.71,5.69-7.16,6.22-12,.08-.77,1.22-1.09,2-.37a4,4,0,0,1,1.25,1.52c3.53,11.53,12.47,8.55,20.62,7.78C359,1043.76,356.88,1040.64,357.08,1039.73Z"/><path d="M746.35,46c.23,12.81-2,14.27-14.44,9a128.65,128.65,0,0,1-18.36-10c-4.95-3.1-6.94-2-7.15,3.78a31.5,31.5,0,0,1-1.11,7.37A3.21,3.21,0,0,1,702,58.64c-1.69,0-2.59-1.25-2.73-3A172.91,172.91,0,0,0,695.62,31c-.67-2.89.25-5.76,3.39-7s5.46.45,7.13,3c6.56,10,16.61,15.62,26.67,21.22,3.61,2,5.5.62,6.65-3,1.29-4.06.31-7.9-.65-11.78-.59-2.41-1.55-4.72-1.5-7.3s.91-4.67,3.75-5c3.18-.36,3.91,1.93,4.07,4.45C745.57,32.2,745.93,38.85,746.35,46Z"/><path d="M466.65,525.57c-.29-3.28.08-5.11.9-6.75,1.52-3.06,4.87-3.7,6.77-1,5.09,7.24,12.47,10.72,20.43,13.53a71,71,0,0,1,15.18,7.5c1.59,1,3.23,1.84,5,.39s1.37-3,.7-4.92c-1.67-4.7-2.92-9.54-5.35-14-1.1-2-1.17-4,1.16-5.06s3.65.71,4.61,2.62a69.61,69.61,0,0,1,7,26.35c.31,4.17-1.48,5.44-5.6,4-11.59-4.15-22.8-9.22-34-14.28-2-.89-3.82-2.37-6-.77s-1.54,3.88-1,6A40.57,40.57,0,0,1,477.72,551c-.07,2-1.12,3.57-3.3,3.73s-3.69-.79-4-2.93C469,542.61,467.76,533.39,466.65,525.57Z"/><path d="M759.18,41.7c-.38-5.46,2-11.21,3.61-17.11.38-1.37,1.16-2.56,2.78-2.3A5.36,5.36,0,0,1,770,25.83a7.51,7.51,0,0,1-.82,6.23,33.28,33.28,0,0,0-3.66,11.82c-.21,1.66-.3,3.61,1.83,4.06,2.31.49,2.48-1.5,3-3.1,2.9-9.24,8.36-12.93,16.44-11.19a13.1,13.1,0,0,1,8,20.67c-4.54,6.51-15.64,10.38-23.14,8.09C763.35,59.87,759.1,53.09,759.18,41.7ZM778.34,50c0,2.5.5,4.71,3.64,4.79,3.54.08,7.15-3.73,7.15-7.51,0-3.06-1.77-4.49-4.63-4.61C780.72,42.51,778.27,45.49,778.34,50Z"/><path d="M108.61,699.5c-3.16,0-6.32,0-9.48,0-2.69,0-5.15-.65-5.19-4s2.41-4.13,5-4.34q14.66-1.2,29.32-2.21c3-.2,5.76-.28,8.39-2.35,3-2.4,5.24-.34,6.59,2.58,1.44,3.14,2,6.18-2.15,7.77-7.77,3-7.72,2.94-7.84,11.25,0,2.31-.52,4.61-.78,6.91-.57,4.86-1.07,9.73,3,13.49,2.35,2.15,1.53,4.12-.15,6-2,2.33-3.65,5.65-7.6,4.16-2.71-1-3.61-3.62-3.17-6.18,1.29-7.45.9-14.91.68-22.38-.31-10.45-1.73-11.63-12.22-10.84-1.49.11-3,0-4.49,0Z"/><path d="M705.93,1237.79c.68-5.5.5-9.66-5.67-10.92-2.58-.53-2.86-3.33-.58-4.42,5.26-2.53,5.19-6.75,4.71-11.4a15.68,15.68,0,0,1,.09-3.49,2.59,2.59,0,0,1,2.38-2.23,2.44,2.44,0,0,1,2.64,1.83,14.26,14.26,0,0,1,.5,7.87c-.63,3.77,1,5.53,4.78,6a50.24,50.24,0,0,0,18.32-1.17c2.94-.73,4.7-2.11,4.46-5.5-.16-2.36.23-4.8,2.87-5.84s3.78,1.19,5.48,2.47c4.14,3.12,5.5,7.26,5.38,12.23a42.84,42.84,0,0,0,1.83,13.8,11,11,0,0,1,.33,3.45,3.6,3.6,0,0,1-3.18,3.85c-2.39.4-3.26-1.19-3.77-3.08-1.08-4-2-8.06-3.2-12s-3.73-5.16-7.68-4.41c-6.53,1.23-12.77,3.58-19.33,4.77-4.27.77-5.68,4.29-4.63,8.52a57,57,0,0,1,1.6,5.74,3.36,3.36,0,0,1-3.2,4.19c-2.54.3-3.76-1-3.84-3.44S705.43,1239.6,705.93,1237.79Z"/><path d="M646.83,843c3.43-.9,5.77,1,8.11,3.39a144.12,144.12,0,0,1,16.11,19.7c1.65,2.41,2.67,5,1.52,8-.75,2-1.52,3.84-4,3.89-2.73.06-4.25-1.68-5-4.09-.35-1.09-.26-2.32-.52-3.45-.88-3.88-2.32-7.44-6.69-8.49a10,10,0,0,0-11,4.17c-3.06,4.34-5.49,9.11-8.2,13.69-1.33,2.23-2.28,5.35-5.84,3.91-3.34-1.36-3.33-4.26-2.34-7.19a46.75,46.75,0,0,1,2.15-5c.56-1.2,2.07-2.66,1.76-3.47-3.31-8.6,6.2-13.06,6.43-20.56C639.51,843.11,642.9,842.31,646.83,843Z"/><path d="M292.64,373.16c2.46-.33,4.92-.79,7.39-.94,3.27-.2,5.57,1.14,5.75,4.71.19,3.77-2.28,5.05-5.46,4.86A126.27,126.27,0,0,1,281,379.63c-6.65-1.45-7.27-.83-5.58,5.5A10.15,10.15,0,0,1,276,389c-.34,2.35-1.78,4-4.35,4-2.84,0-3.52-1.82-3.51-4.34a50.4,50.4,0,0,0-6.4-24.78c-1.38-2.5-3.23-5.24.21-7.35,3.28-2,4.57.8,6.07,3.1,2.72,4.14,6.44,5.14,9.37,1.14,6.13-8.39,15.27-5.8,23.13-7.77,2.32-.58,3.07,1.73,3.34,3.53.38,2.54-.94,4.18-3.51,4.48-3.46.4-7,.55-10.42.95a32.15,32.15,0,0,0-5.85,1.12c-2.37.73-4.12,2.18-4,5,.14,2.65,2.26,3.05,4.16,3.56C287,372.37,289.72,373.28,292.64,373.16Z"/><path d="M395.18,1031c3.65,0,9.76-2.31,16-3.94a34.08,34.08,0,0,1,4.89-1c2.5-.26,5.24-.66,5.65,3s-2.52,3.15-4.65,3.71c-6.57,1.74-13.13,3.53-19.7,5.3a2.84,2.84,0,0,0-2.4,3.27c.25,2.07,1.65,2.72,3.56,2.56,4.47-.37,8.94-.8,13.41-1.1,1.88-.13,3.9,0,4.12,2.48s-1.8,2.93-3.61,3.27a69.65,69.65,0,0,1-13.83,1.6c-5.59-.09-6.67,1.52-5.32,7,.16.65.33,1.29.52,1.92,2.66,9,4.35,9.77,13.14,6.06,1.83-.77,4-3,5.85-.69,2,2.52-.24,4.69-1.84,6.52-7.16,8.19-16.63,6.78-20.75-3.06-2.25-5.35-3.24-11.14-6-16.33a4.5,4.5,0,0,1,1.05-5.49c2.29-2.21,2.41-4.84,1.48-7.81C384.62,1031.63,385.2,1030.94,395.18,1031Z"/><path d="M680.75,1201c-4.62-.89-6.65,1.38-7.72,5.64-1.24,4.93-.45,9.6.82,14.27,1.52,5.61,2.77,11.23,3.78,17,1,5.54-.9,9.75-3.61,14-.92,1.43-2,3.33-4.35,2.43a4.56,4.56,0,0,1-3.11-5.14c1.66-11.76.2-23.58.74-35.37a52.91,52.91,0,0,0,0-5.49c-.26-4.31-2.44-6.82-6.94-6.76a48.47,48.47,0,0,1-13.83-1.53c-2.66-.75-4.92-2-3.87-5.17,1-2.94,3.44-3.44,6.12-2.4,10.37,4,20.54,3,30.61-1.08,2.46-1,5-2.38,7.29.31a5.56,5.56,0,0,1,1.05,6C686.41,1201,683.78,1201.45,680.75,1201Z"/><path d="M327.29,1374.13a36.81,36.81,0,0,0,20.19-4.5c1.32-.7,2.61-1.65,4.19-1.29a3.22,3.22,0,0,1,2.59,2.72c.41,2.24-1.15,3-2.81,3.42-7.67,2.2-15.36,4.32-23,6.51-2.26.64-5.74.44-4.88,4.14.81,3.51,3.75,3,6.52,2.25,2.56-.72,5.18-1.23,7.77-1.85,1.58-.37,3.12-.46,3.53,1.55s-1,2.53-2.57,3a35.55,35.55,0,0,0-10,4.45c-3.64,2.32-5.19,5.6-4.05,9.83a77.56,77.56,0,0,0,3.2,10c2.2,5.21,4.73,5.76,9.25,2.5,1.73-1.24,3.34-4.17,5.81-1.5s.9,5.34-1.13,7.52c-5.35,5.76-15.27,4.72-17.94-2.52-4.36-11.82-8.33-23.91-9.5-36.57-.81-8.67,1.13-10.26,9.87-9.8C325.29,1374,326.29,1374.06,327.29,1374.13Z"/><path d="M778.14,1207.56a22.62,22.62,0,0,0-3.64-.26,3.25,3.25,0,0,0-3.14,3.74c.16,2.44,1.81,3,3.87,2.67,3.45-.52,6.88-1.17,10.33-1.69,2.22-.33,4.19.19,4.35,2.79.15,2.42-1.82,2.85-3.73,3.09-.33,0-.67,0-1,.08-13,1.54-16.8,7.69-12.15,19.81,1.91,5,6.43,5.71,10,1.62,1.78-2.06,2.31-4.75,3.51-7.11.71-1.4,1.79-2.51,3.59-1.82s2,2.2,1.5,3.74c-2.25,7.38-6.32,13.59-12.74,17.91-3.53,2.37-6-.15-7.68-3.05a35.9,35.9,0,0,1-5-19.54c.14-3.33-.32-6.35-3.49-8.22-2-1.15-1.91-3-.74-4.21,3.13-3.29,3.23-7.53,4.29-11.5,1.49-5.6,4.52-7.62,9.5-5.1,5.32,2.69,9.52,1.51,13.88-1.55a8.75,8.75,0,0,1,3.14-1.46,3.52,3.52,0,0,1,4.42,3c.49,2.11,0,4.61-2.53,4.47C788.54,1204.6,783,1207.75,778.14,1207.56Z"/><path d="M218.83,1058.11c-.34,5.17-1.13,11.29-8,14.14-6.28,2.6-11.75.91-17.7-5.37-1.25-1.32-2.49-2.67-3.69-4.05s-2.16-3.14-4.45-2.22-1.78,2.92-1.79,4.71c0,1.33-.05,2.66,0,4,.09,2.21-.39,4.16-2.94,4.39-2.7.25-3.27-1.75-3.42-3.9-.48-6.64-.9-13.27-1.44-19.9-.21-2.65-.86-5.27-.95-7.91s1.08-4.5,3.91-4.94,3.71,1.21,4.42,3.56a45.15,45.15,0,0,0,13.82,21c5.81,5.16,11.74,5,15.59-.2,3.68-5,2.07-12.39-3.61-16.08-2.25-1.47-4.79-2.55-4.33-6,.25-1.82,1.46-2.54,3.07-2.72a7.63,7.63,0,0,1,7.73,3.49C217.14,1043.28,218.92,1051.07,218.83,1058.11Z"/><path d="M530.94,553.79c1.16-3.77,2.31-7.76,3.64-11.69,2.55-7.55,5-15.13,7.91-22.56,1.87-4.84,4.42-5.26,8.31-1.79,3.64,3.24,6.7,7,8.24,11.69,1.21,3.7,2.83,6.68,7.5,6.65,2.62,0,3.2,2.1,1.77,3.78-2.93,3.44-1.17,5.69,1.32,8,2.22,2.08,4.27,4.32.84,6.93-3,2.27-5.64,1.23-7.75-1.54a13.63,13.63,0,0,1-2.53-6.41c-.54-3.55-2.48-5.37-6.29-4.36a9.39,9.39,0,0,1-2,.36c-7.32.46-12.33,3.53-13.39,11.41-.34,2.49-1.52,4.49-4.6,4C531.45,558,530.71,556.3,530.94,553.79Zm17.27-24.47c-2.34.13-3,1.64-3.07,3.65-.14,2.76,1.19,4.42,3.85,4.78,2,.29,3.82-.74,3.87-2.83C552.94,532,551,530.2,548.21,529.32Z"/><path d="M481.34,41.2c0-6.79,0-13.57,0-20.36,0-2.36-.14-5.25,3.15-5.11,3.11.13,2.6,2.77,2.25,5-.68,4.27,1.45,6,5.43,5.4a139.49,139.49,0,0,1,17.91-1.23c3.86-.06,6.81-1.52,7.81-5.6.73-3,2.8-3.48,5.38-2.91s4.56,2,4.19,5.18c-.32,2.64-.72,5.27-1,7.92-.65,6.38-.58,12.62,2.81,18.43,1.54,2.65,1.49,5.31-1.89,6.49-3.11,1.08-4.64-.81-5.26-3.64-1.32-6-3.88-11.69-3.07-18.07.44-3.45-1.82-4.62-4.74-3.59-6.24,2.19-12.74,2.23-19.18,2.9-7.79.8-9.78,4.75-5.89,11.51,1,1.72,2.22,3.34,2.22,5.47,0,2.4.05,5-3.06,5.4-2.81.39-5.09-1-5.69-3.75a79.51,79.51,0,0,1-1-9.42Z"/><path d="M449.8,554.79c-2.77-.41-3.83-2.66-4.38-5.18-.67-3.08-1-6.24-2.58-9.07-2.42-4.43-5-5.32-9.42-3-4.58,2.36-8.22,5.47-9.44,10.9-.54,2.38-1.93,4.58-3,6.83s-2.86,2.65-5,1.81-2.3-2.64-1.66-4.55q5.58-16.49,11.24-32.94c1.27-3.67,3.72-4.65,6.89-2.2A49.19,49.19,0,0,1,439,523.4c3,3.3,6.06,5.68,10.83,4.41,2-.53,3.81.21,4.38,2.26.65,2.34-1.43,2.55-3,3.06-3.49,1.13-3.75,3.4-2,6.2,1.39,2.26,3.12,4.33,4.35,6.67C455.82,550.3,453.86,554.94,449.8,554.79Z"/><path d="M494.07,1240.18c-14,0-21.12-9.23-17.41-22.77,0-.16.12-.31.16-.47,5.3-17.8,16.9-20.85,30.13-7.94a37.16,37.16,0,0,1,8.35,11.1c2.76,6.11,1.55,10.93-3.84,14.92C506.31,1238.83,500.38,1240.18,494.07,1240.18Zm-3.36-28.36c-4.08,0-6.83,1.67-8,6.43-1.41,5.71.49,11.44,4.55,13.68,4.81,2.67,14.79,1.78,19-1.69s4.63-8.65.58-12.46C503,1214.16,498.47,1211.84,490.71,1211.82Z"/><path d="M369.46,386.62c0-8.74-1.32-15.92-2.69-23.11-.93-4.88-3.39-7.36-8.59-6.71-3.67.45-7.3-.31-10.89-1-2.14-.42-4.33-1.18-4.06-4.1s2.34-3.41,4.63-3.47c5.65-.16,11.3-.14,16.95-.32A40.94,40.94,0,0,0,378,345.48c2.19-.81,4.69-1.6,6.55.37s1.45,4.67.71,7.09-2.83,3-5.17,2.9c-3.86-.22-4.87,2-4.73,5.36q.46,12.19.87,24.41a9.41,9.41,0,0,0,2.83,6.2c1.39,1.5,2,3.2.95,5a6.18,6.18,0,0,1-5.46,3,4.45,4.45,0,0,1-4.07-3.18C369,392.9,369.29,389.06,369.46,386.62Z"/><path d="M595.85,384.06c.19-8.17-.93-16.26-1.9-24.34-.69-5.69-3.22-7.18-9.07-6.19a51.94,51.94,0,0,1-7.4,1c-2.72.07-4.31-1.48-4.46-4.31s1.38-3.92,3.84-4.26c12-1.62,24.07-3.26,36.11-4.82,2.78-.36,4.93.51,5.51,3.67.61,3.35-1,5-4.11,5.57-.32.06-.63.21-1,.29-13.44,3.48-14.23,4.58-11.83,18.22,1.15,6.56,2.63,13.06,2.25,19.78-.14,2.47.18,5.32-3.6,5.32s-4.25-2.56-4.38-5.42C595.8,387.06,595.85,385.56,595.85,384.06Z"/><path d="M390.84,373.92c.51-12.78,2.57-14.26,15.25-11.19,6.35,1.54,12.45,3.51,17.43,8,5.68,5.13,7,10.3,4.26,16.37-3.29,7.21-9.49,11.1-16.49,10.37A23.31,23.31,0,0,1,390.84,373.92Zm23,15.28a6.8,6.8,0,0,0,7.09-4.43c1.3-3,.35-5.48-1.85-7.66a26.92,26.92,0,0,0-13.19-7.63c-3.59-.79-6.08.31-6.73,4.48C397.82,382.39,404.38,389.31,413.81,389.2Z"/><path d="M679.17,1384.25c-.43-12.68,5.27-17.62,17.79-15.75,7.89,1.18,14.66,4,19.35,10.86,5.66,8.3,3.66,17.15-5.1,22a29.46,29.46,0,0,1-12.87,3.5C686.17,1405.41,678.38,1397.53,679.17,1384.25ZM698.32,1398a24.68,24.68,0,0,0,8.79-2.36c7.12-3.45,8-7.17,3-13.23a23.39,23.39,0,0,0-6.83-5.73c-4.75-2.65-9.77-1.94-14.28,1.84-4.15,3.49-4.68,7.84-3.09,12.64C687.48,1395.78,691.49,1398.07,698.32,1398Z"/><path d="M584,1038c11.82.08,19.64,6.47,22,17.75q1.72,8.23-4.77,13.27c-6.82,5.31-14.4,8.2-22.71,4.06-8.58-4.29-9.73-12.38-9.21-21C569.94,1042,574.2,1037.94,584,1038Zm-7.94,17.17c.33,7.78,5.22,13.14,11.68,12.8,5.91-.31,12.41-5.9,12.21-10.5-.25-5.74-7.33-12-13.36-11.9C579.4,1045.76,575.81,1049,576.08,1055.18Z"/><path d="M438.56,1366.46c4.55.27,8.89-.89,13.26-1.93,4.57-1.09,9.19-1.59,13.78-.14,1.83.57,3.39,1.7,3.58,3.74.23,2.49-1.88,2.67-3.62,3.26-6.14,2.08-7.48,4.3-6.92,10.81.86,9.85,2.43,19.46,8.05,27.94,1.28,1.93,1.15,3.76-1.11,5.07s-4.19,1-5.65-1.09a12.3,12.3,0,0,1-1.59-3.63c-2.64-9.43-5.37-18.84-7.76-28.33-2-8.1-4.15-9.66-12.24-7.82-2.26.52-4.43,1.43-6.68,1.94-1.81.41-3.72.5-4.74-1.61a4.53,4.53,0,0,1,1.3-5.84C431.22,1366.3,434.8,1365.88,438.56,1366.46Z"/><path d="M301.45,1059.49c0-3.33.13-6.67,0-10-.26-5.68-2-7.36-7.79-7.27-3.49,0-7,.54-10.46.75-2.83.18-5.53-.1-5.91-3.73s2.14-4,5.05-4.5c8.85-1.53,17.63-3.41,26.43-5.2,3.19-.65,6.27-1.5,8,2.6,1.52,3.66-.41,5.35-3.15,7.27-6.49,4.55-8.08,16.68-3.27,22.95,2.46,3.21.45,12.65-3.17,14.32-2.75,1.26-4.45.1-5.13-2.77C300.89,1069.13,301.45,1064.3,301.45,1059.49Z"/><path d="M650.44,1403c-10.27,0-18.07-5.86-19.34-14.06-1.18-7.63,6-18.9,13.55-21.37a8.66,8.66,0,0,1,6.78.72,30.54,30.54,0,0,1,15.5,17.5c1.65,4.61.55,8.83-3.36,12.16A22.3,22.3,0,0,1,650.44,1403Zm-2-7.8c4.54-.17,9.48-.29,11.75-4.9s-2.14-7.24-4.61-10.07c-6.11-7-7.52-6.89-13.69.43-2.35,2.8-5,5.53-3,9.72S644.42,1395.25,648.47,1395.19Z"/><path d="M145.23,373.61a27.05,27.05,0,0,1,.84-7.9c2.33-7.77,6.05-10.12,14.05-8.95a60.11,60.11,0,0,1,14,3.38c5.92,2.41,9.23,6.75,9.67,13.3.76,11.19-7.79,20.74-19.57,21.63-10.62.8-18.29-6.64-19-18.46C145.18,375.61,145.23,374.61,145.23,373.61Zm19.68,15.56c6.65,0,13.42-7,13.25-13.59s-7.15-12.48-15-12.36-12.43,4.72-12.28,12.5C151.05,383.93,156.56,389.22,164.91,389.17Z"/><path d="M401.53,703.08c-4.88,4.48-10.74,6.34-17.11,6.82-3,.22-5.86.61-6,4.45s.63,7.72,4.33,10c1.77,1.09,3-.63,4.42-1.42,1-.58,2-1.41,3.21-.69,1.43.86,1.07,2.36.91,3.61-.46,3.8-2.95,5.87-6.43,6.75-3.78.95-6.53-.83-8.32-4a50.12,50.12,0,0,1-6.1-20.91c-1.26-15.28-1.08-15.3,14.3-16.74,5.12-.48,10.17-1.65,15.25-2.47a24.07,24.07,0,0,1,4-.41c2,0,3.61.76,3.84,3,.25,2.51-1.51,3-3.43,3.33q-10.57,1.75-21.15,3.55c-1.14.19-2.28.46-3.41.73-2.12.51-3.86,1.47-3.37,4,.46,2.4,2.42,2.48,4.3,2.31C387.65,704.46,394.59,703.76,401.53,703.08Z"/><path d="M425.8,858.86c-.29,5.81-.75,11.65.09,17.43s3.32,7.48,9,6.56a31.92,31.92,0,0,0,16.21-7.17c2.56-2.23,5.33-3.88,8-.22,2.19,3,1.17,5.64-3.15,7.82-6.07,3.08-12.17,6.18-18.67,8.27-11.22,3.61-18.07-2.14-17.67-13.89.35-10.28-.25-20.59-.42-30.89,0-1.33,0-2.66.07-4,.13-2.24,1.43-3.26,3.61-3.19s2.92,1.4,2.93,3.29C425.83,848.2,425.8,853.53,425.8,858.86Z"/><path d="M638.21,220c-11.42-.09-18.79-7.51-18.7-18.85.08-10.35,7.93-16.84,20.12-16.63,9.53.16,18,9.29,17.87,19.21S649.88,220.09,638.21,220Zm2.89-6c6.88,0,10.59-3.13,10.71-9,.13-6.6-5.9-14.4-11.19-14.47-7.45-.09-13.33,4.77-13.43,11.11C627.08,208.74,633,214,641.1,214Z"/><path d="M716.69,200.26c-.43,8.08-2.36,15.48-9.39,20.51-8.48,6.07-18.25,4-23.41-5-3.41-5.95-5.39-12.48-7.48-19-.79-2.44-2.4-5.15.13-7.38a4.62,4.62,0,0,1,5.18-.56c2.76,1.38,2.59,4,2.6,6.5a28.67,28.67,0,0,0,6.31,17.49c3.9,5.13,7.8,5.78,13.35,2.31,8-5,9.19-16.8,2.34-23.19-2.2-2-4.88-3.86-3.71-7.45.63-2,2.36-2.59,4.37-2.65,3.91-.11,4.86,2.9,6,5.64C714.81,191.58,716.9,195.6,716.69,200.26Z"/><path d="M601,1418.43c-6.77-.1-10.72-3.29-12.61-9.08-3.13-9.59-3.6-19.62-5-29.5-.29-2.15-.62-4.29-.86-6.44s.22-3.86,2.47-4.23,3.17,1.31,3.42,3.34c1,7.76,1.91,15.53,2.91,23.29a40.66,40.66,0,0,0,.92,4.9c1.86,7.21,5.64,9.45,12.56,6.77,6-2.33,12.66-3.09,17.8-7.54,2.13-1.84,4.13-1,5.27,1.35s1.57,4.85-1.67,6.2c-6.14,2.55-12.27,5.13-18.41,7.69C605.08,1416.32,602.65,1418.24,601,1418.43Z"/><path d="M597,62.24c4.91-2.11,8.89-2,12.82-2.29,1.8-.14,3.94-.19,4.59-2.28.56-1.8-.94-3.05-2.08-4.26-5.09-5.34-9.75-10.92-11.23-18.48-1.61-8.23,2.49-14,10.79-15.22,2.88-.42,5.64.22,8.45.36,1.32.06,2.79.14,3,1.95a3.27,3.27,0,0,1-2.47,3.83,44.43,44.43,0,0,1-5.91.78c-5.82.66-8.69,4.19-6.51,9.55C611,42.47,613.14,49.5,621,51.86c3.49,1,4.93,3.74,4.5,7.37s-3.15,4.68-6.35,5.1C612,65.29,604.92,65.39,597,62.24Z"/><path d="M459.08,37.82c.23-4.31.5-8.62.7-12.93.24-5.23-3.15-9.31-8.38-5.55-2.67,1.92-5.76,1.08-8.67,1.4-2.09.23-3.73-.45-4.08-2.66s1.26-3.36,3.1-3.88a70.43,70.43,0,0,1,7.3-1.61c5.08-.87,10.15-1.79,15.26-2.42,6.31-.78,7.73,1.16,5.41,7-1.1,2.78-2.38,5.5-3.29,8.34C464,33.09,464,40.58,468.24,47.63c1.61,2.67,1.47,5-.57,7.26-1.42,1.61-3.08,2.61-5.27,2s-3.13-2.37-3.15-4.56c0-4.82,0-9.65,0-14.47Z"/><path d="M405.26,51c-8.22,0-15.18-7.64-16.57-18.13-.95-7.09,5-15.58,12.15-17.51,1.9-.52,3.38-.27,4,1.74s-.79,2.47-2.37,3c-7.42,2.55-8.33,4.26-7.06,12.7,1.3,8.64,4.06,11.47,11.38,11.69a35.15,35.15,0,0,1,4,.28c4.24.63,8.21.1,10.39-4,2.34-4.4,3.17-9.18.56-13.83-1.59-2.86-4.42-3.82-7.56-4.12-1.59-.16-3.64-.18-3.47-2.59.15-2.13,2-2.43,3.66-2.67,8.19-1.21,15.18,7.55,13.64,17.08C426.44,44,416.67,51,405.26,51Z"/><path d="M720.64,1075c-7.11.48-11.67-2.78-15.07-8.72-4.85-8.46-5.16-17.74-5.81-27-.12-1.76.4-3.41,2.59-3.56,2-.14,3.07,1.17,3.38,3,.59,3.44,1,6.9,1.54,10.34a57.87,57.87,0,0,0,1.12,5.87c2.9,10.9,10.49,15,21.27,11.45a26.49,26.49,0,0,0,3.2-1.36c1.84-.89,3.57-1.22,4.56,1.09.89,2.08-.11,3.49-1.93,4.5C730.81,1073.11,726.11,1075.62,720.64,1075Z"/><path d="M666.72,728.32c-.26,3.7-2,5.42-5,5.7s-4-2-4.22-4.41c-.8-10.41-1.59-20.79-5.3-30.72-1-2.65,0-5,3-5.8s4.91.8,5.47,3.62c.9,4.54,1.58,9.13,2.18,13.73A94.77,94.77,0,0,0,666.72,728.32Z"/><path d="M568.5,718.35c0,.34,0,1.84,0,3.34.09,2.21-.44,4-2.88,4.56a4.59,4.59,0,0,1-5.51-2.31,8,8,0,0,1-1.22-4.77,54.58,54.58,0,0,0-2.18-19.23,5.78,5.78,0,0,1,0-3,5.35,5.35,0,0,1,4.72-3.89c2.57-.41,3.46,1.33,4.16,3.37C567.88,703.2,567.7,710.25,568.5,718.35Z"/><path d="M648.51,541.51c0-3.81-.08-7.63,0-11.44a11.58,11.58,0,0,1,.92-4.33,4.45,4.45,0,0,1,5.37-2.59c2.17.5,2.62,2.37,2.48,4.32-.3,4.13-.74,8.26-1,12.39a38.26,38.26,0,0,0,.69,11.88c.79,3.14.26,5.76-3.48,6.37-4,.66-4.73-1.92-4.69-5.14,0-3.82,0-7.64,0-11.46Z"/><path d="M152.72,1061.29c0,2.49.17,5-.05,7.47-.22,2.67-1.72,4.43-4.61,4-2.67-.41-3.6-2.52-3-4.85,2.53-10,1.09-20.18,1.13-30.28,0-1,0-2,.07-3,.12-1.64,0-3.6,2.39-3.64s2.55,1.73,2.67,3.47q.9,13.41,1.78,26.82Z"/><path d="M486.8,877.6c0,3.06-1.39,4.79-3.94,5.38-2.87.67-3.95-1.34-4.32-3.61q-2.21-13.49-4.18-27c-.26-1.79-.51-3.86,2.1-4.26a3.51,3.51,0,0,1,4.14,2.79c.87,3.36,1.43,6.8,2,10.22A97.52,97.52,0,0,0,486.8,877.6Z"/></svg>