<svg xmlns="http://www.w3.org/2000/svg" width="962" height="1717.43" viewBox="0 0 962 1717.43"><title>c18-txt</title><path d="M522,1495.48c.46-5.61,1.74-10.24-4.29-12.28-2.44-.82-2.88-3.36-.85-4.86,6.18-4.58,4.55-9.93,2.27-15.63-1.32-3.3-2.32-7.51,2.25-8.49,4.2-.9,6.65,1.92,7,6.68,1.11,14.73,3.71,16.29,18.15,10.89a33,33,0,0,1,9.89-2.31c4.71-.27,8.74-1.79,8.92-7.78.09-3.33,2-6.15,5.28-6.82,4.53-.92,5.24,3.34,7,6.15,2.46,4,2.92,7.93,2.44,12.67-.89,8.68-3.16,17.53,1.83,26.09,2.4,4.11-.59,7.63-4.7,8.42-4.29.83-5.94-2.29-6-6.36,0-3.42-.34-6.84-.42-10.27-.39-19.32-.48-19.36-18.78-14.14-6.58,1.87-12.65,5-19.49,6.41-8.34,1.68-3.15,7.88-2,11.48,1.73,5.49,5.47,10.33,3.11,16.6-1,2.56-1,5.65-5,5.1-3.17-.43-4.77-2.1-5-5.41C523.14,1505.83,522.45,1500.06,522,1495.48Z" transform="translate(-213 -517.78)"/><path d="M821.08,1481.66c.55,9.69-3.64,11.78-13.65,7.88-8.56-3.34-17.31-6.18-25.89-9.48-5.69-2.18-7.55-.33-7.07,5.48a17.61,17.61,0,0,1-1,8c-1.25,3-2.85,7.12-6.85,6.6-5-.65-3-5.17-3.23-8.36-.53-8.83.39-17.78-3.3-26.3a10.37,10.37,0,0,1,.53-9.93c3-4.39,7-6.77,10-.47,6.16,12.84,19.4,15.33,30.09,21.51a7.46,7.46,0,0,0,7.88-.3c2.76-2,1.42-5,.68-7.56-.28-1-1-1.88-1.11-2.85-.39-4.17-3-9.8,3-11.28,7.11-1.75,5.83,4.38,6.3,8.65C818.26,1469.68,821.84,1475.6,821.08,1481.66Z" transform="translate(-213 -517.78)"/><path d="M840.55,1471.09c0-4.52.11-6.24,0-7.95-.35-4.54-1.1-10.13,5.39-9.82,6.1.29,5.37,6.32,5.24,10.51-.23,7.14-2.43,14.32.58,21.32,1.34,3.1,2.83,6.89,6.67,7.1,4.72.25,4.76-4.17,5.38-7.4,1.44-7.59,6.64-12.65,11.79-17.64,2.75-2.66,6.64-4.71,10.18-2s7,6.39,5.53,11.34c-4,13-11.73,23.17-25.06,27.85-7.45,2.61-17.43-3.15-21.38-12.05C841.45,1484.71,840.08,1476.65,840.55,1471.09Z" transform="translate(-213 -517.78)"/><path d="M598.74,1487.52c-5-9.62,4.17-17.17,2.79-26.6-.79-5.36,13.32-7.26,16.32-1.52,4.86,9.3,11.8,11.36,21.29,9.15,3-.71,7.77-2.07,8.22,2.91.37,4-3.84,3.87-7,4.09-2.37.17-5.4.14-6.29,2.63-1.32,3.67,2.64,4.24,4.63,5.59,2.71,1.84,5.16,3.36,4.11,7.26a8,8,0,0,1-5.19,5.93c-3.88,1.31-5.29-2.08-7.22-4.38-12.92-15.38-12.88-15.35-23.77,2.5-1.93,3.18-4.51,7.28-8.62,5.73-5.12-1.93-.8-5.68-.23-8.65C598.16,1490.5,598.48,1488.83,598.74,1487.52Z" transform="translate(-213 -517.78)"/><path d="M968.65,1506.2c-.45-15-1.16-28.87-8-41.78-2.06-3.89-1-8.77,3.9-10.08,5.17-1.37,4.84,3.9,5.58,6.78a203.54,203.54,0,0,1,5.65,69c-.36,4.09-1.51,8.66-5.87,10.12-3.9,1.31-6.62-2.38-9.88-4.07-7.86-4.09-11.57-11.91-17.5-17.69-2.5-2.43-4.44-5.38-4.43-9,0-3.86-1.34-9.52,3.62-10.24s3.19,5.12,3.95,8c2.92,11.13,11.92,22.22,17.68,19.71C973.64,1522.48,967.55,1512.76,968.65,1506.2Z" transform="translate(-213 -517.78)"/><path d="M1055.86,1491.2c-.54,12.06-5.15,18.68-13.71,19.66-9.58,1.11-17.29-5.19-21-15.75a66.82,66.82,0,0,1-3.57-24.17c.06-2.48.83-5.09,3.66-5.48,3.86-.54,4.46,2.86,4.66,5.41.38,4.76-.39,9.63.21,14.35.94,7.39,4.72,13.86,12.74,13.6,8.47-.27,9.43-7.36,9-14.44-.33-5.23-1.19-10.21-5.28-14-2.56-2.35-6.09-5.17-2.26-8.26,4-3.26,8.2-.55,10.17,3.36C1054.49,1473.5,1056.77,1482.07,1055.86,1491.2Z" transform="translate(-213 -517.78)"/><path d="M1091.24,1514.22c-7.63-.09-21.75-12-22.67-19.09-.33-2.51-.2-5.07,2.79-5.76,2.46-.56,3.55,1.34,4.3,3.42,2.1,5.81,5.2,10.51,12.36,10,5.39-.37,7.8-2.79,4.46-8-3.5-5.45-7.57-10.55-10.92-16.08-4.76-7.89-2.08-16.82,5.27-18.33,4.83-1,10.34,2,7.79,5.88-8.62,13.14,3.3,19.52,7.73,28.24a16.07,16.07,0,0,1,.24,14.64C1100.4,1514.18,1095.83,1514.35,1091.24,1514.22Z" transform="translate(-213 -517.78)"/><path d="M1156.26,1458.88c4.43,0,8.87-.15,13.29,0,3,.14,5.18,1.72,5.43,5,.24,3.16-1.7,4.15-4.43,4.28-6.89.33-6.36,4.74-5.11,9.43,2.87,10.84-3.25,22.4,2.7,33,.84,1.51-.32,3.28-2.24,4a4.19,4.19,0,0,1-4.66-1.12,14,14,0,0,1-4.28-11.08c.27-7.16.16-14.35-.14-21.51-.34-8.41-4.5-12.6-13.32-11.07a24.85,24.85,0,0,1-6.11.6c-3.52-.27-7.37-1.28-7.45-5.46s3.9-4.06,6.9-4.34C1143.3,1460.1,1149.72,1458.72,1156.26,1458.88Z" transform="translate(-213 -517.78)"/><path d="M698.19,1455.62c-3.26,10.39-5.6,20.85-9.85,30.45-3.5,7.9-12,7.46-16.75,0-3.86-6-7.61-12.09-12.83-17.14-4.14-4-3.28-8.45,1.08-11.3,5-3.27,6,1.91,8,4.82,3.4,4.79,5.43,13.45,11.57,12.42,5.17-.87,5.21-9.27,6-15,.26-2,1.56-3.78,2-5.74.77-3.18.21-8.09,5-7.23C696.31,1447.63,696.67,1452.51,698.19,1455.62Z" transform="translate(-213 -517.78)"/><path d="M742.41,1495.47a6,6,0,0,1-5.94,5.22c-4.8.15-4.63-4.59-4.8-7.64-.69-11.93-1-23.86-4.8-35.37-1.46-4.43.55-7.61,5-8.37,5-.85,5.45,3.76,5.88,6.74C739.47,1468.22,740.68,1480.46,742.41,1495.47Z" transform="translate(-213 -517.78)"/><path d="M672.68,1020.41c6.21,1.49,10.58-2.77,15.86-2.3,1.17.11,3.81-2.3,3.63-3-2.23-8.9,5.75-13.51,8.16-20.37,3.16-9,7.49-11.1,16.86-7.23,5.6,2.3,23.32,30.8,22.94,36.8-.11,1.87-.73,3.37-2.51,4.09a4.84,4.84,0,0,1-6.34-1.89c-2.25-3.82-4-7.94-5.89-12-1.77-3.79-3.81-8.54-8-8.45s-7.87,4.23-9.38,8.38a43.33,43.33,0,0,1-7.27,12.34c-4.35,5.44-8.07,12-15.79,3.33-1.47-1.65-5.88-.94-8.92-.88-13.35.24-25.84-3.41-37.62-9.11-4.42-2.15-5.92-2.25-6.93,2.66-.74,3.66-1.68,8.3-7,6.46-4.56-1.57-3.85-5.9-3-9.73,2.12-10,5.7-19.92-.29-29.93-1.33-2.24-.3-4.74,2.37-6,2.52-1.16,5.09-1.07,5.92,1.87,2.54,9,5.54,4.53,9.47.89,5.48-5.08,12.14-7.55,19.86-6.35,4.31.67,9.77-.14,10.81,5.62.92,5.07.43,10.53-4.52,13.9-4.52,3.08-9.38,5.66-14,8.64-2.17,1.41-5.95,3.88-.85,5.48C657.94,1016.1,664.6,1022.44,672.68,1020.41Zm-35.06-14.23c7.32-4.17,12.92-7.28,18.42-10.56,1.67-1,3.81-2.17,2.56-4.76-1.1-2.3-3.25-2.18-5.32-1.68C645.21,991.1,638.81,994.73,637.62,1006.18Z" transform="translate(-213 -517.78)"/><path d="M584.2,1040.32c-15.91.13-30.72-14.16-31.28-29-.24-6.22-1.31-12.18-4.72-17.55-1.51-2.37-.87-4.54.95-6.52,2-2.19,4.61-2.41,6.26-.31,4.35,5.53,6.4,2,9-1.61,2.78-3.89,6.07-7,11.14-8.39,5.59-1.49,10.44-.31,14.38,3.17,4.15,3.67,1.61,8.4-.15,12.31-2.71,6-5.16,10.35,4.13,13.92,6.51,2.49,8.66,10.51,6.71,17.73C598.24,1033,592.25,1038.7,584.2,1040.32Zm-9.78-10.42c4.2.22,5.57.46,6.91.33,5.95-.61,9.75-4.17,9.44-9.93-.32-6.14-5.89-5.63-10.2-5.33-3.31.23-6.57,1.39-9.81,2.28-2.57.71-6.18,1.13-6.28,4.2-.12,3.52,2.82,6.19,5.84,7.73A7.24,7.24,0,0,0,574.42,1029.9Zm-4-27.12c3.92-2.95,8.87-5.68,10-11.45.47-2.34-2-3.72-4.07-3.2-6,1.5-8.53,6.14-9.36,11.8C566.76,1001.6,567.56,1003.3,570.44,1002.78Z" transform="translate(-213 -517.78)"/><path d="M752.45,1007.58c.42-4,.68-8.82-3.81-12.27-2.86-2.2-4.11-4.53-1-7.62,2.72-2.75,6.24-2.94,8.1-.24,4.14,6,7.73,4.06,11.53.22,6.28-6.36,14.32-5.79,22.14-5.61,3.48.08,8.14-.9,9.23,4.32.88,4.23.07,8-3.47,11.17-4.87,4.35-9.44,9-16.29,10.17-1.91.34-4.41,1.19-4.22,3.69s2.76,2.85,4.77,2.94c8.89.38,17.42,6.32,26.81.91,3.86-2.23,5.56,1.44,5,4.92-1,6.11-5.72,7.18-10.93,6.64-9.2-1-18.38-2.11-27.56-3.21-2-.25-4.08-.94-6.11-.92C752.41,1022.83,752.17,1022.63,752.45,1007.58Zm29.2-18.76c-6.57.21-15.81,7.06-15.07,11.26.33,1.88,1.69,3.15,3.61,2.49,6.4-2.21,13.13-4.46,15.85-11.34C787,988.8,783.59,988.9,781.65,988.82Z" transform="translate(-213 -517.78)"/><path d="M973.43,1021.38a73.48,73.48,0,0,1-.44,8.49c-.52,3.69-3.3,6-6.42,7.47-3.5,1.59-5.71-1-7.74-3.44a10.06,10.06,0,0,0-1.36-1.54c-4.56-3.6-6.06-12.22-11.58-12.11-6.34.12-3.63,9.11-6.89,13.28-1.94,2.47-3.62,5.14-7.25,4.89a7.37,7.37,0,0,1-7.21-6.26c-2.19-11.47-6.61-22.19-10.5-33.1-1-2.86-.66-5.71,2.65-6.75s5.13,1.39,6,4.14c2.23,7.18,4.2,14.44,6.32,21.66.49,1.65,1.18,3.45,3.17,3.6,2.79.22,2.75-2.23,3.52-4.08,2-4.8,1-12.49,7-13.61,7-1.3,8.09,7.14,12.1,11,2.78,2.65,3.75,9.35,8.43,7.37s2.25-8,1.6-12.07c-.58-3.63-2.43-7-3.77-10.54-1.06-2.74-1.27-5.36,1-7.62,1.68-1.69,3.64-1.66,5.64-.62,2.35,1.21,3,3,3.2,5.78C971.31,1004.76,972.4,1012.18,973.43,1021.38Z" transform="translate(-213 -517.78)"/><path d="M1046.7,1036.73c-.89,4.48-.73,9.4-6.34,9.69-6.28.33-5.65-4.54-5.67-8.68a35.14,35.14,0,0,0-.13-4.11c-2.83-22.61-2.09-20.92-25-15.57-4.46,1.05-6.76,3.85-4.41,9.3s5.74,13.93-1.2,15.83-6.36-7.85-8.22-12.81c-1.31-3.47-1.12-7.44-5.18-9.41-2.67-1.29-3.2-3.57-1.56-6,3-4.43,2-9.2,1.61-14-.19-2.53-1.7-6,2.46-6.59,3-.39,4.69,1.95,6,4.71,1.74,3.79-2.07,12.54,5.32,10.74,7.74-1.88,19.76,4.21,23-9.54.69-3,3.92-4,6.8-3,4.05,1.46,7.73,4.44,7.93,8.66C1042.54,1016.64,1042.26,1027.23,1046.7,1036.73Z" transform="translate(-213 -517.78)"/><path d="M1060.27,1034.64c.26-4.43.85-6.73.33-7-10-5.53-2.5-14-3.66-21-1-5.93,1.27-8.7,7.68-9.17,10.49-.76,21.17-.69,31.16-5.07,4-1.77,5.8,1.39,6,4.69.27,3.63-.7,7.15-5.59,6.6-7.76-.87-14.51,3.65-22.09,4-3,.12-6.8,1.62-6,5.52s4.57,3,7.7,3c3.4,0,8.08-5.81,9.65-.63,1.88,6.19-5.53,5.23-9.17,6.87-3.13,1.4-7.06,2-6.54,6.59.76,6.74.29,14.15,5.55,19.3,2.37,2.33,4-.86,5-3.09s2.2-3.69,4.65-2.46c2.19,1.11,2.31,3.48,1.79,5.43-1.29,4.85-3.71,9.06-9.19,9.94-4.64.74-8.42.05-10.81-5.27C1063.67,1046,1060.71,1039.2,1060.27,1034.64Z" transform="translate(-213 -517.78)"/><path d="M1121.61,1017.45c-.23-4.11-.16-8.25-.77-12.3-.55-3.65.7-5.91,3.77-7.57,3.35-1.81,5.71-.16,8.34,1.82,7.9,5.92,16,11.6,24,17.4,2.24,1.63,4.51,3.73,7.37,1.83s1.25-5,1.25-7.59c0-4-1.63-7.33-4-10.38-2-2.63-2.19-5.07.77-7,2.56-1.68,4.88-.5,6.13,1.75,6.41,11.55,7,24.42,6.3,37-.32,5.47-5.9,3.13-8.8.56a107.33,107.33,0,0,0-23.11-15.25c-6.44-3.28-9.65-2-9.73,5.62a74.18,74.18,0,0,1-1,12.29c-.5,2.69-2.27,5.54-5.47,5.12a5.79,5.79,0,0,1-5-5.79C1121.49,1029.13,1121.61,1023.29,1121.61,1017.45Z" transform="translate(-213 -517.78)"/><path d="M852.49,1007.49c-1.87,11.34-4.44,23-4.34,35.13.05,6.81-2.2,13.33,4,18.92,3,2.72-.11,5.65-1.71,8.17-1.29,2-2.64,4.52-5.6,3.11-2.7-1.28-3.82-3.92-3.76-6.84.23-10.59-3.36-21.07-.6-31.76,1.22-4.7.89-9.06-5.87-5.5-3.91,2-6.12.36-8.87-2.33-8.39-8.2-9.49-19.6-13.56-29.68a2.78,2.78,0,0,1,2.11-4c2.67-.62,4.6.56,6.12,2.73,3.88,5.53,3.82,12.37,6.14,18.46,3.11,8.16,6.63,6.37,10.78,1.54,3.22-3.75,4.55-8.27,4.63-13.34.06-4.12-1.72-10.4,4.82-10.6,7.16-.22,3,7,4.92,10.39C852.48,1003.31,852.22,1005.28,852.49,1007.49Z" transform="translate(-213 -517.78)"/><path d="M467.36,999.19c0,1,0,2.06,0,3.09.68,25.87,6.86,29.28,29.48,16.35,2.65-1.51,5.41-6.14,8.61-2,3.43,4.36-1.2,6.81-4.11,8.76-4.24,2.83-8.87,5.09-13.38,7.49-14.44,7.69-29.72.55-27.9-18.5,1-10.42-1-21.12-1.49-31.7-.12-2.54-1.1-6.1,2.74-6.7,4.07-.64,5.26,2.68,5.53,5.87.49,5.77.58,11.59.84,17.38Z" transform="translate(-213 -517.78)"/><path d="M523.62,1020.66c-.1-9.21.79-18.45-1.75-27.5-1-3.55-.22-6.12,3.79-6.87,4.42-.84,5.12,2.31,5.73,5.46,2,10-.74,20.44,4.09,30.27,1.87,3.82-2.18,7.63-6.17,7.56C524.25,1029.49,522.94,1025.28,523.62,1020.66Z" transform="translate(-213 -517.78)"/><path d="M784,1737.65c.5-8-2.28-15.47-3.77-23.14-.56-2.87-1.65-5.58,1.95-6.78,2.74-.91,4.71.77,5.46,3.35,2.22,7.58,5.12,5.56,8.64.87,5.88-7.83,13.85-11.79,23.6-12.7,10-.93,15,4,12.91,13.77-1.37,6.32-3.55,12.57-9.51,16.51-5.81,3.86-3.26,7.2,1.52,8.53,10.81,3,21.79,6.48,33.12,2,3.12-1.24,6.77-3.82,8,1.75,1,4.6-1.82,7-6.11,7.77-16.77,3-32.71.07-47.93-7-3.39-1.59-6.54-3.53-10.22-4.62s-5.66-.6-6.83,3.37c-1.06,3.63-.94,9.43-6.9,8.23C780.81,1748.06,783.93,1742.1,784,1737.65Zm19-10.82c9.31-.83,14.82-4.61,19.69-9.69,1.88-2,2.63-3.94,1.42-6.42-1.29-2.64-3.74-3-6.14-2.41-7.11,1.82-13.45,4.64-17.09,11.8C798.19,1725.3,799.61,1727.05,803,1726.83Z" transform="translate(-213 -517.78)"/><path d="M694.42,1696.61c14.6,0,19.47,6.75,13.5,19.11-3.52,7.28-2.93,10.13,5.26,11.52,5.63,1,11.81,2.47,13.06,9.65s-4.77,9.67-9.06,13.53c-13.3,12-28.25,4.12-42.32,3.3-3.9-.23-10.21-5.81-4.82-13.5,3.92-5.59.77-22.79-4.78-26.9-5.28-3.92-1.74-5.83,1-7.49C675.14,1700.35,685.29,1698.48,694.42,1696.61ZM691,1750.15c8.45.87,15.69-1.86,22.25-6.53,2.22-1.59,4.2-3.94,3.54-6.91-.73-3.3-3.82-3.14-6.53-3.66-8.25-1.6-16.26,1.79-24.36,1.08-7.09-.63-8,2.7-7.37,8.5C679.43,1751.05,685,1751,691,1750.15Zm-14.77-30.46c1.92,1.39-4.31,9.54,4.55,7.78,7.31-1.44,14.48-4.47,19-11.3,2.48-3.79,3.75-8.51-.66-10.8-6.34-3.31-12.56.9-18.59,2.94C675.76,1709.9,674.65,1713.7,676.22,1719.69Z" transform="translate(-213 -517.78)"/><path d="M267.06,1720.62c.73-17.36,11.49-26.71,25.88-23.58,3.47.76,6.88,1.63,7.51,5.86.34,2.31,1.14,5.11.23,6.92-1.49,2.94-4.23.5-6.39,0-14.91-3.11-19.43-.14-19.17,12.37.17,7.91,3.9,9.74,10.65,6.72,8.13-3.65,15.44-9,24.22-11.31,9.92-2.6,13.25.22,13.26,10.36,0,12.58-12.36,28-26.17,28-11.63,0-24.34-9.76-27.64-22.51C268.23,1728.89,266,1724.51,267.06,1720.62Zm28.22,26.3c7.65.75,13.22-2.87,17.86-8.25a7.46,7.46,0,0,0,1.11-8.63c-2-3.55-5.37-2-8.21-1-4.49,1.54-8.9,3.31-13.32,5-3.62,1.4-9.35,2-8.15,7C285.59,1745.28,290.77,1746.71,295.28,1746.92Z" transform="translate(-213 -517.78)"/><path d="M523.88,1740.06c.45-8.39.29-16.35-6.4-23-4.61-4.58,1.52-6.2,3.54-8.7,3.51-4.36,7-3.25,10.29.51,7.48,8.57,16.31,15.51,25.36,22.37,4.47,3.39,9.78,4.9,14,8.4,1.9,1.58,3.85,3.41,6.32,1.59,2.65-2,2.44-5.23,1.23-7.55-3-5.67-3.36-11.84-4.29-17.9-.45-2.91-1.11-6.9,3.42-7.15,3.84-.21,3.76,3.14,3.65,6-.38,9.94,4.43,18.61,7,27.81,1,3.46,2.6,7-.11,9.62s-6.68.77-9.7-.44c-12.41-5-24.61-10.37-34.89-19.35-2.34-2-4.88-6.09-8.69-4-3.31,1.84-.85,5.67-1.05,8.59-.33,4.78.1,9.64-.66,14.33-.44,2.74-1.28,6.87-5.4,6.38-3.81-.45-4.26-4-4.16-7.25C523.44,1746.92,523.7,1743.49,523.88,1740.06Z" transform="translate(-213 -517.78)"/><path d="M459.4,1702.22c9.76,2.16,19.24-1.67,28.9-3.63,4.33-.88,7-.08,7.37,4.29s-2.25,5.77-6.58,5.3c-9.29-1-18.37,1.36-27.55,2.3-3.75.38-7.22,1.52-6.81,5.92.47,5.08,4.85,3.93,8.08,3.71,6.52-.45,13-1.27,19.51-1.85,1.95-.17,4.57-.83,5.16,1.84.77,3.51-2.45,3.7-4.62,4.08-6.43,1.12-12.9,2.1-19.38,2.84-4.16.47-7.45,1.21-7,6.59.55,7,.73,14.2,8.69,17.1,4.15,1.52,8.08.63,10.64-3.78,1.16-2,.93-6.74,4.92-4.76,3.65,1.81,1.55,5.59.4,8.27-2.32,5.43-5.4,10.83-11.92,11.49-6.27.63-11.07-3-14.92-7.76-6.71-8.26-3.76-21.15-13.35-28.14-.32-.23.36-3,1.18-3.44,5.78-3,4.18-7.52,1.86-11.38-5.51-9.17-.71-9.85,6.78-9A82.72,82.72,0,0,0,459.4,1702.22Z" transform="translate(-213 -517.78)"/><path d="M979.8,1720.3a94.64,94.64,0,0,0,2.22,22.42c.92,4.37.64,10-5.24,10.4-5.16.38-6.06-4.14-6.06-8.77,0-7.83-.92-15.68-.6-23.48.25-6.23-1.76-7.47-7.18-5.23-4.41,1.83-8.81,3.88-13.42,5-8,1.89-14.63,3.91-11.47,14.77,1.17,4-2.69,7.65-6.42,7.61-4,0-4.79-4.32-4.37-7.89.92-7.91-.28-15.72-2.12-23.23-1.06-4.3-.48-6.69,3.13-8.25,4.44-1.93,5,1.28,5.7,4.61.75,3.63,3.37,4.78,7,4.31,10.75-1.42,21.85-1.39,28.85-12.32,2.89-4.51,6.81-4.11,8.82,1.74C980.69,1708,980,1714.15,979.8,1720.3Z" transform="translate(-213 -517.78)"/><path d="M1104.8,1740.54c.49-6.59,1.15-14.47,1.64-22.35.38-6-1.28-9.84-8.25-6.66-7.32,3.35-15.72.37-23.08,4.36-2.45,1.33-6.9.26-6.73-4,.15-3.4.26-8.74,5.46-8.41,13.73.88,26.27-3.88,39.22-7,7.29-1.73,8.38,3.61,6.72,8.78-4.35,13.54-7.07,27.05-4.19,41.36.75,3.7-2.5,6.67-5.93,7.38-4.45.92-4.63-2.93-4.84-6.06C1104.69,1746,1104.8,1743.89,1104.8,1740.54Z" transform="translate(-213 -517.78)"/><path d="M892.85,1726.89c.66-21.8.65-21.83-22.88-15.32-3.07.84-6.35,2.17-8-1.65-2-4.69,2.23-6.27,5.25-7.07,11.49-3.06,23-6.09,34.74-8.15,7-1.23,7.31,3.93,4.91,8.52-6.46,12.39-6.52,25-2.56,38,1.45,4.72.38,8.58-4.52,9.5-4.52.86-6.84-2.43-7-6.85C892.75,1738.74,892.85,1733.61,892.85,1726.89Z" transform="translate(-213 -517.78)"/><path d="M1153.56,1747.2c-12.15-.3-21-7.84-20.86-17.84.12-12.46,5.73-21.57,13.06-21.2,15.93.82,29.74,12.37,29.23,24.45C1174.64,1740.69,1164.66,1747.48,1153.56,1747.2Zm-1.3-9.38c6.58-.13,14.8-5,15.16-8.44.37-3.59-11.35-11.63-16.54-11.45-7,.25-8.19,5.82-8.61,10.71C1141.64,1736,1147.66,1737,1152.26,1737.82Z" transform="translate(-213 -517.78)"/><path d="M414.48,1713.15c-.56-2.58-1.6-5.55-1.77-8.56-.22-3.77,2.6-5.64,5.88-5.76,3.64-.12,4.61,3.05,4.05,5.8-2.91,14.38-3.95,29.14-8.77,43.11-1.63,4.73-5.06,7.15-10.31,6.48-5.54-.7-5.18-4.62-6-8.9-2-9.86-5-19.51-7.88-29.17-1-3.42-1.43-6.62-.25-10,.9-2.57,2.44-4.2,5.27-3.78,2.65.39,2.65,2.46,2.79,4.65a155.6,155.6,0,0,0,5.17,29.18c.55,2.08,1,4.13,3.73,3.85,2-.2,2.82-1.73,3.2-3.5C411.17,1728.89,412.77,1721.27,414.48,1713.15Z" transform="translate(-213 -517.78)"/><path d="M350,1732.23c0-7.55.71-13.71-1.2-19.79-1.16-3.68,1.39-6.21,4.46-7,4-1,5.42,2.35,5.73,5.54,1.07,10.88-.93,21.87,1.52,32.78a6.29,6.29,0,0,1-5.58,7.42c-4.56.32-5.62-3.45-5.64-7C349.29,1739.74,349.83,1735.29,350,1732.23Z" transform="translate(-213 -517.78)"/><path d="M756.38,1721.29c2,4.4-1.25,12.56,5.38,18.21,2.26,1.92,2.27,5,1.17,7.57-.89,2.1-3.28,2.17-5.33,2.28a5.12,5.12,0,0,1-5.69-4.78,218.71,218.71,0,0,0-4.61-31.18c-.69-3.06,2.16-5.09,5-5.38,3-.31,3.81,2.36,4,4.83C756.52,1714.86,756.38,1716.92,756.38,1721.29Z" transform="translate(-213 -517.78)"/><path d="M1119.59,1973.24a39.46,39.46,0,0,1-26.08-7.92c-4.5-3.4-8.26-4.6-10.31,3.08-.82,3.08-.68,9.48-6.77,8.29-5.76-1.13-3.7-6.23-3.88-10.2a126.74,126.74,0,0,0-4.45-29.38c-.93-3.24-3.73-7.62,1.82-9.39,4-1.26,7.42-.12,8.53,4.82,1.46,6.57,4.63,3.64,6.7.66,3.08-4.44,7.24-7,11.84-9.57,5.5-3,11.49-4.19,14.54,1.41,2.85,5.25,2.55,12.2-3.16,16.73-2.63,2.09-5.94,3.3-8.88,5-5,2.93-6.54,6.67-.83,10,8.36,4.93,17.36,8.43,27.36,6.4,4.23-.87,9.3-2.48,9.89,3.18.55,5.18-4.09,7.3-9.3,6.86C1124.91,1973.11,1123.18,1973.24,1119.59,1973.24Z" transform="translate(-213 -517.78)"/><path d="M437.91,1946.48c3.8-14.56,14.61-18,26.85-19,5.92-.47,13.14-.63,14.8,6s-2.36,12.56-8.79,16c-3.76,2-10.58,2-10.32,6.88.32,6,7.54,6.37,12.15,7.57,6.13,1.59,11.86,5.21,18.68,4.17,3.17-.48,6.75.14,6.15,4.64-.57,4.21-2.86,6.68-7.84,5.84-17.16-2.9-33.07-8.51-46.61-21-3.57,5-2.22,10.94-4.39,15.77-1.23,2.74-2.33,6.37-6.38,5.31-3.53-.93-4.21-3.88-3.82-7.4,1.08-9.67.55-19.09-4.11-28-2.28-4.36-1.86-10,2.78-11.55,6.53-2.23,6.37,4.09,7.23,8.32.33,1.6.71,3.18,1.07,4.76Zm22-10.15c-5.78,0-12.78,4.13-14.59,8.39-1,2.35-1.59,4.6,1.24,6.1,1.19.63,17.52-8.65,18-10.16a2.88,2.88,0,0,0-1.92-4A11.82,11.82,0,0,0,459.94,1936.33Z" transform="translate(-213 -517.78)"/><path d="M1022.48,1934.86c3.86,3.54,7.66,2.5,11.23,2.62,2.32.07,5.26-.41,5.4,3.09.11,2.83-2.06,4.24-4.57,4.75-3.69.75-7.43,1.74-11.14,1.75-6.77,0-10.9,2.34-8.89,9.64,1.78,6.46,1.5,15.74,12.71,13.17,4.67-1.07,9.17-2.84,13.75-4.25,2.15-.66,4.69-2.68,6.22.55a4.64,4.64,0,0,1-2.08,6.29c-8.92,3.67-17.07,10.3-27.86,7.32-9.76-2.69-11.47-10.31-13.11-18.81-2.08-10.75.06-21.09,1.5-31.52.68-4.89,5.56-5,9-5.09a212.05,212.05,0,0,0,35.57-3.81c3.57-.67,5.07,1,6.19,3.78,1.48,3.74-1.24,4.92-3.81,6-4.93,2-10.19,1.78-15.23,1C1032,1930.56,1027.63,1932.09,1022.48,1934.86Z" transform="translate(-213 -517.78)"/><path d="M297,1964.77c0-2.53.84-5.73-.13-6.44-9.11-6.65-.17-16.73-4.89-24.28-1.44-2.3.29-5.51,3.84-5.87s7,1.5,6.8,4.71c-.65,10.28,4.26,7.92,10.9,6.48,8.36-1.82,17.18-.74,19.48-12.62.66-3.39,6.25-3.56,9,.76,3.21,5,4.55,10.57,4.9,16.56.46,7.7-.3,15.69,4.69,22.58,2.41,3.33,0,6.68-1.43,9.64-1,2.08-3.49,2.09-5.5,1.22-3.47-1.5-5.78-4.34-5.14-8.07,1.19-7-1.45-13.53-1.83-20.31-.15-2.79-1.3-7.08-4.07-5.85-8.08,3.58-17.73,2.55-24.82,9-3.91,3.6-2.18,7.49-2,11.44.24,4.88,2.66,12-5,11.91C295.39,1975.63,296.29,1969.15,297,1964.77Z" transform="translate(-213 -517.78)"/><path d="M380.54,1939.36c3.7,4.05,7.81,1.13,11.53.86,2.84-.2,6.19-1,7,2.33.91,3.68-2.27,5.29-5.45,6.15s-6.67,1.62-9.94,2.65c-3,1-8.11-1.64-8.69,3a15.19,15.19,0,0,0,4.69,13.08c3.73,3.34,7.86.9,11.44-1,1.73-.92,2.86-2.9,4.39-4.27,1.31-1.17,2.93-2,4.68-1.06,2.24,1.24,2,3.3,1.4,5.4-1.67,6.2-12.32,13.48-18.84,13.52-10.22.06-14.45-6-16.62-14.83-2.28-9.33-1-19-3.57-28.42-1.52-5.55,2.76-8.19,7.88-8.22,9,0,17.71-1.37,26.07-5,2.44-1,5.77-1.63,7.26,1.56,1.59,3.41-.62,5.71-3.32,7.69-2.94,2.16-6.24,2.41-9.68,2.9S383.13,1934.88,380.54,1939.36Z" transform="translate(-213 -517.78)"/><path d="M910.67,1947.64c-12.07,1.4-20.91,2.16-29.65,3.54-7.34,1.16-4.48,6.32-3.17,10.35.9,2.79,4.35,4.38,3.75,8.08s-1.24,7.1-5.43,7.69c-3.91.56-5-2.4-5.95-5.62-3.29-10.76-2-22.37-6.47-32.94-.94-2.21.83-4.73,3.17-5.9,2.07-1,3.33-.35,4.85,1.84,6,8.64,28.09,9.74,36.53,2.13,8-7.17,9.19-6.73,12.06,3.69,1.67,6.06,1.15,12.26,1.68,18.39.29,3.29-.8,7,2.65,9.45,3.18,2.25,3.61,5.09.82,7.73-2.14,2-4.36,4.73-8,3.64s-4.19-4.17-4.4-7.37c-.41-6.1-.8-12.21-1.21-18.31C911.72,1950.94,911.65,1947.73,910.67,1947.64Z" transform="translate(-213 -517.78)"/><path d="M593,1969.89c-8.07.94-11.74-.49-7.94-11.8,2.75-8.2,2.08-18.79-.5-27.26-3.74-12.29.1-14.65,11.38-14.87,8.21-.16,16-1.41,24,2.2,8.79,4,12.5,9.73,11.21,19.3C628.84,1954.67,611.2,1970.38,593,1969.89Zm-1.68-33c-.6,9.12,5.7,16.79,4,26.21-.69,3.81,3.88,1.78,6.2,1,10.67-3.63,15.49-13,20.5-21.82,2.66-4.7,4.59-10.41-.82-15-7.09-6-14.57-5.15-22.87-2.08C592,1927.6,591.1,1931.72,591.32,1936.94Z" transform="translate(-213 -517.78)"/><path d="M805.73,1929.3c3.81.29,7.69-.38,7.29,4.37-.32,3.64-3.13,3.75-6.2,3.26-6.85-1.11-10.9,2.77-11.45,8.84-.71,7.92-3.12,17.4,5.13,22.57,4,2.48,10.36,3.05,12.3-5.55,2.22-9.83,7-18.9,18.09-21.53,3.75-.89,8.55-2,10.8,3.09,1.86,4.21,2.88,9.08-.59,12.6-7.93,8.07-14.73,17.52-27.38,19.67-10.51,1.79-20.87-3.37-24.21-13.86-4.23-13.29,1.22-29.46,11-32.44A43.06,43.06,0,0,1,805.73,1929.3ZM835.07,1955c.37-3-1.21-4.19-2.86-3.93-5.32.84-9.61,3.48-11.32,8.9a2.71,2.71,0,0,0,2.84,3.41C829.47,1962.91,831.65,1957.68,835.07,1955Z" transform="translate(-213 -517.78)"/><path d="M694.82,1937.19c-13.24,9.56-.39,13.45,3.92,19.45,2.11,2.93,1,6.16-1.73,8.15-3,2.17-5.26,0-6.75-2.4-2.93-4.61-5.34-9.55-8.32-14.12-5.16-7.9-13.83-7.38-18.51,1-.83,1.48-1,3.41-2.08,4.64-2.73,3.2-4.78,9.54-9.81,7.06-5.48-2.7.08-6.83,1.21-10.21.66-2,2.21-4.19-.21-5.36-11.06-5.34-5.55-6.23,1.7-6.81,4.27-.34,5-3.56,6.4-6.86,5-11.78,10.34-12.51,18.15-2.53,2.68,3.42,5.38,4.8,9.62,3.92C691.43,1932.47,693.63,1933.92,694.82,1937.19Z" transform="translate(-213 -517.78)"/><path d="M954.09,1936.69c-3.84-.34-11.46,1.81-11.57-3.66-.15-6.91,7.63-5.85,13-6,9.91-.2,19.81-.3,29.72-.59,3-.09,5.66.46,6.47,3.65a5.91,5.91,0,0,1-3.3,6.91c-3.42,1.73-9.18,1-8.68,6.81.72,8.39-2.5,17.3,2.25,25.08,1.71,2.81,4.14,4.7,1.08,7.74-2.32,2.3-5.21,3.5-8.45,2.53-3.64-1.09-4.34-4.39-4-7.48.75-6.83-.54-13.51-.69-20.26C969.57,1936.93,969.48,1936.61,954.09,1936.69Z" transform="translate(-213 -517.78)"/><path d="M769.24,1944.87c-.18,12.65-16.45,28.55-27.23,28.39-7.88-.11-13-4.6-15.36-11.39-3.65-10.26-6.24-20.9-9.49-31.31-1-3.19-.62-5.6,2.66-6.54,3.76-1.07,5.2,1.88,5.12,4.66-.22,7.77,3,14.69,4.54,22,1.3,6.41,3.07,12.69,10.12,13.68,8.43,1.18,15-3.46,20.17-10,4.48-5.62,3.84-11.28.82-17.31-1.35-2.7-6.76-3.83-3.65-8.31a4.89,4.89,0,0,1,5.6-1.65c3.84,1.3,4.35,4.91,5,8.32C768.17,1939.17,768.87,1942.86,769.24,1944.87Z" transform="translate(-213 -517.78)"/><path d="M1154.68,2010c-3.43-1.07-3.12-3.44-1.22-5.4,6.31-6.51,10.54-14.32,14.72-22.21,1-1.88,2.55-3.47,5-2.47,1.85.76,1.84,2.66,1.87,4.38.1,5.41-13.06,23.54-18.26,25.16C1156.09,2009.7,1155.43,2009.84,1154.68,2010Z" transform="translate(-213 -517.78)"/><path d="M575.29,1232.58c.6,6.5,1,13-.78,19.41-2.92,10.56-8.55,12.57-17.2,6.15-1.92-1.43-3.88-2.82-5.65-4.42-6.69-6-11.38-6.3-14.14,3.75-1.51,5.49-6.84,8-12,8.12s-5.49-5.07-6.95-8.92c-3.83-10.12-5.6-21-12.76-29.92-2.78-3.46-2.45-9.67,1.95-11.85,4.79-2.37,6,3.44,7.15,6.51,3.15,8.31,5.57,16.91,8.4,25.35.87,2.57,1.87,5.62,5.23,5.56,4.21-.08,3-3.73,3.42-6.21.36-2,.67-4.07,1.11-6.07.8-3.62.66-8.37,4.86-9.46s6.63,2.68,9,5.66c.21.27.33.65.58.85,5.09,3.82,10.47,11,16.15,8.94,6.88-2.51,2.08-10.77,2.51-16.57s-4.44-15.93,4.1-16.59c9.34-.72,2.72,9.65,4.92,14.61C575.83,1228.91,575.29,1230.86,575.29,1232.58Z" transform="translate(-213 -517.78)"/><path d="M991.53,1257.78c.84-7.12-.59-14.47-3.4-21.6-1.45-3.69-2.08-7.72.18-10.92,2.53-3.58,5.66-7.63,9.85-.68,7.87,13.08,20.44,20.94,33.31,28.25,7.66,4.36,9,0,8.52-6.51-.56-7.18-1.4-14.34-1.77-21.53-.21-3.91,1.93-7,6-6.82,3.61.2,5.45,4.07,4.57,6.86-3.43,10.86.49,21,1.86,31.48,1.35,10.27-1.55,12.86-11.24,9.07-9.53-3.74-19.17-7.51-27.69-13.5-5.25-3.69-8.83-4-8.6,4.28.12,4,.62,8.35-1.6,12.11-1.45,2.45-1.7,6.73-6,5.74-3.62-.83-4.12-4.11-4-7.42C991.61,1263.85,991.53,1261.1,991.53,1257.78Z" transform="translate(-213 -517.78)"/><path d="M1074.43,1249.47c-.22-8.29,3-15.36,8-21.67,2.59-3.22,5.57-7.38,10-3.61,4.12,3.47,1.58,6.92-1.38,10.51-7.53,9.1-8.51,24.63-2.47,32.52,1.59,2.08,3,5.26,6.18,4.69,3.37-.6,3.29-3.76,3.36-6.62.12-5.33,2.47-10,5.24-14.32,5.57-8.7,13.3-10.53,20.92-5.26,6.61,4.59,7.79,13.3,2.82,21-8,12.47-20.68,18.42-32,15C1082.94,1278.16,1074.48,1265,1074.43,1249.47Zm36,23.39c5.16-2.1,8.13-6.57,9.87-11.88.87-2.68-.87-5.55-3.43-5.06-6.59,1.26-8.71,7-10.18,12.69C1106.14,1270.78,1107.36,1272.6,1110.44,1272.86Z" transform="translate(-213 -517.78)"/><path d="M321.23,1240.22c-6.1,2-13.52,4.6-21.38,5.63-2.84.37-3.75,2.93-3.12,5.58.55,2.3,1.73,4.46,2.34,6.76,1.14,4.34,2.26,8.8-1.32,12.6-1.21,1.28-3,2-4.67.92-3.87-2.6-4.05-6.84-4.5-10.94a95.41,95.41,0,0,0-4.3-18.24c-1.82-5.85.14-14.43.73-21.78.22-2.64,3.09-3.51,5.74-2.91,3.75.84,4.26,4,4.88,7.1.77,3.91-3.48,11.54,5.29,9.91,8.36-1.55,20,4.52,24.24-8.51.81-2.46,1.67-4.57,4.12-5.46,3.6-1.32,3.29,2.4,4.79,3.88,3.41,3.38,4.11,7.66,5.05,12.08,1.89,8.93-.62,18.53,4.46,27,1.82,3.05.51,6.19-3,7.52-3.69,1.4-5.75-.66-7.05-4-2.69-6.82-2.54-14.11-3.33-21.2C329.63,1241.2,327.15,1239.75,321.23,1240.22Z" transform="translate(-213 -517.78)"/><path d="M815.54,1279.91c-.17-7.42.09-13.14-8.31-18-12.53-7.27-19.13-21.05-26.47-33.43-2.25-3.79-1.13-6.75,2.4-8.62,3.83-2,5.89-.26,7.87,3.57,4.82,9.33,8.9,19.23,17.09,26.43,1.51,1.33,2.67,3.38,5.11,2.16,1.82-.92,1.72-2.85,1.75-4.52.1-5.5.2-11,.07-16.5-.12-4.78,1.67-8.38,6.53-9,6.25-.72,5.15,4.84,5,8-.5,14.74-1.61,29.46-2.39,44.19-.31,5.8-1.12,11.67,1.89,17.16,1.69,3.1,3.56,6.77-1.77,8.05-4.3,1-7.67-1.18-8.34-5.56C815.31,1289.16,814.12,1284.37,815.54,1279.91Z" transform="translate(-213 -517.78)"/><path d="M396.83,1233.49c-.13,2.77-1.8,4.34-4.17,5.31-4.11,1.67-8.11,3.87-12.38,4.82-5.9,1.3-8.48,3.67-6.22,10,1.85,5.14,3.45,9.55,9.79,4.32a3.9,3.9,0,0,1,3.65-.29,3.81,3.81,0,0,1,.92,4.69c-2,4.6-5.25,8.13-10.3,9.21s-8.15-2.16-10.82-6.08c-5.7-8.36-5-18.3-7.08-27.55-3.73-16.77.66-22,18.13-22.93,6.83-.35,13.55-1.48,19.72-5,3.66-2.09,8-2,9.54,2.43s-2.55,5.49-5.79,6.92a91.6,91.6,0,0,1-25.65,7.12c-3.15.4-7,.33-6,4.74.88,3.77,4.48,4.91,8.26,3.88,4.29-1.16,8.53-2.53,12.78-3.85C393.75,1230.4,396,1230.2,396.83,1233.49Z" transform="translate(-213 -517.78)"/><path d="M648.38,1250.83c-.93,5.28-3.11,8.15-8.51,6.54-3.62-1.09-5-4.21-6.91-7.12-7.71-12-16-11.36-23.36,1.59-1.68,3-3,6.17-4.87,9-1.56,2.29-3.83,4.33-6.9,2.25-2.3-1.55-2.17-3.84-1.64-6.43,2.62-12.75,8.55-24.44,11.17-37.27,1.95-9.58,7.41-9.48,14.79-2.61,9.56,8.91,13.52,22.08,24.11,30C647.44,1247.67,647.8,1249.66,648.38,1250.83Z" transform="translate(-213 -517.78)"/><path d="M244.35,1268.52a49.27,49.27,0,0,1-26.87-11.7c-2.76-2.32-3.6-5.77-4.26-9.15s.09-6.51,3.75-7.29c3.12-.66,5.13,1.5,5.6,4.62,1.64,10.82,10.63,11.13,18.49,13,2.05.48,4.34.17,5.3-2,1-2.43-1.05-3.65-2.62-4.92-4.77-3.89-9.54-7.65-11.88-13.8-2.57-6.76-2.26-12.84,3.14-17.9a26.43,26.43,0,0,1,22.63-7.11c4.69.74,3.43,5.13,1,8.07-.7.86-2.45,1-3.76,1.17-5.72.59-13.15-.11-14.53,6.78-1.31,6.57,4,11.83,8.26,16.85,3.08,3.62,9,4.18,10.28,9.39C260.77,1262.18,253.86,1268.71,244.35,1268.52Z" transform="translate(-213 -517.78)"/><path d="M675.12,1263.8c-5.93-1-15.17-1.1-19.91-10.75-1.16-2.38-6.06-4.16-1.6-7.29,2.87-2,5.72-1,7.84,2.2,6,8.87,14.85,7,23.21,5.39,5.27-1,6.25-3.41,1.3-7.27-6.15-4.8-12.87-9.21-15.9-17.07-3.34-8.64,5.3-21.77,14.44-21.69,2.4,0,3.76,1.46,4.53,3.51,1,2.8,1.16,5.78-1.85,7.22-11.1,5.29-5.76,10.36-.41,16.23,3.35,3.67,7.82,5.46,11.38,8.64,7.62,6.83,6.43,14.72-3,18.14C689.63,1263.05,683.9,1264.18,675.12,1263.8Z" transform="translate(-213 -517.78)"/><path d="M954.52,1252.32c-.47,5.92-2.36,14.18-10.74,17-7.56,2.54-14.24-1.27-19.86-7.3-6.31-6.78-9.32-15-12.44-23.32-1.38-3.66-1.29-7.57,3.58-9.26s5.63,2.26,7,5.28c2.95,6.42,2.33,14.36,8.36,19.5,3.14,2.68,6.18,6.26,10.72,3.91,4.21-2.19,4.2-6.17,3.69-10.71-.63-5.67-1.79-10.82-6-14.8-2.81-2.67-5.06-4.93-.54-8s8.35-1.46,10.09,2.82C951.37,1234.63,954.74,1241.9,954.52,1252.32Z" transform="translate(-213 -517.78)"/><path d="M891.32,1249c0,12.57-5.18,19.31-14.88,19.37-14,.08-22.05-9.12-21.86-25.11q.23-18.79,21.51-19.89C882.44,1223,891.33,1238,891.32,1249Zm-8.59-.74c-.51-7.44-2.09-15-10.94-15.75-6.82-.59-6.12,6.08-6,10.49.14,6.68-.06,14.59,9,15.66C881.78,1259.46,882.79,1253.89,882.73,1248.24Z" transform="translate(-213 -517.78)"/><path d="M1174.94,1290.67c.55,5.73-2.8,10.54-3.67,15.88-.49,3-2.58,5-5.83,4.14-4.13-1.13-2.6-4.22-1.47-6.59a31.37,31.37,0,0,0,2.55-19.86c-.46-2.42-2.46-5.78,1.41-6.92,4.07-1.21,5.24,2.38,6,5.3C1174.66,1285.2,1174.64,1288,1174.94,1290.67Z" transform="translate(-213 -517.78)"/><path d="M708.23,2205.08c.71-7.94.41-16-5.5-22.89-2.66-3.13-2.13-6.59,2-8.36s5.71,1.44,6.44,4.47c2.3,9.47,5,7.27,8.58.67,5.65-10.26,16.61-9.93,26-12,4-.87,5.31,3.07,5.32,7,0,8-2.86,14-10.6,17.1-6.29,2.52-6.75,6.06-.54,8.64,8.06,3.37,16.67,6.09,25.51,4.24,3.73-.78,8.18-3.7,9.33,1.27,1.11,4.77-1.87,9.91-8,9.72a83.54,83.54,0,0,1-35.34-8.71c-1.83-.92-3.46-2.25-5.28-3.2-4.56-2.39-6.88-1.36-7.27,4.21-.38,5.37,1.62,14.37-5.62,14.2-9.39-.23-3.88-9.64-5.12-15A8,8,0,0,1,708.23,2205.08Zm31.19-26.24c-1.28-1.89-2.84-2.4-5.08-1.56-3.5,1.31-7.53,2.38-8.45,6.41-.58,2.5,2,3.3,4.17,2.4C733.66,2184.59,737.87,2183.73,739.42,2178.84Z" transform="translate(-213 -517.78)"/><path d="M552.22,2197.39c0,.69,0,1.38,0,2.06.88,23.79-4.22,27.19-24.88,16.55-.91-.47-1.62-1.43-2.56-1.7-3.53-1-6.61-5.78-9.93-3.77-3.89,2.34-.2,6.88-.22,10.46,0,1,.3,2,.32,3.07.09,5.16-1.3,10.82-6.64,11.15-4.52.28-5.37-5.87-5.59-9.6-.71-12.19.7-24.54-4.73-36.18-1.18-2.52.24-5.78,2.93-7s5.32-.16,7.31,2.15c4.46,5.21,9.09,10.28,13.36,15.63,2.94,3.69,6.84,5.67,11,7.32,6.58,2.62,10.93,1.18,10.87-6.77,0-4.43-.46-8.87-.9-13.28-.37-3.66-.39-7.35,4-8.12,5.43-.94,4.87,3.49,5,6.79.17,3.75,0,7.52,0,11.28Z" transform="translate(-213 -517.78)"/><path d="M1100.11,2204.59c.8-5.93-.55-12.7-1.37-19.52-.5-4,.54-7.84,4.38-9.62,4.19-1.93,6,1.82,8.13,4.47.64.81,1.26,1.63,2,2.39,17,18.5,17,18.47,34.3.8,3.25-3.31,6-8.54,11.74-6.6,5,1.68,2.67,7.26,4.32,10.74,4.17,8.83,2,19.87,9.87,27.42,2.19,2.1,1.76,5.15.63,7.77-1,2.24-3,2.63-5.18,1.86-3-1-5.88-2-6.52-5.76q-2.1-12.18-4.34-24.33c-.42-2.26-.23-5.17-3.37-5.67-2.71-.42-4.44,1.5-5.86,3.49-1.19,1.68-2.14,3.53-3.29,5.23-8.93,13.26-14.06,13.77-25.2,2.41-2.78-2.85-4.85-7.85-9.8-5-4.22,2.41-1.42,6.81-1.13,10.38,0,.68.31,1.36.29,2-.19,5.27,1.22,13.19-5.25,13.58-8.15.49-3.4-7.65-4.47-12C1099.71,2207.7,1100,2206.61,1100.11,2204.59Z" transform="translate(-213 -517.78)"/><path d="M935.89,2194.51c0-5.48-.06-11,0-16.44.05-3,1.56-5.42,4.42-6.27s3.9,1.88,5.35,3.76c4.39,5.68,9.56,10.85,13.3,16.92,4.57,7.43,9.14,6.51,15.17,2.23s11.19-8.93,15.15-15.11c1.46-2.27,3.42-4.68,6.68-3.55,2.64.92,2.81,3.49,3.18,5.93,1.39,9.11,4.45,17.94,4.51,27.27,0,2.5.13,4.89,2.88,6,3.48,1.38,3.76,3.6,1.78,6.41-1.61,2.29-3.33,4.53-6.65,3.77-3.16-.73-4.32-3-4.54-6-.56-7.81-.86-15.66-1.89-23.42-.8-6.08-2.93-10.74-9.29-3.55-2.72,3.07-5.89,5.73-8.54,8.84-8.75,10.27-15.72,9.86-23.61-1.64-1.75-2.55-3.56-6.37-6.69-5.44-4.29,1.27-2,5.78-2.32,9-.52,5.28,3.34,14.27-4,14.59-8.46.37-4.2-8.85-4.94-14-.43-3-.08-6.15-.08-9.23Z" transform="translate(-213 -517.78)"/><path d="M598.65,2227.49c-13.56.24-24.08-10.44-24.5-24.88-.32-10.55,9.53-21.8,19.14-21.86,10.24-.07,26.37,16.28,26.32,26.66C619.54,2219.79,611.76,2227.25,598.65,2227.49Zm-.56-9.59c7.41,0,13.23-4.49,13-10.14-.31-7-9.05-16.22-15.34-15.3-6.69,1-12.48,4-12.93,12C582.44,2210.9,590.49,2217.85,598.09,2217.9Z" transform="translate(-213 -517.78)"/><path d="M684.16,2203.18c.94,5.83-.65,10.49-3.06,15.25-3.55,7-8.71,11.6-16.52,12.21-8.58.67-14.92-5.07-18.09-11.38-4.37-8.7-8.68-17.91-9.61-28-.3-3.27-2-7.51,3.23-8,4.57-.44,6.42,2.66,6.88,7.12.7,6.73-.16,13.77,3.56,20,3.32,5.58,5.76,12,14.55,9.71,8.38-2.18,12-8.74,12.24-15.87.27-7.67-1.55-15.72-9-20.78-2-1.38-5.86-1.91-4.47-5.7.49-1.31,2.36-2.36,3.83-3,3.58-1.61,6.22.54,7.72,3.26C679.88,2186,685.25,2193.77,684.16,2203.18Z" transform="translate(-213 -517.78)"/><path d="M816.16,2208.88c6.55,7.23,12.85,10.41,21.6,6.65-2.85-6.21-7.12-10.91-11.61-15.55-6.45-6.67-3.76-14.33-.81-21.11,2.8-6.44,6.72-12.87,15.22-13.32,2.32-.12,5.35-.88,6.16,2.11.64,2.39-1.92,3.36-3.81,4.09-18.32,7-15.48,25.66.67,37,4.71,3.3,10.2,5.89,7.68,12.46s-9.11,6.27-15,5.91C824.27,2226.38,816.31,2219.77,816.16,2208.88Z" transform="translate(-213 -517.78)"/><path d="M1044.33,2181.09c14.55.4,24.73,7.37,24.43,16.73-.32,10.09-13.54,20.9-24.74,20.22a17.89,17.89,0,0,1-16.53-17.63C1027.64,2187.64,1033.61,2180.8,1044.33,2181.09Zm3.92,8.51c-10.1-1-14.34,2.21-14,10.22.3,7,3.68,10.8,11.07,10.31,7.71-.52,15.66-3.49,16-11.25C1061.6,2190.2,1052.16,2190.77,1048.25,2189.6Z" transform="translate(-213 -517.78)"/><path d="M786.9,2180.73c-1-7.29,5-12.28,6.2-18.91.35-2,3-2.67,5.15-2s3.55,2.64,2.88,4.74c-2,6.41-4.24,12.79-6.89,19-.85,2-3.21,3.84-5.92,2.59C786,2185,786.81,2182.69,786.9,2180.73Z" transform="translate(-213 -517.78)"/><path d="M1126.33,787c-5-12.21,3.91-14.25,12.71-16.45,6.66-1.65,13.25-3.6,19.93-5.11,3.75-.84,8.4-1.23,9.16,3.71.67,4.38-3.56,4.9-7.08,5.6-7,1.4-14,3.25-21,4.72-3.1.65-5.48,2-4.7,5.37s3.8,3.41,6.69,2.79c7.68-1.64,15.47-2.6,22.9-5.61,2.84-1.15,8.39-3,9.75,2.1,1.82,6.85-4.54,3.89-7.42,4.8-8.48,2.66-16.63,6.42-25.57,7.6a5.06,5.06,0,0,0-4.54,4.9c-.18,2.65,1.5,4.5,3.49,6,2.7,2,4.28-.6,6.33-1.59,3-1.41,5.18-7.83,8.86-3.39,3.35,4-1.57,7.16-4.46,10-11.39,11.18-17.48,9.47-22.51-6.12C1126.87,800.07,1123.59,794.17,1126.33,787Z" transform="translate(-213 -517.78)"/><path d="M1105,787.38c-.33,4.8-.85,9.67,2.32,13.85,2.44,3.2,1.32,5.51-1.37,7.92-2,1.81-3.56,4.57-6.81,3.11-3-1.34-2.82-4.31-3.1-7.08-1.86-17.68-1.75-16.9-18.47-13.88-9.66,1.75-13.92,5.07-12,15.13.59,3.16,2.48,8.41-3.78,8.56-6.09.13-4.14-5.09-4.5-8.44-1-9.08.31-18.4-3.23-27.22-1.39-3.46,1.07-5.05,3.87-6,3.49-1.17,5.5.95,5.88,3.89.87,6.67,5.63,7.44,10.52,6.81,6.55-.83,14.41-.23,17.78-7.6,1.68-3.68,2.63-7.63,7.25-6.86,4.87.81,5.41,5.74,6.15,9.63C1106,781.81,1105.23,784.65,1105,787.38Z" transform="translate(-213 -517.78)"/><path d="M847.42,795.27c-5.53,5.75-2.35,7.75,4.23,10.42,4.71,1.91.55,5.74-1.55,8.19-2.81,3.28-6,5-9.2.45-3.42-4.89-3.6-13.34-13-11.39-7.36,1.53-9.64,7.93-13.09,13.33-2.45,3.84-4.49,11.32-9.43,9-6.35-3,.66-8.14,1.83-12.05,2.9-9.64,8.74-18.19,10-28.59.46-3.66,2.86-8.54,7.36-9,3.74-.39,4.81,4.32,6.76,6.95,3.38,4.57,5.29,10.86,13.13,9C846.58,791.07,847.57,792.52,847.42,795.27Z" transform="translate(-213 -517.78)"/><path d="M1024.58,793.23c.12-2.05.23-4.11.37-6.16.73-10.82-.22-11.62-10.39-9.41-4.66,1-9.4,1.78-14.14,2.37-3.63.45-7.15.15-6.95-4.94.16-4.23,2.61-6.47,6.69-5.85,12.61,1.93,24.18-2.7,36-5.46,2.61-.61,4.64-1.29,6,1.59.87,1.89,1.84,4.7-.06,5.69-11.73,6.13-5.29,16.88-6.78,25.57-.28,1.61.3,3.39.59,5.08.91,5.45-.94,10.83-6.24,11-5.08.15-5.92-5.45-5.58-10.23.21-3.06,0-6.15,0-9.23Z" transform="translate(-213 -517.78)"/><path d="M915.8,773.4c-.3.77-.41,2.05-1.1,2.59-9.34,7.29-6.26,16.49-3.63,25.32,1,3.56,2,6.61-.86,9.46a5.66,5.66,0,0,1-6.69,1c-4-1.78-3.6-5.52-3.67-8.89-.4-22.08,2-23.14-22.24-17.76-2.83.63-5.58,1.49-6.8-2.12-.95-2.79.65-4.82,3.12-5.65a137.76,137.76,0,0,1,37.22-7.17C913,770.1,915.46,770.29,915.8,773.4Z" transform="translate(-213 -517.78)"/><path d="M451.19,803.19A37.25,37.25,0,0,1,430,798.76c-6.78-3.57-11.89-2.84-13.39,5.89-.58,3.38-1,7.8-5.51,7.11-4.95-.77-4.54-5.41-3.78-9.15,2.06-10.19,1.39-19.52-5.78-28-1.95-2.28-2.63-7,1.1-9.06,2.88-1.62,6-.45,7.7,2.92,2.82,5.59,5.1,4.09,7.68-.38,3-5.26,8.06-8.26,13.57-10.37,5.36-2,10.19-.67,14.12,3.32s2.61,8.88,1.13,13.46c-.62,1.91-2.25,3.46-3,5.34-1.46,3.54-7.84,5.23-4.89,10.16,2.52,4.23,7.87,3.21,12.11,4.21s12-5.39,11.83,3.84C462.64,806.24,454.49,802.45,451.19,803.19Zm-11.61-32.6c-.53-3.43-2.63-5.38-5-4.16-5.31,2.7-11.86,4.73-12.47,12.15a3.64,3.64,0,0,0,4.88,3.78A18.85,18.85,0,0,0,439.58,770.59Z" transform="translate(-213 -517.78)"/><path d="M316.14,779.15c0,5.47.5,11-.12,16.41-.86,7.46-5.81,9.53-12.28,5.57a57.29,57.29,0,0,1-16.63-15c-5.81-7.93-8.24-7.46-12.81.85-2.2,4-2,11.08-7.3,11.39-6.25.36-6.14-7.29-8.63-11.35-4.28-7-6.68-15-11.79-21.6-2.16-2.79-3.91-6.29.26-8.81,4.48-2.7,7,.28,8.76,4,1.92,4,3.49,8.21,5.59,12.13,1.37,2.57,1.83,6.6,5.49,6.73s4.78-3.43,6.25-6.1c.82-1.5,1.23-3.28,2.25-4.61,3.36-4.39,6.83-6.24,9.71.46,3.21,7.51,10.37,11.65,15.17,17.81,1.33,1.7,3.69,3.43,6.34,2.39s2.7-3.74,3-6.1c.77-6.63-1-12.9-2.59-19.24-.82-3.33-1.31-7.5,3.62-7.9,4.36-.36,4.25,3.37,4.36,6.55.21,5.48.57,10.95.87,16.43Z" transform="translate(-213 -517.78)"/><path d="M582.75,792.87c1.1-5.63-1.9-11-2.58-16.77-.46-3.94-2.09-8.51,3.34-10.53,4.7-1.74,6.62,2,9.07,4.85,9.95,11.71,21.69,20.64,37,24.49,5.33,1.33,7.65,1.08,5.24-4.89-2.54-6.3-2.14-13.39-6-19.43-2.28-3.57-.06-6.66,3.91-7.76s6.94,1.92,6.27,4.73c-2.83,11.79,5,21,6.66,31.65.48,3.11,1.48,6.35-1.18,8.67-3,2.58-5.54-.38-8.4-1.08-13.1-3.23-24.54-10-36-16.51-5.37-3.06-7.34-1.92-7.85,4-.38,4.47.64,11.84-5.13,11.51C580,805.41,582.52,798.16,582.75,792.87Z" transform="translate(-213 -517.78)"/><path d="M666.42,789.42c-.61-6.74,1.53-12.25,4-17.47,1.62-3.49,5-6.29,9.19-3.53s3.63,6.2-.13,9.18a11.16,11.16,0,0,0-4.11,6.9c-.71,4-2.66,9.54.81,11.54,4.89,2.83,4.4-4.39,7.16-6.34,1.9-1.35,3-3.82,4.9-5.2,5.57-4.07,12.2-5.75,18.2-2.4,6.59,3.67,5.41,11,3.55,16.69-3.15,9.56-10.44,15.81-20.05,19-9.88,3.26-14.68-4.24-18.69-10.51C667.85,802,665.54,795.52,666.42,789.42Zm36.45,7c.14-3.26-1.08-4.8-4.23-4.4-5.79.73-10.94,2.65-12,9.15a4.46,4.46,0,0,0,5,5.2C697.39,805.57,701.77,802.49,702.87,796.45Z" transform="translate(-213 -517.78)"/><path d="M509.21,777.77A109.57,109.57,0,0,1,520,780.21c2.63.8,5.14,2.58,4,6.09-1,3.06-3.37,4.33-6.49,3.43-7.09-2-14.25-1.37-21.46-1-5.56.29-8.12,1.85-4.61,7.44,3.35,5.33,0,9-4,10.52-5,1.87-5.22-3.53-5.75-6.42-2.38-12.74-2.47-25.93-8.4-38-1.28-2.59.47-5.48,3.62-6.36,2.93-.81,4.35.94,5.13,3.61.67,2.29,1.78,4.45,2.47,6.74,1.22,4.06,3.35,4.82,6.69,2.17,4.26-3.36,9.64-5.37,12.56-10.37,1.69-2.9,3.88-5.45,7.29-2.63,2.81,2.33,2.33,5.87.39,8.4-1.81,2.37-4.63,4-7,5.91s-6.66,2.69-5.5,6.39C500.18,780.26,504.13,777.63,509.21,777.77Z" transform="translate(-213 -517.78)"/><path d="M342.06,784.45c.56-12.41,8.93-21.73,18.79-20.93,10.26.83,21.24,14.88,20.41,26.14-.65,9-11.32,17.75-21.09,17.35S341.56,795.43,342.06,784.45Zm9.44-2.9c-.16,11.16,5.62,13.78,12.61,14.61,6.17.74,9.16-3.37,9-8.7-.2-6.33-2.6-12.8-9.93-13.36C357,773.62,351.71,776.54,351.5,781.55Z" transform="translate(-213 -517.78)"/><path d="M549.08,781c.74,5.9,1.45,12.32,2.38,18.71.64,4.37.89,9.07-4.68,9.4-4.91.3-6-4.47-5.35-8.19,1.84-11,1.57-21.63-2.27-32.24-1.09-3,.49-6.28,4.47-6.64,3.74-.34,4.24,2.21,4.45,5.3C548.36,771.76,550.62,775.94,549.08,781Z" transform="translate(-213 -517.78)"/><path d="M1007.71,578.17c-13.23.81-26.82-10.09-27.32-21.92-.6-13.78,12.59-27.54,26.25-27.67,7.45-.08,9.94,4.41,9.19,10.56-.64,5.19-3.92,8.52-8.93,3.55-5.94-5.89-10-1.51-13.71,2.27-6.76,6.84-2.79,13.55,1.79,19.23,4,5,8.23,1.14,11.42-1.81,6.26-5.82,12.05-12.14,18.22-18.06,1.88-1.8,4.08-4.14,7.19-2.53,2.48,1.28,2.32,4,2.7,6.3C1037,563.09,1024.48,577.13,1007.71,578.17Zm18.77-20.83c-6.67,2.89-10.81,4.66-12.32,9.64-.15.52,1.2,2.16,1.65,2.08C1021,568.14,1023.78,564.74,1026.48,557.34Z" transform="translate(-213 -517.78)"/><path d="M724,546.79c-.69-7.42,3.47-14.87,11.71-20,3.45-2.13,8-2.32,9.92,1.62s-2.47,4.58-5.1,5.92c-9.53,4.85-10.93,25.67-1.93,32,4.52,3.17,6.8,1.08,6.85-4.24.08-8.34,5.36-13.77,11.13-18.79A11.74,11.74,0,0,1,770,541.41c4.37,2.19,6.78,5.91,6.81,11.58.07,13.37-9.08,26.48-19.91,27.24-15.89,1.11-30.11-9.35-32.26-23.8C724.29,554.07,724.29,551.65,724,546.79Zm45.73,9c.69-2.59-.91-5.67-4.52-5.2-6.81.89-10.4,5.3-10.55,12.48-.09,4,1.67,7.68,5.22,7.21C767,569.3,769.27,563.51,769.69,555.74Z" transform="translate(-213 -517.78)"/><path d="M685.37,566.2c-11.45-1.92-23.58-1.89-35-5.92-6.2-2.18-9.27-1.09-8.16,6.29.55,3.72.45,8.39-4.3,8.92-4,.45-5.44-3.75-6.07-7.13q-2.15-11.57-3.62-23.24a6.75,6.75,0,0,1,4.22-7.52c3.26-1.36,5.22,1,6.92,3.07,10.41,12.76,25.12,15.65,40.19,17.68,7.2,1,9.71-1.22,6.4-8.65-2.52-5.66-.76-13.17-7.79-16.93-2-1-1.08-2.94.31-4.2,1.83-1.65,3.48-2.91,6.23-1,4.92,3.47,14,27.88,12.17,33.49C695,567,689.92,565.5,685.37,566.2Z" transform="translate(-213 -517.78)"/><path d="M1081.79,551.14c-4.87,3.06-11.6,3.05-14.63,9.77-1.57,3.48-3.45,8.59-8,8.14-5-.49-2.5-6.43-4.19-9.07-4.42-6.88-3.37-10.06,4-13.81,3.43-1.74,4.19-8.32,6.74-12.34,6.74-10.61,17.5-11.05,21.63.51,2.86,8,14.22,4.83,12.64,9.77-1.92,6-4.15,9.82.79,15.14,3,3.17-.7,6.35-2.26,9.17a4.21,4.21,0,0,1-5.34,2c-2.72-1.3-3.18-4.22-3.59-7C1088.84,558.39,1088.46,553.06,1081.79,551.14Z" transform="translate(-213 -517.78)"/><path d="M1131.51,556.25c-2.42,3.82,2.1,12.92-5.78,13.18-6.92.23-3.8-8.07-4.93-12.6-1.47-5.93-.37-12.22-2.77-18.15-1.93-4.77.2-8.4,4.67-11.1,4.78-2.87,6.81.49,9.27,3.31,6.43,7.36,15.08,11.62,23.33,16.31,2.4,1.37,5.89,3.13,8.75.9s1.47-5.74.84-8.65c-.58-2.62-1.9-5.06-2.64-7.65-.85-2.93-.31-5.61,2.89-6.72,3.53-1.22,5.29,1.21,5.83,4,1.59,8.38,3.51,16.78,4,25.25.34,5.86-2.34,10-9.75,6.64-8.32-3.8-17.83-4.87-25.1-11.14-2-1.71-4.28-4-7.27-2S1131.08,552.7,1131.51,556.25Z" transform="translate(-213 -517.78)"/><path d="M561.51,576.19c3.79-10.55,7.06-21.33,11.56-31.57,2.63-6,8.45-6.74,14-3.36,7,4.24,13.88,9.84,18.46,15.56,4,4.94,6,13.66,8,21,.58,2.15-1.28,3.84-3.6,4.2-2.54.4-5-.13-6.24-2.56-3.06-6-2.27-17.06-14.4-10.8-6.24,3.22-14.3,3.17-18.32,10.47-1.36,2.47-3.66,4.29-6.86,3C561.36,581,560.54,579,561.51,576.19Zm21.63-13.49c2.66-.92,6.31-1.13,6-5.27a3.81,3.81,0,0,0-4.4-3.31c-3.09.38-6.12,1.7-6.06,5.5C578.73,562,580.68,562.91,583.14,562.7Z" transform="translate(-213 -517.78)"/><path d="M509.31,593a33.43,33.43,0,0,1-21.13-6.45c-3.48-2.57-5.75-6.47-2.52-9.49,3.75-3.5,4.39,2.09,6.18,3.93,8.74,9,28.85,7.55,35.75-3.11,3.62-5.59-1-8.48-5.23-11.09-8.16-5-16.4-9.6-18.11-20.65-2.17-14,14-29.8,27.73-26.4,2.41.59,5.06,1.48,5.31,4.13.33,3.61-2.87,3-5.14,3.24a20,20,0,0,0-4.06.52c-7,2.28-15.39,3.15-16.55,12.8-1.09,9,5.18,13.42,11.62,17.73,7,4.7,17.65,7.09,14.16,19.27C534.92,585.79,521.09,593.15,509.31,593Z" transform="translate(-213 -517.78)"/><path d="M917.06,532.32c-1.59-6.69,3.09-8.11,8-8.83,8.42-1.23,17.16-.82,25-4.81,4.17-2.11,7-.33,7.91,3.45,1.1,4.36-2.32,6.51-5.94,6.42-6.63-.16-13,.3-18.94,3.41-3.15,1.64-6.47,3.68-5.24,7.74,1.31,4.31,5.22,3.6,8.67,2.88,4-.85,8-1.77,12-2.61,1.63-.34,3.64-1,4.24,1.32.74,2.81-1.44,3.34-3.54,3.83-4.64,1.08-9.37,1.75-13.67,4.17-4,2.27-6.84,4.81-4.56,9.76,2.17,4.71,5.37,4.42,9.14,1.74,3.34-2.39,5.78-.84,5,2.73-1.29,6.09-6.89,8.25-12.11,9.85-4.95,1.51-7-1.9-9.07-6.06C918.71,556.22,918.35,544.25,917.06,532.32Z" transform="translate(-213 -517.78)"/><path d="M888.16,584.53c-15.92.13-30.73-14.16-31.29-29-.24-6.22-1.31-12.18-4.72-17.55-1.5-2.37-.86-4.54,1-6.52,2-2.19,4.6-2.41,6.26-.31,4.34,5.53,6.39,2,9-1.61,2.79-3.89,6.07-7.05,11.14-8.39,5.59-1.49,10.45-.31,14.38,3.17,4.15,3.67,1.61,8.4-.14,12.31-2.72,6.05-5.17,10.35,4.12,13.92,6.51,2.49,8.66,10.51,6.71,17.73C902.19,577.24,896.2,582.91,888.16,584.53Zm-9.79-10.42c4.2.22,5.58.46,6.91.33,6-.61,9.76-4.17,9.45-9.93-.33-6.14-5.9-5.63-10.2-5.33-3.31.23-6.58,1.39-9.82,2.28-2.57.71-6.17,1.13-6.28,4.2-.12,3.52,2.83,6.19,5.84,7.73A7.24,7.24,0,0,0,878.37,574.11Zm-4-27.12c3.93-3,8.87-5.68,10-11.45.46-2.34-2-3.72-4.07-3.2-6,1.5-8.53,6.14-9.37,11.8C870.71,545.81,871.52,547.51,874.39,547Z" transform="translate(-213 -517.78)"/></svg>