<svg xmlns="http://www.w3.org/2000/svg" width="1270.3" height="478.5" viewBox="0 0 1270.3 478.5"><title>c19-txt</title><path d="M254.93,426.91c11.66-.69,22.12,3,31.28,9.76,10.85,8.05,11.66,16.38,3.51,26.84-8.51,10.92-24.27,17.31-34.59,14.21-3.42-1-6.79-2.09-8.8-5.19-2.86-4.42-6.7-4.89-10.85-2.66-9.35,5-19.89,4.6-29.64,4.74s-14.9-8.55-16.58-18.15a59,59,0,0,1,.28-23.63c.64-2.79,1.26-6.13,4.92-5.37,3,.63,4.36,3.82,3.44,6.69-2.09,6.53-1.81,13.08-.93,19.66,1.08,8.06,5.66,12.54,14,12.29a106.21,106.21,0,0,0,12.42-1.36c20.39-3,21-3.84,17.7-23.42C238.77,427.44,239,427.18,254.93,426.91Zm-2.8,23.29c3.12,6.85-3.44,19.17,10.27,20,8.71.52,25.61-14.44,25.31-20.69-.24-5.11-18.2-12.42-28.17-11.35C252.07,439,250.55,443.53,252.13,450.2Z"/><path d="M70.41,439.33c1.55-3.83.4-6.87-.12-9.95-.42-2.48-.72-5.33,2.53-5.85s4.23,2.3,4.4,4.71c.56,8.13,5.57,8.57,11.72,7.09,8.45-2,18.36-.29,23.79-10.11,2-3.58,5.23-2.84,7.35.74,2.54,4.31,4,8.76,3,14-1.31,7.51-2.2,15.13,1.52,22.32,2.67,5.15-.23,8.7-4.33,9.85-4.74,1.32-5.39-4.14-5.87-6.9-1.08-6.11-.86-12.45-1.17-18.69-.21-4.36-1.74-8.27-6.8-6.66-5.3,1.7-10.8,1.72-16,3.18-6.73,1.89-13,4.65-7.7,13.79.91,1.57.63,4.16.18,6.11-.62,2.74-2.2,5.83-5,6.13-4.31.46-2.94-3.73-3.57-6.09-.69-2.57.41-6.28-3-7.16C68.16,455,67,458.63,65,460.41c-13.77,12.46-29.65,15.48-46.21,7.81C8.86,463.63,8,452.52,7.6,442.77,7,427.83,22.93,412.18,35.82,414.33c3.94.66,7.37,2,9.33,5.88,1,1.93,2,3.83.13,5.7-1.48,1.48-3.37,1.06-4.81.1-10.3-6.91-17.15-1.16-22.83,6.64S13.26,452,20,459.57s15.53,9,24.76,5.2a107.23,107.23,0,0,0,15.58-8.37C66.78,452.37,74.08,448.55,70.41,439.33Z"/><path d="M679.63,184.9c1-10.7-2-19.77-7.1-28.26-1.61-2.66-4-5-1-8.22,1.5-1.59,3-3.16,5.29-2.54,3.22.88,3.76,3.74,4.23,6.56.28,1.72.64,3.42,1,5.11.48,2,.54,4.67,2.82,5.21,3.36.79,3.32-2.54,4.54-4.5,4.19-6.71,7.78-13.91,16.8-15.85,5.77-1.25,10.62-.56,13.77,4.4,3.32,5.23,2.49,10.51-1.5,15.42-4.18,5.13-10.65,6.39-15.81,9.85-2.25,1.51-5.78,1.89-5.52,5.35.28,3.71,3.85,4,6.61,5.5,7.42,4,14.91,2,22.43,1.52,2.51-.15,5.67-2.88,7,1.3s-1.29,6.48-4.72,8.16c-9,4.38-17.75,1.46-26.33-1.23-3.78-1.19-7.21-2.5-11-.57C679.46,198.11,679.47,198.12,679.63,184.9Zm31.12-30c.08-3.11-1.68-4.43-3.89-4-4.94,1-9,3.66-10.82,8.61-.7,1.89.56,4,2.41,3.51C703.52,161.8,708,159.25,710.75,154.9Z"/><path d="M679.2,327.22c.75-11.67,2.54-22.76-1.26-33.69-1.23-3.54.42-6.26,4-7.19s5.5,1.19,5.59,4.42c.21,7.61,3.43,5.92,7.77,3a77.24,77.24,0,0,1,11.8-6.62c12.34-5.43,17.42-1.57,16.82,12-.18,4.21-2.4,7.17-4.25,10.43s-9.34,4.41-4.77,10.57c4.32,5.83,16.66,9,21.62,5.37,2.46-1.78,4.74-5.89,7.49-2.34,3.1,4-.92,7.1-3.95,9.33-6.17,4.53-13.28,4.52-19.82,1.64a162.69,162.69,0,0,1-21.88-12c-5.23-3.34-7.58-2.09-8.66,3.52-.13.68-.17,1.39-.3,2.07-.84,4.48-1.57,10.62-7,10.08C675.33,337,681,330.29,679.2,327.22ZM701.81,310c8.21-.6,12.28-5.26,13.57-12.42.42-2.36-1.54-3.48-4-3.39-4.07.14-16,9.38-15.51,12.31C696.44,310.33,699.7,309.68,701.81,310Z"/><path d="M632.3,38.14c-.41,12.76-9.1,24.3-21.39,26.05-7.75,1.1-10.2,4.3-9.6,11.53a53,53,0,0,1-.51,11.46c-.35,2.5-.26,6.35-4.4,5.58-2.8-.52-5.64-3-4.93-5.92,3.49-14.44-5.72-27.63-3.71-41.9.75-5.33-2.59-10-3.8-15-1.11-4.64-1.28-10.2,4.6-10.85s3.75,5.37,4.52,8.67c.46,2,.11,4.16.14,6.25,0,1.81.24,3.6,2.37,4.08s2.94-1.29,3.66-2.88c2.31-5.1,6.75-7.8,11.43-10.28C624,17.89,632.77,23.27,632.3,38.14Zm-8.11-.34c-.15-5-3.38-5.88-7.1-4.37-7.77,3.13-13,9-16.08,16.78-1.33,3.34,0,5.33,3.55,5.82C612.58,57.13,624.52,46.05,624.19,37.8Z"/><path d="M532.63,330.64C525.69,333,519.5,330,514,325.27c-4.3-3.67-8.27-3.76-13.3-1.32a103.28,103.28,0,0,1-16.59,5.93c-13.89,4-22.64-1.37-23.57-15.57a69,69,0,0,1,3.54-27.81c.84-2.34,1.05-6.51,4.93-5.25,3.38,1.1,2.3,4.95,1.52,7.3-2.47,7.48-1.93,15.16-2.12,22.77-.26,10.14,3.22,12.74,13.14,10.64,9.37-2,19.56-1.29,26.91-9.48,2.89-3.22,4.53-.08,6.2,2.36,4.44,6.49,16.82,9.52,23.81,5.92,3.86-2,4.86-4,1.18-7.87-6.09-6.37-13.49-12.09-13.95-22.21-.18-4-.62-7.73,3.08-10.37,2.66-1.91,5.11-5.87,8.89-2.84,3.08,2.47.93,5.38-.44,8.37-3.84,8.41,1.16,14.63,6.16,20.52,4.19,4.93,14,6.92,10.52,15.84C550.4,331.3,541.28,330.55,532.63,330.64Z"/><path d="M544.26,183.73c-2.72-4.32,5.89-15.6-8.89-15.33-3.62.07-3.19-6.57.17-8.05,6.49-2.86,5.12-7.18,4.11-12.06-.73-3.48-1.22-7.69,3.3-8.55,4.29-.81,5.8,3,6.54,6.55s-2.31,10.19,4.3,9.44c7.08-.81,15.61,2.44,21.16-5,2.25-3,4.33-8.1,8.51-5s12.9,2.42,9.73,13C591,166,590.94,175.34,598,182c2.9,2.74,1.59,6-.16,8.53a8.73,8.73,0,0,1-8.07,3.92c-3.83-.24-5.57-2.77-6-6.11-.82-6.56-1.53-13.15-1.88-19.74-.37-6.8-3.21-9.64-10.07-7.51a27,27,0,0,1-6,1.44c-8.9.64-14.43,3.25-11.71,14.14a30.79,30.79,0,0,1-.56,16.54c-.91,2.86-1.31,6.65-5.75,6-4.24-.65-4.25-3.61-3.59-7.11C544.62,189.72,544.26,187.23,544.26,183.73Z"/><path d="M379.71,156.58a9,9,0,0,1,0-1c.76-8-2.77-18.59,3.27-23.51,8.93-7.29,37.79-3.57,45.29,3.77a15.86,15.86,0,0,1,2.8,19.4c-6.7,12-15.9,22.08-30.09,25.41-14.79,3.47-21-1.6-21.24-16.71C379.69,161.46,379.73,159,379.71,156.58Zm30.35-17.34c-11.87-.34-15,2.52-16.32,14.18-.61,5.47.32,11.16-2.41,16.34-.86,1.62-1,3.37.5,4.75s3.18.87,4.75,0c8.34-4.8,17.07-9.07,21.75-18.32,2.14-4.23,6.58-8.12,3.62-13.17C419.33,138.52,413.93,139.85,410.06,139.24Z"/><path d="M1178,200.83c-7.37-.57-14.77-1.21-21.14-5.13s-8.71-1.36-9.61,4.89c-.38,2.66-.29,6.38-4.21,5.85-3.58-.48-4.41-3.47-4.25-7.11a76.71,76.71,0,0,0-5.52-32.43c-1.26-3.15-.79-5.28,1.44-7.42,1.34-1.28,2.94-2,4.71-1.22,2.77,1.25,2.3,4.08,2.61,6.38.22,1.68-.28,3.44-.14,5.14.2,2.42.42,5.75,3.38,5.61,2.78-.14,3-3.31,2.86-5.82-.35-7.45,3.7-12.18,9.49-16.11,4.82-3.28,9.78-6.17,15-1.86s5.2,10.35,2.9,16.21c-1.79,4.54-4.36,8.65-8.59,11.56-2.47,1.7-6,3.43-4.06,7.33,1.57,3.11,4,5.41,8.17,5.43,4.64,0,8.92-.47,13-2.88,2.56-1.51,5.2-4.49,8.41-1.94,2,1.62,1.87,4.41.81,6.79-1.4,3.16-2.54,6.69-7,6.73C1183.54,200.85,1180.77,200.83,1178,200.83Zm-11-37.48c-.44-2.71-1.61-5.54-4.44-4.47-6.45,2.45-8.88,8.3-10.11,14.65-.39,2,.74,4,2.64,3.12C1160.81,173.93,1165.47,170,1167,163.35Z"/><path d="M1164.29,356.22c4.63-5.71.39-14.84,8.09-20.9,4.67-3.67,4.87-11.29,6.31-17.36.84-3.51-.93-9.21,3.85-9.5a12.49,12.49,0,0,1,11.87,6.79,81.84,81.84,0,0,0,5.42,8.92c4.73,6.95,9.1,14.29,19.85,10.59,3.74-1.28,7.22,2.12,4.35,5-4.89,4.93-2.23,9.56-1.92,14.48.17,2.78.25,6-3,7.12-2.73.93-4.39-1.46-6-3.32a30.42,30.42,0,0,1-3.29-4c-8.85-15-24-15-33.26,0a39.37,39.37,0,0,1-4,6.07c-1.54,1.69-2.63,5-5.43,4.12C1164,363.17,1165,359.55,1164.29,356.22Z"/><path d="M639.58,136.47c5.44,0,10.49-1.82,11.27,3.54s-4.41,5.07-8.05,5.93c-4.39,1.05-8.74,2.29-13.06,3.58-2.35.7-5.18,1.63-4.47,4.73.68,2.93,3.83,3.07,6.12,2.75,8.6-1.21,17.14-2.89,25.74-4.14,2.15-.32,5.64-1.62,6.13,1.79.57,4-3,3.92-5.82,3.82-11.25-.39-20.66,6.07-30.7,9.41-6.57,2.19-3.27,12.39-.37,17.65,3.19,5.79,9.52,2.55,13.69-.25,3.34-2.24,5.46-6.24,8.35-9.23,1.34-1.39,3.12-3.3,5.26-1.1a3.43,3.43,0,0,1-.12,4.79c-6.2,5.54-9.75,13.75-17.48,17.67-8.62,4.35-18.22-.66-20.85-10.95-3.3-12.93-1.41-26.22-2.22-39.33-.15-2.41,1.12-5.1,4.14-5.21C625.57,141.6,632.56,134.94,639.58,136.47Z"/><path d="M465.77,4c11,0,12,8.81,15.69,14.34,2.82,4.23,1.49,11.73,9.9,10.89.45-.05,1.46,1.08,1.44,1.12-5.88,8.31,1.76,12.72,5,18.55,1.1,2-.21,4.85-2.35,6.44s-4,.29-5.87-.52c-2.82-1.23-3.74-3.69-4.68-6.47-1.43-4.25-.95-11.6-7.69-10.24S460.86,35.87,458.47,47c-.39,1.81-2.15,3.57-3.7,4.83-2.38,1.94-3.28,7.43-7.89,4.58-3.79-2.34-1.35-6.1-1-9.47,1.43-13.87,11.72-24.58,13.31-38.4C459.7,4.18,463.37,3.41,465.77,4Z"/><path d="M1239,194.64c-8.61-1.1-13.64,1.05-12.49,11.18.3,2.65-.18,7.06-4.6,6.77-3.23-.22-4.05-3.51-4.25-6.38-.52-7.42-1.07-13.71-6.56-20.7-3.8-4.84-2.15-15.53-6.36-22.85a2.3,2.3,0,0,1,1.58-3.29c2.53-.68,4.75-.21,6.42,2.11,2.48,3.45,1.31,10.89,6.94,10.26,6.5-.73,11.69-5.68,15.55-11.33,2-2.9,2.94-8.8,7.78-5.89,4,2.41,2,7.68.43,11.4-2.17,5-7.13,7.42-11.43,10.37-2,1.35-4.5,2.68-3.64,5.64s3.48,3,6,3.15c9.34.55,18.73.57,27.94,2.68,3.65.84,8.82.44,7.91,5.82-.81,4.83-5.65,4.19-9.5,3.74C1253.45,196.48,1246.22,195.54,1239,194.64Z"/><path d="M427.07,334.47c-2.59.35-3.35-1.14-4.08-2.8-1.25-2.86-2.54-5.71-3.95-8.49-2.05-4-.68-11.4-7.22-11.13s-12.29,4.31-15.26,10.83c-2.3,5.07-4.2,10.36-8.19,14.45-1.38,1.41-2.71,3.6-5.19,2.3s-1.66-3.36-1-5.42c5.87-17.25,14.33-33.57,18.57-51.43.51-2.16,1-5.25,4.19-5.19,2.66.05,4.3,2.34,5.39,4.47,1.88,3.67,4,7.41,4.85,11.38,1.86,9,7.25,10.9,15.25,8.8a6.19,6.19,0,0,1,3.08-.38c3.95,1.14,10.32-4.75,11.46,1.55.76,4.25-6.22,1.84-9.58,2.81-13.38,3.88-14.46,6.33-5.94,18.16C433,329.28,430.24,331.88,427.07,334.47Z"/><path d="M343.59,125.42c8,1.68,13.72-.69,19.62-.81,2.33,0,5.53-.85,6.21,2.26.79,3.6-2.43,4.84-5.16,5.25q-13.89,2.08-27.86,3.58c-2.92.32-6.35.34-6,3.93.29,3.37,3.76,3.6,6.69,3.2q15-2,30-4.22c2.28-.33,5.25-1.93,5.79,1.71.43,2.93-2.34,4.46-4.82,4.33-11-.61-20.38,7.13-31.47,6.09-3-.27-6.16.68-5.89,4.26.37,4.7-.85,10.26,3.29,13.73,3.36,2.82,6.56,0,9.2-2.29,1.56-1.37,2.74-3.14,4.26-4.56a2.58,2.58,0,0,1,3.75,0c.84.9,1.88,2.86,1.48,3.47-3.95,6-7.27,12.89-15.58,14-7.44,1-11.07-3.78-12.7-9.79-3.08-11.35-2.39-23.35-5.64-34.78-1.07-3.76,2.28-6.55,6.1-7.13C331.66,126.58,338.59,126,343.59,125.42Z"/><path d="M1060.13,336.85c-.21-6.12.13-12.21,5.77-16,6.43-4.3,13.75-9.18,21-3.25,6.79,5.52,7.43,13.66,4.61,22-3.78,11.2-12.31,16.7-23.11,18.75-7.22,1.37-13.81-.9-18.3-7.37-6-8.56-6.27-31.93-.28-40.32,1.68-2.35,3.63-5.91,7.5-3.32,3.42,2.3,4.25,5.38,1.27,8.85-6.24,7.27-7.1,15.64-5,24.6.65,2.7,1.06,6.27,4.66,5.79,4.29-.57,2.45-4.07,2.05-6.68C1060.23,338.93,1060.21,337.89,1060.13,336.85Zm25.35-3.86c-.11-4.1-.44-8.3-6.09-7.34-5.84,1-11.06,3.63-10.27,10.68.44,4-.23,11.25,5.61,10.15A13.35,13.35,0,0,0,1085.48,333Z"/><path d="M866.5,35.65c3.49-.56,8.28-1.42,13.11-2.09,2.3-.32,5.35-1.3,5.95,2.14.46,2.67-1.72,4.84-4,5.4-6.37,1.56-12.91,2.46-19.33,3.87-2.18.48-5.7-.06-6,3-.38,4.34,3.51,6.53,6.41,8.85,2.29,1.83,4.64,1,6.26-1.37s2.94-6.8,6.77-3.8.57,6.26-1.21,9.18c-6.43,10.56-15.14,11-21.64.37s-12.42-21.38-8-34.94c2.1-6.46,4.46-10.41,11.91-10.38,7.26,0,14.53-.92,21.78-1.54,2.64-.23,6.06-2,6.8,2.08.61,3.36-1.52,6.16-4.91,7.08-6.36,1.74-12.83,3.12-19.25,4.67-2.84.69-7.42-.15-6.91,4.34s4.95,2.46,7.8,2.92C863,35.56,864.08,35.52,866.5,35.65Z"/><path d="M1063.41,178c-.09,8.2-1.34,14.59-7.73,17.61-5.81,2.74-9.52-2.34-13.52-5.51-1.36-1.09-2.66-2.48-4.24-3-5.44-1.86-6-12.74-13.1-9-4,2.11-5.14,9.44-7.92,14.21-1.76,3-1.32,8.5-6.73,8-4.92-.46-5-5.41-6.1-8.8-2.82-8.54-5.15-17.25-7.62-25.91-.93-3.23-1.31-6.63,3.14-7.28s6.2,1.47,5.56,6.23c-.35,2.58.77,5.42,1.47,8.08,1,3.85-1.75,10.59,3,11,5.61.54,5.7-6.79,7.45-11,3.41-8.13,8-9.3,14.66-3.16,4.86,4.47,9.72,8.94,14.46,13.53,4.11,4,6,1.68,7.27-2.4,2.2-7.16-.1-13.69-2.91-20.19-1.47-3.42-4-8.29.88-9.83,4.29-1.36,4.33,4.31,5.58,7.27C1060,164.88,1063.11,171.86,1063.41,178Z"/><path d="M94.35,317.73c-.3-6.72.81-13.16-4.28-19.64-3.65-4.66,2.42-12.16,1.07-18.72-.23-1.12,1.76-1.89,3.29-1.34a3.66,3.66,0,0,1,2.6,4.05c-1.6,10.64,4.66,10,11.93,8.79,6.8-1.14,13.71-1.71,20.57-2.54,2.69-.33,4.16-2,5.36-4.37,1.36-2.67-1-8.87,4.33-7.53,5.19,1.29,10.09,5.09,10,11.86a61.56,61.56,0,0,1-.75,7.27c-1.35,9.95-3.73,19.82,1.6,29.57,2,3.59,1.25,8.43-3.45,9.33-5.79,1.12-5.17-4.28-5.53-7.8-.87-8.67-1.64-17.35-2.06-26-.28-6-2.4-8-8.56-6.5-7.39,1.79-14.94,2.7-22.29,4.94-6.72,2.06-8.91,5.69-7.54,12.35,1,5.11,1.52,10.33,2.33,15.49.54,3.49-.06,6.55-3.93,7.32-5.15,1-4.37-3.25-4.6-6.1C94.14,324.67,94.35,321.19,94.35,317.73Z"/><path d="M978.36,350.58c-3.29-1.63-6-4.08-6-7.78a253.57,253.57,0,0,0-1.08-31.3c-.33-3.13,2-5.35,4.71-6.28,3.65-1.27,5,2.25,6,4.47,5.42,11.29,14.8,18.09,25.57,23.42,2.45,1.21,5.17,2.88,7.66.2,2.15-2.32,1.62-5.13.83-7.9-1.32-4.67-3.08-9.3-3.71-14.07-.53-4,1-8.39,6-7.93,4.3.4,6.3,3.42,4.66,8.39-2.49,7.52,1.6,14.27,3.62,21.14,3.51,12,1.07,14.5-10.68,13.27-9.84-1-15.72-8.3-23.47-12.47-7.39-4-9.86-3.23-10.56,5.06C981.61,342.8,982,347.31,978.36,350.58Z"/><path d="M287.89,157.68c1.28-5-2.53-9.75-2.14-15,.35-4.75,1.69-9.84,7.73-8.86,6.38,1.05,2.08,5.53,2.06,8.94,0,8.29,1.3,16.58,1.4,24.88.11,10.35-4.85,13.52-13.79,8.3-7.09-4.15-15.37-6.08-21.32-12.61-3.93-4.32-9.11-5.5-11.76,2.33-.76,2.25-2.72,4.08-3.53,6.33-1.08,3-2.64,5-6,4.24-2.93-.66-5.29-2.48-5.39-5.64-.26-7.58-3.89-14-6.58-20.79-1.61-4-.94-7.3,3.23-8.26,5-1.15,4.21,3.12,4.52,6.13.44,4.19.91,9.25,5.35,10.41,4.64,1.21,5.64-4.33,7.8-7.17,6.44-8.43,8-8.62,12.61.54,3.38,6.69,9.95,9.43,15.25,13.69,2.63,2.12,6.6,3.85,9.73,1.75C290,164.91,288.41,161.13,287.89,157.68Z"/><path d="M243.5,24.64c.74,9.65,4,20.77-6.85,24.48-9.41,3.21-14-7.13-18.94-13.37-4.05-5.09-5.94-4.89-8.5.87a79.84,79.84,0,0,1-7.55,13.68c-4.19,5.92-8.94,6.64-12.7-.57-5.12-9.84-6.69-21.25-13.38-30.46-1.71-2.35.2-3.84,2.38-4.54,2.46-.79,4.38.39,4.72,2.71,1,7.11,6.49,12.28,8.07,19.12.56,2.44,1.46,5.11,4.13,5.45,2.85.35,3.92-2.11,4.84-4.58s2.65-4.9,3.72-7.46c5.62-13.49,7.49-13.73,17.71-2.53,3.39,3.73,6,11,11.34,9.32,6.39-2,2.58-9.78,3.95-14.87a13.87,13.87,0,0,0-.81-9.2c-1.24-2.94,0-4.75,3-5.17s5.64.49,5.51,4.31C244,16.36,243.7,20.88,243.5,24.64Z"/><path d="M16.66,307.49c1.92-4.39,3-6.93,4.14-9.43,1.84-4,1.27-10.7,5.92-11.34,5.41-.73,6.47,6.33,9.56,9.85,2.51,2.87,4.7,6,7.27,8.85,1.88,2.06,4.07,4.05,7.25,2.17a5.22,5.22,0,0,0,2.65-6.22c-1.65-6.38,1.73-13.15-1.85-19.49C50,279,53,277.39,55.08,276.45c3.07-1.37,5,1,5.07,3.45.55,11.43,1.69,23-1.72,34.14-1,3.14-2.64,7.06-6.93,6.71a9.54,9.54,0,0,1-8.08-5.92A15.36,15.36,0,0,0,37,307.18C27.54,300.81,26.67,301,24,313c-1.08,4.73-2.3,9.43-3.81,14a4.91,4.91,0,0,1-4.59,3.7c-2.6,0-3.72-2.19-4-4.15A233.37,233.37,0,0,0,3.92,288.9c-.82-2.7.62-4.92,3.65-5.1,3.21-.18,4.1,2.31,4.23,4.86C12.12,294.76,11.77,301,16.66,307.49Z"/><path d="M47.77,161.19c-14.78,8.8-.16,14,3,20.94,1,2.08,0,4.08-2.16,5.28-3,1.7-5.91.71-7.29-1.8A36.19,36.19,0,0,1,37.11,174C36,166.4,31.88,166.07,26,168.21c-6.17,2.23-12.66,3.82-14.32,11.7-.32,1.52-2.09,2.73-3.13,4.12-1.55,2.08-3.37,3.9-6.11,2.53-3.3-1.64-2.61-4.52-1.53-7.21,5.23-13,12.26-25.28,15.74-39,.77-3,2-6.62,6-6,3.18.51,5.35,3.22,6.51,6.3,1,2.61,1.2,5.6,2.59,7.93,2.52,4.22,4,10.15,11.23,8.64C45,156.81,47.13,157.79,47.77,161.19Z"/><path d="M1056,57c.65-18.59.11-19-16.33-14.13-3.34,1-6.59,2.44-10,3-6.34,1.1-6.84,4.88-5.27,10,.72,2.31,1.77,4.6,2,7s.22,5.28-2.64,6.19c-3.11,1-3.74-1.67-5-3.87-7-11.87-3.75-25.4-6.3-38a3.78,3.78,0,0,1,3.51-4.42c3.37-.34,4.55,2.35,4.39,4.64-.74,10.9,5.95,9.39,12.87,8.31a58.59,58.59,0,0,1,10.44-.34c4.84.12,9.29-.24,10.34-6.22.75-4.23,3.64-4.85,7-4,3.94,1,7.54,3,6.89,7.74-1.34,9.94-3.3,19.71-1.87,29.94.4,2.82-.86,8.83-5.67,8.66-5.22-.2-4.23-5.37-4.37-9.08C1055.88,60,1056,57.53,1056,57Z"/><path d="M811.37,315.06c-5.35,4.41-7.15,7.93-2.78,13.05,2.44,2.86,1,6-2.07,7.93-3.91,2.42-5.25-.49-7.12-3.3-9.82-14.73-18.31-15-29.78-1.34-1.9,2.26-3.66,6.15-7.34,4.22-3.88-2-2.94-5.7-1.27-9.12,4.42-9,8.54-18.23,13.24-27.13,1.79-3.37,5-6,9.27-5.91,4.61.09,5,4,5.93,7.36C792.29,311.55,800.37,314.72,811.37,315.06Z"/><path d="M264.63,294.86c.71-15.14,3.36-17.69,15.56-19.27,7.23-.93,14.66-.52,21.64-3.38,3.1-1.28,6.53-1.32,7.6,2.82,1.2,4.61-2.45,5.17-5.63,5.45-8.66.78-16.91,4.5-25.79,3.57-3.1-.32-5.88.07-6,3.89s3.12,4.4,5.86,4.53c6.27.32,12.54.41,18.3-3,2.88-1.7,5.87-.79,6.89,2.28,1.17,3.55-2.29,3.54-4.49,4.13-3.7,1-7.39,2.39-11.15,2.65-11.75.79-15.71,6.5-12.51,17.78.92,3.24-.36,7.65,3.63,9.09,3.78,1.37,6.08-2.64,9.13-4.07,3.32-1.56,5.39-9.33,9.4-4.61,3.32,3.92-2.46,7.88-5.79,10.72-4.52,3.84-9.34,8.26-15.86,5.52-6-2.52-6.3-8.72-7.18-14.2C266.82,309.83,265.54,300.89,264.63,294.86Z"/><path d="M761.8,60.12c-.36,3.86-.91,6.86-3.37,7.44-3.51.84-6.16-1.87-7.06-4.88-1.87-6.26-2.75-14.94-10-15.07-6.62-.11-11.18,6.93-14.62,13.27-1.65,3-4.14,7.68-8.77,5.23-4.85-2.57-2.94-7-1.28-11,3.79-9.26,7.48-18.58,11.15-27.9,2-5,6.44-8.41,10.43-5.26C751,31.9,754.36,48,761.8,60.12Z"/><path d="M261.75,45.33c0-14.4,5-25,10.29-35.61,2.85-5.68,5.51-4.73,9.14-.51,3.94,4.6,6.71,10.9,14.32,11,2.64,0,3.19,2.28,2.85,4.6-.7,4.69.64,8.5,5.41,9.91s3.5,4.57,2.82,7.49c-.52,2.28-1.39,5.49-4.4,4.81-2.81-.62-6.58-1-7.71-4.47-1.81-5.58-2.3-12.91-9.87-12.88-8.68,0-10,8.19-12.74,14.5-1.28,2.94-2.19,7.54-6.66,6.73C261.45,50.23,262,46.1,261.75,45.33Z"/><path d="M1118.84,44.71c-7.75,6.77-5.7,11.47,1.6,15.38,3.23,1.72,4.36,4.28,3.24,7.82-.65,2-1.4,4.12-3.94,4.18-4.3.1-5.44-2.88-6.86-6.41-1.86-4.59-3.45-11.15-9.41-11.08-6.11.08-12.25,2.57-14.6,9.7-1.2,3.63-3.69,6.53-7.77,4.74s-1.88-5.59-1.14-8.29c2.78-10,5.55-20,9.16-29.76,2-5.44,5.14-7.72,10.35-1.34C1104.4,35.7,1106,46.81,1118.84,44.71Z"/><path d="M597,328.69c-12.31.2-20.25-3.42-24.88-12.4s.25-16.25,5.3-23c4.42-5.9,10.37-6.78,16.44-2.31,5.32,3.92,10.54,8,15.44,12.44,9.1,8.21,8,16.61-3,22.21C602.68,327.51,598.47,328.23,597,328.69Zm-4.39-8.41c4.55-2.06,11.06-.65,12.25-7.65.38-2.19-13.16-14.27-15.57-13.79-5.48,1.09-8.24,4.69-8,10.32C581.52,316.46,586.65,318.73,592.61,320.28Z"/><path d="M859,153.66c3.77.22,7.7-1,8.22,3.59.47,4.14-2.48,7.35-6.12,6.8-7.72-1.17-8.16,4.18-8.45,8.78-.47,7.51-1.67,15.27,2.71,22.33,2.31,3.71,2,8.32-1.82,9.8-3.46,1.36-5.78-2.78-7.18-6-3.2-7.29-1.69-15.11-2.21-22.68-.84-12.34-1.1-12.77-13.66-11.59-7.27.68-14.55,1.29-21.83,1.71-2.78.16-6.07,0-5.92-4,.12-3.31,3.16-3.25,5.5-3.5C825.44,157.08,842.82,157.25,859,153.66Z"/><path d="M330.28,52.21a12.75,12.75,0,0,1-9.06-1.7c-3.64-2.33-10-4.26-8.13-9.18,1.7-4.47,6.51-.22,10,.64s7.61,2,9.52-1.48c2.15-3.89-2.88-4.86-4.83-6.81-11.51-11.52-12.14-22.29-1.49-30.84,2.86-2.3,5.81-4.61,9-.85,3,3.54,1.28,5.89-2.14,8.45-6.79,5.08-6.57,11.37.52,16.34a82,82,0,0,0,12.87,6.91c3.58,1.65,5.35,4,5.35,8s-2.41,5.18-5.47,6.57C339.86,51.21,337.41,52,330.28,52.21Z"/><path d="M982.14,51.39c0-3.12.06-6.25,0-9.38-.24-11.24-2.42-12.82-13.31-12.23-4.15.22-11.31,4-12.14-2.8-.67-5.48,6.81-4.48,10.83-5.44,9-2.14,18.11-3.45,27.14-5.29,2.75-.56,5.64-2,7.26,1.4a5.3,5.3,0,0,1-2.5,7.2c-11.84,4.54-8,14.21-7.88,22.62.1,5.88,1,11.77,1,17.65,0,2.88.07,7.21-4,7.4-4.43.21-6.69-3.09-6.71-7.58s0-9,0-13.55Z"/><path d="M1116.49,176c-.41,14.19-8.64,24.33-19.25,23.74-13.5-.75-20.74-9.63-20.34-25,.4-15,5.6-20.54,19-20.06C1108.24,155.2,1116.84,164.08,1116.49,176Zm-7.38-4.28c-.62-5.37-5.8-10.77-12.54-10a14.32,14.32,0,0,0-12.77,14.13c-.18,8.47,5.94,15.41,12.62,14.89C1103.33,190.26,1109.38,182.36,1109.11,171.75Z"/><path d="M872.11,348.23c-5.14-1.29-11-2.64-17.5-1-3.73,1-6.54-3.53-8.31-6.85-1.23-2.33.28-4.78,2.32-6.34,1.78-1.37,3-.32,4.14,1.33,6.15,8.64,14.69,4.88,21.21,2.14,7.14-3,2.92-8.36-1.55-10.84-6.87-3.82-9.1-10.24-10.83-16.87-1.88-7.19,2.44-11.88,8.15-15.33a5.39,5.39,0,0,1,5.93.55c2,1.35,1.06,2.93.24,4.53-6.38,12.61-4.67,19.1,7.13,27.13,12,8.17,11.78,11-1.34,18.46C879,346.71,876.4,348.56,872.11,348.23Z"/><path d="M876.55,176.72c0-3.68,1.92-7.15-.16-11.14-1.58-3,1.36-4.24,4.09-3.9,12.18,1.48,24.16,3.77,33.2,13.06,8.24,8.47,6.42,15.76-4.06,21.33C889.74,206.63,877.23,192.93,876.55,176.72Zm23.07,14.91c4.06-.89,9.21-.8,10.24-6.43.79-4.28-12.34-14-18.54-14.17-6.41-.14-5.84,5.13-5.89,8.78C885.29,189,892,190.81,899.62,191.63Z"/><path d="M658.41,39.1c.24-3.46.28-7,.79-10.38s2.23-6.18,6.12-5.66,4.53,4.23,4.23,7.25c-.41,4.11-1.83,8.1-1.25,12.36.82,5.93,1.59,13.36,7.65,14.72,6.35,1.42,13.84.22,19-5.72,2.78-3.17,5.49-10.1,9.93-6.64,5.26,4.11-2.13,7.53-4.34,10.57-8.77,12.12-18.65,16.83-26.65,13.74C663.38,65.26,657.8,54.4,658.41,39.1Z"/><path d="M1163.31,56c0-1.75,0-3.5,0-5.24.11-15.68.12-15.65-15.51-12.33a21,21,0,0,1-7.16.61,4.57,4.57,0,0,1-3.69-4.52c-.19-2.83,1.87-3.52,4-3.71a107.18,107.18,0,0,0,31.25-7.46c2-.83,4.21-1.15,5.68.89,1.66,2.32.86,5-.62,6.84-5.44,6.77-4.88,15.08-6.16,22.86-.76,4.59-2.2,9.54,3.56,12.94,3.16,1.86,2,5.66.61,8.52-1.12,2.32-3.25,4-6,3.16a7.65,7.65,0,0,1-5.64-6.89c-.39-5.2-.11-10.45-.11-15.67Z"/><path d="M803.39,60.58a21.73,21.73,0,0,0,4.55-.79c3.24-1.07,7.16-3.61,8.66,1.28,1.14,3.69-3.09,4.73-5.81,6.12-10.78,5.52-20,.55-27.77-5.77-8-6.57-12.74-16.05-9.75-26.9,2.38-8.64,10.09-11.94,18.14-13.63,2.7-.57,6.91-1.35,7.61,3.05.55,3.5-1.78,5.7-5.31,6.58-6.74,1.67-13,3.79-11.35,12.94C783.9,52,793.51,60.54,803.39,60.58Z"/><path d="M213.35,301c-.81,20,1.2,22.1,19.65,19.83,6.12-.74,12.53-1.9,16.29-7.93,1.06-1.69,1.73-4.36,4.44-2.44a5,5,0,0,1,1.91,5.6c-1.45,4.29-3.14,8.15-8.06,10.19a85.66,85.66,0,0,1-26.33,6c-8.13.63-13.77-4.71-14.78-13.19a98.36,98.36,0,0,1,.4-26.1c.39-2.64-.26-6.32,4-5.71,3.72.52,3.34,3.85,3.12,6.67S213.49,299.39,213.35,301Z"/><path d="M71.08,145c.22-1.35-2.16-5.76,2.74-6,4.1-.19,4.18,4,4.51,7,.76,6.91,1.76,13.84,1.89,20.78.13,6.31,2.93,8.08,8.55,6.7,10.11-2.47,20.83-1.1,30.71-5,2.33-.91,4.81-2,5.54,1.86.58,3,.48,5.89-3.51,6-12,.41-23.11,4.78-34.71,6.86-7.73,1.38-12-2.61-13-9.95C72.66,164.42,72.06,155.39,71.08,145Z"/><path d="M176.19,158c0-9.91,7.18-19,15.24-19.31,7.44-.3,17.32,10.66,17.49,19.4.17,9-8.78,17.92-18,17.95C182.79,176,176.17,167.91,176.19,158Zm15.67,10.91c5.29-.71,9.39-3.31,9.32-9-.07-5.88-2.83-11.23-9.35-11.57-6.29-.32-8.7,4.66-9.32,10.28C181.77,165.34,186.4,167.44,191.86,168.88Z"/><path d="M74.15,33.68c.16-2.77.15-5.57.53-8.32,1-7.11-2.55-8.2-8.67-7.41-5,.65-13.19,5.27-14.4-1.84-1.34-7.89,8.24-4.6,12.86-6.1C70,8.22,76.06,8.19,81.87,7.26c2.51-.4,4.95-.74,6.35,2,1.21,2.33.43,4.26-.8,6.68-4.18,8.18-7.9,16.63-3.57,26.09,1.78,3.9-1,6.6-3,9.31-1.19,1.64-3.19,1-4.73.12-2.87-1.65-2.93-4.53-2.8-7.34C73.49,40.6,73.86,37.14,74.15,33.68Z"/><path d="M129.06,152.24c-.22-3.09-.36-6.19-.71-9.28-.31-2.8-3.08-6.79,2.14-7.2,3.84-.3,4.72,3.56,4.89,6.77.26,4.85.07,9.71.26,14.56.65,16.14,5.08,18.8,20.4,12,4.18-1.84,10-7.63,12.25-2.27,2.55,6.06-5.41,6.74-10.21,8.35-4.53,1.53-8.66,4.21-13.14,6-8.65,3.38-14,.14-15.07-9.22-.73-6.53-.84-13.12-1.23-19.68Z"/><path d="M152.48,425.26c3.39.3,3.64,2.48,4.05,4.52,2.21,11.09,1.5,22.63,5.89,33.44a6.54,6.54,0,0,1-4.51,8.33c-4.46,1-5.53-2.9-5.94-6.58q-1.74-16-3.52-32C148,429.21,148.63,426.11,152.48,425.26Z"/><path d="M172,316.87c.06-10.11-.33-18.4-2.82-26.43-1.21-3.9-1.83-8.69,2.62-9.7,5.43-1.23,3.56,4.41,4.41,7.32,2.89,10,.74,20.78,4.87,30.64.72,1.7-.09,4.07-.27,6.13-.29,3.38-1.45,6.57-5.45,5.86-3.71-.65-4.38-3.77-3.81-7.31A52.47,52.47,0,0,0,172,316.87Z"/><path d="M940.1,327.33c-1.07,3.69.82,8.26,1.8,13a8,8,0,0,1-3.27,8.31c-2.12,1.5-3.93,0-5.65-1.16-2.91-1.92-2.48-4.55-1.65-7.41,2.28-7.89,1.6-15.75-.27-23.63a13.74,13.74,0,0,1-.29-6.1c.61-2.57,1.28-6,4.81-5.86s4.41,3,4.48,6C940.19,315.67,940.1,320.85,940.1,327.33Z"/><path d="M20,50c-.93-7.78-2.1-18.1-3.43-28.39-.47-3.63-1.1-7.59,3.8-8,5.65-.46,4,4.15,4.22,7.39.64,10.65-.2,21.46,3.71,31.75a9.29,9.29,0,0,1,.21,5.1c-.68,2.91-1,6.83-5.28,6.35-3.47-.38-3.74-3.57-3.7-6.45C19.6,56,19.77,54.27,20,50Z"/><path d="M831.4,324.74c-1.1-7.2-2.29-14.4-3.25-21.62-.33-2.49,0-5.18,3.38-5.31,2.57-.11,3.78,2.14,3.94,4.12a137.88,137.88,0,0,0,4.46,23.37c1,3.95,1.7,10.82-4.44,10.9C827.68,336.29,831.64,329,831.4,324.74Z"/></svg>