<?xml version="1.0" encoding="utf-8"?>
<!-- Generator: Adobe Illustrator 22.0.1, SVG Export Plug-In . SVG Version: 6.00 Build 0)  -->
<svg version="1.1" id="Layer_1" xmlns="http://www.w3.org/2000/svg" xmlns:xlink="http://www.w3.org/1999/xlink" x="0px" y="0px"
	 viewBox="0 0 1077 1025.2" style="enable-background:new 0 0 1077 1025.2;" xml:space="preserve">
<title>c2-txt</title>
<g>
	<path d="M580.5,967.3c5.3-9.5,12.2-14.2,22.2-12.7c8.3,1.3,10.8,6,7.3,13.4c-2.2,4.5-4.5,9.1-9.6,11.1c-4,1.6-3.6,3.8-0.4,5.8
		c5.8,3.7,11.8,6.7,19.1,4.8c1.7-0.5,3.7-1.5,4.6,0.6c1.1,2.5-1.3,3.4-3,4.5c-10.8,6.7-33.3-5.5-33.7-18.3c-0.2-5,2.4-6.2,6.7-5.1
		c3,0.8,6,1.7,7.9-1.9c1.3-2.5,4.3-5,1.9-8.1c-2.1-2.7-5.1-1.3-7.7-0.7c-9.3,2.4-15.3,12.1-15.6,24.9c0,2.3,0.1,4.5,0.2,6.8
		c0.1,2.9-0.9,5-4.2,4.7c-3-0.3-4.6-2.2-4.1-5.2c1.4-8.8,1.2-17.5-2.3-25.9c-0.9-2.3-0.4-4.6,2.2-5.6c2.2-1,4.7-0.1,5.9,2
		C578.6,963.8,579.2,965.1,580.5,967.3z"/>
	<path d="M462.7,985.4c-0.3,3.3,0.6,6.7-2.7,8.4c-2.9,1.5-5.4-0.5-7.6-2c-6.6-4.5-13.1-9.3-19.6-13.8c-1.5-1.1-2.9-3.4-5.2-2.2
		s-0.9,3.5-0.6,5.4c0.8,4.7,1.6,9.4,2.3,14.1c0.3,2.3,0.2,4.8-2.8,5.3c-2.1,0.6-4.3-0.7-4.9-2.9c-0.1-0.2-0.1-0.4-0.1-0.7
		c-2-11.1-3.4-22.3-7.3-33c-0.8-2.1,0.5-4,2.5-5c2.8-1.4,6.2-0.8,8.2,1.6c7.7,7.6,14.9,15.7,24.3,21.2c1.9,1.1,3.3,3.9,5.8,2.5
		c2.8-1.6,1.3-4.6,0.9-6.9c-1.1-5.7-2.4-11.3-3.7-16.9c-0.7-3.2,0.3-5.8,3.6-6.2c3.6-0.5,3.5,2.5,3.8,5.1
		C460.7,968.3,461.8,977,462.7,985.4z"/>
	<path d="M38.7,991.4c0,4.3,0.3,8.5-0.1,12.8c-0.7,7.1-6.1,9.9-12.3,6.1c-4.2-2.6-8-6-12-9c-3.3-2.5-5-1.7-4.9,2.5
		c0.1,5.5,0.4,11,0.4,16.5c0,2,1,5-2.8,4.9s-4.7-2.5-4.6-5.6c0.2-8.3-0.7-16.5-1.6-24.7c-0.4-3.5-1.1-7-0.8-10.4
		c0.3-3,1.9-5.9,5.5-6.2c3.9-0.3,4.1,2.7,4.8,5.4c2.5,9.9,11,14.7,18.4,20c3.8,2.7,4.9-2.1,4.9-4.9c0.2-5.8-1.3-11.4-3.2-16.9
		c-0.8-2.3-2-4.8,0.5-6.8c1.4-1.2,3.3-1.5,5-0.7c2.6,1.4,2.4,4.1,2.4,6.7c-0.1,3.5,0,7,0,10.5L38.7,991.4z"/>
	<path d="M693.6,990.3c-0.2,0-0.5,0-0.8,0c-4.3,1.1-9.1-3.5-12.9,0.4c-4,4.2,2.2,7.6,1.8,11.7c-0.2,2.4,0.7,5.3-2.7,6.1
		s-5.3-1.3-5.8-4.3c-0.6-4.2,0.6-9.3-1.4-12.5c-5.5-8.8-1.6-19.7-7.2-28.3c-1.4-2.2-1.4-5,1.8-6.2c2.8-1,4.7,0,6.2,2.6
		c5.8,10.1,5.9,10,15.3,2.3c2.1-1.7,4.1-3.2,6.4-0.6s1.5,5.3-1.1,7.1c-3.9,2.8-8,5.2-11.9,7.9c-3,2.1-2.9,3.9,0.8,5
		c4.8,1.5,9.9,1.9,14.9,1.3c2.9-0.4,6.5-2,7,2.7c0.5,4.9-3.5,4.5-6.7,4.8C696.2,990.4,694.9,990.3,693.6,990.3z"/>
	<path d="M176.9,983.5c-1.3-4.5,2.3-7.1,8.7-7.8c9.2-1,18.4-2.3,27.6-3.4c1.8-0.2,4.5-0.9,4.8,2c0.3,2.8-2.3,3-4.1,3.4
		c-7.6,1.7-15.2,3.2-22.8,4.8c-2.8,0.6-5.9,1.5-5.6,4.9c0.4,3.9,3.9,4.3,7,3.9c6-0.7,11.9-1.8,17.9-2.5c2-0.2,5.1-1.7,5.7,1.5
		c0.5,2.5-2.6,2.4-4.4,3c-6.7,2.2-13.2,4.7-20.5,4.5c-2.4-0.1-4.6,0.4-4.9,3.4c-0.2,2.6,0.4,5.1,2.6,6.7c2.6,1.9,4.1,0,5.5-1.9
		c1-1.4,2-3.3,4.1-2.1c2.7,1.5,0.9,3.4,0.2,5.2c-1.8,4.5-4.4,8.1-9.8,7.9c-5.8-0.3-8.3-4.2-9-9.4
		C178.8,1000.5,178,993.3,176.9,983.5z"/>
	<path d="M330.4,982.5c-0.2-3.5-0.5-7-0.6-10.5c-0.1-2.6-1.3-5.9,2.4-7c3.7-1.1,6.2,0.7,7.9,4.1c2.7,5.5,7.5,9.3,11.6,13.7
		c1.3,1.5,2.8,3.3,5,2.5s3.1-3.2,2.9-5.6c-0.3-4.5-0.6-9-1-13.5c-0.2-2.3-0.8-4.8,2.6-5.1c3-0.3,4.6,1.3,5,4.3
		c1.1,9.8,0.1,19.5-1.9,29.1c-0.9,4.1-4.2,4.6-7.5,1.9c-4.5-3.6-8.8-7.3-13.2-11.1c-1.1-1-2-2.4-3.8-1.7s-1.6,2.3-1.7,3.8
		c-0.1,2.8-0.1,5.5-0.3,8.3s-1.2,5-4.5,4.8s-3.8-2.5-3.7-5.3c0.1-4.3,0-8.5,0-12.8H330.4z"/>
	<path d="M720.1,993.2c0,3.2,0,5.9,0,8.7c0,2.3-0.8,4-3.3,4.2c-2.8,0.2-4.2-1.4-4.5-4c-0.2-1.7-0.2-3.5-0.3-5.2
		c-0.2-7.5,0.6-15-1-22.5c-0.8-3.5,0.3-6.6,3.9-8c3.5-1.3,4.9,1.5,6.5,3.7c4.5,6.1,9.3,11.9,16.5,14.9s12-0.4,10.9-8.4
		c-0.7-5.4-3.7-9.8-7.1-13.8c-1.3-1.5-3.2-3.2-1.4-5.2c1.6-1.8,3.7-0.8,5.5,0.2c7.9,4.6,11.4,24.4,5.5,31.4
		c-2.3,2.8-5.2,3.9-8.7,2.9c-6.1-1.7-12-3.6-16.9-7.8c-1.4-1.2-2.4-3.9-4.8-2.4c-1.9,1.2-1.2,3.6-1.2,5.5S720,991.5,720.1,993.2z"/>
	<path d="M847.4,982.5c0.1,1.7,0.1,3.3,0,5c-0.3,3.1,0.9,7-2.9,8.6s-7.2-0.6-10.2-3.1c-8.1-6.7-8.1-6.7-12.3,2.7
		c-1.1,2.5-2.3,5-4.6,6.8c-4.3,3.3-9.3,2.1-10.8-2.9c-2.4-7.9-4-16-7.7-23.6c-1-2.2-1.1-4.6,2.1-5.2c2.7-0.6,4.9-0.3,5.7,3.1
		c1.2,5.6,2.7,11.2,4.1,16.8c0.4,1.7,0.7,3.6,2.9,3.8s2.9-1.7,3.8-3.1c1.7-2.6,2.1-5.6,3-8.4s0.6-7.1,4.9-7.6c3.6-0.4,5,2.8,6.8,5.2
		c0.9,1.2,1.7,2.5,2.6,3.7c1.3,1.7,2.8,3.1,5.1,2.2s2.8-2.7,2.7-4.9c-0.1-5.3-0.9-10.5-2.6-15.5c-0.7-2.1-1.6-4.9,1.6-5.6
		c3.4-0.8,4,1.8,4.3,4.6C846.7,971,848.4,976.9,847.4,982.5z"/>
	<path d="M297.8,1001.2c-0.3,6.8-3.5,10-9.4,10.2c-5.5,0.1-7.7-3.5-8.6-8.5c-1.8-9.4-0.3-19.1-2.6-28.4c-0.8-3.1,1.1-4.7,4-5
		c7-0.8,13.9-1.5,20.9-2.2c1.8-0.2,3.9,0.1,4.4,2c0.7,2.8-2,3-3.8,3.5c-2.4,0.7-5,0.7-7.3,1.7c-2.5,1.1-7.5-0.5-6.9,3.7
		c0.4,3.1,4.7,1.5,7.3,1.5c4.8-0.1,9.5-0.8,14.3-1c1.5-0.1,3.9-1.2,4.3,1.4c0.4,2.4-1.9,2.5-3.5,3c-5.6,1.4-11.1,2.9-16.8,4.2
		c-7,1.6-8.8,4.5-6.8,11.6C288.5,1003.5,289.5,1003.9,297.8,1001.2z"/>
	<path d="M880.8,1014.4c-8.9-0.9-16.5-2.3-22.2-8.4c-1.1-1.2-3-2.7-1.3-4.4s3.3-0.4,4.5,1c7,7.9,15.8,6,24.5,4.3
		c2.1-0.4,4-1.5,4.3-3.6c0.5-2.9-2-3.7-4.1-4.5c-3.8-1.4-7.6-2.6-11.3-4.2c-8-3.3-12.8-9.3-15-17.6c-1.7-6.3,0.5-11.5,4.9-15.7
		c4.8-4.5,10.7-5,16.9-3.4c1.9,0.5,3.2,1.4,2.9,3.6c0,1.6-1.4,2.9-3,2.8c-0.2,0-0.5,0-0.7-0.1c-6.6-1.1-12.5-0.4-14.2,7.3
		c-1.7,7.9,3.1,13.3,8.7,17.9c4.2,3.4,9.8,3.8,14.4,6.2c3.5,1.8,7.9,3.5,7.6,8.3s-4.3,7.2-8.4,8.6
		C886.5,1013.5,883.7,1014.1,880.8,1014.4z"/>
	<path d="M486.3,963.9c14.7,1.3,22.2,7.5,21.3,17.6c-0.8,8.9-10,16.8-18.7,16.1c-7.6-0.6-13.7-9.7-12.8-19.2
		C477.1,968.1,480.4,963.3,486.3,963.9z M483.3,981.3c0.2,5.6,3.1,8.6,8,9.4c4.1,0.7,9.7-5,10-9.4s-4.8-11.4-8.4-10.8
		C486.9,971.4,485,976.5,483.3,981.3L483.3,981.3z"/>
	<path d="M82.1,996.8c0.1,9.7-4.5,16.7-12.7,18.9c-6.2,1.6-11.4-0.1-15-5.6c-4.1-6.2-3.2-17.4,1.6-23.3c4.6-5.6,14.2-9.2,19.4-7.3
		C79.6,981.2,82,987.3,82.1,996.8z M77.4,997.5c0.2-6.5-3.3-12.2-7.5-12.1c-5,0.1-11.4,7.7-11.7,14c-0.3,6,3.2,10.3,8.4,10.3
		C72.6,1009.7,77.2,1004.4,77.4,997.5L77.4,997.5z"/>
	<path d="M258.5,980.5c-0.3-2.8-2.2-5.3,0.8-7.2c1.9-1.2,3.4-0.4,4.9,0.7c2.8,1.9,2.6,4.7,1.7,7.5c-2.9,8.8-4.4,18.1-9.5,26.1
		c-1.7,2.6-3.5,5.2-7,4.9c-3.2-0.3-4.3-3.2-5.3-5.8c-2.7-7.3-5.4-14.6-7.9-21.9c-0.9-2.7-1.6-5.6,2.5-6.5c3.3-0.7,5.3,0.5,6.1,3.8
		c1.1,4.6,2.3,9.2,3.5,13.8c0.4,1.5,0.8,3.1,2.5,3.4s2.7-1.1,3.3-2.5C256.3,991.5,257.7,986.1,258.5,980.5z"/>
	<path d="M112.6,976c2,0.1,4.8-0.2,6.4,2.3c2,3.1-1,4.4-2.6,6.1c-1.2,1.3-2.1,2.8-1.7,4.7c1.4,8.1,0.9,16.6,4.1,24.4
		c0.9,2.3,2.7,4.9-1.1,6.1c-3.6,1.2-6-1-6.6-4.2c-1.2-6.7-1.9-13.4-2.9-20.1c-1.6-11-2.9-11.6-13.7-9c-3.8,0.9-9.6,4.7-11.1-0.6
		c-1.3-4.8,5.6-4.4,9-5.6C98.8,977.8,105.7,976.4,112.6,976z"/>
	<path d="M554.5,977.6c-0.1,10.5-3.6,15.4-11.8,16.2c-7.7,0.8-14.5-4.5-16.4-13.4c-0.7-3.4-0.4-7-0.6-10.5c-0.2-2.7,0.6-4.5,3.6-4.4
		c3.3,0.1,5.2,1.7,5,5.2c-0.2,2.7-1.1,5.6-0.6,8.2c0.9,4.3,3,8.5,8.5,7.5c5-0.9,5.7-5,5.2-9.4c-0.6-3.7-1.8-7.3-3.7-10.6
		c-1.1-2.1-3.1-4.6,0.3-6.3c2.8-1.4,4.7,0.5,6.3,2.7C553.5,967.2,554.6,972.3,554.5,977.6z"/>
	<path d="M775.5,963.1c6.7-0.6,12.2,0.3,15.2,6.5c3.4,6.4,2.9,14.1-1.3,19.9c-5.5,8.1-17.3,6.8-22.1-2.5c-3.3-6.3-2.8-13.2-1.1-19.8
		C767.5,962.2,772,962.8,775.5,963.1z M771.5,976.9c-0.1,6.9,3.6,12.2,8.5,11.9c4.5-0.3,7.3-2.8,7.4-7.7c0.1-6.9-4.3-14.1-8.8-13.7
		C772.9,967.8,771.4,971.9,771.5,976.9L771.5,976.9z"/>
</g>
<g>
	<path d="M538.1,13.7c2.1-0.1,4.3-0.1,5.1,2.3c0.9,2.5-1.2,3.4-3,4.5c-9.7,6.3-9.5,11.2,0.6,17.8c3.5,2.3,8.2,3.3,7,9.2
		c-1.2,5.4-5.8,6.1-10,7.9c-9,3.9-17.6-2.3-26.6-0.3c-2.8,0.6-2.8-4.7-4.3-7.2c-2.4-3.8-1.1-10.6-7.2-11.2c-6.4-0.6-8.3,5.5-11,9.9
		c-1.6,2.8-2.9,6.6-7.2,4.5c-3.9-2-1.4-5.3-0.6-8c2.3-7.7,5.1-15.2,7-23c1.1-4.7,4.2-5.6,8-6.5c4.5-1,5.4,2.5,6.9,5.3
		c3.2,5.7,4.8,12.1,6.9,18.3c3.1,9.2,15.6,15.9,24.9,13.3c2.1-0.6,4.7-1.2,5.1-3.8s-2.3-3-3.9-4c-5.2-3.1-9.2-6.9-10.1-13.2
		C524.7,21.3,530.4,14,538.1,13.7z"/>
	<path d="M422.5,54.1c-6.8-0.6-11.6-4.7-15.9-9.9c-3.5-4.3-6.7-7.4-8.5,1.1c-0.5,2.2-2,3.8-4.2,3.7c-3-0.2-3.1-2.7-3.1-5.1
		c0.2-11.1,0-22.1-3.1-32.8c-0.6-2.2-0.4-4.8,2.8-5c2.7-0.2,4,1.7,4.5,4.2s-0.7,5.4,2.4,6.6c3.6,1.3,4.4-2.5,6.3-4.1
		c1.1-1,2.2-2.1,3.4-3c3.5-2.8,7.7-3.7,11-0.5c3.6,3.6,0.3,6.9-2.2,9.7c-2.8,2.9-6.3,5-10.2,6.1c-4.2,1.3-4.3,4-1.6,6.8
		c4.6,4.6,9.4,9.1,14.3,13.3c3.5,3.1,7.6,3.6,11.9,1.1c1.9-1.1,3.9-1.9,5,0.8c0.8,2-0.8,3.2-2.3,4.1C429.7,53,426.1,54,422.5,54.1z"
		/>
	<path d="M658.1,25c-0.2,4-0.3,8-0.7,12c-0.7,6.8-3,8.2-8.6,4.6c-7-4.5-15.1-6.7-21.8-11.7c-3.8-2.9-5.7-0.6-5.1,3.5
		c0.6,3.7,0.4,7.5-0.5,11.2c-0.8,2.9-2.7,4.3-5.5,4c-2.7-0.3-3.8-2.3-3.8-4.8c0-7.8-0.2-15.5,0.2-23.3c0.3-5.6,4.5-7.1,8.8-3.1
		c7,6.7,15.8,10.5,23.8,15.6c5.2,3.3,6.6,0.8,6.7-4.2c0.2-6.3,0.6-12.5,1-18.7c0.1-1.5,0.2-3.3,2.1-3.5c2.4-0.3,2.8,1.6,2.9,3.4
		c0.3,5,0.5,10,0.8,15L658.1,25z"/>
	<path d="M91.4,30.6c-0.3-6.1-0.8-12-4-17.4c-1.2-2-1.9-4.2,0.5-6c1.9-1.4,3.8-1.4,5.3,0.4c2.5,3.1,4.1,1.5,5.7-0.8
		c0.4-0.6,0.8-1.3,1.3-1.8c4.3-4.9,10.6-6.4,13.8-3.2s1.8,10.9-2.7,14.8c-1,0.8-2,1.5-3.1,2.1c-4,2.6-3.8,5,0.4,7
		c4.1,1.9,8.2,3.7,12.4,5.3c1.9,0.8,5.2,0.1,4.2,3.7c-1,3.2-3.6,2.9-6.2,1.9c-5.2-1.8-10.4-3.6-15.6-5.4c-1.9-0.7-3.9-1.8-4.6,1.3
		c-0.7,2.6,0.6,7.1-4.2,6.3C90,37.9,91.9,33.5,91.4,30.6z"/>
	<path d="M4.5,35.5c-1.3-8.4,0-16.8-3.8-24.6c-1.4-3-0.7-6,1.6-8.3C4.9,0,6.9,2.3,8.9,3.6c3.6,2.4,7.2,0.9,10.8-0.1
		c3.6-1.1,7.2-2,10.9-2.8c2.9-0.5,5.6-0.2,5.6,3.9c0,3.8-2.4,5.1-5.4,4.6c-6-1-11.4,0.8-16.9,2.7c-1.8,0.6-4.4,1-3.7,3.8
		s2.9,3.2,5.3,2.8c5.4-1,10.8-2.2,16.2-3.2c1.6-0.3,3.7-1.6,4.5,0.9c0.8,2.6-1.4,3.5-3.3,4.1C27.3,22,21.6,24,15.7,24.9
		c-4.9,0.8-6,3-4.6,7.1c1.5,4.7,0.9,9.5,0.6,14.2c-0.2,2.6-0.2,6.1-4.2,5.8c-3.7-0.3-3.8-3.3-3.5-6.3C4.2,42.3,4.3,38.8,4.5,35.5z"
		/>
	<path d="M236.9,15.2c-0.3-2.4-0.3-4.7,2.9-5c2.7-0.3,3.5,1.5,3.6,3.7c0.1,4,1.6,6.4,6,5.5c5.1-1,11.7,0.7,13.5-6.7
		c0.6-2.6-0.2-6,3.9-6s3.8,3.6,4.2,6.1c1.4,8.4,2.5,16.8,3.6,25.3c0.3,2.2,0.9,4.8-2.5,5.1c-2.8,0.3-5.3-0.7-5.8-3.6
		c-0.6-3.7-0.9-7.4-0.9-11.2c0-4.6-2.2-5.4-6.3-4.8c-9.1,1.4-12.3,4.7-12,13.6c0.1,2.3-0.2,4.1-2.8,4.4s-3.6-1.4-4.2-3.5
		C237.8,30.6,237.5,22.9,236.9,15.2z"/>
	<path d="M218.6,28.9c-0.1-17.9-0.1-17.9-17.1-15.1c-2.2,0.4-4.5,0.7-6.7,0.8c-2.7,0.1-5-0.5-5.1-4s2.2-4.5,4.9-4.4
		c11.3,0.5,22.6-1.1,33.3-4.6c2.4-0.8,4.6-0.2,5.2,2.7c0.6,2.7-0.8,4.5-3.5,4.7c-5.4,0.5-5.7,3.7-4.9,7.9c1.6,8.7,1.1,17.5-0.1,26.2
		c-0.4,3-0.4,6.7-4.6,6.3c-4.8-0.5-3.3-4.3-2.6-7C218.7,37.9,218.6,33.4,218.6,28.9z"/>
	<path d="M571.6,51.9c-5.9-0.3-10.4-1.2-12.5-6.6c-2.7-7-1.5-13.5,3.4-18.9c3.6-3.8,7.6-7.2,11.9-10.2c3.6-2.6,12,1.1,15,6.6
		c3.4,6,4.4,12.2,0.8,18.5C585.8,48.9,578.5,51,571.6,51.9z M587.3,34.8c0.2-5.3-5-12.3-9-12.3c-4.7,0.1-13.2,10-13.3,15.7
		c-0.1,5.2,2.8,7.8,7.8,8C579.5,46.5,587.1,40.5,587.3,34.8z"/>
	<path d="M475.4,8.7c1.4,0.2,3.3-0.7,3.8,1.4c0.5,2.3-1.2,3.1-3,3.4c-6.4,1.3-12.8,2.4-19.1,3.8c-1.7,0.4-4.8-0.3-4.3,2.8
		s3.4,2.2,5.6,1.9c2.5-0.3,5.8-3.9,7.1-0.3c1.4,4.1-3.6,3.8-6,4.8c-9.5,3.9-11.2,12.1-3.5,18.6c1.8,1.5,5.5,2.1,2.5,5.2
		c-2.8,2.9-6.6,3-9.1-0.4c-2.4-3.5-3.9-7.6-4.4-11.8c-0.6-5-0.4-10.2-1.9-14.9c-2.6-8.5,1.6-10.4,8.6-11.1
		C459.6,11.3,467.5,9.9,475.4,8.7z"/>
	<path d="M79.4,24.5c0.4,7.6-4.7,11.7-10.4,15.1c-4,2.5-9.1,2-12.6-1.1c-4.8-3.9-5.4-9.1-4.3-15c0.8-3.9,2.3-7.7,4.6-11
		c2.7-4,5.4-8,11.3-6.8s9.1,5,10.4,10.5C78.8,18.9,79.2,21.7,79.4,24.5z M74,23.5c0.1-4.7-0.7-8.8-4.2-9.9c-4.3-1.4-6.6,2.8-8.6,5.8
		c-2.9,4.4-3.7,9.4-0.7,14.2c1.3,2.1,3.5,1.7,5.4,0.7C70.8,31.8,74.1,28.3,74,23.5L74,23.5z"/>
	<path d="M321.5,49.1c-3.5-0.6-7.8-1.3-11.3-3.8c-1.7-1.2-3.1-2.8-1.6-5c1.2-1.8,2.9-1.6,4.6-0.7c0.8,0.5,1.7,1,2.6,1.4
		c2.6,0.8,5.8,4.1,8,0.8c2-3-2.4-3.6-3.9-5.3c-6.6-7.1-6.1-20.9,1.2-27.3c2.3-2,4.9-3.1,7.4-1.2c2.9,2.2,1.5,4.6-0.4,7.1
		c-8.8,11.5-7.6,16.7,5.5,24c2.5,1.4,5.1,2.5,4.4,6.1s-3.6,2.6-6,2.8C328.6,48.3,325.4,48.7,321.5,49.1z"/>
	<path d="M291.5,42c-0.1-9.6-2.3-17.8-4.5-26c-0.6-2.4-2.4-5.9,1.6-6.9s5.1,1.9,5.7,5.2c2,9.8,5,19.4,4.4,29.5c-0.2,3,1,7.4-4.1,7
		c-4.7-0.4-3.7-4.4-3.3-7.6C291.5,42.4,291.5,41.7,291.5,42z"/>
</g>
<g>
	<path d="M206,273.1c4.5,0.2,8.2,0.3,10.1,4c2.1,4.1,0,7.5-2.7,10.2c-4.3,4.4-7.8,7.9,2.3,8.7c4.3,0.3,5.1,4.5,5.5,8
		c1.1,9.1-11.2,18.1-19.5,14.2c-3.7-1.8-6.9-3.6-11.3-2.3c-4.3,1.3-5.4-1.6-4.6-5.2c1.9-8.6,0.9-17-1.4-25.3
		c-1.1-4.1-0.1-6.7,4.3-7.9C194.8,275.8,200.7,273.6,206,273.1z M209,282.9c0.3-2.6-0.8-3.5-2.4-3.7c-4.4-0.6-7.6,1.8-10.5,4.7
		s-4.7,5.9-3.7,10c0.5,2,1.6,3,3.8,2.6S208.8,284.3,209,282.9L209,282.9z M207.8,301.8c-3.4,0.5-8.2-0.4-8.5,4.9
		c-0.2,3.6,2.5,5.9,6.2,6.1c5.1,0.3,7-3.3,7.5-7.5C213.4,301.6,210.3,301.9,207.8,301.8L207.8,301.8z"/>
	<path d="M54.5,392.8c0.8-7.3-1.3-13.8,9.9-12.1c5.6,0.8,12.7-3.5,19.6-3c7.6,0.5,10.2,3.5,9.3,11.2c-1,8-9.1,16.5-18.6,18.6
		c-9.1,2-11.6,0.9-10.1,14c0.1,1,0.2,2,0.1,3c-0.1,1.7,0.5,3.8-2.1,4.1c-2.5,0.3-3.7-1.3-4-3.5C57.1,413.8,55.7,402.6,54.5,392.8z
		 M77.4,383.4c-4.8,0.1-9.4,2.4-12.5,6.1c-2.9,3.4-3.1,8.2-0.6,11.9c2.6,4,6.3,1.1,9.4,0c3.3-1.2,6.2-3.3,8.5-6
		c1.9-2.2,4.7-4.5,3.5-7.7C84.2,384.1,80.5,384,77.4,383.4z"/>
	<path d="M659.7,296.7c-1.3,6.9-1.2,13.3,1.8,19.5c1.2,2.4,1,5.1-2.5,5.8c-2.9,0.6-5.1-0.5-5.5-3.6c-0.6-4.2-0.8-8.5-0.7-12.7
		c0.2-6.1-2.7-7.5-8-6.1c-5.1,1.3-10.2,2.7-15.4,3.5c-4.7,0.8-5.7,3.4-4.7,7.5c0.5,2,0.8,3.9,1,5.9c0.2,2.3-0.5,4-3.1,4.1
		c-2.4,0.1-3.6-1.1-4.2-3.4c-2.7-10.7-1.8-21.9-5.5-32.4c-1.1-3.1,1.3-5.2,4.5-5.6c3.5-0.4,4.8,1.6,5.1,4.9
		c1.6,13.5,2,13.8,15.4,11.1c1.9-0.5,3.9-0.8,5.9-0.9c4.7,0,7.5-1.1,5.2-6.5c-1.2-2.8-0.4-5,2.8-5.6c2.9-0.5,4.8,0.8,5.4,3.8
		C658.2,289.7,659,293.4,659.7,296.7z"/>
	<path d="M835.2,315.8c0.1,1.6-0.7,3.1-2.1,3.9c-1.5,1-3.6,0.9-4.9-0.3c-1.9-2-3.6-4.1-5-6.4c-2-3-2.7-7.5-7.9-6.4
		c-5.4,1.2-11,2.3-12.5,9c-0.3,1.5-0.6,3-1,4.4c-1.1,3.1-2.8,5.6-6.6,4.1s-3.7-4.1-2-7.3c3.8-6.9,4.7-14.7,7.3-22
		c0.8-2.6,2.2-5,4.1-6.9c7-6.3,9.8-6,13.8,2.5c2.4,5.1,5.2,7.8,11,5.1c2.3-1.1,4.8-1,5.6,1.7c0.7,2.4-2,2.3-3.6,2.7
		c-2.1,0.5-4.8,0.1-5.1,3.3s1.2,5.3,3.7,6.9C832.2,311.6,835,312.6,835.2,315.8z"/>
	<path d="M786.8,297.3c0.1,8.2-2.4,16.3-1.6,24.6c0.2,2.6-0.9,4.4-3.9,4.3s-3.7-2.3-3.5-4.7c0.3-5.8,0.9-11.5,1.3-17.3
		c0.3-4.9-0.7-8.2-6.8-5.5c-2,0.9-4.4,1-6.6,1.5c-4.2,0.9-6.1,3.4-4.7,7.6s0.7,8.4,0.2,12.6c-0.3,2.1-0.7,4.1-3.4,4.1
		c-1.8,0.1-3.4-1.3-3.5-3.1c0,0,0-0.1,0-0.1c0.5-10.9-3.6-21.3-3.3-32.1c0.1-2.5,1.9-3.4,4-3.6c1.7-0.4,3.5,0.7,3.8,2.4
		c0,0.1,0,0.1,0,0.2c0.7,2.8,0.3,6.8,4.6,6.6c4.9-0.3,10.1-0.5,14.1-4.1c2-1.8,1.6-6.7,6-5c4.3,1.7,3,5.8,3.2,9.2
		C786.9,295.8,786.8,296.5,786.8,297.3z"/>
	<path d="M484.9,402.5c0.2-14.1,1-14.8,12.6-15.1c6.5-0.1,12.9-1.5,19.4-2.4c2.8-0.4,5.3,0,5.2,3.5s-2.6,3.7-5.4,3.2
		c-6.9-1.3-13.3,2.1-20,2.8c-2.4,0.3-4.3,1.9-3.9,4.6c0.4,3.1,3,3,5.2,3c4.3-0.1,8.5-0.5,12.8-0.7c1.6-0.1,3.2,0.1,3.5,2
		s-1.2,2.6-2.8,2.9c-3.9,0.8-7.9,1.5-11.8,2.2c-2.2,0.4-4.8,0.4-5.1,3.4c-0.4,3.3,0.8,6.6,3.1,9c2.5,2.5,4-0.1,5.6-1.4
		c1.4-1.2,2.9-2.4,4.5-0.6s0,3.3-1,4.7c-2.3,3.3-5.2,5.4-9.4,5.2c-4.4-0.2-6.7-3-8.2-6.6C486.5,416,485.1,409.3,484.9,402.5z"/>
	<path d="M678.5,325.2c-6.2-0.8-8.9-4.9-9.2-10.8c-0.2-3.7-2.2-7.3-2.5-10c-0.7-6,0.3-15.1,4.3-18.2c8.6-6.7,20.1-8.6,31.2-9.7
		c2-0.2,4.4-0.1,4.5,2.6c0.1,2.5-2.4,2.2-4,2.4c-7.6,0.8-14.3,4.6-21.4,7c-2.8,1-5.3,2.7-4.3,6c1.1,3.5,4.2,1.5,6.4,1.4
		c3.3-0.1,8.3-4.1,9.3-0.6c1.1,4.1-5.2,4-8.3,4.9c-5.5,1.5-9.1,3.8-9.2,10.1c0,3.2,0.1,5.9,3.5,7.6s5.6-0.4,8.1-2.2s4.5-8.3,7.4-5
		c3.3,3.6-2.8,6.4-5.3,9.2C686.4,322.7,683,325,678.5,325.2z"/>
	<path d="M488.6,308c-5.2,0-10-0.2-13.3-4.5c-1.5-2-1.7-4.3,0.3-6.1s3.1-0.2,4.3,1.1c2.1,2.3,4.9,2.6,7.6,2.4
		c3.6-0.3,8.8,0.6,9.7-3.8c0.7-3.8-4.6-3.7-7.3-5c-5.4-2.7-11.5-4.9-11.8-12.2s5.4-10.8,10.7-14.3c2.4-1.5,5.3-1.8,8-1
		c1.9,0.5,4,1,4.2,3.6c0.2,2.8-1.6,4.3-4,4.6c-3.8,0.5-7.1,1.5-7.7,5.8c-0.6,4.7,2.7,7.4,6.2,9.4c2.6,1.5,5.5,2.4,8.2,3.6
		c5.8,2.6,6.3,5.7,1.4,9.9S495,308.5,488.6,308z"/>
	<path d="M390.9,409.8c-1.2,3.6,1.5,7.4-2.6,8.2c-3.5,0.6-3.3-3-4-5.2c-1.1-3-2.6-5.5-6.3-5.2c-5.9,0.5-12.4-0.7-16,5.7
		c-0.9,1.5-1.2,3.3-2,4.8c-1,1.9-2.8,2.1-4.5,1.5c-1.6-0.4-2.6-2-2.2-3.6c0-0.2,0.1-0.4,0.2-0.6c1.7-4.7,3.5-9.4,5.5-13.9
		c2.4-5.2,5.3-10.2,6-16.1c0.5-4.3,4.1-5.3,6.5-3.1C379.9,390.2,388.9,398.2,390.9,409.8z M372.2,394.6c-2.3,0.1-4.2,1.9-4.3,4.3
		c-0.4,2.8,1.6,3.5,3.7,3.5s5,0.1,5-3.1C376.5,396.8,374.5,395.4,372.2,394.6L372.2,394.6z"/>
	<path d="M591.1,433.3c-6.3-0.4-11.5-1.3-15.2-5.7c-1.1-1.3-2.4-2.9-1.2-4.7c1.4-2.2,3.2-0.6,4.6,0c2.7,1.3,5.3,2.9,8,4
		c1.7,0.7,3.6,0.8,4.6-1.1c1.2-2.1-0.6-3.2-2-4.2c-4.5-3.2-9.5-5.8-13.3-9.6c-4.5-4.5-9.3-9.7-5.6-17.1c2.6-5.2,12.4-9.3,19-8.4
		c1.8,0.3,3.7,0.5,4,2.6s-1.6,2.8-3.3,3.3c-4.6,1.4-10.8,0.8-12,7.1c-1.2,6.5,5,8.6,8.7,11.9c4.3,3.9,8.6,7.7,13.8,10.3
		c1.8,0.9,3.6,2,3.2,4.5c-0.2,2.3-1.8,4.3-4,5C597.1,432.3,593.6,432.8,591.1,433.3z"/>
	<path d="M63.8,308.8c0.6,2.7,1.3,5.3,1.8,8c0.4,2.1,0,4.1-2.5,4.7c-1.7,0.6-3.5-0.3-4.2-2c-0.1-0.3-0.2-0.7-0.2-1
		c-0.8-5.7-2.9-10.6-5.1-15.8c-1.6-3.8,0.6-11.6,2.4-17.3c0.4-1.1,2.1-1.5,3.3-1.1c1.6,0.5,2.2,1.9,2.4,3.5c0.3,2.9-0.7,7.1,2.8,7.8
		c3.8,0.8,8-0.1,11.8-0.8c3.5-0.7,3.5-3.8,3.2-6.7c-0.3-2.6,0.4-4.5,3.4-4.8c3.3-0.3,4.1,1.6,4.5,4.5c1.1,8.2,1.5,16.5,4.1,24.5
		c0.5,1.6,0.8,3.7-1.5,4.4c-1.9,0.6-3.4-0.4-4.5-1.9c-2.5-3.1-3.1-6.8-3.1-10.6c-0.1-5.8-3.1-7.1-7.8-4.6
		C70.4,301.9,64.4,302.2,63.8,308.8z"/>
	<path d="M102.2,296.4c0.3-13.4,11.6-21.7,25.1-18.5c2.3,0.5,3.6,1.7,3.4,4.1c-0.2,2.2-1.8,3.1-3.7,3c-4.3-0.2-8.5,0.5-12.5,2.2
		c-1.8,0.7-4.4,1.4-4,3.8s3,2.2,5,2c3.7-0.4,7.5-1,11.2-1.3c1.9-0.2,4.6-1.1,5,1.6c0.4,2.4-2.3,3-4.2,3.5c-3.9,1.1-7.8,1.9-11.7,2.7
		c-3.5,0.8-7.7,1.5-5.7,6.5c1.1,3-0.6,10.1,7.2,6.4c3-1.4,3.5,1.1,2.7,3.3c-0.9,2.7-3.3,4.7-6.1,5c-3.1,0.6-6.2-1-7.4-3.9
		C103.6,310.4,102.1,303.4,102.2,296.4z"/>
	<path d="M542.1,384.7c2.4,0.2,4.7-0.1,5.4,2.5c0.8,2.9-1.1,4.3-3.4,4.9c-4.2,1.2-8.8,2.2-8.8,7.6s3.8,8.5,8.1,10.9
		c3.7,2,7.6,3.8,11.4,5.7c2.6,1.3,4.7,2.9,4.5,6.2c-0.2,3.9-3.1,5.1-6.1,5.5c-8.5,1.4-17.4,4.2-24.6-3.8c-1.4-1.5-3.5-2.9-1.9-5
		c1.7-2.3,3.5-0.6,5.2,0.6c3.5,2.6,7.2,4.7,11.8,4.2c1.8-0.2,4.1-0.3,4.5-2c0.6-2.4-2-2.5-3.5-3.1c-4.3-1.6-8.5-3.4-11.6-6.8
		c-4.4-4.9-7.3-10.3-4.2-17.1C531.7,389.2,535.8,385.3,542.1,384.7z"/>
	<path d="M24.5,326.2c-5.1-0.3-9.5-2.5-13.5-5.6c-2.5-1.9-2.5-4.8-2-7.6c0.2-1.3,1.2-2.3,2.5-2.4c3.3-0.3,3,2.8,4.1,4.5
		c3.1,4.6,10.4,6.6,13.7,3.5c4.9-4.4,2.5-8.5-1.2-12.2c-3.9-3.6-7.2-7.7-9.9-12.2c-4.8-8.5-2.8-20.1,4.3-25.2c2.4-1.7,5-3.1,7.3-0.4
		c2.6,3.1-0.7,4.2-2.4,5.7c-6.2,5.5-6.7,12.4-1.2,20c2.9,4.1,6.5,7.6,9.3,11.7s4.6,8.5,1.9,13.4S29.8,325.8,24.5,326.2z"/>
	<path d="M347,281c-2-6.8,1.9-9.3,9.1-9.7c6-0.4,11.9-1.5,17.9-2.2c1.7-0.2,3.9-0.7,4.2,1.8s-1.7,3.6-3.8,3.6
		c-4.9,0-9.3,2.1-13.8,3.2c-2.3,0.6-4.9,1.4-4.5,4.1c0.7,3.5,3.9,2,6.3,2.1c0.5-0.1,1-0.2,1.5-0.3c2.9-0.6,7-3.9,8.1,0.8
		c1,4-4.2,4-6.9,5.4c-1.5,0.8-3.3,1.1-5,1.8c-2.7,1.1-5.2,2.5-4.5,6c0.7,3.2,1.6,6.6,5.9,6.6c2.5,0,4.8,0,4.1,3.5
		c-0.6,2.9-2.7,4-5.6,3.7c-4.8-0.5-7.7-3.1-9.1-7.7C348.5,296.2,347.2,288.6,347,281z"/>
	<path d="M217.2,419.2c-3.3-0.6-4.1-2.8-3.2-5.6c2.5-8.1,5-16.3,8-24.3c1.6-4.4,6.4-4.4,10.4,0c3.1,3.4,5,8.3,11.3,6.1
		c2-0.7,2.5,2,1.4,2.9c-5.9,4.7-1.2,8.4,0.9,12.3c1.4,2.6,4.1,5.3-0.1,7.5c-3.7,1.9-5.4-1.1-7-3.8c-7.6-12.7-8.4-12.7-16.2,0.2
		C220.5,418,219,419.3,217.2,419.2z"/>
	<path d="M148.3,407.2c-0.2-16,10-23.7,20.7-17.8c2.7,1.5,3.6,3.3,2.8,6.1c-0.9,3.2-3.3,3.5-6,2.8c-3.4-1-7.1-4.1-9.4,1.5
		c-1.9,4.6-1.7,8.9,2.4,12.3c3.9,3.2,8.3,4.9,13.1,1.7c4.4-3,7.3-7.8,7.9-13.1c0.3-2.2,0.7-5.2,3.6-4.9c3.4,0.4,1.8,3.6,1.7,5.5
		c-0.8,15.8-15.7,25.4-28.1,18.4C151.3,416.4,148.2,411.6,148.3,407.2z"/>
	<path d="M455.1,265.6c2.2,0.1,4.6-0.5,4.6,2.6c0,2.4-1.9,2.6-3.8,2.6c-4.1,0-7.8,1.5-11.7,2.6c-1.5,0.4-3,1-2.7,3
		c0.3,2.2,2.1,2.8,3.9,2.6c2.5-0.2,4.9-0.8,7.4-1c1.3-0.1,3.2-0.7,3.5,1.5c0.3,1.8-1,2.8-2.5,3.2c-2.4,0.8-4.8,1.3-7.3,1.6
		c-6.1,0.2-7.5,3.6-6.7,9c1,7.1,4.2,8.7,10,4.9c1.5-1,2.7-2.3,4.1-3.3s2.8-1.3,4,0.2c1,1.1,0.9,2.8-0.3,3.8
		c-0.1,0.1-0.1,0.1-0.2,0.2c-5.1,3.5-9.7,8.8-16.6,7.2c-6.3-1.5-6.8-7.4-7.4-12.6c-0.7-6.2-1.2-12.5-1.5-18.7
		c-0.2-5,1.9-8.1,7.6-7.6C444.9,267.6,450.1,267.1,455.1,265.6z"/>
	<path d="M103.7,398c0-1-0.1-2,0-3c0.3-4-0.6-8.6,1.2-11.7c2.7-4.6,6.4,1.5,10,0.8c4.6-0.9,9.4-1.5,14.1-2.1
		c1.6-0.2,3.8-0.9,4.5,1.4c0.8,2.8-1.5,3.5-3.4,3.9c-4.6,1.1-9.3,1.8-13.9,2.9c-2,0.5-5.4,0.4-4.9,3.5c0.6,3.7,4,2,6.2,1.8
		s4.3-1.2,6.5-1.6s4.9-1.7,5.5,1.8c0.6,3.1-2.3,3.5-4.3,4.1c-3.4,0.9-6.8,1.6-10.2,2.3c-2.8,0.6-4.8,2-4.2,5.1s-1.2,7.3,3.6,8.9
		c1.6,0.5,4.7-1,4.4,2.4c-0.3,2.3-1.8,4.3-4,5.1c-2.4,1.2-5.2,0.4-6.7-1.8c-3.3-4.4-4.2-9.5-4.3-14.9C103.7,404,103.7,401,103.7,398
		z"/>
	<path d="M23.5,413.6c-7.3-0.5-14.3-3-20.3-7.1c-2.7-1.9-4.6-4.2-2-7.5c3.1-3.9,5-1,7.1,1.4c1.2,1.3,2.5,2.5,4,3.5
		c1.4,1,3.1,2.1,4.8,0.9s0.9-3.1,0.4-4.8c-0.9-3.1-2.2-6.2-2.5-9.4c-1-10.5,8.1-20.2,17.5-19.1c3,0.4,5.5,1.5,5.5,4.9
		c0,4-3,2.9-5.4,2.9c-9.9,0.1-14,10.1-8.4,20.7c1.2,1.9,2.6,3.7,4.3,5.2c1.9,1.8,3.8,3.6,2.6,6.4C29.7,414.6,26.8,413.6,23.5,413.6z
		"/>
	<path d="M248.5,280.7c3.7,0,6.2,0,8.7,0c2.2,0,4.1,0.5,3.9,3.3s-2.2,2.9-4.4,2.9c-3.2-0.1-6.5,0.1-9.7,0.6c-2.5,0.5-4.8,2-4.5,5.1
		c0.4,3.6,3.4,3,5.8,3c0.8,0,1.5-0.2,2.2-0.4c2.4-0.5,5.6-1.9,6.4,1.4s-2.7,3.4-5.1,4c-2.4,0.7-4.8,1.5-7.1,2.4
		c-2.3,0.9-2.8,2.7-2.5,4.9c0.3,1.9,1.4,3,3.3,3.6c2.2,0.7,6.2-2.3,6.4,2.6c0.1,2.4-2,3.9-4.1,5c-3,1.8-6.9,0.8-8.7-2.2
		c-4.5-6.5-7.5-13.7-5.3-21.9c0.2-0.7,0.6-1.4,0.8-2.1C237.5,281,237.5,281,248.5,280.7z"/>
	<path d="M583.4,312.8c-7.4,0.6-12.3-3.4-16.2-9c-1.4-2-1.7-4.5,0.4-6.1c2.5-1.9,4.1,0,5.4,2c1.9,3,4.8,5.2,8.2,6.4
		c1.9,0.6,4.1,1.5,5.4-0.7c1.5-2.5-0.9-3.5-2.5-4.6c-7.6-5.2-10.8-12.4-9.7-21.4c0.7-6.1,4.3-9.4,10.6-9.3c2.2,0,3.9,0.8,4.4,3.2
		c0.4,2.2-1,3.1-2.6,4c-7,4.3-7.8,7.7-2.7,14c2.2,2.7,5,5,7.5,7.4s5.7,4.6,4,8.8s-5.4,4.9-9.3,5.1
		C585.4,312.8,584.4,312.8,583.4,312.8z"/>
	<path d="M288.8,279.4c-1.6,7.6-1.5,14.6-1.2,21.6s2.2,8,8.5,5.5c5.4-2.1,10.6-4.6,13.7-9.9c1.2-2,2.2-4.3,5.1-2.4
		c3.1,1.9,2.8,4.7,1,7.1c-2.9,3.9-7.1,6.3-11.4,8.5c-3.8,2-7.6,4.1-11.6,5.1c-5.7,1.4-10.3-1-11-7.1c-1.4-9.4-1.9-19-1.5-28.5
		c0.1-2.6,0.5-5.2,4-5.1C288,274.5,288.5,277.2,288.8,279.4z"/>
	<path d="M396.2,272.3c1.8-0.1,3.5,1,4.3,2.7c0.9,1.8,1.2,3.9,2.3,5.5c2.2,3.1,1.2,9.6,5.8,9.3c4.1-0.3,3.5-6.5,5-10
		c1.3-3.2,1.6-6.8,2.1-10.2c0.4-2.7,1.6-4.3,4.4-3.7s3.7,2.5,2.8,5.1c-3.3,9.5-6.7,18.9-10,28.3c-0.9,2.6-3,3.3-5.3,3.3
		s-3.6-1.3-4.2-3.5c-2-7.1-6-13.2-10.3-19.1C390.2,275.8,392.2,273.6,396.2,272.3z"/>
	<path d="M856.9,324.4c-5.4-0.1-9.5-2.3-13.5-5.1c-1.2-0.9-2.7-2-1.5-3.6s2.8-0.4,4,0.3c3.5,2,7.8,7,10.9,2.5
		c2.3-3.4-4.1-5.8-6.6-8.4c-4.5-4.6-9-9-6.9-16.3c1.7-5.8,6-9,11.7-10.6c3.5-1,6.4-0.1,7.1,3.4c0.9,4.5-2.9,2.6-5,2.9
		c-6.1,1-9,7.9-5.2,13.4c2.6,3.6,6.2,6.5,9.3,9.8c2.5,2.6,7.4,4.1,5.4,8.8C864.8,325.9,859.8,323,856.9,324.4z"/>
	<path d="M261.4,407.7c0.7-5.8,1.5-12.2,2.3-18.7c0.4-3.4,2.1-6,5.9-5s2.8,4,2.3,6.8c-1,4.6-1.8,9.3-2.5,14
		c-0.9,5.5,0.6,8.4,6.9,6.3c4-1.3,8.2-2.2,12.3-3.2c1.8-0.4,3.6-0.4,4.2,1.9c0.5,2-0.1,3.6-2,4.2c-7.3,2.5-14.7,5.1-22.4,5.6
		C263.5,420,261.1,415.6,261.4,407.7z"/>
	<path d="M402.7,411.1c-0.2-11.1,5.5-20.8,13.1-22c2.8-0.4,6.5-1.8,7.7,2.1c1.4,4.4-2.5,4.7-5.3,5.5c-8.1,2.1-7.8,8.9-8.4,15
		c-0.5,5.8,2,9.5,7.7,11.3c1.9,0.6,5.2,0.4,4.4,3.9s-3.8,2.5-6.2,2.1C407.9,427.7,402.8,420.6,402.7,411.1z"/>
	<path d="M459.7,426.9c3.8-1,5.9-1.4,6.4,0.8s-1.4,3.4-3.4,4.2c-5.3,2-12.9-1-16.9-6.9c-6.2-8.9-4.9-23.7,2.7-29.5
		c2.5-1.9,5.6-3.5,8-0.6s0,5-2.4,6.8c-6.3,4.9-5.8,11.1-3.2,17.6C452.9,424,455.9,427.4,459.7,426.9z"/>
	<path d="M197.4,405c0.2-4.8,0.4-9.5,0.7-14.3c0.1-2.4,0.8-4.5,3.9-4.4s3.5,2.5,3.5,4.8c-0.2,9.3-0.5,18.6-0.7,27.8
		c-0.1,2.7-1.4,4.3-4.2,4.1s-4-2-3.9-4.6c0.2-4.5,0.6-9,1-13.5L197.4,405z"/>
	<path d="M322.9,278.7c0-2,0.7-4.8,4.3-4.9c3.3-0.1,3.8,2.9,4,5.3c0.5,8.6-0.7,17.5,2.6,25.9c0.8,2.1-0.3,4-2.6,4.5
		c-3.2,0.8-4.8-1.1-5.1-3.9C324.9,297,324,288.3,322.9,278.7z"/>
</g>
<g>
	<path d="M186.2,688.4c0.2,3.8,0.5,7.5,0.5,11.3c0,6.9-3.9,9.5-10.3,6.9c-4.5-1.8-7.9-5.4-11.1-8.9c-3.9-4.3-6.9-4.3-9.6,1.2
		c-2,3.9-1.8,10.6-8.7,9.3c-6-1.1-4.4-7-5.6-11.1c-1.4-4.5-3.3-8.9-4.9-13.4c-0.8-2.2-1.6-4.6,1.5-5.6c3-0.9,4.7,0.6,5.5,3.6
		c0.9,3.4,1.8,6.8,2.9,10.1c0.4,1.2,0.9,2.5,2.4,2.5s2-1.4,2.4-2.5c0.4-1.2,0.7-2.4,1-3.6c2.4-7.4,6.4-8.3,11.9-2.6
		c3.1,3.3,6.2,6.6,9.3,9.9c1.4,1.5,2.9,3.1,5.2,2.1c2.8-1.2,2.1-3.7,1.8-5.9c-0.8-5.5-1.9-10.9-2.6-16.3c-0.4-2.9-0.1-6.1,3.6-6.2
		c3.1-0.1,3.7,2.8,3.8,5.5c0.2,4.5,0.5,9,0.8,13.5L186.2,688.4z"/>
	<path d="M238.4,676.9c0,8.8,0,17.5,0,26.3c0,3-0.4,5.6-4.5,5.3s-5-2.8-4.5-6.2c0.7-4.5,1.6-8.9,2.3-13.3c0.7-4.9-1.4-7.2-6.5-6.2
		c-2.5,0.5-4.9,1.2-7.3,1.6c-5.9,0.9-8.5,3.8-6.3,9.9c0.4,1.4,0.7,2.9,0.7,4.4c0.2,2.9,0,6-3.7,6.2s-3.8-2.7-4.1-5.7
		c-0.7-5.7-2-11.3-3.1-17c-0.7-2.7-0.7-5.5-0.1-8.2c0.5-2.1,1.4-3.8,3.8-3.9c2.1-0.1,4.7,0.3,5,2.4c0.9,6.3,5.4,5.6,9.6,5.7
		c4.4,0.1,8.6-0.4,11.1-4.7c1.2-2.1,2.9-3.6,5.6-2.5C239.1,671.9,239.9,674.1,238.4,676.9z"/>
	<path d="M9.4,671.8c11.9-1,24.1-1,35-7.2c1.8-1,4.1-3.4,5.5,0c1.1,2.3,0.1,5.1-2.2,6.3c-0.1,0-0.1,0.1-0.2,0.1
		c-0.2,0.1-0.4,0.3-0.7,0.4c-13,0.7-11.3,9.8-10.6,18.4c0.5,5.7,0.8,11.5,2.5,17.1c0.8,2.6,1.9,5.4-0.8,7.6
		c-1.1,1.1-2.8,1.4-4.2,0.7c-3-1.7-2.4-4.7-2.5-7.4c-0.5-7.8-1-15.5-1.4-23.3c-0.3-5.8-2.8-8.3-8.8-6.4c-4.5,1.6-9.3,2.2-14.1,1.7
		c-3.2-0.4-7.3-0.2-6.9-4.9c0.4-4.3,4.2-3.3,7.2-3C7.9,671.8,8.7,671.8,9.4,671.8z"/>
	<path d="M276.1,685.4c-0.7,3.6,1.8,5.5,2.7,8c0.8,2.2,1.3,4.5-0.7,6.3c-2.4,2.2-4.1,0-5.9-1.3c-1.2-0.9-2.3-1.9-3.4-3
		c-1.8-1.8-1.6-6.3-5.3-5.3c-4.3,1.2-8.3,3.6-10.2,8.1c-1.1,2.7-1,6.5-5.6,4.8c-3.8-1.5-3.1-4.7-2.1-7.7c2.4-7.3,4.8-14.8,7.6-21.9
		c2.4-6,6.6-6.5,10.7-1.4c3.2,4,4.7,9.4,11.4,9.7C278.2,681.9,276.5,684.4,276.1,685.4z"/>
	<path d="M323.2,670.6c-1.3,9.8-1.4,18,0.6,26.1c0.6,2.3,0.1,4.8-2.9,5.2c-2.8,0.4-4-1.7-4.6-4c-1.4-5.4-1.6-10.9-1.7-16.4
		c-0.1-5.9-2.7-7.5-8.2-5.8c-3.8,1.1-7.8,2-11.7,2.6c-2.5,0.4-4.5-0.7-4.9-3.5s1.3-4,3.9-4.5c8.3-1.7,17-0.5,25.3-3
		C322.4,666.4,323.3,669.3,323.2,670.6z"/>
	<path d="M66.6,707.5c-13.1-0.7-20.8-15.4-14.1-26.7c1.2-2,2.7-3.3,4.8-2c2.6,1.6,1,3.8,0.2,5.9c-2.5,7-0.3,13.8,5.6,16.9
		c5.6,2.9,10.7,1.4,15.1-2.7c3.7-3.4,4.1-7.3,1.6-11.5c-2.5-4-5.3-7.5-10.9-5.5c-1.8,0.7-4.2,2.1-5.1-0.5c-0.8-2.7,2.2-2.8,3.9-3.6
		c5-2.4,9-0.8,12.8,2.9c4.7,4.7,5.4,10,3.3,15.9C81.5,703.3,74,707.8,66.6,707.5z"/>
	<path d="M364.6,658.8c8.5,0.2,11.7,4.8,9,11.7c-2.6,6.6-7.9,11.5-12.4,16.8c-1.3,1.6-3,1.7-4.5,0c-1.5-1.5-1.5-3.9-0.1-5.5
		c2.7-3.3,5.7-6.3,8.5-9.5c1.3-1.5,3-3.1,1.5-5.2c-1.7-2.4-4-1.4-6.1-0.5c-0.5,0.2-0.8,0.7-1.3,0.8c-3,0.7-6.3,6-8.8,0.9
		c-2.7-5.7,3.5-6.1,6.7-7.6C359.8,659.4,362.9,659.2,364.6,658.8z"/>
	<path d="M367.9,704.9c-3.7-0.8-5.1-3-4.9-6.5c0.1-3,1.3-5.1,4.4-4.7c3.4,0.4,5.4,2.4,4.7,6.2C371.6,702.5,371.3,705.1,367.9,704.9z
		"/>
</g>
</svg>
