<svg xmlns="http://www.w3.org/2000/svg" width="1077.03" height="1025.15" viewBox="0 0 1077.03 1025.15"><title>c2-txt</title><path d="M759.75,967.35c5.33-9.55,12.24-14.2,22.21-12.66,8.27,1.28,10.83,6,7.27,13.37-2.16,4.5-4.48,9.06-9.59,11.14-4,1.62-3.56,3.78-.42,5.79,5.79,3.71,11.83,6.71,19.07,4.78,1.65-.45,3.72-1.5,4.62.61,1.06,2.47-1.35,3.44-3,4.45-10.78,6.73-33.27-5.52-33.74-18.29-.18-5,2.38-6.17,6.67-5.09,3,.75,6,1.74,7.86-1.9,1.27-2.54,4.33-5,1.92-8.1-2.06-2.68-5.1-1.34-7.7-.66-9.27,2.44-15.31,12.13-15.59,24.93-.05,2.25.12,4.51.2,6.77.11,2.93-.87,5-4.22,4.74-3-.27-4.58-2.24-4.13-5.16,1.36-8.84,1.23-17.47-2.27-25.89-.93-2.26-.41-4.62,2.22-5.63a4.55,4.55,0,0,1,5.86,2C757.79,963.79,758.45,965.08,759.75,967.35Z"/><path d="M641.94,985.4c-.25,3.3.59,6.7-2.73,8.44-2.93,1.54-5.39-.46-7.58-2C625,987.36,618.54,982.57,612,978c-1.55-1.09-2.89-3.43-5.15-2.15s-.91,3.53-.59,5.42c.78,4.7,1.61,9.4,2.28,14.11.33,2.33.2,4.79-2.75,5.33a4,4,0,0,1-5-3.51c-2-11.08-3.41-22.31-7.27-33-.75-2.08.52-4,2.53-5a6.78,6.78,0,0,1,8.23,1.56c7.66,7.59,14.86,15.73,24.34,21.24,1.86,1.07,3.33,3.91,5.79,2.47,2.76-1.61,1.3-4.58.87-6.88-1.06-5.66-2.44-11.27-3.74-16.89-.74-3.23.25-5.82,3.57-6.24,3.57-.46,3.53,2.55,3.81,5.13C639.87,968.31,641,977,641.94,985.4Z"/><path d="M217.94,991.37c0,4.25.32,8.54-.07,12.76-.66,7.14-6.15,9.92-12.25,6.11-4.23-2.64-8-6-12-9-3.34-2.53-5-1.72-4.89,2.5.13,5.51.35,11,.35,16.53,0,2,1,5-2.77,4.89s-4.72-2.55-4.65-5.58c.22-8.29-.71-16.5-1.57-24.72-.37-3.47-1.12-7-.81-10.4.27-3,1.86-5.9,5.52-6.22,3.89-.33,4.08,2.71,4.76,5.44,2.49,9.93,11,14.74,18.4,20,3.83,2.69,4.85-2.08,4.93-4.93.16-5.8-1.33-11.39-3.22-16.86-.81-2.34-2-4.82.47-6.85a4.52,4.52,0,0,1,5-.74c2.57,1.42,2.45,4.07,2.38,6.65-.11,3.49,0,7,0,10.48Z"/><path d="M872.85,990.35a3.12,3.12,0,0,0-.75,0c-4.33,1.09-9.14-3.54-12.94.37-4,4.17,2.15,7.58,1.82,11.7-.19,2.43.74,5.31-2.72,6.06s-5.35-1.27-5.81-4.34c-.63-4.19.59-9.32-1.42-12.51-5.55-8.81-1.62-19.65-7.15-28.27-1.39-2.16-1.4-5,1.84-6.18,2.76-1,4.65,0,6.16,2.64,5.78,10.06,5.88,10,15.35,2.31,2.11-1.72,4.11-3.24,6.42-.58s1.48,5.25-1.08,7.08c-3.87,2.77-8,5.17-11.92,7.86-3,2.09-2.93,3.92.81,5a35.13,35.13,0,0,0,14.87,1.27c2.88-.41,6.48-2,7,2.74.51,4.93-3.51,4.55-6.7,4.82C875.36,990.43,874.1,990.34,872.85,990.35Z"/><path d="M356.06,983.55c-1.27-4.54,2.28-7.14,8.68-7.82,9.23-1,18.42-2.33,27.64-3.36,1.81-.2,4.47-.89,4.83,2,.34,2.76-2.3,3-4.12,3.41-7.59,1.71-15.21,3.22-22.82,4.83-2.78.59-5.93,1.45-5.57,4.91.41,3.88,3.88,4.27,7,3.92,6-.68,11.91-1.8,17.9-2.45,2-.21,5.12-1.69,5.69,1.46.45,2.46-2.63,2.43-4.42,3-6.66,2.15-13.24,4.72-20.45,4.45-2.39-.09-4.64.44-4.92,3.44-.24,2.63.37,5.09,2.57,6.72,2.59,1.92,4.07,0,5.46-1.92,1-1.41,2-3.3,4.14-2.11,2.66,1.48.92,3.43.2,5.19-1.8,4.45-4.44,8.14-9.81,7.88-5.76-.28-8.27-4.24-9-9.44C358,1000.5,357.25,993.27,356.06,983.55Z"/><path d="M509.62,982.49c-.21-3.49-.48-7-.61-10.48-.1-2.62-1.34-5.94,2.38-7s6.24.7,7.89,4.09c2.69,5.54,7.55,9.3,11.58,13.74,1.33,1.47,2.76,3.32,5,2.48s3.08-3.16,2.92-5.57c-.28-4.5-.64-9-1-13.48-.17-2.25-.76-4.81,2.58-5.14,3-.3,4.64,1.26,5,4.3,1.13,9.82.13,19.54-1.9,29.09-.88,4.11-4.2,4.64-7.53,1.92-4.45-3.64-8.85-7.35-13.23-11.07-1.13-1-2-2.43-3.79-1.74s-1.61,2.34-1.68,3.82c-.12,2.76-.09,5.52-.31,8.27s-1.17,5-4.49,4.85-3.77-2.55-3.72-5.3c.09-4.26,0-8.52,0-12.78Z"/><path d="M899.34,993.15c0,3.15,0,5.91,0,8.66,0,2.25-.81,4-3.31,4.19-2.76.21-4.16-1.41-4.47-4-.21-1.73-.19-3.49-.25-5.24-.22-7.5.58-15-1-22.48-.76-3.54.29-6.57,3.92-8,3.45-1.32,4.88,1.45,6.51,3.66,4.49,6.09,9.29,11.89,16.51,14.93s12-.43,10.92-8.37c-.71-5.41-3.71-9.76-7.1-13.85-1.27-1.53-3.19-3.16-1.44-5.15,1.57-1.78,3.69-.8,5.5.24,7.93,4.58,11.36,24.39,5.45,31.44-2.3,2.75-5.15,3.88-8.68,2.92-6.07-1.65-12-3.64-16.92-7.75-1.41-1.16-2.42-3.91-4.81-2.41-1.9,1.18-1.24,3.62-1.23,5.55S899.21,991.55,899.34,993.15Z"/><path d="M1026.56,982.5a47.94,47.94,0,0,1,0,5c-.35,3.09.94,7-2.92,8.64s-7.22-.6-10.22-3.1c-8.09-6.74-8.11-6.73-12.26,2.69-1.13,2.55-2.35,5-4.63,6.75-4.3,3.26-9.26,2.1-10.78-2.88-2.43-7.9-4-16-7.67-23.56-1-2.16-1.1-4.56,2.14-5.23,2.73-.56,4.92-.27,5.67,3.12,1.24,5.63,2.74,11.2,4.07,16.81.42,1.74.7,3.64,2.88,3.85s2.88-1.7,3.82-3.14c1.68-2.58,2.08-5.61,3-8.44s.56-7.11,4.91-7.59c3.58-.4,5,2.8,6.77,5.2.9,1.21,1.71,2.48,2.63,3.68,1.27,1.65,2.79,3.08,5.06,2.24s2.81-2.69,2.73-4.88a53.74,53.74,0,0,0-2.56-15.54c-.7-2.06-1.58-4.88,1.57-5.62,3.42-.81,4,1.82,4.33,4.58C1025.9,971,1027.58,976.89,1026.56,982.5Z"/><path d="M477,1001.22c-.34,6.85-3.53,10-9.42,10.15-5.55.11-7.69-3.52-8.64-8.54-1.77-9.4-.32-19.06-2.63-28.41-.77-3.12,1.11-4.69,4.05-5q10.45-1.15,20.93-2.18c1.79-.17,3.94.06,4.41,2,.69,2.83-2,3-3.8,3.51-2.41.68-5.05.74-7.28,1.74-2.46,1.1-7.45-.47-6.92,3.65.41,3.14,4.71,1.53,7.26,1.46,4.76-.14,9.49-.75,14.25-1,1.54-.08,3.89-1.21,4.32,1.39.39,2.38-1.88,2.54-3.54,3-5.58,1.42-11.15,2.92-16.76,4.2-7,1.6-8.78,4.52-6.83,11.6C467.67,1003.55,468.75,1003.86,477,1001.22Z"/><path d="M1060,1014.44c-8.9-.88-16.49-2.27-22.23-8.39-1.12-1.2-3-2.69-1.32-4.4s3.3-.37,4.51,1c7,7.93,15.77,6,24.49,4.32,2.11-.41,4-1.49,4.34-3.63.5-2.94-2-3.68-4.13-4.47-3.75-1.43-7.59-2.62-11.28-4.15-8-3.31-12.8-9.34-15-17.63-1.66-6.28.46-11.49,4.87-15.66,4.78-4.52,10.71-5,16.91-3.42,1.9.49,3.21,1.39,2.94,3.62a2.93,2.93,0,0,1-3.73,2.73c-6.62-1.14-12.5-.37-14.15,7.27-1.7,7.91,3.13,13.29,8.73,17.9,4.18,3.44,9.78,3.76,14.43,6.2,3.54,1.85,7.9,3.46,7.6,8.29s-4.3,7.21-8.44,8.63A59,59,0,0,1,1060,1014.44Z"/><path d="M665.55,963.87c14.69,1.28,22.2,7.5,21.31,17.64-.78,8.88-10,16.81-18.65,16.1-7.64-.63-13.71-9.71-12.85-19.23C656.29,968.07,659.6,963.35,665.55,963.87Zm-3,17.39c.2,5.56,3.13,8.64,8,9.44,4.06.66,9.7-5,10-9.41s-4.78-11.41-8.4-10.84C666.12,971.41,664.25,976.49,662.5,981.26Z"/><path d="M261.28,996.76c.09,9.7-4.49,16.74-12.69,18.9-6.16,1.63-11.4-.06-15-5.56-4.06-6.21-3.21-17.4,1.65-23.29,4.61-5.59,14.24-9.2,19.37-7.25C258.78,981.15,261.18,987.33,261.28,996.76Zm-4.65.71c.18-6.52-3.34-12.24-7.46-12.14-5,.12-11.38,7.74-11.67,14-.28,6,3.19,10.26,8.37,10.3C251.8,1009.67,256.45,1004.42,256.63,997.47Z"/><path d="M437.72,980.48c-.33-2.75-2.22-5.25.83-7.18,1.86-1.17,3.41-.37,4.86.65,2.76,1.93,2.64,4.7,1.73,7.45-2.92,8.78-4.38,18.09-9.5,26.07-1.68,2.62-3.51,5.21-7,4.88-3.21-.3-4.33-3.18-5.3-5.77-2.71-7.28-5.38-14.58-7.89-21.94-.9-2.65-1.61-5.61,2.52-6.46,3.25-.67,5.3.55,6.11,3.85,1.13,4.63,2.34,9.24,3.53,13.85.38,1.47.75,3.08,2.49,3.38s2.71-1.07,3.26-2.51A68.52,68.52,0,0,0,437.72,980.48Z"/><path d="M291.78,976c2,.13,4.79-.2,6.36,2.29,2,3.1-1,4.36-2.58,6.12-1.18,1.34-2.07,2.76-1.74,4.73,1.38,8.13.85,16.58,4.06,24.4.94,2.28,2.71,4.89-1.08,6.1-3.63,1.16-6-1-6.59-4.24-1.24-6.65-1.93-13.4-2.93-20.09-1.63-11-2.87-11.63-13.69-9.05-3.76.9-9.58,4.7-11.07-.57-1.34-4.77,5.57-4.38,9-5.56A72,72,0,0,1,291.78,976Z"/><path d="M733.67,977.64c-.07,10.53-3.57,15.37-11.75,16.24-7.72.83-14.49-4.51-16.39-13.44-.72-3.38-.4-7-.64-10.47-.18-2.67.56-4.5,3.63-4.38,3.3.12,5.18,1.69,5,5.16-.17,2.74-1.11,5.6-.56,8.16.92,4.29,3,8.52,8.5,7.47,5-.94,5.71-5,5.22-9.4A30.88,30.88,0,0,0,723,966.39c-1.09-2.13-3.14-4.63.31-6.35,2.79-1.39,4.7.47,6.26,2.66C732.73,967.18,733.78,972.25,733.67,977.64Z"/><path d="M954.68,963.13c6.66-.59,12.2.3,15.22,6.46a18.92,18.92,0,0,1-1.35,19.92c-5.47,8.14-17.31,6.79-22.07-2.45-3.27-6.35-2.81-13.15-1.13-19.75C946.66,962.15,951.22,962.8,954.68,963.13Zm-4,13.75c-.1,6.9,3.6,12.24,8.53,11.87,4.51-.35,7.33-2.77,7.43-7.65.14-6.94-4.27-14.1-8.81-13.74C952.09,967.82,950.64,971.9,950.66,976.88Z"/><path d="M538.12,13.66c2.07-.09,4.26-.05,5.06,2.26.87,2.5-1.24,3.4-2.95,4.51-9.67,6.27-9.52,11.19.56,17.76,3.45,2.25,8.23,3.34,7,9.2-1.18,5.44-5.81,6.08-10,7.89-9,3.91-17.62-2.27-26.64-.32-2.81.6-2.8-4.72-4.34-7.18-2.37-3.8-1.09-10.6-7.17-11.18-6.41-.61-8.31,5.46-11,9.91-1.65,2.76-2.94,6.64-7.17,4.5-3.89-2-1.35-5.29-.56-7.95,2.28-7.68,5.11-15.21,7-23,1.14-4.68,4.19-5.64,8-6.47,4.55-1,5.36,2.55,6.9,5.31,3.2,5.74,4.78,12.08,6.86,18.25,3.1,9.22,15.64,15.92,24.87,13.31,2.13-.6,4.69-1.15,5.09-3.79s-2.26-3.05-3.86-4c-5.16-3.07-9.24-6.89-10.09-13.21C524.67,21.32,530.39,14,538.12,13.66Z"/><path d="M422.45,54.07c-6.75-.56-11.65-4.72-15.89-9.87-3.53-4.29-6.71-7.39-8.49,1.14-.45,2.19-2,3.8-4.17,3.65-2.95-.2-3.14-2.74-3.09-5.09.22-11.07,0-22.08-3.07-32.85-.63-2.21-.43-4.82,2.8-5,2.72-.18,4,1.7,4.45,4.16s-.74,5.44,2.37,6.56c3.61,1.3,4.38-2.48,6.33-4.13,1.15-1,2.19-2.07,3.37-3,3.53-2.78,7.72-3.71,10.95-.49,3.62,3.6.33,6.87-2.18,9.68a22.25,22.25,0,0,1-10.19,6.12c-4.18,1.33-4.33,4-1.65,6.77,4.58,4.63,9.38,9.06,14.28,13.35,3.55,3.11,7.62,3.56,11.85,1.14,1.86-1.08,3.87-1.92,5,.79.81,2-.77,3.24-2.33,4.13A20.56,20.56,0,0,1,422.45,54.07Z"/><path d="M658.14,25c-.22,4-.3,8-.68,12-.66,6.83-3,8.18-8.57,4.63-7-4.45-15.08-6.7-21.79-11.7-3.84-2.85-5.65-.65-5.1,3.46a27,27,0,0,1-.52,11.15c-.8,2.86-2.66,4.31-5.48,4-2.67-.27-3.76-2.31-3.76-4.82,0-7.76-.24-15.54.19-23.27.31-5.56,4.55-7.1,8.78-3.09,7,6.69,15.85,10.45,23.84,15.56,5.16,3.3,6.57.81,6.73-4.16.2-6.25.61-12.5,1-18.74.09-1.49.2-3.29,2.1-3.49,2.36-.25,2.8,1.62,2.9,3.45.28,5,.5,10,.75,15Z"/><path d="M91.41,30.61c-.3-6.07-.82-12-4-17.42-1.21-2-1.93-4.17.49-6,1.91-1.44,3.85-1.44,5.35.37,2.52,3.06,4.13,1.52,5.74-.83a20.34,20.34,0,0,1,1.31-1.84c4.31-4.94,10.55-6.39,13.8-3.22s1.82,10.86-2.71,14.8a25.68,25.68,0,0,1-3.1,2.12c-4,2.59-3.83,5,.4,7,4.08,1.91,8.23,3.68,12.41,5.33,1.91.76,5.22.07,4.17,3.66-1,3.23-3.56,2.87-6.18,1.94-5.18-1.85-10.41-3.59-15.6-5.43-1.92-.69-3.86-1.82-4.64,1.31-.67,2.64.58,7.11-4.23,6.26C90,37.87,91.91,33.55,91.41,30.61Z"/><path d="M4.53,35.49c-1.31-8.37,0-16.83-3.8-24.61-1.44-3-.68-6,1.65-8.3C4.92,0,6.88,2.29,8.93,3.64c3.61,2.4,7.2.94,10.82-.09A110.39,110.39,0,0,1,30.67.8c2.87-.5,5.62-.2,5.64,3.93,0,3.78-2.44,5.12-5.36,4.64-6-1-11.42.84-16.86,2.7-1.77.61-4.36,1-3.72,3.78s2.89,3.22,5.33,2.76c5.41-1,10.81-2.18,16.22-3.22,1.59-.31,3.68-1.57,4.47.9.85,2.65-1.38,3.51-3.32,4.06C27.3,22,21.56,24,15.66,24.89c-4.87.77-6,2.95-4.65,7.13,1.48,4.7.85,9.47.57,14.2-.16,2.63-.24,6.14-4.21,5.8-3.69-.31-3.78-3.26-3.48-6.26C4.24,42.27,4.34,38.76,4.53,35.49Z"/><path d="M236.91,15.19c-.26-2.36-.25-4.65,2.94-5,2.69-.26,3.52,1.46,3.57,3.71.08,4,1.61,6.39,6,5.51,5.07-1,11.67.74,13.52-6.66.65-2.56-.17-6,3.94-6s3.79,3.57,4.19,6.07c1.37,8.4,2.46,16.84,3.59,25.27.3,2.21.94,4.76-2.55,5.06-2.8.25-5.25-.73-5.77-3.6a62.6,62.6,0,0,1-.88-11.2c0-4.61-2.24-5.42-6.26-4.83-9.15,1.36-12.26,4.66-12,13.6.07,2.27-.19,4.08-2.79,4.39s-3.58-1.42-4.22-3.46C237.82,30.65,237.49,22.9,236.91,15.19Z"/><path d="M218.58,28.93c-.07-17.88-.07-17.87-17.1-15.14a56.14,56.14,0,0,1-6.7.79c-2.73.11-5-.53-5.05-4s2.19-4.5,4.9-4.38a93,93,0,0,0,33.31-4.61c2.36-.77,4.62-.2,5.21,2.69.55,2.7-.78,4.51-3.46,4.74-5.35.46-5.69,3.67-4.92,7.91,1.6,8.72,1.12,17.46-.09,26.19-.41,3-.35,6.71-4.62,6.29-4.76-.47-3.3-4.35-2.59-7C218.66,37.91,218.58,33.43,218.58,28.93Z"/><path d="M571.57,51.86c-5.93-.27-10.41-1.18-12.48-6.63-2.68-7-1.53-13.48,3.36-18.86a79.39,79.39,0,0,1,11.94-10.2c3.56-2.62,12,1.14,15,6.59,3.38,6,4.39,12.17.75,18.53C585.82,48.89,578.55,51,571.57,51.86ZM587.3,34.77c.19-5.28-5-12.34-9-12.26-4.67.1-13.19,10-13.31,15.7-.11,5.16,2.77,7.8,7.78,8C579.48,46.55,587.09,40.45,587.3,34.77Z"/><path d="M475.4,8.72c1.35.24,3.29-.69,3.77,1.36.54,2.27-1.23,3.08-3,3.45-6.36,1.31-12.76,2.43-19.1,3.85-1.66.37-4.83-.27-4.26,2.81s3.4,2.17,5.59,1.94c2.45-.26,5.82-3.89,7.07-.28,1.43,4.13-3.65,3.84-6.05,4.83-9.48,3.93-11.2,12.15-3.55,18.57,1.76,1.48,5.55,2.12,2.5,5.23-2.8,2.86-6.6,3-9.15-.44a25,25,0,0,1-4.35-11.85c-.64-5-.4-10.16-1.85-14.85-2.62-8.49,1.61-10.39,8.65-11.15C459.59,11.34,467.48,9.9,475.4,8.72Z"/><path d="M79.38,24.49C79.75,32.12,74.64,36.2,69,39.56a10.58,10.58,0,0,1-12.63-1.09c-4.75-3.91-5.42-9.12-4.26-15a30.24,30.24,0,0,1,4.56-11c2.67-4,5.42-8,11.26-6.82s9.06,5,10.41,10.54A72.38,72.38,0,0,1,79.38,24.49Zm-5.39-1c.11-4.67-.7-8.76-4.16-9.93-4.26-1.45-6.63,2.78-8.58,5.78-2.87,4.42-3.74,9.4-.66,14.19,1.32,2.07,3.53,1.68,5.42.72C70.79,31.79,74.12,28.31,74,23.45Z"/><path d="M321.52,49.13c-3.53-.6-7.76-1.25-11.32-3.84-1.66-1.21-3.12-2.75-1.6-5,1.23-1.84,2.91-1.6,4.62-.7A17.25,17.25,0,0,0,315.84,41c2.64.85,5.75,4.12,8,.75,1.95-3-2.39-3.63-3.91-5.26-6.63-7.07-6.07-20.94,1.17-27.33,2.31-2,4.89-3.14,7.43-1.16,2.85,2.23,1.5,4.56-.42,7.06-8.83,11.53-7.6,16.74,5.45,24,2.45,1.38,5.08,2.49,4.35,6.07s-3.63,2.58-6,2.79C328.63,48.26,325.41,48.69,321.52,49.13Z"/><path d="M291.52,42C291.39,32.4,289.23,24.22,287,16c-.65-2.42-2.39-5.85,1.57-6.91s5.07,1.93,5.72,5.18c2,9.76,5,19.35,4.44,29.48-.18,3,1,7.44-4.13,7-4.73-.39-3.66-4.39-3.27-7.6C291.47,42.44,291.55,41.7,291.52,42Z"/><path d="M380.08,354.05c4.55.18,8.23.3,10.13,4,2.08,4.07,0,7.47-2.68,10.18-4.29,4.43-7.75,7.89,2.25,8.68,4.33.34,5.13,4.53,5.54,8,1.11,9.15-11.19,18.12-19.49,14.18-3.67-1.75-6.9-3.64-11.32-2.34-4.27,1.26-5.42-1.58-4.64-5.2,1.87-8.58.86-17-1.38-25.3-1.11-4.11-.15-6.73,4.32-7.89C368.87,356.77,374.76,354.56,380.08,354.05Zm3,9.8c.32-2.59-.83-3.48-2.43-3.71-4.43-.63-7.6,1.76-10.47,4.66s-4.68,5.85-3.66,10c.49,2,1.59,3,3.75,2.6S382.92,365.25,383.05,363.85Zm-1.21,18.92c-3.44.52-8.16-.37-8.47,4.89-.21,3.57,2.45,5.94,6.17,6.14,5.11.26,7-3.32,7.51-7.51C387.51,382.57,384.42,382.85,381.84,382.77Z"/><path d="M228.57,473.79c.78-7.29-1.32-13.75,9.9-12.12,5.55.81,12.68-3.47,19.57-3.05,7.62.47,10.21,3.55,9.29,11.23-1,8-9.06,16.51-18.62,18.6-9.14,2-11.62.93-10.11,14a21.45,21.45,0,0,1,.14,3c-.06,1.67.47,3.8-2.07,4.1s-3.73-1.31-4-3.52C231.19,494.8,229.8,483.6,228.57,473.79Zm22.93-9.38A16.94,16.94,0,0,0,239,470.48a9.79,9.79,0,0,0-.64,11.89c2.58,4,6.33,1.09,9.43,0a20.33,20.33,0,0,0,8.46-6c1.94-2.23,4.73-4.45,3.45-7.74C258.33,465.09,254.59,465,251.5,464.41Z"/><path d="M833.78,377.71c-1.25,6.91-1.22,13.29,1.83,19.47,1.19,2.43,1,5.09-2.45,5.81-2.92.61-5.1-.49-5.45-3.59a87.59,87.59,0,0,1-.73-12.73c.22-6.14-2.68-7.45-8-6.13-5.11,1.27-10.2,2.67-15.37,3.54-4.71.8-5.69,3.35-4.69,7.5a47.15,47.15,0,0,1,1,5.92c.23,2.26-.5,4-3.14,4.14-2.38.13-3.61-1.12-4.19-3.39-2.74-10.66-1.83-21.9-5.49-32.44-1.07-3.09,1.31-5.22,4.52-5.58,3.51-.4,4.75,1.59,5.14,4.9,1.6,13.55,2,13.79,15.44,11.12a30.28,30.28,0,0,1,5.93-.9c4.68,0,7.46-1.06,5.16-6.53-1.16-2.79-.44-5,2.85-5.59,2.94-.52,4.83.75,5.44,3.76C832.32,370.67,833.09,374.35,833.78,377.71Z"/><path d="M1009.32,396.78a4.33,4.33,0,0,1-2.08,3.92,4.05,4.05,0,0,1-4.93-.33,40.5,40.5,0,0,1-5-6.44c-2-3-2.65-7.54-7.88-6.35-5.42,1.23-11,2.32-12.52,9a41.92,41.92,0,0,1-1,4.4c-1.1,3.07-2.78,5.6-6.63,4.15s-3.69-4.13-2-7.27c3.79-6.87,4.68-14.73,7.27-22a15.89,15.89,0,0,1,4.13-6.94c7-6.33,9.76-6,13.78,2.53,2.4,5.1,5.24,7.82,11,5.14,2.33-1.08,4.84-1,5.56,1.7.65,2.44-2,2.29-3.59,2.69-2.09.55-4.78.1-5.08,3.3s1.16,5.26,3.68,6.87C1006.32,392.59,1009.11,393.59,1009.32,396.78Z"/><path d="M960.9,378.26c.11,8.24-2.36,16.31-1.58,24.61.24,2.56-.89,4.43-3.89,4.32s-3.66-2.31-3.52-4.72c.34-5.75.92-11.49,1.28-17.25.31-4.88-.66-8.23-6.79-5.51-2,.89-4.38,1-6.59,1.52-4.16.94-6.12,3.4-4.71,7.64s.66,8.42.15,12.64c-.26,2.1-.67,4.12-3.36,4.12a3.35,3.35,0,0,1-3.55-3.25c.55-10.89-3.59-21.28-3.25-32.12.07-2.45,1.86-3.38,4-3.63a3.22,3.22,0,0,1,3.89,2.66c.69,2.8.32,6.79,4.56,6.57,4.92-.26,10.12-.5,14.1-4.08,2-1.77,1.57-6.7,6-5,4.29,1.66,3,5.82,3.19,9.19C961,376.75,960.9,377.51,960.9,378.26Z"/><path d="M659,483.49c.22-14.06,1-14.79,12.6-15.06,6.48-.14,12.94-1.53,19.41-2.35,2.77-.35,5.31,0,5.24,3.53s-2.64,3.68-5.4,3.18c-6.94-1.27-13.26,2.09-19.95,2.8-2.4.25-4.26,1.87-3.91,4.64.39,3.11,3,3,5.22,3,4.26-.1,8.51-.46,12.76-.67,1.56-.07,3.21.08,3.49,2s-1.2,2.57-2.77,2.87c-3.93.77-7.87,1.53-11.82,2.23-2.23.39-4.76.4-5.13,3.37a10.74,10.74,0,0,0,3.14,8.95c2.46,2.55,3.95-.1,5.58-1.43,1.41-1.16,2.89-2.43,4.48-.56s0,3.25-1,4.67c-2.29,3.25-5.18,5.41-9.4,5.23-4.4-.18-6.73-3-8.24-6.65A54,54,0,0,1,659,483.49Z"/><path d="M852.57,406.14c-6.18-.82-8.87-4.93-9.23-10.8-.22-3.66-2.21-7.3-2.53-10-.71-6,.29-15.13,4.28-18.2,8.63-6.68,20.11-8.57,31.19-9.73,2-.2,4.43-.13,4.53,2.61.09,2.51-2.42,2.21-4,2.38-7.64.82-14.3,4.56-21.4,7-2.79.95-5.31,2.66-4.26,6,1.12,3.55,4.16,1.45,6.43,1.38,3.28-.1,8.34-4.1,9.28-.58,1.1,4.06-5.18,4-8.32,4.89-5.49,1.51-9.09,3.84-9.17,10.06,0,3.2.14,5.94,3.46,7.6s5.62-.41,8.08-2.17,4.49-8.25,7.43-5c3.33,3.62-2.84,6.4-5.26,9.16C860.45,403.69,857.08,406,852.57,406.14Z"/><path d="M662.69,389c-5.22,0-10-.22-13.28-4.53-1.49-2-1.71-4.3.26-6.13s3.12-.2,4.34,1.15c2.06,2.28,4.94,2.63,7.63,2.44,3.59-.26,8.84.59,9.65-3.76.71-3.79-4.56-3.67-7.26-5-5.41-2.74-11.51-4.92-11.75-12.21s5.39-10.84,10.68-14.27a9.7,9.7,0,0,1,8-1c1.94.51,4,1,4.2,3.59.22,2.84-1.6,4.28-4,4.58-3.8.47-7.13,1.51-7.67,5.76-.58,4.67,2.65,7.38,6.24,9.4,2.6,1.46,5.49,2.39,8.24,3.61,5.81,2.59,6.33,5.71,1.42,9.92S669.05,389.51,662.69,389Z"/><path d="M564.94,490.77c-1.16,3.63,1.48,7.43-2.63,8.16-3.45.61-3.25-3-4-5.24-1.08-3-2.62-5.5-6.35-5.22-5.87.45-12.36-.69-16,5.74-.86,1.5-1.24,3.28-2,4.83-1,1.88-2.78,2.06-4.55,1.48a3,3,0,0,1-2-4.19c1.74-4.68,3.48-9.37,5.54-13.91,2.37-5.23,5.31-10.21,6-16.08.51-4.31,4.07-5.33,6.45-3.15C554,471.15,563,479.18,564.94,490.77Zm-18.7-15.23a4.53,4.53,0,0,0-4.34,4.26c-.37,2.82,1.58,3.51,3.71,3.47s5,.12,5-3.07C550.61,477.75,548.59,476.37,546.24,475.54Z"/><path d="M765.18,514.26c-6.33-.41-11.46-1.3-15.17-5.71-1.13-1.34-2.38-2.9-1.23-4.71,1.38-2.16,3.17-.65,4.62,0,2.73,1.25,5.29,2.86,8,4,1.65.72,3.58.77,4.62-1.13,1.16-2.14-.58-3.16-2-4.18-4.48-3.18-9.49-5.82-13.33-9.64-4.52-4.51-9.35-9.69-5.64-17.11,2.62-5.24,12.37-9.34,19-8.4,1.8.26,3.68.46,4,2.61s-1.57,2.76-3.29,3.28c-4.61,1.37-10.81.81-12,7.14-1.19,6.5,5,8.56,8.73,11.93,4.27,3.85,8.58,7.68,13.78,10.32,1.82.92,3.63,2,3.22,4.49a5.86,5.86,0,0,1-4,5C771.16,513.21,767.68,513.73,765.18,514.26Z"/><path d="M237.85,389.8c.6,2.67,1.29,5.34,1.78,8.05.39,2.13,0,4.12-2.47,4.73a3.25,3.25,0,0,1-4.34-3c-.75-5.67-2.95-10.6-5.15-15.8-1.61-3.8.61-11.59,2.4-17.33.36-1.14,2.05-1.53,3.32-1.11,1.56.52,2.2,1.86,2.38,3.49.31,2.87-.74,7.07,2.79,7.79,3.75.76,8-.08,11.84-.83,3.53-.68,3.47-3.84,3.19-6.68-.25-2.62.4-4.48,3.36-4.76,3.34-.32,4.11,1.64,4.51,4.53,1.15,8.18,1.55,16.49,4.13,24.45.51,1.58.81,3.67-1.45,4.44-1.9.65-3.36-.42-4.55-1.86-2.54-3.09-3.08-6.77-3.15-10.59-.09-5.79-3.05-7.14-7.82-4.64C244.45,382.89,238.47,383.16,237.85,389.8Z"/><path d="M276.33,377.33c.31-13.41,11.57-21.68,25.09-18.48,2.27.54,3.61,1.66,3.43,4.1-.16,2.23-1.84,3.08-3.66,3a27.91,27.91,0,0,0-12.46,2.23c-1.83.73-4.36,1.35-4,3.83s3,2.22,5,2c3.74-.37,7.46-1,11.2-1.34,1.89-.19,4.61-1.09,5,1.62.38,2.41-2.34,3-4.18,3.52-3.86,1.06-7.8,1.85-11.72,2.7-3.55.78-7.67,1.49-5.74,6.49,1.13,2.95-.58,10.08,7.18,6.36,3-1.43,3.52,1.12,2.7,3.28a7.35,7.35,0,0,1-6.08,5,6.52,6.52,0,0,1-7.36-3.9A44.22,44.22,0,0,1,276.33,377.33Z"/><path d="M716.2,465.65c2.43.22,4.7-.09,5.43,2.45.84,2.89-1.13,4.29-3.37,4.94-4.21,1.21-8.79,2.22-8.83,7.64s3.81,8.54,8.13,10.92c3.72,2,7.59,3.84,11.41,5.71,2.61,1.28,4.74,2.87,4.53,6.21-.23,3.86-3.12,5.06-6.13,5.55-8.55,1.39-17.39,4.16-24.6-3.77-1.36-1.5-3.45-2.85-1.92-5,1.65-2.29,3.51-.63,5.15.57,3.5,2.56,7.16,4.68,11.75,4.17,1.76-.19,4.06-.25,4.53-2.05.63-2.35-1.95-2.52-3.45-3.09-4.25-1.61-8.46-3.37-11.57-6.78-4.44-4.88-7.25-10.34-4.17-17.08C705.75,470.21,709.91,466.22,716.2,465.65Z"/><path d="M198.55,407.13c-5.07-.26-9.53-2.47-13.54-5.56-2.47-1.9-2.49-4.76-2-7.58a2.75,2.75,0,0,1,2.52-2.39c3.29-.34,3,2.77,4.12,4.47,3.07,4.56,10.37,6.61,13.71,3.55,4.86-4.44,2.48-8.48-1.24-12.18a57.27,57.27,0,0,1-9.92-12.2c-4.82-8.55-2.79-20.06,4.29-25.18,2.36-1.71,5-3.1,7.31-.35,2.63,3.11-.66,4.16-2.41,5.72-6.22,5.53-6.74,12.36-1.23,20.05,2.91,4.06,6.53,7.62,9.34,11.74s4.59,8.45,1.91,13.35S203.89,406.78,198.55,407.13Z"/><path d="M521.13,361.93c-2-6.76,1.92-9.26,9.12-9.68,6-.35,11.9-1.52,17.86-2.23,1.66-.2,3.87-.69,4.19,1.8s-1.7,3.59-3.82,3.59c-4.89,0-9.25,2.06-13.83,3.23-2.33.59-4.94,1.37-4.45,4.06.66,3.55,3.94,2,6.26,2.08a6.49,6.49,0,0,0,1.46-.32c2.87-.58,7-3.89,8.11.76,1,4-4.23,4-6.92,5.37-1.53.8-3.32,1.11-5,1.76-2.68,1.07-5.21,2.48-4.46,6,.69,3.2,1.64,6.56,5.87,6.63,2.49,0,4.84,0,4.09,3.48-.62,2.89-2.69,4-5.62,3.71-4.79-.5-7.73-3.14-9.09-7.7A78.64,78.64,0,0,1,521.13,361.93Z"/><path d="M391.24,500.18c-3.3-.56-4.06-2.82-3.22-5.56,2.51-8.14,5-16.3,8-24.28,1.64-4.38,6.35-4.37,10.39,0,3.14,3.36,5,8.29,11.34,6.1,2-.68,2.53,2,1.38,2.93-5.9,4.67-1.17,8.41.85,12.3,1.37,2.64,4.14,5.3-.08,7.48-3.67,1.89-5.4-1.08-7-3.75-7.6-12.67-8.36-12.66-16.18.23C394.59,499,393.12,500.27,391.24,500.18Z"/><path d="M322.37,488.16c-.18-16,10.05-23.66,20.71-17.83,2.69,1.46,3.56,3.33,2.79,6.12-.89,3.2-3.3,3.52-5.95,2.77-3.41-1-7.07-4.1-9.36,1.51-1.87,4.59-1.74,8.93,2.37,12.26,3.92,3.18,8.34,4.92,13.08,1.74a18.31,18.31,0,0,0,7.91-13.1c.33-2.2.72-5.18,3.59-4.85,3.44.4,1.77,3.64,1.67,5.52-.83,15.82-15.69,25.43-28.12,18.35C325.35,497.39,322.31,492.59,322.37,488.16Z"/><path d="M629.2,346.59c2.18.11,4.63-.53,4.63,2.58,0,2.43-1.94,2.61-3.75,2.59-4.1,0-7.82,1.53-11.66,2.63-1.46.42-3,1-2.73,2.95.3,2.17,2.07,2.77,3.91,2.63,2.48-.19,4.94-.82,7.43-1,1.34-.11,3.21-.66,3.55,1.52.29,1.83-1,2.75-2.54,3.16a33.59,33.59,0,0,1-7.3,1.59c-6.14.23-7.45,3.6-6.7,8.95,1,7.08,4.16,8.73,10,4.88,1.45-1,2.65-2.29,4.08-3.29s2.84-1.34,4,.2a2.71,2.71,0,0,1-.49,4c-5.08,3.45-9.66,8.82-16.6,7.21-6.35-1.47-6.77-7.4-7.36-12.63-.69-6.22-1.21-12.46-1.46-18.71-.2-5,1.91-8.15,7.63-7.61A44.71,44.71,0,0,0,629.2,346.59Z"/><path d="M277.83,479c0-1-.06-2,0-3,.28-4-.61-8.64,1.2-11.72,2.7-4.58,6.4,1.5,10,.8,4.65-.9,9.37-1.5,14.07-2.09,1.64-.21,3.79-.87,4.49,1.43.83,2.77-1.51,3.46-3.4,3.9-4.62,1.1-9.32,1.84-13.94,2.94-2,.49-5.36.41-4.88,3.46.6,3.73,4,1.95,6.2,1.79s4.32-1.21,6.52-1.56,4.87-1.66,5.51,1.75c.58,3.08-2.26,3.53-4.34,4.1-3.37.93-6.8,1.6-10.23,2.32-2.79.59-4.79,2-4.16,5.09s-1.21,7.34,3.57,8.94c1.6.53,4.71-1,4.44,2.37a6.23,6.23,0,0,1-4,5.11,5.32,5.32,0,0,1-6.72-1.76c-3.31-4.36-4.23-9.52-4.33-14.85C277.78,485,277.82,482,277.83,479Z"/><path d="M197.61,494.59a41.19,41.19,0,0,1-20.26-7.12c-2.72-1.86-4.65-4.23-2-7.49,3.09-3.86,5-1,7.05,1.37a21.42,21.42,0,0,0,4,3.45c1.41,1,3.07,2.15,4.8.91s.86-3.13.39-4.81c-.89-3.13-2.16-6.23-2.46-9.42-1-10.51,8.09-20.22,17.49-19.12,3,.36,5.51,1.45,5.52,4.91,0,4.05-3,2.93-5.44,2.94-9.88.06-14,10.1-8.37,20.68a22,22,0,0,0,4.3,5.17c1.88,1.82,3.81,3.59,2.55,6.44C203.76,495.53,200.9,494.55,197.61,494.59Z"/><path d="M422.58,361.63c3.66,0,6.18,0,8.69,0,2.17,0,4.13.47,3.88,3.32s-2.19,2.87-4.37,2.9a58.16,58.16,0,0,0-9.71.58c-2.52.46-4.84,2-4.5,5.13.4,3.65,3.38,3,5.82,3a10,10,0,0,0,2.22-.38c2.4-.55,5.62-1.94,6.35,1.44s-2.69,3.44-5.14,4a64.87,64.87,0,0,0-7.12,2.42c-2.27.85-2.78,2.7-2.45,4.89.29,1.92,1.37,3,3.3,3.6,2.2.73,6.23-2.28,6.41,2.59.1,2.42-2,3.93-4.13,5a6.38,6.38,0,0,1-8.67-2.22c-4.5-6.55-7.46-13.66-5.33-21.9.19-.73.65-1.38.82-2.11C411.59,361.93,411.58,361.93,422.58,361.63Z"/><path d="M757.53,393.74c-7.41.6-12.33-3.36-16.22-9-1.4-2-1.68-4.49.43-6.1,2.46-1.88,4.06,0,5.43,2a16,16,0,0,0,8.17,6.35c1.86.65,4.11,1.53,5.42-.67,1.51-2.52-.93-3.55-2.48-4.6-7.6-5.16-10.8-12.36-9.72-21.35.73-6.07,4.26-9.43,10.62-9.31,2.21,0,3.92.77,4.4,3.2.42,2.16-1,3.06-2.58,4-7,4.31-7.76,7.72-2.67,14.05,2.19,2.71,5,4.95,7.46,7.42s5.73,4.57,4,8.84-5.38,4.85-9.25,5.12C759.53,393.8,758.52,393.74,757.53,393.74Z"/><path d="M462.9,360.35C461.29,368,461.43,375,461.71,382s2.18,8,8.46,5.55c5.41-2.14,10.61-4.62,13.73-9.93,1.18-2,2.2-4.26,5.09-2.43,3.07,1.94,2.77,4.74,1,7.13-2.92,3.87-7.14,6.28-11.36,8.49-3.75,2-7.58,4.11-11.63,5.12-5.7,1.43-10.26-1-11-7.08a154.88,154.88,0,0,1-1.53-28.48c.14-2.64.54-5.23,4-5.1C462.1,355.44,462.62,358.18,462.9,360.35Z"/><path d="M570.29,353.25a4.55,4.55,0,0,1,4.29,2.71c.93,1.75,1.22,3.89,2.32,5.5,2.15,3.12,1.18,9.62,5.84,9.26,4.14-.32,3.54-6.46,5-10,1.28-3.18,1.61-6.77,2.12-10.22.4-2.72,1.63-4.27,4.44-3.67s3.7,2.54,2.81,5.1c-3.27,9.45-6.67,18.86-10,28.29-.91,2.59-3,3.28-5.33,3.27s-3.6-1.25-4.22-3.5c-2-7.12-6-13.16-10.25-19.06C564.29,356.77,566.24,354.55,570.29,353.25Z"/><path d="M1031,405.35c-5.4-.07-9.55-2.33-13.47-5.13-1.23-.88-2.73-2-1.53-3.59s2.76-.44,4,.28c3.51,2,7.8,7,10.87,2.52,2.3-3.37-4.07-5.75-6.63-8.4-4.5-4.63-9-9-6.87-16.27,1.71-5.84,6-9,11.7-10.57,3.5-1,6.37-.13,7.06,3.41.88,4.51-2.87,2.58-5,2.93-6.12,1-9,7.88-5.15,13.37,2.56,3.64,6.16,6.54,9.28,9.77,2.47,2.56,7.37,4.14,5.41,8.78C1038.85,406.85,1033.91,404,1031,405.35Z"/><path d="M435.5,488.69c.69-5.77,1.46-12.22,2.26-18.66.43-3.43,2.09-6,5.85-5s2.83,4,2.25,6.77c-1,4.64-1.78,9.31-2.53,14-.88,5.5.58,8.35,6.88,6.25,4-1.34,8.19-2.21,12.32-3.18,1.78-.42,3.58-.38,4.18,1.91.52,2-.13,3.58-2,4.24-7.31,2.53-14.68,5.09-22.42,5.65C437.54,501,435.21,496.59,435.5,488.69Z"/><path d="M576.76,492.06c-.17-11.15,5.46-20.76,13.09-22,2.77-.44,6.45-1.83,7.7,2.13,1.38,4.37-2.54,4.74-5.33,5.47-8.09,2.12-7.77,8.9-8.36,15.05q-.81,8.64,7.72,11.29c1.86.58,5.22.42,4.39,3.85s-3.84,2.47-6.22,2.07C582,508.64,576.9,501.52,576.76,492.06Z"/><path d="M633.77,507.83c3.77-1,5.94-1.38,6.44.79s-1.36,3.44-3.38,4.2c-5.26,2-12.87-1.05-16.94-6.85-6.24-8.89-4.92-23.67,2.68-29.52,2.53-1.94,5.61-3.5,8-.64s-.05,5-2.38,6.8c-6.26,4.91-5.81,11.15-3.17,17.65C627,505,629.94,508.4,633.77,507.83Z"/><path d="M371.48,486c.23-4.76.43-9.52.71-14.28.14-2.44.84-4.54,3.92-4.39s3.51,2.49,3.46,4.82c-.17,9.28-.45,18.56-.72,27.84-.08,2.68-1.39,4.27-4.22,4.11s-4-2-3.89-4.57c.18-4.51.62-9,.95-13.51Z"/><path d="M497,359.62c0-2,.71-4.79,4.25-4.85,3.28-.07,3.83,2.86,4,5.34.51,8.65-.72,17.45,2.59,25.87.82,2.08-.25,4-2.61,4.52-3.2.75-4.79-1.14-5.15-3.91C499,377.94,498.09,369.27,497,359.62Z"/><path d="M186.27,832.16c.17,3.76.5,7.52.48,11.28,0,6.86-3.94,9.5-10.28,6.92-4.54-1.84-7.86-5.38-11.06-8.91-3.93-4.34-6.87-4.26-9.63,1.21-2,3.91-1.82,10.58-8.7,9.32-6-1.09-4.38-7-5.62-11.06-1.38-4.54-3.29-8.93-4.91-13.4-.79-2.18-1.63-4.62,1.53-5.56,3-.89,4.73.63,5.49,3.56q1.32,5.1,2.86,10.13c.36,1.16.87,2.46,2.4,2.52s2-1.39,2.45-2.47a35.43,35.43,0,0,0,1-3.6c2.41-7.43,6.42-8.3,11.87-2.56q4.68,4.92,9.28,9.89c1.41,1.52,2.91,3.07,5.16,2.14,2.77-1.15,2.13-3.65,1.79-5.87-.83-5.46-1.86-10.89-2.59-16.35-.38-2.88-.06-6.11,3.64-6.2,3.14-.08,3.7,2.8,3.83,5.48.24,4.51.54,9,.81,13.54Z"/><path d="M238.45,820.72c0,8.76,0,17.52,0,26.28,0,3-.37,5.62-4.46,5.28s-5-2.76-4.48-6.23c.7-4.46,1.63-8.88,2.25-13.35.67-4.88-1.44-7.19-6.49-6.2-2.46.48-4.87,1.22-7.34,1.61-5.88.92-8.47,3.78-6.32,9.86a17.7,17.7,0,0,1,.74,4.43c.22,2.92,0,6-3.72,6.19s-3.75-2.7-4.11-5.66c-.69-5.7-2-11.32-3.15-17a18.08,18.08,0,0,1-.12-8.18c.53-2.13,1.38-3.78,3.83-3.94,2.13-.14,4.7.28,5,2.39.86,6.28,5.37,5.59,9.57,5.65,4.38.06,8.57-.4,11.14-4.73,1.24-2.09,2.94-3.56,5.57-2.54C239.14,815.7,239.88,817.93,238.45,820.72Z"/><path d="M9.43,815.58c11.94-1,24.1-1,35-7.23,1.75-1,4.07-3.42,5.51,0a4.7,4.7,0,0,1-2.46,6.35c-.23.11-.43.35-.66.36-13,.7-11.32,9.82-10.61,18.43.48,5.74.82,11.48,2.5,17.06.78,2.59,1.9,5.39-.79,7.64a3.64,3.64,0,0,1-4.2.65c-3-1.65-2.35-4.69-2.52-7.38-.49-7.75-1-15.5-1.4-23.26-.3-5.8-2.8-8.33-8.75-6.4a32.39,32.39,0,0,1-14.08,1.68c-3.17-.4-7.35-.24-6.91-4.89.41-4.27,4.16-3.34,7.15-3A21.1,21.1,0,0,0,9.43,815.58Z"/><path d="M276.14,829.18c-.68,3.58,1.76,5.53,2.69,8,.83,2.2,1.25,4.54-.66,6.3-2.36,2.18-4.12,0-5.87-1.28a31.45,31.45,0,0,1-3.37-3c-1.83-1.75-1.56-6.28-5.27-5.28-4.33,1.17-8.34,3.61-10.18,8.12-1.1,2.7-1,6.55-5.6,4.75-3.83-1.51-3.12-4.72-2.15-7.65,2.43-7.34,4.75-14.75,7.65-21.92,2.43-6,6.63-6.47,10.73-1.39,3.18,4,4.72,9.42,11.36,9.66C278.23,825.67,276.55,828.16,276.14,829.18Z"/><path d="M323.23,814.41c-1.31,9.75-1.43,18,.64,26.14.6,2.33.07,4.78-2.85,5.19-2.77.39-4-1.7-4.58-4-1.42-5.39-1.58-10.92-1.66-16.44-.09-5.87-2.72-7.51-8.24-5.76a89.34,89.34,0,0,1-11.71,2.63c-2.53.43-4.54-.71-4.86-3.45s1.32-4,3.91-4.49c8.34-1.7,17-.52,25.29-3.05C322.42,810.16,323.29,813.05,323.23,814.41Z"/><path d="M66.63,851.25c-13.13-.71-20.83-15.36-14.1-26.73,1.19-2,2.69-3.34,4.81-2,2.64,1.63,1,3.75.21,5.89-2.51,7-.33,13.81,5.6,16.92,5.56,2.93,10.68,1.42,15.14-2.66,3.66-3.36,4.12-7.31,1.56-11.5-2.46-4-5.29-7.53-10.86-5.49-1.83.67-4.24,2.11-5.07-.55s2.17-2.75,3.87-3.57c5-2.43,9-.85,12.78,2.93,4.69,4.68,5.38,10,3.33,15.9C81.55,847.05,74,851.64,66.63,851.25Z"/><path d="M364.65,802.55c8.54.22,11.7,4.77,9,11.66-2.64,6.64-7.93,11.48-12.42,16.82-1.33,1.58-3,1.69-4.5,0a4,4,0,0,1-.11-5.48c2.7-3.28,5.72-6.29,8.48-9.51,1.25-1.46,3-3.09,1.52-5.23-1.7-2.38-4-1.44-6.06-.45-.45.21-.83.65-1.29.76-3,.7-6.29,6-8.76.87-2.71-5.65,3.45-6.11,6.68-7.61C359.8,803.18,362.92,803,364.65,802.55Z"/><path d="M367.94,848.7c-3.66-.76-5.08-3-4.92-6.49.13-3,1.27-5.06,4.4-4.69,3.41.4,5.38,2.44,4.69,6.23C371.65,846.27,371.31,848.85,367.94,848.7Z"/></svg>