<svg xmlns="http://www.w3.org/2000/svg" width="1065.43" height="2650.03" viewBox="0 0 1065.43 2650.03"><title>c20-txt</title><path d="M434.93,98.16c-1.35-19-1.85-38.15-10.35-55.88-1.14-2.37-2.15-4.82-.14-7.11,2.47-2.81,4.35-.84,6.33,1,3.83,3.54,7.64,1,11.12-.62a63,63,0,0,1,23.21-5.61c15.15-.87,23,9.88,17.52,24-5.26,13.47-16.5,20.54-29.57,23.43-8.89,2-11.57,5.6-9.95,13.85a42.77,42.77,0,0,1,.82,7.57c.07,3.73,2.33,9.64-3.1,9.93C435.22,109,434.19,103.25,434.93,98.16Zm28.46-59.35C444.4,39.17,436.17,49,440,66.29c1.11,5,3.27,6.55,8.34,5.36,10.12-2.38,17.08-8.5,23.1-16.7,3-4.09,5.78-7.57,3.46-12.59C472.5,37.13,467.54,39.05,463.39,38.81Z"/><path d="M147.89,24.69c-.52-2.31.76-6.82,5.92-8.82,5.59-2.16,6,3.58,8.42,6.36,8.59,10,20.21,16.37,30.11,24.81,1.89,1.61,5.36,3.43,8,1.31,3-2.38.24-5.26-.26-8-.92-5-2.17-9.89-5.07-14.2-1.72-2.56-3.06-5.63.4-7.46a5.27,5.27,0,0,1,7.32,2.92c5.08,12.29,11.83,24.27,5.1,38.41-2.78,5.84-4.95,5.76-9.59,2.21-8.6-6.58-17.49-12.83-26.54-18.78-5.29-3.48-10.21-5.45-9.44,4.89.43,5.66,2.18,15.15-5.46,15.4-9.23.31-4.65-9.35-5.61-14.75C150,41.94,149.25,34.76,147.89,24.69Z"/><path d="M1018.66,58.47c0,3.94-1.25,8.88,3.14,10.78,4.59,2,6.67-2.87,9.59-5.44,7.21-6.34,16.39-7.92,25.42-8.33,7.92-.35,9,6,8.51,12.28-.84,10.38-14.09,23.85-24.35,25.09-9.4,1.14-21.18-8-26.3-17.61-7.19-13.5-5.67-25.89,1.84-38.13,5.38-8.77,20.12-9.33,26.52-1.4,1.16,1.44,2.38,2.95,1.33,4.86C1043,43,1041,42.48,1038.72,42,1023.1,38.44,1018.78,42.05,1018.66,58.47ZM1038,84.08c9.64-.58,15.67-5.41,18.93-13.13,1.37-3.26-1.57-5-5.13-4.91-9.75.13-20.77,6.8-20.63,12.76C1031.27,84,1035,84.11,1038,84.08Z"/><path d="M267.34,77.6c-15.15-.4-20.75-4.42-25.88-18.58-4-11.15-.5-25.46,7.69-33.06,3-2.78,6.5-2.93,10-3.68,3.91-.83,6.58.85,7.41,4.53s-2,5.15-5,5.78c-9.69,2-12.37,9.23-13,17.7-.24,3.14-.41,7.23,3.32,8.51,4,1.36,5.35-2.24,7.21-5,5.76-8.65,13.61-14.09,24.4-14.13,11.21,0,16.07,7.16,11.79,17.29C289.55,70.37,279.37,77.91,267.34,77.6Zm1.41-7.79c7.85,0,19.2-9.66,19.2-15.77,0-4.1-2.87-4.69-5.85-4.76-6.88-.16-20.44,10.79-20.13,16.22C262.25,70.33,266.22,69.39,268.75,69.81Z"/><path d="M576.55,38.1c0-3.8.3-7.43,5.07-8.34,5.28-1,8.8,1.54,9.8,6.36,2.51,12.22,12.26,17.37,21.47,23.21,2.24,1.41,4.42,2.74,6.86.48,2-1.81,1.75-4,.46-5.91-2.88-4.27-.47-10.12-4.72-14.15-1.78-1.68-1.57-5,1.25-6.55s5.19,0,6.23,2.47c3.37,8,7.34,16,9.31,24.36,1.93,8.22-2.69,11.82-11,10.89s-16.35-3-23.29-8c-4.44-3.23-7.22-3.27-7.61,3.3-.14,2.41-1.32,4.82-2.32,7.1s-2.49,5-5.59,4c-2.3-.73-2.57-3.33-2.78-5.51Q578.08,54.94,576.55,38.1Z"/><path d="M987.72,61.85c-.31,5.05.19,11-4.72,13.8s-8.82-1.64-12.73-4.09c-6.09-3.8-13.64-5.41-17.85-12.06a4.06,4.06,0,0,0-4.71-2c-2.4.9-2.75,3.2-2.53,5.48.41,4.39.57,8.74-.83,13-.7,2.17-1.71,4.21-4.36,4.1-2.88-.12-4.93-1.67-5-4.72a90.12,90.12,0,0,0-6.36-30.8c-1.79-4.67,2.66-7,5.93-9.31,3.52-2.51,5.55-.31,8.46,1.73,10.15,7.11,15.61,19.33,27.33,24.67,2.23,1,4,3.68,6.8,2.08,3.2-1.83,2.41-5.16,2-7.89a131.88,131.88,0,0,0-3.76-17c-1-3.36-2.68-6.6,1.72-8.11s6.08,2.08,6.2,5.44C983.6,45,988.57,52.92,987.72,61.85Z"/><path d="M136.17,52.79c-.21,3.06-1.39,5.19-3.93,6.36-2.35,1.09-4.23.26-5.6-1.76-1-1.5-1.91-3.09-2.85-4.64-3-4.93-3.43-13.09-12.11-11.35-8.51,1.7-18.94,1.17-20.57,13.66-.23,1.71-1.44,3.31-2.3,4.9-1.71,3.19-3.42,7.36-7.89,5.66-5.11-1.94-1.45-6-1.26-9.33.7-12,8.16-21.86,10.21-33.54,1.36-7.68,7.12-11.22,14.62-6.2C114.31,23.13,126,28.17,128,42.1,128.76,47.12,135.7,47.76,136.17,52.79Z"/><path d="M537.77,73.62c-1.51,8.71-5.21,15.11-13.79,16.27-9.41,1.26-11.85-6.52-12.63-13.31-1.42-12.47-7.58-24.45-3.62-37.58,1.41-4.65,3.1-7.09,8-8.79,9.1-3.13,18.55-3.5,27.81-5.2,4.53-.83,11.19-1.7,11.55,4.36.3,5-6.16,5.17-10.45,5a69.54,69.54,0,0,0-23.7,3c-3.48,1.05-6.28,2.51-5.23,6.76.94,3.83,3.78,2.95,6.87,3,8.94.29,16.78-4.85,25.61-4.58,1.7.05,3.92-.72,4.24,1.92a3.08,3.08,0,0,1-3.41,3.36c-7.74-.37-14.35,3.41-21.49,5.24-4.42,1.14-9.2,1.77-9.42,7.24-.28,6.93.2,14.91,5.75,19.14C529.14,83.45,530.65,72.85,537.77,73.62Z"/><path d="M40.46,11.24c-5.09.14-11.27-.58-13.9,4.28-3.12,5.75,1,11.32,4.38,15.84,4.74,6.4,10.5,12,15.67,18.13a14.2,14.2,0,0,1,2,16.36c-3,6-8.7,7.07-14.86,6.9C22.59,72.44,7.34,60.88,5,50.83c-.57-2.46-1.44-5.48,1.65-6.65,2.89-1.1,3.05,2.13,4.26,3.74,4.87,6.54,8.11,15,18.21,15.52,4.12.23,8.42.76,10.63-3.51s-.65-7.42-3.67-10.38a91.93,91.93,0,0,1-18.78-25.2c-4-8.21-2.27-14.12,6.22-17.61A119.82,119.82,0,0,1,39,1.36C42.25.5,46.3-1.56,49.07,2.1c1.09,1.44,1.22,4.31.64,6.18C48.16,13.34,43.77,10.87,40.46,11.24Z"/><path d="M381.79,91.1c-8.56-1.73-18.72-2.36-24.11-12.42-1.31-2.43-2.87-6.06.25-7.92,4.1-2.45,4.06,1.88,5.49,4.2,5.52,9,25.4,9.75,31.94,1.44,3.09-3.92.39-6.26-2.1-9.23-8.9-10.62-17.41-21.42-14.21-36.93,1.74-8.45,11.36-16.06,19.81-14.78,2.29.34,4.52,1.11,5.26,3.3,1.05,3.1-1.54,4.31-3.71,5.75-4.51,3-12.42,1.85-12.93,9.77-.54,8.43,2.89,15.54,8.51,21.69.73.8,1.43,1.64,2.19,2.42,5.95,6.17,11.47,12.74,7,21.93S391.67,90.18,381.79,91.1Z"/><path d="M857.66,53.59c.11-8.65,11.67-19.47,20.4-19.11,11.38.48,28.42,16,28,25.55-.43,9.71-13.13,18.61-26.11,18.3C867.44,78,857.49,67,857.66,53.59Zm26.55,14.67c4.87-.87,12.9,1.08,13.19-8.81.16-5.71-11.83-13.92-19.7-14.12-7-.19-9.72,3.48-9.68,10.06C868.08,64,873.05,68.35,884.21,68.26Z"/><path d="M796.65,68.45c-1-7.48-2.49-18.53-4-29.59-.29-2.15-.67-4.29-.82-6.45-.24-3.46.06-6.87,4.56-7.16,4-.25,4.52,2.89,4.83,5.87,1,10.1,2.34,20.18,3,30.3C805,73.69,806,74.59,817.8,70.24c6.46-2.38,12.79-5.12,19.22-7.58,2.73-1,5.77-2.07,8.06.62a8.74,8.74,0,0,1,1.85,8.19c-1.24,4-4.91,4-8.16,3.32-10.24-2-18.06,4.3-26.7,7.62C800,87.07,796.37,84.78,796.65,68.45Z"/><path d="M686.32,23.49c5.29-.23,9.52-1.78,10.5,2.48,1.1,4.79-3.42,4.58-6.52,5-4.91.71-7.71,3.22-5.5,8.12,4.23,9.39,1.41,20.18,6.71,29.53,2.2,3.88.84,10.43-4.51,11.63-6.12,1.36-6.07-4.78-6.81-8.89-1.66-9.26-3.06-18.56-4.68-27.82-1.3-7.46-5.46-9.82-12.51-6.71a13.74,13.74,0,0,1-3.1,1c-4.23.72-10.12,5.32-11.95-1.63-1.9-7.22,4.49-6.3,9.58-7.57C667.76,26.12,678.12,24.94,686.32,23.49Z"/><path d="M905,893a41.06,41.06,0,0,1-23.83-6.65c-5.19-3.32-8.7-3.57-10,3.48-.43,2.35-1.57,4.2-4.14,4.33-3.26.17-4.65-2.5-4.92-4.89-1.31-11.46-.11-23.17-3.73-34.45-.67-2.1,1.76-4.89,3.66-4.74,13.55,1.09,24.78-9.31,38.4-7.47,3,.4,7.17-2.54,8.88,1.31s0,8.06-3.06,10.94c-4.73,4.49-9.8,8.66-14.87,12.78-2.79,2.27-6.91,4-6.3,8.12.54,3.75,4.87,4,7.82,4.92,9.42,3,19,5.35,28.9,2.24,3.41-1.07,7.35-1.77,8.46,2,1.55,5.19-3.92,5.57-6.93,6.18C917.38,892.31,911.17,892.45,905,893Zm-9.4-41.1c-.33-.61-.53-1.57-1-1.77-6.53-2.61-10.59,2.86-15.54,5.12-4.3,2-5.79,6.1-5.38,10.77a2.47,2.47,0,0,0,1.26,1.53C878,869.14,895.83,855.61,895.64,851.93Z"/><path d="M832.87,874.32c-2.06,5.55,3.73,9.22,3.46,14.42-.15,2.86,1,6.18-2.77,7.35-4.09,1.28-6-1.35-7-4.84a8.83,8.83,0,0,0-.19-1.07c-2.43-5.69-2.13-14.79-10.88-13.95-8.37.81-17.39,3-20.9,13a22.18,22.18,0,0,1-4,6.41c-1.94,2.35-3.68,6.39-7.67,3.81s-1.36-5.52.54-8.24c2.33-3.34,2.32-6.1-2.35-7.28-2.95-.75-4.18-2.61-3.6-5.65s3.17-4.09,5.7-4c8.9.21,11.29-5.41,11.24-12.66,0-6.8,2.62-10.92,9.25-12.82s9.62,1.22,13.18,6.31,6.45,11.52,14.11,12.59C835.36,868.25,834.17,871.49,832.87,874.32Z"/><path d="M743.51,860.59l-27.31,9.94c-4,1.45-9.35,1.73-9.6,7.36-.25,5.34,2.62,9.78,6.77,13.1,4.56,3.65,9,.69,13.3-.82.93-.33,1.47-1.68,2.4-2.16,3.19-1.65,3.77-9.8,8.26-5.86,3.95,3.47-2.13,7.33-4.51,10.49-5.42,7.19-12.63,11.15-21.71,8.14-8-2.67-11.88-9.34-12.83-17.38-1.07-9-1.45-18.07-2.16-27.11-.44-5.6,3.61-6.75,7.65-7.2,13.05-1.44,25.44-5.71,38.18-8.45a23.84,23.84,0,0,1,5.39-.56c2.81,0,6.39-.6,6.65,3.63.23,3.69-2.73,5.11-5.76,5.23-10.27.4-20.06,3.21-29.91,5.64a48.25,48.25,0,0,0-9.14,3.5c-1.91.92-4.12,2.37-3.07,5s3.62,2.08,5.66,1.56c7.76-2,15.46-4.13,23.19-6.17C737.56,857.77,740.36,855.83,743.51,860.59Z"/><path d="M646.87,897.6c1.82-8.21-.26-11.78-9.34-13.11-12.88-1.88-21.55-18.78-17.92-31.44.81-2.81,2.74-4.57,5.45-4.43,3.67.2,4.6,3.35,4.65,6.33.11,5.81,0,11.43,3,16.89,2.54,4.67,6.21,6,10.74,5.33,5.2-.73,4-5.22,4.16-8.65.3-5.8.55-11.61.65-17.41,0-3.33,1.41-5.81,4.59-6.53,4.08-.94,4.47,2.47,5.4,5.23,2.49,7.41,3.4,14.92,1,22.48-3.39,10.59-2.78,21.49-2.88,32.35,0,4.46,0,8.91,5.37,10.64,2.7.86,4.67,2.31,3.4,5.54s-3,6-6.72,6.41c-3.42.4-6.4-.45-7.89-4.23C647.21,914.68,648.34,905.81,646.87,897.6Z"/><path d="M967.12,900c-4.14-.08-7.44-.2-10.27-2.14-3.91-2.67-12.12-3.36-9.82-9.43,2.49-6.57,7.8.28,11.89.87,4.38.62,9.54,1.94,11.55-2.77,1.87-4.39-3.7-5.33-6.31-7.4-6.27-5-12.06-10.37-16.09-17.41-7.17-12.57-5.09-18,8.47-22.88,2.9-1,5.71-2.34,7.32,1.37,1.34,3.1-.86,4.83-3.45,5.64-8.55,2.69-6.35,7.29-3.47,13.42,4.37,9.28,13.1,13.36,20.47,18.92,7.9,6,8.39,12.37.16,18.44C974.16,899.11,970.19,899.35,967.12,900Z"/><path d="M546.79,633.28c-7.86,2.72-14-3.58-21.21-6.53-3.6-1.48-4.59-3.9-3-6.77,2-3.67,5.3-3.57,8.12-.7,7.36,7.47,15.87,5.87,24.46,3.22,2.69-.83,6.11-1.65,6.24-5.2.16-4.09-3.71-3.79-6.32-4.55-11.78-3.42-17.56-9.84-17.08-19.14.45-8.89,8.94-17.86,19.39-19.45,4.06-.62,9.91-3.26,11.44,4.11,1.48,7.16-3.38,10.21-8.88,11.24-4.1.77-9.81-1.55-10,4.86-.18,5.34,5,7.66,9.45,9.28a41.14,41.14,0,0,0,9.52,2.05c3.87.41,9-1,9.8,4.4.72,4.76,1.16,9.84-3.8,13.83C566.85,630.41,557.86,633.17,546.79,633.28Z"/><path d="M320.57,598.34c.1-7.8-.24-14.23-2.27-20.59-1.24-3.9-.59-8.11,2.78-11s5.69.7,8.59,1.52c5.15,1.45,10.7,1.51,16.09,2,12.08,1.12,22.44,8.91,24.29,18.35,1.88,9.59-6.81,25.12-17.16,30.69-8.48,4.56-22.23,2.55-29.46-4.58C318.28,609.66,321.24,603,320.57,598.34Zm8.8-8.22c3,7.79-2,20.49,10.55,22.57,9.53,1.58,21.55-11.93,21.25-20.88-.26-7.57-9.05-12.1-22.31-12.34C331.14,579.33,328,582.22,329.37,590.12Z"/><path d="M393.85,611.18c3-10.42,5.71-22,9.8-33,2.61-7,13.52-8.51,18.89-2.94,6.65,6.9,13.84,10.48,23.31,6.65,3.31-1.33,5.83-.82,6.77,2.83,1,4-1.36,5.2-4.86,5.08-10.27-.38-7.77,4.66-4.25,10.07,1,1.52,2.43,2.78,3.24,4.37,2.19,4.34,1.84,9.46-1.88,11.8-4.36,2.75-5.67-2.95-7.61-5.5-2.83-3.73-4.68-8.2-7.55-11.88-6-7.69-13.17-6.94-17.88,1.74-2.92,5.38-3.79,11.82-8.61,16.22-1.86,1.7-3.44,4.26-6.37,3C393.66,618.25,393.54,615.17,393.85,611.18Z"/><path d="M507.12,585.11c-1.05,16-2.63,32.62.81,49.26.87,4.19-1.63,7-6.05,7.34s-5.64-2.53-5.48-6.22c.27-6.54-2.3-12.94-.67-19.54,1.7-6.92-1.06-9.83-8-8.12-11.07,2.71-17.1-2.37-20.48-12.44-1.38-4.1-3.92-7.78-5.51-11.82-1.71-4.36-4.24-10,1.93-12.2,6.73-2.44,8,4.2,8.31,8.4.43,6.5,4.71,10.43,7.63,15.33,2.65,4.44,6.63,5.48,11.25,4.42,5.24-1.21,4.91-5.4,4.84-9.55-.05-3.61.32-7.09-1-10.73-1.81-5.19-.43-9.85,5.79-10.45,6.66-.64,6,4.69,6.13,9.06C506.69,580,506.92,582.21,507.12,585.11Z"/><path d="M618.53,619.37c1.05,10.09-5,17.19-10.19,24.65-1.19,1.73-2.63,4-5.16,3-3-1.21-3-4.52-2.12-6.63,3.47-8.77,7-17.41,8-27,.34-3.22,3.73-4.63,6.87-3.45C620.71,611.75,618.21,616.11,618.53,619.37Z"/><path d="M218.24,332.74c.26-9.95-3.39-19.26-4.81-28.93-.82-5.65-.79-10.72,6.86-6,6.51,4,8.24-2,11.35-4.76,8-7,16.64-6.91,23.9.63,6,6.23,5.89,18.31-.2,24.55-8.39,8.6-7.74,10.88,3.84,14.4a12.77,12.77,0,0,0,7.45-.15c2.86-.79,5.84-1.38,7.7,1.87,1.64,2.84,1,5.61-.73,8.19-2.16,3.21-5.16,2.08-7.84,1.13-9.9-3.49-20.74-3.46-30.32-8.09-4-1.94-6-.63-7,3.57-.86,3.66-1,9.24-6.15,8.61-6.16-.76-4.09-6.5-4.09-10.65Zm18.63-13.91c5.48-3.05,12-6.29,12.66-14.18.28-3.48-1.64-7.36-6.57-6.85-5.2.54-12.49,11.21-11.77,16.9C231.57,317.63,232.77,319.51,236.87,318.83Z"/><path d="M49.77,291c-1-4,.18-6.81,3.31-7.71,4.17-1.21,4.63,2.33,5.11,5.22,2.17,12.86,4.26,25.73,6.42,38.6.47,2.76,0,5.41-2.62,6.53-3.42,1.44-5.54-1.16-6.89-3.72A20.63,20.63,0,0,1,53,322.7c-1.7-15.24-1.64-15.24-16.74-13.29-2.87.36-5.81.43-8.63,1-6.28,1.3-10.4,3.72-6,11.13,2.34,3.92,3.43,9.22-2.28,10.59-5.13,1.24-7.71-3.28-7.88-8.19-.22-6.37-.25-12.19-8.84-13.46-2.36-.34-4.4-5.75-.3-6.4,8.48-1.35,7.51-6.38,6.26-11.91-1-4.35.08-7.71,4.61-8,5.15-.35,5.62,4.17,5.1,7.72-1,6.69,2.38,8.56,8,8.29s11.58-.89,17.37-1.25S51.75,296,49.77,291Z"/><path d="M314.67,349.39c-9.8,1.42-16.36-4.26-21.64-12.39-1.5-2.31-2.94-4.51-.25-6.63,2.38-1.88,3.88.35,5.47,1.77a39.53,39.53,0,0,0,4.17,3.49c5.08,3.38,11.33,6.42,15.67.94,3.66-4.61-2.41-8.1-5.29-11.54-4.64-5.54-10.54-10-13.87-16.7-5.41-10.93-2.23-19.16,9.16-23.18,3-1.07,5.71-1.68,7.46,1.69,1.45,2.79.35,5.16-2.27,6.35-10.37,4.7-5.66,11-1.44,16.54,4.61,6,10.15,11.39,15.21,17.11,3.74,4.23,7.06,8.89,3.7,14.67S322.45,350.6,314.67,349.39Z"/><path d="M192.06,316.77a25.13,25.13,0,0,1-20.59,24.59c-10,2-16.09-2.82-20.21-12.21-3.06-7-5.92-13.8-7.71-21.29-1.28-5.35-3.43-11,3.29-12.45,7.81-1.74,6.44,6,7.38,10.36A85.42,85.42,0,0,0,160,324.34c3.31,7,7.74,8.93,14.79,5.89s10.12-8.49,7.75-15.69c-1.55-4.7-4.69-8.92-7.44-13.15-1.48-2.27-3.05-4.25-.72-6.68,2.81-2.93,5.75-1.39,7.48.92C187.07,302.61,190.89,310.32,192.06,316.77Z"/><path d="M90.93,289.82c14.66-.16,30.19,13.53,30,26.42-.12,7.81-8.34,15.43-16.72,15.51-12.92.12-23.41-11.85-23.61-27.53C80.5,297.19,80.91,289.84,90.93,289.82Zm-.4,17.36c.26,8.18,6.23,14.93,13.08,14.13,3.86-.45,8.87-1.05,7.76-6.77-1.53-7.84-7.31-12.25-14.74-13.82C92.6,299.87,89.49,302,90.53,307.18Z"/><path d="M370.24,377.72c-4.9-1.86-6.15-5.62-3.6-9.47a82,82,0,0,0,11.41-24.46c.71-2.7,2.59-4.56,5.65-3.61a4.23,4.23,0,0,1,2.86,5.24A96.75,96.75,0,0,1,373,376C372.48,376.82,371.24,377.14,370.24,377.72Z"/><path d="M506.87,1204c-20.79-.59-37.87-15.39-41.83-36.24-4-21,6.41-40.52,25.63-48.39a115.88,115.88,0,0,1,12.13-4.56c8.59-2.45,16.29-3.17,23.13,3.94,8.13,8.45,12,18.27,9.11,29.84-2.34,9.52-16,17.28-27,15.9-1.79-.23-3.51-1.12-5.29-1.23-4.78-.31-11.13,2-11.35-6.07-.23-8.24,5.86-12.29,12.33-14.88,4.59-1.84,9.53-1.47,10.41,5.49.41,3.26,2.86,3.85,5.74,3.23,3.65-.8,5.51-3.19,6.16-6.76,1.66-9.13-6-19.65-15.49-19.77-14-.19-26.2,5.6-33.21,17.48-7.18,12.19-4.76,25.77,2.52,37.39,7.79,12.42,20.82,16.44,34.3,13.43a33.16,33.16,0,0,0,23.32-19.51c1.14-2.62,1.39-6.7,5.17-5.53,4.27,1.32,2.5,5.33,1.71,8.41C540.53,1191.19,522.6,1204.47,506.87,1204Z"/><path d="M109.39,1173.83c-6.63.41-12.39-.76-16.16-6.92-.71-1.15-2.51-2.92-3.09-2.68-14.44,6-23.24-6-33.62-11.29-9.07-4.6-10.77-3.08-10.06,5.94a13.42,13.42,0,0,1-.28,4.34c-1,4-.76,9.65-6.76,9.6s-4.7-5.46-5.28-9.13c-1.41-9-2.8-18-3.84-27-.43-3.74-2.31-8.76,2.65-10.6,4.49-1.66,9.21-1,12.61,3.61,6.9,9.28,17.32,14.3,26.3,21,2.14,1.61,4.87,4.51,7.72,2.75s.87-5.41,1.37-8.19c1.16-6.46-3.28-10.93-6-15.9-1.81-3.27-2.9-6.33.87-8.39,4.63-2.53,7.09,1.12,8,4.64,2.23,9.11,3.81,18.38,5.58,27.59.69,3.61-.55,9.25,6.45,5.38,2.25-1.25,4-.1,5.58,1.83,6.23,7.56,13.26,2.81,19.54.41,4.38-1.67,2.36-4.84-.24-7.68-8.55-9.34-8.08-25.54.75-34,2.4-2.31,5.12-5,8.44-2.2,3,2.51,2.11,5.7,0,8.78-10.17,14.68-7.35,22.21,10,26.28,3,.7,4.56,1.44,4.69,4.64.16,4.3-.63,7.89-4.95,10A75.25,75.25,0,0,1,109.39,1173.83Z"/><path d="M867.46,1147.32c-.41,5-.81,10.74-4.91,15.53-2.09,2.44-4.46,5.24-1.38,8.61,2.58,2.82,5.9,2.56,9.12,1.65a24.43,24.43,0,0,0,5.94-2.69c2.87-1.76,5.38-2.42,7.19,1.23,1.56,3.15.68,6.06-2.22,7.5-7.54,3.75-14.81,10.25-24,3.33a18.87,18.87,0,0,0-6-2.6c-5.54-1.64-9.45-9.12-15.25-7s-2.9,9.77-4.58,14.76c-.58,1.69-.84,3.79-3.15,3.81-3,0-5.3-2.31-5.19-4.66.66-13.39-6.58-25.18-7.34-38.22-.15-2.52-1-5.32,2.18-6.58,2.59-1,4.82-.6,6.53,2.08,3.71,5.8,6,1.39,7.74-1.57,3.67-6.25,10-8.38,16.07-10.44C859.64,1128.2,867.79,1134.56,867.46,1147.32Zm-21.23,11.29c9.68.63,12-4.72,12.68-11.44.38-3.93-2.27-5-5.61-4.5-6.68,1-13.62,3.28-15,10.29C837.14,1159,843.65,1158.13,846.23,1158.61Z"/><path d="M269.19,1145.14c-.1,20-23.7,36.42-42.87,31.93-11-2.58-14.69-7.32-15.42-17.91-.58-8.54-3.56-17-5.79-25.34-1.32-5-2-10.58,3.41-12.14,6.65-1.92,5.44,4.66,6.28,8.55.61,2.81.63,6.47,3.48,7.59,3.63,1.41,4.42-2.91,6.27-4.78,8-8.12,34.1-7.77,41.67.79C269.09,1137.07,269.29,1141.08,269.19,1145.14Zm-43,9.44c-.42,14.27,5.25,17.77,16.9,11.76,7.36-3.79,11.91-10.52,16.5-17,2-2.78,2-6.81-1.74-8.47a31,31,0,0,0-24.39-.6C226.65,1143,226.55,1149.82,226.19,1154.58Z"/><path d="M954.53,1184.31c-9.69-1-18.91-5.75-27.49-12-2.12-1.55-3.69-5.86-6.9-3-2.73,2.44-1.4,6.21.35,9.08,1.31,2.13,3.61,3.69,4.79,5.87,2,3.65,1.45,7.21-2.5,9.3-3.76,2-6.52-.07-7.82-3.4a57.53,57.53,0,0,1-3-11.53c-1.84-11.12-3-22.4-10.19-31.81-3.21-4.19-1.6-8,2.5-9.92,4.82-2.27,4.61,2.58,6.06,5.24,3.1,5.68,2,15.6,7.65,16.84,4.27,1,10.5-6.12,15.6-10,5.77-4.36,12.86-6.85,17.63-12.65,1.72-2.11,4.37-3.14,6.77-1.34,3,2.27,1.74,5.51.26,7.87-3,4.77-7.92,7.42-12.9,9.52-4.26,1.79-8.51,4-8.48,8.72,0,4.53,5,6,8.51,7.54a65.83,65.83,0,0,0,15.54,4.8c4.44.77,10,.68,9.89,6.09s-6.37,2.8-9.71,4.22C959.5,1184.39,957.5,1184.09,954.53,1184.31Z"/><path d="M708.65,1167.74c.05,4.91-.12,11.61-6.36,15-5.92,3.21-10.36-2.18-14.64-5-18.33-11.89-18.41-12.15-25.92,8.71a22.93,22.93,0,0,1-6.47,9.77c-4.63,4.09-8,2.92-9.12-3.18a170.55,170.55,0,0,0-10.24-34.33,21,21,0,0,1-1.44-6.31c-.23-2.88-.65-6.72,2.58-7.65,4.29-1.24,5.37,3,6.22,6,1.89,6.63,3.06,13.48,5.06,20.08.86,2.84.85,7.3,4.87,7.57,3.5.24,4-3.87,5.09-6.32,2-4.27,3.18-8.86,4.88-13.26,2.67-6.92,6.84-9.37,13.22-3.95,5.49,4.66,11,9.3,16.3,14.19,1.63,1.51,2.83,3.65,5.32,2.35s3.15-3.75,2.67-6.56c-1-6.09-2.19-12.18-2.88-18.31-.27-2.39-.45-5.9,2.44-6.63,3.47-.89,3.47,2.89,4.37,5C707.47,1151.77,708.28,1159,708.65,1167.74Z"/><path d="M299.07,1145.84c.2-2.91.63-5.82.57-8.72-.35-15.4-.41-15.52,14.88-17.47,8.27-1.06,16.59-1.74,24.89-2.45,4.42-.37,8.57,1,8.91,5.87.41,6-4.95,4.56-8,4.17-8.22-1-15.64,3.06-23.72,2.86-6.45-.17-7.78,5.47-7.42,10,.45,5.69,5.5,3,8.73,2.83,5.44-.31,10.86-1.11,16.3-1.54,2.67-.2,6.41-2,7.18,2.3.66,3.62-3,5-5.53,5.82-6.5,2.1-13.21,3.59-19.88,5.1-2.93.67-5.92.9-6,4.87a11,11,0,0,0,4.65,9.41c3.23,2.45,6.09.56,9-1.13s4.8-9,8.64-4.87-1.37,8.59-4.64,11.85c-10.47,10.45-22,7.83-26.92-6.27A44.24,44.24,0,0,1,299.07,1145.84Z"/><path d="M745.36,1163.48c.35-13.44,8-24.4,17-24.44,13.29-.06,27.14,14.34,26.89,28-.18,9.8-14,22.4-24.68,22.41C753.51,1189.42,745,1177.92,745.36,1163.48Zm22.71,14.64c7.54-.68,12.1-5,11.76-12.5-.36-7.85-6.56-12.78-13.41-13.4-7.32-.68-10.12,5.52-10.19,12.51C756.14,1172.7,758.7,1178.23,768.07,1178.12Z"/><path d="M10.85,1140.77c-.06,6.47-1,13,3.69,18.69,3.06,3.78.62,7.57-1.84,10.84-1.59,2.11-3.84,1.9-5.87.85-3.58-1.84-5.48-5-4.85-8.93,1.68-10.52.3-20.94-.61-31.39-.33-3.77-.74-7.93,4.48-8,4.15,0,4.9,3.61,5,7.05C10.92,1133.52,10.85,1137.14,10.85,1140.77Z"/><path d="M173.81,1127.6c-.11-2.83.71-6.16,4.55-6.82,4-.69,4.11,3.14,5,5.74,3.28,9.11,2.87,19.06,7.7,28,2.69,5-2.17,10.28-7.3,11.11-6,1-5.16-5.19-5-8.61C179.2,1147,175.56,1137.86,173.81,1127.6Z"/><path d="M166.93,1427.32c.55,3.85,1.38,7.69,1.54,11.55.1,2.33-.57,5.07-3.84,5.09a4.09,4.09,0,0,1-4.24-3.92c-.93-11-2-22-4.24-32.91a4,4,0,0,1,2.37-4.49,3.44,3.44,0,0,1,4.49,1.92c1.29,2.59,1.74,6.69,5.63,6,7.52-1.41,15.77,1.79,22.65-3.64,6.52-5.14,11-3.39,12,4.81,1.08,9.21.73,18.59,4.84,27.35,1.28,2.75.49,6.23-3.36,7.11-3.53.82-5.7-.82-6.35-4.51-1.08-6.21-2.3-12.39-3.42-18.59-.94-5.2-3.44-7.34-8.88-5.27a38,38,0,0,1-12.36,2.25C169.35,1420.16,166.14,1422.1,166.93,1427.32Z"/><path d="M58.4,1422.27c-.27,4.74-.32,8.37-.71,12-.93,8.69-4.58,10.28-11.86,5.42-4.43-3-6.95-10-12.72-9.14-6.24.94-4,9.36-8,13.19-2.06,2-2.65,5.82-6.38,5.58s-5.6-3-6.79-6.39c-3.22-9-5.64-18.39-11.06-26.54-2.13-3.2-.05-6.44,2.54-7.51,3.19-1.3,3.23,2.32,4.09,4.46,2.73,6.84,8.16,12.62,7.69,20.72-.09,1.46,1.49,2.54,3.18,2.65a3.28,3.28,0,0,0,3.35-2.5,83.21,83.21,0,0,0,2.81-9.49c2.26-10.27,3.34-10.69,11.58-3.83,2.54,2.12,4.82,4.54,7.33,6.7,1.87,1.61,4,3,6.54,1.44,2.19-1.33,1.57-3.55,1.66-5.67.2-4.7-1.87-8.75-3.07-13.07-.84-3-.59-6.81,2.69-7.7,3.58-1,5.3,2.74,5.81,5.57C58,1413.13,58.07,1418.29,58.4,1422.27Z"/><path d="M265.25,1426.28c.35,9.37-7.77,18.26-17,18.63s-15.67-6.31-16-16.53c-.45-12.49,4.24-20.4,12.1-21C255.94,1406.51,266.44,1415.27,265.25,1426.28Zm-24.18.28c-1.36,6.22,2.79,9,7.85,9.13s8-3.68,8.11-8.85c.19-5.73-1.76-10.09-8.37-10.25S241.27,1421.28,241.07,1426.56Z"/><path d="M381,1423.72c.47,6.6.84,13.22,1.48,19.81.34,3.57,0,7.47-3.55,8.33-4.47,1.09-4.75-3.22-5.57-6.45-1.58-6.27-.37-12.63-.9-18.93-1.45-17.33-1.6-17.5-20.33-12.67-1.65.43-3.07,1.86-4.51,2.93-2.49,1.85-4.55,1.16-6.24-1.06-1.88-2.47-.92-4.21,1.37-6,6-4.77,13.17-6,20.37-6.64,16.48-1.37,16.49-1.19,17.81,15.26.15,1.81.26,3.62.39,5.43Z"/><path d="M326.69,1422.79c-.15,10.42-4.82,17-12.7,21.45-5.59,3.14-13.56-.18-16.93-7.5-3-6.53-5.14-13.46-7.53-20.26-.9-2.55-2-6,1.24-7.1,4-1.38,6.18,2.07,7,5.21,1.25,4.65,1.88,9.54,4.56,13.6,2,3.08,3.51,7.71,8.5,6.79,3.25-.6,6.64-2.49,7.3-6,.74-3.93,2.12-8.53-2.59-11.42-3.54-2.18-3.66-4.55-.34-7,3.1-2.27,6.16-2.78,8.3,1.2C325.53,1415.53,327.14,1419.43,326.69,1422.79Z"/><path d="M132.2,1420.68c.39,7.15-.17,14.5,3,21.2,1.86,3.88,2.06,7.64-2.63,8.59-4.3.87-6.29-2.94-6.72-6.71-1-9-2.31-18-2.23-27,.06-7.37-3-9.17-9.32-8-4.43.85-8.84,1.84-13.24,2.86-2.28.53-4.26.5-5.14-2.12-.82-2.44.36-4.21,2.47-5.15,8.63-3.86,18-4.38,27.19-5.93,3.45-.58,5.11,2.63,5.39,6C131.43,1409.88,131.8,1415.28,132.2,1420.68Z"/><path d="M76,1402.52c3.47.07,3.88,2.71,5.06,4.77,4.6,8.06,3.59,17.64,7.11,26,1,2.44-.47,4.68-3.32,5.45-3.08.85-4.83-.85-5.18-3.48-1.24-9.25-2.91-18.3-6.93-26.88C71.68,1406.07,72.55,1402.88,76,1402.52Z"/><path d="M660.9,1282c0,7.21-4.69,11.43-10.18,14.49s-3.79,4.75.44,6.43c6.77,2.68,11.68,8.92,19.55,9.66,3.48.33,4.1,3.65,3.33,6.64-1.07,4.1-4.53,3.25-6.9,2.14-8.38-3.92-16.7-8-24.76-12.58-6.23-3.51-10.44-4.26-11.37,4.7-.23,2.11.17,5.83-3.8,5.29-2.81-.38-2.83-3-3-5.34-.79-9.84-1.36-19.69-7.58-28.14-2.07-2.83-.93-5.49,2.35-6.75s5.09.83,5.55,3.5c1.76,10.16,5,6.92,9.26,1.43,5.29-6.86,13.2-8.17,21.13-8.71C659.72,1274.47,661.16,1277.75,660.9,1282Zm-23.13,13a23.58,23.58,0,0,0,12.84-8.45c.71-.92,1.14-2.3.11-3-4.09-2.63-7.6.58-11,1.91-2.8,1.1-5.75,3.6-5.4,7.53C634.5,1294.64,636,1295.14,637.77,1295Z"/><path d="M43.07,1295.65c-.42-4.83-.68-9.06-1.2-13.25-.15-1.26-.41-3-2.3-3-1.67,0-2.34,1.3-2.72,2.74a40.83,40.83,0,0,1-4.9,11.63c-5.64,8.91-10.13,9.11-16.31.35-1.07-1.52-1.35-4.41-3.88-3.51-2.28.81-1.35,3.33-1.16,5.23.46,4.78,1.23,9.55,1.33,14.33.06,2.88.83,7.51-3,7.78-4,.29-3.52-4.28-3.77-7.19-.49-5.89-.55-11.81-1.1-17.69-.52-5.61-1.27-11.22-2.27-16.77-.57-3.15-1.72-6.43,2.06-8,4.1-1.71,5.16,1.88,6.68,4.58,2.76,4.91,5.34,10,8.6,14.53,4.46,6.23,7.67,5.89,10.85-1,2.6-5.62,4.68-11.49,7-17.23.73-1.77,1-4.23,3.38-4.41,3.15-.24,3,2.86,3.88,4.72a24.61,24.61,0,0,1,1.85,5.61c1.79,8.81,1,18,3.91,26.69,1.11,3.33-.13,8.7-3.91,8.94s-3.63-4.88-3.77-8.13A45,45,0,0,1,43.07,1295.65Z"/><path d="M562.11,1309.78c.13-5.63,3.63-10,5.4-14.93,2.45-6.83,3.16-14.28,4.82-21.42.54-2.31.64-5.48,4.22-5.42,3.33.06,2.13,3.41,3.27,4.88,5.26,6.81,9.14,15,16.46,19.87,6.06,4,5.14,10.42,6.85,15.91A3.67,3.67,0,0,1,600,1313c-2.15.32-4.17-.48-4.85-2.58-2.1-6.58-6-7.72-12.39-5.69-4.76,1.5-10.07.88-12.92,6.43-1,1.94-2.18,5.19-5.64,3.68C562.05,1313.94,561.89,1311.8,562.11,1309.78Z"/><path d="M463.4,1284.94c0-3.1-.07-6.2,0-9.3.12-3.87,1.88-7.07,6-6.47s5.06,4.26,3.69,7.9c-2.15,5.69-2.5,11.55-2.48,17.51,0,3.46,1,6.39,4.8,6.83,5.07.58,4-3.65,4.39-6.44.83-6.37,2.8-12,8.38-15.86,4.73-3.25,9.61-5.09,14.68-1,5.32,4.3,6.13,10,3.74,16.06-4.9,12.33-23.68,20.17-35.7,15.07-5.44-2.31-6.61-7.55-7.47-12.49-.67-3.83-.14-7.87-.14-11.82Zm28,15.36c3.22,0,10-6.91,10.2-11.12.13-3.22-1.29-5-4.45-4.33-6.31,1.32-9.13,6-10.11,11.87C486.69,1298.9,488,1300.43,491.42,1300.3Z"/><path d="M439.83,1285.11c.47-3.69-.82-5.89-2.28-8-1.78-2.59-.2-4,1.63-5.63,2.61-2.3,4.25-.49,5.46,1.37,1.35,2.06,3.36,4.09,3,6.81-1,7.25-1.78,14.57-3.5,21.66-1.79,7.35-4.85,7.7-10.24,2.46-3.59-3.49-7.75-6.41-11.69-9.55-4.11-3.27-6-1.94-6.13,3,0,1.7.06,3.39,0,5.08-.18,3.08,0,7-4.35,6.75-3.69-.22-4.45-3.61-4.65-7-.44-7.22.47-14.59-4.54-21.06-2.56-3.29.41-6.52,2.9-8.78,3-2.73,6-1,8,1.53,4.58,5.84,10.93,9.7,16.07,14.89,1.88,1.89,3.33,5.35,6.67,4.24C440.22,1291.55,438.7,1287.1,439.83,1285.11Z"/><path d="M899.42,1271.38c6.94.42,13.37-1.92,19.75-4.09,2.42-.83,4.17-1.61,5.62,1.1.89,1.65,3.22,2.81,2.17,5.12-1.17,2.57-3.74,2.35-5.92,2.12-5.84-.61-11,2.08-16.55,3-3.67.61-4.53,2.76-3.82,6.1s2.75,3.85,5.67,3a99.65,99.65,0,0,1,10.52-3c1.85-.36,4.8-2.61,5.64.92.7,2.91-2.34,2.22-4,2.86-3.68,1.36-7.17,3.27-10.9,4.49-3.38,1.1-8.12.66-7.25,6.08.63,3.9-.06,9.08,5.33,10.49,4.84,1.28,8-1.46,10.44-5.37,1.16-1.9,1.33-6.07,4.88-3.53,2.34,1.69.73,4.73-.59,6.9-6.13,10.13-14.58,12.88-21.47,7.34-3.54-2.84-4-6.6-4.31-10.58-.27-3.46-.21-7.2-5.64-5.78-1.52.4-2.72-.53-3-2.2s-.23-4,1.58-4.35c7.88-1.62,5.88-7.14,4.6-11.84C889.74,1271.32,889.93,1270.87,899.42,1271.38Z"/><path d="M363,1281c-1.14,8.41-2.13,16.85-3.47,25.23-.71,4.41-3.42,5.8-7.32,3.15-5.12-3.47-10.24-7-15.12-10.78-4.05-3.16-6-3-6,2.66,0,4.93,1.38,12.69-4.53,12.84-6.72.17-2.76-7.69-3.7-11.87-1.28-5.71-.18-11.78-2.59-17.51-1.14-2.73-1.38-6.51,2.36-8,3.12-1.28,5.19.79,7.06,3.22a80.57,80.57,0,0,0,15.8,15.28c2,1.53,3.84,3.8,6.67,2.26s2.05-4.39,2.14-6.87c.13-3.39-.09-6.82.33-10.18.34-2.77-.95-7.51,3.55-7.16C361.43,1273.51,363.43,1277.14,363,1281Z"/><path d="M748.25,1304.44c1,4.58,1.9,8.14,2.45,11.76.23,1.5.7,3.63-1.46,4.31s-3.23-.81-3.79-2.49q-5-14.89-9.78-29.83c-.76-2.38,0-5,2.13-5.92,3-1.26,3.9,2,4.39,3.85,1.59,6,5,6.31,10.24,4.85,4-1.12,8.42-1,12.66-1.19,4.74-.21,8.54-.5,9.88-6.73,1.21-5.64,5.07-4.23,7.94-.6,3.11,4,3.8,8.81,4.16,13.6s.2,9.41,2.26,14.06c1.68,3.76,0,7.82-4.42,8.43-5.09.69-4.18-3.67-4.79-7-1-5.74,1.25-12.83-3.22-17-5.27-4.9-10.71,1.55-16.15,2.5C755.72,1298,748.89,1297.33,748.25,1304.44Z"/><path d="M259.68,1273.31c3.24.79,4.53,3.42,6.15,5.7,3.28,4.57,4.68,11.2,12.86,10,2.46-.38,2.92,3,1.13,4.3-5,3.71-2.67,7-.23,10.74,2.2,3.32,1.87,7.24-1.52,8.76-4.29,1.93-5.73-2.58-6.75-5.5-1.18-3.34-.53-8.31-5.43-8.15a17.54,17.54,0,0,0-12.55,5.87,21.93,21.93,0,0,0-3,5.09c-1.13,2.28-2,5.31-5.31,3.84-3.05-1.35-3.5-4.2-2.05-7.18,4.33-8.86,8.15-17.89,10.15-27.61C253.85,1275.59,257.22,1274.84,259.68,1273.31Z"/><path d="M188.74,1292.23c.17,7-2.58,9.54-8.85,8.92-5.63-.56-10.26-3.14-14.61-6.22-4.55-3.22-7.66-4-8.56,2.86-.23,1.7-.45,3.8-2.46,3.89-2.44.12-3.19-2.21-3.52-4.11-1.36-8.06-2.52-16.16-3.78-24.24-.45-2.85-1.12-6.29,2.1-7.43,3.47-1.22,5.69,1.53,6.93,4.6,3.78,9.34,10.43,15.87,19.33,20.37,2,1,3.61,3.14,6,1.42,2.6-1.84,1.86-4.42,1.1-6.91-1.22-4-2.23-8.12-3.72-12-1-2.64-1.87-5.34,1.38-6.3,3-.9,5,2.18,5.1,4.41C185.43,1278.88,187.62,1285.9,188.74,1292.23Z"/><path d="M706,1320c-10.54.35-17.31-4.61-20.27-14.12-2.61-8.4,2.13-22.89,8.72-26.65a12.68,12.68,0,0,1,18.12,6.77c.53,1.54,1.49,3.26-.19,4.64-1.41,1.16-3.44,1.63-4.66.32-4.11-4.42-8.46-4.69-12.41-.47-3.69,3.94-4.83,8.85-2.33,14.11,2.58,5.45,7.06,8.16,12.87,7.76,7.09-.47,13.8-2.19,18.39-8.53,1.2-1.65,3.06-4.6,5.32-3,2.55,1.86,1,5.17-.84,6.69C721.76,1313.42,716.22,1322.19,706,1320Z"/><path d="M66,1303.14l7.5-31.5c.65-2.74,2.29-4.6,5.15-4.79s3.78,2.22,4.54,4.3c2.52,6.9,5.27,13.32,14.54,12.26a2.44,2.44,0,0,1,2.79,2.5c0,1.79-1.35,2.06-2.84,2.36-5.41,1.1-4.29,3.25-.84,5.76,1.34,1,3.14,1.89,3.74,3.26,1.28,3,1.48,6.31-1.86,8.2s-4.29-1.41-5.57-3.37a63.15,63.15,0,0,1-3.73-6.62c-1.73-3.47-4.71-3.5-8-3.21-3.55.32-5.86,2-6.41,5.59a22.46,22.46,0,0,1-2.73,7.89c-1.07,1.88-2,3.57-4.41,2.82S65.73,1305.66,66,1303.14Z"/><path d="M953.31,1316.69c-4.47.3-9.46-1.52-14.35-3.86-2.12-1-4.62-2.14-3.31-4.84,1.14-2.34,3.38-.93,5.15-.08,4.27,2.07,8.73,2.07,13.22,1s6-3.23,2.28-6.92c-4.89-4.89-8.57-10.44-9.85-17.35-1.34-7.28,2.43-14.09,8.87-16.36,2-.7,3.78-1.28,5.11,1,1.23,2.11,1.89,4.32-.45,6-2.84,2.05-7.73,3.09-6.18,7.73,1.92,5.76,4.28,11.55,10,15.05,3.36,2,7.88,3.13,6.78,9.15S964,1316.9,953.31,1316.69Z"/><path d="M222,1300c0-1.69-.09-3.4,0-5.09,1.34-23.25-2.93-17-19.4-13.81-1.88.36-3.52,1.82-5.39,2.44-2.42.8-4.58.14-5.62-2.35-.91-2.17.13-4,2-5a29.67,29.67,0,0,1,7.76-3.25,113,113,0,0,1,13.37-1.67c14.24-1.2,13.83-1.16,14,13.5.12,10-2.77,20.18,1.37,30.19,1.29,3.13-1.1,8-3.8,8.44-4.43.78-4.49-4.14-4.7-7.27-.37-5.35-.1-10.75-.1-16.13Z"/><path d="M876.26,1282.92c-2.22,8.24-2.61,17.24-7.34,24.87-5.58,9-12.89,9.07-18.18-.11-3.94-6.84-6.9-14.24-10.38-21.34-1.34-2.75-1.05-5.08,1.74-6.44s5-.07,6.22,2.59c2.42,5.41,4.8,10.85,6.89,16.39,1,2.82,1.94,5.57,5.54,5.23,3.26-.31,4.63-2.85,5.52-5.71a44.46,44.46,0,0,0,2-15.88c-.18-3.24.31-7,4.34-6.75C876,1276,875.3,1280.13,876.26,1282.92Z"/><path d="M380.44,1272.77c3.43.89,5,3.56,5.65,6.66,1.69,8.24,1.87,16.74,5,24.77,1.1,2.82-.46,6.81-3.94,7.41-3.32.57-4.76-2.85-5.05-5.64-.95-9.22-1.49-18.45-5-27.25C376.18,1276.3,377.26,1273.68,380.44,1272.77Z"/><path d="M826,1311.14c-1.42,2.56.6,6.76-4,6.72-3.53,0-3.13-2.9-3.68-5.47-1.82-8.51-4.06-16.94-6.23-25.38-.67-2.61-1.22-5.43,1.64-6.68,3.62-1.59,4.88,1.67,6.15,4.12C824.25,1292.92,822.17,1302.81,826,1311.14Z"/><path d="M305.47,1309.86c0,3.45-.81,6.31-4.11,6.91-4,.72-4.42-2.6-4.68-5.46-.83-8.94.39-18.12-3.7-26.68a3.77,3.77,0,0,1,2.57-5.43c2.91-.82,3.81,1.33,4.59,3.67C303.11,1291.76,301.4,1301.55,305.47,1309.86Z"/><path d="M123.68,1291.4a48.71,48.71,0,0,0-2-17.43c-.71-2.29-.14-4.87,2.49-5.5,3-.72,4,1.93,4.17,4.13.77,8.67,1.32,17.35,1.8,26,.09,1.63-.33,3.58-2.63,3.58a3.22,3.22,0,0,1-3.28-3.2C123.9,1295.67,123.75,1292.3,123.68,1291.4Z"/><path d="M976.44,2222.11c-3.92,0-6.67,0-9.43,0-8.76-.15-14.19,8.47-10.42,16.5.66,1.4,1.53,2.26,3.09,1.93,11.09-2.36,22.79,1.83,33.64-3.11,2.94-1.34,6-2.31,8.53.55a4.12,4.12,0,0,1,.44,3.72c-1.5,3-4.11,4.32-7.63,4.13-11.62-.63-22.86,5.55-34.69,2a2.57,2.57,0,0,0-3.42,2.78c.59,5.48,1.38,11.25,6.8,14.26,4.59,2.55,8.72,1.79,13.17-1.89,3.19-2.64,7-10.26,11.07-5.6,3.32,3.85-3.14,9-7,12-5.4,4.13-10.12,11.29-18.83,7-8.37-4.08-11.63-11.58-12.51-20.08-1.35-12.94-2.89-25.91,3.12-38.43,1.91-4,3.52-5.76,8.25-5.69,11.31.16,22.7,1.79,34-.86,2.42-.57,5.22-.84,5.79,2.39.47,2.68-1.63,4.39-3.82,5.62C989.87,2223.14,982.4,2221.37,976.44,2222.11Z"/><path d="M681.55,2223.55c.2,9.59-5.8,15-13.27,19.2s-15.8,5.34-24,4.62c-8.81-.77-9.64,3.12-7.14,9.68,1.71,4.5,4.6,8.76.64,13.38-1,1.18-2.53,1-3.72.12-4.51-3.34-4.31-8.28-4.2-13.11.28-11.8-4.51-22.84-5.17-34.49-.19-3.35-1.64-7.3,1.88-9.48,3.8-2.36,3.69,3,6,3.78,1.51.52,3.62.92,4.89.27,10.35-5.26,21.58-3.38,32.44-4.21C678.46,2212.65,681.63,2215.66,681.55,2223.55Zm-32.67,17c9.6-.34,16.67-5.67,22.68-12.32,3.49-3.86,1.93-7.52-3.44-7.35-8.52.28-17.43.7-24.88,5-3.21,1.85-10.71,1.67-9,7.33,1.39,4.61,7.35,6.57,12.58,7.33A15.72,15.72,0,0,0,648.88,2240.55Z"/><path d="M851.62,2220.16c8.08.13,15.28-.27,18.94,7.43,3.89,8.17,1.58,15.72-3.83,22.06-6.75,7.9-14.55,14.8-25.53,16.12-5.63.68-7.16,3.15-4.9,8.33a12.43,12.43,0,0,1,.79,5.05c-.06,2.71.14,6.3-3.2,6.83-3.77.59-5.13-2.56-5.64-5.91-2.17-14.25-4.47-28.49-6.51-42.76-.67-4.71-1.18-9.72,6.63-6.9,3.58,1.28,5.61-2.06,7.71-4.1C840.8,2221.73,846,2218.84,851.62,2220.16Zm1,8.94c-2,.14-4.3-.21-6.1.53-3.11,1.29-5.92,3.31-8.91,4.92-6.55,3.5-9.41,11.23-5.72,16.55,4.64,6.69,10.86,8.11,17.38,3.11,4-3.07,7.1-7.33,10.6-11.06,2.66-2.84,5.2-6,3.37-10C861.22,2228.58,856.91,2228.57,852.65,2229.1Z"/><path d="M695.15,2243.6c.31-17.52,2.09-20.26,19-25.47,7.82-2.42,16-3.66,24.14-5.06,3-.52,6.85-.42,7.38,3.66s-3.12,4.71-6.24,5.19a138.44,138.44,0,0,0-28.94,7.1c-3.78,1.45-6.13,3.2-5.07,7.42,1.32,5.26,5.26,2.89,8.42,2.59.67-.06,1.35-.7,2-.61,5,.74,11.73-6,14.26-.15,1.43,3.31-7.63,4.94-11.86,7.39-4.6,2.66-12.86,1.34-9.08,10.89,2.8,7.08,8.87,9,17.17,5.43,2-.84,3.71-6,6.27-1.37,1.6,2.92-1.69,4.74-3.74,6.57-12.65,11.25-22.37,9-28.38-7.28C698.36,2254.39,691.87,2250,695.15,2243.6Z"/><path d="M759.43,2249.2c-1.72-10.34,6.39-14.89,13.64-19.27,4.71-2.85,23.46,6.86,28.8,13.94,4.26,5.65,4.31,11.43.28,17.23-5.59,8-18.25,12.54-27.54,9.8C766.48,2268.5,759.52,2258.8,759.43,2249.2Zm23.23,12.23c5.64-1.47,11.83-1.8,13.42-8.35,1-4.12-11.12-14.26-16.47-13.49-5.92.87-12.08,3.16-11.73,10.7C768.32,2259.65,776.6,2259.36,782.66,2261.43Z"/><path d="M928.15,2256.91c-9.19,13.7-15.54,16-25.94,11-5.6-2.71-6.86-7.68-8.13-12.43-2.24-8.32-3.1-16.95-1.11-25.5.61-2.6,1.87-5.61,5.37-5.22s4.09,3.69,4.15,6.28c.09,3.73-.89,7.47-1.09,11.22-.78,14.84,8.11,21,21.42,14.82C924.36,2256.37,925.7,2255.12,928.15,2256.91Z"/><path d="M613.76,1950.06c.53,6.51.89,13,1.66,19.53.64,5.3-1.41,6.75-6.43,5.81-12.19-2.28-24.27-4.86-35.39-10.58-3.11-1.6-6.49-4-9.54-2.24-3.93,2.27-1.76,6.83-1.73,10.44a37.54,37.54,0,0,0,.85,5.09c.42,2.8-.64,4.89-3.52,5.27s-5-1.22-5.08-4a122.65,122.65,0,0,0-6.21-33.24c-.91-2.85,1.08-5.27,4.06-6.34s5.59-.75,7.52,1.68c9.55,12.07,23.57,17,36.76,23.31,2.8,1.34,5.65,3.62,8.56,1.26s.88-5.83.74-8.78c-.17-3.41-1.07-6.78-1.24-10.19-.2-3.83-.09-8.54,5.13-8.15,3.89.29,5,4.25,4.51,8C614.29,1948,614,1949,613.76,1950.06Z"/><path d="M690,1954.08c-.55,11-17.28,32-27.13,34.45-8.5,2.11-14.49-2.12-16-10.76-1.59-9.11-3.63-18.15-5.51-27.2-1.32-6.32.19-10.21,7.29-12.07a50.79,50.79,0,0,1,33.16,2.31C688.14,1943.39,690.9,1947.82,690,1954.08Zm-23.25-8.62c-2,.09-3.14-.14-4,.23-4.19,1.66-11.7-.2-11.73,6,0,8.64-.42,18.11,5.5,25.51,2.21,2.77,5.83,1.42,8.46-.64,6.55-5.15,12.39-11,16.26-18.47,2.27-4.4,1.94-8.06-3.43-9.8C673.88,1947,670.17,1944.77,666.76,1945.46Z"/><path d="M363.22,1986.32c-14.64-.84-26.22-5.54-37.06-12.46-2.34-1.49-3.57-3.23-2.78-5.94s2.86-5.06,5.69-5.29c3.5-.29,2.57,3.22,3.44,5.24,2.87,6.67,24,12,29.65,7.46,3.73-3,0-5.11-1.67-6.45-6.34-4.91-9.17-11.94-11.74-19-4-10.88,3.19-23.22,14.22-25.38,2.79-.55,5.82-.92,7.15,2.22,1.25,3-.49,4.91-3,6.79-13.32,9.89-12.72,22.46,1.8,31.38,5.85,3.59,14.3,6,10.71,14.48C376.78,1986.09,368.34,1985.75,363.22,1986.32Z"/><path d="M719.34,1992.42c-4.93-.4-7.77-.25-10.37-1a5.32,5.32,0,0,1-4.05-5.4c.14-3.84,2.87-2.79,5.29-2.61a27.63,27.63,0,0,0,6.14-.41c11.86-1.75,12.82-3.71,7.13-14.21-6.63-12.21-5.68-24.62,2.29-31,2.73-2.19,5.73-5.17,9-2.16s2.45,6.88,0,10.38c-8.84,12.59-6.75,21.35,7.59,26.21,6.7,2.27,4.66,6.77,5.06,10.62.56,5.3-3.69,4.64-7.14,4.68C732.29,1987.64,725.44,1993.55,719.34,1992.42Z"/><path d="M406.2,1961.08c2.16-4.78-2.46-14.28,5.59-14.23,6,0,4.21,8.36,4.23,13.69,0,5.67,3.31,9.19,9.19,8.59,5.58-.56,13,.47,14.53-6.94,1.26-5.94-4.39-7.75-9-9.39-.33-.11-.65-.23-1-.36-3.3-1.3-7.94.18-9.54-4.66-.65-2,.11-3.17,1.74-4.24,4.49-3,9.23-1.56,12.58,1,6,4.65,14.57,8.63,12.89,18.28-1.88,10.81-11.88,13.8-20.35,16.39-7.23,2.2-14.17-1.15-18.42-8.28C406.83,1967.89,405.6,1964.8,406.2,1961.08Z"/><path d="M515.23,1959.16c.08,18.28-7.07,25.81-20.82,24.63-8.24-.7-11.18-7.5-15.19-12.65-3.06-3.94-4.52-9.18-6.41-14-1.25-3.15-.76-6.43,2.34-8.16,4.14-2.31,5.54,1.53,6.72,4.14,1.83,4.06,2.33,8.85,4.67,12.52,3.32,5.17,7.53,10.85,15,6.84s7.53-10.83,5.54-18c-.34-1.23-1.7-2.14-2.43-3.3-2.32-3.7-2.53-8,1.41-9.88,4.87-2.36,5.3,2.56,6.16,5.71C513.54,1951.72,514.57,1956.41,515.23,1959.16Z"/><path d="M796.15,1986.1c4.11.14,4.85,2.55,4.24,5A54.07,54.07,0,0,1,783,2019.43c-1.69,1.48-3.75,1.89-5.56.25s-1.6-3.85-.12-5.53a90.39,90.39,0,0,0,15.61-25.1C793.47,1987.68,795.3,1986.83,796.15,1986.1Z"/><path d="M442.16,1674c-4.1,11.08-2.29,23.2-6.36,34.39-1.91,5.22-4.34,7.53-8.61,3.35-8.18-8-19.59-11.31-27.46-19.65-3.14-3.32-6-2.93-7.92,1.47-.41,1-.67,2-1.16,2.87-2.65,4.88-2.18,13.1-9.63,13.13-8,0-8.07-8.26-10.23-13.71-2.52-6.39-4.52-13-6.47-19.58-1-3.29-.32-6.36,3.66-7.23s6.83,1.1,7.69,5c1,4.7,1.4,9.54,2.28,14.28.29,1.59.95,3.5,3.06,3.53s2.79-1.7,3.31-3.39c.4-1.32.78-2.64,1.08-4,1-4.5,2.38-9.31,7.13-10.65,5.58-1.59,7.29,4.27,10,7.36,5.32,6,12.26,9.78,18.63,14.3,4.82,3.43,7.86,1.22,8.55-4.15.74-5.8,1-11.65,1.47-17.48.3-4-.59-9.44,5.25-9.48C442.49,1664.26,440,1670.68,442.16,1674Z"/><path d="M248.34,1665c13.8,0,25,2.11,34.93,9.24,7.55,5.4,8.37,12.17,5,19.83-5.93,13.5-20.17,20-34.81,16.36a5.1,5.1,0,0,0-3.74.32c-7.2,5.33-8.9-.53-9-5.24-.27-9.86-3-18.77-6.88-27.69-3.58-8.3.27-13.33,9.25-13.17C245.47,1664.68,247.87,1665,248.34,1665Zm6.89,10.2c-7.07-.49-9.24.81-9.46,5.34-.62,12.93,5.45,21.68,15.36,22.16,6.69.32,20.56-10.1,19-16.07C276.68,1673.77,263.63,1678.2,255.23,1675.19Z"/><path d="M75.41,1679.32c-.57,7,2.56,15.35-4.92,19.2-6.79,3.49-13.31-1.41-19.2-4.89-11-6.47-10.84-6.58-15.62,4.94-1.18,2.84-2.38,5.91-4.41,8.11-4.33,4.72-9.24,5.88-11.64-1.61-3.18-9.88-6.7-19.41-12.83-28-2.36-3.29-1.79-7.56,2.61-9.63,4.72-2.21,5.36,1,6.76,4.72,1.82,4.76,4.88,9,5.82,14.23.4,2.25,1,5.31,3.88,5.46,3.45.17,4.14-3.17,5.15-5.67,1.41-3.5,2.77-7,3.87-10.65,1.84-6,4.77-6,8.92-2.08,3.77,3.52,7.4,7.34,11.68,10.11,7.74,5,10.3,3.44,10.26-5.65,0-3.45-.33-6.9-.33-10.35,0-2.64,1.27-5.12,3.82-5.48,3.34-.48,4.93,2.29,5.33,5.15C75.12,1671.34,75.17,1675.51,75.41,1679.32Z"/><path d="M209.15,1693.68c.45,8.44-2.09,11-8.64,8.77-10.41-3.62-21-6.56-30.74-12-5.62-3.16-11.08-4.63-9.5,5.57.29,1.9-.67,4-1.24,6-.76,2.66-1.47,5.8-5.1,5.41-2.92-.32-3.17-3.13-3.79-5.51-2.31-8.93-1.11-18.49-5.28-27.15a5.11,5.11,0,0,1,2.48-7.09,9.11,9.11,0,0,1,9.7,1.43,186.4,186.4,0,0,0,30.05,19.17c3.18,1.59,6.31,3.85,9.53,1.8,3.47-2.2.68-5.54.26-8.44-.6-4.08-1.07-8.2-1.26-12.32-.12-2.73,1.51-4.55,4.27-5,3-.5,5.31,1.63,5.09,3.86C204,1677.77,209,1686.32,209.15,1693.68Z"/><path d="M492.25,1713.7c-5.7.23-11.15-.34-15.07-5.12-1.29-1.57-2.73-3.43-1.72-5.61,1.17-2.51,3.36-1.7,5.35-1.13a13.26,13.26,0,0,0,2,.56c4.56.5,10.68,4,12.84-2,1.71-4.68-4.39-6.91-7.82-9.52-9.86-7.47-9.9-25.29-.1-32.62,2.13-1.59,4.21-2.41,6.49-.46a7.34,7.34,0,0,1,2.33,8.42c-5.53,16.17-3.18,21.72,11.77,27.17,3.32,1.21,8,.45,7.86,6.2-.1,5.05-2.37,8.42-6.88,10.52A40.34,40.34,0,0,1,492.25,1713.7Z"/><path d="M323.12,1671.29c20.58,0,27.8,4.62,27.67,17.79-.1,9.15-16.73,21-28.81,20.57-9-.34-15.3-8-15.35-18.66C306.57,1678.81,312.85,1671.31,323.12,1671.29Zm2,27.71c8.52-.22,16.93-6.54,16.24-12-.84-6.57-5.88-8-11.32-8-8.45.13-12.24,5.24-12.52,13.25C317.27,1698,321.21,1698.9,325.08,1699Z"/><path d="M118.09,1696.06c-1.32-6.16-3.16-14.22-4.71-22.33-.68-3.55-2.38-8.23,3-9.36,4.55-.95,5.35,3.56,6.36,6.71,3.32,10.28,2.23,21.13,3.65,31.68.4,3-.15,7.16-4.11,7.11-4.23,0-5.09-3.88-4.8-7.64C117.59,1700.85,117.75,1699.47,118.09,1696.06Z"/><path d="M561.11,1706.49c-1.46,7.51-3,15.92-4.75,24.3-.67,3.27-2.35,6.25-6.24,5s-3.44-4.42-2.06-7.58c3.19-7.31,4.05-15.15,4.91-23,.43-3.86-1.18-9.79,4.85-9.29C563.24,1696.47,559.9,1702.18,561.11,1706.49Z"/><path d="M244.42,2527c9.17,6.28,17.26,5.58,22.39-1.71,2.13-3,2.65-5.23-2.23-6.06-9.93-1.68-18.47,2.37-27.15,5.94-3.12,1.28-1.78,3.42-.64,5.49s2.2,4.6-.86,5.53c-2.78.85-3.91-2-4.36-4-1.29-5.79-2.2-11.66-3.16-17.52a37.4,37.4,0,0,1-.36-5.19c-.11-3.81-3.89-7.46-.87-11.31,1.63-2.09,20.93-4.71,23.21-3.64,4.81,2.28,6.26,6.62,5.47,11.17-1.11,6.42,1.88,7.88,7.26,7.8,2.23,0,4.64-.2,6.64.55,5.05,1.91,6.1,6.56,5,10.95-2.44,10.13-17.27,15.81-26.24,10.51C245.35,2533.63,243.42,2531.25,244.42,2527Zm-11.63-15.71c.39,1.82-.9,4.55,2.23,5.37,4.27,1.11,14.48-5,15.57-9.27.63-2.49.76-5.11-1.92-6.5C243.43,2498.22,232.93,2505.07,232.79,2511.33Z"/><path d="M416.66,2518.43l4.46.2c2.26.1,5.88-2.06,6.33,1.32.51,3.81-4,3.58-6.15,3.43-8.44-.6-17,3.67-25.45-1.08-3.36-1.88-2.82,1.69-2.9,3.89-.14,4,3.37,10.82-2.72,11-5.24.13-2.47-6.93-2.62-10.68-.27-6.31-.71-12.25-4.94-17.42-2.19-2.67-3.05-6.54.16-8.43s4.26,2.16,5.76,4.22a12,12,0,0,1,1.37,2.64c3.4,8.35,3.44,8.42,10.17,2.5,3.16-2.78,6.06-5.85,9.07-8.79,1.81-1.78,4.21-2.39,6-.81,2.47,2.19-.08,4.2-1.46,5.56-2.45,2.41-5.4,4.32-8.1,6.49-1.28,1-3.37,1.78-2.26,4,.83,1.68,2.45,2.29,4.36,2.24,3-.06,5.95,0,8.92,0Z"/><path d="M433.22,2530.19c7.52,7.95,14.1,6.51,20.85,2.77,5-2.76,3.73-5.39-.47-7-4.65-1.77-7.91-4.9-10.92-8.58-6.54-8-4.29-16.79,5.27-20.3,1.68-.62,3.55-1.11,4.52,1,.83,1.77.08,3.12-1.5,4.44-6.32,5.27-6.07,9.47.6,14.09,1.83,1.27,3.61,2.62,5.53,3.73,8.67,5,8.88,12.63.45,18.39C448.19,2545.09,436.26,2542,433.22,2530.19Z"/><path d="M305.7,2533.36c-7-1.19-13.34-3.38-17.42-9.33-3.25-4.75-1.74-9.24,1.11-13.85,2.69-4.34,5.53-2.08,8.93-1.63,5.64.75,10.39,2.51,14.72,6.31,3.78,3.31,6,7.58,4.22,11.69C315.37,2530.86,310.32,2532.55,305.7,2533.36Zm-.55-7.34c2.55.08,6.15-.57,5.23-3.29-1.77-5.32-7.32-5.84-12.2-6.45-2-.26-5.43-.73-4.71,2.54C294.77,2524.7,300.28,2525.09,305.15,2526Z"/><path d="M337.58,2516.42c.39-4.05.5-9.33,7.21-9.25,11.67.14,19.5,7.19,18.85,16.54-.32,4.64-6.29,9-11.95,8.66C342.28,2531.87,337.17,2526.37,337.58,2516.42Zm13.47,8.83c3.74.3,7.05-.77,6.78-3.69-.43-4.75-4.72-6.63-9-7.47-3.16-.62-4.73,1.58-4.75,4.28C344.05,2523.29,347.16,2525.26,351.05,2525.25Z"/><path d="M18.34,2490.42c1.44,9.77,2.9,19.54,4.31,29.32.53,3.67,1.52,7.89-1.71,10.42s-7.18.47-10.52-1c-10-4.48-12.75-10.63-8.47-18.35.91-1.65,2-3.29,3.93-2.4s.5,2.51.12,3.88c-.8,2.85-1.91,5.85.38,8.47a8.85,8.85,0,0,0,8.84,2.61c3.09-.7,2.56-3.91,2.29-6.31-1.1-9.84-2.39-19.65-3.52-29.48-.29-2.52-2.12-6.56,1.45-6.94s3.69,3.73,3.57,6.76c0,1-.11,2-.17,3Z"/><path d="M68.91,2504.38c-.29,7.28-2.06,13.16-7.6,17.61-6.76,5.42-14.89,1.69-18.41-3.72-4-6.14-4.56-12.95-3.81-20,.14-1.25.22-2.81,1.47-3.13,1.79-.45,2.36,1.28,3.11,2.57,1.34,2.31,1,4.86.91,7.27-.16,5.73,1.42,10.35,7.24,12.38,4.53,1.59,7.6-.83,10-4.4,3.45-5.23,3.72-10.83.54-16.08-1.21-2-4-3.15-2.76-6.08.25-.58,1.7-1,2.53-1,3,.27,3.88,2.76,4.73,5.09C68,2498.16,69.46,2501.37,68.91,2504.38Z"/><path d="M95,2526.41c-7.37-.2-13-2.13-15.82-8.73-.69-1.58-1.66-3.58.29-4.59,1.63-.85,2.58.93,3.13,2.32,1.18,3,3.54,3.69,6.46,4.06,3.21.41,6.81,1.7,9-1.33,2.47-3.49-1.11-5.68-3-8.19a42.1,42.1,0,0,1-7.45-15.19c-.5-2.13-1-5.07,1.74-5.74,2.86-.72,4.92,1.91,4.82,4.32-.29,7.47,3.81,12.47,8.35,17.53,2.87,3.19,5.35,7.14,3,11.44S98.37,2526,95,2526.41Z"/><path d="M154.12,2496c-.42.74-.55,1.4-.91,1.55-13,5.58-3.33,16.06-5,24.07A8.4,8.4,0,0,0,152,2530c1.44.88,2.3,2.95.42,4.38-1.58,1.19-3.31.36-4.81-.66-1.81-1.22-2.12-3.24-2.75-5.12-2.08-6.18-2.63-12.58-2.7-19-.11-10.8-.74-11.42-11.42-10-1.93.25-3.77,1.24-5.7,1.41-2.39.22-3.58-1.45-3.88-3.65-.4-2.81,1.45-3.51,3.67-3.26,8,.88,15.83-.16,23.65-1.42C151.71,2492.11,152.86,2494,154.12,2496Z"/><path d="M409.8,2631.77c-11.9-.19-17.77-5.47-19.56-16.94-1-6.37-1.81-12.71-3.54-18.95-.77-2.79-1.55-7.19,4-3.73,1.89,1.18,3.15.74,4.5-.74a22.85,22.85,0,0,1,3.24-3.06c4-3,8.52-4.6,13.16-2,4.37,2.49,3.51,7.29,2.31,10.78-2.08,6,.53,7.61,5.65,8.91,8.25,2.11,10.56,8.24,5.81,15.53C421.25,2627.94,415.28,2631.71,409.8,2631.77Zm-5.29-5.68c4.49-1.07,9.36-1.62,12.6-5.48,1.71-2.05,3.31-4.58,1.64-7.46-1.47-2.55-4-2.38-6.57-2.3-4.77.13-8.33,2.58-11.63,5.66-1.77,1.65-4.42,3.14-3,6C398.78,2625.23,401.59,2625.9,404.51,2626.09Zm3-30c0-2.45-1.41-3.48-3.32-2.93-4.76,1.39-7.29,4.82-7.48,9.76-.08,1.88.73,3.63,3.07,2.93C404.64,2604.4,406.14,2600.17,407.51,2596.09Z"/><path d="M314.14,2591.5c-.2.81-.53,2.5-1.05,4.13-1.08,3.38,0,5.4,3.59,5.57,5.75.26,6.05,3.84,5.37,8.25-1.86,12.28-17,21.92-27.79,17.61-2.65-1.06-5.84-1.46-2.9-6.08,2.49-3.93-.72-8.56-1.42-12.77-1.08-6.53,1.41-13.78-4.13-19.69-1.76-1.88-.52-6.22,1.26-8.33,2.55-3,3.06,2.2,5,2.09,2.9-.18,5.75-1,8.65-1.29C309.3,2580.21,314,2583.6,314.14,2591.5ZM293.8,2598c.49.85-2.86,5.34,1.88,6.29,4.13.83,13.13-8,12.68-11.91-.53-4.49-4.05-4.59-7.3-4.27C296.32,2588.55,290.93,2588.78,293.8,2598Zm4.43,25.17c5-.07,14.92-7.28,16.41-11.79.8-2.42.23-3.66-2.65-3.72-6.47-.14-15.41,6.65-16.65,12.87C294.77,2623.34,296.8,2623,298.23,2623.14Z"/><path d="M372.78,2604.23c-.12.32-.13.67-.28.75-10.51,5.44-.67,8.42,1.59,12.1,1.9,3.09,3,6.27-.11,8.64-4.19,3.23-4.64-1.69-6.18-3.69-1.81-2.33-3.22-5-4.87-7.44-4.54-6.78-12.85-6.24-16.8,1-1.9,3.46-3.06,10.07-7.9,7.79s.23-7.2.8-11c.79-5.28,4.4-9,6.13-13.77,2.32-6.35,8.9-7.57,12.93-2.49,3.1,3.91,6.08,7.08,11.69,5.76A2.52,2.52,0,0,1,372.78,2604.23Z"/><path d="M465.91,2597.3c6.18,7.9,4.07,16.44,4.67,24.32.55,7.21.81,14.24,4.16,20.84,1.43,2.8,2,6.32-1.89,7.37-4.09,1.11-4.75-2.59-5.25-5.52-1.05-6.07-2.1-12.15-2.77-18.27-.53-4.84-2.1-7.07-6.89-3.94-6.09,4-12,2.67-17.35-1.13S436,2611,436,2605.32c0-2,.62-3.64,2.63-3.85,2.55-.28,3.34,1.57,3.41,3.81,0,1.49-.28,3.09.18,4.43,1.5,4.39,2.64,9.46,9.11,8.53,10.21-1.48,12.36-3.29,11.59-10.77A13.17,13.17,0,0,1,465.91,2597.3Z"/><path d="M24.53,2588.94c.95,9.37,5.31,17.92,6.41,27.34.75,6.45,1.23,13.29,4.59,19.35.8,1.45.79,4.31-1.93,4.78-2.53.43-3.93-.85-4.44-3.68-1-5.84-2.71-11.56-3.84-17.39-.8-4.11-2.15-5.39-6.52-3.49-11.36,4.94-16.17,1.08-15-11.64a5.12,5.12,0,0,0-.87-3.42c-4.5-7.21-4.15-8.33,3.54-11.66,2.26-1,4.62-1.76,6.94-2.62,3.92-1.44,5.68-3.82,3.69-8A14.06,14.06,0,0,1,16,2575c-.46-2.64-.16-5.51,2.76-6s3.09,2.69,3.46,4.63C23.2,2578.63,23.79,2583.8,24.53,2588.94Zm-2,17.32a2.78,2.78,0,0,0-2-3.44c-1.67-.52-10.73,5-10.77,6.65a3.14,3.14,0,0,0,1,2.44c2.7,1.52,5.13-.56,7.68-1S22.14,2608.58,22.58,2606.26Z"/><path d="M212.84,2589.33a16.91,16.91,0,0,1-2.43,8.53c-3.82,5.84-1.39,7.95,4.57,8.27,2.46.13,4.91.38,7.38.47,2.83.12,3.94,1.59,3.83,4.32s-1.4,4.66-4.05,4.18c-8.95-1.65-18.94.11-26-8.09-2.72-3.18-4.73-1.69-5.53,1.91-.42,1.94-.56,3.95-1.15,5.83-.53,1.67,0,4.61-3,4.1-2.18-.37-3.1-2.58-3.08-4.61.06-7.73-3.78-14.33-6.28-21.24-1.26-3.5-.45-5.86,2.23-6.58,3.93-1.06,3,2.74,3.42,4.91a6.81,6.81,0,0,0,.17,1.47c1.33,2.72.21,7.62,4.14,7.78,3.08.13,2.21-4.35,3.16-6.72a25.44,25.44,0,0,1,9.65-12c2.75-1.83,5.67-5,9.36-2.55C212.6,2581.58,213.08,2585.45,212.84,2589.33Zm-14.92,9.75c6.48,0,9.83-3.75,9.63-10.55-.06-2.38-.43-4.62-3.48-4.67-3.31-.06-10.29,8.31-10.63,12.55S196.28,2598.6,197.92,2599.08Z"/><path d="M87.81,2612.57c0,3.55,1.58,6,3.77,8.15,1.85,1.85,1.76,4,.51,6.16-.64,1.09-1.51,2-3,1.78a5.22,5.22,0,0,1-4.35-4.58c-1.85-10.13-5.32-20.07-3.92-30.63.26-1.93,0-4.61,2.5-4.73,3-.13,2.36,2.7,2.23,4.51-.41,5.95,2.3,7.82,8,7.09,6.51-.85,14.22,1.93,17.08-7.68.91-3.08,3.37-2.2,4.51.7,1.84,4.69,2.33,9.61,2.66,14.59.28,4.36-.28,9.09,3.92,12.25,1.74,1.31,1.69,3,.62,4.6s-2.52,3.24-4.85,2.77c-2.14-.43-2.35-2.26-2.58-4-.64-4.91-1.37-9.81-1.94-14.72-.46-4-2-5.69-6.4-4.4a54.18,54.18,0,0,1-13.09,2.45C90.26,2607,86.92,2608.26,87.81,2612.57Z"/><path d="M162.85,2597.53c-4.46,2.66-9.73,2.86-14.61,4.09-3,.76-6.18.53-6.44,4.57-.32,4.93.85,9.69,5.06,12.51a7.69,7.69,0,0,0,9,0c3.33-2.21,4-6.83,8.1-8.42.69,8-5.42,15.37-13.46,16.72-6.82,1.15-10.64-2.6-13-11-1.35-4.74,1.55-10.37-3.64-14.48-1.65-1.3,1.07-3.66,3.06-3.85,8.5-.82,17-1.36,25.53-2Z"/><path d="M160.06,2583.64c1.69.22,4.23,0,4.37,2.6.16,3.07-2.42,2-4.27,2.32-6.49,1.09-13,2.22-19.36,3.93-1.79.48-3.44,2.75-4.75.15-1.18-2.36.35-4,2.79-5.09C142.24,2586.1,155.18,2583.51,160.06,2583.64Z"/></svg>