<svg xmlns="http://www.w3.org/2000/svg" width="936.31" height="3401.48" viewBox="0 0 936.31 3401.48"><title>c21-txt</title><path d="M624.45,3347.42c-.33-7.36-.63-14.73-1-22.1-.22-4.31.86-8.41,5.46-9,6-.82,5.48,4.6,5.56,8.13.29,12.16.19,24.33.09,36.5-.09,10.44,5,14.75,15.33,14.68a88.65,88.65,0,0,0,32.91-7c7.23-2.93,12.41-8,8.23-17.31-1.93-4.28-2.69-9.08-4.22-13.56-1.77-5.17-3.6-11.06,3.12-13.16,6.33-2,7.44,4.16,8.87,8.7,2.47,7.86,5,15.72,7.37,23.59,1.9,6.18,6,10.46,11.58,13.43,11.79,6.24,19.46,2,19.21-11.18-.2-10.25,2.15-20.72-2.68-30.72-1.85-3.82-1.12-8.15,4-9,4.41-.75,8.46,2,8.57,6.12.44,17.31,2.8,35-3,51.74-4.8,13.87-26.42,15.86-36.54,1.87-8.21-11.35-14.63-9.27-22.58-2.34-10.86,9.49-24.82,10-37.61,12.57-13.68,2.79-22-5.64-22.86-19.75-.44-7.36-.08-14.77-.08-22.16Z"/><path d="M867.11,3331.07c-24.79,3.9-47.65,18.8-73.82,15.53-1.07-.13-3.16.73-3.33,1.46a36.86,36.86,0,0,0,1.74,22.73c2.81,6.93,8.13,8.27,14.79,7.48,7.49-.89,10.28-5.33,10.23-12.45,0-3.09.54-6.75,4.84-5.88s3,4.66,2.72,7.55c-1,11.63-11.68,22.5-22.67,23.17-11.4.69-19.56-6.09-21.63-19.66-2.81-18.42-2.84-36.91,2.06-55.13,1.43-5.35,6.08-4.6,9.57-4.55,15.15.23,30.3,2.07,45.4-1,3.63-.74,7.42.15,8.1,4.47.8,5.07-3.8,5.74-6.92,5.58-10-.52-18.27,4.28-27.11,7.54-4.12,1.51-10.25,6.59-9.78-4.21.18-4.22-3.46-2.88-5.67-1.87-2.48,1.13-5,3.81-2.25,5.91,5.43,4.07,8.07,11.31,17.62,10.88,12.31-.56,23.74-4.55,35.73-5.85C853.51,3332,860.32,3331.63,867.11,3331.07Z"/><path d="M553.22,3374.65a10.09,10.09,0,0,0,10.65-5.93c1.4-2.84,2.33-6.38,6.27-3.82,3,1.93,2.48,5.41,1.09,8.28-4.25,8.72-11.21,15.73-20.69,15.8-10,.07-18.49-6.18-21.64-16.11-2.69-8.49-2.57-17.41-13.65-21-4.62-1.51-2.66-6.6,2-8.4,10.84-4.16,11.62-7.32,2.66-14.7-8.61-7.1-.91-8.26,3.51-9.8,14.62-5.11,30.42-5.77,44.84-12.07a9,9,0,0,1,12.42,6.23c1.46,6.64-5,5.36-9,5.9-10.34,1.43-20.47,3.63-29.85,8.37-5.26,2.66-8,7.46-6.48,12.93,2,7.27,7.79,3.39,12,2.51,12.22-2.59,24.34-5.63,36.51-8.45,3.9-.91,9.16-1.77,9.69,3.13.83,7.84-5.27,2.27-8.18,3-15.55,3.89-29.87,11.48-45.68,14.76-4.49.94-2.64,5.92-1.52,9C540.68,3371.07,546.16,3374.14,553.22,3374.65Z"/><path d="M418.51,3334c-.12-6.44-1-11.48,3.65-13.7,3.85-1.82,5.81,2.32,8.39,4.52,7.07,6.06,33.23,1.54,38-6.91,2.55-4.53,6.08-8.21,9.67-4.25,4.24,4.68,16,3,12.73,14.32-3.17,10.92-1.34,22.31-2.8,33.41a8.65,8.65,0,0,0,4.12,9c5,3.07,6.82,7.18,1.93,11.48-3,2.63-3.3,9.23-9.17,7.66-6.47-1.73-5.84-7.47-6.25-12.75-.91-12-2.24-24-3.54-36.05-.7-6.45-3.88-8.09-10.7-7.31-34.13,3.93-38.68,10.74-27.18,42.73.73,2,2.23,3.86,2.56,5.92.81,5-2.68,7-6.67,8-4.61,1.24-6.57-1.68-6.76-5.57C425.61,3366.69,420.91,3349.47,418.51,3334Z"/><path d="M923.74,3326.14c-5.14,3.2-9.58,1.51-13.77,1.78-14.42.95-20.52,9.24-14.58,22.43,5.27,11.72,11.28,23.49,24.6,28.77,4,1.58,7.53,4.36,11.52,6,4.69,1.88,5.16,5.34,4.62,9.46s-3.25,5.9-7.18,6c-20.65.61-41.58,3.77-61.09-6.51-3.72-2-10.3-3.6-7.94-8.22,2.93-5.73,6,1.38,9,2.53,11.7,4.35,24,2.58,36,3.26,2.4.13,5.39-1.07,5.66-4.24s-2.58-4.09-4.75-5.46a53.71,53.71,0,0,1-21.63-26.81c-4.05-10.6-6.65-22.3,3.68-31.07C897.55,3315.84,911.11,3317,923.74,3326.14Z"/><path d="M358.59,3377.77c-15.4.13-28.36-7.26-41.69-13.52-4.82-2.26-4.79-6.31-2.41-9.74,3-4.31,5.75-1.18,8.32,1.38,8.13,8.13,19.15,6.91,29.2,8.7a6.07,6.07,0,0,0,6.64-3.19c1.35-3-1.49-4.7-3.21-6.46-10.23-10.42-16.31-22.42-14.1-37.44,1.4-9.49,11.8-16.92,19.66-14.36,2.58.84,4.86,2.14,5,5.18.16,2.65-1.81,3.72-4,4.32-12.59,3.45-10.69,12.08-6.64,20.48,3.56,7.38,8.05,14.81,15,19.32,6.71,4.37,10,8.71,7.75,17-2.42,9.07-9.48,7.21-15.66,7.9C361.18,3377.47,359.88,3377.64,358.59,3377.77Z"/><path d="M199.59,3351.43c8.56-.73,6.47,4.2,4.62,9.3-1.93,5.32-5.13,9.4-11,9.58a11,11,0,0,1-11.13-7.3c-6.41-15.51-6.67-32.18-9.16-48.41-.86-5.64,3.55-6.87,8.22-7.85,17.3-3.64,34.5-7.75,51.81-11.31,4.32-.9,9.43-.17,10.22,5.28.83,5.73-4.12,4.86-8,5.65-14.3,3-28.42,6.84-42.78,9.5-6.39,1.18-8.46,4.21-6.77,9.65,2.51,8.06,5.9,1.21,9.31.4,12.61-3,25.35-5.4,38.09-7.75,2.28-.42,5.66-.86,6.56,2.42.83,3-1.53,4.92-4.06,5.72-12.67,4-25.33,8-38.14,11.53-3.62,1-10-2.73-9,4.8C189.05,3347.94,191.5,3353.68,199.59,3351.43Z"/><path d="M138.47,3326.54c.83,10.23-3.44,20.61,1.56,30.83,1.76,3.6-1.63,6.71-5.1,7.81-5.34,1.69-5.21-2.63-5.79-6-.49-3-1.22-5.94-1.83-8.91-1.26-6.17,2.55-16.31-3.63-17.71-6.37-1.44-14.52,3.69-21.53,6.76-5.91,2.59-4,8.13-2.56,12.51,1.9,5.73,2.54,10.9-5,11.52s-6.15-6.09-6.37-10.35c-.31-6.07,1-11.93-7.61-13.88-4.23-1-4.24-6.57-1.25-8.35,6.93-4.16,7.31-9.74,6.45-16.58-.51-4,.36-8.41,5.64-8.39,4.31,0,5.48,3.89,5.7,7.46.4,6.41-.93,15.05,9.33,12.5,8.61-2.13,19.85-3.55,18.43-17.39-.38-3.72-1.59-8.65,3.76-9.65,6.53-1.22,5.63,5.14,7.34,8.66C139,3313.44,137.8,3320.11,138.47,3326.54Z"/><path d="M36.06,3318.74c-7.89-.5-16.23,3.67-25.11,5.36-5.42,1-9.83.34-10.81-5.79-1-6.52,4.06-7.81,8.88-8.72,16.9-3.18,33.88-6,50.7-9.53,5.82-1.23,7.64,1.05,9.3,5.81,2,5.62.83,8-5.44,7.89-4.76-.07-5.66,3.72-4.75,7.35,3.27,13-1.79,26.79,3.68,39.65,2.34,5.49-2.2,8.54-5.85,9.84-5.32,1.89-6.25-2.87-6.7-6.88-1.38-12.47-2.5-25-4.11-37.39C45.27,3321.83,44.9,3316.06,36.06,3318.74Z"/><path d="M818.6,3145.23c-14.31,16.95-28.21,4.82-41.09,1-15.17-4.56-14.68-5.91-14,10.61a33.92,33.92,0,0,1-1.19,9c-.77,3.34-1.4,7.29-6.14,7-4.24-.23-5.64-3.49-6.32-7.12-2.23-11.89-4.93-23.72-6.51-35.7-1.24-9.31,5.53-12.69,15.92-7.75,9.37,4.45,18.05,10.37,27.47,14.69,16.39,7.53,16.92,7,21.32-10.42,1.33-5.24,1.67-12.8,8.49-12.66,5.62.13,6.64,7.25,8.16,12.12,3.1,9.93,6,19.94,8.79,30,1,3.34,1.21,7,5.77,7.58,4.86.67,4.89,4,4.09,7.79a7.36,7.36,0,0,1-5.95,6.09c-3.85,1-6.52-.07-8.9-3.39C822.81,3166,823.06,3155.9,818.6,3145.23Z"/><path d="M577.43,3173.86a34.44,34.44,0,0,1,0,3.62c-.22,4.84-.53,11.11-6.15,11.32-7.71.3-4.22-7-4.62-10.92-1.38-13.72-1-27.6-8.25-40.31-1.73-3-5.83-9.81.74-12,4.74-1.58,6.52,4.48,8,8.5,1,2.68,0,7.1,3.64,7.49,5,.52,4.15-4.73,5.2-7.59,5.29-14.32,17.36-19.94,30.54-23.57,6.55-1.8,12.15,1.75,14.73,8,3.27,8,4.66,17.07-3.13,22.65-13,9.3-3.48,10.26,3.78,12.4,7.87,2.31,15.59,5.39,24.15,3.92,4.23-.73,8,0,7.76,5.74-.22,6.18-4.72,5.5-8.42,4.82-17.22-3.2-34.43-6.53-51.57-10.15C577.5,3154.35,576.52,3155,577.43,3173.86Zm12.87-30c12.67-.45,23.21-8.31,22.88-16.88-.2-5.14-3.11-6.71-7.64-6.57-7.84.24-23.78,12.31-23.4,18C582.47,3143.38,585.53,3145.12,590.3,3143.88Z"/><path d="M487.09,3147c1.66-12.37-6.71-21.25-2.86-31.59.87-2.34.24-5.43,3.41-6.31,2.8-.78,4,1.61,4.58,3.53,2.14,6.88,6.72,4.93,11.5,3.76,9.25-2.25,18.57-4.28,27.91-6.21,3.58-.74,7.59-.56,8.13,4,.6,5.1-3.8,4.73-7.21,5.09-10.77,1.17-21.38,2.56-31.15,8.11-5.69,3.23-6.89,7.74-5.57,13.1,1.66,6.79,7.07,5,11.68,3.92,7.18-1.76,14.28-3.82,21.42-5.7,2-.52,4.54-1.93,5.62.78,1.31,3.26-1.34,4.78-3.95,5.37-6.85,1.56-12.88,4.91-19.09,8-4.39,2.17-12.27-1.06-13.39,5.38-1.47,8.46.49,17.24,4.39,25.19.7,1.42,2.69,2.15,3.89,3.4,3.22,3.32,2.72,7.2.92,10.85-1.51,3.08-4.58,4.12-7.75,3.32-3.66-.93-6.27-3.73-6.31-7.47C493.06,3177,489.05,3161,487.09,3147Z"/><path d="M689.7,3175c-15.09-.26-28-15.78-27-32.55.55-9.7,18.52-21.44,32.25-21.06,11.08.31,24,16.93,23.55,30.25C718.11,3161.83,701.67,3175.18,689.7,3175Zm3.65-12.07c6.9,0,13-3.91,13.73-12.34.72-8-3.47-15.38-11.91-15.19-7.1.16-17.6-4.19-20.94,7C671.76,3150.61,681.79,3161.54,693.35,3162.9Z"/><path d="M285.16,3154.7c.5-11.29,1.07-22.56,1.45-33.83.13-3.92,1.38-6.86,5.41-7.78s4.48,2.8,6.29,5.1c6,7.7,9.95,16.79,18.44,23,7.45,5.44,11.94,6.89,18.12-1.28,7.52-9.95,16.24-19,24.4-28.45,4.66-5.41,8.46-2.31,11.58,1.51,3.41,4.17,3.24,9.78,4.82,14.69,3.55,11.08,1.11,24.16,12.95,32.65,4.94,3.55,1.29,9.57-3.76,12.7-5.55,3.45-9.61.76-11.29-4.35-3.25-9.87-5.63-20-8.32-30.07-.9-3.33-1.14-7.38-4.91-8.58-4.53-1.45-5.51,3-7.53,5.63-4.24,5.49-8.33,11.12-12.93,16.3-12,13.46-16.86,13.33-29.94.15-2.81-2.83-4.21-9.25-9.58-6.78-5,2.3-1.64,7.83-1.83,11.9-.27,6.06.17,12.16,0,18.23-.08,3.23.82,7.75-4.5,7.61-3.7-.1-6.88-2.36-7.32-6.27C285.9,3169.46,285.65,3162.07,285.16,3154.7Z"/><path d="M203.88,3140.1c13.43-1.87,26.84-3.77,40.27-5.6,3.11-.43,7.83-3.41,8.66,1.51.77,4.58-4.83,4.16-7.74,4.38-13.42,1-24.91,9.91-39,8.75-5.72-.47-6.61,6.05-6.73,10.87-.19,7.42-.3,15.18,7.22,19.64,5.26,3.12,9.56.61,14.1-2.83,4-3.06,5.32-14.77,12.39-7.73,3.87,3.84-3.5,11.37-8,15.42-5.49,4.93-10.66,13.45-19.26,10.41-8.77-3.11-11.29-12.5-13.74-20.88-3.58-12.24,2.18-25.94-6.19-37.61-2-2.78.9-5.46,4.1-6.78,18.35-7.6,36.65-15.44,57-15.44,3.06,0,8.08-2,8.64,2.86.64,5.55-4.74,3.33-7.63,3.94-15.65,3.3-30.37,9.1-45.22,14.6Z"/><path d="M88.52,3152.55c-.45-3-1.93-6.44.81-8.56,3.92-3,5.86,1.29,8.6,3.1,6.5,4.3,12.82-.33,18.6-1.92,9.94-2.74,21.47-.74,28.49-13.57,3.78-6.93,9.26,2.61,10.6,7.09,2.71,9,3.57,18.62,5.73,27.86,1.64,7,1.31,14.46,6.81,20.57a6.81,6.81,0,0,1-2.56,11c-5.79,2.39-9-1.37-10-6.84-2.15-11.86-4.28-23.72-6.11-35.63-1.35-8.85-6.21-9.3-13-6.1-2.73,1.28-5.37,2.86-8.23,3.75-29.73,9.21-29.86,9.28-18.78,38.4,1.69,4.44,3.31,8.8-1.79,11.15-4.23,1.95-7.18-1.34-8.92-5.22a7.94,7.94,0,0,1-.54-2.52C96.83,3180.5,88.57,3167.46,88.52,3152.55Z"/><path d="M52.37,3175.51c.42-36.22.43-36-35.68-33.79C11,3142.06.87,3146.64.05,3138c-.87-9.32,10-6.39,16.13-7.95,14.77-3.73,29.88-4.75,45-5.76,4.33-.29,9.52-.83,11.13,4.33,1.4,4.53-2.89,6.87-6.18,8.89-5,3.06-7.6,7.18-6.24,13,3,13.07-.73,26.89,4.87,39.8,1.83,4.23.93,10.87-4.29,11.88-5.7,1.09-7.62-4.8-8-9.73C52,3186.83,52.37,3181.16,52.37,3175.51Z"/><path d="M152.2,2787.09c6.86-4.15,5.59-12.28,14.81-14.05-3.41,8.78-5,17-11.73,22.43-6.19,5-10,.48-11.46-5.26-2-7.64-3.08-15.52-4.47-23.31-1.27-7.13-4.8-9.2-12.06-7.14-8.92,2.53-17.61,6.58-27.31,5.61-4.27-.42-5.4,2.73-4.76,5.87,1.35,6.6-1.38,14.63,7.21,18.88,3.89,1.92,1.57,6,.61,9.18-.72,2.36-2.09,4-4.71,4.14-4.47.15-5.55-3.41-6.58-6.59-5.8-18-6.26-37-9.93-55.39a4,4,0,0,1,2.22-4.75c2.76-1.21,4.15.54,5.28,2.67.53,1,1.06,2,1.51,3,5.76,13.3,7.88,14.39,23,11.06,7.9-1.74,16-1.83,22.46-8.85,4.34-4.7,14.32,3.43,14.17,11.35C150.25,2766,149.43,2776.1,152.2,2787.09Z"/><path d="M208.56,2771.09c2.16,3.25,2.51,3.54,2.54,3.86.9,9.86,2,20.39-8.64,25.67-7.41,3.66-18.1-4.59-23.22-17.24-3.34-8.25-7.4-16.38-6.68-25.88.23-3.07-.6-6.32,2.68-7.81,3.13-1.42,6.19.43,8,2.73,7.19,9.11,12.71,4.48,18.15-1.83a19.81,19.81,0,0,0,2.48-3.77c1.9-3.62,10-5.15,6.13-10-3.25-4.12-9.16.4-13.47,1.93-4,1.43-7,6.27-12.09,3.29a3.52,3.52,0,0,1-1.27-5c2.7-4.78,7.16-5.73,12.37-6.11,9-.66,17.85-2.3,26.8-3.29,3.54-.4,7.22.6,8.41,4.26,1.46,4.47-2.63,5.8-5.66,6.94-7.91,3-14.15,8.54-21,13.08-1.13.75-1.86,2.11-3.84,4.45,9.73,1.7,17.78-1.22,25.9-2,2.17-.2,4.24-1.49,6.42-1.79,2.66-.36,5.88-.27,6.29,3.11s-2.63,3.83-5.34,4.32c-14.29,2.61-28.5,5.82-42.88,7.8-7.65,1-6.47,4.8-4.36,9.23,1.93,4,4.56,7.76,6.92,11.59,4.19,6.78,8,4.5,10.54-1C205.76,2783.15,206.57,2778.1,208.56,2771.09Z"/><path d="M10.42,2768.83c-2.64,7.31-8.16,12.24-1.71,17.17,6.78,5.19,14.19,9,23,6,4.91-1.68,7-5.18,1.46-8.77a89.44,89.44,0,0,1-18.5-16.39c-9.76-11.15-9.54-22.9-.69-31,4.51-4.13,8.82-3.17,13.5-1.32,1.76.7,3.62,1.94,3.19,4-.22,1-2,2-3.29,2.53-12.18,5.39-13.68,15-2.92,24.66,5.78,5.18,11.06,11.13,18.37,14.65,4.36,2.09,8,5,7.17,11.34-.94,7-6.54,7.08-10.78,7.68-12.78,1.82-25.61,2.74-34.9-9.39C-2.43,2781.23-1.88,2777.67,10.42,2768.83Z"/><path d="M661.8,2803.07c-18.13-.51-18.74-1.69-15.61-19.22,2-11.33.43-22.63-5.77-32.61-4.85-7.81-2.06-12.83,4.61-17.37,13.77-9.38,39-8.21,51.16,3.2,8,7.52,11.52,16.77,8.67,28.26C699.25,2787.91,681.73,2803.62,661.8,2803.07Zm32.14-45.28c-.3-11.64-20.62-20.68-34.21-15.48-5.33,2.05-7.43,4.72-5.91,10.76,2.72,10.87,4.72,21.93,6.76,32.95,1.11,6,4.26,6.61,9.36,4.84C681.25,2786.92,694.23,2769.25,693.94,2757.79Z"/><path d="M345.06,2746.89c-9.46-1.12-17.78,1.16-21.93,10.23-5.49,12-.79,23.49,5.8,33.07,14.46,21,32.49,20.94,49.89.88,1.59-1.84,3.1-3.36,5.26-1.81s1.07,3.77.37,5.88c-4.2,12.59-27,23.33-42,19-17.66-5.08-25.15-19.25-28.07-35.66-2.56-14.43-4.13-29,10-40.35,10.08-8.09,19.29-5.43,28.91-1,2.92,1.35,6.09,4.3,4.76,8.32s-5,2-7.83,1.93C348.51,2747.37,346.79,2747.08,345.06,2746.89Z"/><path d="M534.08,2765.4c-.08,26.16-15.3,41.2-34,38-4.25-.72-6.92-2.16-9.35-5.77-9.63-14.3-12.28-31.29-18.43-46.91-1.65-4.19-1.37-10.8,5.23-11,5.13-.19,8.86,4.46,8.19,9.84-1.26,10.15,3.54,18.74,6.62,27.57,2.82,8.11,7.87,17.05,18.4,15.1,9.64-1.79,13.31-11.07,14.51-19.64a46.34,46.34,0,0,0-5.6-29c-1.73-3.15-6-7-.24-9.59,4.86-2.19,8.49,1.15,9.59,6C531.19,2749.67,532.91,2759.47,534.08,2765.4Z"/><path d="M398.83,2765.83c.25-1.77.12-6.79,1.77-11.13,3.1-8.17,6.06-16.83,18.49-10.11,6.47,3.5,15.32-1.81,22.14,4.58,10.31,9.65,13.91,21.33,8.56,31.25-6,11.14-25.63,20.16-36.92,17C405.21,2795.21,398.31,2781.28,398.83,2765.83Zm9.14,3.06c-.17,9.31,7.75,18,16.9,17.9,9.42-.09,15.68-5.53,17.25-14.4,1.62-9.18-8.65-15.13-23.38-16.71C406.73,2754.38,409.9,2763.3,408,2768.89Z"/><path d="M589.82,2804.24c-14-.57-16.13-11.22-18.66-19.8-3.29-11.1-4.16-22.9-9.08-33.66-2.05-4.5-1.27-9.37,3.86-10.55s7.66,2.88,8.49,7.68q2.31,13.41,4.6,26.81c1,5.65,2.2,12.37,7.7,14.14,6.37,2,11.06-3.53,15-8.18a70,70,0,0,0,11.56-20.15c1.17-3,3.06-5.54,6.78-4.36,3,1,3.12,3.73,3.08,6.44-.1,8.33-21.73,38.57-29.61,41.14A13.73,13.73,0,0,1,589.82,2804.24Z"/><path d="M344.59,2925.93c-4.53,11.47-12.31,20.63-21.54,28.82-3.79,3.37-13.31,5.92-8.29,11.66,4.87,5.56,11.67-.6,16-5.67,6.91-8.14,10.77-6.42,14,3.25,3.74,11.38,2.94,23.14,4.42,34.7.91,7.15.33,15,8.88,18.65,4.37,1.84,3.77,5.29,2.29,8.72s-3.41,6-7.64,6c-3.92-.07-6.24-1.73-7.82-5.49-5.56-13.29-6.4-27.69-9.61-41.5-1.8-7.76-4.79-9-11.46-7.65a73.33,73.33,0,0,1-14.23,1.52c-10.45,0-14.24-5.21-11.32-15.26,2-6.73,2.46-12.23-5.7-15.83-4.55-2-8.77-6-7.77-12.34,1-6.13,5.56-7.55,10.77-9.56,8.8-3.4,17.07-8.06,26.72-9,7.5-.71,4.12-5.52,3.67-9.58-.44-3.89-4.09-9.15,1.82-11.41,6.24-2.39,8.17,2.91,9.8,7.49C340.09,2910.67,345.58,2917.06,344.59,2925.93Zm-26.77,6.39c-5.37,1.13-9.1-2.17-12.84.45-1.79,1.26-3.82,2.63-3.22,4.94.32,1.26,2.43,3.1,3.49,2.95,6.66-.91,13.28-2.23,19.85-3.67.71-.16,1.63-2.16,1.39-3a3.66,3.66,0,0,0-2.75-2A39,39,0,0,0,317.82,2932.32Z"/><path d="M62.4,2935.29c-.92,24.06-9,34-32.62,38.45C23,2975,22,2977.9,24.05,2983.5c2.4,6.7,2.33,13.62,1.66,20.58-.3,3.23-1.19,6.24-4.86,6.71-4.4.57-4.57-3.26-5.06-6.05-4.5-25.44-7.7-51.12-15.41-75.92a6.82,6.82,0,0,1,2.7-8.08c2.65-1.76,5.19-.8,7,1.17,4.58,5,7.93,3.21,13.27.1,9.75-5.65,20.83-9.42,31.76-2.38A15.48,15.48,0,0,1,62.4,2935.29Zm-42.57,15.42c.12,5.13-.73,12.18,5.91,12.51,10,.49,18.79-4.15,22.65-13.91,2-5,6.11-11.23-.08-16.63a8.27,8.27,0,0,0-3.54-1.46C33.39,2928.68,20,2939.2,19.83,2950.71Z"/><path d="M112.4,2934.44c-1.34,8.84,1.3,15.56,5.39,22,3.62,5.68,7.88,12.3,15.14,8.39,5.67-3.05,12.36-6.67,10.77-16.89-1.37-8.87-3.79-16.65-8.4-24.07-2.82-4.53-4.07-9.28,2.13-11.77,5.69-2.3,9.14.77,10.26,6.44,2,10.11,6.21,19.5,6.58,30.25.51,14.33-7.78,22.59-17.27,30s-27.23-1.45-30.47-14.63c-3-12.2-5.69-24.5-7.62-36.9-.66-4.24-4.21-11.31,4.26-12.55,7.67-1.12,7.59,5.63,8.64,10.44C112.54,2928.5,112.28,2932.05,112.4,2934.44Z"/><path d="M219.75,2928.81c-.52,14.15-3.49,25.23,3.92,35.77,4.66,6.64-2.3,8.94-6.91,10.83-6.67,2.72-10.4-1.38-10.78-7.19-.64-9.92,0-19.93.09-29.9.24-19.39-3-21.57-20.84-13.9-1.18.51-2.21,1.44-3.42,1.83-5.9,1.9-9.33-1.61-11.18-6.24-2.24-5.59,3-9.14,6.43-9.15,10.65,0,19.94-5.25,30.2-6.43,12.15-1.41,14.6.88,13.27,13.15C220,2922.32,219.86,2927.1,219.75,2928.81Z"/><path d="M515.66,2947.25c.47,17.55-21.25,37.23-42.72,38-8.8.31-15.87.29-8.44,11.78,2.22,3.42,1.36,7.57,1,11.45-.31,3.09-.89,6.29-4.64,6.89s-5.28-1.88-6.28-5.09c-1.94-6.16-4.63-12.12-6-18.39-3.62-16.13-7.7-32-16.87-46.09-3.37-5.18-5.39-10.84,1.13-14.6s7.61,2.48,9.63,6.67c3.51,7.31,7.18,2.94,11.17.19,14.14-9.75,29.4-14.36,46.56-9.31C509.45,2931.49,515,2937.3,515.66,2947.25Zm-27.11-7.84c-8.14-1.87-14.95,2.32-21.54,4.77-10.29,3.84-12.19,14.25-6.39,26.45,4.78,10,11.61,5.2,18.66,2.78a36.48,36.48,0,0,0,18.36-13.8c3.08-4.33,9.5-7.65,6.54-14.39C501.08,2938.16,494.13,2939.76,488.55,2939.41Z"/><path d="M574.82,2949.6c.45-4.79,0-9.71-3.39-14.3-1.91-2.56-4.09-7.07.76-8.58,3.79-1.17,9.68-1.46,10.48,4.46,3,22,1.64,43.4-13.31,61.5-5.61,6.78-11.94,5.33-18.15,0-8.49-7.33-9.74-18.07-13.51-27.62-1.9-4.81-2.92-10-5.18-14.63-2.84-5.82-2.34-10.47,3.86-12.72,8-2.88,9.5,4.82,9.41,8.85-.19,8.67,3.34,15.88,6.09,23.48,1.78,4.92,3.75,10.61,9.89,10.83,6.58.23,7.61-5.7,9.37-10.69C573.46,2963.61,576.65,2957.35,574.82,2949.6Z"/><path d="M717.42,2998.33c-11.65-1.94-16.56-10.63-19.22-19.7-3.4-11.56-4.92-23.71-6.65-35.7-.56-3.9-1.39-10,4.74-10.2,5.37-.19,6.7,5.51,6.52,9.64-.39,8.85,1.44,17.18,3.6,25.6,3,11.59,10.86,17,21.84,13.22,8.84-3.05,18.34-5.38,24.53-13.73,2.07-2.8,5.45-7.46,9.35-2.88,3.72,4.37,3.47,11.28-1.18,14-12.51,7.26-25.83,13.11-38.91,19.36C720.6,2998.61,718.64,2998.24,717.42,2998.33Z"/><path d="M671.69,2952.27c5,7.75,4.83,13.24-.39,19-6.66,7.41-13.45,14.5-21.51,20.48-8.42,6.25-15,4.65-21.23-3-7.39-9.17-9.53-20.07-11.07-31.36-.87-6.36-2.94-12.57-4.47-18.84-1-4.31-.24-8.25,4.43-9.22,5-1.05,7.07,2.94,7.31,7,.57,10,.89,19.88,4.43,29.37,6.59,17.71,16.78,19.88,29.48,5.69C663.44,2966.14,666.83,2959.55,671.69,2952.27Z"/><path d="M221.13,610.6c.94-13.46-2.24-24.94-6.45-36.22-2-5.43-5.34-11.79,2.68-14.33,6.85-2.17,9.07,3.93,10.16,9.35,2.09,10.37,5.84,8.74,11.45,2.26,10.55-12.19,26.59-10.5,40.17-14.95,4.39-1.44,5.56,2.64,5.42,6.81-.3,8.94-3.31,16.49-10.71,21.77-10.2,7.28-8.12,12.22,1.68,18.44,8.36,5.31,16.13,6.16,25.17,3.54,2.92-.84,7.31-4.33,9.09.79,1.58,4.55-.74,9-5.41,10.85-12.1,4.74-24.13,5.19-35.51-2.31-7-4.61-14.07-9.16-20.88-14.05-7.59-5.45-11.18-3-12.25,5.54-.11.88-.16,1.77-.32,2.64-1.2,6.6.3,16.88-9.38,15.94C214.58,625.56,223,615.24,221.13,610.6Zm40-41c-3.72,3.14-10.74,2.33-11.91,8.84-.69,3.84,2.34,5.84,5.65,5.69,6.21-.27,9-4.79,10.09-10.25C265.41,571.61,264.15,569.72,261.11,569.64Z"/><path d="M366,553.52c5.1-.61,12.39-3.77,13,5.34.47,7.7,3.88,17.64-8.86,20.33-10.74,2.27-21.3,5.38-32,7.83-11.23,2.57-11.16,11-8.24,18.62,2.79,7.3,8.29,12.87,17.33,5.69,3.2-2.55,7.93-3.18,10.48,1.21s-.71,7.12-4.25,9.61c-17.38,12.22-32.26,6.17-35.77-14.68-1.83-10.88-1.54-22-5.57-32.65-2.27-6,0-11.82,6.88-13.53C334.27,557.48,349.41,552.2,366,553.52Z"/><path d="M439,595.82c-15.18-.59-28,2.76-34.76,18.26-2.24,5.16-5.72,11.34-13,6.62s-3.7-10.34-.61-16.12c5.63-10.51,10.83-21.26,15.9-32.05,2.37-5.07,5.31-9.73,10.42-4,6.11,6.84,8.34,3,11.49-2.27,7.21-12,10.64-11.8,17.85.45,4.62,7.85,6,19.14,20.2,16.26,5.24-1.06,5.48,4.64,1.73,6.75-11.38,6.38-6.49,13.29-1.64,20.53.25.37.61.65.88,1,3.8,5,6.29,12.34,1,15.17-6.49,3.48-12.37-1.9-15-8.92-1.85-5-3.44-10.06-4.94-15.15C447.05,597.42,444.15,594.78,439,595.82Z"/><path d="M554.14,594.39c.38,23.33-27.3,43.75-45.55,45.52-9.12.89-14.28-5.78-13.06-15.48A80.08,80.08,0,0,0,488,577.88c-1.49-3-4.61-5.92-1.66-9.68,2.7-3.43,6.11-1.73,9.64-1.69,15.73.2,31.44-1,46,7.38C550.19,578.62,553.9,585.31,554.14,594.39Zm-44.7,17.41c-.33,3.81-2.89,8.31,1.21,11.09,4.55,3.07,8.3-1,12-3.06a30.18,30.18,0,0,0,6.28-4.88c6.89-6.8,16.59-13.76,11.62-24.48-4.47-9.65-16-7.67-25.09-8.18-7.94-.45-11.8,2.6-8.79,11.27C508.71,599.4,510.46,605.43,509.44,611.8Z"/><path d="M90.67,578.24c1.31-19.94,2.82-21.18,21.81-17.35,6.48,1.31,13.14,2.23,19.3,4.46,12.63,4.57,21.81,21.75,18.2,32.78-3.29,10-19.42,17.8-32.17,15.47C97.77,609.94,89.31,598.92,90.67,578.24ZM125,602.62c8.44,1.74,12.61-2.69,13.69-10.3s-14.37-19.31-27.26-20.9c-6.6-.81-8.4,3-8.62,8.72C102.3,593.39,110.27,601.55,125,602.62Z"/><path d="M35.07,537.69c7.1,0,14.2.17,21.29-.07,3.51-.12,7.44-1.69,9.14,2.81a6.9,6.9,0,0,1-3.69,9.06C47.4,555,51.7,567.78,51.29,577.84c-.43,10.32-6.25,22.26,5.18,30.84,3.62,2.71,3,6.28,1.34,9.59-2.75,5.61-7.76,2.76-11.83,2.52s-5.87-3-5.74-7.31A467.8,467.8,0,0,0,38.87,563c-.73-9.11-3.12-14.25-13.76-12.11-5.07,1-10.61-.59-15.91-.32-5.14.26-9.46-.63-9.19-6.54.26-5.6,4.88-6.66,9.75-6.62,8.44.08,16.87,0,25.31,0Z"/><path d="M324.74,237.56a51,51,0,0,1,7.84-30.44c4.38-6.84,9.95-12.68,18.25-6.44,5.43,4.08,8.68,10.27-1.36,13.63-4.38,1.46-8.52,3-10.37,7.49-2.12,5.19-6.56,11.4-1.93,16s8.06-2.93,12.2-4.59c5.74-2.31,11.16-5.71,17.08-7.2,7.22-1.82,15.58-3.72,21,3.48,4.94,6.56,4.06,14,0,21.27-14.55,26.19-35.28,31.86-56.15,14.71C323.86,259.32,323.6,258.07,324.74,237.56Zm29.39,27.49c9.16-2.73,19.81-4.23,24.07-15.4,2.43-6.36.73-10.36-7.2-9.65-8.18.74-15,5.28-22.4,8-4.16,1.5-8.49,4.09-6.6,9.76C343.76,263.05,348.3,264.81,354.13,265.05Z"/><path d="M138.44,235.48c-9,.35-18.53,1.6-21.86,13.73-.76,2.78-3.19,5.3-5.33,7.44-3.42,3.43-7.65,8.06-12.49,4.32-4.07-3.15-.72-8.13.84-12.21,4.94-13,10.13-25.9,14.59-39.06,1.36-4,3.45-6.2,6.49-9,10.84-10.17,16.92-4.12,23.18,5,4.7,6.84,8.22,15,17.25,17.74,1,.32,2.5,2.59,2.49,2.6-11.82,11.12,3.7,19.69,2.79,29.79-.34,3.86,1.52,8.67-3.91,9.88-5,1.11-6.92-3.28-8.38-6.92a166.7,166.7,0,0,1-5.49-16.34C147.25,237.71,145.51,234,138.44,235.48Z"/><path d="M294.1,238c.53,12.52-4.79,14.82-11,12-17.91-8.1-39.08-6.3-55.47-19.09-7.26-5.67-11.08-3.41-10.54,6.4.31,5.53-.63,13.24-7.58,13.34-9,.12-7.58-8.26-7.42-14.23.19-6.84-.66-13.23-3.93-19.33-3-5.68-3-11.18,2.39-15.58,5.85-4.79,10.6-1.14,15.58,2.11,14,9.14,24.77,23.07,41.62,28,2.11.61,4,1.77,6.15,2.42,15.65,4.83,15.79,4.54,12.89-11-1.13-6.07-.9-12.38-1.36-18.58-.18-2.44.29-4.51,2.91-5.17,2.36-.6,5.75.64,5.59,2.28C282.39,216.36,291.26,228.44,294.1,238Z"/><path d="M45.78,258.76c-18.54-.63-31.14-11.32-43.91-21.51-2.23-1.78-2.67-5-.17-7,3.67-2.83,8.3-2.15,10.69,1.22,4.41,6.22,9.69,10.2,17.29,11,3.18.34,6.39.51,8.45-2.47,2.82-4.09-1.54-5.11-3.32-7.25-18.8-22.64-10.11-46.31,19.12-52,4.36-.85,9.23-2,10.91,4.11,1.56,5.64-3.09,6.1-6.63,7.95-7.82,4.08-20,3.87-20.77,15.7-.79,11.62,8.56,17.64,17.11,23.53,5.74,3.94,15.19,5.34,11.42,16.25C62.3,259,52.41,256.39,45.78,258.76Z"/><path d="M814.07,258.1c3.81-17.18,1.75-33.58-9.47-48.59-3-3.95-2.61-9.72,3.13-12.45,5.31-2.53,8.13,1.22,10.67,5.13,5.83,9,11.33,9.84,19.68,2.62,7.88-6.8,17.42-10.13,26.9-13.6,9.75-3.57,14.15.52,14.71,10.41.54,9.49-4.58,15.81-11.07,21.58-7.65,6.8-7.77,11.81,2.55,16.54,7.36,3.36,14.45,7,22.63,6.77,5.59-.13,10.71,1,10.34,7.2-.46,7.57-7.57,6.64-12.37,6-15.54-2-29.19-10-43.7-15.28-13.83-5-15.42-4.93-19,9.41a31.71,31.71,0,0,1-3,8.63c-1.88,3.17-3.11,8.39-8.47,6.52C812.57,267.27,814.24,262.46,814.07,258.1Zm33.34-34.29c7.82-2.74,14.13-7.58,16.41-16.49.65-2.56-1.42-5.33-3.14-4.14-6.15,4.3-16.15,3-18.69,12.53C840.83,220.08,840.93,223.67,847.41,223.81Z"/><path d="M500.2,256.1c0-13.26-.08-26.53.05-39.79.05-4.83-.35-10.71,6-11.81,5.89-1,4.58,5.29,6.57,8.27,7.43,11.1,15.3,21.89,26.82,29.11,10.45,6.55,16.34,3.12,17.77-9.1.93-8-1.5-14.75-4.86-21.63-2.14-4.39-2.48-9.11,3.67-10.45,4.71-1,8.92.22,9.64,6.21,1.25,10.53,3.81,20.84,2.36,31.7-2.37,17.81-19.2,25.7-33.72,15.33-.72-.52-1.36-1.16-2.09-1.65-5-3.37-9.3-11.29-15.34-8.51-6.59,3.05-1.76,11.22-2,17a50.14,50.14,0,0,1-3.86,16.69c-1,2.57.44,7.24-4.26,6.64-3.07-.39-5.38-3.81-5.59-6.81-.51-7.05-.16-14.17-.16-21.25Z"/><path d="M770.22,203.92c-5.11.79-11.77,1.4-18.18,3-2.51.63-7.06,1.49-6.15,5.57.82,3.74,5,2.53,7.89,3.23,4.78,1.16,11.81-7.81,13.51,0,1.75,8.09-8.65,6.35-13.77,8.65-4.16,1.86-11.37.3-11.07,7,.34,7.76.94,16.37,6.72,22.32,3.76,3.87,7-.65,10-3.28,1.71-1.52,4.18-2.4,5.89-.36a5.37,5.37,0,0,1,.33,4.78c-3.48,7-8.23,12.77-16.6,13.82s-9.6-5.39-12.3-11.21c-6-12.9-4.94-27.69-14.09-40.3-5.59-7.7-1.47-18.07,12.1-18.23,12.18-.16,24.33-3.86,36.45-6.23,3-.59,5.88-2.17,9-.72s6.62,3.13,6.21,7.57c-.44,4.77-4.07,5.3-7.79,5.27C776.16,204.81,774,204.36,770.22,203.92Z"/><path d="M621,190.61c6-.25,10,4.92,8,8.06-5.7,9.15-4.42,23.66-21.36,24.94-13.13,1-15.2,7.16-11.52,20.75,2.78,10.26,7.12,11.83,15.84,5.39,2-1.46,3.7-2.68,5.8-1.13,2.53,1.89,2.29,4.77,1.22,7.28-2.36,5.5-6.06,10.45-12,11.57-6.44,1.21-12.14-1.87-16.65-6.63-9.09-9.61-4.62-23.77-12.58-35-5.12-7.22,12.75-27.37,24.08-30.47C608.22,193.65,614.7,192.17,621,190.61Zm-6,15.24c-6.54.65-12.76-.76-17.4,4.71a2.61,2.61,0,0,0,1.13,4.28C605.08,216,611,215,615,209.26,615.2,209,615,208.44,615,205.85Z"/><path d="M660,203.94c5,0,6.77,3.89,8.44,7.37,3.25,6.8,6.23,13.75,9,20.78,3.28,8.41,6.51,6.85,10.36.44a43.35,43.35,0,0,0,6.16-22.82c0-5.84,3.15-9.05,8.13-10.76,3-1,4.93.94,6.48,3.34,3.06,4.75,2.16,8.21-1.38,13-6.95,9.36-7.84,21.32-10.81,32.31-1.66,6.16-2.65,12.91-10.1,13.88-7.65,1-10-5.47-13-11.13-5.53-10.59-11.9-20.75-17.46-31.33C651.87,211.49,654.18,204.36,660,203.94Z"/><path d="M908.48,421.15A86.2,86.2,0,0,0,905,397.46c-1.19-3.78-3-8.32,3.08-9.5,4.78-.93,8.66,2.36,8.3,6.5-1.72,19.71,9.55,38.93,1.31,59.05-3,7.4-5.43,9.59-12.16,5-10.18-7-20.68-13.57-30.53-21-5.49-4.15-9.24-6.3-13.53,1.27-3.25,5.73-7.61,10.84-11.62,16.12-6.33,8.31-12.73,7.77-16.73-1.9-2.68-6.49-3.8-13.62-6.17-20.27-2.88-8.09-2.72-17.7-11.64-23-3.14-1.84-2.92-5.28-.65-8.15,2.67-3.35,5.41-3.13,9.26-1.18,9,4.55,8.59,13.8,11.78,21.3,2.46,5.77.62,15.71,8.19,16.36,6.61.56,9.21-8.25,12.27-14,7.78-14.62,7.57-14.42,19.32-3.44,7.39,6.89,15.47,13,23.24,19.54,4.69,3.92,7.68,1.42,8.62-3.13C908.37,431.87,908.14,426.45,908.48,421.15Z"/><path d="M638.82,379.41c4.52,1.17,6.71,4.63,7.7,8.53,2.32,9.17,8.66,11.51,17.06,11,12.26-.74,25.89,4.22,34.56-10.17,2.24-3.72,6.48-.79,8.61,2.41,2.49,3.73,4.85,7.18,9.67,8.48,3.72,1,5.21,4.67,2,7-12.8,9.46-6.2,20.14-2.26,30.45,1.7,4.44,6.46,9-.83,11.8-5.68,2.2-10.9-.53-12.63-6.46a106.8,106.8,0,0,1-3.86-20.68c-.93-10.55-6.65-13.58-16.24-12.13-4.36.66-8.79,1.47-13.16,1.36-18-.45-19.69,1.82-13.17,18.34a43.82,43.82,0,0,0,3.1,5.86c3.18,5.43,2.21,11.39-2.78,13.6-6.05,2.68-11.06-2.5-10.79-8.16.91-18.46-12.64-33.19-12.3-51.42C633.61,384.57,632.52,380.24,638.82,379.41Z"/><path d="M766.72,395.27c19-.94,37.8,14.89,38.25,32.2.32,12.37-10.93,22.71-25.4,23.32-23.24,1-33.62-7.59-34.4-28.46C744.54,405.2,751.86,396,766.72,395.27Zm4.19,12.5c-10.67-.27-15.29,3.56-15.7,13-.5,11.25,8,20.15,19.78,19.94,8.44-.14,17.56-.94,19-11.89C795.07,420,781.32,408,770.91,407.77Z"/><path d="M500.3,404.43c.18-20.77.21-20.59-19-17.68-12.59,1.91-25.66.56-37.72,6.16-3.92,1.81-7.67,3.1-6,8.41,1.38,4.27,4.16,6.56,9.05,5.93,7.48-1,15-1.45,22.23-4,3.69-1.3,9.42-3,10.56,1.5,1.61,6.33-5.51,6-9.12,6.48-7.66,1-14.51,3.87-21.61,6.4-7.26,2.58-6.55,7.47-4.34,12.8,2.75,6.65,6.7,5.27,11.5,1.79,2.8-2,6.4-7.19,10-2.4,3.4,4.55-.16,7.25-4.63,9.93-5.7,3.42-8.67,11.54-17.77,8.49-4.44-1.48-8.25-2.73-9.7-7.82-3-10.67-6.88-21.13-9.43-31.91-3.11-13.17,7.46-26.36,20.86-27.75,9.66-1,19.23-2.84,28.85-4.26,10-1.48,19.65-3.49,28.38,5.48,4.22,4.34,10.89,5.57,18.43,2.31,11.22-4.85,23.34-1.63,33.13,4.51,18.08,11.35,15.53,35-4.44,48.38-8.59,5.75-18.55,8.3-28.46,9.91s-16.91-.43-16.82-13.82C504.36,423.36,499.31,413.53,500.3,404.43Zm33.31-7.06c-9.86-.46-15.66,2-18.27,10.25a30.12,30.12,0,0,0,5,27.5c4.87,6.27,11.86-2.22,17.23-4.84s9.58-7.67,13.37-12.41c3.51-4.38,4.51-9.37-1.25-13.69C544.24,400.08,538.67,396.9,533.61,397.37Z"/><path d="M314.54,440.63c-.62,5.11-5.14,6.17-11.76,2.82-12.31-6.21-23.13-14.55-33.7-23.32-13.13-10.88-15.12-10-19,6.06-1.14,4.73-.31,12-7.84,12-7.91,0-6.36-6.79-7-11.89-1.51-11.77-1.1-23.86-7.83-34.63-2.79-4.46-1.85-10,3.72-12.41,6.5-2.87,8.74,1.25,9.55,7,.41,2.87,2.1,5.19,5.11,5.2,3.31,0,3.66-3.28,4.84-5.58,7.56-14.76,34.82-24.28,49.49-17.32,8.52,4,10.19,12.41,3.7,21.15-5.13,6.89-12.25,11.42-20.32,14.2-7.69,2.65-6.56,6.88-1.34,10.17,8.8,5.55,15.83,14.19,26.83,16.06C313.13,430.79,315.15,433.2,314.54,440.63Zm-49-44.09c8.75-1.71,16-3.77,22.51-7.67a7.85,7.85,0,0,0,3.69-9.19c-1.14-4-4.94-3.1-7.82-3.33-8.68-.69-14.72,5.21-21.57,9-2.91,1.63-5.22,3.72-3.31,7.4C260.67,395.89,263.39,397.06,265.55,396.54Z"/><path d="M408.22,414.68c.65,7.59.78,15.13-2.85,22.15-3.52,6.8-7.2,8.87-14.37,3.07-8.53-6.89-18.31-12.27-27.73-18-6.56-4-8.66-.88-8.53,5.77.15,7.34,5.2,18.79-6.55,19.17-9.41.31-6.44-11.3-8.05-18.17-2.12-9-1.55-18.66-6-27.06-2.76-5.15-2.32-9.5,2.45-12.8,6-4.14,11.34-1.7,15.24,3.13,9,11.2,20.65,19.41,31.67,28.32,3,2.4,5.62,6.76,10.15,4.36s3.69-7.6,4-12c.41-5.2-2.07-9.4-4.51-13.66-2.29-4-2.69-7.77,2.52-9.68,4.72-1.73,8.42-.92,10.74,4.4C409.4,400.58,408.38,407.63,408.22,414.68Z"/><path d="M97.46,398.11c5.3-1.31,12.15-3.07,19-4.67,3-.7,6.67-1.39,7.75,2.65.9,3.38-2.49,4-4.8,5.22a81.2,81.2,0,0,1-17.43,6.3c-4,1-10.47.65-10.62,6.05-.16,6.06,2.44,12.24,8.58,15.38,4,2,11.36,2,6.69,9.23-3.86,6-10.22,6.73-16.36,2.89-3.9-2.44-5.57-6.64-7.17-10.88C78.31,417.46,72.54,405,68.46,391.9s-.18-16.63,13.53-18a326.43,326.43,0,0,0,37.71-6.45c5.11-1.13,8.84-1.58,10.37,4.2s-.83,7.27-6.76,8c-10,1.32-19.76,4.59-29.68,6.78-4.09.9-10.34-.62-9.64,5.95S91,397.62,97.46,398.11Z"/><path d="M216.8,421.06c-1,3.8,1.73,9.94-5,10.45-5.49.42-8.39-2.93-9.87-8.63-1.95-7.54-4.22-17.65-13.46-17.35-9.82.33-18.48,5.77-19.18,18.21-.18,3.17-2.8,6.41-4.87,9.2-2,2.62-5,3.82-8.28,2.33-2.89-1.34-3.3-4.51-2.59-6.91,2.89-9.7-1.43-21.1,7.5-29.53,2.2-2.07,3.08-6.53,3-9.87-.23-11.61,9.84-10.92,16.38-14.23s8.45,3.23,10.93,6.7c7.27,10.17,18.37,17.32,22.72,29.93C215.23,414.56,217.88,417.18,216.8,421.06Z"/><path d="M14.05,389.34c.39,3.83.65,8.26,1.3,12.63,3.83,25.9,6.6,27.12,27,11.44,3.26-2.5,6.24-3.9,9.37-1,3.67,3.45,1,6.35-1.65,9-1.26,1.25-2.64,2.4-3.79,3.75-7.25,8.52-16,15.94-27.47,11.58C8.5,432.84,8.06,421.61,6.54,411.92c-2.33-14.85-.86-30.2-6.17-44.68-1.21-3.3.63-6.17,4.14-7.14,3.22-.9,5.07,1.39,6,3.92C13.6,372,15.87,380.06,14.05,389.34Z"/><path d="M120.55,21.33c0,5-2,9.45-3.32,14.14-1.11,4-8.86,6-4.45,11s11.33,5.4,17.28,2.51c5.74-2.8,9.82-2.11,11.05,4.09s-.74,12.44-8,12.88c-8.29.51-16.82.29-24.77-3.49-5.18-2.46-10.88-3.83-16-6.35-7.16-3.5-9.51-1-10.16,6.26-.58,6.53,1.28,17.48-7.76,16.6-8.35-.82-5.09-11.7-5.24-18.29-.3-13.4-.66-26.75-7.7-38.61-3.65-6.16-1.67-10.47,3.38-13.42,5.5-3.22,7.54.84,9.3,5.59,2.66,7.15,6.33,3.7,9.9.46,5.29-4.82,10.82-9.27,18.36-10C115.06,3.33,120.9,8.7,120.55,21.33Zm-14,6c.09-5.83-3.41-7.6-7.69-7.66-8.81-.12-12.09,7-14.14,13.43-1.33,4.13,4,5,7.53,5C99.83,38.08,104.18,33.64,106.51,27.34Z"/><path d="M489,58.89c4.36-16.61,7.64-33.62,13.52-49.67C505.88.1,517.37,2,521.83,6.6c13.32,13.74,28.37,26.54,35.72,45.07,2,4.93,1,9.9-4.54,12.23-3.64,1.52-7.15,2.84-9.36-3.14-2.37-6.44-2.6-17-12.71-15.55-10.53,1.55-22,4.09-27.38,15.46-2.24,4.72-5.08,6.94-10.25,6.15C488.3,66.05,488.34,62.67,489,58.89Z"/><path d="M760.87,81.5c1.81-8.19,1-16.74-13.57-22.81-14.92-6.2-18.08-24-23.69-38.21-1.34-3.39-.14-7.59,4-8.71,4.48-1.22,7.69,1.55,9.53,5.48,3.93,8.4,6,17.68,12.46,24.87,3,3.33,6,7.78,10.78,6.32,5.75-1.76,3.32-7.61,3.2-11.63a101.21,101.21,0,0,0-2.46-17.07c-1.19-5.83,1.43-10.61,6.21-11.64,6.18-1.35,8,4.82,8.48,9.49.8,7,1.27,14.28.37,21.24-2.57,19.83-4.74,39.62-3.32,59.65.31,4.38,1,9.84-5.83,9.38-5-.33-7.89-3.6-7.38-9.12C760.05,94.32,760.28,89.89,760.87,81.5Z"/><path d="M317,36.58c.82,19-2.63,21.11-20.44,13.46-8-3.45-16.71-5.46-24.65-9.1-7.39-3.4-7.58.71-7.17,5.75.65,8,1.32,19.38-7.33,19.52-8,.12-6.83-11.33-6.78-18.94.06-9.7-4.79-18.83-3.43-28.87.5-3.74.21-7,4.59-8.34s7.43-.65,9.93,3.75c7.57,13.28,22.6,16.29,34.29,23.85,5.11,3.31,9.53,1.1,8.83-6.24-.58-6.13-.42-12.23-3.64-18C298.85,9.07,297.9,2.62,303.4.51c6.15-2.35,7.6,3.91,9.22,8.53C315.76,18,316.67,27.22,317,36.58Z"/><path d="M216.94,38.13c0,16.2-10.07,29-23,29.09-13.83.12-27.27-16.65-27.2-33.94.06-15.21,7.65-24.83,19.75-25C202.76,8,216.91,21.84,216.94,38.13Zm-11.17,2.3c1.19-10.65-5.62-16.25-13.24-17.13C187,22.66,180,27.36,179.71,35.46c-.32,7.7,9.06,20,14.88,19.25C203,53.58,206.38,48,205.77,40.43Z"/><path d="M434.89,70.24c-24.34,1.52-38.66-18.84-28.45-39.62C413.14,17,423.45,6.87,440,6.23c3.83-.15,9.15-.65,7.79,5.66-1,4.46.46,12.22-8.26,10.47-4.14-.83-7.64-.93-11.41,1.18-9.29,5.18-15.89,17.88-11.41,25.58,5.1,8.77,14.43,11.51,24.12,9.71A49.51,49.51,0,0,0,462.29,48.7c3.15-2.49,6.27-3.61,9.07.31s-.56,5.49-2.86,7.45C458.46,65,447.34,70.89,434.89,70.24Z"/><path d="M600.75,65.89c-8.8-.44-13.77-7.39-15-17-1.51-11.38-1.47-22.89-6.16-33.79-2.1-4.9-.9-10,5.71-11,6-.95,9,2.21,9.8,8.05,1.26,9.65,2.24,19.38,4.12,28.92,1.74,8.84,6.65,13,16.35,9.27,8.64-3.3,17.64-5.71,26.54-8.29,3.06-.88,6.47-1.13,7.43,3.11.82,3.61-2.26,3.92-4.6,5.19C631.59,57.55,618.39,64.89,600.75,65.89Z"/><path d="M679.85,70.06c-10,1.06-16.65-3.59-18.75-13-3.17-14.23-5.39-28.67-7.75-43.07-.76-4.67-.06-9,6.06-9.81,6.64-.88,6.88,3.69,7.52,8.28,1.27,9.2,2.2,18.5,4.28,27.52,4.07,17.69,10.21,20.68,27.69,14.92,5.34-1.76,13.06-8.87,15.83-2.08,3.15,7.7-7.65,9.14-13.07,11.94A43.91,43.91,0,0,1,679.85,70.06Z"/><path d="M5.36,6.52c4.53.44,5.2,4,6.43,7.37,3.42,9.38,2.28,19.25,3.26,28.87.59,5.75-.08,11.57,6.31,14.84,3.74,1.91,4.12,5.6.29,6.84-7.48,2.42-.57,16.46-11.76,14.32C4.35,77.7,3.79,72.1,3.84,66.88,4,49.68,5.26,32.41.48,15.51-.7,11.32.08,7.52,5.36,6.52Z"/><path d="M375.4,55.88c-.81,5.41-2.85,9.44-7.71,10.44-4.42.91-6.48-3.09-7.33-6.28-3.84-14.45-3.62-29.77-9.5-43.87-1.4-3.38.28-7.29,4.64-8.11,4-.75,6.67,1.31,8,5.23C368.43,27.45,367.11,43.29,375.4,55.88Z"/><path d="M837,56.24c4.11.64,5.15,3.8,4.19,6.86-2.51,8-5.63,15.8-8.55,23.66-1.31,3.53-4.12,4.53-7.49,3.71-4.51-1.1-3.47-4.37-2.45-7.38,2.41-7.1,4.77-14.22,7.45-21.21A8.45,8.45,0,0,1,837,56.24Z"/><path d="M251.8,1371.79c-7.94,0-13.65-.34-19.3.1-5,.39-11.41.3-10.88,7.95.46,6.75,3.15,11.63,11.62,10.51,10.82-1.43,21.77-1.85,32.58-3.3,4.67-.63,9.7-1.72,10.44,4.06s-5.06,4.51-8.6,5.08c-11.16,1.83-22.35,3.45-33.5,5.31-3.62.61-8.86-.51-9.26,5-.45,6.31,2.13,12,6.42,16.66,3.53,3.87,7.15,1.33,10.81.08,3.91-1.35,7.1-10.3,11.17-3.88,3.26,5.15-3,10.16-8,13.24-17.68,10.93-28,5.57-31.56-13.77-1.51-8.28-1.86-17.66-14.86-13.27-2.14.73-4.3-1-5-3.3a5.82,5.82,0,0,1,3.89-7.42c15.37-3.41,14-18,18.78-28.15,1.79-3.8,3.38-5.67,6.94-6.23a138.54,138.54,0,0,1,39.22-.51c5.26.68,10.13,3.18,9.32,8.87-.88,6.21-6.58,3.9-10.74,3.6Z"/><path d="M99.49,1367.08c6-.68,6.86,3.16,7.32,6.54,1.31,9.61,6.71,12,15.69,10.69,7.34-1,14.88-.78,22.33-.81,6.21,0,12.24,1,13.56-8.1.77-5.31,6.45-5.07,9.46-2.61,4.45,3.63,13.94,3,11.69,13.09-3.19,14.32-3.95,28.36,5.15,41.46,3.44,5-.18,9.37-4.6,11.94-5.29,3.09-8.63-.75-10.15-5a84,84,0,0,1-4.66-29.58c.09-8.53-3.49-11.72-12-11.41-10.48.39-20.88.16-31.26,2.72-9.32,2.29-11.41,5.73-4.41,13,2.36,2.44,6.53,4.65,4.49,8.56-2.26,4.32-.55,12-7.17,12.55-6.31.56-8.51-5.7-9.82-10.71-2.07-7.89-4.63-14.56-9.92-21.65-4.94-6.62-2.24-19,.79-28.48C96.41,1368.07,98.8,1367.49,99.49,1367.08Z"/><path d="M17.42,1432.94c-4.76-.41-8-.07-10.74-1.08-4.41-1.61-7.89-5.27-6.28-10.08,1.9-5.67,6.22-2.75,9.59-1,9.6,5.08,18.24-.34,26.15-3.79,6.86-3,.42-7-2.37-9.67-11.6-11.28-15.42-25.21-13-40.67,2.12-13.73,16.15-19.6,28-12.52,2.28,1.37,5,2.31,4.73,5.51-.3,3.76-3.33,4.58-6.41,5.41-17.25,4.68-20,15.33-7.6,28.8,5.29,5.74,9.67,12.47,18.47,13.67,5,.67,8.8,2.31,8.47,9.17-.33,6.71-3.87,10-9.21,10.88C43.44,1429.89,29.58,1431.36,17.42,1432.94Z"/><path d="M741.47,1430.21c-6.59-8-6.3-16.72-8.81-24.51-.9-2.79-.23-6.69-3.76-7.79-4.24-1.33-6.19,2.55-8.33,5.09-9.34,11-21.7,17.51-34.84,22.35-16.66,6.14-26.18.63-29.55-16.61-2.09-10.71-3.82-21.52-5-32.37-.57-5.38-1.35-13.81,5.52-14,6.53-.17,6.89,8.52,6.25,13.65-1.31,10.57,2.2,19.72,5.37,29.32,2.13,6.45,5.5,7.59,11.7,7.12C699.48,1411,712,1398.1,725,1386c.82-.76,1.58-2.53,1.26-3.44-7.36-20.8,12.09-17,20-18.81,16.69-3.76,34,0,50.1,6.11,16.35,6.16,20,21.3,8.77,34.85-10.53,12.66-24.42,20.87-39.62,26.73-4.48,1.72-11.16,2.35-12.62-2.92-1.74-6.35,5.43-4.87,9.13-6.2,14.4-5.16,25.38-14.9,34.65-26.63,4.35-5.49,3.54-10.58-3.59-13.55-13.59-5.65-27.91-7.3-42.33-6.11-10.22.83-13.88,6.51-10.41,17.33,3.21,10.06,9.13,20.15,4.59,31.46C744.39,1426.37,743.19,1427.65,741.47,1430.21Z"/><path d="M428.8,1426.33c11.06.54,21.66-.59,31-7.51,2.34-1.74,6-3.92,8-.42,1.79,3.18-1.7,4.94-4.15,7-14.82,12.22-31.27,15.58-49.79,10.56s-33.06-24.52-32.15-44.18a34.93,34.93,0,0,1,30.16-32.82c6.12-.88,12.31-.57,18,2.08,4.15,2,7.44,5.38,5.88,10.4-1.45,4.66-5.77,2.89-9,2.48-7.41-.92-14.64-1.59-21.92,1.31-12.54,5-15.92,11.68-11.77,24.64C399.05,1418.82,408.2,1425.56,428.8,1426.33Z"/><path d="M500.32,1370.57c18.37,0,32.44,12.41,32.49,28.7,0,12.36-18.47,28.09-33.08,28.12s-24.94-9.83-24.77-24.19C475.2,1383.73,485.89,1367.51,500.32,1370.57ZM498.73,1414c11.33-.49,22.66-8.6,22.57-16.21-.07-6.63-11.71-16.35-20.08-15.53-10.2,1-15.14,8.49-15.52,17.82C485.38,1408.1,489.27,1414.28,498.73,1414Z"/><path d="M627,1383.75c.32,18.44-11.38,30.18-23.22,41.09-6.76,6.23-21.25-.2-26.84-11.58a311.15,311.15,0,0,1-13.31-32.66c-1.78-5-2-11.38,4.65-13.08s7.2,4.26,8.53,9c2,7.14,4.65,14.11,6.76,21.22,2.35,7.94,7,13.11,15.66,13.34s10.38-7.39,12.55-13.06c3.16-8.28,7.52-17,0-25.8-2.65-3.1-3.27-7.82,1.89-9.67,4.13-1.48,8,.32,9.36,4.76C624.68,1372.66,625.7,1378.25,627,1383.75Z"/><path d="M689.11,1182.18c4.95.9,7.23,4.22,10,7.89,6.79,9,11.4,23.59,27.87,13.87a3.74,3.74,0,0,1,5.34,2.28,4.37,4.37,0,0,1-1,3.4c-9.55,11.47-9.12,15.77,3.08,25.24,2.65,2.06,7.06,2.59,6.41,7.2-.62,4.35-1.81,9-6.32,10.79-4.05,1.6-6.35-2-8.37-4.81-5.61-7.77-10.93-15.76-16.57-23.51-10.54-14.48-18.14-13.46-25.85,3.35-1.82,3.95-3.26,8.14-5.57,11.79-2.42,3.81-6.1,6.84-11,4.83s-4.19-7.54-2.73-10.29c5-9.43-1.64-23.41,12.54-29.73,3.28-1.47,3.05-10.36,4.88-15.68A9.84,9.84,0,0,1,689.11,1182.18Z"/><path d="M796,1253.32c-13.5-1.63-27.73-1.45-38.33-13-3.11-3.38-5-6.4-2-10.16,3.36-4.2,6.34-2.3,9.69,1,4.88,4.81,9.92,10,18,8.61,3-.51,6.49-.09,8-3.44,1.63-3.72-1.62-5.44-3.85-7.4-7.94-7-15.15-14.58-19.09-24.65-2.44-6.24-1.66-12.36,3-17,3.45-3.42,8.07-2.32,12.32-.36,5.32,2.45,8.57,5.8,2.89,10.57-4.7,4-3.75,7.61-.71,11.23,5.88,7,11,14.91,18.89,19.85,6.65,4.19,12.27,7.34,8.84,17.25S802.54,1252,796,1253.32Z"/><path d="M.24,1248.09c3.6-13.32,7.74-27.87,11.41-42.54,1.69-6.75,2.3-13.78,3.74-20.6.85-4,3.05-7.82,7.48-8,4.11-.12,3.52,4.3,4.47,7,6.63,18.77,14.94,23.42,33.67,18.8,2.13-.52,4.29-.9,6.44-1.3,2.59-.47,5.63-1.24,6,2.59.26,2.55-2.11,3.53-4.29,4.12-3,.8-6.06,1.2-8.85,2.38-8.67,3.66-9.46,10.11-1.73,15.4,3.51,2.4,8.64,3.16,6.81,9.25-1.2,4-3.65,7.31-7.6,8.43-5.67,1.59-6.74-4.22-9.86-6.9-4.95-4.23-5.46-14.16-14.84-12.61-10.11,1.66-16.15,7.59-17.92,18.15-.62,3.66-3.56,7-5.59,10.33-1.59,2.63-3.47,5.75-7,4.73C-1.74,1256.13.81,1252.28.24,1248.09Z"/><path d="M105.74,1241.22c-8.34-.07-16.68-.09-23.22-6.66-2.48-2.49-6-4.73-3.45-8.69s6.14-2,9.06.05c8.77,6.06,18,5.26,27.47,2.16,6.17-2,7.06-5.1,1-8.4-7.62-4.14-12.26-11.22-17.45-17.57-8.52-10.42-6.59-24,3.24-29.49,2.51-1.41,4.84-1.93,7.3-.22,2.27,1.58,4.72,4.3,3.48,6.48-13.25,23.24,6.64,28,20.14,35.76,4.9,2.8,7.18,5.25,6.77,11-.38,5.42-2,9.27-7.38,11-1.25.39-2.56.63-3.77,1.11C121.47,1240.67,113.69,1241.5,105.74,1241.22Z"/><path d="M386.64,1212.8l-1.83-17c-.52-4.82-1.73-10.4,3.95-12.64a12.28,12.28,0,0,1,14.83,5.33c9.8,18.47,29.77,23.46,44.62,35.1,4.67,3.66,8.39-.65,7.13-6.33-1.9-8.51-2.26-17.42-6.41-25.37-1.81-3.48-4.51-7.75.18-10.37s7.5,1.61,8.86,5.25c5.62,15.15,9.88,30.66,10.17,47,.12,6.63-3.72,7-8.73,5.6-16.06-4.43-31.52-10.18-45.15-20.08-3.12-2.27-6.18-6.06-10.37-3.54-3.71,2.24-1.25,6.4-1.24,9.74,0,1.31.51,2.7.22,3.92-1.58,6.61-1,17.31-8.44,17.32-7.77,0-6.89-10.16-7.05-16.9-.15-5.68,0-11.35,0-17Z"/><path d="M495.72,1216.82c.83-7.16.43-15.68,5.39-23,2.66-3.92,5.29-9.64,10.93-6.62,6.19,3.33,3.78,9.29.69,13.67-8.81,12.51-6.34,24.76.32,36.89,1.81,3.29,4.19,8.28,8.32,7.28,5.33-1.29,1.86-6.51,2.25-10.09,1.29-11.73,2.29-23.61,16.15-28.51,8-2.81,15.76-6.92,22.31,2.15,6.41,8.89,5.67,24.72-1.46,31.32-9.1,8.43-19.87,15.07-31.78,17C509.84,1260.08,493.88,1240.32,495.72,1216.82Zm45,21.21c6.53-2.2,14-4.64,16.77-12.15,1.39-3.73-3-6.21-6.58-6.48-8.5-.64-12.55,5-14.89,12.11C534.94,1234.84,536,1237.57,540.74,1238Z"/><path d="M318.38,1185.92c23-1,41.47,11,42.53,27.62.82,12.69-15.75,25.22-35.2,26.61-13.6,1-29.09-13-29.74-26.72C295.18,1196.6,303.36,1186.56,318.38,1185.92Zm5.19,40.5c10.28-.61,22-.93,24-10.85,2.27-10.93-11.19-11-17.82-15.76a3.08,3.08,0,0,0-1.25-.37c-5.9-1-11.61-3.33-16.59,3.18-3.55,4.65-5.71,9.1-3.15,14.31C311.87,1223.23,317,1227.06,323.57,1226.42Z"/><path d="M218.65,1174.75c5.77.75,6.78,5.93,7.45,10.51,1.71,11.67,3.33,23.41,4,35.18.89,15.29,2.51,16.34,15.63,9.72,8.87-4.47,17.77-9,27.57-11.57,4.43-1.15,8-1.86,9.15,3.51.93,4.28,1.68,9.6-4.72,10.15-13.68,1.17-24.54,8.46-36,14.91-12.39,7-18.58,3.85-21.22-10.35-3.36-18-2.36-36.72-7.42-54.59C212,1178.33,213.48,1175.27,218.65,1174.75Z"/><path d="M23.76,1593.21c1.11,3.16.2,6-1.33,8.78s-1.34,7.72-6.35,6.8c-3.88-.72-5.35-4.28-6-7.81-3.65-19-3-38.71-9.32-57.33-1.42-4.16-1-9.33,3.39-11.74,4.62-2.53,6.87,1.5,9,5,3.07,5,6.87,3.48,9.53,0,7.69-10.14,16.71-12.44,26.9-4.52,7.11,5.51,6.82,21.36.28,31.76-4.63,7.36.37,21.41,9,23.43,3.56.84,8.15-1.69,8,4.85-.11,4.16-1.17,7.8-5.25,9.81a10.22,10.22,0,0,1-13.08-2.75c-4.07-5.1-7-10.86-13.41-13.9-3.63-1.72-7-4.54-10.83-1.91S22.92,1589.93,23.76,1593.21Zm18.85-43.42c-.12-4.25-2.91-6.84-6.69-6.06-6.88,1.41-11.76,5.84-12.89,13.13-.51,3.29,1.84,4.9,5,4.12C34.35,1559.38,41.17,1558.14,42.61,1549.79Z"/><path d="M586.29,1543.81a124.16,124.16,0,0,1,27.19,4c4.73,1.14,10.77,2.8,12.17,6.86,2.59,7.54,7.11,10,14.27,10.43,2.62.16,5.08,2.16,4.22,5.41-.71,2.65-3.49,2.68-5.45,2.21-18.6-4.55-25.13,10.33-34,21.16-3.7,4.53-3.93,10.09.3,14.38s9.35,4.2,14.35.75c4.85-3.35,11.62-9.55,15.51-3.65,4.52,6.85-4.55,11.21-9.33,15-9,7.17-19.53,8.53-29.32,2.25-9.45-6.07-10.23-16.5-3.8-29.39,8.78-17.61,8.78-17.46-10.75-17.93-3.86-.09-11.07,3.66-10.53-4.51.47-7.19,6.89-6.14,12.32-5.71,7.4.58,14.83.73,22.25.86,2.13,0,4.72-.41,5.07-3.08.47-3.59-2.79-4.66-5.11-4.56-9.5.42-18.93-1.73-28.57,1.47-6.52,2.15-17.35,4.83-18.92-4.63-1.49-8.91,9.65-9.27,16.38-11.15C578.18,1543,582.35,1543.81,586.29,1543.81Z"/><path d="M429.47,1582c1.09-4.37-.69-10.81-1-17.32-.36-6.94-4.83-16,4.86-19.55,9.34-3.47,12.45,5.34,16.79,11.14,7.84,10.49,15.55,21.16,26.11,29.16,4,3,8.16,8.29,13.71,5.81,6.43-2.88,2.71-9.26,2.6-14.15-.17-7.36.93-14.92-2.64-21.88-2.37-4.62-.54-7.89,3.88-9.16,5-1.43,10.05,1.25,9.27,6.11-2.51,15.78,3.39,31.2,1,46.87-1.12,7.23-3,11.2-11.9,7.9-13.23-4.92-25.62-10.62-34.79-21.8-2.74-3.35-5.77-8.18-10.4-6.39-5.25,2-2.52,7.55-2.18,11.7.28,3.43,1.56,6.79-.57,10.18s-3.54,7-8.71,6.39c-5.46-.61-5.95-4.22-6-8.38C429.44,1593.79,429.47,1589,429.47,1582Z"/><path d="M718.46,1575.63c-11.35,3.17-21.08,6.33-31.57,6.88-5.67.29-12.81,1.63-10.3,9.71,2.16,7,6.47,14.08,15.86,11.8,4.08-1,8.94-5.24,10.57,1,1.21,4.6-1.11,10.64-6.18,13.38-7.85,4.24-15.49,3.25-21.18-3.9-16.62-20.87-16.47-45.16-13.27-69.83.6-4.62,5.19-5.63,9.19-6,17-1.38,34-2.56,51-3.84,5.4-.41,8.64,2.59,8.9,7.41.31,5.55-3.72,4.8-8.14,5-13.81.69-27.56,2.49-41.33,3.92-6.93.71-9.16,4.1-8.76,11.44.42,7.87,4.67,8.41,10.29,8.22q10.47-.36,20.94-1.16C709.38,1569.36,714,1569.5,718.46,1575.63Z"/><path d="M396.93,1584.76c-.52,11.26-15.07,27.12-27.54,30-12.3,2.87-28.2-4.4-35-16-9.11-15.54-8.75-34,.82-43.89,4.44-4.57,9.87-9.65,15.41-3.58,5.06,5.54,2.08,10.56-4.57,14.63-8.13,5-5.72,27,2.8,30.85,5.4,2.46,7.31-1.49,8.22-5.4,1.51-6.55,4.84-12,8.24-17.66,4.62-7.75,10.72-11.74,19.24-10.07C392.39,1565.23,397.4,1574.82,396.93,1584.76Zm-24,16.34c4.61-4.4,12.18-6.66,12.31-15.07.08-5-3.5-5.64-7.13-4.89-8,1.66-8.73,8.7-9.91,15C367.71,1598.82,369,1601.25,372.94,1601.1Z"/><path d="M126.92,1541.62c-9.87-1.27-19,2.75-28.49,4.05-2.16.29-4.62.89-4.79,3.59-.22,3.58,2.81,4.39,5.32,4.25,7.84-.44,15.65-1.41,23.48-2,2.75-.22,5.68.44,6.35,3.41.71,3.14-1.9,4.54-4.54,5.4q-7.48,2.45-15,4.85c-4.05,1.3-9.91,1.35-9.79,6.91.15,7.22,4.13,13.59,9.86,17.76,4,2.9,8.19.9,11-3.53,1.32-2.06,3.61-4.55,6.45-2.37,2.57,2,1.26,4.74.07,7.14-3.81,7.65-8.14,14.52-18,15-9.45.5-13.1-6.54-16.23-13-7.89-16.45-10.26-34-8.18-52.16.57-5,2.34-8.91,7.44-9.15,15.09-.7,30-4.3,45.29-2.07,3.77.55,5.34,2.65,5.68,6,.39,3.85-2,5.65-5.45,5.92S130.4,1541.61,126.92,1541.62Z"/><path d="M300.3,1578.63c-.52,14.72-14.67,27.5-30.16,27.24-14.61-.24-23.78-13-22.93-31.89.62-13.77,9.84-25.63,20.31-24.42C284.9,1551.58,304.53,1560.78,300.3,1578.63Zm-40.84-4.33c0,11.93,4.87,18.35,14.73,18,7.39-.29,14.67-3.94,15.83-12.8.8-6.15-13.24-18.44-20.4-17.49C261.87,1563,259.11,1568.84,259.46,1574.3Z"/><path d="M230.16,1602.51c-14,14.37-41,14.8-56.06,1.75-16.51-14.32-19.22-33.92-6.65-49.64,5.12-6.4,11.49-10.54,20.23-10.24a10.29,10.29,0,0,1,9.9,7.25c1.6,4.46,2.31,9.77-.23,14-2.85,4.76-6,1-8.51-1.17-4-3.6-8.28-5-13-1.76s-4.59,8.12-3.9,13c2.15,15.2,17.84,27.57,33.52,26.88C213.4,1602.22,221.38,1602.51,230.16,1602.51Z"/><path d="M546.46,1605.4c-.38,2.93,1.36,6.93-2.81,7.79s-8.22-.85-9-5.53c-3-18.08-4.73-36.39-11.06-53.79-1-2.69-.11-5.51,3-6.2,3.77-.84,7,.86,9,4.08,3.35,5.38,3.25,11.71,4.34,17.7C542.13,1581.47,544.3,1593.49,546.46,1605.4Z"/><path d="M697.55,2159.5a68.66,68.66,0,0,0-7.74.66c-15,2.88-18.09,9.82-10.73,23.24,2.94,5.36,6.26,4.82,9.44.8s5.6-8.72,5.84-14.15c.06-1.48.25-3.11,2.25-3.22,2.37-.12,3.09,1.63,3.56,3.49,1.69,6.71-7.39,26-13.83,29.06-7.73,3.63-11.66-.82-14.73-7.13-5.18-10.62-5.4-22.33-6.7-33.62-.85-7.43-3.71-14.94-.7-22.93,1.68-4.49,3-8.4,7.79-9.81,16.82-4.93,33.79-9,51.52-6.24,2.85.44,6.08.45,8,3.28,1.23,1.79,3.15,3.55,2.11,5.94-1.12,2.55-3.71,2.42-5.82,1.82-15.47-4.4-30.21,1.7-45.26,3.09-4.86.45-10.6,1.4-9.78,8,.76,6.11,3.55,11.56,11.6,10.58,10.29-1.26,20.65-2.1,30.89-3.68,4.74-.73,8.71-.5,9.3,4.79s-3.94,4-7.13,4.33c-6.61.75-13.2,1.74-19.79,2.64C697.62,2160.1,697.59,2159.8,697.55,2159.5Z"/><path d="M506.77,2145.87c.39,16.33-19.14,38.56-32.67,38-10.34-.45-10.66,4.29-7.89,11.54,1.9,5,3.78,9.87,1.91,15.1-.9,2.52-1,6.6-5.15,6.13-3-.34-4-3.34-4.06-5.94-.18-13.61-6.42-25.93-8.08-39.22-.87-7-2.13-13.87-5.6-20.27-2.08-3.83.2-7.49,3.34-9.67s4.31,1.39,5.75,3.32c3.85,5.17,7.32,3.05,11.18-.19,8.79-7.37,19.16-9.47,30.32-8.25C502.61,2137.14,506.88,2140.53,506.77,2145.87Zm-43.24,21.22c-.24,7.25,1.23,8.69,8.21,8.06,9.2-.84,21.46-11.11,23.7-19.89.93-3.63.36-6.66-3.61-8.15C483.63,2144,463.82,2158,463.53,2167.09Z"/><path d="M58,2147c-12.7,2.92-23.71,9.43-35.5,14.22-3.4,1.38-8.85,1.59-8.26,7.39.36,3.64.9,7.81,4.78,9.56,4.63,2.08,6.39-2.35,9-4.73,3.3-3,4.53-11.85,9.57-8.34s-1.66,8.82-4,13c-2.18,3.89-4.36,7.83-8.33,10.35-8.38,5.33-14.11,3.23-18.14-5.82-2.71-6.07-6.92-13.25-6.9-18.32.06-9.48-1.16-19.81,2-28.86,2.21-6.27,10.59-6.06,16.52-7.64,7.17-1.91,14.68-2.5,22-4A9.88,9.88,0,0,1,51.46,2128c1.31,1.78,2.33,4.12,1,6.24-1.17,1.84-3.3,1.12-5.12.82-11.21-1.86-21.28,2-31.33,6.17-5,2.1-7.27,5.86-5.07,10.57,2.36,5,6.45,1.64,9.61.29,9.68-4.15,20-5.75,30.13-8.35C53,2143.08,55.88,2142.29,58,2147Z"/><path d="M279.64,2138.53c-2.46,13.28-2.53,24.66,6,34.64,2.63,3.08,1.72,6.57-1.59,8.63-4.43,2.75-8.29.8-10.06-3.45-3.12-7.48-6.88-14.9-6.51-23.39.34-7.78-1.06-11.86-10.8-8.75-8,2.55-16.54,3.8-24.81,5.87-7.81,2-9.79,5.59-7.65,12.68.75,2.49,1.11,5.13,2.12,7.5,1.72,4,4.61,7.76-.26,11.75-1.87,1.53-3.12,2.59-5.71,1.35-5.19-2.48-4.4-7.25-5-11.52-1.54-11.72-2.89-23.45-4.59-35.14-.65-4.51-.21-9.08,4.44-9.92,6.91-1.24,4.86,3.88,4.61,8-.3,4.84,3,6.56,7.43,5.49a132.27,132.27,0,0,1,31-3.41c3.16,0,5.85-1.26,7.15-4.39,1.52-3.64,3.24-7.23,8.06-5.38S279.61,2135.14,279.64,2138.53Z"/><path d="M635.32,2154.74c.48-5.66-.7-11.11-1.77-16.6-.53-2.76.37-5.64,3.31-6.28a4.63,4.63,0,0,1,5.68,5.21c-1.6,12.09,4,23.32,3.44,35.33-.42,8.32-4.15,10-11.4,9.18-11.56-1.37-20.9-7.19-29.94-13.85-2.29-1.69-4.23-5-7.62-3.5-3.88,1.67-1.64,4.93-1.43,7.77.43,5.76-3.55,13.54-6.31,13.46-6.95-.18-6.39-7.49-6.32-13.05.11-8.9.21-17.67-3.09-26.32-1.48-3.89-2-9.79,2.81-12.06s8.52,1.55,11.1,5.26c7.1,10.19,15.25,19.13,26.45,25,4.26,2.23,8.59,6.3,13.24,3.79C639,2165.12,634.61,2159.24,635.32,2154.74Z"/><path d="M130.73,2151c-1.61,3-4.62,3.44-7.51,4.17-3.37.85-6.74,2.25-7,6.18s1.57,7.12,5.81,8.38c3.27,1,6.93,2.17,6,6.53-.85,3.87-4.14,6-7.81,7.28-4.51,1.56-5.77-2.15-7.55-4.84-.81-1.23-1.07-2.84-2-4-2.7-3.48-1.19-11.91-7.72-10.23-7,1.81-17.32-.64-19.69,10.8-.64,3.1-2.9,6.05-5,8.63s-5.39,2.65-8.11,1-2.1-4.23-1.15-6.93c4.22-12.06,11.2-22.92,13.79-35.83,1.05-5.21,7.46-9.5,11.83-13.82,2-2,4.15-.11,5.64,1.64,1.67,2,3.75,3.88,4.64,6.21,4,10.31,7.94,19.9,21.94,12.3C128.73,2147.5,130.43,2148.71,130.73,2151Z"/><path d="M391.82,2193.87c-6.18-1.41-13.08-2.92-19.94-4.58-4.4-1.06-6.66-4.44-8.46-8.26-1.07-2.27-1.24-4.5,1-5.92a3.82,3.82,0,0,1,5.72,1.36c.58.94.65,2.38,1.43,3,5.34,4.12,12.93,6.1,17,1.78,4.63-4.92-4-5.91-6.46-8.8-6.08-7.14-13.4-13.54-7.73-24.39,2.54-4.86,20.68-13.51,25.84-12.14,2.49.66,4.19,2.21,3.75,4.66-.71,3.88-1,8.19-6.33,9.3-5,1-12.81-1.36-13.42,6.43-.55,7.13,7.12,8.63,11.94,11.78,1.25.82,2.55,1.54,3.84,2.28,5.55,3.18,13.93,5.16,10.15,14C407.18,2191.35,399.88,2193.23,391.82,2193.87Z"/><path d="M145.12,2157.05c-.29-10.63,4.19-19.6,10.89-27.31,6.22-7.17,11.89-2.83,17,2.2,5.74,5.59,3.92,12.21.26,17.06-3,3.94-4.5-1.37-5.81-3.57-4.85-8.16-8.47-5.36-11.46,1.28-3.72,8.25-.71,21.61,7,27.58s16.37,6.67,24.76.61c4.22-3.05,8.41-6.15,12.59-9.26,1.46-1.08,3-2.72,4.83-1.27s.94,3.32.06,5c-6.91,13.4-31.59,23.3-45.18,16.85C148.32,2180.69,145.47,2169.21,145.12,2157.05Z"/><path d="M547.92,2148.27c-1.44,10.2-2.65,19.42-1.23,28.8.69,4.55-1.54,7.32-6.4,6.62-4.39-.64-8.26-2.43-6.57-8,2.64-8.71,2.25-17.65,2.74-26.55.27-4.76-2-12,6.33-11.49C550.22,2138.12,547,2144.88,547.92,2148.27Z"/><path d="M748.78,2204.18c-.94,12.2-4,22-9.47,31-1.43,2.36-3.36,4.23-6.32,2.93-3.15-1.37-2.93-3.92-1.48-6.49,5.53-9.78,9.87-19.87,9.1-31.49-.13-1.84.5-4.38,2.79-3.84C748.37,2197.41,748.13,2202.05,748.78,2204.18Z"/><path d="M755.47,2000.74c0,7.48.25,10.21-.05,12.89-.6,5.31-.51,11.77-7.62,12.5s-7.77-5.32-9.53-10.66c-5.49-16.68-3.53-34.32-7.28-51.2-1.31-5.92-.94-12.69,6.41-14.76,6.78-1.92,10.94,2.77,14.39,8.07,10,15.37,22,28.12,41.4,31.24,14.51,2.33,17.64-1.38,13-15.81-2.71-8.35-7.25-15.63-12-22.88-2.41-3.65-4-8.33-.26-12,4.15-4.11,8.27-.38,11.67,1.75,8.23,5.18,19.56,49.86,14.07,57.83-5.15,7.47-13.16,10.36-22.67,9.23-10.51-1.25-19.28-6.69-28.76-10.47-4.26-1.7-7.74-8.36-12.58-4.81C751.14,1995,755.47,2000.8,755.47,2000.74Z"/><path d="M658.49,2036.34c-21.56.22-33.8-10.85-33.8-30.59,0-19.21,21.15-44.41,37.7-44.91,9.14-.27,33.3,29.67,33.43,41.45C696,2018.51,676.66,2036.15,658.49,2036.34Zm1.36-16.19c12.82.84,20.45-5.76,22.46-17.89,1.45-8.76-14.43-26.25-22.4-24.11-11.27,3-20,10.44-21,23.57C637.76,2017,648,2019.4,659.85,2020.15Z"/><path d="M374.69,1958c4.63-.32,9.27-.66,13.91-1,2.7-.18,6.63-1.55,7.92-.28,11.68,11.52,23.71,4.24,36.25,2.41,7.67-1.12,19.23.09,21.09,10.08,1.65,8.85-7.54,13.52-14.69,17.54-5.4,3-11,5.76-16.55,8.49-7.05,3.45-7.23,7.07-1,11.88,9.85,7.62,22,7.38,33.19,8.93,4.9.68,9.13-6.33,12.51-11,1.4-1.94,2.29-4.48,5.13-2.87,2.54,1.45,1.2,3.71.8,6.08-2.28,13.56-13.72,15.06-23.5,16.38-12.35,1.68-24.36-2.18-35.43-8.18-1.66-.9-3.67-2.57-5.12-2.22-15,3.61-11.58-6.06-10.46-14.16.88-6.39,6.55-13.87,2.06-18.76-4.72-5.13-10.33,3.36-16.26,4-8,.8-15.88,3.54-24.06,2.38-5.23-.74-6.48,1.67-7.27,6.36-1.43,8.5,3.88,13,9.32,17.32,5.72,4.51,9.1.07,12.19-4.24,1.2-1.67,2.84-3,4.78-1.5s.95,3.46,0,5.23c-3.55,6.45-8.45,11.51-16.16,11.62-7.35.1-12.06-4.8-15.12-11-5.62-11.35-5.3-24.06-5.19-36,0-4.86-6.55-10.5-1.31-13.19,6.24-3.21,14.11-3.42,21.35-4.46,3.8-.55,7.74-.1,11.62-.1Zm-.46,7.64v.47c-6.19,0-12.37,0-18.56,0-3.37,0-6.4,1.17-7.14,4.65-.79,3.72,2.21,5.91,5.11,6.71a73.15,73.15,0,0,0,41.11-.25c2.8-.84,6.11-2.5,5.08-6.55-.88-3.44-3.73-4.91-7-5C386.6,1965.53,380.42,1965.64,374.23,1965.64Zm57.76,1.43c-9.91,0-18.25,8.42-18.41,18.61-.1,6,3.11,5.35,6.67,3.08,5.19-3.33,10.16-7,15.35-10.34,2.71-1.74,5.56-3.4,4.77-7.1C439.4,1966.75,435.5,1967.11,432,1967.07Z"/><path d="M296,2023.43c-13.23,1.56-22-14.19-24.69-26.37-2.63-11.91.07-24.68-4.42-36.67-2.05-5.48,2-7.86,6.17-5.59,4.73,2.54,6.52,2.17,10.06-2,5.55-6.61,25.77-4.81,36,1.65,9.14,5.78,11.68,12.77,5.67,22.23-3.19,5,1.07,6.69,4.12,9,9.76,7.38,10.08,18.31.42,25.87S308.57,2023.44,296,2023.43Zm14.12-32.24c-6.73-1.21-12.72,3.27-19.44,4.9-4.6,1.12-10.06,1.48-8.65,8.2,1.17,5.57,4,9.58,10.91,10.11,11.67.9,21.15-3.57,29.91-10.35,5.9-4.58,4.44-8.4-1.89-11C317.77,1991.69,314.46,1990.44,310.15,1991.19Zm-8.95-30.7c-5.84-.91-11.29-.57-13.21,6.1-1.22,4.23-5.19,9.39-1.22,12.94,4.62,4.13,10.74.7,16.18-.29.35-.07.63-.44,1-.58,5.74-2.2,13.17-4.05,11.63-11.82C314.18,1959.85,306.69,1961,301.2,1960.49Z"/><path d="M179.08,1989c.21,4.59.74,6.63.29,8.44-1,3.84,0,9.75-5.84,9.78-4.62,0-5.88-4.67-6.1-8.64-.74-13.36-7.19-26.29-2.88-40,1-3.22.55-7.14,5.46-7.68,4.26-.47,6.26,2.35,8.43,5.1,4.32,5.48,8.28,11.31,14,15.47,9.81,7.14,14,6.1,20.63-4,4-6.09,5.69-17.47,15-15,8.37,2.24,6.22,13.82,9.11,21.06,1.92,4.82,1.12,10.71,1.64,16.1.39,3.93,1.19,7.91,4.63,10.27s7.22,4,4,8.88c-2.11,3.16-4.11,7.79-8.3,7.32-4.87-.55-5.63-5.37-6.37-9.76-1.75-10.3-3.64-20.6-6-30.78-1.44-6.26-4.76-6.49-8.52-1.42-.47.63-.84,1.31-1.29,2-12.37,17.48-12.38,17.49-29.73,5.82-2.19-1.47-4.67-4.62-7-2.43C176.86,1982.78,179.15,1987.57,179.08,1989Z"/><path d="M66.33,1975c-.61,4-.8,7.12-1.59,10.09-4.18,15.68-10.68,19.06-25.46,12.83-5.57-2.36-11.44-8.84-15.92-7.83-6.7,1.5.43,11.3-4.76,16.21-2.2,2.09-.92,7.78-5.67,7.54s-3.58-4.92-4.48-8.1c-3.69-13-2.63-26.77-7.86-39.56-2.14-5.26,1.88-11.07,6.55-13.39,5.83-2.88,7.61,3.22,9.78,7.16,5.43,9.86,10.77,19.69,22.07,24.33,5,2.07,10.71,8.68,15,1.87,4.16-6.65,6-15.56-.7-22.61-2.6-2.73-7-4.11-5.49-8.91.75-2.42,3.58-2.8,5.88-3,5.26-.48,7.89,3,9.14,7.26C64.43,1964.45,65.3,1970.2,66.33,1975Z"/><path d="M137.29,1984.78c-.9,17.32-10.6,28.25-23.45,26.77-9.24-1.07-12.94-8.15-16.39-14.86-4.38-8.57-7.51-17.78-11.18-26.71-1.29-3.15-1.58-6.2,2-8s6.66-1.09,9.12,2.29,2.83,7.32,2.85,11.08c0,9,4.91,15.28,10.69,21.13,6.14,6.2,13.65,4.88,16.34-3.33,3-9.32,2.84-18.32-6.38-24.91-2.61-1.86-6.79-4.22-3.09-8.19,3.22-3.46,7.22-2.25,10.33.7C135,1967.28,137,1975.75,137.29,1984.78Z"/><path d="M489.21,2027.88c-4.22-.37-7.08-.07-9.51-1-3.91-1.43-7-4.67-5.57-8.93,1.69-5,5.52-2.43,8.49-.86,8.51,4.5,16.16-.3,23.17-3.36,6.07-2.65.37-6.16-2.1-8.56-10.27-10-13.66-22.33-11.54-36,1.89-12.15,14.31-17.35,24.77-11.08,2,1.21,4.42,2,4.19,4.88-.26,3.33-3,4-5.68,4.79-15.27,4.15-17.71,13.58-6.73,25.51,4.69,5.09,8.57,11,16.37,12.1,4.38.6,7.79,2,7.49,8.13s-3.42,8.84-8.16,9.63C512.25,2025.17,500,2026.47,489.21,2027.88Z"/><path d="M471.41,1809.66c-16.2-3.7-32.78-5.77-48.54-11.41-8.76-3.13-15.64-3-17.88,8.61-.5,2.6-.76,9-6.46,7.55-3.9-1-5.08-5.2-5.88-9.24-2.34-11.74-1.76-24-6.23-35.35-2.35-6,1.48-9.62,5.95-10.87,5.74-1.61,4.83,4.31,6.15,7.58,1.49,3.68-.08,9.88,5.33,10.37,4.37.4,4.77-5.24,6.8-8.35,8.55-13.08,21.16-18,36.29-17.86,8.77.06,11.43,4.69,9.73,12.52a36.59,36.59,0,0,1-11.23,19.8c-6.64,6-3.36,8.77,2.95,10.25,8.34,2,16.85,3.18,25.27,4.79,3.6.69,10-2.66,9.28,4.83C482.34,1809.43,477.37,1810.89,471.41,1809.66Zm-48.85-28.06c7.83-2.9,16.31-5.79,19.17-14.83,1.43-4.49-3.31-6.19-6.56-4.91-7.7,3.05-16.52,5.58-18.9,15C415.35,1780.47,419.08,1781.5,422.56,1781.6Z"/><path d="M331.9,1769.74c11.11,2.37,19.42-3.57,28.61-4.77,3.08-.4,6.61-.9,7.07,3.15.32,2.85-2.69,4.37-5.23,4.59-13.26,1.16-24.07,10.87-37.9,10.38-6.75-.25-7,5.58-6.27,10.29,1.07,6.8,4,12.47,12.51,11.43,3.14-.38,7.12-3.3,8.4,2,1,4-3,6.42-5.54,7.89-7.66,4.37-15.37,5.23-21.13-3.5-9.91-15-5.16-32.56-8.05-48.79-.71-4,4.48-6.9,9.05-7.74q25-4.58,50-9.11c3.42-.62,6.26.55,6.78,4.1.64,4.4-3.36,4.35-6.08,4.9-10,2-20.14,3.46-30.07,5.8-5.1,1.19-13.6,1.55-12.91,7.85C321.9,1775.18,329.25,1767.55,331.9,1769.74Z"/><path d="M83.06,1774.72c9.43,6.69,17,.86,24.71-1.46,3.44-1,7.5-4.67,9.79.69,2.07,4.85-2,6.18-5.9,7.79-8,3.34-16.17,5.5-24.9,5.31-3-.06-6.72,0-6.68,4.12a38.48,38.48,0,0,0,5.28,18.3c1.7,3,4.93,3.31,7.9,1.78,3.6-1.86,7.87-8.59,10,.62,1.54,6.83-1.11,13.87-8.65,14.87-8.9,1.18-17.43-1.71-20.06-11.85-2.35-9.06-3.57-18.4-5.44-27.59-.9-4.41-1.57-8.47,3.6-10.91,1.33-.63,3.41-2.52,3.19-3.2-5.56-17,8.45-14.52,16.84-16.07a161.66,161.66,0,0,0,17.44-3.79c4.3-1.3,8-.73,8.9,4.26,1,5.33-3.59,4.07-6.61,5.25C102.92,1766.57,91.64,1766.26,83.06,1774.72Z"/><path d="M530.7,1813.29c-14.05,2.11-24.92-.38-33.94-9.17-1.5-1.46-3.82-2.74-2.92-5.16,1.28-3.48,4.19-2,6.57-1.41,1.67.38,3.24,1.21,4.91,1.54,6.15,1.24,14.65,5.87,17.93.37,3.46-5.78-5.83-8.82-9.76-12.87-9.19-9.46-7-27.47,4.37-34.47,2.9-1.8,6.14-4.24,9.28-1.33,2.84,2.63,1.81,6.64.73,9.75-6.42,18.49-4.45,23.82,13.77,31.71,5.82,2.52,8.74,4.74,8,12-.82,7.48-3.59,9.81-10.54,9.06A65.24,65.24,0,0,0,530.7,1813.29Z"/><path d="M202.05,1751.74c6.35-.68,10.14-.24,10.95,3.84,1,4.89-2.32,6.75-6.88,6.94-2.59.11-6.38.9-5.39,3.86,3.84,11.48-2.18,25,7.54,35.19,3.6,3.76,2.18,7.93.78,12-1.19,3.46-4.2,4.11-7.32,3.78-5.24-.57-6.93-4.59-7.67-9-1.71-10.11-3.55-20.22-4.66-30.41-.84-7.73-3.7-10.53-11.68-8.25-6.46,1.84-13.33,2.25-20,3.47-4.23.77-8,.52-9-4.46-1-5.19,2.5-9.17,6.81-9.11C172.51,1759.82,188.36,1754.22,202.05,1751.74Z"/><path d="M274.21,1749.81c2,1.28,10.57-7.11,12.37,1.74,1.52,7.46-7.45,6.5-12.27,8.09-5,1.64-6.66,4.87-6.69,9.6-.05,11.09-1.22,22.15,3.68,32.87,2.07,4.52,5.11,12.23-1.5,14.26-6,1.83-9.11-5.65-10.51-10.82a97.45,97.45,0,0,1-3.46-30.47c.41-7.9-2.4-11.43-10.59-9.12a16.11,16.11,0,0,1-5.05.88c-6.61-.3-16.4,1.49-16.83-7.09s9-6.46,15.12-6.62C249.58,1752.85,259.71,1745.8,274.21,1749.81Z"/><path d="M12.2,1786.8c-2.37,10-1.76,19.24.46,28.63,2.18,9.22,5.2,18.75,15.67,19.43,10.06.65,16.36-7.89,22.08-15.39,1.52-2,2-4.7,3.43-6.81.5-.76,2.69-1.37,3.25-.93,1.17.91,2.53,2.57,2.51,3.9-.19,10.61-18.91,31.09-29.61,32.68-12.9,1.92-24.37-7.28-26.29-22.2-1.7-13.18-2.52-26.5-3.21-39.79-.27-5.13-2.44-13.64,5.16-13.54C13.65,1772.89,10.09,1782.2,12.2,1786.8Z"/><path d="M722.21,1746.82c-5.66,14.33-15.39,25.79-26.92,36-4.75,4.21-16.65,7.41-10.37,14.57,6.09,7,14.59-.74,20-7.08,8.64-10.17,13.47-8,17.44,4.06,4.69,14.23,3.69,28.94,5.53,43.39,1.14,8.93.41,18.8,11.1,23.31,5.47,2.3,4.72,6.62,2.86,10.91s-4.26,7.53-9.54,7.43c-4.91-.09-7.81-2.16-9.78-6.86-7-16.62-8-34.62-12-51.89-2.26-9.7-6-11.24-14.34-9.56a91.69,91.69,0,0,1-17.78,1.9c-13.07,0-17.8-6.51-14.15-19.08,2.44-8.41,3.07-15.29-7.13-19.79-5.68-2.5-11-7.55-9.72-15.42,1.21-7.67,7-9.45,13.48-12,11-4.24,21.33-10.08,33.39-11.23,9.38-.9,5.16-6.9,4.59-12-.54-4.85-5.11-11.42,2.28-14.26,7.8-3,10.22,3.64,12.25,9.37C716.59,1727.74,723.46,1735.73,722.21,1746.82Zm-33.47,8c-6.71,1.41-11.37-2.71-16,.56-2.25,1.58-4.79,3.29-4,6.17.41,1.58,3,3.88,4.37,3.7,8.33-1.14,16.6-2.79,24.82-4.59.88-.2,2-2.7,1.73-3.76a4.56,4.56,0,0,0-3.44-2.52A49.91,49.91,0,0,0,688.74,1754.81Z"/></svg>