<svg xmlns="http://www.w3.org/2000/svg" width="946.93" height="2291.6" viewBox="0 0 946.93 2291.6"><title>c22-txt</title><path d="M783.16,1932.12c-5.65,7.6-5.42,15-8,21.3a41.45,41.45,0,0,1-5.28,9.35c-1.56,2.09-3.39,3.7-6.07,3.11-3.26-.71-2-3.76-2.79-5.88-4.07-11.63-1.77-24.76-8.55-35.73a4.32,4.32,0,0,1,.77-5.79c1.15-1.12,2.48-2,4-1.32,2.37,1,2.56,3.67,2.55,5.46,0,9.48,5.07,18.15,4.12,27.79-.18,1.77.47,4.79,3,5.06,2.84.3,2.78-2.65,3.37-4.54,2-6.62,3.92-13.3,6-19.91,1.66-5.28,4.17-5.1,7.63-1.25,5,5.56,10.16,11,15.51,16.23,4.16,4.07,9.4,2.84,9.69-2.59.42-7.82,3.18-15.52,1.69-23.39-.65-3.45-.78-6.59,3.3-6.81,3.83-.22,5.58,4,4.7,6.38-4.1,11-1.91,23.21-7.78,34.18-3.82,7.14-7,7.45-10.9,2.34C794.6,1948.72,785.49,1944.11,783.16,1932.12Z"/><path d="M872.28,1948c-1.58-5-2.14-13.1-7.5-14.52-6.78-1.78-12.84,4-17.42,9.43-2.31,2.72-3.88,6.06-5.79,9.11-1.76,2.8-3.71,2.77-5.78.36-1.09-1.26.08-16.49,1.5-16.76,7.22-1.4,6.93-8.5,10.18-12.88,2.26-3,3.36-8.37,7.75-7.9a15,15,0,0,1,11.82,8.83c3.81,8,6.69,16.49,12.81,23.23,2,2.16.89,4.64-.22,6.78-1,1.86-2.55,2.07-4.6,1.17C872.17,1953.58,870.19,1952.21,872.28,1948Z"/><path d="M893.65,1947.12c5.79,2.29,11.87,2.85,17.77,4.23,5.38,1.26,9.22-1.16,12.05-4.12s-1.3-5.93-2.81-8.71a29.19,29.19,0,0,1-3.5-18.3c.67-5,3.7-7.3,8.07-8.71,2.53-.82,4.72-1.25,6.12,1.72,1,2.24.42,3.86-1.23,5.67-7.51,8.26-5,20.44,5.64,25.28,3.24,1.48,4.84,2.63,4.8,6.36,0,4.47-3.19,4.31-6,5.19C919.23,1960.43,905.89,1956,893.65,1947.12Z"/><path d="M125.27,1974.14c-.46.31,1.33.06,1.57,2a6.58,6.58,0,0,1-2.75,6.35,4.11,4.11,0,0,1-5.74-1,27.12,27.12,0,0,1-4.1-8.91c-1.36-6-4.06-7.54-10.36-6.37-10.26,1.91-20.16,2.91-21.68,16.37-.37,3.31-2.57,7.93-7.07,6.58s-2.39-6.18-1.35-8.69c3.19-7.69,1.34-17.2,9.34-23.36,2.57-2,3.08-7.1,3.82-10.92,1.76-9,6.79-11.3,14.28-5.66a31.79,31.79,0,0,1,7.77,8.8c2.71,4.47,3.24,9.91,11.16,9.3,4.22-.32,1.7,4.15-.22,5.66-4.52,3.57-.18,6.45.27,9.64C120.54,1976.23,121.18,1977.36,125.27,1974.14Zm-27.2-13.44c1.65-.65,6,1.31,5.91-3.45a6.8,6.8,0,0,0-6.2-6.7c-4.06-.17-6.64,2.83-6.62,7S94.49,1960.85,98.07,1960.7Z"/><path d="M669.52,1945.72c1.49,13-8.75,21.91-23.49,21.4-7.39-.25-10.64-7.78-12.56-13-3.22-8.68-6.09-5.19-11-2.35-9,5.15-17.81,12-29.16,4.84-6.67-4.21-11-14.1-9-22.89s10.31-16.64,18-16.85c3.36-.09,7.5.2,8.17,4.14s-4,2.52-6,4.12c-3.23,2.68-8.31,2.08-10.83,6.19-3.09,5-4.37,11.2-1,15.39s10.13,7,15.38,5.24c15.82-5.13,22.93-9,21-27a11.42,11.42,0,0,1,9.12-12.37c10.52-1.87,21.31-2.31,31.68-5.45a4.13,4.13,0,0,1,5.25,2.54,3.34,3.34,0,0,1-3,4.64c-9.84-.25-18.51,5.36-28.21,5.32-4.61,0-8,.94-7.57,6.38.35,4.84,1.52,9.12,7.77,9,8.18-.09,16.33-.35,24.09-3.36,2.34-.91,5.15-3.85,6.41.69.83,3-1.09,5.39-4.33,5.76-8.06.93-15.33,5.45-23.84,4.83-2.43-.18-7.77-.59-6.66,4.85.79,3.91,1.15,9.15,7.06,9,6.75-.16,14.24.85,17.3-7.87C664.8,1947,666.43,1945.47,669.52,1945.72Z"/><path d="M427.93,1966.35c-9.22,1.77-14.12-6.17-21.32-8.51-2.4-.78-4.25-3.86-7.24-2.49-3.73,1.7-1.27,4.76-.94,7.19.37,2.77,1.53,5.61-2.78,6.13-3.53.43-4.75-1.57-5.35-4.69-2.08-10.86-1.48-22.15-5.34-32.76a5.34,5.34,0,0,1,2-5.73c2-1.48,3.33.16,4.52,1.53,2.37,2.73,4.32,2.06,6.89-.11,5-4.23,11.12-4.33,17.25-3.62,6.31.73,12.47,2.93,14.56,9.21,2.26,6.81-2.25,12-6.9,16.67-2.18,2.21-9.29,3.22-5.34,7,3,2.92,8,9.63,14.77,4.12,1.38-1.11,3.27-1.56,4.81-2.5,2.22-1.36,5.08-4.67,6.89-2.08,2.28,3.25-1.32,6.1-4,7.92C436.61,1966.27,432.25,1967.55,427.93,1966.35Zm-15.61-19.3c5.56-.68,9.33-3.49,11.11-9,.66-2.06,3.48-3.57.75-6.2-5.93-5.71-24.26-.4-26.74,7.78-.51,1.68-.18,3.81,1.18,3.65C403.78,1942.69,407.3,1947.49,412.32,1947.05Z"/><path d="M533.52,1912.81c3,.3,4.79.4,6.59.69,1.56.24,3,1,3.21,2.71.26,2.55-1.89,2.79-3.61,3.08-8.61,1.47-17.23,2.91-25.87,4.22-3.06.47-6,.83-7.93,3.7-1.68,2.51-2,5.09-.32,7.65s4.48,3,6.46,1.54c5-3.57,11.37-1.28,16.51-4.27,1.65-1,4.61-1.23,5.44,1.42,1,3.1-1.55,4.85-4,4.64-7-.62-12,5.4-18.93,5.33-4.31,0-6.07,3.55-5.12,7.89.32,1.46,1.62,3.15,1.2,4.26-1.36,3.65-.68,10-6.49,9.23-5.13-.65-3.19-6.13-2.49-9.17,1.28-5.5,2.44-9.7-4.83-12-3.31-1-2.5-4.67.77-6.06,4.28-1.82,5.38-4.9,3.83-8.79-3.25-8.14,2.23-10.78,8.08-12C515.42,1914.94,525.07,1914,533.52,1912.81Z"/><path d="M265.71,1976.83c-.74-.81-1.91-1.83-1.79-2,3.86-6-3.07-14.15,3.85-19.45,2.62-2,3.67-4.77,4-7.86.94-8.38,6-14,12.1-19.24,3-2.55,5.35-1.87,6.42,1.1,1.29,3.56,4.66,5.84,5.54,9.23,2.77,10.63,8.45,19.56,14.82,28.26,1.31,1.79,4.22,5,.44,6.89-3.23,1.66-3.27-2.59-4.86-4a9.62,9.62,0,0,1-1.48-2.28c-2.62-4.56-4.09-13-9-12.17-8.68,1.4-19.11,2.65-23,13.48C271.49,1972.25,268.55,1974.36,265.71,1976.83Zm27.61-32.48c-2.62-2.09-2.8-8.53-7.25-7.58-5.69,1.22-5.9,7.62-7,12.57-.65,3,.95,4,3.53,3.4C287.17,1951.61,292.61,1951.46,293.32,1944.35Z"/><path d="M193.44,1971.89c9.27-.08,17,2,24.25-2,2.46-1.35,5.38-1.76,5.41-5,0-2.81-2.35-3.58-4.77-4.58-10.24-4.26-12.4-15.89-4.93-24,5.15-5.61,9.9-11.61,18.29-12.21,2.08-.15,4.74-.35,4.94,2.54.15,2.15-1.95,2.93-3.87,2.93-3.48,0-5.25,2.59-7.58,4.47-5.07,4.07-13.31,7.43-10.8,14.82,1.9,5.6,9.63,8.07,15.8,10,2.43.76,4.68.87,5.24,3.93s.47,6-2.32,8.2c-7.31,5.77-15.87,8.42-24.62,6C204.15,1975.81,198.83,1976.75,193.44,1971.89Z"/><path d="M333.18,1963.06c-9.77-3.27-7.75-10.11-7.81-15.61-.09-7.74,2.83-13.91,10.46-17.53,5.18-2.45,9.95-4.44,15.23-.78,3.56,2.46,4.83,6,4.92,10.2,0,1.61-.23,3.16-2.16,3.34-1.46.13-2-1-2.11-2.33-.35-3.42-1.85-8.51-5.17-6.45-4.87,3-13.77.66-14.56,9.56C331.43,1949.66,329.94,1955.85,333.18,1963.06Z"/><path d="M563.3,1961c2.67,1.28,4.23-4.56,6.16-.92,1.42,2.67-1.14,5.36-3.85,6.1s-5.78-.1-6.09-3.6c-.6-6.74.48-13.47-.52-20.32-.81-5.52.94-11.32-2.49-16.61-1.56-2.41-.58-4.94,2.34-5.69,3.2-.83,2.34,1.81,3.16,3.68C567.41,1935.92,566.86,1948.16,563.3,1961Z"/><path d="M454,1924.15c6.82,3.46,7.71,8.34,8.51,12.3,1.8,8.84,2.33,17.93,3.7,26.88.57,3.71-.44,6.47-4.12,6.46-3.92,0-4.68-3.56-4.1-6.71C460.3,1950.54,458.87,1938.33,454,1924.15Z"/><path d="M381.52,1949c-.63,17.46-23.62,32.73-37.8,26.87-2.09-.86-5.06-2.39-3.72-5.17,1.19-2.47,3.41-.45,5.4.2,9.73,3.18,17.46-1,24.05-7.65C373.38,1959.26,376.74,1954.7,381.52,1949Z"/><path d="M857.92,2243.58c2.36-12.12,4.44-24.45,7.13-36.33,10-44.38,29.73-64.92,47.36-28.55,3.86,8,3,16.12,1.53,25.8-1.45,9.48-4.83,14.21-9.07,16.06-3,1.32-6.1,1.62-9.16,2.33-4.72,1.1-6.39,4.72-3.54,13.33,1.51,4.56,5.66,7.5.75,16.63-2.36,4.39,1.36,7.54,2.77,8.6,12.35,9.36,25.16,15.37,39.32,10.25,1.77-.64,4.2-1.85,4.42,3.06.25,5.66-2.29,8.7-4.36,8.29-10.94-2.21-24.13,12.17-32.42-10.48-1-2.8-3.78-2.79-5.79-3.72-4.37-2-6.82-5.87-8.86-15.81-2.92-14.21-9.21-24.74-14.32-36.34-2.34-5.31-4.35-1-5.68,4.44-2.94,12-5.75,24-8.63,36.05-1.06,4.46-1.21,11.85-4.63,10.36-2.86-1.24-3.77-6.87-3.24-13.36,1.15-14.06,2.2-28.13,3.5-42.17.78-8.36,1.67-16.67,1.1-24.84-.39-5.47.15-10.4,2.79-13.51,1-1.17,2.72-2,3.42-1,2.38,3.37.93,8.82.36,13.83-2.12,18.81-4.14,37.63-6.2,56.44Zm35.14-38.74c2.24-.54,6.84-1.51,11.45-2.86,1.92-.56,4.67,1.24,5.09-5.86.27-4.69-.37-9.14-2.65-10.46-6.22-3.6-12.41-7.52-18.81-9.91-4.22-1.58-8.18,3.43-10.13,12.16-2.39,10.68,3,9.6,5.09,13.4S887.9,2205.38,893.06,2204.84Z"/><path d="M466.5,2243.37c1.76-15.87.55-30.45-1.23-44.86-.44-3.56-.8-8.08,1.55-9.84,1.21-.91,2.92.41,4.08,1.78,1.43,1.71,3.17,4.39,1,8.81-2.28,4.62-4.79,9.7-1.29,13.66,3.24,3.67,5.87-2.62,7.7-8.35,7.06-22.11,16.44-27.23,27.57-26.88,4.83.15,5.58,3.72,5.57,11.35,0,18.49-4.69,30.63-13.16,37.56-2.56,2.1-6.11,2.61-6.56,10-.41,6.76,2.74,8.7,4.93,11.16,12.1,13.59,22.1,10.74,33.22-9.36,1.38-2.49,2.79-4.82,3.8-1.7,1.38,4.24,1.41,10.65-.63,14.29-4.64,8.28-9.63,19.07-15.4,19.32-13.12.57-25.9-2.84-35.79-20.16-4.65-8.15-7.09-6.12-8.36,7.6-.68,7.27,1,19.77-5.32,18.81-6-.91-3.08-13.49-2.84-21.79C465.45,2251,466.09,2247.16,466.5,2243.37ZM501.65,2189c-5.4,4.85-12.22,4-17.35,15.58-1.18,2.66-2.25,5.68-1.55,8.56.4,1.63,2,2.77,3,2.46,6.16-1.88,12.13-6.11,17.78-12.79,1.76-2.08,2.88-5.92,2.39-9.95C505.51,2189.47,503.79,2189.38,501.65,2189Z"/><path d="M812.38,2265.63c-7.91-6-3.46-22.39-4.53-34.11-.61-6.65,2.24-17.3-3-18.44-4.72-1-5.9,8.19-7.47,15.51-2.64,12.37-7.89,19.79-12.9,27.07-6.92,10.07-14.87,14.8-22.49,20.89-2.85,2.28-7,5.1-8.25-4.43l-.26.33c13.37-11.72,26.19-25.27,36.11-49.73,3.27-8,3.17-14-.19-19.35-1.36-2.19-4.84-2.29-2.35-8.74,1.36-3.54,4-5.57,6-3.41,3,3.37,6.29,2.45,9.68,1.57,2.26-.58,5.41-2,5.79-5.72,2.8-27.79,11.86-16.64,18.79-18.33a115.06,115.06,0,0,1,13.78-2.43c2.43-.29,4.21,2,3.62,7.73-.62,6-2.19,8.2-5.41,7.56-5.84-1.15-12,.63-17.77-1-3.92-1.14-4.91,2.78-6,8.66-1.65,8.71,1.42,10.34,4,10.43,5.56.19,11.22-1,17.88-1.76-4.58,13.39-10.29,12.34-15,14.95-5.53,3.06-9,6.28-7.17,19.46.66,4.75.36,5.15-3.45,11.23-1.53,2.44-.72,4.33-.36,6.32.92,5.12,2.23,10,.73,16.27Z"/><path d="M545.85,2219.53c2.76-28.72,20.61-57.28,33.76-54.75,4.27.82,6.31,5.3,5.13,15.18-1.89,15.79-6.19,27.9-13.54,34.32-5.69,5-4.42,9.73-1.28,14.56,5,7.71,13.54,4,16.42,18.8,1.94-2.15,5.13.37,5.65-7,.68-9.44,4.36-7.83,5.75-5.9,2.5,3.5.29,9.39-1.41,13.19-3.21,7.22-7.49,8.79-11.26,7.14-8.32-3.64-17.21-4.25-24.82-11.86-4.72-4.73-7.43-3.52-7.67,9.48a21.42,21.42,0,0,1-.08,3.79c-1.53,6.8-1.11,18.21-5.49,18.82-5.12.71-2.08-10.7-2.41-16.64A217.56,217.56,0,0,1,545.85,2219.53Zm34-44.29a48.09,48.09,0,0,0-16.76,13.41c-2.33,2.79-3.76,7.57-3.48,13.12a4,4,0,0,0,1.69,3C565.56,2206.42,577.89,2187.49,579.86,2175.24Z"/><path d="M610.51,2198.45c1.17-20.59,6-32.73,16.24-34.4s20.75-4.3,31.12-6.18c1.45-.26,3,.71,4.23,2.18,1.6,2,4.42,3,3.64,8.54s-3.43,5.28-5.54,5.37c-10.65.46-21.3,1.05-32.05,6.35-3.81,1.88-9.09,1.39-10.2,10.9-.94,8,3.63,10.67,6.56,14.61,6.76,9.07,14.28,5.3,22,2.11,2.46-1,6.39-5.31,6.87,2.14.44,6.83-3.55,5.09-5.56,7.45-8.26,9.74-16.46,9.43-24.75,8.09-2.82-.45-5.22,1.42-4.79,8.58.56,9.09,2.85,17.32.25,27.69-.72,2.87,1.22,3.38,2.42,3.23,1.78-.21,3.55,0,4.89-4.43,1.68-5.62,3.76-10.78,5.55-16.29,1.14-3.54,2.55-7.81,4.29-5,1,1.62,1.46,7.63.74,10.27-3.6,13.16-8.17,26.27-15.7,27.13-6.56.74-7.62-10.06-8.8-22.55C610.14,2235.68,610.28,2217.05,610.51,2198.45Z"/><path d="M753.73,2272.12c-6.13-1.26-7.75-8.22-7.44-21.54.43-18.65,2.69-37.79-.94-55.93-1.79-8.9.77-20.89,8.54-22.2,14.86-2.53,25.93.93,33.14,13.82-4.07,2.13-7.59.1-11.29,4.71-2.61,3.25-6.75.11-10.56-.21,2.08-9.05,5-3.64,6.92-6.8.57-4.68-5.61-5-8.43-.49-3.95,6.4-13.07,49.91-11.44,56.93s6.26,10.13,5.19,20.71c-3.14,1.65-2.64-7.58-5.47-7.1-2.38,8-.55,13.29,1.5,18.45Z"/><path d="M705.77,2214.74c-4.17,2.39-5.59-1.21-7.48-2.38-7.13-4.44-10.86.69-12.27,17.12-.77,9-1.37,18.08-3.9,26.32-1.26,4.09-3,7.7-5.42,6.61-2.17-1-2.28-5.43-2-9q2.42-34.61,5.18-69.19c.48-6.08,3-8.57,5.51-10.12,2.17-1.37,5-2,5.5,2.81C692.56,2194.3,699.09,2203.07,705.77,2214.74Z"/><path d="M428.86,2187.88c13.49-7.37,12.21,14,13.66,23.81,3.73,25.27-6.62,58.24-20,68.23-5.86,4.37-11.61-6.64-15.18-29.28,5-3.79,5.44,6.23,6.53,10.51,3.47,13.54,6.2,17.17,12.24.7,3.76-10.28,10.37-15.82,11.41-30.93C438.69,2213.7,438.62,2198.18,428.86,2187.88Z"/><path d="M735.25,2207c-1.4,13.44-3,26.74-4.81,40.11-2.26,16.3-5.81,14.3-10.84,9.93-2.9-2.52-3.64-9.15-6.15-11.78-2-2-3.89-3.11-2.48-9.31.61-2.65,1.53-4.75,2.85-4.47,2.11.44,4.29,1.25,4.28,7.08a16.16,16.16,0,0,0,3.82,11.19,2,2,0,0,0,3.23-.17,15.22,15.22,0,0,0,.91-7.06c-4.94-23.47,5.42-45.58,5.77-68.57,0-2.81,1.84-5.83,3.59-4.8,2,1.19,2.36,5.51,2.15,9.12C737,2187.8,736.05,2197.39,735.25,2207Z"/><path d="M362.51,2261.28c-7.74-15.88-6.64-33.35-5.55-50.62,1.06-16.86,6.71-27.09,13.63-33.91,3.85-3.79,8.14-.58,8.49,7.2.38,8.58-4,5.11-6.36,6.45-8.06,4.65-12.77,17.88-12.55,37.66C360.28,2237.76,361.47,2247.11,362.51,2261.28Z"/><path d="M368.38,2261.38c3.34,5.37,6.74,10.62,4.87,19.5-1.53,7.32-5.63,9.53-9.6,10.28-4.37.82-8.44.9-12.1-3.34-1.86-2.16-3.68-4.87-2.28-10.06,1.89-7,5.94-3.09,6.2-1.59,2.06,11.51,6.93,9,10.85,6C371.81,2278.13,366.29,2269.22,368.38,2261.38Z"/><path d="M412.19,2211.61c-.24,8.38-5.65,15.46-3.1,24.66,0,.18-1.24,3-1.92,3.22-1.44.46-1.84-2.09-2.21-4.47-2.09-13.47,2-26.16,3.69-39.12.35-2.7,1.81-3.88,3.05-3s1.86,3.51,1,5.93C411.18,2203.39,412.43,2207.37,412.19,2211.61Z"/><path d="M812.09,2266.11c3.76.94,7.48,4,10.39-7.16,1.2-4.57,4.18-6.68,6.67-5.37.88.46,2.06,3.5,1.86,5-.79,5.93-3.72,6.49-5.75,9.48-2.72,4-5.42,7.13-8.48,8.81-5.07,2.78-6-2-4.4-11.2Z"/><path d="M544.12,1816.35c2.66-.49,5.63-1,8.58-1.6,1.85-.39,3.85-.87,4.34,1.59.43,2.24-1.37,3.53-3.23,3.43-7.54-.39-13.54,5.2-21,5.14-4.35,0-5,2.57-4.05,6.09a32.18,32.18,0,0,0,1.44,3.33c1.54,3.85.23,10.74,6.12,10.28s11.72-3.73,13.49-10.56c.67-2.63.33-6.21,4.31-5.27,4.34,1,1.46,4.29,1.25,6.68-.84,9.41-7,15.12-14.24,19.78-5.84,3.77-13.26,1.24-14.66-5.12-2.32-10.49-5.32-20.74-8.47-31-2.1-6.82,2.37-11.92,9.43-14.32,9.85-3.34,20.27-3.06,30.21-5.79,2.93-.81,8.34-.94,8.8,3.2.5,4.43-4.22,4-7.56,4-5.86,0-11.35,1.77-16.66,4-2.21.94-6.77-.6-6.2,3.35S541,1815.71,544.12,1816.35Z"/><path d="M464.84,1849.43c.74-3.28.89-6.86-.86-9.06-6.28-7.86-4.19-18.42-9.24-26.62-1.4-2.27-1.94-5.29.55-7.55s4.08,0,6.32.8c4.1,1.45,8.26,1.93,13-.15,7.79-3.44,16.43-3.93,24.95-3.8,3.1,0,6.45.49,6.46,4.68s-3.6,3.41-6.05,3.73q-14.15,1.83-28.32,3.28c-3.18.33-6,1.34-8,3.69-1,1.25.2,2.84,1.29,4,2.64,2.69,4.92,0,7.45-.35,11.32-1.73,22.69-3.19,34.05-4.63,1.47-.18,3.22.36,3.08,2.38a3.4,3.4,0,0,1-3.62,3.3c-10.16.29-18.77,6.47-28.74,7.45-7.18.7-9.45,4.14-6.69,11.14a61,61,0,0,1,2.92,12.28c.61,3.67.45,8-4,8.69-5.54.9-3.38-4.54-4.38-7.16C464.28,1853.64,464.84,1851.32,464.84,1849.43Z"/><path d="M905.46,1803.71c10.27-.7,19.94-1.44,29.62-1.94,2.27-.12,5.56-.29,5.48,3.07-.07,2.92-2.86,2.11-5,2.18-10.31.33-20.13,4.15-30.54,4.16-4.8,0-7.2,4.43-7,8.15.19,4.3,4.58,5,8.41,4.45,9.27-1.35,18.56-2.68,27.76-4.44,2.79-.54,5.17-.72,5.73,2.19s-2.42,2.93-4.39,3.38c-10,2.3-20,4.85-30.13,6.66-4.49.8-5.92,1.9-5.71,6.89.18,4.58,2.18,8.75,1.89,13.3-.18,2.8,1.17,4.78,4.06,5.1,2.51.27,4.88,0,5.3-3.41.28-2.31,1.63-4.38,4.23-3.37,3.17,1.23,2.41,4.24,1.07,6.16-3.05,4.36-6,9.45-12.34,9.26s-7.06-5.48-8.12-10.25a231.76,231.76,0,0,1-4.65-37.38c-.25-4.36,2.86-7.77,3.93-11.88C896.63,1799.89,902.65,1806.11,905.46,1803.71Z"/><path d="M836,1824.22c9.6-7.37,17.12-13.4,24.95-19a4.42,4.42,0,0,1,6.35,1.64c1.39,2.72-1.35,3.34-3.16,4.38-1.52.89-3.74,1.92-4.07,3.27-.81,3.42-7.54,2-5.61,6.66,1.76,4.18,6.6,4.7,10.26,4.48,5-.32,9.44,1.73,14.23,2a2.63,2.63,0,0,1,2.49,3.16c-.29,1.74-1.67,2.17-3.41,2.11-9.92-.38-19.84-.65-29.77-1-2.25-.08-4.92-2.08-6.49.93a6.5,6.5,0,0,0,.6,6.93c2.83,3.76,5.43,7.49,2.61,12.28a3.37,3.37,0,0,1-3.1,1c-4.58-2.51-4.66-7.35-5.59-11.69-2.11-9.93-2.35-20.36-8.22-29.28a6.51,6.51,0,0,1-.13-6.95,4.39,4.39,0,0,1,2.92-1.64,1.86,1.86,0,0,1,2.12,2.27C831.31,1812.47,839.26,1816.5,836,1824.22Z"/><path d="M665.76,1845c3.85-.74,5.62-5.65,8-1.65,1.52,2.53-.63,5.35-2.55,7.17-2.74,2.57-5.44.73-6.86-1.64-3.74-6.22-2.46-13.47-3.43-20.26a103.52,103.52,0,0,1-1.24-15.31c.07-8.33-4.16-10.66-11.58-9.28-3.56.67-7.07,1.61-10.65,2.07-3,.39-7,3.79-8.65-1-1.52-4.43,2.19-5.51,6-7,8.92-3.48,18.17-4.44,27.48-5.21,4.77-.4,9.25-3.09,14.23-1.66,1.84.53,3.74,1.15,3.94,3.21.24,2.36-1.61,2.74-3.61,2.93-9.41.89-10,6.27-9.2,14.62C668.71,1822.55,670.15,1833.41,665.76,1845Zm-21.54-44.41c5.65.61,10.8-.55,15.77,1.05,1.54.5,3.2.27,3.13-1.93,0-1.49-1.36-1.83-2.6-1.74C655.23,1798.37,649.68,1797.15,644.22,1800.61Z"/><path d="M593.46,1830.24c-.38,3.69-.77,7.59,2.36,10.15,3.62,3,6.16-.7,8.85-2.22,7.63-4.29,17.11-4.43,23.83-10.77a2.71,2.71,0,0,1,4.06.3c1.42,1.67,1.35,3.84-.33,4.81-11,6.37-21.81,13.5-33.52,18.31-6.26,2.58-10.22-3.92-11.21-9.92-1.71-10.35-2.55-20.84-7.68-30.34-1.5-2.76.87-4.73,2.76-6,2.57-1.73,4.58-.17,5.83,2.28C592.17,1814.21,592.51,1822.29,593.46,1830.24Z"/><path d="M744.61,1794.89c4,.52,3.31,4.12,3.24,6.37-.31,10.11,2.32,19.71,4.12,29.5,1.17,6.4,4.39,8.29,10.17,6.65,6.53-1.86,13-4,18-9,1.7-1.7,3.52-4.22,6-2,2.71,2.42-.19,4.34-1.58,6.06-6.06,7.5-14.26,12.22-22.78,16-6.41,2.88-10.41-1.55-12.51-7.08-5-13.08-6.15-27.07-9-40.64C739.57,1797.68,741.38,1795.67,744.61,1794.89Z"/><path d="M802.71,1803.22a4.2,4.2,0,0,1,4.15,3.28c3.79,11.64,3.76,24.27,9.22,35.52a3.15,3.15,0,0,1-2.41,4.23c-3.12.61-5.34-.79-5.92-4.07-.73-4.16-1.6-8.31-1.91-12.5a36.65,36.65,0,0,0-4.75-16.38C799,1809.81,798.38,1805.83,802.71,1803.22Z"/><path d="M178.36,1826.21c-1.55,11.47-3.06,22.61-9.55,32.43-1.63,2.46-2.84,4.67-6.06,4.45s-3.57-2.76-4.12-5.17c-2.3-10.2-9.21-19.05-8.64-30.13.09-1.78-.21-4.24-3.83-2.6-3,1.38-2.91-2.25-3.41-4-.65-2.23,1-3.36,3-3.55s5-.18,5,2.54c.3,10.9,9.75,18.82,9.42,29.93-.07,2.54.32,6.26,3.6,6.63,4.43.5,2.65-3.85,3.34-6,3-9.5,3.14-19.73,7.05-29,.87-2.08.9-5.37,4.06-5.35s1.66,3.38,2.74,4.89c4.9,6.88,10.1,13.53,13.77,21.22.75,1.57,2.51,3,4.48,1.88,1.5-.88,1-2.69.72-4.19-1.61-9.47-.51-19.28-3.57-28.6-.61-1.86-.94-4.55,1.9-5.2,2.34-.53,3.07,1.72,3.49,3.37,3.1,12.4,5.21,25,2.06,37.59-1,4.18-4.35,7.22-9.19,1.9C188.35,1842.31,181.57,1835.89,178.36,1826.21Z"/><path d="M234.83,1824.24c9.35-6.55,20.22-7.81,31.12-9.1a5.43,5.43,0,0,0,5.09-4.49c.62-3.4,1.85-5.76,5.95-5s6.79,2.48,6.93,7c.15,4.84.21,9.64-.08,14.5-.44,7.14-1.87,14.5,1.59,21.47,1.86,3.74-1.19,6.18-3.08,8.72-.44.6-2.37.67-3.27.25-3.66-1.74-2.26-5-2.24-8,.07-7.83,1.41-15.74-.52-23.49-1.25-5-3.28-7.9-9.7-5.08a69.65,69.65,0,0,1-19.8,4.93c-5,.58-6.63,2.2-5.12,6.81,1.21,3.73.29,7.91,2.67,11.41,2,3,.21,5.09-2.14,6.86-1.14.86-2.24,2.46-3.87,1.29-2.38-1.72-1.7-4.35-1.41-6.71.91-7.36-1.47-14.43-1.87-21.67Z"/><path d="M340.08,1823.8c-4.11,3.44-5.68,6.3-2.86,11.07,2.21,3.71-3.35,7.15-1.79,11.57-7.2-4.88-2-12.1-4.43-18.37a14.32,14.32,0,0,1-7.89,3.5c-6.61,1.11-13.45,2.14-14,11.13-.06,1-1.34,1.94-2.11,2.86-1.66,2-2.91,6-5.91,4.45s-2.26-5.44-1.3-8.26c3.4-10,7.32-19.61,8.14-30.4.62-8.08,6.72-4.31,10.56-2.67,2.26,1,3.95,3.59,5.53,5.75C327.84,1819.62,332.19,1823.72,340.08,1823.8Z"/><path d="M387.23,1829.74c0-1.39,0-2.3,0-3.2.35-15.47-2-17.44-16.7-13.56-4.65,1.23-9.05,3.53-14.07,2.83-1.72-.23-3.86.17-4.58-2-.82-2.54.77-4.18,2.87-4.88,4.84-1.65,9.72-3.6,14.74-4.25,5.68-.75,11.05-.58,15.72-5.28,3.13-3.15,11.51,2.4,11.15,7.3-.73,10.18-1.73,20.18,2.4,30.1,1.14,2.75,1,7.81-3.31,9.39-5.6,2.08-4.89-3.88-6.85-6.34C386.13,1836.7,388,1832.75,387.23,1829.74Z"/><path d="M235.08,1824c-4.51.71-9.4,1.76-3.9-5.16,2.85-3.58.33-7.54.59-11.31.13-1.79.48-3.94,2.82-3.91s2.49,2,2.8,3.9c1,5.89-1.49,11.2-2.56,16.74Z"/><path d="M796.5,2048.82c0,7.18.36,14.39-.12,21.55-.37,5.62-.6,10.89,3.47,15.4,1.94,2.15,1.59,4.45,0,6.65-.92,1.29-2.25,2.51-3.77,1.51-2.13-1.39-5.65-2-5.09-5.59,1.23-7.86-3.75-15.21-1.25-23.36,1.2-3.92-1.58-6.1-6.07-4a54,54,0,0,1-10.08,3.91c-6.8,1.67-13.64-.28-15.56-6.81-2.29-7.76-8.17-15.27-4.38-24.3.71-1.69.23-2.92-2.2-2.09s-3.7-.39-2.9-2.74c.55-1.59,1.75-3.68,3.1-4.09,2.07-.63,3.06,1.7,3.5,3.39,2.13,8.15,2.65,16.59,5.11,24.76,2.05,6.83,5.59,7.79,11.41,5.76,2.57-.9,5.19-1.62,7.75-2.53,5.88-2.1,9-6,7.78-12.52a25.79,25.79,0,0,1-.79-6.31c.24-3.54-3.92-8.92,1.58-10,2.37-.47,6.92,4.47,8.19,8.76A22.19,22.19,0,0,1,796.5,2048.82Z"/><path d="M268.42,2049.8c7.09,5.44,10.34,4.29,13.68-2.38,3-6,16-8.08,22.46-5.38,6.14,2.6,7,11.24,1.88,17.89-2.57,3.34-9,5.08-4.89,11.32-3.69,1.92-6.39,8.11-11.83,2.37-1.43-1.51-3.46-4.48-6-2.39a6.93,6.93,0,0,0-2.07,7.38,21.13,21.13,0,0,1,.39,11.5c-.35,1.49-1.21,2.86-3.11,2.65a2.8,2.8,0,0,1-2.6-3.12C276.66,2076.53,272.82,2064.17,268.42,2049.8Zm27.85-3.21c-4.7.81-8,4.56-11.64,7.6-1.47,1.23.09,2.57,1.23,3.64,3.92,3.66,7.32.49,10.86-.71a24.76,24.76,0,0,1,2.54-1c2.69-.6,5.8-.9,5.2-4.78C303.76,2046.91,299.92,2047.19,296.27,2046.59Z"/><path d="M921.68,2050.68c1,2.69,2.73,4.94,5.72,5.23,8.43.81,8.54,9.09,12.54,13.84,1.19,1.4.65,3.58-1.4,4.53-1.82.84-2.79-.54-3.56-1.86-1.07-1.83-2.6-3.64-2.91-5.62-1.35-8.72-8.18-9-14.37-8.87s-10.36,3.44-11.83,10.27c-.74,3.5-.79,10.39-6.4,8.77-4.31-1.24-1.78-6.56-.62-10.38,1.44-4.71,1.12-8.83-5.81-7.19-2.65.63-4.2-.53-4.23-3.18a2.65,2.65,0,0,1,3.66-2.77c9.26,2.85,10.12-3.58,11-9.85.36-2.66-.11-5.45.37-8.07.57-3.07,0-6.91,4.44-8.06s6.88,1.39,8.52,4.89c2.21,4.7,6.4,7.86,8.93,12.45,3.41,6.2.57,6.48-4.27,6.14,1-6.13-3.42-7.2-7.67-7.1-3,.07-3.69,3.22-2.46,5.63,2.28,4.49,5.76,4.9,9.68,1.81C921.24,2051.1,921.45,2050.88,921.68,2050.68Z"/><path d="M600.45,2062.15c-2.85-1.25-2.87-4.53-4.55-6.44-2.33-2.63-2.89-7.38-8.5-6.69-5.2.64-8.5,3.35-10.27,7.55a27.22,27.22,0,0,1-4.41,7.76c-1.43,1.61-2.23,5.06-5.44,3-2.21-1.4-2.27-3.42-1.64-6.27,1.11-5,7.26-9.6,2-15.49-.19-.21.24-1.5.54-1.56,8.71-1.86,8.74-11.44,14.33-16,2.33-1.91,5.82-4.84,6.53.48,1.5,11.2,8.51,11.4,16.92,9.94,2.68-.46,5.32-1.12,8-1.5,1.91-.28,4,.14,4.21,2.35.16,1.61-1.45,2.46-3.09,2.67-5.88.72-11.53,4.34-17.6.64-.66,4.67.56,8.56,3.17,10.79,4.35,3.74,1.55,6.13-.46,9Z"/><path d="M403.93,2077.26c-8.55-8.92-6.37-18.67-5.17-27.68.8-6,10.6-7.92,15.3-3.63,6.68,6.1,13.16,12.42,19.88,18.47,2,1.76,4.51,4,7.27,2.06s-.34-4.14-.58-6.25c-.78-6.89-.81-13.85-3.47-20.46-1.13-2.81-.39-5.89,3-6.42,3.85-.6,4.29,2.29,3.92,5.37-1.1,9.12,3.65,17.73,2,27-1.22,6.85-5.25,9.87-9.82,5.1-7.81-8.15-20.1-11-25.31-22a3.53,3.53,0,0,0-5.52-1.14c-2.47,1.86-1.68,4.44-.47,6.56C409.32,2061.93,406.89,2069,403.93,2077.26Z"/><path d="M635,2030.64c0-2.51,0-5.39,3.27-5.4,2.75,0,2.81,2.74,2.94,4.85q.91,15,1.72,29.91c.15,2.81.19,5.85,3.15,7s5.52-.42,7-2.91c5.52-9.42,17.91-8.46,24.44-16.37a2.43,2.43,0,0,1,3.91.62,3.22,3.22,0,0,1-.83,4.14c-10.57,6.8-21,13.82-32,19.94-4,2.21-10.93-5.11-11.31-11.7C636.71,2050.67,637.93,2040.5,635,2030.64Z"/><path d="M515,2027.92c2.51,8.15-6.24,11.37-5.75,19,.44,6.78-2.37,13.78,4,19.66-9-1.22-9.48-9.28-10.4-14.71-1.59-9.37,1.79-18.23,8.17-25.82,2.88-3.43,5-3.28,8.29-.85,3.5,2.56,5.39,5.62,4.95,9.91-.06.59-1.18,1.34-1.94,1.55a1.84,1.84,0,0,1-2.45-1.87C520.12,2031.59,518.84,2029.68,515,2027.92Z"/><path d="M349.08,2082.06c-9.41-10.47-11.66-25.56-4.23-33.43,2.29-2.41,4.67-5.37,8.11-5.28,2.65.07,6.66-1,7.8,2.89,1.09,3.7-2.67,4.39-4.85,5.54-9.19,4.84-11.36,9.88-8.67,20.65C348,2075.4,350.45,2078.15,349.08,2082.06Z"/><path d="M238.09,2063.15c-6.4,6.44-14.64,5.93-22,8.13-11.68,3.48-12.4,4.52-10.08,16.51.74,3.85,3.49,7.86-1.3,12.4-1.36-4.73-3.06-8.55-3.5-12.52-1.67-15.18,4.91-22.93,16.89-21.94C224.89,2066.3,231.57,2064.93,238.09,2063.15Z"/><path d="M372.26,2050.13c9.26,16.08,3.46,31.23-12.39,36.29-1.69.54-3.8,1.4-5-.4s.3-3.36,1.77-4.5c2.37-1.84,4.87-3.52,7.18-5.43C372.54,2068.89,372.52,2068.87,372.26,2050.13Z"/><path d="M475.94,2056.73c.6,3.36-4.52,8.56,3,10,1,.19,1,4.83-1.75,6.06-3,1.33-5.34.5-5.81-3.27-1.14-9.23-3.19-18.48-3-27.69.06-3.38-6.72-9.36.54-10.17,6.26-.69,2.5,6.52,3.48,10.11C473.77,2046.7,474.78,2051.74,475.94,2056.73Z"/><path d="M698.41,2067c6.87-6.51,15.67-6.68,24.18-8.2,3.63-.65,6.88-3.54,10.24-5.52,1.46-.86,2.72-3,4.54-1.12,1.64,1.69.46,3.89-1,4.7-10.91,6.21-21.49,13.62-35.1,11.6A9.57,9.57,0,0,1,698.41,2067Z"/><path d="M140,2092.36c-9.35-7.17-9.4-31.36-.1-37.41a4,4,0,0,1,5.63.8c1.11,1.34,1.79,3.67,0,4.88-11.55,7.73-8.15,18.08-5.25,28.39C140.59,2090.15,141.15,2091.33,140,2092.36Z"/><path d="M698.38,2058c-.22,2.23.57,4.18-1.27,4.79-2.27.75-3.26-1-3.63-2.89-2.06-10.63-4.1-21.27-6-31.93a3.32,3.32,0,0,1,1.68-2.75,3.2,3.2,0,0,1,2.94,1.19,18.81,18.81,0,0,1,2.21,6.75C694.89,2041.85,695.78,2050.44,698.38,2058Z"/><path d="M158.28,2101.47c11.24-1.47,17.45-9.3,22.78-18.15,1.07-1.79,1.6-3.9,2.61-5.74.55-1,1.49-2.16,2.89-1.58,1.85.76,1.68,2.39.95,3.78-5.34,10.3-11.58,19.89-22.46,25.17-3.35,1.62-6.78,1.84-6.55-3.67Z"/><path d="M250,2059.32c-.65,10.3,2.11,20.35,2,30.6,0,1.63-.86,3.81-3.22,3.63-2-.16-1.71-2.1-2-3.51A48.37,48.37,0,0,1,250,2059.32Z"/><path d="M526.86,2069.05c5.76-9.94,17.31-8,23.81-14.64.31-.31,1.86,0,2.22.47,1,1.27,1.2,3.42-.08,4C544.69,2062.85,538.19,2071,526.86,2069.05Z"/><path d="M314.21,2083c8.27-1.44,10.39-8.91,16.15-11.84,1.42-.72,2.21-3.2,4.19-1.55,1.75,1.45.7,3.5-.28,4.87C329.68,2080.85,323.7,2084.37,314.21,2083Z"/><path d="M172.1,2068c-7.9-1.6-11.87-7.2-18.13-7.34a2.62,2.62,0,0,1-1.83-3.56c1.05-2,2.75-1.93,4.5-.55C161.07,2060.07,166.76,2061.79,172.1,2068Z"/><path d="M315.41,2078.77c-5.1-2.93-11.38,5.18-16.86-2.83C304.81,2076.66,310.55,2073.62,315.41,2078.77Z"/><path d="M158.5,2101.28c-4.22,2.81-8.4-2.27-12.71-.17-.21.1-1.33-1.64-2-2.52.66-.42,1.33-1.21,2-1.19,4.56.1,9.69-1.34,12.5,4.1Z"/><path d="M600.23,2062.37c.3-.07.66-.28.88-.18,3.43,1.51,4.85-5.38,8.54-2.12,1.67,1.48.53,4.84-3.27,10.66l-5.92-8.59Z"/><path d="M817.12,361.33a83.23,83.23,0,0,1-.35,21.85c-.42,2.73-.78,6.92-4.69,6.38-2.89-.39-4.57-3.55-4.66-6.9-.23-7.61-.88-15.24-.63-22.84.2-6.46-2.46-7.46-7.91-5.84-8.22,2.44-16.46,4.84-24.79,6.87-6.48,1.58-6,6.14-5.34,10.92s2.94,9.66.5,14.64c-1.2,2.45-2.53,4.95-5.79,4.52s-4.19-2.66-4.3-5.71q-.76-21.37-1.73-42.74c-.18-3.74.73-7.06,4.69-7.57,4.65-.6,4,4.16,4.28,6.45,1,7.52,5,9.08,11.64,7.62,6.44-1.43,12.93-2.74,19.45-3.72,3.69-.55,5.23-2.45,5.42-5.88.2-3.62,1.5-6.94,5.27-7.5,4.7-.69,5.78,3.63,7.32,6.84C819,346,816.54,353.8,817.12,361.33Z"/><path d="M390.94,375.77c2.19-8.56,4.41-17.1,6.57-25.66.84-3.3,1.75-6.74,5.42-7.73,3.51-.95,3.74,3.05,5.64,4.6,5.11,4.17,10,8.65,15.42,12.38,5.67,3.9,9.53,2.29,9.72-5,.17-6.26,1.83-12.41.7-18.8-.54-3.08-.58-6.83,3.19-8.7,2.52-1.25,4.6-4.81,7.85-2.61,2.83,1.91,1,5.06.3,7.37-2.81,9.1-1.68,18.46-2.37,27.69-.44,6-1.74,12.51-7.64,15.31s-10.77-2.09-15-5.41c-14.11-11.15-13.75-11.23-21.3,4.15-2.17,4.43-2.13,12.41-8.86,11.71-6.21-.63-7.09-8-8.65-13.2-3.86-12.9-7.06-26-11-38.87-1.27-4.12-.5-6.87,3.27-7.78,4.93-1.19,3.71,2.65,3.94,5.63C379.36,346.39,386.67,360.38,390.94,375.77Z"/><path d="M484.42,318.56c3.34,9.53,12.86,12.53,17.75,20.21,3.25,5.11,8.5.77,12.85.3,2.19-.23,5.05-1.82,6.15,1,1.2,3.1-1.9,3.68-4,4.36-6.85,2.2-6.88,6-3,11.22a70.73,70.73,0,0,1,7.11,11.71c2,4.23,2,8.92-3.24,10.8s-5.48-3.28-6.93-6.33c-.56-1.18-.48-2.66-1-3.83-2.78-5.76-3.83-13.61-11.4-14.81-8.36-1.33-19.34,7.55-21.79,16a11.84,11.84,0,0,1-2.09,4.48c-2.14,2.48-2.41,8-7.54,6.07-5.53-2.1-3.77-6.56-2.91-11,2.8-14.25,12-26.45,12.79-41.37C477.24,323.51,481.05,321.63,484.42,318.56Z"/><path d="M873.72,375c.09-4.52.24-12-5.17-12.46-6.69-.57-14.52,2.16-18.88,8.55-2,2.92-3.55,6.27-5.83,9.11-1.71,2.13-3.45,4.42-6.51,2.25-2.37-1.69-3-4-2.28-7,3.26-13.06,10.32-24.92,11-38.92.26-5.11,7.25-4.38,11.65-5.54,4.56-1.2,5.26,1.34,6.94,4.62,3.09,6,6.11,12.7,14.6,13.12,2.15.1,4.3,2.13,3.15,4-5.19,8.4,3.12,15.67,1.62,23.8-.5,2.73,1.36,6-2.15,7.76a6.41,6.41,0,0,1-6.65-.47C872.33,381.76,872.38,378.79,873.72,375Z"/><path d="M730.32,367.27c.53-8.33,1.08-17.24-2.78-24.44-5.33-9.93-14.77-1.14-22.28-2.52-4.09-.75-8.57.44-12.85,1-3.45.42-7.12,1-7.75-3.62-.57-4.19,2.68-5.83,6.18-6.37,8.18-1.27,16.21-3.71,24.6-3.39a53.49,53.49,0,0,0,14.71-1.07c9-2.11,14.32,4.33,11.31,13-3.33,9.64.54,19,.34,28.58-.07,3.61,1.24,7.39-.5,10.79-1.26,2.45-2,6.33-5.94,5.57-3.2-.61-5-3.12-5-6.55C730.3,374.58,730.32,370.93,730.32,367.27ZM705,333.94c9.6,1.16,19.42-.85,29.07,1.89C724.62,331.48,714.79,333.84,705,333.94Z"/><path d="M549,376.36c-11-.19-16.9-4.18-20.12-14.57-.72-2.33-1.4-4.86,1.14-6.09,2.38-1.16,3.44,1.35,4.33,3,5.54,10.36,14.55,8.63,23.46,6.62,2.79-.63,6.29-1.49,6.77-5.05.42-3.07-2.36-4.64-4.63-5.9-6.65-3.67-11.06-9.36-14.33-15.91-2-3.94-2.62-8.41.41-12.25,3.6-4.55,8.66-8.69,14-8.57s3.64,6.48,1.7,8.67c-8.63,9.76-3.45,15.93,4.71,21.61,6.32,4.4,11.68,9.44,8.31,17.9-3.12,7.85-10.72,9.24-18,10.48C554.78,376.64,552.73,376.36,549,376.36Z"/><path d="M936.29,371.14c-1-8.46-2.06-17.64-3.21-26.8-.75-6-3.17-8.51-10-7.06a192.8,192.8,0,0,0-23.91,6.28c-2.77,1-7,2.92-8.73-1.34s1.46-6.54,5.29-8c6.79-2.54,13.45-5.54,20.91-5.39a16,16,0,0,0,10.9-4.32c7.19-6.29,10.42-1.8,12.94,4.4,4.21,10.37,3.27,21.55,4.62,32.38.4,3.28.23,6.71,1.15,9.83,1.33,4.54.89,8.51-1.89,12.25a2.25,2.25,0,0,1-3.42.62C936.91,381,934.68,377.12,936.29,371.14Z"/><path d="M698.59,1314.22c-12-1-20.86-7.31-30.24-12-7.45-3.7-9.89-3.33-11.55,5.39-.91,4.83-.82,13.93-6.67,13.73s-.64-8.41-2.86-12.68c-4.28-8.22-2.24-18.39-8.08-26.25-2.3-3.09-1.82-6.73,1.9-8.38,3.9-1.73,6.33.48,6.95,4.53.42,2.72.75,5.46,4.33,5.58,3.15.12,4.41-2.14,5.87-4.54a33.29,33.29,0,0,1,18.39-14.37c4-1.35,8.88-2.81,12.06,1.24a12.31,12.31,0,0,1,1.33,13.26c-2.24,4-3,9.72-8.76,11.35-2,.56-3.67,2-3.45,4.28.26,2.69,2.38,3.91,4.76,4.43,9.3,2,18.33,8.87,28.19,1.25,2-1.55,4.59-.72,5.7,2,.94,2.28-.24,4-2.24,4.81C708.75,1310.21,703.2,1312.36,698.59,1314.22ZM683.82,1272c0,.1-1.19-3-2.77-1-4.1,5.12-11.1,5.67-15,10.75-2.36,3.1-1.4,4.85,2.1,5.52C675.06,1288.6,684,1281,683.82,1272Z"/><path d="M911.15,1324.23c-7.58-3.08-16.37-1.74-18.86-14.61-2-10.12-1.55-22.44-11.24-30.69-2.83-2.41-.06-9.39,3.16-8.25,11.12,3.91,19.63-4.74,30-4.44,10.72.31,19.53,2.82,26.5,10.78,6.22,7.11,8.51,15.5,3.27,23.8C936.44,1312.84,926.75,1322.61,911.15,1324.23Zm4.85-48c-6.2-.54-15-.15-16.66,7.42-2.07,9.66-1.53,20.47,3.35,29.77,2.09,4,7.25,3.4,11,2.09,5-1.73,9.87-3.8,14-7.35,14.8-12.72,15.13-22.27,1-30.22C925,1275.89,921.08,1275.93,916,1276.27Z"/><path d="M750.79,1269.64c4.68-.61,6,2.89,7.36,6.4,5.68,14.21,8.13,15.63,22.7,13.22,2.76-.46,6.92-3.07,7.63.92.79,4.42-4.5,3.47-7.31,4.38-1.51.49-3.36-.14-4.93.23-2.82.66-6.12.89-6.58,4.89-.4,3.52,1.43,5.53,4.24,7.19,3.51,2.07,8.8,2.73,8.6,8.24-.09,2.33-2.85,3.84-5.11,4.23-5.95,1-6.44-4.94-8.83-7.94-13.7-17.18-14.85-17.2-28,1-2,2.8-4.61,7.56-8.38,5.49-4.5-2.48-3-7.16-.67-11.35,2-3.54,5.18-7.24,1-11.68a3.06,3.06,0,0,1,1.27-5c7.68-2.27,8.13-9.35,9.6-15.07C744.51,1270.07,746.1,1268.42,750.79,1269.64Z"/><path d="M862.38,1283.79c-.21,7.22.6,14.43-.81,21.65-.71,3.62-.48,8-4.21,9.53-4,1.59-6.05-3.07-8.78-5-8.6-6.22-15.39-14.75-25-19.69-2-1-4.06-2.66-6.43-1s-2,4-1.45,6.31c1.5,6.14,3,12.3,1.85,18.67-.41,2.35-1.22,4.78-4.25,4.56-2.41-.17-2.63-2.35-3.37-4.27-4.45-11.47-3.54-24.06-7.73-35.67-1.68-4.66,5.6-9.48,10-6.75,9.5,5.84,17.94,13.17,26.16,20.7,1.17,1.07,1.91,3.74,2.85,3.75,4.76,0,9.19,8.4,11.93,4,3.5-5.59,2.66-13.76,1.47-20.84-.45-2.68-6.59-3.73-2.48-7.93a5.09,5.09,0,0,1,6.35-1.13c4.09,1.94,4.44,5.39,4.09,9.23C862.47,1281.14,862.44,1282.47,862.38,1283.79Z"/><path d="M531.12,1330.59c-11.18,0-27.91-10.09-30.78-18.62-1.17-3.48-2.9-8.27,1.81-9.35,6.65-1.53,2.24,4.24,3.11,6.61,2.8,7.66,9.59,9.5,16.37,11.43,6.45,1.83,12.56,1.49,17.62-3.4,3.8-3.68-.56-4.61-2.38-6.64-7.37-8.17-16-15.52-16.12-28.09,0-8.68,13-18.58,21.11-15.57,1.64.61,3.15,1.13,3.25,3.16.14,2.85-1.7,3.77-4.08,4.77-13.83,5.75-15.39,13.19-5.29,24.3a51.75,51.75,0,0,0,5.45,5.8c5.43,4.35,10.13,8.84,7.1,16.73C545.82,1328.14,541.11,1330.59,531.12,1330.59Z"/><path d="M620.64,1262.35c4.61-.73,6.35,3.06,7.11,5.76,1,3.45-2.26,5.59-5.42,5.29-8.27-.79-8.62,4.64-8.25,10.2.54,8.27,1.64,16.51,2.52,24.76.34,3.12.25,7-3.05,7.58-5,.9-3-4-3.52-6.37-1.93-8.44-5.26-16.6-5.25-25.46,0-6.14-1.88-9.86-9.08-6.78-4.09,1.75-8.8,2.11-12.51-.18-2.71-1.68-3.07-2.06-4.54,1-1.26,2.64-4.42,2.83-7,1.39a4.34,4.34,0,0,1-2-3.1c0-3.42,3-4.34,5.46-4.86C590.24,1268.37,605.45,1265.4,620.64,1262.35Z"/><path d="M272.27,151.15c4.16-.44,7.78,1.68,8.36,6.81.64,5.64-3.63,5.73-7.85,6.23-9.35,1.12-16.16,14.86-11.62,23.21,2.1,3.87,4.77,2.31,7.32.18A108.18,108.18,0,0,1,291,173.16c4-1.92,9.07-4.34,11.92-1.31s3.94,8.68,2.19,13.12c-6.19,15.67-17.85,31.1-40.13,21.38-2.23-1-4.35-1.57-6.71-.92-4.89,1.33-5.94-.42-4.68-5.1,1.61-6-1.29-11.57-2.12-17.34C249.23,167.6,259.17,151.54,272.27,151.15Zm19.49,34.13c-6.69,4-14.64,5.92-20.67,11.32-1,.87-2.15,2.29-1,3.38,1.34,1.31,3.62,3.13,4.95,2.76,7.5-2.06,15.44-3.75,19.32-11.82C295.63,188.19,296,185.78,291.76,185.28Z"/><path d="M173.58,189.09a13.74,13.74,0,0,1,.26,2.73c-.8,4.44-.62,11.2-5.44,11.52-6.86.46-4.56-6.64-5-10.79-.58-6-.55-12-3.09-17.57-3.06-6.68,1.23-11,5.22-14.78,4.25-4,7.57,1.15,10.14,3.27,9.48,7.82,18.93,15.56,30.15,20.86,6.43,3,9.45,2.26,8.38-5.83a154.54,154.54,0,0,1-.9-18.9c0-3.18,1.2-6.42,4.94-6.18s4.38,3.49,4.35,6.73a150.6,150.6,0,0,0,3.09,29.63c.69,3.55,1.55,7.42-2,10.12s-6.36-.87-9-2.06c-11.83-5.33-23.42-11.18-35-17-1.6-.8-3.1-1.57-4.55-.38C171.87,183.1,174.12,186.71,173.58,189.09Z"/><path d="M135,180c-.58.71-1.36,2.29-2.64,3.1-5.11,3.27-4.84,2.91-.68,8,3,3.72,5.76,8,6.26,13,.29,2.82.9,6.54-3.18,7.31-3.38.64-5.66-1.57-6.76-4.67-1-2.81-1-6.18-2.68-8.48-2.94-4.14-4.84-11.2-10.69-10.5-6.72.81-13.19,4.17-16.18,11.62-1.71,4.25-3,8.83-6.35,12.27-2.25,2.3-4.14,6.09-8,3.15-3.24-2.43-1.43-5.22.46-7.78a17.28,17.28,0,0,0,1.71-3.57c.76-1.79,2.11-3.67.56-5.55s-3.47-1.17-5.25.05-4,2.09-5.21-.05c-1.27-2.32.24-4.57,2.46-5.75,2.63-1.38,5.44-2.41,8.19-3.55,4.26-1.75,7.29-4.28,7.64-9.39a20.58,20.58,0,0,1,2.2-7.55c7.35-14.8,11.43-15.46,20.82-2.71,3.76,5.12,6.54,10.07,14.15,6.94C134,175,135.58,176.49,135,180Z"/><path d="M43.37,230c-16.24-.59-24.19-10.1-32.32-19-2.92-3.18-2.2-7.37.19-11.13,1.55-2.43,2.49-6.61,6.12-4.83s.23,4.48-.88,6.6c-1,1.86-1.42,3.58-.41,5.62,5.06,10.21,26.29,17.11,35.68,10.59,7.79-5.4-.61-9.26-3.49-11.42C42.47,202.1,37.8,197,35.45,190.56c-4.61-12.69,3.5-26.5,17.16-29.28,5.85-1.19,12-4.66,18.17,0,2.07,1.57,3.55,3.1,3,5.67-.74,3.36-3.27,2.54-5.56,2-5.71-1.27-10.51-.18-15.79,3.05-13.86,8.45-14.37,18.31-.57,28,2.69,1.88,5.65,3.45,8.12,5.59,6.79,5.86,6.4,15.49-1.48,19.69C53.16,228.14,46.78,229,43.37,230Z"/><path d="M644,218.23c1-13.85,2.63-26.72-.28-39.63-1-4.21,2.85-5.76,5.94-6.8,3.53-1.18,6.64-1.08,9.64,2.56,4.25,5.18,7.66,10.85,12.81,15.69,8.92,8.4,15.21,3.35,21.7-1.16a126.42,126.42,0,0,0,18.66-16.42c3.59-3.74,5-3.9,8,.52,6.06,9,3.7,19.92,7.1,29.59,1.32,3.79.38,8.34,3.9,11.68,2.29,2.16,1.77,4.78,0,7.2s-3.86,3.83-6.79,3.2c-3.15-.67-4.25-3.46-4.17-6.1a80.69,80.69,0,0,0-4-26.47c-1.69-5.46-3.76-8.79-9.25-2.62s-12.07,11.2-19,15.89c-6,4.06-10.4,2.92-14.9-1.65q-4.5-4.59-8.93-9.25c-1.6-1.69-3.22-4-5.79-2.75-2.33,1.09-2.28,3.75-2.44,6.13-.44,6.95-.48,14-1.84,20.77-.61,3-2.3,8-6.62,7.59C642.62,225.69,644.68,220.57,644,218.23Z"/><path d="M530,189.2a144,144,0,0,1,24.89-3c2.65-.13,5.92-1.23,7,1.89,1.48,4.35-2.95,4.77-5.37,5.47-9.16,2.65-18.13,6.17-27.75,6.94-3.35.27-7.56-.11-6.7,4.87,1,6-.85,13.3,5,17.49,2.47,1.76,4.27-2.05,5.95-4,2.24-2.59,4.36-7.85,8.26-4.43,4.08,3.58-2,5.84-3.48,8.7-1.85,3.69-5.4,5.77-9.29,7.07-6.08,2-10.41.17-12.59-6-3.16-8.88-3.9-18.44-6.45-27.5-1.69-6,1.21-15.51.79-23.68-.14-2.65,3.11-7.82,8.42-5.22,10.26,5,19.91.27,29.64-1.85,2.67-.58,5.42-4.24,7.5-.31s-.29,7-4.41,8.29c-7.6,2.38-15.24,4.64-22.86,6.95-2.77.85-6.46,1-6.22,5.07C522.66,191,526.74,188.43,530,189.2Z"/><path d="M483.8,179c1.26,8.49,2,17.11,4,25.41,1.31,5.38-.21,9.4-4.67,10.28-5.18,1-5.69-4.14-6.25-8.13-.6-4.24-1.51-8.46-1.85-12.72-1.1-13.56-2.24-14.33-14.58-9.11-2.73,1.16-5.36,2.57-8.16,3.5-7.67,2.54-13.18,5.87-9.26,15.62,1.37,3.38,2.14,8.72-3.83,9.35s-5.23-4.57-5.77-8.37c-1.29-9.16-4.37-17.94-5.34-27.22-.4-3.79-.91-6.71,2.76-8.19s5.8,1.34,6.43,4.39c1.19,5.84,5,6.45,9.7,5.55,9.44-1.83,21.36,1.47,25.27-12.15.61-2.11,3-2.62,5.07-1.92a11.43,11.43,0,0,1,6.9,6.78c.8,2,.15,4.55.15,6.86Z"/><path d="M397.2,202.51c0-4,.23-7.94,0-11.89-1.27-18.63-2.25-19.21-20.22-19.16-6.88,0-13.75-1.6-20.63-2.4-2.27-.27-3.92-1.16-3.52-3.68.42-2.71,2.34-3.75,5-3.69,17.78.41,35.51-.08,53.11-2.92,2.88-.46,6.58-1.68,6,3.42-.41,3.85,1.4,10.09-5.37,9.57-8.52-.66-7.74,3.71-6.28,9.18,2.93,11-1.15,22.4,2.36,33.49.88,2.8-2.34,6.38-6,6.68-4.42.37-5.31-2.94-5.23-6.67.08-4,0-7.95,0-11.93Z"/><path d="M905.57,170.3c11.68,1,23.19-1.12,34.8-1.36,2.29-.05,5.61-3,6.46,1.44.71,3.67-2.52,5.1-5.36,6.16-5,1.84-10.25.46-15.5,1.43-8.09,1.51-8.67,6-7.72,12a370.66,370.66,0,0,0,9.81,45.54c.89,3.09,3.51,7-1.7,7.87-4.47.72-3.14-3.91-3.83-6.55-4.18-15.86-8.52-31.68-12.61-47.56-1.89-7.33-6.68-9.23-13.54-8.37-3.94.49-7.94.53-11.92.81s-7.74-.54-7.85-5.36c-.1-4.63,3.58-4.57,7.11-4.7C891,171.42,898.29,170.79,905.57,170.3Z"/><path d="M834.67,230.8c-7.5.28-13.86-4.29-20.55-7.74-2.45-1.27-4.55-3.71-2-6.45s4.06.2,5.44,1.86c2.88,3.48,6.32,3.72,10.66,3.45,5-.32,11.64,1.15,13.31-3.81,1.57-4.67-5.55-6.57-8.85-9.23-7.5-6-11.09-13.74-12.93-22.72-2-10,5.79-11.95,12.16-15.42,6.61-3.59,11.44-.42,16.25,3.44a3.4,3.4,0,0,1,1.15,4.43c-1,1.69-2.82,1.32-4.47,1.2-5.23-.39-11.82-2.05-13.93,4.12s.77,12.69,5.36,17.31A60.25,60.25,0,0,0,849.8,211.3c3.86,2.15,6.84,4.15,5.83,8.95a10.64,10.64,0,0,1-8.49,8.78C843.25,229.88,839.25,230.17,834.67,230.8Z"/><path d="M772.72,222.49c-11.63.18-19-10.29-17.8-25.33.16-2,.64-3.93.72-5.9.25-5.7.1-13.19,5.68-14.82a22.12,22.12,0,0,1,20.47,4.21c12.15,10.14,14.52,22.13,7.76,33.85C785.5,221.53,779.58,222.46,772.72,222.49ZM763,199.4c.58,11.5,4.3,15.86,12.12,15.2,7.65-.65,12-6.43,11.67-15.53-.21-6.07-10.18-15.45-16.69-14.51C760.17,186,765.44,195.11,763,199.4Z"/><path d="M20.88,1011.43c2.94-11.77,2.33-21.71,3.66-31.42.55-4,.28-9.47,6.35-9.75,5-.22,7.81,2.81,8.73,7.79.28,1.53,1.21,3.83,2.34,4.18,8,2.49,11.12,9.62,15.57,15.55.64.86,2.35.92,4.64,1.74-.66-12.51-1.19-24.26-1.94-36-.22-3.54.29-6.64,3-9a4.86,4.86,0,0,1,6.41-.51c1.8,1.22,3.23,3.55,1.66,5-9.07,8.57-2.24,18.71-3.12,28A67.46,67.46,0,0,0,68,995c.11,4.42,0,10.09-4.43,11s-10-1.6-12.53-5.85c-2.62-4.47-7-7-9.73-11.18a7.64,7.64,0,0,0-7.72-3.66c-4.11.71-3.31,4.55-3.55,7.3A105,105,0,0,1,25.71,1013c-.78,2.64-1.89,5.25-5.23,5.06a5.45,5.45,0,0,1-5.22-5.19c-.92-9.65-4.73-18.55-6.7-27.91-.41-1.95-2.24-4.28.14-6.46s2.41-5.18-.31-6.72c-3.94-2.23-2.47,2.51-3.88,3.63-.92.73-2.45,1.49-3.41,1.21-1.52-.44-1.2-2-.62-3.27,1.4-3.09.74-7.87,6-7.82,4.48,0,5,3.63,5.7,6.92C14.91,984.63,17.63,996.83,20.88,1011.43Z"/><path d="M141,965.75c.38,3-2,3.15-3.57,4.18-9.87,6.54-10.35,9.73-.38,16.33,4.82,3.19,2,7,3.3,10.32.43,1.1-.93,2.52-2.47,2.45-3.5-.15-4.65-3-6.5-5.4-3.92-5-6.73-12.55-14.49-11.8-8.41.82-13.44,6.47-14.84,15-.39,2.4-1.42,4.64-4.48,4.23-3.61-.47-3.92-3.37-3.55-6,1.77-12.69,3.36-25.43,5.82-38,1-5.11,4.93-7.11,9.63-2.87,2,1.77,4.15,3.57,5.41,5.82,4.88,8.75,11.42,10.14,20,5.5C136.69,964.55,139.15,963.3,141,965.75Z"/><path d="M173.4,1001.37c-9.29-1.11-18.2-2.36-22.82-11.93-1.13-2.33-1.7-4.5,1-6,2.29-1.21,3.38.2,4.55,2.17,4.32,7.28,20.15,10.3,26.51,5.07,2.29-1.88,1.17-3.85-1.23-4.15-11.28-1.41-15.13-11.18-20.48-18.7-6.48-9.12-1.8-21.29,7.87-22.92,2-.33,4.21-1,5.5,1s.77,4.24-.81,6.37c-7.24,9.77-5.89,17.62,4.05,24.37,1.08.74,2.31,1.28,3.42,2,4.43,2.79,10.2,5,8.53,11.76-1.51,6.12-6.72,8.74-12.43,10.26C175.82,1001,174.5,1001.17,173.4,1001.37Z"/><path d="M674.81,988.22c-1.51-8.52-.75-17.21-3.49-25.55-2.14-6.5,1-8.37,7.32-7.32A18.61,18.61,0,0,1,688.91,961c8.94,8.9,19.38,15.71,30.05,22.29,6.38,3.93,7.65,1,7.2-4.68s-1.19-11.21-1.82-16.8c-.37-3.24,1.54-5,4.14-6,4-1.6,3.92,2.31,5.43,4.15,1.94,2.37,1.16,4.91,1,7.57a36.35,36.35,0,0,0,3.77,18.32c2.17,4.42,3.65,9.85.38,13s-9.34.13-12.23-2c-10-7.28-21.63-11.6-31.81-18.45-2.08-1.4-4.52-3.47-7.31-2.1-3.34,1.64-1.06,4.7-1.2,7.12-.29,4.64-.1,9.32-.62,13.93-.38,3.38-1.76,6.85-6,6.68-4.79-.21-5.58-4.13-5.73-7.91A59.09,59.09,0,0,1,674.81,988.22Z"/><path d="M858.57,963.49c-2.44,8,1.84,15.35,3.26,23,.74,4.05.94,7.89-.4,11.72-1.59,4.53-3.75,6.5-8.82,3.22-12.13-7.84-26.87-11-37.78-21.1-1-.94-2.25-1.79-3.45-.8-1.4,1.15-1.09,2.86-1,4.58.45,5.72,3,11.62-1.5,17-1.25,1.51-1.84,3.82-4.15,3.77-2.81,0-4-2.36-4.4-4.68-1.94-12.63-3.18-25.38-9.34-37-1.52-2.87,1.65-3.85,3.74-4.73,4.78-2,8.21-1.17,12.15,3.05a104.58,104.58,0,0,0,35.92,25.34c6.36,2.69,7.76.58,7.53-5.11-.28-6.79-2.8-13.79,2-20.08a5.7,5.7,0,0,1,.72-.66c-7.31-3.86-4.59-8.08,1.09-8.38C862,952.26,856.34,959.87,858.57,963.49Z"/><path d="M661.36,969.47c-11.94,2.48-23.92,4.81-35.8,7.54-3.78.87-8.91.46-8.43,7.31.34,5-1.06,11.11,3.53,13.71s10-.91,14.86-2.86c2.19-.89,4.38-4.48,6.58-.8,1.8,3-1.43,4.64-3.27,6.39-5.55,5.28-12.93,6.68-19.87,8.13-7.5,1.58-8.9-5.67-10.78-10.64-1.47-3.92-1.44-8.42-2-12.67-.17-1.29.44-3.61,0-3.79-9.71-4-5.05-9.3-3.87-16.63,1.45-9,5.58-10,12-10.92,9.5-1.29,19-2.59,28.53-3.62,3.27-.35,7.75-.36,7.83,3.9.08,3.75-4.45,5.2-7.49,4.84-6.5-.77-12.49,1.17-18.66,2.14-3.24.51-7.69,1.37-7.1,5.41.69,4.64,5,3,8.19,2.3a152.61,152.61,0,0,1,35.18-3.11Z"/><path d="M530.72,1001.21c-1.71,2.93-1.93,7.85-6.85,8.31-5.32.51-4.79-3.94-5.69-7.44-2-7.7-1.67-15.7-4-23.43-1.47-4.9-3.9-5.82-7.77-5.16-9.38,1.58-18.76,3.29-28,5.38-6.53,1.47-8.62,5.71-5.73,12,.69,1.5,1.93,2.79,2.4,4.33,1.54,5.1-.48,10-4.82,11.46-4.7,1.53-5.46-4.4-6-7.35-2.36-12.25-3.87-24.65-5.87-37-.64-3.93,1.34-5.65,4.62-6.24s5.46,1.33,5.45,4.32c0,9.37,5.15,9.63,12.42,8.27a158.87,158.87,0,0,1,20.69-2.12c3.87-.21,5.89-2.06,7.69-5.21a8,8,0,0,1,9.28-4.14c4.79,1.14,6,5.29,6.09,9.2.25,8.28,1.29,16.59,1.18,24.75C525.66,996.34,531.64,996.43,530.72,1001.21Z"/><path d="M892.27,980.81c1.26,10.67-.59,22.68,13.5,28.71,6.89,3,8.53.59,9-4.91.79-8.56,4.21-16,8.6-23.12,5.62-9.08,11.21-9.23,17.59-.51,5.89,8.06,8,17.11,3.44,26.21-4.31,8.54-19.51,14.58-28.8,12.64-23.29-4.88-31.3-14.25-31.78-37.78a61.84,61.84,0,0,0-2-14.75c-.67-2.56-1.88-5.65,1.87-6.5,3-.7,6.32.5,7.35,3.72C892.69,969.57,894,974.81,892.27,980.81Zm47.18,15.42c-1.31-2.79-.56-9.28-4.08-8.25-6.82,2-9.29,9.34-11.38,15.8-1.07,3.27.3,5.85,4.44,5.63C936.62,1009,938,1002.76,939.45,996.23Z"/><path d="M406.59,1018.22c-4.21,1.68-7.71-.8-11.19-3.55-12.35-9.79-17.65-31.41-10.43-41.54,2.85-4,6.7-5.33,11-5.5,3.5-.14,5.27,2.23,5.68,5.7.34,2.9.15,5.87-3.3,6.11-7.89.55-8.43,7.76-7.64,11.62,1.19,5.87,1.88,13.35,9.17,16.4,4.77,2,7.51,2.64,8.19-4.61.79-8.39,2.18-17.16,9.49-23.42,4.75-4.06,9.5-6.59,15.17-2.72s7.07,9.65,5.5,15.92C435.19,1005,419.59,1017.55,406.59,1018.22Zm24.8-34c-4.75,2.68-8.4,5.35-10.59,9.53-1.34,2.56-3.47,6.14-.78,8.17,3.75,2.85,4.68-2,6.29-4C429.19,994.53,432.65,991.12,431.39,984.26Z"/><path d="M295.53,968.33c-2.88,5.2-7.12,5.92-12,5.76-6.28-.21-12.58.22-18.84-.13-3-.17-6.14-1.77-5.92-5.44.2-3.22,3.06-3.82,5.91-4q24.26-1.9,48.51-4c2.37-.2,4.82-.71,5.81,2.23.72,2.14-.12,4.47-2.05,5-12.55,3.76-8.69,14.68-7.8,22.05.65,5.33-3.63,13.52,5.29,17.45,2.87,1.26-.27,5.37-1.5,7.93a4.39,4.39,0,0,1-4.94,2.56c-3.22-.62-4.23-3.54-4.24-6C303.72,997,296.63,983.66,295.53,968.33Z"/><path d="M579.8,964.83c1.77,11.85-2,24,3.5,35.79,2.27,4.86-1.65,7.89-6.46,9.16-6,1.58-5.83-2.94-6.09-6.4-.61-8.26-1.07-16.54-1.13-24.81-.06-6.78-2.17-10.33-9.59-8.19-6.07,1.75-12.52-.15-18.66,2.36-3.74,1.53-6.49-1.55-7.19-5-.81-4,2.06-6.09,5.65-6.77,10.21-1.92,21,.67,30.77-5.59C574.34,952.94,580.5,959.53,579.8,964.83Z"/><path d="M766.74,978.44c.87,6,2,13.81,3.09,21.6.57,4.27,1.73,9.82-4.22,10.4-5.78.56-6.06-4.94-6.2-9.31-.4-11.92-.37-23.89-4.3-35.38-1.06-3.09.15-5.2,2.83-6.56,3.52-1.8,4.55.78,5.77,3.32C765.87,967,768,971.42,766.74,978.44Z"/><path d="M354.26,1005.37c.24,4.34.15,7.14-3.48,7.45-2.74.23-5.17-.39-6.17-3.66-3.51-11.51-4.59-23.85-12.43-33.93-1.85-2.37-1.29-6.43,2.9-8.14s5.07.34,6.84,4C347.53,982.57,348.58,995.55,354.26,1005.37Z"/><path d="M58.79,62.57c4.57-11.28,6.19-21,7.71-30.86.54-3.44,1.69-7.66,5.93-8.45,4.51-.86,3,4.36,5.07,6,8.74,7.21,12.76,17.92,19.87,26.3,1.74,2.06,2.93,6.18,6.56,4.85s3.4-5.27,3.26-8.63c-.44-9.94-1-19.87-1.31-29.8-.12-3.36-1.87-8,4.34-7.75,5.63.25,4.44,4.53,4.51,8.1q.33,18.4.84,36.79c.17,6.16-1.88,11.7-7.41,14.08-6.16,2.66-8.61-4.07-11.55-7.37-5.46-6.12-9.89-13.19-14.44-20.08-1.56-2.35-3-4.89-5.91-4.5s-3.92,3.53-4.18,6.14c-.66,6.84-4.24,12.49-7.15,18.38-1.54,3.12-4.28,5.17-8.09,4.66-4.3-.58-4.32-3.88-5.05-7.31-2.95-14.06-1.84-29.08-9.86-42-1.73-2.78.36-4.14,2.57-5.3,3.26-1.71,5.4-.43,5.74,2.81C51.31,28.85,57,38.13,55.8,48.64,55.28,53.12,56.73,57.07,58.79,62.57Z"/><path d="M193.13,63c-.27-23-1.32-23.85-22.73-18.13-2.25.6-4.46,1.35-6.71,1.94-12,3.16-15.18,10.8-8.84,21.73,1.84,3.16,4.85,5.76,1,9.45-1.43,1.37-2.45,3.34-4.87,2.28-3.49-1.54-4.46-4.86-5-8.13-.78-4.89-1.12-9.84-1.62-14.77-.06-.65.31-1.77,0-1.92C132.71,48.65,143,36.73,138,28.25c-2-3.47-2.72-8.72,2.36-10.06,6-1.57,6.8,4.4,7.51,8.27,2.62,14.37,3.26,15,17.89,11.63,2.89-.66,5.78-2,8.67-2,9,0,14.21-2.33,11.39-13-.8-3,0-8.17,4.85-8.38s3,4.86,4.33,7.5c6.1,12.09,4.76,25.56,7.71,38.17,1.17,5,1.76,8.82-1.76,12.61-1.4,1.51-3.25,2.76-5.28,1.5C190.88,71.54,193.81,66.67,193.13,63Z"/><path d="M215.3,56.4c.58-12.24,7-23.89,8.29-36.76.4-3.88,4.12-7,8.19-7.92,4.29-1,5.12,3.47,7,5.92a32.25,32.25,0,0,1,4.51,7.59c1.86,4.58,4.08,7.55,9.66,5.16,2.05-.88,4.87-1.54,6.09,1.19,1.14,2.53-1.61,2.83-3,4.05-7,6-1.74,10,3.05,12.88,4.1,2.47,6,4.86,4.28,9.53-1.11,3.08-1.32,6.88-5.42,7.54-4.51.74-5.16-2.92-6.43-6a53.81,53.81,0,0,0-4.61-8.76c-1.85-2.85-2-8.22-6.73-7.44C235,44.22,230,46.46,228,52.3a59.16,59.16,0,0,1-3.36,8.19c-1.29,2.46-3.2,4.34-6.42,3.08C215.14,62.37,214.52,60,215.3,56.4Z"/><path d="M324.65,54.84c-.15,2-.22,4-.48,5.95-.35,2.76-1.11,5.49-4.56,5.4-2.89-.08-3.6-2.46-4-4.89-1.78-12.07-4-24.1-5.19-36.23-.82-8.66-5.26-9.57-12-7.42-5.66,1.81-11.26,3.82-16.84,5.87-3.2,1.17-5.33.06-6-3-.57-2.58-.69-5.77,2.74-6.49,2.26-.48,4.45-1.58,6.53-1.81A136.36,136.36,0,0,0,316,4.45c4.27-1.55,10.35,2,7,7-6.8,10-.2,19.2-.32,28.67C322.67,45,324,49.91,324.65,54.84Z"/><path d="M698.77,9c7.47.81,13.25-5.82,20.92-4.74,4.81.68,10.88-1.37,13.72,3.55,3,5.17,1.45,11-2.41,15.72-3.55,4.35-4.55,7.56,2.71,8.41,10,1.16,13,6.75,11.63,16.51C742,72.33,721.79,76.56,703.92,69.26c-5.6-2.28-8.28-6.35-7-13.41,2.44-13.3-1.49-26-5.27-38.73C689.48,9.79,691,8.49,698.77,9Zm17,54.56c9.83.15,19.73-8.33,20.06-16.79.21-5.29-3.73-6.65-7.87-6.87-12-.63-21.53,7.32-21.68,18.38C706.15,66,712.31,63.21,715.75,63.55Zm-7.83-32.31c6-2.3,10-7.18,13.84-12.09a2.63,2.63,0,0,0-1-4.19c-5.26-1.92-8.24,3.34-12.61,4.33-3.43.77-5,3.1-5.38,6.28C702.32,29.13,703.88,31.25,707.92,31.24Z"/><path d="M486.77,29c6.48-9,10.11-17.08,17.68-21.79S519.82.67,527.35,6c4.85,3.41,2.51,16.64-3.48,23.56-1.51,1.74-3.57,3-5.07,4.74-1.87,2.19-2.88,6.22-.24,6.87,6.48,1.62,11.06,6.28,16.87,8.67,2.23.92,6-3.16,7.36,1.65,1,3.25-.86,5.59-3.34,7.7-2.94,2.51-6,2.77-9.15.94a18.77,18.77,0,0,1-3.75-3.23c-7.27-7.33-17-9.81-26.23-13.18-4.93-1.8-6.55.52-6.76,5.25A108.86,108.86,0,0,1,492,62.75c-.6,3.44-2.14,6.55-6.54,5.84-4-.65-4-3.79-3.86-6.91.47-9.89,2.29-19.76-.23-29.68-1.05-4.12-.79-8.52-4.25-11.87-2.11-2-2.23-4.82-.62-7.33a3.91,3.91,0,0,1,5.18-1.63c2.79,1.19,3.67,3.52,3.83,6.4S486.13,23.43,486.77,29Zm14.5,4c5.09-.39,19.28-12.36,20.17-17.11,1-5.21-2.2-6.44-6.42-5.09-8.35,2.67-13.82,8.56-17.16,16.53C496.22,31.23,498,32.83,501.27,33Z"/><path d="M913.61,21.59c4.5-9.27,12.09-8.21,19.74-6.2s11,7.49,12.53,15c2,9.5,1.29,18.29-3.15,27C939,64.73,934,67.94,925.42,67.79c-15.23-.28-14.59.15-16.94-15.36-1.56-10.34-.57-21.19-5.47-31-2-4,.47-8.5,3.43-9.12C912.5,11,911.24,17.75,913.61,21.59ZM919,53.84c0,4.3,4.56,7,10.06,3.15a22.37,22.37,0,0,0,9.71-19.67c-.2-6-3.84-11.5-10.1-11.76-6.89-.28-7.59,6.07-8.12,11.49C920,42,919.58,47,919,53.84Z"/><path d="M440.21,53.73c1.13-10.8-3.1-20.9-4-31.41-.54-6.1-4.58-6.51-9.2-6.3-7.23.33-14.25,2.7-21.65,2-2.95-.28-6.34,1.15-6.64-3.42-.29-4.28,1.69-7.28,6.27-7.12,10.93.4,21.67-.84,32.48-2.39A104.44,104.44,0,0,0,456.68.66c4.08-1.41,7.4-.73,8.63,3.8,1.44,5.27-3.06,7.06-6.26,6.75-13.55-1.32-13.68,6.86-12.3,16.28,1.21,8.18,1.06,16.53,3.46,24.58a38.12,38.12,0,0,1,1.18,9.85c.1,4.15-.91,8.85-5.45,9.33-5.62.6-5.38-4.69-5.69-8.57C440,59.71,440.21,56.71,440.21,53.73Z"/><path d="M834.56,27.31c12.11-3.54,24.51-.65,36.4-3.12,1.39-.28,3,.81,2.63,2.1a5.78,5.78,0,0,1-3.27,3.32c-8.76,2.52-17.06,7.56-26.69,5.73-8-1.51-9.94,2.16-8.6,9.19.18,1-.24,2,0,3,1.73,7.2.07,17.6,7.86,20.09,8.37,2.68,17-2.94,24.5-7.89,1.59-1,1.84-5.49,4.82-2.47,2.37,2.39.27,4.71-1.88,6.64-5.94,5.34-12.33,9.71-20.08,12.2-10.25,3.29-19.49-.77-21.13-11.45-2-13.39-2.47-27-3.36-40.57-.19-2.77,1.42-5.95,4.32-5.78C836.06,18.63,832.52,24.84,834.56,27.31Z"/><path d="M658.91,34.92c-.51-6.63,0-13.72-6.87-18.51-2.4-1.67-2-5.2.52-6.88,2.34-1.55,5.39-2.81,8,.23,7.53,8.93,6.62,40.55-1.45,50.1-6.73,8-12.75,8.47-20,1.19-6-6.06-9.12-13.7-10.91-22-1.19-5.49-2.57-10.95-4-16.38C623,18,623,13.37,628.63,12.53c4.91-.73,6.49,3.37,6.79,7.82.64,9.25.63,18.72,5.77,26.91,1.93,3.07,2.55,9.14,7.66,7.56a13.5,13.5,0,0,0,9.42-10.7C658.74,41.19,658.7,38.16,658.91,34.92Z"/><path d="M598.32,47.2c-1,6.26-4.92,10.58-11,13.6-8.31,4.15-15.18-.1-21.07-4.41-9.84-7.2-12.94-27.79-6.91-38.53,4.22-7.51,10.36-7.83,17-2.65,7.1,5.54,14.11,10.77,18.2,19.1A39.23,39.23,0,0,1,598.32,47.2Zm-9-3.51c.22-9.47-7.45-19.9-15.18-20-4.16,0-7.61,1.36-7.71,6.89-.2,10.77,7.17,24,13.85,23.17C585.53,53.08,589,49.47,589.31,43.69Z"/><path d="M795.9,73.48c-13.45-.79-24.92-12.66-28-28.59-1.56-8.06-2.78-16.19-4.24-24.26-.7-3.83.3-6.72,4.34-7.55s6.22,1.61,6.75,5.4c1.09,7.85,2.22,15.7,3,23.59C779.45,60,788.2,66.21,805.54,61.55c2.5-.67,5.79-2.52,7.34.12,2.3,3.91-2.35,4.55-4.35,6.33C804.76,71.36,800.84,74.47,795.9,73.48Z"/><path d="M888.08,10.7c-14,7.17-29.1,7.13-44.28,6.64-2.34-.07-4.68-1.28-4.54-4.26.12-2.47,1.54-5.21,3.8-5.26,15-.29,30-.15,45-.15C888,8.68,888.06,9.69,888.08,10.7Z"/><path d="M463.85,508.66c4.87-16.21,10.95-27.88,26.21-31.75,3.55-.9,6.52-2,10.43-1.22,5.65,1.12,12,1.72,12.84,8.25s-2.42,11.75-9.12,15.08c-3.59,1.77-10.58.81-10.36,5.91.24,5.52,7,7.74,11.37,9.69,7.89,3.51,15.23,10.09,25.15,7.12,2.18-.65,3.88.72,3.51,3.37-.59,4.23-2.39,8.66-6.93,8.22-4.06-.39-8.57.3-12.45-2.39-11.18-7.75-24.51-11.76-35.36-20.13-6-4.62-8.82-2.65-9.5,4.52a36.8,36.8,0,0,1-2.42,9.59c-1.08,2.79-1,7.48-5.88,6.41-4.47-1-5-4.82-4.73-8.7.52-8-1.05-15.86-2.3-23.74-.53-3.35-.69-6.39-3.93-8.57-5.7-3.83-2.55-7.2,1-10.24,5.06-4.31,8.2-3.5,9.16,3.47C461.57,490.94,459.9,498.67,463.85,508.66Zm22.67-14.44c4.59,1.09,8.76-2.2,13.31-4,2.29-.92,3.91-2.76,3.21-5.48-.8-3.12-3.29-4.28-6.14-3.61a107,107,0,0,0-13.33,4c-2.77,1-6,3-5.36,6.26C479,495.36,482.9,493.94,486.52,494.22Z"/><path d="M343.29,510.89c.63,7.51,1.29,15.42,2,23.34.31,3.62,0,6.85-4.78,6.87s-3.53-3.17-3.89-6.2c-1-8.87-2.91-17.64-2.54-26.64a5.78,5.78,0,0,0-.7-2.87c-2.11-3.88-22-3.24-30.14,1.65-6.46,3.89-4.11,10.42-1.12,14.66,3.43,4.88,2.88,8.68-1.35,10.73-4.69,2.28-6.93-2.22-8.17-6.11-2.62-8.21-.67-18.26-9.84-23.86-.53-.33-.53-2.84.1-3.53,4.73-5.12,2.27-10.51,1.12-16-.87-4.17-.3-8.91,4.77-9.3s5.75,3.57,5.44,8.27c-.57,9,2,15.43,13.27,13.39,3.85-.69,8,.33,11.92,0,4.71-.39,8.55-1.94,7-8.12-1-4.07.21-7.78,4.54-8.53,5.53-.95,3.76,5.32,5.69,7C344.75,492.63,343.34,501.61,343.29,510.89Z"/><path d="M423.4,489.39C419,500,410.14,502,401,503.27c-5.31.76-12.52-1.43-14.53,5.26-2.28,7.58.88,15.56,5.45,21.38,3.88,4.94,8.33.8,10.86-3.55,1.35-2.34,2.83-4,5.37-2.36,1.85,1.2,1.83,3.63.87,5.45-2.92,5.53-5.56,12.17-12.53,12.91-7.56.79-13.22-2.81-15.81-10.78-4.35-13.4-5.7-27.28-6.56-41.14-.4-6.48,2.45-10.1,11.28-11.23,12.11-1.55,24.58,2.21,36.37-2.86,2.41-1,6.43-1.45,7.29,2.76.71,3.54-2.13,4.2-4.94,4.77-6.73,1.36-13.09,4.33-20.42,2.22-2.83-.81-6.45.85-9.65,1.61-1.54.37-3.53.87-3.26,3.06.31,2.49,2.39,3.06,4.46,2.94C404.7,493.15,414.56,496,423.4,489.39Z"/><path d="M865.5,516a41.32,41.32,0,0,1,0,5.26c-.56,4.06-1.81,9-6.14,9s-3.89-5.34-4.46-8.68c-1-6-.39-12-4.64-17.79-2.75-3.77-.63-10.88,3.31-14.46s6.47.19,9.38,3.55c3.72,4.31,9.4,1.4,14.17,1.12,7.49-.44,17.67,2.89,17-11-.1-2.07,3-4.44,5.95-4.46,3.42,0,4.17,2.73,4.86,5.35,2.62,10,3.1,20.27,3.47,30.53.1,2.58-.92,5.37,1.47,7.48,2.62,2.32,2.23,4.51-.21,6.67-2,1.78-3.92,3.59-7,2.45-2.9-1.07-4-3.18-4.19-6.09-.38-6.28-.86-12.55-1.22-18.82-.26-4.58-1.48-6.67-6.82-4.69-5.79,2.16-12,3.29-18.06,4.58C866.52,507.25,863,509.68,865.5,516Z"/><path d="M622.53,496.42c-2.12-3-1.19-4.68,1.74-6.36,9.51-5.43,18.56-11.5,25.87-19.8,1.12-1.27,2.23-2.69,4.13-1.76,2.15,1.05,2.18,3.12,2.06,5.16-.34,6-5.06,8.26-9.31,10.77-9.57,5.67-16.65,10.69-11.33,24.89,2.69,7.17,4.22,17.2,2,26.14-.51,2.07.29,3.56,1.88,5.19,5.52,5.66,4.74,9.76-2.31,12.74-5,2.11-8.27,1.47-8.22-5.23.08-10.91,1.07-21.89-1.86-32.67-2.09-7.66-4.55-13.28-14.16-15.43-10.39-2.32-19.26-9.46-26.73-17.5-1.75-1.88-3.82-4.29-1.08-6.9,2-1.88,5.17-1.74,6.35,0C599.09,486.72,614,486.57,622.53,496.42Z"/><path d="M817.67,488.83c3.34-2.52,4,2.79,6.41,1.18.39-.26.25-2.11-.24-2.8-2.26-3.16-6.28-2.34-8-.92-7.1,5.72-15.86,6.38-23.94,9-3.58,1.18-7.86,2.42-8.91-2.62-.89-4.29,1.62-7.07,6.41-8.4,11.15-3.09,22.63-3.55,34-5.15,5.64-.8,6.67,3.18,6.35,7.65-.72,10.25-1.65,20.47-2.31,30.72-.23,3.5-1.65,7.43,2.07,10.15,2.38,1.74,4,3.57,1.68,6.5a8.2,8.2,0,0,1-8,3.08c-3.67-.52-4.73-3.24-4.76-6.5-.08-9.64-.25-19.28-.07-28.92C818.38,497.35,818.86,492.87,817.67,488.83Z"/><path d="M683,492.22c11.3-1.8,19.62,10.62,20.24,19.51.71,10.08-10.46,22.42-20,22.55-9.82.13-17.84-10-16.43-24C668.35,495.29,667.46,493,683,492.22Zm3.67,8.53c-8.06-1-11.71,2.8-11,10.19.56,5.8,1.08,12.54,8.31,14.23,5,1.16,11.15-8,11-15.32C694.93,504,692.74,500.41,686.65,500.75Z"/><path d="M747.9,531.93c-7.63.05-15.09-8.54-18.49-21.26-1.19-4.47-2.24-9-3.74-13.36-.69-2-3.34-3.69-.42-5.81,2.16-1.56,4.57-3.1,7.32-2.07,2.5.94,3.23,3.38,2.82,5.8-1.28,7.54,3.72,13.84,4,21.19.15,3.92,3.75,7.25,7.84,8.11,3.85.81,5.65-3.15,7.66-5.47,5.62-6.44,4.25-17.09-2.62-23.33-1.73-1.57-4.09-3-2.53-5.63,1.09-1.87,3.32-2,5.35-1.19,6.16,2.45,12.63,16.31,11.26,24.05C764.42,523.82,756.58,531.88,747.9,531.93Z"/><path d="M946.93,522.09c-1.41,9.86-3.77,18-9.43,24.92-1.57,1.9-3.47,3.45-5.89,1.52-2-1.56-1.17-3.57-.09-5.35,3.89-6.34,5.79-13.32,6.92-20.59.44-2.81,2-5.35,5.06-5.24C947.22,517.48,946.84,520.7,946.93,522.09Z"/><path d="M196.49,1154.25c0,9.78-4.94,13.46-13,10.3a68.84,68.84,0,0,1-20.81-13.07c-1.67-1.49-2.48-4.31-5.41-3-2.32,1.08-1.48,3.35-1.37,5.29.23,4.15-.37,9.29-5,9-4.07-.22-5-5-4.75-9.51.39-6.33-1.06-12.45-3.4-18.41-1.66-4.22-2.07-9,3-11.13s6.34,2.75,8.51,6c6.9,10.31,14.42,20.08,26.29,25.22,2.31,1,4.68,3.1,7.32.74s.94-4.69,0-7.21c-3.13-8.67-4.43-18-9.33-26-1-1.7-2-3.87.56-5,2-.88,3.86.15,5.27,1.79,3.22,3.72,2.89,8.69,4.55,13C191.86,1139.91,194.27,1147.74,196.49,1154.25Z"/><path d="M288.61,1131.2c10.4-.87,20.41,5.65,29.74,14.11,4.93,4.46,4.18,9.69,2.19,14.54-3.19,7.75-21.24,16.23-29.63,14.65-10.76-2-18.31-10-19.23-22-.48-6.25,2.27-12.45,3.15-18.76C275.19,1131.17,281.69,1130.93,288.61,1131.2Zm2.85,34.41c8.52.19,23-6.66,22.59-11.06-.9-9.76-9.49-11.54-16.91-14.21a14.31,14.31,0,0,0-1.88-.63c-3.69-.76-8.37-4.34-10.83.07-2.88,5.13-7.69,10.32-4.6,17.39C282.24,1162.69,286.69,1164.84,291.46,1165.61Z"/><path d="M243.67,1154.21c-1.89-21.86-1.89-21.84-25.46-20.45-2.38.14-5.92,1.7-6.19-2.48-.2-3.1,2.48-4.62,5.35-4.82,12.88-.9,25.39-3.86,37.89-6.84,3.53-.84,5.78.29,7,3.69s.5,6.48-3.16,7c-7.26,1-8,6.55-8.38,11.62-.64,8.24-.25,16.57-.29,24.85,0,2.2.76,4,3.14,4.41,3.1.49,6.62.77,4.84,5.2-1.36,3.41-3.77,6.67-7.84,6.84-4.42.2-5.2-3.49-5.48-6.9C244.56,1169.68,244.23,1163.05,243.67,1154.21Z"/><path d="M121.55,1153c.75,4.56-.79,10.38,3.41,15.21,2.45,2.82.74,5.61-1.35,7.92-1.39,1.53-3.26,2.57-5.28,1.51-2.72-1.44-2.8-4.3-2.87-6.94-.37-14.48-1.33-28.89-5-43-.65-2.46-.65-4.91,2.27-5.6s3.89,1.49,4.75,3.86A69.16,69.16,0,0,1,121.55,1153Z"/><path d="M912.06,1120.79c4.86.92,9.35,1.09,13.84-1.14,3.48-1.74,7.35-.26,8.55,2.86,1.45,3.78-2.91,4.81-5.44,5.61-6.64,2.08-13.4,4-20.53,3.19-2.56-.3-4.75.23-5.76,2.79s.1,4.38,2,6.12c5.11,4.65,10.33,8.64,17.64,4.57,2.58-1.44,5.09-2.25,6.76,1,1.49,2.89,0,4.66-2.48,6.54-10.88,8.09-20.32,6.08-28.53-5.17-4.58-6.29-7.25-13.53-13-19.47-6.87-7.07,1.77-24.92,12.61-26.6,14.28-2.22,28.5-5.64,43.12-5.09,2.29.09,6.26-1.89,6.07,2.41-.14,3.34-4,4-6.94,4.61-11,2.2-22,4.22-33,6.47-4.25.87-10.66-.14-9.9,6.9s7.12,3.95,11.25,4.67A14.82,14.82,0,0,0,912.06,1120.79Z"/><path d="M810.44,1136.2c0,6.85-12.47,21.16-21.14,24.26-19,6.8-36.46-8.77-32.35-29.52,1.06-5.32-.46-15.61,6.29-14.83,7.93.91,2.46,9.71,2.51,15.16,0,5.64,0,11.34,2.14,16.69,2,5,6.16,7.35,11.1,5.94s3.09-5.76,2-9.19c-1.62-5.13-.16-9.91,1.78-14.5,3.35-7.9,9.92-10.69,17.86-9.19S810.49,1129,810.44,1136.2Zm-19.61,4.51c.09,2.44-.54,6.82,2.76,5.86,4.32-1.26,9.71-3.4,10.46-9,.5-3.74-2.09-6.06-6.09-6.14C791.44,1131.27,790.57,1135.55,790.83,1140.71Z"/><path d="M728.33,1138.11a46.08,46.08,0,0,1-.66,16.81c-.95,4.42-2.67,6.93-8.31,3.52-10.6-6.42-21.74-11.94-31.55-19.62-1.52-1.19-2.68-3.33-5-2.34-2.73,1.19-2.47,3.86-1.94,6.08,1.58,6.65,1.61,13.13-1,19.55-.84,2.08-.88,4.93-4.11,4.65-2.8-.23-3.94-2.33-4-4.87-.56-12.57-.59-25.18-2.84-37.63-.44-2.43,1-3.68,3.13-4.27s4.39-1.11,6.39,1c9.74,10.25,19.72,20.39,34,24,3.53.91,1.56,8.2,6.29,5.25,3.94-2.46,1.85-6.9,1-10.84-1.08-5.15-1.22-10.5-1.66-15.77-.21-2.52.66-4.78,3.15-5.65,3.13-1.08,3.68,1.92,5,3.68C730,1126.77,727.7,1132.64,728.33,1138.11Z"/><path d="M547.85,1162c15,14.32,31.68,9.22,48.34,6.25,0-4.38-2.9-4.3-4.86-4.53-13.6-1.64-22.07-10-30.2-20.33-6.92-8.76-2.76-13.88,3.23-19.24,4.77-4.27,11-4.12,17-4,1.79,0,3.47.72,3.09,2.85-.31,1.69-1.93,3.45-3.51,2.45-4.38-2.78-7.64.15-10.94,1.81-7.23,3.65-8.19,9.79-3.54,15.62,5.46,6.85,11,14.25,21.18,14.94,3.21.21,6.3,2,9.5,2.77,2.65.67,5.47,1.07,5.75,4.44a8.06,8.06,0,0,1-3.73,7.73c-14.8,8.83-44.07,4.06-52.17-8.84C546.89,1163.76,547.22,1163.35,547.85,1162Z"/><path d="M860.08,1150.85l-10.63-2.21c.74,1.71.85,2.83,1.45,3.23,5.65,3.84,9.41-.3,14.18-2.65,3.79-1.85,8.6-9.25,12-3.92,2.69,4.22-5,6.23-8.89,8.41-14.84,8.42-18,7.23-26.05-7.37-4.4-8-6.1-16.72-9-25.11-1.55-4.5-3-11.25,3.79-12.28,6.55-1,6.18,6.29,6.28,10.22.13,5.17,1.85,9.4,3.44,14.06C849,1140,852.8,1145.49,860.08,1150.85Z"/><path d="M631.65,1153.92c-.94-4.7-2-10.51-3.32-16.24-.55-2.31-1.89-4.85,1.51-5.45,2.17-.38,5.17.51,5.34,3.3.53,8.88.61,17.6,6.55,25.29,1.49,1.92-1.56,5.63-4.4,6.86-3.75,1.64-3.9-1.66-5.1-4C630.77,1160.78,630.44,1158.09,631.65,1153.92Z"/><path d="M414.26,1165.74c1.46-4.83,3.22-10.46,4.86-16.13,2.64-9.16,6.45-17.95,6.64-27.83.06-3.53,1.72-8.69,5.83-9.62,5.58-1.25,2.42,4.77,4.3,7.11,4.28,5.34,9.51,9.81,13.18,15.8,1.93,3.15,6.78,1,10.28.28,1.69-.35,3.39-.8,4.32,1s-1.34,2.68-1.82,4c-4.18,11.44-14.61,7-22.06,7.77-8.57.94-12.6,4.58-14.28,12.14-.75,3.37-2.65,6-4.47,8.74-1.15,1.75-1.15,5.17-4.55,3.69C414,1171.6,414,1169,414.26,1165.74Zm29.37-27.29c-2.06-1.78-2.42-5.46-5.69-6-3.51-.6-4.4,2.17-4.38,4.91s1.23,5.34,4.63,4.66C440.13,1141.62,442.83,1141.67,443.63,1138.45Z"/><path d="M454.81,1152.29c4.64,5.22,9.11-6.88,13,.27,1.23,2.25-1.07,5.29-3.65,6.35C458.22,1161.36,457.66,1155.4,454.81,1152.29Z"/><path d="M237.51,652.5c.88,8.28-5.31,12.8-12.3,16.43-5.07,2.65-6.09,4.28-.47,7.89,7.36,4.71,15.42,7.71,23.38,10.85,4.4,1.74,9.81,2.39,13.87-2,2.06-2.25,4.26-1.7,6,.16s.27,3.46-.84,5.22c-5.31,8.37-11.23,9-25.07,3.33-12.79-5.25-26.38-8.7-37.2-18.05-3.11-2.68-4.92-.74-5.42,2.49-.72,4.57-.64,9.31-1.74,13.77-.86,3.49-2.84,7.23-7.48,6.37-4.48-.83-3.77-4.4-3.53-7.91.78-11.77,3.05-23.8-5.92-34-3.36-3.83.62-6.09,3.12-7.87,3.59-2.54,6.47-1.18,7.42,3,2.14,9.48,4.5,7.38,10.63,2,8.56-7.54,20.08-10,31.55-10.07C238.36,644,237.88,648.07,237.51,652.5Zm-12.28,2.12c-5.73-1.69-9.51,1.24-13.65,1.79-2.5.33-4.59,1.72-3.45,4.76a4.1,4.1,0,0,0,5.76,2.41C218,661.74,222.5,660.22,225.23,654.62Z"/><path d="M85.27,702.43c-9.4,8.1-12.62,7.37-14.76-3.53-1.52-7.74-1.94-15.7-2.78-23.58-.49-4.6-1.53-7.39-7.49-5.74-9.17,2.53-18.55,5-28,5.71-10.1.73-10.8,6.47-10.19,14a44.41,44.41,0,0,0,1.21,8.81c.72,2.44,3.26,4.77-.43,6.67-2.24,1.15-4.33,3.57-7.26,2s-2-4.62-2-7.16c0-4,.57-7.93.41-11.87-.19-4.5.53-10.33-7.44-7.24-2.15.83-3.89-.45-4.42-2.75-.49-2.14,0-4.31,2.35-4.79,11-2.27,6.76-10.06,6.07-16.49-.25-2.27-1.43-4.45-1.6-6.71-.19-2.73.5-5.48,3.76-6.16s4.71,1.35,5.35,4.36,2.32,5.77,2.18,8.59c-.57,11.47,6.21,11.59,14.52,10.14,5.85-1,11.78-1.63,17.66-2.5s13.28.25,12-10c-.4-3.12,3.37-4.83,6.52-4.88,3.69,0,3.8,3.16,4.09,5.74,1.34,12.17,2.76,24.33,3.77,36.52C79.17,696.36,80.06,700.51,85.27,702.43Z"/><path d="M153.81,662c-7.95,6.18-16.11,10.42-25.18,11.71-3.3.47-7.5-1-7.06,3.81.51,5.55-2.15,12.57,4.46,16.23,3.93,2.17,8.31,2.46,11.5-2,1.72-2.42,3.59-4.74,5.47-7,1.28-1.55,2.85-3.22,5-1.92,1.6,1,1.42,3.09.65,4.53-3.23,6.13-6.44,12.49-13.07,15.65-11.09,5.3-19.85.3-22.51-12.34-2.5-11.82-1.7-24.16-5.93-35.71-1.11-3,1.58-4,3.74-4.8a106.41,106.41,0,0,1,40-6.07c2.67.1,7,.12,6.65,4.14-.33,3.45-4.15,1.72-6.54,2.28-8.62,2.05-17.12,4.64-25.62,7.16a2.93,2.93,0,0,0-2.06,3.93c.65,2,2.37,1.94,4.07,1.85Q140.59,662.67,153.81,662Z"/><path d="M669.29,657.8c4.47-.79,7.17-1.83,8.63-5.58,6.17-15.91,19.75-19.9,35-21,4.78-.34,6.1,1.67,6.39,6.38.59,9.57-3.49,16.56-10.32,22.51-5.78,5-4.32,8.83,2.56,10,11,1.94,19,12.08,31,11,1.57-.14,1.8,1.63,1.64,3-.26,2.3-.24,5.07-3.08,5.63-3.22.63-6.82,1.12-9.61-1.06-12.29-9.63-27.14-10.88-41.7-13.36-6.41-1.09-11-.16-13.32,6.73-.86,2.53-2.2,6.23-6.23,4.86-3.18-1.09-4.11-4.26-4.29-7.3-.63-10.84-1.5-21.53-6.4-31.6-2-4.11,1-6.92,5-8,4.49-1.27,4.8,2.34,5.36,5.2C670.75,649.35,672.86,653.54,669.29,657.8Zm42.83-19.88c-11.32,0-23.9,8.83-27.4,18.69-.67,1.88-1.67,3.77-.11,5.6,2.2,2.57,4.16.23,6.22-.42C702.26,658.13,707.48,648.82,712.12,637.92Z"/><path d="M867.22,643c.88,9.54,2.66,19.11,2.41,28.63-.27,10.22-2.81,11-11.46,5.53-10.2-6.5-21.5-11-31.24-18.5-3.9-3-7.09,1.2-6.08,6.34a27.38,27.38,0,0,1-1.24,15.64c-.89,2.23-2.07,4.33-5,4.05s-3.78-2.12-4-4.79c-.53-5.93-1.43-11.82-1.87-17.75-.32-4.25.31-8.38-2.32-12.45-3.28-5.1-2-11.33,2.37-14.39,4.06-2.83,7.91,2.17,10.5,5.2,9.48,11.09,23.54,15.91,34.16,25.52,3.71,3.37,6.36-1.21,6.22-5.38-.24-7.61-.72-15.21-1.33-22.8-.3-3.84-2.59-8.59,3.92-9,7.25-.46,5.25,5.07,5.25,9.14v5Z"/><path d="M640.17,652.11c-1.94,7-7.54,6.34-11.51,8-4.28,1.73-9,2.41-13.32,4-9.6,3.42-11.53,12.07-4.5,19.38,1.69,1.76,4.4,3.77,6,1.82,4.65-5.63,14.29-4.5,16.75-12.83.61-2.08,2.35-3.69,4.5-2.19a4,4,0,0,1,.94,5.42c-6,7.52-12,15.57-22.14,17.62-9.8,2-16.2-3.34-18.81-14.59-.66-2.85.08-7.22-3.13-7.86-11.09-2.21-6.31-6.68-2.41-11.74,2-2.62,1.16-5.79-.56-8.45-4.35-6.74-.2-9.54,5.45-10,13.54-1.19,26.35-6.33,40-6.8,2.37-.09,4.7-1.28,5.6,2,1.12,4-1.88,4.09-4.55,4.67-9.38,2-18.68,4.53-28.13,6.19-4.7.83-7.88,2.4-7.06,7.45.8,4.86,4.78,3.25,8,3.11C620.86,656.74,629.5,651.08,640.17,652.11Z"/><path d="M922.81,687.52c-21.57-.78-31.73-12.8-29-33.75a68.66,68.66,0,0,0,.38-6.89c.12-3.91-.65-8.23,3.83-10.38,2.07-1,4.88-1.7,6.42.5,2.44,3.48,2,7.6.67,11.44-2.68,7.53-2.18,14.95,0,22.46.74,2.57.94,6.07,4.07,6,4.1,0,3.48-4.06,3.86-6.86.26-2-.13-4.07.41-5.94,2.21-7.73,4.38-15.67,14.69-16,8.38-.31,17.22,6.7,18.52,14.64,1.41,8.68-3.46,17.89-11.47,20.45C930.93,684.56,927.77,689.33,922.81,687.52Zm-.43-17.22c-.52,4.3,1.12,7.61,5.7,7.09,5.7-.65,11.17-2.95,12.23-9.58.88-5.57-2.79-9.46-7.66-9.64C925.18,657.91,923.31,664,922.38,670.3Z"/><path d="M360.07,667.69c6.79,6,8,14,8.28,22.46.08,2.37,0,6.35,3.25,6.43s2.35-3.37,3-5.85A343.27,343.27,0,0,1,385.47,658c2-5.19,5.16-6,9.35-.56,3.63,4.74,6.59,9.76,9.79,14.72,1.76,2.74,2.54,7.89,7.56,6.3,3.73-1.18,3.68-5,3.83-8.43.35-8.08,3.59-15.37,6.51-22.72.85-2.14,1.31-5.56,5.38-4,3.83,1.48,4.37,5,2.72,7.29-7.38,10.14-4.31,22.57-8,33.47-1.38,4.1-1.79,9.5-5.77,11.09-4.25,1.69-6.83-3.61-9.08-6.3-5.11-6.09-11.25-11.88-12.37-20.42-.32-2.41-1.4-3.74-3.64-3.8-2.84-.07-2.65,2.46-3.1,4.28-2.3,9.27-3.35,18.75-8.44,27.39-2.74,4.66-6,7.48-10.6,7.61-5.87.18-5-5.74-5.24-9.06-.68-9.27-8.8-17.44-4-27.43Z"/><path d="M485,671.85c5.94,3.84,13.73,3.75,12.67,12.37-.17,1.41,5.31,3.28,1.44,5.76-2.35,1.51-5.9.43-8.24-1.81a12.89,12.89,0,0,1-2-3.4c-7.38-13.94-20.09-14.4-29.43-1.14a33.92,33.92,0,0,1-5.37,5.86c-1.52,1.33-3.7,2-5.52.73-1.6-1.11-.87-3-.38-4.56.09-.32.37-.76.25-.94-7.76-12,7.58-16.51,8.38-25.87.33-3.74,2.95-7.12,2.19-11.42-.57-3.24,1.47-5.71,4.8-6.61s4.3,1.8,5.91,4c4.31,5.83,8.75,11.61,13.62,17,3.22,3.54,7.54,5.39,12.64,4.11,2-.5,4.29-.59,4.42,2.19.1,1.9-1.77,2.66-3.48,2.84C493.65,671.25,490.39,671.44,485,671.85Z"/><path d="M543.62,686.8a85.64,85.64,0,0,0,17.72-42.38c.59-4.6,4.4-6.28,8.14-4.79,4.61,1.83,2.31,4.7,1,8.59-4,12.21-7.87,24.41-14,35.75-1.41,2.6-2.74,5.37-4.71,7.5-5.33,5.76-10,5-13.68-2.15q-4.7-9.29-8.69-18.92c-2.33-5.65-5.38-10.56-11-13.42-2.11-1.08-4.58-1.74-3.87-4.82a9.83,9.83,0,0,1,5.19-6.95c3.09-1.51,3.77,1.46,5.24,3.07,8.8,9.66,15.49,20.28,16,33.85C541.07,684.17,541.44,686.1,543.62,686.8Z"/><path d="M773.2,678.61c-.27-9.73-3.55-17.32-5.2-25.24-.4-1.91-1.41-3.69-1.81-5.6-.91-4.3-1.9-9.89,3.5-10.78,5.76-1,5.37,5.48,6.23,9.18,2.2,9.48,3,19.36,6,28.54,1.7,5.19-.33,8.19-2.4,11.72-.84,1.44-2.77,1.61-4.44.64C770.73,684.54,773.6,680.46,773.2,678.61Z"/><path d="M360.36,667.4c-4.76,2.73-5.94-.92-6.56-4.14-1-5.34-8.07-8.77-5.12-15.08,1-2.21,6-1.17,5.79-.76-3.66,8.43,9.58,12.05,5.6,20.28Z"/><path d="M921.92,843.83c-4.31.15-8.74-.28-12.92.55-16,3.14-20.55-8.92-19.66-22,.23-3.42,3.58-8.5-1-9.62-5.08-1.25-11.14-.16-16.35,1.35-3.13.9-.58,3.67.85,5.49,3.56,4.52,9.32,8.18,6.4,15.4-.67,1.67-2.24,3.41-3.67,2.35a31.4,31.4,0,0,1-10.73-13.6c-3.51-8.59-22.83-8-29.2.67-2.55,3.47-5.13,6.93-7.89,10.23-1.57,1.89-3.87,3.07-6.22,1.73-3-1.7-2.39-4.89-1.22-7.11,6.31-11.9,12.6-23.74,17.78-36.25,2.51-6.07,10.52-1.25,15.78-4.33,3.37-2,2.84,3.95,4.33,6.16,4,5.88,4.25,15.11,14.94,14.73,12.67-.45,16.67-4.18,15.94-16.9-.2-3.4-1-7.3,3.28-8.22s5.17,3.22,6.53,6.17c2.9,6.27.1,12.49-.63,18.59-2.55,21.5,2.1,26.6,23.64,24.6Z"/><path d="M437.33,793.82c.18,12.4-15.78,26.81-31.3,28.25-12.91,1.2-13.65,1.87-10,14.24,1.76,6.06,0,12.53,3.35,18.47,1.33,2.38.61,7.49-3,8.42-4.34,1.12-6.28-2.65-6.87-6.54-2.28-14.94-4.43-29.89-6.69-44.83-1-6.51-2-13-3.23-19.51-.73-3.94.83-7.21,4.33-7.71,4.88-.68,3,3.83,3.55,6.43s-.32,5.87,3.2,6.5c2.89.53,3.34-2.63,4.83-4.25,7.3-8,28.42-11.67,38.45-7C437.4,787.93,437.13,790.88,437.33,793.82Zm-10.79,6.43c-1.47-3.85-3.4-6.83-7.9-6a72.49,72.49,0,0,0-11.37,3.21c-7.26,2.73-14.48,12.51-11.7,16.21,5.28,7,11.53,1.51,17-.2C419,811.48,423.12,806.19,426.54,800.25Z"/><path d="M662.31,813c-.77-8.41,1.58-15.92-2.21-23.32-1.59-3.09.15-7.57,3.93-9.24s5.08,1.68,6.63,4.31c4.62,7.85,12.5,12.66,18.44,19.33,2.42,2.72,7.54,5.54,10.3,1,2.59-4.27,7.38-9.44,2.15-15.19-1.75-1.92-4.86-3.49-2.42-6.43,2.68-3.23,6.81-1.79,10.35-1.9,3.23-.09,5.18,1.88,4.83,5-1.23,10.9-6,20.75-9.74,30.9a3.62,3.62,0,0,1-5.89,1.44c-5.51-5-14-4.42-19-10.41-1.19-1.45-3-3.11-5.15-2.09-2.56,1.21-2.21,3.79-2.06,6.13.34,5.3.77,10.58-1,15.79-.86,2.54-1.11,5.57-4.74,5.2-3.82-.4-4.52-3.26-4.47-6.55C662.36,822,662.31,817,662.31,813Z"/><path d="M600.31,788.73c15.1,9.25,29.62,0,43.5,4.2-6.92,4.59-15.26,3.52-22.81,5.41-2.2.55-4.63.1-6.93.32-12.85,1.21-13.65,2.2-12.74,15.52.42,6.26,2.22,12.17,8.8,14,6.29,1.76,10.39-2.93,14-7.27,1.31-1.56,1.18-5.38,4.49-3.21,3,1.95,1.49,4.15-.38,6.62-3.94,5.23-7,11.32-14.35,12.5-9.72,1.55-18.2-5.06-19.53-17.51a158,158,0,0,0-6.63-30.64c-.91-2.9-.74-5.1,3.26-5.47,13.77-1.28,27.52-2.77,41.27-4.18,1.9-.19,4.48-1.19,5.05,1.36.71,3.14-2.13,3.51-4.44,3.84C622.58,785.66,612.25,787.08,600.31,788.73Z"/><path d="M547.79,775.14h18.39c3.54,0,6.9.3,6.58,5.16s-3.33,3.81-6.43,3.08c-5.16-1.22-5.2,1.92-5,5.76q.84,16.86,1.17,33.74c0,2.07-.51,3.91,1.86,5,2,.91,5.17,1.52,3.24,4.68-1.53,2.5-4,4.65-7.31,4.45s-4.21-3.06-4.46-5.71c-1-10.9-1.73-21.83-2.77-32.73-1.63-17.08-8.77-21.13-24.46-14.07-1.76.8-3.7,2.34-5.34,2.08-5-.78-13.62,1.61-14.11-3.12-.71-6.8,7.78-4.86,12.46-5.59C530.41,776.47,539.35,776,547.79,775.14Z"/><path d="M764.72,771.55c4.65-.1,8.29-1.15,9.6,2.4,1.57,4.28-2.52,4.74-5.14,5.54a9.35,9.35,0,0,0-6.88,8.85c-.7,11.43-2.25,23,2.85,34,1.57,3.39,3.43,9-.83,10.35s-7-2.67-7.68-7.87c-1.6-12.09-5.44-23.9-5.29-36.19.07-5.47-2.13-6.29-6.6-5.33-4.21.9-8.44,1.73-12.68,2.46-2.63.45-4.69-.48-5.05-3.36-.32-2.51,1.64-3.25,3.61-3.9C742.28,774.69,754.35,773,764.72,771.55Z"/><path d="M457.74,798.6c-.81-3.94,1.05-8.49,3.54-12.93,1.79-3.21,3.6-5.77,7.59-2.51a4.78,4.78,0,0,0,5.59.73c6.54-3.8,12.81-4.39,17.1,2.84,5.92,10,12.36,20.47,4.75,32.23-4.83,7.46-11.65,13.36-21.51,10.57-9.57-2.71-14.32-10.09-15.69-19.72C458.64,806.52,458.3,803.21,457.74,798.6Zm34.79,7.7c-.74-13.79-5.12-19-15.51-18.44-8.7.46-11.19,5.12-10.47,19.61.45,9.27,6.38,15.12,15,14.77C487.74,822,493,814.41,492.53,806.3Z"/><path d="M808.73,804.24c-2.25,7.17.19,16.52-3.91,24.84-1.26,2.54-1.91,6.26-6.09,5-4.53-1.4-3.69-5.16-2.6-8.26,2.73-7.82,5.85-15.41,5.52-24a43.39,43.39,0,0,0-3-15.46c-1.11-2.68-.54-5.43,2.77-6.37,3.54-1,4.65,1.08,5,4.22C807.06,790.39,809.69,796.37,808.73,804.24Z"/><path d="M946.93,852.08c-1.41,9.86-3.77,18-9.43,24.92-1.57,1.9-3.47,3.45-5.89,1.52-2-1.56-1.17-3.57-.09-5.35,3.89-6.34,5.79-13.32,6.92-20.59.44-2.81,2-5.35,5.06-5.24C947.22,847.47,946.84,850.68,946.93,852.08Z"/></svg>