<svg xmlns="http://www.w3.org/2000/svg" width="1229.19" height="2501.38" viewBox="0 0 1229.19 2501.38"><title>c23-txt</title><path d="M711.76,627.42A37.09,37.09,0,0,1,711,633c-1.43,5.57-.37,7.86,6.28,8.64,14,1.63,16.62,9.68,7.92,21.17-8.53,11.26-27.5,15.81-40.66,9.72-.63-.29-1.26-1.14-1.76-1-16.92,3.19-12.9-9.42-13.86-18.28a117.77,117.77,0,0,0-5.74-26.55c-1.51-4.28-2.36-8.4.51-12,3.71-4.64,6.72-.53,9.8,1.49,2.39,1.56,4.73.11,7.12-.21,6.25-.86,12.58-1.23,18.78-2.31C709.28,611.9,711.84,617.34,711.76,627.42Zm-31,17c8-.8,14.74-4.27,18.91-11.43,1.88-3.23,2.5-7.34-3.29-7.3a31.7,31.7,0,0,0-18.72,6.13c-3,2.16-4,5.76-2.7,9.53C675.84,644,677.57,645.41,680.72,644.37Zm10.75,20.87c7.91.74,14.4-2.23,20.13-7.39,1.49-1.33,4.09-2,2.93-4.7-1-2.41-3.46-1.57-5.46-2-7.58-1.47-13.48,2.22-19.6,5.66-2.54,1.42-7.4.65-6.66,5C683.6,666.57,688.18,665.15,691.47,665.24Z"/><path d="M275.25,651.28c-1.83,5.58-.06,17.57-7,17.54-7.18,0-4.29-11.4-5-18-.59-5.58-.71-11.2-1.33-16.78-.65-5.81.95-10.53,6.11-13.53s7.83,1.72,10.88,4.07c6.24,4.83,10.2,15.53,18,14.46,6.67-.9,9.79-11.09,14.79-16.91,10.05-11.7,13.86-11.23,18.3,3.69,3.67,12.37,5.78,25.22,8.25,37.92.76,3.93-1.16,7.18-5.6,7.29-3.88.09-5.54-2.58-5.42-6.31.29-9.62-2.19-18.76-4.71-27.91-.67-2.43-1-5.14-3.86-5.77-3.38-.76-4,2.48-4.89,4.5-3,6.44-7.26,12-11.4,17.6-3.24,4.44-6.41,5-10.25.78a65.84,65.84,0,0,0-7.51-7.43c-2.31-1.87-3.71-6.15-7.48-4.78C273.05,643.19,275,647,275.25,651.28Z"/><path d="M576.62,641.29c.14,16.24-11.94,30.69-26,32.21-11.73,1.26-27.38-13-30.24-27.9-1.05-5.46-2.08-11.13-1.71-16.61.63-9.38,6-15.55,15.4-17.59,2.84-.61,7.12-2.76,7.37,2.27.17,3.45,3.25,8.28-3,10.77-9.76,3.9-12.1,10.72-8,21.13.89,2.24,2.3,4.28,3.24,6.51,1.24,2.95,3.36,4.49,6.51,4.3s3.93-2.63,4.55-5.07a43.91,43.91,0,0,1,9.33-17.53c4.37-5.22,9.35-8.75,16.47-5.86C577.25,630.65,576.37,636.77,576.62,641.29Zm-8.88,7.18c-.39-3.61-2.14-6.6-5.2-5.47-5.65,2.1-7.7,7.65-8.94,13.1a3.21,3.21,0,0,0,3.87,3.75C563.87,658.69,565.61,653.15,567.74,648.47Z"/><path d="M959.47,656.91c-6.08-2.34-13.51,1.39-20.72-1.27-6.06-2.24-7.59,2.75-9.81,6.83-1.57,2.87-2.84,7.42-7.32,6.18-3.59-1-3.3-5.22-3.51-8.19-1-13.86-6.89-26.45-9.81-39.79-.76-3.48-1.19-7.21,2.6-9.38,2.25-1.29,5.23-1.33,6.8.67,1.36,1.74,1.53,4.49,2,6.83.76,3.42,1.09,7,2.1,10.3,1.32,4.34,3.17,6.74,8.22,2.93,7.34-5.54,13.34-12.37,19.75-18.8,2-2.05,3.51-4.83,6.8-3.09,3.51,1.85,2.94,5.17,2.18,8.37-1.69,7.06-8.29,9.14-13.16,12.9-2.83,2.18-6.42,4-6,7.94.5,4.83,5.42,3.8,8.45,4.6a82.83,82.83,0,0,0,15.53,2.31c4.21.29,9.36-.85,8.93,5.57-.43,6.21-6,4.42-9.92,5.07A26.51,26.51,0,0,1,959.47,656.91Z"/><path d="M432.21,657.1c-.78-9.76-.48-19-4.61-27.52-2.25-4.63-1-8.44,2.83-11.09,4.4-3,8.14-1.55,12.15,2,7.58,6.77,15.39,13.46,23.9,18.94,8.18,5.27,11.08,3.13,11-6.57,0-4.55.18-9.08-1.13-13.62-1.52-5.24,1.45-8.41,6.43-8.56,5.54-.18,4.69,4.52,4,7.73-2.1,10.22,2,20.31.15,30.52-2.19,12-5.48,13.89-16.14,7.61-6.33-3.73-12.15-8.34-18.16-12.61-2.35-1.66-4.89-3.69-7.64-1.93-2.38,1.52-1.06,4.5-1.09,6.9-.07,5.57,1.17,11.19-1.38,16.65-1.52,3.23-2.29,7.26-7,6-3.69-1-4.13-4.36-3.84-7.75C431.93,661.36,432.08,658.9,432.21,657.1Z"/><path d="M828.32,636.23c.51-15.27,8.06-20.09,22.79-14.87,4.92,1.74,10.11,2.69,15.17,4,12,3.15,21.72,17.41,19.24,28.28S868,672.55,855.14,670.4C837.47,667.43,830.6,654.26,828.32,636.23Zm32.56,23.61c4.82-1.48,11.15-2.12,13.48-8.86,2-5.84-.87-10.29-5.06-13.87-7.51-6.4-17.44-1.87-25.84-5.28-2.39-1-3.64,3.37-3.83,6.37C839,648.25,849.78,659.76,860.88,659.84Z"/><path d="M752,643.65c-.27-7.66,3.55-13.51,7.78-19.3,1.91-2.61,4.32-3.87,7.24-3.29,11.9,2.35,24.16,3.56,34.55,10.91,7,4.95,9.15,15.1,4.29,22.25-9.6,14.14-29.25,19.08-43.66,10.22C754.9,659.92,752.8,651.84,752,643.65Zm29.38,14.67c6,0,16.75-7.72,16.67-12-.09-4.95-13.86-14.59-21.43-14.23-6.78.32-13.6,1.45-13.69,10.86C762.87,652.74,769.28,658.21,781.42,658.32Z"/><path d="M208,621.38c2.53,0,3.27,1.65,4.16,3.14,2.69,4.52,5.2,9.15,8.09,13.54s4.91,10.78,12.72,7.24c2-.9,5.37,2.06,4.82,2.53-7.88,6.81-.05,15.58-3.16,22.79C233,674.29,231,676,227.81,672c-1.29-1.62-2.64-3.21-4.07-4.71-2.79-3-.77-11.49-8.9-8.19-7,2.83-16.85,2.24-17.21,13.71-.09,2.73-1.14,5.5-2.08,8.13-1.19,3.36-2.79,7.36-7.24,5.65-4.21-1.62-2.89-5.92-2.27-9.29,2.93-16,11.3-30.38,13.35-46.66C200,625.81,203.35,622.49,208,621.38Zm2.2,21.74c-3.33.13-5.28,1.72-5.4,5s2,4.13,4.72,3.78,6.19-.71,6.36-4S212.78,643.85,210.19,643.12Z"/><path d="M1028.79,671.75c-12.93,2.33-22.4-4-32.15-9.56-1.58-.89-3.4-1.52-2.3-3.8a3.25,3.25,0,0,1,4.41-1.68c2,.75,3.76,2,5.77,2.6,4.29,1.23,9.93,3.66,12.49-.75,2.39-4.12-3.7-5.63-6.21-8.21-7.22-7.43-11.15-16.35-9.83-26.71.84-6.64,6.45-9.64,12.19-12a12.11,12.11,0,0,1,11.14.81c2.41,1.41,5,3.19,3.92,6.67-.93,3.07-3.59,2.64-6.09,2.78-11.43.61-14.4,6.48-7.69,15.93,5.76,8.1,13.06,14.61,22.41,18.57,3.74,1.58,8.36,2.5,6.62,8.69s-5.76,7.43-11.26,6.84C1030.81,671.81,1029.4,671.79,1028.79,671.75Z"/><path d="M362.91,644.41c.67-16.16,8.8-24.45,23.48-23.95,13.78.46,21.66,11.56,20.89,29.43-.53,12.39-14.9,26.65-25.94,26.25C368.51,675.67,363.85,664,362.91,644.41Zm37.45.79c.06-7.27-6.07-14-12.71-13.92-9.32.09-15.68,6.44-15.8,15.8-.1,8.33,6.33,19.54,11.08,19.31C390.32,666,400.28,653.92,400.36,645.2Z"/><path d="M807.53,1085.1c-3.87,1.09-6.26-1.53-8.93-3.91-6.48-5.83-13-11.6-19.73-17.19-4.81-4-8.59-5.54-8.92,3.52-.16,4.47-1.58,11.57-6.2,11.17-5.1-.45-5.25-7.45-5.29-12.4-.09-10.73-2.24-20.86-7.45-30.38-2.2-4-4.36-9,1.36-11.89,6.58-3.35,6.17,2.58,7.57,6.32,1.62,4.33,4.52,4,7.14.87,6-7.14,14.85-8.81,22.79-12.09,7.12-3,16.31,7.58,14.31,16.57-1.27,5.76-2.91,11.76-7.81,15.71-5.21,4.19-5.65,7-.47,12.44,8.66,9.14,16.84,15.14,29,6.45,1.13-.81,2.61-1.58,3.67,0a3.48,3.48,0,0,1-.49,4.8C821.91,1079.63,816.16,1085.12,807.53,1085.1Zm-29.17-37.34c7.68.17,17.58-8.14,18-13.86.27-3.88-2-5.83-5.69-6-6-.25-20,9.82-19.32,14.1C772.08,1046.64,776,1047.5,778.36,1047.76Z"/><path d="M282.6,1079.47c-2.71,4.87,3.79,14.61-4.27,15s-4-9.27-5.1-14.53c-3.24-15.41-2.85-31.4-7.47-46.61-1.12-3.68-2.47-8.16,1.69-10.45s5,2.21,6.58,4.73c2.73,4.26,5.6,1.15,8.08-.22,9.71-5.35,19.56-6.81,30.34-3.18,12.41,4.18,17.52,21.37,8,30.42-9.24,8.79-19.34,16.92-33.72,11.74-4.55-1.64-5.79.32-5.13,4.58C282,1073.71,282.26,1076.5,282.6,1079.47Zm8.86-19.42c8.81.13,21.7-8.89,24.51-16.66,1.78-4.94-.27-7.93-4.82-10-7.69-3.41-21.49.34-27.91,7-4.41,4.59-2.49,8.88-.88,13.51S287.47,1060.36,291.46,1060.05Z"/><path d="M406.63,1024.07c-.27-2.34,2.41-5.16,6.21-6.63,4.44-1.71,7.47.89,9.39,4.64,6.58,12.8,17.06,21.2,29.91,27.05,2.48,1.12,4.83,3.78,7.6,1.32s1.31-5.31-.2-7.69c-4.94-7.82-2.8-18.14-9.27-25.52-1.73-2-.59-4.89,2-6.19,3-1.49,5.89-.62,7,2.45,4.52,12.49,11.32,24.26,12.74,37.73.83,7.88-5.27,13.39-12.32,10.9-10.14-3.59-21.05-6.13-29.2-13.61-5.66-5.2-7-2.66-7.52,2.9-.59,6.12.32,15.69-6.29,15.65-7.3,0-5.45-9.63-6.17-15.69C409.53,1043,408.16,1034.69,406.63,1024.07Z"/><path d="M999.79,1083.73c-7.55-.14-18.31-9.67-21.23-19.45-2.31-7.74-4.18-15.63-5.8-23.54-1.39-6.8.42-8.78,8.56-11.16,15.48-4.53,28.84.5,42.79,3.5,19,4.1,23.53,16.35,11.85,31.41C1030.25,1071.84,1011.17,1084.33,999.79,1083.73Zm8.35-44.72H1006c-18.29-.3-21.79,3.93-17.65,21.27a9.33,9.33,0,0,1,.26,3.11c-.42,3.88-3.68,8.35,2.13,10.93,4.31,1.92,9.21,2.91,13.29.7,8.29-4.51,16.89-8.81,23.6-15.65,7.58-7.74,5.9-13.59-4.18-18C1018.45,1039.22,1013.51,1038.18,1008.14,1039Z"/><path d="M958,1046.79c-1.25,2.94-2.47,3.41-4,3.24-9.84-1.1-8.18,3.52-4.57,9.14,1.72,2.66,3.39,5.36,5.07,8,3,4.79.88,8.44-3.38,10.37-4.68,2.12-7.16-1.26-8.32-5.34a32.24,32.24,0,0,0-5.45-11.28c-5.22-6.79-14.14-6.41-19,.92-3.32,5-4.57,11.16-9.13,15.36-1.71,1.57-2.85,4.5-6,3.23-2.74-1.12-3.93-4.48-2.71-6.13,6.34-8.57.08-20.58,9.57-29.15,4.57-4.12,7.49-11.69,12-17.31,4.71-5.8,7-4.06,9.62,1.13.45.92.2,2.24.75,3.06,4.87,7.29,8.36,16.74,20.42,13C954.2,1044.68,956,1046.08,958,1046.79Z"/><path d="M873.68,1018.19c4.54,2.1,8.64-1.41,13.14-1.55,2.92-.1,6.12.2,6.49,3.78s-2.33,4.45-5.49,4.87c-12.11,1.62-24.17,3.64-36.29,5.13-4.39.53-8.12,2.26-8.3,6.46-.21,4.76,4.41,5.87,8.29,6.34,5.91.71,11.88,1,17.82,1.44,2.15.16,4.43.26,4.24,3.25-.15,2.33-2.13,2.36-3.88,2.58-5.22.67-10.44,1.32-15.64,2.07-2.48.36-5.22.94-5.5,4-.36,3.84,2.16,6.64,4.81,8.91,2.16,1.85,4.65,1.13,6.58-.89,2.17-2.28,4.62-5.74,7.69-2.48,2.79,3-1,5.91-2.5,8.27-6.48,10.46-14,11.14-21.67,1.2-7-9.1-10-20.36-10.65-31.61-.64-10.68,5.48-16.32,16-17.66C857.08,1021.2,865,1018,873.68,1018.19Z"/><path d="M375.57,1030.5c-2.76,7.68-8.93,8.56-14.28,10.62-7.56,2.92-11.9,14.28-7,20.42,5.16,6.46,8.42.21,11.8-2.68,2-1.73,3.15-6.22,6.12-4.52,3.7,2.12.44,5.52-.67,8.28-.26.66-.45,1.35-.77,2-3.56,6.9-9.38,10.76-17,10.15-7-.55-7.81-7.61-9.49-12.51-2.43-7-.52-15.13-7.25-21.34-3.38-3.12,3.72-5.73,4.05-9.75,1-12.11,7.45-18.39,20.07-18.42,8.38,0,16.43-3.74,25-2.7,3.23.4,5.91,1.39,5.43,4.9s-3.39,3.65-6.57,3.15c-10.64-1.68-19.42,6.66-30.1,5.81-2.23-.17-4.23,2.8-3.06,5.65,1.1,2.69,2.94,4.9,6.43,4.24Q367,1032.15,375.57,1030.5Z"/><path d="M186.93,1047.41c1.36-17.5,11.64-25.25,31.47-23.58,18.48,1.56,25.58,11.09,24.67,27.29-.89,16-16.92,28.66-33.68,27.15C196.19,1077.08,185.74,1062.73,186.93,1047.41Zm7.79,3.12c-.63,8.77,4,14.11,11.66,16.77,10,3.47,18.6,1,25.57-7.14,5.7-6.69,7.21-14,1.94-21.24-5-6.94-12.31-7.34-19.94-4.68-1.63.57-3.32,2-4.79,1.78C197.52,1034.26,195.48,1041.71,194.72,1050.53Z"/><path d="M595.74,1058.66c1.63-4.93.19-9.76-.23-14.64-1.72-19.91-5.77-23-25-18.88-3.76.81-7.55,1.53-11.29,2.41-3.14.73-6.56,2-7.79-2.44-1.16-4.16,1.3-6.89,5-8,16.56-5,33.75-5.46,50.82-6.65,3.93-.27,6.67,2.21,7.63,6,1.08,4.24-2.1,5.45-5.25,6.41-4.93,1.51-6.36,5.23-6,9.84.72,9.43,1.32,18.89,2.58,28.25.71,5.2,3.79,11.43-4.26,12.43-8.73,1.08-4.43-6.64-5.62-10.59A24.76,24.76,0,0,1,595.74,1058.66Z"/><path d="M629.57,1043.86c0-13.11,6.6-18.77,19.37-15.59,10.42,2.6,18.85,9.7,25.86,17.09,7.9,8.33,2.29,20.28-10.5,23.69C648.74,1073.21,628.09,1060.3,629.57,1043.86Zm27.8,17.46c2.26-4,8.88,1.63,10.31-4.22,1.12-4.6-1.35-8.84-4.87-12.07-2-1.89-4.5-3.38-6.43-5.38-3.12-3.26-6.51-6.13-10.84-2.82-4.17,3.18-6.06,7.76-4.06,13.09C644.11,1056.91,649.91,1059.7,657.37,1061.32Z"/><path d="M826.45,845.62c-.34-7.74-.62-15.48-1-23.21-.2-3.65-.58-7.94,4.31-7.93,4.31,0,7,3.66,7.07,7.91,0,12.59,0,25.2-.76,37.76-.51,9.11-3.83,10.61-12,6.1-8.51-4.67-18-7.31-25-15-3.82-4.19-8.9-2.49-10.1,3.55-1.29,6.48-5.42,11.41-7.93,17.19-1.16,2.66-2.56,5.5-5.81,5.38-3.6-.13-5.43-3-6.27-6.22-2.62-10.19-5.05-20.42-7.73-30.58-1.52-5.76-3.45-11.4-5.06-17.13-.68-2.43-1.08-5.18,1.91-6.36,3.53-1.4,5.24,1.23,6.39,3.88,3.92,9.13,5,19,7.37,28.56.64,2.6-.05,6.53,3.63,6.7s4.31-3.9,5.67-6.61a5.68,5.68,0,0,0,.28-1c4.82-18.16,8.47-19.48,22.36-6.23,4.83,4.61,12.43,5.48,15.36,12.39.68,1.59,3.09,1.61,4.71.45C827.09,852.8,826.74,849.13,826.45,845.62Z"/><path d="M1075.63,814.47c12.32,2.15,25.06,2.28,36.39,8.83,9.27,5.35,12.31,14.59,6,23.46-9.64,13.6-23.58,21.81-39.23,26.32-9.93,2.86-18.93-5.54-17.66-15.61,1.16-9.17-2.21-17.34-4.27-25.77-3.35-13.73.09-18.21,14.55-17.64C1072.84,814.12,1074.23,814.33,1075.63,814.47Zm8.12,11.76c-15.79-1-17.94,1.5-14.92,15.69,1.09,5.13,2.69,10.15,3.69,15.29,1.29,6.69,4.42,7.74,10.39,4.75,9.88-5,17.49-12.64,25.14-20.21,4-4,3.55-8.36-2.32-10.66C1098.23,828.16,1090.45,826.3,1083.75,826.23Z"/><path d="M642.07,840.07c7.67.25,15.61-2.94,23.85-4.51,2.59-.5,6.15-1.78,7.47,1.65,1.51,3.9-1.77,5.57-4.76,6.88-8.8,3.84-18.06,5.33-27.61,5.9-3.78.23-10-.15-9.22,5.9.63,5.08-2.08,12.09,4.34,15.08,5.36,2.49,10.32.81,13.37-4.84,1.84-3.4,4.19-8.13,8.54-4.77s-.25,6.47-2.31,9.61c-4.42,6.75-8.39,16.12-17.91,12.77-8.05-2.84-13.86-9.92-13.75-20.39.07-6.91-2.68-13.8-3.21-20.78-.85-11.18,4.46-17,15.53-19.87,7.79-2,16-2.4,23.35-6.24,2.1-1.1,4.63-2.07,6.89,0,1.78,1.63,1.81,3.69,1.18,5.82-.91,3.05-3.36,2.44-5.82,3-9.89,2.12-18.59,8.94-29.56,7.25-1.43-.23-2.51,2.29-2.22,4.21a3.71,3.71,0,0,0,3.56,3.29C636.22,840.23,638.69,840.07,642.07,840.07Z"/><path d="M247,874.45c6.09-7.52,1.24-18.12,7.12-26.53,2.18-3.13,1.67-8.11,2.49-12.22.59-2.91-.77-7,3.25-8.05,3.5-.87,7,.63,9.67,3.13a14.76,14.76,0,0,1,3,4.2c7,13.7,7,13.91,22.76,9.85,3.79-1,6.57-1,7.17,3s-2.58,4.4-5.67,4c-5.48-.73-10.39,1.21-12.3,6-2.1,5.27,2.55,8,6.68,10.3,4.45,2.46,5,6.32,3.84,10.88-.71,2.87-1.8,5.77-4.5,6.73-3.42,1.21-4.46-2.58-6.43-4.35-3.4-3-3.25-7.66-5-11.45-1.9-4.17-3.17-9.09-8.86-9.19s-7.41,4.37-9.1,8.77c-1.12,2.91-2.51,5.73-3.87,8.54-1.14,2.33-1,6.29-5,5.54C247.77,882.76,248.45,878.37,247,874.45Z"/><path d="M231.15,843.39c-.65,13.11-1.08,24-1.81,34.83-.23,3.44-.71,8.15-5.48,7.29-4.33-.79-5.19-4.89-4.61-9.29a191.82,191.82,0,0,0,1.85-21c.14-6.79-1.57-11.73-9.82-6.17-1.89,1.28-4.57,1.5-6.93,2-7.43,1.55-13,4.37-13.45,13.45-.18,3.49-.43,9.8-6.3,9.07-4.57-.57-3.91-5.5-4.33-9.46-1-9.64-2.78-19.22-4.42-28.79-.48-2.82-1.53-6.09,1.36-7.57,3.56-1.82,7,1.26,7.36,3.93,1.43,10.67,8.87,10.3,16.41,9.8,7.37-.49,13.55-2.45,15.83-11.1,1.42-5.38,5.36-4.85,8.56-.87C229.14,834.2,232.71,839,231.15,843.39Z"/><path d="M551.93,863.32c1-10.89-4.26-20-2.77-30,.43-2.83-2.06-6.91,2.87-7.46,3.58-.41,4.74,2.9,4.73,5.78-.06,8.71,4.53,9.74,11.75,8.14a59.3,59.3,0,0,1,13.65-1c7.13.14,11.55-1.36,10.39-10.16-.72-5.45,2.94-5.79,6.69-2.9a16.14,16.14,0,0,1,6.39,16.77c-2,10.76-4,21.39,1.1,32,1.39,2.92,1.55,7.81-3.38,8.3-4.14.41-7.43-2.35-7.73-6.92-.51-7.66-1.06-15.36-.85-23,.18-6.36-1.68-8.35-8.06-6.53A89.68,89.68,0,0,1,568.14,850c-9.2.59-10.37,5.28-8.13,12.75a43.27,43.27,0,0,1,2,9.18c.22,3.08.16,7.12-4,7.41-3.86.26-5-3.51-5.53-6.61A77.06,77.06,0,0,1,551.93,863.32Z"/><path d="M875.77,819.73c15.25.3,31,13.26,33.93,28,2.06,10.22-4.67,21.82-14.63,25.19-8.07,2.73-18.7-2.47-23.54-11.23-5.86-10.6-6.9-21.94-5.82-33.7C866.28,821.74,870.13,819.65,875.77,819.73Zm.14,23.16c0,11.19,6,20,13.72,19.94,7.34,0,10.88-5.18,11.36-11.41.67-8.57-7.29-16.19-15.24-16.64C879.2,834.41,874.17,835,875.91,842.89Z"/><path d="M502,866c-6.68-.8-10.31-4.79-13.82-8.53-11-11.74-7.81-26.84,6.8-33.32,2.89-1.28,6-2.15,8.9-3.32,3.52-1.39,7.79-4.38,9.62,1.23,1.41,4.32-2.83,5.74-6.29,6.81a40.62,40.62,0,0,0-5,1.61c-5,2.26-11.55,3.23-11.58,10.51,0,6.92,4.29,11.7,9.68,15.4,2.88,2,6.25,3.22,9.17,5.14,7.47,4.93,7.15,14.78-1,18.25-14.53,6.21-28.87,4-42.81-2.53-3.93-1.83-3.4-5.21-2.19-8.12,2.05-4.91,5-10,10.43-10.93,3.07-.53,3.26,3.07,1.25,5.32-2.42,2.71-7.77,4.8-4.37,9.11a13.31,13.31,0,0,0,13.45,4.26C490.4,875.18,497.36,873.92,502,866Z"/><path d="M120.52,818.1c11.45-.06,22.86,3.92,34.39-.47,4-1.51,6.54,2,7.34,5.78.74,3.43-.44,6.47-4.31,7.1-3.16.52-5.95,1.64-5.58,5,1.27,11.73-3.79,24.56,5.82,34.89,3.63,3.9,1,7-1.17,10.29-1.63,2.46-3.66,4.92-6.77,3.78-3.81-1.39-4.43-5-4.37-8.77a136,136,0,0,0-4.82-37.53c-1.27-4.74-2.63-8.16-9.16-7.42-5.42.61-11.21-.76-16.65-2-2.88-.68-7.85.15-7.36-5.46.47-5.44,4.18-5.71,8.42-5.21A34.94,34.94,0,0,0,120.52,818.1Z"/><path d="M977.37,846.68c1.36,9.48-4.22,16.43-9.4,22.72-5.76,7-19,4.21-24-4.57-6-10.4-9-22-11.83-33.57-1-3.81-1.72-9.14,4.23-10.23,5.35-1,6.11,3.72,7,7.4,1.57,6.48,2.65,13.07,4.23,19.55,1.45,6,1.76,14.34,10.63,12.62,7.84-1.52,9.68-9.42,10.21-16.46A22.44,22.44,0,0,0,964,829.42c-2.52-3.61-5-9.09,1.38-11.44,5.5-2,7.09,3.24,8.28,7.17C975.74,832.19,977.83,839.29,977.37,846.68Z"/><path d="M347.55,862c0-4.91-.08-9.82,0-14.73.19-9.88-4.95-11.75-13.58-9.84-6.6,1.47-16.67,6.87-18-4-1.21-9.93,9.62-5.7,15.41-6.64,6.19-1,12.49-.71,18.44-3.62a11.18,11.18,0,0,1,12.79,2.12c3.58,3.5-2.62,4.93-2.77,7.68-.65,12.13-7.54,24.55,1.53,36.28,1.9,2.46,1.55,5.43,1,8.13-.87,3.91-1,9.56-6.41,9.18-4.85-.34-7.67-4.57-7.73-9.82-.06-4.92,0-9.84,0-14.75Z"/><path d="M1019.17,870.19c-3.92-.7-8.5-.72-10.38-5.53-5.35-13.72-8.58-28-11.3-42.47-.7-3.75.59-6.89,4.91-8.08,4.78-1.31,5.13,2.65,6.38,5.25,2.68,5.56,2.69,11.63,2.61,17.62-.09,7.07,2,14.32,7.58,17.45s10.64-3.72,16-6.09c1.45-.64,2.07-3.08,3.52-3.79,3.12-1.54,6.26-6.52,10-2.34,4.12,4.64-.35,7.22-3.71,10-5.41,4.45-10.49,9.28-15.71,13.95A16.7,16.7,0,0,1,1019.17,870.19Z"/><path d="M869.16,436.49c-.66,4.92-1.23,10.26-5.73,13.1-11.3,7.11-23.18,13.45-36.68,14.76-6.83.66-11.22,1.06-8,9.59,1.39,3.71,1.3,8.37-3.88,9.22-4.88.79-5.08-3.91-6-7.15a263.82,263.82,0,0,1-8.33-40.25c-.62-4.85-1.07-9.69-4-14-1.57-2.3-1.6-5.64,1.41-7.4,2.42-1.41,4.95-.53,6.47,1.76,3.38,5.07,6.78,3.24,11.68,1.74,18-5.52,34.74-2,49.28,10.35C867.75,430.27,869.55,432.91,869.16,436.49Zm-34.49-10.37c-3.87.25-8.07-.38-11.53.94-6,2.3-13.52,4.66-11.32,13.61,1.49,6.07-1.27,16.52,9.69,15.41,11.14-1.12,22.13-4.62,31.36-11.59,3.23-2.43,7.69-4.79,7-9.81-.84-5.83-6.45-5.68-10.59-7.16A29.3,29.3,0,0,0,834.67,426.12Z"/><path d="M367.19,449.54c-1.05,10.68,7.24,16.14,12.8,23.14,3.32,4.18,4.95.41,6.13-1.55A67.52,67.52,0,0,0,392,458.88a21.28,21.28,0,0,1,7.2-10.15c4.25-3.24,8-9.35,14.42-5.25,7,4.47,7.34,11.29,4.62,18.63-4.26,11.5-20.87,23.65-30.59,22.23-14.45-2.13-24.27-13.73-26.81-29.23-2.14-13-.56-24.06,8.84-34,5.18-5.49,10.37-5.72,15.86-2.43,7.56,4.53,12.59,16.85,9.55,21.78a5.18,5.18,0,0,1-3.24,2.1c-1.8.27-3.88-.57-3.86-2.63.08-6.87-2.27-11.15-9.91-9.81-7.82,1.37-9.09,7.9-10.41,14.19A43.57,43.57,0,0,0,367.19,449.54Zm32.24,22c3.28-1.65,6.73-3.58,7.93-7.47.65-2.1-.66-4.67-3.22-4.13a9.43,9.43,0,0,0-7.49,7.72A3.07,3.07,0,0,0,399.43,471.57Z"/><path d="M447.05,453.22c.51-6.84.15-13.31-5.09-18.73-3.46-3.56-4-8,.9-10.6s6,2.07,7.09,5.24c2.75,7.82,5.3,5.86,8.49.25,3.36-5.92,8.42-10.48,13.9-14.29,7.86-5.45,12.53-2.95,12.63,6.73.07,6.34-.58,12.9-4.18,18.32-4.1,6.19-1.78,8.49,4.37,10.4,4.78,1.48,9.42,2.75,14.45,2.47,4.25-.24,6.84,1.54,6.38,6.19s-3.67,5.59-7.55,5.35c-11-.69-21.17-4.94-31.46-8.36-5.62-1.87-8.23-1.37-9.92,4.87-1,3.75-.09,11.3-6.26,10.08-5.39-1.05-3.94-8-4.24-12.66A32.37,32.37,0,0,1,447.05,453.22Zm23.21-26.17c-1.77,2.35-4.68,5.32-6.4,8.87-.95,2,1.19,4.24,3.72,3.39a11,11,0,0,0,7.65-9.16C475.49,428.41,473.94,427,470.26,427.05Z"/><path d="M669.63,458.48c-.33,7-2.84,8.26-8.83,5.24-13.44-6.78-27.49-12.32-38.46-23.3-3.69-3.69-7.58-2.86-9.76,2.65C610,449.6,607,456,604.31,462.45c-1,2.32-1.78,5.28-4.6,5.07-2.53-.19-4.17-2.73-4.39-5.34-1.14-12.93-2-25.88-5.56-38.49-.82-2.92.75-5.51,4.25-6.16s4,2.18,5,4.29c2.1,4.33,1.13,9,1.44,13.54.14,2-.3,4.6,2.47,5.12,2.57.47,3.29-1.65,4.31-3.63,8.5-16.46,8.85-16.71,20.76-3.48,6.63,7.35,15.62,10.65,23.36,16.05,1.83,1.28,4,1.69,5.84.06,2.15-1.93,1.71-4.61.88-6.92a53.59,53.59,0,0,1-2.6-23.92c.22-2.18.94-4.23,3.66-4.31a3,3,0,0,1,3.33,3.22C661.67,431.93,667.54,445.14,669.63,458.48Z"/><path d="M541.67,463.55c5.67-3.39,8.71-13.64,13.06-9.9,6.6,5.67-4.2,9.16-6.62,13.86-3.62,7-10.94,6.2-14.94-.87a57.18,57.18,0,0,1-6.59-19.94,90,90,0,0,0-2.3-12.36c-4.46-15.14-4.57-15.15,11.2-19.59,8.43-2.37,16.57-5.78,25.53-6.18,4-.17,7.69.43,8.24,4.52.74,5.38-4.13,3-6.75,3.73-7.08,1.86-14.16,3.7-21.22,5.64-2.32.64-5.34,1.08-4.74,4.47.57,3.21,3,4.74,6.26,4.13,5.85-1.08,11.65-2.49,17.52-3.47,2.52-.43,6.16-2.15,7.08,1.91s-2.61,4.06-5.43,4.63c-5.84,1.17-11.58,3.34-17.46,3.73-9,.6-11,4.77-8.13,12.51C538,454.63,539.76,458.81,541.67,463.55Z"/><path d="M772.39,430.07c-.86,9.76-1.91,18.58-8.54,26.09-10.23,11.6-19.5,11.46-27.65-2-5.58-9.19-5.52-20.24-8.06-30.44-.44-1.75.07-4,2.25-3.93a8.35,8.35,0,0,1,5.47,2.44c3.14,3.7,3.23,8.63,3.23,13.09,0,7.66,2.4,14.07,8.68,18.22,3.5,2.32,6.71-.88,9.09-3.39,6.09-6.43,9.94-13.71,7-22.95a6.48,6.48,0,0,0-1.31-2.84c-4.11-3.79-7-8-5-13.89a3.26,3.26,0,0,1,4.21-2.16c7.36,1.75,7.45,8.63,9.5,13.95C772.24,424.84,772.1,427.83,772.39,430.07Z"/><path d="M663.36,2490c-15-.32-29-5-42.24-11.55-4.63-2.28-7.75-4.21-8.29,3-.23,3-.82,6-4.7,5.43s-4.91-3-4.52-6.94c1.12-11.21.92-22.4-1.71-33.46-.61-2.54-.2-5.59,2.67-6.1,4.59-.82,3.25,3.39,3.88,5.78s-1.51,6.52,2.33,7.19c3.08.54,4.16-2.93,5.53-5.49,4.79-9,29.14-15.92,38.12-11.06,6.7,3.63,4.76,15.87-4.07,20.51-5.81,3.06-11.28,7.41-18.29,7.94-2.59.19-5.1,1.05-5.19,4.16s2.57,4.35,4.81,5c13.15,3.65,25.17,13.28,40.14,7.64,2.43-.91,4,.72,4.27,3.22s-1,4.37-3.32,4.66A77.84,77.84,0,0,1,663.36,2490Zm-11.79-46c-.45-2.4-2.09-2.62-3.91-2.76-11.46-.87-28.57,9.38-33.39,20-.61,1.34-1.38,2.58,0,3.67,1.64,1.27,3.16.39,4.78-.43,8.32-4.19,16.63-8.42,25.09-12.29C648,2450.35,649.75,2447.11,651.57,2444Z"/><path d="M452.53,2480.81c-3.53-4.16,2.53-11.54-4.54-15.61-2.41-1.39-1.24-3.83.57-5.23,3.3-2.55,4.76-4.83.92-8.34a4.45,4.45,0,0,1,.19-6.65,6.66,6.66,0,0,1,4.89-1.34c3.4.47,2.92,3.2,2.7,5.75-.4,4.54,2,6.33,6.35,6.24,7-.14,14.08,0,21.11-.22,6.67-.25,13.49-.68,10.75-10.67-.34-1.24-.15-2.9,1.75-3.23a3.64,3.64,0,0,1,4.32,2.22c2.14,7.71,7.92,14.07,7.54,22.78-.3,6.83-1.93,13.87,2.44,20.5,1.53,2.31,1,6.9-3,7.76-3.72.81-5.31-2.13-6.21-5.63-1.85-7.19-3.29-14.46-2.71-21.83.42-5.27-1.7-7.5-6.41-7.14-9.09.69-18.18,1.62-27.21,2.9-5.7.81-8.3,3.88-7.26,10.38,1,6.07-.57,12.41,1.09,18.62.55,2,.95,5.86-2.57,5.69-3-.13-6.28-1.91-6.05-6C451.41,2488.33,452,2484.91,452.53,2480.81Z"/><path d="M912.26,2463.82c-1,10.9,4,21.57-.66,32.21-.85,1.94.77,5.69-3,5.33-3.12-.3-4.46-3.14-4.53-6.23s.09-6.34,0-9.51c-.13-9.77,2.35-19.49.2-29.34-.53-2.42-1.67-6,1.69-7.58,3.77-1.78,4.3,2.13,6.14,4,12.56,12.7,24.12,26.42,40,35.54,7,4,8.7,3.32,8.92-4.76.25-9.07-1.15-17.41-5.57-25.36-1.39-2.5-3.86-6.14,1.37-7.47,3.86-1,6.82-1.46,7.9,4.76,1.86,10.74,4.67,21.29,2.81,32.25-1.91,11.29-5.91,13.28-15.46,7.17C938.05,2485.84,922.82,2478.23,912.26,2463.82Z"/><path d="M325.56,2474.15c-.61-7.48-.65-15.19-2-22.66-1.73-9.47,2.53-16.37,12.51-16.75,11.93-.45,23.78-.74,35.38-4,2.64-.76,6.38-1.08,6.81,2.64.38,3.25-1.58,4.77-5.74,5.51-11.89,2.1-24.44,0-35.81,5.89-3.36,1.73-6.48,2.08-5.22,7.1s4.12,5.41,8.62,4.76c7.6-1.1,15.31-1.56,23-2.05,2.53-.17,6.39-2.2,7.25,1.65.91,4-3.38,3.54-5.82,4.18q-12.68,3.35-25.43,6.38c-4.31,1-7.55,2.71-5.28,7.79,1.84,4.08,3.21,7.92-.69,11.45a3.31,3.31,0,0,1-4.78-.34C325.43,2482.46,323.12,2478.91,325.56,2474.15Z"/><path d="M810.8,2482.8c1.27-4.35,2.67-8.68,3.78-13.07,3-11.71,8.19-13.8,16.21-4.79,5.87,6.59,14.35,8.7,20.2,14.82a5.37,5.37,0,0,0,4.76.92c1.89-.75,1.4-3.26.9-4.71-2.59-7.53-.49-15.46-2.22-23-.55-2.44.15-5.53,3-5.85,3.55-.38,3.48,3,3.28,5.3-.87,10,3.27,19.34,3.56,29.15.17,5.77-.12,9.37-8.29,6.29-12.1-4.57-23.26-10-32.56-20-4.12,5.57-5.88,11.8-7.14,18.36-.68,3.52-2.33,6.93-6.91,6.45-4.21-.45-5.37-3-5.7-7.24-.78-9.89-4.42-19.09-8.93-27.88-1.17-2.29-4.62-4.47-.33-6.76,3.91-2.09,6.67.69,7.22,3.72C803.43,2464.17,809.05,2472.69,810.8,2482.8Z"/><path d="M537.37,2457.62c8.67-6.06,17.35-2.89,25.37-5,1.88-.49,3.74-.44,4.27,1.67a3.12,3.12,0,0,1-3.53,4c-5.38-.79-10.42,1.07-15.63,1.28-7.37.29-8.9,4.37-7.29,10.67.61,2.38.87,5,2.08,7.05,2.23,3.79,2,10.5,7.07,10.77,4.19.21,7.71-4,8.83-9,.53-2.38,2.43-3.65,4.77-2.73,3.14,1.25,1,3.29.39,5.13-2.41,7-5.7,13.33-14.46,12.64-8.18-.63-11.85-6.28-13.29-13.82-1.37-7.2-3.24-14.33-4.25-21.57-1.82-12.95,4.35-20,17-19.19a64.08,64.08,0,0,0,26.78-4.43c3.29-1.23,5.53-1.43,6.72,2,1.48,4.22-1,5.65-4.84,5.94-9.36.7-18.71,1.93-28.07,2.09C541.79,2445.26,538.65,2448.73,537.37,2457.62Z"/><path d="M279.28,2443.77c6,1.64,8.25-8,15.8-4.31,10.7,5.19,18.44,22.52,13.25,33.23-4.71,9.7-17.79,15.47-29.74,13.11-10.37-2.05-16.14-9.73-17.52-23.31-.78-7.8,7-19.66,15.17-23.11,1.95-.83,4.24-2,5.49.44a2.81,2.81,0,0,1-2.2,3.95c-7.46,5.06-14.77,10.63-12.62,21.08,2,9.9,9.07,14.39,19,15,7,.42,17.44-8,18.18-15.18.84-8.22-6.48-16.19-15.49-16.44C284.72,2448.1,282.33,2445.39,279.28,2443.77Z"/><path d="M724.79,2468.19c1.16-8.8,6.54-16.79,14.11-23.5,1.87-1.67,3.9-1.79,5.26.6,1.27,2.22.66,4.4-1.87,5-7.18,1.68-8.69,7.71-10.41,13.37-2.7,8.86-2.09,16.53,7.78,21.19,6.38,3,20.76,1.54,25.49-3.48,9.06-9.6,5.39-23.65-7.65-29.3a39.93,39.93,0,0,1-6.58-3.07,4.45,4.45,0,0,1-1.36-3.63c.27-2.29,2.37-2.2,4.13-2.15,8.1.27,24.42,18.37,24,26.58-.65,12.23-15.24,23.62-29.62,23.11C733.49,2492.4,724.55,2483.49,724.79,2468.19Z"/><path d="M1229.19,1484.88c-16.39-.11-27.34-11.14-39.54-19.68-2.13-1.5-3.27-5.58-6.64-3.91-3.55,1.75-2.12,5.29-1.81,8.47.36,3.81-.06,7.7-.17,11.55-.07,2.86-.06,6.32-3.72,6.46-3.38.12-4.22-3.17-4.81-6-2.69-12.91-2.38-26.4-8.46-38.7-2.36-4.78,4-4.7,6.3-6.71,4-3.51,7-.73,9.36,2.83,8,12.21,17.54,22.79,30.91,29.34.93.46,1.62,1.71,2.53,1.83,4,.52,7.95,5.4,11.65,2,3.43-3.12,2-8.25-.12-11.87-5.21-8.69-1.53-20.43-10.24-28-2.69-2.35-.24-4.54,2.91-4.26,3.5.32,5.38,2.52,6.47,6,1.57,5,1.83,10.42,5.38,14.65Z"/><path d="M425.74,1427.14c11.63,6.1,23.5,4.58,35.08,4.48,4.91,0,12.83-4.37,13.83,1.29,1.28,7.25-7.91,4.56-12,5.2-10.67,1.65-21.46,4.11-32.5,1.89-5.52-1.11-8,1.48-6.55,7.27.67,2.72.7,5.6,1.34,8.34,2.74,11.72,7.38,13.12,16.48,5.09,2.6-2.29,4.74-7.87,8.95-2.62,3.25,4.05-1,6.09-3.69,8.24a46.6,46.6,0,0,0-3.84,3.6c-10.19,10.22-24,7-27.19-6.89-3-13-4.44-26.29-6.63-39.45-1.1-6.63,3-9.65,8.35-9.59,17.3.22,34.24-4.93,51.61-3.2,3,.3,7.15-1.09,7.12,3.72,0,4-4,3.17-6.6,3.47-9,1-18.09,1.87-27.13,2.81C436.66,1421.38,431.27,1422.73,425.74,1427.14Z"/><path d="M51.4,1443.78a8.48,8.48,0,0,1-3.09,10.12c-4.28,3.32-5.62,7.35-2.49,11.91s6.38,9.54,13.54,7.08a121.62,121.62,0,0,1,12.26-3.13c2-.46,4.28-1.31,5.44,1.36,1,2.36-.59,4-2,5.59-10.77,12.43-28.85,10.94-37.34-3.06-3.56-5.87-8.13-9.42-15.57-8-7.89,1.49-5.36,7.87-6.31,12.61-.64,3.19.86,7.81-4.73,7.64-5.17-.17-4.53-4.52-4.82-7.87-1-12.19-.86-24.52-5.65-36.17-1.22-3-1.08-6.86,2.82-7.93,4.65-1.28,3.39,3,4.1,5.39,1.85,6.16,5.2,6.28,8.76,1.58a27.86,27.86,0,0,1,19.38-11.39C48.36,1427.91,51.14,1430.57,51.4,1443.78Zm-21.22,8.88c5-.12,15.42-9,15-12.87-.3-2.87-2.48-4.54-5.24-3.51-6.82,2.53-14.91,4.59-17.09,12.29C21.44,1453.61,27.42,1452,30.18,1452.66Z"/><path d="M501,1472.14c-5.92.14-9-2.6-9.44-8.66-.84-12.56,2.1-25.26-1.78-37.73-.87-2.82,1.13-6.85,4.26-5.65,10.91,4.2,21.48-4.43,32.6.35,8.64,3.72,17.78,7.31,20.06,16.52s-2.87,16.89-10.28,23.79c-10.49,9.77-24,13-35.9,19.46-2,1.08-4.79.82-7.22.83s-5.55.58-5.65-3,2.82-3.49,5.35-3.09c3.27.51,6.44,1.08,7.58-3.25,14.08-4.14,24.57-13.47,33.6-24.35,5.32-6.42,2-14-6-15.82-3.07-.7-6.36-.57-9.34-1.47-8.88-2.71-12.74,2.11-13.93,9.63C503.21,1450.47,502.29,1461.33,501,1472.14Z"/><path d="M895,1451.14c5.38-17.7,20-20.56,34.36-22.26,5.09-.61,13.11-2.69,15.8,4.69,2.51,6.89,2.66,14.17-2.29,21-8.34,11.45-19.47,18.16-33.24,19.64-7.12.76-9.3,3.57-8.23,10.06.75,4.61-.07,9.09-.92,13.61-.43,2.3-.8,4.25-3.69,3.76-2.32-.4-3.56-1.89-3.81-4.33-1.15-10.86.72-22.33-6.57-32a3.1,3.1,0,0,1,.19-2.92c6.37-7.57,1.18-14.75-.78-21.94-1.09-4-2.31-8.54,2.71-9.58,5.3-1.11,5.49,4,5.86,7.77C894.8,1442.8,894.82,1447,895,1451.14Zm36.63-14.83c-18.17.08-27.88,8-29.89,23-.93,7,1.69,8.6,8.34,7.63,13.22-1.92,20.49-11.33,26.86-21.24C940.67,1439.87,936.35,1436.78,931.63,1436.31Z"/><path d="M985.75,1453.39c-7.32,1.68-16.57.43-18.46,11.64-.41,2.42-3.34,4.39-5,6.6-1.43,1.85-2.21,5.43-5.23,4s-4.24-4.76-3.28-8.2c4.39-15.71,10.82-30.24,23.34-41.45,5.25-4.7,11.79-3.88,14.17,3.43,2.72,8.31,6.13,14.15,16,13.13a3,3,0,0,1,3.57,3c-.06,2.64-2.22,2.23-3.89,2-7.13-.77-6.26,1.49-3,6.26A119.57,119.57,0,0,1,1014,1472.3c1.2,2.66,1.81,6.77-1.37,8.72-4,2.45-5.78-1.79-7.17-4.15-3-5.1-6-10.44-7.7-16.06C995.79,1454.43,992.15,1452.23,985.75,1453.39Z"/><path d="M92.25,1440c8,5.36,15.73,3.36,23.48,1.09,1.77-.52,3.92-1,4.67.77,1.16,2.76-1.42,3.43-3.4,4.12-4,1.39-7.91,3.64-12,3.93-10.21.73-11.45,5.8-6,12.69,3.78,4.81,3.84,18,16,9.34,1.14-.81,3,.09,3.39,1.54a5.63,5.63,0,0,1-.65,3.88c-2.55,4.24-6.31,6.23-11.41,6.17-7.21-.08-10.28-5.89-13.29-10.48-4.21-6.42-5-14.5-10.06-21-4.08-5.27,5.68-24.52,12.74-25.92,12.29-2.45,24.76-4,37.17-5.85,2.22-.34,4.47,0,5.14,2.47.62,2.3-.92,4.13-2.77,5.23-4.32,2.57-9.18,3.36-14.1,3.82C111.05,1432.71,101.62,1435.93,92.25,1440Z"/><path d="M1137.62,1486c-19.89-.07-29.56-16-22.4-37a15.13,15.13,0,0,1,2-3.71c3-4.28-.45-12.84,4.4-13.58,6.46-1,14.16,1.71,19.63,6,7,5.42,14.61,10.52,17.51,20C1163.26,1472.51,1153.43,1486,1137.62,1486Zm-1.72-9.7c10.33-.12,17.5-5.07,17.6-12.15.09-6.5-19.14-27-23.36-24.09-7.44,5.07-8.5,14.52-9.05,23.06C1120.51,1472.15,1125.76,1476.4,1135.9,1476.28Z"/><path d="M650.68,1477.06c-9.21,1-13.61-4.56-17.16-12.33-7.52-16.51-2.78-30.3,13.36-37,1.6-.66,3.37-1.46,5-1.38,3.11.16,21.38,21,21.88,24.61,1.38,9.92-4.8,20.07-14.71,24.58A15.15,15.15,0,0,1,650.68,1477.06Zm14.57-21.59c0-6.59-10.38-17-17.79-16.18-7.08.76-10,7.35-10.93,13.53-1.11,7,7.88,16,15.23,15.43C659.27,1467.62,665.12,1464.31,665.25,1455.47Z"/><path d="M298.76,1445.45c-.49,25.47-.2,25.66,21.35,15.21,4.12-2,8.13-4.2,12.23-6.23,2-1,4.25-1.58,5.34,1.06.92,2.26,1.64,5-.95,6.71-8.52,5.67-16.85,11.69-25.78,16.62-11.63,6.4-19.86,1.34-20.86-11.72-.7-9.08-2-18.1-2.95-27.16a60,60,0,0,1-.3-9.47c.23-3.78,3-5.59,6.34-6,3.88-.5,4.31,3,5.11,5.52C300,1435.51,299.23,1441.16,298.76,1445.45Z"/><path d="M239.49,1473.76c-15,1.11-22.62-6-22.74-21.25-.08-10.47,12.24-23.37,22-23,7.35.26,23.28,20.47,23.49,29.79.19,8.86-6.49,13.55-20.63,14.46C240.9,1473.79,240.19,1473.75,239.49,1473.76Zm2-6.94c5.14-1,11.5-2.56,12.25-10.45.42-4.53-10.3-16.22-14-15.39-6.52,1.47-13.24,3.56-13.46,12.12C226.12,1461.07,232.19,1466.87,241.52,1466.82Z"/><path d="M189,1468.31c-11.25-.28-18.73-7.64-26.7-13.59-9.05-6.75-9-21.22-.6-28.54,1.85-1.61,3.41-4,6.23-2.71,3.21,1.51,2.69,4.65,2.27,7.38-.78,5-7.56,9-3.83,14.4,5.07,7.29,12.53,12.15,20.79,15.57,1.3.54,2.59,1.1,3.88,1.67,2.87,1.28,6.23,2.23,6,6.31-.19,3.9-3.44,5.2-6.37,6.17a43.1,43.1,0,0,1-27.86-.61,148.36,148.36,0,0,1-17.12-7.69c-3.39-1.7-5.86-5.19-3.23-8.65,3.19-4.21,4.86.09,7.09,2.18C156.44,1466.62,174.15,1470.51,189,1468.31Z"/><path d="M370.67,1464.8c6.53-13.19,3.92-26.85,7.45-39.46,1.29-4.6,2.82-9.1,7.74-7.57,5.14,1.6,1.49,6.32,1,9.8-1.26,8.62-2.4,17.27-3.5,25.91-.44,3.46-.71,6.77-2.24,10.15-5.33,11.72-9.55,12.46-17.17,1.44-6.92-10-13.05-20.56-19.09-31.12-1.48-2.59-4.17-6.74,1.1-8.81,4.31-1.68,6.28,1.07,7.83,4.73C358.73,1441.58,366.79,1451.71,370.67,1464.8Z"/><path d="M1057.33,1422.52c3.12,1,7.31-.84,8.7,2.73,1.82,4.7-3.85,3.56-5.69,5.53a5.84,5.84,0,0,0-1.81,3.54c.49,13,1.13,25.93,3.63,38.7.19,1,1.13,1.8,1.51,2.77,1.46,3.79,1.59,7.59-.89,11-.9,1.24-2.5,1.07-3.78.2-3.38-2.29-5.39-5.19-5.56-9.56-.34-8.42-.81-16.87-1.83-25.23-2.07-17-9.21-21.58-25.84-17.41-4,1-7.88,3-12.32,1.66-2.41-.7-5.38-.79-5.5-3.84s2.49-4,5.1-4.28C1027.83,1426.6,1043.05,1428.82,1057.33,1422.52Z"/><path d="M703.38,1449.23c-.41,8.49,2.82,15.43,10.3,19.3,7.32,3.78,15.2,6.28,22.41-.93,1.48-1.48,3.75-3.2,5.53-1.51,2.69,2.55-.4,4.13-1.89,5.86-7.53,8.79-29.1,8.55-37.39-1.67-12.38-15.27-14.22-33.46,8.22-45.18,3.33-1.74,6.13-2,8.66.42a11.05,11.05,0,0,1,3.62,9.48c-.32,2.56-1.51,4.5-5.06,3C708.91,1434.36,703.53,1438.67,703.38,1449.23Z"/><path d="M865.65,1454.11c-.3,1.6-.47,5.24-1.69,8.48-3,7.91-8.3,14.77-16.69,16s-14.48-5.61-18.38-12c-5.19-8.53-8.51-18.18-12.7-27.32-1.37-3-1.35-5.58,2-7,4-1.71,4.56,1.48,5.53,4.18,2.25,6.3,5,12.44,6.9,18.83,2.46,8.26,7.81,13.5,16,15,6,1.09,8.34-4.54,10.37-8.92,3.67-7.93,3.24-15.75-2.37-22.83-.86-1.09-2.22-1.76-3.16-2.79-1.62-1.79-1.85-3.87-.13-5.66,2.46-2.56,4.36-1,6,1.17C862.15,1437.34,865.84,1444,865.65,1454.11Z"/><path d="M803.46,1461.42c-3.81,5.45-6.88,11.23-13,13.66-10.67,4.27-18,1.58-27.11-9.81-6.27-7.87-6.44-22.34-.3-30.6a33.5,33.5,0,0,1,4.13-4.76c2.45-2.25,5.39-6.48,8.53-3.47,2.38,2.28,2.37,8.22-.36,10.53-9.1,7.69-11,15.7-3.31,25.18,5.3,6.51,15.48,6.31,27.51-.13C800.68,1461.44,802.16,1461.61,803.46,1461.42Z"/><path d="M1099.93,1476.88c-.9,3.45-1.85,6.27-4.77,7.26-2.58.87-3.87-1.54-4.54-3.35a104.5,104.5,0,0,1-3.54-12c-2.2-9.36-1.06-19.54-7.49-27.89-1.78-2.32-1.28-5.63,2.23-6.83,3.14-1.09,5.22-.06,6.16,3.53,1.48,5.72,3.71,11.16,5,17C1094.64,1462.31,1091.24,1471.81,1099.93,1476.88Z"/><path d="M886.77,1237.08c4.91.12,6-4.19,8-7.26,7.42-11.12,18.78-12.51,30.53-11.74,3.59.23,9.63.46,9.56,6.18-.08,6.85.07,14.32-6.78,19a14.56,14.56,0,0,1-1.93.83c-15.34,7.54-15.3,7.48-.7,17.92,9.27,6.62,18.73,11.1,30,4.55,1.7-1,4-2.7,5.51-.14s-.54,4.87-2.66,6.06c-8.68,4.87-17.89,6.08-27.39,2.78a58.84,58.84,0,0,1-27.55-20.16c-5.81-7.55-7.67-4.4-9.52,2.41a48.44,48.44,0,0,0-1.81,10.3c-.2,4.22-2.28,7.84-7,7.62-5.2-.25-5.45-4.16-5.22-8.49.55-11-1.29-21.71-3.67-32.37-.82-3.7-3-7.62.94-10.66a5.69,5.69,0,0,1,4.91-.37c4.13,1.89,4.52,5.87,4.46,9.85C886.41,1234.6,885.08,1235.91,886.77,1237.08Zm21.28,2.06c1.57-.32,5.24-.48,8.35-1.88,3.38-1.52,8.06-4,5.92-8.45-2.37-4.94-6.37-2-9.81,0a59.73,59.73,0,0,1-7.7,3.4c-2.25,1-5.08,1.65-4,5C901.59,1239.87,904,1239.41,908.05,1239.14Z"/><path d="M702.62,1259.81c-.63-7-.7-14.07-2.11-20.89-.81-3.93-3.23-7.68,1.91-9.7,4.44-1.75,8.56-1.46,12,3.24A94.46,94.46,0,0,0,728.58,1248c5.67,4.88,11.15,6.53,15.85-2.63,4-7.7,9.76-14.55,15.4-21.22,4-4.8,7.88-6.34,11.35,1.84,6.06,14.27,5.45,30.39,13.23,44.12,1.71,3-.2,6.67-3.71,7.58-5.13,1.34-8-1.73-8.91-6.53-1.76-9.32-3.33-18.67-4.94-28-.48-2.77-.45-6.23-4.1-6.39-2.7-.12-3.81,2.81-4.92,5-1.6,3.13-3,6.35-4.52,9.52-7.6,15.85-18.89,17.29-31.15,4-1.8-2-2.7-6-6.11-4.6-3.83,1.54-2,5.52-1.8,8.48.55,6.59,2.71,13.31-1.14,19.5-1.34,2.16-2.5,5.64-6.18,4.67-3.11-.82-4.4-3.73-4.57-6.52-.35-5.61-.11-11.26-.11-16.89Z"/><path d="M1021.05,1216.46c4.56,1.76,14.16-4.56,14.6,3.56.53,9.87-9.28,2.28-14.23,3.94-8.49,2.83-17.81,3.06-26.72,4.74-3.75.71-6.85,3.39-5.8,7.46,1,3.67,4.52,3.38,8,3,7.68-.79,15.41-1.07,23.13-1.56,2.89-.19,6.28-.35,6.73,3.24.42,3.41-3.26,3.25-5.41,3.71-7.9,1.69-15.87,3.11-23.84,4.51-3.68.65-7.68,1.64-7.22,6.06.77,7.32,4.12,13,11.89,15.65,4.78,1.64,6.43-.47,8.05-4,1.28-2.79,2.31-7.1,6.31-5.39s.9,5.85.32,8.41c-1.45,6.38-6.4,11-12.67,10.8-8.31-.25-16.77-2-20-12-2.25-6.86.84-16.14-8.61-20a2.19,2.19,0,0,1-.39-1.9c8-6.72,4.68-16.08,6-24.4.49-3.21,3.57-3.75,6.65-3.9C998.62,1217.93,1009.51,1217.17,1021.05,1216.46Z"/><path d="M383.57,1245.43c0-1.41-.07-2.83,0-4.23.19-3.26-1.84-8,3.16-8.72,4.56-.63,3.83,4.2,4.46,7,1,4.31,3.71,4,7.18,4,10.59-.18,20.88-2.18,31.24-4.08,4.36-.8,7.8-1.65,10.08-6.22,3.43-6.83,7.3-4.65,11,.34,4.19,5.6,2.73,12.11,3.68,18.26,1,6.74-2.61,15.43,7.45,18.82,2.29.77,1.23,3,.12,4.39-2.17,2.64-3.65,6.27-7.92,6.27-2.37,0-3.69-1.06-4.64-3.4-2.84-7-2.86-14.39-3.57-21.72-1.19-12.2-4-13.58-15.75-10.49-10.11,2.67-19.29,8-29.94,9.24-6.52.72-7.9,5.66-4.48,10.94,2.8,4.33,3,8.49,1.41,13-.85,2.53-.57,6.36-4.28,6.34-4.38,0-5.8-4.15-6.28-7.43-1.58-10.71-2.54-21.51-3.74-32.28Z"/><path d="M217.44,1285.4c6.74-11.92,5.13-24.94,8-37,.76-3.24-.61-7.85,3.55-9.17,4.54-1.44,5.24,3.88,7.57,6.07,6.81,6.43,13.08,13.44,19.46,20.31,1.26,1.36,2.43,2.69,4.38,2.33,2.88-.52,2.66-3.16,2.59-5-.28-8,2.78-16.1-1.1-24-2-4-1-7.52,2.21-10.48a3.63,3.63,0,0,1,4.8-.52c3.64,2.53,2.2,5.78,1.83,9.4-1,9.39-1.16,18.87-1.28,28.32-.06,5-1.29,9.62-5.6,11.77-5.4,2.71-8.38-2.77-11.24-5.75-4.58-4.75-10.35-8.33-13.83-14.28-1.18-2-2.91-5.62-6.39-4.09-2.41,1.06-2.41,4.06-2.63,6.55-.5,5.6-.86,11.23-1.63,16.81a20.52,20.52,0,0,1-5.87,12.18c-4.51,4.37-8.35,5.6-12.36-1.42-6.09-10.66-5.78-23.07-10.59-34-1.41-3.2-2.54-6.54-4-9.7-1.05-2.24-2.9-4.52-.64-6.66,1.05-1,3.26-1.2,4.88-1.05,3.59.34,3.78,3,4.27,6.1,2.23,13.89,7,27.13,11.33,40.44C215.35,1283.45,216.28,1284.07,217.44,1285.4Z"/><path d="M608.42,1275.16c-6.16-.06-8.2-3.78-9.23-7.34-1.43-4.93-4.33-8.23-8.91-6.43-5.57,2.18-14.42-1.32-16.19,8.32a20.44,20.44,0,0,1-1.22,4c-1.84,4.54-3.44,10.75-10,7.74-5.76-2.66-1.41-7.65-.82-11.93,1.57-11.3,9.43-20.71,9.12-32.54-.1-3.87,1.1-8.62,4.67-10.06,4.48-1.81,7.63,2.42,10.42,5.48a40.49,40.49,0,0,1,5.59,7.64c3.32,6.05,7.42,10.38,15.09,8.48,2.28-.56,4.36-.34,5.37,1.94.85,1.91-.43,3.43-2,4.33-5.45,3.08-2.07,6.17-.25,9.46C612.55,1268.75,612.59,1272.74,608.42,1275.16Z"/><path d="M810.39,1249.73c.23-4.87.17-8,.57-11.18.64-4.93,3.33-8.57,8.14-10,7.91-2.41,23.83,6.92,28.5,16.45,4.5,9.2,1.95,23.2-5.24,28.73-10.85,8.34-27.66,2.27-30.3-11.08C811.12,1257.83,810.79,1252.92,810.39,1249.73Zm22.49,21.71c-.12-4,3.19-5.92,5.18-8.65,6.05-8.29,4-16.88-5.33-21.1-7.58-3.43-12.07-.34-12.42,8C819.89,1259.45,824.27,1266.27,832.88,1271.44Z"/><path d="M372.62,1232.75c-8.39.15-10.6,5.18-9.63,11,1.67,10.07-2.47,21,5.26,30.34,2.86,3.46-2.43,6.65-4.17,9.8a4.9,4.9,0,0,1-6.52,1.83c-3.33-1.73-1.62-5.12-1.5-7.64.54-11.28-1.21-22.39-2.11-33.56-.86-10.68-2.76-12.14-13.17-8.51a59.1,59.1,0,0,1-15.37,3.09c-3.08.22-7.41.24-8.1-3.25-.83-4.22,3.59-3.85,6.49-4.93,11.73-4.37,24.13-3.94,36.22-5.62C365.17,1224.61,368.79,1226.88,372.62,1232.75Z"/><path d="M311.08,1269.76c-1.17,3.64.19,8.06-3.69,8.83-4.43.88-6.1-3.12-6.4-6.65-1.12-13.53-1.61-27.13-8-39.61a3.59,3.59,0,0,1,1.28-4.69c2.25-1.33,4.13,0,5.14,2,1.41,2.8,2.95,5.68,3.56,8.71C305.16,1249.19,306,1260.33,311.08,1269.76Z"/><path d="M549,9.54c19.73-.15,25.68,8.92,18.29,24.38C561.54,46,554,56.76,542.63,64.75c-10.11,7.12-17.18-1.31-25.34-3.76-5.83-1.75-3.95-7.34-4.08-11.74-.23-7.48-1.74-14.78-5.66-21.14-3.51-5.69-.25-10,3.71-11C524.6,13.7,538.29,11.6,549,9.54Zm.71,9.53c-5.15,1.05-10.48,1.58-15.42,3.25-13.08,4.41-17.53,17.31-9.7,28.78,4.06,5.94,10.16,9.7,16.61,3.4,7-6.84,13.93-14.06,17.25-23.65C561.91,21,560.24,18.91,549.74,19.07Z"/><path d="M405.2,64.69c-.63,3.44-2.09,5.85-4.72,7.21-3.59,1.87-3.62-2.21-5.3-3.52a10.83,10.83,0,0,1-2.78-3.14c-9.45-17-9.27-16.42-26.58-11.27-7.43,2.21-6.61,8.36-8.91,12.93-1.76,3.49-2.48,6.67-7.31,4.62-4-1.71-4-3.91-3.07-8.21,3.52-15.73,13.83-29.05,15-45.75.47-6.37,6.45-8.83,12.37-3.06,3.79,3.69,6.23,8.43,9.46,12.42,8.29,10.26,11.53,23.29,19.61,33.54A22.87,22.87,0,0,1,405.2,64.69ZM377.75,39.34c.11-3.34-2.22-5.16-5-5.81-3.53-.82-5.12,1.91-5.7,4.83s1,4.71,4.05,4.91S376.8,43,377.75,39.34Z"/><path d="M432,40.76c.14-4.35,1.35-10-2.12-15.18-2.17-3.26-.26-6.82,2.25-8.31,3-1.76,6.88-4.37,10.52-.54,6.18,6.51,15.11,8.92,21.8,14.67,2.84,2.45,6.15,4.16,9.61,2.14s1.75-5.57,1.67-8.66c-.15-5.43-5-14.31,3.26-15,8.91-.72,4.65,8.51,5.15,13.85.42,4.54,1.62,9,2,13.55.94,10.45-3.68,14-13,9.78-7.29-3.3-14.32-7.17-21.47-10.78-2.39-1.21-4.53-4.23-7.5-2.35-3.28,2.07-1.81,5.75-1.75,8.76.08,3.5.88,7,.89,10.48,0,3.29-1,6.81-4.79,7.21-4.51.49-6-3.38-6.45-6.86C431.63,49.75,432,45.83,432,40.76Z"/><path d="M691.91,13.88c-2.32,21.78-7.44,42.44-6.62,63.75.13,3.52-1,7.79-5.64,7.16-3.7-.5-5.78-3.85-5.41-7.93.23-2.45.9-4.86,1.07-7.31.47-7,.77-13.55-6.21-18.57-8.54-6.15-11.32-17.54-20.61-23.65-3.52-2.32-4.12-8.71.11-12.16,4.59-3.75,6.61,1.07,8.83,4.11,4.73,6.51,9.44,13,14.21,19.49,1.26,1.71,2.76,3.4,5.19,2.88,3.09-.67,3.54-3.23,3.29-5.78-.76-7.5,1.11-14.68,2.25-22,.57-3.64.73-7.56,5.6-7.26C693.43,7,691.77,11.4,691.91,13.88Z"/><path d="M829.34,45.32c-.93-6.83-1.84-16.23-4.59-25.38-1.56-5.23-4-6.54-9.31-4.87s-11,2.31-16.49,3.29c-2.81.5-6.2,1-6.82-2.8s1.34-8,5.15-7.83c13.5.63,25.53-7.35,39.05-6.05,2.46.24,5.22-.55,6.16,2.5.89,2.87.6,5.54-3,6.75-4.75,1.6-3.31,5.26-2.88,8.77,1.14,9.37,2.37,18.76,2.89,28.18.22,4,2.31,10.59-4.89,10.52C828.05,58.33,829.2,52.43,829.34,45.32Z"/><path d="M739.48,48.91c5.26-1.66,7.86-2.31,9.25.59s-.25,5.29-2.44,7.39c-5.47,5.21-13,4.81-17.51-1.2-7.7-10.15-10.8-21.8-11-34.38-.06-3.7.08-7.39,4.55-8.36s4.5,2.63,5.88,5.58c4.37,9.3,12.88,4.08,19.55,4.46,4,.23,8.12-2.06,12.2-3.19,2.83-.79,5.87-1.54,6.75,2.45.73,3.29-1.12,5.44-4.24,6.27-7.8,2-15.6,4.15-23.47,5.86-3.76.82-9.64-1.4-7.88,6C732.45,45.92,735.52,49.92,739.48,48.91Z"/><path d="M739.51,13.91c-4.06-.79-9.26,1-9.77-4.53-.54-6,5.18-6.26,8.89-6.5,8.63-.55,17.42,1,25.78-2.57,1.92-.82,3.47,0,3.85,2.14.58,3.21-1.09,5.4-3.74,6.83C756.51,13.58,747.31,11.24,739.51,13.91Z"/><path d="M883.19,47.06c-.49,4.25-1.41,10.06-4.32,15.37-1.74,3.17-3.37,6.39-7.94,4.47-5-2.13-3.07-5.84-1.37-8.62,2.91-4.75,4.13-9.58,2.78-14.94-1-4.17-2.7-9.2,3.57-9.57,4.42-.26,7.3,3.53,7.28,8.5Z"/><path d="M681.69,1640.82c-.77,2.82-.74,5.41,2.57,6.55,5.54,1.9,3.38,6,2.84,9.62a4.32,4.32,0,0,1-5.12,3.82c-4.18-.47-5.41-4-6.47-7.52-2.65-8.69-2.9-17.91-6-26.55a5,5,0,0,1,5.12-6.66c5.91.55,11.2-1.46,16.49-2.81,12.82-3.27,19.3,6.22,27.52,12.35,1,.78.91,2,.19,3.14-3.6,5.85-1.75,12.08-.77,18.06.65,4,1.15,7.48-3.5,8.44-5.42,1.13-4.15-3.58-4.66-6.45-.4-2.31-1.39-5.09-.55-7,4.35-9.64.11-9.12-7.13-6.87-6.65,2.08-13.45,4.69-20.63,2,.83-6.15,4.53-8.48,10.46-8.21a64,64,0,0,0,7.93-.42c2.62-.2,4.9-1.54,4.7-4.21-.19-2.4-2.89-2.77-4.92-2.75-3.82,0-7.63.35-11.43.68C678.33,1626.94,675.88,1632.45,681.69,1640.82Z"/><path d="M775,1633c1.43-3.12-1.17-6.09-.92-9.31.2-2.4.7-5.12,3.5-5.57,3.29-.53,3.8,2.54,4.07,4.7.57,4.7.74,9.45.89,14.18.44,14.25,7.53,20,21.89,17.41,3.76-.68,7.43-1.86,11.15-2.78,1.43-.35,3.1-.77,3.58,1.21s-1.31,2.52-2.63,2.92c-8.4,2.58-16.66,6-25.64,5.88-5.73-.11-10-2.84-12.26-8.49-1.77-4.53-3.28-6.72-8.63-2.23-17.09,14.35-28.69,6.75-34.55-11.35-1.27-3.92-2.45-7.86-3.6-11.82-.88-3-1.22-6.44,2.16-7.69,3.76-1.38,5.55,1.91,5.85,4.88.51,5.17,3.74,9.27,4.87,14,2.25,9.41,8.6,11.33,16.69,10.19C770.56,1647.85,775.06,1642.26,775,1633Z"/><path d="M866.58,1659.76c1.95,6.49-2,13.14,2.59,19.75,2.08,3-3.58,5.42-3.88,9,0,.3-2.36,1-3.13.53-3.08-1.66-3.2-4.84-2.9-7.77a169.27,169.27,0,0,0,.38-23.94c-.19-5.14-1-6.55-6.55-5.48-15.6,3-30.4-11.09-28.44-26.56a4,4,0,0,1,2-2.68c2.08-1,3.33.61,4.1,2.24,2.28,4.79,4.27,9.72,6.63,14.47,4.09,8.26,13.25,11.18,20.54,6.71,2.12-1.3,2.14-3.35,1.81-5.49-.53-3.52-1-7-1.6-10.54s-.39-7.36,3.47-8c4.5-.77,4.87,3.64,4.94,6.73C866.73,1639.06,866.58,1649.41,866.58,1659.76Z"/><path d="M537.82,1650.81c-7.91-.19-14.07-.68-19-5.41-3.78-3.67-4.93-1.32-5.47,2.4-.68,4.66-1.39,9.32-2,14-.26,1.93-1,3.72-3,3.85-2.45.17-3.75-1.81-4-4a113.48,113.48,0,0,1-1-13.27c0-3.6.29-7.32-1.43-10.47-1.9-3.49-3.19-7.37.32-9.5s8.81.36,10.51,3c5.25,8.14,13.49,10.11,21.58,12.87,4,1.35,7.92,1.49,10.55-2,2.95-3.93-.52-7.28-2.26-10.51-.78-1.45-2.82-2.15-3.93-3.49-1.78-2.14-1.71-4.56.68-6.16s3.82.17,5,2.06a42.13,42.13,0,0,0,3.22,5.31c3.45,4.12,8,9.31,5.57,13.88A14.61,14.61,0,0,1,537.82,1650.81Z"/><path d="M319.58,1657.34c8.6-4.52,8.73-10.17,4.44-16.48-2.36-3.48-1-4.53,2.56-5.15a136,136,0,0,0,27.29-7.31c1.84-.74,4.27-2.33,5.43.22s-.66,4.51-3.25,5.32c-6.76,2.14-13.43,4.81-20.36,6.1-5,.94-6.71,2.67-5.57,7.59,1.45,6.24,5.17,3.94,8.84,2.71,3.83-1.28,7.53-3.43,12.47-2.25a29.42,29.42,0,0,1-15.59,9.13c-4.39,1.11-5.81,2.71-4.11,6.53,2.18,4.88,1.26,13,7.92,13.55,7.08.58,7.49-6.93,8.93-12.26.1-.34.92-.5,2-1.06,2.73,8-2.51,13.58-6.07,19-1.73,2.66-6.78.73-8.9-.93a20.87,20.87,0,0,1-7.88-15.16C327.43,1662,325.68,1658.75,319.58,1657.34Z"/><path d="M470.83,1653c-.67,7.11-5.45,11-10,14.23-4,2.85-9.28,2-10.54-3.48-1.83-7.89-7.83-14.82-5.57-23.7.75-3-1-4.64-3.89-4.43-2,.15-4.29,1.66-4.68-1.72-.23-2.05,1.27-3.18,3.12-3.76,12-3.74,24-7.51,36.09-11.15,1.58-.47,4-.9,4.53,1.26.7,3-2.16,2.9-4.07,3.23-7.85,1.34-15,4.63-22.38,7.47-3.85,1.49-4.93,4.28-3.95,7.77,1.16,4.17,4.11,1.85,6.52,1.29,5.43-1.26,10.85-2.62,16.34-3.64,1.79-.33,4.67-1.13,5,1.92.22,2.49-2.37,1.89-4,2.31-4.86,1.3-9.81,2.38-14.51,4.12-5.45,2-9.39,5.25-5.9,11.91,1.28,2.46.22,6.68,4,7.1,3.13.34,5.16-2.6,7.12-4.8S465.92,1653,470.83,1653Z"/><path d="M580,1623.54c-5.3-1.28-8.21,4.74-13.36,3.88-2.1-.35-5,1.75-5.86-1.73s1.4-4.43,4.34-5.33c10.05-3.1,20.84-3.16,30.56-7.59a3.74,3.74,0,0,1,4.12.85,2.16,2.16,0,0,1,.52,3.08c-7.91,11.77-4,24.22-1.81,36.44.58,3.31,2.51,7.16-1.6,8.13-3.79.89-3.74-3.59-4.31-6.37-1.67-8.06-4.12-16.08-4.65-24.22C587.58,1624.44,585.3,1622.8,580,1623.54Z"/><path d="M656.25,1637.4c1,12-7.63,17.33-15.78,22.55-3.13,2-6.59.2-9.5-2.63-8.51-8.26-9.49-19.34-11.72-29.94a4.07,4.07,0,0,1,3-4.86c2.8-.61,3.36,1.91,3.8,3.88,1.45,6.59,2.59,13.24,6,19.23,4,6.91,11.72,7.56,14.69.34,2.09-5.07,7.52-11.78-.94-16.93a2.6,2.6,0,0,1-.67-3.89c1-1.47,2.54-1.36,4-.76C655.09,1626.86,655.72,1632.26,656.25,1637.4Z"/><path d="M412.29,1635.1c-.73-5.4-1.56-9.12,3-8.91s2.14,4,1.87,6.16a132.72,132.72,0,0,1-8,31.63c-.9,2.3-2,5.2-5.29,5.35-3.14.14-3.4-2.74-4.62-4.64-4.78-7.45-9.63-14.85-14.42-22.29-1.27-2-3.11-4.48-.4-6.2,3-1.9,3.7,1.06,4.83,3.21,3.15,6,6.62,11.85,9.85,17.83,1,1.88,2.08,4,4.27,4,2.5,0,3-2.67,3.48-4.58C409,1648.76,410.87,1640.81,412.29,1635.1Z"/><path d="M909.61,1683.39c-.26,5.59-.72,11.14-2.6,16.5-.91,2.6-2.39,4.29-5.12,3.42s-3.06-3.29-2.14-5.79a60.1,60.1,0,0,0,3.68-19c.07-2.24-.64-5.48,2.78-5.41,3.6.08,3.57,3,3.1,5.91A17.88,17.88,0,0,0,909.61,1683.39Z"/><path d="M499.73,2068.8c12.44,1.22,24.49,1.48,36.18-2.91,2.6-1,5.84-3,7.67-.25,2.19,3.33-1.75,4.66-3.84,6.22-7.89,5.88-17.31,5.15-26.3,5.48-6.28.23-12.65-.73-18.91-1.63s-12.11-2.81-11.95,7.37c.07,4.11-3.8,3.82-5.75.86a16.54,16.54,0,0,1-2.35-8c-.48-9.84-1.07-19.6-4.78-28.92-1.07-2.67-.77-7.52,2.45-6,8.89,4.34,11.74-3.29,16.67-6.74,6.88-4.82,20.84-4.86,25.43.19,6,6.53,5.79,15.47-.74,24C510,2063.09,506.46,2067.83,499.73,2068.8Zm-7.53-7.27c9.33-.33,17.8-9,17.9-17.78.08-6.93-3.68-7.13-8.84-6.74-8.14.62-16.8,10.07-16.89,18.48C484.32,2060.86,487.12,2062.2,492.2,2061.53Z"/><path d="M415.17,2032.9c7.17-1.83,13.93.4,20.73,2.08,8.48,2.1,12.69,8.7,11,17.15-3.87,19.35-27.32,35.38-46.43,31.66-3.63-.71-5.48-3.15-5-6.81,1.39-11.11-2.15-21.34-5.39-31.64-2.4-7.66-2.4-12.63,8.43-11.85C403.82,2033.88,409.55,2032.27,415.17,2032.9Zm7.09,5.79-.06,1c-4.18,0-8.44-.5-12.54.1-8,1.18-12.68,5.11-10.42,14.31,1.58,6.44,5.51,12.12,7.07,18.06,2.68,10.19,8.21,7.57,13,4.37a54.34,54.34,0,0,0,20.07-24.84c2.27-5.44.3-8.8-4.91-10.36C430.51,2040.13,426.34,2039.55,422.26,2038.69Z"/><path d="M645.73,2073.54c3.37-8.83,5.18-15.71,8.5-21.77,4.94-9,8.19-9.08,14.54-.95,4.65,5.94,9.28,11.57,17.36,12.56,2.49.31,4.34,5.33,7,1.74,1.72-2.35,2.51-6.32.4-9-4-5.11-3.12-11.46-5.19-17-1.3-3.47-1.38-6.66,2.69-7.59,4.28-1,3.72,2.88,4.38,5.5,1.8,7.15,4,14.2,5.57,21.39,1,4.81,1.62,10.1-2.7,13.76-4.48,3.79-9.54,2.13-13.87-.37-6.54-3.79-14.5-5.56-18.24-13.51-2.61-5.56-6.08-3.91-8.14.64-2.32,5.12-3.79,10.62-6,15.77-1.22,2.78-2.55,6.21-6.36,6.29-4.07.09-3.92-3.95-5.73-6.18-7-8.61-3.35-20.81-10.71-29.23-1.79-2-.67-6.49,2.83-6.39,4,.11,6.86,3.34,7.16,7.71C639.73,2055.3,642.38,2063.15,645.73,2073.54Z"/><path d="M583.53,2058.74c-5.5,0-10.71.87-12.83,7.8-1,3.26-3.09,6.27-5.08,9.11-1.84,2.64-3.22,7.63-7.59,5.06-3.51-2.07-.88-5.86.58-8.46,2.43-4.32,5.6-8.23,2.54-13.59a2.88,2.88,0,0,1,1.71-4.3c7.86-2.75,7.31-9.23,7.51-15.67.11-3.54,1.51-7.47,5-8.62,4.43-1.46,5.77,3,7.55,5.86,8.66,13.88,8.62,13.91,24.87,10.27,2.28-.51,5.29-2.25,5.88,1.57.43,2.79-2.73,2.51-4.58,3.15-15.75,5.44-16.06,6.36-3.94,18.56,2.82,2.83,2.75,5.47,1.78,8.54-.37,1.15-1.63,2.87-2.48,2.87-3.64,0-5.37-2.79-6.91-5.67-2.32-4.31-5-8.47-7-12.92C589.12,2059.16,587.19,2058,583.53,2058.74ZM578.35,2043c1.25,1.35-5.39,6.6.69,9.59,1.23.6,4.56-.14,4.79-.9C585.45,2046.36,577.9,2045.38,578.35,2043Z"/><path d="M894.6,2080c-1.05-11.28-.64-21.49-4.83-31.09-2.29-5.24,1.17-7,5.14-5.37,7.51,3.16,13.53-.69,19.93-2.9,8.49-2.94,16.66-4,22.89,4.14s3.32,16.69-2.2,23.18c-6.42,7.54-12.73,16.27-24.24,17.18-5,.4-6.27,4-5.76,8.34.33,2.76,1.45,5.38.48,8.28-.78,2.35-1,5.27-4.18,5.2-2.48-.06-3.42-2.67-3.56-4.58C897.68,2094.32,891.42,2087.3,894.6,2080Zm7.66-14.38c1.12,4-.59,10.14,3.74,12.32,5,2.52,10.37-.86,14.49-4.06,6.53-5.06,9-13.17,13.25-19.93,1.15-1.83.41-4-2.3-5.93-5.71-4.17-11.16-2.48-15.15.82C910.81,2053.33,901.32,2055.12,902.26,2065.57Z"/><path d="M1032.65,2064.16c-.21,5.69,1.38,14.47-4.92,15-6.48.57-3.83-8.45-4.64-13-1.24-7.09-3.5-14.12-2.49-21.67,1.08-8,4.8-9.08,11.62-6.55,10.34,3.85,16.1,14.1,26.21,18.32,2,.86,3.64,3.22,6.19,3.62,2.88.45,5.13,4.54,8.58,1.52,3.07-2.69,1.28-5.63.6-8.72-1.06-4.75-1.39-9.66-2.21-14.47-.47-2.76.78-3.82,3.23-4.23s4.28.43,4.08,3.19c-.66,8.93,3.37,17.24,3.35,26.07,0,3.65-.91,7.43-4,9.3-3.5,2.11-7-.33-9.48-2.68-8.64-8.09-21.44-8.55-30-17-3.81-3.75-6.3.24-6.88,4C1031.5,2059.2,1032.33,2061.72,1032.65,2064.16Z"/><path d="M986.21,2080c3.41.7,8.27-2,12.27-6.26,6.27-6.68,3.93-15.11-4.74-17.72-2-.6-4.11-1-6.16-1.48-2.59-.64-6.11-.1-6.25-4.15-.06-1.66.12-3.95,1.16-4.89,3.12-2.84,4.76,1.21,7.13,2.09,1.32.49,2.69.86,4,1.34,12.44,4.59,17.39,12.43,13.81,21.84-4.64,12.16-19,20.42-29.63,16-10.81-4.46-20.64-10.11-21-24.47-.18-8,3.45-11.84,10.19-13.54,2.71-.68,7.14-2.27,8.26,1.83s-3.28,3.35-5.71,4.23c-8.91,3.25-6.93,9.94-3.74,15.51C969.47,2076.74,975.69,2080.12,986.21,2080Z"/><path d="M862.2,2056.6c.24-2.22,1.58-8-6-9.32-2.55-.46-5.24-.3-5.49-3.49-.19-2.53,2.26-3.24,4.18-4,2.84-1.19,5.64-1.24,7.55,1.53,4.8,6.95,5.86,14.85,5,23-1.2,11.17-7.85,19.53-15.75,26.59-7.13,6.39-20.92,1.59-24-7.44-3-8.83-7.06-17.31-7.94-26.79-.28-3-2.3-7.1,2.61-7.24,3.71-.11,4.34,3.94,4.41,7.16.12,6.18-.85,12,3.34,18,10,14.31,20.49,14,29-1.64C861.41,2068.64,861.14,2064.11,862.2,2056.6Z"/><path d="M165.73,2022.5c13.05.29,25.71-2.54,38.43-4.87,2.44-.44,5.06-2,6.18,1.31a4.4,4.4,0,0,1-3.91,6.16c-7.81.75-7.87,4.43-7.15,11.41.63,6.26-1.62,13.06-1.32,19.74.18,4.16-.54,8.54,3.66,11.47,2.73,1.91,2.91,4.72,1.86,7.55-.88,2.39-3.08,2.66-5.25,2.32-3.36-.51-6.17-2-6.78-5.64a55.59,55.59,0,0,1-.52-8.37c-.09-5.27.76-10.7-.24-15.78-3.38-17.34-.3-21.32-21.8-17.42-5.41,1-11.14.1-16.73.11a4.83,4.83,0,0,1-5.16-4.31c-.5-4,2.68-3,5.06-3.09C156.62,2023,161.18,2022.71,165.73,2022.5Z"/><path d="M233.37,2034.3c13.28,3.16,24.52,10.66,31.34,22.54,3.74,6.52-.49,14.19-7.39,17.61-7.29,3.61-15.71,5.07-22.93-.2-7.84-5.73-13.92-13-12.76-23.85.26-2.45.54-4.91.74-7.37C222.92,2036.53,224.58,2031.43,233.37,2034.3Zm-5.55,5.53c4.42,5.38,2.18,9.7,1.93,14a13,13,0,0,0,7.14,13c5.43,3,11.11,4.38,16.86.72,4.46-2.84,7-6.81,2.4-11C248.64,2049.7,242.21,2040.83,227.82,2039.83Z"/><path d="M122.38,1853.63c12.22,2.4,17.28,17.4,31.75,15.76,2.35-.26,4.13,3,2.18,4.34-3.57,2.51-5.72,9.42-12,5.56-4.75-2.91-9.08-6.51-13.72-9.62-2.91-1.94-6-3.58-9.09-5.3-10.27-5.82-10.28-5.81-11.22,6.44-.26,3.3-.83,6.9-4.76,7.12-4.71.27-5.58-3.51-5.46-7.3.47-14.43,1-28.85-1-43.21-.32-2.34.37-4.21,2.45-5.34s4.4-1.66,5.36.92c2.38,6.47,5.56,3.2,8.82,1.09.88-.57,2-.72,2.87-1.33,6.67-4.85,14-5.94,20.27-.51,4.67,4.07.24,18.71-6,23.76C129.76,1848.4,125.34,1848.59,122.38,1853.63Zm-5-10A17.48,17.48,0,0,0,130.87,1833c1.19-2.71-2.44-4.83-4.54-4.42-6.25,1.23-10.44,5.58-12.59,11.46C112.8,1842.58,114.9,1843.68,117.38,1843.6Z"/><path d="M329.89,1879.18c-16.06-.19-17.63-1.76-20.89-16.44-1.74-7.8-.72-16.15-5.23-23.48-1.45-2.35-.19-6.77,3.58-5.4,5.9,2.16,10.11-1,15-2.5,14.8-4.45,26.92,2.28,37.72,10.83,6.47,5.12,3.93,19.79-4,26.53C348.5,1875.1,340.11,1880.4,329.89,1879.18Zm1-6.73c9.29.54,14.22-6.77,20.48-14.26,6-7.18,3.2-11.25-1.95-14.25-7.86-4.58-17.1-8.26-25.9-3-8.25,4.89-6.07,13.12-3.83,20.73a5.24,5.24,0,0,1,.2,2.08C318.77,1871.23,323.19,1872.8,330.88,1872.45Z"/><path d="M264.09,1854.41c-8.44-.07-18,1.53-20.88,14.06-.62,2.73-2.42,5.43-5.16,6.37-3.54,1.2-8.79.76-7-4,5.51-14.86,10.3-30.14,19.49-43.41,4.46-6.43,7.9-4.72,12.41.16,5.89,6.39,6.85,17.24,17.95,19.16,2.8.49-.54,4.67.25,6.47,1.71,3.91,1.53,9.1,6.65,11.1,4.75,1.85,4.16,5.86,1.8,8.53-2.72,3.09-5.38.62-7.82-1.83-3.45-3.45-7.43-6.32-8.36-11.62C272.71,1855.43,270.62,1852.94,264.09,1854.41Z"/><path d="M492.51,1869c-5.53-5.8-5.41-14.53-9.75-21.44-1.4-2.23-2.53-5.29.21-7.73,1.89-1.67,4.11-3.12,6.65-1.75,2.92,1.56,3.07,4.44,2.68,7.39-1.17,9.07,5.7,15.52,7.82,23.59,1.93,7.38.36,10.5-7.21,8.78-13.6-3.08-27-6.74-39.29-13.78-2.35-1.35-5-3.63-7.74-1.72s-1.73,5-.67,7.67a3.77,3.77,0,0,1,.3,1c.42,5.73,0,14.12-4.62,14.77-6.27.89-6.46-7.44-7.61-12.65-1.65-7.55-3.27-15.13-4.33-22.77-.4-2.93-.34-6.9,3.21-8.27,3.28-1.27,5.48,1.31,8.15,3.28,10.54,7.79,20.78,16.37,34.42,18.44C480.78,1864.78,483.4,1874.33,492.51,1869Z"/><path d="M582.13,1863.33c-.19,13.48-10.48,25.06-23.43,26.54-9.46,1.09-22.6-6.62-26.5-21.07-2.58-9.58-3.45-19.29-.71-29.14a16.46,16.46,0,0,1,6.15-9.46c3.27-2.43,7.22-5.29,10.11-1.3,3.61,5-2.4,5-5,6.7-5.3,3.49-9.21,23.53-5.51,28.27,1.71,2.19,3.4,2,5.06-.2,5-6.51,12.3-9.54,19.3-13.07C575.86,1843.46,582.35,1847.48,582.13,1863.33ZM556,1883.05a19.29,19.29,0,0,0,19.63-23c-.64-3-1.14-7.28-4.82-7.34-6.7-.1,1.57,3.59-.92,5.21-1.59,1-3.17,1.06-4.85,1.41-3.68.78-7.52,1.62-10.8,3.36-6.19,3.29-8,10.29-8.42,16C545.52,1883.25,552.46,1882.08,556,1883.05Z"/><path d="M209.69,1847.35c-8.15,2.38-16.29,4.82-24.47,7.1-2.76.76-6,1-5.87,4.76.23,4.93.68,10.35,4.87,13.47,2.26,1.68,6.18,1.45,9-.5,3.69-2.55,7.18-5.38,11.32-8.53-.11,9.42-6.26,16.53-15.24,18.82-8.52,2.17-12-3.65-15.41-9.68-2.93-5.2-6.45-11.23-8.16-15.72-2.8-7.32,1.81-17.53,3.65-26.44.11-.55,3.23-.52,5-.69,9.76-1,19.71.82,29.36-2.18,2.27-.71,5-.51,6.42,3.66-8,2.5-15.74,5.93-24.34,6.09-3.6.06-6.7.43-6.23,4.89.41,3.84,3.3,5.29,6.91,4.89,7.5-.83,14.81-3.42,22.45-2.91C209.16,1845.37,209.43,1846.36,209.69,1847.35Z"/><path d="M395.53,1871.17c-1.5-8.18-2.73-16.42-4.63-24.51-.81-3.43-1.55-6.59,2.26-7.85s6.23,1.52,6.78,4.82c1.9,11.33,3.58,22.71,4.83,34.13.31,2.85-.39,7-4.34,7.39-4.5.5-4.32-3.68-4.92-6.6a70,70,0,0,1-.77-7.26Z"/><path d="M1056.91,1866.55c1-7.75-3.25-14.23-5-21.33-.7-2.86-2.89-6.72,1.92-7.79,4-.89,3.84,2.93,4.57,5.58s-.88,6.56,2.63,7.37c4,.91,4.79-3.74,6.38-6,8.75-12.18,21.81-11.47,34.3-11.86,4.92-.16,5.67,3.86,5,8.46-1.64,10.87-9,15.06-18.58,17.09-2.89.61-7-.46-8,3.67-1,4.45,3.3,4.51,5.79,6.13,12.2,7.94,24.8,13.88,39.86,8.78,2-.69,3.38.11,4.13,2a3.67,3.67,0,0,1-1.44,4.63c-3.77,2.7-7.55,4.6-12.68,3.79a94.16,94.16,0,0,1-42.35-17.63c-4.35-3.26-6.86-3.51-7.89,2.36-.65,3.63.44,9.72-4.32,9.22-5.44-.56-4.21-7-4.67-11.37A16.21,16.21,0,0,1,1056.91,1866.55Zm32.55-26.42c-4.75,1.76-11.86-.85-14,6.15-1,3.33,2.28,5.38,5.21,4.32,4.83-1.73,12,.23,13.73-6.93C1095.21,1840.4,1092.22,1840,1089.46,1840.13Z"/><path d="M1000.27,1856.46c7.48-1.26,12-1.87,16.43-2.85,1.76-.39,3.6-1.38,4.35.87s-.57,4.12-3,4.64c-5.85,1.25-11.69,2.79-17.62,3.41-7,.71-7.48,4.5-5,9.4,2.3,4.47.66,13.65,10.59,10.27,4.39-1.5,8-4.39,11.52-7.31,1.63-1.33,4.14-2.07,5.57.18,1,1.64-.33,3.25-1.75,4.47-2.4,2-4.61,4.31-7.11,6.2-10.33,7.82-19.22,5.06-24-7.12-4.17-10.69-2.58-22.46-6.58-33.22-1-2.76,2.09-3.9,4.76-4.31,12.81-2,25.6-4,38.4-6,2.1-.33,4.64-.83,5.09,2,.5,3.22-2.1,4.12-4.69,4.4-8.76.93-17.58,1.46-25.94,4.58-2.85,1.06-6.8,1.66-5.71,6.09A5.16,5.16,0,0,0,1000.27,1856.46Z"/><path d="M850.9,1862.91c1,17.14-23.51,35.21-39.08,33-13.85-2-11.86-12.48-13.68-20.36-1.34-5.79.51-12.4-1.36-18.56-.55-1.82.17-3.06,2.2-4,13.53-6.22,27.32-7.31,41.52-2.64C847.35,1852.58,852.47,1856.07,850.9,1862.91Zm-45.69,10.91c0,.93,0,3.76.39,6.54,1.52,11.66,3.72,12.66,15.26,9.81,9.65-2.38,14.1-9.9,19.09-17,8.87-12.67,7.38-16.42-7.32-19.53C814.67,1849.84,805,1856.26,805.21,1873.82Z"/><path d="M956.87,1873.4c-1.72-4.21,3.08-12.72-5.49-14.8-9.46-2.29-19.11.19-27.09,5.51-3.5,2.34-.17,8-.36,12.11-.14,3.16-.37,6.32-.66,9.48-.2,2.19-.79,4.35-3.55,4.25s-3.22-2.29-3.69-4.4c-.15-.69-.61-1.53-.37-2,4.89-10.8-1.22-21.09-1.39-31.65,0-3-2-7,2.53-7.89,4.82-.91,4.4,3.16,4.5,6.32.08,2.8,2,5.94,4.19,4.62,6.67-4,13.8-1.11,20.56-2.53,5-1.06,5.91-3.94,5.51-8.42a4.69,4.69,0,0,1,3.18-5c2.73-.74,3,2.22,4.44,3.51,5.18,4.66,3.36,11.09,4.37,16.72,1.1,6.1.78,12.46,1.93,18.55.62,3.31.84,6.17-.79,9.07-.82,1.47-2.19,1.55-3.61.91-3.91-1.75-4.27-5.21-4.22-8.87C956.88,1877.45,956.87,1876,956.87,1873.4Z"/><path d="M751.82,1894.74c3.59-1.4,4-8.49,8.08-4.79,2.93,2.66-1.18,6.34-3.47,8.75-3.22,3.4-7.33,3.67-9.66-.6a24.81,24.81,0,0,1-3.24-12.09c.29-8.13-2.28-13.2-12.11-13.48,3.59-5.12,9.86-6.26,9.78-12.73a2.72,2.72,0,0,1,5.25-.94c3,8.87,8.71,4.34,14.19,4.14s13.63-7.54,15.71-.36c1.88,6.52-8.59,3.36-12.88,6.16a15.73,15.73,0,0,1-6.89,2.52c-8.06.73-10.24,4.18-7.24,11.92C750.64,1886.61,749.26,1890.91,751.82,1894.74Z"/><path d="M688.62,1840.68c-1.08,16-1.16,28.84,3.37,41.38.74,2.07,1.11,4.41,3.79,4.1,4.21-.49-.06-3,.82-4.35,1.27-1.93,3.34-2.23,5.38-2.87,6.65-2.06,13.51-3.72,18.83-8.79,1.81-1.72,4.5-3,6.55-.71,2.31,2.63-.11,4.65-2.15,5.88-8.4,5-16.63,10.51-25.5,14.57-7.63,3.49-11.78-2.2-14.11-8.52-3.23-8.72-2-18.06-2.8-27.12-.29-3.48-.36-7-.68-10.47-.28-3.06-1.77-7.38,2.49-7.82C690.09,1835.39,688.6,1840.33,688.62,1840.68Z"/><path d="M749,1852c-4.33.87-6.22.08-6.52-2.47a3.11,3.11,0,0,1,3.13-3.49c11.12-.55,20.34-7.08,30.82-9.64,2.64-.65,4.91-1.07,6,2,.83,2.36-.63,5.11-2.39,5C768,1842.84,759,1853,749,1852Z"/><path d="M584.4,2266.45c1.2-7.94.42-15.71,2.46-23.31.64-2.37.4-5.21,2.68-6.6,8-4.84,15.86-.8,23.39,1.33,5.15,1.45,10.15,4.12,10.87,11.3,1.42,14-9.78,34.37-22.76,39.9-6.25,2.67-19.84-4.41-21.36-11.43-2.59-12-1.53-24.53-6-36.23-1.08-2.82,1-4.88,3.75-5.19s3,2.12,3.3,4.27C581.88,2249.15,583.16,2257.8,584.4,2266.45Zm31.27-15.76c.28-4.72-7.53-4.46-13.61-6.16s-9.35.62-10.2,6.83c-1.18,8.66-.81,17.42-2.51,26.11-1,5.24,3.89,8.54,7.94,4.41C604.69,2274.37,613.77,2267.55,615.67,2250.69Z"/><path d="M364.75,2276.19c-1-10.08-1.06-20.32-4.28-30.09-1-3.16-1.94-6,2.34-7.77,3.77-1.53,7.41-1.47,9.17,2.23,5,10.58,15.23,15.18,23.93,21.44,4.31,3.11,10,4.74,14.77,1.44,5.18-3.63,2-8.92.68-13.52a25.84,25.84,0,0,0-2.3-5.83c-1.79-3.16-1-5.81,2-6.93,4.54-1.66,4.19,2.8,4.61,5,.92,4.82,1.94,9.25,4.58,13.7a12.5,12.5,0,0,1-.92,14c-3.61,4.72-8.61,4.17-13.48,2.77-7.51-2.16-15.11-4.18-22.33-7.1-5.92-2.4-7.55-.48-5.9,4.79,1.51,4.83.64,8.77-1.62,13-1.39,2.62-.73,7-5.18,6.65-4.81-.43-5.77-4.49-6.07-8.55C364.64,2279.7,364.75,2277.94,364.75,2276.19Z"/><path d="M322.33,2254.18c5.95-2.13,11.95-4.1,17.81-6.45,3-1.19,6.22-1.77,7.05,1.53s-3.3,3.18-5.24,3.31c-9.31.61-16,7-23.8,10.69-4.52,2.13-3,21.16,1.23,24.19,2.44,1.73,3.87.3,5.49-1,3.66-3,6.1-6.67,6.51-11.61.14-1.7,1.52-3.54,3.48-3.25,3,.44,2.51,2.89,1.87,4.93-2.08,6.69-3.91,13.37-10.07,18-8.22,6.13-14.17,4.24-16.52-6A107.6,107.6,0,0,1,308.5,2276c-.57-5.26,1.24-12.61-8.69-8.93-1.91.71-3.19-1.16-3.54-3a3.27,3.27,0,0,1,2.68-4c11-1.88,9-7,4-13.72-2.63-3.5-.39-5.68,3.4-6.76,9.7-2.77,20.32-1.31,29.51-6.69,2.3-1.34,4.87-.17,5.67,2.9.86,3.3-1.19,4.13-3.83,5-6,1.93-12,4.1-17.88,6.35-2.4.92-4.66,2.61-3.21,5.56C317.69,2255,320.11,2254.51,322.33,2254.18Z"/><path d="M504.57,2245.8c6.8,10.18,15.44,9.17,23.76,8.8,2.77-.13,5.51-1,8.27-1.54,2.18-.4,4.59-.58,5,2.2.32,2.1-1.73,2.7-3.53,3-6.85,1.31-13,5.42-20.44,4.52s-9.05,2.49-7.41,9.61c1.52,6.62,6.32,11.37,10.7,14.12,3.78,2.36,9.07-3.28,11.8-7.82,1.44-2.4,1.88-5.7,5.72-4.66a4.63,4.63,0,0,1,2.61,2.87c.87,3.22-1.21,5.05-3.58,6.93-6.88,5.48-13.41,12.15-23.33,7.57-9.18-4.24-11.45-12.62-12.06-21.83-.39-6-.45-12-1.66-17.83-2.42-11.65,3.2-15,13.63-15.72,9.69-.66,19.28-2.73,28.93-4.09,3.26-.46,8-2.52,8,3.19,0,5.37-4.52,2.19-7.22,2.69-7.21,1.35-14.51,2.63-21.45,4.91A52.16,52.16,0,0,1,504.57,2245.8Z"/><path d="M174.82,2239.39c2.05,18.3,14.76,26.16,27.49,33.33,5.25,3,9.94-.36,9.15-7a65.85,65.85,0,0,0-6.07-21.24c-1.59-3.25-3.8-8.2,1.57-9.74,5.11-1.47,4.28,3.73,5.43,6.89,3.15,8.61,6.18,17.22,6.55,26.46.48,12-4.76,15.88-15.49,11.12-7.23-3.21-14-7.42-20.92-11.32-1.95-1.1-3.1-4.37-6.1-2.23-2.17,1.56-2.76,3.63-2.41,6.47.65,5.19,4,14-2.86,14.2-7.75.19-2.84-9-3.76-13.94-1-5.16.07-10.78-1.38-15.72C163.59,2248.45,167.45,2244.21,174.82,2239.39Z"/><path d="M272.82,2258c.66-5.18-1-9.26-2.82-13.57-1.46-3.39-.1-7.24,4.51-7.82,4-.5,6.15,2.53,6.07,5.79-.36,14.22,1.76,28.88-7,41.78-5.75,8.45-10.1,8.16-17.27,1.28-10.27-9.87-11.23-24.65-20.16-35.05-1.47-1.71-.53-4,1.58-5.36,3.13-2,5.5-.94,6.83,2.09,3.6,8.2,7.4,16.26,11.48,24.23,2.07,4,11.62,4.71,6.54,12.28,3.71,1.87,5.25-.69,6-3.44C270.52,2272.79,273.62,2265.54,272.82,2258Z"/><path d="M467.12,2253.7c.74,10.36-1.07,18.53,2.09,26.32,1.21,3,2.07,6.09-.21,8.95-1.25,1.56-3,1.65-4.72.65-3.5-2-4.13-5.29-4-9,.34-10.24-1.34-20.19-3.6-30.18-1.64-7.26-4-10.38-11.22-5.89-4.78,3-10.91,2.5-15.59,6-1.79,1.36-4.71,2.76-6.18-.64-1.15-2.67-1.08-5.21,1.82-7.4,3.82-2.9,8.25-4,12.64-4.89,6.47-1.23,12.84-1.84,19-5,5.45-2.77,10.44-1.55,10,6.61C466.9,2244.83,467.12,2250.46,467.12,2253.7Z"/><path d="M125.09,2234.69c3.95,11.29,3.62,22.84,5.89,33.86,1.19,5.77-.53,11.83,2.32,17.5,2,4-.08,7.2-4.12,7.83-4.36.68-5.16-3.34-5-6.38.74-15.05.44-29.91-4-44.51C119.25,2240.18,120.89,2237,125.09,2234.69Z"/><path d="M870.25,2257.58c5.66-18.59,15.94-28.81,33.94-28.31,2.93.08,7.81-3,9.13,2.1,1.28,5,2.6,10.81-2.43,14.64a93.81,93.81,0,0,1-15.15,9.4c-5.75,2.84-6.37,4.81-1.51,9.79,9,9.25,30.48,11.34,38.86-1.69,1.08-1.69,2.49-4.06,4.86-2,1.91,1.68,1.15,4.23-.39,5.68-4,3.79-7.16,9.23-13.12,10.08-14.56,2.07-28.92,2.18-41.1-8.06-1.34-1.13-2.37-2.89-4.36-2.07-2.22.91-2.73,3.08-2.85,5.26-.28,4.9-.18,9.85-.82,14.7-.38,2.92-.59,7.15-4.93,6.85-3.87-.27-3.11-4.44-3.32-6.85-.7-8-.67-16.06-1.15-24.08-.25-4.16-.3-8.45-4.16-11.51-3.2-2.53-2.07-5.72-.23-8.47a4.24,4.24,0,0,1,3.49-1.64c4,1,1.8,4.7,2.65,7.13C868.43,2250.77,869,2253.07,870.25,2257.58Zm39.36-20.13c-.73-.37-1.64-.84-2.56-1.29-5.64-2.76-22.79,4.27-25.09,10.3-1.54,4.05,1.15,6,4,4.93,7.46-2.84,14.56-6.63,21.74-10.2C908.46,2240.84,908.65,2239.45,909.61,2237.45Z"/><path d="M1022.21,2273.67c4.54-5.57,12.6-5.74,18.12-10.84,3.41-3.15,7.18-5.91,10.08-9.85,7.84-10.69,7.36-12.75-5.34-16.62-7.63-2.33-15.36-1.06-23,.61-4.18.92-5,4.05-5.2,8a179.57,179.57,0,0,0,.56,27.44c.46,4.26-1.13,8.2-5.5,8.72-3.75.45-4.88-3.44-5.4-6.64-2.17-13.29,1-27.35-6.3-40-1.43-2.48,2.57-5.92,4.79-5.79,4.71.28,8-3.63,11.61-3.72,15-.35,30.18.67,43,9.74,6.33,4.49,7,11.39,2.36,17.68-9,12.33-21,20.57-36.26,23.35C1024.33,2276,1022.91,2276,1022.21,2273.67Z"/><path d="M741.55,2269.3c-1.12,12-2.6,22.83-7.08,33.15-1.3,3-2.25,6.73-5.43,7.09-4.57.51-3.69-4.57-4.5-7-6-18.4-8-37.57-9.58-56.75-.17-2.06.27-5,2.79-4.91,4.33.1,3,3.91,3,6.45.08,16.72,5.66,32.51,7.93,49.05,5.94-6.79,3.29-15,4.42-22.46.64-4.23-1-10,4.63-11.92,5.5-1.88,8.25,3.12,11,6.36A119.28,119.28,0,0,0,765,2284.43c5.54,4.43,8.89,3.13,10.29-3.7.86-4.18,1-8.24-.74-12.39-2.51-5.88-3.13-12.22-3.35-18.56-.06-1.78.62-3.59,2.72-4s3.78,1.05,3.49,2.85c-1.87,11.64,5.94,21.57,5.52,33-.63,16.77-7.91,17.55-17,10.47C757.36,2285.42,746,2281.67,741.55,2269.3Z"/><path d="M1077.31,2278.77c-4.47-.86-9-1.56-13.4-2.64-3.55-.87-5.27-3.23-4.48-7.08.43-2.09.64-4.7,2.92-5.19,4.65-1,3.13,3.48,4.36,5.54,4.48,7.45,12.86,8.39,21.47,1,5.76-4.93,12.23-10.45,3.38-19.45-5.91-6-7.94-14.59-7.71-23.51.13-5.47,3.49-7,7.37-8.82,2.44-1.13,4-.32,5.28,1.71,2.09,3.36,2.93,5.73,0,10.15-5.65,8.64,1.73,15.29,7,20.73,8.57,8.83,7.75,19.11-3.87,22.62C1092.57,2276,1085.2,2278.72,1077.31,2278.77Z"/><path d="M825.34,2290.35c-14.79-.47-25.27-10.9-24.44-24.33.78-12.59,13.45-24,26.92-24.32,8.92-.19,20.74,14.38,20.15,24.84C847.31,2278.22,835.48,2290.68,825.34,2290.35Zm-16.81-22.28c-.31,11.29,3.48,16.34,12.5,16.66s19.94-9.48,20.42-18.05c.36-6.59-6.54-16.95-11.56-17.35C815.83,2248.19,808.9,2254.27,808.53,2268.07Z"/><path d="M942.45,2242.46a57.35,57.35,0,0,1,0-6.29c.24-2.17,1.09-4.19,3.82-4.05a3.82,3.82,0,0,1,3.9,4.1,90.19,90.19,0,0,0,7.21,39.75c.88,2.09.69,4.39-1.55,5.47-3.09,1.5-4-.78-5.24-3.19C944.9,2267,943.46,2254.77,942.45,2242.46Z"/><path d="M962.17,2281.4A13.7,13.7,0,0,1,971,2273c7.18-2,12.74-5.39,17.13-11.26,1.26-1.69,3.37-2.77,5.48-1.16,1.36,1.05.61,2.47,0,3.79C990.21,2272,972.05,2282,962.17,2281.4Z"/><path d="M1031.31,252.94c1.29-10.72-.77-20.92-4.61-30.92-1.36-3.52-4.82-8.43,1.53-10.51,6.18-2,8.21,1.43,7.32,7.37a3.78,3.78,0,0,0,2.35,4.3c2.69.92,3.77-1.26,4.72-3.08,5.05-9.69,15.19-11.12,24-13.41,10.23-2.67,17.5,6.84,14,17.15A33.81,33.81,0,0,1,1070,239.32c-3.93,3.18-4.1,5.08,1,7.12,6.78,2.68,13.53,5.54,20.77,6.42,3.5.43,5.53,1.47,5,4.94-.47,3.24-1.86,5.62-6.16,5.58-12-.12-22-6.61-33-9.88-14-4.14-14.65-4.3-16.54,9.56a59.79,59.79,0,0,1-1.18,6.22c-.53,2.12-1.57,4.21-4,4.29-3.08.12-4.35-2.48-4.51-4.89C1031.07,263.45,1031.31,258.19,1031.31,252.94Zm41.21-33.81c.37-1.65-.86-2.72-2.59-3.55-5.73-2.76-21.61,5.67-22.29,11.83-.24,2.25.13,4.09,2.34,5.34C1055.76,236,1072.34,226.38,1072.52,219.13Z"/><path d="M645.6,247.56c-3.83,3.15-2.66,7.07-2.19,10.85.3,2.45,1.63,5.31.79,7.24-1.82,4.17-3,10.69-8.74,10.05-5.56-.61-3.66-6.33-3.78-10.46-.3-10.85.55-21.78-3-32.41-1.24-3.67-3.55-8.76,1.73-11.25,4.87-2.31,8.23.57,11.56,4.54,5.5,6.55,10.75,18.95,18,17,9.15-2.41,16-12.94,22.23-21.44,1.65-2.23,2.39-5.13,4-7.43,3.38-5,6.82-4.57,9.5.64,3.93,7.65,5.44,16,6,24.45.35,4.92.21,9.79,2.8,14.34,3.29,5.77-1.35,9.13-5.2,10.63-4.55,1.77-4.43-3.77-5-6.18-1.65-7.52-2.44-15.22-3.54-22.86-.3-2.13-.53-4.54-2.79-5.31-2.51-.85-3.66,1.52-5,3.1q-6.69,8.09-13.29,16.23c-8.42,10.38-13,10.37-21.65,0A12.42,12.42,0,0,0,645.6,247.56Z"/><path d="M864.91,241c-.29-5.62-.57-11.24-.87-16.87-.17-3,.49-6,3.7-6.77,3.74-.91,4.84,2.18,5.34,5.05,1,5.82,4.65,7.82,9.92,6.48,6.53-1.65,13.19-1.73,19.75-2.63,5.56-.76,13.07.31,14.29-9.13.39-3,4.31-5.13,7.83-.37,3.2,4.31,6.42,8,6.1,13.9a67.06,67.06,0,0,0,3.1,23c1.64,5.47,1.72,11.58-5.23,12.66-7.6,1.18-6.45-5.37-6.72-10.22-1.52-28.09-1.53-28.08-28.2-19a88.28,88.28,0,0,1-9.09,2.67c-7.79,1.74-11.76,5.79-9.54,14.27a20.6,20.6,0,0,1,.13,6.33c-.24,3.62-2.16,6.29-5.85,6.23s-5.36-2.78-5.32-6.52c.07-6.35,0-12.7,0-19.05Z"/><path d="M991.33,206.18c1.75-.18,3.49-.42,5.25-.51,2-.1,4.59-.62,5.09,2.22.58,3.32-2.17,4.59-4.55,4.47-7.68-.38-14,4.66-21.42,4.94-4.35.17-6.66,2.44-6.32,6.67.35,4.38,3.55,5.25,7.5,5.68,4.63.5,12.66-2.83,13.2,1.29.9,6.84-8.09,3.68-12.24,6.41s-10,2.52-8.48,10.43c2.15,11.1,5.45,12.85,15.63,7.41,2.47-1.32,5.12-7,8.35-2.15,2.17,3.26-1.87,5.37-4.5,7.14-6.4,4.3-11.64,13.89-20.68,8.59-8.12-4.77-7.53-14.8-9.63-23.33C956,235.13,961.58,225,957.26,215c-2-4.61,1.83-6.21,5.7-6.58,9.44-.88,18.9-1.6,28.35-2.39Z"/><path d="M798.06,221.21c13-2.17,26-4.39,39-6.48,2.56-.41,6-2.38,7.4,1.23,1.15,2.86-.46,5.5-3.51,6.75-6.23,2.56-3.39,7.57-3.26,11.85.24,8.06-1.15,16.62,3.58,23.66,3.63,5.41.32,8.49-2.09,12.2-1.17,1.81-2.91,3.57-5.23,2.52-4.49-2-5.26-6.32-5.51-10.66-.46-7.72-.92-15.46-1.15-23.19-.25-8.24-3.31-12.49-12.4-10.43A152.32,152.32,0,0,1,794.13,232c-3.69.32-9.53,3.34-10.66-2.75-.86-4.67,5.48-5.51,8.28-8.4,1.15-1.18,4-.69,6.11-.95Z"/><path d="M767.6,247.43c.06,9.35-8.16,18.77-17.72,20.29-7.68,1.22-16.49-5.82-18.51-15.48-2.15-10.31.3-20.26,3.55-30,1-3,3.1-4.5,6.47-4C749.66,219.37,767.55,239.26,767.6,247.43ZM740.33,243a39.92,39.92,0,0,0,1.2,7.12c1.54,4.71,4.16,8.38,10.07,6.62,5.72-1.71,8-5.34,6.24-11.28-.88-3-1.48-6-4-8.35-2.95-2.65-4.38-8.47-9.5-6.54C739.62,232.34,740.63,237.63,740.33,243Z"/><path d="M410.94,265.3c-11.71-.77-21.23-6.72-30.28-13.43-5.79-4.31-9.5-6.26-10.39,3.71-.27,3.07.57,10-5.86,8.44-5.27-1.3-6.93-5.88-5.39-11.83,2-7.82,2.27-15.8-1.55-23.49-1.4-2.81-2.29-6.47.76-8.72s5.32.2,7.06,2.53c4.79,6.44,7.46.62,9.46-2.15,5.69-7.85,13.3-8.63,21.62-6.71,3.54.81,8.67,1,9.29,5.65.86,6.3-3.15,11.16-6.88,15.91-2.56,3.26-11.13,1.58-8.53,8.28,2,5.1,7.71,7.89,13.4,9.13a53.47,53.47,0,0,0,8.25,1.12c3.73.21,8.6-1.13,8.15,5C419.66,264,415.77,265.59,410.94,265.3Zm-16.35-40.39c.09-2.9-1.58-4.51-3.79-4.39-5.12.3-9.72,2.7-12.2,7-1.47,2.58,1.36,4.47,4.17,4.44C388.12,232,392,229.24,394.59,224.91Z"/><path d="M136.74,248.35c1.1-9.89,2.46-21.1-3.68-31.49-1.36-2.3-1-5.24,2-6.09,5.07-1.45,10.23-.81,13.09,4.06,5.43,9.27,14,15.7,20.55,23.91,2.72,3.4,5.52,6.83,10.44,5,4.2-1.58,3.18-5.64,3.58-9.08.89-7.69,2-15.25-1-22.86-1-2.53-2.43-6.89,2-8,4.19-1,5.9,1.68,6.51,6,1.72,12.08,4.55,24-.13,36.13-4.57,11.81-9.6,13.61-19.52,5.88-5.79-4.51-11-9.72-16.64-14.51-1.54-1.33-3.31-3.11-5.58-2s-1.83,3.53-1.78,5.6c.17,7.64,2.48,15.32-1,22.86-.85,1.84-.54,4.53-3.35,4.49-3,0-4.17-2.31-4.4-5C137.41,258.78,137.15,254.21,136.74,248.35Z"/><path d="M261.14,247.42c.07,10.07-9.64,18.87-20.28,20-14.88,1.51-22.49-18.18-23.22-33.58-.37-7.83,6.48-15.53,12.87-15.32C249.52,219.11,261,230,261.14,247.42Zm-8.47-3.16c-.25-8.21-2.68-15-12.44-14.72-5.67.15-12.77-.41-12.55,8.88.25,10.3,7.65,19.32,16.11,18.78C251.84,256.68,252.73,250.69,252.67,244.26Z"/><path d="M522.31,216.45c-15.32,12-15.54,17.31-2.88,30.51,2,2,3.52,4.49,5.69,6.23,8.11,6.52,10,14.38,4.75,23.3-4.08,6.87-17.35,10.69-25.64,7.54-6.34-2.41-11.88-6.15-14.63-12.9-.84-2.08-1.64-4.18.29-5.8,2.69-2.27,4.2,0,6,1.79,9.67,9.32,15.09,10.05,22.55,4.5,5.76-4.28,5.46-7.78,1.06-12.92-5.22-6.1-11.71-10.85-16.12-18-4.25-6.83-3.92-12.09,0-18.39C507.62,215.52,513.37,214.4,522.31,216.45Z"/><path d="M328.3,241.86c.08,7.94-3.59,14.44-9,19.63-4.91,4.74-10.12,5.89-16.69.7-11.86-9.35-12.6-22.89-15.56-35.7-.66-2.84,1.56-4.61,4.38-4.81,4.24-.29,6.9,1.82,6.85,6.12-.08,6.93,2.76,13,4.76,19.39,1.41,4.5,4.5,6.33,8.5,6.65,5,.41,6.35-3.48,7.16-7.51,1.87-9.33,4.85-18.92-6.48-24.86a3.29,3.29,0,0,1-1.39-4.56c.91-1.92,2.61-1.9,4.48-1.51,6.51,1.35,11,4.73,11.79,11.72C327.67,232,327.92,236.94,328.3,241.86Z"/><path d="M459.71,231.29c-5.07-.26-6.9-2.69-4-6.75a91.48,91.48,0,0,0,8.88-15.47c.8-1.74,2.21-3,4-2.76a4.86,4.86,0,0,1,3,2.45c1.35,2.59-6.36,21.43-9,22.27A12.13,12.13,0,0,1,459.71,231.29Z"/></svg>