<svg xmlns="http://www.w3.org/2000/svg" width="1424.1" height="2813.35" viewBox="0 0 1424.1 2813.35"><title>c24-txt</title><path d="M645.59,2681.64c-11.48,1-19.71-5-27-12.8-1.29-1.38-2.71-3.44-1.19-5.2,1.89-2.2,3.54.06,4.86,1.22a51.72,51.72,0,0,0,14.91,9.11c3.44,1.4,7.66.79,9.88-2.15,2.93-3.88-1.49-5.8-3.79-7.51a29.4,29.4,0,0,1-10.55-13.75c-2.16-6.08-5.47-6.27-10.47-4.31-2.7,1.05-5.73,1.26-8.37,2.41-4.62,2-13.47,1-13.35,5.41.17,6.42,4.35,13.48,11.17,16.89,3,1.48,5.22,2.68,4.39,6.34-.69,3.08-2.44,5.61-5.59,6.14-3.71.62-4.7-2.64-6.11-5.21a86,86,0,0,0-6.42-10.87c-2.57-3.4-2.94-10.28-8.71-9.11-6.41,1.3-13.57,2.95-16.59,10.38a23.36,23.36,0,0,1-2.06,4.41c-2.48,3.57-5.9,7.75-10.21,5.38s-1.06-6.76.48-10.26c3.51-8,7.61-15.91,10-24.27,1.79-6.22,7.13-7.23,11.05-10.11,3.47-2.54,5.31,1.67,6.33,4,4.39,10,10.85,11,20.26,6.63,5.4-2.5,11.34-5.23,17.83-4,3.23.62,4.68-1.15,5.85-3.82,2.82-6.48,9.56-7.25,15-9.8a3.5,3.5,0,0,1,4.92,1.82c1,2.43.36,4.68-2.07,5.74-4.46,1.92-9.94,3-10.09,9.09-.15,5.87,4.28,10,7.49,14.36a35.52,35.52,0,0,0,7.62,7.52c4.3,3.13,5.7,7,4.12,11.87s-5.76,4.52-9.73,4.42C648.19,2681.61,646.89,2681.64,645.59,2681.64Z"/><path d="M115.72,2787.84c-1.77,2.93,3.53,10.2-3.58,10.34-8,.16-4.14-7.25-4.23-11.42a70.51,70.51,0,0,0-3.21-20.11,64.39,64.39,0,0,1-2-9.46c-.26-1.68.36-3.43,2.3-3.68s2.8,1.36,3,3.09c.91,11.13,5.21,7.15,9.41,2,6.83-8.37,15.91-12,26.3-12.86,3.59-.31,8.59-3.21,10.21,2a11.31,11.31,0,0,1-4.29,13c-3.43,2.42-6.74,5.09-11,6.17-1.82.46-4.13,1.32-3.35,3.8a5.14,5.14,0,0,0,3.35,3c8.38,1.29,15.62,5.8,24,7.61,16.43,3.56,20.29-2.64,25.47-16.36,1.29-3.4,2.37-6.59,4.78-9.3,7.08-8,16.93-8.57,25-1.35a46.86,46.86,0,0,1,4.78,4.88c7.25,8.64,8.56,17.75,3.52,23.95-6.86,8.42-19,11.49-28.16,6.08-6.9-4.08-12.56-8.37-20.4-1.16-3.06,2.81-8.82,1.25-13.3.3a137.4,137.4,0,0,1-33.18-11.16C116.94,2770.14,115.66,2771.06,115.72,2787.84Zm90.1-3.2c6.94-.44,13.4-.94,15.55-7.48,2.38-7.23-1.29-13.32-8.06-15.49-4.53-1.46-5.9-9.31-11.75-6.13-6.58,3.58-9,9.76-8,17.33C194.63,2780.74,199.8,2783.63,205.82,2784.64Zm-58.74-32.92a31.53,31.53,0,0,0-19.66,5.12c-1.85,1.16-4.72,2.16-3.69,4.79s4.16,2.73,6.72,2.1C136.83,2762.17,141.93,2758.67,147.08,2751.72Z"/><path d="M612.75,2798.6c-15-.48-28.7-4.49-39.83-15-4.85-4.56-6.61-2.1-7.87,2.55-1.44,5.32-2.66,10.69-3.92,16.05-.68,2.9-1.06,6.07-5.29,5.36-3.57-.6-4.9-3-4.55-6.35,1.5-14.39.36-28.43-4.54-42.18-1-2.83-1-7.11,3.49-7.7,4.35-.57,5.27,3,5.56,6.42.44,5.17.54,10.38,1.06,15.54.17,1.77.43,4.21,3,4.22,1.89,0,2.35-2,3-3.43,2.06-4.4,4.62-8.64,6.06-13.23,3.6-11.53,23-16.5,34.46-12.88,7.11,2.26,7,18-.29,24.16-2.68,2.29-5.94,3.92-9,5.67-2.11,1.2-5.64,1.11-4.89,4.8.64,3.08,3.67,3.48,6.18,3.92,9.35,1.63,18.59,6.88,28.26,1,1.6-1,3.11-.56,3.82,1.42a5.23,5.23,0,0,1-1.2,5.44C622.62,2798.43,617.79,2798.85,612.75,2798.6Zm-35.62-23.76c5-.14,16.66-4.71,19.61-7.87,2-2.13,4-4.44,2.88-7.73-.79-2.34-2.49-3.53-5-4-7.53-1.44-19.1,4.88-22.47,12C569.43,2773,571.31,2775,577.13,2774.84Z"/><path d="M375.3,2620c5.51.24,11,.57,16.54.71,3.44.09,5.74,1.14,5.36,5.1s-2.56,4.54-6.14,3.66c-10-2.45-20,1.24-30.09.31-3.6-.33-6.85,1.76-6.94,5.41-.1,4.2,4,3.21,6.73,3.68,11.09,2,22,0,32.93-1.61,2.92-.42,6.11-1.62,6.52,3,.34,4-2,4.74-5.47,5-9.06.69-17.89,3.1-27.09,3.12-3.69,0-10.22-3.32-10.73,4.1s7.43,15.62,13.7,14.9c6.62-.76,12.54-3.17,16.79-8.8,1.72-2.27,2.7-7.59,6.83-4.51s-.23,6.41-2,9.09c-5.08,7.71-12.67,12.22-21.48,13.91-8.34,1.59-14.11-2.71-18.22-10-6.16-11-6.59-23.1-7.05-35-.33-8.55,7.67-10.35,14.21-11.56,5-.94,10.37-.19,15.58-.19Z"/><path d="M971.6,2668.78c.15-8.85-1.13-17.43-5.33-25.39-1.12-2.13-3.78-4.46-.94-6.83a4.93,4.93,0,0,1,7,.71c5.35,6.17,6.31,3.51,8-2.76s7.25-9.7,13.21-11.93c4.35-1.63,6.73.92,8.38,4.46,3.66,7.83,4.26,15.71-.79,23.14-3.11,4.59-1.78,7.13,3,8.72,6,2,12.23,2,18.31,1.44,5.46-.54,4.84-5,4.24-9.05-.39-2.65-2.72-6.65,1.48-7.34,4.69-.77,4,4.12,4.47,7,1.92,13.26-2.42,17.89-16,17.2a72.07,72.07,0,0,1-23.63-4.8c-10.07-4.06-11.83-2.59-12.25,7.87-.07,1.62-.08,3.26-.3,4.86-.34,2.44.16,5.79-3.75,5.52-3.42-.24-5-2.64-5.08-6C971.57,2673.32,971.6,2671.05,971.6,2668.78Zm25.69-30.41c.35-2.93,1.1-6.5-3.36-6.42-6.94.11-8.74,5.77-10.53,11.06-1.08,3.19.21,5.22,3.68,5C993,2647.59,996.8,2644.68,997.29,2638.37Z"/><path d="M529.12,2663.77c-.5-3.49,3.17-11.22-.94-16-4.83-5.61-11,2.77-17.06,1.84-1.54-.24-3.22.31-4.82.56-11.28,1.7-14.05,7.56-7.1,16.44,2.36,3,3.3,5.22,1.7,8.54-1.39,2.87-2.29,6.67-6.41,6-3.45-.55-3.78-3.66-4-6.82-1.16-14-7.09-27.53-4.71-42,.45-2.72-.91-6.61,3.22-7,4-.36,4.59,3.59,4.55,6.26-.16,11,5.46,11.71,14.3,9.42,7.56-2,17.41,1.58,19.88-10.51.6-2.91,4.23-2.16,6.71-.79,3.49,1.92,7.73,4.19,6.28,8.67-3.81,11.76-.31,24-3.16,35.74-.65,2.67-.76,5.05,1.18,7.29s2.75,4.54.68,7c-1.4,1.65-3.49,1.67-5.42,1.23-3.36-.75-4.76-3.23-4.81-6.44C529.05,2677.71,529.12,2672.19,529.12,2663.77Z"/><path d="M988.69,2764.7c-6.19,4.28-5.48,10-4.88,16,1.09,11-2,20.53-10.85,27.74-11.93,9.68-26.13,4.58-29.86-10.24-3.81-15.19-1.36-30.48-1.59-45.71-.06-3.64,3.69-3.61,6.76-3.75,13.84-.66,27.93.2,40.61-7.33,3.18-1.89,6.61-1.15,7.73,2.93,1,3.84-1.75,5.08-4.92,5.68-11.77,2.25-23.44,5.06-35.56,5.12-3.53,0-8.89-.56-8.55,5.27.28,5,5,4.24,8.42,4.28C966.9,2764.77,977.79,2764.7,988.69,2764.7Zm-8.94,17.1c.34-11.07-.6-11.9-11.27-10.58-3.84.48-7.87,1.45-11.54.75-8.39-1.62-10.68,1.57-8.9,9.28.43,1.88.35,3.87.68,5.79,1.06,6.2-.07,13.93,7.57,16.54,7.89,2.69,13.12-3.12,18.7-7.62C979.82,2792.07,979.12,2786.82,979.75,2781.8Z"/><path d="M494.65,2759.05c7.83,4.53,16,1.9,24.1.25,2.69-.55,5.28-1.82,6.24,1.85,1,4-2.37,3.8-4.78,4.33-7.88,1.73-15.52,4.59-23.88,3.78-3-.29-7.44-.41-8.28,3.4-1.21,5.51.52,11.15,3.77,15.59,2,2.78,5.88,1.95,9,.33,5.33-2.78,12-3.59,14.52-10.43.77-2.06,2.66-4.3,5.27-2.65,2.46,1.55,3.09,4.19,1.11,6.71A55.44,55.44,0,0,1,497.92,2800c-6,2.28-12.65.1-15.73-7.59-3.53-8.83-3.75-18-2-26.82,1.11-5.59-6.44-11.91.35-15.69,4.39-2.45,10.73-1.52,16.22-1.9,9.38-.66,18.74-1.28,27.77-4.31,2.45-.82,5.2-1.07,7.27,1.16a3.35,3.35,0,0,1,.27,4.45c-1.73,2.51-3.83,3.43-7.24,3.63-10.06.6-20.06,2.18-30.09,3.37Z"/><path d="M458.33,2768.57c2.9,5.39-4.77,14.86,6,19.28,2.12.87.4,4.07-1,6-1.77,2.43-3.74,4.61-7.08,4.45-3.11-.16-4.75-2.1-5-5-.61-8.07-1.35-16.15-1.48-24.23-.11-7.24-1.75-10.88-10.3-8.7-7.16,1.82-14.78,2-22.22,2.57-6.27.5-9.58,2.83-8.51,9.87.81,5.35-.72,11,2.53,16.09,1.76,2.77.51,5.7-1.5,8.07a4.23,4.23,0,0,1-5.3,1.13c-3.56-1.7-1.86-5-2.16-7.72-1.05-9.72,2.13-19.59-3.14-29.38-1.75-3.24,1.19-9.59-1.76-14.41-1.07-1.74.19-4,2.35-4.58,3.17-.86,5.54,1.19,5.62,3.85.32,10.51,7,9.72,14.25,8.85a99,99,0,0,1,14.61-.55c5.87.18,11,.12,11.93-7.66.27-2.29,2.11-5,5.23-5s4.19,2.74,5.44,5C460.65,2753.29,458.06,2760.52,458.33,2768.57Z"/><path d="M1039.51,2629.61c3.59,1.48,6.18,1.44,8.52,0,13.52-8.39,25.09-1.9,36.19,5.18,7,4.48,7,18.25,1.3,25.53-9.15,11.68-22.76,14.18-35.74,17.76-3.93,1.08-6.7-2.07-6.72-6.42-.06-12.69-.84-24.78-8.84-35.94C1029.65,2629.34,1036.41,2629.86,1039.51,2629.61Zm11.28,21.23c2.15,4.09-2.42,13.78,4.56,16.46,7.61,2.92,14.53-3.71,20.22-9.12,4.37-4.14,8-9,4.86-15.46-2.59-5.3-15.53-9.45-22.86-7.3C1050.9,2637.39,1050.31,2642.93,1050.79,2650.84Z"/><path d="M789.92,2658.12c-.36,7.84-1.2,14.3,4.37,19.54,2.83,2.65,2.34,6.18-.91,8.34s-5.43-.86-7.24-3c-4.89-5.67-2.74-13.11-4.41-19.64-1.53-6-3.8-7.57-9.5-5.51-6.38,2.29-12.89,4.32-19.45,6-5.49,1.4-7.57,3.73-5.72,9.7,1.42,4.57,5.14,9.85-.31,14.33-1,.81-3.68,1.09-4.45.39-4.08-3.78-5.29-8.57-4.12-14.1.89-4.25.12-7.62-5.14-8.65-5.77-1.13-7.15-4.56-1.39-7.15,6-2.69,5.39-6.19,3.89-10.95-1-3.28-2.89-7.49,3-8.1s5,4.19,4.72,7.41c-.7,8.4,1.73,11.54,10.51,8.38,4.79-1.72,10.22-1.59,15.26-2.75,4.74-1.1,11.41-1,7.3-9.46-1.06-2.16.31-4.59,2.79-5.44s3.8.67,5.55,2.54C790,2645.73,791.85,2652,789.92,2658.12Z"/><path d="M270.93,2653c0-4.87-.05-9.74,0-14.61,0-3.1.84-5.88,4.31-6.8s5.33,1.09,6.88,3.93c3.8,6.95,9.35,12.54,15.23,17.61,9,7.75,15.42,5.26,17.41-6.36.93-5.44,1.74-10.94.9-16.51-.47-3.09.66-5.06,4-5.3,3.11-.22,5.83,1.2,5,4.28-3.2,11.22-.6,23.35-6.18,34.27-3.53,6.89-8.36,8.06-14.26,4.94-5.65-3-10.7-7.13-15.91-10.9-1.47-1.07-2.26-3.54-4.68-2.24-2.12,1.14-1.5,3.36-1.55,5.25s.55,4.19-.25,5.72c-1.57,3-2.94,7.37-7.17,6.94-5-.49-4-5-4.11-8.52-.09-3.9,0-7.8,0-11.7Z"/><path d="M931.79,2647.54c-.74,3.53-3.72,3-6.14,3-5.53,0-6.51,2.23-3.29,6.46,2.71,3.56,4.19,7.86,7.88,10.93,3.25,2.69,4.15,7.58.41,10-3.19,2.11-6.78-.47-8.54-4.14-1.13-2.34-1.85-4.92-3.23-7.08-2.74-4.27-1.78-12.78-9.09-11.81-7.14.95-15.79,2-17.76,12-.48,2.42-2.3,4.6-3.65,6.8s-3.35,3.14-5.82,2.14c-3.37-1.36-2.5-3.93-1.7-6.53,3.31-10.83,6.93-21.49,12.07-31.68,4.81-9.53,12.62-11.06,18.14-1.83,4.11,6.87,7.32,12,16.27,8.82A3.56,3.56,0,0,1,931.79,2647.54Z"/><path d="M252.79,2768.92c0-4,.2-7.62-.06-11.17-.24-3.34-.73-6.66,2.92-8.48s6.42.32,8.81,2.43c5.32,4.72,10.61,9.39,16.74,13.12,9.54,5.8,14,4.82,19.38-5,1.22-2.25,1.74-4.88,2.92-7.16,1.07-2.05,2.66-3.67,5.41-3.29s3.55,2.1,4.19,4.56c2,7.83,4.44,15.56,6.51,23.39.92,3.5,1.56,6.83,5.43,8.57,4.8,2.16,2.52,4.85.27,7.59-2.77,3.39-5.12,1.73-7.29-.48-4.95-5-3.84-12.19-6.13-18.2-4.41-11.51-5-12-12.19-2.73-5.28,6.82-9.82,8.23-16.58,2-4-3.67-9.15-6.09-13.75-9.12-2.25-1.48-4.71-2.73-7.26-1.51-3.32,1.59-2.49,4.82-2.35,7.73.23,4.53.42,9.07.33,13.6,0,2.46-1.27,4.47-4.15,4.37-3.2-.12-4.57-2-4.32-5.14C252,2778.81,252.43,2773.63,252.79,2768.92Z"/><path d="M841.82,2778.1a55,55,0,0,1-.65,7.5c-1,4.89-3.55,6.5-8.43,4a59,59,0,0,1-17.35-13.89c-1.26-1.46-3.06-3.91-5.74-2.38-2,1.12-1.66,3.37-1.66,5.28,0,5.23,0,10.47-2.38,15.28-1.14,2.36-.66,7-4.7,6s-4.65-4.89-3.74-8.79c.74-3.17,1.53-6.33,2.06-9.53a31.24,31.24,0,0,0-2.93-19.89c-1.91-3.69-3.72-6.82,1.21-9.85,5.11-3.14,7.21.77,9.42,3.64a156.61,156.61,0,0,0,19.2,20.67c1.9,1.73,3.74,4.06,6.71,2.43,2.72-1.48,2.74-4.17,2.32-6.87-.94-6,.13-12.44-3.54-18-1.37-2-1.11-4.4-.51-6.61s1.23-4.63,4.18-4.63c3.36,0,4.33,2.23,4.43,5.19.15,4.87.29,9.75.62,14.62S841.24,2772,841.82,2778.1Z"/><path d="M89.87,2664.66c.75,9.44-.66,10.41-9.08,7.34-11.19-4.09-20.19-11.62-29.64-18.47-1.72-1.25-3.45-3.7-5.87-1.75-1.62,1.31-1.18,3.6-.83,5.53,1.23,6.73,2.34,13.47,1.6,20.34-.29,2.7-1,5.51-4.21,5.7-3.86.22-3.51-3-3.65-5.55-.78-14-1.58-27.89-2.23-41.83-.11-2.51-.28-5.82,2.87-6.53s2.65,3,4,4.44c10.26,11,19.42,23.38,34.73,28.3,5.09,1.63,5.74-.64,5.16-4.74-1.23-8.69-2.59-17.36-3.54-26.08-.29-2.62-.82-6.78,3.11-6.86,3.39-.08,2.9,4.07,2.8,6.24C84.59,2642.62,89.6,2653.67,89.87,2664.66Z"/><path d="M686.45,2779.57c.91,3.26-1.74,3.58-2.92,4.86-5,5.43-5.09,10.43,1.46,14.48,8.77,5.42,17.85,8.67,28.57,5.41,9.38-2.86,4.79-6.74.88-9.57-11.32-8.16-18.42-18.84-22.13-32.21-1.65-5.93-1.67-11.06,3.63-14.8,5.76-4.06,12.19-4.1,18.62-1.68a3.43,3.43,0,0,1,2.34,3.86c-.53,2.46-2.56,2.35-4.61,2.37-15.18.09-17.55,3.92-11,17.73,5.16,10.87,13.54,19,23.22,25.67,3.38,2.32,5.1,4.29,5.15,8.35.05,4.9-3.57,6.13-6.85,6.89-15.77,3.63-30.39-.51-43.71-8.58-4.81-2.91-8.66-9-5.26-15.23C676.27,2782.69,679.88,2777.91,686.45,2779.57Z"/><path d="M41.34,2762.26c-.22-3.2-.39-5.46-.51-7.73-.29-5.31-1.25-8.58,7.53-7.17a54.35,54.35,0,0,0,27.49-2.6c2.43-.93,4.87-2.42,7.26-.3a4.43,4.43,0,0,1,1.33,5.32c-1.51,3-4.37,3.65-7.49,3.25-9-1.15-17.25,2.55-25.83,4.06-3.37.59-5.47,2.59-4.66,6.08.89,3.85,3.91,2.29,6.35,1.84,7.64-1.43,15.25-3,22.92-4.19,2-.31,5.14-1,5.58,2.11.41,2.85-2.39,3.4-4.6,3.87q-11.38,2.41-22.78,4.73c-2.92.6-6.85,1.3-5.69,5,2.32,7.38-2.34,16.61,6.28,22.41,2.65,1.78-1,12.2-4.24,12.66-4.7.68-4-3.15-4.38-5.82-1-7.39-2.2-14.77-2.67-22.2S40.21,2768.89,41.34,2762.26Z"/><path d="M897,2804.53c-16,.16-29.23-18.65-23.49-33.7a68.47,68.47,0,0,1,6.71-12.94c5.4-8.23,11.16-8.3,17.57-.35a60.6,60.6,0,0,1,6.29,9.76c1.07,2,1.36,4.67-1.43,5.83s-4.34-.51-5.12-3c-1.39-4.34-3.55-8.51-8.74-7-5.44,1.64-9.5,5.34-10,11.81-.89,10.64,7.89,20.43,18.58,20.46,12.67,0,22-6.39,26.35-18.27.72-2,1.34-4.17,3.75-3.19,2,.81,1.7,3.24,1.5,5.2C927.67,2791.52,911.43,2804.39,897,2804.53Z"/><path d="M220.25,2668c-7.17.82-13.54-2.69-19.34-6.78-7.59-5.34-7.9-15-1.36-21.78,13.83-14.34,38-9.36,44.54,9.27,2,5.78,1.32,11-4.84,14C233.42,2665.58,227.48,2668.28,220.25,2668Zm1.29-8c1.76-.3,3.35-.6,5-.83,3.79-.54,8.26-.25,9.33-5.18,1-4.45-2.17-7.12-5.27-9.61-1.26-1-2.28-2.47-3.69-3.11-6.79-3.11-13.62-3.86-20.28.46-2.76,1.78-3.89,4.36-3,7.5,2,7.26,8.72,7.89,14.37,9.95A26.84,26.84,0,0,0,221.54,2660Z"/><path d="M130.13,2669.78c-17.42-.19-25.67-13.85-17.68-26.2,3.8-5.88,9.46-10.56,14.37-15.69a4.75,4.75,0,0,1,2.66-1c7.54-1.1,23.14,11.13,25.43,19.89,2.2,8.44-3.24,16.53-14,20.24A106.85,106.85,0,0,1,130.13,2669.78ZM129,2661.6c11.17-.22,19-5,18.94-11.43-.09-5.61-9.37-14.71-14.94-14.65-6.9.07-17.47,11-16.8,17.74C117,2661.29,123.5,2661,129,2661.6Z"/><path d="M867.56,2643.57c-12.41,2.08-22.68,9.76-35.19,11.73-3.29.52-8.64.29-8.56,4.73.11,5.93-.93,13,3.44,17.59,3.75,3.92,8,.33,10.63-3.06,1.73-2.23,2.32-5.31,3.64-7.9.74-1.45,2-2.75,3.91-2a3,3,0,0,1,1.58,4.11c-2.28,6-3.76,12.49-9.9,16.25-8.91,5.46-15.46,3.24-18.7-6.53-3.18-9.57-2-19.39-1-29,.36-3.49,2.76-9.83,7.68-2.47,2.3,3.44,5,2.26,7.73,1.59,11.22-2.73,22.41-5.53,33.62-8.31C866.81,2641.39,867.19,2642.48,867.56,2643.57Z"/><path d="M765.41,2774.41c.38,6.54-1.67,13.34,5.48,18.51,3.32,2.39.12,7-2.94,8.77-3.87,2.27-6.7-1.07-7.21-4.11a159.14,159.14,0,0,1-1.82-35.9c.12-2,1.37-4,3.6-4,3.45,0,2.79,2.91,2.85,5C765.5,2766.6,765.41,2770.5,765.41,2774.41Z"/><path d="M823.74,2640.47c-2.44.44-4.66-.34-5.34-2.8-.81-2.92,1.57-4.05,3.81-4.56,11-2.48,22.48-1.63,33.31-5.39a4.44,4.44,0,0,1,5.84,3.68,3.21,3.21,0,0,1-3.31,3.9C846.19,2634.51,835.47,2640.62,823.74,2640.47Z"/><path d="M131.13,2167.54c-.65-8.86-.16-17.81-3.16-26.42-.81-2.33-.77-5.46,2.27-6,3.6-.69,3.22,2.72,3.7,5,.06.26.05.54.11.8.82,3.54-1.67,9,2.45,10.3,4.27,1.39,5.24-4.39,7.47-7.08,6.1-7.37,15.23-8.32,23.3-9.78,5.35-1,3.74,5.36,1.9,8.34-2.56,4.11-7,5.64-11.83,6.14-4,.42-9.13.69-9.22,5.93-.08,4.88,4.95,6.23,8.78,7,9.78,1.84,19.66,4.09,29.37-.9,1.88-1,5.2-1.82,6.06,1.58.78,3.14-1.56,5.41-4.3,5.93-14.29,2.71-28.88,3.59-41.93-3.51-6.45-3.51-6.12-.47-6.73,3.56-.54,3.47-.84,7-1.13,10.5-.18,2.16-1,3.77-3.33,3.69a3.64,3.64,0,0,1-3.73-3.59C131,2175.13,131.13,2171.34,131.13,2167.54Z"/><path d="M24,2164.41a48.08,48.08,0,0,0,3.76,10.85c1.39,2.84.51,6.63-2.57,7.61-4,1.28-4.76-2.56-5.17-5.49-1-7.26.24-14.61-4.23-21.71-1.51-2.38,1.29-8.91,1.48-13.66,0-.6,1.56-1.62,2.38-1.62,2.13,0,2.66,1.92,2.43,3.48-1.16,8,4.08,7.1,9.12,7,4.59-.1,9-1.67,13.71-1,3.48.5,5.65-1.5,5.69-5.21,0-2.79.15-6.24,3.46-6.19,3.69.06,2.71,4.17,3.12,6.53,1.15,6.65,1.72,13.39,2.69,20.08.59,4.08-.25,8.44,4.35,11.48,2.74,1.82.94,5-1.42,6.76-2.62,2-4.45.63-6-1.7-3.34-5-2.81-11-3.25-16.52-.57-7.08-1.55-11.5-10.48-8.23-4.67,1.71-10.13,1.27-15.25,1.75C24.59,2158.93,22.62,2160.16,24,2164.41Z"/><path d="M100.47,2139.85c-4.22.85-8.48,1.53-12.65,2.6-2,.52-4.51,1.62-3.54,4.4.86,2.48,3.28,2.45,5.55,2a9,9,0,0,1,1.57-.4c2.39-.07,5.24-4.76,6.78-.89,1.67,4.2-3.46,3.48-5.8,4.72-3,1.57-8.57.47-7.41,6.44,1.12,5.75,1.4,12.56,7.71,15.15,5.18,2.13,8.52-2,11.07-6.07,1-1.57,1.36-4.06,3.9-2.76,2.37,1.2,2.55,3.54,1,5.5-2.54,3.1-4.37,6.7-7.9,9.13-6.91,4.76-13.68,3.4-17.23-4.22-4.06-8.68-6.16-18.06-5-27.42.48-3.82-3.89-8.22.55-11.07,3.46-2.22,8-.46,11.93-1,4.28-.62,8.54-1.33,12.8-2,2-.34,4.89-3.38,5.53,1.09.43,3-1.39,5.18-4.68,5.49-1.34.13-2.7,0-4,0Z"/><path d="M653.11,2022.82a9.54,9.54,0,0,0,8-2c2.05-1.45,4.33-5,6.77-.66,1.66,3,.33,5.63-2.37,7.32-5.41,3.39-10.86,6.47-17.73,4-12-4.28-25.08-6.6-33.23-18.07a3.94,3.94,0,0,0-3.2-1.44c-1.71.36-2.15,2.16-2.16,3.78,0,4.08.6,8.16-1.46,12.07-1,1.89-1,4.93-3.9,4.38-2.36-.44-3.07-3-3.26-5.31-.51-6.3-.55-12.66-1.47-18.89a73.82,73.82,0,0,0-3.76-13.66c-1.14-3.29-.24-5.85,2.36-7.42,3.45-2.09,4.27,1.37,5.29,3.43,2.93,5.94,4.61,4,7.35-.42,5.74-9.37,19-13.9,29-10.47,4.89,1.68,5.68,5.35,4.53,9.9-2,7.79-8.35,11.59-14.3,15.71-2.26,1.57-5.62,2.07-4.9,6,.58,3.12,2.82,5,5.6,5.93C638.08,2019.62,645.89,2022.18,653.11,2022.82Zm-22.24-36.68c-2.52.42-4.43.58-6.25,1.08-6.46,1.77-9.61,6.8-11.9,12.53-.51,1.27.12,2.94,1.38,3.07,5.47.59,9.7-2.23,13.65-5.55,1.92-1.62,4.21-3,5.58-5C635.63,1988.82,635.14,1986.17,630.87,1986.14Z"/><path d="M390.42,2046.28c-6.3-9.48-2.29-20.22-6.72-29.18-2.34-4.75-3-10.31-4.87-15.31-1.59-4.16-1.08-7.18,2.5-10,4-3.11,5.81-.31,8.71,1.94a258.67,258.67,0,0,0,39.24,24.67c2.36,1.23,5.51,2.85,8,.75,2.31-1.94.53-4.8,0-7.16-1.58-7.09-2.7-14.31-5.74-21-.92-2-2.53-5.16,1.26-6.29,2.56-.76,4.63,1.47,5,3.42,2.44,12.37,7.35,24.35,7,37.11-.1,4-.9,8.93-8.26,4.16-12.07-7.81-25.31-13.81-38.16-20.39-6.13-3.14-7.7.38-6.44,5.53,1.68,6.85,2,13.75,2.36,20.71C394.61,2039.09,394.54,2042.76,390.42,2046.28Z"/><path d="M538.9,2002.88c-1.71,8.17,2.19,14.75,5.19,21.17,2.44,5.23,7.68,6.16,13,3.27a19.48,19.48,0,0,0,5.16-30.51c-2.1-2.28-5.13-4.13-3.64-8a5,5,0,0,1,4.27-3.31c4.51-.44,4.66,3.61,6,6.17,8.58,16,7,29.29-4.77,40.48-9.24,8.82-18,8.11-25.43-2.32-7.12-10.07-7.16-22-8.24-33.61-.27-2.85,1.72-3.91,4.16-4.08s4.52,1,4.73,3.58A42.82,42.82,0,0,1,538.9,2002.88Z"/><path d="M507.32,2012.47c1.94,8.37-11.35,19.7-21.15,21.13-8.11,1.18-18.84-7.4-20.7-16.36a126.25,126.25,0,0,1-2-15c-.39-4.65,2.53-7.73,6.14-9.93,2.22-1.35,5.18-1.56,7,.76s-.7,3.77-2.1,5.42c-6.71,7.91-5.49,16.31,3.34,23.69,6.09,5.09,15.49,3.58,21-3.37s-1-21.07-10.87-23c-3.15-.62-7.26-.07-6.4-4.64s5-4,8.55-3.33C499.09,1989.55,507.47,2001.59,507.32,2012.47Z"/><path d="M782.51,1993.8c.67,7.23,1.44,15.42,2.2,23.62.44,4.79-1.17,9-4.89,11.79-4.45,3.33-6.92-1.56-9.57-3.61a144.2,144.2,0,0,1-17-14.95c-4.42-4.69-6.66-5.14-8.9,1.51-2.11,6.27-4.94,12.3-7.4,18.46-1,2.45-2.32,5-5,5.23-3.64.25-4.36-3.32-5.06-5.89-3.3-12.21-6.36-24.48-9.47-36.73-.54-2.1,0-3.89,2.23-4.52,2.44-.69,3.21,1.22,4,3,2.89,6.41,3.69,13.32,5.11,20.11.57,2.76-.39,7.26,4.1,7.45,3.67.16,3.76-3.77,4.61-6.32,1.4-4.17,2.21-8.55,3.69-12.7,3-8.27,4.69-8.48,10.52-2.29,5.42,5.76,11.11,11.27,16.73,16.85,2,2,4.35,4.31,7.43,2.79,3.5-1.73,2.92-5,2.42-8.33-.95-6.26-1.64-12.57-2.12-18.88-.27-3.45-.34-8.29,4.16-8.14,4.77.16,1.74,5,2.36,7.73C782.88,1990.87,782.61,1991.87,782.51,1993.8Z"/><path d="M813.13,2025.06c2.81-16,7.37-29.24,15.24-41.22,3.09-4.72,6-4.14,8.57.14a31.51,31.51,0,0,1,3.21,7.9c1.61,5.8,4.91,6.86,10,4.1a31,31,0,0,1,5.92-2.87c1.66-.48,4.07-.94,4.54,1.68.35,1.94-1.57,2.45-3,3a9.09,9.09,0,0,0-1.81.54c-3.05,2-8.94,1.59-8.74,6a10.08,10.08,0,0,0,8.88,9.67c3.9.49,4.41,2.88,4.65,5.9s-1.43,4.82-3.82,5.94c-3.48,1.63-5.42-1.21-7.07-3.28-2.35-2.94-3.85-6.55-6.16-9.53s-2.85-9.06-8.4-7.3c-5.39,1.71-10.5,4.82-11.41,11.42-.43,3.18-1,6.24-2.83,9-1.37,2-3.13,3.22-5.6,2.47C812.14,2027.6,813.11,2025.16,813.13,2025.06Z"/><path d="M881.17,2018.72c5.37-1.43,8.72,3.51,13.4,3.83,3.13.22,6.81,2,8.51-1.55,1.53-3.23-2.08-5-4.18-6.63-7.41-5.92-11.46-13.5-11.14-23,.31-9.28,8.39-18.17,16.31-18.44,3.29-.12,7.16.68,7.62,4.22.52,4-3.7,2.16-5.76,2.75-5,1.43-10.33,2.58-10.83,8.94-.68,8.56,1,16.67,8.63,21.84,4.41,3,9.5,5,14.44,7.17,2.48,1.07,4.88,1.9,4.75,5s-2.12,5.3-4.77,6.62C909.52,2033.84,887.85,2027.56,881.17,2018.72Z"/><path d="M256.81,2015.54c-.55-4.71-1.11-9.41-1.64-14.12-.29-2.55-.61-5.14,2-6.85,3-2,4.3.88,6.41,2,11.8,6.47,21.88,15.93,35.72,19,8.59,1.91,9.61-.94,7.91-8-1.25-5.23-2.32-10.51-3.28-15.81-.51-2.78-1.1-5.92,2.28-7.43a6.07,6.07,0,0,1,4.5-.31c3.52,1.71.48,4.41.48,6.64a72.78,72.78,0,0,0,4,24.17c1.15,3.34,2.34,6.92,0,10-2.67,3.5-5.73.22-8.64-.2-12.81-1.84-24-7.71-35.16-13.79-2.23-1.23-4.5-3.4-6.88-1.69s-1.18,4.59-.81,7.1c.87,6,2,11.91,2.14,17.89.09,2.71.26,7.26-4.31,7.06-3.48-.16-3.9-3.91-4.15-6.66-.56-6.31-.72-12.65-1-19Z"/><path d="M77.07,2007.73c0-4.77-.36-7,.1-9.14a4.18,4.18,0,0,1,5-3.32c2.7.4,4.22,2.79,3.22,4.81-6.46,12.93-3.24,27.45-7.09,40.85-1.88,6.58-4,7.18-8.61,2.9-3.72-3.43-7.42-6.88-11.07-10.39-2.23-2.14-3.79-5.89-7.37-5.23-3.85.71-3.28,4.86-4.27,7.75-1.34,3.88-2.52,7.9-4.49,11.45-2.42,4.37-5.77,4.13-7.45-.51-4.94-13.66-9.55-27.44-14.1-41.24-.93-2.83-.69-6.31,2.88-7,4.29-.78,4.47,2.62,5.1,6,1.75,9.29,4,18.49,6.26,27.69.48,2,.76,4.76,3.81,4.54,2.21-.17,3-2.11,3.4-4,.73-3.05,1.77-6.08,2-9.17s.5-6.1,3.4-7.28c3.73-1.51,5.91,1.83,7.69,4.21a67.33,67.33,0,0,0,10.28,11.12c1.89,1.6,3.51,4.14,6.45,2.68,2.18-1.08,2.57-3.38,2.78-5.69C75.75,2020.91,76.55,2013,77.07,2007.73Z"/><path d="M158.82,2015.19c-.38,6.33-.93,12.6,2.72,18.45,2.26,3.64.43,7.9-2.71,8.78-4.14,1.15-5.58-3.4-5.91-6.7-.71-7.24-.71-14.54-1.14-21.81-.28-4.88-2.07-7.86-7.83-6.17-3.63,1.06-7.56,1.13-11.15,2.31-11.39,3.73-12.07,5.68-8.7,17.18,1.49,5.13,2.76,10.9-.26,15.74-2.23,3.57-6.22-1.1-6.76-8.83-.11-1.59-.12-3.18-.11-4.76,0-9.45-6.09-18-4-27.75.44-2.06-.61-5,2.25-5.56,3.15-.58,3,2.16,3.32,4.42a7,7,0,0,0,1.74,4.13c3.58,3.21,28.1-3,29.67-7.54.73-2.14.61-4.66,3.7-4.4,2.23.2,2.51,2.38,3.42,4C160.33,2002.67,159.78,2008.89,158.82,2015.19Z"/><path d="M228.05,2005.42c-9.75,6.28-20.7,6.59-31,9.28-3.05.79-5.89,1.28-5.75,4.87.21,5.31-.17,11.1,4.69,14.87,3.92,3,6.12-1.24,9.1-2.51,3.73-1.59,5.64-10.27,9.69-5.79,4.27,4.7-3.41,8-6.66,10.39-3.9,2.92-7.47,9.15-13.12,6.91-6.89-2.72-8.72-9.87-8.87-16.69-.23-10.1.4-20.22.53-30.33,0-2.92,1.6-4.45,4.09-3.82,8.81,2.27,16.89-1.44,25.29-2.56,3.49-.47,6.94-.68,10.15,4.19-9.16,1.76-18.15,1-26.12,4.65-2.25,1-5.13.87-6.58,3.36s-2.77,5.29-1.12,8.08,4,.5,6,.17C208.23,2008.85,218.14,2007.12,228.05,2005.42Z"/><path d="M637.2,2174.84c-13.52-.85-26.67-2.59-36.85-11.48-1.41-1.23-2.85-3.16-5.36-2-2.33,1.08-1.53,3.22-1.63,5-.22,3.93-.17,7.88-.6,11.8-.21,2-.58,4.58-3.9,4.46-2.91-.1-4.05-2.23-4.27-4.42-.62-6-1.06-12-1.52-18.07-.55-7.29,0-14.73-5.08-21.29-1.47-1.9-1.12-4.33,1.59-5.37s4.59.66,5.64,2.73c2.25,4.43,1.94,9.25,2.62,13.91.2,1.33.18,2.84,2,3.14,2.64.43,2.73-1.38,3-3,.89-5.63,4.13-10.28,8.26-14.58,5.23-5.44,18.58-7.38,25.23-3.6,4.63,2.63,4.08,11.29-1.34,16.11a25.89,25.89,0,0,1-10.58,6.05c-2.64.7-6,1.77-6.29,4.08-.43,3.22,3.84,3.58,6.29,4.87a48.55,48.55,0,0,0,23.46,5.7c3.36,0,6.86.67,8.47-3,.77-1.75,2.27-2.55,4.23-1.4,1.77,1,1.68,2.61,1,4.22C648.91,2174.55,643.38,2175.22,637.2,2174.84Zm-13.8-35.73c-.08-1.73-.79-2.89-3-3.38-6.67-1.48-18.42,3.12-20.95,8.8-1.11,2.48-3.74,5.76-.63,8,2.52,1.83,5.79-.2,8.46-1.4a58.7,58.7,0,0,0,13-7.37A8.73,8.73,0,0,0,623.4,2139.11Z"/><path d="M243.81,2158.37c0-2.89-.18-5.26,0-7.61.28-2.9-2.51-7.21,1.88-8.3a12.61,12.61,0,0,1,11.53,3.46c4.7,5.06,8.88,10.48,13.24,15.77,4.58,5.56,9,6.06,12.37.06,3.79-6.81,12.28-11.28,12.77-19.63.11-2,2.33-3.26,4.46-3.42,2.77-.2,3.22,1.93,3.62,3.77,1.68,7.7,3.17,15.43,5.12,23.08.9,3.56.19,7.95,6.32,9.39,3.38.79,1.48,3.49.62,5.33-.93,2-2.38,3.91-5.25,3.76a5.71,5.71,0,0,1-5.59-4.53c-1.37-6.44-2.26-12.95-3.55-19.4-.53-2.67.27-6.67-3.95-7.08s-4.41,3.68-5.91,6.1c-.43.7-.63,1.49-1.09,2.17-3.69,5.4-6.8,12.73-14.34,13.22-6.53.44-8.7-7.08-12.81-11.11-3.2-3.14-4.92-10.32-9.57-8.74-4.88,1.65-.67,8-.57,12.21a109.69,109.69,0,0,0,1,11c.35,2.76.57,5.78-3.29,6.36-4.31.64-4.52-2.53-4.81-5.22C245.28,2171.94,244.51,2164.9,243.81,2158.37Z"/><path d="M491.78,2156.52c0,2.36-.16,4.73.05,7.08s-2.1,5.65,1.24,7.29c3.92,1.91,4.69-2.25,7-3.55,1.26-.71,2.58-1.8,4-.63,1.87,1.51.37,2.91-.75,4.07-2.14,2.2-4.59,4.19-6.64,6.44-1.89,2.08-3.42,4.81-7.15,3.66-3.24-1-4.12-3.68-4.28-6.43-.43-7.33-1.13-14.65-1.11-22,0-4.84-2.38-6-7.36-5.17-3,.53-6,1-9,1.36-11.25,1.23-13.55,4-11,13.35.35,1.27.44,2.6.66,3.89.76,4.51.51,9.37-6.05,9.45-6.88.09-5.06-5.08-5.07-8.92,0-7.08-.6-14.15-.43-21.22.08-3.85,1-7.46,6.49-2.44,2.6,2.39,24.28-.17,28.48-2.89,6.4-4.14,10.21-2.86,11,4,.47,4.16.09,8.39.09,12.59Z"/><path d="M528.52,2142.63c12.61,4.43,25.2-2,38-.31-9.95,2.09-18.53,7.83-29.3,7.2-6.32-.37-9.1,1.66-8.15,7.35.52,3.09-.28,6.34.2,9.43.81,5.22,3.86,8.8,10.71,8.8,6.54,0,7-3.89,7.21-8.08,0-1,.27-2.09,1.82-2.32,4.44,7.54,2.36,13.22-5.95,16.28-8.62,3.17-17.69-.81-20.33-9.4-2.32-7.52-1-15.11.53-22.66.63-3.1,2.6-6.21-1.89-9.19-3.92-2.59-.91-4.82,2.71-5,12.83-.49,25.65-.72,38.36-2.57,2-.28,3.94.43,3.93,2.37,0,2.42-2.35,2.54-4.6,2.73-11.14,1-22.27,2-33.4,3.07Z"/><path d="M412.72,2162.28c.28-3.4.7-6.79.83-10.2.32-8.68-2.55-10.69-11.82-7.65-4.38,1.44-8.93,1.6-13.34,2.55-1.78.38-3.9.46-4.86-1.21-1.27-2.17,1-3.28,2.48-4.51,2.38-1.92,5.55-2,8.49-2.64,6.78-1.38,13.91-1.35,20.34-4.28,2.6-1.19,5.92-1.66,8.54.58s-.21,4.19-.71,6.33c-2.39,10.36-6.58,20.71-.16,31.21,1.7,2.78.3,5.63-2.37,7.84a4.33,4.33,0,0,1-5,.59c-3.26-1.56-3.13-4.06-2.93-6.82.27-3.92.07-7.86.07-11.79Z"/><path d="M333.47,2160.58c2.64-4.95-2-16,9-16.73,18.74-1.29,27,4.79,26.78,15.35-.2,8.68-12,18.46-22.27,18.48C339.19,2177.69,333.12,2170.67,333.47,2160.58Zm6.4-.45c.08,7.07,3.53,10.48,9.33,10.19,6.11-.3,13.73-6.85,13.7-11.77,0-4.48-7.52-10-13.6-9.53C340.68,2149.7,340.06,2155.37,339.87,2160.13Z"/><path d="M1263,2173.53c5.55.68,11,1.2,14-4.7.33-.65,1.9-1.13,2.82-1,1.71.17,2.17,1.63,2,3-.48,4.48-2.1,8.94-7.31,9.55-14.81,1.76-29.74,2.84-42.15-7.46-2.93-2.43-5-2.33-6.43,1-1.08,2.49-1.78,5.7-5.43,4.76s-2.18-4.38-2.41-6.87c-.84-9.17-.5-18.5-4.61-27.2-1.17-2.48-.76-4.83,2.19-6s3.67,1.15,4.9,3c2.16,3.3-.23,9.45,4.32,10.1,3.23.46,4.33-5.53,7.16-8.1,6.74-6.1,15.37-5.92,23.77-6.38,3.5-.2,3,2.33,2.87,4.48-.48,8.75-8.25,11.4-14.59,15.06-3.26,1.87-8.45,2.16-8.11,6.84.35,5,4.94,6.54,9.65,7.45C1251.4,2172.22,1256.93,2174.73,1263,2173.53Zm-15.45-27.92a2.77,2.77,0,0,0-3.22-2.1c-4.29.68-8.11,2.29-10.88,5.57-.89,1.06-1.53,2.61-.18,3.54,3.12,2.15,5.08-1.11,7.51-1.91C1243.54,2149.79,1246.84,2149,1247.54,2145.61Z"/><path d="M1029.12,2153.24c4.59-.93,4.44-4.2,5.78-6.33a22.83,22.83,0,0,1,27.16-8.88c3.85,1.42,5.65,3.61,5.62,7.77-.11,11.82-10.5,25.1-23.23,27.06-6.64,1-8.85,3.22-8.23,9.11.21,2-.47,4.18-.91,6.25-.4,1.91-1.27,3.66-3.81,3.45a4,4,0,0,1-3.83-3.63q-3.32-20.79-6.6-41.58c-.49-3.07.48-5.56,4-5.77,4.21-.25,3.84,3.08,4,5.66C1029.23,2148.43,1029.12,2150.52,1029.12,2153.24Zm24-9.85c-9.55.15-19.8,12.88-17.42,21.65,1,3.53,3.69,2.77,6,1.92,7.9-2.83,14.19-7.54,17.68-14.92C1062.44,2145.72,1060.53,2143.27,1053.16,2143.39Z"/><path d="M1106.7,2135.33c6.19-.48,12.42.31,18.54-1.39,2.57-.72,5.53-.13,5.79,3,.28,3.25-2.58,3.41-5.29,3.61-8.71.64-17.42,1.36-26.11,2.24-2,.2-5.25-.17-5.3,2.62,0,2.49,3,3.07,5.08,3.4a57.77,57.77,0,0,0,25.11-1.64c2.12-.6,5.2-1.85,6.09.45,1.22,3.15-2.55,3.53-4.72,4.32a57.61,57.61,0,0,1-28.29,2.8c-4.49-.67-5.87,0-4.9,4.15a31.69,31.69,0,0,1,.91,4.68c.45,5.51,1.45,10.84,8.14,12.51,7.11,1.77,11.71-2.34,15.93-6.9,1.48-1.59,1.87-5.69,5.08-3.69,2.46,1.53,1.15,4.91-.15,7.32-3.44,6.36-15.07,12.43-21.8,11.47-7.44-1.06-12.39-7.25-14.06-16.72a100.83,100.83,0,0,1-1.43-17.41c0-11.92,3-14.82,15.45-14.79C1102.75,2135.34,1104.73,2135.33,1106.7,2135.33Z"/><path d="M1002.39,2152c-.32,12.54-10,18.46-20,23.43-4.06,2-7.58,2.85-7.12,8,.18,2.06-.69,4.45-3.45,4.82-2.94.4-3.7-1.88-4.42-3.92-1.85-5.27-3.84-10.67-3.49-16.19a43.71,43.71,0,0,0-4.48-21.61c-1.5-3.21-2.48-6.48,1.78-8.05s3.8,2.22,4.7,4.53c1.45,3.73,4.26,1.79,6.09.58,5.44-3.6,11.53-4.05,17.81-4C998.81,2139.8,1002.71,2143.64,1002.39,2152Zm-30.27,7.1c.16,6.63,4.1,11.56,7.92,9.74,5.8-2.77,11-6.41,14.39-11.71,1.82-2.81,3-5.94-.95-8.23-5.18-3-10.37-1.32-15.26.62C973.94,2151.24,972.22,2154.84,972.12,2159.12Z"/><path d="M1383.71,2177.44c9.62-.7,18.73-1.86,26.12-8.06,8.44-7.09,10.32-14.47,4.94-21.37-6-7.68-21.58-11.44-29-6.71-6.11,3.89-4,9.95-3.68,15.35.24,3.67,1.36,7.29,1.75,11,.24,2.21-.59,4.46-3.28,4.83s-3-2-3.62-3.66c-3.57-10.49-1.52-21.63-4.2-32.24-.35-1.42.47-3.09,2.06-2.83,11,1.81,21.77-4.74,33.15.59,13.3,6.23,19.37,16.77,14.47,29-5.23,13.07-22.42,22.17-34.53,18.23A5.22,5.22,0,0,1,1383.71,2177.44Z"/><path d="M945.24,2149c-.57,2.58-2.62,3.22-5,3.19-8.59-.12-6.25,4-3.34,7.94,1.58,2.12,4.24,3.52,5.91,5.6,2.35,2.91,3.71,6.62-.14,9s-5.28-1.27-6.86-3.68c-1.77-2.7-3.35-5.52-5.19-8.18s-.91-8-6.92-7.58c-6.34.47-12.51,1.51-16,7.19-1.85,3-3.46,6-6.38,8.28-1.7,1.3-3.28,3.46-5.74,1.82a4.54,4.54,0,0,1-1.27-6.46c5.7-8.53,10-17.68,14.6-26.71,2.29-4.48,9.2-3.34,13.12-6.81,1.32-1.17,3.36,1.89,4,4.06,2.07,7.18,4.86,13.38,15.06,10C942.71,2146.17,945.12,2146.09,945.24,2149Z"/><path d="M1202.17,2153c-4.29,5.32-10.26.88-11.86,5.07-1.42,3.74,3.51,6.37,4.31,10a42.91,42.91,0,0,1,1.34,6.22c.14,1.92-.65,3.75-3.06,4.16a3.87,3.87,0,0,1-4.55-2.76c-.92-2.5-1.48-5.12-2.27-7.67-1.57-5.09-3.86-9.66-10.48-9.95s-12.89-.25-15.26,7.88c-1,3.56-4.92,6.37-7.38,9.62-1.15,1.53-2.41,2.27-4.19,1.19a3.39,3.39,0,0,1-1.58-4.2,69.45,69.45,0,0,1,4.44-8.56c1.51-2.54,3.63-4.83,2.15-8.07-.9-2-.42-3.9,1.59-4.83,4.55-2.12,5.69-6.34,7.8-10.06,2.7-4.78,6.32-7.61,10.62-1.51C1180.28,2148.75,1189.85,2152.57,1202.17,2153Z"/><path d="M737.65,2131.86c11-1.46,19.43,3.8,27.79,9.18a11.5,11.5,0,0,1,5.19,8.72c1.68,13.42-12.6,25.89-26.7,23.24-1.11-.21-2.32-.85-3.3-.61-13.21,3.29-11.79-4.91-12.72-12.9-.84-7.21,2.53-15.23-4.55-21.83-2.25-2.09,1.89-5.15,5-5.69C731.39,2131.46,734.56,2131.86,737.65,2131.86Zm2.56,7.48c-5.4-.73-7.58,1.33-7.69,6.57-.32,15.78,3.41,22.22,13.87,22.81,7.25.41,18.6-9.6,18.9-16.67C765.57,2145.38,754.38,2139.71,740.21,2139.34Z"/><path d="M842.32,2179.08c-12.07-.11-18.21-3.58-19.57-10.1-.59-2.81-.46-6.13,3-6.36,3.69-.25,1.3,3.1,1.71,4.83.86,3.7,2.93,6.17,7.24,6.62s8.53,1,12.55-.62c3.22-1.34,8.27-1,9-5,.8-4.49-4.6-4.64-7.42-6.4-5.58-3.47-9.94-7.76-12.39-13.65s.8-14.29,6.56-17.22c1.33-.68,2.67-1,3.91,0,1.61,1.29,1.16,2.67.14,4.18-7.07,10.46-5.1,17.52,6.58,23.8l2.2,1.21c4.17,2.35,11.22,3,10.58,8.78-.7,6.35-8.25,6.34-13.23,8.13C849.26,2178.67,844.84,2178.69,842.32,2179.08Z"/><path d="M1327.59,2171c.31,4.77-10.35,14-16.61,15-6.61,1-7.6-3.6-9.45-7.89-3.69-8.56-4.8-18-9.94-26a4,4,0,0,1,1.23-5.7c2.91-1.55,4,1.29,4.72,3.06,2.85,7.19,5.35,14.49,8.09,21.71,1.09,2.86,1.21,6.59,5.69,7,4.09.38,7-1.34,9.15-4.58a13.86,13.86,0,0,1,3.27-3.6C1325.92,2168.29,1327.36,2169,1327.59,2171Z"/><path d="M1322.42,2135c4.74-.48,9.47-1,14.22-1.43,2.08-.2,4.11-.05,4.3,2.52a3.18,3.18,0,0,1-3.48,3.64c-11.84,0-23.56.72-35.1,3.48a3.31,3.31,0,0,1-4-2.2c-.61-2.29,1.05-3.57,3.13-3.87,6.94-1,13.91-1.78,20.86-2.64Z"/><path d="M805.2,2147.23c2,4.85-.88,11.68,4.76,16.85,2.36,2.16,2,5.36.85,8.17-.58,1.35-2.14,1.71-3.59,1.41-3.93-.82-4-4.08-4.47-6.85q-1.85-10.08-3.34-20.22c-.35-2.44-2.09-5.23,1.11-7.21a3.46,3.46,0,0,1,3.92.31C807.08,2141.52,805.8,2143.94,805.2,2147.23Z"/><path d="M1343.28,2143.8c-10.45,7.86-22.79,6.9-34.89,6.94a2.26,2.26,0,0,1-2.26-2.77,2.6,2.6,0,0,1,2.9-2.29C1320.48,2146.28,1331.78,2144.8,1343.28,2143.8Z"/><path d="M992.1,2007.91c-.48-6.78-.67-10.9-1.08-15-1.85-18.55-1.57-13.22,13.66-18.4,4.67-1.59,9.89-1.56,14.86-2.27,7-1,13.23.1,17.58,6.46s.33,12.59-2.94,16.56c-7.24,8.79-1.33,8.55,4.88,9.44,4.68.67,9.46,1.3,13.89,2.84,11,3.82,12.5,12.19,4,20.13a39.64,39.64,0,0,1-48.22,4.53c-4.42-2.77-6.45-3.38-8.2,1.84-.57,1.68-.44,4.18-3.15,3.81-2.29-.32-2.78-2.73-3-4.38C993.39,2024.08,992.68,2014.65,992.1,2007.91Zm30.93,24.78c12.18-.3,21.49-1.35,28.81-8.86,6.63-6.8,6.22-9.52-2.66-12.14-11-3.25-21.81-2.94-32.51,1.64-2.93,1.25-7.2,3.5-9.25-.74-2.39-4.94,1.93-6.51,5.67-7.73,7.67-2.49,13-7.71,16.62-14.67,4.09-7.79,1.55-11.9-7.36-12.24-18.38-.7-25.6,6.63-24.23,24.61.12,1.58.18,3.17.29,4.75C999.51,2022.53,1010.28,2032.6,1023,2032.69Z"/><path d="M1188.53,2011.51c4.15-.39,9.2-.81,14.24-1.33,4.55-.47,9-1,9.49-7.11.15-2,1.09-3.93,3.6-3.12s1.71,3,1.56,4.83c-.55,6.83-5.75,9.2-11.06,9.92-12.53,1.7-25.17,3.25-37.85,1.9-5.41-.57-10.31-2.51-12.2-8.75-1.44-4.76-.9-7.6,4.36-9.43s11-3.77,12.27-10.55c1.11-5.93-1.11-8.49-7.22-7.28-8.44,1.68-11.39,8.42-13.81,15.36a61.93,61.93,0,0,0-3.81,23.3c.15,3.28-.27,7.35-3.94,7.58-4.36.27-4.13-4.36-3.83-7.15,1-9.65-2.91-18.71-2.86-28.19,0-2.68-.75-6.76,3.16-6.76,4.38,0,4.3,3.62,3.29,7.06-.57,2-2.28,4.83,1.09,5.38,2.66.43,2.74-2.78,3.65-4.72,3.2-6.82,5.94-14.11,14.18-16.66,6-1.85,12-3.67,15.28,4.13,3.06,7.26.27,16.89-5.38,20.25-2.93,1.75-9.18.83-8.06,5.93,1,4.37,6.61,4.15,10.59,4.66S1183.48,2011.25,1188.53,2011.51Z"/><path d="M1223.5,2013.31c-.89-7-2.06-15.08-2.91-23.22-.38-3.74-1-8.31,3.45-9.91,3.86-1.41,4.92,2.93,6.88,5.18,9.82,11.27,21.59,19.4,36.49,22.3,7.74,1.51,9.39-.38,6.94-7.83-2.08-6.29-4.58-12.46-6.51-18.79-.77-2.54-1.8-6.31,1.86-7.27s4.09,2.53,4.94,5.37c2.26,7.55,5,15,7.39,22.46,1.26,4,2.58,8-2,11-3.76,2.48-7.06,4.86-12,1.75-7-4.42-16.08-3-23.42-7.28-3-1.77-6.23-3-8.36-5.93-1.27-1.75-2.35-4.27-5.12-2.74-2.39,1.32-1.86,3.91-1.41,6a35.48,35.48,0,0,1,.17,13.23c-.39,2.41.23,6.71-4.25,5.74-3.56-.78-3.44-4-2.65-7C1223.14,2015.77,1223.2,2015.13,1223.5,2013.31Z"/><path d="M1072.5,2008.84c.65-12.41,8.3-19.63,23.19-21.88,8.78-1.32,22.13,6.63,25.4,15a10.94,10.94,0,0,1,.13,8.35c-5,12.16-15.94,16.18-27.36,17.73-8.22,1.12-14.85-3.89-19.36-11.11A11.52,11.52,0,0,1,1072.5,2008.84Zm22.35,12.75c10.31.08,20.77-7.3,20.64-14.57-.12-6.87-9.8-12.6-21.65-12.8-8.33-.15-14.4,5.15-14.6,12.74C1079.05,2014,1087.1,2021.52,1094.85,2021.59Z"/><path d="M1322.51,2032c.22,7.81-3.27,14.79-4.93,22.17-.64,2.82-2.46,6.06-5.76,4.9-3.84-1.34-2.07-5.07-.7-7.21,4.17-6.51,4.06-13.8,4.73-21,.26-2.83-2-7.79,2.39-7.81C1323.26,2023,1322.39,2028.33,1322.51,2032Z"/><path d="M138.14,190.88c-15.3-2.1-28.06-4.7-39.52-11.76-4.89-3-9.78-6-8.11,4.37.5,3.15-.75,8.17-4.55,8.69-4.46.61-4.7-4.32-5.89-7.59-2.45-6.69-1.18-14.2-4.86-20.67-1.45-2.53.68-4.45,2.65-5.95,3.62-2.77,6.94-1.18,9.71,1.23,7.91,6.88,16.21,13.15,26.07,16.89A92.57,92.57,0,0,0,129,180.51c5.06,1,5.77-2,3.69-5.84-2-3.65-4.33-7.09-6.56-10.61-2.13-3.35-.57-6.32,1-9.23,1-1.88,2.8-2,4.65-1.5,4.06,1.09,3.56,4.4,3.21,7.28-.45,3.66,1.47,6.19,3.26,9,2.41,3.74,4.94,7.43,5.79,12C145.29,188.24,144,192.4,138.14,190.88Z"/><path d="M184,153.33c21.34.65,34,16.35,27.17,33.62-2.84,7.14-12.42,14-20.11,13.79-7.09-.23-14-2.77-21.28-1.24a2.66,2.66,0,0,1-3.23-2.33c-.18-1.82,1.35-2.66,2.83-2.82,10.55-1.13,7.64-7.17,5-13.28-2.09-4.86-3.18-10-5.82-14.79C165.06,159.84,173.52,153,184,153.33Zm4.15,10.31c-6.09-.65-7.32,2.11-6.75,5.92,1,6.46,2.27,12.87,3.4,19.3.35,2,1.57,3.71,3.47,3.33,5.86-1.14,11.67-2.7,15.48-7.92,3.66-5,1.74-10-1.31-14.09C198.71,165.14,192.64,164.16,188.16,163.64Z"/><path d="M50.58,200.62c-3-.66-3.35-5.23-4.78-9.08-4.1-11-12-13.93-20.63-7.41-4.26,3.21-3.76,9.27-6.9,13.32-2.26,2.91-1.61,10-7.69,7.33-5.24-2.28-2.5-7-.38-10.68.3-.52.84-1.21.69-1.61-5.07-14.2,12.75-20.83,11.28-34-.26-2.32,3-4.42,5.74-5,3.11-.64,3.49,2.15,4.9,4.05,4.74,6.39,6.61,16.88,18.88,13.21,2.61-.78,5.38,3.19,2.4,5.36-6.28,4.59-3.46,7.59.64,11.08,4.51,3.84.73,8.33.75,12.5C55.48,200.92,54,201.4,50.58,200.62Z"/><path d="M1172.89,197.76c-.31-4.18-2.56-9.67-2.23-12.93,1.06-10.47,1.25-20.92,1.72-31.39.08-1.86,2.35-2.16,4.34-2.16,10.75,0,21.49-.28,32-2.61,3.69-.81,6.94-.23,7.35,4.1.46,4.92-2.78,6.12-7,5.4-8.48-1.45-16.16,2.89-24.49,3.31-6.5.33-4.88,7.36-4.94,11.74s3.88,4.5,7.34,4.17c5.62-.53,11.32,0,16.88-1.76,3.14-1,6.39.25,7.09,3.59.81,3.84-2.64,3.78-5.31,4.24-1.74.3-3.36,1.45-5.09,1.61-11.81,1.07-22.46,2.91-19.7,19.25.29,1.68.32,7.82-4.89,6.67-4.16-.93-3.27-5.05-3.14-8.31C1172.94,201.19,1172.89,199.69,1172.89,197.76Z"/><path d="M1124.8,208.19c-5.1.15-11.35-1.53-14-9.51-2.47-7.36,1.37-21,7.27-25.27,1.66-1.2,3.78-2,5.08-3.46,8.57-9.9,15.61-9.82,26.28.52,10.19,9.88,10.8,21.18,1.57,29.43C1145.23,205,1136.41,208.09,1124.8,208.19Zm3.58-6.23c11.56.12,22.46-7,22.23-15-.19-6.56-3.73-12.09-10-13.06-10.71-1.63-22.69,8-22.91,17.07C1117.48,198.4,1121.05,202,1128.38,202Z"/><path d="M170.49,310.63c-2.85-8.43.18-17.61,9.68-22.05,7.56-3.54,16.66-4.42,25.18-5,4.27-.3,12.06-4.61,13,2.35,1,7.67-7.65,3.79-11.76,5.35-6.85,2.6-14,4.7-21.52,5-2.81.1-5.86.85-5.55,4.32.28,3.12,3,4.28,6,3.91,7.32-.89,14.63-2,22-2.82,3.5-.4,8.56-2.15,9.67,2.11,1.18,4.52-4.45,3.62-7.17,4.94-7,3.42-14.63,4.73-22.22,6.11-3.67.67-7.55.87-7.74,6.07-.18,4.95.39,9.6,5.46,12,4,1.85,7.85,1.47,11.1-1.85a18.49,18.49,0,0,0,2.06-2.19c2.31-3.36,4.09-10,9.14-5.87,3.88,3.16-1.1,8.3-3.43,11.22-5,6.22-10.57,12.85-20.21,10.05S172,333.64,171.27,324.79C171,320.78,170.82,316.74,170.49,310.63Z"/><path d="M91.64,328c-1.1-10-.19-20.83-3.44-31.12-1.19-3.77.35-6,3.43-7.12,4-1.4,4.85,1.87,6.16,4.75,1.52,3.34-.58,9.27,5.19,9.64,7.3.45,14.76,1,21.93-1.06,2.39-.68,2.1-3.17,1.07-5.1-2-3.7-.29-5.56,3.09-6.84,4-1.52,7.24-.79,9.39,3.14a38.47,38.47,0,0,1,4.43,25.31c-.91,5.16-1.2,8.94,3.26,12.34a8.13,8.13,0,0,1,3,7.18c-.29,3.11-1.72,6.16-5,6.86-3,.63-4.83-1.7-6-4.34-3-6.9-3.63-14.3-4-21.65s-1.48-12.18-10.61-8.06c-4.47,2-9.68.57-14.64,2.14-10.71,3.39-13.44,7.67-9.64,18.39a5.39,5.39,0,0,0,.48.88c2.69,4.52,2.13,9.09-.61,13.15-1.19,1.76-3.78.85-5.58-.11-4.94-2.64-2.32-7.07-2.39-10.83C91.18,333.23,91.47,330.88,91.64,328Z"/><path d="M35.3,288c7.45-.76,15.6.06,23.45-2.38,3.18-1,6.09-.88,7.5,2.78,1.23,3.2,2.44,7.07-1.18,9.05-5.59,3-4.19,7.31-3.86,12.1.68,9.66.85,19.37.67,29.05-.08,3.85-.72,8.74-6.6,8.09s-4.32-5.32-3.76-8.65c1.71-10.37,1-20.68.16-31-.57-6.92-3.63-10.21-11-9.49a76,76,0,0,1-23-1.76c-2.69-.57-5.78-.9-5.7-4.4.09-4.3,3.68-4.12,6.69-4.06C24,287.45,29.37,287.77,35.3,288Z"/><path d="M541.85,4.08c11.36.32,20.84,4.64,29.12,11,12,9.26,11.7,21.46-.05,31.06-12.35,10.09-26.23,11.43-36.23,3.44-2.49-2-4.16-4-4-7.88.32-10.07-.51-20-7.17-28.54-2.39-3-.48-6.88,2.34-6.53C531.79,7.4,536.49,2,541.85,4.08ZM539.7,29.69H540c0,2.89,0,5.78,0,8.67-.05,8.82,3.62,11.36,11.94,8,4.29-1.72,8.28-4.43,12.69-5.5,5.58-1.36,7.26-5.79,8.27-9.91,1.14-4.64-2.3-8.16-6.29-10.4a105.37,105.37,0,0,0-10.93-5.24c-12.21-5.1-17-1.87-16.22,10.9C539.47,27.39,539.6,28.54,539.7,29.69Z"/><path d="M488.82,1.29c3,0,3.89-.05,4.75,0,3.3.22,8.29-.66,8.05,3.92-.21,4.07-5.06,2.1-8,2.59-8.76,1.46-17.53,3-26.23,4.79-2.77.58-6.05,1.86-5.55,5.54.61,4.62,4.26,2.69,6.86,2.34,9.41-1.28,18.8-2.69,28.19-4.11,2-.3,4.41-1.11,5.16,1.45.88,3-1.6,4.4-3.94,4.38-11.29-.12-21.1,8-32.77,5.67-3.13-.63-3,2-3,3.95,0,4.28.63,8.47,5.92,9,6.8.68,13.11-1.31,19-4.61,1.61-.89,3.41-3.15,5.06-.46,1.25,2,0,3.88-1.85,5.13a62.9,62.9,0,0,1-22,9.81c-8.09,1.79-14.73-6.07-14.82-17.21-.05-6,.28-12-.18-18.11-.42-5.61,2.69-9.25,8.33-10.31,3.68-.7,7.41-1.2,11.12-1.7C478.94,2.53,484.94,1.78,488.82,1.29Z"/><path d="M24,23.12a23.34,23.34,0,0,0,13.47-3.53c2.35-1.5,4.43-3.37,6.34.12,1.8,3.29-.81,5.42-3.13,5.88-6,1.19-10.73,5.62-17,6.09-7.07.52-9.43,4.25-7.38,11.15,1,3.29.9,6.88,1.69,10.24.83,3.56,1.11,8.09,6,8.43a9.67,9.67,0,0,0,10.09-6.77c1.67-4.83,5-9.21,4.51-14.75-.13-1.64,0-3.84,2.46-3.67,2.25.16,2.54,2.07,2.3,3.88C42,50.64,39.83,60.78,31,67.87c-6.91,5.56-14.75,3.6-16.76-5a273.56,273.56,0,0,1-5.54-34c-.51-5-.86-9.09-5.94-11.24C.67,16.7-.48,15.13.19,12.81.8,10.69,2.38,9.75,4.64,9.35,14.24,7.65,24,6.78,33.08,2.54c2.2-1,5.5-.89,6.41,2.45s-.57,5.7-4,6.56c-4.75,1.21-9.56,2.2-14.32,3.37-3,.73-7.35,1-7,5C14.69,25,19.27,23.19,24,23.12Z"/><path d="M308.69,25.29a9.47,9.47,0,0,1-1.34,2.56c-1.78,1.91-6.67,1.25-5.57,5.33,1.24,4.57,3.45,8.92,5.57,13.19.85,1.71,3,2.78,3.87,4.49A5.48,5.48,0,0,1,309,58.4c-3.23,2-4.87-.62-5.91-3-2.55-5.8-4.95-11.67-7.11-17.62-1.4-3.85-4.14-5-7.44-3.65-6.35,2.68-14.52,3.47-15.53,12.76a1.71,1.71,0,0,1-.31.81c-3,4.11-4.1,13.13-10.09,10.54-5.6-2.42.74-8.73,1.89-13.28,1.41-5.54,4-10.88,4.73-16.48,1.3-9.89,8.44-14.34,15.78-18.62,4.48-2.61,7.68.67,8.26,4.48,1.1,7.3,4.12,10.38,11.54,8.11C306.72,21.89,308.29,22.49,308.69,25.29Z"/><path d="M379.77,30.52c-.16,6.72,2.06,14.66-3.5,18.27-5.93,3.85-11.71-2.63-17.14-5.35-4.82-2.41-8.89-6.28-13.42-9.31-1.92-1.29-4.39-2.19-6.57-1.07-2.71,1.38-1.36,4-1,6.16.65,4.29.28,9.25-4.55,9.66s-4.95-4.6-4.9-8.44c.1-7-.71-13.83-3.75-20.21-2.05-4.3-.43-7.3,3.27-9.35s5.48.64,7.62,3.28c7.71,9.48,17.42,16.8,27.64,23.24,7.44,4.69,9.54,3.15,9.3-5.39-.17-5.95,1-12-3.78-17.2-2.6-2.81-.42-5.61,2.38-6.93,3.15-1.48,4.48.76,5.56,3.53C379.4,17.75,379.07,24.44,379.77,30.52Z"/><path d="M73.23,37.39c-.11,5,.5,8.78-1.45,12.28-.89,1.61-.29,4.5-3.3,4.2s-3.44-2.7-3.64-5.09c-.46-5.45-1.12-10.9-1.17-16.35,0-3.86-.34-7.63-2.32-10.85C58.8,17.44,60,14.3,63.47,12c3.78-2.51,7-.67,9.94,2.21,8.26,8,16.87,15.54,27.59,20.25,2.63,1.16,5.25,3.5,7.87,1.08s.38-5.24-.65-7.89c-2.28-5.87-4.35-11.83-6.54-17.74-1.12-3-1.39-6.15,2.31-7s5,1.84,5.06,5.24c.07,8.12,4.29,14.83,7.43,21.93,1.9,4.3,3.58,9.34.33,13.13-3,3.51-7.65.75-11.4-.16-8.21-2-15.11-6.88-22.5-10.69-2.8-1.44-5-6.18-8.8-3.49C70.68,31.27,74,35.39,73.23,37.39Z"/><path d="M236.66,45.79c-.1-2.13-.14-2.71-.16-3.28-.33-13.31-.32-13.28-13.06-10a39.61,39.61,0,0,1-6,.82c-14.17,1.44-16.29,5-10.6,18.32,1,2.4,2.87,4.4.65,7-1.35,1.61-2.71,3.1-5.05,2.63s-3.18-2.4-3-4.55c1.17-12.51-3-24.53-3.27-36.9,0-2.52-.81-5.92,2.55-6.46,3.88-.63,4.71,2.86,4.67,5.76-.11,6.64,3.47,7.67,9,6.73,4.26-.73,8.61-.95,12.86-1.72s8.26-1.92,9.65-7.19c.67-2.54,2.45-5.79,6.17-4.68,3.31,1,3.63,4.12,3.62,7.11a47.21,47.21,0,0,1-.2,5.19c-1,8.54-2,17,.49,25.56,1.08,3.79,1.48,9.22-4.15,9.51s-4-5.06-4.14-8.54C236.57,48.85,236.66,46.54,236.66,45.79Z"/><path d="M423.75,48.49c-1.36-11.21-2.36-20.06-3.53-28.89-.66-5-3.7-6.89-8.59-5.88-5.92,1.23-11.8,2.65-17.75,3.65-3,.51-6.94,1.34-7.28-3.46-.29-4,2.87-5.4,6.23-5.77,11.73-1.27,23.48-2.3,35-4.87,2.06-.46,4.06,0,5.26,2A4.92,4.92,0,0,1,432.7,11c-7.63,10.46-2.18,21.23-.58,31.82.3,2,2.78,3.82,2,6.27-1.3,4-3.52,8.3-8.17,7.35C419.91,55.19,424.23,49.59,423.75,48.49Z"/><path d="M162.39,56c-9.41.06-18.23-7.79-20.08-17.85-2.17-11.86,2.59-22.53,12-25.8,5.18-1.8,10.29-1.36,13.85,3.75,1.19,1.71,2.21,3.61,1.11,5.61-1.29,2.36-3.57,1.73-5.29.73-7-4-11.5-1-14.65,5.23-2.66,5.27.72,14.87,6.13,18.26,8.53,5.36,14.88,2.88,18.49-7.31.83-2.34.69-6,4.39-4.84,2.93.94,1.1,4,.82,6.09C177.69,50.3,171.77,55.93,162.39,56Z"/><path d="M719,22.6c0,9.32-.26,18.55-5.68,26.72-3.48,5.25-6.93,6.3-11.56.86a122.38,122.38,0,0,1-10.82-15.64c-1.12-1.83-1.25-5.12-4.38-4.43-2.38.52-1.89,3.33-2.2,5.16a71.65,71.65,0,0,1-6.74,19.58c-1.07,2.17-2.54,5-5.62,4.83s-4.19-2.84-5.17-5.27c-5.25-12.92-6.36-26.84-9.59-40.25-.47-2,.17-3.54,2.22-3.95s3,1.29,3.62,2.94c3.14,7.9,2.49,16.5,4.51,24.62.41,1.66.29,3.45.63,5.14.39,2,1,4.2,3.3,4.64,2.8.53,3.21-2.22,3.9-3.83,3.05-7.17,5.93-14.41,5.66-22.47-.11-3.18,0-7,3.8-7.85,4.12-.88,3.63,3.45,4.92,5.78q5.88,10.56,12,21c1.18,2,2.85,3.92,5.55,3.21,2.16-.57,3.21-2.61,3.58-4.58,1.6-8.49,3.82-17,.27-25.57-.89-2.14-2-4.42-.08-6.45,1.59-1.63,3.63-1.46,5.62-.49,2.63,1.28,2.43,3.51,2.28,5.93C718.82,15.66,719,19.14,719,22.6Z"/><path d="M829.55,24.94c3.18-4.12,1-7.19-1-10.51-1.4-2.31-.36-4.69,1.87-5.9s4.28.73,4.7,2.47c1.93,8.07,7.72,6.82,13.51,6.19,4.29-.46,8.61-.76,12.93-.82,3.48-.05,6.19-.89,7.58-4.43,1.08-2.73,1.11-7.58,5.37-6.22,3.74,1.19,7.64,6.63,6.38,9.23-4.68,9.69.43,18.59.44,27.79,0,3.66,1,8.57-4.24,8.6-4.54,0-5.28-4.26-5.34-8.4-.07-5.17-1-10.34-1-15.51-.08-5.86-3.25-7.17-7.9-5.45a46.8,46.8,0,0,1-10.73,3c-7.81.93-13.13,4.22-11.87,13.44a11.05,11.05,0,0,1-1,5.89c-1.3,2.73-4.49,3.2-5,.32C832.87,38,831.79,31.25,829.55,24.94Z"/><path d="M795.4,36.13c0-3.08.4-6.6-.07-10-2.09-15-3.37-15.84-18.19-12.23-4.3,1.05-8.88,1.62-9.69-3.64-.73-4.78,4-4,7.35-4.8,9.27-2.36,18.79-2.73,28.14-4.36,2.8-.48,6.16-.88,7.57,2.48,1.32,3.11-.69,5.39-2.9,7.47-4,3.73-7.93,21.41-5.86,26.32.38.91,1.43,2.17,2.14,2.15s1.93-1.14,2.34-2.05c1.44-3.13,2.5-6.44,4-9.55.79-1.65,2.56-2.61,4.29-1.61,1.49.86,1.13,2.69.2,3.82-4.55,5.59-5,12.76-7.59,19.09-1.07,2.57-1.75,6.07-5.53,5.48-3.13-.48-4.91-3.17-5.33-6.16C795.7,44.58,795.67,40.53,795.4,36.13Z"/><path d="M743.46,38.41Q741.23,25.74,739,13c-.5-2.85-1.42-6.37,2.83-6.62,3.4-.2,5,2.66,4.58,5.91-.56,4.12.52,7.94,1.2,11.89s-1.9,11.73,6.63,4.27c2.14-1.88,3,1.66,2.49,3.59-1,3.88-2.36,7.68-3.71,11.46-.94,2.63-1.66,6.2-5.34,5.6s-4.85-3.7-4.89-7.19c0-1.15,0-2.3,0-3.45Z"/><path d="M583.75,192.3c-.82-6.14-1.37-11.7-4.69-16.67a5.45,5.45,0,0,1,1.52-7.92c2.55-1.81,3.75-.59,5.57,1.79,2.49,3.26,4.64.74,5.91-1.91,2.06-4.32,5.48-6.83,9.84-8.55,9.31-3.67,16.4-1.41,19.31,6.42,3.15,8.48-.94,16.74-9.75,20-2.52,1-7-.58-7.07,3.63-.06,3.56,4.22,4.32,6.73,4.93,10.66,2.59,21.82,7.94,31.31-2.91,1.29-1.47,2.94-2.37,4.71-1.21,2.21,1.44,1.55,3.45.7,5.55-3,7.54-15.12,13-26,11.28-6.79-1.07-13.52-2.66-19.24-6.81-4.39-3.19-7.79-4.64-8.83,2.86-.34,2.42-.51,6.28-3.94,6.18-3.6-.11-4.14-3.8-4.66-6.75C584.54,198.78,582.26,195.54,583.75,192.3Zm18-13.31c4.08-1.17,9.74-2.29,11.27-8.36.66-2.63-2.55-4.84-4.74-3.73-4.67,2.39-12,1.8-12.79,9.16C595.08,179.27,598,179.52,601.7,179Z"/><path d="M305.45,185.27c-1.4-4.86-.92-10.2-4.32-14.41-3.11-3.84-.88-7.37.69-10.84s4.6-2.59,7.68-2.46c5.35.23,10.74-.57,16.1-.52,10.57.1,20.74,2.48,26.22,12.27,4.33,7.73-1.14,22.2-9.94,29.43-9.78,8-20.91,12.61-33.87,11-5.25-.65-8.9-2.63-5.1-8.77C306,196.08,304.31,190.48,305.45,185.27ZM325,167.69c-14.25.33-15.6,2-13.07,13.29,1.22,5.47,3.34,10.77,2.22,16.62-.9,4.74,2.49,4.9,5.59,4.11,9.25-2.34,17.2-7.16,22.47-15.11,6.83-10.28,2.54-17.84-9.91-18.52Z"/><path d="M948.5,186.26c.16,3.45.84,5.73.21,7.54-.93,2.66-1.81,6.51-5.3,6.43-3.7-.08-3.71-3.69-4.36-6.7-1.8-8.37-1.52-17.09-5.89-25.07-2.7-4.92,1.42-9.36,5.44-11.82,4.23-2.58,6.85.41,9,4.4,7.46,14.15,20.12,22.33,34.18,28.73,2.18,1,4.56,2.07,6.64-.05s.67-4.31-.15-6.59c-2.91-8.08-6.33-16-8-24.51-.68-3.44,0-5.79,2.4-7.94a3.77,3.77,0,0,1,4.17-.73c3.39,1.5,2.19,4.36,2,7-.57,6.45,1.74,12.33,3.8,18.23.89,2.54,2.19,4.92,3.11,7.44,1.66,4.6,3,9.79-.06,13.75S987,198.53,983,197.53c-10.13-2.53-20-6.09-27.75-13.67-1.64-1.6-3.17-4.44-5.81-3.32C945.81,182.09,948.51,185.2,948.5,186.26Z"/><path d="M695,194.44c1.37-7.39,1.07-13.69-3.25-19.43-1.77-2.35-1.16-5.2,1.27-7.18,2.63-2.15,5.06-1.52,6.85,1.11,2.42,3.58,3.62,2.26,5.6-.62,5.83-8.45,16.51-10.81,24.89-5.89,8,4.71,9.54,13,5.13,23.43-3.7,8.72-10.34,13.9-18.89,16.28-6.13,1.7-9,4-6.41,10.44a6.55,6.55,0,0,1,.53,3.49c-.64,3.09-.7,7.43-4.35,7.89-4,.5-4-3.77-4.23-6.54C701.54,209,696.38,202,695,194.44ZM707.53,189c0,3.23.55,6,4.82,5.73,7.56-.54,18.67-12,17.66-18.63-.77-5.09-5-6.37-9.36-6.1C712.29,170.53,707,178.39,707.53,189Z"/><path d="M418.23,181c-9.08,3.56-19.35,7.28-29.34,11.64-3.85,1.68-3,5.34-1.11,8.46,2.74,4.49,4.55,10.12,11.89,8.3a12.58,12.58,0,0,0,7.08-5c1.2-1.52,3-2.1,4.69-.62s1.49,3.28.27,4.78c-4.65,5.74-10.06,10.54-18,10.1-6.41-.34-9.38-5.14-12.24-10.33-6.15-11.19-3.95-23.26-4.1-35-.06-4.47,2.81-7.4,7.93-8.09,11.48-1.56,22.88-3.71,34.34-5.42,3.34-.5,6,.87,6.3,4.67.26,3.48-2.49,3.7-4.88,3.72-9.71.11-18.49,4.7-28,5.75a12.23,12.23,0,0,0-4.83,2c-2.22,1.42-3.25,3.59-2.18,6.18,1.38,3.32,3.8,1.84,6,1.08,6.19-2.11,12.36-4.29,18.59-6.25a44.3,44.3,0,0,1,8.71-1.91c2.66-.26,6-.21,5.67,3.74C424.77,182.44,421.85,181.53,418.23,181Z"/><path d="M468.8,213c-10.05,1.64-17.74-1.47-23.76-9.42-2.3-3-3.75-6.19-.65-8.53,4.48-3.39,4,1.76,5.33,3.92,4.21,6.86,18.38,9.28,25,4.37,3.85-2.85,2.39-4.05-1.16-6.09C467.92,194,461,193.83,456,189.14c-10.44-9.74-9.69-15.55,2.81-22.25,5.18-2.77,10.43-4.38,16.24-3.73,5.48.61,6.68,4.74,6.29,9.13-.48,5.47-4.34,3.22-7.42,2.62a30.15,30.15,0,0,0-7.05-.76c-2.71.14-5.6,1-6.27,4s1.32,5,4,6.2c6.27,2.74,12.5,5.57,18.86,8.06,3.38,1.33,7.12,2,7.07,6.7s-1.81,8.76-6.39,10.87A32.86,32.86,0,0,1,468.8,213Z"/><path d="M881.53,201.71c-1.49,0-3-.08-4.47-.06-13.74.2-16.8-3-19.38-11.57-3.14-10.47,2.82-19.29,11.77-25.8,7.34-5.34,12.61-3.53,19.57-.4,7.75,3.49,13,9.38,18.14,15.49,5.49,6.57,3,14.8-4.88,18.22A43.82,43.82,0,0,1,881.53,201.71Zm4.91-6.33A41.32,41.32,0,0,0,900.28,192c3-1.29,5.33-4,2.71-7a45,45,0,0,0-29.58-15.36c-1.74-.2-2.56.83-3.4,2.2-8.37,13.64-4.52,21.61,11.15,23C882.92,195,884.68,195.21,886.44,195.38Z"/><path d="M512.64,191.41c-.44-10.21.86-19.83,10.09-26.23,3.37-2.35,7.1-5.29,11.35-1.81,4.47,3.67,7,8.71,8.25,14.26.2.91-1.36,2.91-2.48,3.27-2.61.86-4.76-.74-5.88-3-4.2-8.35-7.55-3.91-10.74.67-4.87,7-4.2,14.45.18,21,4.7,7,11.85,8.4,19.87,5.56,6.75-2.38,12.33-6,15.32-12.78.93-2.1,1.9-4,4.52-3,2,.8,1.92,2.92,1.7,4.68-1.15,9.26-20,21.93-31.44,21.22S512.81,204.19,512.64,191.41Z"/><path d="M784.5,160.18c6-1.77,15.15,2.09,23.82-1.74,2.6-1.14,5.15,1.2,5.41,4.45s-1.55,5.45-4.77,4.92c-10.84-1.81-11.73,3.37-9.86,12.21,1.22,5.79.9,11.86,4.2,17.17a7,7,0,0,1,.27,7.65c-1.36,2.3-2.69,5.2-5.7,5.11-3.43-.09-4-3.52-4.28-6-1-9.52-3.16-18.77-5.17-28.1-1.16-5.41-3.38-7.32-8.58-5.63-6.23,2-13,0-19.26,3-2.72,1.27-6.56.15-6.75-3.64-.2-4.1,1.84-7.79,6.55-8.18C767.5,160.77,774.66,160.64,784.5,160.18Z"/><path d="M1039.5,207.49c-12.29.45-21.09-1.71-28.4-8.25-1.66-1.49-4.43-3.3-2.16-5.82s4.27-.44,5.91,1.46c5.69,6.6,13.4,5.46,20.8,5.34,2.07,0,4.41-.56,4.63-3.19.18-2.16-1.9-2.83-3.47-3.57-9.15-4.34-16.77-10.21-20.59-20-4.55-11.71,2-24.32,13.62-26.08,3.24-.5,6.13-.38,7.05,3.44.85,3.5-.89,5.32-4.18,6.71-10.83,4.56-11.94,16.21-2.27,24.16a57.7,57.7,0,0,0,11.2,7.22c5.22,2.56,11.55,4.61,9.35,11.9C1049,207.21,1042.39,207.08,1039.5,207.49Z"/><path d="M669.71,201.73c-2.91-8.29-1.91-18.54-7-27.32-2.16-3.72-1.59-7.2,2.19-9.15,5-2.56,5.51,2.39,6.36,5,3.7,11.28,3.94,23.39,8.21,34.62,1.31,3.42-1.25,6.77-5.2,6.59C668.68,211.18,669.11,206.78,669.71,201.73Z"/><path d="M826.66,179.82c-.18-4.13-.9-8.34-.36-12.38.32-2.32,2.23-5.21,5.52-4.81s4,3,3.95,6c-.15,5-.41,10.11-.23,15.14.12,3.48-.16,7.36,3.14,9.78,2.2,1.62,3.31,3.26,2,6a6.36,6.36,0,0,1-5.57,3.81c-3.2.29-5.2-1.5-6.08-4.2C827,192.86,825.52,186.5,826.66,179.82Z"/><path d="M1161.7,45.17c0,2,.37,4.09-.08,6-.65,2.71-1.24,6.16-5,6-3.6-.13-3.43-3.45-3.61-5.91-.84-11.08-.67-22.34-7-32.27-1.19-1.88.44-3.17,1.89-4.2,2-1.41,4.58-2.82,6.25-.76,4,4.94,5.91,1.54,8.52-1.37A22.26,22.26,0,0,1,1177,5.21c5.34-.61,11.44-2.3,14.4,4.21,2.8,6.17-.73,15.6-6.36,19.12-1.78,1.12-5.3.61-4.88,3.86s3.88,2.9,6.13,3.92c6.27,2.85,12.46,5,18.21-1.23,1.64-1.76,3.87-1.81,5,.57s1.74,5.27-1.08,6.93a21.88,21.88,0,0,1-7.24,2.71c-11,1.94-20.87-2.34-30.79-6.07-2.7-1-3.73-6.46-7.58-3.82C1159.4,37.69,1161.71,41.86,1161.7,45.17Zm12.15-21.32c4.14-1.39,10.4-1.36,11.15-8.59.36-3.39-2.32-5-5-4.08-5.17,1.83-12,2.48-13.41,9C1165.8,23.61,1169.93,24,1173.85,23.85Z"/><path d="M983.07,59.28c-13.9-.09-24.1-9.32-23-20.07.21-2,0-4.64,2.54-4.82,2.75-.2,2.33,2.51,2.79,4.44,2.44,10.3,14.26,15.83,23.84,11.36,4.16-1.94,5.32-4.09,1.49-7.67-3.58-3.35-7-6.93-10.22-10.6-6.16-6.9-6.64-17.5-1.26-23.8S996.67-.44,1003,3.85c2.23,1.52,5.86,3.05,4.2,6.54-1.34,2.81-4.65,1.61-7.07,1-3.05-.8-5.77-2.17-9.16-.66-9.46,4.21-9.62,15.89,1,22.47,7.24,4.5,11.32,10,8.77,17.53C998,58.71,989.64,58.88,983.07,59.28Z"/><path d="M1068.07,0a5.37,5.37,0,0,1,5.24,4.33c.66,3.14-2.34,4.53-4.87,5.08-4.87,1.05-5.55,4.31-5.28,8.45.55,8.63.91,17.28,1.57,25.91.21,2.77,0,6.17,3.21,7.53,2.82,1.21,4.6,2.68,3.25,5.82a7.14,7.14,0,0,1-7,4.38c-3.46-.07-5-2.8-5.33-5.83-1.2-10.33-2.21-20.68-3.27-31-.17-1.72-.23-3.46-.35-5.19-.71-9.79-1.45-10.48-11.06-7.59-6.48,2-13.14,1.66-19.68,2.68-2.7.42-5.67.2-5.81-3.38-.13-3.11,1.31-5.49,5-5.86,9.48-.93,18.93-2.41,28.42-2.83C1056.88,2.27,1061.11.24,1068.07,0Z"/><path d="M1274.64,60c-6.18,0-8.55-5.7-10.12-11.18-1.93-6.72-.83-13.83-3.4-20.91-1.42-3.89,3.3-10.17.45-16-.82-1.66,1.72-2.76,3.42-3.06,8.51-1.49,17-3,25.58-4.22,3.23-.47,6.11,1.06,6.29,4.39s-2.95,3.79-5.65,3.62c-5.37-.34-10.16,1.87-15.14,3.25-2.84.79-5.73,2-4.76,5.88.86,3.49,3.59,3.09,6.26,2.77,3.44-.42,6.88-.82,10.34-1.08,1.41-.11,3,.05,3.41,1.82a2.92,2.92,0,0,1-2.5,3.8c-3.92.8-7.86,1.45-11.8,2.1-2.87.48-6.39.67-6.36,4.45,0,5.14.46,10.72,4.4,14.43,2.78,2.63,5.88.31,8.36-1.93a25.86,25.86,0,0,1,4-3.12c1.76-1,4-2,5.45.06,1.27,1.81-.58,3.07-1.87,4.21C1286.39,53.4,1283.1,59.46,1274.64,60Z"/><path d="M1105.71,51.73c-7,.59-13.45-2.87-15.65-11.27s-4.5-17.08,3.61-24.1c5.55-4.8,26.41-5.83,31.29-1.58,6.73,5.87,8.39,13,5.28,21.14C1127,44.51,1115.86,51.93,1105.71,51.73Zm-8.85-20c-.06,5.48,2.4,9.42,7.38,11.66,6.39,2.88,11.06-.64,15.58-4.43,4.34-3.65,6.91-8.12,3.94-13.62-2-3.68-5.85-7.27-9.85-4.86-5.7,3.42-15.32.67-17.09,10.37A5.28,5.28,0,0,0,1096.86,31.69Z"/><path d="M1344.45,58.84c-11-.73-21.92-1.93-30.89-9.36-2.12-1.76-5.47-3.78-2.73-6.92s4.43.42,6.06,2.13c6.89,7.25,16,5.15,24.43,5.81,2,.16,3.22-1.43,3.4-3.28.25-2.5-1.86-3.46-3.69-4.2a32.22,32.22,0,0,1-16-13.54c-2.72-4.52-5.89-9.74-1.47-14.17a20.73,20.73,0,0,1,17.43-5.81,3.66,3.66,0,0,1,3.17,3.6c.17,2.14-1.24,3-3.06,3.48-.84.21-1.71.32-2.52.61-8.87,3.15-9.35,5.53-2.56,12.44,4.65,4.75,10.51,8,15.51,12.36,4.42,3.88,4.46,7.72,3,12.19C1352.92,59,1348.68,59.16,1344.45,58.84Z"/><path d="M1228.15,38.05c.46-5.49.37-10.92-1.84-16.1-1.18-2.77-2-6.19,1.7-7.22s4.81,2.59,5.39,5.3c2.12,9.79,4.1,19.61,5.8,29.47.5,2.9-.35,6.14-4,6.5-3.37.34-5.46-2.22-6-5.12C1228.42,46.68,1228.46,42.34,1228.15,38.05Z"/><path d="M514.79,325.93c-.54,2.47,3,7.8-2.44,8.51-5.16.69-7.11-3.73-7-8.83.16-11-2.3-21.37-8.41-30.58-2.56-3.84-1.16-6.33,1.7-8.55,3.43-2.67,5.29-.37,7.08,2.53,3,4.86,5.58,3.29,8.22-.64,4.34-6.43,10.24-10.84,18.3-10.19,15.61,1.26,23.19,17.93,15.39,33.34-1.44,2.85-4.87,5.33-2.12,9,2.48,3.28,6,2.17,9.28,1.42,2.63-.59,5.67-1.37,6.77,2.13a7.09,7.09,0,0,1-3.34,8.69,13.28,13.28,0,0,1-12.56.62c-7.66-3.4-14.49-8.18-21-13.28-2.67-2.08-5.08-5.19-8.57-3.26C512.69,318.62,514.87,322.27,514.79,325.93Zm26.71-27.37c-1.9-5.43-1.1-12.48-9.59-12.25-5.54.15-16.51,9.2-15.23,13.91,2,7.19,10.34,8,15.85,9.29C538.81,311,539.59,303.16,541.5,298.56Z"/><path d="M337.13,316.39c6.27-14.6,6.4-14.9,20-8.79,6.7,3,12.79,7.36,19.14,11.13,1.74,1,3.46,2.38,5.56,1.24,2.73-1.49,1.75-4.12,1.48-6.33-.88-6.95-5.55-13.05-4.47-20.48.53-3.71.4-8.34,5.53-7.89,4.92.43,4.79,4.75,4,8.55-1.7,8.39,1.89,15.83,4.19,23.47,1.17,3.87,3,7.61,2.27,11.76-1.11,6.71-4.33,9.92-11.12,5.8-7.76-4.71-15.45-9.55-23.19-14.31-9.33-5.74-13.13-4-14.72,6.56a30,30,0,0,1-2.45,8.61c-1.24,2.56.4,8-5.14,6.82-3.94-.85-6.27-4.3-6.34-8.24-.14-7.17-2.06-13.79-4.48-20.44-1.5-4.16-2.66-8.11-6.45-11-2.7-2.08-4.57-5.41-2.12-8.86,1.71-2.41,3.93-5.08,7.28-4.78,4.47.4,4.16,4.77,5.22,7.7C333.46,302.73,333.07,309.38,337.13,316.39Z"/><path d="M688.77,342.05c-8.32,1-12.11-3.71-14.1-13s-2.36-19.15-7.24-28c-3.94-7.17,5-16.23,15.89-15.25,15.19,1.36,29.42,6,41.44,16.22,5.94,5.07,6.23,10.92,3.43,17.1C723.31,329.91,701.7,342.62,688.77,342.05ZM685.1,296.7c-3.83.33-10.06-1.94-7.62,6,2.51,8.24,6.33,16,8,24.61.82,4.29,3.69,6.45,9.07,4.83,9.14-2.76,15.47-9.08,22.21-15.12,5.78-5.19,3-9.44-2-11.83C705.48,300.73,696,296.35,685.1,296.7Z"/><path d="M418.32,305.38c0-11.73,8.81-18.68,23.65-18.65,12.25,0,25.38,13.91,25.24,26.67-.13,11.42-12.38,21.26-26.29,21.12C427.17,334.38,418.32,323,418.32,305.38ZM458.48,311c-.09-6.6-9.24-15.73-15.86-15.83s-15.41,7.47-15.24,13.33c.26,8.48,6.6,15.73,13.82,15.78C449.49,324.32,458.56,317.35,458.48,311Z"/><path d="M618,342.12c-12.08-.3-19.19-7.44-22.9-22.44-1.46-5.88-2.7-11.84-5.42-17.17s.2-8.08,3.72-9.74c4.69-2.22,6.15,1.63,7.46,5.48,2.71,7.9,2.7,16.4,6.26,24.2,2.72,6,6.24,8.27,12.5,7.12,7.87-1.46,16.06-1.47,23.29-5.66,2.53-1.47,5.53-1.64,7.11,1.19s-1.59,4-3.22,5.4C637.94,337.88,626.69,339.05,618,342.12Z"/><path d="M784.11,322.48c-3.23,9.67-6.83,20.74-14.47,29.92-1.3,1.58-3.34,2.67-5.34,1.44-2.69-1.66-1.79-4.21-.41-6.12,6.45-8.89,10.76-18.36,10.15-29.72-.18-3.36,2-5.73,5.87-5C784.56,313.8,783.85,317.61,784.11,322.48Z"/><path d="M79.86,861.79a18.49,18.49,0,0,1-2.26,2.51c-4,3.19-4.25,5.92,1,7.68,3.17,1.07,4.33,2.88,3.8,6.14-.36,2.18-.68,4.27-3,5.16-3.28,1.24-5.13-1-6.94-3.07a55.86,55.86,0,0,1-3.85-5.07c-6.07-8.74-16.63-8.48-22.6.63-1.82,2.78-3.34,5.75-5.07,8.59-1.25,2-2.36,4.67-5.53,2.81-2.88-1.67-3.77-5.42-2.07-7,6.09-5.82,3.55-15.64,10.53-21,2.65-2,3.07-5.72,2.8-9.27-.25-3.25.93-6.36,4.22-7.29,2.85-.82,5.13,1.36,7,3.42a28.89,28.89,0,0,1,3.94,5c2.85,5.07,6,9,12.83,7.07C77,857.4,79.59,858.06,79.86,861.79Z"/><path d="M863.76,751.89c-10.28-2-22.12-4.83-32-12.49-5-3.89-8.49-6.62-8.08,3,0,.3.13.72,0,.9-2.56,2.91-.41,9.79-6.35,9.36-5.59-.4-3.89-6.1-4.32-9.64-1-8.69-.54-17.59-4.16-25.88-1.6-3.67-.52-6.93,3.25-8.11s4,2.68,5,5c.81,1.81.32,4.74,3.35,4.58,2.41-.13,3.27-2.45,4.27-4.31,2.87-5.34,7.54-8.26,12.85-11,6.79-3.48,13-3.25,16.88,2.91,3.61,5.78,1.79,12.27-2.94,17.56-2.13,2.38-4.82,3.41-7.77,4.42-3.4,1.16-4.42,4.3-.91,5.89,8.16,3.7,15.72,9.6,25.49,8.56,3.06-.32,7.15-2.91,7.73,2.66.48,4.61-2.9,6.27-7,6.63C868,752,866.72,751.89,863.76,751.89ZM840.94,710.1c-4.8,1.34-9.6,3.56-10.65,9.27-.5,2.72,2.76,3,4.77,2.43,4.88-1.36,10.67-2.24,11.63-8.44C847.19,710.1,843.72,710.31,840.94,710.1Z"/><path d="M442,736.65c1.37,6.25,2.29,12.84.79,19.55-.51,2.25.28,5.43-3.38,5.22-2.45-.13-3.38-2.4-3.64-4.62q-2.42-20.74-4.69-41.51c-.23-2.16,0-4.42,2.28-5.52,2.55-1.26,4.71-.21,6.51,1.72,5.17,5.57,10.46,11,15.43,16.76s9.76,5.27,14.51-.08c3.62-4.09,7.65-8,10.47-12.55,2.48-4,3.95-4.55,7.39-1.19,2.87,2.81,6.29,5.36,6.81,9.4a98.81,98.81,0,0,0,6.94,26.3c1.48,3.45,1.24,7.84-3.62,8.69-5.22.91-5.19-3.08-5.69-7a130.45,130.45,0,0,0-4-19.56c-1.49-5.2-4.24-7.35-8.76-1.8a150.15,150.15,0,0,1-12.59,13.15c-3.64,3.5-7.16,4.08-10.5-.91a66.06,66.06,0,0,0-7.81-8.86c-1.18-1.22-2.45-3-4.57-2.2S442.18,734.54,442,736.65Z"/><path d="M762.41,719.37c5.62-.43,9.28-.57,12.89-1,2.77-.36,6-1.35,6.93,2.18,1.12,4.23-3,4-5.31,4.42-6.19,1.29-12.46,2.65-18.74,3-5.83.29-7.89,2.42-8.15,8.26-.78,17.45,1.33,19.15,18.26,13.12,3.72-1.33,7.34-2.89,10.21-5.78,1.79-1.8,3.86-2.08,5.45.08s.55,4.44-1.6,5.27c-9.24,3.59-16.29,11.46-26.85,12.74-8.14,1-12.24-.86-13.2-9-1.6-13.55.44-27.36-2.73-40.85-.72-3.06,1.58-4.46,4.17-4.89,12.56-2.13,25-5.22,38-3.92,2.35.24,5.52,0,5.6,3.26.09,3.84-3.25,3.87-6,3.75-9.24-.39-18.07,2.23-27.08,3.48-2.1.29-4.83.55-4.79,3.21,0,2.84,3,2.58,4.92,2.72C757.69,719.55,761.05,719.37,762.41,719.37Z"/><path d="M717,735.65c.34,5.83-2.2,11.52,4,15.46,2.08,1.33.77,4.62-1,6.5s-3.81,3.26-6.44,2.68-3-2.87-3.15-5c-.48-6.35-.66-12.74-1.29-19.07-.65-6.63-3.7-10.72-10.76-6.87s-14.35,4.24-21.86,5c-6.66.71-12.32,2.58-9.06,11.45a6.89,6.89,0,0,1,.07,4.44c-1.12,2.92-.7,7.82-4.86,7.78-5,0-3.13-4.87-3.5-7.85-1.12-9-.91-18.21-4-27-1-2.89-1.44-6.53,2.18-7.9,3.82-1.46,6.33.58,7.14,4.62.9,4.52,3.94,5.74,8.12,5.17q12.6-1.71,25.19-3.39c3.89-.51,5-4.06,7.24-6.38,4-4.06,7.63-3.76,9.31,2.18C716.1,723.65,717.77,729.82,717,735.65Z"/><path d="M625.37,739v-5.47c0-12.34-1.54-13.59-13.87-11.87-7.2,1-14.43,1.75-21.62,2.83-3.22.48-5.63-.39-6.35-3.53-.67-2.93,2-4,4-5.35,3-1.91,6.37-1.69,9.68-2,12-1.3,24.22-.92,35.88-4.83,2.75-.93,5.41-.61,7.15,2.29,1.17,2,2,4.05.15,5.82-10.67,10.2-6.64,22.45-4.89,34.37a28.34,28.34,0,0,0,1.59,5.23c1.43,4.06-.76,6.88-4,8-4.18,1.42-6.24-2-6.68-5.45-.84-6.61-1-13.3-1.51-20Z"/><path d="M532,730.22c0,5.8-.26,11.7,3.47,16.62,3.57,4.71,8.57,7.11,14.38,5.75,4.56-1.07,8.41-3.8,8.73-9.24.35-5.92.3-11.8-6.08-14.94a40.25,40.25,0,0,0-6.78-2.52c-3.26-.92-9.38,2-8.26-4.83.92-5.61,6.17-4.62,10.44-4.13,11.31,1.3,15.26,10.25,18.61,19,3.09,8.1-.81,16.75-9.64,22.62-7.36,4.89-15.14,5.61-23,.26-8.2-5.58-14.26-30.27-9.13-38.5,1.17-1.88,2.94-3.2,5.33-2.67s2.31,2.55,2.27,4.37C532.31,724.75,532.13,727.49,532,730.22Z"/><path d="M382.88,887.36c-1.12-5.35-.79-14-4-21.94-1-2.43-1.66-4.82.39-6.72,2.75-2.57,4.09,0,5.62,1.93,2.05,2.59,3.77,0,5.51-.64,12.06-4.68,24-5.09,35.83.71,7.43,3.66,10.32,10.82,6.83,18-5.81,12-16,19-28.86,21.11-6.3,1-10.47,2.32-10.7,9.35-.08,2.72-1.22,4.82-4.27,4.8-3.59,0-3.56-3.07-3.37-5.29C386.39,902.31,381.75,896.79,382.88,887.36Zm26.59-20.91c-6.18.16-13.52-1.72-16.58,5.88-2.61,6.51-3.85,14.94.9,19.72,4.18,4.21,11.41.57,16.75-2.53a28.51,28.51,0,0,0,5.86-4.19c4-3.94,11-7.84,9.13-13.35C423.45,865.78,415.6,866.41,409.47,866.45Z"/><path d="M360.08,871.65c-.36.6-.55,1.4-1,1.57-11.68,4.58-5.18,8.58.46,12.37,3.78,2.53,1.7,6.07,1.82,9.14a3.41,3.41,0,0,1-3.59,3.42c-3.44-.24-3.34-3.76-4.84-5.88-3.42-4.88-3.29-14-11.62-13.26s-17.05,2.59-20.7,12.13a7.06,7.06,0,0,1-1.34,2.38c-2.38,2.46-4.15,7.83-8.15,5.47-4.7-2.78-.09-6.44.88-10,3.15-11.55,13-19.73,15.41-31.39,1.59-7.59,4.6-5.67,8.29-1.87,2.11,2.17,4.15,4.44,6,6.8,3.17,4,6.43,7.07,12.26,5.42C356.76,867.18,359.44,868.21,360.08,871.65Z"/><path d="M282.09,848.74c-2.45,3-5.26,2.19-7.94,2-10.34-.65-19.46,3.25-28.44,7.64-4,2-3.17,5.6-2.28,8.75,1,3.65,4,3.3,6.68,2,10.33-5,21.83-4.79,32.7-7.39,2.07-.5,5.83-1.07,6.07,2,.29,3.75-3.49,2.07-5.58,2.41-11.09,1.79-22.06,4-32.64,7.93-3.21,1.18-4.29,3.28-3.76,6.32.85,4.8,1.8,9.91,6.61,12.29,3.3,1.64,5.32-1.16,7.42-3.64,3.23-3.82,3.76-8.87,6.68-13.41,4.57,5,1.71,9.45-.63,13.27-3.16,5.15-7,10.23-13.41,11.42-2.79.51-5.13-1.65-6.52-4.23-6.43-12-8.05-25.31-11.12-38.24-.65-2.71,1.27-4.82,3.86-5.41,12.39-2.86,24.56-7.09,37.54-6.58A4.9,4.9,0,0,1,282.09,848.74Z"/><path d="M181.62,861.39c0,5.76-.17,11.53,0,17.28.25,6.56,3.68,9.93,10.47,9.77a71.88,71.88,0,0,0,28.16-6.33c2.5-1.12,5-2.84,7.41-.17a5.25,5.25,0,0,1,1.11,4.1c-.78,3.14-3.48,3.18-6.3,3.83-8.87,2-18.54.17-26.46,7.46-5,4.56-18.3-4.49-19.41-12.68-1.79-13.27-1.22-26.62-.8-39.95.06-1.81,0-4,2.39-4.11,2.88-.14,3.32,2.34,3.38,4.44.16,5.45,0,10.91,0,16.36Z"/><path d="M978.17,694c8.81-1.65,20.66.59,31.48-5,3.93-2,5.84,1.12,5.75,4.48-.08,3.2,3.75,9.22-2.53,9-6.74-.19-5.37,3.35-5,6.7,1,8.15-.13,16.4,1.65,24.54.94,4.3-.7,8.44-3.64,11.79a2.1,2.1,0,0,1-3.23-.23c-2.88-3.61-4.79-7.17-3.63-12.42,1.79-8,.61-16.34,0-24.53-.4-5-3.14-6.57-8.08-5.94-7.51,1-15.09,1.28-22.62,2-4.21.41-7.52-.46-7.62-5.35-.1-5.3,3.78-5.36,7.68-5.18C970.83,694.06,973.26,694,978.17,694Z"/><path d="M1053.81,732.75c-4.79.57-9.37-1.31-13.74-3.32-5.14-2.35-7.63-6.78-7.27-12.55.39-6.24,10.67-18.34,16.89-20,9.12-2.4,20.91,2.21,25.49,10,6.26,10.62,3,19.63-8.63,23.84C1062.52,732.15,1058.44,733.34,1053.81,732.75Zm2-8.32c6.82,0,12.56-1.48,14.23-8.11,1.45-5.73-3.7-9.15-7.65-10.74-6.31-2.53-11.3,2.52-16.26,5.85-2.28,1.53-4.58,3.41-3.63,6.63a7.21,7.21,0,0,0,5.89,5.05C1051.07,723.65,1053.76,724.06,1055.83,724.43Z"/><path d="M1115.64,694.47c16.48,0,22.46,5.1,22.56,19,.06,9.21-12.8,18.79-25,18.65-11.71-.13-18.78-7.17-18.68-18.6C1094.6,699.45,1100.17,694.43,1115.64,694.47Zm.55,29.81c7.75.27,17.09-6.46,16.64-11.66-.49-5.57-8.93-10.76-15.63-9.62-11.34,1.93-16.06,6.19-14.37,13.36S1110.88,723.6,1116.19,724.28Z"/><path d="M1218.23,717.62c-9.36-.9-18.74-1.42-27.71-4.73-3.39-1.25-6-3-6.4-6.78-.37-3.43,2.41-4.49,4.71-6,5.34-3.45,10.85-6.69,15.11-11.58,1.41-1.62,3.43-3.46,5.45-2,2.26,1.64,1.3,4.4.46,6.73-1.25,3.46-4.54,4.71-7.23,6.61-1.43,1-3.55,1.68-3.28,3.89.32,2.6,2.62,3.13,4.74,3.46,6.86,1.06,13.77,1.86,20.6,3.13,2,.37,5.64-.63,5.43,3.12-.17,3-3.21,3.26-5.53,3.66A58.2,58.2,0,0,1,1218.23,717.62Z"/><path d="M1173.33,687.46c3.43,0,4.41,2.12,4.52,4.78a118.34,118.34,0,0,0,4.12,27.63c1,3.44,1,6.64,3.86,9.63s.78,6.82-1.22,10c-1,1.61-2.24,3.22-4.31,2.5-3.87-1.35-3.92-4.83-4.31-8.23-1.45-12.56-2.64-25.16-7.13-37.16C1167.18,692.14,1169.12,689,1173.33,687.46Z"/><path d="M223.54,748.77a42.36,42.36,0,0,0-5.4-25.37c-1.58-2.9-3.83-6.46.63-8.5,3.77-1.73,5.28,1.52,6.31,4.56.48,1.4.58,3.25,2.46,3.39,2.42.18,2.62-2,3.23-3.64,2.18-5.91,5.67-10.64,11.7-13.17,8.93-3.76,15.52-1.1,20.85,8.53,3.83,6.91,2,13.6-5.44,18.67-2,1.36-4.63,1.9-4,5.18.59,2.92,3,4.06,5.34,4.23,6.63.49,13.44,9.13,20.11-.75,1.49-2.2,4.27.31,4.87,3.12,1.6,7.43-4.4,12.61-12.55,10.2-10.74-3.17-21.42-6.63-31.89-10.6-6.31-2.4-8.42-.64-8,5.64a12.44,12.44,0,0,1,0,2.73c-.53,3.35-1.12,7.46-5.32,7.21-5-.3-3.62-4.55-3.26-7.8C223.31,751.19,223.42,750,223.54,748.77Zm14-16.46a45.36,45.36,0,0,0,17-6.18c4.47-2.66,4.53-6,1.43-9.83-3.79-4.65-8.26-6-13.55-2.59-6,4-8.24,10.25-9.25,16.86C232.89,732.6,235.68,732.67,237.53,732.31Z"/><path d="M66.22,734.83c.66-3.46-1.3-7-2.39-10.75-.75-2.56-.66-6,2.67-6.84,3.78-1,4.58,2.53,4.82,5.13.71,7.83,1.16,15.69,1.43,23.55a12.49,12.49,0,0,1-6.44,11.32c-3.89,2.24-7.59-.65-10.73-3.09-4.07-3.15-8.06-6.42-11.9-9.84-1.89-1.68-3.7-3.61-6.27-2.11s-.73,3.71-.57,5.73c.47,6.05.72,12.11.94,18.17.1,2.66.69,6-3.43,6.06-3.52,0-4.27-3-4.53-5.79-.72-7.56-1.35-15.13-1.83-22.71-.35-5.45-.35-10.94-2.15-16.2-.94-2.76-1.18-5.82,1.48-7.41,3.08-1.83,4.94,1.13,6.65,3.12,5.93,6.91,11.6,14.08,19.3,19.16,2.86,1.89,5.27,5.79,9.54,3.65C67.31,743.73,66.25,739.38,66.22,734.83Z"/><path d="M133.54,741c-.09,11.89-11.35,22.65-24.14,22.31-11.14-.3-17.46-6.39-18.08-20.49s9.46-24.5,22-24.12C125.48,719.09,133.62,728.09,133.54,741Zm-19.67-12.62c-8.17-1.89-15.33,7.81-14.74,14.6.65,7.47,4.59,11.5,12.32,11.54,8.22,0,15.2-6.57,15.28-14.59C126.8,732.25,122.57,728.46,113.87,728.42Z"/><path d="M151,728.35c.52-2.56-1.83-7.23,3.48-7.45,4.75-.2,5.56,3.56,5.7,7.62.2,5.76.41,11.51,3.1,16.91s6.42,7.5,12.36,7.38c6.16-.12,8.49-4.12,10.38-8.71,3.38-8.2.54-17.16-7-22.83-2.32-1.76-4.5-3.88-2.54-6.8,2.22-3.32,5.26-2.15,8-.27,12.87,8.89,12.23,37.7-1.21,45.77-6.27,3.77-12.77,3.53-18.6-1.38C157.73,752.73,151.07,738.06,151,728.35Z"/><path d="M343.71,768.49c-12.16.13-19.77-3.23-26.35-9.13-1.4-1.25-4.58-2.08-2.52-4.73,1.55-2,3.12.25,4.63,1.06a38.11,38.11,0,0,0,19.15,5c2.7-.06,6,.6,7-2.73.88-3.1-1.63-5.07-4.11-6.38-9.88-5.18-14.22-13.6-14.78-24.41-.41-8.18,3.71-13.15,11.05-15.77,1.58-.56,3.84-1.28,4.91.73,1,1.81-.4,3.41-1.62,4.84-9,10.56-7.12,22.46,4.61,29.45a7,7,0,0,1,2.25,1.5c3,4.29,12.07,4.35,9.24,12.55C354.4,768.43,347.28,768.32,343.71,768.49Z"/><path d="M300.18,718.47a12.24,12.24,0,0,1-3.21-2,4.19,4.19,0,0,1,.13-5.84A36.44,36.44,0,0,0,306,698.26c1.27-2.84,4-2.54,5.76,0C313.88,701.22,304.61,718.2,300.18,718.47Z"/><path d="M1043,880.91c8.87-3.06-2-15.22,9.37-19.08,4-1.38,5.61-10.12,8.22-15.54,1.3-2.69,2.13-5.65,3.67-8.19,2.76-4.55,5.88-4,8,.51a102.82,102.82,0,0,1,6.18,16c1.5,5.56,4.2,7.3,9.78,6,3.08-.73,7.82-1.52,8.64,2.45,1,4.89-3.83,4.13-7,4.52-1.45.18-3.23-.09-3.64,1.85-.48,2.28,1.15,3.06,2.92,3.83,5.07,2.21,3.43,6.41,2.73,10.16a4,4,0,0,1-3.78,3.39c-2.07.17-3.26-1.32-4.13-3a10.26,10.26,0,0,1-.77-2.58c-1.28-5.66-2.29-12.37-9.7-12.1-7.75.29-16.9-.66-19.88,10.11a7.46,7.46,0,0,1-5.77,5.3C1045.48,885.06,1043.82,884.07,1043,880.91Zm23.51-17c2.53-.28,6.46.17,6.13-4.85-.22-3.49-1.71-7.15-5.59-6.75-4.08.41-5.07,4.85-5.81,8.21S1063.09,864.47,1066.55,863.93Z"/><path d="M768.76,855.49c-.13-2.73.51-8.31-3.68-12.76-3.25-3.45-3.37-7.72.35-10.12,4-2.58,6.34.28,7.6,4.56,1.43,4.86,4.83,3,6.81.66,5.61-6.66,13.4-7.51,21.11-8.72,3.44-.54,7.82-2.18,9.67,2,1.62,3.62.51,7.87-2.35,10.95a22.7,22.7,0,0,1-12.41,7c-2.42.48-5.19.56-5.62,3.52-.58,3.87,3,4.07,5.38,4.82,11.38,3.55,22.77,6.09,33.54-1.82,1.6-1.17,3.18-1.85,4.78-.17s1,3.33,0,4.94c-3.22,5-8.43,6.74-13.82,7.42-12.76,1.62-25.32.6-36.55-6.3-5.24-3.22-4.08,1.74-5.83,3.38-2.5,2.32,1,9.19-4.66,7.8-4.22-1-4.82-6.38-4.33-10.86C768.87,860.57,768.76,859.36,768.76,855.49Z"/><path d="M845.27,867.53c.3-9.66-2.56-17.53-6.9-24.89-2.1-3.57-3.16-7.35.94-9.3s4.47,2.56,5.7,5.11c2,4,3.4,4.47,5.63-.12,3.64-7.5,12.06-11,20.38-9.22,12.59,2.73,19.4,8.78,20,17.64.79,11.15-9.18,14.9-15.08,21.1-7.24,7.61-18.3,6.57-27.71,8.25C843.18,877,846.09,870,845.27,867.53Zm8.8-10.11c-.55,11.18,1.94,12.41,12.42,7.91,6.75-2.91,11-8.34,15.73-13.15,5-5.06,3.44-9.68-3.32-12.28C862.7,833.67,855,839.12,854.07,857.42Z"/><path d="M739.41,847.83c-.42.6-.77,1.6-1.46,2-6.16,3.63-3.24,7.16.67,9.44,4.25,2.47,3.51,5.89,3.19,9.38-.3,3.22-2.91,4.58-5.64,5-3.17.45-3.75-2.37-4.46-4.65-.36-1.14-.29-2.44-.77-3.52-2-4.54-2.57-12.05-7.75-12S713.7,859,710.81,864c-2.06,3.61-2.77,7.94-6,10.94-1.52,1.4-2.62,3.8-5.08,2.77s-3.14-3.55-2.63-6.11c2.63-13,9.53-24.58,13.44-37.21,1.52-4.93,9.18-4.37,12.2.79,3.37,5.76,5.85,12.23,14.58,10.25C738.67,845.14,739.39,846.24,739.41,847.83Z"/><path d="M677.88,855.84c-1.71,4.72,4.52,12.7-4,16-7.74,2.94-12-3.85-16.61-8.28-11.13-10.62-10.84-10.6-17.44,3.83-2.19,4.78-1.82,13.1-9.54,12.41-7-.63-5.1-8.37-6.87-13.09S620,857,618,852.3c-1.53-3.62-4.44-8,.64-10,6.29-2.46,6.14,4.08,7.33,7.6,1.44,4.25,2,8.8,3,13.2.4,1.78.91,3.72,3.17,3.78s2.78-1.88,3.21-3.66c1.37-5.68,4.43-10.53,7.7-15.21,2.49-3.56,5-4.7,8.37-.21s7.77,8.38,11.77,12.47c1.65,1.68,3.34,4.07,6.06,2.75,2.46-1.2,2.27-3.93,2.45-6.38.34-4.34-1.43-8.27-2-12.42-.47-3.21-1.26-7.39,3.54-7.67,4.39-.26,3.66,4,4,6.76C677.69,847.15,677.65,851.08,677.88,855.84Z"/><path d="M523.49,867.67c0-1.21,0-2.42,0-3.62.67-20.18.08-20.7-20.63-18.6-2.74.28-6.77,2.66-7.56-1.74-.91-5.13,3.88-5.52,7.37-5.64,10.58-.36,21.08-.71,31-5.29,1.78-.83,4.5-1.43,5.81.73,1.5,2.48,1,6-.84,7.6-10.92,9.62-7.06,22.11-6.14,33.54.4,4.92.87,9.32-3.88,9.87s-4.91-5.07-5.42-8.73C522.79,873.15,523.34,870.38,523.49,867.67Z"/><path d="M927.51,881.24c-6.57-.82-12.82-1.67-18.71-4.26-2.17-1-3.85-2.07-3.11-4.64.39-1.37,1.15-3.11,2.27-3.71,2.24-1.19,2.73,1.44,4,2.53,4.49,3.92,16,4.55,20.31.8,4.54-3.91.34-6-2.45-7.15-8-3.34-10.7-10-12.28-17.66-1.17-5.62,1.17-10.09,4.8-13.89,3.23-3.38,7.55-3.6,11.84-2.44,2,.55,4.4,1.65,4.36,4,0,3-2.51,2.32-4.69,2.47-9.09.66-11.22,5-7.13,13.27,3.69,7.47,9.89,12.12,17.07,15.5,3,1.41,4.19,3.08,3.9,6.16-.26,2.9-2.24,4.1-4.71,4.79C937.72,878.5,932.49,879.89,927.51,881.24Z"/><path d="M556.64,863.65c.71-18.19,3.13-21.15,16.94-20.67,9.59.34,15.31,8.78,14.66,21.62-.43,8.24-9.56,14.74-20,14.23C558.78,878.37,556.2,875,556.64,863.65Zm6.65-2.89c-.11,6.28.44,12.64,7.67,12.28,6.18-.31,10.93-4.48,11.25-11.81.41-9.16-5.51-11.05-12.75-11.1C560.85,850.07,564.86,857.29,563.29,860.76Z"/><path d="M1410.34,841.58c4.46.44,9-2.21,9.34,3.14.25,4.26-3.26,6-7.38,6.22-9.92.47-19.83,1.17-29.76,1.37-2.37.05-4.34-.37-4.49,2.59-.15,3.27,1.35,5.14,4.93,4.74,7.79-.85,15.61-1.47,23.36-2.57,3-.43,6.75-2.17,7.4,1.95.59,3.78-3.56,4.07-6.51,4.64-7.61,1.46-15.15,3.37-22.82,4.29-6.1.73-6.6,4.06-5.7,8.79a19,19,0,0,0,.82,3.52c1.69,4.2-.9,10.88,5.41,12.28,5.77,1.27,8.08-3.77,10.5-8.13,1.14-2,3.74-3.71,6.11-1.61,2,1.79.32,3.9-.83,5.61-2,3-4,6.06-6.28,8.84-3.5,4.27-8.26,6.3-13.65,5.24s-5.92-6.18-7.21-10.51c-4-13.58-1.76-27.62-3.19-41.38-.35-3.4,1.49-4.68,4.83-5C1387.43,844.32,1399.62,842.82,1410.34,841.58Z"/><path d="M1324.23,857.15c3.23.09,8.87.53,14.57-.8,2.82-.66,6.85.13,6.88,3.81,0,3.34-3.66,1.89-5.83,2.08-8.66.75-17.31,1.63-26,2.09-5,.27-7,2-6,7.31a62.73,62.73,0,0,1,.66,12.57c0,2.52.32,6.34-3.6,5.85a5.57,5.57,0,0,1-4.6-5.92c.6-11.41,1.29-22.81,1.9-34.22.2-3.77,1.69-6.33,5.73-6.86,10.06-1.32,20.11-2.69,30.17-4,3.62-.48,5,1.63,5,4.78,0,4.27-2.72,6-6.55,5.41-6.93-1-13.82-.6-20.72-.07a23.82,23.82,0,0,0-6.18,1.19,3.83,3.83,0,0,0-2.68,4.23c.3,2.27,2,2.62,4,2.59C1314.56,857.11,1318.16,857.15,1324.23,857.15Z"/><path d="M1200,859.16c0,7.24.11,14.48,0,21.72-.12,5.7,2.36,7.44,7.87,6.43,8.65-1.58,17.14-3.43,24-9.41,2.28-2,4.43-3.08,7.3-1.55s2,4,1.91,6.38c-.12,3.56-2.07,4.41-5.26,4.65-8.26.61-15.53,4.71-23.29,7.13-11.84,3.7-17.29.25-18.26-11.86-.78-9.68.14-19.3,1-28.93.42-4.76,1.66-9.43,0-14.32-.85-2.5-.48-6.08,3.15-6.19,3.87-.12,3.38,3.32,3.36,6.06-.05,6.63,0,13.26,0,19.89Z"/><path d="M1270.38,864c1.19,5.35,0,12.62,2.9,19.48,1.24,2.94,1.82,7.5-2.43,8.31-5.06,1-5.75-3.83-5.46-7.31.73-8.79-1.3-17.31-1.81-26-.2-3.45-1.14-7.43,3.44-7.61,4.37-.17,3.13,4.15,3.34,6.94C1270.48,859.35,1270.38,860.86,1270.38,864Z"/><path d="M877.11,1365.84c.71,7.19,1.27,15.53-1.38,23.65-3.23,9.9-8.75,11.18-15.57,3.55-4-4.44-7.66-9.14-11.29-13.86-1-1.33-1.69-3-3.56-3-2.63,0-3,2.31-3.36,4.22-1.38,7.32-4.57,13.88-8.29,20.21-3.9,6.61-8,5.41-10.92-.58-6.35-13.19-12.12-26.66-18.34-39.92-1.51-3.21-1.82-6.06,1.5-7.65,4.34-2.08,4.79,2,5.87,4.61,4.2,10.11,8.17,20.32,12.52,30.38,2.21,5.12,4.06,7.42,8,.23,3.8-7,4.48-14.49,6.69-21.72,1.79-5.86,3.9-8.11,9.28-2s7.25,14.24,13.24,19.75c1.66,1.52,2.71,4.17,5.57,3.24,2.6-.84,3.12-3.36,3.33-5.67a118.26,118.26,0,0,0-.46-27.89c-.56-3.82-1.43-8.61,3.05-9,4.79-.38,4.26,4.7,4.18,8.37C877,1356.71,877.11,1360.7,877.11,1365.84Z"/><path d="M898.82,1393.05c3.44-14.22,6.17-28.66,10.67-42.53,1.7-5.25,11.18-2.9,14.3-8.78a14.56,14.56,0,0,1,6.61,8.48c2.12,8.13,6.13,8.46,13.21,5.55,4-1.65,11.14-7,13-2,2,5.65-6.69,3.85-10.39,5.61-9.58,4.56-10.72,9.87-1.74,16.35,3.77,2.71,6.31,4.72,4.23,9.45-1.1,2.49-2.4,5-5.6,5-2.71,0-4-2.12-4.89-4.37-1.07-2.79-1.93-5.67-3-8.48-1.46-3.88-1.59-9.64-7.46-9-5.63.65-11.16,2.88-12.93,9.42a64,64,0,0,1-7.58,17.34c-1.27,2-1.94,5.61-5.68,4C899,1398.06,898.86,1395.59,898.82,1393.05Z"/><path d="M994.63,1393.91c-12.71,1-23.4-4.33-33.64-10.85-2.14-1.36-5.14-3.23-2.64-6.26,1.95-2.38,4.27-.47,6.06,1,3.93,3.3,8.68,4.9,13.37,6.57,2.21.79,5,1.11,6.48-1,1.8-2.52-.73-4.2-2.14-5.94-3.77-4.66-8-9-11.25-14-4.75-7.45-2.61-15.06,2.53-21.17,4.45-5.28,10-10.3,18.16-7.28,2.14.79,4.91,1.4,4.83,4.27s-2.77,3.14-5.1,3.65c-15.23,3.33-18.46,12.14-8,23.65,5.83,6.4,10,15.38,20.55,16.21,2.69.21,3.45,2.89,3.16,5.44-.32,2.74-.95,5.46-4.41,5.69C1000,1394.06,997.29,1393.91,994.63,1393.91Z"/><path d="M596.75,1394.54c2-6.59,4.25-14.07,6.52-21.54a4.87,4.87,0,0,1,.45-.88c3.73-6.58,2.85-16.38,12.67-18.67,10.76-2.52,11.23,8.13,16.32,13s11.28,2.19,17.1,1.58c2.5-.26,6.1-2.08,7,1.09,1.25,4.24-3.28,4.11-5.85,5-12.31,4.14-12.33,4.09-4.74,14.41,3.18,4.32,3.72,9.4-.69,12.27-4.91,3.2-6.4-2.75-8.68-5.57-1-1.21-1.15-3.09-1.74-4.64-1.6-4.21-1.88-10.48-7.85-10-6.36.46-13.37,1.59-16.21,9.23-1.27,3.42-2.53,7-5.71,9.19-2,1.37-3.4,4.87-6.58,3C596.59,1400.56,596.82,1397.84,596.75,1394.54Z"/><path d="M513.21,1362.59c-.08-3.75-.84-6.51,2.63-6.84,2.77-.26,4.4,1.4,4.67,4.1.58,6,4.08,6.53,9.17,5.85a116.86,116.86,0,0,1,17.94-.93c7.3.15,12.25-1.12,12.06-10.27-.12-5.42,4.31-4.1,7.19-2.17,3.32,2.22,3.69,6,3.83,9.8.43,11.94-.73,24,2.49,35.76,1.24,4.51-1.29,8.57-5.3,9.43-4.83,1-5.63-4-6-7.38-.76-7.27-1-14.62-1.17-21.94-.11-5.26-2.32-7.16-7.52-6.21-7.53,1.36-15.08,2.61-22.67,3.58-6.76.87-8.53,4.21-5.82,10.24,1.63,3.64,3.36,7.23,5,10.84,2.3,5,.13,9.28-4,10.72-4.48,1.57-6.25-3.18-6.75-6.73C517.16,1387.31,516.53,1374,513.21,1362.59Z"/><path d="M482.66,1382.14c0,3-.14,6,0,9,.26,4.54.1,9.26-4.87,10.88-4.61,1.5-8.35-1.31-11.25-4.86-4.38-5.36-7.76-11.62-14-15.22-2.81,5.88-5.51,11.82-8.47,17.62-2.29,4.5-5,9.23-10.76,9.15-6.44-.09-7.14-6-8.84-10.61-4.26-11.62-2.78-24.54-8.21-35.95-1-2,.68-5,2.9-5.84,3.35-1.33,3.86,2,4.29,4,2.11,9.75,3.82,19.59,6,29.33.61,2.78.7,7,3.88,7.5,4.16.7,4.87-4,6.21-6.71,2.71-5.59,7.19-10.64,6.17-17.62-.35-2.41.1-5,2.55-6,3-1.32,5.07.79,6.79,2.86,3.63,4.35,6.89,9,10.77,13.14,2.3,2.43,3.93,7.45,8.32,5.59,3.52-1.49,2.09-5.85,2.17-9.06a71.17,71.17,0,0,0-1-13.87c-.6-3.41-.44-8.64,4.34-8.58,4.46.05,1.93,4.63,2.12,7.29.43,6,.81,12,1.21,18Z"/><path d="M703.61,1374.82c.79,9.09-4.86,19.21,3,27.58,1.73,1.83-.46,4.33-1.84,6.21-1.65,2.23-3.8,2.54-6.18,1.4a6.51,6.51,0,0,1-3.92-6.37c0-10.31-.19-20.61-.12-30.92.07-10.89-2-12.38-12.33-8.79-3.77,1.3-7.5,2.88-11.38,3.57-3.66.66-6.86-1.19-7.31-5.09s2.94-5.16,5.94-5.37c9.2-.66,18.16-.08,25.33-8.62,3-3.61,8.33.06,8.67,5.49C703.94,1360.86,703.61,1367.85,703.61,1374.82Z"/><path d="M559.86,1523.63c0-5.32,0-10.65,0-16-.05-8,1-11.83,11.85-13,19.16-2.1,31,6.4,41.38,19.68,6.81,8.7,6.29,20.28-1.68,28-8.95,8.65-19.62,13.73-32.66,9.81a10,10,0,0,1-1.87-.69c-5-2.72-13.1,2.93-15.56-3.17s-1.21-13.69-1.57-20.63c-.06-1.32,0-2.66,0-4Zm12.27,4.54c.07,16.21,5.35,19.79,21.17,14.31,1.57-.55,3.07-1.31,4.65-1.84,5.46-1.81,9.41-5,10-11.13.61-6.84-1.55-13.37-7.35-16.45-6.79-3.6-14.41-10.29-22-6.65s-6.1,13.18-6.45,20.76A8.34,8.34,0,0,0,572.13,1528.17Z"/><path d="M482.23,1519.76c-1.13-18.82,1.34-19.31,19-23.55,7.71-1.85,15.83-2,23.77-3,3.45-.38,7.2-.57,7.66,4.07.52,5.06-2.8,5.44-7.08,5.68-9.92.56-20,.76-29.21,5.54-1.77.91-4,1.41-3,4.09.72,1.91,2.62,1.68,4.28,1.68a71,71,0,0,0,26.28-4.79c2.35-.92,5.78-2.22,6.59,1.58.6,2.79-2.49,3.29-4.74,4-8.6,2.58-17.06,5.7-25.79,7.72-5.7,1.32-8.61,3.7-6.76,9.51,1.68,5.31,3,11.47,11.18,9.65a34.75,34.75,0,0,0,15.11-7.33c2-1.64,5-3.85,7.12-1.66,2.95,3-.8,5.49-2.52,7.33a46,46,0,0,1-20.34,12.29c-9.79,3-17.15-2.27-19.14-13.31C483.29,1532.08,482.81,1524.74,482.23,1519.76Z"/><path d="M67.78,1521.86a19.89,19.89,0,0,1-1.65,2.32c-7.63,8.13-5.91,14.42,5.58,18.56,3.76,1.35,4.2,4,4.32,6.91a10.61,10.61,0,0,1-4.46,9.54c-2.45,1.6-4.06-1-5.27-3.11-3.53-6-6.85-12.17-10.68-18-2.67-4-5.15-8.92-11.65-7.32-6,1.47-11.51,3.15-13.33,10.28-1.22,4.81-3.28,9.41-5,14.09-.84,2.27-1.87,4.62-4.92,3.44-2.59-1-3.77-4.23-2.58-5.78,6.45-8.43-1-20.55,8.65-28.69,3.8-3.19,3.39-11.19,5.39-16.82,1.14-3.24,1.88-8.06,6.46-7.7a10.23,10.23,0,0,1,9,7c1,2.83,2.37,5.53,3.25,8.39,1.65,5.37,4.25,8.16,10.22,5.14C63.37,1518.94,66.24,1518.1,67.78,1521.86Z"/><path d="M352.36,1552.58c-4.44-1.34-6.19-3.63-4.33-7.63,5.75-12.35,11.16-24.9,17.51-36.94,4.11-7.8,10.37-7.42,16.09,1.1,3.58,5.33,6.19,10.26,13.84,7.08a3.41,3.41,0,0,1,4.72,2.41c.48,1.77-.26,3.08-1.48,4.43-6.64,7.34-6,11.56,3,15.63,3.32,1.49,5.28,2.66,4.16,6.34-1.21,4-3.5,7.46-7.59,8.6-3.79,1.05-5-2-6-5.1a40.26,40.26,0,0,0-3.52-8.27c-2.56-4.4-3.31-11.64-9.84-11.15s-12.39,3.49-15.12,10.86C361.8,1545.52,357.26,1549.56,352.36,1552.58Z"/><path d="M285.16,1527.35c0-10.84,3.25-17.51,7.07-23.72,3.32-5.42,9.18-6.67,15-5.43,6.46,1.36,11.58,5.1,14.16,11.46,1.15,2.84,0,5.32-2.69,6.73-3.19,1.68-4.33-.27-6-2.91-4.78-7.69-12.73-7.11-16.7.87-4.43,8.91-1.7,21.06,6,26.81,7.2,5.35,18.45,4.68,25.71-1.85,4.31-3.88,9.85-6.93,9.25-14.38a4,4,0,0,1,5.53-4c3.29,1.08,3.5,3.76,2,6.47-3.12,5.47-5.35,11.41-9.56,16.31-9.14,10.64-18.81,14.29-28.78,10.42C293.55,1549.16,284.89,1536.8,285.16,1527.35Z"/><path d="M424.3,1504.29c10.25.74,19.58-3.18,29.19-5.61,2-.51,4.83-1.65,6.27,1.09,1.1,2.08-1.33,3.55-1.74,5.28-2.85,12.2-3.73,24.6.89,36.45,1.57,4,1.87,6.79-.75,9.91-1.85,2.2-4.2,3.55-7,2.37-4.13-1.71-4.37-5.35-4.2-9.21.42-9.65.52-19.27-.84-28.91-.66-4.74-2.15-6.46-7-5.37-7.13,1.59-14.36,2.7-21.54,4-3.26.6-6.65,1.83-9.73,0-1.86-1.15-4.32-2.57-4-5.27.36-3,2.54-4.62,5.55-4.68C414.33,1504.21,419.32,1504.29,424.3,1504.29Z"/><path d="M221.47,1524.43c.59-13.84,7-22.75,16.1-22.29,11.56.6,23.57,13.95,23.18,25.78-.31,9.64-10.39,19.63-19.46,19.3C231.33,1546.84,221,1535,221.47,1524.43Zm16-13c-6.07.57-6.18,6.85-7.08,11.6-1.22,6.46,5.67,15.8,10.82,15.43,6.5-.48,10.14-4.85,11.23-10.82S244.6,1511.75,237.45,1511.48Z"/><path d="M153.5,1514.82c1.36-4-2.31-12,4.83-11.51,6.12.44,3.54,7.86,3.45,12.69-.18,9.29-1.51,21.25,6.78,25.6s18.33-1.8,27.08-6.4c3.51-1.85,5.24-11,10.32-5.29,4.66,5.27-3.2,8.07-6.11,11.57-4.66,5.58-11.1,8.54-17.82,10.63a20.38,20.38,0,0,1-26.31-16.06C154.63,1529.15,154.24,1522.13,153.5,1514.82Z"/><path d="M116.35,1552c-12.39-.38-18.13-4.57-19.1-14.33-.82-8.27-2-16.5-2.78-24.77-.3-3.13.36-6.62,4.13-6.79s4.27,3.28,4.42,6.43c.29,6.31.33,12.67,1.13,18.93,1,7.54,5.25,11.53,13.16,9.3,7-2,14.56-2.14,20.5-7.12,2.24-1.89,4.92-2.8,6.95,0,2.16,3,.75,5.86-1.86,7.82C134.14,1548.08,123.58,1549.68,116.35,1552Z"/><path d="M108.85,1394.31c-1.82,3,3.62,10.46-3.67,10.61-8.16.16-4.25-7.44-4.34-11.72a72.81,72.81,0,0,0-3.29-20.64,64.57,64.57,0,0,1-2.06-9.7c-.27-1.73.37-3.52,2.36-3.77s2.88,1.39,3,3.16c.94,11.43,5.36,7.34,9.66,2.07,7-8.59,16.33-12.28,27-13.2,3.69-.31,8.82-3.29,10.48,2a11.63,11.63,0,0,1-4.4,13.37c-3.53,2.47-6.92,5.22-11.28,6.32-1.88.48-4.24,1.36-3.44,3.9a5.31,5.31,0,0,0,3.44,3.12c8.59,1.33,16,6,24.61,7.81,16.86,3.65,20.82-2.71,26.14-16.78,1.32-3.49,2.43-6.76,4.9-9.55,7.27-8.2,17.37-8.79,25.7-1.39a49.31,49.31,0,0,1,4.9,5c7.44,8.87,8.78,18.22,3.61,24.57-7,8.65-19.51,11.8-28.9,6.24-7.07-4.18-12.89-8.58-20.93-1.19-3.13,2.89-9,1.29-13.64.31a140.82,140.82,0,0,1-34.05-11.45C110.1,1376.15,108.78,1377.09,108.85,1394.31ZM201.3,1391c7.12-.45,13.75-1,16-7.67,2.44-7.42-1.33-13.67-8.27-15.9-4.66-1.5-6.06-9.54-12.06-6.28-6.75,3.67-9.22,10-8.19,17.78C189.82,1387,195.13,1390,201.3,1391ZM141,1357.24a32.46,32.46,0,0,0-20.18,5.26c-1.89,1.19-4.84,2.21-3.78,4.91s4.27,2.81,6.89,2.16C130.51,1368,135.74,1364.38,141,1357.24Z"/><path d="M249.5,1374.89c0-4.14.2-7.82-.06-11.46-.26-3.43-.75-6.83,3-8.7s6.59.33,9,2.5c5.47,4.84,10.9,9.63,17.19,13.46,9.79,6,14.4,4.94,19.88-5.16,1.25-2.32,1.79-5,3-7.35,1.09-2.11,2.73-3.77,5.55-3.37s3.64,2.15,4.29,4.67c2.08,8,4.57,16,6.68,24,.95,3.6,1.61,7,5.58,8.8,4.92,2.21,2.58,5,.28,7.78-2.85,3.48-5.26,1.78-7.48-.49-5.08-5.15-3.94-12.51-6.3-18.67-4.52-11.82-5.14-12.33-12.51-2.81-5.41,7-10.07,8.45-17,2.08-4.1-3.77-9.38-6.25-14.1-9.36-2.31-1.51-4.83-2.8-7.45-1.55-3.41,1.63-2.56,4.94-2.41,7.94.23,4.64.42,9.3.34,14-.05,2.52-1.31,4.58-4.26,4.48-3.29-.12-4.69-2-4.43-5.27C248.72,1385,249.12,1379.73,249.5,1374.89Z"/><path d="M32.53,1368.06c-.22-3.28-.4-5.61-.52-7.93-.3-5.45-1.28-8.8,7.72-7.36A55.78,55.78,0,0,0,68,1350.1c2.48-.95,5-2.48,7.45-.3a4.55,4.55,0,0,1,1.35,5.46c-1.54,3.07-4.48,3.74-7.68,3.33-9.24-1.18-17.7,2.61-26.5,4.17-3.46.6-5.62,2.65-4.79,6.24.92,3.94,4,2.35,6.53,1.88,7.83-1.46,15.64-3.05,23.51-4.29,2.06-.33,5.27-1,5.73,2.16.41,2.92-2.45,3.49-4.73,4q-11.67,2.47-23.37,4.85c-3,.61-7,1.34-5.83,5.13,2.38,7.56-2.41,17,6.44,23,2.71,1.82-1.05,12.51-4.35,13-4.83.7-4.12-3.24-4.5-6-1-7.58-2.26-15.15-2.74-22.77S31.37,1374.86,32.53,1368.06Z"/><path d="M738.16,1540.12c0-1.34,0-2.67,0-4,.74-22.32.09-22.89-22.81-20.57-3,.31-7.48,3-8.35-1.93-1-5.67,4.28-6.1,8.15-6.23,11.69-.39,23.31-.78,34.22-5.85,2-.91,5-1.58,6.42.81,1.67,2.75,1.15,6.58-.92,8.4-12.08,10.64-7.81,24.45-6.79,37.09.44,5.43,1,10.3-4.3,10.91s-5.41-5.6-6-9.65C737.39,1546.18,738,1543.12,738.16,1540.12Z"/><path d="M774.81,1535.67c.79-20.11,3.47-23.38,18.74-22.85,10.6.37,16.92,9.71,16.2,23.91-.47,9.11-10.57,16.29-22.13,15.73C777.18,1552,774.32,1548.21,774.81,1535.67Zm7.36-3.19c-.12,6.94.48,14,8.48,13.57,6.83-.34,12.08-5,12.44-13,.44-10.13-6.09-12.22-14.1-12.28C779.47,1520.66,783.9,1528.64,782.17,1532.48Z"/><path d="M1073.31,1522.86c3.29-6.58,5.43-13.56,10.76-18.8,7.19-7.08,22-7.58,29-.53,4.31,4.34,2.25,13.52-4,18.35-4.66,3.59-10.22,4.68-15.73,6-2.71.63-5.33,1.62-5.85,4.68-.55,3.23,2,4.84,4.39,5.93,6.65,3,12.73,7.27,20.06,8.81,5,1.06,9.52,2.79,12.19-4.21,1.65-4.32,4.47-2.53,6.29.83,3.93,7.28-.17,14-8.92,13.91-14.26-.08-26.42-6.57-37.87-14-6.72-4.37-8.87-3.25-8.73,4.36a7.82,7.82,0,0,1-.19,2c-1,3.94-.08,10.39-5.9,9.64-5.44-.71-4.53-6.91-3.62-10.92,3.7-16.33-1.74-31-8-45.41-1.15-2.67-2.92-5,.3-6.68,3.63-1.87,6.53-.23,7.67,3.72,1.39,4.8,2.58,9.67,3.79,14.52C1069.65,1517.76,1069.43,1521,1073.31,1522.86Zm33.38-11.45c-.58-4.53-5-4.42-8.19-5.18-7-1.66-11.38,2.27-14.27,8.08-1.2,2.43-4.93,5.59-1.58,7.78,4.39,2.88,8.34-2.18,12.74-2.92,2.84-.47,5.44-2.39,8.13-3.7A5,5,0,0,0,1106.69,1511.41Z"/><path d="M990.51,1533.41a46.69,46.69,0,0,0-2-14.65c-2-6.42,3.62-12.89,1.48-19.94-.44-1.43,2.84-2.22,4.95-2,12.8,1.11,25.12-.67,36.79-6.21,1.94-.92,4-1.66,5.17.65a4.42,4.42,0,0,1-1.1,5.45c-2.83,2.61-6.29,3.63-10,4.08-6.61.8-13.28,1.33-19.8,2.62-3,.59-8.19-.53-7.37,5.64.72,5.42,4,7.56,9.06,6.75,5.57-.9,11.07-2.28,16.61-3.37,4.25-.84,8.52-1.58,12.79-2.29,1.9-.31,4.52-1.06,4.81,1.67.23,2.29-2.12,3.1-4.25,3.25-10.77.78-20.55,5.76-30.89,7.62s-8.41,8.25-8.28,14.64c.12,6,3.11,11.11,9.08,11.18,6.85.08,13-3.44,15.07-10.8.9-3.12.47-6.6.84-9.9.18-1.62.61-3.42,2.86-3.3,1.75.1,1.92,1.62,2,2.87.39,9.57-.64,18.72-8.9,25.19-5.71,4.47-11.91,7.89-19.28,4.26-7-3.48-9.06-10.1-9.54-17.37C990.4,1537.42,990.51,1535.41,990.51,1533.41Z"/><path d="M953.71,1534.5c-.57-16.14-.57-16.14-16.29-15.51-3.33.13-6.7.08-10,.51-4.8.62-10.86-.22-12.39,6.14-1.35,5.61-1,11.33,4.17,15.48,2.07,1.68,4.77,3.42,3.39,6.49s-1.87,8-6.42,8c-3.84-.06-5.35-4.09-5.81-7.3-1.94-13.8-3.51-27.66-6.94-41.21-.4-1.6-.78-3.58,1.15-4.31,2.32-.87,4.08.77,4.6,2.72,2,7.35,7.24,7.49,13.36,7s12-.48,18-.4c6.8.1,13.13.58,11.37-9.8-.81-4.82,2.62-6,6.17-2.76s6.93,6.74,5.66,12.86c-1.34,6.49-1.44,13.27-1.68,19.93-.15,4.21-2.56,9.51,4.93,10.85,3.32.59,1.8,3.87.65,5.75-1.89,3.06-3.36,7-7.34,7.69-3.14.5-4.72-2.45-5.08-5.12C954.46,1545.83,954.19,1540.15,953.71,1534.5Z"/></svg>