<svg xmlns="http://www.w3.org/2000/svg" width="1169.08" height="2170.39" viewBox="0 0 1169.08 2170.39"><title>c25-txt</title><path d="M1073.6,2154.3c.46-15.49-5.49-28.62-8-42.42-.83-4.6-2.8-9.84,3.38-10.73,5.23-.75,5.3,5.31,6.18,9,1.35,5.56-1.21,15.12,4,15.94,6.76,1.06,4.68-9.28,8.25-13.71,6.29-7.81,13.7-13.53,24.23-13.33,6.32.12,12.64.73,18.93,1.32,11.14,1.06,14.39,7.4,8.61,17.31-3.65,6.26-9.44,10.37-15.84,13.61-2,1-4.26,1.88-4.22,4.6s2.12,3.71,4.35,4.33c13.44,3.75,24.83,13.77,39.87,12.79,5.1-.33,6.28,3.68,5.52,7.66-1.21,6.38-5.94,7.24-11.11,5.26-15.19-5.82-30.68-11-45.15-18.56-5.92-3.1-11.81-6.28-17.59-9.64-6.65-3.87-9.58-2.06-9.69,5.57a108.9,108.9,0,0,1-1.25,14.41c-.49,3.34.52,8.66-5.09,8-4.77-.52-6.3-4.67-5.82-9.28A11.83,11.83,0,0,1,1073.6,2154.3Zm43.64-46.9c-8.62.5-17.23,1-23.2,8.62-3.33,4.26-4.3,6.9,2.42,9.68,10,4.15,17.9,2.23,25.49-4.66,3.22-2.93,8.55-4.95,6.3-10.38C1126.3,2106,1121.12,2108,1117.24,2107.4Z"/><path d="M971.09,2152.42c-.26,4.22-2.79,5.89-5.41,7.33-3.23,1.78-5.82.26-7.82-2.22-4.86-6-6.46-13.22-7.07-20.75-1.23-14.87-5.78-17.59-19.51-11.86-5.49,2.29-10.86,5.51-16.6,6.47-10.77,1.8-11,7.73-7.82,15.8,1.49,3.81,3.42,7.48,4.62,11.37,1.09,3.52.36,7-3.76,8-3.84.94-5.15-2-5.92-5.1-2.61-10.54-1.62-22.67-13.14-29.31-.57-.32-.56-3.15.15-4,4.13-4.72,3.38-9,.58-14.24-1.9-3.57-.91-9,3.89-9.87,4.37-.81,4.61,4.1,4.85,7.26.82,10.78,5.2,14.59,15.88,9.73,4.26-1.94,9.41-1.88,14.11-2.9,8.35-1.82,18.32-2,15.71-15.29-.3-1.56,1.2-3.5,3.44-3.77a2.86,2.86,0,0,1,3.28,2.33c2.19,9.58,10.24,17,9,28.08-.84,7.74.77,15.77,9.15,20.09C969.86,2150.21,970.53,2151.73,971.09,2152.42Z"/><path d="M1018.5,2168.75a15.74,15.74,0,0,1-16.66-8.49c-8.47-15.56-13.91-31.82-5.89-49.33,2.47-5.41,6-9.73,13.31-10,8.12-.3,16.18-2.24,24.26-3.5,3.74-.59,8.29-1.67,8.55,3.78.21,4.13-3.88,5.17-7.37,4.91-8.4-.63-16.08,2.74-24.11,4.09-2.71.46-7.89.36-6.37,5.27,1,3.33,4.66,2.17,7.74,1.43,9-2.16,18-4.06,27.15-5.58,3-.5,8.1-1.63,8.55,2.56.55,5.22-4.68,3.21-7.57,3.38-12.66.76-22.84,8.36-34.37,12.22-1.06.36-1.88,2.24-2.31,3.57-2,6.08,4.25,19.87,11.22,22.78,7.3,3,14.53,2.78,19.2-5.38,1.43-2.5,3.3-6.22,6.54-4.25,2.63,1.6,1.3,5.54.33,8.31C1038,2162.29,1027.75,2168.8,1018.5,2168.75Z"/><path d="M572,2110.85c-1.52,7.38-2.83,15.11-10.71,19.48-5.61,3.11-6.64,6.15-.49,10.53,9.13,6.5,18.6,12,29.26,15.51,2.48.81,5.1,2.23,7.53.72,3.71-2.31,7-4.08,7.66,2.33.53,5.07-1.18,8.88-7.08,9.19a27.24,27.24,0,0,1-14-3.35c-15.83-8.23-32.1-15.74-46.54-26.4-6.84-5.06-9.81-3.56-10.22,5-.28,6,2.13,16-4.86,16.34-7.49.38-4.77-10-6.31-15.62-3.42-12.52-6.08-25.26-9.43-37.8-1.11-4.14-1.21-8.33,2.93-9.36,4.68-1.16,4.61,3.48,4.86,6.84a5.6,5.6,0,0,0,.5,2.16c2.8,5.25-.52,14.76,5.06,16.06,6.54,1.52,4.45-8.43,8.18-12.39,9.56-10.14,21-13.46,34.45-11.77C570.09,2099.2,571,2104.84,572,2110.85ZM553.47,2107c-7.84-.59-13.51,4-18.76,8.65-4.62,4.06-1.49,7.71,2.83,9.09,7.61,2.43,14.59,1,20.31-5.23,2.52-2.72,6.28-4.91,4.4-9.24C560.67,2106.58,556.91,2106.74,553.47,2107Z"/><path d="M688.4,2116.42c1.42-5,6.93-8.51,11.17-11.5,4.65-3.28,5.83,4,7.86,6.89a66,66,0,0,0,9.58,10.83c19.79,18.31,27.21,16.74,37.06-8,1.13-2.84,1.65-6.12,5.49-5.88,3.65.22,4.32,3.41,5.25,6.33,4,12.6,3.78,26.59,13.09,37.51,2,2.4.86,7-2.54,8.7s-5.66-1.37-7.24-3.79c-4.38-6.72-5.2-14.66-7-22.23-.44-1.8-.44-4.08-2.63-4.38a4.15,4.15,0,0,0-3.39,2c-2.43,6.57-5.4,12.76-13.45,13.07a37.17,37.17,0,0,1-26.71-9.14c-2.71-2.36-4.6-7.79-8.29-6.41-4.83,1.81-1.63,7.23-2,11.08-.53,4.79-1.13,9.58-1.85,14.35-.39,2.61-1,5.51-4.52,5.21s-5.74-2.7-5.7-5.87C692.67,2142.54,690.85,2130.11,688.4,2116.42Z"/><path d="M476.07,2119.82c-8,7.2-16.79,6.29-25.58,6-12.37-.4-13.21.69-11.25,13,1.16,7.27,1.22,14.66,7.23,20.54,3.89,3.82.5,8.36-2.8,10.22-4.2,2.37-6.55-1-7.72-5.15-3.15-11.18-4-22.71-5.05-34.17-.72-8.13-.64-16.08-4.28-23.9-3.42-7.34.38-11,8.49-10.7,13.71.51,27.44,1.4,41.14-.14,4.25-.48,8,.61,8.33,5.11.26,4.19-3.81,5-7.23,5.23-10.4.55-20.81.91-31.21,1.35-3.95.17-9.24-1.14-9.44,4.88-.24,7,5.82,5.26,9.9,5.61C456.41,2118.56,466.24,2119.14,476.07,2119.82Z"/><path d="M634.19,2154.78c-14.17-.17-20.51-8.61-21.2-26.85-.34-9,7.93-17.22,15.37-16.88,18.57.87,33.89,12,33.33,24.22C661.24,2145.06,646.83,2155.28,634.19,2154.78Zm4-11.32c4.54-1.51,12-.76,13.74-8.64,1.14-5.18-13.39-18.18-19.7-17.18-7,1.12-8.86,7.57-9.15,13.56C622.65,2140.44,629.13,2143,638.2,2143.46Z"/><path d="M997.14,1962.61c.35,5.86,1.15,14,1.23,22.2,0,4.73.06,10.36-5,12.7-4.66,2.14-7.05-3-10.32-5.09a26.45,26.45,0,0,1-5.2-4.14c-9.71-10.49-9.14-10.24-15.93,3.09-3.32,6.52-4,16.79-13.29,17.65-11.14,1-9.38-10.64-13.06-16.75-4.57-7.6-6.59-16.52-12.3-23.68-3.14-3.94-3.09-9.17,2-11.36,6.11-2.61,4.72,4,6.09,6.66,4.38,8.61,8.37,17.43,12.54,26.14,1.07,2.23,1.37,5.51,4.88,5.13,3-.32,4.2-2.94,5.13-5.37,2.76-7.24,7.47-13.57,8.65-21.62.86-5.9,4.26-7.81,8.74-1.91,3.37,4.44,7.13,8.58,10.57,13,1.4,1.78,2.54,3.86,5.23,3.24s2.69-3.2,3.07-5.34c1.07-6-.21-11.85-.69-17.76a51.57,51.57,0,0,1,0-9.94c.26-2.15,1.41-4.6,4-4.6,3.33,0,4.21,2.73,4.26,5.44C997.86,1953.6,997.47,1957,997.14,1962.61Z"/><path d="M842.23,2000.89c4.27-8,3.63-18.75,9.82-27.68,4.6-6.63,7.46-14.5,10.76-22,1.25-2.85,2.05-5.61,5.75-5.84s5,2,6.68,4.77c4.89,8.06,13.83,13.33,18.78,19.86,6.67,8.8,10.29,20.72,18,29.92,1.23,1.46-1.57,5.65-4.49,6.93-3.63,1.6-5.64-1.34-7.11-3.77-3.44-5.69-6.16-11.83-9.72-17.43-3.07-4.82-7.09-9-13.74-7-7.68,2.36-18,.47-20.21,12-1,5.21-3.5,9.78-6.35,14.17-1.46,2.26-3.27,4.42-6.26,3.21C841.48,2007.08,842.48,2004.38,842.23,2000.89Zm28.19-26.62c2.8-1.21,7.22-1,6.65-5.68-.44-3.55-3-6-6.88-5.64-3.4.36-5,3.18-5.26,6.19C864.68,1972.56,866.58,1974.63,870.42,1974.27Z"/><path d="M1023.31,1997.52c1.52-5,5.37-11.53.2-18.26a1.07,1.07,0,0,1,.2-1c10.73-4.79,8.42-17.75,15.42-24.71,9.77-9.72,14.51-8.77,22.23,5,3.92,7,5.35,16.31,17,12.22.51-.18,2,1,2.26,1.8.57,1.64-.51,2.82-2,3.35-12.58,4.32-4.4,9.09.18,12.6,4,3,7.18,5.43,4.28,10.75-1.27,2.33-3,4.8-5.64,4.93-2.94.15-4.08-2.57-5.13-5.1-1.41-3.4-2.72-7-5-9.85-3.27-4.12-2.28-13.17-11.35-11-8.77,2.12-19.08,2.29-20.34,15-.27,2.77-2.38,5.39-3.76,8-1.24,2.37-1,6.71-5.46,5.3C1023,2005.49,1022.75,2002.25,1023.31,1997.52Zm33-29.37c-.36-3.48-2.41-5.69-5.63-5.94-3.87-.31-6.23,1.9-6.51,6-.22,3.26,1.54,5,4.59,4.86C1052.11,1972.89,1055.62,1972.51,1056.33,1968.15Z"/><path d="M1163.48,1941.26c-3.52,17.19-3,35-.34,52.8a85.75,85.75,0,0,0,5.11,18.19c1.59,4.14,1.34,11-4.72,11.75-5.43.71-6.65-4.83-6.7-9.58-.17-15.24-4.82-30.1-3.88-45.43.34-5.66-2.21-5.49-6.9-4.39-15.64,3.68-37.55-9.61-42.34-25.16-.87-2.84-2-6.22,1.65-7.73,3.27-1.34,4.44,1.55,5.45,4.06,4.4,11,14.61,15.68,23.84,21,7.69,4.4,16.48-.75,18.76-10,.52-2.1.12-4.42.26-6.63.27-4.15-1.5-10.54,4.85-10.29C1164.39,1930.08,1163,1936.38,1163.48,1941.26Z"/><path d="M65.13,1982.92c-10.76,1.31-18.91,4-21.32,14.79-.72,3.24-2.25,6.31-3.49,9.42-1,2.43-2,5.27-5.4,4.16-2.6-.85-2.88-3.74-2.25-5.66,2.75-8.37,2.45-17.62,7.25-25.39,6-9.66,10-19.93,9.63-31.52-.07-2.21-.73-4.71,1.78-5.9,3.19-1.51,4.5,1.13,6.19,3.14,3.11,3.66,7.44,6.38,9.17,11.09,4.36,11.82,11,19.82,25.27,16.25,2.05-.51,5-.17,4.83,3-.09,2-2.48,2.34-4.21,3-4,1.59-11.59-1.19-11,6.12.43,5.82,2.27,13,11.66,11.08,2.13-.44,2.82,2,3.16,3.88.61,3.26-1.57,4.57-4.09,5.76-3.2,1.52-6.43,2.81-9-.69-3.51-4.78-6.91-9.57-8.66-15.48C73.13,1985,70.12,1981,65.13,1982.92ZM65,1970.58c-1-2.81-2-6.38-5.33-6.12-4.67.37-6.44,4.62-7.22,8.62-.66,3.41,1.91,4.7,4.83,3.94C60.71,1976.14,64.69,1975.44,65,1970.58Z"/><path d="M147.46,2008.35c-7.4.51-11.11-1.62-13.19-6.95a86.42,86.42,0,0,1-5.18-23.91c-.71-7.76-1.24-15.56-4-23-1.12-3.11-2.16-7.52,1.83-8.73,4.62-1.4,4.87,3.5,5.43,6.46,2.06,11,4.28,21.93,5.51,33,1.37,12.43,5.84,15,16.42,8,6.76-4.48,14.7-7.28,19.91-14.06,1.92-2.5,4.33-6.43,7.83-2.18,3,3.61,1,7-2.38,9.46-9.6,7-19.19,14-28.89,20.83A7.08,7.08,0,0,1,147.46,2008.35Z"/><path d="M212.66,2005.81c-11.1-.8-16-8.45-18.2-17.23-2.76-11.08-2.08-22.89-6.18-33.84a4.73,4.73,0,0,1,3-6.39c3.44-1.13,4.77,1.86,5.31,4.24,2.14,9.38,4.13,18.81,5.74,28.29,1,6,3,10.53,9.75,11.78,6.26,1.16,10.84-.74,14.13-6.16,1.74-2.87,2.73-8.41,7.67-4.48,3.73,3,2.92,7.63-.18,10.92C227.83,1999.17,221.57,2005,212.66,2005.81Z"/><path d="M660,1976.81c-1.6,4.94,1.64,9,3.76,13.24,2,4,4.53,8.28,10,7.5,5.2-.74,5-5.31,6.06-9.36,2.41-9.16,6.72-17.47,15.44-22.29,5-2.74,10.18-4.38,15.67-.29s5.83,9.14,4.83,14.93c-2.81,16.36-25.52,32.37-40.89,28.87-17.39-4-29.05-25.13-23.21-43.41,2.72-8.5,3.82-18.77,15.33-21.35,5.84-1.31,11.15-.78,15.65,3.37a5.28,5.28,0,0,1,1.31,6.19c-.87,1.83-3,1.65-4.92,1.66C663.55,1955.93,660.56,1959.21,660,1976.81Zm32.63,19.79c4.86-.12,14.31-9.63,14.31-14.94,0-3.1-1.17-5-4.52-4.91-4.39.13-14.4,11.24-14.37,15.84C688,1995.27,689.07,1996.84,692.61,1996.6Z"/><path d="M617,1981.41c-.21,3-.19,6-.68,8.87-1.73,10.23-8.63,13-16.58,6.5-7.15-5.89-14-12.22-20.82-18.46-2.42-2.21-4.34-5.82-8.31-3.75s-2,6-1.62,9.06c.67,5.85,3,11.56.85,17.58-.92,2.56.23,6.77-4.39,6.21a6.42,6.42,0,0,1-5.61-6.15,224.07,224.07,0,0,0-6.1-39.3,8.08,8.08,0,0,1,3.07-9c4.13-2.84,7,.32,9.77,2.68,9.59,8.23,19,16.68,28.62,24.84,2.44,2.07,5.27,5.13,8.81,3.58,4.05-1.77,4-6,3.47-9.74-.73-5.78.18-11.88-4.8-16.68-2.92-2.81-1-6.29,1-9.14a4,4,0,0,1,4.83-1.8c3.36,1.2,4.26,4.22,4.12,7.22C612.21,1963.38,618.51,1971.78,617,1981.41Z"/><path d="M471.23,1960.1c2.09,11.76-4.27,26.93,4.94,40.71,2.32,3.48-.7,6.63-4.1,7.69-4.92,1.52-6.6-1.87-7.1-6-1.23-10.32-2.79-20.62-3.46-31-.52-7.86-3.42-9.37-10.65-6.81a279.63,279.63,0,0,1-29.88,8.69c-8.2,1.91-10.46,5.83-7.06,13.46,1.5,3.36,2.35,7,3.66,10.45s2,7-2.75,7.74c-3.45.55-7.24-.94-7.32-5.08-.29-14.92-6.55-28.78-7.38-43.57-.19-3.36-.68-7.69,3.55-8.07,4.59-.41,4.56,4,4.41,7.37-.4,8.72,3.87,9.78,11.33,8,8.27-2,16.79-2.86,25.23-4.11,4.87-.72,9.7-1.34,11.67-6.91,1.32-3.75,2-9.25,7.62-7.14C468.76,1947.3,472.81,1951.08,471.23,1960.1Z"/><path d="M355,1938.82c5.38,1.22,11.13-.71,16.92-1.88,3.21-.65,5.94-.57,7.91,2.32,2.23,3.25,1.81,6.76-.91,9.14-9.44,8.23-7.41,18.28-5.52,28.68s.25,21.44,4.38,31.77c1.33,3.34.62,8.25-4.4,8.44-4.31.17-6.69-3.61-6.16-7.68,2.32-17.95-5.05-35.24-3.39-53.13.52-5.53-1.82-8.27-7.9-7.53-8.84,1.07-17.65,2.11-26.32,4.34-3.69,1-8.71,2.21-9.79-3.84-.93-5.26,3.49-5.91,7.06-6.68C336,1940.8,344.89,1938,355,1938.82Z"/><path d="M748.46,2011.17c-9.6-1.75-20.13.22-26.83-9.08-1.51-2.1-3.57-4.58-1.09-6.93,2.72-2.57,4.29.2,6.26,2,6.42,5.77,24,6.32,30.23,1.18,4.17-3.43,1.22-5.82-1.36-8-11.11-9.51-12.72-22-11.6-35.53.51-6.19,3.9-9.21,9.26-11.14,2.64-.95,5-1.67,7,.84,2.29,2.75,2.25,6.55-.08,8.1-5.92,3.94-9.14,9-7.47,15.75a35.16,35.16,0,0,0,12.54,19.28c1.74,1.38,3.87,2.72,4.81,4.59,2.52,5,3.06,10.11-2.88,13.44A40,40,0,0,1,748.46,2011.17Z"/><path d="M507.15,1966.5c-.41-3.65-.65-7.33-1.27-11-.55-3.17-2.83-7.23,1.86-8.33,4.48-1,6.65,3.08,7.14,6.78,1.07,8.06,1.55,16.2,2.09,24.32.39,5.87,0,11.54,5,16.37,4.32,4.13,1,8.86-2.75,11.15-4.85,3-8.15-1.11-8.84-5.2-1.91-11.26-3-22.67-4.36-34Z"/><path d="M1157,1836.46c-11.37-.38-21.63-3.45-31.63-7.79-3.53-1.54-7.85-5.92-11-2.18s-1,9.52,1.53,13.42c2.75,4.26,5.81,7.81,2.38,12.95-1.47,2.19-2.94,4.67-6,4-2.39-.53-3.56-2.68-3.85-5q-3.82-30.45-7.48-60.93c-.31-2.65.36-5.59,3.71-5.85s4.24,2.42,4.71,5.14c.13.73.1,1.48.16,2.22,1.51,18.48,5.7,20.59,22,10.73A79.25,79.25,0,0,0,1142,1795c2.2-1.9,4.16-3.49,6.5-.57a4.4,4.4,0,0,1-1,6.84,148.16,148.16,0,0,1-13.45,7.88c-7,3.75-5.27,7.2.41,10.06,7.09,3.58,14.92,4.68,22.71,5.34,5.38.47,12.1.51,11.88,7.06C1168.79,1839.8,1161.06,1835.24,1157,1836.46Z"/><path d="M1033.19,1849.54c-12.37,0-23.65-11.07-23.52-23.17.24-23.34,10-33.5,32.54-33.93,12-.23,29.56,18,29.36,30.53C1071.36,1836.94,1053.25,1849.47,1033.19,1849.54Zm5.5-9.16c7,.54,13.92-3.33,20.26-7.72,4.8-3.33,7.6-9.28,3.6-14.56-5.22-6.88-10.26-14.73-20.14-16a2.24,2.24,0,0,0-1.74,1.16c-2.1,4.7-4.72,4.55-9.58,3.13-6.07-1.77-10.55,2.9-12.52,8.5C1014.35,1826.88,1024.51,1840.41,1038.69,1840.38Z"/><path d="M955.63,1794.84c20.87.56,37.55,12.23,37.45,26.2-.09,12-20,26.65-35.53,26.1-12.21-.43-21.17-12.67-20.63-28.17C937.53,1801.71,943.12,1794.5,955.63,1794.84Zm6.5,43.05c10-.1,22.68-9.07,22.9-16.17S968,1801.18,958.63,1803c-7.28,1.45-13,7-13.09,15.48C945.38,1830.62,951.91,1838,962.13,1837.89Z"/><path d="M857.9,1795.78c11.5-2,23.33-.43,34.52-5.84,5.35-2.59,12.8.4,18.81-3.59,1.84-1.22,4.18,1,4.74,3.48.73,3.14-1.11,5.51-3.78,5.85-10.53,1.35-9.18,8-8.08,15.55,1.59,10.88-.49,22.31,6.45,32.29,2.24,3.21.1,7.27-1.76,10.53-1,1.7-2.68,2.67-4.66,1.21-3.09-2.27-5-4.89-5.35-9.16-1-11.84-2.67-23.61-4-35.42-.52-4.61-1.78-8.13-7.55-7-9.58,1.94-19.26.85-28.9,1-4.54.06-11.47,2.41-11.63-4.52C846.54,1792.15,854.12,1797.35,857.9,1795.78Z"/><path d="M287.29,1798.78c6.41.64,13.66-3.18,20.82,3.71-10.91,3-20.51,6.49-30.41,8.11-8.55,1.41-10.57,5.63-9.05,13.06.74,3.63,1.63,7.23,2.64,10.79,1.17,4.14.86,9.81,6.18,10.82,4.9.93,6.47-4,8.64-7.43,1.16-1.83,2.42-4.27,5.1-2.87,2.43,1.27,1.66,3.84,1.25,6-1.77,9.18-9.07,13.27-16.46,16.66-3.1,1.43-6.74-.82-8.1-4.33-3.32-8.59-8.13-16.75-7.72-26.48.19-4.45.21-9-3.42-12.5s-4-6.88-.74-10.72c.45-.54,1-1.5.79-2-6.49-18.64,6.54-14.76,16.75-15,5.89-.1,11.74-1.77,17.64-2.48,4.2-.51,9-.58,9.19,5.14.19,5-3.47,5.75-7.83,4.88C289.72,1793.58,287.38,1794.45,287.29,1798.78Z"/><path d="M228.64,1811.59c-.53,5.23-.76,12-2,18.51-2,10.58-5.85,12.58-15.67,7.64-8-4-15.29-9.18-22.91-13.82-2.15-1.31-4.24-3.78-6.94-1.61-2,1.58-1.47,4.21-1,6.3,1.48,5.92,1,11.83.56,17.77-.19,2.71-.59,5.59-3.87,5.86s-4.34-2.68-4.44-5.24c-.52-14.6-4.8-28.61-6.52-43-.37-3.14-.38-6,2.91-7.67,3.64-1.78,5.54,1,7.44,3.2a98.7,98.7,0,0,0,30.55,23.93c9.17,4.58,13,2.64,12.7-7.8-.14-5.55-1.35-11.05-2-16.59-.43-3.77-.87-8.42,3.76-9.22,5.29-.91,6.68,4,7.26,8S228.64,1806,228.64,1811.59Z"/><path d="M92.38,1791.59c15.42-.25,35.51,19.79,35.93,35.84.29,11.47-15.28,22.51-32.4,23-18,.46-30.81-11.52-31.15-29.06C64.4,1802.33,74.1,1791.89,92.38,1791.59Zm2,53.23c13.18.49,26.39-8.23,27-17.82.73-11.85-15.54-26.78-29.35-26.93-10.47-.11-20.58,9.14-20.75,19C71,1833.5,80.68,1844.3,94.35,1844.82Z"/><path d="M477.25,1825.15c-.46,4.07-.61,7.07-1.16,10-1.9,10.09-7.16,12.44-15.68,6.94a87.89,87.89,0,0,1-22.53-21.41c-1.23-1.64-2.3-4.53-5-3.07-1.29.7-2,3-2.4,4.68-2,9.41-3.45,19-8.19,27.63-1.9,3.47-3.87,6.67-8.32,6s-3.67-4.88-5.08-7.75c-8-16.3-7.9-34.63-13.17-51.61-1.11-3.57-1.7-8.58,2.41-9.81,5.59-1.67,4.51,4.43,5.86,7.41,5.34,11.76,3.58,25,7.3,37.07,1,3.11.79,7.59,4.88,7.72s4.3-4.48,5.33-7.51c2.9-8.56,3.69-17.43,3.84-26.41.05-3,.57-6.33,4.29-6.82,3.13-.42,4.5,2.46,5.51,4.76,5,11.37,15.93,17.41,23.67,26.31,1.91,2.21,5.11,5.13,8.79,2.62,2.92-2,2.31-5.37,1.67-8.23-2-9.08-1.31-18.57-4.33-27.54-1.32-3.91-2-9.26,3.31-10.12s4.59,4.61,5.05,8.09C474.75,1804.82,476.05,1815.53,477.25,1825.15Z"/><path d="M777.31,1814.91c1.18,9.2-2.21,19,6.18,27.23,3.28,3.2-.24,9-4.45,10.93-4.49,2.07-7.26-2.2-7.88-5.62-1.72-9.48-2.69-19.11-3.62-28.71-.61-6.3-1.79-9.83-9.58-6.68-5.74,2.32-12.34,2.5-18.56,3.61-14.31,2.56-17.79,9.83-9.5,21.74,2.92,4.19,3.09,7.33.65,11-2.86,4.31-7.25,4.55-7.76-.67-1.31-13.36-12.71-23.71-10.55-38,.72-4.69-2.87-8.3-4.36-12.46-1.09-3-.71-6.14,2.54-7.66,3.85-1.81,4.87,1.79,6.77,4,4.19,4.78-1.64,15.22,8.12,16.12,6.49.6,13.25-1.43,19.86-2.47,4.77-.75,9.48-1.93,14.26-2.7s7.47-2.44,6.83-8c-.38-3.27.66-7.55,4.24-8.15,5.21-.86,4.76,4.67,6.26,7.71C779.77,1802.25,776,1808.67,777.31,1814.91Z"/><path d="M513.89,1851.1c-3.33-.33-4.81-2.22-5.44-5-2.37-10.49.18-22.62-10.23-30.4,4.49-7.17,2.73-15.23,3.44-23,.07-.77,2.34-2,3.49-1.86a3.7,3.7,0,0,1,3.11,4c-.76,14.95,8.29,13.54,18.1,11.06,9.37-2.37,20.19-1,25.86-12.12,2-3.9,6-1.95,8,1.42,2.08,3.55,2.56,7.61,3.27,11.69,1.77,10.18-1,20.76,3.61,30.77,2.08,4.56-1.32,9.76-5.62,10.5-5.11.88-5.78-4.64-6.2-8.67-.81-7.76-1.09-15.57-2.08-23.3-.74-5.79-4.07-8.49-10.23-6.73-4.29,1.22-8.68,2-13,3.13-19.67,5-21.33,8.09-13.78,27.71C517.92,1845,519.61,1848.68,513.89,1851.1Z"/><path d="M658.61,1791.09a43.1,43.1,0,0,1,20.07,6c3.14,1.84,5.13,4.76,3.21,8.46-2.22,4.27-5.78,2.77-8.59.86-7.16-4.84-14.69-7.28-21,.17-5.81,6.87-5.42,15.71-1.28,23.17s11.37,11.56,20.74,9.86c6.93-1.25,11.76-6.3,17.77-9.08,3.25-1.5,7.38-7,10.53-2.35,2.32,3.41-3.1,6.06-5.93,8.17a133.16,133.16,0,0,1-15.7,10.53c-17.63,9.49-33.67,1.57-37.47-18.15a52.45,52.45,0,0,1,1.82-26.44C645.34,1794.37,650.38,1790.71,658.61,1791.09Z"/><path d="M594.61,1789.87c3.43.88,4.64,3.46,5,6.62,1.9,16.16,1.41,32.69,8,48.12,1.21,2.82.28,6.23-3.31,7.23-4.45,1.24-6.15-2-6.72-5.48-2.75-16.8-5.33-33.62-7.86-50.46C589.22,1792.36,591,1790.24,594.61,1789.87Z"/><path d="M739.54,419.45c14-.44,15.51,1.33,13.19,15.21-3.25,19.48-22.11,33.91-41.46,30.18-9.39-1.82-18.51-7.25-19.51-18.25a214.09,214.09,0,0,0-6.24-36.14c-1.75-6.51-1.32-10.54,7.72-12,7.19-1.15,14-6,21.67-7.63,7.44-1.56,11.7-.19,11.38,8.29-.09,2.23.25,4.48.13,6.71C725.68,419.89,725.65,419.88,739.54,419.45Zm-7,11.06c-6.9-.63-13.41,2.11-20.08,4.49-6,2.15-9.69,4.94-7.42,12.22,2.22,7.09,7,9.29,13.63,8.09,9.82-1.78,16.89-7.91,21.29-16.38C743.34,432.44,740.5,429,732.54,430.51Zm-21.32-26.57c-4.94,1-7.43,4.23-8,9.06-.3,2.85-.85,7.15,2.88,7,5.7-.19,6.56-6.07,8.23-10.31C715.4,407.15,714.62,404.64,711.22,403.94Z"/><path d="M999.46,405.67c-2.05,7.5.78,11.41,9.58,10.75a18.84,18.84,0,0,1,7.53,1.4,3.45,3.45,0,0,1,2.2,4.51,4.8,4.8,0,0,1-3.29,2.24c-3.3.51-6.71.3-10,.87-12.58,2.17-18.1,8.38-19.61,21.08-.62,5.28,1.67,6.89,6.37,6a64,64,0,0,0,7.46-2.26c4.77-1.55,8.21.2,9.83,4.67,1.89,5.2-1.39,7.51-5.89,8.66a32.76,32.76,0,0,1-4.38.81c-7.95.83-17.18,5.13-23.34-1.63-6.59-7.24-.19-15.71,2.78-22.81,3.46-8.27,3.82-12.07-6.79-9.88-4.67,1-9.32.75-9.64-5.78s3.49-8.4,9.31-7.72c2.58.3,5.17.69,7.77.75,6.13.15,10.37-2.56,10.16-9-.23-6.87-5.21-6.63-10.52-6.22-12.2.95-24.44,1.44-36.66,2.05-4.54.22-7.57-2.09-6.82-6.58.67-4,1.26-9.75,7.94-8,14,3.74,28.13,1,42.2.76C1000.2,390,1000.79,390.58,999.46,405.67Z"/><path d="M602.46,435.79a22.62,22.62,0,0,1-1.59,12.67c-1.06,2.3-1.52,5.46-5,4.82a5.68,5.68,0,0,1-4.51-5.74c.06-12.39-3.42-24.15-5.53-36.18-1.55-8.86,8-11,13.18-14.58,4.27-2.95,5.85,4,7.89,7.07,14.3,21.72,15.6,21.75,33.13,2.16,3.53-4,5.63-11.81,12-10.12,5.43,1.46,5.08,9.23,7,14.2,4,10.53,1.81,22.54,8.85,32.81,2.71,4-2,10.49-4.61,15.38a3.43,3.43,0,0,1-4.9,1.21A9.34,9.34,0,0,1,653.9,451c.93-7.94-1.61-15.4-2-23.09-.21-4.54.53-9.81-4.5-11.51s-6.38,4.07-8.7,7C629,435.67,623,436.6,612.27,427.1c-2.33-2.06-3.59-6.82-7.65-5.09-4.47,1.9-2.23,6.47-2.33,10C602.25,433.11,602.38,434.23,602.46,435.79Z"/><path d="M1137.89,398c8.87-.46,17.3,4.72,25.37,10.8,8.8,6.62,5.45,15.47,3.84,23.65-3.58,18.26-22.4,26.15-39.93,25.18-17.73-1-15-11.86-16.65-21.44-1.09-6.29-1.93-12.15-5.52-17.8-4.72-7.42-2.12-12.17,7-13.27,4.83-.58,7.34-5.09,11.88-5.64C1127.89,399,1132,398.63,1137.89,398Zm-.09,14c-11.56-2.47-16,3.84-15.4,15.5.11,2.18-.52,4.4-.7,6.6-1,12.22,6.94,17.89,18,12.53,3.9-1.88,7.29-5,10.6-7.88,5-4.42,10.91-9.3,7.26-16.79C1154.05,414.68,1148.19,409.45,1137.8,412Z"/><path d="M1066.17,392.63c3.84.36,10.17.6,16.35,1.7,2.74.49,6.17,2.4,5.73,5.89-.48,3.89-4.33,3.9-7.14,3.35-8.65-1.67-17,1.75-25.51,1.31-2.83-.14-6.67-.27-6.57,4s3.6,5.52,7.15,5.37c7.43-.31,14.84-1.19,22.26-1.52,2.9-.13,7.68-3.27,8.25,1.81.48,4.31-4.89,3.52-7.81,4.32-7.86,2.14-15.79,4.06-23.78,5.68-4.65.94-6.42,3.71-5.77,7.89a61.2,61.2,0,0,0,3.39,14.05c3.08,7.5,8.47,5.59,13.68,2.27,2.16-1.38,4.32-3.84,6.59-.65,1.7,2.41.85,5.28-1,7.21-5.39,5.63-12.13,8.91-20,7.91-6.67-.86-8.7-6.94-9.46-12.35-2-14.61-5.8-29-3.95-44.16,1.4-11.47,6.32-15.65,17.27-14.15C1058.46,392.93,1061.1,392.63,1066.17,392.63Z"/><path d="M557.25,406.94c.25,21.43-1.79,43.06,6.84,63.67.95,2.27-.81,5.7-1.41,8.58-.47,2.28-1.33,4.44-4.23,4.11-2.62-.3-3.46-2.29-4-4.65a188.18,188.18,0,0,1-4.8-38.55c-.06-3.71.05-7.42.05-11.12,0-9-.94-14.85-12-7.29-6.92,4.76-16.38-.54-22.22-11.14-2.66-4.82-4.11-10.06-8.56-14.08-3.77-3.41-2.46-9.45.84-11.87,5.2-3.81,6.75,2.17,8.3,5.57,3.09,6.78,6,13.47,11.8,18.63a12.54,12.54,0,0,0,13.41,2.7c4.6-1.56,5.81-5.6,5.73-9.88-.12-7-.62-14-1-21.06-.24-4.18,1.07-8,5.51-8.18,4.05-.2,3.15,4.19,4,6.83C558.37,388.32,556.16,397.73,557.25,406.94Z"/><path d="M461.88,463c-2.86-.69-8-1.5-12.89-3.2-9.21-3.24-10.37-8.57-3.77-15.8,1.42-1.55,2.31-4.4,4.91-3.93,3.12.57,2.16,3.27,1.85,5.39-.56,3.9,1.75,5.37,5,5.91,2.25.37,4.67.3,6.12-1.67,2.39-3.27-.6-5.37-2.07-7.83-3.73-6.22-9.61-10.88-10.66-19.05-1.73-13.53,6.06-26.18,19.37-29.25,3.24-.74,7-2.34,8.61,2,1.5,4-.49,7-4.33,9-19.11,10.2-19.87,20.77-1.63,33.7,6.93,4.91,9.12,10.42,6.71,17.82C476.78,463.33,470.19,462.83,461.88,463Z"/><path d="M771.23,424.32a22.16,22.16,0,0,1,24.13-20.67c9.86,1,21.72,17.49,21.19,29.44-.46,10.18-12.34,19.7-23.8,19C780.05,451.41,770.35,438.87,771.23,424.32ZM794.09,417c-6.31,0-11.16,2-11.79,9-.87,9.51,5,13.27,13.35,14.43,7.08,1,11.14-3.25,11.41-9.27C807.42,423.06,801.8,418.74,794.09,417Z"/><path d="M852.58,418.74c-.09,1.11-.21,2.22-.25,3.34-.82,24,3.06,27,26,19.47,4-1.33,7.25-2.18,8.95,2.68s-.3,8.18-4.95,9.45c-7.15,1.94-14.36,4-21.68,4.88-10,1.25-15.88-4.61-17.5-15.72-1.88-12.88,1.31-26-1.83-38.83-.93-3.81,1.55-6.48,5.44-7,4.4-.56,6,2.56,6.15,6.16.28,5.17.07,10.36.07,15.54Z"/><path d="M908.84,401c3.53.07,4.11,2.28,4.51,4.51,1,5.83,2.38,11.64,2.85,17.52.53,6.71,1,13.06,5.82,18.55,4.19,4.81,1.67,9.29-2.9,12.06-5,3.06-8.13-.75-8.92-4.9-2.58-13.42-4.63-27-6.52-40.48C903.15,404.49,906.15,402.38,908.84,401Z"/><path d="M490.65,38.28c.17-16.42,8.67-29.48,20.26-30.77,4.31-.48,9.64-1.79,10.57,4.79.81,5.65-1.24,8.83-7.94,9.22s-13.4,10.69-12.27,17.25c.85,4.91,3.69,5.85,8.14,4.26,9.11-3.27,18.23-6.48,27.45-9.42,4.42-1.41,9.31-4.41,13.41.51s3.32,10.54,1.25,15.9c-5.16,13.4-22.23,22.68-36.32,20C501.46,67.44,490.49,53.25,490.65,38.28ZM520.47,58.9c4.78,0,6.43.44,7.67-.08C532.6,57,540.06,56.15,539,50.36c-1.43-7.45-7.84-.91-12-1.58a8.61,8.61,0,0,0-4.27.85c-3.18,1.29-8.4,1.31-7.43,6.25C516.05,59.76,520.54,58.9,520.47,58.9Z"/><path d="M311.18,48.56c0-3.17.37-5.89,2.63-6.51,8.61-2.39,10.2-9.1,10.44-16.44.3-9.3,9.61-9.41,14.5-13.23,5.13-4,4.83,5.08,7.6,7.69a74.8,74.8,0,0,1,12.32,14.12c2.4,3.76,6.4,2.92,10,1.29,2.35-1.06,5-2.83,6.26,1.11.82,2.68-1.44,4.29-3.49,4.91-9,2.75-8.94,6.63-1.62,11.44,5.56,3.66,3.87,7.19.13,10.78-4.3,4.14-8,2.8-11.14-1.53a16.36,16.36,0,0,1-1.93-4c-1.75-4.81-2.52-11-9.52-10.36-7.19.64-15.05.45-19.4,8.27a52.67,52.67,0,0,1-5,7.33c-1.7,2.12-4.06,3.52-6.85,2.52-3.07-1.11-3.22-3.9-2.6-6.54A13.32,13.32,0,0,0,311.18,48.56Z"/><path d="M394.22,43.17q-.86-10.56-1.71-21.11a8.87,8.87,0,0,1,6.08-9.64c4-1.54,5.92,1.68,8,4.38,9.8,12.57,25.67,17.57,36.45,29a4.55,4.55,0,0,0,6.15.73c2.11-1.59,1.59-4,1.33-6.21a43.49,43.49,0,0,0-5.46-15.74c-3-5.52,0-8.75,4.62-10.36,5.64-2,6.11,3.35,6.61,6.55,1.92,12.43,5.28,24.77,2.56,37.61-1.78,8.36-5.44,9.34-11.16,3.57-9.85-9.93-23.11-14.87-33.86-23.52-5.79-4.67-7.95-.51-8,5-.05,5.16,1.29,10.38-2.06,15.17-1.54,2.19-2.6,4.78-5.88,3.86a5.83,5.83,0,0,1-4.35-5.84c-.14-4.47,0-9,0-13.42Z"/><path d="M263.23,73.5c-11,.42-21.36-1.43-30.54-8.09C228.28,62.22,227.2,58.76,230,54c2.3-4,4-6.35,7.58-.68,5.59,8.9,25.6,13.8,34.53,8.8,6.27-3.51,3.41-6.26-1.08-8.41a34.57,34.57,0,0,1-16.7-17.27c-4.3-9.25-1.4-17.5,4.41-24.95C264,4.62,271.5,3.17,279.75,4c4,.42,6.13,2.34,6.41,6.3.25,3.58-1.37,5.5-5,6-6.56.83-15.53-2.28-17.24,7.8-1.91,11.35,7.5,17,14,23.88.23.24.72.21,1,.41C285,52.1,296,51.19,294,62.56c-2.08,11.6-13.51,7.84-20.78,10.75C270.31,74.46,266.58,73.5,263.23,73.5Z"/><path d="M38.09,48.09c0-.75,0-1.49,0-2.24C38,15.38,38,15.3,7.89,12.79,3.33,12.41-.42,12.07,0,6.18.51,0,4.17-.27,9.4.11c14.78,1.08,29.5,4,44.44,1.46C57,1,61.18,1.35,62.3,5.29,63.81,10.57,59.64,15,56,15.76c-9.78,2-8.46,8.23-7.65,14.94A58.42,58.42,0,0,1,48,47.34c-.77,4.71-1.19,9.92,4.12,12.85,3.67,2,3.56,4.84,1.06,7.21C49.37,71,48,79.17,41.45,77.61c-5.9-1.4-2.53-8.46-3.38-12.86-1-5.36-.26-11.09-.26-16.66Z"/><path d="M83,38.85c1.07-4.72,1.27-9.46,3.57-14,4-7.92,8.75-11.06,17.81-7.28,11.29,4.7,23.57,7.23,31.5,17.9,6.28,8.46,5.49,13.54-3.51,19.12-15.09,9.35-30.79,9.55-41.73.77A19.6,19.6,0,0,1,83,38.85ZM110.66,50.2c2.94-.3,6-.24,8.81-1,3-.79,7.17-.68,7.84-5,.65-4.1-2.68-5.87-5.58-7.46q-7.32-4-14.89-7.51c-4.94-2.31-8.74-.42-11.22,4-2.71,4.85-2,9.46,2.41,12.94C101.63,49.14,106.05,50,110.66,50.2Z"/><path d="M598.85,60.74c-2.13,8.6-3.46,20.58-14.65,27.74-1.77,1.14-3.69,3-5.92.88-1.93-1.83-1.62-4.3-.52-6.19,5.64-9.65,10.53-19.44,10.86-31,.08-2.89,2.44-5.92,6.19-4.61C599.78,49.25,599.29,53.71,598.85,60.74Z"/><path d="M802,260.31c-2,8.55.81,11.84,10.29,11.79,15.27-.06,20.64,7.73,17.26,22.51-5.6,24.46-33.84,33.95-54.07,19.34-7.23-5.22-10.13-10.22-10.87-18.68-.9-10.32-4.15-20.41-5.5-30.72-.84-6.47,0-13.28,9.59-7.9,3,1.69,4.75.45,6.83-1.41a55.61,55.61,0,0,1,7.83-6.23c4.6-2.82,9.79-4.28,14.89-1.82C804,249.94,801.49,255.61,802,260.31Zm7.12,22.18c-9.38-1.3-16.06,4.08-23,9-2.92,2.08-9.59-.17-8.7,6.06.85,5.93,4.15,10.9,10.54,13.12,10.37,3.59,22.32-2.35,28.9-14.65C822.13,286.16,820.15,282.69,809.12,282.49Zm-30-1.56c2.74-1.92,6.74-3.68,9.19-6.71,3.39-4.18,7.56-10.63,2.42-14.56-4.91-3.76-8,3.23-10.8,6.78a37.4,37.4,0,0,0-5.61,9.48C773.14,278.88,774.8,280.89,779.11,280.93Z"/><path d="M866.73,300.57c-.18,3.51,0,5.43-.44,7.22-.78,3.29.48,8.33-5.32,8-4.52-.22-4.57-4.15-5.08-7.46-1.79-11.69-1.89-23.78-9.22-34.08-2-2.84-2.29-6.67,1.85-8.49,3.43-1.52,6.29-1,8.11,3.14,2.56,5.81,4.77,4.43,8.31-.05,7.29-9.25,14.32-19.09,28.77-17.86,6.28.54,12.82.82,15.53,6.4A19.43,19.43,0,0,1,908,276.69c-2.84,4.28-5.75,8.7-10.67,11.21-2.5,1.28-6.19,2.46-4.81,6.34,1.06,3,4.32,4,7.23,4.67,4.56,1.11,8.72.53,12.54-2.66,2.2-1.83,5-1.84,7,.67s.47,4.78-1.3,6.95c-6.69,8.21-19.25,10.12-27.63,3.78a116.06,116.06,0,0,1-11.63-10.32c-3.06-3.06-5.3-8.53-10.5-6.25C863.11,293.29,867,298.42,866.73,300.57Zm17-20.61c8.38,0,18.9-8.42,19-15.48.06-6.16-4.62-5.5-8.71-5.54-8.85-.08-21.64,8.54-21.07,14.51C873.53,280.17,878.76,280,883.7,280Z"/><path d="M1028.51,301.42c.18-8.68-1-17.15-5-24.91-2.33-4.55-3.41-8.5,1.76-11.43,5.46-3.09,6.66.6,8.37,5,2.27,5.83,5.26,3.78,7.54-.44,4.63-8.57,11.33-14.35,21-17,5-1.35,10.94-5.25,14.35-.46,4.12,5.79,4.13,13.61-.12,20-3,4.59-6.5,9.19-11.79,11.65-5.91,2.74-6.6,6.32-.77,9.37,9.63,5,18.13,13.59,30.57,10.85,3-.66,5.12.2,5.6,3.62s-.6,5.78-4.1,6.82c-5.7,1.69-11.2.56-16.25-1.88-11-5.3-21.83-10.82-32.51-16.66-5.31-2.9-7.63-2.18-7.34,4.11.11,2.23.88,4.75.11,6.63-1.51,3.7-.07,10.68-6.1,10-4.67-.52-6-6-5.52-10.86C1028.39,304.4,1028.42,302.91,1028.51,301.42ZM1061,260.28c-4.43,3.07-9.59,6.94-13,12.64-1.08,1.79,0,3.75,2,4.41a9.87,9.87,0,0,0,10.27-2.05c3.28-3.18,8.23-5.56,8-11.22C1068,260.42,1065,260.68,1061,260.28Z"/><path d="M541.94,247.85a20.56,20.56,0,0,0,8.65-.95c3.72-1.26,8.1-1.42,8.4,3.95.27,4.71-4,4.76-7.35,4.7-14.81-.24-28.62,4-42.24,9.1-2.54,1-6.9.78-5.6,5.17,1.16,3.93,4.81,2.44,7.67,2q20.37-3.35,40.72-6.75c2.07-.34,4.7-2.12,5.79.8,1.23,3.33-1.81,4.36-4.2,5.39-12.35,5.31-25.09,9.28-38.66,9.34-9.23.05-12.88,3.7-9.82,12.88,1.05,3.16,1.78,6.42,2.82,9.59,2.58,7.87,6.37,8.58,11.46,1.89,2.34-3.09,4.73-8.57,9.34-4.36,5.25,4.81-1,7.9-3.73,10.62-15.09,14.93-23,12.61-28.09-8.4-2.37-9.71-4.08-19.61-5.51-29.51-1.08-7.45,3.41-14.37,9.12-16.2C513.35,253,525.68,246.71,541.94,247.85Z"/><path d="M1006,296.4c-.49,1.79-1.68,4.66-4.59,5.94-2.31,1-4.29-.53-5.9-2.16a47.65,47.65,0,0,1-4.47-5c-10.66-14.56-26.75-13.09-34.75,3.22-.49,1-.77,2.31-1.57,2.91-3.86,2.87-4.18,11.94-10.75,9-7-3.12-3.37-9.21-.49-14.27,2.33-4.09,1.24-7.31-2.35-10.75-4.54-4.37-3-8.64,3.28-8.88s8.71-3,9-8.75c.22-5.06,3.16-6.86,7.69-9.26,10.79-5.7,17-1.45,23.07,6.94,6.27,8.7,11.26,18.49,20.18,25.08C1005.93,291.63,1006.79,293.17,1006,296.4Z"/><path d="M470.28,279.38c3.05,7-3.39,17.5,8.19,21.88,2.28.87,2,4.16.24,5.8-3.15,2.95-5.66,7.36-10.83,7a5.28,5.28,0,0,1-4.72-5.47c-.06-7.73-2.73-15.19-1.61-23.07.9-6.4-2.29-11.05-9-8.33s-13.65,3.18-20.39,5c-9.53,2.62-11.34,8-9.51,16.55,1.26,5.91,4.53,15-3.53,15.84-7.85.81-4.79-8.95-5.79-14.29-2-10.88-4.61-21.7-2.61-33,.51-2.92-.51-6.51,3.65-6.77,3.65-.22,7.18,1.92,6.71,5.81-1.11,9.21,3.39,9,10,7.12,4.62-1.32,9.42-2.59,14.16-2.72,8.07-.21,12.92-2.32,11.39-11.78-.61-3.76,2.07-6.2,6-6.58s5.62,1.63,6.65,5.61C471.09,265,470.42,272,470.28,279.38Z"/><path d="M1169.08,258.73c-2.34,11.21-2,22.43-5.74,33.24-2.32,6.64-4.54,14.38,1.14,21.21,2.63,3.16,1.37,6.38-1.08,9-2.17,2.37-5.17,3.42-8.13,2.06-3.17-1.45-3.27-4.63-3-7.73.76-7.78,1.51-15.56,2.18-23.35.46-5.3-.9-9.41-7.36-7.5-13.92,4.12-21.66-4.64-28.27-14.06-4.41-6.29-6.92-13.95-10-21.12-1.32-3.06-2.49-6.87,2-8.38,4.08-1.36,6.07,1.32,7.13,5,3.3,11.52,7,22.35,19.07,28.52,13.09,6.7,19,4.14,20.42-10.36.47-4.77,1.75-9.46,2.07-14.22.22-3.24.55-6.54,4-6.94,5.28-.59,4,4.18,4.59,7.13C1168.7,253.81,1168.82,256.42,1169.08,258.73Z"/><path d="M343.7,265.38c-2.69-.14-5.67-.11-8.61-.49-3.82-.5-6.22-2.84-5.73-6.77.43-3.5,3.19-4.82,6.56-4.52,13.19,1.15,25.75-2.88,38.57-4.65,8.05-1.11,11.75,2.59,8.72,9.68-6.35,14.83-5.15,29.62.39,44.06,2.69,7-2.14,11.74-5.15,14.38-4.43,3.9-5.71-2.77-6.07-5.75-1.36-11.43-2.08-22.93-3-34.41-1-13.51-2.37-14.59-15.46-12.5C350.68,264.94,347.33,265.05,343.7,265.38Z"/><path d="M637.57,282.06c.18-8.52.83-15.21-1.51-21.76-1.37-3.82-1-8.32,3.68-8.84s5.55,3.84,5.88,7.84c.89,10.75-.24,21.55,2,32.3,2.09,10.16,6.47,14.22,17,10.47,8-2.85,16.53-4.26,24.7-6.74,3.39-1,7.23-4.84,9.48,0,2,4.39-.34,10.43-4.71,11.15-13.21,2.21-25.32,9.71-38.91,8.89-11.46-.68-14.4-10.49-16.62-19.59C637.36,290.83,637.78,285.44,637.57,282.06Z"/><path d="M728.49,298.93c-.2,4.8-1,8.13-5.28,8.4s-6-3.13-6.16-6.48c-.69-11.46-1.1-22.89-5-33.91a5.72,5.72,0,0,1,3.92-7.16c4.23-1.29,6.3,2,7,5.34C725.34,276.7,724.89,288.74,728.49,298.93Z"/><path d="M640.18,1038.61c1.1-11.19-2.2-21.38-7-31.19-2.44-5-2.62-10.12,2.53-12.55,6.49-3.07,7.26,3.36,8.29,7.3,2.14,8.13,5.12,9.77,11.89,3.64,7.44-6.71,17.47-7.67,26.82-9.66,4.66-1,10.66-1.82,13.13,3.3,2.79,5.79,1.71,12.29-1.1,18.27-2,4.31-11.2,7.34-6,12.35,6.07,5.86,13,12.4,22.46,13.41,3.8.41,8.72-5.75,11.21,1.43,1.22,3.54-.11,7.22-3.72,9.71-4.9,3.38-9.86,6-15.23,1.5a149.12,149.12,0,0,0-23-15.7c-3.28-1.82-6.36-3.65-10.15-4.36-5.41-1-10.89-5.26-16.1-2.89-6.21,2.82-.7,9.63-2.69,14.19-1.63,3.75-.14,10.66-6,10.36s-6.46-6.21-6.06-11.33C639.62,1043.79,639.92,1041.2,640.18,1038.61Zm30.32-19.24c6.14-.75,13.06-.43,14-9.06.35-3.29-1.84-5-4.83-4.16-6.19,1.67-14.06,1.84-16.27,9.09C662.13,1019.38,667.21,1019.34,670.5,1019.37Z"/><path d="M444.86,1007.72c.31-5.2-.75-9,3.29-10.71,3.83-1.58,6.23.91,8.54,3.53,6.41,7.24,12.9,14.4,19.34,21.61,6.27,7,11.07,6.74,15.37-1.59,4.08-7.9,7.37-16.21,11.13-24.27,1.44-3.1,3.42-6.1,7.34-5.92s4.34,3.84,5,6.53c3.41,13.28,7.87,26.37,7.88,40.32,0,4.32.48,8.46,5.66,9.52,4.1.83,5.9,3,4.86,7a10.85,10.85,0,0,1-8.24,8.31c-4,.8-5.52-3.12-6.73-6.22-4.1-10.5-5.24-21.64-6.92-32.67-.45-3,.08-7.56-4.4-7.9-3.63-.28-4.09,3.78-5.44,6.28-1.59,2.94-2.68,6.17-4.37,9.05-7.62,13.06-16,17.22-25.52,2.41-1.85-2.88-4.52-7.22-8.74-5.38-4.73,2-2.28,6.83-1,9.8,2.89,6.58-2.09,11.27-3.24,16.79-.71,3.36-4.06,3-6,.5a11.81,11.81,0,0,1-2.59-6.07C449.06,1034.29,450,1019.68,444.86,1007.72Z"/><path d="M601,991.16c4.44-.13,8.63.57,8.21,6.32-.46,6.33-4.53,5.61-8.81,3.79a5.53,5.53,0,0,0-1.08-.28c-6.51-1.2-12.47.75-18.17,3.52a2.21,2.21,0,0,0-.09,3.77c5.51,3.34,10.71-1.08,16.15-1,1.76,0,3.53-1,5.31-1.49,4-1.13,8.43-.78,8.86,3.63.54,5.45-4.66,2.62-7.46,3.4-11.39,3.2-23.37,5.28-33.9,10.34s-1.31,13,.47,19.13c1.87,6.43,7.19,8,13.42,4.53,3.52-1.94,6.79-9,10.76-4.29,4.31,5.15-3.34,7.76-6.14,11-4.11,4.73-9,9.93-16.1,7.12s-11.78-7.23-13.53-16c-2.5-12.54-2.38-26-9.84-37.36-2.33-3.56-.25-6.93,3.69-7.53C568.9,997.22,584.46,991.42,601,991.16Z"/><path d="M1051.5,1060.36c-9-2.15-22.83,2-30.46-11.42-1.39-2.43-4.66-5.08-1.57-7.78,3.51-3.08,5.59,0,8,2.78,5.79,6.65,23.3,9.18,31,5,1.71-.93,3.33-1.91,2.87-4.13-.66-3.12-3.51-3.49-5.95-4.3-13.92-4.68-23-14-27-28.17-2.82-10,4.06-14.31,11-18.17,6.67-3.71,12.89-2.42,18.13,3.26,1.27,1.38,2.89,2.75,1.9,4.74s-2.91,1.9-4.86,1.35c-5.51-1.54-10.86-.7-13.77,4.29-3.21,5.52,1.17,10.77,4.44,13.92,9.61,9.24,20.84,16.35,34.32,19,3.53.69,8.86-2.07,9.31,4.75.41,6.21-2.76,10.52-8.38,11.43C1071.7,1058.29,1063.1,1061.2,1051.5,1060.36Z"/><path d="M988,989.21c4.82-.91,7.54-.57,8.39,2.5,1.19,4.31-2.06,6.31-5.35,7-9,2-18.09,4-27.24,5.13-4.95.62-8.5,2.21-7.29,7.26,1.14,4.81,5.32,4.9,10,4,4.94-1,12.1-8.35,14.37-1.75,2.64,7.64-8,4.56-12,7.55s-10.08,4.64-9,11.38,2.06,13.79,8.54,17.39c4.75,2.64,10.25,3.16,13.27-3.28,1.7-3.64,4.2-7.54,8.23-4.94,4.62,3,1.77,7.7-.8,10.67-5.35,6.19-11,12.91-20.48,11.42-9.13-1.45-13.76-8.63-16.18-16.52-4.71-15.35-6.27-31.07-2.3-47,.92-3.68,3.25-6.47,6.82-6.3C968.34,994.36,978.89,989.85,988,989.21Z"/><path d="M1145.06,1061.89c-11.57-3.13-24.92-.78-35.7-9.13-1.91-1.48-5.65-2.17-3.84-5.53,1.24-2.3,3.93-.88,6-.14,10,3.49,20.4,3.85,30.78,4.34,3.14.15,7.39.29,8.23-3.92.79-3.93-3.41-4.14-5.76-5.65-14.51-9.32-29.1-18.6-31.84-37.82-.65-4.55-.54-9.06,3.76-12,4.68-3.22,8.48.05,12.31,2.15,2.07,1.14,4.23,3.48,1.32,5-12.49,6.42-3.8,13.22,0,18.78,7.66,11.27,19,18.45,30.9,24.78,3,1.57,8.68.83,7.73,6.19a13.27,13.27,0,0,1-9,10.54C1155.36,1060.82,1150.44,1061.05,1145.06,1061.89Z"/><path d="M756,1014a42.51,42.51,0,0,1,.64-7c1-4.63,1.12-11.28,6.51-11.88,5.93-.66,12.61.47,17.86,4.55a6.47,6.47,0,0,1,2.15,7.11c-1.06,3.46-4.16,4-7.33,3.23-8.52-2.19-9.45,2.58-9,9.25.77,12.48,9.27,23.07,20.28,24.77,6.88,1.06,12.51-.8,16.33-7,1.86-3,3.5-8.1,8.07-5s2.7,7.55-.24,11.64c-17.15,23.9-39.5,13.46-49.85-5.17C757.52,1031.63,756,1023.9,756,1014Z"/><path d="M898.12,1013.45c.11,2.6.2,5.19.34,7.79C899.54,1042,909,1049,929,1044.16c3.38-.82,7.89-3.72,9.41,1.36,1.27,4.3-3.32,5.92-6.78,7.43-15,6.54-27.7,6-34.84-2.76-12-14.75-8.89-32.85-9.49-50-.11-3.36,3.78-5.57,7.54-5,4,.64,3.55,4,3.48,7-.08,3.71,0,7.42,0,11.14Z"/><path d="M847.16,1040.7c.13,5.17-.45,8.06-3.84,9.2-3.79,1.29-5.62-1.42-6.66-4.21-4.35-11.68-6.11-24.17-11.22-35.68-1.42-3.2,1.35-6.44,5-7.47,2.92-.82,5.82.78,6,3.41C837.65,1019,842.54,1030.79,847.16,1040.7Z"/><path d="M695.78,1157.91c-8.58-2.62-13.17,3.1-16.65,10.14a41.12,41.12,0,0,0-4.06,23.85,64.87,64.87,0,0,1-.79,18.88c-.47,3,.45,7.75-4.78,7-4-.59-4.76-4.39-4.62-7.89.56-13.92-2.43-27.32-5.86-40.65-1-3.7-1.94-7.26,1-10.5,1.45-1.58,3.34-1.91,5-.64,3.2,2.49,2.07,6,1.81,9.31-.24,2.9-1.1,6.9,2.9,7.15s3.35-4,4.09-6.75c5-18.59,26.17-25.87,41.2-14.21,7.53,5.83,8.88,22.63.89,30.37-6.35,6.14-3.6,8.7,1.31,12.86,8.13,6.86,16.2,10.87,25.67,2.56,1.5-1.31,3.26-2.28,5-1,2.24,1.61,1.55,4,.58,6.06-3.54,7.36-10.08,9.4-17.55,9.24A24.39,24.39,0,0,1,713,1205.5c-6.92-7.86-15.5-12.55-24.68-16.75-3.6-1.64-8.59-3-5.9-8.59,2.28-4.79,6.21-2.51,9.67-1.16,2.06.8,4.12,2.27,6.2,2.3,7.93.12,14.09-3.24,15.34-11.5s-4.39-11-11.6-11.51C700.2,1158.16,698.34,1158.06,695.78,1157.91Z"/><path d="M539.05,1188.72c-10.33,2-19.36,3.66-28.38,5.4-2.17.42-4.59.68-5,3.5-.35,2.34,1.72,2.77,3.14,3.92,3.38,2.73.26,18.08-4,19-5.67,1.2-5.59-3.42-5.85-7.09-1-14.09-1.75-28.19-2.94-42.26-.41-4.77-1.95-9.43-2.79-14.16-.89-5,1.24-8.55,6.4-8,16.48,1.6,32.29-4.5,48.66-3.83,4.45.18,9-.49,13.17,1.5,4.33,2.06,4.49,6.16,2.8,9.54-1.81,3.62-4.55,1.67-7.36,0-10.15-6.14-20.72-2.87-31.06-.44-4.66,1.09-9.11,3.1-13.63,4.75-8,2.94-12.18,12.67-8.63,20.33,2.76,6,7.73,2.74,11.75,2.29C523.54,1182.14,532.23,1178.12,539.05,1188.72Z"/><path d="M843.73,1179.42c-.46-25.42,2-27.89,25-29.14a65.44,65.44,0,0,1,18.87,1.3c4.06,1,7.61,2.19,6.59,7-1.06,5.1-5.07,3.1-8.12,2.27-8.12-2.19-16.33-1.79-24.41-.5-4.56.72-10.3,1.67-9.55,8.53.61,5.68,4.83,6.25,9.76,6.74a110.77,110.77,0,0,0,18.92.26c2.41-.18,5.7-1.91,6.16,2.14.37,3.24-2.77,4.3-5.25,4.79-5.46,1.06-11.05,1.52-16.53,2.51-4.65.85-12-.88-10.26,7.71,1.39,6.72,4.51,12.93,13.2,12.37a21.81,21.81,0,0,0,5.35-1.41c3.49-1.18,7.36-7.39,10.33-2.38,3.42,5.78-3.9,7.95-7.42,10.36-10.73,7.36-23.1,3.22-28.35-8.87C844.2,1194.37,843.88,1185.07,843.73,1179.42Z"/><path d="M603.5,1207.62c-17.65-.57-24.25-5.64-28.8-20.33-3-9.59-.28-17.52,7.8-23.6,2.42-1.82,4.73-4.42,7.3-.48,1.58,2.43,1.76,5.33-1.29,6.64-11.45,4.91-8.63,13.57-5.25,21.55,2.83,6.67,17.22,10.59,24.94,7.78a23.31,23.31,0,0,0,3-1.48c6.95-3.79,18.39-5.88,16.71-15.17-1.84-10.11-13.13-12.93-22.76-15a12.16,12.16,0,0,0-3.35.06c-4,.29-5.46-1.84-5.06-5.44.35-3.2,2.43-4.25,5.53-3.94,12.3,1.27,23.37,5.62,31.35,15.15,5.06,6.05,4.7,14.32-.9,19.43C623.77,1201,612.44,1205.45,603.5,1207.62Z"/><path d="M792.69,1209.25c-17.24-.09-29.83-20.26-23.86-38.22,2.56-7.69,4-16.55,15.73-14a7.1,7.1,0,0,1,5.93,5.83c.63,2.79-1,4.29-3.67,4.21-12.6-.39-11,8.78-10.54,16.34.65,10.22,7.37,15.19,17.07,15.56,10.65.41,20.53-2.88,29.66-8.33,1.91-1.14,3.6-2.67,5.56-3.69s4.64-1.31,6,1a3.93,3.93,0,0,1-2,5.64C819.59,1199.6,808,1209.24,792.69,1209.25Z"/><path d="M1099.25,1196.16c-1.18-9.28-1.88-15.94-2.92-22.55-.83-5.3.93-8.72,5-12.53,6.23-5.85,9-5.07,13,2.28,8,14.63,21.84,20.36,37.65,22.12,6.9.77,7.77-2.94,5.25-8.21-3-6.36-6.44-12.55-9.57-18.86-1.68-3.41-1.7-6.82,2.41-8.27,3.79-1.32,5.44,1.3,5.83,4.69,1.08,9.31,9.45,14.9,11.71,23.77,3.33,13,1.66,16.09-11.9,17-10.75.72-20.37-3-29.68-8.09-11.88-6.53-11.81-6.29-14.69,6.45-1.24,5.46-1,13.91-9.09,12.88C1094.54,1205.86,1100.36,1198,1099.25,1196.16Z"/><path d="M1054.39,1181.43c-.5-7.39-1.09-14.77-1.48-22.17-.22-4.3.55-9.33,5.55-9.29,4.66,0,2.43,5.15,3.06,8.14,2.93,14-2,28.73,4.31,42.45,1.08,2.35-.54,5.27-3.57,6-4.09,1-6.74-1.44-7.19-5.06-.82-6.62-.87-13.33-1.25-20Z"/><path d="M715.65,846.07C697.24,846,687,856,685.8,874.82c-.43,6.62.78,13.49-2.51,19.77-1,2-1.73,4.35-4.41,4.38s-4-2.19-4.4-4.33c-2.68-12.72-5.21-25.46-7.68-38.22-.67-3.45,1-5.86,4.25-6.88,4.23-1.32,5.11,1.55,5.46,4.83.25,2.36,1,4.6,3.75,4.67s3.06-2.65,4-4.61c7.09-15.27,28.31-23.53,44.18-17.25,10.18,4,13,12.28,6.52,21.26-4.83,6.76-8.76,14.43-19.64,14.15-6-.16-5.19,4.73-2,8.73,7.13,8.83,20.82,13.33,31.9,10,2.66-.81,5.06-2.08,6.6,1.17,1.46,3.06-1,4.78-2.87,6.54-8.8,8.28-20.76,6.44-34.68-3.22a38,38,0,0,1-16-25.9c-1.14-7.26-.56-11.87,8.34-7.73,4.43,2.05,8.79,2.1,12.74-.56s9.67-4.66,8.39-10.59C726.34,844.54,720.18,846.61,715.65,846.07Z"/><path d="M580.45,867.57c1.5-7.5-1.87-13.44-1.83-19.78,0-3.7,1.68-7.09,5.1-7.82,4.4-.94,3.73,3.33,4.47,6,1.58,5.81,4,5.9,6.78.71,6.77-12.47,19.11-13.16,30.81-13.33s17.12,13,11.59,25.43c-7.17,16.13-16.88,22.28-34.49,19.8-7.78-1.1-10.55.44-9.38,8.16a15,15,0,0,1,.15,3.35c-.5,6.15.16,15.58-6.47,15.8-7,.23-3.22-9-4.11-13.93C581.56,883.64,581.2,875.07,580.45,867.57Zm23.87,3.7c9.24.1,16.67-5.35,22.95-12.29,2.8-3.09,2.78-7.61.42-11.43s-6.16-3.56-9.87-2.6c-7.26,1.89-13.91,5-18.85,10.86-3.14,3.73-2.75,8.29-1.81,12.58C597.85,871.51,600.77,871.61,604.32,871.27Z"/><path d="M1102.31,846.37c-5.21,0-10.43-.24-15.62.09-3.67.23-6.41,2.36-6.55,6.34s3.14,4.9,6.07,5.3c10,1.35,20,2.23,30,.29,3-.57,6.25-1.78,7.71,2,2,5.07-3,5.06-5.56,6.46-8.78,4.75-18.32,1.83-27.51,2.37-4.06.24-10.35-.4-10.06,4.13.4,6.22.33,13.53,5.55,18.63,3.65,3.57,7.15,3,10.53-.75,2-2.24,4.66-2.76,6.66,0,1.8,2.45.76,5-1,7.18a16.33,16.33,0,0,1-28.33-4.13c-5.29-13.51-5.28-27.87-3.89-42,1-10,13.49-17.87,23.65-17.74,9.69.12,19,3.86,28.87,2.14,2.68-.47,5.48.34,5.74,3.73s-2.62,3.76-5.19,4.51C1116.43,846.93,1109.36,845.72,1102.31,846.37Z"/><path d="M139.55,894.51c5-9.52-.37-22.27,9.09-31.72,3.92-3.93,2.43-11.38,3.52-17.19.66-3.52,2.44-7.53,6.55-8.3,4.34-.82,5.06,3.51,6.69,6.24a19.4,19.4,0,0,1,2.47,5c3.3,13.27,10.44,21.1,25.31,18.36,2.44-.45,5,0,4.94,2.81-.09,3.6-2.69,3.67-5.66,2.73-5.36-1.69-7.56,1.86-8.62,6.09-1.25,5,2.71,5.25,6.07,5.74,3.05.44,5.08,2.12,4.37,5.2-1.05,4.62-4.85,7.48-8.49,9.88-2.8,1.86-4.61-.77-6-3.19-1.81-3.23-4-6.26-5.55-9.6-1.82-4-2.51-9.54-8.62-8.08-5.52,1.31-11.95,1.76-14.34,8.83-1.17,3.48-3.26,6.65-4.87,10-1.07,2.23-1.34,5.75-4.93,4.6C138.25,900.85,139.43,897.64,139.55,894.51Z"/><path d="M219.73,887.4c.19-7.85,1-13.7-1.19-19.58-1.92-5.21-1.59-10.36,4.17-13.48,5.06-2.74,8.76-.46,13.12,2.5A309.72,309.72,0,0,0,268,876.53c8.51,4.39,12.8,1.14,12.16-8.5-.6-8.85-.71-17.84-4-26.37-1.09-2.85-1.21-6.47,2.61-7.32,3.37-.74,4.32,2.84,4.69,5.13,2.57,16.09,5.85,32.16,2.71,48.61-1.17,6.18-3.82,7.17-9.28,4.19-11.74-6.4-23.75-12.29-35.56-18.55-8-4.27-10.68-3-10.33,6.21a52.93,52.93,0,0,1-3,20.77c-.73,2-.81,4.79-3.88,4.33-2.62-.4-3.36-3-3.6-5.09C220,895.14,219.89,890.3,219.73,887.4Z"/><path d="M498.53,842.06c.16-2-.25-4.51,2.19-5.76,2.78-1.42,5.48-.55,6.71,2,2.88,6,5.74,3.74,9.39.8,7.32-5.89,15.73-8.35,25.1-6.58,10.62,2,14.92,10.9,11.37,21-5.69,16.2-18.76,22.7-33.8,25.19-7.29,1.2-7.64,3.21-6,9,1.25,4.6,2.89,9.37,1.6,14.27a6.66,6.66,0,0,1-6.4,5.31A3.16,3.16,0,0,1,505,904C505.28,883.16,502.33,862.65,498.53,842.06Zm10.54,16.54c-.13,12,7.56,17,18,11.06,5.06-2.87,9.58-7,13.72-11.14,3.75-3.78,6.37-8.92,2.77-14-3.31-4.67-8.7-3.31-13.29-1.95-7.12,2.11-12,8.52-19.35,10.42C508,853.77,508.8,856.44,509.07,858.6Z"/><path d="M797.69,865.89c-4.08,5-10.64,3.76-15.88,5.81-3.08,1.21-8.46-.17-8,5.6a11.7,11.7,0,0,0,7.67,10.19c3.3,1.3,8.62-2.79,10,3.54.71,3.17-2.19,4.37-4.3,5.82-4.55,3.12-10.39,3.35-13.49-.14-8.12-9.13-13.77-19.9-14.64-32.51-.13-1.82.66-3.68.61-5.51-.53-18.91-.56-18.72,18.41-18.61a81.51,81.51,0,0,1,23,3.71c3.74,1.13,6.71,4.12,5.07,8.48-1.54,4.1-4.81,2-7.55,1-8-3-16.27-.48-24.37-1.49-3.34-.41-7.07-1.4-7.38,3.87-.28,4.84,1.63,8,7,7.94,6.34-.11,12.67-.42,19-.63A4.44,4.44,0,0,1,797.69,865.89Z"/><path d="M918.17,900.33c-10.39-2.18-21.12-.29-31-4.47-4.29-1.81-8.43-3.84-6.66-9.66.52-1.7,1.59-3.75,3-4.51,2.1-1.14,3.08,1.09,4,2.71,1.67,3.11,4,5.74,7.62,5.85,5.7.19,13.55,3.78,16.47-2.09,2.8-5.6-5.43-7.49-9.07-10.57-6.82-5.76-11.73-12.24-11.92-21.57-.26-13,7.34-19.15,20-16.38,4.93,1.08,7.35,4.4,7,8.64-.47,6.11-4.79,3.87-8.33,2.7-3.06-1-6.69-1-7.74,2.25A13.63,13.63,0,0,0,905,867.58c6.77,6.3,13.92,12.24,23.28,14.79,3.77,1,9.54.27,8.63,7.53-.79,6.3-3.93,9.28-10.1,9.59C923.88,899.64,920.93,900.06,918.17,900.33Z"/><path d="M445.25,901.2c-17.13.32-28.34-7.89-29.84-24.86-1.57-17.73,1.92-32.27,17.65-36.68,2.51-.7,5.19-2.56,7.42-.82,9.26,7.23,21.47,8,31,14.79,13.44,9.53,14.46,24.88,1.87,35.44C463.63,897.22,454.84,901,445.25,901.2Zm-6.82-50.45c-10.73-2.27-14.47,4.8-16.6,13.35-2.28,9.15,3.06,24.37,9,26.83,15.94,6.6,28.07,3.8,41-8.52,7.14-6.79,5.27-13.62-.87-18C461.41,857.59,451.47,850.34,438.43,850.75Z"/><path d="M840.1,901.32c-6.16-.54-12.86-.86-19.47-1.8-4.44-.63-8.31-3.32-6.79-8.26,1.85-6,5-2,8.4-.53,9.61,4.22,19.29,1.06,28-2.79,6.17-2.73,1.13-6.16-2-7.67-7.61-3.68-13.56-9.31-18.52-15.8C821,853,825.26,840,838,838.26c4.37-.62,8.45-.58,9.1,5.2.53,4.69,1.33,8.11-6.46,7.65-6.67-.39-5.71,5.9-2.08,9.43,6.86,6.68,13.51,13.82,22.86,17.33,4.18,1.57,8.71,2.83,7.58,9.09-1.06,5.83-2.8,11.1-9.51,12.17C853.27,900.13,847,900.57,840.1,901.32Z"/><path d="M1046.73,851.51c-6.61,11.17-4.13,26.33-11,39-3.81,7.08-8.61,8.38-13.9,2.4-10.63-12-17.39-26.68-26.17-40-2.72-4.11.32-8.23,4.45-9.82,5.06-1.95,7.69,1.14,8.25,6,1.28,11.19,11.56,18,14,28.6a3.81,3.81,0,0,0,4.35,2.78c2.86-.59,4.13-3,4.61-5.72,1.51-8.41,3-16.82,4.31-25.26.59-3.83,2-6.4,6.35-5.84C1045.65,844.21,1047,846.51,1046.73,851.51Z"/><path d="M1169.08,861.4c-3,8.12-5.89,17.3-9.76,26.05-1.91,4.3-6.37,5.35-10.32,2.09-3.14-2.59-3-6,.32-8.55,7-5.38,7.4-13.37,8.43-21,.67-5-.79-12.45,6.06-12.09C1169.08,848.15,1167.5,855.71,1169.08,861.4Z"/><path d="M972.85,866c.27,6.16-.33,13.26,2.08,20.09,1.54,4.36-.38,7.61-4.39,8.7-4.59,1.24-6-3-6.07-6.08-.34-13.29-.24-26.58-.07-39.87a4.49,4.49,0,0,1,4.3-4.43c3.28-.14,4.62,2.85,4.74,5.19C973.72,854.71,973.13,859.91,972.85,866Z"/><path d="M763.1,1374.37c-12.1-1.95-24.8-7.64-36.05-15.47-9.3-6.48-13-3.67-15.61,5.51-.88,3-.76,7.57-5.61,6.62-3.73-.74-3.1-4.53-3.11-7.47a110.89,110.89,0,0,0-7.07-38.25c-1.42-3.81-3.19-8.73,2.5-10.23,6.2-1.64,4.28,4.38,5.41,7.36,1.27,3.35-.09,9.23,3.87,9.66,5.48.6,10.53-3.18,13.82-7.72,6.74-9.32,15.61-14.76,26.93-16.07,4.14-.48,9.21-2.7,11.53,3.34,2,5.27,1.67,10.37-2.33,14.59-6.91,7.31-15.07,12.11-25.59,11.43-3-.2-6.29-.79-7.43,3-1.08,3.59,1.66,5.45,4.17,7.09,10,6.58,21.52,10,32.47,14.55,4,1.68,7.12-.62,9-4.43,1.65-3.26,4.23-4.1,7.38-2.21,2.86,1.71,2.14,4.34,1.48,7C777,1370.11,771.81,1374.53,763.1,1374.37Zm-31.73-43.63c4.83.23,18.87-8.23,18.43-11.5-.39-2.91-2.65-3.28-5-2.88-7.36,1.25-14.79,2.78-17.89,10.78C725.85,1330,728.43,1330.78,731.37,1330.74Z"/><path d="M517.61,1344a29.62,29.62,0,0,0,4.38,12.55c2.8,4.75,3.55,9.87-2.82,11.79-6,1.82-7.22-3.72-8.5-8a50.48,50.48,0,0,1-1.35-7.69c-.24-1.85-.83-3.89-.32-5.55,3-9.81-15.69-6.22-10.13-14.25,4.41-6.38,6.3-10.89,3.57-17.76-1.66-4.19-1.56-9,3.55-10,5.57-1,5.14,4.76,5.19,7.91.2,11.53,5.18,15.17,16.67,13.4,6.39-1,12.94-2.74,19.86-1.55,7.14,1.24,15.74,2.85,15.33-9.47-.07-2.14,2.16-4,4.64-4.15,2.79-.17,3.43,2.13,4.33,4.24a63,63,0,0,1,5.46,24.78c0,9.33.09,18.68,5.5,27,2.2,3.36,1.59,6.74-1.64,8.76-3.64,2.28-6.18-.26-8.33-3.16-6.71-9.06-5.53-20-6.29-30.15s-4.51-13.09-14-11c-9.09,1.95-18.24,3.62-27.62,3.56C519.32,1335.16,517.36,1338.71,517.61,1344Z"/><path d="M611.05,1336.18c-1-4.84,2.84-12.23,2.66-20-.1-4.74,2.92-6.52,7.11-6.86,11.86-1,23.73-1.92,35.6-2.77,3.33-.24,6.87-.53,9,3a4.8,4.8,0,0,1-.37,5.26c-2.5,3.93-5.84,2.21-8.94,1.12-10.62-3.73-20.34,3.46-30.78,2.48a3.9,3.9,0,0,0-4.11,4.35,6.81,6.81,0,0,0,5.85,6c8,1.55,16.08,3.15,24.29.81,3-.85,7.49-3.45,8.4.94.83,4.06-4.58,3.65-7.51,4.78-6.38,2.46-13.12,2.55-19.79,3.23-5.57.57-12.63-1-11.51,9,1.32,11.84,6.07,19,14.54,16.92,10.7-2.62,23.45-2,30.27-13.66,1.27-2.19,3.29-3.26,5.53-1.58s1.28,3.82.24,5.95c-5.22,10.72-35.07,23.65-46.14,19.65-13.18-4.76-13.31-16.53-14.26-27.7C610.86,1344.48,611.05,1341.86,611.05,1336.18Z"/><path d="M1075.09,1331.15c-1.15,5.31-4.39,6.29-7.81,5.8-15-2.16-29.58,3.74-44.5,2.23-10.63-1.07-13.18,4.08-10.9,13.3.88,3.57,2.62,7,2.93,10.61.25,3,.55,7.56-4,7.88-4.28.3-5.32-3.31-5.34-7-.07-8.19,0-16.39-.18-24.59a81.9,81.9,0,0,0-.93-10c-2.88-19.73-2.92-20.08,17.66-21.13,11.87-.61,23.81.1,35.72.26,4.27.06,7.86,1.82,7.06,6.51-.92,5.4-5.15,2.77-8,1.92-12.9-3.77-25.86-1.44-38.83-.81-6.64.32-8.14,4.38-7.93,9.73.21,5.61,3.46,7.45,9,7.17C1037.47,1332.1,1055.91,1329,1075.09,1331.15Z"/><path d="M890.1,1331.61c1.64,10.24-1.56,21.07,3.72,28.35,5.72,7.89,16.75,2.18,25.34,3.49,4.38.66,8.71,1.43,13.31.67,4.42-.74,5.61,2.9,5.63,6.51a3.31,3.31,0,0,1-4.54,3.43c-12.23-3.87-24.46-.3-36.67-.18-8.32.08-11.74-2.4-11.77-11.67-.06-15.2-2.1-30.39-3.31-45.59-.09-1.11-.39-2.21-.42-3.33-.13-3.71-.65-8.5,4.39-8.53,4.12,0,4.17,4.6,4.27,7.85C890.24,1319.29,890.1,1326,890.1,1331.61Z"/><path d="M1146.25,1350.05c-10.67,2.18-21.69.34-32.65-1.71-6.28-1.17-9.69.53-8,7.43s-2,16.71,7.29,19.29c10.89,3,19.84-3.83,28.51-9.69,2.58-1.75,3.2-8.92,7.76-4.57,2.91,2.77-1,6.69-3.63,9.37a65,65,0,0,1-24.27,15.42c-10.7,3.94-19.67-1.7-21.54-13.84-2.19-14.29-3.23-28.77-4.52-43.19-.24-2.7-1.06-6.84,3-7.35,4.67-.6,3.82,3.91,3.8,6.42-.14,12.45,9.49,12.49,17.59,13.72,12.21,1.84,24.37-.79,36.55-1.58a31.17,31.17,0,0,1,8.85.39,5.35,5.35,0,0,1,4.15,5.87c-.19,3.43-2.75,4-5.55,4Z"/><path d="M1147.62,1300.09c-11.2-.6-22.21,1.25-33.3,2.29-3.26.31-8.66,2-9.2-3.08s4.66-4.54,8.26-4.74c14.1-.77,28.19-1.63,42.3-2.16,3.71-.14,9.64-1.45,9,4.82-.54,5.37-5.93,2.54-9.26,2.84C1152.84,1300.29,1150.22,1300.1,1147.62,1300.09Z"/><path d="M959.84,1318.29c0-1.09-.57-3.71,2.34-4.45,3.54-.91,4.87,2,5.07,4.44,1.2,14.44,2.53,28.84,6.42,42.89a4.32,4.32,0,0,1-1.44,3.74c-2,1.27-3.85-.39-4.52-1.92a46.94,46.94,0,0,1-3.84-11.53C962.28,1340.8,961.23,1330.07,959.84,1318.29Z"/></svg>