<svg xmlns="http://www.w3.org/2000/svg" width="1142.29" height="2120.81" viewBox="0 0 1142.29 2120.81"><title>c27-txt</title><path d="M617,227.94c-11.45,1.56-20.61-5.51-30.87-8.36-4.42-1.23-8.89-5-8.34,3.86.16,2.43-1.09,4.54-3.68,4.86s-4.25-1.56-5.37-3.49c-2.62-4.52-4.59-9.44-7.47-13.77-7.44-11.17-22.49-9.94-29.4,2.1-2.41,4.19-5.18,8.2-7.88,12.22-1.21,1.81-2.48,4.21-5.19,3a4.53,4.53,0,0,1-2.15-5.82c4.94-8.37.06-20,10.19-27.08,4-2.79,5-9.83,7.65-14.78,3.82-7.14,9-9.84,14.39-1.94,6.11,8.94,16.71,13.92,20.22,25.48,1.49,4.9,5.21,15,15.06,6.61,1.89-1.61,5.13.07,7.24,1.78,3.11,2.51,6.78,3.11,10.55,3.41,2.55.21,5.64,1.14,7.18-1.65,1.77-3.23-1.37-4.56-3.3-6.15-6.08-5-9.55-11.49-11.16-19.06-1-5-1.5-9.82,3.57-13.09a21.51,21.51,0,0,1,17.31-3c4.85,1.36,3.52,6,.15,8.79s-11.81.06-10.12,7.52,5.14,14.9,12.86,18.9c2.65,1.37,4.94,3.59,7.7,4.6,4.69,1.72,8.33,4.07,7.39,9.63-1.13,6.7-6.92,4.06-10.92,4.85A52.45,52.45,0,0,1,617,227.94Z"/><path d="M1039.33,200.78,1001,209.17c-4.09.9-10.29-1.14-11,5.14-.76,7.22,3.61,13,9,17.31,4.21,3.33,9.24,2.16,13.59-.67,1.76-1.15,1.78-4.23,5.4-4.6,3.58,7.46-.73,12.64-6,16.38-7.42,5.25-15.27,3-21.75-2.16a26.82,26.82,0,0,1-9.61-17.39c-.73-5.57,0-11.05-4.64-15.54-2.28-2.21-.7-4.92,1.41-6.86s3.68-4.11,3.16-6.89c-2.82-15.06,5.28-17.16,17.82-16.77,10.38.32,20.83-2,31.26-2.93,2.94-.27,7.77-2.63,7.86,2.69,0,3.36-2.75,6.12-7.5,6.73-11,1.42-21.93,3.89-32.89,5.89-4.18.76-8.82,1.25-7.59,7.24,1.09,5.3,5.5,3.82,9.15,3.75,11.64-.22,22.73-5.15,34.52-4C1035.43,196.66,1037.83,196.49,1039.33,200.78Z"/><path d="M761.05,209.44c-11.18,4-27.09.47-34.31,16.21-1.09,2.37-3.57,4.17-6.49,2-2.56-1.93-4.66-4.74-2.86-7.74,9.38-15.72,16.86-32.66,29-46.63,3.26-3.75,7.39-3.2,10.33,1.29s5.67,8.83,8.63,13.17c4.57,6.69,9.17,13.13,19.08,9,2.12-.9,5.72-1,6.4,2.53.55,2.84-2.21,3.38-4.32,4.15-5,1.83-7.3,3.62-1.57,8.18,5.09,4.05,3.71,10.37-.5,13.51-4.92,3.66-6.58-3-8.95-5.7C771.69,215.05,770.37,207.9,761.05,209.44ZM750.18,202c3.65-.33,8.5.28,8.59-4.86.06-4.06-3.56-6.77-7.59-6.92-4.23-.16-7.13,2.94-7.71,6.83C742.74,201.89,746.49,202.25,750.18,202Z"/><path d="M1081.2,173.38c10.79-.76,19,1.05,27.41,3.56,18.17,5.39,18.27,21.42,10.49,31-10.14,12.48-23.91,21.53-40.47,24.43-6.7,1.17-11,.83-9.77-9.25,1.17-9.3-1-19.93-7-27.75-4.3-5.59-4.08-9.48-1.24-15.09,3-6,7.08-8.23,13.62-7A29.34,29.34,0,0,0,1081.2,173.38Zm2.38,9.36c-4.69,2.3-17-5.47-13.69,9.24,2,8.65,6.07,16.82,9.26,25.19,1.32,3.47,3.47,6.43,7.5,4.1,9.33-5.4,19-10.41,25.95-19.09,4.89-6.14,3.44-11-3.23-14.57C1101.53,183.37,1092.89,183.23,1083.58,182.74Z"/><path d="M494.35,191.49c-1.73,8.08,0,16.11-3.76,23.6-4,7.87-8.59,10-15.71,3.82-5.95-5.18-12.49-9.79-17.9-15.48-6.87-7.25-10.51-4.89-13.73,3-2.1,5.15-3.47,10.55-7.69,14.86-4.71,4.78-7.82,4.48-9.42-1.81-3.31-13.06-6.19-26.23-9-39.41-.75-3.49,1.29-6,4.78-6.35,3.32-.33,4.33,2.45,4.84,5.13,1,5.54,1.85,11.13,2.93,16.66.49,2.54,1,5.55,4.44,5.54,2.6,0,3.54-2.44,4.64-4.41,8.59-15.38,8.58-15.36,22-3.14,4.72,4.3,9.42,8.65,14.38,12.68s8.47,2,9.94-3.57a43.68,43.68,0,0,0,.57-20.12c-1.06-5.12.64-10,6.25-9.7,6.26.38,2.26,5.74,2.43,8.95C494.49,185.11,494.35,188.5,494.35,191.49Z"/><path d="M944.6,213.58c-11.37-1.83-23-3.11-34.34-5.71-9.46-2.17-10.59,1.13-8.51,9.19,1.54,5.92,7.51,10.81,4.24,17.91-1.22,2.64-1.37,6.31-5.46,6-3.55-.25-5.19-2.78-5.47-6.13-1.57-18.73-2.9-37.49-10.94-54.95a4.3,4.3,0,0,1,2.06-5.82,5,5,0,0,1,6.88,1.91,25.84,25.84,0,0,1,2.77,6.16c4.27,14.08,4.22,14.07,17.29,6.23,6.1-3.66,12.6-6.64,17.08-12.66,1.94-2.59,5.39-3.35,7.85-.48s1.31,5.84-1.41,7.83c-3.62,2.66-7.5,5-11.34,7.31-2.51,1.53-6.46,2.25-6.24,5.73.27,4.4,5,4,8,4.93,6.4,2.15,13.09,3.42,19.57,5.36,2.26.68,6.1.63,5.57,4.27C951.46,215.33,947.44,212.86,944.6,213.58Z"/><path d="M259.44,193.81c.61,4.19-2.39,9.81,2.88,12.21,5.11,2.33,8-2.91,11.39-5.56,7.08-5.61,14.24-11.06,22.46-14.88,9.07-4.22,14.63-1.24,14,8.41-.93,13.7-8.61,23.83-20.43,30.37-8.43,4.66-23.27,1.29-31.38-6.18-7.87-7.24-8.68-40.46-1-48.07,4.78-4.77,10.79-4.42,16.93-3.57,4.77.65,7.08,3.73,5.91,7.73-1.74,6-5,1.56-7.67.24-5.81-2.85-9.23.23-11.85,5C258.11,184,258.71,188.92,259.44,193.81Zm19.83,24.67c7.55-.41,14.82-3.46,19.41-11.44,1.82-3.15,5.69-6.19,2.32-9.85-3.11-3.4-7.3-.87-10.37.8-5.57,3-10.72,6.82-16,10.4-2.41,1.64-5.8,3.25-4.15,6.9C271.82,218.21,274.82,219.24,279.27,218.48Z"/><path d="M848.08,232.42c-14.18,1-26.2-5.5-38.45-11.1-3.08-1.41-6.6-3.52-4.52-7.63,2.53-5,5.46-1.29,8.2.33a43,43,0,0,0,14.55,5.8c1.93.33,3.94.4,5-1.47,1.24-2.19-.78-3.19-2.12-4.47-4.58-4.38-9.29-8.68-13.57-13.35-4.83-5.29-5.94-12.25-1.9-17.63A23.05,23.05,0,0,1,836,173.72c4.24.34,5.46,4,5.68,7.29.25,3.85-3.15,3-5.7,3.4-13.38,1.92-15.26,5.94-6.88,16.23,6.65,8.18,14.91,15,24.81,18.72,4.55,1.7,7.17,2.57,6.49,8-.75,6-4.5,6-8.95,5.31C850.34,232.46,849.2,232.48,848.08,232.42Z"/><path d="M82.12,195.67C85.85,185,90.27,172,95.05,159.07c1.56-4.23,5.33-6.29,9.81-6.28s5.09,4,5.91,7.09c3.26,12.52,11.59,14.84,22.92,12.05,2.27-.56,6-1.3,6.5,2.14.51,3.72-3.35,2.87-5.67,3.49-13.85,3.67-14.08,4.34-5.46,16,.88,1.2,2.29,2.07,2.94,3.36,1.42,2.82,4.58,6.32.22,8.65-4,2.13-7.19-.72-9.13-4.19-1-1.9-.88-4.46-1.84-6.44-2.34-4.83-3.14-12.2-10.21-11.62-7.48.61-16.22.77-19.16,10.57a40.21,40.21,0,0,1-3.19,7.17c-1,1.93-2,4.46-4.89,3.56C80.43,203.6,81,200.78,82.12,195.67Z"/><path d="M214,169.85c.95,8.57,2,17.13,2.83,25.7.28,2.77,2.56,6.11-1,8.17-3.12,1.82-5.78-.69-8.23-2.16-10.58-6.38-21-12.94-31.54-19.46-2.14-1.32-4-4.06-6.89-2-2.14,1.51-1.18,4.08-1.1,6.27.16,4.5.44,9,.35,13.49,0,2.31-1,4.61-3.91,4.45-2.55-.14-4.56-2.11-4.32-4.36,1.14-10.59-1.21-20.8-2.64-31.15-.41-2.92.69-6.11,4.16-7.21,3.18-1,4.38,1.82,6.41,3.37,11,8.34,20,19.16,32.64,25.34,2.25,1.11,4.14,4.08,6.95,2.28,3.06-2,1.83-5.3,1.59-8.23-.59-7.09-1-14.2-1.65-21.28-.32-3.43-1-8.09,3.06-8.35,5.76-.37,3.93,4.88,3.92,8.38q0,3.36,0,6.74Z"/><path d="M35.19,206.28a59.22,59.22,0,0,1-30-10.39C2.63,194.15.41,192,.08,188.74c-.28-2.72.07-5.61,3.05-6.61,4.19-1.42,3.43,2,4.19,4.46,2.83,9.17,22.58,16.88,30.26,11.84,5.3-3.48,1.77-6.51-1.27-8.72-7.92-5.75-13-13.52-16.56-22.36-4.41-11.1-1.31-17.8,9.92-22.14,5.23-2,10.55-3.88,15.95-5.37,4.81-1.34,8.89.37,11.91,4.37,1.14,1.5,2.5,3.29,1.07,5-.74.91-2.6,1-4,1.24a6.18,6.18,0,0,1-2.18-.5c-10.3-2.57-22-4.14-26.57,7.22-4.12,10.32,4.3,18.89,11.76,26a64.25,64.25,0,0,0,9.89,7.46c3.61,2.29,7.58,4.33,6.18,9.44s-6.31,4.61-10.16,5.55C41.37,206.14,39.05,206,35.19,206.28Z"/><path d="M836.69,378.44c-14.13.13-23.37-7.93-25-21.51-.35-3,.69-6.68-3.43-7-4.77-.39-3,4-3.83,6.53-1,3.23.15,8.83-5,8.46-4.06-.29-5.28-5.05-5.6-8.78-1-11.9-.27-23.92-3.93-35.64-1.42-4.55,2.38-7.14,6.83-8.64,15-5.06,31.06-4.24,46.27-8.3,4.79-1.27,7.59,2,8.3,6.86s-1.64,8.86-3.95,12.62c-6.91,11.2-7.05,11.13,6.68,12.09,8.33.59,18.27,1.38,21.28,9.43,3.51,9.43-2.56,17.71-10.08,24.42C856.71,376.57,846.28,377.2,836.69,378.44Zm6.67-33.08c-3.58.41-10,.63-16.12,2-3.85.87-10,.62-9.15,7.36.72,5.74,2.85,10.55,9.64,12.13a37.31,37.31,0,0,0,27.12-3.54c4.91-2.69,11.82-6.1,10.09-13s-8.94-4.92-14.36-5Zm-35.93-4.76c2.4,0,28.81-17.78,29.33-20,.87-3.56-1.33-5.29-4.28-4.48-9,2.47-18,4.85-26.52,8.51-4.53,1.95-4.25,7.53-3.32,12.06A4.65,4.65,0,0,0,807.43,340.6Z"/><path d="M692.91,335.63a4.35,4.35,0,0,1-4,3.51c-3.72.44-7.51.43-11.22.95-6.3.86-9,3.74-4.79,9.81,2.35,3.36,4.43,6.88,8.08,9.25,3.37,2.18,4.31,5.27.82,8.32-3.33,2.92-6.51,3.53-9.35-.88s-6.32-8.4-8.82-12.95c-6.92-12.57-23.66-13.93-32.53-2.43-3,3.83-6.05,7.56-8.88,11.48-1.84,2.54-3.43,5.38-7.08,2.92-2.87-1.93-3.53-4.81-2.23-7.95,2.86-6.88,5.11-14.15,9-20.41A63.89,63.89,0,0,0,628.74,322c3.31-10.92,12.48-13.34,21-5.47a13.54,13.54,0,0,1,2.94,3.4c6.92,13.19,18.6,14.54,31.59,13C687.43,332.58,691.14,331.39,692.91,335.63Z"/><path d="M971.77,339.81c.87-23.11,15.59-30.54,38.78-21.47,8.93,3.5,15,9.72,19.09,18.11,3.32,6.77,2.69,12.65-2.83,18.45-15.51,16.28-36.21,16.37-49.64-.09C973.15,349.88,971,344.54,971.77,339.81Zm25.59-12.41c-13.68.38-19,6.08-15.19,16.3,3.36,9,13.63,14.12,24.2,10.75,6.29-2,14.91-2.94,15.63-11.81.51-6.29-13.22-15.06-22.4-15.36C998.85,327.26,998.1,327.35,997.36,327.4Z"/><path d="M293.56,319.1c.44,16.36-11.32,28.28-29.83,28.23-9.68,0-11.86,2.82-9.81,11.78,1.34,5.8,3.65,15.58-3.47,16.18-7.43.63-4.85-9.17-5.22-14.77-.47-7,1-14.32-5.14-20-2.46-2.26-1.79-5.78-.66-8.55,2.52-6.22,2.91-12.3.41-18.61-.83-2.09-1.16-4.66.95-6.21,2.29-1.68,4.26-.33,5.68,1.67,3.27,4.58,7.23,2.24,11.19,1.34,8.72-2,17.5-4.48,26.5-1.88C289.44,309.82,294,312.37,293.56,319.1Zm-16.75-2.33c-6.86,1.35-13.12,2.18-19.32,4-8.22,2.4-8,7.71-6.91,14,1.36,7.92,7.16,6.43,12.27,5.4,7.93-1.6,15-5,19.49-12.15,1.47-2.37,4-4.93,1.83-8.19A7.29,7.29,0,0,0,276.81,316.77Z"/><path d="M913.72,316.51c12.54-3.26,21.73,3.46,29.2,14.05,3,4.27,4.32,8.63,2,13.66-5.47,11.69-14.86,18.62-27.16,21.16-10.81,2.22-20-1.12-26.41-10.66-6-8.86-5.33-25.59,1.25-34C898.13,313.61,905.58,316.8,913.72,316.51Zm1,38.46a46.69,46.69,0,0,0,6.71-.35c10.58-2.05,17.82-9.67,15.53-16.93-2-6.31-6.45-13.05-13.1-11.87-8.13,1.45-17.83-3.76-24.48,4.63-4.22,5.32-4,11-.63,16.75C902.41,353.28,907.75,355.87,914.76,355Z"/><path d="M54.28,365.43c1.17-15.41,2.22-28.5,3.15-41.6.53-7.49-2.44-11-10.59-10.48a74.81,74.81,0,0,1-24.62-2.26c-3.75-1-6.1-3.24-4.89-7.38s4.55-2.88,7.45-2.28c16.92,3.46,33.82,6,50.77,0a14.29,14.29,0,0,1,5.54-.77c4.92.31,7.63,3.08,7.33,8.06-.32,5.39-4.42,6-8.18,4.71-11.71-4.13-14.36,1.19-14.7,11.84-.36,11.6-2.42,23.16-3.75,34.74-.43,3.68-1.84,7.83,4,8.52,4,.47,3.79,2.95,2.53,5.66-1.66,3.55-4.24,6.4-8.32,6.79a4.93,4.93,0,0,1-5.64-4.41A102.44,102.44,0,0,1,54.28,365.43Z"/><path d="M487.93,371.25c-7.07-.16-15.5-7.39-18.32-18.94-2.57-10.54-4.39-21.27-6.23-32-.62-3.61-1.2-8.52,3.23-9.67,5.21-1.35,5.68,3.9,6.36,7.35,1.67,8.41,2.85,16.91,4.3,25.36,2.29,13.21,8.91,18,22.24,15.26a131.69,131.69,0,0,0,35-12c2.94-1.53,6.64-3.94,8.88.12s-1.09,7.33-4.29,9.12C524,364.41,508.05,370.53,487.93,371.25Z"/><path d="M109.2,317.55c9.93-.27,16.62,1.6,22.86,5.64,8.34,5.41,15.21,11.43,12.2,22.74-2.47,9.26-13.89,18.29-23.51,18.42-11.17.15-19.3-4.69-24.34-15-4.73-9.67-4-18.73,1.23-27.85C101.09,315.45,106.88,317.94,109.2,317.55Zm11.08,38c8.36.12,18.4-7.27,18.24-13.43-.19-7.25-14.42-17.39-25-17.6-8.44-.16-10.77,5.41-10.88,12.53C102.41,348.6,109,355.36,120.28,355.54Z"/><path d="M396.44,327.77c-.18-1.87-.47-3.74-.5-5.61-.05-3.18-2-8,2.58-8.56,5.61-.73,6,4.52,6.35,8.68.67,7.11,1.2,14.23,1.87,21.34,1,10.45,7,14.41,17,13.05a57.32,57.32,0,0,0,24-8.91c2.34-1.54,4.79-5,7.64-1.58,2.1,2.49,1.07,5.65-.92,8.28-7.93,10.48-33.79,17.32-45.59,11.72-6.54-3.11-10.31-8.67-11.11-15.89-.83-7.47-1.31-15-1.94-22.46Z"/><path d="M1114.66,352.14c4.45,1.3,14.26-4.89,15,4.11.78,10.13-10.07,5.8-15.86,6.89-12.22,2.31-23.82.82-33.6-8.16-7.69-7.05-8.07-14,.56-20.09,7-4.93,15-8.45,20.38-15.51,1.54-2,4-2.49,5.82-.47a6.07,6.07,0,0,1,.06,8.28,51.84,51.84,0,0,1-14.71,12c-6.39,3.63-4.38,6.81.43,9.7C1099.16,352.79,1106.36,352.39,1114.66,352.14Z"/><path d="M357,329.88c-.33-1.56-.9-3.74-1.24-5.95-.52-3.39-1.21-7.39,3.39-8.15,4.82-.79,7,2.81,6.71,7-.85,13.9-2,27.64-12.55,38.65-9.28,9.71-18.7,8.45-24.67-4.11-5.4-11.36-5.8-24-8.67-35.95-.91-3.77.23-7.08,4.59-7.38s5.58,2.6,5.6,6.62c0,8.62.15,17.29,2.72,25.65,1.33,4.35,2.83,8.92,8.21,9.66s8.21-3.74,10.38-7.34C354.73,343.15,357.32,337.2,357,329.88Z"/><path d="M1078,363.44c-.58,5,.48,10.67-4.68,11.14-5,.46-5.74-4.6-5.92-9-.69-16.44-7.87-31-13.66-45.91-1.84-4.73-4.19-10.42,2.09-12.31,5.84-1.76,6.93,4.75,7.74,8.84C1066.89,332.75,1074.24,348,1078,363.44Z"/><path d="M151.8,516.91c-16-4.38-33.6-8.87-49-19.34-2.68-1.82-5.09-4.58-8.57-3.41-4.1,1.38-2.35,5.45-3,8.41A16.1,16.1,0,0,1,91,504.7c-1.85,4.9-.07,14.05-8.09,12.54-7.25-1.38-3-8.91-2.39-13.87,1.2-10.31-1-20-4.94-29.42-1.57-3.71-3.65-7.32-.33-10.95a4.33,4.33,0,0,1,3.81-1c4.12,1.61,3.82,5.62,4.26,9.11.4,3.21.27,7.2,3.7,8.35s4.24-3,6.07-5c11.11-12.09,26.74-10.6,40.89-13.44a4,4,0,0,1,4.79,3.37c.68,4.63,1.23,9.27-3,12.93-5.18,4.51-10.55,8.65-17.14,10.94-2.06.71-4.41,1.8-3.69,4.39a5.69,5.69,0,0,0,3.6,3.5c14.38,2.54,26.55,15.71,42.92,8.91,1.93-.81,5,0,5,2.62,0,3.14-1.37,6.63-4.41,8C159.59,516.73,156.47,516.41,151.8,516.91ZM117.94,470.5c-6,2.37-14,2.16-17.52,9.53-1.15,2.42,2,3.62,4.07,3.23,6.9-1.31,14.2-2.52,18-9.37C123.59,471.79,120.72,470.56,117.94,470.5Z"/><path d="M244.56,490.18c-.29-5.46,1.29-12.22-.86-19-1.31-4.15-1.42-9.08,4-10.77,5.06-1.58,10.26-3,14.77,2.25,7,8.16,15.37,14.73,24.12,21,5.82,4.17,8.92,2.63,11.77-3a153.75,153.75,0,0,1,8.75-16c2.66-4,6.36-3.87,8,.94q7.61,22.82,14.45,45.89a5.86,5.86,0,0,1-4.11,7.7c-3.72,1.11-4.73-1.8-6.22-4.38-4.09-7.06-4.4-15-6.09-22.69-1.11-5.05-3.45-8.43-8.57-3.07-11.19,11.7-17.13,11.76-29.68,1.15-4.35-3.67-6.55-12.45-13.79-9.71-7,2.64-2.68,10.94-4.55,16.43-.33,1,.17,2.34-.31,3.18-2.33,4.05-2.58,11.35-8.59,10.55-7.08-.94-2.88-7.41-3.07-11.58C244.46,496.51,244.56,494,244.56,490.18Z"/><path d="M645.15,488.49c7.77,1.28,15.19-2.6,22.84-5.64,3.37-1.34,7.64-2.64,9.8,1,2.5,4.27-1.63,5.56-4.7,7.68-6.74,4.66-6.58,14.23-13.48,19.44-7.05,5.32-14.37,10.25-23,8.68-9.42-1.7-13.49-9.6-15.25-18.74-1.6-8.35-1.35-16.87-4.43-25.19-2.65-7.14,2.92-11.53,9.76-12.44,14.19-1.88,28.45-3.31,42.72-4.6,3.24-.29,8.45-1.68,9.06,3,.73,5.56-4.61,5-8.45,5.57-10.26,1.62-20.45,3.6-30.71,5.18-5.53.85-11.24,1.19-10.36,9.05.86,7.65,6.47,7.35,12.08,6.94C642.09,488.43,643.17,488.49,645.15,488.49Zm-.66,19.69c4.2-.18,8.66.35,11.55-3.78,1.09-1.54,1.61-3.46-.1-4.73-3.74-2.77-7.47.42-11.23.4a3.37,3.37,0,0,0-1.05.14c-2.77.92-7.63-.62-7.5,3.9C636.3,509.16,641.12,507.86,644.49,508.18Z"/><path d="M566.67,488.55c.16-14.34,0-14.48-12.16-10.52-.68.23-1.41.28-2.1.46-21.44,5.68-21.48,5.68-21.33,27.2,0,4.33-.69,8.66-5.6,8.82-4.51.15-5.12-4.33-5.39-8-1-13.15.51-26.48-3.06-39.47-.78-2.82,1.26-4.79,3.93-5.53,2.86-.79,5.29.4,5.68,3.33,1,7.37,5.74,6.63,11.08,6a157.11,157.11,0,0,1,16.11-.75c4.95-.08,9.23-.74,10.85-6.54.8-2.87,2.83-5.21,6.28-4.76,4,.52,5,3.52,5.25,7,.38,6.8.49,13.62,1.19,20.37.83,8-1,16.5,5.32,23.41,3.13,3.4,1.2,6.86-2.15,9-3.6,2.32-6.24-.1-8.08-2.88C566.61,506.86,568.37,496.36,566.67,488.55Z"/><path d="M910.36,469.77c-4.81,11.09-3.37,22.41-2.09,33.71.12,1,1,2.07.92,3.06-.32,4,1.81,10.27-3.4,10.83-4.87.52-5.45-5.62-6-9.85-.81-6.75-1.39-13.53-2.13-20.29-.59-5.44-3.52-7.8-8.85-5.93A113.24,113.24,0,0,1,858.78,488c-5.84.4-9.8,4.15-8.14,11.19a144.91,144.91,0,0,1,2.74,14.72c.3,2.35.64,5.68-2.47,6.37-3.85.86-4.75-2.54-5.23-5.36-1.77-10.23-3.33-20.5-5-30.76-.91-5.66-1.88-11.31-2.74-17-.34-2.23-.22-4.6,2.37-5.29s3.69,1.67,4.66,3.51c7.58,14.48,7.57,14.55,24.32,11.69,3.87-.66,7.69-2.91,11.44-2.7,8.3.47,14.78.42,11.21-11a4.41,4.41,0,0,1,2.89-5.23c2.82-.78,3.85,1.48,4.07,3.72C899.59,468.88,906.27,467.35,910.36,469.77Z"/><path d="M476,494.15c0-7-.37-14.22.1-21.36.6-9.2-3.66-11.88-11.76-9.42-10.1,3.07-20.52,2.55-30.8,3.54-3.63.35-6.82.15-7.41-4s1.76-6.68,6.15-7c16.4-1.23,32.88-1.55,49.08-4.84,8.21-1.67,10.38,2.27,8.37,9.71-4.74,17.55-4.11,35.25-1.48,53a34.86,34.86,0,0,1,.68,5.33c0,4.37-1.74,8.12-6.41,8.49-4.93.39-5.46-4.3-5.86-7.57C475.63,511.51,478,502.86,476,494.15Z"/><path d="M29.47,482.42c7.25-.89,14-1.86,20.77-2.47,2.46-.22,6.36-2.49,6.95,2.05.39,3.05-2.9,3.54-5.41,4-8.07,1.54-15.57,5.45-24,5.52-8.87.08-8.73,5.33-4.72,10.5,5.74,7.41-.51,12.4-3.36,17.18-2.14,3.59-5.11-.61-5.22-3.22a194.2,194.2,0,0,0-4.22-32.72c-.75-3.5.65-7.16-1.87-11-3.08-4.66.59-9.08,3.41-12.58,4.36-5.42,5.14,1.64,7.75,2.61,5.5,2.06,11.27.74,16.9,0,3.52-.44,7-1.94,10.58-.54,3.79,1.47,5.86,4.1,5.1,8.32-.79,4.41-3.65,5.8-7.86,5.14-4.92-.79-9.65-3.58-14.75-2-3.4,1-9.58-1.8-9.67,3.81C19.74,483,26.05,481.33,29.47,482.42Z"/><path d="M958.11,524.55c-8.16-.13-11.47-4-14.19-8.27-8.38-13.09-9.36-28.46-12.45-43.1-1.1-5.2,4-8.12,8.15-8.16,13.93-.16,26.73-4,39.3-9.54,2.5-1.09,7.14-3.62,8.19.77.95,4-4,2.64-6.44,3.39-12.69,3.85-24,11.33-37.21,13.85-3,.57-4.26,2.59-3.18,5.58,1.14,3.16,3.9,3,6.33,2.32,9-2.42,18-5.06,26.94-7.62,3.09-.88,6.17-1.87,9.3-2.6,1.74-.4,3.84-.5,4.45,1.71s-1.22,3.47-3,3.51c-12.77.27-22.17,9.79-34.1,12.21-6.22,1.26-7.52,5.06-5.5,10.31,1.54,4,3.17,8.18,5.8,11.44,4.76,5.91,11.13,4.74,15.57-2.56,1.95-3.21,2.85-9.12,7.87-5.43,3.79,2.8-1,6.38-2.72,9C967.48,517.26,964.84,524.82,958.11,524.55Z"/><path d="M788,521.93c-12.77-.41-22.05-2.33-30.1-8.66-4.09-3.22-5.14-6.66-2.67-11.18,1-1.87,2.09-4,4.76-3.35,2.4.63,1.91,2.88,1.51,4.46-1.3,5.24.74,8.73,5.75,9.63,6.73,1.19,13.79,1.54,19.89-2.07,3.41-2-.1-4.19-1.41-6-4.08-5.69-9.87-9.73-12.55-16.95-3-8.19-1.14-13.86,4.53-19.25,6.45-6.12,15-8.23,22.87-11.58,3.74-1.6,6.57.33,7.59,3.77,1.23,4.18-.75,6.69-5.27,7.5a48.77,48.77,0,0,0-10.2,3.09c-14.83,6.18-16,16-3,26.09a35.74,35.74,0,0,0,8.15,5.09c4.29,1.78,7.47,3.64,7.23,9.18-.25,5.72-4.6,7.05-8.38,8.52C793.06,521.59,789,521.74,788,521.93Z"/><path d="M171.77,490.53c.44-11.8,10.46-25,18.77-24.81,13.16.35,25.73,13.1,25.3,25.65-.35,10.52-12.78,21.8-23.36,21.2C179,511.82,171.27,503.58,171.77,490.53Zm22,12.07c6.89-1.5,13.31-3.81,13.09-12.66-.18-7.33-7.41-14.2-14.16-13.31-8,1.06-11.66,6.48-11.64,14.21C181,498.93,186.32,501.91,193.73,502.6Z"/><path d="M1066.23,483.23c4.6,6.16,3.33,10.08,1.1,14-6.82,11.91-18.38,17.16-30.81,18.93-8.48,1.2-14.72-5.4-16.55-13.71-2.45-11.12-3.67-22.52-5.33-33.82-.43-3-.33-6.29,3.51-6.54,3.63-.24,4.56,3,4.87,5.95.86,7.82,1.2,15.71,2.29,23.49,1.81,12.82,7.62,16,19.46,10.39C1053.24,497.9,1063.41,495.86,1066.23,483.23Z"/><path d="M1109,500.82c-2.82-.3-5-.35-7.07-.78-6.63-1.37-7.37,1.44-5.57,7s4.94,15.38.06,16.15c-8.07,1.27-6.56-8.84-7.75-14.6-1-5-1.6-9.68-7-12.33-3-1.44-5.11-18.94-3.1-21.42,2.22-2.74,5.08-2.17,5.83.66,3.68,14,15,11.89,25.12,12.51,5.35.34,10.71.49,16.06.69,2.72.1,6.22-1.06,6.41,3.42.15,3.7-1.86,6.3-5.5,6.83C1120.45,499.84,1114.38,500.27,1109,500.82Z"/><path d="M1134.15,455c3.73,0,7.89.62,8.13,5s-3.9,4.19-7.13,4c-10.62-.55-19.79,5-29.78,7a85.84,85.84,0,0,1-13.84,1.63c-2.56.09-5-1.23-5.18-4.36-.11-2.58.62-5.94,3.46-5.84C1105.16,463.08,1119.08,455.8,1134.15,455Z"/><path d="M334.24,1912.82c16.44-.11,20.87,6.08,14.95,19.9-3.21,7.5-2.44,10.78,6.56,10.49,3.91-.13,7.84,2,11.82,2.7,5.19.93,6.36,4.06,6.21,8.85-.58,18.89-25.09,34.25-42,26.22a11.6,11.6,0,0,1-6.31-6.37c-.6-1.54-1.75-4.14-2.6-4.12-13.5.33-9.83-10.3-11-17.4-1.63-9.75-2.49-19.63-3.77-29.44-.38-2.92-.15-7,2.83-6.5C319.89,1918.72,326.89,1910.65,334.24,1912.82Zm17.4,38.92c-6.07.46-12.78,0-18.45,3.72-2.89,1.91-7.58,3.28-6.48,8.1,1,4.36,3.14,8.71,7.69,10.28,9.09,3.14,16.74-.76,23.46-6.39,3.61-3,8-7.6,6.78-11.9C363.09,1949.91,356.53,1952.51,351.64,1951.74Zm-30.45-11.17c.17,1.54-1.51,5.65,3.66,6.34,4.88.65,17.15-11.88,17.7-18,.39-4.4-2-5.81-6.21-5.88C326.21,1922.85,321.74,1927.41,321.19,1940.57Z"/><path d="M60.57,1937.82c4.4-7.42,8.75-14.15,16.73-17.7,7.15-3.19,11.77-1.24,15.25,5.16,6.07,11.17,4.66,19.61-5.13,29.59-2.76,2.81-2.06,5.25-.31,8.21a21.7,21.7,0,0,0,28.57,7.9c2.53-1.3,4.72-3.6,6.69.09,1.89,3.52-.36,5.94-3.17,7.57-14.09,8.17-26,6-37.11-6.82-4.24-4.9-8.23-10-12.43-14.93-1.73-2-3.44-4.92-6.59-4-3.61,1.1-2,4.6-2.22,7.12-.35,4.76-.34,9.55-.61,14.32-.11,1.9.42,4.67-2.31,4.9-3.11.27-3.66-2.56-4-4.94-.42-2.7-.65-5.43-.81-8.16q-1.41-23.57-2.74-47.12c-.15-2.68-1-6.69,2.32-6.89,4.11-.24,5.07,4,5.09,7.47C57.8,1925.56,55.25,1931.78,60.57,1937.82Zm29.23.07c.22-5.86-1.76-10.15-7.33-9.33-6.41.94-13.56,3.45-14.14,11.07-.43,5.69,4.91,8.9,10.35,8.93C85.71,1948.59,90.47,1945.27,89.8,1937.89Z"/><path d="M748.7,1757.81c3.54,1,8.12.31,8.6,4.6.5,4.45-2.92,5.87-7.21,6.71a124.89,124.89,0,0,1-26.45,2.55c-5.93-.11-8.51,2.3-7.82,7.83.74,6,5,4,8.68,3.31,8.32-1.69,16.64-3.43,25-5,2.6-.47,6.26-3.74,7.64,1,1,3.42-1.93,5.76-5,6.69-8.83,2.61-17.72,5-26.62,7.37-10.37,2.72-12.42,7.59-7.3,17.1,2.17,4,5.15,7,9.72,5.78,5.74-1.49,12.12-2.46,14.86-9.24,1-2.53.85-7.71,4.84-6.16,3.62,1.4,1.52,5.84.73,9.12-2.73,11.24-12.25,15.2-21.35,18.35-6.8,2.34-11.07-3.85-14.46-9.05-5.25-8-2.43-19.72-11.88-26.11-1.33-.9-1-5.63,1.62-6.09,8.74-1.52,6-7.68,5.54-12.68-.81-9,2.21-13.28,12-12.52A71.4,71.4,0,0,0,748.7,1757.81Z"/><path d="M1090.65,1948.75c-8.38,6.18-5.76,13.25-6.38,19.42-.32,3.12-.19,7.31-3.58,7.59-4.63.39-4.34-4.15-4.61-7.52-.92-11.32-5.12-21.85-7.77-32.75a32,32,0,0,1-1.3-6.91c0-2.52,1.09-4.83,4.1-4.83,2.71,0,3,2.3,3.31,4.34.75,4.39,1.44,8.78,2.31,13.14.37,1.89.23,4.4,2.87,4.82s3.19-2,4.14-3.72c5.24-9.53,12.28-17.09,22.88-20.69,5.32-1.81,11.34-3.73,14.83,2.09,3.31,5.53.54,11.29-3.15,16a15.94,15.94,0,0,1-5.64,4.18c-3.74,1.81-10.77.55-10.64,5.69.16,5.83,6.89,8.6,11.93,9.74,7,1.61,14.5,3.86,21.84.5,2.26-1,4.6-1.94,5.93,1.31,1,2.45.78,4.8-1.4,6.48-6.74,5.2-13.84,8.87-22.66,5.11C1106.32,1967.94,1094,1964.4,1090.65,1948.75Zm12.69-12c3.7-.81,8.62-.55,9.5-5.62.46-2.64-2.41-3.76-5.07-3.28-4,.72-8.73,1.24-9.81,5.78C1097.24,1936.62,1100.77,1936.58,1103.34,1936.7Z"/><path d="M272,2092.62c.09,1.36.63,2.91.17,4.05-1.65,4-.28,11.29-6,11.1-5.17-.17-4.21-6.64-4.66-11-.81-7.8-2-15.55-2.87-23.35-.46-4.39-1.24-9.37,4-11.56,4.83-2,8.79.55,11.52,4.34,3.08,4.28,7.16,7.34,11.34,10.23,12.94,9,13.35,8.84,25.06-1.76,17.2-15.57,17-15.51,23.64,6.83,2.1,7,1.54,14.74,6.7,21.14,3.18,4-.5,8.18-4.06,10.12-4.89,2.65-6.35-1.89-7.89-5.3-3.18-7.06-1.63-14.87-3.5-22.17-1.65-6.43-4-9.84-9.93-3.4a19.39,19.39,0,0,1-3.18,2.58c-5.42,3.78-6.16,14.79-13.78,13.05-5.83-1.32-11.08-7.39-17-10.71-2.5-1.39-4-5.43-7.7-3.42C269.94,2085.55,271.47,2089.3,272,2092.62Z"/><path d="M549,1801c.11,5.61.89,10.45-1.33,15-1.07,2.18-2.12,4.49-5,4.51-3.4,0-4.75-2.41-5.36-5.23-2.29-10.68-4.7-21.26-8.89-31.48-1.37-3.35-3.68-7.62,6.63-9,20.12-2.64,27.69,13.75,41.5,20,1.46.66,2.3,2.71,3.76,3.33,4,1.72,8.43,5.81,12.31,3.61,5-2.86-.72-7.16-.93-10.94-.37-6.46-2-12.84-2.83-19.28-.4-2.91.14-5.79,3.89-5.83,2.87,0,4.37,2.15,4.28,4.76-.45,12.15,5.13,23.32,5.48,35.34.12,4.25.2,8.82-3.31,11.32-4.2,3-6.53-1.92-9.46-3.85-10.85-7.1-22.72-12.58-32.9-20.78-1.75-1.41-4.62-2.69-6.7-1.18C546.25,1794.17,550.12,1798.37,549,1801Z"/><path d="M444.74,1822.32c-5.77-1.4-7.4-5.28-4.54-10,7-11.42,8.23-24.9,14.05-36.72,2.6-5.29,7.95-7.18,11.69-11,2.09-2.15,4.86.47,6.37,3.08,2,3.53,4.62,6.79,6.28,10.47,3,6.53,7.82,7.87,14.27,6.61,6-1.17,12.11-2,18.18-3,1.93-.29,4.5-1,5.11,1.68.77,3.34-2.22,3.73-4.48,4.18a36,36,0,0,1-5.1.17c-4.65.27-8.29,3-12.11,5.2-6.37,3.67-.21,7.68-.15,11.54,0,2.39.14,4.78,0,7.16-.1,2.07-.47,4.52-2.94,4.67-1.42.09-3.3-1.09-4.3-2.27a12.07,12.07,0,0,1-2.66-5.41c-2.07-11.55-9.37-13.26-19.49-11.4-4.94.9-8.11,2.46-9.44,7.6a37.6,37.6,0,0,1-7,14.68C447.5,1820.92,446.94,1822.74,444.74,1822.32Z"/><path d="M551,1975.37c-12.17.17-16.51-3.64-17.34-15.53A79.28,79.28,0,0,0,528,1935a21.06,21.06,0,0,1-1.79-9c.09-2.31,1.14-4.14,3.34-4.58,2.37-.47,3.61,1.23,4.41,3.36,1,2.7-.57,7.32,3.33,7.79,5.25.63,2.86-5.14,4.79-7.52a13.33,13.33,0,0,1,8.79-4.74c9.71-1.42,28.15,7.46,32.48,16.31,3.27,6.68,3.57,13.76-.66,20.55C576.31,1967.46,563,1975.2,551,1975.37Zm-7.05-15.6c-2.07,7.9,2,8.63,7.75,7.67a36.28,36.28,0,0,0,14.84-6.47c15.7-11,15.24-17.87-1.72-26.39-.3-.16-.54-.43-.85-.57-10.5-4.74-18-.4-19,11C544.52,1950.09,544.24,1955.19,543.93,1959.77Z"/><path d="M361.07,2105.57c1.67-11,6.91-20.53,12.91-29.7,12.58-19.26,12.31-18.55,26.66-.36,6.35,8.06,8.38,19.36,18.69,24.7,3.37,1.74,1.85,6.1-.92,8.85s-5.63,4-8.65.32c-.65-.79-1.31-1.58-1.92-2.41-8.49-11.62-12.75-13-26-9.42-6.37,1.71-5.37,8.23-8.76,11.83-2.21,2.34-3.88,4.63-7.68,3.36S360.67,2109.16,361.07,2105.57Z"/><path d="M366.84,1795.28c-13.53,1.73-23.09-6.56-29.83-19.32-2.22-4.21-4.13-8.6-5.94-13-1.55-3.76-1.74-7.72,2.48-9.72s6.1,1.43,7.56,4.68c2.37,5.27,4.27,10.79,7.07,15.82a26.48,26.48,0,0,0,29.88,12.37c5.44-1.58,6.2-5.7,5.79-10.51-.53-6.11-1.14-12.22-1.43-18.34-.11-2.37.38-5.15,3.2-5.78s4.19,1.73,5.6,3.7c2.14,3,2.28,6.33,2,9.81q-1.41,21.46-2.77,42.94c-.19,2.92-1.18,5.52,1,8.67,5.48,7.88-4.64,11.52-5.81,17.8-.17,1-2.33.16-3.4-.85-2-1.93-3.57-3.74-2.88-7a152,152,0,0,0,2.56-17.23C383.25,1795.24,383.15,1795.23,366.84,1795.28Z"/><path d="M206.4,1803.55c.87-9.61-.63-19-2.71-28.34-.88-4-2-8.27,3.42-10.34,5.06-1.95,8.44-.47,10.72,4.49,4.26,9.27,12.83,14.9,19.39,22.22,1.72,1.93,4,4.45,7,2.87,2.57-1.37,3.37-4.46,3.1-7.18a85.55,85.55,0,0,0-2.57-15c-.86-3-3.37-5.86.79-7.71s5.67,1.54,7.56,4.63c3,4.88,1.23,10,1.61,15a65.74,65.74,0,0,1-.6,14.29c-.65,4.52.22,11-4.83,12.44-4.39,1.26-8.61-3.37-12.28-6.18-4-3.08-7.07-7.4-11-10.67-1.89-1.58-4.21-4.26-7.18-2.72-3.12,1.63-1.92,4.89-1.42,7.4,1.32,6.65.21,12.86-2.39,19-.93,2.19-1.16,5-4.53,4.29-2.73-.55-4-2.66-4.09-5.22C206.27,1812.42,206.4,1808,206.4,1803.55Z"/><path d="M85.28,1793.36c-1.34,2.74-1.46,3.58-1.94,3.89-9.48,6.15-3.65,11.39,1.35,16,3.15,2.88,2,5.42,1.08,8.27-.65,2.12-2,3.57-4.5,3.28-3.16-.37-4.8-2.36-5.63-5.22-.48-1.64-.55-3.51-1.41-4.91-3-4.83-.77-14.34-9.4-13.87-9.33.5-20.59-1.59-25.66,10.51-1.37,3.27-3.9,6.25-8,4.36-4.38-2-2.51-5.56-1.24-8.8,5.15-13.15,13.09-25,16.24-39.14,1.68-7.54,9.16-8.41,13.82-2.16,2.85,3.81,5,8.17,7.36,12.32,3.56,6.17,4.56,14.86,14.64,14.56A9.09,9.09,0,0,1,85.28,1793.36Zm-22.26-1c-2-5.07-3-11.15-9-11-3.39.07-5.77,5.26-4.61,8C52,1795.28,58.27,1791.29,63,1792.36Z"/><path d="M563.26,2084.67c-.74,7.67-1.54,16,2.43,24.27,1.28,2.66,1.93,9.41-3.68,9.89-4.6.39-6.2-4.19-6.51-8.81-.55-8.15-1.9-16.26-2.25-24.42-.25-5.58-2.47-7.24-7.72-6.37-7.43,1.23-14.88,2.56-22.37,3.06-8.12.55-9,4.76-6.59,11,1,2.52,3.22,4.62,3.88,7.18,1,3.72-.86,6.87-4.49,8.15-4.49,1.57-4.77-2-5.68-5.08-4.17-13.89-5.09-28.28-6.92-42.53-.27-2.1-.15-4.37,2.36-5a3.88,3.88,0,0,1,5.1,3.7c-.1,17.52,11.9,13.66,22.1,12.6,8.57-.89,18.63,1.81,21.14-11.87.87-4.79,5.11-1.05,7,2.16C565,2069.45,561.25,2076.88,563.26,2084.67Z"/><path d="M181.86,1812.48c.57,4.88-2.16,5.52-8.66,3.62-13.13-3.84-23.53-11.84-34.13-19.8-2.55-1.92-5.26-5.55-8.88-3.59-3.16,1.7-1,5.68-1.75,8.54-1.14,4.53,2.46,12.71-3.49,13-8.74.44-3.8-8.31-4.8-12.91-1.59-7.29-2.1-14.81-3.14-22.23-.6-4.27,1.06-7.56,4.71-9.38,4.32-2.15,5.85,1.86,8,4.35,10.34,11.87,23,21.05,35.64,30.17,1.67,1.2,3.69,2.22,5.66.66,2.37-1.87,1.27-4,.53-6.42-2.15-7.14-4-14.39-5.59-21.67-.59-2.72,0-5.66,3.51-6.37s5.09,1.61,5.63,4.5C177.32,1786.69,179.36,1798.47,181.86,1812.48Z"/><path d="M731.64,1963a50.5,50.5,0,0,0-1.38-24.56c-1-3.2-.91-6.92,2.19-9.43,3.67-3,6.25-10.23,10.5,1,5,13.37,16.9,20.71,31.55,22.7,5.46.75,8-.82,6.84-6.51-1.42-6.66-3.14-13.26-4.54-19.93-.53-2.52-2-5.87,1.67-7,3.83-1.24,4.57,2.48,5.15,4.85,2.42,9.93,5,19.87,6.52,30,1.52,10.24-.77,12.45-11.29,10.77-10.74-1.73-21.32-4.55-30-11.82-1.54-1.28-3.09-3.26-5.26-2.37-2.84,1.17-2.26,4-1.82,6.27.84,4.42,1.12,8.7-.78,13-1.13,2.55-.05,7.19-4.28,6.71-3.53-.41-5.21-4.07-5.44-7.75A55.53,55.53,0,0,1,731.64,1963Z"/><path d="M957.94,1941.89c-.64,9.23-3.09,18.57,4.27,26.94,2,2.26-.9,5.1-3.94,5.68-3.82.72-5.74-1.47-6.29-5-1.45-9.46-3.36-18.88-4.09-28.39-.5-6.53-3-8.54-9.08-7.18q-16.39,3.64-32.84,7.14c-5.28,1.13-7.26,4-6.4,9.56a115.19,115.19,0,0,0,5.27,20.79c1.08,3.07,2.62,7.47-1.73,8.77s-5.7-3.08-6.3-6.36c-3.07-16.76-5.87-33.58-8.8-50.37-.43-2.49-.79-5.23,2.28-5.84,3.7-.73,5.19,2.73,4.93,5.12C893.87,1935,902,1932.88,909,1932c9.47-1.2,18.85-3.28,28.35-4.08,6.2-.52,5.94-4.2,6.1-8.42.06-1.62.22-3.57,2.22-4.18,2.18-.68,2.74,1.36,3.85,2.53C955.85,1924.59,958.43,1932.68,957.94,1941.89Z"/><path d="M431.16,2080.46a30.68,30.68,0,0,1,6.88-19c3.49-4.2,7.61-7,13.39-5.47,6.34,1.68,11.11,5.31,13.29,11.68.79,2.28,1.18,5-1,6.67-2.42,1.85-4.33.09-6.18-1.67-3.18-3-6.38-7-11.48-4.34-4.87,2.5-5.55,7.65-5.95,12.39-1.86,22.22,18.47,34.41,40.2,24.06,4.91-2.35,9.48-5.41,14.16-8.22,1.87-1.13,3.29-4.25,5.92-1.43,1.89,2,.06,3.76-1,5.45-6.13,10-33.59,21.18-44.7,18.16C438.84,2114.4,431.24,2102.7,431.16,2080.46Z"/><path d="M1039.63,1934.18c-12,.14-21.1,9.4-32.73,10.12-2.31.15-3.63,1.45-4.31,3.68-2.58,8.53,4.27,21.65,12.34,23.51,8.65,2,18.07-5,20.05-14.81.52-2.56-.45-5.51,2.48-8.15,5.4,3.61,2.33,8.65,1.59,12.55-2.19,11.64-12.23,20.05-25.31,19.54-10.44-.4-13.88-9.83-16.52-18.27-3.31-10.54-.52-22.29-6.3-32.55-1.3-2.32,1.48-4.23,4-4.93,5.92-1.64,11.77-4,17.8-4.62,7.45-.73,14.81-1.09,21.9-3.83,2.12-.81,5.38-3.38,6.54,1.21.87,3.41-1.3,4.71-4.43,5.47-8.58,2.08-16.94,5.1-25.92,5.3-3.07.06-7,.45-6.44,4.67s4.3,3.45,7.4,3.12C1021,1935.22,1030,1931.52,1039.63,1934.18Z"/><path d="M219,1965.88c-5-3-4-7-4-10.59-.15-8.88.36-17.8-1.59-26.59-.84-3.8-1.37-8.09,3.07-9.7,5.37-2,5.57,3.13,7.24,6.32,3.51,6.71,5.36,14.48,14.35,17.17,8.49,2.55,13.9.48,17.36-7.52,2-4.63,3.74-9.55,9.53-12.12,3.44,9.46,6.42,18.68,7,28.57.27,4.59-.48,9.16,4.62,12.67,4.33,3-.78,6.59-1.68,9.88-.55,2-2.13,3.82-4.58,2.78-3.3-1.41-3.94-4.81-4-7.77-.08-7.54-.38-15-2-22.43-1.13-5.11-3.6-5.09-7.08-1.88-13.89,12.76-13.92,12.76-28.7.62-1.44-1.18-2.83-2-4.57-1s-2.06,2.77-1.88,4.42C222.69,1954.51,222.46,1960.15,219,1965.88Z"/><path d="M78.42,2120.81c-13.57-.92-23.36-7-31.93-15-4.17-3.9-.61-13.86,5-15.23,3.31-.8,5.25,2.19,4.22,4-8.64,15,6.56,11.28,11.8,15,1.89,1.33,5.3.8,8,.6,1.88-.14,4.31-.2,5-2.67s-1.37-3.44-2.67-5c-6.6-7.91-12.21-16.36-12.36-27.21A21.06,21.06,0,0,1,87.6,2054c3.16.17,5.36,1,5.88,4.33s-1.65,3.86-4.22,4.54c-17.24,4.56-20.52,14.79-9.23,29a34.24,34.24,0,0,0,11.64,9.87c4.27,2.07,6,5.3,5.14,10s-4.13,6.68-8.62,7.31C84.49,2119.51,80.83,2120.35,78.42,2120.81Z"/><path d="M212.66,2063.28c12.92-1.34,22.91,5.86,30.6,15.82,4.31,5.58,6.25,13.93,1,20-7.05,8.12-16.39,14.29-27.84,12.15-20.76-3.89-27.83-24.59-21.77-42.1C196.35,2064.24,200.41,2063.17,212.66,2063.28Zm.3,8.4c-8.79-.35-13.62,5.08-11.56,13.48,2.15,8.75,8.18,14.09,16.69,16.23,7.86,2,13.51-2.95,19.17-7.33,3.84-3,2.17-6.87,0-8.94C230.43,2078.59,223.55,2071.62,213,2071.68Z"/><path d="M323.92,1797.5c-.11,9.33-15,19.61-27.84,19.19-12.08-.39-21.45-11-21.24-24.15.18-11.7,13-23.2,25.68-23C309.08,1769.62,324,1787.51,323.92,1797.5ZM294.45,1806c12.17.24,21.8-5.26,21.05-10.74a16.37,16.37,0,0,0-12.31-13.39c-7.59-2-18.43,6.76-18.26,13.29C285.15,1803.63,290.89,1805.71,294.45,1806Z"/><path d="M633.24,1792.51c-1.74-10.6,3-18,7.6-25.1,4-6.07,10.07-6.63,16.22-2.86a5.87,5.87,0,0,1,2.57,6.31c-.32,1.78-1.59,2.71-3.47,3.21-12.51,3.29-17,13.31-12,26.71,4.69,12.68,17.55,16.11,27.82,7.41,3.1-2.63,6.16-5.3,9.21-8,2.41-2.12,4.75-6.71,8.15-3.55,3.24,3-1,6.32-2.87,8.63a75.1,75.1,0,0,1-12.33,12.17c-6.65,5-14,8.7-22.82,5.22-11.06-4.36-16.17-13.17-18-24.31A30.05,30.05,0,0,1,633.24,1792.51Z"/><path d="M722.43,1626.76c-7.55-.79-14.94.31-22.34,1.61-4.87.86-8.44,2.71-8.19,8.51s3.77,7.47,9,7.15c8.52-.53,17-1,25.56-1.52,3.07-.2,6.77-1.18,7.11,3.35.29,3.78-2.7,5-6.09,5.44-8.45,1.06-16.88,2.34-25.33,3.36-6.74.81-11.17,2.78-5.7,10.2,2.3,3.12,1.05,5.82-.49,8.55-1.14,2-1.95,4.69-4.82,4.78-3.58.11-4.81-3.07-5.09-5.51-1.72-15.24-3.12-30.53-4.45-45.82-.33-3.82,2.72-5.32,5.73-6.27,15.22-4.83,30.61-6.86,46.38-2.64,3.31.88,7.55,1.09,6.91,5.76-.73,5.4-5.19,4.22-8.94,3.83C728.57,1627.23,725.49,1627,722.43,1626.76Z"/><path d="M458.41,1640.65c1.06-4.15-.37-8.49-.68-12.9-.17-2.58.89-4.82,3.58-5.54a3.74,3.74,0,0,1,4.78,2.82c2.2,12.38,11.59,10.15,19.89,10,4.44-.09,8.88-1,13.3-.82,5.69.17,9.49-1.1,9-7.83-.16-2.17.69-4.31,2.93-4.87s3.4,1.58,4.81,3.09c4.08,4.35,6.58,8.84,6.4,15.36-.21,7.38.34,15,4.75,21.68,2.77,4.23.52,8.34-3.27,10.23s-6.66-1.68-7.65-4.84a151.24,151.24,0,0,1-4-18c-1.18-6.26-3.14-9.81-10.93-7.48-7.45,2.23-15.48,2.47-23.22,3.76-9.08,1.51-11.75,5.94-7.67,14.31,2,4,2.39,6.79-.81,10-1.79,1.79-3.69,3.42-6.24,2.58-4.32-1.42-3.41-5.58-3.7-8.75C459,1656,458.82,1648.48,458.41,1640.65Z"/><path d="M375.5,1641.42c-9.14,9.78,1.71,15.52,4.11,22.76,1.3,4-.72,6-3.13,7.71-2.94,2.17-5.33.08-6.79-2.29-1.58-2.56-2.35-5.61-3.74-8.31-2.25-4.35-.8-12-9.31-11-7.52.9-16.16-.31-17.87,10.81-.55,3.54-2.83,6.91-4.71,10.13-1.5,2.58-3.37,5.9-7.09,4.21a6.19,6.19,0,0,1-3.1-7.93c6.59-14.21,10.16-29.51,16.08-43.9,3.09-7.52,9.52-7.37,15-1.06,5.29,6.12,7.47,15.77,18.1,16C373.89,1638.62,374.71,1640.48,375.5,1641.42Z"/><path d="M211.43,1616.72c7.24-1.38,14,.55,20.79.7,3,.07,5.3,1.71,5.33,5s-2.51,3.68-5,4c-7.45.81-14.91,1.53-22.36,2.39-4.46.51-9.35.79-9,7.25.41,6.62,5.35,4.6,9.19,4.63,7.17.06,14.35-.1,21.5.33,2.82.17,6.92.58,6.49,4.83-.35,3.34-3.77,3.25-6.52,3.47-6.78.54-13.6,2-20.33,1.59-10.26-.54-9.45,4.95-7.29,11.52.72,2.2,2.74,4,3.4,6.2,1.35,4.47-1.42,7.36-5.1,8.77-4.68,1.79-5.85-1.79-6.53-5.4-1.62-8.63,3.14-18.8-6.21-25.55,8-8.24,1.44-18.54,3.9-27.54.75-2.77,3.08-3.12,5.77-2.84C203.6,1616.48,207.7,1616.53,211.43,1616.72Z"/><path d="M89,1641.29c-8.46,6.43-1.47,10.37,2.56,15.6,1.68,2.18,1.8,7.18-2,9-3.63,1.76-5.43-1.53-7-4.23-.68-1.18-1-2.64-1.81-3.66-2.92-3.49-4.42-10.84-9.65-9-6.91,2.37-16.24,1.45-19.89,10.5-1.92,4.74-4.09,9.39-6.26,14-1.06,2.26-2.62,4.32-5.51,3.29-2.62-.92-4.1-3.83-2.78-5.77,5.95-8.75,3.7-20.31,10.89-28.86,4.53-5.38,6.22-12.84,7.5-20,.53-2.94,1.43-5.26,4.93-5.42,3.23-.16,4.39,1.84,6,4.33,5.08,7.59,7,19.19,20.43,17.21C88.37,1638,88.91,1639.26,89,1641.29Z"/><path d="M603,1644.68c.09-13.52,10.71-22.12,26.54-21.5,9.5.38,27.32,19.31,27.14,28.84-.16,8.63-15.44,18.68-28.39,18.67C613.1,1670.68,602.92,1660.21,603,1644.68Zm27,16.29a16,16,0,0,0,11.51-3.26c3.69-2.83,9.24-5.88,5.23-11.23-4.16-5.54-9-11.14-16.5-12.82-10.92-2.46-20.58,7.67-16.9,18.13C616.08,1659.43,623.17,1660.32,630.05,1661Z"/><path d="M414.47,1675.64c-9.65-.43-17.37-1.91-23.23-7.81-1.61-1.64-4.39-4.49-2.27-7.12,2.34-2.9,5.46-.41,7.11,1.24a16.8,16.8,0,0,0,16.82,4.78c2.75-.65,6.94,1,7.74-3.12.69-3.62-3.31-4.77-5.46-6.75-6.95-6.43-15-11.8-16.11-22.64-.94-9.32,8.5-18.15,17.39-15.56,3.05.89,4.26,3.32,4.64,6.14.5,3.66-2,4.69-5,5-10.95,1-8.23,6.28-3.76,12.07a60.48,60.48,0,0,0,18.42,16c4.19,2.36,7.54,5.64,6.85,10.46-.83,5.84-6.31,5.07-10.6,5.63C422.3,1674.5,417.6,1675.2,414.47,1675.64Z"/><path d="M272.92,1645.37c.67,17.31.67,17.41,17.6,15.92,7.15-.63,14.25-1.82,21.38-2.65,3.75-.44,7.07.31,7.63,4.78.59,4.78-2.93,5.54-6.51,6-11.85,1.52-23.68,3.28-35.57,4.46-10.48,1-15.22-3.31-13.81-13.58,1.49-10.76-1.74-21-1.95-31.52-.08-3.82-1-8.36,4.09-9,4.55-.52,4.44,3.87,5.37,7.18C272.87,1633.08,272.51,1639.24,272.92,1645.37Z"/><path d="M150.18,2058c6.15,0,12.3.08,18.45,0,2,0,4.26-.71,5.63,1.25,1.54,2.21-.43,3.81-1.56,5.38-8.55,11.89-4.14,25.69-5.62,38.6-.11,1,1.17,2.6,2.21,3.17,3.43,1.89,5.7,4.09,3.15,8.07a5.91,5.91,0,0,1-6.23,2.73c-4.57-.81-6-4.63-6.32-8.34-.9-9.86-2.41-19.88-1.51-29.63.93-10.07-1.83-13.07-11.59-11.13a59.57,59.57,0,0,1-15.34.49c-3.4-.23-8.27.25-7.86-5.61.36-5.09,4-5.59,8.12-5.48,6.15.15,12.32,0,18.48,0Z"/><path d="M458.24,1929.56c.86-3.46,1.51-8.81,5.91-5.24,7,5.68,14.16,3.41,21.47,3.1,6.48-.28,13-.6,19.44-.88,2.1-.09,4.45,0,4.86,2.54.56,3.53-2.31,3.5-4.68,3.78-9.82,1.13-19.61,2.82-29.45,3.21-6.46.25-6.86,2.7-5,7.63.83,2.24,1.38,4.58,2,6.89,3.52,12.93,4.41,13.18,14,3.6,1.46-1.47,2.69-3.4,5-1.81,1.57,1.07,1.57,2.74,1,4.57a23.41,23.41,0,0,1-13.3,14.76c-3.92,1.76-8.39.43-9.65-3.34C465.48,1955.54,462,1942.42,458.24,1929.56Z"/><path d="M406.06,1936.81c.1,1.94.09,5,.46,8.08,1.91,15.92,9.88,21.1,25.37,17.2,4.77-1.2,12.16-7.26,14.11-1.58,2.54,7.42-7.31,8-12.39,10.34-13.72,6.16-25.32,4.1-31.09-5.45-5.11-8.47-4.39-18.39-5.48-27.81a43.29,43.29,0,0,1-.24-6.13c.12-4.1-2.23-10.24,4.7-10.2,7.09,0,3.93,6.43,4.53,10.33A42.74,42.74,0,0,1,406.06,1936.81Z"/><path d="M149.35,1932.24c.41,9.23,1.23,18.39,5.89,26.68,5.11,9.11,12.13,9.22,17.9.4,7-10.71,4.78-21.48.53-32.36-.72-1.85-4.14-4.07-.38-5.78,2.32-1.06,4.47.51,5.72,3,6.74,13.41,3.89,35.13-6,45.3-7,7.16-12.43,7.17-18.62-.73-9.3-11.88-12-25.73-10.72-40.51.22-2.49-.95-6.5,2.89-6.53,4,0,2.55,4,2.77,6.43C149.45,1929.5,149.35,1930.88,149.35,1932.24Z"/><path d="M686.38,1948c0-7.51-.26-15,.14-22.54.15-2.76.75-7,5-6.25,3.23.59,2.74,4.24,2.73,6.94,0,10.59-.21,21.17,0,31.75,0,3.79-.66,10,6.16,4,1.08-.93,2.68-1.2,3.58.25,1.37,2.23-.44,3.86-1.57,5.44-2.78,3.88-5.66,8.07-10.61,9-2.48.44-4.12-2.37-4.16-5-.15-7.87-.06-15.73-.06-23.6Z"/><path d="M492.33,1953.56c-5.43,0-10.87.07-16.3,0-3.75-.07-5.49-2.42-5.66-5.9-.18-3.86,2.3-5.7,5.75-5.61,10.86.27,21.71.76,32.56,1.35,3.21.17,6.37,1.38,6,5.39s-4,4-7.06,4c-5.08.06-10.16,0-15.24,0C492.33,1953.08,492.33,1953.32,492.33,1953.56Z"/><path d="M978.25,62.36c-.86-6.3-1.74-12.61-2.57-18.91-.59-4.44.4-8.27,4.45-10.8,4.35-2.71,6.38,1.22,8.86,3.3,7.19,6,15.65,9.82,23.91,14,5,2.51,8.35,1.75,10-4.3.89-3.32,3-6.31,4.57-9.43,1.09-2.16,1.11-5.63,4.49-5.36,3.54.27,5.71,3,6.32,6.31,1.21,6.58,2.11,13.22,3,19.86.64,4.89-.46,10.1,6,12.72,3.86,1.57,1.92,5.43.59,8.36-1.09,2.39-2.38,4.84-5.43,4.64-3.51-.24-5-3.21-5.16-6-.43-7.31-3.83-14.2-2.8-21.73.4-2.88-.14-6.81-3-7.42-4-.86-4,3.57-4.22,6-.72,8.16-3.52,10.5-11.63,6.68-7.14-3.37-14.88-5.47-21.55-10-5.81-3.94-8-1.75-7.63,4.75s1.22,12.77-.69,19c-.67,2.22-.67,5.67-4.46,4.89-3.06-.64-3.57-3.27-3.55-6,0-3.51,0-7,0-10.53Z"/><path d="M629.09,61.44a31.84,31.84,0,0,0-3.6-16.6c-1.57-3.19-2.5-7.19,1.55-9.29,4.2-2.18,4.31,2.25,5.61,4.43,2.6,4.32,5,3.23,7-.35,3.87-7,10.83-9.72,17.59-12.36,3.33-1.29,7.39-2.39,10.63,1.29,3,3.37,2.51,7.29,1.36,10.82A21.74,21.74,0,0,1,661,50.9c-5.89,4-3.33,6.6,1.18,8.73a49.18,49.18,0,0,1,10.5,6.5c3.56,3,4.16,6.82,1.5,9.94s-6.57.63-8.18-1.71c-4.46-6.45-12.08-8.07-17.77-12.59-3.65-2.89-8.48-4.32-9.45,3.32-.52,4.11.82,11-4.81,10.67-6.78-.42-4.93-7.52-5-12.41C629,62.71,629.05,62.07,629.09,61.44Zm31.47-24.3c-.1-2.29-1.52-3.87-3.56-3.42-6.2,1.33-10.49,5.32-13.27,10.91-.79,1.61-.22,2.93,1.59,3.72C649.94,50.38,661,42.3,660.56,37.14Z"/><path d="M21.82,20.69c4.76-.37,9.51-.79,14.27-1.09,2.28-.15,4.75-.07,5.2,2.84S39.58,26.57,37.35,27a149.25,149.25,0,0,1-17.92,2.46C9,29.94,7.09,32.15,11.31,41.85A18.17,18.17,0,0,1,12.4,53.79c-.49,2.15-.67,4.74-3.61,4.86-3.39.14-4.33-2.75-4.5-5.16-.43-6.32-.3-12.67-.46-19-.21-8.27-.35-16.55-.76-24.81C2.74,3,5.82.58,12.25.68,24.15.89,36.07,5.27,48,.23c2.43-1,3.78,1.53,3.89,4.11.16,3.55-1.47,5.22-5,5.38-9.22.41-18.43,1.09-27.65,1.37C15,11.22,9.4,8.92,9.58,16.25c.16,6.84,5.63,4.17,9.36,4.35a24.92,24.92,0,0,0,2.86-.16Z"/><path d="M425.36,68.09c-4.91,7.46-10.68,15.11-20,12.79-8.9-2.2-10.33-10.71-11.19-19.14-.92-9,.72-17.77,1.26-26.64.22-3.57,2.22-6.8,5.69-6.55,9.68.72,19.05-1.21,28.55-2.06,1.65-.14,4.27-.86,4.69,1.82.4,2.5-1.94,3.05-3.75,3.42Q419.41,34,408.19,36c-2.36.43-5.82-.62-5.67,3.24.16,4.15,3.67,3.38,6.52,3.54,8,.44,15.86-1.29,23.77-2.15,1.56-.18,3.49-.56,4.17,1.26.93,2.52-1.4,3.56-3,3.91-8.63,1.88-16.38,7.36-25.67,6.42-6.14-.62-9.74,1.73-7.83,8.07,1.62,5.4.76,14.07,10.71,12.09C416,71.45,420.63,69.56,425.36,68.09Z"/><path d="M133.53,43.43c-.5-3.33-1.32-9-2.23-14.62-.54-3.39-.54-7,3.64-7.32,3.53-.28,3.12,3,3,5.65-.17,5.35,2.11,5.65,5.43,2.18A40.71,40.71,0,0,1,154.91,21c5.12-2.53,10.92-5.18,14.44.61a14,14,0,0,1-1.67,16.79c-2.29,2.56-6.37,4.08-3.75,8.38s6.25,7.3,11.71,6.71c2.35-.26,5-2.59,6.74.64,1.36,2.52-.1,5-1.41,7.16-1.86,3.13-4.9,2.76-7.66,2-5.75-1.66-9.31-6.52-13.69-10.12-3.2-2.64-6.28-5.13-10.23-6.71-5.2-2.07-8.3-1.79-9.28,4.66-.36,2.36,1.09,7.07-2.91,6.85-4.47-.24-4.26-4.74-4.14-8.3C133.1,48.36,133.25,47.09,133.53,43.43ZM153.29,38c5.15-1.34,10.39-3.58,12.17-9.82.67-2.36-.91-4.24-3.72-4.39S147,31.47,147.3,33.55C147.68,36.54,149.85,37.74,153.29,38Z"/><path d="M1073.55,51.53c-.28-2.17-.46-4.36-.86-6.51-.61-3.39-.39-7.43,3-8.09,4.92-1,3.8,3.91,4.17,6.74.58,4.42,2.74,6,7.14,5.33,8.42-1.23,16.9-2,25.31-3.35,2.94-.46,5.34-.07,6.15,2.77,1,3.56-1.27,5.21-4.59,5.72-7.84,1.2-15.65,2.92-23.54,3.47-7.22.51-9.5,3.33-7.85,10.31,1.93,8.16,6.55,11.84,13.27,9.61,5.09-1.69,8.9-5,10.41-10.3.72-2.52,1.9-4.29,4.63-3.27,3,1.1,2,3.72,1.24,5.7-3.32,8.83-9.44,15.42-18.29,18.27-6.65,2.15-12.49-1.84-14.63-7.83-3.26-9.12-4.87-18.82-7.19-28.27Z"/><path d="M530.59,65.87a77.57,77.57,0,0,0-5-25.83c-2.47-6.27-.85-9,6.11-8.64,11.19.64,22.12-2,33.17-3.07,3.2-.32,7.68-2.6,8.11,3.11.33,4.34-2.61,5.39-6.92,5.55-8.57.3-17.11,1.6-25.66,2.45-2.53.25-5.93.06-6,3.3,0,3.72,3.43,2.64,5.86,2.69,6.32.12,12.64.44,19,.44,2.23,0,4.89-.84,5.36,2.21s-1.45,4.85-4.39,5.1c-5.37.47-10.78,1.14-16.14.9-6.37-.27-9,1.74-7.31,8.3a85.76,85.76,0,0,1,1.85,10.34c.47,3.51.91,8.19-3.62,8.4-5.07.24-5.12-4.56-4.93-8.5C530.14,70.71,530.35,68.81,530.59,65.87Z"/><path d="M728.84,84.39c-11.29.09-18.67-3.81-24.31-10.83-1.6-2-3.67-5.36-.16-7.45,2.84-1.69,4.37,1,6,3.14,4.47,6.16,20.62,9,26.66,4.8.93-.64,2.11-1.92,2-2.8-.21-2.23-2.36-2.8-4.19-3.31a30,30,0,0,1-20.11-17.66c-3.92-9-.7-16.57,8-20.23,2.42-1,5.09-2.23,6.86.53s.82,5.32-1.66,7.58c-7.17,6.54-6.74,10.16.91,16.7a66.55,66.55,0,0,0,13.4,8.93c4.29,2.17,7,5.73,6.19,10.83s-4.53,7.19-9.34,8.09C735,83.47,731,84.74,728.84,84.39Z"/><path d="M365.48,47.26c1.18,4.6-3.06,11.65,6.2,14.13,3.38.91,1.68,4.76-.59,7-2.74,2.72-5.48,2.83-8.29.08-4.11-4-3.64-9.16-3.88-14.27-.58-12.07-.79-12.09-12.57-9.48a63.05,63.05,0,0,1-9.42,1.51c-6.52.42-14.37-.73-8.1,10.14,1.25,2.17-.28,5.26-3.2,6s-5.11-1.58-5.63-4c-1.83-8.63-3.7-17.29-3.62-26.19,0-1.34.54-2.59,2-2.89a3.44,3.44,0,0,1,4,1.81c1.65,3.76,3.81,6.71,8.36,6.57,7.3-.21,14.59-.52,21.88-.88.51,0,.92-.89,1.47-1.14,2.87-1.33-1.16-9.25,5-6.31,4.27,2,8,6.46,6.71,12.56A42.92,42.92,0,0,0,365.48,47.26Z"/><path d="M288.55,46.76c0-.95,0-1.91,0-2.86C288.42,24,288.42,24,269.17,25.32a30.47,30.47,0,0,1-5.7.31c-3.31-.39-6.88-1.83-6.6-5.46.25-3.33,4-2,6.37-2.23,11.23-1.09,22.54-1.53,33.48-4.8,2.28-.68,6-2.5,7,2,.65,2.89.38,5.81-3.19,7-5.25,1.74-5,6.69-4.78,10.37.7,9.87-2.13,20,3.41,29.63,2,3.43-1.22,7.69-5.12,8.76-4.44,1.23-5.22-2.94-5.4-6C288.3,58.84,288.55,52.79,288.55,46.76Z"/><path d="M892.55,30.39c4.81,1.2,9.87.15,15.17-1.54,7.48-2.39,10.21.81,8.11,8.27-3,10.54-4,21.06,1.4,31.22,1.88,3.57.27,6-2.12,8.46-1.38,1.39-2.89,2.9-4.94,2-3.2-1.42-4.55-4-4.55-7.66,0-5.72-.24-11.47-.73-17.18-1.14-13.28-2.18-14.07-15.08-13.37a51.08,51.08,0,0,1-8.57-.14c-3.31-.39-5.1-2.54-4.93-5.92.2-3.9,2.85-4.36,6.06-4.18S888.74,30.39,892.55,30.39Z"/><path d="M795.61,33.09c3.8-.31,7.59-.64,11.39-.93,1.81-.13,4.16-.85,4.43,1.92.24,2.35-1.9,3.16-3.76,3.54-5.38,1.1-13.1-1.42-15.22,4.89-1.64,4.9.75,11.2,1.49,16.85.82,6.27,1.11,12.56,5.87,17.78,2,2.15,2.45,6.49-1.27,8.16-3.32,1.5-5.19-1.49-6.38-4.21-4.7-10.73-5.32-22.33-6.25-33.71-.57-6.8-3.23-8.24-9.07-6.89-5.25,1.22-10.45,3.12-15.94,2.45-2.39-.3-5.63-.43-5.38-4,.19-2.64,2.53-3.62,4.87-3.74C772.14,34.54,783.72,31.64,795.61,33.09Z"/><path d="M87.05,56.7c-12.2-2-20.32-3.94-24.5-13.2-3.35-7.44-5.1-14.46.83-21.3a20.24,20.24,0,0,1,5-4.32c1.85-1.07,4.4-2.32,6.12-.16s-.4,4.2-1.87,5.69c-5.65,5.68-9.39,11.6-2.87,19,5.55,6.32,15.11,7.11,22.6,2.07,6.59-4.44,6.47-10-.44-14-2.19-1.27-4.68-2-7-3.1-2.69-1.29-7.17-2-5.25-6.12,1.31-2.8,5.09-1.72,7.79-.48,4.64,2.15,9.22,4.53,12.44,8.63,4.27,5.46,5.5,11.38-1.12,15.63C93.44,48.47,92.43,57.82,87.05,56.7Z"/><path d="M598.27,30.18c3.31,1.16,4.3,4,4.6,6.79.52,4.74.12,9.57.69,14.3.74,6.25.54,12.79,4.35,18.34,1.78,2.59.76,4.78-1,6.89-1.59,1.87-3.46,2.83-5.89,1.93-2.92-1.08-3.33-3.64-3.28-6.27A175.1,175.1,0,0,0,595.06,37C594.5,34,594.81,31.3,598.27,30.18Z"/><path d="M946.46,38.83c3.62.5,5,2.81,5.22,5.93.56,10.27-1.43,20.73,3.25,30.7,1.13,2.41-.59,6-3.77,6.78-3.53.81-5.34-2.27-5.64-5-1.22-11.31-2.08-22.65-2.89-34C942.45,40.75,944,39.13,946.46,38.83Z"/><path d="M1086,37.46c-1.64.51-3.3.4-3.8-1.48-.59-2.21-.61-5,1.62-6,10.8-4.67,22.45-5.54,34-6.87,1.6-.19,2.79,1.42,2.78,3.22,0,3.11-2.3,4.63-4.78,5.16C1105.89,33.67,1095.93,35.51,1086,37.46Z"/><path d="M266.29,1166.59a110.34,110.34,0,0,0-2.75-27.7c-1-4-.54-8.73,3.32-9.88,5.2-1.56,4.26,4,5.05,6.92,1.67,6.15,4.39,6.67,8.16,1.77,6.77-8.79,15.75-13.11,26.68-13.23,6.85-.08,14.61-.62,17.49,7.47,2.8,7.85-2.26,20-10.24,22.66-11,3.73-8.66,7.25-1.47,12.38a12.13,12.13,0,0,1,4.08,4.62c3.16,7.2,7.51,9.51,14.45,4.54,1.55-1.11,3.63-2.75,5.42-.47,1.56,2,.06,3.94-1,5.64-7.85,12.37-14.2,12.24-23.47.37-7-9-15.62-16.35-26.54-20.68-5.61-2.24-7.45-.45-7.83,5.17-.37,5.42.21,11-2.72,16.14-1.18,2.06-1.33,5-4.71,4.11-2.67-.66-3.91-2.63-3.91-5.36Zm31.15-19.18c2.39-.25,4.94-.05,7.15-.82,4.83-1.68,11.27-4.09,10.2-9.62-1.17-6-8-3.29-12.49-3.17-2.57.07-5.19,1.64-7.64,2.86-3,1.5-7.3,3-6.54,6.91C289,1148.18,293.56,1147.91,297.44,1147.41Z"/><path d="M387,1127.57c7.91,0,15.82,0,23.73,0,3.16,0,5.66,1.13,6,4.35.4,3.85-2.75,4.1-5.58,4.37-13.34,1.24-26.56,3.82-40.07,3.43-3.28-.09-8.79-2.15-8.52,4,.25,5.66,5.58,3.85,9,4,14.5.79,28.9-.93,43.32-2,3-.21,7.13-2.29,7.78,1.94.69,4.42-4.48,3.46-7,4.06-14.08,3.38-28.37,5.63-42.91,5.66-3.32,0-8.15-1.41-8.52,3.19a17.9,17.9,0,0,0,6.43,15.63c3.51,2.87,6.39,0,9.23-1.85,3-2,4.78-9.53,9.08-4.7,3.55,4-1.68,8.87-5,12-11,10.19-22.92,6.56-27.69-8-4-12.13-2.16-24.66-2.46-37-.12-5.13,4.26-7.56,9.36-7.61,7.93-.07,15.85,0,23.77,0C387,1128.55,387,1128.06,387,1127.57Z"/><path d="M671.9,1159.4c.4,9,3.79,15,.46,21.15-1.48,2.72-3,6.15-6.82,5-3-.89-3.06-4.18-3.27-7-.93-12.63.23-25.38-4.3-37.75-1.88-5.13,2.9-9.28,7.37-11.13,4.79-2,6,2.76,8,6,8,12.74,21.32,19.13,33.13,27.19,4.29,2.93,6.09-.47,5.16-5a66.52,66.52,0,0,1-1.29-20.62c.34-3,1.17-6.7,5.32-6.34,3.8.32,5.34,3.67,4.67,6.84-2,9.53.56,18.4,2.45,27.55.81,3.92,2.79,9.55-1.87,12.44-3.74,2.33-7.83,0-11.68-1.92a183,183,0,0,1-28.14-17.35c-2.19-1.64-4.6-3.61-7.49-1.8A4.08,4.08,0,0,0,671.9,1159.4Z"/><path d="M746.84,1165.71c-.6-11.65,6.18-23.13,8.51-35.66.46-2.46,2.13-4.56,5.08-4.13s4.88,2.17,5,5.57c.14,6.42-2,12.32-4.94,17.71-3.74,6.9-3.19,14-2.6,21.19.38,4.55,2.53,7.76,7.74,8,6,.32,6.81-4.33,7.07-8.25.65-9.7,4.48-17.84,10.27-25.4,3.77-4.92,7.84-4.89,12.51-1.69a20.73,20.73,0,0,1,.85,33.54c-1.37,1-3.34,1.63-4.2,3-8.94,13.93-22.75,9.05-34.33,7.31C749,1185.58,746.12,1176.27,746.84,1165.71Zm40.75,7.58c4.69-1.31,9.33-4.17,9.68-10.55.23-4.32-2-9.62-6.6-8.46-5.73,1.46-8.69,7.2-9.34,13.41C780.93,1171.5,782.51,1173.59,787.59,1173.29Z"/><path d="M547.35,1128.54c7.64,1,16.61,4.47,25.25,8.45,6.66,3.06,8,13,1.9,19.45-14.44,15.28-32.69,24.5-53,29.66-2.34.59-5,.88-6.12-2.11a3.28,3.28,0,0,1,2.25-4.11c11.42-4.23,7.22-14.09,8.05-22.1.14-1.3-.49-2.68-.78-4C519.48,1129,519.93,1128.45,547.35,1128.54ZM535,1161.48c1.55,1.81-4.55,11.8,5.26,8.23,9.08-3.31,17.49-9.43,24.78-16.32,4.1-3.86,3.55-7.06-1.92-9.2a66.47,66.47,0,0,0-18-4.31c-12-1.13-13.82.93-11.25,12.91C534.33,1155.12,534.46,1157.52,535,1161.48Z"/><path d="M920.26,960.16c13,0,25.89-3.09,39-1.07,3.46.54,8.11-.36,7.84,4.13-.28,4.65-5.19,3.56-8.33,2.93-13.36-2.67-25.61,4-38.59,4.37-2,.06-4.22,1.76-3.78,4.13.66,3.55,3.47,3.37,6.47,3,12-1.4,24-2.71,36-3.79a84.68,84.68,0,0,1,12.33.21c1.73.1,3.44.87,3.22,3.12-.19,1.9-1.93,1.93-3.13,1.78-15.85-2-30.32,3.28-45.35,7.07-10.23,2.58-8.41,8.4-7.87,14.5.67,7.51,6.42,9.58,12.76,8.47,4.91-.85,10.3-2,12.58-7.82.85-2.17,2.7-3.29,4.92-1.54,1.95,1.54,1.68,3.5.58,5.54-2.42,4.45-19.92,14.4-24.07,13.6-8.51-1.62-13.65-10.78-15.92-21.82-1.87-9.15,2.5-19.7-6.92-27.75-3.54-3,.2-8.48,5.86-9C912,959.85,916.12,960.16,920.26,960.16Z"/><path d="M576,981.22a30.47,30.47,0,0,1,4.15-.29c3.69.57,9.37-4,10.71,1.24,1.46,5.67-5.21,6.12-9.2,7.56a65.42,65.42,0,0,1-10,2.5c-4.61.87-8,2.51-6.56,8.16,1.28,5.17,4.4,7.58,9.78,6.86,5.67-.77,10-4.35,14.84-6.94,2-1.1,4.11-3.62,6.25-.91,1.87,2.38-.42,4.45-1.77,6.35-8.6,12.09-22.14,16.25-31.74,9.85-2.36-1.57-4.42-3.31-5.21-6.15-1.72-6.19-.71-14-10.12-15.45-1.77-.27-2.34-4.9-1.27-5.35,10.61-4.43,4.74-17.33,12.27-23.29,1.8-1.42,2.67-4.26,5.35-4.44q19.07-1.26,38.14-2.23c2.2-.12,4.22.85,4.37,3.38.18,3.09-2.21,4.13-4.67,4.5-9.51,1.43-19.09,2.49-28.57,4.13-4,.69-10.1-.26-9.24,6.81.93,7.62,6.51,3.73,10.46,3.71Z"/><path d="M498,1153.56a4.44,4.44,0,0,1-3.38,3.52c-9.18,3.06-7.09,7.67-1.71,12.54,2,1.78,3.39,3.59,2.49,6.22-1.07,3.12-.06,7.94-4.13,8.78-3.69.76-4.35-3.66-5.85-6.2s-2.71-5.64-4.49-8.15c-2.82-4-3.54-10.93-10.39-9.87-7.87,1.21-17,.9-20.33,10.95-.11.33-.26.65-.37,1-2,5.78-6.2,12.92-11.52,10.31-6.36-3.13,1.52-9.27,1.75-13.93.58-11.64,9.93-19.12,12.16-29.55,1.73-8.12,8.31-7,13.54-8.51,5.77-1.65,6.95,3.32,8.51,6.93,3.43,7.92,8.45,13.25,17.78,13.15C494.24,1150.7,497.06,1150.4,498,1153.56Z"/><path d="M1049.31,998.27c.84,5.4-1.91,6.57-6.66,6-11.7-1.34-21.36-7-30.7-13.67-2.52-1.8-4.84-6.07-8.81-3.41-3.66,2.44-1.13,6.26-1,9.52.2,5.49.48,11,.43,16.48,0,2.43-.78,5-3.91,5.13s-4-2.62-4.45-4.86c-1.29-6.4-2.49-12.85-3.17-19.34s-1.71-12.92-4.61-18.94c-3.21-6.67,1.71-10.47,5.92-13.8,3.52-2.79,4.17,1.26,5.62,3.44,8.1,12.17,20.31,19.33,32.93,25.49,7.65,3.74,10.2,1.15,8.27-7.28-1.21-5.33-1.27-10.92-4.07-15.94-1.52-2.74-2.17-6.55,1.68-7.93,3.53-1.26,4.63,2.34,5.39,4.83C1045.56,975.21,1048.68,986.49,1049.31,998.27Z"/><path d="M812.05,990.89c.12,16.19-5.51,19.69-16.92,14-6.48-3.22-12.92-6.59-18.41-11.43-1.54-1.36-3.15-3.21-5.35-1.77s-1.27,3.66-.79,5.68c1.11,4.72,2.29,9.42-.34,14.1-1.14,2-1.27,5-4.55,4.73-2.86-.28-4.18-2.76-4.48-5.06-.78-6.15-.56-12.44-1.64-18.52-1.2-6.71-.68-13.65-3.54-20.22-1.68-3.84-.77-9,3.62-10.68,4.16-1.61,6.25,1.75,8,5.77,5.09,11.46,16.61,17,25.07,25.42a7.27,7.27,0,0,0,8.71.26c2.7-2.13.9-5.24.27-7.73a50.17,50.17,0,0,0-7.4-15.88c-1.71-2.51-1.93-5.76.4-7.6,3.51-2.78,4.84,1.35,6.13,3.25C806.89,974.12,811.18,983.77,812.05,990.89Z"/><path d="M112.56,1166.4a92.51,92.51,0,0,0-2.23-25.64c-.93-3.94-.16-8,4-9.54,4.56-1.63,6,3,7.38,5.69,6,11.66,15.76,19.76,25.35,28,2,1.69,4.92,5,8.07,2.43,2.57-2.09.26-5.24-.32-7.77-1.55-6.68-3.56-13.25-5.29-19.89-1.08-4.15-.2-8.41,4.1-9.26,5.61-1.11,4,4.6,4.51,7.28,2.28,11.49,4.13,23.07,5.79,34.66.52,3.65,1.05,8.08-3.17,10.14-3.66,1.79-6.7-1.15-9.39-3-6.21-4.31-12-9.15-18.08-13.68-2.58-1.93-4.36-6.36-8.46-4.28-3.39,1.71-1.71,5.55-1.9,8.52,0,.68.06,1.38.07,2.07.13,5.88-2,12.93-7.43,12.6-6.61-.41-2.38-7.81-3-12.13A44.06,44.06,0,0,1,112.56,1166.4Z"/><path d="M471.49,996.5c.65,5.52,1,9.29,1.55,13,.44,3.18-.35,5.61-3.83,6.11s-5.46-1.52-5.52-4.66a339.11,339.11,0,0,0-3.92-42.09c-.4-2.73.58-5.73,4-6.3,4.45-.73,5.24,2.48,5.29,5.77.09,6.74,4.28,8,9.74,7.58,6.17-.48,12.34-1.13,18.51-1.67,5.2-.47,10-1.14,7.91-8.52-.74-2.58.09-5.08,2.89-5.81,3.41-.89,3.48,2.36,4.58,4.33,5.57,9.92,5.85,21.14,7.88,31.92.9,4.81-.74,10.17,5.3,13.49,3.18,1.74.78,5.23-1.65,6.61-4.58,2.6-8.63.68-9.73-4-1.65-7-2.14-14.31-2.95-21.5-1.17-10.34-3.62-12.56-13.1-9a76.52,76.52,0,0,1-17,3.91C473.66,986.81,470.43,990.52,471.49,996.5Z"/><path d="M222,975.86c-.31-3.79-1.42-8.42,3-10s5.49,2.71,6.64,6c.33.93,1.09,2.47,1.64,2.47,11.53-.08,23.11.23,34.54-.95,3-.3.72-5.39.06-8.29s.41-4.93,3-5.74,3.79,1.31,4.53,3.24c2.46,6.4,7,11.54,5.54,19.91-1.41,8-1.37,17.1,3,25.21,2.4,4.43.07,8.63-4.16,10.06-5,1.69-6.74-3.19-7.27-6.63a126.88,126.88,0,0,1-1.48-21.59c.14-7.64-3.34-9.15-9.62-6.94-5.66,2-11.48,2-17.32,2.3-10.13.51-12.25,3.4-9.61,13,.54,2,1.54,3.84,2.11,5.82,1.07,3.72.8,7.18-3.78,8-3.73.65-5.06-1.68-6.05-5.28C224.05,996.37,223.38,986.07,222,975.86Z"/><path d="M90.42,1000.33c-.3,2-.52,4.45-1,6.8-1.19,5.46-3.47,7.47-8.21,2.64-5.54-5.65-11.55-10.85-16.91-16.66-6.62-7.19-8.6-7.4-11.48,1.36-2.22,6.75-6.21,12.15-9.94,17.87-1.32,2-2.19,4.57-5.29,3.92-2.71-.57-4-2.88-4.5-5.21-1.8-8.76-3.22-17.61-4.95-26.39-1.12-5.73-2.73-11.37-3.73-17.12-.43-2.46-1.46-6.19,2.55-6.61,2.92-.31,3.53,2.81,3.94,5.19,1.74,10.2,3.38,20.41,5.12,30.61.39,2.25-.19,5.6,2.62,6.11,3.21.57,4.61-2.53,5.62-5.12,2.5-6.41,4.93-12.85,7.2-19.35,1.79-5.14,3.77-6.22,7.61-1.44,4.94,6.16,10.25,12,15.55,17.89,1.52,1.69,3.11,4.36,5.88,3.18s2.06-4.06,1.65-6.4c-1.23-7.11-2.77-14.17-3.76-21.31-.36-2.55-.53-6.34,3-6.81,3.75-.5,3.83,3.35,4.26,5.87C87.31,979.53,88.79,989.74,90.42,1000.33Z"/><path d="M84.72,1160.87a10.91,10.91,0,0,1,0,3.08c-4.59,14.86-18.63,17.6-30.4,22.07-9.33,3.55-16.63-4-21.69-10.79-6.47-8.65-6.47-19-.53-28.11,5.07-7.8,12.76-13.23,20.74-18a7.37,7.37,0,0,1,4-1C66.37,1128.68,84.91,1150.39,84.72,1160.87Zm-27.27-18.14c-11.78,0-21.65,8-21.77,17.47-.13,9.73,8,16.84,19.44,17,10.73.1,24.51-9.74,24.12-17.23C78.83,1152,67.08,1142.7,57.45,1142.73Z"/><path d="M412.14,960.12c8-.45,13.49-.89,19-1,2.7-.06,6.13-.23,7.07,2.93s-1.72,5.57-4.24,6.34c-6.78,2-7.67,5.86-6,12.28,2.46,9.25-1.48,19.76,6.68,28.17,2.34,2.41-.39,7.62-4.52,9-4.77,1.58-7.17-1.74-7.86-5.85q-2.32-13.76-4-27.63c-1.35-11.19-3.93-13.58-15.25-12.93-5.86.34-11.71.9-17.54,1.52-3.18.33-6.46,1.05-7.54-3.15-1.23-4.8,2.5-6,5.77-7C393.87,959.83,404.24,959.84,412.14,960.12Z"/><path d="M865,1003.47c.6-10.7-.75-19.94-2.12-29.16-1-6.8-3.93-10.69-11.92-8.37-4.91,1.43-10.23,1.53-15.38,2-3.82.38-7.13-1-8-5-.92-4.4,2.54-6.52,6-7,7.51-.95,15.1-1.21,22.67-1.63,8.6-.48,17.22-.74,25.83-1.31,2.5-.16,5.19-.85,5.92,2.29.82,3.51-1.86,4.9-4.72,5.55a46.73,46.73,0,0,1-7.16,1c-4.5.32-5.48,2.54-5.14,6.91.92,11.67,1.23,23.39,1.8,35.09.17,3.7-.88,7.72,2.89,10.45,2.62,1.88,3,4.48,2,7.35-.86,2.36-2.88,2.89-5,2.43-3.16-.66-6.33-2-6.77-5.53C865.18,1013.2,865.2,1007.66,865,1003.47Z"/><path d="M183.64,994.65c.77-27.42,5.55-24.6-24-23.11-6.3.32-16.78,4.52-17.33-4.84-.58-9.86,10.13-5.3,16.25-6.33,9-1.51,18.23,2.89,27.29-2.2,2.77-1.56,8.24.17,11.11,3.84s-1,6.19-1.55,9.27c-2.34,12.53-3.81,25.35-1.11,37.93,1.22,5.69-.07,9.47-5,10.34-5.55,1-6.54-3.89-6.44-8.33C183,1005.69,183.36,1000.17,183.64,994.65Z"/><path d="M944.64,1132.28c9.87.45,18.46-2,27-4.66,3.36-1,7.36-2,9,2.21,1.84,4.85-3,5.28-5.81,6.74a23.58,23.58,0,0,1-5.8,2.11c-13.68,3-13.66,2.91-10,16.72,2.2,8.27,4.05,16.65,6.55,24.83,1.24,4.07.95,6.93-3.47,7.9-4.18.91-5.45-2.17-5.81-5.48a137.39,137.39,0,0,0-7.88-33c-2-5.38-3.87-8.3-10.19-6.46-3.56,1-7.54.48-11.29,1-4.05.57-7.16-.58-7.65-4.78-.51-4.38,2.49-5.86,6.53-6C932.36,1133.15,938.87,1132.64,944.64,1132.28Z"/><path d="M1081.58,953.74c13.78.36,24.75,2.57,35.69-.64,2.58-.76,5.32.5,5.5,3.26.26,3.93-2.89,6.29-6.18,7.3-18.07,5.55-18.42,5.46-18.38,24,0,10.11-4.37,21.37,6.53,29.43,2,1.49.12,4.51-2.2,5.91-2.59,1.58-5.47,2.21-7.33-.64-1.67-2.53-3.35-5.54-3.55-8.45-.91-12.74-1.36-25.55.29-38.26,1.28-9.81-2.34-13.82-12.12-12.22-2.32.38-4.5,1.67-6.75,2.53-4.14,1.57-6.91-.27-8.06-4-1.23-4.05,2.21-5.35,5.08-6.46,1.56-.61,3.4-.47,5.1-.73C1078.25,954.3,1081.3,953.79,1081.58,953.74Z"/><path d="M901.67,1153.3c1.64,8.61-3.7,18.43,5.49,26.42,3.12,2.71-.71,8.24-4.71,9.88-4.93,2-7-1.75-7.23-6-.4-7.93-.62-15.89-.39-23.82a103.64,103.64,0,0,0-2.19-23.64c-.81-4-3.92-10.17,2.48-11.18,7.2-1.14,6,6.11,6.42,10.46C902.08,1141.26,901.67,1147.18,901.67,1153.3Z"/><path d="M630.92,1179c.26,4.08-1.06,7.83-5.79,7.87-4.51,0-5.31-3.7-5.33-7.39a269,269,0,0,0-3.8-42.3c-.66-4-.4-8.24,4.48-9,5.25-.78,5.87,3.54,6.25,7.51Q628.82,1157.39,630.92,1179Z"/><path d="M731.25,979.31c2,9.15-6,18.45,1,27.82,1.83,2.42-1.38,6.37-3.86,8.82a5.21,5.21,0,0,1-6.64.87c-3.59-2.08-3.56-5.71-3-9.14a239.45,239.45,0,0,0,2.87-37.92c0-4.19.65-9.53,5.07-10.08,5.76-.7,2.63,5.79,4.56,8.58C733.72,971.84,731.1,975.62,731.25,979.31Z"/><path d="M124.67,956.53c4.2,1.12,4.82,4.77,5.36,8.07q2.43,14.79,4.3,29.67c.63,5.12.77,10,4.65,14.33,2.79,3.11.87,7.21-1.56,10.44-1.17,1.55-2.72,2.22-4.45,1.22-3-1.73-3.52-4.54-3.88-7.87-1.79-16.38-2.3-33-7.36-48.89C120.81,960.6,119.71,957.19,124.67,956.53Z"/><path d="M1053.35,1157.38c.59-4.46,2.4-8.2,7.5-7.86a4.52,4.52,0,0,1,3.94,6.72c-1.84,3.49-1.9,9.67-7.55,9.26C1053.06,1165.21,1052.88,1161,1053.35,1157.38Z"/><path d="M1105.69,1157.1c-1.34,3.08,0,8.19-5.27,8.43-4.19.19-5.62-2.6-5.31-6.79.32-4.36,1.13-8.81,5.93-9.24S1105.1,1153.81,1105.69,1157.1Z"/><path d="M1017.83,1150c3.44,0,6.28.83,5.88,4.38-.51,4.45-2.32,9.13-6.86,10.39-4,1.09-4.8-2.77-4.9-6C1011.83,1154.32,1012.86,1150.59,1017.83,1150Z"/></svg>