<svg xmlns="http://www.w3.org/2000/svg" width="1146.51" height="2276.81" viewBox="0 0 1146.51 2276.81"><title>c28-txt</title><path d="M445.38,492.87c.27-3.4,1-5.15.38-5.93-7.84-10.32,4.51-15.23,6.35-22.94,1-4.05,4.53-1.17,6.85.74,12.5,10.29,24.26,21.62,39.42,28.2,2.08.9,4.08,2,6.22,2.75,5,1.76,7.67.86,6-5.31-2-7.19-3.57-14.49-5.44-21.71-.71-2.74-1-5.63,2-6.71,3.8-1.38,5.72,2.19,5.93,4.69.88,10.18,4.83,19.51,7.2,29.27,1.76,7.24-1.57,10.86-8.89,9.25-15.23-3.34-29.53-9.05-42.21-18.42-2.45-1.81-4.66-5.63-8.27-3.65C457.45,485,458.65,489,459,492c.63,6.17,1.55,12.26-1.28,18.18-1.1,2.31-1.55,5.3-5,5.11-3.11-.18-4.32-2.39-4.73-5.25C447.06,503.66,446.05,497.26,445.38,492.87Z"/><path d="M896.48,472.8c-.13,12.53-17,27-32.72,26.48-10-.35-12.34,3.06-9.76,11.85a6.72,6.72,0,0,1,.36,2.89c-.56,3.2,1.24,8.33-3.68,8.53-3.57.14-4-4.41-4.53-7.61-1.19-8,2.34-17.17-6.29-23.2-.86-.6-1.27-2.83.16-3.34,12.34-4.36,5.6-14.62,6.94-22.31.49-2.83-.29-5.91.35-8.68.74-3.19,3.48-4.65,5.42-1.31,3.11,5.36,6.71,4.1,11.55,3a40.53,40.53,0,0,1,23.05,1.41C892.9,462.63,896.86,466.16,896.48,472.8Zm-21.7-5a23.74,23.74,0,0,0-15.08,3.32c-6.87,3.92-7.65,11.5-6.05,18,1.77,7.19,8.66,4.49,13.17,3.15,5.12-1.53,10.61-3,14.49-7.52,3.26-3.81,9.78-6.69,7.45-12.31C886.57,467.18,879.64,469,874.78,467.79Z"/><path d="M594.3,479.64c-3.46,4.74-8.49,3-12.7,3.59-8.63,1.17-17.34,1.81-26,2.86-8.42,1-7.69,5.59-6.4,10.74,1.35,5.39,1.91,12.28,10.92,10.06,2.53-.62,5.8-5.39,8-.21,1.65,3.85-2.26,5.47-4.79,7.43-9.07,7-17.48,3.67-20.62-8.31-2.48-9.48-.77-19.29-2.66-29-3.1-16-2.33-16,14.58-16.91,14.32-.77,28.6-1.39,42.78,1.46,2,.41,5.28-.22,4.78,3.24-.44,3-3.24,2.73-5.5,2.26-15.43-3.21-30.3,2-45.45,2.91-2.31.14-5.14.34-5.06,3.29.12,4.2,3.7,5.12,7,5.14,11.71.07,23.41-.14,35.12-.24C590.18,478,592.21,476.85,594.3,479.64Z"/><path d="M324.34,460.13a47.54,47.54,0,0,1-6.36,1.68c-2.31.38-5.35,3-6.93-.2-1.39-2.8,1.83-4.61,3.55-6.34,6.84-6.86,21.06-6.46,27.42.59,5.52,6.12,3.33,15.66-5.25,22.89-7.8,6.56-15.79,12.44-26.86,11.94-5.91-.27-6.79,3.54-5.58,8.57,1.67,6.93,3.54,13.91,3,21.1-.17,2.28.11,6-3.24,6.27-2.86.27-4.93-2.51-5-5-.3-14.64-6.6-28.25-7.09-42.78-.13-3.83-2.2-6.74-2.9-10.19s.25-6.86,4-7.82,4.82,2.36,5.75,5.18a20.73,20.73,0,0,1,1,3.77c.68,5.34,0,13.62,5.41,14.14,6.62.62,14.92.1,20.4-6.32a15.19,15.19,0,0,1,5.2-4.27c3.58-1.52,7-3.2,5.69-7.64C335.19,460.88,331.12,459.61,324.34,460.13Z"/><path d="M641.78,495.65c-.35,11.18,2.33,13,12.3,8.11,3.21-1.57,6.22-3.55,9.46-5.05,5.51-2.54,11.71-6.35,11.21-12s-7.35-8.41-12.9-10.55c-5.15-2-10.27-4.06-15.44-6-2.79-1.05-4.67-2.85-3.69-5.85,1.08-3.29,4-4.48,7.1-3.22,10.22,4.21,20.43,8.69,28.16,16.9,6.38,6.79,5.9,15.28-1.85,22.23-11.52,10.37-26,14.33-41,16.49a5.42,5.42,0,0,1-4.29-1.64c-1.36-1.75-.53-3.73,1.36-4.93,3.49-2.18,3.13-5.17,2.19-8.55a104.63,104.63,0,0,0-15.57-33.13c-1.65-2.31-3.62-4.31-1.3-6.64,2.6-2.61,5.59-1.46,7.51,1.22a56.75,56.75,0,0,1,4.75,8.45c2.79,5.78,4.21,12.32,10.17,16.21C642.87,489.53,642.46,492.68,641.78,495.65Z"/><path d="M403.51,460.76c3.55,1.59,11.78-4.16,11.85,1.93.1,8-8.71,3.59-13.5,3.92a61.72,61.72,0,0,0-18,3.59c-2.15.82-4.47,2-4.42,4.61.06,3.34,3.21,2.77,5.21,2.95,3.21.3,6.47-.06,9.71-.05,2.29,0,5.06,0,5,3.15-.08,2.66-2.36,3.63-4.9,3.57-1.3,0-2.6-.14-3.9-.14-12.67,0-16.73,7.48-10.59,19.19,1.67,3.18,3.9,3.95,7.18,3.27a19.28,19.28,0,0,0,9.9-5.85c1.62-1.64,3.6-3.72,5.76-1.71,2.47,2.29.92,4.71-1.22,6.62-.48.43-1,.86-1.48,1.27-6.2,5.14-12.31,12.67-21.11,9.22-8.58-3.36-9-12.68-9.79-20.85-.39-4.2-1.68-8.68-.68-12.56,1.74-6.81,2.28-10.63-6.49-6.72-2.25,1-3.92-.63-4.14-2.8-.47-4.68,2.38-7.71,6.49-8.36,12.09-1.92,24.11-4.68,36.48-4.37C401.47,460.65,402.12,460.7,403.51,460.76Z"/><path d="M263.44,488.37c-.15,9.35-7.53,14.33-13.54,19-9.25,7.16-20.42,9.58-32.15,5.53s-16.88-17.16-11.66-29.66c5.47-13.09,26.34-23.72,40.22-20.48C256.52,465.12,263.49,475.59,263.44,488.37ZM228.29,506.8c8.47-.44,14.86-2.69,20.46-6.7s9.15-9.56,7.95-16.61c-1.31-7.69-7.33-11-14.3-12.76-6.47-1.66-12.16-1.49-15.4,5.79-.55,1.23-2.34,2.29-3.77,2.68-8.51,2.34-11.73,8.26-9.65,16.2C215.61,503.16,222,506.35,228.29,506.8Z"/><path d="M773.38,475.14c.34-4.19.46-8.41,1.12-12.55.28-1.73,1.26-4,3.74-3.65,2.24.34,3.1,2.37,3,4.37a48.22,48.22,0,0,1-1,6.69c-1.61,9.5-.82,18.67,3.27,27.55,3.66,8,9.75,12.95,18.35,11.3s10.73-9.37,11-17.36c.23-6.46-1.43-12.06-6.36-16.63-2.74-2.54-3.42-5.79.41-8.08,3.51-2.1,5.41.28,6.62,3.27C818,481,821.49,492,817.87,504c-2.56,8.45-8.54,13.12-17,13.8-8.22.66-15-2.26-19.65-9.88C775,497.7,773.56,486.67,773.38,475.14Z"/><path d="M1021.62,351c-.24-9.7.39-19.54-3.82-28.71-1.77-3.86,0-6.78,3.47-7.65,4-1,4.25,2.73,5.14,5.54.72,2.26-1.47,6,2.22,6.61,3.21.49,3.36-3.28,4.75-5.32a31.56,31.56,0,0,1,20.54-13.65c12.54-2.42,16.16,1.65,12.9,14.16a18.61,18.61,0,0,1-2.89,6c-2.54,3.47-9.76,5.24-7.61,9.88s9,4,14.09,5c6.95,1.42,13.61,4.28,21,2.81,3-.6,5,1.82,5.32,4.54s-2.46,3.55-4.54,4.4c-5.53,2.28-10.94-.06-16.34-.76-11-1.42-21.87-3.24-31.53-9.33-3.12-2-7-4-6.37-7.74.51-3.27,3.67-6.18,7.31-7.12,4-1,6.69-3.93,9.89-6.1,2.48-1.68,5.43-4,3.42-7-1.84-2.81-5.54-1.63-8.1-.33a29.09,29.09,0,0,0-15,16.78c-3.22,9-3,18.53-5,27.68-.6,2.64.27,6.64-4.19,6.26-4.13-.35-4.83-3.65-4.68-7.24C1021.71,356.87,1021.62,353.94,1021.62,351Z"/><path d="M404.85,318c.95-4.26-1.09-8.94,3.76-9.12,4.6-.18,4.32,3.59,3.57,7.12-.9,4.22,2.13,4.82,5.24,5.07,13.73,1.11,27.21-1.47,40.78-2.69a4.13,4.13,0,0,0,3.89-3.7c.61-2.92-.41-8.18,4.23-7,5.07,1.29,10.5,3.25,14.35,7.44a2.67,2.67,0,0,1-.13,2.61c-9.92,9-2.53,20.07-3.46,30.11-.2,2.13.5,4.61,3.12,5.53,2.87,1,4.68,2.88,3.24,5.86-1.26,2.59-3.21,5.3-6.4,5.5-3.54.22-5.26-2.75-5.79-5.61A209.79,209.79,0,0,1,468.32,338c-1.1-13.69-2-14.58-15.07-12.68-11.23,1.64-22.14,5.05-33.56,5.86-5.41.38-7.43,7.7-2.55,13,6.3,6.82,4.52,12.73.92,19.41-.94,1.72-1.46,4-3.84,3.68-2.07-.29-3.16-2.09-3.35-4.25-.05-.65-.06-1.3-.11-1.95C409.55,346.16,408.3,331.29,404.85,318Z"/><path d="M766,317.46c-.08-4.55-3.45-12,3-12.37,7.22-.35,5.21,7.87,5,12.38-.51,9.74-3.31,19.18-6.52,28.38-1.83,5.27-5.79,6.4-9.85,2.64-8.74-8.06-20-12.14-29.35-19.11-1.5-1.12-2.72-3.28-4.93-2-2.38,1.37-2.07,3.82-1.67,6.12a96.41,96.41,0,0,1,1.16,28.21c-.35,2.9.92,7.49-4,7.45-4.7,0-5.18-4.19-5.37-7.85-.25-4.87-.06-9.78-.47-14.64-.86-10.33-2-20.65-3-31-.34-3.29-1.11-7,2.11-8.94,4.23-2.51,5.74,2.14,7.35,4.35,9.14,12.55,24.34,15.78,36.28,24,4.14,2.85,7.59.93,8.51-4.1C765,326.51,765.44,322,766,317.46Z"/><path d="M128.54,331.65c.07,2.17-1.4,2.74-3.07,3-8.27,1.27-6,6-3.25,10.5a51.9,51.9,0,0,0,5.9,7.66c3.32,3.67,2.94,7.57-.52,10.15-4.24,3.15-6.29-.91-8-4-1-1.68-1.13-3.88-2.28-5.35-3.77-4.84-4.91-14.5-12.8-12.52-7.66,1.92-17.72,3.08-19.77,14.35-.63,3.43-2.14,8.65-7.65,6-4.81-2.29-2.28-6.23-1.34-10.1,3.18-13,12.61-22.91,17.34-35.21,2.74-7.12,7.5-7,12.32-.89a31.71,31.71,0,0,1,4.27,6.46c2.78,6.22,6.27,10.7,14.11,8.22C125.53,329.35,127.67,329.13,128.54,331.65Z"/><path d="M226.27,322.73c1.75,6.91,3.85,14.69,5.66,22.53.71,3.05,2.53,6.63-.24,9.26-3,2.88-5.2-1.12-7.66-2-13.31-4.92-27.64-6.5-40.52-12.94-5.7-2.84-8.84-.68-7,6.19a17.67,17.67,0,0,1-.39,11.49c-.9,2.21.67,6.22-2.79,6.42-3.79.21-5.67-3.67-5.84-6.64a145.15,145.15,0,0,0-3.4-25.91c-.8-3.36,1.13-7.18,4.33-9.22,3.39-2.15,6,.42,8.76,2.23a165.56,165.56,0,0,0,39.34,18.77c5.81,1.95,8.34,1.11,6.21-5.5-1.49-4.63-2.81-9.32-4.4-13.91a12,12,0,0,1,1.33-11.14,2.54,2.54,0,0,1,3.46-.8C227.49,313.84,227,317.77,226.27,322.73Z"/><path d="M315.05,335.55c-.15,10.21-4.53,18.87-10.9,26.39-5.57,6.57-14.43,6.55-20.86.82-12-10.67-16.19-35.54-8.32-49.4,1.72-3,3.45-7.37,7.9-4.67,3.9,2.36,4.18,6.25.88,9.91-8,8.86-4.36,18.88-2.72,28.65.27,1.56,1.25,3.16,3.21,3.06s2.35-1.9,2.6-3.51c1.07-6.59,4.72-11.93,8.15-17.43,3.23-5.19,6.93-10.44,13.68-8.66C316.13,322.67,314,330,315.05,335.55Zm-10-3.09c-.6.25-1.21.47-1.79.75-4.39,2.15-11.31,17.59-9.93,22.34.93,3.21,3.17,3.1,5.22,1.39,6.31-5.23,8.59-12.76,10.55-20.25C309.7,334.4,308,332.33,305.05,332.46Z"/><path d="M582.06,356.63c2.8,1.15,4.5,1.6,5.8.3,2.22-2.23-.73-3.21-1.4-4.75-4.45-10.18-5.12-21.31-7.87-31.93-.85-3.27.86-6.07,4.18-6.6,12.38-2,24.64-5.45,37.35-1.18,10.75,3.6,14.41,14,6.94,23a120.91,120.91,0,0,1-29,25.74,20.48,20.48,0,0,1-15.9,2.61c-2.89-.63-4.83-2.55-4.19-5.55C578.76,354.61,581.27,356.33,582.06,356.63Zm10.54-6.76c.16,1.69-1.8,4.34,1.16,5.67,2.65,1.19,4.16-1.27,5.78-2.65,4.92-4.22,10.08-8.26,14.4-13.05s12.75-9.25,9.33-16.6c-3.15-6.77-12.08-4.39-18.67-5.26-2.33-.31-4.4.75-6.58,1.16-10,1.89-11.38,7.71-8.76,16.38C590.64,340.07,593.4,344.39,592.6,349.87Z"/><path d="M522.61,313.39c3-.1,3.62,1.91,4.82,3.41,6.07,7.64,9.14,19.9,23.43,15,1.73-.59,4.53,2.21,3,3.59-5.13,4.78-2.41,10.52-2.9,15.83-.19,2.09-.77,4-2.64,4.87-3.1,1.42-3.68-1.74-5-3.31-11.13-13.49-22.5-12.69-31.47,2-1.71,2.8-3.38,7.87-7.38,6.34-3.78-1.45-.26-5.69-.35-8.7-.39-13.65,11.64-22.48,13.72-35.24C518.22,315.37,520.6,313.58,522.61,313.39Z"/><path d="M949.16,334c0-.81.94-3.78-.14-5.21-8.59-11.28-1.72-12.16,7.87-15.41,10.72-3.64,21.53-3.85,32.27-5.71,2-.34,4.19.34,4.63,2.59.57,3-2.06,2.46-3.81,2.9-9.12,2.29-18.22,4.67-27.35,6.94-3,.75-6.28,1.74-5.47,5.43s4.33,2.9,7.31,2.68c5.62-.4,15.39-4.56,15.95-.58.94,6.7-8.91,3.52-13.69,6.21-9.21,5.17-10.73,15.2-2.24,22,4.48,3.6,7,.37,9.85-2.32,1.4-1.31,3.19-2.75,5-.83s.47,3.79-.71,5.21c-9.1,11-16.44,11.92-23.85.73C950.12,351.57,948.87,343.71,949.16,334Z"/><path d="M826,327.48a9.76,9.76,0,0,1,2,0c2.93.6,7.95-2.35,8.45,1.87.64,5.36-4.7,2.19-7.34,2.93-3.42,1-6.69,2.37-10.45,2.18-4.56-.24-5.65,2.77-4.41,6.5,1.37,4.14-.41,10.22,4.87,12,6,2,6.64-4.9,9.84-7.64,2.16-1.85,2.69-7.43,6.75-4.55,2.87,2-.37,5.41-2,7.56-4.72,6.21-7.4,17-17.24,14.69-9.25-2.16-8.95-12.39-10-20.41a14.85,14.85,0,0,0-2.55-7.25c-7.19-9.62-3-20.43,8.82-22.37,7.3-1.2,14.58-3.22,22.17-1.43,2.58.6,5.55.3,5.41,4s-2.84,3.42-5.65,3.43a105.28,105.28,0,0,0-14.53.9c-2.68.38-6.66.64-6.28,4.62.33,3.46,4,2.55,6.39,2.81a54.5,54.5,0,0,0,5.86,0Z"/><path d="M44,315.62c-5.84,1.65-14-1.45-17,6-2.72,6.65.58,12.62,6,17.23,3.21,2.72,6.22,5.69,9.38,8.48,2.66,2.35,8.4,2.29,7,7.82S45.26,365.65,39.12,367c-11.34,2.45-21.63-3.18-32.41-5-2.88-.48-3.5-4.43-2.43-7.55,1-2.84,2.34-5.72,5.73-5.93,4-.25,2.86,3.17,3.66,5.48,1.43,4.14,19.57,5.78,22.14,2.13,2.25-3.19-.56-4.7-2.59-6.15-5.43-3.9-8.94-9.35-12.14-15-3.95-7-3.27-13.86,1.65-20,4.12-5.15,19.79-9.47,24.4-7.13,2.49,1.27,4.5,3.64,4,6.2C50.23,319.21,46.34,314.43,44,315.62Z"/><path d="M923.29,319.37c-.18.66-.12,2-.7,2.4-11.52,8.54-12,23-18.33,34.25-1.65,2.91-3.16,5.49-7,6-4.44.55-5.41-2.45-6.81-5.45-4.66-10-9.45-19.91-14.13-29.88-1.94-4.12-1.41-8.12,3-9.82,4.13-1.61,5.61,2.37,6.67,5.35,2.49,7,4.71,14.13,6.87,21.26.62,2.06-.5,5.21,2.39,5.77,3.34.65,4.1-2.75,5.08-4.94,4.14-9.17,8-18.48,12.08-27.64,1-2.17,1.93-5.46,5.44-4.18C920.7,313.51,922.06,316.31,923.29,319.37Z"/><path d="M708.42,187.33c-.87-6.69-1.92-13.11-2.41-19.57-.15-1.95.14-5,3.2-5.13,2.42-.08,2.63,2.52,3.31,4.24,4.69,11.79,3.87,24.29,3.83,36.52,0,6.78-6.28,5.9-10.48,4.37-11.23-4.1-22.33-8.57-31.27-17.06-8.79-8.34-10.17-8-16.17,2.76A11,11,0,0,1,657,196c-2.65,2.64-2.64,8.32-7.42,8.18-5.13-.15-4.46-5.75-6.13-8.95-3.45-6.61-6.26-13.56-9.33-20.37-1.35-3-3.18-6.22,1.06-8.35,4.66-2.33,6.9.25,9.09,4.25,2.42,4.43.8,12.28,6.48,13.13s6.88-6.74,10.06-10.58c3.63-4.4,6.64-2.71,9.69.49a101.43,101.43,0,0,0,26.24,20c3,1.56,5.63,5.16,9.6,2.3C709.62,193.8,708.08,190.18,708.42,187.33Z"/><path d="M433,200.48,403.87,198c-6.24-.54-8.79,1.62-5.75,7.89.71,1.45,2,3.07,1.79,4.45-.56,4.07-1.71,9.64-5.55,10.08-4.08.47-4-5.1-4.19-8.45-1.25-18.07-1.42-36.25-5.71-54-.62-2.55-.64-5.63,2.45-6.61,4-1.28,4.11,2.6,4.48,4.72a120.15,120.15,0,0,1,2.12,18.3c.17,8.09,4.06,8.9,10,5.67s11.43-7.41,15.08-13.43c1.5-2.48,3.47-4.35,6.28-2.39s1.6,4.51.42,7c-2.21,4.66-6.32,7.27-10.36,10-1.79,1.21-5,1.76-4.46,4.49.43,2.44,3.23,2.9,5.51,3.26,8.61,1.38,17.2,2.83,25.84,4,3.16.44,7.41-.43,7.35,4.18-.07,5.32-4.51,3-7.4,3.06s-5.84,0-8.76,0Z"/><path d="M480.56,198.46c-1.88,3.67,3.44,12.71-4.06,12.82-9,.12-4.33-9.05-4.71-14.11-.61-8.08,0-16.26.09-24.4,0-2.73.4-5.3,3.29-6.5s5.1.66,6.76,2.63c7.7,9.13,17.6,15.34,27.71,21.32a24.19,24.19,0,0,0,8.06,3.23c5.42,1,8.11,0,6.6-6.47s-3.73-13.18-2.52-20.13c.53-3,1.77-5.64,5.08-6.5,2.13-.56,3.81.37,5.13,2,2.25,2.78,1.15,5.17-.45,7.95-5,8.76.62,17.47.8,26.24.2,10.15.52,10.88-9.48,8.41-12.11-3-23-8.94-33.54-15.41-2.36-1.45-4-5.41-7.26-3.76-3.77,1.88-1.31,5.78-1.49,8.8C480.51,195.55,480.56,196.53,480.56,198.46Z"/><path d="M601.2,189c-1,5.39-5.23,10.45-11.41,13.74-4.87,2.58-10.37,3-14.4-1.4-4.46-4.89-5.08-10.93-2.58-17.17.49-1.2.75-2.49,1.26-3.68,2.34-5.41.8-14.4,10.19-13.72C592.14,167.36,601.27,179.33,601.2,189Zm-9-3.33c-.4-3.58-2.31-6.34-5.34-6.32-5.42,0-4.61,5.48-5.66,8.75-.94,2.91,1.34,4.94,4.53,4.48C589.77,192,591.87,189.42,592.23,185.7Z"/><path d="M506.07,673.31c-17.74,0-29.09-12.44-26.86-29.65,1.3-10,2.13-20-.39-29.94-1.11-4.35.95-7.85,5.2-7.2,10,1.54,20.07-1.46,30,1.25,9.27,2.53,11.29,6,6.19,14.38-3.72,6.09-5.12,9.09,4.38,9,5,0,11.21.41,13.76,7,2.68,6.89,1.48,12.45-2.43,19C528.93,669,519,673.38,506.07,673.31Zm3-7.49c10.87,2,16.46-7.22,21.78-15.63,2.92-4.62,1.49-9.46-5.35-10.66-11.62-2.06-22.52.67-32.86,5.39-6.67,3.05-6.53,13.65-.24,17.46C496.94,665.15,502,666,509,665.82Zm-22.47-38.33c.32,2.89-.07,6.06,4.23,6.44,5.12.46,20.39-8.81,22.51-13.74.74-1.72.82-3.38-.85-4.21-7.29-3.63-13.93.71-20.77,2.08C486.5,619.09,487.45,623.9,486.56,627.49Z"/><path d="M377.58,658.07c.26,2.16.24,3.91-1.32,4.86a4.62,4.62,0,0,1-5.49-.49,18.14,18.14,0,0,1-3.66-5.57c-7.29-15.24-8.11-15.39-24.54-12.07-5.05,1-7.19,3.4-8.56,7.84a28.77,28.77,0,0,1-4.15,8.73c-1.7,2.29-3.21,6.82-7.34,4.27-3.22-2-1.42-5.63-.12-8,3.09-5.49,6.74-10.45.37-16.26-1.46-1.32-.19-4.31,2.06-4.38,11.42-.36,12.13-10.09,15.58-17.38,1.23-2.58,1.42-5.81,5.23-6.24s6,1.61,7.79,4.63a98.39,98.39,0,0,0,6.39,9.7c2.55,3.31,4.82,7.07,9.2,8.4,3,.91,7.52-1.61,9,1.67,1.81,3.9-3.85,3.23-5.27,5.58-1.3,2.14-.27,3.74.94,5.27C376,651.6,376.9,655,377.58,658.07Z"/><path d="M660.47,662.38c-10.77.21-27.21-12.17-27.68-20.84-.51-9.43,12.49-24.21,21.24-24.17,12.79.07,28,13.54,28.25,25C682.44,651,670.22,662.19,660.47,662.38Zm-.39-10c7.39,0,14-5.09,13.83-10.72s-8.63-13.51-14.62-13.45c-7.74.08-16.45,6-16.29,11.13C643.2,645.78,651.73,652.29,660.08,652.33Z"/><path d="M587.47,662.09c-14.44.24-26-11.74-26-27,0-8.75,8.67-16.88,18.66-17.44,10.81-.61,24.67,14.08,24.64,26.13C604.71,654.33,597.54,661.92,587.47,662.09Zm-6.31-31.35c-5-.71-11.19-2.48-11.38,6.33-.17,8,7.63,15.81,15.53,15.4,6.12-.32,11.7-2.4,12.54-9.56C598.61,636.41,590.91,630.87,581.16,630.74Z"/><path d="M762.71,657.38c-11.89-.28-23.81.48-34.25-7.53-5.75-4.42-5-8.89-.37-11.62,7.85-4.63,15.57-9.24,22.31-15.41,1.6-1.46,3.43-2,5.21-.47s1.39,3.47.83,5.4c-1.62,5.51-6.34,6.88-11,8.45-2.76.93-6,2.09-5.46,5.77.43,2.88,3.34,4,5.88,4.41,9.27,1.33,18.57,2.53,27.89,3.43,3.3.31,6.2.94,6.12,4.59-.09,3.92-3.45,4.06-6.47,3.86C769.82,658,766.27,657.67,762.71,657.38Z"/><path d="M703.38,620.44c-.14-3.76.38-6.52,3.31-7.31,3.25-.88,4.66,1.77,5.33,4.34,1.81,6.89,3.54,13.8,5,20.77.91,4.45-1,10.35,7.13,9.8,2.34-.15,2.32,2.57,1.64,4.59-.82,2.45-1.59,4.92-2.45,7.36-.94,2.63-.69,6.6-4.34,6.8-4.73.25-4.11-4.34-4.6-7.17-1.94-11.22-6-21.8-9.12-32.67Z"/><path d="M89.42,22.6c-3.9.18-7.79.5-11.69.51-4.27,0-8,1.21-9.34,5.48-1.13,3.73-.94,7.49,2.49,10.7,3.72,3.49,2.67,15.09-1.3,17.68-3,1.94-5.59.33-5.87-2.5-1.33-13.53-2.34-27.1-3.12-40.67C60.41,10.67,63,8.91,66,10.3c11,5.07,23.19,1.49,34.33,5.21,9.89,3.3,20.07,5.87,29.66,9.88,7.8,3.27,9.22,11.84,3.82,18.61a33.59,33.59,0,0,1-21.33,12.51,151.07,151.07,0,0,1-31,2.28c-2.88-.11-6.82.05-6.62-3.83s4.3-3.6,7-3.28a85.14,85.14,0,0,0,31.8-2,17.83,17.83,0,0,0,6.22-2.49c4.33-3.31,10.57-6.71,9.65-12.42-.84-5.13-7.61-5.81-12.39-7.77C108.12,23.32,98.86,22.64,89.42,22.6Z"/><path d="M881.28,32c-.43-3.35-.95-6.89-1.33-10.44-.32-2.89.3-5.57,3.91-5.16,2.65.3,5.77,2.16,4.87,5-3.13,9.8-1,20.06-3.4,29.93-1.67,6.86-4.77,8.11-10.15,4.09-9-6.73-17.87-13.67-26.8-20.51-2.78-2.13-5.47-5.94-9.14-4.41-4.67,2-1.15,6.2-1.08,9.45.14,6.44,1.46,13-2.53,18.93-1,1.57-1.39,4-3.85,3.58a4.47,4.47,0,0,1-3.61-5.11c2.06-15-1.5-29.71-1.81-44.57-.06-2.64-.13-5.57,3-6.47,3.46-1,3.74,2.31,5.33,4.25,11.37,13.89,26.26,23.68,40.7,34,2.35,1.67,4.5.17,5-2.57C880.9,38.78,881,35.51,881.28,32Z"/><path d="M527.88,28.62c2,5.45-4,16,9.23,16.34,1.4,0,2,1.93,1.43,3.09-2.18,4.59-7,5.64-11.1,7.14-3.51,1.29-6.17-1.45-7.16-4.91a36.06,36.06,0,0,1-1.61-13.44c.61-6.27-2.49-8.26-8.29-6.7-6.55,1.78-13,4.4-19.66,5.2-7.75.93-6.85,4.94-3.91,9.09,3.18,4.5,2.66,7.48-1.47,10.59-3.24,2.44-5.69,1.81-6.52-2-2.45-11.12-3.06-22.48-3.42-33.82-.11-3.39,1.64-6.72,5.74-6.4,3.93.3,3.91,3.42,3.5,6.62-1,7.5,4.37,7.06,8.84,6.12,6.06-1.28,12-2.68,18.26-2.38,2.69.12,5.23-.35,5.8-3.79s1.12-8.08,6-7c4.57,1,5,5.31,4.4,9.53A53.59,53.59,0,0,0,527.88,28.62Z"/><path d="M234.1,12.25c11.59-1.73,21.42-.41,31.22,2.28,7.78,2.14,11.15,7.43,9.07,15.33C271,42.92,249.47,58.17,236.16,57.19a19.21,19.21,0,0,1-8.25-2.63c-2.15-1.23-4.07-3-2.92-5.4,1.59-3.38,3.78-.49,5.7.1,12.85,4,33.3-7.44,36.47-20.58,1.34-5.55-2.27-7.5-7-8.29a118.17,118.17,0,0,0-32-.87c-8.53.9-11,4.27-7.7,12.1,1.92,4.57,3.25,9.22.53,14-.8,1.4-1.35,3.3-3.39,2.49a4.29,4.29,0,0,1-2.3-2.78c-1.42-9-2.87-18-3.79-27-.42-4.18,1.78-6.5,6.59-6.19C223.85,12.54,229.72,12.25,234.1,12.25Z"/><path d="M693.88,54.8c.85-5.68,1.77-12.75,3-19.76.87-4.91-1.25-6.95-5.78-6.18-17.05,2.9-30.06-4.81-42-15.6-2.16-2-4.66-3.9-3.45-7.36.74-2.11,1.53-4.45,4-5.1,3.56-.92,5.21,1.53,6.92,4.07,8.89,13.19,21.5,18.73,37.23,18.84,4.42,0,5.88-1,6.17-5,.32-4.53.68-9.06,1.18-13.57.32-2.87,2-5.25,4.89-5.14,4.13.17,2.67,3.56,2.55,5.94-.73,14.62-6.08,28.59-6.15,43.31,0,2.84-1.33,5.89,1.11,8.34,2.63,2.63,4,5.35.58,8.21-1.92,1.61-3.92,3.77-6.89,2.53-3.75-1.57-3.77-4.84-3.48-8.22C694,58.82,693.88,57.52,693.88,54.8Z"/><path d="M1017.18,26.76c0-1-.08-3.23,0-5.49.31-7-2.8-9.38-9.66-7.69-8.8,2.17-17.68,4-26.57,5.8-3.51.71-7.88,1.41-8.53-3.62-.57-4.34,3.28-4.77,6.66-5.22,17.66-2.37,35.31-4.89,53-7.19,2.68-.35,6.45-1.84,7.62,2,1.34,4.41-2.41,5.53-5.66,6.14-5.66,1.05-8.57,4.75-9.33,9.94-1.23,8.37-2,16.81-2.76,25.24-.35,3.82.48,7.14,5,8.18,2.08.48,5.23.87,4.07,4.07a10.66,10.66,0,0,1-7.66,6.84c-3,.71-4.82-1-5.95-3.8-2.56-6.26-1.88-12.82-1.73-19.29C1015.85,37.81,1016.59,33,1017.18,26.76Z"/><path d="M430.39,12.68c4.66-.29,8.55-.5,12.43-.78,2.43-.18,5.43-1.92,6.47,1.88.68,2.46,1.5,5.93-.88,7.31-9.33,5.42-4.45,13.63-4.49,20.8,0,2.16,1.33,4.31,2,6.5,1.09,3.72,1.32,7.53-3.26,8.73S436,54.38,435.35,51c-1.14-6-2.07-12.25-1.66-18.3.69-10-3.6-12.71-12.76-11.1-6.66,1.17-13.45,1.66-20.2,2.22-3,.25-7.21,2-7.9-2.81-.61-4.3,3.19-4.71,6.5-5.46C409.83,13.19,420.3,11,430.39,12.68Z"/><path d="M920.63,31c.24-12.55,6-19.61,16.63-20.37,9.13-.66,15.25,3.11,18.63,10.84,3.58,8.21,2.5,16.5-2.74,24a3.23,3.23,0,0,1-.68.7c-6.61,5.11-11.39,15.38-21.86,10.86C920.39,52.61,920,42.58,920.63,31Zm31.64.75c-.13-6.58-7.41-14.13-13.55-14-7.22.11-13.27,8.51-12.28,18.47.59,5.93,1.38,12.94,10.13,12.77C943.48,48.8,952.41,38.86,952.27,31.75Z"/><path d="M625.3,25.09A320.87,320.87,0,0,1,584.58,35.6c-3.82.75-9.62-1.11-8.32,6,1,5.5,4,9.77,10.53,9.38,5.64-.34,10.41-3.4,15.49-5.46,2-.81,4.12-3.25,5.89-.48a4,4,0,0,1-2.64,6.17c-6.27,1.25-10.82,5.71-16.48,7.91-9.21,3.59-18.29-1.23-21-11.5-2.08-7.92-1.57-16.17-1.24-24.3.11-2.63,1.11-5.63,3.92-6.16,4.19-.79,3.51,3.06,3.52,5.28.05,5.19,3.72,4.36,6.83,4.6,12.83,1,25.2-2.07,37.66-4.32C620.58,22.38,622.52,21.44,625.3,25.09Z"/><path d="M611.63,9.25c3.18,1.57,11-3.91,11.48,1.92.59,7.07-7.71,2.34-11.84,3.87-7.2,2.68-15,3.76-22.68,5.09-3,.52-7.63,3.75-8.61-1.93-.82-4.77,3.23-6.51,7.46-7.11C595.12,10,602.72,8,611.63,9.25Z"/><path d="M170.38,21.46c-.12-3.38.24-5.72,3.15-6.1,2.76-.37,4.44,1.64,4.78,3.93,1.33,8.93,2.7,17.88,3.21,26.87.15,2.71-.9,7.31-5.09,7.23-4.38-.08-2.9-4.12-3.06-6.81C172.89,37.83,173,29,170.38,21.46Z"/><path d="M480.9,806.83c-1.6-9.79-.18-21.09-4.89-31.52a17.31,17.31,0,0,1-1-5.74c-.21-2.88.81-5.31,3.95-5.75,3.38-.47,4.4,1.92,4.82,4.76.53,3.53,1.16,7,1.76,10.56.33,1.91.42,4.29,2.8,4.58,2.77.34,3.65-1.94,4.53-4.19,4.89-12.44,16-15.47,27.43-16.61,6.57-.66,13.4,1.88,14.09,10.18.65,7.66-3,13-10.79,15.13-2.31.63-6-.47-6.67,2.69-.84,3.68,3.26,4.41,5.33,6.12,8.93,7.38,18.45,13.27,30.9,10.23,2.62-.64,5.41-.87,6.32,2.58a5.41,5.41,0,0,1-2.77,6.61c-5.65,3.17-11.55,4-17.76,1.87-13.4-4.69-24.57-12.76-34.57-22.68-2.4-2.37-4.13-7.26-8-5.92-4.09,1.42-3.67,6.36-4.06,10.25a117.43,117.43,0,0,1-1.74,12.56c-.61,3-.41,7.36-4.95,7.15s-5.33-4-5.05-7.89C480.64,810.51,480.73,809.21,480.9,806.83Zm33.7-27.26c3.3-1.23,8.82-.12,9.6-5.56.42-3-3.26-2.43-5.39-2.32-4.12.22-9.31-.08-10.58,4.62C507.41,779.37,511.59,779.28,514.6,779.57Z"/><path d="M893.61,776.5c-9.64,3.82-19,8.59-29,11.12-7.2,1.83-8.2,4.94-6.5,10.94.44,1.56.24,3.32.81,4.8,1.75,4.51-.39,11.4,6.41,12.88s10.46-4.08,14.47-8.12c2-2,2.24-7.6,6.52-4.84,4.07,2.62-.22,5.87-1.71,8.21a53.53,53.53,0,0,1-13.46,14c-6.58,4.89-13.64,2.95-16.26-4.82-2.06-6.12-3.19-12.56-4.64-18.88-.29-1.25.28-3.37-.36-3.76-11.91-7.35-1.35-18.64-4.88-27.74-2.81-7.23-.24-12.61,10-12.44a245.81,245.81,0,0,0,44.47-3.25c2.86-.48,5.38-.26,5.63,3.39.23,3.34-1.7,4-4.82,4.48-12.5,1.77-24.92,4.08-37.4,6-4.51.69-8.51,1.31-7.7,7.45,1,7.3,5.22,3.29,8.58,2.7,9.73-1.69,19.46-3.31,29.2-5Z"/><path d="M330.36,818.22c-3.78-1.17-5.23-4.08-5.61-7.38-.68-5.8,1.13-13.2-1.82-17.16-6.94-9.31.86-18.95-2.72-27.92-.81-2-.09-5,2.66-5.5,3.93-.72,5.76,3.12,5.52,5.41-1.42,13.36,7.11,12.48,15.91,12a139.33,139.33,0,0,1,17.46.07c6.43.47,13.06,2,10.47-8.54a3.63,3.63,0,0,1,3.15-4.27c2.4-.24,3.2,1.84,3.62,3.81.76,3.65,1.58,7,6.42,7.13,3,.12,3.56,2.58,2.87,5-3.06,10.67-.7,21.25.18,31.89.3,3.57,1.7,9-3.74,9.52-5.18.51-5.34-4.89-5.86-8.55-1.05-7.36-1.53-14.8-2.36-22.2-.55-4.92-2.65-7.37-8.39-6.7a302.41,302.41,0,0,1-31.82,2.2c-6.09.06-7.53,2.64-6.56,7.71,1,5.39,2.68,10.67,3.54,16.08C333.7,813.53,333.82,816.78,330.36,818.22Z"/><path d="M818.8,784.11c-8.74,8.83-19.92,10.7-30.92,12.71-12.09,2.21-12.09,2-9.23,13.79,1.08,4.43.48,9.7-3.8,10.8-5.57,1.43-5.19-4.7-5.69-8-1.93-13.06-.14-26.63-6-39.2-1.26-2.7.46-5.91,3.73-7,19.05-6.34,38.48-8,58.28-4.29.44.08.72,1,1.27,1.75-5.36,6.08-12.65,3.71-19,3.72-9.69,0-18.44,2.4-27.14,6.38-4.39,2-6,4.65-5.12,9,1.18,5.77,5.77,4.32,9.38,3.76,9.27-1.43,18.48-3.2,27.68-5C814.29,782.1,816.08,781.52,818.8,784.11Z"/><path d="M210.93,810.52c-16.4-1-30.17-9.3-44.51-16-1.93-.9-3.42-4-5.74-2.4-2.66,1.82-1.06,4.86-.15,7.15,1.36,3.44,1.5,7,1.62,10.52.07,2.46-.48,4.95-3.1,5.35a4.21,4.21,0,0,1-4.92-3.76c-.91-11-4.06-21.64-6.25-32.43a5.07,5.07,0,0,1,3.52-6.18c2.85-.9,4.95.35,6.8,2.52,12.39,14.5,29.48,20.43,46.94,25.73,2.5.76,4.85,2.17,7.27.08,3.17-2.74.7-5.45-.34-7.92-2.76-6.57-5.49-13.13-11.45-17.78-1.75-1.37-4.42-4-1.9-6.56s5.87-1.62,7.84.69c8.16,9.5,14.36,20.3,15.78,32.83C223.19,809.89,217,810.94,210.93,810.52Z"/><path d="M442.25,774.49c-4.38,7-10.78,7.13-16.5,8.71-5.07,1.4-7.15,4.08-5.85,9.21,1,3.78,1.87,7.57,2.91,11.32,1,3.49,2,7,6.35,7.8,4.49.84,6.52-1.87,7.95-5.48,1-2.44,2.37-4.08,5.09-2.15,2,1.42,1.77,3,.34,5-2.33,3.11-4.18,6.6-6.62,9.62-5,6.18-10.55,5.46-15.88.45-3.9-3.66-5.4-8.66-7.39-13.51-2.7-6.55-.13-15.37-8.25-19.71-.75-.4-1.15-3.31-.94-3.41,10-4.72-.9-14.73,4.72-19.62,4.66-4,11.49-1.41,17-1.09,7.9.46,15.51-.5,23.24-1.17,2.07-.17,5-2.12,5.91.87,1.08,3.38-2.39,4.58-4.67,5-7,1.36-14.19,1.78-21.13,3.32-3.15.69-9.69-1.83-8.68,4.36.78,4.79,5.93,1.59,9.2,1.38C433.47,775.09,437.86,774.79,442.25,774.49Z"/><path d="M667.11,822.33c-7.4-1.35-13.9-4.68-14.79-12.18-1.72-14.49-2.07-29.14-2.83-43.74-.16-3,.72-6.38,4.42-6.22,3.35.14,3.21,3.63,3.39,6.13.68,9.71,1,19.45,1.88,29.14,1.29,13.85,8.6,17.85,21.06,11.16,5.74-3.09,11.92-4.79,17.79-7.39,1.84-.81,3.91-.87,5.19,1.17,1,1.57.74,3.45-.84,4.28C690.75,810.78,680.6,819.94,667.11,822.33Z"/><path d="M725.77,762.44c3.39.44,4.29,2.64,4.59,5.48,1.08,10.31,2.52,20.6,3.21,30.94.31,4.64.18,8.91,3.95,12.47,3.12,2.94,2.19,5.87-1.43,7.81s-6.64.91-8-2.65a31.77,31.77,0,0,1-1.7-9.53c-.74-11.66-1-23.33-4-34.75C721.32,768.51,721.09,764.37,725.77,762.44Z"/><path d="M119.23,786.2c-.5-4.84-.88-9.7-1.54-14.52-.41-3-1-6.94,2.38-7.45,4.73-.7,4.14,4,4.36,7,.53,7.46.66,14.95,1,22.43.24,5.22.57,10.41,3.75,14.92,3,4.32,1,8.35-2.81,9.6-4.65,1.53-5.81-3.53-6.18-6.7-1-8.36-1.18-16.81-1.69-25.23Z"/><path d="M964.59,753.87c7.16.57,14.31-.86,17.41,6.12s-.39,13.08-4.36,18.94c-5.8,8.54-15.32,13.91-19.69,23.73-1,2.22-4.33,3.17-6.92,1.56-3.44-2.15-2.15-5.38-.45-7.65,4.07-5.41,8.53-10.52,13-15.62,1.91-2.19,4.45-3.85,6.26-6.1,2-2.44,5.23-4.94,3.86-8.4-1.57-4-5.72-3.67-9.3-3.44-10.47.67-20.33,3.75-30,7.68-3.4,1.39-7.35,1.81-9.83-1.45-1.61-2.13-.49-5.15.92-7.35a6.59,6.59,0,0,1,3.79-2.66C941.31,756.67,953.27,753.5,964.59,753.87Z"/><path d="M975.53,814.52c3.88,1,5.28,4.09,4.79,7.42-.41,2.75,0,7-5,6.72s-5.65-3.74-5.6-7.48S971.87,815.22,975.53,814.52Z"/><path d="M394.18,1970.61c-1.45-6.76-3.39-15.94-5.41-25.11-.42-1.89-1.48-3.7-1.6-5.58-.16-2.62.28-5.53,3.41-6.25,2.78-.64,4.33,1.64,4.75,3.86,2,10.7,6.1,5.51,9.19,1,6.65-9.65,16.74-10.13,26.77-10.55,3.78-.16,8.35.31,10,4.64s-.23,8.62-3,11.82c-3.58,4.19-8.05,7.39-13.89,8.45-3.29.6-5.82,3.18-1.83,5.93a253.54,253.54,0,0,0,23.92,14.88c5.75,3.08,12.09,1.78,17.94-.77,2.36-1,4.49-1.62,5.6,1.33,1.05,2.79-1,3.69-3.11,5-10.62,6.84-21,6.16-31-.87a262.84,262.84,0,0,0-24-14.8c-7.53-4.16-9.41-3.2-9.71,5.62a22,22,0,0,1,0,3.89c-.79,3.6-.12,9.2-5.52,8.69C391.42,1981.37,393.64,1976.52,394.18,1970.61ZM429,1939.1a2.79,2.79,0,0,0-1.38-3.28c-3.22-2.07-17.56,4.84-18.23,8.75a2.86,2.86,0,0,0,1.6,3.17C414.76,1949.92,428.51,1943.31,429,1939.1Z"/><path d="M295.36,1937.16c-3.76,12.53-1.28,26.22-5.3,39.12-2.11,6.76-4.5,9.08-10.32,3.22-5.23-5.27-10.81-10.18-16.27-15.22-4.58-4.24-8.19-5.81-11.75,1.72-2.76,5.85-4.24,15.4-11.93,15-8.47-.4-6.88-10.4-9.06-16.44-2.74-7.61-4.8-15.45-7.33-23.14-1-3.15-1.27-6.21,2.34-7.21s3.75,2.41,4.48,4.87c2.1,7.16,4.34,14.26,6.5,21.4.64,2.12.59,5.06,3.43,5.26,3.29.22,3.91-2.87,4.73-5.27,1-3.06,1.89-6.17,2.83-9.25,2.56-8.38,5.26-9.33,12-3.32,6,5.4,11.44,11.45,17.14,17.18,1.57,1.58,3,4,5.62,3,2.92-1.08,2.89-4.08,3.05-6.64.5-8.42.84-16.85,1.32-25.27.17-3.06-.79-7.54,4.23-6.9C294.55,1929.76,296.08,1933.05,295.36,1937.16Z"/><path d="M507.45,1934.87c-6.15-.86-13.15.44-20.17,1.91-3.76.78-5.9,2.33-4.79,6.61,1,3.76,2.94,5.48,7,4.61,6.32-1.33,12.7-2.35,19-3.56,2.33-.45,4.88-1,5.45,2.11s-2,3.5-4.27,4.13a82.42,82.42,0,0,0-12,3.79c-4.16,1.84-12.4,1.4-8.73,9.36,2.81,6.11,3.72,16.7,15.58,11.94,4.08-1.63,4.61,1,3.64,3.91-2.19,6.69-11.44,9.45-16.62,4.59-8.72-8.18-13.5-18.93-16.65-30.17-1.27-4.53-1.36-9.51-2.48-14.27-1.67-7.07,2.5-11.63,8.83-12.7a124.72,124.72,0,0,1,37.8-.62c3.14.43,6.14.86,5.75,4.86s-3.51,3.78-6.62,3.56S511.76,1934.87,507.45,1934.87Z"/><path d="M858.44,1932.88c-10.54,2.08-20.22,3.76-29.77,6-3.73.87-10.22,0-9.66,5.79.68,7,7.59,4.28,11.14,3.57,14.32-2.85,28.65-5,43.27-5.27,2.86,0,6.93-1.51,7.34,2.23.51,4.54-4.35,2.7-6.71,3.15-14.26,2.76-28.88,3.32-43,7.3-4.28,1.21-9.82.53-11.13,5.95-1,4.31,1.38,8.53,5.16,10.77,5,3,10,.93,14.59-1.89,1.95-1.2,2.8-6.17,5.47-3.64,2.92,2.78-.27,6-2.92,7.86-3.94,2.82-7.82,6.19-12.28,7.69-8.13,2.74-16.39-4-17.26-13.73a155,155,0,0,1-.16-16.56c.06-3.9.29-7.08-3.91-10s-3.57-9.22,1.87-9c13.86.59,27-4.05,40.63-4C853.3,1929.12,855.69,1928.9,858.44,1932.88Z"/><path d="M713.17,1944.07a56.55,56.55,0,0,1-.42-5.8c0-1.9,0-4.17,2.54-4.61a3.44,3.44,0,0,1,3.92,2.28c2.44,8.51,9.11,6.73,15.12,6.34,7.75-.51,15.4-2.38,23.27-1.42,5,.6,7.12-1.52,6.36-6.85-.34-2.43-1.72-6.43,3-6.72,3.54-.21,3.4,3,4.51,5.32,4.36,9,5.37,18.57,5.93,28.34.3,5.13.44,10.48,4.76,14.42,2.32,2.12,2.19,4.53.28,6.92-1.26,1.58-2.72,2.94-4.93,2.41-2.83-.67-4.3-2.7-4.83-5.48-1.62-8.59-3.67-17.13-4.73-25.79-.79-6.45-2.36-9.33-9.75-7.35-8.73,2.34-17.86,3.19-26.78,4.86-7.71,1.44-11.09,5.88-9.18,13.87.82,3.44,1,7,2.4,10.37s1.35,8.18-2.7,9-6.09-3.59-6.42-7.16c-1-11-1.52-22-2.22-33Z"/><path d="M926.37,1937.27c-3.54.23-4.45,2.61-6,4.19-5.52,5.75-11.07,4.68-16.21-.3-7.29-7-10-17.49-17.8-24.29-2.18-1.9-.21-4.28,1.88-5.55,3.12-1.88,6.34-2.27,8.45,1.38,2.75,4.77,5,9.87,7.81,14.59,3,4.91,5.74,11.32,13.29,8.19,6.43-2.66,10-7.37,9.21-15.29-.44-4.29-4.35-12.29,4-12.33,6.84,0,4.07,8,4.08,11.93.07,21.79-2,43.57-.28,65.37a104.36,104.36,0,0,0,1.41,10.57c.58,3.14,2.59,7.29-1.71,8.33s-6-3-6.14-6.87c-.53-11.37-.72-22.76-1.28-34.13C926.71,1954.48,928.5,1945.75,926.37,1937.27Z"/><path d="M347,1950.24c-.12,2.4-2,2.58-3.36,3.14-10.1,4.31-11.68,8.86-6,17.85,1.69,2.68,3.63,4.85,7,2.1,1.49-1.22,3.23-3,4.68-.42.63,1.13.31,3.3-.37,4.57-1.87,3.45-4.11,6.94-8.59,7.14a9.09,9.09,0,0,1-8.18-4.56c-4.75-7.37-3.32-18.3-13.07-22.81,7.31-9,1.91-15-4.22-21.55-1-1.09,2.44-4,5.32-4.3,14.89-1.32,29.77-2.73,44.67-3.9,2.53-.19,5.93.36,5.78,3.72s-3.44,1.84-5.49,2a127.55,127.55,0,0,0-30.54,5.71c-2.86,1-6.11,1.69-4.75,5.74,1.06,3.18,2.93,5.75,7.12,5.26C340.31,1949.54,343.81,1947.58,347,1950.24Z"/><path d="M681.7,1988.65c-5.34-1.48-6.12-5.72-6.49-9.93-.86-10-1.41-20.09-2.19-30.14-.56-7.2-3.82-10.47-11.54-8.43-5.62,1.49-11.36,2.91-17.34,2.11-3.81-.5-4.66-3.12-4.83-6.22-.22-4.23,2.92-3.1,5.4-3.38,14.15-1.59,28.35-3,41.81-8,3.67-1.38,7.61-2.43,8.79,2.22,1,3.76-2.5,5.59-6.09,5.94-7.29.71-9.14,4.56-7.59,11.45,2.9,13-1.29,26.63,3.78,39.5C686.3,1986,683.85,1987.69,681.7,1988.65Z"/><path d="M356,2060.16c13.89-.55,29.52,12.08,31.57,25.52.63,4.11.17,8.17-3.79,10.28-8.36,4.46-18.44,9.8-26.61,5.85-9.12-4.41-15.95-1.75-23.79.32-20.83,5.47-38.81.45-54.17-14.48-1.63-1.58-3.38-3.05-4.94-4.7-4.53-4.79-6.85-2.07-7.83,2.61-1.25,6-1.55,12.14-2.92,18.07-.48,2.07-.95,5.76-4.57,5.33-3.95-.46-3.8-4-3.91-6.82a31.15,31.15,0,0,1,.68-7.76c2.2-10.13,2.13-19.9-2.79-29.43-1.64-3.18-2.27-7.7,2.47-8.88,4.41-1.1,6.18,2.39,6.58,6.44.19,2-1.67,5,1.6,5.78,2.83.65,3.36-2.49,4.71-4.18,9.16-11.49,22.65-11.14,35.36-12.76,2.51-.32,4.83,1.19,4.47,3.91-.46,3.57,1.29,8-3.44,10.33-5.51,2.73-10.76,6-16.38,8.52-4.85,2.16-6.46,4.71-1.92,8.36,14.7,11.82,31.64,15.68,50.14,13.37,4-.5,5.13-2.43,2.62-5.91a9,9,0,0,1-1-1.65C331.1,2071.56,337.91,2060.87,356,2060.16Zm-10.56,19.07c-.46,4.18,2,7.22,5.4,10.2,7.38,6.43,15.26,2.78,23.11,2,2.72-.29,5.23-.15,6.38-3.16s0-5.57-2.08-7.95c-4.56-5.27-10.33-8.72-16.48-11.75C353.46,2064.43,345.48,2069.33,345.44,2079.23Z"/><path d="M1063,2090.7c-.13-10.1-.55-20.16-2.72-30.09-.7-3.19-3.11-8.25,2.09-8.82,4.3-.47,4.11,5,4.61,8.26.65,4.16.47,8.45.87,12.66.22,2.4-.62,5.91,2.83,6.37,2.88.39,2.81-3,3.89-4.86,7.77-13.23,16.85-24.32,33.43-27.37,8.27-1.53,8.22,1.63,7.13,7.49-2.06,11-11.09,16.4-18.76,22.72-8.11,6.68-8.09,6,1.66,10.91,8.35,4.17,16.69,6.54,26.08,5.41,2.62-.31,7.48-4.34,7.86.85.31,4.38-.85,11.42-8,11.1-7.7-.33-15.76-.88-22.88-3.48s-14.93-4.32-21.49-8.81c-4.43-3-7.13-1.76-7.58,4-.32,4.19-1.24,8.34-2,12.5-.33,1.88-.46,4.21-3,4.33-3,.14-3.89-2.4-4-4.6C1062.79,2103.06,1063,2096.88,1063,2090.7Zm20.23-14.7c3.48-.31,20.56-13.94,20.92-16.44.58-4.06-2.37-7.69-5.27-5.53-6.59,4.92-14.19,9.32-17.71,17.45C1080.09,2073.87,1080.53,2076,1083.18,2076Z"/><path d="M568.73,2090.82c-5.09,13.36-20.09,20.24-32.31,16.12-7.47-2.51-9.54-7.8-5.87-16.51,2.36-5.59,6.08-10.8-3.83-12.81-3.42-.69-3.71-4.24-2.87-7.31.95-3.48,3.66-2.94,6.33-2.52,4.57.73,9.32,4.15,13.56-.52.53-.58.22-2.93-.47-3.45-4.29-3.27-9.24-1.36-13.94-1.33-3.88,0-7.76.38-11.64.44-2.75,0-5.43-.54-5.79-3.87a5.31,5.31,0,0,1,5-6.16c12-1.4,24-.57,36,.8,4.06.46,4.37,3.6,3.45,6.62-2.08,6.77.94,7.12,6.82,7.25,10,.21,20,2,30,3,1.43.15,2.71.42,2.75,2,.07,2.71-2,2.79-4,2.94-12,.88-23.95,1.46-35.85,2.83-7,.8-14.13,1.92-16.83,10.58-2.1,6.73.13,9.41,6.65,9C553.9,2097.5,561.13,2093.82,568.73,2090.82Z"/><path d="M37.06,2057.53C55.5,2045,74,2044,93.22,2051.69c7.64,3.07,8.31,10.9,2.55,18.58-8.56,11.4-22,12.81-34.08,16.81-3.34,1.1-7,1-10.58,1.57-3,.46-7.29-3.07-8.68,1a13.27,13.27,0,0,0,2.77,12.77c1.72,2,3.95,3.45,3.57,6.44s-.77,6.17-4.45,6.62c-3.16.38-4.67-2.09-5.23-4.75-2.34-11.08-4.67-22.17-6.72-33.3-1.46-8-2.53-16-3.65-24-.47-3.34-2.36-8,3-8.59,4.34-.51,4.36,3.85,4.73,7.06C36.6,2053.46,36.77,2055.05,37.06,2057.53Zm35.71-1.78c-11.56-2.71-19.66,3.94-28.63,8-2.27,1-7-.88-5.3,4.07,1.59,4.74-1.92,13.25,5.86,13.62,15.41.72,30-3.33,42.31-13.29,2.32-1.88,5.24-4.63,3.89-8.27-1.5-4.07-5.57-3.91-9.11-4.09C78.56,2055.62,75.32,2055.75,72.77,2055.75Z"/><path d="M763.22,2112.05c-22,.37-32.75-11.31-31.15-30.7.91-10.95,6.78-20.19,9.73-30.43a3.41,3.41,0,0,1,3.6-2.67c2.31.16,3.36,1.82,3.7,3.87a16.15,16.15,0,0,1-1.58,10.38,85.65,85.65,0,0,0-5.34,12.48c-5.67,17.26,2,27.82,20.25,28.52,4.74.18,7.22-.16,6-6.34-2-10.24,1.8-19.1,9.19-26.38s15-6.42,19,3.41c6.9,16.88,4,30-16.63,35.55C773.76,2111.42,767.13,2111.54,763.22,2112.05Zm30.36-25.23c-.12-2.52-1.07-8.33-7.85-7.82-6.53.49-9.43,5.5-9.77,12.19s3.46,9.83,9,9.93C792,2101.24,793.68,2095.81,793.58,2086.82Z"/><path d="M454.05,2072.45c.24-4.55.13-9.16.82-13.64.6-3.92,3.46-7,7.48-5.61s3.19,5.17,1.3,8.17c-3.86,6.12-2.39,12.55-1.36,19,.41,2.56,1.7,5.06,1.72,7.59,0,4.77,1.85,10.72-1.92,14-3.94,3.37-7.26-2.46-11-3.72-12.81-4.29-23.21-12.95-34.65-19.74-2.11-1.25-3.74-4.43-6.69-2.68-3.39,2-1.23,5.26-1,8,.44,4.53,1.22,9,1.46,13.57.22,4.23-.25,9.41-5,10.09s-4.75-5-5.05-8c-1.13-11-5.23-21.64-3.81-32.78,1.4-10.94,4.74-12.61,13.71-6.52,11,7.44,20.44,17,32.23,23.44,3.35,1.83,6.43,6,10.18,4.44,4.57-1.92,1.14-7,1.89-10.61a23.86,23.86,0,0,0,.06-4.86Z"/><path d="M711.4,2087.4c-3.61-9.75,1.1-20.35.38-31-.26-3.84,1.76-5.45,5.35-5,2.89.35,4.08,2.66,2.93,5-5.67,11.4-1.54,23-1.13,34.55.11,2.92.52,5.83.5,8.75,0,3.17.71,7-2.83,8.73-4.18,2-6.32-1.85-9.05-3.94-9.7-7.42-19.39-14.84-29.23-22.07-1.64-1.21-3.64-3.4-6.07-1.7s-1.23,4-.8,6.26c1.18,6.15,1.34,12.27-.85,18.27-.7,1.91-1.59,3.72-4.05,3.26a3.49,3.49,0,0,1-2.77-3.58c-.32-13.07-2.27-25.78-7.08-38.05-1.07-2.72,1-4.8,3.92-5.76,3.49-1.16,5.9-.07,8.74,2.27,11.62,9.57,23.55,18.75,35.39,28,1.51,1.18,3.12,2.77,5.18,1.94C712.16,2092.44,712,2090.3,711.4,2087.4Z"/><path d="M106.08,2099.73c1.59-3.44,1.32-7-.9-10.66-1.19-2-1.07-5.43,1.18-6.1,9.53-2.81,8.46-11.2,10-18.07,1.08-4.89,2.35-8.24,8.24-5.73.84.35,2.36.66,2.77.23,13.52-14.3,12.49,4.74,17.49,8.36,3.14,2.27,4,7.7,9.54,8.28,2,.22,9,23.66,7.92,25.5-1.87,3.17-4.44,3.86-7.22,1.45a14.06,14.06,0,0,1-3.25-4.8c-7.49-16.32-12.8-17.88-28.13-9.33-5.85,3.26-4.07,10.91-9.7,14.06-1.75,1-2.36,4.14-5.29,3C106.1,2104.89,106.13,2102.45,106.08,2099.73Zm27.85-28.88c-3.37.09-5.18,2.16-5.68,5.33-.38,2.4,1,3.64,3.42,3.44,2.84-.23,6.19.13,7-3.71C139.46,2072.28,136.46,2071.8,133.93,2070.85Z"/><path d="M192.72,2049a303,303,0,0,1,38.8-2.13c2.57,0,5.89-1.23,6.57,2.1s-3.3,3.06-5,3.22c-10.37,1-9.38,5.91-7.67,14.4,2.73,13.54.78,27.82,4.83,41.41.71,2.39.1,5.72-3.5,5.7-3.31,0-4.9-2-5.25-5.67-1.06-11-2.26-21.95-4-32.83-3.23-20.48-6.28-22.21-26.12-16-3.71,1.15-7.42,2.4-11.21,3.22-4,.85-6.5-1.38-6.72-5.12s.84-7.27,5.62-7.58C183.66,2049.37,188.19,2049.2,192.72,2049Z"/><path d="M892.15,2069.87c2-5.88-1-9.83-.51-14,.27-2.22.23-4.9,3.27-5.17,2.49-.21,3.56,2,3.45,3.87-.92,15.08,7.49,14.14,17.82,10.85,3.6-1.15,7.52,1.37,11.46-.52,4.1-2,8.93-2.71,7.57-9.18-.37-1.76-.12-4.18,2.48-4.48,2.09-.24,2,2.12,3,3.18,7.69,8.07,9.22,17.49,7.51,28.21-.57,3.56,1.21,7.6,2.36,11.28.78,2.47,2.85,5-1.13,6.2s-5.33-1.51-5.9-4.65c-1.4-7.65-2.69-15.33-3.93-23-.85-5.33-1.54-9.78-7.94-3.54-4.81,4.7-11.49,3.5-17.59,3.87-12.16.74-13.22,1.91-11.54,13.73.81,5.76,2.38,11.41,3.26,17.16.37,2.41.74,5.66-3,6-2.66.26-4.21-1.67-4.49-4.19C896.94,2093,895.77,2080.5,892.15,2069.87Z"/><path d="M1014.37,2046.64c-3.3,4.88-7.28,5.71-12.12,6.11-9.2.76-11.26,5.06-8.92,16.94,1.41,7.11,6.14,6.64,11.89,5.59,3.27-.59,9.28-3.51,10,.73.75,4.43-6.08,2.9-9.22,4.7-3.72,2.14-9.11-3.36-11.36,1.74-2,4.5.41,9.59,1.89,14.19,1.13,3.5,1.34,8.56,6.48,8.42,4.46-.12,9.15-1.12,10.58-6.78.63-2.52,1.82-5.72,5.17-3.24,2.59,1.93.08,4-1.28,5.69-1.79,2.29-3.44,4.7-5.37,6.87-3,3.34-5.68,8-10.74,7.33-5.85-.82-7.78-6.2-9.73-11.12-3.47-8.73-.88-19.7-10-26.44-1.6-1.17-.49-3.82,1.84-4.46,7-1.95,4.67-7,3.12-10.92-1.79-4.45-4.89-4.44-8.08-.55-1.16,1.41-3.12.72-3.74-1.18-1.12-3.42.38-5.88,3.63-6.82,7.36-2.14,14.72-4.86,22.25-5.6C1004.91,2047.43,1008.89,2043.21,1014.37,2046.64Z"/><path d="M489.68,2053c3.79.23,3.8,2.9,4.44,5.5,2.2,9,1.65,18.13,2.46,27.2.44,4.85.57,9.73,2.94,14.23,1.65,3.15.71,6-2.6,7.13s-4.72-1.81-5.21-4.32c-1.44-7.32-2.8-14.68-3.63-22.08-.72-6.46-.79-13-2.36-19.34C484.87,2057.83,485,2054,489.68,2053Z"/><path d="M623.2,2074.4c-.22,9.38-.52,18.75,2,28,.64,2.37.4,5.65-2.93,6.29-3.71.7-5.67-2.21-5.62-5.17.27-15.21-2.87-30.37-.68-45.59.41-2.88.72-6.76,4.46-6.3s2.69,4.5,2.74,7.26C623.26,2064,623.2,2069.22,623.2,2074.4Z"/><path d="M581.28,2221.74c11.27-13.41,24.32-18,39.12-18.51,3.18-.1,8-4.14,9.12,1,1.08,5,1,11.38-4.89,14.6-4.25,2.3-8.74,4.24-13.7,4.67-1.93.16-4.21.29-4.83,2.51-.81,3,1.78,4.06,3.8,4.72,7.26,2.38,13,8.61,21.6,7.81,4-.37,6,2.66,4.46,6.54-1.73,4.47-4.37,8.66-10.14,5.53-10.19-5.54-20.56-10.88-30.14-17.36-6.32-4.27-9.08-4.23-11.79,3.37-1.44,4-2.36,11.61-7.46,10.63-5.82-1.12-2.92-8.35-3.12-12.83-.38-8.49-.58-16.89-4.52-24.66-2.3-4.55-1.12-7.53,3.79-8.81,5.89-1.54,5.06,2.87,5.61,6.33C578.83,2211.35,579.89,2215.36,581.28,2221.74Z"/><path d="M686,2214.73c5.41-4.5,6.42-11,10-15.9,1.19-1.58,2.1-3.47,4.41-3.2,2.64.31,2.26,2.73,2.77,4.49.36,1.25.69,2.51,1.13,3.73,7.1,19.28,7.1,19.26,27.53,14.14,2-.5,4.87-2.06,5.57,1.25.58,2.72-2.4,2.32-4.11,2.82-.62.19-1.32.08-1.93.28-5.26,1.72-15.29.94-14.73,5.5.77,6.29,2.89,15.72,12.86,17.14,2.55.36,4.15,2.05,3.3,4.89-.72,2.43-.95,5.29-3.91,6.33-2.62.92-4.08-.31-5.52-2.54-4-6.23-8.79-11.94-12.27-18.62-2.54-4.89-5.84-7-13.2-5.27-12.78,3-21.48,8.86-26.78,20.68-1.2,2.67-1.92,8.37-7.12,5.45-5-2.81-1.41-6.7,0-10.14,5.16-12.59,12-24.51,14.5-38.14.54-3,.3-8,4.48-7.32,4.45.68,3,5.61,2.93,9C685.87,2210.76,684.05,2212.05,686,2214.73Zm10.66-4.25c-4.08,2.62-5.6,6.95-7.17,11-.93,2.44,1.09,3.78,3.24,3.39,3.52-.65,8.88.52,8.91-5A11.36,11.36,0,0,0,696.61,2210.48Z"/><path d="M859.79,2190.33c-.15,4.81-1.35,9.69,2,14.1,1.62,2.15.13,4.31-.83,6.38a104.24,104.24,0,0,0-9.3,54.69c.41,4.28-2.54,7.29-4.6,10.43-1.4,2.14-3.43-.18-5-1-4.63-2.43-2.37-6.39-1.47-9.46,3.75-12.86,5-26.15,7.41-39.23.82-4.39.25-6.74-5-6.95-9.38-.38-15.21-6.16-19.89-13.77-3.74-6.09-5.28-13.2-9.7-19-2.08-2.74-2.21-7.63,2-9.22s5.56,2.77,6.61,5.6c2.93,7.91,5.31,16.09,11.48,22.25,3.75,3.75,8.42,7.23,13.82,5.64s3.89-7.61,4.68-11.84a47.49,47.49,0,0,0,.27-17.47c-.48-2.63-.47-5.53,3.2-5.89s4.31,2.15,4.34,5C859.82,2183.82,859.8,2187.08,859.79,2190.33Z"/><path d="M496.91,2219.87c-.39-18.33-.39-18.39,14.83-20.14,8.68-1,17.38-1.88,26.1-2.56,2.72-.22,6.67-.89,6.8,3.32.12,3.66-3.62,2.89-6,3.26-7.36,1.15-14.75,2.09-22.08,3.36-2,.34-5.14.52-4.13,3.93.67,2.27,3.15,2.2,5,1.87,4.46-.8,8.86-1.89,13.27-2.93,1.57-.37,3.38-1.07,4.1.93s-.91,2.83-2.42,3.59c-7,3.52-14.27,6.45-22.35,5.76-4.21-.35-5.26,1.14-3.95,5a50.84,50.84,0,0,1,1.55,6.64c3.11,16.09,6.26,17.31,18.43,7,1.83-1.55,3.68-3.29,5.78-1.05s.38,4.56-1.16,6c-3.77,3.53-7.5,7.5-12,9.77-6,3-12,2.28-15.71-4.66C497.54,2238.85,497.3,2227.79,496.91,2219.87Z"/><path d="M430.74,2202.1c12.25-2.62,27-.49,41.53-1.78,2.58-.23,6.64-1.45,7.07,2.85.4,4-3.52,3.94-6.23,4.74-.63.18-1.29.68-1.85.57-15.24-3-11.94,8-11,15.61.87,6.69-.14,14.43,6.9,19.43,3.32,2.37.79,5.52-1.47,7.31-2.9,2.28-6.22,2-8.71-.93s-3-6.36-3.56-10c-1.31-9-2.83-18-4.19-27-.6-4-2.26-5.31-6.64-4.46-8.59,1.69-17.36,2.48-26,3.86-2.67.43-5.38,1.41-6.55-1.93-1.22-3.52.84-5.36,4-6.55C418.74,2202.15,423.59,2202,430.74,2202.1Z"/><path d="M778.6,2242.42c12.07-.76,22.85-4.36,30.54-14.42,1.43-1.87,3.32-4.2,5.51-2.71,2.92,2,1,5.17-.72,6.71-12.27,10.8-24.09,22.53-42.85,19.66-13.17-2-21.31-12.56-20.85-28.26a23.52,23.52,0,0,1,22.64-23.16c4.76-.2,8.55.88,8.38,6.75-.19,6.86-4.8,3.31-7.69,3-10.53-1.07-13.8,1.18-15.46,11.12-1.77,10.55,3.92,19.5,13.7,21.24C774,2242.75,776.33,2242.42,778.6,2242.42Z"/><path d="M315.43,2209.74c2.36-3.76-4.23-12.54,4-12.75,6.95-.18,3.37,8.28,4.07,12.88,1.17,7.69,1.24,15.54,2.35,23.24,1.35,9.37,6,12.88,15.47,11.83,8.36-.93,16.8-1.89,23.88-7.23,1.58-1.19,3.71-2.38,5.21-.51,2.22,2.79-.75,3.68-2.41,5.07a55.73,55.73,0,0,1-25.71,12.43c-13.45,2.58-21.42-2.81-23.82-16.2-.74-4.15-1.09-8.38-1.53-12.58C316.42,2220.75,316,2215.57,315.43,2209.74Z"/><path d="M262.65,2218.92c-.08,23.68,1.65,25,24.4,18.81,6.54-1.77,13.45-2.3,18.8-7.23,1.47-1.35,3.68-2,5.08.15a3.52,3.52,0,0,1-1.31,5.07c-12.59,7.89-25.29,15.67-40.79,16.05-6.84.17-8.9-4.91-10.94-10.39-4.35-11.66-.69-23.87-3-35.63-.59-3,1.08-5.13,4.27-5.21s3.46,2.43,3.51,4.76C262.72,2209.83,262.65,2214.38,262.65,2218.92Z"/><path d="M217.17,2222.23c.62,6.45,1,12.93,2,19.33.39,2.62.36,6.29,4.34,6.64,2.29.2,4.93-.39,4.9,3,0,3.71-3,5.63-5.65,7.41-2.45,1.62-4.25-.38-6-1.73-2.23-1.71-2.73-4.34-3.35-6.86-4.13-16.84-2.48-34.26-5-51.27a4.61,4.61,0,0,1,4.2-5.58c3-.35,3.54,2.65,3.71,4.75.67,8.08,1,16.18,1.48,24.28Z"/><path d="M386.2,2229.27c-.93-6.69-1.77-13.4-2.82-20.07-.43-2.75-.65-5.45,2.49-6.45,3.55-1.12,4.77,1.92,5.07,4.34q2.32,18.7,4,37.48c.24,2.65-1,5.32-4.39,5.23-3.06-.08-4.75-2.2-4.87-5.05-.22-5.14-.06-10.29-.06-15.43Z"/><path d="M951.66,2205.09c-.31,12.33-10,19-16.83,27.28a2.15,2.15,0,0,1-3.4,0c-1.66-1.95-.63-3.83.84-5.12,5.27-4.61,8.84-10.43,11.67-16.63,4.69-10.28,1.08-15-10.13-13.57-6.76.87-13.49,1.95-18.82,6.93-2.67,2.49-6.31,3.54-8.41.08-2.37-3.91,1.78-6,4.4-7.16,8.9-3.91,18-7.47,27.9-8C946.62,2188.49,951.75,2195.23,951.66,2205.09Z"/><path d="M936.93,2256.25c-.35,3.72-1.39,7-5.95,7.18-2.87.1-5.1-1.16-4.94-4.44a7.39,7.39,0,0,1,6.3-7.39C935.91,2250.86,936.52,2253.52,936.93,2256.25Z"/><path d="M486.09,1156.81c-.17-10.78-2.45-21.56-4.32-32.42-.83-4.84-1.48-9.79,6.72-5.56,6.94,3.58,13-3.15,19.79-4.22,7-1.1,14-2.36,21-3.77,7.72-1.56,9.07,1.91,8.26,8.56a36.68,36.68,0,0,1-7.33,17.78c-4.15,5.57-4.41,8.78,3.77,8.64,6.31-.1,13.39-.32,15.54,7,2.32,7.83.35,15.11-6.46,21-15.77,13.5-39.71,14.34-54.35,1.07C483.27,1169.89,487.77,1162.92,486.09,1156.81Zm44.34-3c-10.17-1.19-18.2,3.42-26.62,6.58-2.95,1.1-8.25-2.39-7.94,4.94.23,5.73,2.4,8.84,7.67,10.77,12.12,4.43,21.16-2.09,30.32-8.15,3.85-2.54,7.72-6.06,6.64-11C539.13,1150.73,533.21,1155.5,530.43,1153.81Zm-37.8-18.59c.41,3.62,1,6.52,1,9.42.08,6.71,1.94,7.57,8.86,5.54,13-3.82,18.24-14.64,25.34-23.94,1.86-2.43,2.26-5.62-1.38-7.33-4.63-2.16-31.52,8.5-33.42,13.22A10.3,10.3,0,0,0,492.63,1135.22Z"/><path d="M253.16,1163.82c-1.91-9.08,7.32-17.27,9.66-27.75,1.24-5.58-.85-14.87,6.23-16.08,6.69-1.15,8.63,8.21,13.13,12.48,4.2,4,5.2,11.39,13.28,11.18,2.29-.06,2.52,2.84,1.3,4.64-3.77,5.57-1.58,9.83,2.7,13.68,2.93,2.64,4.63,5.57,2.44,9.4-1,1.67-2.21,3.52-4.37,3.53-4.6,0-5.4-4-7-7.09-.91-1.72-1.41-3.67-2.38-5.34-1.81-3.13-1.51-8.84-6.9-8-5.79.86-12.77.28-15.45,7.87a27.57,27.57,0,0,1-3.74,6.78c-1.37,1.89-2.09,5.34-5.69,3.86C253.52,1171.77,253.06,1169.16,253.16,1163.82Z"/><path d="M226.52,1157.74c.11-1.3.24-2.6.3-3.9.64-14.61-.7-15.67-15.14-13.25a161.46,161.46,0,0,1-21.19,2.47c-5.76.19-7.88,1.89-6.14,7.67a53.3,53.3,0,0,1,1.48,8.66c.3,2.46,1.45,5.89-2.41,6.13-3,.19-4.16-2.91-4.39-5.58-.62-7.08-.21-14.43-7.48-18.93-1.61-1-1.43-3-.09-4.22,4.2-3.9,2.39-8.35,1.39-12.74-.46-2-.82-4.16,1.47-5a3.51,3.51,0,0,1,4.78,3.44c-.17,13.69,9.11,12,17.91,11.51,4.87-.3,9.75-.32,14.63-.44,5.83-.15,12.84,1.19,9.41-9-.77-2.29.62-4.37,3.71-4.46,4.56-.13,13.42,8.78,12.06,13-3,9.37-1.41,18.71-.78,28.06.4,5.94.8,14.76-4.89,14.76-7.31,0-4.69-8.84-4.8-14.34C226.32,1160.35,226.45,1159,226.52,1157.74Z"/><path d="M881.25,1130.53c-9.46,1.19-16.73,7.61-25.84,9.51-4.76,1-6.71,3.18-5.35,8.18,1.44,5.32,2.24,10.8,3.67,16.13.83,3.1,2,6.6,5.83,7.05,4.12.49,6.23-2.73,8.49-5.57,2.88-3.64,1.38-9,4.9-12.45,5.19,8.33-2.91,27.24-12.17,28.7-4.92.78-8-1.62-9.94-6a77,77,0,0,1-5.93-20.46c-.91-6.42-2.46-12.81-2.73-19.25-.22-5.54-8.16-11-3.5-14.9s12.61-4.45,19.27-5.4c9.61-1.35,19.35-1.74,29-2.54,2.63-.22,6.69-2.88,7.19,1.53s-4,4.08-7.21,4.26c-10.35.57-20.27,3.33-30.22,5.94-3.06.81-7.67,1.49-7,5.29s5.28,3,8.36,2.33c7.48-1.55,14.89-3.46,22.33-5.23C880.71,1128.63,881,1129.58,881.25,1130.53Z"/><path d="M765.07,1154.71c.09-6.81.48-13.62-.8-20.42-.69-3.68-1.89-8.31,2.65-10.45s7.35,1.9,10,4.38c5.9,5.57,11.24,11.72,16.9,17.55,2.22,2.3,4.5,5.68,8,4.59,4.34-1.36,3.07-6,3.42-9.3.71-6.77.83-13.61,1.51-20.39.24-2.33,1.73-4.46,4.57-4,2.36.4,3.11,2.58,2.51,4.53-3.76,12-1.72,24.61-3.53,36.8-.45,3-.28,7.16-4.09,8-3,.68-5.19-2.08-7.36-4.06-6-5.47-12.07-10.84-18.08-16.29-1.44-1.31-2.84-3.19-4.93-2.53-2.89.9-1.88,3.72-2.09,5.84-.79,8.06,1.55,16.29-1.28,24.22-.71,2-.49,5-3.65,5s-3.51-3-3.61-5C764.86,1167,765.07,1160.87,765.07,1154.71Z"/><path d="M131.84,1138.31c0-4.23-.14-8.46,0-12.68.13-3,1.88-5,5-4.85,3.93.15,3.59,3.26,3.11,5.75-2.12,11-1.28,22.06-2,33.08-.28,4.09-1.72,8.41-4.61,10.25-4,2.52-5.15-3.7-8.34-4.87-.86-.32-1.5-1.23-2.24-1.86-16-13.61-15.91-13.58-24.65,5.11-1.06,2.27-.54,6.36-5.17,5.7-3.67-.53-4.73-3.38-5.38-6.16-3.29-13.92-6.38-27.87-9.48-41.83-.43-2-.5-4.2,2-4.74,2.94-.64,4.06,1.73,4.55,4,2.1,9.47,4,19,6,28.47.57,2.64-.46,6.89,3.52,6.93,3.74,0,3.35-4.33,4.1-6.89,5.4-18.48,5.22-18.38,18.94-6,3.7,3.34,7.65,10,11.88,8.5,6.33-2.3,1.82-9.82,2.74-15A16.84,16.84,0,0,0,131.84,1138.31Z"/><path d="M642.36,1178.81c-4,.57-6.63-2.32-9.73-3.92-2.34-1.21-3.41-3.54-2.31-5.73,1.57-3.16,3.51-.83,5.51.15,4.62,2.29,25.2-1.41,28.44-5.11,4.1-4.66-1.44-5.27-3.4-6.88-8.39-6.89-15.53-14.39-16.28-26-.59-9.13,12-18.18,20.32-14.55a6.26,6.26,0,0,1,3.77,5.27c.3,2.25-1,3.67-3.26,4-5,.67-11.62.12-12.09,7s4.35,12.2,9.33,16.29c5.28,4.35,11.58,7,18.92,6.14,3-.36,7.13-1.21,7.24,3.86.08,3.46.18,6.91-4.4,8.64C670.77,1173,656.63,1176.15,642.36,1178.81Z"/><path d="M1004.91,1124.22c-1.13.48-1.72,1-2.27.92-4.62-.37-10.39-3.81-13.26,1.74-3.06,5.9.83,11.34,4.8,15.74,6.69,7.41,15.41,11.67,24.86,14.36,2.3.65,6.23-.67,5.44,3.27-.69,3.41,1.13,8.3-4.06,10-13.92,4.71-28,8.13-42.91,6.26a12.79,12.79,0,0,1-7.77-3.73c-1.53-1.55-4.21-2.85-2.66-5.54s3.8-.83,6-.37c8.89,1.89,17.88,3.25,26.71-.23,2-.79,4.81-1.12,5.31-3.74.58-3-2.51-3.41-4.24-4.58-9-6.09-17.24-12.61-20.06-23.91-1.52-6.07-2.5-11.66,5-14.59C993,1117,999.89,1115.75,1004.91,1124.22Z"/><path d="M917.21,1177.21c-4.61.74-10.43-2.7-14.68-9.31-1.23-1.91-1.15-3.83.86-5,1.83-1.07,2.66.57,3.8,1.79,3.67,3.93,24.17,5,27.56,1.49,2.49-2.58.35-4.25-1.71-5.24-5.06-2.45-9.11-6.16-13.43-9.63-7.3-5.88-8-13.49-5-21.12,3.34-8.36,11.54-10.92,19.68-12.56,3.78-.76,4.22,2,4,4.9-.32,4.14-3.64,4.85-6.72,6-12.19,4.57-13.23,10.51-3,18.78a52.51,52.51,0,0,0,18,9.48c3.21,1,6.38.86,6.38,5.56s-.6,8.06-5.63,10C938.7,1175.63,929.78,1176.69,917.21,1177.21Z"/><path d="M373.23,1122.51c-4.09,10.28-1.08,20.84-.87,31.31.11,5.37.94,10.24,4.72,14.4,2.43,2.66,3.47,6.19-.24,8.28-3.21,1.8-6.3-.2-8.36-3s-2.63-6.54-3.22-10.1c-1.43-8.64-1.24-17.41-2.74-26.09-1.37-8-4.55-8.85-11.2-6.29-8.5,3.26-17.21,5.89-26.51,5.71-3.48-.06-7-.28-7.05-4.67-.05-4,3.12-5.18,6.67-5.55,8.36-.87,16.71-1.79,25-2.81,4.12-.5,8.09-.83,11.39-4.41,2.66-2.89,6.74-1.27,10.17-.29C372.65,1119.42,373.83,1120.55,373.23,1122.51Z"/><path d="M597.57,1122.09c10,11.06,12.48,23.11,13,36.05.29,6.94-2.71,11.26-8.58,13.67-6.08,2.5-11.19-.57-14.55-5.13-7.59-10.28-10.57-22.9-16.09-34.27a5.84,5.84,0,0,1,3.82-7.91c3.5-1,4.18,2.39,5.14,4.63,3.73,8.66,7.23,17.41,10.94,26.07,1.29,3,2.92,6.55,6.7,6.17,4.71-.48,4.49-5.2,4.94-8.45.87-6.3-.91-12.26-4.18-17.7C596.49,1131.51,595.25,1127.76,597.57,1122.09Z"/><path d="M712.24,1123.54c-.08-1.57,1.62-4.23,4.58-4.9,3.35-.76,4.29,2.64,4.65,5,1.46,9.6,2.8,19.23,3.7,28.9.42,4.54.49,8.83,3,13.06s.76,9.09-3.63,10.38c-4.82,1.42-7.09-3.36-7.09-7.24C717.41,1154.06,715.38,1139.66,712.24,1123.54Z"/><path d="M315.59,1442.51c2.44,0,4.06,0,5.69,0,8.9.3,18,.74,22.28,10.37,3.45,7.8-.49,20.09-9.82,26.4-19.29,13.06-38.4,16.38-55.05.57-2.46-2.34-4.72-4.65-5.06-8-1.27-12.63-2.9-25.13-8.71-36.71-1.55-3.08-.54-6.77,3.09-6.55,10.41.65,18.53-5.66,27.73-8.47,7.11-2.17,8.72.56,9.51,6.16a19.39,19.39,0,0,1-.21,4.86C303.62,1443.13,303.6,1443.12,315.59,1442.51Zm-13.82,39.41c12.39-1.62,23.24-5.46,30.72-15.66,2.49-3.39,5.23-7.25,3.22-11.64-2.13-4.63-7.06-4.8-11.12-4.14-11.18,1.79-22.75,1.54-33.44,5.92-2.7,1.1-4.85,1.64-6.69-1.29s-2.09-5.31.73-7.75c3.17-2.74,6.84-5.13,8.51-9.19,1.16-2.82,2-6.22-2.74-6.19-8.81,0-15.26,8.47-13.4,17.35,1.33,6.32,5,12.73,5.37,18.43C283.91,1481.71,293.81,1480,301.77,1481.92Z"/><path d="M496,1426.59c8.74-13.41,20.63-16.3,32.81-18.39,7.36-1.27,15.66,4.5,16.59,12.9,2,18.38-7,37.3-27.12,42.92-1.54.43-3.51-.12-4.79.63-4.11,2.4-9.24-6.08-11.73.31-1.38,3.56,1.46,8.68,2.11,13.14.83,5.74,4.31,11,3.21,17.08-.48,2.71.55,6.62-3.72,6.6-3.66,0-4.64-3.62-4.64-6.42,0-8.57-1-17.5-4.27-24.82-7-15.89-1.81-33.44-8.56-49a3.33,3.33,0,0,1-.24-.94c-.38-2.93.52-5.26,3.53-6.07,3.45-.92,4.62,1.27,5.12,4.2C494.56,1420.53,495,1422.35,496,1426.59Zm32.84-7.51c-11.42-1.07-17.6,8.94-26.48,11.93-13,4.36-2.43,11.63-3.74,17.17-1.38,5.77,4,7.24,8.76,7.9,13.26,1.85,28-11.3,30.67-26.47C539.45,1421.32,537.12,1417.72,528.79,1419.08Z"/><path d="M882.4,1467.12c4.63.37,8.32,1.46,10.86-2.31,1.26-1.86,3-2.45,5-1.29,2.21,1.31,2.82,3.41,2.37,5.88-1.08,6-4.67,9-10.83,8.93-14.64-.19-28.22-4-40-12.82-5.52-4.13-7.4-2.47-8,3.37-.43,3.87-.27,7.84-1.06,11.62-.52,2.5-2.59,5-5.34,4.87-3.16-.18-4.06-3.3-3.66-5.88,2-13.39,2-26.43-4.35-38.92-1.17-2.3.52-4.41,3.05-5.18,3.1-1,4.71.64,6,3.35,2,4-1.56,11.53,4.12,12.1,5.16.52,4.26-7.7,7.88-11.17,6.47-6.21,11.15-14.71,21.61-15.05,4.16-.14,9.45-1.13,11.45,3.24,2.19,4.8,1,10.19-2.6,14.54-3.92,4.76-9.27,6.88-15.14,8.14-3,.65-7.12.87-7.23,5.06-.1,3.76,3.52,5,6.39,6.57C869.39,1465.6,876.14,1467.68,882.4,1467.12Zm-27.73-23.68c4-.87,7.22-1.18,10.11-2.28,3.5-1.34,8.6-3.45,6.9-7.55-2.13-5.15-6.52-.8-9.75.33C858.18,1435.26,855.25,1437.63,854.67,1443.44Z"/><path d="M961.58,1453.19c5.32,5,6.23,8.69,4.72,12.48a41.21,41.21,0,0,1-6.08,11c-5.48,6.66-12.09,13.11-21.39,11.27-8.63-1.7-11.14-10.26-13.7-17.55-1.92-5.47-2.21-11-10.31-11.78-4.2-.38-4-4.65-.28-7,2.09-1.35,4.71-1.45,5.3-4.86,2.57-14.74,5.46-16.75,19.63-18.37,12.45-1.41,24.83-3.73,37.08-6.37,4.21-.91,7.55-1.14,8.45,3.25,1.13,5.51-3.66,4-6.55,4.16-15.89,1.07-30.55,8.66-46.66,8.7-2.55,0-5.32,1.25-4.47,4.92.92,4,3.41,6.56,7.66,5.74,8-1.55,15.86-3.51,23.77-5.38,2.21-.53,4.81-1.82,5.81,1.16,1.19,3.54-2.08,4.51-4.44,5.12-6.59,1.71-13.48,2.46-19.87,4.69-3.82,1.35-9.63,2.22-9.31,8.28.3,5.86,3.15,10.69,8.79,13.06,5.06,2.12,10.3,2.49,14.44-2C958.84,1468.71,962.8,1463.21,961.58,1453.19Z"/><path d="M1055.65,1447.68c-1.87,14.2-15.1,22.67-28.42,31-6.75,4.2-14.07,6.89-22.22,5.48-2.52-.43-5.54-1.33-5.63-4.48-.09-3.72,2.87-2.32,5-2.29,4.74.05,3.69-3.55,3.71-6.3.08-11.75-5.46-21.92-9.55-32.44-1.5-3.87-3-7.52-.75-11,2.43-3.74,5.9-.33,8.92-.25,11,.32,21.81-3.45,33-1.35C1050.62,1428,1056.42,1434,1055.65,1447.68Zm-25.22-12.92c-5.43,0-8.39-.36-11.24.07-8,1.22-13.11,4.21-9.17,14,2.65,6.56,4,13.65,5.69,20.57,1.14,4.71,3.11,5.7,7.57,3.32,9.74-5.21,16.58-13.56,23.31-21.75,4.48-5.45.84-13.21-6.14-14.89A70.84,70.84,0,0,0,1030.43,1434.76Z"/><path d="M385.77,1473.53c-1,7.44-4.54,12.79-12.31,14.47s-11-3.54-14-9.28c-4.17-8-4.83-17.22-8.54-25.62-2-4.56-1.93-13.92.11-19.88,1.26-3.65,9.2-5.67,14.49-7.09,8.7-2.35,18.16-.43,26.75-4.33,2.34-1.07,4.6.65,5.54,2.88,1.41,3.37-1.09,4.84-3.71,5.54-8.13,2.17-16.26,4.42-24.51,6-3.37.64-7.56.84-7.37,4.51.27,5.25,4.85,2.6,7.67,2.26,6.12-.74,12.19-2,18.32-2.71,1.85-.23,4.37.15,4.82,2.34s-1.79,3.39-3.6,4c-6.16,2-12.3,4.26-18.62,5.58-6.64,1.39-9.05,4.47-6.52,11,.71,1.81,1.26,3.69,1.91,5.52,1.07,3,1.43,6.8,5.47,7.28,3.81.46,7.16-.92,8.84-4.67.84-1.87,1.53-4,3.94-3C386.54,1469.2,385.9,1471.61,385.77,1473.53Z"/><path d="M609.24,1444.29c.14-2.27.18-4.56.45-6.82,1.22-10.55,6.6-14.24,16.84-11.38a87.23,87.23,0,0,1,9.09,3.49c2.74,1.11,6.07,2.28,4.65,6.06-1.25,3.33-4.72,3.17-7.64,2.66-4.65-.81-10.26-5.2-13.71-1-4.21,5.13-2.55,12.67-1.63,18.92,1.87,12.64,14.92,20,28.27,16.91,10.79-2.52,16.77-13.8,13.52-26-.62-2.33-1.76-4.83,1-5.81,3.14-1.12,4.72,1.43,5.32,4.18,3.57,16.23-4.31,34.24-21.05,38.5-13.65,3.46-30.07-7-33.54-22.26-1.28-5.66-1.49-11.57-2.19-17.36Z"/><path d="M64.62,1430.53c-4.52.22-9.09,1.12-13.52-.52-2.54-.94-4.91-2.41-4.3-5.59.54-2.82,3-2.88,5.39-2.92a193.67,193.67,0,0,0,45.1-6.27c4.8-1.24,7.36,1.3,7.71,6.14.34,4.68-1.8,6.59-6.43,5.83-10-1.66-12.25,2.94-11.29,12.22,1.66,16.06.32,32.4,4.4,48.26.82,3.16.13,6.55-3.15,7.13-3.86.67-4.44-3.2-4.65-6-1-13.27-1.72-26.54-2.54-39.82-.06-1,0-2,0-2.92C80.89,1430.65,79.72,1429.56,64.62,1430.53Z"/><path d="M810.45,1456.27c-.05,14.34-10.63,25.89-24.7,26.34-9.3.3-15.24-5.21-18.35-13.38a90,90,0,0,1-6-25.53c-.22-3.07-1.89-7.55,2.41-8.26,4.82-.79,6.37,3.52,6.83,7.7.68,6.12,1,12.22,3.43,18.08,3.85,9.3,8.55,12.16,18,10.16,6.94-1.47,13.91-10.62,11.9-17.77-2.19-7.77-4-17-15.2-17.51-3.55-.15-5.66-2.35-5-5.72.74-3.89,4.07-3.3,7.09-2.94C801.61,1428.72,810.51,1441.77,810.45,1456.27Z"/><path d="M719.34,1466.77a154.19,154.19,0,0,0-1.81-22.26c-1.38-8.56-4.73-11.28-13.15-8.2-5.42,2-11.31,2.66-17,4-3.09.74-6.08,1-7-2.87-.82-3.65.7-6.94,4.39-7.53,16-2.55,32-4.75,48.08-6.93,1.78-.25,4.27-.29,4.9,2.07.83,3.15-2.15,4.36-4,4.25-10.25-.6-8.57,6.2-7.79,12.22,1.54,11.9.15,24,2.68,35.84.89,4.15-.45,8.87-4.35,9.46-5.93.9-4.69-4.78-4.93-8.37C719.14,1474.58,719.34,1470.67,719.34,1466.77Z"/><path d="M133.71,1438.14c7.07-1.45,13.58.56,19.68,3.67,8.06,4.11,9.51,12.61,3.67,19.34-7,8-19.64,13.15-26.48,10.27s-12-7.65-12.08-16c0-1.94-.25-3.88-.21-5.81.09-3.57-7.84-4.39-3.85-8.3,3.52-3.45,9.24-3.95,14.46-3.72C130.51,1437.69,132.11,1438,133.71,1438.14Zm1.33,7.07c-4.19-.65-9-1-9.12,5.85s3.67,11,10.47,11.75c5.67.65,16.84-6.06,15.5-9.26C149,1446.67,142.32,1445.65,135,1445.21Z"/><path d="M577.78,1458.24a49.65,49.65,0,0,0,1.53,18.14c.79,3.08.89,7.51-2.93,8.19s-5.12-3.59-5.86-6.62a43.49,43.49,0,0,1-.95-10.58c.11-11.35-1.14-22.56-2.55-33.79-.44-3.5-.44-8.16,4.15-8.41s5.07,4.64,5,8C575.87,1441.6,579,1449.78,577.78,1458.24Z"/><path d="M831.31,1573.37c4.3,1.41,11.38-1.24,14.2,4.59,3,6.1,1.38,12.8-3,18.22-3,3.64-3.45,5.56,1.84,7.59,9.8,3.75,11.93,12.79,5.75,21.69-9.39,13.52-30,21.31-46.38,17.51-1.57-.37-3.24-1.72-4.59-1.41-12.92,2.94-12.17-7-12.83-14.28-1-11-1.19-22-5-32.6-1.07-3-1-5.75,1.89-7.81C788.13,1583.38,823.17,1573.38,831.31,1573.37Zm-40.51,32c1,8.24,1.61,14.38,2.61,20.45.75,4.54,2.18,8.9,7.09,10.84,12.23,4.82,38-5.36,43.48-17,2.21-4.73,1.33-7.66-4.26-7.88-7.17-.29-14.09,0-20.38,4.68-4.36,3.26-9.68,5.22-14.54,7.81-2.82,1.5-5.73,2.12-8-.61-2.47-3,.14-5.91,1.81-7.77,4.82-5.33,10.63-9.92,18-10.66,9.45-1,14.84-6.32,19.82-13.79s.4-9-4.91-8.7c-9.95.63-19.75,2.15-29.27,6.15C793.29,1592.61,789.16,1597.87,790.8,1605.36Z"/><path d="M6,1625.42c.63-13.47-3.31-25-4.83-36.9-.43-3.35-3-8,1.94-9,3.93-.83,4,4.21,5.09,7,1,2.47-.93,6.69,3.19,7.15,3.56.39,4-3.69,5.7-5.92,5.27-7,19.56-11.87,27.29-9.3,5.85,2,7.13,18.68,1,23.12s-9,8.37-4.66,15.91c4.8,8.44,11.52,5.12,18,4.08,3.5-.56,8-5.7,10.1-1.24,2.31,4.92-4.49,6.22-7.66,8.17-14.2,8.75-20.34,6.8-27.95-7.8-1.33-2.55-3-5.25-5.19-7A13.55,13.55,0,0,0,16,1611.55c-4.17,1.34-2.21,6.18-2.36,9.53-.19,4.21.31,8.45.11,12.65-.11,2.48-.25,5.86-3.76,5.8-3.12-.06-3.94-2.89-4-5.66C6,1630.62,6,1627.37,6,1625.42Zm30.59-37.26c-4.84,1.65-11.66,1.25-13.25,7.39-.84,3.26,4.24,4.56,7.21,4.54,5.27,0,9-3.55,10.63-8.25C42.16,1589.08,39,1588.56,36.6,1588.16Z"/><path d="M1058.63,1616.67c10-.72,21.95.76,33.88,2.27,2.84.36,5.57,1.69,8.28,2.76,1.53.59,3,1.63,2.45,3.6s-2.44,1.89-4,1.66c-21.34-3.27-42.7.86-64-.14-4.29-.2-7.4.18-3.28,5.87,2.79,3.85-.25,9.1-2.72,11.91-3.2,3.61-5-.87-5.49-3.49a213.25,213.25,0,0,1-3.74-24c-1-12.69-3-25.07-7.19-37.12-1-2.93-2-7.11,2.17-8.34,4.68-1.36,4.89,3,5.56,6.07q2.43,10.93,4.59,21.93c1,5.08,3,6.19,6.94,2.23q12.64-12.67,25.48-25.16c1.66-1.62,3-5.52,6-3.09,2.55,2.13,1.18,5.38-.71,7.91-7.24,9.71-17,16.9-25.61,25.2-2.06,2-5.65,3.14-4.56,6.64,1.23,3.93,5.23,3.16,8.33,3.28C1046.14,1616.81,1051.35,1616.67,1058.63,1616.67Z"/><path d="M233.81,1603.54c4.2-5.51-7.62-13.81.79-18.51,5.43-3,12.59-3.77,18.91-6.06a44.21,44.21,0,0,1,19.28-2c16.28,1.61,21.38,9.66,14.47,24.5-7.33,15.7-19.74,27.2-33.9,36.71-6.44,4.32-11.39,2.89-14.19-5.15C235.94,1623.76,233.55,1614.41,233.81,1603.54Zm35.69-16.78c-20.61,1.24-27.07,6.4-25.76,19.43.61,6.13,1.78,12.12,1.33,18.37-.34,4.82,2.72,7.06,6.8,4,12-9,22.67-19.43,28.72-33.56,2-4.62-.27-7.63-5.18-8.19A33.87,33.87,0,0,0,269.5,1586.76Z"/><path d="M386.59,1621.13a87.41,87.41,0,0,1-.77,10.79c-.42,2.35-1.29,5.66-4.83,4.83-3-.71-3.48-3.75-3.45-6.36.09-9.17-.44-18.22-3.77-26.89-.81-2.13-1.38-4.36-2.38-6.39-1.92-3.91-4.56-8.79.88-10.77,4.32-1.56,9.88-4.79,14.49,2.05,8.62,12.76,21.83,20.12,35.23,26.91,6.18,3.13,7.19-.73,6-5.34-2-7.42-1.72-14.79-.93-22.25.45-4.22,2-8.46,7-7,4.7,1.38,1.93,5.36.73,8.13-2.87,6.63-.27,12.71,1.32,19,1.63,6.48,6.13,15.09,1.09,19.23-5.5,4.53-13.51-1.19-19.7-4.31-7.5-3.78-15.69-6.3-22.4-11.68-2.13-1.71-4.25-5-7.49-3-2.59,1.63-.72,4.81-.95,7.29C386.47,1617,386.59,1618.66,386.59,1621.13Z"/><path d="M687.26,1602.15c-10.48,6.95-.87,13.89,0,21,.31,2.75,0,5.46-3.09,6.37-2.8.82-4-1.55-5.13-3.5-.17-.28-.31-.58-.47-.86-2.91-5.24-1.64-15.51-10.64-13.81-11,2.08-25.19.18-29.78,15.47a12.18,12.18,0,0,1-2.44,4.2c-2.34,2.72-3.73,7.88-8.93,4.79-4.62-2.74-3.14-6.77-.88-10.13s2.55-5.92.57-9.74c-2.36-4.58-2.18-9.61,5.25-8.21,5.05,1,5.81-2.07,7.59-5.39,3.87-7.25,5-16.41,13.94-20.35,2.58-1.13,5.29-2.62,7-.15,4.62,6.55,13.49,9.74,15,18.66,1,6.19,3.34,4.59,5.66,1,1.21-1.89,2.3-3.21,4.53-2.14C686.12,1599.69,686.43,1600.84,687.26,1602.15Zm-31.48,4.59c1.77-3.55,9.28.77,8.94-5.5-.18-3.16-4-6.47-7.67-6.25-4.5.26-6.18,4.42-6.49,8.35C650.34,1605.94,652.67,1607,655.78,1606.74Z"/><path d="M214.67,1603.87c-13,2.44-8.39,8.83-5.79,14.62.66,1.49,1.44,2.93,2.23,4.35,2.47,4.47,5.11,10.08-1.09,12.43-6.79,2.57-5.92-5.08-7.63-8.64-2.72-5.66-2.25-14.69-9.77-15.51-9.51-1-18.44,3.18-25.2,10.49-2.85,3.08-5.16,6.66-7.76,10-1.52,2-2.64,5.13-6,3.38-3.15-1.66-3.27-5.1-2.24-7.76a89.37,89.37,0,0,1,6.64-13c6.87-11.55,13.27-23.42,24.93-31.28,3.26-2.2,5.22-1.9,7.4.74a35.69,35.69,0,0,1,4.07,5.46C198.59,1596.69,200.31,1607,214.67,1603.87Zm-28.32,2.38c1.4-1.41,6.09,2.66,5.92-2.54-.09-2.71-1.73-6.83-5.74-6.66-3.67.15-7.32,2.53-7.5,6.26C178.82,1607.82,183,1606.06,186.35,1606.25Z"/><path d="M463.13,1611.44c0-9,2.51-17.27,6.34-25.3,1.35-2.84,2.82-5.61,6.39-4.4,4,1.35,3.88,5.17,2.79,8.2-1.54,4.24-4.3,8-5.9,12.26-2.66,7-3.11,14.08,2.62,20,3.66,3.78,7.08,4,7.88-2.18,1.23-9.6,5.81-16.75,13.46-22.68,6.34-4.92,10.78-4.63,14.22,2.47,4.94,10.24.6,24.09-9.76,29.07-4.6,2.21-8,6.42-13.74,6.86C472,1636.94,463.25,1628.4,463.13,1611.44Zm42.37-.21c-.14-2.22-.35-4.91-4-4.84-3,.06-11.14,10.5-10.94,13.88.14,2.44,1.75,4,3.73,3.07C499.47,1621,505.47,1619.11,505.5,1611.23Z"/><path d="M144.28,1596.5c-16.91,3.41-31.2,15.39-49.4,14.2-1.94-.12-4.19.11-4,2.92a20.53,20.53,0,0,0,6.47,13.82c3.56,3.28,8.44,2.61,12.73,0,2-1.21,4.24-4.48,6.48-1.08,1.9,2.9-1.25,4.34-3.18,6-11.32,9.86-18.44,8.45-24.83-5.14-4.76-10.14-6.43-21.15-8.06-32-1.2-8,4.66-13,11.37-14.34,13.37-2.69,27.09-3,40.75-1.85,2.84.22,6.9.55,6.69,4-.21,3.69-4.15,1.63-6.45,1.83-13.8,1.23-27.73,1.16-41.16,5.53-3.37,1.1-5.24,2.12-4.62,5.86.57,3.47,1.68,5.71,6,6.28,12,1.61,23-3,34.52-4.6C133,1597.23,138.33,1594.51,144.28,1596.5Z"/><path d="M963.46,1584.69c10.14-1.47,16.32,5.94,21.72,13.79,2.9,4.23,2.09,9.32-1,13.69C976.46,1623,965.3,1629,953,1632.46c-5.64,1.6-10.2-2.53-13.78-7.27-4.71-6.24-5.52-12.93-3.39-20.15.54-1.82,1.94-3.37,2.7-5.15C944.58,1585.82,946.68,1584.46,963.46,1584.69Zm-1.14,8.79c-7.09-.4-14.5,4.67-18.83,12.91-4.53,8.6-.17,16.43,9.72,17,8.74.5,15.12-4.41,21.54-9.61,6.79-5.51,4.77-10.55,0-15.5C971.43,1594.92,967,1593.58,962.32,1593.48Z"/><path d="M917.08,1606.16c1.26,11.12-15.77,26.44-29.58,27-9.15.39-19.08-13-19-25.6.06-14.78,9.6-23.78,24.9-23.49C903.5,1584.31,917.1,1596.94,917.08,1606.16Zm-40.53-1.55c-.69,8.26,3,13.52,8.54,17.37,6.37,4.44,14.51,1.24,21.91-7,5.85-6.53,1.9-10.39-2.09-15.77-5.73-7.74-11.36-4.73-18.71-3.52C879.09,1596.86,876.14,1598.65,876.55,1604.61Z"/><path d="M326.68,1605.05c-.35-5.84-.68-11.68-1.08-17.52-.22-3.26-1-7.27,3.5-7.71,5.17-.5,5.06,4,5.32,7.53.46,6.47,1.2,13,.92,19.44A65.3,65.3,0,0,0,338,1628.9c1,3.27,1.55,7.74-3.42,8.53s-5.86-3.61-6.22-7.07c-.88-8.4-1.21-16.86-1.77-25.3Z"/><path d="M1106.08,1620.86c3.69-9.52,12.87-13.48,19.28-20,4.29-4.4,9-8.31,12.11-13.84,3.73-6.65,1-9-5.43-9.18a48.15,48.15,0,0,0-22.64,4.74c-2.81,1.38-6.9,5.07-9.09,0s2.74-6.37,6.38-7.66c8.22-2.91,16.21-6.7,25.21-6.67,12.51,0,17.85,8.6,12.61,20.07-5.36,11.74-15,19.42-25.33,26.23C1115.29,1617.05,1113.25,1623.9,1106.08,1620.86Z"/><path d="M1128,1649.11c-4.38-.33-3.59-4.17-4.4-6.5-1.14-3.31-.09-6.69,3.62-7.6,3.87-.94,6.46,2.42,6.84,5.23C1134.58,1644.29,1130.88,1646.77,1128,1649.11Z"/><path d="M187.12,1335c-8-.57-14.92-.17-21.13-3.87-3.46-2.07-6.17-4.41-10.17,1.1-3,4.18-6-.93-7-4.32-1.21-4.35-1.36-9-2.65-13.31-1.64-5.49-2.86-13.13-9.82-12.91-8.42.27-17.86,1-23,10-1,1.68-1.23,3.93-2.52,5.21-1.9,1.89-2.68,6-6.5,4.83-4.18-1.24-3.74-4.89-3-8.1a8.72,8.72,0,0,0-.83-6.47c-2.33-4.45-.69-6.78,4.37-6.67,5.54.12,7.67-3.81,9.42-8.1.24-.57-.13-1.46.19-1.9,4-5.62,5.21-14.35,13.14-15.77,8.76-1.57,10.12,7.59,14.35,12.46,2.55,2.94,2.7,8.5,8.77,7.53,2.11-.34,2.3,1.18,2.22,3.14-.87,23.89,4.5,26.32,24.92,27.1,5.38.2,13.19,3.63,16.15-2.61,2.47-5.21-6-6.19-8.5-10.26-4.25-7-8.6-13.61-8.23-22.32s8.45-15.76,16.92-14.45c2.76.43,5.11,1.2,5.37,4.53.22,2.92-1.76,3.54-4,4.53-12.2,5.34-12.28,5.89-6.47,17.7,4.82,9.79,13.44,14.81,23.22,17.85,3.83,1.19,5.43,2.65,5.42,6.54,0,4-2,6.45-5.75,6.35C203.19,1332.56,194.72,1336.16,187.12,1335Zm-51.93-40.54c-1.38-2.84-3.44-5-6.75-4.39-3.08.59-5.5,2.91-5,6.15.55,3.49,3.88,2.88,6.33,2.4S135.25,1298.25,135.19,1294.46Z"/><path d="M897.09,1318.71c-.12,2.62-.21,7.48-.61,12.32-.18,2.16-.33,4.89-3.62,4.67-2.83-.18-3.75-2.15-3.7-4.74.25-13.66.05-27.16-5.81-40-1.48-3.25.7-6.7,4.65-8.51,4.22-1.93,6.92-1.49,9.94,2.43a79.13,79.13,0,0,0,31.13,24.29c2,.88,3.84,3.2,6.08,1.36,2.07-1.7.91-4.27.43-6.42-1.76-7.91-1-16.21-3.79-24-.74-2.07-1.39-4.84,1.57-5.78a4,4,0,0,1,5.5,3.86c-.21,13.74,6.71,26.45,5.42,40.34-.64,6.91-2.14,9.59-9.47,5.24-9.77-5.78-19.75-11.14-28.87-18-2.49-1.87-4.84-5.33-8.39-3.21-3.07,1.83-1.3,5.27-1.1,8.07C896.6,1312.58,896.76,1314.52,897.09,1318.71Z"/><path d="M971.33,1307a66.3,66.3,0,0,1,6.76-29.08c2.06-4.31,4.95-5.72,9.35-4.76,1.86.41,4.17.32,4.65,2.74s-1.34,3.3-3.09,4.34c-10.17,6.06-10,16.68-11.48,26.52a4.81,4.81,0,0,0,2.1,5.14c2.68,1.5,4.17-.84,5.72-2.33,4.94-4.73,9.69-9.59,16-12.72,8.12-4,16.34-2.91,21.1,3.31,4.63,6,4,15.3-2.21,21.38a95.66,95.66,0,0,1-16,12.74c-12.65,7.86-30.46-2.86-32.81-19.48A54.84,54.84,0,0,1,971.33,1307Zm37.58-1.85c-7.49,2.09-15.74,4.83-19.73,13.93-2.8,6.39-.24,10.24,6.67,9.57,8.48-.82,15.23-5.21,20.4-11.81,1.94-2.47,4-5.4,1.8-8.91C1016.16,1304.9,1013,1305.45,1008.91,1305.14Z"/><path d="M826.76,1274.61c4.46.74,5,4.23,6,7.24,4.36,12.8,4.34,12.79,17.41,9.1,2.59-.73,6.16-3.55,7.55.27s-3.2,3-5.27,3.91c-12.71,5.52-12.83,5.52-7.34,18.12,2.07,4.73,5,9.08,7,13.85,1.11,2.71.81,6.44-2.27,7.7-3.56,1.45-5.05-1.78-6.1-4.6-2.38-6.39-5.08-12.71-6.94-19.25-2-7.24-6.36-7.48-13.14-7.56-12.75-.17-16.71,8.5-21.39,17.25-1.47,2.75-2.49,6.71-7,4.33-3.76-2-1.77-5-.92-7.69,1.68-5.31,5.21-10.34-.56-15.82-1.91-1.81.4-4.73,3.4-5.62,10.85-3.22,21.32-7,26.22-18.62A3.94,3.94,0,0,1,826.76,1274.61Z"/><path d="M.26,1282.08c-.33-1.88-.84-4.21,2.05-4.33s3.8,2.26,3.78,4.65c-.08,10,4.24,18.91,6.43,28.34.44,1.88.3,4.2,2.75,4.49s3.41-1.82,4.11-3.54c2.21-5.38,4.57-10.75,5.07-16.65.3-3.48-.62-8.24,3.84-8.94,4.71-.75,4.33,4.71,6,7.51,4,6.63,7.86,13.4,11.75,20.13,1,1.69,1.82,4,4,3.69,2.7-.3,3.12-2.89,3.65-5.14,1.85-7.88,3.83-15.73,5.61-23.62.74-3.3,1.94-5.68,5.86-4.21,3.6,1.36,5.84,4.56,3.57,7.61-7.12,9.54-7.22,21.36-11.38,31.81-1.21,3-.59,7.88-5.64,7.91-4.43,0-5.4-4.28-7.11-7.22-2.91-5-5.24-10.4-8.13-15.45-1.37-2.4-2.22-6-5.83-5.88-4.1.18-3.3,4.27-4.16,6.76a90,90,0,0,1-8.82,18.4c-3.17,5.1-6.67,4.73-7.74-.67C7,1312.46,1.47,1297.74.26,1282.08Z"/><path d="M500.37,1305.33c1.11-17.56,11-26.89,27.15-25.65,11.81.9,23.09,15.45,22.66,28.59-.42,12.82-19.38,22.25-29.44,21.91C510.24,1329.84,499.67,1316.33,500.37,1305.33Zm41.91.66c-.33-8.29-12.64-20.62-20-20-4.34.37-13,15-12.62,21.25.51,7.53,7.07,13,15.49,13C533,1320.19,542.53,1312.26,542.28,1306Z"/><path d="M596.62,1297.49c4.06-.58,8.59-.55,12.81-2.77,2.05-1.08,5.47-1.88,6.45,1.71.76,2.78-1.81,3.73-4,4.54-4.53,1.69-9,3.57-13.59,5.08-10.43,3.44-12,6.76-7.74,16.9.75,1.78,2.06,3.33,2.77,5.13,2.17,5.56-2.29,8.1-5.81,9.52-4.79,1.93-5-3-5.39-5.88-.71-4.78,1.27-11.39-1.26-14.2-6.62-7.38-7.26-13.45-.82-20.78.77-.87.05-3.15-.17-4.75-1.79-13-1.77-12.67,11-13.88,10.86-1,22.15.25,32.31-5.48,2.69-1.52,6.19-1.33,7.23,2.31,1.27,4.45-2.74,3.73-5.3,4.85-10,4.36-21.13,3.34-31.11,7.53-3.47,1.46-5.71,3.32-4.73,7.19C590.19,1298.18,593.06,1298.47,596.62,1297.49Z"/><path d="M1042.11,1314.84c8.13,16.5,22.39,15.34,36.8,13.84,2-.21,4.42-.13,4.4-2.65,0-2.23-2.45-2.43-4.3-3.12-17.12-6.37-28.42-21-27.17-35,1-10.77,7.05-17.42,15.15-16.51,1.88.21,4.17,0,4.84,2.3s-1.25,3.16-3,4.24c-11.41,7.16-11.4,13.94-3.19,24.83,8.45,11.19,19.42,17.13,32.24,20.73,2.33.65,4.51.64,4.5,3.78s-.48,5.48-3.64,7.25c-13.21,7.43-41.59,3.59-52.18-7.34C1043.38,1323.91,1042.54,1319.68,1042.11,1314.84Z"/><path d="M748,1335.23c-6.64-.4-13.13-.65-19.59-1.21-5.12-.45-9.36-2.66-11.61-7.6-1.07-2.33-.81-5.06,1.63-5.83,3.14-1,2.36,1.91,2.41,3.69.09,3.21,2.49,4.62,4.94,5.33,12.17,3.55,23.67.23,34.9-4.14,2.83-1.11,2.41-3.65.2-5.39a54.36,54.36,0,0,0-5.06-2.89c-10-6.19-18.2-23.81-14.76-31.54,1.95-4.4,24.19-12.18,31.16-11,5.23.88,7.62,5,6.84,9.07-1,5.27-4.54,1.51-7.45.75-7.25-1.87-14.26.09-20.54,3.64-4.57,2.58-2.59,7.11-.91,10.4a37.92,37.92,0,0,0,22.28,19.11c3.06,1,6.48,1.07,6.66,5.63.16,4.27-2.17,6.28-5.55,8.2C765.39,1336.11,756.54,1334.61,748,1335.23Z"/><path d="M369.12,1285.18c-6.37,1.23-12.72,2.5-19.1,3.66-3.16.57-7,1.68-8-2.72-.92-4,1.44-7,5.54-7.78,7.65-1.39,15.32-2.82,23.05-3.45,7.4-.61,14.93.06,22.14-2.23,3.93-1.25,5.48.83,6.16,4s-.61,5.06-4.12,4.78c-4.52-.35-6.82,2-6.85,6.23-.09,14.34-5,28.84,1.46,43,1.29,2.86-.11,5.1-2.84,6.28s-4.94.08-6.75-2.23c-3.1-4-2.55-8.67-2.44-13.13.23-9.07.86-18.13,1.36-27.19C379.19,1285,379,1284.8,369.12,1285.18Z"/><path d="M325.45,1312.78c.38,3.43-1.55,8.22,2.44,12.64,3,3.27,1.15,6.86-3,8.37s-6.31-1.3-6.74-4.75c-.87-7.08-1.08-14.23-1.66-21.34-.65-8.08-1.06-16.16-3.11-24.09-.78-3-.85-7.22,3.31-8s4.13,3.55,4.65,6.09C323.38,1291.56,325.22,1301.45,325.45,1312.78Z"/><path d="M1039.29,1279c-.78-1.79-1.35-2.46-1.21-2.89,1.41-4.22-.64-10,5.16-12.17.63-.24,2.73,1.22,2.74,1.9C1046,1271.16,1042.76,1274.7,1039.29,1279Z"/></svg>