<svg xmlns="http://www.w3.org/2000/svg" width="1016.05" height="2204.06" viewBox="0 0 1016.05 2204.06"><title>c29-txt2</title><path d="M330.28,669.84c-1.13-9.8-1.06-18,7.81-20.34,6.46-1.73,24.1,9.43,26.4,16.08.76,2.2.47,3.8-1.06,5-1.32,1-2.73.37-3.93-.73-1.75-1.59-3.19-3.8-5.09-5-5.4-3.35-11.58-6.37-15.86-1.48-3.73,4.26-2,9.79,1.23,16,5.27,10.13,8.54,21,19.53,26.84,8.63,4.57,16.11,6.61,24.39,1.95,9.29-5.22,14.64-15.62,11.29-24.45-3.12-8.19-2.38-16.1-5.7-23.71-1.33-3-2.34-6.8,1.07-7.93,4.49-1.5,4.16,3.21,5,5.89,2.37,7.39,6.38,9.13,12.7,7.46,5.29-1.39,11.06-1.59,16.7-1.79s11,.11,9.6-8.74c-.42-2.67,1.29-4.21,3.85-3.8,3.12.51,5.33,2.74,7,5.73,5,8.81,5.13,18.44,7.15,27.67,1.66,7.6,3.21,14.72,9,20.53,4.53,4.54,2.95,7.58-.89,10-4.29,2.74-6.91-.47-8.38-4.52-3.56-9.81-6.79-19.71-9.9-29.63-2.26-7.2-5.61-9.92-12.26-7.71a103.15,103.15,0,0,1-19.38,4c-8.42,1.06-8.48,5.58-3.71,12.72a62.77,62.77,0,0,1,4,6.09c1.78,3.42,2.43,7.11.31,9.87-2,2.55-4.5.11-6.82-1.15-4.48-2.44-6.88-.75-9.58,3-16.08,22.21-39.67,16.83-54.44-12A127,127,0,0,1,330.28,669.84Z"/><path d="M938.28,844.13c6.7-1.76,14.24,2,20.87-2.71a2.79,2.79,0,0,1,4.55,2.09c.18,3.25-.82,6.5-4.92,6.88-6.59.61-13.31,2-19.77,1.29-14.18-1.66-29.52,0-40.53-12.64-3-3.48-4.32-.13-4.49,2.72-.25,4-.1,8.06-.31,12.08-.11,2.19-1,4.07-3.74,3.56-2.4-.45-1.57-2.34-1.71-4-.85-10.23-4.11-19.89-8-29.28-1.2-2.9-2.85-5.94.51-7.24,3.92-1.52,2.92,3,4,4.94a27,27,0,0,1,1.58,3.07c1,2.63.56,6.91,3.64,7.24,3.63.39,3-4.19,4.22-6.56,5-10,27.65-17.08,36.17-10.43,4.64,3.63,2,8.82-1.61,11.87-4.52,3.78-9.4,7.43-15.83,7.87-2.12.14-5.36.73-5.35,3.29,0,3.59,3.48,2.49,5.89,3.12A90,90,0,0,0,938.28,844.13ZM927,818.67c-10.1.38-18.47,1.19-26,5.77-1.45.88-2.78,2.22-2.48,4.16s1.85,2,3.3,1.89C910.91,829.46,919.91,828.15,927,818.67Z"/><path d="M518.63,535.83a102.43,102.43,0,0,0,26.81,11.06c3.56.89,6.81,1.59,9.93-.22,3.33-1.94,5.62-1.15,6.87,2.1,1.35,3.5-1.06,5.51-3.94,6.51a16.85,16.85,0,0,1-9.32.31,139.05,139.05,0,0,1-38.21-14.71c-4.64-2.63-6.27-.91-6.78,3.59s-1,9.14-1.58,13.69c-.3,2.18-1.5,4-3.92,3.76-2.11-.18-2.37-2.13-2.53-3.91-1.14-13.22-3.78-26-10.27-37.8-.88-1.6-1.22-3.51.55-4.6,2.13-1.31,4.13-.2,4.94,1.83,1.49,3.71,2.47,7.63,3.78,11.43.64,1.86,1.25,4.21,3.66,4.23s3.56-2.13,4.09-4c3.75-13.12,14.49-14.81,25.62-16,2.75-.28,6-1.71,7.45,2a9.5,9.5,0,0,1-1.35,9C530.78,529.58,525.17,532.38,518.63,535.83Zm12.12-17.38a34.68,34.68,0,0,0-18,3.94c-1.58.8-3.27,1.93-2.67,3.82s2.83,1.88,4.4,1.59A27.78,27.78,0,0,0,530.75,518.45Z"/><path d="M155.61,824.42c1,.93,1.66,1.23,1.84,1.69,4.2,11.11,4.31,11.31,14.78,5.27,5.63-3.24,11.83-4.14,17.84-5.94,5.48-1.64,5.86.79,5.21,5.21-.87,5.85-4.33,9.08-9.64,10.86-1.57.53-3.63.89-3.6,3s2.14,2.62,3.77,2.77c9.53.92,17.53,8.54,27.94,6,4.8-1.18,4.63,2.05,2.86,5.08-2,3.46-4.93,5.12-9.33,4.65-11.35-1.21-21.65-5.88-31.74-10.41-7-3.13-8.71-2.32-10.13,4.94-.63,3.24,1.49,10.12-3.6,9.67-5.45-.48-1.82-6.67-2.34-10.3-1-7.38-1.57-14.88-5.11-21.64C152.42,831.57,152.66,828.24,155.61,824.42Z"/><path d="M898.31,674.32c-15.55,2.28-28.66,9.1-43.66,10.53-4.61.44-10.16,1-7.85,8.25,2.08,6.55,4.07,14.2,13.1,14.5,8.06.27,12.2-5.51,17.37-9.89,1.69-1.43,3.55-4.4,6.21-1.26,2,2.32-.42,4-1.36,5.8-3.14,6.21-8,10.66-13.18,14.47-9.5,6.92-21.1,2.47-25.68-10.42s-7.75-26-11.53-39.08c-.85-2.94-.64-5.51,1.85-6.89,14.34-8,31-8.1,47.31-9.58,4.17-.38,7.2,3.57,7.84,7.47.91,5.6-3.74,3.42-6.64,3.69q-16.76,1.55-33.46,3.41c-2.88.32-7.64-.71-6.48,4.35.91,3.9,5,4.41,8.33,4,13.15-1.5,26-4.51,39.65-3.51C892.56,670.36,895,669.52,898.31,674.32Z"/><path d="M1015.55,674c4.15,23.82-19.65,44.56-39.67,35.22-6.9-3.22-7.63-.59-6.32,5.73.57,2.77.65,6-2.71,6-3,0-4.45-3-5-5.75-3-14.75-6-29.44-13.09-43.41-1.81-3.56-2.22-8.21,2.13-9.64,5-1.65,5,2.75,5.56,6.26.38,2.11,1.68,3.81,3.75,3.88,2.81.1,2.94-2.53,3.2-4.73,1.3-10.87,6-17.93,17.06-17.78,12.3.17,23.51,4,32.17,16.11A16.89,16.89,0,0,1,1015.55,674Zm-35-12.08c-5.92-2.39-9,2.76-10.29,8.79-2.13,10-4.76,23.78,1,30.38s17.29.64,24.77-4.23,15.81-11.67,12.11-22.68-14.79-10.87-23.71-12.09C983.68,662,983,662,980.52,661.93Z"/><path d="M777.41,661.2c1.84,12.3-10,29-23.12,29.76-11,.6-12.32,5.69-9.2,16.29,1.65,5.63,1.5,11.64,2,17.46.21,2.63.75,6.22-2.63,6.11-2.85-.09-4.15-3.15-4.92-6-5.85-21.92-12.32-43.7-21-65-1-2.45-.48-5,1.86-5.56,3.6-.94,5.09,2.36,6.46,5.32,1.85,4-.66,11.63,5.29,11.55,7-.1,3.44-7.85,3.24-13-.36-9.4,10-18.82,19.45-18.24C768.17,640.71,775.37,647.51,777.41,661.2Zm-23.18-10.29c-7.11-.82-11.93,2.35-12.66,9.61-.64,6.44-3.68,15,2.32,19.57,5,3.78,11.07-1.48,16-4.37a12.35,12.35,0,0,0,4-3.16c3.15-4.45,8.78-8.59,5.13-15.5C766,651.27,759.56,651.43,754.23,650.91Z"/><path d="M956.35,513.59c6.12,8.45,6.17,19.54,14,26.55,2.13,1.91,1.63,3.35.65,5.19-1.14,2.11-2.6,3.88-5.36,3.57-2.1-.24-2.92-1.66-2.93-3.59-.05-10.4-6.17-18.34-11.16-26.6-2.81-4.65-2.56-8.38,2.57-9.13,13.2-1.92,26.73-6.21,39.69.81,7.7,4.17,15.28,8.88,20.55,16.08,4.57,6.23-.55,17.14-9.31,22.54-6.32,3.89-13.51,4.63-20.25,6.94a6.8,6.8,0,0,1-6.51-1.47c-1.31-1.08-3.09-2-2.68-4.05.47-2.27,2.64-2.13,4.21-1.91,9.87,1.43,16.91-4.94,24.5-9.2s7-9.37,0-14.58c-10.73-8-23-10-35.86-9.31C964.4,515.65,960.47,516.6,956.35,513.59Z"/><path d="M480,842.14c6.79-21.51,21.81-30.09,38.5-23.47,6.89,2.74,9.46,9.81,5.51,15.85-8,12.25-17.63,21.94-34,20.42-3.46-.33-5,1.47-4,4.68,1.13,3.56-.67,6.79-.52,10.21.09,1.86.6,4.61-2.24,4.72-2.46.09-2.87-2.44-3.29-4.41-2.26-10.62-2.53-21.56-5.52-32.1-.94-3.28-1.62-6.53-3.16-9.65-.84-1.71-.57-4.33,1.75-5.11,2.59-.86,3.44,1.18,3.87,3.34C477.83,831.09,478.72,835.57,480,842.14Zm26.8-17.61c-11.27,0-14.09,2.07-19.4,11.86-1.87,3.46-2.51,6.31-.08,9.44s6.49,3.36,9.44,2.11c5.67-2.4,12-4.25,15.81-9.6,2.2-3.11,7.54-5.43,5.77-9.74C516.3,823.57,510.44,825.32,506.82,824.53Z"/><path d="M199.18,693.33c.42,12.62-12.69,13.47-22,9a83,83,0,0,1-11.78-7.16c-5.28-3.71-9.26-3.93-12,2.93-.75,1.88-1.35,5-4.34,4.61s-3.56-3.46-4.07-6c-1.61-7.86-2.33-15.89-6.53-23.1-1.85-3.17-.21-6.64,3.1-7.79,3.49-1.21,4,2.21,4.67,4.66.55,1.94,1.23,3.85,1.6,5.82,1,5.22.23,13.14,8.41,4,2.27-2.53,4.92.07,7.23,2.2,6.12,5.66,12.62,10.81,21.43,11.84,6,.71,8.09-2.1,7-7.52s-2.72-10.48-4-15.74c-.64-2.64-2.39-6,2.35-6.6,3.93-.5,4.63,2.27,4.94,5.46C195.9,677.15,199.24,683.8,199.18,693.33Z"/><path d="M620.34,705.5l-15.55-43.81c-2.46-6.92-7.65-16.18,6.17-8.94,2.8,1.46,4.31-1.21,6.41-2.19,9.34-4.37,19.33-7,30.38-4.35,10.59,2.5,14.07,8.28,11.4,18.63-3.76,14.56-12.29,24.73-26.4,26.59-8.42,1.11-8.12,5.18-6.28,12.14,1.32,5,2.29,10,3.25,15,.49,2.55,2.24,6.25-1,6.88-3.53.67-5-3.55-6-6.24C621.49,716,621.44,712.33,620.34,705.5Zm19.73-49.19c-6.74-.31-12.35,2.41-17.37,6-6,4.26-4.22,11.38-.9,17.6,3.82,7.18,8,2.73,11.85,1,5.52-2.4,9.11-7.13,12.67-11.88,2.21-2.95,7-5.19,4.67-9.95S643.82,656.58,640.07,656.31Z"/><path d="M62.9,670.86c.8,7.35.36,16.67,4.23,25.32,1.24,2.78,1,5.34-2,6.5-3.59,1.4-4.83-2.2-5.22-4.19a96.24,96.24,0,0,1-1.42-15.38c-.33-9.18-1.22-9.87-10-8.12-7.31,1.47-14.36,4.1-21.92,4.52-2.62.14-6.39.41-6.68,4.11-.25,3,.11,6.46,4.36,7.31,3.2.64,3.66,3.43,2,5.19-2.45,2.54-2.74,7.7-6.92,7.65-2.39,0-3.28-3.51-3.5-6.28-.55-6.72-3-13.65-3.44-19.64-.55-7.28-.95-15.39-.09-23.07a4.25,4.25,0,0,1,2.93-2.72c2.32-.35,2.56,1.68,2.63,3.47a8.12,8.12,0,0,0,0,.86c2.63,14.85,2.64,14.87,17.55,12.55,5.4-.84,10.8-1.72,16.16-2.81,3.13-.64,6.35-1.47,5.75-6-.23-1.76.1-3.77,2.32-3.93,2.86-.2,3,2.32,3.11,4.22C63.06,663.31,62.9,666.2,62.9,670.86Z"/><path d="M667.43,535.37a46.47,46.47,0,0,0-5.51-22.47c-1.1-2.13-2.29-5.62,1.16-6.55,2.52-.69,5.49,2,5.48,4.38,0,9.69,6,18,5.8,27.75-.07,4.22.72,8.34-3.25,10.75s-8.56,1.47-12.28-1c-6.19-4-12.09-8.52-18-12.92-1.74-1.29-2.68-4.41-5.5-3.07-3.4,1.62-1.27,4.55-.87,6.88.92,5.37,2.59,10.64,2.2,16.18-.13,1.8,1,4.46-1.93,4.95-2.49.42-3.29-1.39-3.77-3.63q-4.15-19.35-8.55-38.64c-.68-3,.48-5.21,3.06-6.39,3-1.38,3.61,1.61,5.1,3.24,8.46,9.25,16.37,19.15,28.15,24.66,2.24,1.05,3.94,3.79,6.85,1.84S667.32,536.2,667.43,535.37Z"/><path d="M922.73,512.63c3.88,5.83,10.86,2.62,16.49,6.63-8.51,3.18-16.65,1.68-24.16,4.55-5,1.93-10.32,4.8-16.51,4-3.85-.49-4.37,3.23-3.62,6.25,1.4,5.57,3.25,10.86,7.7,15.08,3.23,3.07,5.78,4.75,9.21.65,1.43-1.71,3.24-2.79,5.08-.74s1.68,4.17.31,6.38c-3.09,5-10.05,6-15.16,2.17-7.87-5.9-10.49-14.74-13.06-23.58-.72-2.48-1.19-5-1.8-7.52-1.26-5.24-.12-8,6-6.28,7.19,2,14.1-.11,21.77-1.64-3.82-6.25-9.45-1.79-13.57-3.43-3.06-1.23-9,1.59-8.57-4.3.46-5.66,5.51-1.95,8.43-2.05,8-.28,16.1.84,24-1.84,2.5-.85,5.54-2.77,7.6,1,.69,1.26,1.61,2.81.52,4-2.23,2.47-4.85.12-7.29.19A29.79,29.79,0,0,0,922.73,512.63Z"/><path d="M566.82,670c-5.15,8.11-10.3,5.8-14.58,6-2.91.16-6.1.21-6.5,3.78s3,4.06,5.23,5.45c1.95,1.23,3.73,2.85,5.67,4.11,3.72,2.42,7.39,4.82,6.53,10.19-.41,2.58-.68,5.88-3.71,5.71-4.37-.24-7.31-3.68-9.48-7.87a3.32,3.32,0,0,0-.65-1C543.7,692,540.94,682.27,533,682.6c-9.24.37-8.18,10-9.83,16.93-.85,3.62-1.82,7.19-2.62,10.83-.72,3.32-2.22,5.36-5.89,4.13-3.85-1.28-5.15-4.32-5.57-8.23-1.69-15.68,4-29.07,5.85-43.67.57-4.58,6.3-9.45,10.27-5C537.14,671,550.28,672.58,566.82,670Z"/><path d="M113.83,534.19c-.67,4-1.79,7.47,2.92,9.16,2.36.86,4,2.8,3.14,5.41a4.87,4.87,0,0,1-4.74,3.17,5,5,0,0,1-5.21-3.81c-1.56-5.82-3.25-11.68-3.93-17.63-.8-6.92-4.22-8-10.07-6.27-3.86,1.12-7.85,2.41-11.8,2.46-9.4.12-10.68,4.61-7.74,12.28,1.12,2.93,1.59,6.11,2.67,9.06.75,2.05,1.6,4-1,5a3.26,3.26,0,0,1-4.3-1.92c-3.26-12.28-7.93-24.21-9.4-36.94A2.68,2.68,0,0,1,67,511.29c1.89-.2,3.06,1,4.26,2.42,6.72,7.71,23.07,7.1,28.94-1.2,1.59-2.24,3.25-3.51,5.64-2.29,2.68,1.36,6.64,1.69,7,5.61C113.4,522.11,113.53,528.43,113.83,534.19Z"/><path d="M126.25,839.4c-6.79,5.91-13,5.54-18.78,5.6s-7.29,2.52-5.8,7.5c1.33,4.47-.16,11.36,5.48,12.52,6.22,1.28,10.07-4.49,13.64-9,1.1-1.4.63-5,3.41-3.81s1,4.06.28,6c-2.14,5.52-6.41,9.67-10.79,13.16C107,876.7,99.44,871.54,98,861c-.81-6-1.22-12-1.79-18-.31-3.35-.15-6.16-4.48-8.15-4.54-2.09-2.3-7,1.32-7.33,13-1,26-5,39.25-1.89,2,.48,5.43.29,5.46,3.2,0,4-3.87,2.75-6,3-8.52,1-17.09,1.57-25.66,2.21-1.81.14-3.75.2-4,2.33-.32,2.8,1.84,3.1,4,3.09Z"/><path d="M69.27,845.18c-.65,7.3-.71,13.67,4.13,19.21,2.43,2.78.61,6.13-1.8,7.38-3.71,1.93-4.23-2.2-4.7-4.28A179,179,0,0,1,63.57,848c-.47-4.29-2.21-6.49-6.51-6.08-8,.78-16.05,1.63-24,2.68-3.27.43-5.07,2.28-4.39,6,.87,4.81,1.41,9.67,2.06,14.52.32,2.36.47,5.15-2.55,5.41-2.71.22-3.9-2.4-4-4.75-.16-2.85.36-5.74.48-8.61.21-4.71.55-9.22-5.95-10.53-3.64-.73-4.74-4.36-1.49-6.32,4.93-3,4.4-6.54,3.39-11C20,827.21,20,824,23,823.8c2.34-.17,2.86,2.81,2.75,4.7-.41,7.26,3.17,8.75,9.62,7.8a130.09,130.09,0,0,1,17.22-1c4.75-.06,8.85-.39,8.52-6.73-.06-1.13.33-2.4,1.69-2.58,1.78-.25,2.41,1.14,3,2.51C68.06,834,71,839.46,69.27,845.18Z"/><path d="M458.11,524c-3,6.68-9.2,5.37-13.54,7.43-1.49.7-4.08-.13-5,.84-2.91,3.14-11-2.14-10.21,5.34,1.19,11.18,7.89,16.44,16.5,15.19,3.86-.55,7-2.53,10.48-3.9,1.41-.55,3.13-.88,3.85.57.6,1.22-.11,2.72-1.22,3.87-11.55,12.11-26.71,8.53-32.11-7.38-2.32-6.83-5-13.55-5.78-20.74-.92-8.34,1.95-11.56,10.23-12.1q14.67-.95,29.35-1.78c2.06-.11,5.09-2,5.76,1.43.59,3-2.42,3.62-4.65,3.87-9.69,1.07-19.17,4.43-29.09,2.79-2.82-.46-5.63-.68-5.75,3-.11,3.13,2.77,2.91,5.08,3.26C440.54,526.93,448.9,525,458.11,524Z"/><path d="M279.86,544.77c-1.42-10.17.62-18.86-4.27-26.73-1.43-2.31-3.63-5.68.5-7.13,3.13-1.09,4.42,2.47,4.88,4.8,1.82,9.25,4.75,18.4,3.29,28-.38,2.53-.49,5.37-3.42,6.47-3.11,1.17-5.35-.56-7.77-2.37-6.86-5.13-13.94-10-20.92-15-1.75-1.25-3.63-2.1-5.54-.66s-1.55,3.56-.86,5.54a28.43,28.43,0,0,1,1.05,15.32c-.32,1.57.15,3.76-2.27,4-2.26.2-2.74-1.68-3.07-3.39q-3.35-17.32-6.61-34.67c-.38-2-.52-4.17,1.86-5.16,1.85-.77,3.12.42,4.55,1.52C253.48,524.75,265.78,534.06,279.86,544.77Z"/><path d="M849,841.22c-2.5,5.17-4.23,9-6.15,12.7-2.86,5.52-7.13,9.26-13.71,8.5-6.78-.78-9.43-6.27-11.12-11.82-3-9.88-3.23-20.48-8.17-29.93-1.45-2.78,1.64-4.75,4.26-5.31,11.48-2.45,23-4.67,34.53-7,2.81-.58,5.74-.49,6.05,2.85.38,4-3.28,3.09-5.57,3.14-9.61.22-18,5.59-27.61,6.09a3.51,3.51,0,0,0-3.43,4.17c.38,2.63,2.42,3,4.56,2.77,5.44-.5,10.87-1.13,16.31-1.61,2.25-.2,5.74-3.08,6.39.81.55,3.29-3.77,2.75-6,3.31-5,1.24-10.1,2-15.19,2.87-4.1.67-5.34,2.81-4,6.7.58,1.61.52,3.55,1.39,4.94,2.4,3.87,1.72,10.53,8.42,10.65,5.83.11,9.44-3.73,11.83-8.61C843,844.06,843.87,841.73,849,841.22Z"/><path d="M153.54,524.82c2.76,1.46,8.49-4.61,9.61.39,1.34,6-6.54,3.11-9.68,5.63-2.48,2-7.43,1.66-6.73,6.41,1,6.58,2.62,13.39,8.77,17,3.06,1.81,3.6-2.66,5.11-4.43s2.53-5.56,5.68-3.47c2.77,1.83-.37,4-1.16,5.91-1.9,4.6-4,8.89-10.11,9.1-6.94.23-9-5-10.17-9.83-2.47-9.81-8.51-18.39-8-29.42.34-6.87,3.81-9.68,8.46-11,7.13-2,14.69-2.49,22.1-3.39,3.78-.47,6.28,1.65,6.36,5.34.09,3.86-3.1,2.95-5.67,3.23-5.66.6-11.28,1.67-16.91,2.54-2.29.35-6.26-1.44-6.06,2.48C145.4,525.76,149.66,524.67,153.54,524.82Z"/><path d="M.1,543.5c-.17-2.69.1-5.22,3-5.56,3.86-.45,2.9,2.49,2.76,4.7-.16,2.62,1.56,3.41,3.7,3.86,5.1,1.07,10.22,2.24,15.33.3,2.8-1.07,6.88-1.15,6.93-5.3,0-3.81-3.92-3.4-6.24-4.81a38.78,38.78,0,0,1-8-6.42c-4.58-4.82-8.06-11.14-5.08-17.18,3.32-6.73,11.22-8.31,18.24-9.93a3.29,3.29,0,0,1,4.13,2.25c.76,2.48-.8,3.72-2.82,4.56a12.25,12.25,0,0,1-2.43.89c-4.4.83-9.47,2.23-9.92,6.91-.47,5,3.45,8.9,7.75,11.64,3.4,2.16,7,4.08,10.35,6.24a8.25,8.25,0,0,1,1.63,13C31,557.34,13,558.23,3.66,550.56,1.28,548.6-.45,546.54.1,543.5Z"/><path d="M738.31,856.89c5.23-6.68,5.71-14.91,8.16-22.41s4.2-8.06,9.19-1.73c4.21,5.35,10.23,8.26,15.21,12.54,4.68,4,9,1.68,10.83-4.42,2.1-6.78-1.11-13.06-1.41-19.6-.09-2-.79-4.55,1.88-5,3.25-.55,3.54,2.22,3.55,4.57,0,8.27,2.46,16.54-.35,24.81-3.28,9.61-8.84,11.54-16.88,5.42a121.34,121.34,0,0,1-11.06-9.44c-4.1-4-6.87-4-8.13,2.07-1.37,6.62-4.8,12.29-8,18.08-.84,1.52-1.79,3.22-3.82,3-2.31-.26-1.65-2.47-2.3-3.93-4.56-10.26-6.1-21.44-10-31.89-.9-2.42-1.69-4.78,1-5.85,3.13-1.24,3.79,1.78,4.37,3.9C733.26,836.81,734.12,847.09,738.31,856.89Z"/><path d="M971.92,818.06c.3,6,3.41,8.05,9.37,8.64,9.47.94,18.09-3.06,27.27-3.39,2.48-.08,5.91-1.52,6.53,1.73.64,3.4-3.27,2.21-5.13,2.79-8.13,2.54-16.21,5.35-24.84,5.92-4.36.3-9.72,1.33-9.33,6.56.49,6.43,2.46,13.74,9.38,16.18,5.19,1.83,9.25-1.61,10.77-7.24.56-2.07.9-4.5,3.72-5.24,1.56,10.49-1.43,16.26-9.51,19.12-6.65,2.35-11.56-.28-14.2-6a94.43,94.43,0,0,1-8.4-33.19c-.26-3.76,1.06-5.4,4.61-5.63Z"/><path d="M759.78,507a49.39,49.39,0,0,0,18-1.49c3.74-1,8-.75,6.33,5.48-4.31,15.66-.67,31.16,1,46.67.4,3.59,1.77,6.09,4.73,1.14.75-1.24,2.33-2,3.69-.84,1.57,1.33,1.19,3.14.26,4.69-1.52,2.57-4,3-6.75,2.72-3.67-.35-5.3-2.3-6.18-5.94-2.79-11.51-3.77-23.25-4.52-35-.44-6.74-3-9.11-9.61-8.72-6.88.42-13.8,0-20.7-.1-2,0-4.21-.48-4.44-3.09s1.75-3.75,3.72-4C750.76,507.73,756.2,507.35,759.78,507Z"/><path d="M558.84,815.42a5.36,5.36,0,0,1,5.24,4.62c.61,3.94-2.69,3.68-5.29,3.4-8.12-.89-6,5.46-5,8.6a26.27,26.27,0,0,0,17.38,17.64c3.08,1,7.59.3,7.56,6.24,0,5.37-4.12,6.12-7.12,7.37-6.52,2.7-13.09,5.37-20.23,6.56a18.73,18.73,0,0,1-11.61-1.64c-2.79-1.31-5.63-3.47-4.27-6.47,1.92-4.24,4.08,0,6.05.82,4.17,1.76,7.92-.44,11.71-1.34a40.67,40.67,0,0,0,10.36-4.14c2.49-1.39,5.81,3.65,6.51-.12.79-4.18-4.39-3.46-7-4.63-9.87-4.43-17.48-20.8-14.82-31.38C549.71,815.48,553.9,816.16,558.84,815.42Z"/><path d="M703.37,526.54c1.56-3-3-10.9,3.43-10.39,6.77.55,2.22,7.78,1.92,11.91a22.54,22.54,0,0,0,8.81,20.21c4.07,3.23,9.2,2.48,13.38-1.38,5.44-5,2-10.49-.16-14.84-2.55-5.22-6.28-10.39-13.32-11.06-1.76-.16-4.35-1.06-3.61-3.74.6-2.18,2.82-2.7,4.94-2.67a11.4,11.4,0,0,1,7.8,3.32c7.36,7.29,11.82,15.82,11.9,26.65,0,6.7-3.75,10.57-8.61,12.47-5.24,2-11.25,2-16.05-2.78C706.34,546.77,702.22,538.11,703.37,526.54Z"/><path d="M93.91,676.11c-1.48,5.48,1.26,10.11,5.57,13.12,4.76,3.32,10.36,3.64,14.74-1.29,5-5.64-.2-8.76-3.52-12-1.82-1.79-4.2-3-6.33-4.47-2.5-1.71-3.54-4.12-1.74-6.61a4.58,4.58,0,0,1,6.91-.89c5.78,5.09,11.94,10.32,13,18.48,1,7.77-4.51,11.69-10.49,15.2-9.76,5.73-21.25,0-23.76-12.28a70.68,70.68,0,0,1-1-12c-.09-3-1.08-7.13,3.91-6.89,4.58.23,2.71,4.1,2.85,6.7A25.93,25.93,0,0,1,93.91,676.11Z"/><path d="M309,519.18c-.21,7.82,1.7,12.56,11.42,11.12,5.88-.87,12-1.12,18-1.77,2.63-.29,5.63-1.71,8.45,2.23-8.89,2.18-17.2,4.89-25.74,6.09-6.41.9-7.19,3.47-5.07,8.57.77,1.86,1.58,3.72,2.48,5.52,3.59,7.21,6,7.66,11.8,1.94,1.32-1.29,2.29-2.77,4.17-1.35a2.47,2.47,0,0,1,0,3.84c-3,3.08-3.06,9.58-9.19,9-5.33-.45-8.65-3.86-10.43-8.95-3.49-9.93-7.06-19.84-10.79-29.68-2-5.35,0-7,5.1-6.35Z"/><path d="M836,529.05c-.64-4.7,2.12-9,4.2-13.33,1.25-2.62,4.25-4.62,7.14-2.64s.69,4.52-.74,6.67c-5.68,8.47-5.22,17.33,1.16,23.29,5.6,5.21,15.44,4.84,22.75-.79,1.6-1.23,3-4.73,5.39-2,1.94,2.17-.76,4.07-2.15,5.78-5.79,7.16-15.14,10.86-21.91,8.69C842.18,551.63,836.44,542.5,836,529.05Z"/><path d="M381.47,816.21c-.13-2,.49-3.75,2.55-3.89,2.73-.19,3.09,2.07,3.2,4.11.51,9.14.85,18.29,2.72,27.3,1.1,5.29,3,11.42,8.7,11.37,5.86-.05,13.27,3.2,17.95-4.22,1.24-2,3.32-6.24,6.26-3.8,2.49,2.08-.7,5.07-2.27,7.35a26.63,26.63,0,0,1-11.35,8.93c-11.3,5.09-20.67-1.46-23.7-16.68-1-5-1-10.27-1.5-15.4S383.9,820.9,381.47,816.21Z"/><path d="M370.53,518.87c3.44,2.13,5.43,6,7.31,9.45,3,5.5,5.68,14.29,11,13.66,4.73-.55,4.09-10.23,5.55-16,.63-2.49,1.25-5,.73-7.64s1-4.52,3.62-4.85c3.4-.42,4.15,2.6,3.51,4.54-3.69,11.06-3.8,23.08-8.91,33.68-1.79,3.71-4.3,3.54-7.22,0-6.91-8.3-10.13-19.13-18.69-26.37C365,523.33,366.22,520.05,370.53,518.87Z"/><path d="M309.2,519.44c-.27-3.2-.83-6.87,3.83-7.07,9.17-.41,18.1-3.34,27.37-2.47,2.43.23,5.85-.58,5.8,3.22,0,3.29-3.05,3.64-5.74,3.83Q324.71,518,309,519.17S309.2,519.44,309.2,519.44Z"/><path d="M972.16,810.32c-1-5.27.72-7.63,6.44-8.49,8.45-1.28,17.26.83,25.44-3a3.54,3.54,0,0,1,4.9,2.27c.81,2.58-1.25,3.25-3,4.34-3.93,2.43-8.3,1.63-12.49,2.14-7.16.87-14.33,1.68-21.5,2.52Z"/><path d="M807.8,515.26c3,.1,3,2.3,4,4,3.84,6.91,4.26,14.77,6.55,22.09,1.1,3.53-.14,8.17,6,8.68,2.34.19,1.66,3.33.2,4.9-1.82,1.94-4,2.27-5.85-.1-3.29-4.14-4.69-9.18-5.92-14.1-1.72-6.88-3-13.8-7.08-19.85C803.86,518.21,804.81,516.06,807.8,515.26Z"/><path d="M441.75,822.08c2.76,1.11,3.16,3.53,3.41,5.73,1.17,10.24,2.38,20.48,3.11,30.76.24,3.41,2.1,5.83,3.18,8.72.8,2.14,1.74,5.08-1.11,6s-3.32-1.82-4-4.19c-2.7-9.12-2.61-18.63-4.29-27.89-.8-4.45,0-9.11-2.7-13.3C437.63,825.26,438.79,823.07,441.75,822.08Z"/><path d="M643.51,2190.58c3.43-.52,8.25.51,11.36-4.06a2.51,2.51,0,0,1,2.34-.66c1.22.56.95,1.76.57,2.93-2.42,7.3-10.86,11.3-18.26,8.7-6.65-2.34-12.9-5.31-18.08-10.26-1.3-1.24-3-2-4.4-3.19-3.6-3-5.26-1.09-6.15,2.41-1,3.93-1.84,7.9-2.64,11.87-.23,1.2-.37,2.29-1.87,2.28s-2.83-1.15-2.47-2.56c2.26-9-3.65-16.63-3.84-25.18,0-1.46-1.53-3.48.67-4.07s2.85,1.59,3.47,3.32c1.06,3-1.15,8.29,2.82,8.77s3.08-5.16,4.72-7.89c5.07-8.43,16-14.79,24.35-13.45,3.58.58,7.32,1.51,8.46,5.75,1.27,4.74-2.08,7-5.34,9.21-3.72,2.48-8.06,2.91-12.38,3.29-1.34.12-3-.08-3.5,1.47s.75,2.41,1.77,3.38C628.75,2186.12,637.49,2190.12,643.51,2190.58Zm-10-26.91a29.39,29.39,0,0,0-12.93,3.88c-1.55.81-3.19,2.13-2.32,4.31.75,1.88,2.56,1.68,4.1,1.36,5.51-1.14,11-2.31,16.47-3.71.78-.2,1.46-1.63,1.78-2.62.44-1.38-.81-2.13-1.82-2.41A42.31,42.31,0,0,0,633.55,2163.67Z"/><path d="M83.86,2192.65c7.13,8.48,15.75,8.09,23.35-.79,2.72-3.17,7.18-7.22,5.77-10.84-1.55-4-7.4-1.57-11.13-1.44-7.7.28-15.12,2.76-22.51,5-2.21.68-2.83,2.05-2.54,4.09.23,1.57.65,3.12.85,4.69.31,2.44.89,6.17-1.65,6.46-3.81.42-2.24-3.59-2.45-5.72-1-10.12-1.81-20.23-5.2-30-.81-2.35-1.26-6.55,3.66-3.75,2.38,1.36,3.71.18,5.55-.66,6-2.78,12.64-2.55,18.8-1.92s4.57,6.52,2.88,9.73c-3.1,5.91-1.7,7,4.38,6.72,4.75-.25,10.89-2.24,13.65,3.22S116,2188,112.72,2192.3a25.07,25.07,0,0,1-19.14,10.18C87,2202.83,84.57,2200.45,83.86,2192.65Zm-10.14-22.33c1.28,2.45-.25,6.54,3.36,8.08,3,1.3,5.8-.8,8-2.48,3.21-2.43,5.88-5.58,8.85-8.35,2.17-2,2-4-1-4.06-6.09-.11-12.06,1.32-17.89,3C73.58,2167,73.58,2168.63,73.72,2170.32Z"/><path d="M87.8,1986.55c-.87,3.43,1.67,9.45-2.81,9.64-3.16.13-1.11-6.19-1.86-9.53-1.94-8.63-4-17.23-6.2-25.81-.57-2.23-2-5.09,1.08-5.68,3.43-.66,2.33,3.09,2.88,4.94.84,2.83,1.18,5.79,1.76,8.7.3,1.48-.18,3.66,1.81,4s2.45-1.62,2.91-3.17c3-10,10.87-12.68,20-13.35,3.63-.27,7.74-.46,9.33,3.81s-.4,8-3.58,11a26.36,26.36,0,0,1-3.33,2.37c-1.23.84-3.48.73-3.35,2.84.15,2.29,2.38,2.34,4,3,5.06,2.16,10.26,3.4,15.81,2.76a13.3,13.3,0,0,0,3.32-.42c1.73-.7,2-5,5-2.32,1.6,1.39.54,3.36-.16,5.08-1,2.54-2.4,4.11-5.58,3.74-11.12-1.29-22.1-3-32.07-8.56-.59-.33-1.17-.71-1.77-1-6.11-3.22-7.41-2.41-7.34,4.58C87.67,1984.27,87.75,1985.4,87.8,1986.55Zm21-25.27c-5.8.38-11.21,1.81-15.87,5.49-1.17.92-2,1.9-1.74,3.4s1.62,2.12,3,2.19a21.14,21.14,0,0,0,16.65-6.29c.93-.93,1.9-2.12,1.38-3.62C111.64,1960.71,110.08,1961.23,108.8,1961.28Z"/><path d="M678.6,1980.39c-3.65,8.63-13.45,13.68-21.7,11.18-7.93-2.39-14-8.4-21.71-11.22a2.5,2.5,0,0,1-1.47-3.39c.81-2,2.06-3.45,4.53-3.45,5.07,0,9.11-2.44,12.69-5.76,1.17-1.09,2.4-2.27,1.57-4.11s-2.44-1.59-4.08-1.56c-15.3.21-20.35,6.07-18.41,21.41.31,2.48.57,5,.66,7.46.06,1.68-.56,3.3-2.49,3.5-2.26.24-2.36-1.64-2.57-3.21-.5-3.82-1-7.63-1.42-11.46a22.58,22.58,0,0,0-4.35-12c-1-1.25-2.43-3.28-.46-4.84,1.51-1.18,3.53-1.33,4.7.68,1.89,3.25,3,1.9,4.95-.18,5.1-5.6,20.53-8.63,26.63-5.27,3,1.66,3.22,4.68,2.2,7.72-1.46,4.33-5,7-8.49,9.38-3.93,2.57-2.65,4,.45,5.66,8.57,4.62,17.11,7.38,25.71,0C676.28,1980.33,677.39,1979.53,678.6,1980.39Z"/><path d="M451.88,1985.52c.44-5.65,1.21-11.3-.11-17-.47-2-.57-4.1-2.52-5.36-1.74-1.13-4.05-2.22-1.25-4.47,2.45-2,5.66-1.39,6.23,1.24,2.31,10.79,5.71,4.65,10,1.33,5.34-4.17,12.09-3.07,18.39-3,2.46,0,3.35,2.16,3.63,4.27.48,3.72.32,7.49-3.33,9.63-2.06,1.21-4,2.92-6.8,2.78-1.27-.07-2.91.31-3.31,1.8s1.07,2.36,2.16,3.1c7.91,5.32,16.14,9.17,25.92,5.27,1-.42,2.18-1.23,2.94.09a4,4,0,0,1-.07,2.54c-.9,3.76-3.23,6.06-7.2,6-13.23-.36-23.69-6.82-32.61-15.85-3.25-3.28-1.4-6.95,3.51-7.44a61.51,61.51,0,0,0,10.58-2.19c1.4-.4,3.4-.87,3.07-3-.3-1.9-2.07-2.14-3.68-2.4a17,17,0,0,0-19.22,15c-.31,3.35-.58,6.72-1.15,10-.28,1.6,0,4.2-2.44,4.22-2.86,0-2.7-2.46-2.71-4.53C451.87,1986.89,451.87,1986.21,451.88,1985.52Z"/><path d="M206.24,1977.27c-.9,5.27,1.32,11.34-4.36,11.39-5.14,0-2.06-5.91-2.87-9-1.25-4.76-.16-9.89-1.52-14.86-1-3.52,7.31-6.22,12.57-4.28,4.85,1.78,8.13,5.72,12,8.74,9.1,7,9,7.21,17-.91a34.78,34.78,0,0,0,3.71-4c1.72-2.37,3.22-5.88,6.4-5.25,4,.81,3.86,5.1,4.39,8.41.71,4.49,1.32,9,2,13.5.27,1.8.36,3.9,2.57,4.36,1.85.39,4.94-.51,3.59,2.89a6.47,6.47,0,0,1-5.91,4,4,4,0,0,1-4.21-4.38,40.92,40.92,0,0,0-2.52-15.35c-1.75-5-3.83-4.25-6.66-1.17-1.24,1.34-2.46,2.68-3.73,4-8.33,8.61-8.38,8.62-18,1-1.07-.84-2-1.89-3.06-2.72-2.89-2.21-6-5-9.77-3.44S207,1976,206.24,1977.27Z"/><path d="M280.75,2179.91c4.25-14.49,11.86-20.65,22.75-19.79,2.46.19,5.4,0,6.47,2.76,1.14,3-.21,5.86-2.08,8.24-3.54,4.49-8.9,6.05-13.77,8.47-1.87.93-5.26.67-5.3,3.5,0,3.15,3.4,3.66,5.55,4.11,9.85,2,18.39,8.69,28.92,8.13,2.23-.12,4.57.23,6.63-1.16,1.14-.77,2.65-1.58,3.3.3a2.62,2.62,0,0,1-2.18,3.59c-4.48.65-9,2.7-13.47,1.49-10.57-2.87-22.18-2.39-31.44-9.8-1.53-1.22-5.13-2.33-5.09,2.17,0,1.49.21,3-1.62,3-2.07,0-2.25-1.91-2.33-3.54-.19-3.62-.42-7.23-.51-10.85-.08-3-.3-5.85-2.51-8.25-1.05-1.14-2-2.79-.27-4.15a4.51,4.51,0,0,1,3.09-1c1.61.28,2,1.79,1.66,3.22C277.85,2173.41,280.47,2175.36,280.75,2179.91Zm25.74-13.73c-10-2.25-16.24.05-19.53,6.58-.59,1.16-1.74,2.5-.2,3.55.78.53,2.53.75,3.12.26C294.7,2172.54,301.47,2171.62,306.49,2166.18Z"/><path d="M976.41,2178.15c0,3.86,0,7.72,0,11.58,0,4.88-2.09,6.56-6.91,5.14a85.61,85.61,0,0,1-27.16-13.82c-1.18-.88-2.27-2.81-4-1.72s-.87,2.81-.54,4.38c.79,3.76,1.89,7.56,0,11.29-.58,1.12-.27,3.11-2,3.14s-2.82-1.35-3.2-3.06c-.64-2.88-1.65-5.77-1.69-8.67-.08-5.46-.07-10.89-1.4-16.23a4.8,4.8,0,0,1,1.93-5.43c2.07-1.45,3.21.48,4.62,1.56,7.31,5.62,13.48,12.75,22,16.79,1.23.59,2.43,1.25,3.69,1.79,9.5,4.05,9.82,3.79,9.87-6.64,0-4.54.38-9.09.59-13.64.06-1.36,0-3,2-2.76,1.27.16,1.63,1.47,1.64,2.65,0,4.55,0,9.1,0,13.66Z"/><path d="M326.45,1956.47c2.67,0,2.5,1.91,2.87,3.37,2.88,11.43,2.87,11.42,14.91,11.51a89.36,89.36,0,0,0,14.85-.92c5-.8,5.14-2.7,3.39-6.29-1-2.09-2.29-4.15-.09-6.16a4.76,4.76,0,0,1,2.9-1.39c1.39,0,1.41,1.37,1.47,2.56.4,7,2.71,13.73,3,20.81.08,2.4-.4,6.2,3.09,7.46,1.93.7,3.51,1.29,2.83,3.69a4.84,4.84,0,0,1-3.74,3.59,3.83,3.83,0,0,1-4.71-3,68.3,68.3,0,0,1-1.78-11.4c-.33-4-1.64-5.48-6-4.7-7.12,1.29-14.36,1.88-21.56,2.69-2.08.24-4.43.31-5.31,2.4s.68,3.87,1.94,5.51c1.1,1.45,4,2.28,1.93,4.86-1.13,1.41-2.64,2.67-4.68,2.25-2.58-.53-2.56-2.91-3-4.83a15.37,15.37,0,0,1-.48-4c.12-3.86-.52-6.8-5.49-6.35-1.89.17-3.76-.66-4.11-2.81-.45-2.69,1.85-2.68,3.56-3,6.59-1.4,3.71-5.93,2.44-9C323.22,1959.86,324.42,1958.2,326.45,1956.47Z"/><path d="M950.88,1966.1c2.64-12.47,10-13.2,20-9.3a99.33,99.33,0,0,1,9.26,4.13c9.39,4.78,11.76,11,7.18,20.32-5.38,10.93-19.63,17.65-30.8,14.58-2.77-.77-4.15-2-5.27-5.18-3.44-9.66-1.13-20.38-6-29.68a2.52,2.52,0,0,1,1.65-3.81c1.6-.34,2.24,1.24,2.59,2.56C950,1961.83,950.4,1964,950.88,1966.1Zm15.19-4.72c-9.17.12-11.81,3.24-11.31,11.69.3,5.12,1.67,10.18-.17,15.37-1.15,3.25,1.23,4.78,4.07,4.56,9.87-.74,18.44-4.11,24-12.92,4.44-7,4.18-9.63-2.6-13.87C975.5,1963.33,970.1,1962.25,966.07,1961.38Z"/><path d="M874.36,2081.08c.74-3.5-.3-7.08-.62-10.69-.19-2.21-1.32-4.8,1.16-6.22s5-.16,7.12,1c5.54,3,10.93,6.35,16.28,9.72a47.83,47.83,0,0,0,12.24,5.95c1.55.45,2.7,3.35,4.6,1.3,1.41-1.51,0-3.46-.34-5.19-1-5.12-2.17-10.2-3-15.34-.36-2.26-.14-5.06,3.21-4.61,2.38.32,3.27,2.24,2.18,4.65-1.55,3.43.75,6.16,1.75,9.07,1.52,4.48,3.59,8.69,4.24,13.56.76,5.59-1.52,6.27-6.08,5.61-10.17-1.48-18.56-7.12-27.38-11.65-7.78-4-8.15-4-8.23,4.36a8.91,8.91,0,0,1,0,1.36c-.48,2.93-1.2,7-4.07,7-4,0-3.07-4.1-2.94-7A28.29,28.29,0,0,0,874.36,2081.08Z"/><path d="M954.75,2053.59c7.38-.41,14,2.76,20.35,6.18,9.32,5,11.46,14.23,5.91,23.19-7.13,11.49-25,15.07-36.14,7.47-2.31-1.57-2.43-3.53-2.83-5.74-1.52-8.44-1.43-17.19-5-25.23-.73-1.65-.47-3.25,1.28-4s3.24.22,3.93,1.72A27.72,27.72,0,0,1,944,2063c1.2,5.68.54,11.9,5,16.65a3.36,3.36,0,0,1,.43,1.92c.49,7.45,4.69,10.79,11.64,9.17,8-1.86,13.63-7.12,18.27-13.29,3.26-4.34.63-8-3.17-10.95-6.54-5.13-14.36-5-22-5.8-2.92-.33-7.4,1.84-8.09-3.36C945.6,2054.11,948.15,2053.12,954.75,2053.59Z"/><path d="M849,2071.62c-1.71,0-3.76-1.23-4.9,1s1.3,3.12,2.1,4.59c1.3,2.41,2.82,4.62,5.86,5.3,2.08.47,2.76,2.35,2.73,4.24a3.86,3.86,0,0,1-2.6,3.68c-2.25.79-4.05-.26-5.22-2.16-1.66-2.71-3.09-5.56-4.71-8.29-1.92-3.26-4.22-5.87-8.59-5.53-4.07.31-5.87,2.9-7.26,6.23a30.67,30.67,0,0,1-5.94,9.08,3.23,3.23,0,0,1-4.31.78c-2.07-1.28-.35-2.54.12-4,1.15-3.42,6.89-8-2-9.45a2.16,2.16,0,0,1-1.45-2.75,3,3,0,0,1,3.09-2.25c7,.71,8.87-3.36,9.8-9.28.37-2.36,1.47-5.59,4.86-5.88,2.93-.26,4.57,1.91,5.64,4.22,3.13,6.76,9.19,6.22,15.06,6.43,2,.07,5.57-1.59,5.73,1.37.18,3.21-3.66,2.34-5.94,2.76A8.35,8.35,0,0,1,849,2071.62Z"/><path d="M720,1981.94c-.52-4.63-1.17-10.5-1.87-16.37-.19-1.6-.62-3.22,1.07-4.27,1.85-1.13,2.75.62,4.09,1.3a43.72,43.72,0,0,1,11.84,9.05c4.46,4.7,10.38,6.18,15.84,8.61,6,2.67,7.59,1.32,7.3-5.31a47.29,47.29,0,0,1,1.34-12.78c.51-2.14,1.8-4.17,4.28-3.05s1,2.76-.19,4.28c-3.73,4.87-.86,10.14-.48,15.13,1.06,13.6,1.34,13.47-10.87,8.93-7.5-2.8-14-7.49-21.19-10.83-1.44-.67-2.75-2-4.36-1s-1.09,2.81-.33,4.25c1.36,2.55.13,4.91-.53,7.26-.59,2.06-.38,5.62-3.08,5.33-3.3-.34-3.44-3.61-2.89-6.54A27.65,27.65,0,0,0,720,1981.94Z"/><path d="M420.65,1956.22c3.18,0,6.36-.06,9.54,0a2.27,2.27,0,0,1,2.4,2,2.21,2.21,0,0,1-2.51,2.53c-10.08-1.22-19.63,3.59-29.67,2.49-1.69-.18-4.13-1-4.08,1.8,0,2.18,2.19,2.68,4.12,2.61q6.45-.23,12.91-.61c1.5-.08,3.62-1,4,1,.46,2.36-1.84,2.73-3.65,3-3.37.49-6.77.77-10.11,1.4-2.65.5-7,0-5.61,4.63,1.2,4.15.42,10.39,7.23,10.55a20.33,20.33,0,0,0,15.23-6.44c1-1,2.06-3.16,3.82-1.64,1.94,1.68-.6,2.67-1.23,3.89-3,5.78-8.38,8.82-14.12,11-5.55,2.13-10.92-.75-12.9-6.59-1.74-5.13-3.4-10.31-4.64-15.58-2.07-8.81,2.88-14.63,12.31-15.1,2.94-.14,5.84-.79,8.77-1,2.72-.17,5.45,0,8.17,0Z"/><path d="M601.88,1983c-.42,3.6.76,7.88-3,9.44-3.32,1.39-6.46-.93-9.19-3.15-5.39-4.4-11.67-7.75-15.61-13.83-2.39-3.67-4.23-1.37-5.42,1-2.25,4.47-4.39,9-7.81,12.71-3.9,4.26-6.13,3.95-8.22-1.26-3.14-7.78-1.6-16.81-6.53-24.15-.74-1.1.16-2.86,1.75-3.12s2.39,1.13,2.74,2.48c1.47,5.7,2.91,11.41,4.26,17.13.46,2,.29,4.49,2.88,4.76,2.18.23,2.64-2.12,3.51-3.66,2.23-4,4.42-7.93,6.72-11.85,1.64-2.79,3.15-3,5.81-.52,5.57,5.24,10.84,10.85,17.55,14.84,4,2.36,6,2.22,5.72-2.83a128,128,0,0,0-1.71-16.15c-.43-2.27-.46-3.94,1-5.63a1.8,1.8,0,0,1,2.41-.45c2.12,1.11,1.38,3.11,1.52,4.85C600.79,1970.14,601.35,1976.71,601.88,1983Z"/><path d="M380.61,2174.58c-11.66,1-21.76,9.55-34.19,6.51-1.29-.32-2.65.25-2.82,1.26-.79,4.72,2,8.17,4.8,11.39s5.07.36,6.83-1.39,2.91-4.25,4.57-6.8c1.38,6-3.06,14-7.73,14.91-4.93.93-9.62-3.47-11.28-9.53a77.87,77.87,0,0,1-2.21-16.67c-.37-7,2.41-10.46,9.58-11.51,7.63-1.12,15.31-2,23-3,1.8-.25,3.95-1.11,4.29,1.55.3,2.42-1.66,2.59-3.68,2.79-7.18.7-14.15,3-21.47,2.77a14.13,14.13,0,0,0-4,.89c-2.34.63-4.46,1.66-4.17,4.52s2.81,3.35,5.1,3.43c7.27.27,14.52.37,21.71-1.35C372.7,2173.41,376.64,2172.46,380.61,2174.58Z"/><path d="M42.26,1976c3.35.32,6.38-.57,9.43-1.53a2.68,2.68,0,0,1,3.49,1.33c1,2.15-1.12,2.12-2.18,2.5-6.54,2.37-13,5.52-20.26,2.92-1.66-.6-3.3-.87-3.89,1.18-.44,1.54-.24,3.3,1.83,3.75,1.65.36,3.53.76,2.75,2.87-1.09,2.93-2.08,6.42-4.3,8.23-2,1.67-3.71-1.31-3.63-3.3.49-12.11-2.37-23.89-3.3-35.86-.13-1.64-.15-3.43,1.48-4.2,2.54-1.21,2.06,1.44,2.75,2.53a2.46,2.46,0,0,0,3,.93c7.09-1.67,14.55.58,21.57-2,1.46-.54,3.26-1.08,4.24.74a5.2,5.2,0,0,1-.08,5.23c-1,1.63-2.41,1.76-4.11,1-7.84-3.36-14.7,3.26-22.41,2.31-1.73-.22-1.58,2.37-1.61,3.93-.06,2.54,1,4.51,3.44,5.31C34.3,1975.15,38.14,1976.71,42.26,1976Z"/><path d="M397,2179.48a24.54,24.54,0,0,0,.74-2.63c2-15.46,2-15.27,17.31-16.12,5-.28,7.7,1.7,9.49,5.89,6.65,15.58-6.59,34.05-23.38,32.56-4.64-.42-7.46-2-6.64-7.73,1.05-7.28-.43-14.47-3.14-21.29-.85-2.15-1.64-4.33,1-5,3.17-.82,2.67,2.32,3,4.09C396.09,2172.34,396.44,2175.5,397,2179.48Zm25.28-3.42c-.09-6.31-4.1-9.73-12.7-10-5.11-.16-8.93,4.36-9,10.59-.09,4.75.91,9.57-1,14.19-.49,1.21-1.7,2.46-.1,3.57,1.31.91,2.88,1.63,4.5.86,3.65-1.74,7.66-3.08,10.77-5.54C418.76,2186.56,422.82,2182.92,422.31,2176.06Z"/><path d="M578.14,2168.88c-4.84,5.59-18,9.37-25,6.62-4.85-1.9-6.37-.71-5.8,4.24.23,2,.16,4.06.26,6.09.29,6,2.8,11.27,8.85,12.15,5.42.8,11.25-.57,14.66-6.07.76-1.23.83-3.81,2.94-2.44,1.89,1.23-.1,2.91-.94,4a48.48,48.48,0,0,1-6.29,7.11c-6.33,5.55-14,4.31-18.48-2.81-2.87-4.56-3.79-9.66-3.86-15-.08-6.16-.58-12.14-5.36-16.91-2.25-2.25-.74-3.94,1.79-4.09,11.82-.67,23.5-2,34.81-5.73,1.1-.36,2.5-.2,2.88,1,.56,1.82-1,2.25-2.33,2.6-8.75,2.42-17.51,4.71-26.7,4.77-1.65,0-4.22-.67-4.4,1.85-.16,2.3,1.08,3.8,4,4.45a42.25,42.25,0,0,0,25.87-1.89,6.87,6.87,0,0,1,1.93-.5C577.32,2168.37,577.74,2168.7,578.14,2168.88Z"/><path d="M885.56,2195.79c-10.06,0-16.37-7.09-14.9-15.79.7-4.09.76-8.32,4.51-11.57,6.78-5.87,6.17-5.54,13.3.09,4.18,3.3,9,5.82,12.56,10,3.7,4.3,3.27,8.31-1,11.69C895.53,2193.75,890.37,2196,885.56,2195.79Zm-10.14-16.17c.08,2.3.31,4.54,1.86,6.43,2.91,3.53,15.9,4.13,19.21.92,1.62-1.55,1.66-3,.34-4.77-3-4.06-6.43-7.52-11.38-9.36C878.93,2170.41,875.64,2172.49,875.42,2179.62Z"/><path d="M138.22,2199.93c-6.32-.48-11.3-.63-15.89-3-2-1-3.28-2.39-3.42-4.67-.06-.91,0-2,1.08-2.11,2.33-.26,2.66,1.88,3.78,3.25,2.33,2.84,11.41,2.61,13.88-.09,2-2.18.13-3-1.28-4.21-5.94-5.15-8-11.85-7.44-19.49.57-7.35,11-12.23,17.11-8.12,2.26,1.52,3,3.5,1.83,5.84-.75,1.52-2.05,1.32-3.36.21-3.6-3-7.4-4.92-11.18-.32-3,3.59-1.93,11.46,2,14.95,5,4.38,10.44,8,17.23,8.92,2.27.32,4.74.49,4.73,3.71s-2.77,3.21-4.89,3.5C147.27,2199,142.07,2199.51,138.22,2199.93Z"/><path d="M516.1,2168.29c-1.23,7.29-.67,14.58-.2,21.89.16,2.57,1.43,4.22,3,5.87.9.95,2.48,1.85.65,3.12-1.22.85-2.61.41-3.71-.65a8.91,8.91,0,0,1-2.27-5.59c-.71-5.61-1.29-11.23-1.88-16.85-.47-4.46-1.43-7-7.3-5.45-9.15,2.48-18.61,3.93-28,5.34-3.45.51-3.07,1.79-2.85,4.47.37,4.33,4.07,7.58,3.44,12.06-.2,1.44.65,3.59-1.66,3.86-2,.22-2.8-1.57-2.91-3.16-.44-6.46-.58-12.67-5.45-18.21-1-1.12,1.52-7.44-.47-11.46-.38-.78,1-1.52,1.88-1.42a2.35,2.35,0,0,1,2.11,2.34c0,8.12,5.27,6.67,10.37,6,7.64-1,15.3-2,23-2.71,3-.3,5.08-.75,3.34-4.45a2,2,0,0,1,1.24-2.76c1.34-.56,2.17.27,2.39,1.54.36,2,1.06,3.47,3.48,3.26S516.82,2166.47,516.1,2168.29Z"/><path d="M818.1,1980.09c-6.05-2.75-13.22,0-19.67-3-3.21-1.47-4.12.41-3,3.43,1.3,3.38,2.69,6.73,3.85,10.16.58,1.7,1.1,4.07-1.27,4.55-1.85.37-3.24-1.35-3.52-3.38-1.37-9.9-6.4-18.28-11.09-26.8-1.25-2.29-2.74-5.28-.25-6.69,3.25-1.83,3.48,2.48,5,4.08.85.91,1.08,2.42,1.58,3.66,1.26,3.09,2.63,5,5.59,1.25s7.82-5.37,10.37-9.6c.87-1.45,2.44-2.4,4-1.15,2,1.58.61,3.56-.4,4.77a37.22,37.22,0,0,1-5.62,4.81c-3.38,2.68-2.8,4.08,1.24,5.16,4.92,1.32,10.07,2,14.52,4.84,1.21.76,3.61.61,2.6,3C821.48,1980.57,819.79,1980.22,818.1,1980.09Z"/><path d="M804.53,2201a36.8,36.8,0,0,1-22-8.79c-1.5-1.26-2.52-2.82-1.28-4.72a4.3,4.3,0,0,1,2.57-1.94c2.45-.2,1.56,2.17,2.2,3.41,2,4,14.58,7.49,18.59,5.22,2.53-1.43,1.44-3.17-.18-4.23-5.95-3.87-7.83-10.44-10.78-16.2-3.82-7.46,1.14-14.93,9.35-14.77,1.41,0,3,.13,3.14,1.83.09,1-.34,2.59-1.05,3-3,1.66-7.94,1.73-7.08,6.68,1.08,6.26,3.65,12,9.37,15.75,1.89,1.23,3.57,2.86,5.56,3.89,2.73,1.4,4.34,3.21,3.78,6.41s-3.51,3.23-5.77,3.84A37.38,37.38,0,0,1,804.53,2201Z"/><path d="M40.51,2198.85c-11.84-.25-18.21-4.6-20.77-12.47-2.48-7.63,0-14.78,7.08-20.33,8.55-6.72,8.53-6.67,16.73.72a41.17,41.17,0,0,1,7.34,8.85c2.85,4.54,5.34,9.41,2.26,14.58C49.84,2195.78,44.62,2198.79,40.51,2198.85Zm-17.85-19.06c0,7,7.11,14.12,14,14,7.82-.15,14.33-4.06,14.35-8.61S40.41,2167.26,36.7,2167C30,2166.54,22.65,2173.27,22.66,2179.79Z"/><path d="M145.07,1974.06c-.48-3.62,2.09-6.65,2.87-10.17.26-1.16,1.26-2.4,2.34-2.12,8.05,2.07,17.35-.44,23.86,7.51,2.76,3.37,3.19,6.41,2.12,10-1.69,5.6-13.6,11.44-20.07,10.14C149.37,1988,145,1982,145.07,1974.06Zm12-6.45c-2.37.91-5.84-1.39-7.75,2.17-2.93,5.48,1.62,14,7.79,14.47s15.15-4.24,15.28-8c.15-4.6-6.59-8.66-14.39-8.67Z"/><path d="M214.93,2186c-3.94,3-7,5.69-10.39,7.85-5.24,3.34-10.94,6.77-17,2.48-6.57-4.63-12.64-10-11.07-19.44.29-1.78.09-3.63.27-5.44.93-9.38,7.14-12.41,15.41-7.56,1.2.71,2.56,1.54,2,3.11s-2.17,1-3.47.77c-3.94-.68-8.58-2.6-10.22,3.12-1.49,5.23-2.27,10.48,2.84,14.91,8.07,7,13.61,7.73,23.3,2.29C208.82,2186.85,210.66,2184.23,214.93,2186Z"/><path d="M708,2164a1.89,1.89,0,0,1,1.93-2.26c2-.12,2.75,1.17,3,2.95,1.09,7.25,3.69,14,6.46,20.76.91,2.22,1.77,4.26,4.47,4.54,3,.32,3.38-2.32,4.8-4,4.63-5.48,4.73-12.08,5-18.63.1-2,0-3.73,2.26-4.34,1.89-.53,2.84.78,3.83,2.13,1.39,1.9.82,2.79-.87,4.37-2.56,2.39-2.33,6.21-2.86,9.47-1,5.8-3.62,10.83-6.84,15.46-2.25,3.23-6.19,6.14-9.35,1.22C713.69,2186,712,2174.52,708,2164Z"/><path d="M255.94,2175.22c.1-2.54.45-6-4.5-6.71-1.94-.28-3.16-2.14-1.52-4.1a3.11,3.11,0,0,1,4.77-.48c4.3,3.3,5.26,8.14,4.8,12.79-.68,6.86-3.38,12.89-9.19,17.56-5.18,4.16-8.66,3.17-12.75-1.28-6.28-6.83-7.53-15.23-8.32-23.87-.13-1.52.38-2.91,1.93-3.14,2.38-.34,2.3,1.68,2.45,3.2.35,3.39.32,6.83.94,10.16,1.13,6,6.63,11.41,10.56,10.72C252.51,2188.77,256.44,2183.73,255.94,2175.22Z"/><path d="M881.63,1973.21c-3.37,7.36-8.7,12.82-14.39,17.93-4,3.61-8.16,4.53-12.67.54-10-8.81-10.49-21-12-32.84-.13-1,.31-1.85,1.42-1.84a2,2,0,0,1,1.92,2.31c-.41,5.36,2,10.16,2.92,15.25,2.32,13,12.2,16.7,22.21,8.35C874.74,1979.86,878.12,1976.45,881.63,1973.21Z"/><path d="M899.68,1991.22c-4.9.15-8.78-1.73-10.2-6.42-2.16-7.11-5.06-14-5.86-21.54-.16-1.47-.33-2.9,1.42-3.18s2.55,1.19,2.51,2.55c-.18,5.89,2.59,10.93,4.29,16.29,2.63,8.24,8.58,10,15.35,4.49,1.39-1.14,2.8-2.27,4.28-3.28a1.45,1.45,0,0,1,2.28.54c.23.52.15,1.64-.2,1.88C909.05,1985.68,906.23,1991.55,899.68,1991.22Z"/><path d="M566.37,2052.47a42.72,42.72,0,0,1,19.72,4.31c7.65,3.59,9.65,9.94,4.46,16.6-8.17,10.5-19.53,16.74-31.59,21.67-3.48,1.42-5.88-1-4.32-4.2,3.75-7.86,2.13-15.48-.1-23C551.38,2057.05,554.94,2052.19,566.37,2052.47Zm1.86,6.81c-9-.46-9.89-.08-9.24,3.83,1.14,6.92,2.83,13.74,4.19,20.62.61,3.09,2.17,4.06,4.69,2.06,6-4.81,12.14-9.57,17.84-14.77,3.64-3.32,2.38-6.36-1.82-8.52C578.22,2059.59,572.07,2059.59,568.23,2059.28Z"/><path d="M639.8,2088.43c-10.95-6.12-16.86-15.93-21.88-26.4-1.6-3.32-2.77-7.33-.3-10.39s5.85-.14,8.81.44c.89.17,1.77.44,2.64.69,1.95.55,5,.87,4.77,3.06-.29,3.26-3.46,1.92-5.53,1.84-4.92-.18-5.48,2.12-3.61,6,3.93,8.15,10.1,14.48,16.71,20.43,5.29,4.75,4.62,8.61-2.06,11.37-11.48,4.73-21.81,1.42-31.61-4.8-2.23-1.42-3.84-4-1.68-6.33s4-.15,5.59,1.56c5.51,5.79,12.52,5.57,19.6,4.57C634,2090.07,636.6,2089.2,639.8,2088.43Z"/><path d="M387.32,2089c-1.36-7.81-1.24-16.53-3.8-24.79-.73-2.35-.31-4.48-.29-6.71,0-2.08-1.63-4.86,1.47-5.95,3.29-1.17,3.43,1.85,4.4,3.8,1.06,2.14,3,1.25,4.78,1.26,10.24.07,20.31-2.55,30.57-1.87a33.84,33.84,0,0,1,4.75.31c2.3.49,2.39,2.5,2.35,4.34-.05,2.53-2,2.14-3.47,1.81-12.09-2.65-23.81,1.24-35.72,1.93-2.9.17-4,1.26-3.27,4.36,1.92,7.79,0,16.38,5.37,23.53,1.71,2.27-.84,4.46-2.85,5.24-2.52,1-4.41-.55-4.88-3.21C386.55,2092,387,2090.85,387.32,2089Z"/><path d="M447,2074.76c.15-5.18,8.67-16,12.33-15.71,6.59.59,18.87,12.91,18.57,18.63-.3,5.88-8.5,11.55-16.16,11.18C453.72,2088.48,446.77,2081.83,447,2074.76Zm15.29,7.47c3.66-1.46,9.54.66,10.86-5.37.68-3.14-7.39-9.67-11.28-9.19s-8.91,1.36-8.87,6.43S456.66,2082.07,462.26,2082.23Z"/><path d="M502.55,2073c0-3.59,1.1-7.21,0-10.79-.7-2.22-1.42-5.13,1.8-5.29,3-.16,4.7,2.2,4.42,5.56-.41,5-.29,10-1.08,14.89-.77,4.74,1.21,6.42,5.42,6.22,7-.34,14-.84,20.67-3.27a17.55,17.55,0,0,1,3.93-1c1.87-.23,3.84,0,4.42,2.16a3.48,3.48,0,0,1-2.43,4.34c-9.69,3-19.37,6.31-29.79,5-4.84-.61-7.12-3.58-7.3-8.27C502.45,2079.31,502.55,2076.14,502.55,2073Z"/><path d="M400,2070.64c8.29,1.39,16.65.16,25,.51,1.81.08,3.62-.21,5.26.72.79.45,1.56,1.13,1.11,2.14a2,2,0,0,1-1.41,1.07c-10.27-.14-20.29,4.41-30.71,1.55-2.29-.63-3.79-1.77-3.42-4.19S398.13,2070.16,400,2070.64Z"/><path d="M840.89,2165.62c-.13-2,.77-3,2.2-3.33,2.07-.48,3,.91,3.17,2.63.68,5.57,1,11.19,1.89,16.74.61,3.91-.45,9.23,6.26,9.23,1.52,0,1.84,1.29,1.11,2.41-1.22,1.87-2.37,4-4.88,4.41-2.3.32-4.11-.67-4.54-3.08q-1.5-8.37-2.71-16.79C842.77,2173.6,843,2169.19,840.89,2165.62Z"/><path d="M907.13,1973.4a112.54,112.54,0,0,0,19-.7c1.68-.21,4.14-.45,4.13,2.2,0,3.07-2.56,1.66-4.12,1.77-9,.65-18.1,1.08-27.11,2a14,14,0,0,1-5.91-.72c-1.63-.53-3.24-1.34-2.84-3.21.46-2.17,2.44-1.34,4-1.32C898.53,1973.44,902.83,1973.4,907.13,1973.4Z"/><path d="M763.27,2163.5c2.3.78,2.55,3,2.92,4.9,1.19,6,2.15,12,3.2,18,.3,1.72,0,3.8,2.24,4.48,1.54.45,2.46,1.1,1.56,2.84a4.37,4.37,0,0,1-3.59,2.74,2.89,2.89,0,0,1-3.35-2.63c-1.27-6.63-2.37-13.3-3.65-19.93-.47-2.43-1.41-4.76-1.84-7.19C760.47,2165,761,2163.48,763.27,2163.5Z"/><path d="M703.41,1986.73c-1.49,1.75-2.29,3.29-3.56,4-1.92,1.17-3-.76-3.63-2-2.06-3.89-1.84-8.37-2.81-12.55-.87-3.72-.27-7.7-2.38-11.23-1.15-1.94-1-4.29,1.72-4.79,2.24-.4,3,1.41,3.24,3.46.53,4.48,1.35,8.93,1.74,13.42C698.09,1981.13,699.65,1984.43,703.41,1986.73Z"/><path d="M181.79,2081.37c.51-4.26-1-9.31-1.63-14.44-.24-2-1.27-4.19,1.33-5.34,1.92-.86,3.48.15,4.89,1.44,11.61,10.59,25.56,16.75,40.39,21.22,2.17.65,4.76,2,5.9-.89.9-2.24-.57-4.37-2.76-5.61-7-4-3.62-12.78-8.29-17.92-.61-.67.66-2.1,1.89-2.32,1.53-.28,2.89.34,2.93,2a23.81,23.81,0,0,0,8.09,17.87c1.95,1.8,4,5.63,2,8.74-2.2,3.4-6.27,2.22-9.44,1.89-12.58-1.32-23.88-6.51-34.87-12.43-1.54-.83-2.92-2.83-4.78-1.8-2.23,1.23-1.1,3.64-1,5.6.1,2.46.93,5-.66,7.29-.89,1.27.36,4.41-2.65,3.72-2.33-.53-1.72-2.82-1.56-4.62C181.63,2084.63,181.67,2083.5,181.79,2081.37Z"/><path d="M27.73,2075.64c-6.21,7.63-1.1,8.77,4.12,10,3.2.76,6.34,1.79,10.08,2.87-.93-5.45-5.31-7.79-7.58-11.5-4-6.48-3-12.5,3.06-17.48,7.66-6.29,15.56-6.91,21.56-1-7.48-.86-14.28-1.52-20.06,3.71-4.93,4.46-5.43,9-1,14,4.87,5.46,11.16,8.29,18,10,2.39.6,5.26.45,4.74,4.27s-3.23,2.88-5.7,2.89c-10.34.05-20.38-1.27-29.54-6.44C19.45,2083.54,19.78,2079.8,27.73,2075.64Z"/><path d="M108.37,2075.43c7.19-.12,13.34,5.07,20.64,3.16.3-.08,1.3.95,1.22,1.18a3.86,3.86,0,0,1-1.46,2c-2.09,1.13-4.42.94-6.68.59a142.12,142.12,0,0,0-21.7-1.7,15.17,15.17,0,0,1-7.77-2.3c-3.42-2.07-3.76-5.24-.12-6.7,4-1.59,7.47-4.07,11.48-5.53,1.22-.44,2.4-1.8,3.35.12.64,1.29-.57,2-1.3,2.81-1.4,1.63-5.43,1.55-4.43,4.28C102.55,2075.94,105.72,2076.45,108.37,2075.43Z"/><path d="M82.5,2054.34c2.1,0,2.44,1.43,2.84,3.09,2.41,10.07,4.93,20.1,7.37,30.16a8.62,8.62,0,0,1,.28,3.26c-.21,1.27-.53,2.85-2.38,2.73a2.21,2.21,0,0,1-2-2.38c.37-12-5.15-22.68-7.88-34C80.37,2055.6,80.68,2054.55,82.5,2054.34Z"/><path d="M148.5,2056.15c2,.52,2.24,2,2.46,3.65.8,6,1.85,12,2.58,18.08.37,3.07-.62,6.28,2,9,1.32,1.36.12,3-.93,4.21a1.81,1.81,0,0,1-2.44.4c-1.46-.83-.8-2.25-1.06-3.47-2-9.32.25-19.43-5.3-28.16C144.66,2058,146.61,2056.65,148.5,2056.15Z"/><path d="M932.1,1973c-12.27,4.68-23.7,7.91-36.06,6-1.67-.25-3-1.22-3-3.09,0-1.53,1.3-1.85,2.39-1.54,11.89,3.34,23.15-1.13,34.65-2.64C930.24,1971.71,930.45,1972,932.1,1973Z"/><path d="M703.49,167.84c-1.49,2.72,2.23,8.15-1.65,8.65-5.18.67-3-5.34-4-8.33-2.07-6.52-1.65-13.67-5-19.94a4.15,4.15,0,0,1,2.47-6.25c2.81-.78,1.87,2.28,2.22,3.77,1,4.37,2.85,3,5.33,1.12,7.66-5.74,15.69-10.26,26-9.09,6.54.75,8.49,2.76,6.88,9.15-1.09,4.32-4.16,7.2-7.89,9-6.21,3-4.19,5.7-.26,8.79,6.71,5.26,18.59,6,26,1.25,2.09-1.33,4.23-2.94,5.9-.32s-1.1,4-2.87,5.37c-11.09,8.44-23.82,8.58-33.47-1.23-5-5.09-11.49-6.51-16.82-10.37-2.37-1.72-3.25-.13-3.26,2.06S703.32,165.57,703.49,167.84Zm10.45-14.26c4.59-.9,10-1.05,12.16-6.7.73-1.95-1.27-2.87-3.38-2.92-4.21-.1-14.65,5.16-14.14,7.38C709.2,154.05,711.71,153.25,713.94,153.58Z"/><path d="M997.37,154.26c4.87.25,9.74.45,14.6.79,1.72.12,4,.1,4.08,2.5s-2.1,2.77-3.86,2.89c-6.65.46-13.06,2.58-19.85,2.45-3.65-.07-9.06-1.49-10.12,4-.9,4.64,7.33,10.65,12.67,9.85,2.26-.34,4.41-1.34,6.66-1.86,1.57-.37,3.44-2.39,4.76-.17,1.09,1.83-.79,3.3-1.81,4.71-5.8,8-18.31,8.1-23.65-.49-6.81-11-9.68-23.08-6.71-36.09.43-1.86,1.05-3.63,3.07-4,9.94-1.93,19.65-6.19,30.12-3,2.19.67,5,.71,4.45,4-.5,3.12-3.08,2.82-5.45,2.82a73.45,73.45,0,0,0-19.82,2.32c-2.91.81-7.34.69-6.92,5.61.43,5.14,4.67,3.73,7.74,3.92,3.33.21,6.68.05,10,.05Z"/><path d="M72.53,152.44c-2.91,5.74-3,11.76-1.88,17.95.38,2,.88,4.64-1.7,5.23-3,.68-2.85-2.23-3.26-4.11-2-9.16-.84-19.07-6.79-27.32-1-1.32.18-3.15,1.89-3.57,1.46-.35,2.46.94,2.69,2.19,1.86,10.15,3.71,6,8.22.92s12.56-3.94,19-3.69c2.23.09,7.45-2.79,8.08,2.56.6,5.06-1.78,9-6.89,10.74-1.93.64-4.44.61-4.38,3.38s2.71,2.67,4.57,3.31c4.84,1.67,9.77,3.11,14.53,5,4.44,1.76,8.38,2.42,11.69-2,.92-1.23,2.44-2.29,4-1.09,1.71,1.33.4,2.83-.4,4-3,4.49-7.25,8.72-12.58,7.39-14.16-3.54-28.16-8-37-21.1,4.76-.72,9.16-2.16,13-5.82C77.24,144.2,75.23,145.21,72.53,152.44Z"/><path d="M358.22,26.93c.39,8.62-1.12,9.67-9.22,8A53.56,53.56,0,0,1,334.1,29c-5.38-2.93-9.82-3.14-11.21,4.49A22.18,22.18,0,0,1,320.4,40c-3.08,5.6-7.8,5.74-11.19.3C304,32,302.37,22,297.18,13.65c-1.4-2.27.64-4.59,2.77-5.58,2.42-1.12,3,1.4,3.64,2.89,2.57,6.15,5.06,12.33,7.32,18.59.63,1.74.67,3.76,3.06,3.59,2.24-.17,2.54-2.24,3-4,3.9-14.08,3.9-14.08,17.4-7.61a11.19,11.19,0,0,0,2.82,1.2c4.64.76,9,7.61,13.14,3.46,3.59-3.59.08-10,.11-15.25,0-1.19-1.11-2.36-1.3-3.59C348.79,5,349,2.39,352,2c2.74-.33,4,1.54,4.28,4.28C356.83,13.18,357.56,20.06,358.22,26.93Z"/><path d="M488.51,159c4.29-8.84,8.28-16.15,16.89-19.67,4.43-1.81,9.41-4,13.12-1.61,4,2.61,1.88,7.94.81,12.14-.5,2-.81,4.19-1.89,5.85-2.53,3.84-2.28,5.91,2.77,6.45,1.39.15,2.74,1.28,4,2.16s.68,3.49,2.73,3.19c2.78-.4-.65-2.79.7-3.37a12.17,12.17,0,0,1,5.2-.92c1.35,0,2.09,1.36,2.21,2.77.2,2.14-1.08,3.33-2.83,4.13-7,3.21-12.94-1.32-19.29-2.69a42.16,42.16,0,0,1-7.91-2.71c-8.54-3.79-13.66-2.92-13.93,7.72,0,1.3-.26,3.41-2.58,2.86-1.66-.39-2.36-1.82-2.61-3.45-.79-5.33-1.69-10.65-2.37-16-.53-4.12-1.14-8.18-3.88-11.51-1.95-2.38-1.57-4.39,1.11-5.56s3.79.81,4.26,3C486.15,147,487.15,152.3,488.51,159Zm10.82-7.59c-.25,1.26.53,1.85,1.47,2.37,4.05,2.21,12.89-1.95,14-6.49.62-2.6-.81-4-2.81-4.7C509.3,141.61,499.55,148.57,499.33,151.42Z"/><path d="M242.74,143.35a106.24,106.24,0,0,0-14.83,15.8c-3.25,4.41-6.84,6.28-12.36,2.59-4.84-3.24-10.62-5-15.76-7.87-4.42-2.44-5.45-.82-5.39,3.44.08,4.86-.08,9.73-.15,14.6,0,1.36-.44,2.8-1.91,2.81a2.81,2.81,0,0,1-2.5-2.57c-1.37-8.29-2.08-16.73-6.27-24.32-.74-1.34,0-2.67,1.7-2.43,2.59.35,3.67-.88,4.52-3.1,1.45-3.77,3.41-3.9,6.11-.8,5.13,5.88,12,9.56,18.64,13.3a8.7,8.7,0,0,0,11.13-1.65,141,141,0,0,1,14.71-13.36c4.35-3.58,6.12-2.46,7.23,2.33a108.27,108.27,0,0,1,3.1,19.69c.21,5,.23,11,6.57,13.38,1.85.7,2,2.18,1.33,3.76-1,2.39-3,2.62-5.17,1.86-4.41-1.57-4.84-5.71-5.57-9.41C246.09,162.45,244.56,153.45,242.74,143.35Z"/><path d="M598.75,24.33c5.38-11.1,13.87-15.69,25.17-15.92,3.21-.06,7.43-1.06,8.55,3.19s1.09,8.72-2.45,12.23a12.11,12.11,0,0,1-1.86,1.38c-9.3,6.3-9.25,6.24-.56,12.91,2,1.53,3.41,3,5.71.41a3.56,3.56,0,0,1,6,.31c1.69,2.51-.72,4-2.38,5.66-4,4-8,2.37-12,.23-5-2.67-9.11-6.6-14.66-8.44-5-1.64-8-1.9-7.92,4.63,0,1.92.23,5-2.27,5.08-3.47.13-2.14-3.27-2.61-5.3-1.89-8.17-1.85-16.77-5.51-24.54-.86-1.82-1.19-3.67,1.16-4.4s2.88,1.11,3.27,3C597,18,598,21.16,598.75,24.33Zm28.77-8.7c-7-4-12.76-1.35-17.94,2.63-2,1.53-4.69,4.47-3,7.14s5.4,2.5,8.31.87C619.79,23.53,623.55,19.48,627.52,15.63Z"/><path d="M792.1,138.2c2.32,0,5.66.06,9,0,2.32-.06,4.25.42,4.3,3.15s-1.91,3-4.23,3.07c-7.95.32-16-.11-23.82,1.57-2.39.52-6,.51-5.65,3.87s3.56,3.68,6.65,3.29c7.88-1,15.78-1.84,23.67-2.74,1.93-.22,4.62-1.42,5,1.53.27,2.12-2.53,2.59-4.07,2.54-7.84-.25-15,3.45-22.62,3.82-2.47.12-5.16.1-5.74,2.7-.93,4.19,2.63,7,4.49,10.2,1.27,2.21,3.43,2.76,6,1.87,2.09-.71,4.15-5.12,6.2-1.56,1.57,2.75-1.49,5.8-3.64,7.87-2.95,2.84-6.4,2.95-9.7.16-3.66-3.1-5.66-7.21-7.31-11.6-.88-2.35-.84-5.58-3.42-6.66-4.51-1.88-5.94-3.56-1.36-7.18,1.48-1.16-.22-3.27-.65-5-1.58-6.26,1-10,7.41-10.6C778.77,137.91,784.88,136.42,792.1,138.2Z"/><path d="M584.91,176.8c-16.87,2-26-9.27-35-20.54-1.65-2.06-2.73-5.37-.25-6.9,3-1.81,3.71,1.29,5.14,3.61,4.68,7.59,11.27,13.09,20.12,15.49,6,1.64,8.78-.85,8.8-6.81,0-4.85-.82-12.4,4-12.6,5.22-.22,2.07,7.69,3.85,11.43,3.18,6.68-.07,12.86-1.31,18.72-1.85,8.73-3,16.82.92,25.11,1.05,2.24-.41,3.94-1.93,5.42a2.93,2.93,0,0,1-3.51.79c-2.28-1.21-1.94-3.34-1.64-5.44a38,38,0,0,0-.57-14.51c-.75-3.17-.65-6.63,1.8-9.54a6.27,6.27,0,0,0,1.62-4.12c-.28-2.45,1-5.67-1.22-7.12-1-.67-5.19.47-2.24,3.94C584.32,174.7,585.46,175.39,584.91,176.8Z"/><path d="M390.92,4.63c2.65-.35,3.62,1.48,5.13,2.32,5.27,2.93,7.16,10.38,14.4,10.71.6,0,1.78,1.66,1.6,2.2-1.32,4.09,1,6,3.95,8.1,3.12,2.25,2.83,5.78.37,8-2.65,2.43-4.26-.31-6-2.38-3.86-4.54-6.42-11.62-15.1-6.9-4.12,2.24-5,5.27-5.9,9.11-.61,2.63-1.5,6.59-4.64,6.07-3.87-.64-3.2-4.64-2.66-7.73,1.35-7.84,2.93-15.65,2.74-23.66C384.67,5.8,388.35,5.53,390.92,4.63Z"/><path d="M943,31.08c1.19-6.12-1.14-11.22-1.73-16.46-.26-2.37-.21-4.15,2-5.08a4.69,4.69,0,0,1,3.63-.13c2.43,1.47-.35,3.07-.23,4.48.43,5.33,1.74,10.6,2,15.93.48,9.81-1.07,10.75-9.67,6.39-6.36-3.22-12.53-6.82-18.91-10-4.34-2.14-7.38-2.54-6.15,4.39.75,4.22,2,11.75-2.88,12.07-6.32.42-3.19-7.08-4.22-11.12s-1.79-8-2.71-12c-.56-2.41-2.39-5.11.79-6.83,2.69-1.46,5.39-.68,8,.88C922.75,19.41,932.64,25.08,943,31.08Z"/><path d="M226.34,32.4c-.25,7.86-6.91,15.91-14.74,17.78-5.81,1.38-14.84-2.83-18.1-9.15a37.52,37.52,0,0,1-4.43-19.24c.18-3.65,2.12-6.31,4.83-8.39,2.18-1.66,4.78-2.47,6.76.26s-.45,3.63-2.36,5.11c-5.55,4.3-3.94,18.46,2.23,21.56,3.07,1.54,4.16-.26,4.89-2.79a26.67,26.67,0,0,1,6.4-11.28c2.5-2.56,5.36-5.31,9.4-3.36C225.08,24.76,226.53,28.23,226.34,32.4Zm-14.6,6.28c.24,1.89-.22,4.63,2.33,4,4.2-1.08,6.41-4.71,7.58-8.67.52-1.75-1.17-2.76-2.83-2.63C214.22,31.7,212.62,35,211.74,38.68Z"/><path d="M163.73,29.19c.52,4.64-1.42,6.17-5.87,5.16-7.78-1.75-15.45-3.73-22.77-7-1.94-.86-4.26-2.75-6.38-.93-1.89,1.62-.15,3.85.06,5.8.31,2.91,2,7-1.89,7.84-4.28.92-3.63-3.85-4.82-6.45-2.25-4.91-.47-10.69-3.82-15.47-1.27-1.82-.14-4.44,1.93-6.1,2.68-2.17,4.08.12,5.87,1.45A78.31,78.31,0,0,0,150.59,25.9c4.62,1.36,5.57.18,4.8-4.21a114.27,114.27,0,0,1-1.47-12.92c-.08-1.41.65-3.22,2.5-3.38s2.85,1.56,2.88,3C159.43,15.64,162.24,22.31,163.73,29.19Z"/><path d="M989.51,33.56c-.74-5.39-1.48-11.24,4.63-13.37,5.59-1.94,11.3-.09,15.06,4.79,3.29,4.26,3.24,9.2.24,13.68-4.72,7.07-23.6,11.35-32.21,7.52-9.57-4.26-15.1-16.41-12.13-27.16.6-2.15,2.14-4,3.3-6,1.41-2.4,3.53-3.34,5.69-1.37s.1,3.6-1.29,5.09a15.12,15.12,0,0,0-3,16.47c2.5,6.18,9.57,7.49,15.31,8.53C992.63,43.09,989.28,36.92,989.51,33.56Zm10-6c-1.92.14-4.83,1.17-4.75,5.13.08,3.51,1.58,7.11,5.66,6.74,3.32-.29,7.31-1.4,7.31-6.3C1007.68,28.54,1004.52,27.84,999.46,27.56Z"/><path d="M67.88,40.53C72.91,32.38,71.63,21,80,13.18c4-3.76,6.33-2.88,8.17,1.05,2.3,4.91,5.64,6.76,10.93,6.17,3.05-.34,5,1.87,2.27,3.94-5.51,4.17-2.19,7.5.13,11.07,1,1.49,2.45,2.63,3.55,4.05,2,2.55,2.46,5.61-.37,7.41s-4.82-.91-6.15-3a34.07,34.07,0,0,1-3.94-8.29c-1.14-3.84-3-7.11-7.21-6.65-4.53.49-9.13,1.89-10.41,7.53a31.87,31.87,0,0,1-2.46,7.26,3.4,3.4,0,0,1-4.63,1.56C68.14,44.5,68,42.94,67.88,40.53Z"/><path d="M860.63,155.42c.2-5.72-3-9.76,1.66-12.63,1.6-1,3.74-1.71,4.94-.06,2.78,3.82.65,7.73-.2,11.73-1.17,5.49-1.66,11-3.94,16.36-2.72,6.38-6.9,11.24-13.69,11.73-6.21.44-9.57-4.12-12.38-9.74-3.64-7.24-5.82-15.44-12.36-21.12-2.56-2.22-3.33-5.3.32-7.72,3.37-2.25,4.75-.41,6.39,2.53,4.44,8,6.7,17.14,12.75,24.33,4.11,4.9,7.7,5,11.74-.1S859.42,159.15,860.63,155.42Z"/><path d="M26.39,50.51a23.76,23.76,0,0,1-15.94-4.28c-3.5-2.31-2.59-5.22-1-8A3.51,3.51,0,0,1,12,37c1.07-.06,2.23.87,2,1.89-1.9,7.95,4.14,5.57,7.83,6a14.4,14.4,0,0,0,5.36-.3c4.49-1.22,9.68-2.83,11.6-6.81,2.24-4.63-4.45-5.21-6.35-8.32-1.16-1.91-3.33-3.18-4.76-5C24,20,20.83,14.52,23.83,9,27.17,2.81,33.61.38,40.67,0c2.69-.14,4.7.59,4.84,3.55.16,3.43-2,4.1-5,4.11-4.57,0-10.6-.59-12.29,4.14-1.59,4.46,3.35,8,6.32,11.43a73.44,73.44,0,0,0,5.81,6.15C47.39,35.82,46.89,42,39,47.34,34.38,50.41,29.2,50.19,26.39,50.51Z"/><path d="M47.32,148.12c-8.83,2.23-17.25,6-26.48,5.45-4.29-.26-5.69,1.59-4.84,5.54,1.07,5,2.28,10,3.32,15,.41,2,1.19,4.58-1.74,5-2.54.38-3.49-1.93-3.57-4.09-.45-12.61-2.95-24.92-5.45-37.22-.59-2.93.56-5.25,3.17-4.85,7.77,1.21,15.36-1.1,23-.55,2,.14,4.6.23,4.77,2.84.18,2.78-2.23,2.9-4.39,3-5.51.33-10.77,3-16.47,1.65-2.13-.52-4.36-.62-4.78,2.23-.37,2.52,1.56,3.72,3.61,4.32,6.11,1.79,12.36.7,18.31-.44C40.1,145.28,43.51,146.59,47.32,148.12Z"/><path d="M455.52,146.64c-2.93,5.25-7.13,5.1-10.93,5.84s-8.87,0-10.34,4.69c-1.24,4,6.69,16,10.55,17.65,5.47,2.34,8.68-.19,11.15-4.81.4-.76,1.48-1.16,3.14-2.38-.28,8.54-4.9,12.88-11.3,14.34-6.19,1.42-9.25-4.25-11.86-8.67-2-3.43-2.8-7.6-4.13-11.44-.49-1.45-1.06-2.88-1.43-4.36-.56-2.28-6.69-1.15-3.83-4.62,4.19-5.08,1.48-16,13.33-15,7.31.65,14.65-1.78,21.86-3.51,1.74-.42,4-1.27,4.71.9,1,3-2.07,3.26-3.76,3.57-7.82,1.43-15.7,2.54-23.55,3.77-2.4.37-6-.25-5.25,3.72.65,3.63,3.33,3.42,6.57,2.59C445,147.76,449.78,147.46,455.52,146.64Z"/><path d="M548.59,6.12c5-1.34,10.7,1.26,16.6,1a3.9,3.9,0,0,1,3.9,2c.81,1.82-.65,2.74-2,3.59-.64.41-1.72.93-1.73,1.4,0,11.71-9.88,8.54-16.1,10.2-2.94.79-4.14,1.29-3.43,4.22.6,2.49,1.14,5,2,7.42,1,2.86-.32,4.55-2.74,5.39-2.81,1-3.08-1.09-3.77-3.26-1.87-5.9-1.84-12-2.93-18-.18-1,.31-2.08.15-3.06C536.83,6.74,536.81,6.74,548.59,6.12Zm15,8.58c-7.51-2-13-.58-18.44-1a1.73,1.73,0,0,0-1.78,2c.08,1.24,1,1.59,2,1.93C551,19.57,556.32,19,563.64,14.7Z"/><path d="M664.59,182.41c-14.45,1-27.61-16.76-26.24-26.84.66-4.84,1.88-9.85,6.59-11.36,6-1.91,12.09-.27,17.34,3.41a2.93,2.93,0,0,1,.75,2.67c-.24.69-1.44,1.23-2.32,1.44a3.84,3.84,0,0,1-2.21-.48c-5.74-2.49-11.73-3.08-14.65,3.3-3,6.59,1.22,12.32,6.22,16,6.38,4.71,14.12,5.89,22,4.09,3.77-.86,5.42-3.52,5.41-7.36,0-2-.16-4.87,2.63-4.49s1.62,3.37,1.56,5.2C681.37,177.5,675.36,182.49,664.59,182.41Z"/><path d="M445.21,41.92c-7.49-.52-14.42-1.87-19.9-7.35-1.24-1.24-3-2.76-1.57-4.54s2.54.28,3.81.93a43.11,43.11,0,0,0,5.66,2.21c3.36,1.17,7.81,3.23,9.78-.24s-3.48-4-5.38-6c-10.26-10.75-5.81-14.84,4.5-21.71,1.66-1.11,4-2,5.3.58,1.12,2.2-.9,2.88-2.36,4-9.49,7.27-8.81,11.64,2.41,16.26,2.84,1.17,5.66,2.4,8.59,3.28,2.15.64,5,.22,4.87,3.56-.12,2.62-1,5.28-3.84,6.13C453.19,40.19,449.17,41,445.21,41.92Z"/><path d="M824.09,27.94c-.07,4.89.12,9.76,1.9,14.39.85,2.21.64,4.11-1.11,5.58a3.16,3.16,0,0,1-2.74.47c-2.28-1.1-2.27-3.41-1.77-5.39,1.3-5.05-2.12-9.37-1.91-14.36.14-3-3.24-3.64-5.92-3.24-8.38,1.25-16.74,2.65-24.79,5.37-5.63,1.9-4.22,5.62-1.8,9.14,1.22,1.76,3.06,3.38.41,5.05-3.15,2-4.51-1.09-4.94-3-1.73-7.7-3-15.5-4.31-23.29a2.87,2.87,0,0,1,1.59-2.24c2-.64,2.86,1,2.92,2.55.2,5.37,3.69,5.27,7.55,4.86q11.05-1.2,22.13-2.28c1.87-.18,4.16-.27,3.46-2.78s-.77-3.81,2-4.52,3.52,1.45,4.94,2.82C825,20.2,824.61,24,824.09,27.94Z"/><path d="M661.27,25.72a6.57,6.57,0,0,1,0-.77c.41-3.4-.67-9.08,3.56-8.82s1.4,5.45,1.58,8.5c.32,5.4,1.36,10.88,4.16,15.32,2.33,3.69,6,7,11.54,5.56s7.07-5.47,7.69-10.36c.73-5.8-2.82-9-7.29-11.36-1.75-.93-3.93-1.1-5.93-1.54s-5.5.82-5-2.85c.41-3.1,3.71-2.11,5.84-2.18,7.52-.23,15.17,6.66,16.38,14.53,1.42,9.26-3.12,17.09-11.32,19.4-6.82,1.93-11.93-1.49-15.06-6.66C664,38.89,661.23,32.65,661.27,25.72Z"/><path d="M947.94,174.16c5.74-.09,9.79-.3,13-3.57,1.23-1.27,3-1.37,3.87.27.75,1.34-.49,2.36-1.67,3-4.71,2.53-8.78,6.19-14.19,7.51a14.88,14.88,0,0,1-13.08-2.79c-7.7-5.7-10.1-25.94-4-33.35,1.69-2.05,3.67-3.51,6.59-3.32,2.34.16,5.06,0,6,2.48,1.06,2.81-2.14,3-3.56,4.18-7,5.76-8.1,9.94-4.7,19C938.6,173.89,944.13,173.91,947.94,174.16Z"/><path d="M742.85,22c-6.61,1.1-12.16,2.23-17.85,1.95-1.78-.08-3.87.14-4.17-2.31-.21-1.75,1-2.89,2.64-3.26,10.4-2.34,20.71-5.52,31.61-3.85,2.72.42,4.93,1.26,2.54,4.26-5.93,7.46-4.7,15.25-1.56,23.24.82,2.07,2.69,4,.94,6.4a3.51,3.51,0,0,1-4.07,1.34C749.73,49,750.6,46,750.3,44c-.77-5-.81-10.13-1.54-15.15C748.21,25.1,747.75,20.65,742.85,22Z"/><path d="M134.29,155.49c.21-7.92,4.58-10.94,15.63-10.84,7.12.07,17.47,10.68,17.05,17.48-.38,6-9.08,12.39-16.61,12.16C141.35,174,134,165.43,134.29,155.49Zm19.59,12.17c3-1.23,8.65-.59,8.66-6s-4.84-8.24-9.22-10.48c-3.52-1.79-7.27-2.34-10.62.94-2.15,2.11-5.4,3.45-4.4,7.36s4,5.88,7.34,7.08C148,167.45,150.69,167.29,153.88,167.66Z"/><path d="M318.54,152c1.41,7.37,3.8,11.62,5.81,16,1,2.29,2.68,4.32,4.86,4.42,2.85.13,4.12-2.56,5.06-5a31.69,31.69,0,0,1,1.89-4.2,1.89,1.89,0,0,1,2.67-.73c1,.61,1,1.75.5,2.73-1.47,3-2.91,6-4.54,8.92-1.21,2.17-2.06,5.21-5.39,4.62s-6.51-1.41-7.91-5.17c-2.75-7.41-4.36-15.21-7.9-22.39-1.6-3.23.66-5.23,3.93-4,8.77,3.3,17.61,2.5,26.51,1.21,1.57-.22,3.33-.65,3.9,1.27.67,2.31-1.38,2.45-2.81,2.48C336.62,152.29,328.61,159.23,318.54,152Z"/><path d="M401.71,145c2.1-2.06-2.76-8.22,2.6-7.89,4.5.27,1.66,5.89,1.57,9.07a73.29,73.29,0,0,1-4.09,23.42c-3,8.1-6,8-12.25,2-7.47-7.19-10.44-17.67-18.76-24.05-1.8-1.38-1.76-3.18-.14-4.6,1.9-1.65,2.48.34,3.35,1.51,5.34,7.18,10.67,14.37,16.1,21.48,1.34,1.76,2.55,4.22,5.46,3.32,2.22-.68,3-2.65,3.45-4.74C400.36,158.28,402.65,152.16,401.71,145Z"/><path d="M895,138.78c3.5,1.48,4.09,4.17,4.79,6.53,1.75,5.87,3.14,11.86,4.75,17.78a25.52,25.52,0,0,0,1.86,5c.83,1.62,3.85,2.4,1.93,5-1.09,1.47-2.58,2.59-4.58,2.29-2.64-.4-4-2.17-4.39-4.69-1.24-8.41-4.35-16.27-6.92-24.3C891.32,143,892.61,140.65,895,138.78Z"/><path d="M335.72,135c3.77.78,10.28-3.74,10.9,2.53.5,5.11-6.4,4-10.45,4.91-6.72,1.54-13.23-.19-19.83-.63-1.6-.11-3.46,0-3.3-2.05.14-1.72,2-2.17,3.56-2.38C322.94,136.51,329.28,135.76,335.72,135Z"/><path d="M860.83,13.72c1.58.31,2,1.47,2.39,2.73,2.67,10,1.53,20.81,6.44,30.39.64,1.24-.73,3-2.38,3.42S864.35,50,864,48.07c-1.85-10.25-2.16-20.77-6-30.67C857.4,15.68,858.76,14,860.83,13.72Z"/><path d="M941.07,1471.16l6.22-11.6c6.21-11.54,26.45-17.34,37.43-10.09,5.42,3.59,4,9.82,1.17,14.21-2.94,4.61-6.68,9.31-13,10.2-2.59.36-5.42,1.26-6,4-.74,3.71,3.13,4.2,5.29,5.69,11.41,7.86,24.5,7.21,37.44,7.19,1.72,0,4-1.67,4.9.88.88,2.38-1.57,3.06-3,4.14-9.1,7-31.31,5.16-43.63-3.86-5-3.68-10.68-6.8-13.8-12.66-.87-1.62-1.81-3.64-4.17-3.09s-2.19,2.82-2.6,4.6c-1.18,5.2-2.26,10.42-3.51,15.6-.44,1.81-1,3.94-3.51,3.66a4,4,0,0,1-3.62-3.81c.94-13.73-1.22-27-4.49-40.3-.65-2.63.49-5.66,3.37-5.86,3.51-.25,3.13,3.31,3.49,5.66C939.78,1460.07,940.24,1464.47,941.07,1471.16Zm27.66-16c-4.33.43-8.84-.36-12.66,2.7-2,1.63-4.28,3.25-3.72,6.07.69,3.38,3.79,2.28,6.16,2.71,6.82,1.23,12.08-2.36,17.69-5.13,1.72-.85,3.85-1,3.25-3.55a4,4,0,0,0-4.14-3.18C973.12,1454.78,970.92,1455,968.73,1455.15Z"/><path d="M133.39,1220.83c-11.37.62-19.5-5.18-27.08-12.11-1.33-1.22-2.11-3.51-4.41-2.72s-1.33,3.11-1.54,4.86c-.61,5,2.18,13.3-4.38,13.43s-4.58-8.07-4.87-13.21a56.54,56.54,0,0,0-7.81-26c-1.57-2.65-2.64-5-1.31-7.92a3.1,3.1,0,0,1,3.85-1.92c3.19,1.06,5.46,3.07,5.76,6.74.17,2.18,0,5.08,2.42,5.71,2.79.73,3.09-2.48,4.27-4.2,7.44-10.91,18.32-13.79,30.59-12.42,8.79,1,11.44,5.51,8.43,13.89a33.42,33.42,0,0,1-13.09,17c-1.71,1.14-4.62,1.62-3.89,4.58.6,2.43,3,2.87,5.13,3.62,6.25,2.25,12.27,2.46,18.21-1.14,2-1.22,4.59-3.29,6.72-.47,2.27,3-.13,5.2-2.11,7.32C144.11,1220.27,139.31,1222.76,133.39,1220.83Zm-10.25-42.48c-4.92,3.12-12,3.08-17.11,7.82-2.49,2.32-3.48,4.45-.3,7,3.67,2.89,8,5.27,12.12,2.56,4.83-3.2,10.37-6.6,11.34-13.16C129.69,1179.18,126.65,1178.71,123.14,1178.35Z"/><path d="M768.16,1222.93c-9.43-1.54-16.9-5.53-24.08-10.2-2.38-1.55-4.74-3.14-7.18-4.59-1.63-1-3.42-1.92-5.28-.54-2.08,1.54-1,3.48-.24,5.11,1.77,3.74,1.5,7.43-2.55,8.56-5.09,1.43-5.11-3.35-5.79-6.61-2.19-10.36-3.63-20.93-9.61-30.11-1.79-2.75-1.37-5.8,1.85-7.21,3.69-1.62,3.84,1.83,4.81,4,2.17,4.91,3.23,5,7.38.48,7-7.67,17-10.79,27.46-9.48,5.14.65,11.09,2.34,11,9.49-.1,7.69-4.09,13.19-11.16,16.08-2.8,1.15-7.15.4-7.72,4.12s4.1,3,6.18,4.58c11.18,8.76,22.85,7.39,34.73,1.45,1.75-.88,3.84-3.4,5.8-.9,2.09,2.69-.39,4.6-2.11,6.42C785,1220.59,776,1221,768.16,1222.93Zm-8.65-40.45c-10-4.47-17.14-1.37-24.1,3.3-1.88,1.26-4,2.24-3.07,5,.87,2.56,3.21,2.6,5.45,2.63C746.29,1193.51,752.07,1188.33,759.51,1182.48Z"/><path d="M29.54,1440.23c14-.43,16.91,2.6,14.27,16.22-1.24,6.38-1.82,9.19,6.64,7.82,11.47-1.85,18.27,6.29,16.42,17.87-2.94,18.41-17.74,27.72-37,23.27-14.55-3.36-14.62-4.13-16.34-19.16-1.46-12.76-.27-25.78-4.51-38.36-2.32-6.91,1.11-9.58,7.92-7.3C21.46,1442.1,25.66,1439.56,29.54,1440.23Zm5,59.66c14.77-.35,23.16-7,26.92-19.64,1.35-4.53-.24-6.44-4.47-7.39-13.24-3-24,3.16-34.53,9.59-2.48,1.51-3,4.1-.09,6.18,1.5,1.09,4.17,1.85,3.82,3.82C24.57,1501.66,30.63,1500.17,34.57,1499.89Zm-15.69-37.52c.51,2.74-2.28,6.52,1.31,8.48,3.92,2.14,6.06-1.93,8.65-3.84a14.86,14.86,0,0,0,4.49-4.69c1.79-3.44,7.72-7.68,2.2-10.82A12.66,12.66,0,0,0,20,1454.09C17.8,1456.53,19.17,1459.49,18.88,1462.37Z"/><path d="M548.07,1485.7c-.43,4.56-1.64,7.12-7.15,5.34-14.12-4.57-28.27-8.88-39.74-19-2-1.77-4.26-4.71-7.31-3.08-2.9,1.55-1.67,5.08-2.12,7.81-.9,5.47,1.76,11.51-2.48,16.43-1.33,1.54-2.07,4.22-5.08,3.17-2.21-.76-4.22-1.95-4.41-4.44-.9-11.55-.21-23.18-3.36-34.63-.9-3.26,3.71-5.18,7.21-6.11,4.46-1.18,8.26-3.41,12.57,1.82,8.27,10,19.29,17,30.55,23.33,2,1.13,4.73,3.15,7.06,1.57,2.81-1.89.17-4.54-.13-6.87-.64-5-1.26-10-1.74-15-.18-2,.4-3.92,2.66-4.38a3.09,3.09,0,0,1,3.95,3C539.07,1465.83,545.32,1475.25,548.07,1485.7Z"/><path d="M362.18,1490.13c-4.23,7.09-11.23,10.17-18.35,11.79-6.07,1.38-9.89-2.81-11.51-8.8-2.58-9.51-4.42-19.27-3.78-29,.35-5.32-6-9.81-1.26-15.2,4.59-5.23,10.11.31,15.16-1.37,12.26-4.08,25.15-2.1,37.74-3.21,2.4-.21,5.89-.88,6.43,2.21.71,4.08-3.65,4-6,4.48-12.38,2.48-24.83,4.55-37.27,6.66-3.14.53-7.16.41-6.93,4.67.25,4.77,4.52,3.44,7.44,3.22,12.6-1,25.17-2.14,37.76-3.09,2.29-.17,5.83-1.6,6.46,1.78.7,3.76-3.07,2.63-5.26,3.42-11.89,4.26-24.7,2.38-36.78,5.86-7.55,2.17-8.28,5.64-6.24,12.28,2.18,7.1,6.4,7.91,12.34,5.63C355.22,1490.26,358,1487.35,362.18,1490.13Z"/><path d="M778.43,1475.18c1.57,4.39-.87,10.66,6.08,13.4,3.27,1.29,2.25,4.87.81,7.45-1,1.76-1.49,4.73-4.52,3.76-2.41-.77-4.75-2.18-4.95-5.16-.88-13.2-9.36-24.79-7.92-38.57.34-3.21-.23-7.59,2.65-8.3,4.3-1.07,4.16,3.59,4.66,6.55s1.23,5.48,5.28,5c9-1,18.05-1.73,27.06-2.76,3.79-.43,3.66-3.76,4.2-6.52.39-2,1.36-3.62,3.64-3.72a3.87,3.87,0,0,1,4.23,3.09c1.16,6.26,5.09,6.37,10,4.95,2.62-.77,5.21-.89,6.21,2.33.91,2.94-.1,4.94-3.47,5.28-3.21.32-4.56,2.3-3.73,5.25a44.41,44.41,0,0,1,1.16,16c-.27,3.15,1,5.45,4.62,6,4.57.66,3.6,3.94,2.24,6.42-1.76,3.22-4.27,2.62-7.16.74-5.33-3.46-6.76-8.61-7.88-14.4-3.59-18.55-3.73-18.51-22.52-15.5-5.29.85-10.58,1.9-15.9,2.22C778.73,1469,777.76,1471.08,778.43,1475.18Z"/><path d="M965.48,1594.23c16.5.39,28.4,4.51,39.18,10.78,12.17,7.07,17.61,19-1.64,32.39-9.45,6.58-19.72,13-32.46,13.58-9.85.43-17-3.83-17-13.3,0-12.1-1.85-23-12.3-31.09-3.39-2.62-.75-5.08,2.37-6.07C952,1597.88,959.83,1593.19,965.48,1594.23Zm-4.86,43.4c-1.77,7.39,2,7.51,9.5,7.11,8.75-.46,15.6-4.88,22.77-8.06s15.75-8.44,16.62-16.64c.92-8.64-9.68-8.65-15.33-11.48-8.31-4.17-17.67-6.47-27.36-4.16-5.06,1.2-8.67,3.24-8,9.52C959.71,1621.4,960,1628.94,960.62,1637.63Zm-6.87-25.92c1.09-4.71,2.63-8.49,6.78-10.41C948.83,1602.94,948.83,1602.94,953.75,1611.71Z"/><path d="M458.29,1460c-11.36,3.52-22.25,8.56-34.14,9.2-6.25.34-7.89,2.67-6.76,8.2.26,1.24.46,2.49.82,3.7,4.11,13.59,4.55,13.79,17.24,7.71,2-1,3.9-2,5.92-2.9,1.6-.68,3.15-.45,4,1.32s0,2.92-1.55,3.87c-5.06,3.22-9.8,7.16-15.22,9.6-6.81,3.07-12.95.86-15.24-6.51-3.82-12.35-7.4-24.94-8-37.87-.47-9.55,10-9.8,15-10.81,10.63-2.15,22-.68,33.07-.36,1.77.06,5.22-.6,5.22,2.61s-3.14,3.5-5.65,3.79c-11.26,1.28-22.51,2.56-33.78,3.7-2.32.23-5.95-1.43-5.79,2.38.12,2.78,3.89,3.23,6.28,3,9.73-.91,19.6.4,29.25-2.2C451.78,1457.61,455.08,1456.8,458.29,1460Z"/><path d="M42.47,1608.85c8.63.34,17-1.58,25.45-2.79,1.94-.28,4.09-.42,4.54,2.06.51,2.73-1.84,3-3.66,3.06-11.23.7-21.62,5.92-33.21,5.33-10.27-.51-11.35,1.65-8.81,12a56.33,56.33,0,0,0,2.28,8.19c2,4.91,5.18,8.66,11.09,9s8.34-3.73,10.94-7.66c1.82-2.75,3.11-8.59,6.33-6.62,4.08,2.5-1.27,6.36-2.35,9.58-1,2.88-3.17,5.48-5.25,7.84-8.07,9.19-19.12,7.77-23.83-3.52-5.77-13.84-7.75-28.59-7.92-43.53-.07-6,4.68-8.54,9.38-8.49,11.78.13,23.3-2.07,34.94-3,2.73-.21,5.54-.47,6.31,2.52.94,3.68-2.33,5.09-5,5.7-11.13,2.53-22.36,4.31-33.85,2.67-2.68-.39-6.28-1.66-6.55,2.79-.22,3.64,3,4.63,5.9,4.79C33.61,1609,38,1608.85,42.47,1608.85Z"/><path d="M45.25,1304c-22.61.6-30,10.4-24.39,30.42,2,7.17.59,17.84,9.32,20s13.49-7.28,19.41-12.45c5-4.37,9.64-9.15,14.6-13.58,3-2.7,6.57-6.12,10.74-4s4.91,7,5.28,11.52q2.24,27.21-22,36.64c-10.45,4-23.76-.85-33.54-13.87-10.82-14.4-14.57-30.67-7.76-48,6.47-16.5,15.47-20.08,32.48-14.34,2.92,1,6.25,1.16,5.95,5.07-.37,4.73-4,3-6.81,2.8C46.72,1304.06,44.88,1304,45.25,1304Zm4.45,61.76c12.84.12,24.76-11.14,24.78-23.16,0-4.9-1.63-7.88-6.31-4.45-8,5.82-15.37,12.39-22.94,18.74-2,1.7-3.69,3.81-2.29,6.71S47.18,1365.87,49.7,1365.77Z"/><path d="M492.65,1205.38c-1.48,9.87-13.4,20.54-21.34,20.42-4.65-.07-8.12-2-9.51-6.4-2.44-7.79-5.4-15.57-6.51-23.58-1.84-13.32,5-21.17,18.54-23.23,6.25-.95,12.41-2.61,18.69-3.27,3.76-.4,8.43.34,8.67,5.23.29,5.79-4.66,3.28-7.72,3.74-8.43,1.27-16.86,2.62-25.25,4.11-2.23.39-4.57,1.55-4,4.31s3.16,2.67,5.39,2.22c8.08-1.6,16.17-3.24,24.44-3,1.88,0,5.11-1.66,5.43,1.77.28,2.92-2.42,4.44-5,4.65-8,.63-15,4.79-22.77,6.44-2.62.55-6.1.54-6.34,4.47-.31,5.08,2.73,9.09,5.46,12.73,2.44,3.27,5-.31,7.23-1.68C482.55,1211.53,487.07,1208.77,492.65,1205.38Z"/><path d="M897.33,1481.12c-3.68,12.55-17.46,21.82-25.25,19.72-6.93-1.86-9.49-7.07-10.65-13.09-1.86-9.59-3.13-19.26-5.3-28.82-1.35-5.93,1.31-9.87,8.82-10.12,11.91-.39,23.8-1.86,35.66-3.24,3.36-.4,6.77-1.47,7.27,3,.41,3.61-2.6,4.3-5.76,4.61-8.48.83-16.92,2-25.39,2.92-2.47.27-6.15-.23-6.19,2.76-.06,4,4,3,6.66,3.28,8.16.82,16.3,0,24.31-.85,1.09,3.49-.92,4.6-3.07,5.19-9.3,2.59-18.49,6.12-28.45,3.74-1.56-.38-4-.62-4.06,1-.16,6.72,1.05,13.6,5.5,18.6,3.34,3.76,8.45,3.15,12.83,0S893,1484.05,897.33,1481.12Z"/><path d="M699.25,1315.47c-2.54,8.55-3.36,15-6.21,20.25-11.13,20.68-26.8,26.39-46.12,9.68-5.82-5-10-12.06-18.18-15.46-3.35,8.36.83,16.14-.07,23.75-.48,4.12.05,10.89-5.81,10.77-6.55-.13-4-6.67-4.65-10.85-1.52-9.38-3.08-18.78-5.27-28-1.24-5.21-.57-9.57,4.17-11.66s9.32-2.22,13.21,3c6.77,9.11,15.79,15.71,25.85,21.08,15.49,8.26,28.12,3.44,33.78-13.37,2-5.91,3.81-11.87,5.91-17.74.71-2,2.23-3.67,4.55-3.72,2.83-.06,2.78,2.41,3.41,4.33,3.89,11.86,8.17,23.64,8.6,36.29.13,3.86-.2,7.5,4.17,9.45,2.43,1.09,4.49,3,2.16,5.71-2,2.33-4.64,3-7.85,1.45-6.67-3.18-6.27-9.42-6.54-15C703.92,1336.33,704.09,1327.22,699.25,1315.47Z"/><path d="M238.86,1461.19c.66-3-.19-6.81,3.78-7,3.37-.19,3.28,2.89,3.68,5.47s1,5.2,2.43,7.07c2.57,3.29-.29,10,4.49,10.39,4.23.32,4.47-6,6.48-9.37,3.06-5.09,6.14-3,9.36-.65,5.37,3.88,10.47,8.17,16.05,11.69,4.58,2.9,7.48,2.62,7.07-4.44-.36-6.18.95-12.46,1.67-18.69.3-2.66,1.46-5.2,4.67-4.68,2.57.42,3.5,2.9,2.95,5.19-2.68,11.2-.85,22.71-2.46,34-.78,5.43-2.63,6.66-7.34,3.86-6.78-4-13.8-7.64-20.43-11.88s-10.6-2.3-12.6,4.83c-1,3.45-2,7.25-6,7.5-4.84.3-4.22-4.53-5.64-7.45C243,1478.65,241.18,1469.67,238.86,1461.19Z"/><path d="M442.54,1329.55a28.26,28.26,0,0,1,0,3.32c-.77,6.69,5.1,16.57-1.84,19.29-6,2.36-14.14-4.37-20.77-8.16-9.58-5.47-18.77-11.63-28.23-17.31-2-1.2-4.15-3.76-6.93-1.39-2.24,1.91-2.15,4.36-1.58,7.1,1.72,8.37,2.31,16.74-.59,25-.7,2-.33,4.79-3.58,4.4-2.05-.24-3.1-1.95-3.45-3.86-2.62-14-5.49-28.06-7.61-42.18-.86-5.7,5-6.47,8.67-8.66,3.39-2,6.21-1.79,8.74,1.42,8.21,10.4,20.64,14.85,31.33,21.69,2.45,1.57,5.15,2.5,6.89,5.07,1.95,2.87,4.62,5.45,8.23,4s3-5.36,3.8-8.57c1.54-6-1.13-11.75-.42-17.61.37-3.09-.38-7.69,4.39-7.37,3.66.24,3.42,4.06,3.35,7.12-.13,5.54,0,11.09,0,16.63Z"/><path d="M356.8,1601.64c4.79,1.25,8.39-2.14,12.23-3.69,12-4.86,22.76-2.45,33.25,4,3.88,2.37,3.63,6.07,2.34,9.22-6.61,16.18-17.44,29-32.76,37.46-5.87,3.24-13.25-.85-15.33-8.52-3-11.18-2.53-23-7.18-34.11C347.33,1601.17,352.59,1600.32,356.8,1601.64Zm24.9,2.78c-2.87.37-7.54.16-11.54,1.7-4.71,1.8-11.09,3.73-10.45,10.33.78,8.16,2.81,16.24,4.8,24.23.83,3.33,3,2.83,5.73.91a106.15,106.15,0,0,0,21.15-20c3.06-3.76,8.61-7.22,6.27-12.83s-9-2.62-13.5-4.34A14.65,14.65,0,0,0,381.7,1604.42Z"/><path d="M230.55,1345c.75-8.19.81-16.32-2.82-23.94-1.56-3.26-.45-5.74,2.14-7.77s5.14-2,8.13-.15c12.2,7.47,24.56,14.66,36.83,22,2.95,1.75,6.15,3.69,9.29,1.48,3.44-2.44,1.29-6,.66-9.17-1.28-6.54-2.43-13.11-3.51-19.69-.36-2.22-.41-4.78,2.44-5.39s4.1,1.83,4.21,4c.69,13.41,7.15,25.61,8.16,38.88.43,5.59.61,9.62-8.54,6.52-14.14-4.77-26-13.55-39.61-19.13-7.4-3-8.8-2.12-7.41,5.3a46,46,0,0,1-2,24c-.6,1.73-.65,3.86-3.2,3.59-2.16-.24-3.15-2-3.35-3.87C231.4,1356,231,1350.5,230.55,1345Z"/><path d="M203.79,1631c-5.54,6.08-9.78,13.34-17.2,17.51-9,5-15.87,2.49-19.62-7.21-4.78-12.35-4.39-25.48-4.08-38.32.13-5.6,6.73-9.54,11.58-8.86,9.24,1.31,18.29-.58,27.38.33,2.42.25,5.71-.12,6.06,3.16.41,3.75-3.32,3.5-5.47,3.63-9,.57-18.06,1.43-27,.7-4.49-.37-7,.23-7.42,4.34-.53,5.25,3.73,4.8,7.23,4.86,6.6.12,13.21.27,19.81.37,3.76,0,8.51-.69,8.4,4.85-.1,4.6-4.63,3.32-7.47,3.5a136.87,136.87,0,0,1-17.06.24c-5.37-.35-9.6-.2-9.42,6.88.22,8.43,4.48,13.9,11,13.43,7.59-.55,13.55-4.64,19.21-9.26C200.65,1630.41,201.28,1629,203.79,1631Z"/><path d="M837.46,1316.78c-4.09,6.07-9.3,3.69-13.39,4.72s-8.61.3-10.09,5.39c-1.34,4.59,1.58,7.94,4.23,11.12,1.54,1.86,4,3.08,5.15,5.11,1.64,3,2.52,6.91-.91,9-4.44,2.7-5.54-1.8-6.94-4.56-4.55-9-10.15-16.18-21.85-14.24-7.94,1.32-15.54,1.91-14.58,13.72.38,4.79-3.6,10-5.66,14.92-1.1,2.64-2,6.23-5.83,4.93-3.2-1.08-3.21-4.67-3.11-7.52.63-17.79,6.91-34.93,6.12-52.94-.15-3.51,2.14-5.93,6.47-5.91,7.1,0,15.51-.46,18.09,7.09,3.5,10.25,9.72,9.22,17.59,7.78S828.72,1314.87,837.46,1316.78Z"/><path d="M668.61,1211.8c14.18-.08,23-1.54,28-11,1.26-2.4,3.21-3.16,5.49-1.84,3,1.73,2.11,4.43.69,6.59-5.26,8-12.7,14-22,15-14.56,1.42-30-1.44-40.89-19.13-4.71-7.66-3.42-14.22.64-20a16,16,0,0,1,20.21-5.55c6.37,2.82,15.53,2.64,17.15,12.29.3,1.77,1.59,4-.29,5.3s-3.37-.55-4.92-1.58c-6-4-11.89-8.25-19.84-7.44-8.25.84-10.74,4.88-6.83,12C651.93,1207.1,661.57,1211.4,668.61,1211.8Z"/><path d="M750.41,1619.28c.49-7.85.89-15.71,5.41-22.62,1.36-2.08,2.83-3.73,5.29-2.15s3.17,4.5,1.06,6.48c-8.09,7.57-6,16.94-6,26.39,0,10.3,7,13.29,14.3,16.19s12.49-1,17.68-5.76c6.17-5.62,9.85-12.21,10.48-20.47.28-3.75.1-5.24-5.17-4-10.45,2.47-17.26,9.13-23.61,16.69-1.85,2.2-3.37,4.51-5.77,2.07-1.85-1.89-2.93-5.31-.37-7.68,6.85-6.31,13.54-12.93,21.1-18.3a13.2,13.2,0,0,1,15.25-.06c4.58,3.15,4.61,8.15,3.77,12.86-2.27,12.74-9.13,22.82-19.71,30-8.1,5.5-23.45.48-28.81-8.75A37.75,37.75,0,0,1,750.41,1619.28Z"/><path d="M430.52,1213.48c-.24,3.4-1.5,4.77-3.26,5.69-2.4,1.25-4.37.22-5.84-1.63a21.66,21.66,0,0,1-4.5-14.16c.08-8.5-3.54-11.88-12.51-10.27-4.4.79-8.24,2.89-12.64,3.5-8.34,1.17-14.45,4.07-8.25,14,1.42,2.28.69,4.38-1.55,5.65-2.85,1.62-5.27-.15-6.46-2.24-2.84-5-2-12-8.45-15.11a2.81,2.81,0,0,1,0-2.5c5.77-4.25,2.28-8.94.86-13.6-1.15-3.75.66-6.59,4.13-7.23,4.83-.88,5,3.16,4.52,6.24-1.28,8.28,2.87,9.15,9.48,7.84,4.64-.92,9.45-1,14.07-2,4-.84,9.42-.29,8-7.58-.55-2.83,2.84-3.9,5.23-4.64,3.12-1,4.93,1.4,5.88,3.64,2.2,5.22,4.63,10.44,5.12,16.22C425,1202.29,425,1209.37,430.52,1213.48Z"/><path d="M133.09,1338.27c-9.1-.17-16.83,3.92-21.34,14.16-1.49,3.39-4.1,9.55-9.71,6.65s-1.61-7.8-.29-11.73c4.49-13.37,10.81-25.69,20.58-36.08,3.73-4,6.53-5.34,10.21.5,5.39,8.54,11.79,16.14,23.69,15,2.36-.24,5.67.14,5.71,3.75,0,2.86-2.38,3.36-4.73,3.36-3,0-7-.23-7.09,3.45-.07,4.17.61,9,4.86,11.66,2.36,1.5,6.28,1.81,4.78,6a6.63,6.63,0,0,1-4,3.45c-3.93,1.16-6.37-1.54-8-4.53-1.9-3.55-3.06-7.49-4.83-11.13C141.34,1339.28,139.3,1336,133.09,1338.27Z"/><path d="M535.19,1341.1c.53,13.79-12,19-24.27,23.19-10.41,3.51-21.62,2.88-29.9-5.42-5.67-5.67-5.58-14.78-6-22-.57-10.74,2.39-21.67,4-32.5.29-2,1.61-3.45,3.89-2.85,3.76,1,4.43,3.76,3.18,6.92-4.06,10.25-4.74,20.83-3.55,31.64,1.44,13,5.7,17,18.73,18.6,5.92.74,6-1.51,3.53-5.4-4.95-7.87-3.71-15.72.37-23.17,3.22-5.87,5.6-13.53,15.35-10.93C530.47,1321.81,535.75,1327.67,535.19,1341.1Zm-6.3-4c-.07-3-2-7.91-7.87-7.57-6.85.39-10.24,5.62-10,12.3.18,4.6.8,11.27,6.66,10.63C523.93,1351.79,528.84,1347,528.89,1337.11Z"/><path d="M582.89,1615.44c-1,6.74-6,14-11.7,20A47.64,47.64,0,0,1,547,1649.33c-7.24,1.56-11.23-.41-11.44-9-.3-12.2-.35-24.5-5.52-36.16-2.8-6.33.24-8.78,6.9-8.47,9.4.43,18.84-.39,28.27-.4C575.64,1595.26,582.89,1602.8,582.89,1615.44Zm-25.3-13.87c-5.62,2-11.3,3.39-17.41,3.12-2.18-.09-2.87,2.53-2.79,5.12.39,11.68,5.34,22.33,7.26,33.66.64,3.81,4.19,3,6,1.71,11.26-7.62,22.27-15.64,26.16-29.73,1.91-6.94-1.5-10.91-8.08-12.22C565.12,1602.52,561.2,1603.72,557.59,1601.57Z"/><path d="M42.71,1222.47c-14.75-.5-24.38-11-24-26.08.28-12,12.38-24.18,23.77-23.85,10.19.29,26.59,18.43,26.26,29C68.34,1213.13,56.15,1222.93,42.71,1222.47ZM24.64,1198c.11,9.5,8.6,17.14,19,17.06,8.41-.07,17.86-7.16,18.1-13.59.28-7.38-11.54-19.37-19.34-19.63C34.74,1181.61,24.55,1190.9,24.64,1198Z"/><path d="M325.35,1171.32c7.55,1,17.18-1.36,26.92-2,2.45-.16,5.6-1,6.14,2.46.46,2.89-.88,5.29-4,6.76-4.28,2-12.14,1.27-11.65,7.56.78,10.14-.93,21,4.68,30.29,1.25,2.07,4,3.12,2.09,6.15-1.25,1.94-2.73,3.78-5.25,3.3a7.89,7.89,0,0,1-6.22-5.24c-2.2-6.4-1.61-13.11-2-19.71-1-19-1-18.73-20-19.46-5.53-.21-15.22,3.68-14.93-5.88.25-7.8,9.37-2.64,14.31-4.11C317.82,1170.75,320.51,1171.32,325.35,1171.32Z"/><path d="M618.71,1598.21c2.16,2.42,4.67,4.47,6.19,7.08,4.75,8.18,10.46,13.44,20.68,9,1.63-.71,4.09-1,4.79,1.4.89,3.09-1.87,3.36-3.88,4.18-9.29,3.77-9.8,6.52-2.53,13.66,1.53,1.51,3.92,2.53,4.7,4.31.94,2.13,1.57,5.38-1.09,6.84-3,1.64-4.44-.41-5.33-3.29-.53-1.71-1.82-3.2-2.81-4.77-2.75-4.37-4-11.71-10.66-10.34-8.33,1.72-17.94,2.88-21.35,13.26-.68,2.08-1.39,4.36-2.78,5.93-1.85,2.08-4.1,1.81-4.94-1.2-1.91-6.89,10.29-39.31,16.43-44C616.84,1599.78,617.52,1599.19,618.71,1598.21Zm6.63,19.1c-.91-2.6-2.18-5.45-5.43-5.47s-4.76,2.83-4.81,5.8c-.07,3.13,1.93,4.21,5,3.93C622.83,1621.31,625.08,1620.8,625.34,1617.31Z"/><path d="M899.36,1229c-15.69,0-24.16-5-26-14.63-.51-2.72-1.59-6.37,2.25-7,3.51-.61,3.31,2.82,3.45,5.36a10,10,0,0,0,8.94,9.47,40,40,0,0,0,25.37-5.27c4.22-2.41,2.77-3.73-.69-5.64-10.43-5.78-20.9-11.54-29.17-20.45-4.61-5-7.28-11.29-5.27-17.31,1.91-5.75,8.71-6.47,14.4-7.47,5.06-.89,6.26,2.94,6.66,6.12.48,3.89-3.05,3-5.44,2.78-2.69-.27-5.76-.09-6.42,2.63-1.18,4.93,1.73,9.83,4.77,12.49a145.66,145.66,0,0,0,23,15.9c3.49,2,6.53,3.13,6.62,7.87.09,4.92-1.52,8.67-5.87,10.92C910.38,1227.65,904.43,1229.74,899.36,1229Z"/><path d="M724.18,1630.18c-4.58-8.65-4.84-17.83-7.76-26.29-1-3-2.91-6.94,1.44-7.89,3.74-.82,3.81,3.59,3.94,6.2.44,9,4.58,17,6.24,25.66s.76,10.06-7.39,7.24c-13.29-4.62-27.16-7.58-39.89-13.82-2.24-1.1-4.59-2.57-7-.59-2.65,2.13-.69,4.72-.37,7,.77,5.63,1.8,11.22,2.71,16.83.32,2,.44,4-2,4.52-2.72.55-3.82-1.11-4.43-3.64q-3.86-15.95-8-31.82a7.89,7.89,0,0,1,1.47-7.14c2.35-3,4.74-.44,6.62.7,14.82,9,31.25,14.38,46.93,21.44C718.54,1629.5,720.27,1631.07,724.18,1630.18Z"/><path d="M129.36,1626.35c-.26,5.38-.51,10.75-.78,16.12-.2,3.94-2.19,9.43,5.59,6.29,1.24-.5,2.79-.46,3,1.08.48,3.44-1.54,6-3.68,8.39-1.66,1.86-3.28,4.29-6.25,3.21s-4.31-3.71-4.28-6.78c.12-11.05.25-22.09.57-33.13.15-5.42-1.7-7.8-7.33-6-11.31,3.62-19.47-2.84-27.37-9.14-3.37-2.69-5.8-6.6-8.46-10.1-2.16-2.85-2.47-6.54.24-8.61,3.69-2.82,4.94,1.85,6,3.72,5.17,8.72,11,16.13,22.06,17.34,4.39.48,9.15,2.57,12.34-1.71,3-4.06,1-9,.28-13.51-.23-1.44-2.65-2.61-2.24-4.79s.71-4.72,3.23-5.27c2.76-.6,2.42,2.18,3.16,3.72,3.37,7,2.11,14.74,3.16,22.1.79,5.58.15,11.37.15,17.07Z"/><path d="M930.9,1613.22c-17.11-3.26-31.14,7.15-46.84,9.33-2.55.35-6.2.68-5.39,3.73,1.16,4.35,2.21,9.37,6.89,11.88,6.3,3.37,14.93.3,20.2-7.17,1.58-2.24,3-4.62,4.73-7.41,1.71,9.86-7.09,22.36-16.33,24.17-9.56,1.87-16.6-3.4-19.73-14.11-1.35-4.6-.84-10.29-6.49-13-.83-.4-1.38-3.8-.91-4.13,5.86-4,2.93-9.69,3.18-14.75.09-1.93.19-4.31,2.32-4.72,3.31-.63,2.74,2.63,3.5,4.46.36.88,1,1.91.77,2.71-3.48,14.92,5.36,10.91,13.82,9.75,9.94-1.36,19.39-5.84,29.76-4.49C924,1609.94,927.63,1610,930.9,1613.22Z"/><path d="M851.23,1190.57C850,1207.14,839.08,1220,825,1222.74c-7.35,1.43-12.52-.54-16-8-4.61-10.06-5-21.32-10-31.23-1.63-3.25-.22-6.55,3.39-7.58,4.31-1.22,3,2.94,3.75,4.89,3,8.22,6.06,16.42,8.53,24.81,2.33,7.91,6.52,9.67,14.16,6.71,10.69-4.14,16.62-11.14,17-22.37.18-4.91-.32-9.82-7.14-10-2.73-.06-5.1-1-5.69-3.89a3.68,3.68,0,0,1,1.61-3,7.94,7.94,0,0,1,8.16-.11C850,1177.32,849.81,1185,851.23,1190.57Z"/><path d="M915.35,1356.88c-19.18-.92-33.25-10.21-44.15-25.3-5.19-7.19-7.74-14.82-3.63-23.18,2-4,24.73-11.27,28.81-10a4.49,4.49,0,0,1,3.43,4.54c.1,3-1.33,5-4.35,4.78-9.1-.61-19.2-.86-21.11,10.13-1.71,9.78,8.39,13.69,14.55,19.51,8.07,7.64,17.56,10.18,28,11,4.33.36,9.19-.55,9.36,6.75.14,6.5-3.19,6.95-8.19,8.07a246.14,246.14,0,0,1-44.2,6.16,20.69,20.69,0,0,1-16.76-6.74c-2.63-2.87-3.14-7.63.68-9.92,5.21-3.14,4.41,1.74,5.28,4.79,1.34,4.71,5.3,6.35,9.79,5.73C887.07,1361.28,901.2,1359,915.35,1356.88Z"/><path d="M434.3,1651.52c-6.05.11-11.8-.17-15.72-5.32-1.7-2.24-1.95-5.11.35-6.84s2.95,1.17,3.95,2.52c1.92,2.61,4.44,3.3,7.53,2.76,5-.85,9.91-1.88,15-.45,2.74.77,5.51-.5,6.19-3.1,1-3.81-2.67-3.32-4.89-4-14.34-4.52-24-16.68-24.94-31-.3-4.56,1-8.93,4.82-10.58,4.72-2,10.18-3.29,15.5-1.93a3.75,3.75,0,0,1,2.36,4.64c-.46,1.79-2.08,2.36-3.76,2-4.56-1-9.86-1.58-11.09,3.86-1.38,6.19,0,14,4.58,17.52,5.73,4.41,10.69,10.87,18.88,11.91,2.46.31,6.12.42,5.93,4.67-.16,3.53-.29,7.27-4.2,8.82C448.15,1649.59,441.78,1653.73,434.3,1651.52Z"/><path d="M977.14,1167.64c3.1.21,6,.59,6.23,3.75.35,3.85-3.25,3.78-5.38,3.46-8.07-1.24-11,3.77-9.79,9.82,2.34,11.72-.78,24.9,8.83,34.92a4.41,4.41,0,0,1-1.4,7.25c-3.72,1.5-7.29-.2-8.12-4.21a177.09,177.09,0,0,1-3.78-24.14c-1.27-19.32-1-19.33-19.78-17.68a3.29,3.29,0,0,1-.94-.08c-4.24-1.08-11.16,5.19-12.27-1-1.17-6.54,7.37-6.34,12.12-7.45C954.25,1169.61,966.19,1170.62,977.14,1167.64Z"/><path d="M197.92,1482.14c-2.65-20.43,5.63-24-22.66-18.16a38.87,38.87,0,0,1-4.72.44c-3.47.26-7.79,1.11-8.39-3.65-.7-5.61,4.68-4.16,7.54-4.66,11.81-2,23.68-3.71,35.57-5.24,2.44-.31,5.87-2.69,7.38,1.43,1.26,3.44-.78,5-3.94,6.17a5.2,5.2,0,0,0-3.14,6.28c1.71,7.46-1.8,15.07,1.21,22.59,1.22,3.06.45,8.38-2.74,9-4.43.81-5.68-3.88-6.09-7.82C197.78,1486.93,197.92,1485.33,197.92,1482.14Z"/><path d="M982.87,1305.29c-4,2.63-6.51-.42-9.24-.29-7,.32-12,2.72-11.44,11.13,1.18,18.28,16.75,36.46,34.88,40,3.84.75,7.73.43,7.17,6.05-.39,4-1.27,7.89-6.31,7.44-14.71-1.29-30.11,2.73-44-5.26-3.19-1.83-9.77-1.56-7.72-7.46,1.85-5.31,6.65-3.09,10.66-1.58a28.49,28.49,0,0,0,7.21,1.57c3,.31,6.06-.06,7.64-3,2-3.65-1.53-4.81-3.43-6.86-9.26-10-12.07-22.4-11.62-35.52.25-7.14,5.53-11,11.88-12.73C974.57,1297.15,980.26,1297.84,982.87,1305.29Z"/><path d="M121.49,1481.22c2.61,8.47-2.3,12.92-8,16.23s-10.39-.27-13.78-4.7c-3.88-5.06-6.76-10.71-6.33-17.45.5-7.67-5.38-14.68-2.17-22.74.82-2,.65-4.65,3.35-5,3.76-.47,3.84,2.44,3.82,5.05,0,5.4,2,5.75,7.08,4.57,11.14-2.6,22.1-1.55,32.83,2.11-12,1.81-21.8,4-31.72,4.57-7.29.46-8.89,3.72-7.23,9.64,1.85,6.64-.41,15.85,10.92,16.88C117.28,1491,116.18,1482.94,121.49,1481.22Z"/><path d="M249.51,1615.82c.39-7.16.64-11.91.9-16.65.07-1.29.24-2.66,1.8-2.83,2-.22,2.88,1.14,2.95,2.85a62.37,62.37,0,0,1-.09,8.54c-1.1,11.28,1.33,21.89,5.64,32.22.68,1.62,1.73,3.3,3.06,3.07,3.23-.56-.22-2.15.17-3.36.48-1.49,1.53-1.8,2.81-1.93,10.65-1.06,18.31-7.69,26.1-14.06,1.67-1.37,3.33-3.65,5.66-1.84s.32,3.93-.34,6c-2.71,8.27-10.81,10.86-17,14.15-17.82,9.4-24,12.25-30.08-12.53C249.79,1624.25,249.82,1618.77,249.51,1615.82Z"/><path d="M831.52,1608.79c-2.15,5.6.89,10,.51,14.84-.46,5.75.37,12.09,7.49,13.45s14.38,3,20.35-3.44c1.56-1.69,1.76-7,5.47-4,3,2.34.12,5.82-1.53,8.44-5.29,8.41-13.8,9.85-22.41,8.7s-12.69-7.47-13.75-15.85-2.15-16.86-3.3-25.29c-.41-3-2.24-7.07,2.4-7.59,4.13-.45,4.3,3.82,4.73,6.91A24.07,24.07,0,0,1,831.52,1608.79Z"/><path d="M909.36,1625.66c-8.7,2-18.77,5.73-28.81-.31-1.58-.95-3.67-1.19-4.54-3.06-.63-1.35-1.5-3-1.23-4.26.37-1.78,2.25-1.65,3.9-1.51,11.75,1,23.63.54,35.28,3,2.29.47,5.61-.8,5.68,3,.07,4.36-3.15,3.8-6.07,3.39C912.64,1625.77,911.69,1625.79,909.36,1625.66Z"/><path d="M312.73,1600c2.52.09,3.1,1.46,3.36,3.1,1.41,8.69,6.09,16.64,5.91,25.68-.06,3.35.32,6.53,3.88,7.91,4.49,1.73,2.63,4.57,1,6.73-2.71,3.63-4.95.62-6.94-1.21-3.44-3.16-2.23-7.73-3.21-11.63-1.91-7.55-2-15.57-6.57-22.4C307.66,1604.39,309.46,1601.69,312.73,1600Z"/><path d="M181.28,1315.92c.11-3.14,1.44-5.59,4-6.43,3.29-1.09,4,1.48,4.95,4.19,4.36,12.78,2.6,27,9.41,39.24,1.06,1.91-.5,4.33-2.84,5.26a3.48,3.48,0,0,1-4.52-2.11,44.53,44.53,0,0,1-3.46-10.33C187.09,1335.49,188.51,1324.5,181.28,1315.92Z"/><path d="M326.57,1306.39c2.41-.07,3.09,1.77,3.54,3.51,2.23,8.52,6.12,16.59,6.75,25.53.41,5.87.38,11.85,5.32,16.33,2.51,2.27,1,4.77-.44,7-1,1.54-2.46,2.78-4.56,2.55-2.79-.32-3.52-2.47-3.76-4.72-1.63-15.31-2.6-30.74-10.42-44.66C321.35,1308.93,323.76,1307.21,326.57,1306.39Z"/><path d="M118.73,1468.77c2.11,0,2.49-.11,2.73,0,3.15,1.74,9.52-3.15,9.78,3.21.28,7.14-5.82,4-9.85,4.16-5.55.21-11.07,1-16.62,1.5-2.32.18-4.63-.42-5.09-3.05-.52-3,2-3.37,4.13-4A43.15,43.15,0,0,1,118.73,1468.77Z"/></svg>