<svg xmlns="http://www.w3.org/2000/svg" width="3756.24" height="773.2" viewBox="0 0 3756.24 773.2"><title>c29-txt1</title><path d="M2661.18,474.61c-5.09.37-9-1.07-13.58-3.94-5.65-3.55-13.24-2.11-20-1.27a56.65,56.65,0,0,1-23.51-2c-2.52-.76-4.84-1.64-4.39-4.86a4.9,4.9,0,0,1,1.62-2.54c.22-.2,1.52.28,1.89.78,5.92,8,13.41,2.91,20.11,2.06,3.51-.44,2.84-3.91.25-5.34-5.59-3.11-7.33-8.48-9.4-13.84-2.93-7.57-.83-14.17,6-18.21,1.41-.83,2.95-1.45,4.3-2.34,2.37-1.56,4.75-5,7.33-.8,1.93,3.18,1.23,6-2.6,8.06-4.88,2.64-10.75,4.8-8.48,12.76,2.15,7.57,9.2,15.42,16.66,16.15,6.82.66,13.34.73,18.35,6.77,4.68,5.64,10.26,2.64,15.69.44,4.89-2,12.48-.87,13.95-6.69,1.63-6.44-6.41-7.73-10.06-11.38-5.71-5.71-10.08-12-11.2-20.17a9.73,9.73,0,0,1,3-8.95c2.25-2.05,4.77-1.27,6.62.54,2.14,2.06.15,3.39-1.5,4.4-3.78,2.31-2.37,5.56-.69,7.8,6.43,8.57,11.24,19.07,22.67,22.39,3.83,1.11,4.27,3.06,4.48,6.42.23,3.61-1.38,4.89-4.41,5.61C2683.24,469.07,2672.89,474.72,2661.18,474.61Z"/><path d="M2402.15,453.48c-1.2-5.8.19-11.74-3-17-1.53-2.54-1.65-5.59,1.16-7.27,2.58-1.54,4.55-.05,5.71,2.66,1.47,3.44,3.67,3,5.48.44,5.83-8.25,13.63-10.79,23.54-9.78,3.66.38,6.46.18,7.32,4.28.82,3.82,1.29,7.65-2.83,10.14-3.92,2.36-7.32,5.53-12,6.73-2.41.62-6.13,1-6,4.42.15,3.12,3.27,6,5.7,6.46,9,1.63,16.35,8.45,26.3,7.37a13.09,13.09,0,0,0,7.1-2.56,3.84,3.84,0,0,1,5.27.25c1.86,2,1.14,4.29-.42,5.91-3.83,4-8.78,5.31-14.19,4.82-13-1.17-24.27-6.58-34.62-14.14-1.28-.94-2.1-2.83-4-2.27-2.39.72-1.75,3.06-2.08,4.86-.72,4,.82,8.21-1.67,12-1,1.57-1.49,3.86-4,3.24-2.11-.52-3-2.33-2.88-4.42C2402.47,464.12,2400,458.71,2402.15,453.48ZM2430.86,431c-.15-.39-.21-1.43-.74-1.8-4.19-3-7,1-10.21,2.34-2.51,1.06-4.9,2.62-4.15,6.06a2.18,2.18,0,0,0,1,1.22C2419.23,440.29,2430.72,434.22,2430.86,431Z"/><path d="M2227.52,620.88a96.77,96.77,0,0,1-15.12-2.39c-7.75-2.07-8.71-7.6-8.07-12.94,1.07-8.82-2-16.64-3.74-24.79-1-4.86-2.89-7.73,5.2-7.41,6.91.27,13.89-3.91,21-5.43,10.1-2.18,15.82,4.26,11.8,13.92-2.56,6.14.22,7.26,4.56,6.54,8.88-1.48,14.65,1.94,16.82,10.18,2.06,7.82-4.35,12.46-9.2,16.57C2244.56,620.37,2237.24,621.39,2227.52,620.88Zm2-3.76c10.23.41,19.71-6,22.66-15.45,1.62-5.2.08-8-6-7-10.21,1.69-20.45,3.12-29.81,8.06-2.18,1.15-5,1.55-4.74,4.69.23,3,.77,6,4.19,7.36C2220.23,616.6,2224.84,616.89,2229.49,617.12Zm5.45-45.5c-8.65,3.7-15.82,6.58-22.81,9.85-3.73,1.75-4.56,5.4-3.54,9,1.32,4.72,4.89,1.64,7.48,1.58C2228.13,591.79,2230.73,582.21,2234.94,571.62Z"/><path d="M2293.94,468.54c0-10-1.19-11.14-10.26-9.83-8.28,1.2-16.52,2.7-24.8,3.91-4.27.63-6.4,2.48-5.38,7.11s1.68,9.56,2.73,14.29c.81,3.65-.69,6.24-3.9,6.94-3.87.83-2.76-3.1-3.64-5-1.61-3.58-1.49-7.43-1.74-11.24-.54-8.44-5.48-16-5-24.69.15-3-1-6.29,3-7.45,4.69-1.38,4.64,2.76,5.4,5.34,1.59,5.38,4.26,7.17,10.24,6,8.25-1.58,16.8-1.58,25.19-2.5,3.4-.37,6.79-1,4.15-6.11a6.24,6.24,0,0,1,2.55-8.56c3.47-2,4.25,2.22,6.22,3.72,1.51,1.15,3.12,2.18,4.71,3.22,4.07,2.68,9.23,4.74,1.22,9.52-4.31,2.58-3.8,21.71.27,26,1.61,1.7,3.73,3.06,1.77,5.23-1.72,1.9-2.68,5.27-5.88,5.09-2.71-.16-3.91-2.55-4.89-4.93C2293.56,479.08,2295.28,473.18,2293.94,468.54Z"/><path d="M2758.43,463.92c1.66,9.59-1.54,17.35-9,21-6.93,3.44-13.64,3.09-19.53-2.58-3.56-3.42-4.71-8.19-5.46-12.52-1.18-6.82-4.09-13.46-2.29-20.84.77-3.15-.18-7.16-1.5-10.29-3.27-7.69-2.68-9.13,5.93-8.54,11.17.78,22.32,1.6,33.53.91a19.15,19.15,0,0,0,4.82-.47c3.07-1,6.6-1.91,7.39,2,.87,4.32-3.38,5.9-6.44,5.42-6.31-1-12.42-.26-18.65.08-3.21.17-6.43-.21-9.71.38-2.66.47-7.08-3.31-7.07,2.89,0,4.73-.69,10,6.73,10.7a144.73,144.73,0,0,0,29.43,0c1.85-.22,4.27-1.51,4.79,1,.59,2.95-2.18,3.13-4.39,3.34-9.44.93-18.59,3.79-28.22,3.69-3.7-.05-9.09,0-7.84,6.52,1.05,5.48,2.63,10.93,9.51,11.67,8.36.91,12.24-2,14.61-10.45a13.32,13.32,0,0,1,1.2-3C2756.51,464.53,2757.22,464.45,2758.43,463.92Z"/><path d="M2803.84,459.05c3.55-3.87,1.5-8.09,1.77-12,.14-2.16.12-5.32,3.26-4.26,13.41,4.52,27.35,7,37.4,19.45,10.55,13.07,3,26.55-8.27,32.62-12.82,6.93-25.4,6.67-37.86-1.33-3-2-2-4-1.65-6.32,2-13.25-2.24-26-3-39.05a2.22,2.22,0,0,0-.51-1.51c-2.75-2-4.17-4.26-2-7.51a2,2,0,0,1,2.81-.75c2.82,1.78,3.34,4.71,3.9,7.75C2800.5,450.5,2799.69,455.48,2803.84,459.05Zm2.69,20.25c-.12,2.19-.26,4.64-.41,7.1-.38,6.24,4.09,11.05,9.61,8.85,7.27-2.9,15.27-4.51,21.53-9.73,7.94-6.62,8.74-12.71,2.73-21.25-4.75-6.73-12-8-19.44-9.84-8.38-2.07-10.46,1.92-12.36,8.44C2806.62,468.24,2807.44,473.68,2806.53,479.3Z"/><path d="M2542.81,593.56c12.39-2.92,25,4.36,37.2-1.39a3.25,3.25,0,0,1,4.37.92c1.16,1.66,0,3-.86,4.45-1.67,2.74-3.71,4.59-7.27,4.19-12.9-1.44-26.18,0-38.54-5.46-4.55-2-6.68.43-7.26,4.73s-.95,8.67-1.53,13a3.83,3.83,0,0,1-3.76,3.65c-2.61.12-3.09-1.81-3.08-3.86a73.59,73.59,0,0,0-9-36.65,3.81,3.81,0,0,1,1.62-5.61c3.16-1.55,3.62,1.65,4.22,3.41,1.8,5.27,3.24,10.67,5.41,18,3.07-9.09,7.9-14.65,13.48-19.62,4.85-4.32,10.38-7,17-6.87,5.77.13,8.48,4.08,7.43,9.82C2561,583.34,2551.33,592.62,2542.81,593.56Zm-2.06-8.36c6.11-.81,11.1-3.51,14.49-9,.76-1.23,1.48-2.39.6-3.64s-2.37-.87-3.69-.49c-5.89,1.71-10.13,6.16-14.6,9.82C2535,584,2538.63,584.85,2540.75,585.2Z"/><path d="M2098.69,468.17c-1-8.31-1.42-17-5-25.12-3.15-7.23-1.46-9.49,6.27-8.89,16.6,1.28,32.73,4.14,47.49,12.54,9.1,5.18,11.83,15.08,4.16,21.09-12.43,9.73-26.63,16.09-43,12.38C2103.06,478.92,2096.09,477.33,2098.69,468.17Zm16.48,8.36a51.42,51.42,0,0,0,31-14.08c4.5-4.18,3.67-8.43-1.93-10.7a103.15,103.15,0,0,0-32.36-7.23c-7.5-.49-9.07,1.37-6.57,8.31a29.9,29.9,0,0,1,1.78,15.21C2105.85,475.21,2107.72,478,2115.17,476.53Z"/><path d="M2091.35,579.9c4.33,1.53,5.45-.7,6.68-3.39,2.07-4.55,4.69-4.09,6.9-.09a29.48,29.48,0,0,1,3.48,8.2c1.3,6.61,5.12,7.76,10.78,5.82,2-.67,4.36-2.54,5.21.9.58,2.38.2,5.16-3.27,5.4-6.36.45-5.47,3.53-3.11,7.63,2,3.49,4.6,6.86,4,11.35-.12.87,0,2.51,1.55.87,2.26-2.35,4-2,4.21,1.28.16,2.61.34,5.87-2.73,7.11-2.54,1-3.95-1.06-4.87-3.18-2.36-5.47-4.81-10.92-7-16.48-1.09-2.82-2.59-5.23-5.75-4.68-11.15,1.93-23.55,1.58-29.61,14.1-1.51,3.11-3.26,6.81-6.86,4.77-3.76-2.13-3.55-6.45-1.16-10.14a144.94,144.94,0,0,0,16.1-32.82c.89-2.66,3.13-6.33,6.46-4.64C2096.49,574,2092.79,577.29,2091.35,579.9Zm8.69,5.65a6.83,6.83,0,0,0-5.5,5.42c-.61,3.36,2.4,2.85,4.44,3,2.58.16,5.25-.2,5.42-3.41C2104.55,587.82,2102.66,586.18,2100,585.55Z"/><path d="M2485.29,454.75c.6,5.75,2.86,12.36.33,19.21-.54,1.44.09,3.37-2.08,3.66s-3.52-.92-4-3.15c-1.31-6.41-2.74-12.8-4-19.23-.58-2.95.19-6.9-1.48-8.77-8-9,0-13.87,4.64-19.21,3-3.38,4.29.27,5.78,2.59,7.23,11.29,15.25,21.69,27.55,28.25,3.87,2.07,6.87.7,9.76-.39s1.5-4.31.88-6.63c-1.59-6-3.55-12-4.9-18.05-.54-2.43-1.56-6.18,1.91-7.11,4.21-1.13,3.57,3.16,4.25,5.43,2.28,7.54,4.37,15.15,6.36,22.78,1,4,1.73,8.15-1.85,11.47-3.35,3.12-6.55,1.73-10.48.56-10.65-3.18-20.32-7.68-28-15.88-.95-1-1.8-2.12-3.4-1.57C2485.25,449.15,2485.12,449.79,2485.29,454.75Z"/><path d="M2766.88,642.84c.16-1.08.34-2.16.46-3.24a95.67,95.67,0,0,0,.33-16.2c-.44-8.17-8.83-3.37-13.36-5.51-13.31-6.29-20-18-26.51-29.94-1.15-2.1-1.48-4.61-3.53-6.28s-2.32-3.93-.24-5.56c2.88-2.27,4.75.07,5.65,2.36,2.94,7.42,7.59,13.82,11.59,20.62,4.56,7.77,12,10.92,19.8,13.32,4.74,1.46,8.07-1.19,8.38-6.29.44-7.31,1-14.67.51-21.94-.25-3.56.32-6.77,3.15-7.31,3.11-.6,4,3.43,4.39,5.86,1.51,9.52.25,19-1,28.5-1.53,11.63-3.36,23.24-2.48,35,.34,4.5,4.9,8.74.45,13.61-1.17,1.28-1.1,3.78-3.68,3.43-2.81-.38-3.31-2.71-3.37-4.9-.15-5.18-.05-10.37-.05-15.56Z"/><path d="M2616.57,582.44c9.56.48,17.18-1.47,24.82-3.49,1.73-.45,4.16-1.62,5.07.74,1.24,3.19-1.91,3-3.72,3.94-6.63,3.54-13.78,4.92-21.1,6.08-8.81,1.38-10.69,4.22-8.71,12.89a36.52,36.52,0,0,1,.26,17c-.51,2.14-1.53,4.49-4.1,4.5-3.08,0-2.53-2.82-3.07-4.84-1.53-5.78.21-11.41.58-17.09.3-4.64.58-8.88-5.82-9.49-2.12-.2-4.45-1.26-4.58-3.93-.12-2.46,2.1-2.82,3.88-3.47,3.64-1.34,2.09-3.76,1.22-6-3.51-9.08-3.44-8.79,6.3-11.07s20-2.14,29.64-5.35a13.28,13.28,0,0,1,4.88-.39c2.88.17,6.81-.47,6.79,3.86,0,3.88-3.72,4.53-6.69,4.46a93.07,93.07,0,0,0-25,3.06c-1.58.4-3.17.78-4.72,1.28-2.14.68-4.35,1.49-3.8,4.39s2.54,4,5.43,3.44Z"/><path d="M2021.39,467.39c0-.86.08.24,0,1.33-.32,3.51-.32,7.91-5,7.91-4.22,0-4.49-4.58-4.77-7.55-.79-8.35-.7-16.77-3.05-24.95-.7-2.42-.61-5.19,2.52-6,2.88-.78,6-1.35,8.17,1.71,6.58,9.08,17.11,12.94,25.67,19.4,5,3.77,11.37,3,17,4.56,3.74,1,4.37-1.92,3.07-5.23-2.3-5.84-4.52-11.74-5.31-18-.32-2.57-1.51-6.22,2.28-6.73,3.1-.42,3.18,2.91,3.51,5.38A39,39,0,0,0,2073,458a20,20,0,0,1,3.18,7.48c1.58,6.27-.38,7.63-6.68,6.53-13.31-2.33-25.6-7.15-37.69-12.94C2022.38,454.53,2021,455.55,2021.39,467.39Z"/><path d="M1978.76,473.63c1.89-1.74,1.36-5.58,4.7-4a3.73,3.73,0,0,1,1.82,4.93c-1,2.44-2.84,4-5.77,3.52-5-.81-7-5.12-9.29-8.65-2.17-3.36-3.46-4.64-7.54-2.24-3.12,1.84-7.32,1.9-11.07,2.62-6.88,1.33-12,4.73-14.53,11.57a36.76,36.76,0,0,1-2.75,5c-1.26,2.25-2.66,4.24-5.75,3.28-3.93-1.23-3-4.68-2.2-6.82a109.29,109.29,0,0,1,7.75-15.82c4.2-7.06,8.31-14.12,11.36-21.76,2.7-6.74,6.9-7.45,12.29-2.25,3.13,3,5.21,6.9,8.62,9.82s4.95,8,10.89,4.18c1.16-.75,3.64,1.95,1.9,2.85C1970.09,464.64,1979.63,468.77,1978.76,473.63Zm-24.1-11.05c1.39-.58,4.83.13,4.88-3.22a5.31,5.31,0,0,0-5.25-5.27c-2.83,0-4.83,2.72-5,5.51S1951.47,462.9,1954.66,462.58Z"/><path d="M2466.9,576.12c8.41,4.34,17,2.16,25.51,1.63,2-.12,4.34-2.68,5.39.63s-1.92,3.94-4.36,4.47c-6.39,1.39-12.77,2.79-19.18,4.08-3.58.72-5.38,2.15-3.85,6.2.94,2.49,1.06,5.28,1.66,7.92,3,13.26,8.58,15.73,20.2,8.86,1.62-.95,2.95-3,4.93-1.35,2.53,2.05.29,3.87-.77,5.63-6.4,10.62-18.87,10.79-25.58.38-6.14-9.52-6.79-21-11.33-31.21-1.64-3.69,2.35-8.47.8-13.39-.74-2.36,3-2.38,5.08-2.53,10.87-.82,21.73-1.67,32.61-2.33,2.17-.13,4.25.32,6.15-1.32,1.68-1.45,4-2.88,5.3.18s-1,4.25-3.6,5.12c-6,2-12.21,2.67-18.5,3.13C2480.48,572.72,2473.4,572.47,2466.9,576.12Z"/><path d="M2376.72,466.46c.1,2.65-.3,4.84-2.9,5.52-2.89.74-4.68-.63-5.52-3.45a22.31,22.31,0,0,0-1.12-2.17c-2.24-5.34-3.15-12.36-10.32-13-7.44-.66-17,6.91-19.68,13.95-.67,1.78-1.43,3.55-2.27,5.26-1.08,2.17-2,4.87-5.24,4-2.92-.77-1.52-3.46-2.18-5.25-2.94-7.95-.72-12.89,4.61-19.91,4.71-6.19,8.42-14.13,13.05-21,3.1-4.62,6.7-5,9.5-.21,5.4,9.27,12.59,17.53,16.4,27.66C2372.38,461.41,2378.69,461.44,2376.72,466.46ZM2348,450.67c2.76-1.28,6.88-1.35,6.67-5.83a3.69,3.69,0,0,0-4.68-3.42c-3.3.73-4.59,3.75-5.19,6.72C2344.37,450.29,2346,450.9,2348,450.67Z"/><path d="M1929.42,580.64c-7.18,2.51-15.65,2-24.11,1.72-4.24-.11-8.32-1.67-8.13-5.89.22-5.16,4.69-4.3,8.79-4a107.51,107.51,0,0,0,43.23-5.67c2.85-1,6.28-2.65,7.67,1.1,1.22,3.3.88,7.94-4.09,8-9.44.09-9.71,6-9.84,13-.16,8.42-1,16.83-1.37,25.25-.12,3-1,6.19,2.52,8.64,2.61,1.81,1.39,4.29-1.08,5.95-2.69,1.81-5.11,2.05-6.83-1.18-2.15-4.06-2.13-8.45-1.38-12.8,1.71-10,.6-20,.28-30C1935,581,1934.21,579.45,1929.42,580.64Zm-5.61-4.22h-19.5C1910.68,579.58,1917.1,579.33,1923.81,576.42Z"/><path d="M2430.05,602.05c-.06-6.54.14-13-1.15-19.56-1.19-6-4.24-7.3-9.85-6.62-8.05,1-15.88,3.58-24.2,3-3-.23-4.71-.68-4.8-3.89-.07-2.79.73-4.71,4-5,15.93-1.26,31.84-2.68,47.78-3.87,2.18-.16,5.57-1.49,6.21,1.92s-2.75,3.7-5,4c-5.65.83-7.25,4.74-6.94,9.43.77,11.68-2.77,23.69,3.58,35,1.76,3.15-1.79,7-5.41,8-4.56,1.28-3.83-3.35-4-5.37C2429.72,613.47,2430.05,607.75,2430.05,602.05Z"/><path d="M2366.54,566.71c4.12,1.64,5.9.7,7.74.27,2.79-.65,3.85,1.44,5,3.25,1,1.53,1.17,4-.3,4.33-9.58,1.84-6,9.85-6.85,15.17-1.09,6.91-.2,14.11-.55,21.17-.14,2.8.93,4.58,2.63,6.49,2.86,3.22,0,5.42-1.69,7.78a5,5,0,0,1-6.53,1.71c-2.87-1.31-1.84-3.94-1.72-6.42.6-12.22,1.87-24.4.31-36.68-.62-4.87-2.61-6.06-6.92-5-6.86,1.59-13.74,3-20.57,4.73-2.47.62-4.39.61-5.12-2.2-.65-2.5-.79-4.9,2.44-6,4.4-1.42,8.71-4,13.14-4.2C2354.84,570.76,2361.58,568.12,2366.54,566.71Z"/><path d="M1976.28,579.83c10,.43,25.87,13.27,28,21.91,1.74,6.94-9.12,17.51-18,17.57-10.94.07-17.85-6.42-19.29-17.54-.55-4.28,1.72-9.22-3.12-12.79-1.64-1.21-.08-3.65,1.64-4.71C1969.13,582,1972.18,578.14,1976.28,579.83Zm20.31,22.55c-.24-6.7-10.28-17.5-17-16.4s-3.53,8.38-4.95,12.84c-.33,1-.94,2.16-.77,3.13.82,4.91,2.26,9.82,8.29,10.08C1991,612.4,1996.8,608.22,1996.59,602.38Z"/><path d="M2313.11,596c-.62-4.24-.37-8.91-3.31-13-1.53-2.13-1.45-5.48,1.1-6.41,3-1.1,3.82,2.12,4.4,4.43,1.67,6.58,3.69,13.12,4.7,19.81,2,12.93-6.47,22.74-17.3,20.8-7.34-1.31-10.08-7.72-12.45-13.09-3.79-8.61-5.92-18-8.56-27.07-.65-2.26.25-4.67,2.69-5.29,3.78-1,4.09,2.6,4.13,4.63.18,9.63,4.42,17.91,8.2,26.34a7.92,7.92,0,0,0,9.36,4.87c4.31-.9,6.29-3.95,6.38-8.35C2312.51,601.24,2312.87,598.79,2313.11,596Z"/><path d="M2579.72,464a23.29,23.29,0,0,1-8.47,13.88c-5.38,4.22-14.09,1.15-16.66-6-1.71-4.78-4.59-9.22-5-14.55a11.27,11.27,0,0,0-3.66-7.87c-4.05-3.79-.52-8.23.45-12.31.24-1,2-1.34,2.82-.54,9.1,9.1,18.74,1.65,28.13,1,2.73-.2,6.44-3.54,7.78.11,1.1,3-3.46,3.14-5.79,4.19A73.18,73.18,0,0,1,2562.1,447c-5.86,1.08-7.61,4.74-6.17,10.06a52.4,52.4,0,0,0,4,10.67c1.43,2.7,4.08,4.7,7.46,3.81,4.4-1.15,6.87-4.25,7.29-8.83.18-2,.28-4.3,2.74-4.28C2580.06,458.42,2579.71,460.87,2579.72,464Z"/><path d="M2716.64,601.5c-.22,6.33-4.35,9.8-8.44,12.53a46,46,0,0,1-23.89,7.38c-10.17.42-13.21-7.15-14.82-15.3-1.89-9.59-3.44-19.26-4.86-28.94-.31-2.08-1.58-5.47,2.2-5.91,3-.35,2.59,2.61,3.37,4.57,3.1,7.76,2.52,16.08,4.06,24.06,2,10.56,3.56,11.94,14.32,12.08S2708.69,609.21,2716.64,601.5Z"/><path d="M2566.58,430.62c-4.41-.45-8.33,2.55-12.84,1.66-2.13-.43-4.8,0-5-3s1.81-4.7,4.58-4.66c12.09.16,23.43-4.12,35.22-5.74a30.36,30.36,0,0,1,5.72-.21c2.3.12,4.84,1.12,5,3.42.16,3.16-3.24,2.64-5,2.62C2584.53,424.64,2576.15,430.43,2566.58,430.62Z"/><path d="M3681,722.58c7.89-12.71,17.67-19.45,31.63-18.74,3.32.17,6.53.29,9.44,2.12,6.76,4.25,7.13,9.59.35,13.84a96.94,96.94,0,0,1-16.17,7.85c-5.62,2.21-5.6,4.51-2.11,9,2.67,3.43,9.15,4.58,7.32,11.13-.32,1.13,1.18,1.53,2.36,1.49,8.12-.26,27.47,4.5,32.6,8.09,2.55,1.8,4.46,2.12,5.28-1.64.35-1.65,1.06-3.46,3.23-2.26,1.65.92,1.47,2.84,1.07,4.42-1,4.09-4.46,4.24-7.8,4.52-9.51.77-18.26-2.56-26.85-5.71-9.31-3.41-18.08-7.51-24.76-16-6.86-8.69-5.88-15.29,4.54-18.88,6.33-2.18,12.31-5.36,18.59-7.75,1.19-.45,1.84-.48,1.63-1.78s-1-1.73-2.14-2.18c-12.57-5.12-31.7,7.1-32.95,21.15-.44,4.89-.57,9.81-1.18,14.68-.3,2.47.07,6.4-4,5.77-3.22-.51-3.41-3.83-3.2-6.67a50.07,50.07,0,0,0-.76-14.59c-1-4.65.37-9.83-4.56-13.34-1.82-1.29-.15-3.5.8-5.14.71-1.22,1.6-2.45,3.18-1.94,2.08.67,2.65,2.3,2.73,4.48S3680.12,718.74,3681,722.58Z"/><path d="M3125.59,734.26c3.21-5.29,6.1-10.76,9.65-15.77,6.83-9.65,17.34-12.21,28.21-12.74,5.82-.29,8.21,7,4.47,13.1-5.25,8.54-11.87,15.53-22.45,17.33-1.72.29-4.43,0-4.28,2.64.07,1.27,1.65,2.86,2.95,3.58,11.94,6.67,24.59,8.34,37.78,4.6,2.21-.62,3.83-.77,4.59,1.51a3.8,3.8,0,0,1-1.66,4.91c-8.49,5.32-33.28,4.06-41.5-2.12-1.7-1.28-3.83-2-5.59-3.21-4.47-3.1-6.24-1.47-6.92,3.41-.48,3.48,0,9.38-4.09,9-3.8-.31-4.1-5.77-4.1-10.1a36.79,36.79,0,0,0-2.53-13.55c-.85-2.15-3.1-5.67.31-7.3C3124.44,727.69,3122.83,733.62,3125.59,734.26Zm13.78-4.27c11.61-1.34,17.45-10,25.06-15.63,2.32-1.72-.36-5.18-3.15-4.33-9.54,2.92-19.48,5.56-24.34,15.83-.58,1.23-1.64,2.59-.24,3.58A5,5,0,0,0,3139.37,730Z"/><path d="M3120.2,636.28c2.05-1.62,3.34-3.2,5-3.79,2-.72,3.47,1,2.53,2.66-1.74,3.09-4.49,5.79-8,6.59-3.08.71-2.41-3-3.55-4.58-5.06-7.09-1.29-15.82-4.3-23.55a33.46,33.46,0,0,1-2.06-17.83c-7.41,6.09-11.54,12.66-16,19-4,5.78-8.22,11.46-12.36,17.16-2.49,3.44-5.54,3.32-6.75-.47-2.27-7.18-8.78-10.12-13.42-14.91-1.34-1.37-2.83-4.1-5.37-2.7-2.35,1.3-2.87,4.11-2.46,6.55.93,5.49-.1,10.88-.16,16.31-.05,3.83-1.32,7.2-5.13,6.76-3.52-.41-3.49-4.23-2.8-7.34,1.69-7.57.4-15.16-.22-22.67a32.56,32.56,0,0,1,.36-8.87c1.12-5.87,6.77-7.42,10.94-3.16,5.47,5.6,11.13,11.12,15.9,17.3,4,5.15,7.21,4.27,10.4.08,7-9.24,14.61-18,22.29-26.66,3.18-3.6,4.15-4,7-.12,5.34,7.2,4.41,16,6.69,24C3120.51,622.08,3119.78,628.83,3120.2,636.28Z"/><path d="M3267.2,636.47c-14.64,3.48-21.11-6.87-28.33-15.52-1.56-1.87-2.14-4.83-5.2-3.84-2.64.85-1.71,3.52-1.87,5.66-.32,4.35-1,8.67-1.56,13-.29,2.35-1,4.46-3.91,4.14s-3.56-2.49-3.09-4.84c1.35-6.63-.89-13-1.22-19.54a18.7,18.7,0,0,0-5.13-12.62c-2.06-2.06-2.31-4.58.58-6.12,3.32-1.77,4.22,1.14,5.2,3.35.56,1.24.76,2.63,1.22,3.92.51,1.46-.26,3.64,1.67,4.27,2.58.85,3-1.81,4.08-3.16,9.11-11.13,21.19-13.47,34.64-11.85,2.33.29,4.46,1,4.66,3.73.32,4.53-.81,8.93-4.07,12s-6.85,5.93-12,6.24c-5.45.32-6,2-3.41,7.88,3.17,7.29,7.92,5.35,12.75,5.57,6.25.29,12.54.71,18.66-1.16,2.7-.82,6.35-3.48,7.46.7.78,3-2.92,4.28-6,5.38C3277.18,635.52,3272.18,637.43,3267.2,636.47Zm-30.06-31.09c9.85,5.45,16.15,5.07,23.66-1.24,1.5-1.25,4.5-2,3.39-4.83-1-2.63-3.84-3.11-6.23-2.74C3250.54,597.71,3243,598.67,3237.14,605.38Z"/><path d="M3475.91,643.53c-5.25-.65-9.12-.94-12.71-3.7s-8.88-4.15-.38-7.2a3.2,3.2,0,0,0,1.37-2.74c-2.23-9.31,2.36-19-1.69-28.23-.87-2-1.43-4.33.42-6.13s3.16.15,4.87.74c4.48,1.51,7.14-3.13,10.81-4.59,15.29-6.11,27.49-.18,39,8.39,5.56,4.14,5.07,13.85-.51,19.85-10.74,11.58-24,19.21-39.18,23.57A4.12,4.12,0,0,1,3475.91,643.53Zm-7.06-5.73c2.06.22,3.5.75,4.73.45,14.05-3.41,26.52-10.14,36.23-20.67,6.79-7.36,6.94-14.78,1.69-17-9.23-4-18.66-6.92-29.14-2.18-9.83,4.45-9,12.14-9,20.47C3473.29,625.06,3475,632,3468.85,637.8Z"/><path d="M3340.61,645.76c-6.42-.42-12.47-7.2-17.21-14.81a63.36,63.36,0,0,1-8.75-26.09c-.7-5.89,4.94-14.17,10.38-16.06,6.84-2.37,13.23-3.44,17.81,4.16,1.34,2.22,2.95,4.12.41,6.41-2.36,2.13-4,1.15-6.28-.73-6.4-5.32-12.34-3.13-14.6,4.8-2.82,9.82.37,18.3,5.64,26.28,2.37,3.57,4.89,3.31,7.92.09,5.23-5.55,8.18-12.78,14.28-17.78,4-3.29,8.27-7.22,12.82-4.59a15.34,15.34,0,0,1,7.38,15.37C3369,634.59,3356.38,645.58,3340.61,645.76Zm3.66-12.51c-.26,3.3-.73,8,4.4,5.39s10.5-5.78,14.18-10.65c2.51-3.32,2.21-7.23.75-10.76-.78-1.88-3.18-1.58-5.14-1.12C3353,617.4,3344.55,627.52,3344.27,633.25Z"/><path d="M2980.6,758.78c3.17.66,2.3-5.06,5.34-2.31,2.45,2.23.49,4.52-1.11,6.42s-3.54,2.41-5.58.41c-2.2-2.15-1.85-4.88-2.05-7.62a241.09,241.09,0,0,0-3.27-24.48c-1.4-7.92.28-17.22-1.19-26-.37-2.25,2.43-3.7,4.74-3.5,2.63.23,2.5,2.34,2,4.37a16.11,16.11,0,0,0-.45,3.24c-.34,11.86,2.3,14.24,13.48,11.8,7.66-1.68,15.2-3.91,22.89-5.34,4-.75,5.12-2.37,4.07-6.09-.72-2.55-2.17-6,2-6.44,3.64-.36,4.64,3.24,5.26,6.22,3,14.41,7.75,28.73,1.57,43.9,4.58.34,2.86-5.86,7.08-4.87,2.58,5-.77,8.61-4.39,10.41-5.68,2.83-5.41-2.52-5.58-5.76-.45-8.42-.45-16.78-2.66-25.08-1.42-5.33-3.37-6.42-8.53-4.83-8.26,2.56-16.76,4.35-25.16,6.45-4.89,1.22-7.26,3.39-6.18,9.29A33.49,33.49,0,0,1,2980.6,758.78Z"/><path d="M3556.15,758.22c1.72-9.6,6-17.71,9.89-26,5.37-11.53,17.46-17.14,24.42-27.38,1.61-2.35,5.09-1.28,5.15,2,.06,3.73,1.81,6.8,2.62,10.2,3.22,13.57,3.38,13.53,17.79,13.47,2.29,0,5.77-1.28,6,2.1.16,2.93-3.37,1.63-5.28,2.15a37,37,0,0,0-3.95,1.06c-2.45,1-6.43-2.6-7.48,2.29-.84,3.93,1.47,6.73,4.14,9.23,1,.92,2.39,1.7,2.84,2.84,1.45,3.66.76,7.6-2.67,9.23s-4.28-2.48-5.3-4.71c-2.44-5.3-2-12.65-7-15.84-5.46-3.46-11.1,2.95-17.16,2.72-11.85-.46-13.67,9.5-17.38,17.36-.95,2-1.75,4.42-4.52,3.63C3556.05,761.94,3556.05,759.71,3556.15,758.22Zm35.08-47.05c-2.36,2.82-4.83,5.57-7.08,8.49-2.46,3.2-4.63,6.61-7.09,9.81-1.24,1.6-2.37,3-.9,5s3.05,1.15,5,.59c13.55-3.83,13.67-3.78,10.58-18C3591.3,715.05,3593.81,712.88,3591.23,711.17Z"/><path d="M3294.22,746.77c-1.4-8.74-2.92-19.73-5-30.61-1.22-6.43.41-8.77,6.64-7.94,8.86,1.17,17.85.37,26.73,2.58,3.59.89,7.44,1.23,10.86,2.81,14.88,6.89,16.65,22.4,2.93,31.37-9,5.87-18.64,11.45-30.21,10.93a8.37,8.37,0,0,0-3.22.47C3293.63,759.72,3293.63,759.74,3294.22,746.77ZM3312,718.1c-4.33-1.52-8,.17-11.79.44-3.18.23-4.77,2.15-4.23,5.56,1.11,6.94,2.18,13.89,3.16,20.86.51,3.62,2.47,4.53,6,5.06,11.39,1.69,29.41-10.37,34-18.93,1.19-2.21-3.47-13.66-5-12.88C3326.4,722,3319.07,715.69,3312,718.1Z"/><path d="M3430.17,623.88c-1.05,9-13.16,20.16-20.6,20.6-5.07.3-10.8-6.66-12.34-14.87s-3.11-16.56-4.78-24.81c-1.55-7.68,2.67-13,10.25-13.92,9.38-1.06,18.69-2.58,28.17-2.49,2.19,0,4.31-.51,6.28.93,1.76,1.28,2.49,2.88,1.75,4.95-.84,2.34-2.17,2-4.44,1.47-10.86-2.51-21.12,2.43-31.76,3.13-2.17.15-3.3,2-2.5,4.24,1,2.66,3.13,3.4,5.86,3.46,9.58.21,18.92-1.42,28.25-3.25,1.84-.36,4.23-3.07,5.16.53.71,2.75-2.19,2.49-3.93,2.83-9.06,1.81-17.41,6.29-26.78,7-4.67.36-6.31,2.41-5.41,7.66,1,5.78,1.42,11.49,4.14,16.92,1.82,3.63,4.5,2.58,5.35.78C3416.49,631.29,3426.7,631.59,3430.17,623.88Z"/><path d="M3506.58,717.77c-.44-16.06,3.1-22.32,13.47-24.38,7.5-1.49,12.69,3.23,16.6,8.26,3.61,4.65,4,10.63.07,16-6.54,8.91-15.64,14.06-26.11,16.39-4.34,1-5.19,2.7-5.17,6.54,0,4.77,1.55,9.09,3.07,13.47.89,2.56,2.31,5.15,2.39,7.75.13,4.21.88,10.89-3.53,11.38s-3.76-6.13-4.3-9.92c-1.11-7.82-.17-16.4-3.11-23.38-4.35-10.3-3.6-20.62-4.19-31.06-.16-2.91-6.4-7-.24-8.36,6.82-1.51,4,5.16,4.52,8.67.81,5.7,3.25,11.1,2.72,17.09-.26,2.95,1.78,4.52,4.86,3.73,11-2.83,19.34-9.54,25.9-18.47,1.93-2.63,1.27-5.17-2.06-7.44-9.25-6.28-18.33-3.46-21.42,7.14a27.35,27.35,0,0,1-1.44,3.81A23.52,23.52,0,0,1,3506.58,717.77Z"/><path d="M3015.1,589.64c.81-.09,1.64-.11,2.44-.28,2.2-.48,4.74-1.18,4.83,2.22s-2.25,3.57-5.1,3.58c-8.83.06-16.53,4.51-24.76,6.93-3.18.94-5.22,3.41-4.38,6.86.91,3.73,4.37,2.37,6.9,2.63,8,.83,14.48-4.25,21.82-6.09,1.81-.45,3.81-2.11,4.92.24s-1.15,3.32-3,3.79c-9.4,2.37-16.18,11.27-26.86,10.6-2.5-.16-2.91,2-2.32,4.17.8,2.88,1.78,5.73,2.4,8.65.69,3.26,3,4.29,5.32,2.81,5.29-3.31,12.66-4.37,14.17-12.16.33-1.67,1.21-3.39,3.17-3,2.66.47,2.12,3,1.93,4.69-.71,6.28-12.92,18.08-19.19,18.57-4.27.33-8-1.51-9-5.55-2.53-9.69-7.65-19-5.12-29.58.3-1.23,1-2.51-.35-3.69-4.54-4-4.67-4.67.87-7.66C2993.44,592.07,3004.44,591.44,3015.1,589.64Z"/><path d="M3100.66,705.25c-4.42,3.41-9.25,3.86-13.61,5.44-7.37,2.67-14.69,5.51-22.11,8.06-2.05.71-3.65,1.55-3.45,3.81.28,3.13,3.07,3.07,5,2.74,6-1,12-2.45,20-4.16-5,6.18-10.86,6.69-15.65,8.86-7.73,3.49-10.36,14.25-4.27,20.14,3.09,3,7.1,3.1,10.21-.14,3.54-3.68,8.74-5.66,10.8-10.92.64-1.66,2.45-3.45,4.54-1.82,1.66,1.3.29,3.09-.5,4.4a54.19,54.19,0,0,1-17,17.42c-5.07,3.3-10.21,3.15-13.91-3.1-4-6.81-4.83-14.29-5.71-21.86-.48-4.22,2.29-9-3.29-12.45-2.12-1.31-.15-5.29,2-7C3059.27,710.28,3090.59,704,3100.66,705.25Z"/><path d="M3184.23,608.06c-6.53,1.81-12.95,4.28-19.6,5.27-8.25,1.23-10.84,5.31-8.49,12.87,1.6,5.16-2,13,2.12,15.1,5.2,2.56,4.85-8,10.63-8.89,1.61-.24,3.1-3.35,4.83-1.72,2.42,2.27-.46,3.72-1.87,5.15-3,3.11-4.57,7.48-8.56,9.82-5.61,3.3-10,1.7-12-4.5-4-12.28-2.68-25.36-5.66-37.86a8.37,8.37,0,0,1,5.45-9.95,161.73,161.73,0,0,1,39.15-7.49c1.62-.11,4.25-1.58,4,1.94-.16,2.21-1.76,3.29-4,3.32-10.58.13-20.24,4.77-30.55,6.28-3.51.51-7.39,2.22-6.36,6.89s5.14,2.79,8.2,2.69C3169,606.73,3176.32,604,3184.23,608.06Z"/><path d="M3404.51,710.11c-7.2-1.52-14.51,4.75-22.85,3.2-1.25-.23-2,.72-2,2,0,2.08,1.59,2.8,3.27,3,5.82.75,11.38-.62,16.86-2.34,2.27-.72,5.29-2.62,5.75,1.24.38,3.22-3.1,1.76-5,2.31-7.81,2.29-15.57,4.72-23.3,7.22-.92.3-2.34,1.5-2.25,2.07,1.21,7.26,1.6,14.92,4.38,21.57,2,4.89,7.53,4.48,11.93,1.06,1.89-1.47,3.25-6.12,6.14-3.1,3.64,3.83-2.16,4.58-3.69,6.4-6.67,7.9-12.62,9-16.3,2.9-1.93-3.21-4.93-6.11-5.67-9.79-2.17-10.72-4.08-21.5-5.58-32.34-.69-4.92,1.54-7.36,7.33-6.67,10.35,1.23,20.2-3.44,30.52-3.42a11.72,11.72,0,0,1,1.63-.17c3.23.45,9-2.17,9.12,1.83C3415,712.27,3409.2,710.17,3404.51,710.11Z"/><path d="M3446.46,759.79c-5-.88-10.89-1.85-16.74-3-3.43-.67-6-2.86-4-6.29,2.12-3.73,3.72.24,5.57,1.21,6.58,3.4,13.17.47,19.44-.92,4.1-.9,1.54-3.84-.76-4.95-6.83-3.28-10.55-9.3-13.79-15.58-2.42-4.71-3.84-10.6.37-14.45,4.48-4.09,8.09-11,16.24-8.94,1.92.47,4,.5,4.15,3,.15,2.14-1.5,2.57-3.2,2.91-5.71,1.13-11.18,3.9-11.58,9.82a18.28,18.28,0,0,0,7.92,16.25c5.29,3.61,10.3,8.12,17.35,8.49,2.78.14,5.17,1.16,4.8,5.08-.35,3.63-2.26,4.26-5.36,4.57C3460.36,757.68,3453.92,758.75,3446.46,759.79Z"/><path d="M3681.54,590.91c-5.07,2.07-9.44,4.18-15,3.23-5.95-1-9.27,1.5-8.77,8.27.66,9,.84,18,2.9,26.81.33,1.45-.63,3.59,1.83,3.87,2.74.32,4.16,1.41,3,4.27-.88,2.15-2.46,4-4.89,3.64-2.7-.36-4.17-2.65-4.56-5.15-.92-5.87-1.62-11.77-2.27-17.67-.76-7,.88-15.06-3.95-20.52-5.74-6.5-12.61.93-19.06.77-5.13-.13-10.21,2.7-15.35.24-1.67-.81-4-1.46-3.64-3.8a4.31,4.31,0,0,1,3.81-3.8c21.56-1.31,43.11-3,64.74-1.91C3680.49,589.17,3680.63,589.56,3681.54,590.91Z"/><path d="M3713.55,591.54c11-.1,27.44,11.59,29.75,21,1.92,7.84-2.87,13.53-8.64,17.11-5.19,3.21-10.08,7.19-16.84,8.27-9.68,1.54-16.77-.95-20.07-10-3.14-8.59-3-17.67-2.49-26.68,0-1,.6-2.42,1.32-2.73C3702.49,596,3708.5,593.59,3713.55,591.54Zm-9.66,8.06c1.74,1.66,6.54,2.18.85,5.9-6.57,4.3-4.57,20.92,2.14,25.21,7.67,4.9,30.24-4.42,32.14-13.3a5,5,0,0,0,0-2.39C3734.68,601.2,3715.89,590.87,3703.89,599.6Z"/><path d="M3644,709.45c2.29-.15,2.77,1.54,2.91,3.67.57,8.69,3.37,17.09,3.24,25.92-.06,3.74.47,7.61,3.83,10.42s.81,5.07-1.35,6.6c-3.2,2.26-4.72-.73-5.24-2.93-1.63-6.86-2.93-13.81-4-20.78-.84-5.31-.2-10.76-3-15.86C3638.87,713.75,3639.65,710.45,3644,709.45Z"/><path d="M1283.8,307c4.54-.7,6.44-4.07,8.62-6.62,11.53-13.51,23.47-7.3,28.44,7.83,2.54,7.69,1.59,15.29-5.61,20.59-3.81,2.81-3,5,.64,6.46,5.06,2,9,6.2,14.74,6.82,2.71.3,5.77,1.79,5.31,5.08-.34,2.39.07,5.85-3.28,6.94-2.89.94-4.72-1-7.15-2.37-9.63-5.54-18.63-12.29-29.1-16.25-4.77-1.81-8.74-1.55-5.57,5.45a6.11,6.11,0,0,1-.6,6.27c-1.65,2.26-1.94,6.6-5.88,5.83-3.59-.71-2.16-4.42-2.69-6.94-2.78-13.3-.79-27.11-4.17-40.35a3,3,0,0,1,.24-1.61c1-3-.92-6.85,2.57-9a3.3,3.3,0,0,1,3,.57c3.33,2.87.72,6,.21,9.08A9.7,9.7,0,0,0,1283.8,307Zm16.34,16.66c7.94.08,13.46-4,13.14-9.69-.3-5.21-2.22-10-7.82-11-4.44-.83-15.48,9.66-15.15,14.25C1290.77,323.52,1296,323.39,1300.14,323.7Z"/><path d="M1501.41,467.46c1.3-8.3-1.66-16.54-4.59-24.77-.85-2.38-1.75-4.8.38-6.85a3.09,3.09,0,0,1,2.9-.39c2.29,1.39,2.9,3.59,2.78,6.32-.09,2.27-1,5.9,1.67,6.5,3.32.76,2.85-3.15,3.76-5.22,4.1-9.37,27-18.34,36.49-14.45,3,1.23,2.09,3.44,1.81,5.48-1.31,9.41-7.25,15.4-15.65,18.3-6.45,2.23-6,5.49-3.11,9.71,8.77,13.06,15.52,15.48,30.89,12.28,4.24-.88,6.46-3.64,9-6.51,1.3-1.48,3.27-2.44,5-.68,1.35,1.39.39,3-.5,4.46-11.42,18.5-28.6,17.21-40.2,4.83-4.79-5.12-10-9.89-14.53-15.35-1.56-1.9-3.47-4.39-6-3a6.14,6.14,0,0,0-2.57,7.25c1.61,5.11.46,10.33,1.11,15.43.36,2.75-.79,4.31-3.13,4.9-3.06.78-3.3-1.87-4.22-3.82C1500.47,477.44,1502.34,472.7,1501.41,467.46Zm17.79-18c9.72.14,15.16-6.61,20.13-13.29,2.72-3.67-1.5-3.86-3.68-3.62-7.4.81-14.38,2.87-19.81,8.46-1.51,1.55-3.64,2.88-2.73,5.43C1514.11,449.21,1516.71,449.39,1519.2,449.43Z"/><path d="M1602.7,307.64c-3.06,5.39-6.41,7.4-10.48,8.51-5.52,1.51-11,3.08-16.53,4.65-7.82,2.24-9.2,5.13-6.35,13.2,2.55,7.21,6.41,8.88,13.91,5.57a73.58,73.58,0,0,0,9.17-5.29c2.6-1.63,3.51-5.64,7.5-5.53-1,13.59-19.75,25-31.11,18.66-7.33-4.07-7.5-12.15-8.9-19.22-.56-2.77,1.09-6.08-2.92-7.51a3.34,3.34,0,0,1-1.36-1.81c5.36-5.81,3.06-12.78,3.25-19.42,0-1.85,2.3-2.83,4.43-2.91l44.83-1.79c2-.08,4.28,0,4.58,2.36.43,3.45-2.58,3.79-5,4.09-11.31,1.43-22.64,2.68-34,4.1-2.82.36-7.06.22-6.44,4.31.66,4.3,4.63,2.13,7.46,2.17C1583.84,311.92,1592.45,309.06,1602.7,307.64Z"/><path d="M1662.23,316.67c-.1,20-12.89,31.1-28.81,26.81-5.1-1.38-8.47-3.77-8.12-10.25.5-9.18-1.74-18.23-3.58-27.22-1.14-5.56-1-9.59,6.39-6.82,2.17.81,2.77-.51,3.82-1.79,9.33-11.36,21.54-9.46,27.09,4.38A50,50,0,0,1,1662.23,316.67Zm-7.83.32c-.26-8.65-5.59-17.24-10.6-15.92-7.16,1.88-8.21,8.69-8.85,14.92s1.17,12.33.06,18.69c-.74,4.22,3.17,3.44,5.79,2.6C1648.48,334.8,1654.66,325.48,1654.4,317Z"/><path d="M1398.68,443.12c-7.88,5.09-17.3,6.95-26,9.81-6.13,2-7.82,4.49-6,10.28a39.28,39.28,0,0,1,1.57,8c.43,4.23,2.72,7.49,6.37,8.71,3.41,1.14,6-1.69,8-4.39,1-1.36,1.37-4.28,4-2.65A4.3,4.3,0,0,1,1388,478c-2.35,6-5.53,11.4-12.58,12.71-8.19,1.54-9.67-5.07-12.05-10.35-4.47-9.92-3.21-20.89-5.44-31.25a41.61,41.61,0,0,0-1.45-6.26c-2.4-6.43.62-11.82,7.25-12.5,12.87-1.32,26,.4,38.74-2.59,1.63-.38,3.65.19,3.8,2.16.24,3-2,4.32-4.61,4.69-9.42,1.38-18.86,2.63-28.29,3.9a31.9,31.9,0,0,0-4.07.35c-2.13.6-4.58,1.52-4,4.28s3.06,2.32,5.35,1.93c9-1.52,18.09-2.88,27.14-4.31Z"/><path d="M1839.58,328.39c-.08,3.13,1.6,6.77-2.14,8.91-3.9,2.24-5.74-1.73-8.51-3-8.89-4.1-16.64-9.89-24.23-15.92-3.34-2.65-4.64-.62-4.49,2.3.19,3.87.38,7.56-1.41,11.18-.81,1.65-.69,4-3.55,3.32a4.17,4.17,0,0,1-3.48-4c-.37-9.05-2.67-17.66-5.34-26.26-1.33-4.27.53-8.13,4.19-10.69,2.12-1.5,4.75-2.19,5.94,1.18,3.68,10.41,12.84,15.49,20.8,21.74a40.77,40.77,0,0,0,4.72,3.25c2.34,1.35,4.29,5.44,7.55,2.2,2.68-2.66.64-6-1-8.24-3.42-4.78-2.29-11.23-6.5-15.72-1.64-1.75-.09-4.2,1.69-5.69s2.81-.46,3.92,1.11C1829.7,296.72,1839.48,324.72,1839.58,328.39Z"/><path d="M1317.88,481.1c-11.12-2.1-22.27-4-33.35-6.34-5.91-1.23-5-5.62-3.43-9.65a9.12,9.12,0,0,1,3.31-3.55c2.07-1.47,3.69-6,6.23-3.87,3.13,2.59-.78,5.39-2.55,7.31-3.94,4.3-2.63,6.09,2.48,6.56,6.77.63,13.55,1.55,20.37.33,1.48-.26,3.49.81,4-1.56.4-1.87-.84-3-2.34-3.87-8.39-4.92-9.81-13.22-10.09-21.8-.24-7.36,3.09-13,9.66-16.61,4.77-2.6,8-7.58,13.56-8.89,3.41-.81,7.57-1.92,9.76,1.54,1.66,2.63,1,6.07-3.48,6.19-6.1.17-10.64,4-15.53,6.75-12.59,7-9.07,23.38,4.88,31.23a21.45,21.45,0,0,0,4.47,2c3.39,1,6.89,1.08,6.18,6.51s-3.88,6.73-8.26,7.17c-1.89.19-3.81,0-5.72,0Z"/><path d="M1511,315.84c0-11.09-.52-11.59-10.44-10.49-5.14.58-10,2.17-14.9,3.75-3.32,1.06-6.86.75-8.11-3.19-1.41-4.44,1-6.32,5.38-7,6.09-.92,12.06-3,18.16-3.38a112,112,0,0,0,24.8-4.06c2.22-.64,6.48-2,6.79,3.1.22,3.71-1,6.56-5.29,6.7-7.14.24-8.17,4.56-7.68,10.51.56,6.76.6,13.57.89,20.35.07,1.58-.57,3.66,1.24,4.41,2.38,1,6.31.52,5.9,4.16s-4.43,5.84-6.63,8.75c-1.87,2.46-6.94,2.34-7.48-3.09C1512.61,335.83,1511.83,325.25,1511,315.84Z"/><path d="M1422.9,462.08c-1.15-17.57,6.93-23.66,19.45-27.79,5.08-1.68,9.92-.59,13.23,3.88,1.46,2,4.77,4.1,2.32,7-2.07,2.47-5.29,2.33-8.29,1.16-10.79-4.19-18.5.07-19.86,11.58-.58,4.9-2.67,10.05.93,15,9.66,13.2,29.8,12.13,40.76-2.35a47,47,0,0,0,2.63-4.16c.75-1.27,1.72-2.39,3.2-1.41,1.24.82,1.16,2.2.7,3.66-3.27,10.42-22.08,24.19-31.42,22.92-14.3-1.93-22.55-11.94-23.64-28.66C1422.89,462.63,1422.91,462.36,1422.9,462.08Z"/><path d="M1438.76,347c-10.22-1.38-17.5-5.74-20.18-14.3-3.48-11.12-1.46-18.43,7.37-24.24,3.24-2.13,6.72-3.26,11.32-.83,5.88,3.1,13.48,1.6,18.42,8.47,3.48,4.83,9.52,8.3,7,15.16-2.74,7.5-8.61,12.5-16.34,14.82C1443.8,346.81,1441,346.71,1438.76,347Zm-13.56-22c-.2,10.85,11.52,16.61,21,11.48,10.13-5.45,11.94-11.47,4.24-16.26-5.4-3.37-11.85-5.48-18.69-3.28C1427.25,318.36,1425.43,321.62,1425.2,325Z"/><path d="M1356.24,332.32c.2-12.61,8.06-24.22,16.35-24.13,13.07.14,27.34,12.88,26.83,24-.49,10.6-11.53,21.11-22.53,20.57C1362.84,352,1357.07,346.92,1356.24,332.32Zm8.45.13c-.26,8.12,3.54,11.51,13.07,11.66,6.78.11,14.7-6.32,14.62-11.88-.09-6.4-8.41-15-14.75-15.27C1372.15,316.75,1364.92,325.41,1364.69,332.45Z"/><path d="M1668.57,471.42c0-7.07-.15-14.14,0-21.2.12-4.3-1.34-5.93-5.78-5.2q-10.5,1.71-21.09,2.73c-3.11.3-7.78.76-8.13-3.1-.3-3.4,4.21-5.26,7.33-4.92,11.09,1.23,21.61-4,32.62-2.44,3,.43,5.2-1.16,7.74-2,2.24-.74,4.77-.42,5.69,1.85a3.51,3.51,0,0,1-3.06,4.82c-9.33.2-8.58,6.5-8.11,12.67.65,8.46-2.13,17.18,2.62,25.43.8,1.39,3.26,6.92-2.66,7.47-4.46.41-6.55-1.89-6.52-6.29,0-3.27,0-6.55,0-9.82Z"/><path d="M1575.34,450.08c-.25-2-.47-3.62-.64-5.24-.19-1.82.46-3.4,2.21-3.92,2-.59,2.67,1.36,3.75,2.5,2.18,2.29-.71,7.82,4,7.89,6.67.12,13.39,2.45,20.08-.05,1.83-.68,4.47-3.07,5.57-.24s-2,4.14-4.34,4.89c-5.69,1.79-11.37,3.66-17.16,5-4,.93-5.86,2.4-4.34,6.72,1.4,4,3.7,11.51,5.15,10.78,5.15-2.59,12.36.49,16-6,1.06-1.89,2.89-6,6-3.27,2.23,2-1.06,4.48-2.44,6.11a42.44,42.44,0,0,1-8.91,8.29c-7.37,4.82-17.61,1.26-20-6.85-1.3-4.38-1.46-9.1-2.8-13.46S1575,454.39,1575.34,450.08Z"/><path d="M1751.79,317.8q0-9.37,0-18.74c0-2.24.11-4.7,2.68-5.34,2.77-.7,3.44,2,4.65,3.73,1.36,1.92,1.18,4.09,1.14,6.28Q1760,316.34,1760,329c0,2.41-.35,5,1.87,6.8,2.38,1.93,2.23,4.22.83,6.53-1.52,2.5-4.1,2.44-6.56,2.13-3.14-.41-3.79-3.12-3.87-5.48-.24-7-.09-14.1-.09-21.15Z"/><path d="M1811.53,438.33c4.39.37,9.89-1.05,9.58,6.47-.29,7.2-6.69,15.33-12.59,14.82-5.43-.47-10.1-2.56-9.7-9.53C1799.31,441.36,1802.72,438.12,1811.53,438.33Z"/><path d="M1745.22,456.72c-7.52,1-7.93-5.29-8-10.13-.12-5.22,3.76-8.64,9.19-8.07,5.63.6,12,1.28,12.63,9C1759.41,452.74,1753.43,456.67,1745.22,456.72Z"/><path d="M1861.36,454.31c-4.3-2.49-11.35-1.63-11-9.58.22-5.14,2.32-9.42,7.94-9.71,5.09-.26,14.21,8.39,14.2,12.41C1872.48,455.74,1865.37,452,1861.36,454.31Z"/><path d="M1603.45,428.84c7.23-.17,12.86,1.87,18.64.34a2.78,2.78,0,0,1,3.64,2.38,3.09,3.09,0,0,1-3.42,3.68c-11.28-.71-22.11,2.77-33.23,3.32-3.17.15-6.74-.46-7.13-4-.46-4.14,3.71-2.9,6-3.46C1593.55,429.76,1599.15,428.4,1603.45,428.84Z"/><path d="M655.9,312.24c6.39-3.87,9-9.61,14.55-12.45,7.15-3.63,14.15-5.44,22-4.57,8.62,1,11.94,7,8.13,14.86-1.72,3.55-4.77,5.93-7.34,8.75-3,3.3-3.36,5.65,2.1,6.35,6.76.86,13.46,2.26,20.24,2.93,3.73.38,7.69.34,11-2.24,4.45-3.48,8.34-7.65,14-9.54a7.1,7.1,0,0,0,4.38-6.55c-.21-8.94,7.34-10.85,12.67-14.62,3.32-2.34,5.44.7,6,3.29,2.72,13.59,12,12.39,21.91,10.19,1.45-.32,3.51-1.62,4.18.55.74,2.43-1.67,3.1-3.41,3.74-1.52.56-3.49.38-4.67,1.3-2.58,2-7.84.69-7.83,5.82,0,3.92,2.18,6.22,5.85,8,3.95,1.87,2.94,5.31.89,8.33-3,4.38-5.22.48-7.3-.94-2.32-1.59-2.69-4.56-3.68-7.11-3.86-9.93-14.86-11.22-21.6-2.59-1.32,1.7-1.89,4-3.33,5.57-2.32,2.51-4.11,6.61-8,6.25-5.28-.5.17-6-3.69-8.18-7.52,11.91-18.56,7.44-29,5.21-11.46-2.44-22.9-5-34.19-8.09-5.7-1.55-6.87.83-6.68,5.52.1,2.46.63,4.91.54,7.35-.09,2.62.11,6.05-3.52,6.38s-4.33-2.66-4.63-5.54a102.39,102.39,0,0,1-1-11.29,34.32,34.32,0,0,0-6.25-20.66c-1.4-2-3.4-3.94-1.51-6.58,1.13-1.58,2.92-3.09,4.84-2,2.36,1.3,4.46,3.16,4.15,6.47A48.82,48.82,0,0,0,655.9,312.24Zm17,6.32c9.14.84,16-2.86,20.84-10.45,1.28-2,3.46-4,1.81-6.62-1.4-2.26-4-1.5-6-1.37-7.62.45-14.16,4.07-20.47,7.86-3.08,1.85-5.17,5.76-4.1,9.16C666.11,321,670.15,318.2,672.86,318.56Z"/><path d="M890.9,197.42c0-5.71-.4-11.46.13-17.13.39-4.19,2.33-6.41,7.19-3.33,6.92,4.39,14.36,8,19.88,14.25,2.89,3.25,5.16,3.62,7.82.11,4.46-5.88,11.22-9.53,15.24-15.87,3.07-4.86,5.08-2.22,6.84,1.21,4.54,8.84,6.5,18.39,7.76,28.13.47,3.7-.34,7.65,3.31,10.5,2.16,1.68.91,4.09-.05,6s-3.07,2-5,1.59c-2.59-.54-3.41-2.38-3.46-4.82-.18-8-2.14-15.62-3.73-23.34-.54-2.62-.72-5.81-4-6.41-3-.55-5.17,1.55-6.8,3.79-2.72,3.73-5.12,7.7-7.86,11.42s-5.39,6.23-8.88,0c-3.17-5.66-9.66-7.81-15.09-10.81-3.16-1.75-4.24.43-4,3.63.31,4.9,1,9.94.22,14.69-.54,3.18-.31,9.09-5.63,8.39-4.25-.55-3.28-5.58-3.49-8.9-.26-4.35-.06-8.72-.06-13.08Z"/><path d="M811.81,294.1a5.36,5.36,0,0,1,5.52,2.75c6,9.31,15.14,15.17,23.76,21.59,1.66,1.23,3.57,3.21,5.82,1.77,2.78-1.77,1.05-4.46.52-6.7-.93-3.94-2-7.85-3.23-11.72-1.54-5,.95-7.87,5.27-9.36,2.8-1,5.5-.09,3.94,3.51-3,6.89.64,12.73,2.24,18.92.14.51.63.92.8,1.42,1.73,5.32,3.21,11.93-.57,15.52-4.06,3.85-9.6-.49-13.92-3.05-6.08-3.6-12.43-6.83-17.36-12.13-1.28-1.37-3-2.64-5.08-1.67-2.23,1-1.51,3.23-1.61,5.05-.13,2.46-.42,4.92-.31,7.36.17,3.61-1.33,5.9-4.87,6.33-4.41.54-5-3.51-5.11-6-.36-8.46-1-16.55-5.32-24.31C799.94,299.13,805.49,294.16,811.81,294.1Z"/><path d="M1170.72,195.27c-.54,6.57,2.73,12.89,1.19,19.52-.49,2.13,1.13,3.56,2.85,4.55,4.45,2.55,3.27,5.72.94,8.88-1.43,1.93-2.87,4.37-5.81,3.7s-3.43-3.34-3.78-5.78c-1.23-8.62-2.62-17.24-3.35-25.91-.36-4.18-1.57-5-5.56-4.19-5.82,1.19-11.79,1.66-17.69,2.48-13.29,1.85-15.43,4.81-12.66,17.76.84,3.94,4.7,9.62-2,10.49-6.5.85-4.51-5.88-5-9.86-1-8.92-1.87-17.86-3-26.77-.39-3.07,0-5.3,3.16-6.64,3.52-1.52,4.27.62,4.81,3.31s2.61,3.35,4.93,3.3c7.63-.17,15.26-.36,22.88-.7,2.25-.1,5-1.12,4.88-3.48-.36-5.62,2.93-7.06,7-6.1,4.6,1.07,6.57,5.06,6.56,9.76C1171.18,191.49,1170.88,193.38,1170.72,195.27Z"/><path d="M1284.24,179.94c-.28,10.43,3.92,19.34,4.75,28.85.8,9.13-.16,10.06-8.7,6.56-9.56-3.92-18.78-8.37-26.76-15.15-1.64-1.4-3.83-4-6.44-2.41-3.08,1.92-.06,4.4.26,6.58.89,6,1.78,11.9-1.66,17.5-1,1.63-1.54,3.71-4,3.35-2-.29-2-2.26-2.59-3.73-2.57-6.2-2.48-12.81-3.18-19.31-.42-4-.44-8.05-2.14-12-2.37-5.51,2.13-9,5.64-11.41s5.49,2,7.49,4.39c7.61,9,16.86,16,26.82,22.07,2.1,1.29,4.18,3.14,6.64,1.11,2.15-1.78.51-4,.16-6.06-1-6.16-1.83-12.36-3-18.49-.74-3.93-.41-8.12,3.84-8.45C1287.4,172.89,1282.62,178.44,1284.24,179.94Z"/><path d="M752.9,224.45c8.71-2.92,17.18-5.66,25.55-8.65,2.18-.77,5.26-1.52,4.82-4.7s-3.64-2.89-5.91-3.25c-6.61-1-12.22-2.82-16.45-9-8.53-12.54-4.44-25.15,10.43-28.82,5-1.24,10-4.65,15.66-1.27,2.73,1.61,4.58,3.67,3.77,6.4-.88,3-3.7.94-5.66.76a41.58,41.58,0,0,0-9.79-.27c-5.76.79-10.79,2.44-12.05,8.93-1.38,7.08,3.13,11.46,8.45,14.23,7.9,4.09,16.69,4,25.45,3.51,2.44-.13,6.48-3,7.35,2,.63,3.67-.45,7.13-4.33,8.87C789.76,217.8,779.51,223,768.11,225c-6,1-11.3,5.9-18,2.85-3.75-1.71-6.93-3.95-2.46-7.55,3-2.46,4.66-10.28,9.25-6.76C764,218.91,751.59,218.78,752.9,224.45Z"/><path d="M1019,345.45c-7.47-.1-15-1-20.78-5.95-7.85-6.83-9.41-15.88-5.66-25.44,3.61-9.21,7.58-18.57,19.82-18.67,3.82,0,8.74-1.22,9.26,5.06.5,6-3.29,6-7.84,6.08-9.18.19-14.14,5.4-14.53,14.28-.34,7.61,5,13.44,13,15,12.35,2.36,22.54-2.61,32-9.36a12.64,12.64,0,0,0,5.14-11.51c-.17-2.19-.31-4.79,2.95-4.68,3.47.13,2.23,2.58,2.29,4.77C1055.27,335,1035.27,345.64,1019,345.45Z"/><path d="M1324.92,205.32c.23-6.58.63-13.09,4.21-19,2.61-4.28,6.35-5.77,11.12-5.15,3,.39,4.23,2.9,4.46,5.23.38,4-2.92,2.16-4.66,2-3.35-.21-4.83,1.74-6.32,4.23-5,8.41-3.2,24.39,3.68,31.87,3,3.24,4.72.61,5.36-1.51,2-6.69,6.84-11.75,9.64-17.94,2.41-5.32,5.8-7.53,12.25-6.26,9.38,1.84,13.35,6,12.43,15.73-1.17,12.27-16.52,24.5-28.68,22.84-10.23-1.39-22.88-15.13-23.47-25.56C1324.82,209.7,1324.92,207.51,1324.92,205.32Zm46.34,8.64c0-2.83-.43-5.57-3.2-7s-5.26,0-7.42,1.72c-4.55,3.68-7.53,8.66-10.05,13.73-1.8,3.64-.79,7.2,4.24,7.51C1361.07,230.26,1371.07,220.44,1371.26,214Z"/><path d="M1007.46,214.47c1.14,7.11-4.45,15.55-11,17.2-7.15,1.78-8.6-4.38-10.86-8.73-1.19-2.3-1.4-5.28-1.46-8-.11-4.65-.41-8.28-6.83-6.44-2.1.6-5.51.3-5.77-3-.24-3.06,1-6.76,4.62-6.52,7,.47,6.44-3.69,5.28-7.79-2-7,1.45-10.76,7.33-12.27,7.54-1.94,15.33-3,23-4.19,2.75-.44,6.28-.29,6.89,2.82.76,3.83-3.33,4.63-5.92,5.49-5.92,2-12,3.3-18.08,5-2.72.76-5.62,1.81-4.71,5.44.86,3.42,3.85,3.34,6.69,3a11.27,11.27,0,0,1,1.61-.27c3.32.05,8.65-3.17,9.46.75.95,4.61-5,5-8.72,6.16-8.08,2.48-10.33,11.24-4.7,17.71,1.62,1.86,3.07,2,4.86.45C1001.65,219.23,1004.16,217.18,1007.46,214.47Z"/><path d="M601.5,308.18c5.53,1.39,11.6,1.35,17.38-1.91a2.61,2.61,0,0,1,3.52,1.2c.66,1.41-.25,2.57-1.28,3.58-3.15,3.1-7.2,3.5-11.3,4.11-14.54,2.15-16.77,7.08-9.24,20.06,1.55,2.66,1.73,5.34-.75,7.39-1.55,1.27-2.65,4.15-5.28,3s-3.84-3.79-4-6.7c-.25-4.9-.41-9.8-.63-14.7-.12-2.39.64-5.41-2.18-6.52-3.78-1.5-3.82-3.06-1.32-5.89,2-2.27,2.3-5.63.3-7.57-4.34-4.23-1.36-7.91,0-11.82,1.52-4.44,3.53-6.51,7-1.38a4,4,0,0,0,4.15,2c10.17-1.67,20.33-3.42,30.51-5,2.79-.43,6.7-3.79,8,1.37,1.13,4.39-2.62,5.23-6.06,5.85-9.92,1.77-19.8,3.75-29.73,5.42-3.38.57-7.19.71-6.71,5.22S597.74,309.54,601.5,308.18Z"/><path d="M897.64,291.69c12.62.91,23.33-.2,34-1.39,3.94-.44,6.77.1,7.35,4.17.64,4.55-3.33,4.75-6.11,4.54-6.59-.49-7.66,2.63-7.11,8.33.7,7.33.64,14.74.88,22.12.07,2.29.58,4.23,2.75,5.56,3.21,2,1.9,4.72.8,7.22a4.28,4.28,0,0,1-5.35,2.63c-3.12-.68-4.36-2.39-4.6-5.7-.74-10.35-2-20.67-2.82-31-.55-6.59-1.49-11-10.44-8.35-7.15,2.09-15,1.83-22.31,4.25-3.56,1.17-8.45,1.63-9.27-3.62s3.22-7.19,7.73-7.49C888.58,292.59,894,290.93,897.64,291.69Z"/><path d="M1102.4,180.4c-.44,2.89-2.49,3-4.84,3.11-11.77.65-12,.74-10.32,12.26,1.23,8.49.13,17.42,5,25.32,1.41,2.3.37,5.44-1.43,7.66-1.3,1.6-3.37,1.73-5.27,1.22-3.42-.92-3.33-3.94-3.63-6.61-1.05-9.17-2-18.36-3.05-27.53-.88-7.82-5.33-10.06-12.5-7.85-6.09,1.88-12.44,1.31-18.63,2.1-3.41.43-5.38-.58-5.82-3.9-.53-4,2.13-3.65,5.08-4.27,15.69-3.31,31.46-5.7,47.5-6.11C1097.94,175.71,1102,175.08,1102.4,180.4Z"/><path d="M824.68,199.41a28,28,0,0,1,2.65-10.36c3.83-9.22,12-11.75,20.47-6.48,12.69,8,12.65,29.07-.08,36.58C839,224.32,830,221,827.1,211.33,825.93,207.47,825.47,203.39,824.68,199.41Zm7.44-1c-.41,6.05,1.27,10.34,5.33,13.14,3,2.06,6.43,1.09,9.19-.94,4.57-3.36,3.27-8.07,2.63-12.69-.72-5.25-2.12-10.39-8.55-9.43C835.2,189.27,831.84,193.33,832.12,198.38Z"/><path d="M973.61,332.69c0,3.32-.51,5.35-3.16,6-2.36.59-4.55.07-5.68-2.07a61.15,61.15,0,0,1-2.9-7.54c-3-8.16-.73-17.25-4.91-25.39a6.54,6.54,0,0,1,4.45-9.14c4.67-1.23,4.09,4,4.63,6.06a112.08,112.08,0,0,1,3.21,20.07C969.61,325.54,972.84,329.14,973.61,332.69Z"/><path d="M1229.76,318.73c-.07,7.35-5,11.63-13.8,11.41-4.41-.1-9.06-1-9.18-6.95-.16-7.62,4.85-14.87,10-14.79C1224.23,308.51,1229.81,313,1229.76,318.73Z"/><path d="M1207.34,182.48c3.92,1.26,4.65,4.73,5.09,7.83,1,6.75,1.35,13.57,2,20.36.28,3.24-1.42,6.64,3.61,8.71,3,1.26.68,5.46-.53,8.08-1,2.24-2.81,4.46-5.58,4.06-3.14-.45-4.4-3.25-4.66-6-.5-5.41-.66-10.85-.81-16.28-.17-6.18.49-12.34-3.05-18.12C1200.88,187,1202.68,183.82,1207.34,182.48Z"/><path d="M1125.48,318.1c.15,6.85-5.84,11.44-14.93,11.39-6.12,0-6.94-4.83-6.92-9,0-6.24,3-11.12,9.94-11.67C1120.18,308.29,1125.35,312.56,1125.48,318.1Z"/><path d="M613.66,192.73c-1.65,6-4.44,10.52-11,10.48-5.65,0-12.15-7.23-11.38-12,.71-4.32,9.39-10.93,13.8-9.79C610.73,182.92,612.93,187.53,613.66,192.73Z"/><path d="M1176.75,318.06c0,7.23-4.15,12-10.9,11.37-5.38-.52-9.9-3.3-10.19-9.66-.2-4.5,8.81-12.88,13.26-12.57C1172.79,307.48,1176.77,313,1176.75,318.06Z"/><path d="M656.66,190.35c-.92,6-3.45,10.28-8.46,8.79s-14.38,2.51-13.65-8.45c.34-5.15,7-10.79,11.87-9.57C651.64,182.42,656.57,184.71,656.66,190.35Z"/><path d="M692.54,183.24c6.53-.69,8.4,3.87,8.87,9,.39,4.36-6.51,9.59-11.62,9-4.22-.48-9.12-.59-8.63-7.11C681.68,187.2,686,183,692.54,183.24Z"/><path d="M84,87.05c-1.49-17.92-3.11-35.82-4.4-53.75a41.33,41.33,0,0,0-4-14.92c-1.63-3.44-1.3-6.1,2.21-7.26,2.64-.86,3.71-2.3,5-4.55,1.62-2.72,5-2.85,6.88-.12,7.72,11.07,16.68,21.12,25.46,31.31,1.72,2,2.66,5.71,6,4.39,3.71-1.5,1-4.4.49-6.91-1.43-7.21-2.59-14.47-3.59-21.75-.36-2.61.75-5.41,3.64-5.5,2.52-.09,4.92,1.82,4.09,4.86-3.55,12.93,5.59,23.57,6.25,35.72.06,1,.94,2.08.88,3.09-.23,3.73,1,8.75-2.71,10.51-3.51,1.65-6-2.33-8.4-5-9.4-10.52-18-21.74-28.43-31.36-.9-.84-.66-3-2.53-2.67S88.61,25.29,88.6,27c0,4.9-.16,9.83.17,14.72C90,59.59,91.38,77.5,92.7,95.4c.15,1.91.79,3.91.4,5.7-.72,3.37,1,9-4.61,8.89-5.23-.09-4.34-5.72-4.9-9.08-.74-4.5-.18-9.21-.18-13.83Z"/><path d="M560.63,47.93c.52,6.81,1.16,13.62,1.52,20.44a28.2,28.2,0,0,1-.6,8.1c-.58,2.37-.25,6.4-4.22,5.76-3.43-.55-2.88-4-3.06-6.75-.64-9.79-1.38-19.58-2.1-29.38-.18-2.44-.29-4.8-2.52-6.62-4.25-3.48-4.34-7.14-.26-11.06,2.86-2.75,1.87-8.81,6.74-9.57,5.78-.9,4.62,5.77,7.55,8.34,8.17,7.18,13.47,17,22.39,23.71,10.95,8.28,22.34,15.38,35.41,19.68,4.71,1.55,7.09.46,5.56-4.89-3-10.47-6.09-20.91-9.18-31.36-1.59-5.36-1.53-10.79-.85-16.25.29-2.3,1.74-3.22,4-3,2.48.2,3.47,1.74,3,3.9-3.25,14.34,2.57,26.69,8.31,39.11,1.37,3,1.94,6.28,3.19,9.31,1.54,3.72,2.56,7.44-.27,10.84-3.18,3.83-7.3,1.52-10.69.55A113.84,113.84,0,0,1,577,51.29c-3.35-3.17-6.86-6.17-10.26-9.3-1.49-1.38-2.2-4.48-4.91-3.29s-.81,3.91-1,5.93a32.8,32.8,0,0,0,0,3.29Z"/><path d="M436.44,50.33c1,6.36,2.13,13.85,3.34,21.32a3,3,0,0,0,2.89,2.47c3.46.42,5.12,2.34,3.9,5.59-1.13,3-2.85,6.36-6.58,6.51-3,.12-4.65-2.43-5.59-5.19-3.56-10.44-2.76-21.58-5.27-32.23-.91-3.88-1.82-5-5.72-4.43-9.26,1.42-17.89,4.78-26.56,8.07-2.34.9-4.7,2.33-3.89,5.4,1.75,6.6-.72,13.59,2.39,20.17,1.69,3.58.76,8.77-3.08,9.67-5,1.16-5.53-3.63-5.75-7.7-.31-6-.92-11.93-1.4-17.9,0-.54.23-1.36,0-1.6-8-6.94-1.45-14.7-1.22-22.07A38,38,0,0,0,382,26.33c-1.1-3.66.63-5.83,4.17-6.54s3.91,2,4.2,4.52c.44,3.79,1.52,7.64,1.16,11.35-.74,7.56,3.35,7.69,8.69,6.46,4-.91,7.84-2.13,11.81-2.95,5.82-1.21,10.79-2.27,8.51-10.63-.83-3,.49-8.55,5-9.3,4.88-.82,6,4.08,6.94,7.62C434.31,34.18,437.5,41.3,436.44,50.33Z"/><path d="M483.17,38.91c8.52-.6,18.59-1.3,28.66-2,1.57-.11,3.52-.83,3.87,1.53.4,2.66-1.39,2.78-3.58,3-11.66,1.06-22.67,5.72-34.44,6.24-3.71.16-4.88,2.72-4.27,5.6,1.86,8.75,3.2,17.67,8.27,25.45,2.76,4.23,6.15,5,10.52,3.21,7.26-3,14.8-5.53,19.8-12.34,1.44-2,3.75-5.39,6.41-3s-1,4.58-2.25,6.82c-5.26,9.42-13.75,14.38-23.6,17.68s-16.65-2.74-21.26-12.93c-2.37-5.22-2.1-11.59-3.49-17.32-2.15-8.85-3.27-18.07-10.48-25-3.51-3.37-.66-6.44,2.87-7,17.12-3,34.32-5.52,51.5-8.18,1.93-.3,4.38-.37,4.56,2.1s-2.33,2.42-4.21,2.79c-11.41,2.2-22.81,4.48-34.22,6.74-2.43.48-6.3-.78-6,3.5.29,3.92,4,2.81,6.5,3.15A45.88,45.88,0,0,0,483.17,38.91Z"/><path d="M161.9,18c11.94-2.74,24.72-.5,37.39,3,13.75,3.83,20,12.27,17.63,23.76-1.16,5.63-4.84,9.93-8.68,13.61-9.2,8.82-19.23,16.7-31.06,21.9C168.7,84,166.76,83,164.1,73.86c-3.1-10.71-2.06-22-4.89-32.79-1.23-4.72-2.13-9.42-4.28-13.88C151.68,20.44,153.52,17.69,161.9,18Zm49.36,21.38c-.32-3.2-1-6-3.85-7.16-11.76-4.89-24-7.13-36.74-5.74-2.82.31-6.59,1.31-5.68,5.48,2.38,11-.67,23.07,6.85,33,1.18,1.56.8,3-.31,4.47a2.85,2.85,0,0,0,.49,4.32c1.7,1.47,3,0,4.34-.78,9.94-6.26,19.57-13,28-21.22C207.89,48.25,210.59,44.18,211.26,39.41Z"/><path d="M57.05,53.8a7.55,7.55,0,0,1-.28,1.62c-2,3.2.36,9.58-5.17,9.8-5,.19-5.4-5.31-6.62-9.13C40.82,43.11,39,42.4,25.67,45c-8.14,1.6-11.13,7.21-13,13.89a30.27,30.27,0,0,1-5.53,10.8c-1.38,1.76-2.5,3.87-5.19,2C-.18,70.16-.4,68.06.5,65.85,2,62.34,3.63,58.92,5.07,55.41c1.09-2.65,3.35-5.3.45-8.24a1.76,1.76,0,0,1,0-2.82c10.7-8.88,11.62-22,14.69-34.17a12.22,12.22,0,0,1,2.91-5.55c5.86-6.54,6.76-6.28,10,1.61,5.17,12.56,10.78,24.93,16,37.46.93,2.21,2.15,3.84,4.32,4.55C56.8,49.32,57.72,51.46,57.05,53.8ZM25.87,37.4c3.66-.54,8.86.16,8.29-5.34-.45-4.22-1.94-11.82-5.86-11-4.79,1-4.81,8.89-6.79,13.75C20.22,38,23.93,37.23,25.87,37.4Z"/><path d="M344.9,34.68c-.64,9,1.59,17.83,2.42,26.74.18,1.88.37,4.6,1.58,5.39,7.19,4.72,3.86,10,1.07,15.1-1,1.87-1.17,5.44-4.84,4.16-2.75-1-2.95-3.35-3-6-.48-17.71-3.22-35.2-5.28-52.76-.93-7.92-4.43-9.88-12.13-8.41-12.82,2.43-25.74,4.62-38.84,5.23-3.85.18-6.71-1-6.91-5.07s3.27-4.59,6.34-4.63c17.23-.22,34-4.36,51.14-5.65a141.33,141.33,0,0,1,20.47-.27c3.07.21,6.46.26,6.31,4.57-.15,4-3.71,3.61-6.38,4.81-3.9,1.76-10.1-4.59-11.75,2.93C344.11,25.21,344.9,30,344.9,34.68Z"/><path d="M668.73,1.48c3.64.53,3.88,3.58,4.31,6.1,2.27,13.41,4.26,26.86,6.57,40.25,1.31,7.67,1.16,15.78,6.37,22.41,1.52,1.94,1.4,4.77-.56,5.87-3.1,1.74-3.27-1.73-4.08-3.45-7.49-16-8.94-33.45-12.32-50.46-.83-4.18-.36-8.54-3.14-12.5C663.73,6.65,665.47,3.49,668.73,1.48Z"/><path d="M692,95.9c-.32,3.2-1.53,5.21-4.39,5.34-3.42.14-4.65-2.35-4.9-5.19-.28-3.18,1.53-5.14,4.67-5.29C691.21,90.57,690.42,94.46,692,95.9Z"/><path d="M2843.66,612.73c-1.65,6-4.44,10.52-11,10.48-5.65,0-12.15-7.23-11.38-12,.71-4.32,9.39-10.93,13.8-9.79C2840.73,602.92,2842.93,607.53,2843.66,612.73Z"/><path d="M2886.66,610.35c-.92,6-3.45,10.28-8.46,8.79s-14.38,2.51-13.65-8.45c.34-5.15,7-10.79,11.87-9.57C2881.64,602.42,2886.57,604.71,2886.66,610.35Z"/><path d="M2922.54,603.24c6.53-.69,8.4,3.87,8.87,9,.39,4.36-6.51,9.59-11.62,9-4.22-.48-9.12-.59-8.63-7.11C2911.68,607.2,2916,603,2922.54,603.24Z"/></svg>