<svg xmlns="http://www.w3.org/2000/svg" width="1301.9" height="1888.09" viewBox="0 0 1301.9 1888.09"><title>c3-txt</title><path d="M830.21,1351.19a39.6,39.6,0,0,1,9.72-24.3c6.23-7.29,20.2-8.05,26.76-2,2.31,2.15,3.94,4.57,2.42,8-1.41,3.2-3.61,3.18-6.62,2.53-17.09-3.67-21.75-.12-23.31,17.48a29.18,29.18,0,0,0,2.61,15.76c2.37,4.81,4.52,11.16,10.19,11.53s5.25-6.87,7.58-10.65c3.9-6.31,7.38-12.89,12.61-18.24,3.9-4,8.69-5.5,13.74-2.43,4.68,2.85,5.34,7.51,4,12.5-3.37,12.73-10.7,22.53-22.41,28.57-14.51,7.49-32-3.45-35.49-22C831.11,1363,830.91,1357.91,830.21,1351.19Zm51.61,12.4c-.53-2.31-2.08-4-4.21-2.6-5.33,3.58-9.83,8.09-12.07,14.34-1,2.68.65,3.64,3,3.6C872.56,1378.86,882.19,1367.64,881.82,1363.59Z"/><path d="M369.44,1318.23c4.49.2,7.69,2.42,10.36,5.69a99.17,99.17,0,0,0,7.92,9.15c9.83,9.39,21.92,7.41,28.44-4.55,1.12-2.06,1.78-4.37,2.87-6.45,1.23-2.35,3.43-3.12,6-2.83,2.83.32,3.61,2.23,4.15,4.83,2.69,13.11,2.05,26.82,7.46,39.48,1.26,2.94-.44,6-4,7s-5.42-1-6.83-4.16c-2.37-5.38-2.68-11-3.28-16.74-.69-6.5-3.28-9.36-9.74-4.45-8.55,6.49-17.64,8-27,1.46-4.47-3.12-6.65-1.31-7.66,3.43a67.15,67.15,0,0,1-2,6.78c-1.12,3.49-3.16,6.25-7.2,5.67-4.46-.64-4.68-4.27-4.32-7.77a85.16,85.16,0,0,0-1.88-27C361.5,1322.3,363,1318.27,369.44,1318.23Z"/><path d="M787.91,1085.59c-9.61,0-18.74-1.89-27.14-6.6-4.45-2.5-8.11-3.73-9.84,2.83-.59,2.25-2.25,3.41-4.55,2.8a4.37,4.37,0,0,1-3.5-4.35c0-10.27-3.47-19.77-6.12-29.48-1-3.52-1.33-7.92,4-8.65,5-.7,4.47,3.9,5.5,6.82.71,2-.6,5.12,2.58,5.89,3.88.93,4.06-2.73,5.22-4.86,3.5-6.44,9.46-9.51,16-11.26,5.36-1.42,11.78-3.68,14.51,4.07,2.64,7.51,2.46,14.43-5.62,19.25-3.42,2-10.5,1.08-9.6,6.9,1,6.73,8.12,5.61,13.2,6.62s9.86,2.34,14.85.24c3.18-1.34,6.18-1.56,6.81,2.78.55,3.81-1,6.72-5.28,7C795.28,1085.75,791.59,1085.59,787.91,1085.59Zm-13.32-33.93c.47-3.34-2-3.27-3.85-3.27-4.15,0-8.28.68-9.58,5.46-.72,2.63,1.38,3.55,3.61,3.32C768.83,1056.76,772.75,1055.87,774.59,1051.66Z"/><path d="M240.48,1331.32c-2.18,7.69.51,15.29,0,22.8-.25,3.55.78,8.42-4.36,8.8-5.68.42-4.33-4.7-4.8-8.13-1.67-12-3.44-24-5-36-.34-2.72-2.33-6.76,1.72-7.88,4.6-1.27,4.08,3.1,4.59,5.91.84,4.66,2.45,6.35,6.15,1.87,6.09-7.36,14.6-9.36,23.52-9.8,5.35-.26,11.63-.42,14.1,5.51,2.68,6.45-1,11.89-5.7,16.08-10.12,9.08-10.18,8.85,1.55,16,6.19,3.8,12.15,5.91,18.52.51,1.61-1.37,3.69-2.31,5.34-.33s1.35,4.46-.18,6.52c-4.38,5.91-10.35,7.09-17.11,5.39-12.65-3.19-21.92-11.43-30.62-20.54C246,1335.74,244.82,1332.23,240.48,1331.32Zm15.16-5.33c4.91,0,10.19.56,10.28-5.55.05-3.93-4.34-3.93-7-3.23-4.32,1.13-11.73-2.27-12.22,4.8C246.32,1327.26,252.63,1325.37,255.64,1326Z"/><path d="M761.45,1247.37c-8.26-.08-14.68-1.4-18.24-7.55-3.36-5.81.24-10.87,3.21-15.87,1.59-2.68,5.51-5.45,3-8.7-1.77-2.32-5.72-.84-8.7-.62a17.14,17.14,0,0,0-4,.71c-3.21,1-6.54,1.21-7.36-2.64-1-4.72,3.1-5.41,6.41-5.79,6.66-.76,13.53-.07,19.89-2.74,3.39-1.42,7.56-3.06,6.18-7.72-1.43-4.86-5.5-3.61-9.27-2.66-8.14,2-16.31,4-24.54,5.7-3.57.73-8.47,3.68-9.91-2.55-1.51-6.48,4-6.6,8.16-7.53,12.85-2.82,26-3.58,39-4.73,6.41-.57,9,2.51,7.24,8.46-1.93,6.4-1.88,10.18,6.47,7.9,2.67-.73,4.76.49,4.86,3.51.12,3.79-2.78,4.22-5.56,4.18-11.84-.17-19.78,5.3-24.11,16.25-1.35,3.43-3.61,6.87-.36,10.26,3,3.16,6.93,1.94,10.49,1.2a17.31,17.31,0,0,0,5.45-2.53c2.61-1.67,5-6,8.24-1.61,2.77,3.69.34,7-2.47,9.71C771.21,1246.23,765.9,1247.89,761.45,1247.37Z"/><path d="M932.65,1350.93c6-8.25,10.41-17,20.4-19.48,6.45-1.62,14.27-4.89,18.78,1.18,4.81,6.46,3.41,14.75-1.48,21.64-1.9,2.67-5.36,5.07-1.94,8.56,2.75,2.8,6.12,1.94,9.3.23,2.42-1.31,5.2-4.88,7.53-.64,2.5,4.58-1.36,6.49-4.79,8.22-11.68,5.91-27.28,2-36.21-9.16-1.41-1.76-2-4.88-4.78-4.57-3.48.38-3.29,3.95-3.77,6.34-1,5.27-1.6,10.6-4.39,15.4-1.24,2.12-2.31,4.52-5.19,3.41a4.29,4.29,0,0,1-2.46-5.06c2.52-11.91-.74-23.34-2.69-34.9-.49-2.89-1.12-6.73,3-7.33,4.64-.67,5.21,3,5.43,6.61C929.62,1344.34,929.45,1347.47,932.65,1350.93Zm27.42-13.39c-5.24.75-11.41.6-11.26,8.25.1,5.12,2.89,9.88,8.27,9.28,6.33-.7,9-6.59,9.82-12.34C967.5,1338.34,963.68,1337.58,960.07,1337.54Z"/><path d="M504.74,1382.26c1.18-17.73-3-32-6.18-46.46-1.53-7-1.23-10.55,7.52-10.42,9.71.14,19.09-4.06,29-3.76,17.16.54,22.82,10.43,14.61,25.34-6.76,12.28-16,20-31,17.39-6.81-1.2-7.24,2.2-6.58,7.39.76,6,1.27,12.06,1.68,18.1.24,3.52-.18,7.34-4.65,7.56-4.75.24-3.48-4-3.82-6.73C504.87,1387,504.81,1383.29,504.74,1382.26ZM531,1331.71c-5.36.41-10.41.15-15.15,2.31-8.51,3.88-9.65,8-4.08,15.41,6.8,9,13.71,9.22,25,.48,4.59-3.58,9.42-7.91,7.22-14.16C541.8,1329.66,535.33,1332.42,531,1331.71Z"/><path d="M1143.38,1064.12a18.59,18.59,0,0,1-1.35,10.76c-.85,2-1.87,3.66-4.31,3.38-2.17-.26-4-1.46-4-3.8.21-8.26-3.33-15.81-4.26-23.81-1.21-10.38,3.73-13.93,13-9.56,7,3.29,13.7,7.3,20.87,10.18,13.51,5.41,21.39,2.17,28.37-10.53,1.91-3.48,1.83-9.84,8.14-8.3,5.63,1.38,4,7,4.66,11.12.85,5,1.33,10,2.33,15,.8,4,1.86,8,7,8.68,2.77.39,5.36,1.34,4.85,5.08-.46,3.47-3.09,5-5.7,6.59s-5,.88-7.3-1.08c-6.06-5.17-5.48-12.76-7.18-19.48-.74-2.92-.33-6.59-4.08-7.25-4-.69-4.77,3.1-5.94,5.73-3.64,8.19-9.79,9.33-17.53,6.74-6.07-2-12.23-3.76-18.28-5.85C1145.72,1055.27,1140.14,1054.37,1143.38,1064.12Z"/><path d="M257,1218.38c-1.24,4.13,2.59,11.73-3.7,11.9-7.94.22-4.05-7.8-4.18-12-.36-11.23-1.45-22.2-5.38-32.77-1.15-3.1-3.45-7.16.91-8.68,4.83-1.67,4.79,3.27,5.53,6.35.54,2.23-.1,5.24,2.69,6,3.56,1,4.17-2.7,5.68-4.63a33,33,0,0,1,11.74-9.4c5.17-2.51,10.74-5.42,16.11-1.07s3.5,10.55,2.29,16c-.77,3.52-2.91,6.77-4.57,10.07s-7,5.64-2.71,10.24c3.83,4.12,7.38,9.25,14.27,7.67,2.47-.56,5-3.19,7.18-.1a6.42,6.42,0,0,1-.05,6.78c-1.69,2.9-4.64,3.85-7.86,3.45-6.22-.77-11.48-3.8-16.24-7.67-2.87-2.33-5.47-5-8.18-7.52-3.16-3-6.16-7.34-11-5.52C254.24,1209.52,257.87,1214.72,257,1218.38Zm19.92-36.75c-4.68,0-14.6,7.64-14,11.17.69,4.26,3.85,6.17,8,5.91,7.51-.47,10-5.84,10.8-12.21C282.08,1183.39,280.37,1181.44,276.93,1181.63Z"/><path d="M807.27,1208.07c0-5.62-.16-9,0-12.36.65-11.5,4.48-15.25,15.82-14.4a61.32,61.32,0,0,0,25.8-3.35c3-1.08,6.88-3.81,8.53,1,1.84,5.27-3.32,5.95-6.58,6.85-9.08,2.48-18.32,4.42-27.45,6.75-3.3.84-8.56.32-7.66,5.79.86,5.2,5.45,3.77,9,3.27,7-1,14-2.09,21-3,2.65-.34,5.77-.68,6.28,3.15.45,3.5-2,4.58-4.93,5.09q-11.45,2-22.86,4.12c-3.74.68-7.69,1.5-8,6.19-.34,4.47.67,8.78,4.69,11.59s7.36.47,11-1.62c3.34-1.9,5.48-9.89,10-5.09s-2.07,8.77-5.25,12.15c-4.82,5.13-10.63,8.52-18.06,5.91-7.07-2.49-9.17-8.39-9.8-15.14C808.23,1218.58,807.65,1212.21,807.27,1208.07Z"/><path d="M1111.67,1340.53c-.1,14.19-12.27,27.7-26,28.11-7.75.22-9,3.17-8.07,10,.7,5.37,5.31,14.35-3.09,15.22-7.56.78-4.19-8.87-5.1-13.76-2.59-13.89-4.22-28-6.13-42-.46-3.32-1.08-7,2.38-9.19,3.94-2.46,5,1.37,6.89,3.56,3,3.57,5.51.54,7.78-1.06,6.68-4.73,14.07-4.14,21.45-3C1108.93,1329.52,1112.45,1333.82,1111.67,1340.53Zm-25.76,19.23c7.32,0,17.62-9.38,17.17-15.8-.37-5.41-4.33-6-8.62-6.13-9-.17-19.73,7.88-19,14.55C1076.09,1358.52,1081.33,1358.83,1085.91,1359.76Z"/><path d="M607.2,1216c.14-7.71,1-15.45-2.23-22.87-1.9-4.37.34-7.8,3.08-10.94,1.55-1.77,3.22-3.9,5.87-3,2,.69,2.74,2.77,3,4.89,1.64,14.47,13,22.29,22.14,31.37,5,5,9.32,2.4,10.58-4.21,1-5.48-.58-10.58-3.14-15.51-1.34-2.59-2.74-6,1.38-7.61,2.88-1.13,5.13.52,6.86,2.88,4.25,5.83,4.11,28.36-.31,34.23-3.11,4.13-7.08,4.87-11.55,2.41-5.87-3.22-12-6-16.36-11.5-1.42-1.8-2.71-4.32-5.52-3.54-3.51,1-2.61,4.25-2.74,6.78-.25,4.72-.62,9.38-2.56,13.78-.85,1.92-1.84,3.76-4.23,3.7-3-.08-4.09-2.3-4.19-4.75C607.05,1226.72,607.2,1221.33,607.2,1216Z"/><path d="M1136,1339c.17-1.75.5-6.45,1.13-11.12.37-2.78,1.45-5.46,5-4.93,2.72.39,4,2.43,3.79,5.1-.45,6.2.68,10.89,8.53,10.15s16.88.79,19-10.48c.56-3-.56-7.82,4.59-7.39s4.24,5.08,4.53,8.68c.93,11.37-.1,22.91,3.34,34.06,1.41,4.59-.24,8.33-5.16,9.17-5.83,1-6.42-3.4-6.61-7.7-.05-1,0-2,0-3-.28-18.3-7.92-22.21-24.36-12.48-4.71,2.79-5.37,6.64-2.86,11.15,1.13,2,3.07,3.64,4.14,5.7,2.35,4.57.09,8.08-3.77,10.09-4.86,2.52-6.52-1.16-7.59-5.06C1137.06,1361.45,1135.85,1351.8,1136,1339Z"/><path d="M574.71,1327.09c-.13-1.72,1-4,4-4.82,2.81-.73,4.62,1,5.57,3.24,1.5,3.52,2.76,6.88,7.51,6.85,7.65-.06,15.31.41,22.92-.1,2.64-.17,2.4-3.59,2.29-6-.13-2.68-.69-5.82,3.07-6.33,4.08-.56,4.45,2.71,5.56,5.67,3,7.88,6.31,15.57,5.46,24.32-.34,3.54,1.82,6.37,3.43,9.32,2.62,4.84,1.27,8.61-3.7,10.6-5.32,2.12-7.28-1.34-8.26-5.81-.36-1.64-.87-3.25-1.1-4.91-2.75-19.12-7.78-22.26-26.35-16.61-4.65,1.42-6.45,4.54-6.31,9.07.16,5,.59,10.07.64,15.11a4.22,4.22,0,0,1-4.41,4.55c-2.64.1-4.68-1-4.58-4.07C580.92,1353.92,577.11,1341.28,574.71,1327.09Z"/><path d="M398,1074.8c.33,3.1,2.16,9,.74,15.14-.56,2.4-1.46,4.78-4.35,4.69-2.59-.09-2.86-2.67-3.13-4.51-1.76-12-1.42-24.21-4.44-36.06-.63-2.47.66-4.62,3.11-5.73,3.3-1.5,6-.28,8.1,2.23,5.22,6.31,11.58,11.26,18.32,15.79,10.13,6.83,12.79,6,18.64-4.7,2.33-4.26,1.15-13,8.71-11.38,5.63,1.17,5.14,8.7,6.33,13.76,1.38,5.86,1.44,12.11,5.67,17,2.31,2.69,3.12,5.68-.55,7.53s-7.37,1.63-9.36-2.75a15.92,15.92,0,0,1-.95-4.91c-.39-3.55.41-8.44-4-9.17-3.93-.66-4.69,4.08-6,7.07-2.23,5.22-6,4.61-10,2.75a73.89,73.89,0,0,1-20-13.49c-1.6-1.51-3.4-3.66-6.08-1.71C396.75,1067.82,397.28,1069.92,398,1074.8Z"/><path d="M1175.78,1202.74c-2,14.31,2.38,29.31,5.28,44.49a23.36,23.36,0,0,1,.58,7.91,5.32,5.32,0,0,1-5.72,4.66c-3.76-.09-4.26-2.73-4.12-5.61.52-10.56-2.39-20.7-3.6-31-.79-6.7-3.07-9.91-10.43-7.87-8.22,2.27-13.69-2.56-17.5-8.87-3.1-5.13-5-11-7.45-16.52-1.72-3.92-1.63-7.81,3-9.05s4.24,3.46,5,6c2.2,6.93,5,13.35,11.8,16.92,8.24,4.34,12.89,1.41,12.52-8-.24-6.1-.23-12.15,1.32-18.07.68-2.59,1.83-5.42,5.3-5,3,.34,3.11,3.25,3.57,5.44C1176.93,1185.81,1175.86,1193.58,1175.78,1202.74Z"/><path d="M919.75,1065.94c1.29-.61,2.16-.72,2.44-1.18,8.5-14,8.23-13.79,21-1.73,3.54,3.34,6.36,11.38,12,8.35s1.69-10.35,1.44-15.81c-.09-2-.93-3.93-1.14-5.92-.26-2.57.54-4.74,3.45-5.24,3.23-.55,5.67,1.11,5.78,4.12.4,11,1.75,22.18-1.22,33.09-1.49,5.47-5.29,6-9.2,3.08-5.35-4-10.19-8.72-15.22-13.17-7.85-7-10.07-6.29-12.17,3.62-.41,2-.84,3.93-1.39,5.86-1,3.52-2.86,6-7,6-4.49-.09-5.17-3.28-6-6.71-2.48-10-2.83-20.66-8.5-29.87-2.14-3.49-.59-6.63,3.4-7.81,3.8-1.11,6.36.19,7.58,4.34C916.85,1053.13,916,1060.13,919.75,1065.94Z"/><path d="M685.76,1050.73c3.91,4.47,7.53,4.2,11.2,3.07,3-.91,5.78-.8,6.52,2.5.89,3.88-2.2,5.38-5.38,5.79-3.65.47-7.38.4-11.07.6-3.15.16-7.27-1.63-8.49,3-1.28,4.92.36,9.34,4,12.83,3.22,3,7,4,11.1,1.93a15.87,15.87,0,0,0,3.08-2.58c2.52-2.25,4.81-7.38,8.63-2.6,3.29,4.11-1.42,6.35-3.92,8.85-5.73,5.72-11.89,10.37-20.53,6.59-8.46-3.7-11.38-10.83-11.49-19.6,0-3-.62-6-.94-9-1.66-15.47,4.33-22.49,19.93-23.69,4.67-.35,9.29-1.35,13.94-2,3.51-.47,7.8-2.41,8.82,3.28.92,5.16-3.51,4.72-6.55,5.57C698.64,1047,692.19,1047.27,685.76,1050.73Z"/><path d="M1055.62,1364.64c-.33,3.08-.75,5.25-3.33,6.47-2.93,1.37-5.46.7-7.22-1.57a46,46,0,0,1-4.48-7.85c-2.19-4.42-4.86-8.42-10.43-8.09-5.81.35-9.91,3.31-12.15,9a80.86,80.86,0,0,1-6,11.6c-1.76,3-4.54,4.18-7.71,2.2-2.77-1.75-2.83-4.62-1.36-7.15,5.59-9.62,4-21.51,10.64-31.12,3.41-4.91,6.42-9.78,12-11.26,5.74-1.52,6.81,5.89,10.5,7.66,11.27,5.41,8.93,19.58,18,26.14C1055.13,1361.49,1055.25,1363.67,1055.62,1364.64Z"/><path d="M1003.67,1203.63c0-5.05-.06-10.09,0-15.14.05-3.34-.3-7.12,4.06-8.18,3.84-.93,5.21,2.23,6.76,4.8,6.13,10.17,15.11,17,25.67,22,6.67,3.18,10,1.48,10.95-6a33.28,33.28,0,0,0-3.12-18.62c-1.49-3.18-3.11-6.67,1.75-8.13,3.7-1.12,5.61,1.63,6.39,4.81,2.6,10.56,4.07,21.16.66,31.87-2.25,7.06-7,10.08-13.92,7.45-8.09-3.09-16.64-5.6-22.79-12.44-1.48-1.66-3.11-4.31-5.75-3-3.09,1.59-1.73,4.66-1.16,7.2.87,4,1.87,8-.26,11.79-1.1,2-2,4.68-5,4.09-2.74-.54-3.49-2.89-3.51-5.4,0-5.72,0-11.44,0-17.16Z"/><path d="M1052.45,1067.33c-.6,3.38-.67,6.69.91,9.86,1.85,3.74,1.32,6.87-3.2,7.5s-5.75-2.58-5.62-6.41a57.22,57.22,0,0,0-2-15.94c-1.31-5.18-4.31-7.33-9.63-6-3.25.82-6.52,1.6-9.8,2.31-17.79,3.87-17.84,3.87-13.75,21.66.79,3.45.44,6.12-3.47,6.93-3.2.66-5.19-1-5.72-4.11-2-11.58-4-23.16-5.69-34.78-.54-3.68-.39-8.32,4.22-9,4.42-.65,4.72,3.62,5.23,7a5.83,5.83,0,0,0,1.75,3.39c4,3.36,30-.43,32.94-4.87,1.28-1.94,1.74-4.68,4.78-4.27a7.14,7.14,0,0,1,6.24,5.84C1051,1053.36,1053.38,1060.14,1052.45,1067.33Z"/><path d="M517.94,1201.38a52.72,52.72,0,0,1,3.37-20.24c1.33-3.51,4-5.61,7.92-3.9s2.55,4.62,1.33,7.57c-1.9,4.63-4.89,8.87-5,14.16-.13,6.65,2.09,11.81,8.55,14.6,6.09,2.64,9.9,1.38,10.09-5.88.2-7.65,2.32-14.55,7.46-20.37,2.62-3,5.78-4.58,9.84-3.68s4.88,4.08,5.78,7.44c3.34,12.4-3.19,25.08-16.2,31.26-9.33,4.43-23.21.63-29.89-8.07A17.72,17.72,0,0,1,517.94,1201.38Zm37.12,7.58c4.23-.77,5.7-4.09,6.63-7.65.64-2.48,0-5-3.15-4.76-4,.28-5.23,3.6-5.91,6.89C552.18,1205.65,551.84,1208.16,555.06,1209Z"/><path d="M185.16,1072.16c.24,4.49,2.43,10.36,1,16.51-.44,1.92-.19,4.35-3.07,4.2a3.61,3.61,0,0,1-3.35-3.27c-1.31-12.71-2.37-25.45-5.83-37.84a4.13,4.13,0,0,1,2.72-4.9c3-1.15,6-1,8.38,1.48,4.16,4.41,8.59,8.62,12.25,13.42,4.8,6.29,8.92,6.16,13.5,0,3-4,7.27-7.26,7.38-12.84.06-3.27,1.46-5.14,4.75-5.19a5.07,5.07,0,0,1,5.27,3.86c3.44,10.9,6.93,21.77,10.23,32.71.58,1.92.39,4.15-2.07,5a3.89,3.89,0,0,1-5.48-2.9c-1.3-5.21-2-10.57-3.1-15.84-.61-2.95-1-6.57-4.25-7.54-4-1.17-4.56,3-6.34,5.23a18.71,18.71,0,0,0-1.09,1.69c-8.82,13.68-10.87,13.94-22.48,2.6-1.92-1.88-3.64-4.62-6.59-3.88S184.58,1068.27,185.16,1072.16Z"/><path d="M179.73,1315.76c5.45.34,9.65-.82,13.87-2,2-.56,4.28-.73,4.71,2,.37,2.37-1.21,3.62-3.45,4.07-2,.41-4,.77-5.9,1.3-17.5,4.85-20.76,11-14.76,27.92.55,1.57,1.43,3.13,1.52,4.73.24,4.21-.3,9-5.27,9.43s-4.87-4.41-5.1-8.12c-1-16.3,1.23-32.86-5.41-48.69-2-4.82,1.79-9.3,7.06-7.92,10.31,2.7,20-.2,29.95-1.34,3.81-.44,8-1.26,8.7,3.92.61,4.67-3.76,5-6.91,5.64-5.92,1.19-11.94,1.88-17.89,3-3.32.62-9-.71-8.65,4.2C172.57,1318.57,177.92,1314.45,179.73,1315.76Z"/><path d="M1239,1311.58c3.16.24,7.38.09,8.26,4.83s-3,5-6.27,6.06c-10,3.27-11.14,6.61-5.17,15.13,3.52,5,7.78,9.2,13.66,11.54,7.65,3.06,7.12,7.95,2.6,13.41-6.2,7.48-14.72,10.68-24,11.35-7.08.51-10.54-5-12.94-10.8-.8-1.93.1-4,1.76-5.44,2.62-2.2,4.19-.15,5.86,1.57a11.89,11.89,0,0,0,10.94,3.8c2.76-.44,5.46-1.17,6.46-4,1.2-3.4-1.7-4.83-3.87-6.21-9.67-6.09-14.54-14.71-13.85-26.17C1223,1318.13,1230,1311.74,1239,1311.58Z"/><path d="M597.46,1048.78c2.48-.21,3.46,1.57,4.62,3.27,3.87,5.65,24.39,8.88,29.48,4.8,1.86-1.49,2-3.37,1.88-5.42-.2-3,.48-5.47,3.86-6,2.8-.45,4.54,1.53,5.51,3.63,5,10.84,3.73,23,7.2,34.26.73,2.36-2,4-4.58,4.42s-4.75.09-5.93-2.55c-.41-.91-.58-1.93-.91-2.89-1.9-5.55,1.38-13.82-5.1-16.52-7.21-3-15.06,1.39-22.65,2.38-6.26.82-8.87,4.24-5.72,10.67a26.21,26.21,0,0,1,2.11,7.68c.31,2.11-.56,4.08-3,4.53a4.1,4.1,0,0,1-4.9-2.54c-5.19-11.72-4.37-24.35-5.45-36.68C593.73,1050.15,595.72,1049.17,597.46,1048.78Z"/><path d="M342.83,1192c1.58-.32,5.85-1.23,10.15-2,2.57-.47,6-1.64,6.74,2,.62,3.12-2.65,4.46-5.23,5.14-4.87,1.27-9.83,2.27-14.79,3.17-2.81.51-5.38,1.17-6,4.37-.7,3.38,1,5.92,3.51,7.84s5.22,3.15,8.41,1.41c2.68-1.47,3.34-6.75,7.85-4.55,2,1,2.13,3.11.95,5.23-2.43,4.4-4.22,9.62-10.13,10.25-6.48.7-11-2.67-13.7-8.34-4.47-9.27-6.1-19.29-6.56-29.4-.35-7.52,6.14-10.87,11.37-14.11,9.19-5.67,20.12-4.91,30.34-6.74,1.75-.31,3.54.31,3.92,2.27s-1.23,2.88-2.92,3.37c-9.35,2.71-18.76,5.25-28,8.2-2.94.94-8.68-3-8.47,3.09C330.36,1188.23,333.4,1192.92,342.83,1192Z"/><path d="M775.14,1342.73c.27-15.66,1.93-17.4,16.35-17.07,12.08.27,24.78,11.68,24.63,22.12-.17,11-9.79,18.12-23.81,17.68C779.43,1365.06,774.86,1359,775.14,1342.73Zm23.26,11.78c1.93-.16,7.1,1.19,7.8-5.32.6-5.51-9.43-16.25-15.64-16.76-6.39-.52-5.83,4.46-5.91,8.27C784.48,1348.46,786.16,1355.1,798.4,1354.51Z"/><path d="M729.25,1317.89h5.44c14,0,14,0,13.18,13.85-.52,9.16,2,18,2.84,27,.39,4.4,3.71,11.46-4.08,12.23s-5.59-6.46-6.28-11.06c-1.18-8-2.37-15.91-3.76-23.83-1.11-6.36-5-9.35-11.48-8.26-6.28,1-12.52,2.31-18.77,3.54-3.5.69-7,1.12-8.08-3.37-1-4.33,2.11-6,5.49-7A73.84,73.84,0,0,1,729.25,1317.89Z"/><path d="M934.88,1207.62c-.11-13.58,10.2-25.21,22.39-25.23,9.05,0,19.2,11.83,19.3,22.54.12,12.38-11.11,21.72-26.49,22C940.2,1227.16,935,1220.52,934.88,1207.62Zm18.57,9.18c10.22-.2,15.5-4.6,14.95-12-.58-7.68-5-11.45-12.63-11.24-8.19.23-13,5.54-12.87,13.56C943.07,1214.74,948,1216.47,953.45,1216.8Z"/><path d="M690.1,1340.55a31.93,31.93,0,0,1-3.57,15.14c-5.68,10.76-16.41,16.1-25.63,12.74-8.61-3.13-12.25-12.11-9.77-24.69a120.91,120.91,0,0,1,3.31-12.63,4.05,4.05,0,0,1,4.73-2.89c2.67.37,2.93,2.57,2.76,4.56-.36,4.34-1.09,8.65-1.53,13-.6,5.89.71,11.38,7.32,12.32,7.14,1,11-4,13.13-10.18,2.06-5.82-.07-9.78-5.94-11.74-3.38-1.13-8.27-1.47-6.43-6.81,1.8-5.18,6.5-3.93,10.34-2.75C685.84,1328.79,690.66,1333,690.1,1340.55Z"/><path d="M477,1223c-6.63-.16-14.42-2.39-18.25-10.75-4.13-9-4.58-18.21,1.62-26.82,1.44-2,2.9-4.14,5.67-2.74s2,4.14,1,6.19a22.73,22.73,0,0,0-1.72,14.8c1.57,7.1,6.66,10.78,13.8,11.08,6,.25,10.87-2.55,12.22-8.47,1.64-7.18-3.43-10.85-9-14.09-3.53-2.06-12.06-1.28-8.89-7.88,3.44-7.16,9.45-1,13.69,1.18,9.36,4.81,14,14.11,12,22.28C496.87,1216.9,488.86,1223,477,1223Z"/><path d="M574.11,1042.88c2.91.1,8.07,2.26,4.24,6.06-10.31,10.2-2.5,20.66-2.21,30.91.15,5.05,7.66,12.16-.83,14.43-9,2.43-7-7.67-8.46-12.69a136.32,136.32,0,0,1-3.88-21.86c-.73-6.51-3.74-7.71-9.6-6.2-6.18,1.59-12.55,2.45-18.86,3.52-3.66.62-7,0-7.76-4.31-.76-4.49,3.11-4.64,6-5C546.08,1046.06,559.47,1044.58,574.11,1042.88Z"/><path d="M293.92,1070c-.43,9.8-.47,19.31,5.39,28.16,2.39,3.62.25,8.49-4.55,9.4-4.26.81-5.41-3-5.7-6.59-.25-3-.07-6.09-.52-9.08-1.07-7.1-1.45-15-12.57-11.45-2.74.87-5.15-1.36-7-3.29-4.27-4.33-8.82-8.73-10.58-14.61-1.4-4.69-7.85-11.63-1.92-14.06,6.68-2.74,4.65,6.55,6.72,10.41a26.27,26.27,0,0,0,1.89,3.56c3.58,4.75,6.69,11.43,14,9.08,6.88-2.22,5-9.23,5.78-14.78.49-3.72-5.65-9.74,1.66-10.82,6.94-1,6.7,6.24,7.33,11C294.37,1061.17,293.92,1065.59,293.92,1070Z"/><path d="M309.44,1333.46a25,25,0,0,1,.49-4.45c1-3.86-.05-10.36,6.53-9,6,1.25,2.2,6.36,1.94,10-.47,6.31.3,12.3,6.75,15.45,4.36,2.12,7.88-.41,10.72-3.38,6.15-6.43,3.78-14.51-4.8-16.81-2.74-.73-7.22.14-6.88-4s4.72-5.2,8.49-5.59c4-.42,7.06,1.52,9.65,4.44,6.25,7,6.77,18.37.86,27.19-5.11,7.62-12,11.89-21.47,8.94C314,1353.79,309,1344.51,309.44,1333.46Z"/><path d="M1078.61,1060.1c-.08-11.28,7.08-19.78,16.86-20,10.81-.23,22.65,11.72,22.75,23,.1,10.85-7.91,18.25-19.71,18.2Q1078.75,1081.19,1078.61,1060.1Zm20.16,12.33c6.64.12,11.07-3.28,11.45-8.81.45-6.43-8.61-15.56-15.93-15.72-8.55-.19-6.91,6.74-7.41,11.62C1086,1068,1090.81,1071.8,1098.77,1072.43Z"/><path d="M393.4,1198.11c.24-13.75,11.9-22.91,23.25-18.33,3.71,1.49,6.57,3.77,6.86,7.86s-1.09,7.24-5.81,4.11c-4.14-2.75-8-5.46-12.5-1.1-4.33,4.15-3.28,9.29-2,14.17,1.32,5.12,4,9.36,10,9.82,6.73.52,13.51,1.23,18.45-5.09,1.43-1.84,3.49-3.65,6-1.46,3.23,2.85.11,4.81-1.39,6.7-7,8.81-17.85,12.37-26.79,9C399.61,1220,393.2,1209.78,393.4,1198.11Z"/><path d="M1077.89,1185.14c.38-3-.49-6.83,4-6.91,4.13-.07,4.52,3.51,4.71,6.49.53,8.4.68,16.85,3.44,24.91,3.31,9.66,8.09,11.32,16.83,6.08,6.52-3.91,11-9.79,15.16-16,1.29-1.89,2.76-4.23,5.62-2,2.51,1.92,1.69,4,.19,6.13-6.45,9.12-13.32,17.89-23.17,23.56-8.15,4.7-14.68,2.61-19.16-6.07C1079.66,1210,1079.36,1197.36,1077.89,1185.14Z"/><path d="M489.43,1064.27c.08,1-.22,4.13.71,6.9,1.48,4.39,4.51,7.79,9.74,7,5-.78,8.93-3.27,9.7-8.82.68-4.91.5-9.63-5.1-11.81a41.4,41.4,0,0,0-4.93-1c-2.23-.56-3.57-2.06-3.14-4.36a4.21,4.21,0,0,1,4.14-3.7c4.53-.21,8.77.63,12.13,3.91,5.12,5,5.72,18.74,1.3,26.8-3.84,7-10,10.46-17.6,9-9.54-1.82-13.51-9.38-14.71-18.33a69.93,69.93,0,0,1-.07-12.11c.13-3.16,1-6.66,4.76-6.56,4.44.13,3.32,4.18,3.47,7C489.91,1059.5,489.67,1060.85,489.43,1064.27Z"/><path d="M686.07,1194.13c.44-3.94,0-8.32,3.95-9,4.62-.8,5.88,3.15,6.44,7.13,1.77,12.55,2.44,25.31,7.47,37.24,1.6,3.78-.12,6.52-4.22,7.44s-6.36-1.09-7.15-5C690,1219.22,690.57,1205.93,686.07,1194.13Z"/><path d="M846.22,1091.54c-1.45,13.19-6.11,25.78-11.94,38-1,2.16-2.32,4.56-5.29,2.7-2.12-1.34-3.45-3.51-2-6,6.52-11.82,8.82-24.58,8.89-37.91,0-3.55,1.63-5.87,5.57-5.46C846.76,1083.37,846.3,1087.38,846.22,1091.54Z"/><path d="M1301.69,1363.58c-1.41,11.19-5.7,23.45-11.43,35.26-1,2.08-2,4.85-5,3.73-2.77-1-4.18-3.56-2.59-6.5,6.39-11.79,8.81-24.45,8.82-37.73,0-3.3,1.27-6.26,5.24-5.82C1302.37,1353.15,1302.14,1357.49,1301.69,1363.58Z"/><path d="M157.07,1172.53c-.52-3.94-.68-6.54,2.32-7.21,3.67-.81,4.54,2.12,5,4.81,2.3,13.16,1.58,26.66,4.43,39.81a5,5,0,0,1-5.32,5.91c-3.34-.14-4-3-4-5.87C159.31,1197,160.33,1183.84,157.07,1172.53Z"/><path d="M1210,134.37c3.69-.28,7.38-.7,11.08-.79,3.16-.09,6.53.38,6.19,4.65-.29,3.66-3,4.59-6.49,4.72-8.38.3-16.74,1.31-25.12,1.48-4.72.09-8.11.87-8,6.41.12,5.23,2.71,8,8.13,8.2a81.14,81.14,0,0,0,25.93-3.26c2.84-.83,6.48-2.95,8.34.05,2.31,3.75-1.9,5-4.4,6.33-4.14,2.24-5.13,6.11-5.32,10.22-.27,5.57-2.3,10.51-4.92,15.23-5.43,9.81-15.16,15.34-24.05,13.1-10.44-2.64-13.88-11.73-15.16-20.66-1.31-9.13-2.12-18.9,3.91-27.35,1.89-2.65,2.94-5.42-.74-7.7-9.11-5.63-1.42-7.45,2.46-8.11,9.27-1.57,18.72-2,28.1-2.95C1210,134.09,1210,134.23,1210,134.37Zm-13.13,33.52c-5.92-.31-12.34-3.78-12.89,5.36-.42,7,7.17,15.64,14,16.07,7.16.44,17-8,16.31-16.1C1213,157.26,1200.9,173.67,1196.85,167.89Z"/><path d="M321.53,128.28c8.13-1.6,8.82,3.32,6.52,10.06-2.59,7.58-5.27,14.64,7.62,13.91,4.26-.24,6.3,3.24,7.08,7.27,2.73,14.17-7.38,25.51-21.77,24.57-6.05-.4-11.26-4.12-17.57-3.84-3.27.15-3.68-3.39-3.84-6.14-.64-11,1.38-22.17-3.26-32.88-1.61-3.72,1.89-6.08,4.85-7.85C307.11,129.82,313.75,128.83,321.53,128.28Zm4.06,32.89c-9.59.06-19.81,3.52-18.6,6,2.67,5.45,7.89,8,13.85,8s12-1.94,13.09-8.37C334.89,161.34,329.72,161.15,325.59,161.17Zm-15.49-7.26c3.34-3.12,8.22-5.41,8.72-11.12.27-3-1.71-4.15-4.54-3.49-4.82,1.13-9,3.19-9.11,8.95C305.11,151,306.19,153.5,310.1,153.91Z"/><path d="M616.07,40.38c.37-8.48-2-15.36-5.82-21.86-1.77-3-3.44-6.38.36-8.85,3.56-2.31,6.25-.47,8.18,3,3.22,5.77,5.94,3.17,9-.43a51.77,51.77,0,0,1,8.06-7.45c2.8-2.13,5.6-5.6,9.75-2.94,4.36,2.8,4.19,7.18,3.48,11.7-.49,3.13-2.35,5.48-3.69,8.16-1.66,3.32-9.58,4.16-4.76,10,4.52,5.45,8.17,13,17.48,11.13,3.06-.62,6.95-3.55,7.22,2.58.22,5.21-2.72,8.38-8,8.2-7.7-.25-14.17-3.89-19.9-8.77-5.16-4.4-10.51-11.61-12.18,2.3-.32,2.64-2.18,4.11-5,3.9-3.35-.23-4.66-2.39-4.66-5.43A43.74,43.74,0,0,1,616.07,40.38Z"/><path d="M800.78,18.28c-.87-4.41-1.11-9.49,3.85-11.17s6.79,3.08,8.94,6.41c11,17.08,25.42,16.67,35.53-1,1.44-2.52,1.76-6.25,5.68-6.21,4.47,0,5.05,4,5.92,7.12,3,10.66,5.79,21.39,8.51,32.13.86,3.37,1.22,7-3.42,8-4.1.95-6.52-1.35-7.5-5-1.49-5.51-2.43-11.16-3.85-16.68-1.34-5.18-3.93-8.56-8.6-2.82-7.77,9.57-16.41,10.24-26.5,3.93-6.49-4.06-9.18-1.89-8.25,5.65.43,3.55-.3,7.05-5.09,6.9-4.56-.15-5.18-3.57-5.21-7.14C800.74,31.7,800.78,25,800.78,18.28Z"/><path d="M413.64,161.37c-.71-10.4,2.05-20,11.66-26.7,2.83-2,5.86-3.44,9.4-2.88,3.29.51,5.64,2.22,5.71,5.92.06,3.35-1.77,4.67-5,4.92-7.6.61-12.45,4.47-13.73,12.27-1.4,8.47.06,16.22,6.54,22.19,5.15,4.74,9.4,4.84,11.14-3.34,1.46-6.88,3-13.76,5.13-20.47,1-3.33,2.33-7.35,7.43-6.65,4.17.57,6.65,3.26,8,6.84,3.34,8.65-4.42,30.28-12.18,34.51-7.94,4.32-22.29-.14-30-8.83C413.22,174,413.53,168.1,413.64,161.37Z"/><path d="M543.72,42.05a57.32,57.32,0,0,0-3-21.21c-3.46-10.75-.26-14.25,10.62-14,7,.15,14-1.67,21-1.83,10.51-.24,13.73,3.21,13.76,13.88.05,15-6.74,26.48-19.11,34.6-5.7,3.75-12.1,7-18.91,3.54C541.12,53.46,544.21,46.4,543.72,42.05Zm7.55-10.68c.16,2.69.26,5.38.5,8.07.33,3.79,1.12,7.81,4.9,9.34,4.07,1.65,6.92-1.73,9.54-4.23,6-5.71,9.45-13,12.26-20.63,1.41-3.86.4-6.52-3.32-8.2C563,10.23,550.55,18.42,551.27,31.37Z"/><path d="M1084.73,170.37a87.25,87.25,0,0,1-.59,9.67c-1.68,10.31-8.34,13.5-17.37,8.35-3.5-2-6.7-4.5-10.15-6.59-2.72-1.64-4.44-6-8.4-4.31s-2.42,5.75-2.44,8.95a14.63,14.63,0,0,1-3.94,10.07c-1.36,1.5-3.18,3-5.23,2.2a4.22,4.22,0,0,1-2.57-5c2.7-12,.51-24.16,1.5-36.2.22-2.72.39-5.7,3.47-6.67,3.54-1.11,5.61,1.08,7.1,4.05,4.56,9.07,12.33,15,20.51,20.39,6.62,4.35,9.8,2.64,10.44-5.18a19.69,19.69,0,0,0-3.5-13.38c-1.74-2.48-2.26-5,.91-6.82s5.14.37,6.73,2.55C1085,157.72,1084.21,164,1084.73,170.37Z"/><path d="M364.48,42.9c.25,1.66.64,3.32.73,5,.18,3.66,1,7.87-4.57,8.28s-5.14-3.53-5.47-7.41a189.79,189.79,0,0,0-5.87-32.58c-.75-2.85-2.21-6.23,2.27-7.37,3.8-1,5.28,1.7,6.58,4.71,1.63,3.77-.73,10.36,7,10s16,1,19.68-8.43c.87-2.22,1.61-4.62,4.61-4.51s3.72,2.41,4.6,4.66c4.69,12,4.36,25.14,8,37.41a3.53,3.53,0,0,1-2.75,4.63c-2.21.48-3.89-.49-5.27-2.18-3.86-4.72-4.06-10.47-4.8-16.16-.67-5.1-3-9.95-9.11-7.59S364.62,32.33,364.48,42.9Z"/><path d="M392.53,126.71c1.68-.1,3.36-.22,5.05-.28,3.3-.12,6.26.37,6.1,4.68-.15,4.14-2.92,5.08-6.29,4.29-8.07-1.88-15.22,1.74-22.64,3.58-2.48.61-5.77,1.57-4.92,5.16s3.87,4.36,7.19,3.94,6.64-1.16,10-1.39c2.44-.16,5.93-1.4,6.38,2.67.41,3.75-3.12,3.93-5.55,4.57-3.25.85-6.63,1.14-9.93,1.78s-5.74,2-6,5.74a7,7,0,0,0,4.09,7.42c3.14,1.51,5.71.67,8.1-1.9,1.55-1.68,2.67-5.71,6.12-2.73,2.75,2.37.7,5.13-.56,7.31-3.16,5.48-7.43,9.57-14.37,9.5-6.77-.07-9-5.27-11.07-10.21-4.73-11.46-2.11-24-4.93-35.84-.65-2.7,1.59-4.3,4.3-4.45C373.32,130,382.64,126.22,392.53,126.71Z"/><path d="M1115.43,20.29c2-2.24-5.35-11,3.35-10.32,7.86.61,2.37,8,2.28,12.32-.12,5.7-.24,11.4-1.73,17.05-2.3,8.71-7.71,10.53-15.29,7.49a40.1,40.1,0,0,1-15-10.1c-4.64-5.1-8.46-4.86-11.67,1.38a9.64,9.64,0,0,1-.55.86c-3.5,5.13-5.28,14-12.16,13.32-7.52-.78-7.51-10-9.76-16.19-1.61-4.42-3.2-8.85-4.62-13.34-.72-2.28-1.14-4.91,1.75-6s4.58,1.06,5.44,3.21c1.63,4.05,2.83,8.28,4.08,12.46.69,2.3,1.22,4.78,4,5.33s4.12-1.67,5.35-3.73l2.09-3.46c8.85-14.55,8.8-14.33,20.56-2.08,4.47,4.66,9.68,11,17.14,8.47S1112.92,26.71,1115.43,20.29Z"/><path d="M760.32,160.57c-.14,2-.15,4-.42,6-2.83,21.4-5.38,22.67-23.65,11.1-5.75-3.64-9.14-3-11.22,3.73-.61,2-.19,5.5-3.44,5.31s-3.84-3.27-4.15-6q-1.68-14.51-3.26-29c-.4-3.64.28-7,4.49-7.77,4.41-.81,6.84,1.53,7.87,5.81,2.27,9.43,8.33,15.9,16.55,20.6,5.9,3.37,8.61,1.19,9.4-5.14.73-5.91-2-11.18-2.56-16.81-.25-2.53-.95-5.94,2.49-6.86,3.91-1.05,5,2.12,6.06,5.11A38.09,38.09,0,0,1,760.32,160.57Z"/><path d="M974.79,53.4c-5.76-.59-6.44-5-8-8.59-2-4.65-1.75-11.46-9.94-9.9-7,1.33-14.48,1.73-14.75,11.73-.11,4-1.9,7.7-6.93,6.16-4.71-1.44-4.52-5.27-3-9.1,4.12-10.31,7.89-20.78,12.59-30.82,3.67-7.82,9.91-8.15,14.48-.81,4.08,6.54,8.11,12.14,16.62,13.13,3.63.42,5.66,3.61,1.38,6-7.66,4.2-3.88,7.72,0,11.49,2.17,2.1,3.2,4.57,1.58,7.2C977.87,51.41,976,52.41,974.79,53.4Z"/><path d="M422.08,24.93c.44-4.69-2.66-10.4,3.28-13.66,7.7-4.22,15.76-7.63,24.67-8.08,2.44-.12,3,2.49,3.1,4.49.22,3.54-1.79,5.68-5.08,6.52-4.23,1.06-8.56,1.73-12.73,3-2.68.79-5.1,2.67-4.39,5.86.85,3.81,4,4.2,7.21,3.33,4.51-1.23,9.38-1,13.54-3.69,2.58-1.66,5.29-1.66,6.6,1.69,1.18,3-.27,5.47-3.11,6.48-4.42,1.57-9,2.61-13.53,4-3.06.91-7.19.46-7.57,5.14a7.27,7.27,0,0,0,4.21,7.41c3.51,1.88,6.81,2.13,10.45-.13,3.12-2,4.71-10.37,9.56-4.82s-2.77,8.65-5.93,11.68C443.81,62.24,434,60.49,428.24,50,424,42.28,420.8,34.12,422.08,24.93Z"/><path d="M985.56,148.39c7.51-1.55,12.52.52,17.56-1.4,3.18-1.21,6.12,0,6.12,4.26,0,3.95-2.45,5.4-6,5-6.81-.74-13.4.72-20,1.74-3.11.47-6.35,1.69-5.61,5.67.7,3.82,3.71,5.75,7.53,5.07s7.73-2.21,11.64-3.15a4.05,4.05,0,0,1,5,2.38c.79,2.38-1.42,3.59-3.29,4.26a87.15,87.15,0,0,1-8.75,2.44c-3.33.81-8.43-.45-8,5.22.34,4.18.71,9.37,5.87,10.79,3.58,1,6.72,1.38,5.53,6.16-1,4.25-3.68,7.36-7.9,8.35-4.45,1-5.19-3.16-7.06-5.82-5.28-7.47-3-19.12-13.26-23.89-.55-.26-.89-2.52-.66-2.65,8.14-4.63,3.55-12.79,5.36-19.13.94-3.3,2.65-5.36,6.31-5.33C980.06,148.42,984.1,148.39,985.56,148.39Z"/><path d="M521.34,159.39c0-4.71-.08-9.42,0-14.13.07-3.1.4-6.33,4.19-7.15s5.41,1.72,6.73,4.69c3.89,8.71,11,14.29,18.9,19,9.21,5.49,11.84,4.29,12.54-6.15.33-5-.11-10.08-.2-15.12,0-2.16.35-4.17,2.89-4.56a4,4,0,0,1,5,3.76,82.57,82.57,0,0,1-3.7,33.85c-1.36,4.3-5,3.49-8.41,1.92-6.72-3.07-13.75-5.45-19.69-10.09-4.48-3.5-8-3.89-8.4,3.44-.09,2-1.07,3.89-1.42,5.86-.49,2.82-1.23,5.63-4.66,5.5-4.21-.16-4.2-3.57-4.2-6.68q0-7.08,0-14.15Z"/><path d="M738.33,42.1c-4.59-11,6.58-18.18,12.11-27.56,3.43-5.8,8.9-5.29,14.06-2.06,1.94,1.22,3.36,4.5,5.12,4.57,16.63.73,9.56,15.23,13.7,23.11,1.27,2.39.75,5-1.64,6.07s-4.49-.57-5.94-2.57c-.78-1.08-1.16-2.45-2-3.51-2.62-3.54-2.91-9.53-9.39-9.09-6.31.43-9,5-11.67,9.86a55.53,55.53,0,0,1-5.68,8.23c-1.81,2.28-4.27,3.41-7.09,1.72C737.55,49.43,737.63,47,738.33,42.1Z"/><path d="M814.15,204.65c-5.95-1.61-13-1.74-17.77-7.42-2.79-3.36-4.27-7.54-.73-10.9,3.94-3.73,5.51.81,7.64,3.17,2.91,3.22,6.81,4.05,11,4.06,8.62,0,10.28-2.24,6.71-10.22-4.32-9.63-5.67-19.3-1.79-29.35,2.68-6.94,8.09-9.56,15.17-9.23,3.13.15,4.87,2,5.08,5.18.17,2.54-.66,4.14-3.27,5.46-11.13,5.62-12.83,11.76-6.75,22.68C838.66,194.65,833.08,204.67,814.15,204.65Z"/><path d="M318.75,43.18c0-2,0-4,0-6.06-.66-19.69-.67-19.68-20.05-21.19-2-.15-4-.44-6-.78a4.5,4.5,0,0,1-4.08-4.92,3.94,3.94,0,0,1,3.88-3.94c12.06-.91,24.17-1,36.21-2.71,4.5-.64,5.94,4.29,4,7.13-9.56,13.94-3.21,28.33-2.05,42.58.17,2,.74,4.16.21,6-1.21,4.1-4.06,7.73-8.47,7.27s-3.55-4.94-3.59-8.2C318.71,53.28,318.76,48.23,318.75,43.18Z"/><path d="M593.57,191c-6.84.71-11.71-2.32-15.32-7.82-1.29-2-2.78-3.92-.6-6.31,2.4-2.63,4.27-1,5.86.8,4.58,5,10.45,3.61,16.07,3.41,2.82-.11,5.42-1.09,6.48-3.94,1.25-3.34-1.37-4.77-3.63-6.28a32.69,32.69,0,0,1-13.08-16.18c-2.56-7-.94-13.21,2.95-19.13,1.79-2.71,4-4.84,7.5-3,3.77,2,2.3,4.8,1,7.74-4.72,11.06-3.27,15.86,6.42,23,5.23,3.83,13.9,6.18,12.21,14.26-1.9,9-11,10.93-18.91,12.79A55.73,55.73,0,0,1,593.57,191Z"/><path d="M1263.54,50.49c3.41-2.05,5.67.46,8.12,2.08A22.11,22.11,0,0,0,1284,56.42c2.91,0,6.73.88,8-2.67,1.15-3.36-2.7-4.2-4.67-5.64-9.4-6.82-16.91-14.59-15.57-27.45,1-9.46,8.21-16,17.64-16,2.41,0,5-.12,5.57,2.94.53,2.73-1.2,4-3.49,5.35-13.54,7.89-14.23,13-3.35,24.32,3.26,3.39,7.14,6.19,10.33,9.64,5.55,6,4.31,13.14-2.62,16.79C1282.94,70.46,1268.89,64.73,1263.54,50.49Z"/><path d="M1237.16,38.22c-1.47,9.29-.87,19.66,5.73,29.32,2.86,4.18.95,8.88-4.13,10.45-5.35,1.67-6-2.92-6.55-6.56a174.23,174.23,0,0,1-2-19c-.23-6.84-2.66-9.38-9.92-8.77-13.34,1.11-21.25-5.68-22.1-17.77-.16-2.32-.55-5.14,2.12-6.2,3.67-1.47,4.37,1.93,5.54,4.2.76,1.49,1.29,3.1,1.94,4.65,2.59,6.13,6.43,10.67,13.83,8.5,6.92-2,7.68-7.46,6.74-13.78-.45-3-2.27-7.33,2.91-8.09,5.42-.81,5.75,3.51,5.89,7.28C1237.3,27.13,1237.16,31.85,1237.16,38.22Z"/><path d="M1187.51,27.12C1183.33,32,1181,36,1182.32,41.5c.51,2.06.17,5.07-2.72,5.75-2.42.57-3.18-2.06-4.42-3.47-3.42-3.88-4.23-11.16-12.62-7.88-5.39,2.11-9.21,5-11.34,10.43a26.57,26.57,0,0,1-4.38,6.68c-1.3,1.58-3.1,2.64-5.29,1.36s-2.09-2.91-1.66-5.16c2.42-12.49,8.46-23.26,15.68-33.46,3.57-5.06,7.37-3.65,10.71.32C1171.64,22.45,1176.41,29.66,1187.51,27.12Z"/><path d="M697.07,54.38C684,54.07,669.89,29.71,675.9,17.75c1.48-2.93,4.51-3.17,5.32-.67,4.3,13.15,14,7.5,22.39,7.19,4.46-.16,11.18-6.53,12.95.5,1.94,7.72-6.94,5.77-11.49,7.23-3.17,1-6.63,1.13-9.83,2.1-2.55.78-6.83.16-6.07,4.87.67,4.11,4.14,4.85,7.63,5.18a5.57,5.57,0,0,0,2-.23c3.24-.91,6.08-5.49,9.79-1.59,1.46,1.53.17,3.9-.94,5.6C705.14,51.71,702.17,54.82,697.07,54.38Z"/><path d="M1110.19,170.16a20,20,0,0,1,9.33-19.08c3-2,6.31-3.21,9,.18,3.14,3.93-.23,5.69-2.9,7.93-8.27,7-9.35,16.13-3.23,24.83,5.34,7.57,14.08,7.89,21.46.77,2.05-2,3.82-5.93,7.19-2.88,3.78,3.42,0,6-2.23,8.27-7.19,7.39-19.92,11.4-26.59,7.83C1111.92,192.49,1110.32,182.56,1110.19,170.16Z"/><path d="M954.11,182.93c-6.32,12.94-17.47,19-29.41,17-9.65-1.56-15.1-8.79-16.4-22.47-.48-5-.18-10.09-.17-15.14,0-2.44.31-4.9,3.35-5.37,3.43-.53,5,1.79,5.49,4.61.62,4,.67,8,1,12,1,13,6.88,17.28,19.43,14C942.52,186.33,947.6,184.78,954.11,182.93Z"/><path d="M1005.32,30.54c0-3.36-.06-6.72,0-10.07.06-2.69-.15-5.8,3.95-5.49,3.57.27,4.07,3,4.05,5.85,0,3.35-.24,6.71-.43,10.06-.16,3.06-.43,6.23,2.66,8.09,3.44,2.06,6.39.42,9.25-1.63a39.37,39.37,0,0,1,6-3.75,4.34,4.34,0,0,1,6.08,1.8c1.28,2.1.57,4-1.1,5.35-4.16,3.39-8.14,7.19-12.78,9.77-8.89,4.93-16.85.33-17.81-9.91-.31-3.33,0-6.71,0-10.07Z"/><path d="M888.24,197.21c-1.15,4.2-2.92,7.47-7.18,7.95-4.09.46-5-2.7-5.28-5.89a189.24,189.24,0,0,0-5.72-34.82c-.79-2.9.13-5.45,3.17-6.56,3.29-1.21,5.35.74,6.09,3.54C882.49,173.42,882.59,186.15,888.24,197.21Z"/><path d="M484.89,160.83c.37-6.1.68-13.11,1.3-20.09.23-2.53.38-6,4.09-5.77,3,.16,4.66,2.52,4.43,5.61-.9,12.32-2.36,24.6-.36,37,.45,2.83-1.35,5.25-4.65,5.36s-4.74-2.09-4.79-5.13C484.82,172.45,484.89,167.1,484.89,160.83Z"/><path d="M698.22,166c0,5.38.19,10.76-.07,16.13-.14,2.9-1.71,5.19-5.1,5.11s-4.65-2.45-4.6-5.42c.22-11.09,2.33-22.12.85-33.27a3.06,3.06,0,0,1,2.69-3.64,4.14,4.14,0,0,1,4.91,3.94c.56,5.69.76,11.42,1.1,17.14Z"/><path d="M689.22,13.13c-1.46.09-4.91.28-5.58-3.64-.74-4.29,2.79-4.53,5.86-5,8.6-1.33,17.17-2.82,25.78-4.09,3.63-.54,8-1.4,8.43,4.07.41,5-3.76,4.4-7,4.82C708,10.4,699.44,11.69,689.22,13.13Z"/><path d="M620.76,1695.32c6.26-8.82,12-16.06,19.49-21.69,7.82-5.89,12.24-4.18,13.43,5.49.75,6,1.33,12.35-2.76,17.47-3.8,4.75-2.78,8.28,1.07,12.26,4.26,4.4,8.54,6.57,14,2.23,2.26-1.78,4.71-3.35,7-.41,2.09,2.76.13,4.93-1.8,7-7.48,8-15.32,8.11-23.33.21-1.68-1.65-3.41-3.24-5.17-4.81-14.08-12.55-14.74-12.38-19.34,6-.76,3-1.91,5.26-5.18,4.82-3.68-.5-5-3.08-4.22-6.65,2.8-13.46-1.22-25.91-5.57-38.33-1.19-3.39-3.69-8,.78-9.69,6-2.26,5.73,4,6.8,7.42C617.68,1682.23,618.91,1688,620.76,1695.32Zm25.64-8.57c-.39-2.46.09-6-3.83-5.57-4.09.44-6.22,3.57-6.92,7.51-.56,3.17.88,5.67,4,5.62C644.13,1694.25,645.49,1690.57,646.4,1686.75Z"/><path d="M909.29,1671.71c14.39-.21,17.12,2.78,13.72,15.22-1.48,5.41,1,7.28,5.42,8.72,8.38,2.73,8.7,8.28,4.81,15-6.38,11.09-19.89,14.24-32.15,12.44-14.34-2.1-17.84-9.39-16.86-21.77a8.06,8.06,0,0,0-.26-2c-4.08-24.2-4.08-24.2,21.06-27.07C906.7,1672.1,908.35,1671.84,909.29,1671.71Zm2.36,29.23c-3.58-1-9.06,2.46-10.59-2.85-1.81-6.26,4.39-7.19,8.33-9.33,1.47-.8,3.36-1.23,4.35-2.42,2.53-3,1.82-6.55-2.1-6.55-7.27,0-16-.35-20.16,6.49-4.44,7.38-1.35,15.69,3,22.76s11.2,8.61,18.44,5.92c4.88-1.81,13-2.54,11.72-9.85C923.55,1698.8,916.23,1701.91,911.65,1700.94Z"/><path d="M293.39,1723c-9.82.73-16.61-4.69-24-8.52-12-6.2-13.26-5.69-16.37,6.85-.63,2.5-1.12,4.67-4.15,4.66s-4.13-1.94-4.07-4.64c.3-12.67-4.2-24.46-6.73-36.6-.65-3.14-1.89-6.47,2.57-7,3.58-.41,3.75,3.11,4.16,5.73.26,1.65.06,3.4.44,5,.57,2.47.07,6.11,3.55,6.43,3.64.33,3.6-3.22,4.28-5.72,1.22-4.54,4.44-7.68,8.17-9.9,6-3.59,12.71-8,19.54-2.61,7.13,5.68,3.69,12.6.56,19.18-6.05,12.77-2.31,18.3,12,19,3.8.2,10.71-5.76,11.14,2.54C304.84,1724.94,297.14,1722.17,293.39,1723Zm-28.32-22.49c6.26-1,9.09-5.2,10.31-10.75.83-3.73-1-6-4.72-5.67-6.07.53-11.09,3.05-11.69,9.9C258.62,1698,261.69,1699.67,265.07,1700.53Z"/><path d="M1194.11,1811c13.72.69,23,2.4,31.75,6.13,7.55,3.21,10.33,9.37,6.91,16.46-6.23,12.93-15.92,22.61-30.63,25.63-10.47,2.14-16.73-1.89-19.69-12.33-1.29-4.53-2.18-9.18-3.17-13.79C1175.9,1817.35,1181.7,1810.67,1194.11,1811Zm-2.46,22.24c.42,2.62,1.17,6.56,1.65,10.54,1,8.18,5,9.24,11.64,5.43,5.84-3.33,11.59-6.83,16.14-11.74,5.77-6.24,3.33-13.24-5.09-14.54-5.25-.82-10.67-.55-16-.65C1193.43,1822.13,1191.07,1825.78,1191.65,1833.22Z"/><path d="M1056.62,1835.16c1,8.76,2.43,19,13.6,24.47,11.53,5.6,21.48,3.06,30.63-5.19,2.29-2,4.9-6.14,8.22-2.19,2.77,3.29-1.15,5.44-3.19,7.31-7.61,7-16.5,12.7-20.92,22.83-1,2.2-4.82,3.73-7.62,4.38-3.27.76-8,3.09-9.86-1.18-1.62-3.79,3.41-4.06,5.69-5.63,2-1.38,4.25-2.68,3.5-5.48-.7-2.63-3.28-3-5.6-3.66-21.18-5.7-26.64-37-19.87-50.79,3.87-7.92,9.77-13.12,19.24-11.42,8.39,1.5,12.37,7.41,13.81,15.43.47,2.63,0,5.19-2.52,5.82-1.77.45-3.86-1.28-4.3-3.5-1.16-5.87-2.94-10.68-10.58-8.3S1056.06,1825.6,1056.62,1835.16Z"/><path d="M1208.52,1670.54c-.7-8.07.42-10.75,8.83-7.25,6.52,2.71,14.51,1.8,21.82,2.75a59.27,59.27,0,0,1,9.83,2.24c19.37,6,22.82,19,8.59,33.47-8.45,8.59-18.41,14.69-31,15.15-6.11.22-10.81-1.87-11.95-8.34C1212.37,1695.62,1210.45,1682.62,1208.52,1670.54Zm9.83,11.45c1.07,9.65.94,21.33,10.38,25.86,8.58,4.12,14.46-6,21.16-10.58a19.33,19.33,0,0,0,3.59-3.53c6.16-7.09,5.36-11.3-3.2-15.7a42.81,42.81,0,0,0-24.4-4.46C1220.27,1674.13,1218,1676.49,1218.35,1682Z"/><path d="M1131.35,1692.88c0-4.7,0-9.41,0-14.11,0-3.58.64-6.79,4.63-8s6,1,8,4.14c5.11,8,11,15.4,19.8,19.63,4.56,2.18,9.65,4.68,14,.11,5.06-5.33,7.54-11.92,6.06-19.43-.67-3.38-3.6-3.48-6.37-3.6s-5.65-.56-5.36-4.35c.26-3.4,3-4.17,5.76-4.56,6.54-.93,11.06,1.18,12.79,8.17,2.71,11,.09,20.82-6.62,29.37-7.45,9.48-18.68,9-30.31-.35-2.41-1.94-4-6.54-8.06-4.51-3.67,1.83-1.49,6.06-2.16,9.16-.42,2-.48,4-.85,6-.53,2.92-1.89,5-5.3,4.89-3.62-.1-4.4-2.54-4.58-5.42-.35-5.71-.63-11.41-.93-17.12Z"/><path d="M410.43,1691.35c2.28-.45,5.89-1.18,9.51-1.87,2.87-.54,6.27-2.14,7.33,2.4s-2,6.19-5.58,6.76c-6.31,1-12.68,1.67-19,2.35-3.5.37-8.52-.84-7.13,5.2,1,4.43,4,8,9.5,6.93,1.59-.31,3-1.54,4.55-2.09,2.84-1,5.65-5.77,8.63-1.77,3.29,4.42-1,7.45-4,10-9.76,8.59-22,5.14-26-7.31-1.55-4.79-3.21-9.65-3.85-14.6-1.89-14.83,5.81-24.62,20.63-26.92,7-1.09,13.92-2.21,20.9-3.23,3.17-.47,6.38-.38,7,3.7.62,3.91-2,5.3-5.35,5.85-8.3,1.37-16.6,2.72-24.89,4.16-3.07.54-7.76-.73-7.81,4.16s4.42,5.2,8.12,5.69C405,1691.05,407,1691.1,410.43,1691.35Z"/><path d="M745.4,1707.36c-1-7.66-1.82-15.33-2.93-23-.5-3.47-1.19-6.9,2.65-8.8s7.32-.58,9.91,2.53c3.74,4.5,8.09,8,13.73,9.83,7.23,2.31,13.9,2.26,19.2-4.24,1.64-2,3-5,6.36-3.66,2.94,1.13,3.6,3.88,3.43,6.68-.63,10.67.71,20.74,7.38,29.66,1.73,2.32,1.14,5.21-1.39,7.14-3,2.27-4.93,0-6.93-1.76-4.95-4.4-5.91-10.43-6.32-16.51-.5-7.24-2.72-10.9-10.72-7.19a16.86,16.86,0,0,1-14.7-.33c-9.52-4.71-11.1-.29-10.27,8.12.32,3.25-.4,6.66-1,9.92-.51,2.51-.87,5.73-4.66,5.42-4.15-.35-4.21-3.7-4.37-6.74-.12-2.34,0-4.7,0-7Z"/><path d="M82.34,1691.58a15.47,15.47,0,0,0-.45-3.06c-.88-3.5-1.3-6.9,2.83-8.52s4.92,2.45,6.87,4.43a42,42,0,0,1,3.1,4c14.58,19,27.35,18.12,39.81-3.11,1.69-2.88,2.7-5.55,6.51-4.39,3.57,1.08,4,4.2,4,7.34a113.24,113.24,0,0,0,1.8,22.12c.8,3.95.75,7.92,4,11.08,3.54,3.42,1.09,6.14-1.92,8.12-4.35,2.85-6.15-.46-7.34-3.75-2.47-6.75-2.36-13.89-2.61-21-.11-3,.06-6.42-3.43-7.68-3.23-1.16-4.66,1.9-6.53,3.7-13.11,12.63-13.14,12.69-29.75,3.85-4.15-2.21-7.1-3.08-6.67,3.37a40.52,40.52,0,0,1,0,5.05c-.15,2.43-.95,5.56-3,5.94-3.65.66-3.59-3.37-4.38-5.62a49.67,49.67,0,0,1-2-9.88C82.71,1700.27,82.67,1696.89,82.34,1691.58Z"/><path d="M313.41,1696.23c0-3.36-.1-6.72,0-10.07.12-3,1.22-5.43,4.7-5.32,3.93.13,3.81,3.2,3.51,5.88a106.94,106.94,0,0,0-.65,21.1c.74,8.74,6.42,10,13.31,10.3,8.25.33,7.89-5.14,7.58-10.86a37.11,37.11,0,0,1,.71-7c.85-6.21,2-12.89,10-12.73s11.54,6.66,13.11,13.34c2.48,10.55-7.43,22.13-18.18,22.56-4,.17-7.9,1.43-11.88,1.93-13.77,1.72-19.37-2.39-21.59-16.06-.7-4.29-.72-8.7-1-13.06Z"/><path d="M832.14,1828c-.42,2.34-.24,3.67-.8,4.16-5,4.34-.73,13.71-6.74,15.9-6.43,2.33-7.75-7.07-13-9.38-6.88-3-12.46-1.62-17.21,3.69a54,54,0,0,0-5,7.52c-1.6,2.55-3.63,4.24-6.6,2.47-2.55-1.5-3.6-3.78-2.19-6.82,6-13.08,11.81-26.3,18.17-39.22,2.32-4.71,6.14-5.07,9.13-.07a36.16,36.16,0,0,1,3.39,7.27C814.58,1823.4,818.4,1832.41,832.14,1828Z"/><path d="M924.23,1810.43c8.29-.81,18-1.81,27.66-2.68,3.21-.28,7.36-1.5,7.83,3.57.51,5.52-3.86,5.45-7.6,5.45-8.86,0-17.2,2.88-25.77,4.47-3.76.7-6.28,2.84-5,7.09,1.13,3.62,3.84,3.93,7.28,3.17,8.86-1.94,17.76-3.71,26.7-5.25,2.82-.49,7.2-4.32,8.33,1,1,4.55-4.59,4-7.33,5-7.57,2.71-15.39,4.75-23.12,7-6.18,1.83-10.83,4.42-6.92,12.11a13.08,13.08,0,0,1,.85,4.93c.2,3,.53,6.39-3.81,6.84-4,.41-5.33-2.66-5.81-5.65-1.2-7.59-2-15.25-2.94-22.87-.47-3.64-.52-7.44-1.65-10.87C908.41,1809.85,908.47,1809.64,924.23,1810.43Z"/><path d="M1242.88,1826.2c-.63-7.07-.23-11.24,8-8.64,12.37,3.92,24.63-1.91,37-1.53,2.33.07,4.69-.61,7-.5,2.81.12,6.63-.87,7,3.68.31,4.07-2.86,5-6,5.36q-16,2.1-32.06,4c-4.08.49-9.73-1.49-10.37,4.94-.57,5.66,2,10.53,7.14,13.53,4.72,2.75,9.28,3.29,14-.5,2.79-2.25,3.73-10.94,8.93-5.28,4.18,4.55-.86,10-5,13.42-10.24,8.5-23.44,5.59-29.54-6.31C1245.2,1841.07,1243.82,1833.12,1242.88,1826.2Z"/><path d="M1035.91,1850.56c.12,3-.94,4.71-2.93,5.54-2.23.92-3.85-.52-5.07-2.24-.77-1.09-1.32-2.33-2-3.49-2.35-4.07-2.08-10.77-9.21-10.23-8.1.61-16.32,1.38-21,9.69a46,46,0,0,1-3.68,6c-1.71,2.18-4,2.23-6.33.84-2.13-1.3-2.21-3.39-1.26-5.29,6.1-12.13,8.44-25.5,12.91-38.14,3-8.46,8-8.67,13.56-1.67,2.1,2.62,5,4.89,6.22,7.86,2.61,6.26,6,10.49,13.5,9.11,1.67-.3,3.45-.09,4.29,1.79a2.81,2.81,0,0,1-1.84,4c-6.74,2.32-3.91,5.64-1,8.85A17.27,17.27,0,0,1,1035.91,1850.56Zm-23.22-20.15c-.55-3.61-1.6-7.29-5.71-7.21-3.58.07-4.67,3.54-4.77,6.7-.12,3.39,2.2,4.63,5.26,4.73S1012.91,1834.1,1012.69,1830.41Z"/><path d="M590.13,1662.45c3.59.85,8.69-2,9,4.08.24,5.11-4.28,4-7.39,4.57-9.25,1.81-18.48,3.75-27.73,5.56-3.25.63-6.12,1.67-5.45,5.71s3.8,4.16,7,3.84c6.38-.63,12.75-1.25,19.12-2,2.18-.24,4.3-.22,4.77,2.34.41,2.26-1,3.87-3.21,4.38-6.23,1.44-12.45,3-18.73,4.13-11.6,2.18-12.57,3.94-7.25,14.3.62,1.2,1.7,2.27,1.94,3.52.86,4.51-1.67,7.16-5.68,8.08s-5.67-2-5.77-5.28c-.42-13.12-2.39-26.2-.51-39.37.88-6.25,5.12-8.55,10.29-9.46C570.46,1665.13,580.49,1663.86,590.13,1662.45Z"/><path d="M454.16,1725.59c-5.6.47-8.63-3.12-11.41-7.08-1.87-2.65-3-5.63-.55-8.31,3.2-3.53,5.26,0,7.51,1.74s4.39,3.22,7.25,3.19c3.45,0,7-.34,8.58-4s-1.54-5.37-4.09-7c-9.34-6-13.76-14.68-13.18-25.65.53-10,11.2-17.67,19.92-14.74,2.64.88,5.11,1.91,5.17,5.33.05,3.08-2.25,3.73-4.46,4.68-13.26,5.69-13.87,8.5-4.34,19.43a30,30,0,0,0,11.42,8.1c6.26,2.6,6.73,6.87,2.72,12C472.45,1721.3,463.9,1724.62,454.16,1725.59Z"/><path d="M1137.89,1844.88c-6.24-.16-10,3.19-12.36,8.63-1.54,3.5-3.64,7.16-8.28,5.14s-1.84-5.93-1.29-8.91c1.9-10.27,7.73-19.21,9.85-29.6,1.4-6.84,8.39-7.09,12.81-1.15s7.21,14,16.85,14.21c1.79,0,6.34,18.87,5.06,20.39-4.15,4.89-7.71,2.91-10.46-1.43C1147.16,1847.58,1143.75,1844.28,1137.89,1844.88Z"/><path d="M18.92,1691.3c-1.85-10.79,2.94-15.69,13.39-17,6-.74,11.75-3,17.7-4.15,4-.75,9.16-1.29,9.53,4.26.38,5.76-4.87,4.2-8.32,4.09-7.37-.23-13.76,2.93-20.29,5.57-3.56,1.43-5.46,4.15-4.14,8s4.69,3.24,7.69,2.72c5.65-1,11.26-2.14,16.9-3.16,1.93-.34,4.35-1.12,5,1.62s-1.58,3.26-3.59,3.72q-9.34,2.16-18.7,4.3c-4.29,1-6.54,3.57-5.71,8,.95,5.12-.06,11.43,6.14,14,4.11,1.67,5.84-2,7.73-4.82,1.45-2.16,2.85-5.42,6.15-3.07s.45,4.93-.75,7c-3.26,5.64-6.87,11.41-14.66,10.21-8-1.23-9.35-7.75-10.27-14.34Q20.85,1704.8,18.92,1691.3Z"/><path d="M1071.25,1688.83c.49,8-1,16.08,3.45,23.66,1.82,3.08.37,6.88-3.78,7.87-4,.94-5.42-2-6-5.19-1-5.63-1.64-11.32-2.35-17-.79-6.37-3.42-9.38-10.09-6.06a76.4,76.4,0,0,1-9.3,3.89c-5.88,2-7.94,5.69-6,11.68a37.74,37.74,0,0,1,1.47,6.89c.28,2.37.33,5-2.77,5.64-3.31.68-5.16-1.25-5.5-4.32-.84-7.67,2.47-16.52-6.4-21.84,3.44-5.22,3.69-11.35,5.29-17.1.44-1.56,4.49-.52,5,2.53.66,4.21,1.21,8.59,7,7.43,7-1.41,15.1-.47,19.41-8.49,1.8-3.37,0-10.71,6.73-9,5.92,1.52,3.3,7.93,3.77,12.33A66.85,66.85,0,0,1,1071.25,1688.83Z"/><path d="M998.81,1684.75c-6.2,9.69-14.55,11.13-22.83,12.39-6.25.95-9.66,3.74-6.72,10.12,2.51,5.44.54,15.87,12.13,12.46,2.12-.62,4-1.29,5.34.77s.25,3.83-.81,5.62c-4.63,7.82-14.38,8.5-17.67.51-5-12.07-10.29-24.27-9.07-38,1-11.56,4.67-15.56,15.93-16.92,7-.85,14-2,21-2.8,2.16-.26,5-1.3,5.83,2.07s-1.08,5.31-4.12,5.78c-7,1.06-14.05,1.72-21,2.74-4.66.67-10.41,1-9.19,7.89,1.32,7.42,6.89,3.3,10.52,2.64C984.37,1688.93,990.45,1687,998.81,1684.75Z"/><path d="M681.28,1695.94c-.25-4.78,2.85-10.46,8.47-14.9,1.6-1.27,3.39-2.51,5.37-.81s1.48,3.6.47,5.48c-1.44,2.66-3.25,5.15-4.43,7.91-3.32,7.78-.46,15.84,6.72,18.56,7.85,3,13.79.47,17.46-7.1,4.13-8.52,2.27-16.5-4.68-20.2a14.83,14.83,0,0,0-3.78-1.35c-2.86-.61-5.56-1.44-4.14-5.15,1.13-3,3.44-3.34,6.59-2.72,10.59,2.1,17.57,13.61,15.22,25.65-2.2,11.29-14.75,21.73-25.08,20.88C688.1,1721.25,681.32,1712.4,681.28,1695.94Z"/><path d="M211.11,1710.8c-.52,12.16-7.9,16.34-16.13,19.26s-14.79-.18-18.56-7.75c-5-10-4.52-20.91-4.29-31.69.08-3.72,2.7-4.64,5.6-3.67,8.26,2.76,16.58,2.09,25,1.15,2.33-.27,5.27-.48,5.67,2.58s-2.27,3.75-4.76,3.9c-4.7.29-9.41.49-14.12.7-3.77.17-8.13.27-9.32,4.44-1.95,6.82.14,13.36,3.91,19.17,2.63,4.06,6.61,3.56,10.86,2.64C201.12,1720.19,204.32,1714.33,211.11,1710.8Z"/><path d="M1261,1807.56c-2.7.58-4.71-.37-5.44-3-.79-2.9,1.21-4.53,3.47-5.34,12.44-4.46,25.5-5.78,38.52-7.15a3.42,3.42,0,0,1,4.13,3.34c.36,3.69-1.47,5.88-4.88,6.46C1284.87,1803.83,1272.92,1805.66,1261,1807.56Z"/><path d="M1095.27,1702.05c-.74-8.68-1.54-17.35-2.21-26-.17-2.3-.42-5.09,2.75-5.57,3.64-.56,4.66,2.34,4.83,5,.86,13,.89,26.15,3.77,39,.49,2.17-.42,4.15-2.78,4.55-3.05.52-5.58-1-6.08-3.94-.74-4.26-.65-8.66-.91-13Z"/><path d="M214.21,1675.51c-10.26-.51-19.17,6.09-29.44,5.64-3.07-.14-7.69,2.28-8.3-2.65-.64-5.16,4.54-3.79,7.44-4.32,10.9-2,21.82-3.89,32.79-5.38,2.8-.38,7.67-2.55,8.05,2.77.36,5.07-4.41,3.78-7.52,4.1A18.1,18.1,0,0,1,214.21,1675.51Z"/><path d="M1038.88,611c-15.09-.3-29.36-4.27-43.27-9.54-6.4-2.42-9.73-1.57-9.7,5.94,0,3.89-.6,8.12-5.92,7.27-5.87-.93-3.27-5.34-2.84-8.8a58.55,58.55,0,0,0-3.54-27.8c-1.36-3.71-2.59-7.65,1.78-9.69,4.69-2.19,5.26,2.37,6.69,5.26,4.1,8.27,6.45,1.79,8.84-1.23,9-11.4,16.08-14.45,26.65-10.71,5.74,2,12,4.41,12.38,11.73.36,6.52-3.16,11.43-8.62,15.07-2.79,1.87-8.22,2.1-6.75,7.27,1.26,4.42,5.94,3.61,9.47,4.14,8.57,1.31,16.85,5.09,25.86,2.55,2.86-.8,5.49.17,5.64,3.86.13,3.13-1.93,3.91-4.59,4C1046.93,610.51,1042.9,610.78,1038.88,611Zm-28.78-41.55c-7.59.2-12.42,4.44-15.77,10.69-1.25,2.33-.85,4.59,1.64,6,6.4,3.72,11.51,0,16.73-3a7.27,7.27,0,0,0,1.58-1.24c2.43-2.45,7.45-3.43,6-8.18C1018.76,568.78,1013.85,570.1,1010.1,569.46Z"/><path d="M865.08,563c5.5-.39,11.19-1,16.89-1.15,6.56-.2,11.61,1.93,10.7,9.76-.72,6.26,2.79,8.09,7.87,9.51,18.28,5.1,20.92,14.11,8.69,28.94C901.87,619,892.64,624.7,881,625.91a29.06,29.06,0,0,1-9-.6c-3.61-.77-4.74-3.93-4.14-7,.68-3.49,3.67-1.67,5.76-1.51,13,1,22.8-4.94,30.7-14.33,5.36-6.38,3.23-11.28-4.85-12.9-11.48-2.31-20.57,3.35-22.89,14.49-.63,3-2,5.16-5,5.39a5.94,5.94,0,0,1-6.25-4.25c-1.43-4.81-2-9.87-3.3-14.74-1.45-5.55-.66-12.29-8.56-14.42-3.38-.91-2.38-4.28-1.21-6.87C854.76,563.63,858.23,560.05,865.08,563Zm17.47,13.23c.64-3.87-1.3-4.73-4-4.58-4.68.25-9.9.09-10.48,6.54-.26,2.82-.19,6.93,4,6.67C877.48,584.47,880.88,580.71,882.55,576.19Z"/><path d="M745.32,741.79c.36-7.9-2.33-15.28-3.8-22.87-.61-3.14-.49-6.38,3.4-7.28s4.09,2.4,4.69,5c1.64,7.1,4.54,6.31,8.5,1.53a53.45,53.45,0,0,1,8.45-8.62c4.8-3.68,10.3-5.45,15.82-1.42s8.24,9.83,6.43,16.8a40.94,40.94,0,0,1-4.14,10.28c-4.59,7.87-2.57,12.34,6.54,13a19.91,19.91,0,0,0,7.85-1.22c3.05-1.08,6.45-4.2,8.28.73,1.75,4.72-1.39,7.91-5.67,9.12-12.68,3.6-24,.11-34-7.8-4.88-3.85-9.31-9.38-12.44,1.43-.84,2.89-3.52,3.88-6.57,3.39-3.56-.58-3.94-3.15-3.77-6C745,745.82,745.15,743.81,745.32,741.79Zm29.56-24.94c-4.73.79-8.84,2.94-9.56,8.44-.56,4.27,1.85,7.67,6.1,7.58,5.75-.13,7.56-4.75,8.1-9.79C779.88,719.79,779.57,716.88,774.88,716.85Z"/><path d="M1299.93,714.9a28.89,28.89,0,0,1-4.43,15.44c-5.16,8.3-12,10.26-20.65,5.56-7.06-3.87-14.62-7-20.38-13-3.87-4-6.3-3.21-7.21,2.23-.5,3-.72,6-1.28,9s-.46,6.43-5,6c-3.58-.33-5.32-2.57-5.9-5.89-1.29-7.29-2.67-14.58-3.79-21.9-1.18-7.7,5.53-9.07,10.08-12.13,4.89-3.28,6.12,1.29,8.64,3.74,7.24,7,14.61,14.08,23.71,18.72,5,2.55,11,5.94,15.61,0,4.25-5.46,3.67-12.12.1-18-1.53-2.52-4.11-4.4-6.18-6.6-1.75-1.85-4.94-3.43-2.41-6.58,2.4-3,5.5-2.05,8.14-.22C1296.46,696.55,1299.9,703.9,1299.93,714.9Z"/><path d="M736.54,595.74c.16-3.93-.54-9,1.25-13.93,2.06-5.63,6.34-7.55,12-7.08s6.36,4.62,7.28,9.23c2.34,11.69-5.35,21.35-6.16,32.39-.09,1.22-2.92,2.76-4.73,3.27-11.43,3.22-23.35,4.3-32.66-4s-9.23-20.37-6.45-32.07a10.83,10.83,0,0,1,1.18-2.79c2.34-4.15,3.6-11.63,9.86-8.84,6.54,2.91.42,8.11-1,11.91-3.23,8.46-3.78,16.49,2.05,23.93,3.21,4.09,7,7.18,13,5.09s4.54-6.62,4.43-10.89C736.5,600.22,736.54,598.53,736.54,595.74Z"/><path d="M948.43,715.94c-.55,8.36-.24,16.79-2.38,25-1.56,6-4.69,7.8-10.28,4.81s-11.72-5.35-16.73-9.14-8.06-2.34-11.91,1.56c-4.76,4.81-8.74,13.7-16.24,11.3-6.55-2.1-5.35-11.5-7.36-17.74-1.54-4.78-2.5-9.75-4-14.54-.89-2.86-1.34-5.24,1.93-6.75,3.58-1.63,6.06,0,7.26,3.13a78.48,78.48,0,0,1,3.64,12.5c.64,3,.69,6.19,4.23,7.28,3.75,1.16,5.36-1.82,7.28-4.12,8.82-10.61,9.94-10.61,21.7-1.8,3.22,2.41,5.78,7.76,11,4.78,5-2.82,3.67-8.22,3.73-12.79,0-3.34-.6-6.68-.87-10-.29-3.63.3-7.36,4.63-7.48,5.33-.14,5.17,4.09,4.81,8C948.68,711.92,948.57,713.93,948.43,715.94Z"/><path d="M718.86,733.15c1.44,8.84-9.8,13.73-10.45,23.14,0,.51-1.72,1.49-2.34,1.3-11.18-3.44-23,.73-34.06-2.75-10.06-3.16-16.72-14.5-15.78-25.65,1-11.94,9.53-21.78,20.32-23.42a15.27,15.27,0,0,1,8.92,1c3,1.38,5.41,3.47,4.57,7-1,4.08-4.31,2.17-6.67,1.64-7.11-1.57-13.65-1.53-17.37,6.06-3.87,7.92-2.48,15.24,3.91,21.18,5.92,5.51,12.72,8.86,21.16,6,3.82-1.31,4.82-4.42,5.17-7.92a28.28,28.28,0,0,1,6.86-15.46c3-3.63,6.64-5.94,11.49-3.86C719.28,723.36,718.88,727.68,718.86,733.15Z"/><path d="M1273.91,611.71c-14-.18-19.88-5.48-20.78-19.22-.51-7.8-2.29-15.3-4.1-22.83-.94-3.95-.14-7.78,4.6-6,8.83,3.3,18,.77,26.87,2.94,15.36,3.75,22.34,10.29,21.3,21.16C1300.48,601.63,1288.54,611.89,1273.91,611.71Zm-8.58-21c2,4.27-5.17,13.06,6.26,13.08,8.62,0,21.56-10.18,21.64-16.9s-8.13-11.46-18.61-11.36C1263.42,575.68,1265.13,583.47,1265.33,590.76Z"/><path d="M645.72,563.38c3.28.41,8.9-2.8,9.35,3.59.46,6.64-5.54,5.29-9.64,5.68a72.42,72.42,0,0,0-20.57,4.64c-2.2.89-5.19,1.45-4.82,4.22.47,3.49,4,3.17,6.53,3.07,6.38-.23,12.75-.81,19.12-1.16,2.08-.12,4.29.14,4.5,2.81.2,2.45-1.48,3.46-3.74,3.82-7.62,1.23-15.21,2.79-22.87,3.68-4.29.51-6.4,2.55-5.63,6.47.66,3.31.92,7.94,6.14,7.6,2.18-.15,5.17-4.3,6,.65.74,4.47-1.69,8.59-5.41,11.31a6.23,6.23,0,0,1-8.33-.65,17.22,17.22,0,0,1-3.23-5.06c-5.45-11-6.93-23.12-9.32-34.95-.91-4.52,1.59-8.62,6-9.09C621.89,568.73,633.14,563.27,645.72,563.38Z"/><path d="M831.39,578.88c-1.54,10.82-3.39,21.13,5.39,29.78,3,3,1.44,6.41-2.06,8.28-3.7,2-6.84.31-8.29-3.13-3-7.09-6.25-14.17-6.23-22.14,0-6.28-2.83-8.61-9-6.55-1.9.64-4.1.57-5.84,1.47-3.9,2-10.32-.64-11.75,5.71-1.3,5.79,3.81,6.89,7.43,9.16,3.9,2.45,2.46,5.9.51,8.79-2.34,3.48-5.83,3-9,1.37-5.84-3.13-15.59-32.52-13.29-39.14.63-1.82,1.64-2.85,3.49-3,2.13-.19,4.07.21,4.91,2.5,1.38,3.79,2.43,8.92,7.67,7.45,7.55-2.12,16.62.56,22.6-6.55,2.22-2.64,3-7.5,8.14-4.53C830.26,570.74,832.38,574.34,831.39,578.88Z"/><path d="M831.64,720.52c7.32-.62,12.35-1.29,17.38-1.37,3.21,0,8.41-3.19,9,2.64.47,4.9-4.77,3.48-7.75,4-5.3.89-10.69,1.27-16,2.07-3.28.48-7.23.76-7.7,5.06s.21,9,4,12,6.91.92,9.68-2.08c2.07-2.25,4.53-5.11,7.46-1.87,3.12,3.45.1,6.06-2.37,8.45-12.5,12.1-23.49,9.41-28-7.59-2.27-8.66-2.66-17.83-3.54-26.81-.44-4.5,3-6.73,6.71-7.65,11.41-2.82,22.9-5.36,34.38-7.87,3-.65,5.42.33,6.06,3.7.68,3.6-2,4.8-4.61,5.47-7.82,2-15.73,3.61-23.54,5.65-2.07.54-5.19,1.12-4.6,4.3C828.8,722,831.75,720.51,831.64,720.52Z"/><path d="M532.3,604.17c.53-7.76.58-14.73-1.86-21.63-1.31-3.72-.5-7.56,4.1-8.92,4.06-1.21,6.46,1.15,7.79,4.57,4.18,10.76,12.44,18.28,20.39,26,2.14,2.09,4.51,4.74,7.85,3.3,3.84-1.65,3.19-5.53,3.1-8.84-.15-5.25-2.85-9.6-5.29-14-1.56-2.83-2.72-5.86,1-7.79,3.91-2,5.67,1.2,6.77,3.91,3.71,9.14,6.19,18.6,4.53,28.58-1.61,9.68-7.24,12.62-15.89,8.25a44.55,44.55,0,0,1-14.7-12.13c-1.23-1.54-2.75-3.22-5.07-2.18s-2.14,3.13-1.77,5.22a35.91,35.91,0,0,1,.54,4c.33,5.44-.7,11.36-6.88,11.43s-4.25-6.35-4.57-10.38C532.09,610.24,532.3,606.86,532.3,604.17Z"/><path d="M1122.55,716.06c.28,12.8-9.85,25.09-22.73,24.93-11.22-.14-10.68,3.9-6.71,11.46a15.9,15.9,0,0,1,1.55,5.82,4.7,4.7,0,0,1-3.56,5.36c-3.06.83-5.25-.31-6.15-3.5-4-14.16-8.07-28.29-11.92-42.49-.94-3.48,1.71-5.84,4.45-4.56,7.3,3.38,12.13-1.5,17.62-4.2,6.22-3,12.61-4.83,19.47-3C1119.62,707.23,1122.69,710.47,1122.55,716.06Zm-26.46,17.35c6.26.16,17-7.7,17.39-12.52.37-4.18-2.27-5.09-5.72-5.17-6.77-.15-18.47,6.91-18.8,11.59C1088.58,732.73,1093,732.55,1096.09,733.41Z"/><path d="M431.75,565.77a46,46,0,0,0,13.92-2.16c2.61-.77,5.69-1.11,7,2.1,1.53,3.9-1.75,5.41-4.4,6.71-5.38,2.64-11.43.43-16.89,1.93-3.6,1-10.36-.77-9.38,6.19.86,6.08,6.14,4.75,10.56,4.26,5.34-.59,10.71-1,16.08-1.24,2.51-.11,4.75.75,4.8,3.87,0,3-1.82,4-4.48,4.34-6,.84-12,1.73-17.9,2.84-3.22.6-6.89.89-7,5.66-.11,5.92.8,11.42,5.5,15.61,3.28,2.92,6.22.66,9.27-.63,2.49-1,4.95-5.39,7.66-1.68s-1.42,6-3.78,8.06c-8.67,7.49-18.52,6.53-23.53-3.77-7.67-15.77-11.28-32,.1-48.4C423,564.06,427.43,566.31,431.75,565.77Z"/><path d="M389.31,594.47c-.35,6.38-1.2,12.82,3.14,18.42,3.42,4.41,1,7.68-3.16,9.6-5.37,2.47-7.38-1.46-8.45-5.56-.75-2.88-.54-6-.79-9-.23-2.68.28-5.76-.87-8-6.7-12.85-16.18-1.66-24.32-2.3-6.49-.51-8.06,3.56-5.27,9.28a29.53,29.53,0,0,1,1.86,4.69c.85,3,.06,5.46-3.1,6.4s-5.22-.43-6.3-3.44c-4.1-11.44-3.5-23.15-1.77-34.88a4.32,4.32,0,0,1,2.3-3c2.48-.76,3.23,1.56,4.35,3.18,3.79,5.51,23.2,8.78,27.89,4.81,1.89-1.59,1.3-3.65,1.23-5.58-.11-3.45,1.07-6.15,4.68-6.64,4.32-.6,6,2.62,6.56,6.07C388.21,583.79,388.66,589.15,389.31,594.47Z"/><path d="M1106.44,577.28l-1.58.16c-20.36,1.68-20.19,1.65-16,21.29.84,3.93,4.09,8.35,0,12.35a3.62,3.62,0,0,1-4.69.26c-4-3.22-3.07-7.93-3-12.21,0-6.22-1.76-11.55-4.69-17.17-3.78-7.22.55-15.83-1.61-23.7-.11-.38,2-1.91,3.06-2,2.41-.09,3.47,2,3.85,4,1.21,6.21,1.16,12.86,11,11.46,6-.86,12.39,0,16.45-5.67,3.24-4.53,6.06-2.87,9.1-.08a15.57,15.57,0,0,1,5.47,11.49c.19,7.39.4,14.77,3.51,21.78,1.22,2.75,1.72,6.35-2.63,7.2-3.87.75-6.84-1-6.93-5.21-.12-5.42-1.11-10.67-1.84-16C1115,578.88,1112.3,576.06,1106.44,577.28Z"/><path d="M301.28,571.31c3.49,0,7.52,0,11.55,0s5.08,2.53,5.07,6c0,3.18-1.13,5.41-4.67,5-6.83-.87-5.87,3.68-5.47,7.71.88,8.69,1.83,17.37,2.92,26,.63,5,1,10.46-5.27,11.05-6.63.63-5.29-5.53-5.56-9.54-.52-7.71-.07-15.52-1.16-23.13-1.11-7.79-5.06-12.59-14.53-11.19-4.91.73-13.5,3.8-14.44-3.92-1.09-9,8.12-5.38,12.95-6.35C288.56,571.78,294.69,571.84,301.28,571.31Z"/><path d="M1054.84,726.68c-.39,2.79-.77,6.12-1.35,9.43-1.59,9.11-6.62,15.62-15.76,17.58-9.9,2.14-17.66-2-23.45-10.16S1008.8,725,1005.14,716c-1-2.47.93-4.45,3.45-5.28,3.14-1,4.43,1.3,5.12,3.49,1.2,3.84,1.86,7.83,2.8,11.75.7,2.93,1,6.09,2.32,8.71,3.34,6.58,9.24,9.77,16.42,9.82,6,0,8.81-4.46,10.48-9.43,2.2-6.51,3.76-13.15-2.26-18.72-1.48-1.36-3.43-2.31-4.6-3.86-1.85-2.46-1.42-5.13.8-7.27,2.58-2.5,5-1.4,6.92.88C1051.37,711.86,1054.93,718.24,1054.84,726.68Z"/><path d="M1216.82,600.9c-14.74,0-22.78-6.18-23.09-16.46-.39-12.62,5.51-17.78,18-15.71,5.27.87,10.78.83,15.62,3.53,5.06,2.84,10.16,5.87,9.63,12.81-.59,7.55-5,12.31-12,14.48A47.62,47.62,0,0,1,1216.82,600.9Zm-2.48-9.1c4.33-.37,9-.2,12.07-3.9,1.33-1.58,1.45-4.46-.28-5.57a37.4,37.4,0,0,0-19.9-5.75c-2.31,0-3.31,3.08-2.78,5.68C1204.65,588.17,1207.49,592.28,1214.34,591.8Z"/><path d="M1143.44,586.25c.21-14.18,5.09-22.72,13-22.73,15,0,24.43,8.6,24.28,22.25-.13,12.3-6.89,18.55-20,18.51C1148,604.24,1143.25,599.24,1143.44,586.25ZM1161.7,596c5.92-1,11.92-2.69,12.44-10.3s-4.54-10.55-11.46-11-10.75,2.37-11,9.74C1151.4,591.39,1154.34,595.22,1161.7,596Z"/><path d="M940.11,609.7c-7.2.86-12-3.08-15-10-3.34-7.9-3.68-15.69,1.29-23.06,1.33-2,3.41-3.51,6-1.7,3.65,2.55,2.19,5.63,1.11,9-3.47,10.74,2.71,17.85,13.77,16.12,9.55-1.5,12.21-7.56,7.1-15.89-3-4.86-7.82-7.24-12.46-10-2.37-1.38-3.26-3.49-1.87-5.95,1.06-1.88,2.7-2.47,5.09-1.85,10.28,2.7,19.52,15.19,19,26C963.62,602.72,954.51,609.49,940.11,609.7Z"/><path d="M52.05,567c5.49-.87,11.74,1.42,17.32-2.19,3.09-2,6.31-3.11,8.1,1.6,1.45,3.82,0,7.45-3.59,8.11-9.73,1.8-8.49,7.09-6,14.05,1.55,4.33,1.84,9.19,2.15,13.86.21,3.2-1.22,6.17-5,6.4s-5.11-2.43-5.69-5.74c-1-5.93-.52-12.12-3.2-17.78-2.15-4.54-4.79-8-10.53-7.78-4.57.13-10.82,1-10.81-5.69,0-7.49,6.53-4.63,10.82-4.83C47.65,567,49.66,567,52.05,567Z"/><path d="M162.3,618.23c-3.86.55-8.51-.88-12.54-4.49-1.94-1.75-3.15-3.86-2-6.24,1.41-3,3.76-1.77,6-.64a46.21,46.21,0,0,0,4.67,1.84c1.76.67,3.37.65,4.09-1.43.55-1.55-.59-2.4-1.72-3.18-2.76-1.9-5.8-3.51-8.23-5.78-5.55-5.18-6.66-11.83-3.78-18.53,3.18-7.4,10.3-10.24,17.5-12.38a3.12,3.12,0,0,1,3.94,2.28c.9,2.73-.54,4.49-2.52,6-4.62,3.56-13.44,4.19-9.94,13.52,2.46,6.57,8.08,9.65,14.45,11.49,5.39,1.56,6.72,5.45,5.46,10.2C175.71,618.09,169.62,618.07,162.3,618.23Z"/><path d="M1209,741.41c-.68,3.56,2.26,8.58-3.75,9s-5.49-4.51-5.57-8.49a173,173,0,0,0-3.5-30.86c-.64-3.18-1.65-7.21,3.36-7.81,4.68-.55,5.15,3.17,5.57,6.63C1206.35,720.5,1207.68,731.13,1209,741.41Z"/><path d="M677.17,570.42c3.6.33,3.59,3.53,4.24,5.92,3,11,2,22.72,6.53,33.47,1.17,2.79-.51,5.33-3.66,6-3,.66-5.71-.34-6.21-3.54-1.9-12.24-3.64-24.52-5.12-36.83C672.67,573.14,674.41,571.06,677.17,570.42Z"/><path d="M10.46,591.47c-.62,7.12-.49,12.95,3.13,18.39,2.62,3.93.48,7.74-2,11.1A3.67,3.67,0,0,1,7.08,622c-4.35-1.88-3.71-6-3.65-9.55A169.2,169.2,0,0,0,.34,579.56c-.55-3-1-6.47,3.21-7.07C6.94,572,8.16,575,8.64,577.6,9.53,582.51,10,587.51,10.46,591.47Z"/><path d="M567.78,704.53c-.53-2.73-.2-5.81,3-6.34,3.59-.6,4.14,2.57,4.56,5.27,1.88,12.21,1.55,24.81,7,36.38,1.26,2.67-.5,5.57-2.95,6.81-3.18,1.61-4.84-1.21-6.22-3.49-2.92-4.86-2.07-10.42-2.67-15.7C569.6,719.81,568.67,712.17,567.78,704.53Z"/><path d="M127.94,568.6c-.93,5.58-1.81,10.77-8.65,10.72-3.06,0-5.38-1.65-4.38-5.11,1.48-5.09,2.71-11.1,9.13-11.86C128.52,561.82,126.94,566.54,127.94,568.6Z"/></svg>