<svg xmlns="http://www.w3.org/2000/svg" width="1084.68" height="2758.31" viewBox="0 0 1084.68 2758.31"><title>c30-txt</title><path d="M977,1367.29c6.6-1.2,11.28-2.34,12.75,2.84,1.74,6.13-4.39,6.79-7.86,9-4.56,3-9.46,1.84-14.25.55-16.48-4.42-32.09-10.83-45.91-21-7.72-5.68-12.46-6.78-15.84,4.9-2.24,7.77-.94,17-7.7,23.44-2.57,2.47-4.29,6.24-8.63,4.15-3.42-1.64-5.64-4.47-4.76-8.64,3.87-18.21,4.09-36-3.94-53.48-2.35-5.12.73-9.49,6.86-10.58,5.23-.92,8.82.15,9.06,6.43.12,3,.14,6.7,4.08,7.5,3.18.64,4.24-2.25,5.84-4.43,11.17-15.28,32.06-22.41,49.8-17.31,2.27.66,4.83,1.4,4.37,4-1,5.48.47,12-5.55,15.68-5.69,3.47-11.35,7-17.26,10.09-6.21,3.2-8.71,5.66-1.54,11.23C949.35,1361.63,964.17,1364.91,977,1367.29Z"/><path d="M355.22,1134c1.06,8.92-2.23,15.35-8.66,20.35-6.08,4.73-4.46,8.53,2,10.08,8.52,2,16.68,9.29,26.19,2.45,1.83-1.31,3.71.34,5.06,1.92,1.89,2.21,1.24,4.24-.46,6.18-3,3.44-6.61,4.65-11.36,4.65-14.24,0-25.81-7.13-37.8-13.21-2.63-1.33-5.12-2.94-7.68-4.41-6-3.44-9.44-1.16-10.46,5.09-.85,5.17-1.09,10.44-1.48,15.67-.11,1.55.76,3.71-1.57,3.82a5.26,5.26,0,0,1-4.15-2c-1.37-2.57-3.09-5.68-2.74-8.32,1.41-10.86-4-20.61-4.38-31.14-.15-4.31-2.55-8-4.72-11.77-2.05-3.57-2.35-8.6,2.32-10.07,4.84-1.51,3.9,3.82,5.08,6.57,2.8,6.5,3.08,13.46,4.08,20.3.23,1.57.41,3.55,2.56,3.67s2.45-1.64,3-3.24c6.55-18.68,16.92-26.19,35.25-26.53C353.18,1123.87,357.8,1125.57,355.22,1134ZM341,1131.87c-8.37.21-19.7,7.17-19.43,12.54.35,6.82,6.2,5.67,10.47,5.71,7.48.07,15.75-7.37,15.8-13.64C347.82,1131.49,344.27,1131.83,341,1131.87Z"/><path d="M675.63,1360.67c-.87,5.74,1.21,11.47-.8,17.26-1.42,4.11-3.17,7.89-8.15,7s-5.66-5.22-5.84-9.31c-.47-11.1.08-22.31-1.37-33.26-1-7.62-6-14.35-.94-22.72,6.14-10.22,9.28-10.89,16.59-1.45,10,12.9,21.64,24.51,29.54,39,2.88,5.3,6.1,5.34,9.92,0,7.71-10.86,16.2-21.17,24-32s12.31-10.53,19.27.58,10.6,23.52,13.83,36c1.64,6.33.42,13.86,10.62,13.28,2.49-.14,3.93,2.63,2.82,4.88-3,6.14-9.31,8.54-15.19,9.26-6.56.8-7.28-4.86-7.18-10.21.22-11.94-3.72-22.64-9.76-32.8-4.3-7.23-8.76-7.15-13-.57-5.3,8.17-12.7,14.55-17.17,23.65-6.85,14-16.08,13.24-24.25-.45-3.88-6.49-8.05-12.82-12.26-19.11-2.12-3.16-3.62-8.21-8.72-6.48-4.81,1.63-1.73,6.14-1.94,9.39C675.49,1355.33,675.63,1358,675.63,1360.67Z"/><path d="M519.14,1166.17c-.06-8.25-.27-16.4-3.56-24.12-.88-2.07-.82-4.41,1-5.32a67,67,0,0,0,14-9.59c2.71-2.37,5.48.82,6.14,4.07,1.16,5.71,5.28,9.8,7.77,14.78,3.07,6.14,8.5,11.25,15.52,10.31,6.84-.91,12.25-5.9,15.55-12.38.74-1.45.81-3.29,1.71-4.58,1.65-2.37,3.12-5.54,6.6-5.27,3.7.29,3.93,3.74,5,6.49,1.9,4.8,1.08,9.78,1.56,14.66.65,6.57,1.08,13.24,5.15,18.76,1.42,1.92,3.68,3.39,1.22,5.65-2.11,1.94-4.36,3.78-7.78,3.61-3.62-.18-4.41-2.49-4.82-5.15-.81-5.19-1.1-10.46-2.14-15.59-.77-3.82-1.06-8.56-7-2.86-10.29,9.81-24.12,13.26-36-3.06-1.51-2.06-3.13-5-6.09-4.17-3.71,1-3,4.69-3,7.52,0,5.26.67,10.53.42,15.77-.14,2.85,1,7.48-4.2,7.31-4.79-.16-8.22-2.42-7.72-8C518.65,1172,518.89,1169.1,519.14,1166.17Z"/><path d="M221.34,1154a54.52,54.52,0,0,1-21.91,33.73c-6.68,4.84-12.24.76-15.29-5.45-2.26-4.62-3.93-9.79-3.4-15.31.25-2.59.94-6.37-.43-7.71-11.49-11.23,2.38-21.69.68-32.57-.49-3.14,2.62-4.14,5.52-4.29,10.52-.51,21.09,0,31.49-2.55,2.64-.66,6.55,0,6.86,3.86.25,3-1.39,5.38-5.19,6-8.16,1.27-16.26,3.15-24.55,2.66-4.78-.28-8.3,1.31-8.37,6.07-.09,5.6,4.61,4.57,8.09,4,11-1.72,22.07-3.68,33.1-5.55,1.87-.31,4.21-1.3,4.61,1.68.27,2-1.72,2.47-3.25,3-11.31,4.19-22.07,10-34.29,11.49-3.22.4-7.31.66-7,5.25.44,6.78-.57,14.42,5.82,19.15,4.69,3.47,6.58-1.89,9.61-4a24.93,24.93,0,0,0,10.27-14C214.54,1156.53,216,1153.12,221.34,1154Z"/><path d="M445,1360.87c2-18.27-1.15-33.23-1.19-48.3,0-5.17-.21-10.22,6.64-10.89,6.33-.63,8.42,1.82,10.08,8.72,3.83,16,17.36,25.88,27.92,37.45,3.65,4,7.94,2.79,11.14-1.81,6-8.68,14.24-16,16.61-27,.77-3.61,3.29-6.94,7-7.26,5-.42,4.48,4.51,5.54,7.65,5.9,17.38,8.21,35.46,10.52,53.55.48,3.77-.84,8.59,4,10.52,5.37,2.15,4.93-3.64,7.18-5.78,1.3-1.24,3-2.73,4.56-1.41a5.53,5.53,0,0,1,1.46,4.57c-1.58,7.32-5.9,13.78-12.11,16.86-6.9,3.43-12.93,1.34-13-8.6-.16-16.08-2.55-32-6.06-47.63-.68-3.06-1.35-7.19-4.32-7.78-4.26-.85-5.32,3.59-7,6.75-2.48,4.73-4.84,9.65-8.12,13.8-6.17,7.82-13.7,9.87-21.76,2.57-6.54-5.93-13.86-11.12-18.55-18.9-1.52-2.51-2.44-6.46-6.66-4.92-4.7,1.71-3.09,5.74-2.63,9.16,1.64,12.24,5.65,24.46.18,36.75-1.19,2.69-.92,6.84-5.33,6.36-4.15-.45-6-3.58-6.09-7.56C444.94,1371.09,445,1364.4,445,1360.87Z"/><path d="M1049.72,1312c-1.22-4.34-1.77-7.73.28-11.16,1.75-3,4.11-4.63,7.49-4.74,3.85-.12,5.72,2.15,6.07,5.67.44,4.37,3.6,8.29,2.12,13-5.79,18.35-3.81,37.83-8.48,56.46-2.87,11.43-5.06,23.53-.72,35.47,2.46,6.78-1.24,10.58-7.32,11.39-6.51.87-8.46-3.47-7.78-9.36,1.9-16.3,3.47-32.64,5.8-48.88,1.06-7.32.69-11.63-8.42-12.31-13.35-1-19.46-11.69-24.56-22.08-5.44-11.08-9.39-22.88-18.56-31.74-2.76-2.66-2.89-5.52.26-7.92,4.36-3.33,9.24-4.63,12.9.44,3.07,4.26,5,9.35,7.44,14.09,4.45,8.7,9.27,17.23,13.17,26.17,2.34,5.35,6,7.93,11.27,7.51,6.26-.49,7-6,7.84-10.87C1049.18,1319.12,1049.39,1315.12,1049.72,1312Z"/><path d="M651.61,1334.09c-19.82,4.82-37.7,9.43-55.72,13.38-4.33.94-9.44-.48-9.69,6-.33,8.45-1.07,17.48,5.15,24.09,4.55,4.83,9.26-.38,13-2.82,7.26-4.73,14-10.29,21.82-14.67-5.75,14.46-14.86,26.64-28.88,33.36-7.5,3.6-13.59-2.58-15.93-10.07-1.84-5.88-2.37-12.17-3.37-18.3-.51-3.08.4-7.73-1.32-9-9-6.78-14-13-1.53-21.17.21-.14-1.19-3-2.06-4.48-6.72-11.37-5.59-15,7.17-16.07,21.29-1.71,41.82-9.45,63.46-7.75,3.19.25,8.24-1.33,8.56,3.83.33,5.38-4.21,5.71-8.49,5.93a270,270,0,0,0-52.5,8.27c-6,1.51-9,4.64-7.73,10.08s6,3.28,10,2.52c13.57-2.56,27.18-5,40.85-6.94C639.4,1329.58,645,1327.89,651.61,1334.09Z"/><path d="M261.58,1309.15c16.13-.4,28.37,4.94,34.75,19.21s.15,26.59-8.21,38.13c-7.3,10.08-18,15.58-28.32,21.72-16.9,10-29.73-1.33-32.56-17.5-2.63-15.08-.66-31.21-10-45-2.52-3.72-.76-8.3,4.09-9.4s7.19.76,6.78,6.62c-.69,10,6.83,18.93,5,29.42-.22,1.2,1.52,3.65,2.83,4.07,11.4,3.74,7.38,11.3,4.41,18.17-1.34,3.11-2.9,5.52.35,8.14,2.31,1.86,4.77,2.49,7.26.53,13-10.29,29.23-16.46,38-32.24,7.48-13.5,2.58-24.71-13-26.69-10.1-1.29-20.27-3.88-30,1.79-4,2.32-6.84,1.34-8.38-2.94-1.65-4.62,0-8.33,4.61-9.39C246.93,1312,254.23,1307.86,261.58,1309.15Z"/><path d="M707.65,1127.56c14.84-.09,30.75,16.1,30.88,31.41.08,9.76-15.4,23-27,23-14.18.12-25.37-11.27-25.44-25.89C686,1140.53,695.73,1127.63,707.65,1127.56Zm3.85,13.52c-14.47-.11-21.58,11.22-14.43,23.35,4.93,8.36,12.65,5.84,20.16,4.78s12.25-6.33,13.31-12.22c1.21-6.73-4.09-12-10.35-15.35C717.28,1140.08,714.41,1141,711.5,1141.08Z"/><path d="M810.47,1146.83c-4.53,9.39-10.38,11.38-17,12.64-12,2.29-18.66,9.07-14,14.75,4.74,5.87-.82,7-2,10.12-.82,2.23-2.64,2.9-4.77,2.41-2.5-.57-2.51-2.86-2.61-4.76-.17-3.26-.06-6.54,0-9.81,0-1.62.85-4.34.21-4.72-9.69-5.77-6.11-10.69-.58-17.53,2-2.52-.62-9.47-2.07-14.1-2.62-8.3,2.23-11.37,8.65-11.81,13.78-1,27.62-.91,41.44-1.34,3.39-.11,6.21.61,6,4.61-.26,4.18-3.48,3.65-6.61,3.79-10.75.47-21.55-.7-32.13,3.33-5.68,2.17-7.54,5.82-8.3,10.83s.62,8.48,6.94,7.07C791.81,1150.48,800.41,1151.68,810.47,1146.83Z"/><path d="M945.14,1154.34c-.66,3.9-3.35,4.41-6.6,4.59-3.69.22-9-1.58-10,3.72-.94,4.92.77,10.59,5.12,13.2,9.09,5.47.91,10.65-1.16,13-2.9,3.31-5.7-1-5.89-4.52a34.9,34.9,0,0,0-4-15.14c-4.82-8.92-13-9.61-18.87-.91-3.82,5.66-6.53,12.07-9.69,18.18-1.46,2.84-3.3,5.42-6.84,3.88-3.31-1.44-1.72-4.45-1.28-6.94.89-5.1,4.68-8.64,7-13,.89-1.67,2.65-3.37,1.09-5.37-1.43-1.82-3.23-1.63-5.24-.41-2.7,1.64-6.4,2.57-7.54-1-1.38-4.33,3-5.47,6.07-6,8.77-1.44,15.36-4.43,16.92-14.63.51-3.39,3.51-7.6,8.08-7.74,5.6-.17,3.83,5.32,5,8.21,4.5,11,14.13,8.24,22.45,8.81C942,1152.49,944.36,1151,945.14,1154.34Z"/><path d="M976.09,1167.25c.13,6.25.11,12.49-1.58,18.59-.45,1.64-.74,3.45-2.77,3.48s-2.69-1.75-2.84-3.39c-1.39-14.92-2.76-29.84-4-44.78-.29-3.57,2.41-5.29,5.35-6.25,4.74-1.56,7.32,1.81,9.86,4.85,9.92,11.87,19.94,23.52,33.7,31.36,6.32,3.6,8.29,1.56,8.61-4.76.32-6.56.65-13.12,1.19-19.66.23-2.84,1.56-5.59,5-4.52,3.06,1,1.92,3.78,1,5.84-2.88,6.55-.58,13,.21,19.46.81,6.67.84,14.82-3,18.63-3.39,3.3-9.22-4.07-14.17-6.27-8.3-3.68-14.87-10.38-21.18-17a50.65,50.65,0,0,0-6.31-6.21c-2.26-1.66-4.66-4.27-8-2.41s-1.27,4.63-1.09,7.11C976.21,1163.28,976.09,1165.27,976.09,1167.25Z"/><path d="M823.16,1382.83c-14.78-.33-25.6-12-24.88-26.89,1.06-21.88,15.68-38.42,33.48-37.88,10.76.33,33.83,24.84,33.88,36C865.7,1366.54,841.05,1383.23,823.16,1382.83Zm4.47-16.65c15.88-.31,24-4.88,24.15-13.51.07-6.3-13.44-17.75-21-17.83-8.25-.08-18.17,10.06-17.78,18.75C813.37,1362.69,817.84,1367.7,827.63,1366.18Z"/><path d="M153.8,1150.38c2.51,8.76-2.46,18.88,6.81,25.91,2.67,2,.55,5.7-2.29,7.32s-5.95,1.7-7.87-1.35a14.66,14.66,0,0,1-2-6.52c-.35-4.92-.09-9.88-.36-14.81-.37-6.71.44-16.46-4.63-18.72-6-2.7-14.47,1.52-21.42,4.46-1.77.74-3.12,2.43-4.85,3.33-10.54,5.44-11.48,7.85-6.56,19,1.31,3,3.85,5.65,1.21,9-1.61,2-3.49.7-5.36.17-4.34-1.24-3.71-4.54-3.86-7.91-.54-12.33-1.3-24.65-2.14-37-.17-2.39-.89-5,2.19-5.6,3.59-.74,5.06,2.17,4.64,4.79-1.83,11.47,4.69,9.12,11.35,7.38,4.75-1.24,9.63-2,14.47-2.89,2.76-.49,5.21-1.08,5.37-4.58.2-4.54,2.26-8.37,7.06-7.44s7.67,5,8.12,9.89C154.17,1140.11,153.8,1145.41,153.8,1150.38Z"/><path d="M52.52,1115.76c12.73-1.3,22.7.23,32.23-3.35,2.73-1,5.35-.48,6.53,2.6s-.79,4.92-3.32,6.22c-1.16.6-2.43,1.68-3.56,1.56-14.42-1.53-15.77,7.5-15.21,18.38.68,13.45,1.3,26.91,1.6,40.37.07,3.39,2.47,4.27,4.19,6.11,3.88,4.15-.08,6.81-2.51,8.9-3.5,3-4.12-1-5.29-3.07-5.77-10.41-3.64-21.88-3.15-32.72.41-9.08-2-17.54-2.58-26.33-.35-5.48-3.72-9.57-10.89-8.12-6.55,1.33-13.11-.36-19.49-2.16-2.31-.65-6-.09-5.36-4.12.49-3,3.44-4.11,6.07-4.19C39.67,1115.6,47.58,1115.76,52.52,1115.76Z"/><path d="M406.78,1177.62c-9.24.49-16.08-3.68-19.5-12-5.79-14.05-4-25.6,4-31.7,7.39-5.66,28.78,1.29,34.8,11.3C436.35,1162.36,427.74,1176.82,406.78,1177.62Zm.59-11.42c6.31.17,12.38-1.92,15.7-6.77,2.91-4.24-3.38-7.26-5.43-10.29-4.38-6.47-12.71-5.35-19.76-5.54-2.05,0-3.7,2.27-4.39,4.78A14,14,0,0,0,407.37,1166.2Z"/><path d="M475.18,1131.89c6.26-1.65,9.07,2.13,12,7.87,3,6,8.36,10.74,11.35,17,3.9,8.18,1.66,15-6.57,18.35-9.68,3.92-19.43,4.79-27.74-2.72s-11.23-17.82-10.77-28.62C453.72,1136.42,463.18,1131.63,475.18,1131.89Zm4.39,35.16c4.65-.7,10.7.4,11.06-6.73.29-5.83-12.15-17.66-17.95-17.41-4.67.21-8.32,2.27-8.76,7.48C463.21,1159,470.78,1166.9,479.57,1167.05Z"/><path d="M47.15,1349.63c-.47-26.68,8-35.29,34.75-35.52,9.87-.08,24.78,19.11,25.12,32.36.48,18.63-16.75,39.19-33.76,40.27C58.57,1387.67,47.55,1372,47.15,1349.63Zm31.48-24.37c-15.38.06-23.51,7.75-23.72,22.43-.26,17.31,8,27.31,22.14,26.88,11.18-.34,22.93-15.06,22.74-28.5C99.63,1334.08,90.61,1325.21,78.63,1325.26Z"/><path d="M146.08,1327.3c-.48,10.6-1.22,21.36,3.95,31.93,4.75,9.73,11.53,13.08,21.48,9.75,9.53-3.18,20.32-4.46,25.2-15.47.89-2,3.23-3.87,5.42-2.73,2.6,1.36,2.57,4.54,2.06,7.13-3.06,15.64-43.05,32.14-54.21,21.08-7.35-7.27-10.76-18.8-11.31-30-.35-7.07.7-14.26-2.91-20.92-1.68-3.09-1-6.08,1.84-8.32a5.32,5.32,0,0,1,6.2-.73C147.18,1320.8,147.68,1323.57,146.08,1327.3Z"/><path d="M1037.44,860.89c-13.52,1.5-20.86-12.3-24.49-25.83a33.86,33.86,0,0,1,5.91-29.79c4.51-6,10.09-8.86,17.58-6.55,5,1.54,8.59,4.75,6.55,10.18-1.63,4.37-4.93,8.36-10.72,5.42-5.14-2.61-7.18.32-9.24,4.29a19.35,19.35,0,0,0-1.68,13.42c2.31,11,3.76,11.39,13.31,5.25,7.24-4.66,14.78-8.66,23.83-9.35,5.24-.4,7.7,1.67,10.24,5.75s1.06,6.91-1.41,9.93C1059.51,853.14,1050.24,860.1,1037.44,860.89ZM1050.05,841c-3.87,1.72-7.79,3.35-11.6,5.2-1.43.7-2.48,2.29-1.2,3.71,2.66,3,6,1.54,8.24-.21,2.79-2.23,8.7-1,8.24-6.78C1053.61,841.34,1051.71,840.84,1050.05,841Z"/><path d="M927.26,836c-.34-7.82,1.15-15.62-4.28-22.89-3-3.94.51-8.51,4.33-10.87,4.1-2.53,8.09-.85,11.68,2.08,8.79,7.17,17.7,14.18,26.51,21.31,2.17,1.76,4.25,4.15,7.27,2.51,2.77-1.5,2.76-4.6,2.87-7.39.23-6.08-2.12-12.16.33-18.28,1.44-3.58,2.93-7,7.2-7.52,2.73-.32,6.14-.09,7.48,2.47,1.42,2.72-1.18,4.44-3.51,5.49-3.49,1.58-3.46,4.38-3.54,7.68-.21,8.89-.09,17.73-1.52,26.68-1.26,7.88-4.74,7-9.16,4.37-7-4.16-13.71-9-20.49-13.59-1.53-1-2.76-2.55-4.37-3.4-2.66-1.4-5.25-4.3-8.35-3.12-3.87,1.47-1.71,5.45-1.9,8.25-.37,5.49.4,11-3,16-1.16,1.69-1.12,4.58-4,4.05s-4-2.84-4-5.54S927.1,838.76,927.26,836Z"/><path d="M669.81,834.45c-2.26-10.86.82-21.83-8-30.33-3.62-3.46.34-7.88,4.28-7.3,8.48,1.25,16.53-.85,24.64-1.79,11.46-1.32,21.64,1.93,29.47,9.19,5.62,5.2,4.65,14,1.15,20.7-7,13.3-18.78,21.88-32,28.06-8.6,4-20.82-6.28-19.95-16A19.59,19.59,0,0,1,669.81,834.45ZM694.32,801c-5.4,1.07-10.84,2-16.2,3.28-3.58.87-6,2.91-5.36,7.26,1.42,9.37,2.8,18.74,4,28.14.47,3.7,1.29,4.76,5.76,4.46,14-1,22.57-10.48,31.25-19.31,5.62-5.71,4.12-15.14-1.93-18.37C706.46,803.57,700.77,801,694.32,801Z"/><path d="M49.44,812.46c-5.4,2.5-12.33,2.61-14.87,10.41-1.87,5.77-5.25,11.09-8.27,16.44-1.45,2.56-3.94,4.36-6.9,2.19-2.32-1.69-2.12-4.24-.88-6.68,3.93-7.73,6.49-16.56,9.9-23.69,4-8.45,7.12-18.58,13.84-26.14,3.16-3.55,5.59-3.54,7.79.5,2,3.75,3.74,7.68,5.54,11.55.78,1.67,1.37,4.83,2.15,4.86,12.29.51,5.83,8.44,5.53,13.74-.28,5,1.47,8.5,6.67,8.87,3,.22,5,.72,4.39,4.08s-1.88,6.52-5.49,8c-3,1.22-4.14-.56-5.8-2.75-3.83-5-5.64-10.84-7.55-16.64C54.52,814.23,53.16,812.18,49.44,812.46Z"/><path d="M811,853c-12.49-.06-20.72-2.36-27.72-8.57-2.41-2.13-5.15-4-3-7.6s4.71-7.34,9.41-8.2a2.71,2.71,0,0,1,2.34,1c.77,1.64-.6,2.68-1.48,4-5.19,7.6-4.7,8.27,4.27,10.14a34.57,34.57,0,0,0,19.94-1.34c5.09-1.94,5.68-4.85,1.09-7.73-10.47-6.6-11.82-17.52-13.27-28.07-1.69-12.31,19-20.91,28.95-19.13,3.54.64,2.56,3.66,2.64,6,.09,2.8-.87,4.82-4.13,4.85a78.73,78.73,0,0,0-8.28.21c-4.35.5-9.17,1.14-10.16,6.35s-4.36,11.07,1.95,16c5.46,4.26,9.57,10.28,16.6,12.44,3.11.95,4.39,2.47,3.74,6.1s.2,7.62-4.66,8.85C822.11,850.09,815.42,854,811,853Z"/><path d="M467.42,820.22c.44,9.49-1.4,12.45-9.13,10.48-12.88-3.27-25.41-7.25-37.33-13.09-5-2.44-7.49-2-7.1,4.42.27,4.57.31,9.32-2.25,13.51-1.06,1.73-1.12,4.78-3.89,4.45-3.31-.39-2.82-3.55-3.06-5.89-.49-4.91-.77-9.84-1.31-14.75-.3-2.74-.47-5.69-2.71-7.69-3.39-3-4.29-6.55-.54-9.36s7.51-6.5,13-2c11.24,9,24.11,14.91,38,19,8,2.33,8.79-.5,7-7q-2-7.12-3.84-14.31a2.4,2.4,0,0,1,1.34-3,2.23,2.23,0,0,1,3,1.34C462,805,465.14,814,467.42,820.22Z"/><path d="M328.38,845.15c4.68-6.6,5.6-15.39,9.28-23a162.68,162.68,0,0,0,8.08-18.54,12.73,12.73,0,0,1,9.71-8.94c5.63-1.21,5,4.63,6.59,7.28,4.32,7,6.81,15.78,18.08,13a2.76,2.76,0,0,1,3.54,2.15c.32,2.63-1.59,3.76-3.88,4.29s-5.25.29-5.7,3.57c-.4,3,1.42,4.48,4.17,5.1s3.7,2.27,2.28,4.72c-1.63,2.79-2.23,6.86-6.46,7-2.94.11-2.41-2.93-3.37-4.69-2.45-4.47-1.79-12.21-9.61-11.5s-16.18,1-19.42,10.86c-1.32,4-4.24,7.42-6.32,11.18-1.07,1.93-2.49,2.63-4.52,1.79C329.27,848.82,328.51,847.55,328.38,845.15ZM350,815.52c-.11,3.22,2.1,3.52,4.3,3.26,2.55-.3,4.94-1.41,4.53-4.54-.27-2.09-1.29-4.37-3.94-4.28C351.44,810.06,350.55,812.78,350,815.52Z"/><path d="M254.07,804.51c4.33-.15,8.61-.37,12.75-1.87,2.58-.92,6.14-2.47,7.41.71,1.7,4.26-3.16,4.24-5.45,5.7-4.9,3.13-10.63,3.17-16.07,3.23-7.75.09-11,2.05-9.85,11,.52,3.93,5.91,12.57-1.73,13.07-7.28.47-3-8.2-3.93-12.81-1.77-8.4-1.57-17.12-4.29-25.39-1.47-4.47-2.6-6.58,5.08-8.47,12.65-3.1,25.49-3.41,38.05-6,3-.62,7.25-1.59,7.74,2.32.54,4.29-3.45,4.59-7.2,4.75-9.77.42-19.68.61-28.75,5-2.56,1.23-7.09,1.72-6.15,5.67,1,4.22,5.53,2.72,8.7,3.1A30.27,30.27,0,0,0,254.07,804.51Z"/><path d="M117.77,834.92c-5.42-.67-10.66-1-15.76-2.08-2.56-.52-5.64-1.57-6.07-4.89-.36-2.76,1.28-4.78,3.84-5.65,4.18-1.41,3.8-4,2.42-7.28-1.8-4.22-3.58-8.47-5-12.82-3.08-9.14,0-16.92,7.84-19.91,2.43-.93,5.71-3.1,7.33.26,1.2,2.49,1.48,6.32-1.89,8.19-9.88,5.47-4.68,12.91-2.4,19.57,3.83,11.19,12.84,14.05,23.63,13.09,2.3-.21,4.85-.62,4.48,2.58-.34,2.94,1.41,7.49-3.82,8C127.43,834.56,122.49,834.65,117.77,834.92Z"/><path d="M869.24,819.63c-2.54-10.22,6.55-13.17,13.91-16.25,7.05-2.94,10.09,3.76,13.52,8.32,2.78,3.69,5.49,7.37,6.43,12.13,2.23,11.32-.33,16.7-9.67,19.46-8.09,2.4-19-2.73-22.14-10.64A28.64,28.64,0,0,1,869.24,819.63Zm8,4.5c0,6,4.26,8.91,10.44,9.49,5.13.49,8.72-2.39,8.41-7.35-.3-4.71-1.84-10.83-7.75-10.77C884,815.54,876.91,814.94,877.24,824.13Z"/><path d="M562.06,823a22.18,22.18,0,0,1-11.13,18.5c-6,3.59-12.25,2.43-16.92-4.06-6.22-8.66-6.1-18.59-5.55-28.25.36-6.4,3.78-12.91,10.59-14.83s11.09,3.62,15.34,7.76C560.27,807.8,561.23,815.52,562.06,823Zm-27.72-6c.59,5.89-.23,12.68,6.73,15.65,4.3,1.83,8.82,2.12,12.55-2.09,4.9-5.53,2.88-10.68,1-16.9-2.47-8.09-9.89-9.23-14.92-9.9C536.07,803.21,533.79,811.26,534.34,816.93Z"/><path d="M602.29,815.17a54.56,54.56,0,0,0,.57,15.05c1.89,10.13,6.34,12.89,16.07,8.88,5.25-2.16,11.19-3.9,13-10.7a3,3,0,0,1,4.36-2.12c1.48.78,1.32,2.59,1.24,4.14-.51,9.05-20.07,24.65-28.68,22a15.27,15.27,0,0,1-9.9-11.2c-2.85-12.7-2-26-6.49-38.51-1.08-3,.89-6.22,4.64-6.73,4.22-.58,2.43,3.19,3.32,5.07C602.6,805.66,600.93,810.76,602.29,815.17Z"/><path d="M202.38,808.12c.9,7.71-2.32,14.85,3.52,21,2.07,2.18-1.39,4.17-3,5.85s-3.43,2.6-5.75,1.49c-2.57-1.22-3.11-3.19-2.91-6,.57-8.17.86-16.38,1-24.57.07-3.6-.17-7.05-2.17-10.52-2.16-3.75,1-6.68,4.12-7.88,4.61-1.79,5,2.22,5.08,5.23C202.54,798.17,202.38,803.65,202.38,808.12Z"/><path d="M385.28,981.14c4,1.1,10.94-2.5,13.48,3.89,2.64,6.63-.26,13.54-4.2,19-10.91,15.14-37.68,22.64-56.74,6.7a5.23,5.23,0,0,1-2.12-5.23c2.9-13.87-1.71-27.11-3.41-40.59-.34-2.65-1.46-5,1.92-6.25,2.7-1,4.9-1,6.16,2.26,1.47,3.77,4.87,3,7.16,1.81,4.65-2.44,9.77-2.55,14.62-3.92,10.33-2.91,13.54,0,12.3,10.76C373.11,981.16,373.11,981.16,385.28,981.14Zm-3.54,7c-14.81.26-29.66,9-31.84,18.3-1,4.06,0,6.47,3.9,6.33,12.18-.45,24.35-1.7,33.1-11.64,2.44-2.77,7.34-5.43,5.67-9.64C390.69,986.73,384.82,990.1,381.74,988.11ZM362,967.48c-3.55,1.5-8.44,1.14-12.07,4.09-3.14,2.55-10.25-.2-9.78,6.94a80.82,80.82,0,0,0,2.25,13.25c.56,2.34,2.35,2.88,4.55,1.36a72.15,72.15,0,0,0,19.43-19.28c1.14-1.72,2-3.57.86-5.5S364.27,967.21,362,967.48Z"/><path d="M134.09,987.88c.1-1.69.93-3.84.19-5-5.85-9.26,4.84-10.08,7.66-14.75,1.37-2.25,4.07.08,5.38,2,3.87,5.76,9.37,9.82,15,13.55,4.2,2.79,8.35,4,11.7-2.52,3-5.89,7.86-10.87,12-16.2a4.25,4.25,0,0,1,4.41-1.85,4.1,4.1,0,0,1,3,4.62c-1.06,8.74,4.75,16.68,2.53,25.68-.9,3.66,1.25,6.51,6.07,5.38,6.22-1.45,5.65,2.32,3.44,5.57-2.42,3.57-4.89,8.63-10.37,7.16s-5.24-6.52-5.25-11.21-.5-9.55-.83-14.31c-.14-2-.17-4.32-2.63-4.72s-3.25,1.74-4.16,3.54c-6.35,12.48-16.8,15.22-28.78,4-2.15-2-4.49-5.3-7.92-3.56-3,1.53-1.3,5.15-1.63,7.82-.57,4.49-.55,9.05-1.21,13.52-.35,2.29-2,4.33-4.69,3.95s-3.48-2.13-3.35-4.91c.27-5.9.08-11.82.08-17.74Z"/><path d="M88.64,961.85a4.16,4.16,0,0,1,3.75,4c.19,4,3.14,6.58,4.37,10,2,5.61,5.26,9.26,12.07,7.63,2.09-.5,5-.46,5.66,2.33.69,3-2.19,2.46-3.93,3-5.68,1.87-6.83,4.62-1.79,8.8,1.93,1.6,3.31,3.88,5.27,5.43,2.43,1.92,3.55,3.65.86,6.11-2.87,2.63-5.5,2.58-7.79-.75-1.6-2.31-3.09-4.7-4.78-7-6.93-9.17-17.59-9-24.46.36-1.9,2.59-3,7-7.32,5.16-4-1.73-1.75-5.39-.83-8.18C73.57,987.17,77.8,975.66,84,965,85,963.25,86.32,961.76,88.64,961.85Z"/><path d="M456.58,1001.53c-1.48-3.83-2-8.92-6.55-10.72-4.92-1.95-10,0-14.32,2.62s-8.13,5.75-10.68,10.47c-1.1,2-3.37,5.58-6.59,3.74-3.42-2-1.71-5.29-.61-8.24,3.11-8.37,7.06-16.6,8.74-25.26,1.23-6.35,5.85-8.59,9.49-12.15,2.63-2.58,5.31-1,7.21,1.48,2.75,3.57,6.6,6.95,7.67,11,2.57,9.72,9.24,9.75,16.86,9,1.9-.19,4.95-2.44,5,1.68,0,2.41-1.94,4.08-4.74,3.61-8.5-1.42-9.74,1.78-5.66,8.64a14.91,14.91,0,0,1,1.31,4c.56,2.21,1.07,4.53-.5,6.47s-3,.49-4.47-.27C456.28,1006.4,454,1005.22,456.58,1001.53Zm-17.34-15.68c2.31-1.28,7.51.2,7.34-4.06-.11-2.58-3.76-6.09-7.22-6s-4.76,3.67-5.07,6.82S436.3,986.12,439.24,985.85Z"/><path d="M254.35,966.48c-5.69.38-11.27,1-16.49,3.36-1.25.56-3,1-2.79,2.67.3,2.13,2.47,2.32,4,2.09,4.45-.64,8.85-1.63,13.27-2.49,2-.39,4.54-2.57,5.69.79,1,3.05-1.38,4.81-3.81,5.64-4.25,1.45-8.64,2.5-13,3.59-3.15.79-6.2,1.56-5.9,5.78.31,4.54.47,9.48,4.9,12,3.47,1.94,6.11-1.4,9-2.94,3.09-1.63,4-9.62,8.24-5.27,3.25,3.35-2.67,7.69-5.06,11.26-1.2,1.8-3.33,3-5,4.49-6.35,5.81-13.63,4.67-16.86-3.31-3.77-9.31-4.7-19.38-6-29.26-.54-4.25,9.49-14,14-14.67,5-.73,10-1.6,15-2.35,4.14-.62,9.54-2.05,9.67,4.2C263.41,967.69,258.17,966.62,254.35,966.48Z"/><path d="M816.18,968a60.78,60.78,0,0,1,28.61-9c5.54-.27,11.2.3,16.83-.06,3.29-.22,6.7.9,6.4,4.89s-3.92,3.36-6.64,2.81c-13.5-2.76-26.15-.68-38.5,5.42-3.16,1.56-5.71,2.42-5,6.3.68,3.61,3.23,2.85,6.23,3.33a73.59,73.59,0,0,0,37.21-3.17c1.25-.45,2.95-.64,3.59,1.09s-.79,2.52-2.12,3c-11.49,4.08-22.16,12-35.48,7.67-2.37-.77-5.61-2.07-6,1.84s-.54,8.62,3.12,11.48c1.22,1,5.46-1.65,4.59,2.14-.53,2.27-2.64,5.85-6.5,5.56-2.91-.22-5.11-2.32-5-4.91.32-5.85-2.25-11-3.1-16.55a141.66,141.66,0,0,0-3.75-18.9c-1-3.34-1.71-7.17,1.12-8.3C816.6,960.79,814.65,966.92,816.18,968Z"/><path d="M547.4,984.89c-3,6.32-.92,10.89,1.7,15.21,1.47,2.43,2.25,4.62.35,7a3.25,3.25,0,0,1-3.74,1.33c-2.8-1.06-3.32-3.52-3.74-6.13-1.52-9.46-3.28-18.88-4.67-28.36-.55-3.73-3-5.12-5.91-6.47-2.69-1.25-4.19-3.51-2-6.06s5-3.67,7.88-.41c3.55,4.07,4.09,9.2,5.06,14.14.65,3.27,2.25,6.67,5,3,4.95-6.56,13.34-8.49,18.06-15.06,1.64-2.28,4.68-4.75,6.9-1.89,1.75,2.26.63,6-2.08,8.17-3.3,2.65-6.67,5.22-10.12,7.67-1.88,1.34-4.06,2.39-3.19,5.24.78,2.58,3.19,3.21,5.36,3.57,6.4,1,12.84,1.81,19.27,2.71,1.65.24,3.79.3,4,2.33s-2,2.62-3.51,3c-7.16,1.67-14.32,2.57-21.79,1.63C553.88,994.66,551,989.87,547.4,984.89Z"/><path d="M14.62,971.08c-.16-8.94,4.63-16.45,10.45-17.45,5.33-.91,18.78,6.23,20.88,11.15A5.28,5.28,0,0,1,44.67,971c-2.25,2.23-4.13.59-6-.69a5.55,5.55,0,0,1-1.62-1.91c-2.52-4.81-6.72-6.6-11.31-4.33-5.17,2.54-6.16,8.51-5.12,13.15a38.22,38.22,0,0,0,7.54,15.16c9,11.1,24,9.84,32-2.11.93-1.4,1.74-2.9,2.77-4.23.87-1.13,2.09-2.16,3.58-1.23,1.32.83,1.39,2.16,1,3.71-4.59,15.9-24.68,24.29-38.32,14.91C17.88,995.69,15.31,983,14.62,971.08Z"/><path d="M681.29,991.39c1-23.72.18-22-22.57-19a122,122,0,0,1-15.18.81c-2.12,0-4.9,0-5.26-3.1-.39-3.39,2.28-4.43,4.79-4.84,7.78-1.28,15.57-2.59,23.42-3.3,10.57-1,21.2-1.39,31.81-2,1.8-.1,3.44.42,3.86,2.48.49,2.42-1.34,3-3,3-10.65.09-13.14,6.06-12.63,15.63.3,5.51-1.23,11.13-.55,16.82.57,4.85-2.12,12.36,7.8,8,.45-.2,2,.72,2,1-.19,1.34-.3,3.17-1.19,3.84-2.45,1.85-5.56,4-8.48,2.55a8.37,8.37,0,0,1-4.75-7.47C681.28,1001,681.29,996.18,681.29,991.39Z"/><path d="M479.64,984.39c1.06-5.73.72-11.6,3.88-17.09,2.7-4.7,5.81-5.84,10.36-4.16,5.12,1.88,4.85,6.77,4.54,10.72-.3,3.78-2.55,2.38-4.53.49-3-2.91-5.24-1.36-6.18,2-1.93,6.81-1.8,13.29,3.65,18.82,5,5.08,10.66,6,16.94,3,7.2-3.35,16.09-3.66,20.86-11.48a2,2,0,0,1,3-.52c1.47,1,.93,2.36.3,3.71-3.83,8.18-26.07,20-35.12,18.45C486.82,1006.54,480.86,994.66,479.64,984.39Z"/><path d="M990.81,1015.47c-12.06.19-17.17-5.19-17.82-17.34-.44-8.3-1.16-16.69-3.94-24.64-.68-1.94-.66-3.27,1-4.33,1.4-.88,2.86-2.18,4.63-1.37,2.07,1,.92,2.87,1,4.47.47,7.82,1,15.64,1.74,23.43a10.44,10.44,0,0,0,9.32,9.65,56.33,56.33,0,0,0,24.23-2.43c4.16-1.39,5.6-5.15,7.55-8.52.84-1.45,2.06-3,4.07-2.07,2.28,1,1,2.82.66,4.37-2.32,10.33-12,17-27.4,18.75A45.28,45.28,0,0,1,990.81,1015.47Z"/><path d="M919.16,971.72c-.15-4,.75-6.45,3.82-6.68,4.48-.35,2.53,3.09,2.75,5.31.88,8.65,1.94,17.28,2.78,25.93.49,5,3,8.15,8.12,7.52,8.77-1.06,18.12-.9,24.4-8.94,1.12-1.44,2.69-2.45,4.29-1s.13,3.17-.79,4.4c-7.15,9.54-16.73,14.57-28.63,15-5.62.19-8.52-3.22-10.36-8.19C921.42,993.92,924.09,981.56,919.16,971.72Z"/><path d="M718.07,988.47c.23-2.6,1.49-6.38-.13-10.38-1-2.56,1.19-3.17,3.32-3.6,7.59-1.55,24.39,6.91,27.23,13.84,3.42,8.32-3.86,11.57-8.13,15.65-4.7,4.51-10.5,2.82-15.47-.41S718.23,995.4,718.07,988.47Zm5.7-.11c.45,3.61,1.13,7.71,5.8,8.66s10.35,1.47,13.09-3-3.5-5.38-5.35-8.15c-.71-1.07-2.31-1.53-3.41-2.38-1.9-1.47-3.3-4.39-6.31-2.88C724.74,982,725.25,985.45,723.77,988.36Z"/><path d="M895.08,1008.81c2,.05,4.81-3.94,6.06.21,1,3.17-2.31,5.11-4.78,6.09-2.65,1-5.42-.22-5.34-3.48.27-10.82-2.45-21.06-5.18-31.37-1-3.83-1.47-7.72-4.15-10.9-1.88-2.24-2.27-4.86.4-6.61,3.3-2.15,5,.87,5.51,3.1C891,979.73,895.44,993.46,895.08,1008.81Z"/><path d="M588.47,1988c-14.45,11.78-51,8-62.76-6.29-2.41-2.93-3.82-6.11-.54-8.54,4.07-3,4.46,1.87,6.08,3.87,4.27,5.27,22.54,10.27,29.32,7.84,1.42-.51,3.38-1.65,3.66-2.83.7-3-2.16-3.33-4.21-4.36-11.16-5.63-19.93-13.7-25.44-25.13-2.67-5.55-3.28-11.32,1.12-15.62,4.78-4.68,11.1-7.24,18.13-5,2.87.93,5.8,3,5.57,6.17-.27,3.79-3.95,3.52-6.89,3.89-10.84,1.37-13.15,5.22-6.49,13.88,10.26,13.33,24.41,21.81,40.63,26,5.43,1.4,5.69-4.39,3.73-7.05-6-8.12,1.14-17.1-2.45-25.19a3.94,3.94,0,0,1,.79-3.66c3.93-2.93,10-2.57,12.32-8,2.72,1.77,6.21,3,8,5.41,6.75,9.14,14.85,14.92,27.15,11.64-.45,2.4-.37,3.17-.71,3.58-2.7,3.13-10.55-.82-9.9,5.4.73,6.88,6.3,12,11.69,16.31,2.41,1.94,6.67,2.32,4.68,7.06-1,2.36-1.28,5.42-4.46,6-3,.53-5-1.1-6.43-3.6-2.88-5.17-5.57-10.44-8.65-15.48-2.61-4.27-5.92-8.78-11.53-7.72s-8.83,5.26-8.85,11.39a18.52,18.52,0,0,1-.71,5.86c-1.2,3.52-.25,8.42-4.83,10C591.62,1995.49,591.66,1989.25,588.47,1988Z"/><path d="M65,1960.36c0,2.63-2.12,3.23-3.83,4.08-9,4.44-10.17,9.86-3.92,18,1.4,1.82,3.34,3.25,4.61,5.15a8.26,8.26,0,0,1,.4,8.5,3,3,0,0,1-4.12,1.65c-2.61-1.24-5.92-2-5.94-5.8,0-4.53-3.09-8-4.11-12.1-1.35-5.51-3.91-10.79-10.18-10.21-6.6.62-13.85,1.64-18,8.11-2.3,3.58-3.76,7.69-6,11.31-2,3.27-5,5.7-9.09,3.55C1.5,1990.88-.7,1988.3.2,1983.8a325.16,325.16,0,0,1,15.09-52.08c.78-2,1.55-3.67,3.88-3.67,2.75,0,3.09,1.93,2.75,4.1s-.42,4.88,1.7,5c9.84.82,11.36,9.57,15.44,15.71,4.55,6.86,10.52,8.2,18,6.21C59.79,1958.38,62.82,1957.17,65,1960.36Zm-45.65-17.69c-3,5.47-5.55,10.59-4.73,16.61.16,1.18,2.41,1.75,3.25.72,3.8-4.67,5.91-9.85,3.39-15.92C21.13,1943.84,20.75,1943.71,19.32,1942.67Z"/><path d="M507.74,1972.61c-.3,5,1,8.54-1.95,10.42-3.51,2.23-5.9-1.1-8.73-2.57-10.8-5.62-22.19-10.1-32.3-17-1.6-1.1-3.53-2.73-5.36-1.45s-1,3.58-.71,5.55c.71,5.21,1.8,10.45,1.78,15.67,0,2.87.6,7.5-3.74,8.08-3.78.5-5.59-2.74-6.42-6.22-1.36-5.67-3.22-11.28-4-17a24.15,24.15,0,0,0-3.32-10.19c-4.53-7-1-11.86,3.85-16.19,5.13-4.6,8.06.61,11.66,3.14q15.84,11.15,31.91,21.94a4.21,4.21,0,0,0,3.55.36c2-1,2.31-3,1.84-5.1-1.43-6.38-2.72-12.79-4.3-19.13-.88-3.51-1.41-7.06,3-7.9,4.77-.92,5.11,3.17,5.33,6.45C500.62,1953,505.09,1963.64,507.74,1972.61Z"/><path d="M180.56,1931.8c13.9,1.24,23.53,2.67,30.53,9.8,5.74,5.85,5.87,22.94,1.1,31.09-3.32,5.67-7.08,11-12.36,15.18s-11.66,8.55-17.9,5.46c-7.14-3.55-13.4-9.59-13.42-19,0-11-3.94-20.64-10.36-29.13-3.45-4.56-2.16-9.25,1.77-8.91C168.84,1937.08,176.23,1931.16,180.56,1931.8Zm6.45,10.91c-12.16-.41-15.71,3.48-13,13.73,2,7.62,4.7,15,6.8,22.64,1.4,5,4.37,5.31,8.22,3.26,9.86-5.28,15.75-13.78,18.47-24.37,1.86-7.27-2.73-11.17-8.9-13.13C194.53,1943.56,190.19,1943.26,187,1942.71Z"/><path d="M944.09,1948.52c1.47-3.4,2.43-6.19,3.84-8.73,2.25-4.09,6.29-5.4,8.33-1,8.07,17.67,22.52,13.16,36.35,11.36,2.95-.38,7.11-3.43,8.1,1.59.84,4.27-3.55,3.25-6.29,3.94-3.75.94-6.48,4.41-10.75,4.6-2.79.13-5.26,1.42-4.87,4.91.31,2.85,2.62,3.71,5,3.87,2.9.19,6.39-.82,6.08,4-.23,3.69-.62,7.61-4.76,9s-5.85-1.89-7.61-4.73c-6.1-9.84-12.76-16.69-26.39-12.18-7.26,2.41-10,6.47-12,12.62-1.83,5.4-3.28,14.2-10.12,11.89-7.23-2.44-1.35-9.3.16-14.37,2.7-9.11,5-18.33,7.25-27.58.8-3.31-1-9,3.34-9.14C946.2,1938.35,940.06,1945.28,944.09,1948.52Z"/><path d="M75.07,1957.3c.62-4-1.61-8.89,3.56-11.39,4.76-2.31,7.17,1.92,10.31,3.95q16.05,10.4,32,20.93c2.92,1.93,6.17,3.23,9.14,1.15,2.67-1.86.6-5,.22-7.38-.93-5.83-2.36-11.59-3.7-17.34-1-4.13-.85-8,2.91-10.63,2.13-1.48,4.52-.74,6.38.9,3.47,3.06,2.66,6.41.22,9.62-2.72,3.56-.64,6.77.31,10.22,2.33,8.47,4.47,17,6.52,25.54.65,2.72,0,5.35-2.69,6.82s-5.22.25-7.34-1.35c-11.36-8.57-25.08-12.92-36.85-20.75-1.86-1.24-4-3-6.2-.87-1.7,1.59-.67,3.63-.43,5.58a51.05,51.05,0,0,1,.53,9.79c-.18,2.47-.41,5.49-3.86,6.11a5.05,5.05,0,0,1-6-5.09C80.31,1974.05,73.59,1966.47,75.07,1957.3Z"/><path d="M847.31,1967.77c-1,8,1.5,14.16-2.45,19.44-1.43,1.92-3,3.88-5.59,3.36-2.86-.58-2.67-3.13-2.9-5.52-1.24-12.76-1.07-25.66-3.93-38.24-.89-3.94,1.48-5.63,4.7-6s6.36.1,8.41-3.67c1.84-3.37,3.45-.76,5.11,1,9.54,9.93,19.2,19.75,28.8,29.63.45.46.55,1.43,1,1.64,6.11,2.64,9.77,12.64,16.59,9.74,6.34-2.69.61-10.61.81-16.21.25-6.9-.06-13.82,0-20.74,0-2.24,1.08-3.81,3.55-3.8,2,0,3.31,1.11,2.8,3.06-3.48,13.23,2.68,26.06,1.46,39.24-.85,9-4.64,11.31-12.46,6.25-11.13-7.21-20.28-16.81-30.05-25.62-4-3.65-8.23-10.12-12.89-8.49s-2.71,9.24-2.94,14.34C847.27,1968.12,847.31,1969.11,847.31,1967.77Z"/><path d="M380.27,1947.27c6.65,2.73,13.33-.15,19.68,1.49,2.19.56,5.93-2.18,6.27,2s-3.69,4.29-6.53,4.09a27.79,27.79,0,0,0-14.23,3c-2.82,1.33-4.55,2.81-3.33,6,2.25,5.85,4.29,11.82,7.11,17.39,2.46,4.88,5.79,3,8.62-.11,1.81-1.95,3.84-2.76,6-.85s1.35,4,.21,6.23c-5.67,11.26-13.39,12.18-20.9,1.78-7.88-10.91-9.59-24.19-12.61-36.89-.52-2.19-.13-4.71-1-6.68-4.07-9-3.13-11.31,6.7-12.16,11.5-1,23.08-1.2,34.62-1.82,3.9-.22,7.92,0,8.05,4.88.11,4.51-4,4.53-7.32,4.69-9.21.44-18.41.91-27.42,3.09C382.63,1943.72,381,1944.14,380.27,1947.27Z"/><path d="M333,1995.83c-12.42.23-21.39-3.82-29.8-9.26-3.26-2.11-7.34-5-3.21-9.42,3.59-3.83,5.58-.14,7.42,2.7,1.61,2.47,4.46,3.08,6.92,3.38,3.92.48,9.13,5,11.6,0,2.36-4.74-4.67-5-6.87-7.93-4.82-6.32-10.61-11.81-11.77-20.52-2.3-17.28,11.07-28.64,27.91-23.27,2,.64,4.09,1.16,3.88,3.57s-2.55,2.66-4.57,2.68c-8.09.07-14.88,4-17.27,11-2.7,8,1.74,14.94,7.95,20.78,3.36,3.16,6.14,7.41,10.45,8.83,6.58,2.19,9.34,5.88,7.55,12.52C341.3,1997.76,335.5,1995.55,333,1995.83Z"/><path d="M800.81,1982.29c-10.94.37-22.09,3.37-31.87-5.08-7.41-6.39-7.76-27.54.28-32.74a9.24,9.24,0,0,1,6.57-1.25c13.28,3.51,26.53,7.32,37.43,16.26,4.57,3.75,10,8,8.12,14.64-2.07,7.3-9.81,6.52-15.62,8.11C804.19,1982.64,802.45,1982.29,800.81,1982.29Zm2.31-6.9a18.44,18.44,0,0,1,3-.17c3.38.31,7.1.57,8.64-3,1.92-4.49-3-5.11-5.15-7.16-8.79-8.5-20.27-10.1-31.64-11.81-3.48-.52-5.37,1.48-6.52,4.68-2.78,7.72,1,14,10.11,15.38C788.66,1974.38,795.91,1974.72,803.12,1975.39Z"/><path d="M1020.58,1947.42c.54,33,6.19,34.45,37.38,36.77,7.4.55,16.26,1.24,19-9.74.84-3.37,4.9-2,6.17.43,2,3.9,2.62,8.15-1.67,11.52-13.4,10.54-39.19,11.14-53.49,1.46-12.34-8.36-12.62-21.47-13.89-34.18a120.44,120.44,0,0,1-.31-14.72c.07-3-1-7.74,3.81-7.55s3.34,4.85,3.44,7.91S1020.71,1945.25,1020.58,1947.42Z"/><path d="M708.69,1935.32c-6.27,2.93-6.82,7-6,12.84,1.28,9.12,1.3,18.43,1.59,27.66.11,3.47.37,6.65,3.6,8.65,3.75,2.34,4.26,4.86.52,7.62-3.56,2.63-7,2.14-9.45-1.39-2.16-3.09-2.09-6.87-1.81-10.55.81-10.57-2-20.8-3.09-31.19-.8-7.49-4.74-9.46-12.39-8.11-9.47,1.66-17.69,7.66-27.47,7.39-3.42-.1-9.06,2.66-9.56-3.57-.43-5.33,4.41-5,8.44-5.82,12.52-2.67,25.15-4.43,37.79-6.34C697.1,1931.57,702.08,1935.77,708.69,1935.32Z"/><path d="M720.67,1942.59c.26-3.93-.35-6.77,2.87-7.16s4.69,2.25,5.29,4.86c2.56,11.15,5.17,22.31,7.21,33.56.67,3.71,1.77,6.23,5.47,7.15,2,.5,5.8-1,5.36,2.3-.49,3.66-4.62,5.3-7.7,7-2.39,1.3-4.45-.33-5.66-2.55-3.38-6.17-4.39-12.94-5.42-19.82C726.7,1958.67,724.65,1949.5,720.67,1942.59Z"/><path d="M512.64,1815.92c1,6.35-5.05,8.35-8.37,12.1-2.8,3.16-4.66,5,.75,7.94,4.77,2.63,9.93,5,13.9,9.26,2.55,2.76,6.35.23,9.55-.15,1.39-.16,2.86-1,3.71.48,1,1.8-.28,2.86-1.62,4.13-5.81,5.49-14.77,5.12-20.45-1.18-5.25-5.82-12.36-8.59-19.2-11.69-4.27-1.94-6.86-.16-7.51,4.71-.51,3.86-1.62,7.63-2.42,11.46-.38,1.85-1.28,3.28-3.3,3-2.23-.34-2.31-2.3-2-4,2.13-10.87-2.79-20-7-29.35-.91-2-3.13-3.73-1.1-5.91,1-1.1,3-2.13,4.35-1.94,2.32.34,2,3,2.65,4.76.86,2.26.1,5.92,3.07,6.36,3.2.48,5.74-2.14,7.39-4.78A29.3,29.3,0,0,1,503.69,1808C510.55,1806.28,513.08,1808.57,512.64,1815.92Zm-5-3.22c-6.71.25-11.22,4-15.86,7.47a2.89,2.89,0,0,0-1.17,3.69,2.54,2.54,0,0,0,3.5,1.41C499.62,1822.51,506.43,1821.05,507.62,1812.7Z"/><path d="M1018.65,1864.26c-15-.38-19.57-4.64-22.43-17.52s.27-25,4.52-36.94c1.16-3.23,4.61-5.71,8.28-6.5,3-.64,6.73-.88,7.59,3.15.76,3.6-2.47,3.38-4.94,4-8.46,2.2-9.11,10.07-10.77,16.56-1.82,7.12-.36,14.55.36,21.82.19,1.93.42,4.17,3,4.43,2,.2,2.81-1.44,3.64-3a91.23,91.23,0,0,1,12.46-17.85c6.76-7.48,14.77-9.14,22-3.51,5.58,4.35,5.38,13.32-.25,20.78C1035.66,1858.26,1026.88,1862.43,1018.65,1864.26Zm15.31-29.53c-9.08,2.25-13.84,8.92-17.81,16.43-1.3,2.45-1.4,4.8.85,6.8s4.45.7,6.17-.42c5.57-3.62,11.64-6.71,15.48-12.48,1.44-2.17,5.42-4,3.27-6.79C1040.39,1836.25,1036.7,1835.86,1034,1834.73Z"/><path d="M210.22,1825.8c-2.75-4.44,1.27-10.17-3-14.43-1.2-1.19-.21-2.61,1-3.53,2.42-1.86,4.79-.92,7.12.21,1.3.63,3,1.89,1.91,3.1-6.25,6.77-1.62,14.47-2.13,21.69-.31,4.44.93,9.75-4.11,11.86-4.81,2-8.5-1.88-11.78-4.85-4.14-3.73-7.91-7.87-11.77-11.9-4.31-4.51-6.69-3-7.78,2.45-1.17,5.77-2,11.62-4.65,17-1.36,2.77-2.3,6.16-6.29,5.74-3.43-.37-5.49-2.89-6.43-6-2.83-9.31-5.73-18.62-8-28.07-.86-3.59-1.44-7.1-3.71-10.11-1.29-1.72-1.93-3.5-.06-5.23,1.23-1.13,2.46-2.63,4.32-2.19,2.3.54,2.7,2.59,2.9,4.62a126.11,126.11,0,0,0,7.46,31c.73,2,.48,5,3.56,4.8s4.1-2.66,4.5-5.33c.88-5.81,1.67-11.63,2.56-17.43.45-3,.09-6.61,3.68-7.83,3.4-1.16,3.57,2.91,5.55,4.16,6.45,4.08,7.72,13.2,15.67,15.91,2.42.83,3.45,5.62,6.71,3.64S209.36,1829,210.22,1825.8Z"/><path d="M583.93,1817.93c-2.14,11.71,1.41,21.74,8.63,31,3,3.8,6.31,4.62,10.29,3.22,5-1.75,3.34-6,2.46-9.33-1.13-4.35-1.47-8.78-2.2-13.16-1.06-6.41.23-10.33,6.9-11.9,9.78-2.3,17.34-.17,19.37,6.55,1.8,5.92,2.6,12.13-2.57,17.39-3.34,3.39-6.22,7.18-6.58,12.31-.17,2.36-1.6,5.5-3.73,4.76-7.11-2.45-14.28,2.24-21-.51-7.93-3.24-11.61-10.61-14.09-18-2.37-7.1-3.33-14.69-4.73-22.09-.46-2.43-.91-5.16,1.88-6.75a3.34,3.34,0,0,1,4,.29C584.39,1813.31,584.36,1815.61,583.93,1817.93Zm34.22,7.64c-7.85-.25-8.31,5.7-8.28,10.86,0,3-.62,7.91,4.11,8.8,3.72.69,12.13-9.51,11.7-13.79C625.23,1827,622.16,1825.53,618.15,1825.57Z"/><path d="M691.67,1820.05c-1.28,7.72,3.05,14.74,3,22.36a5,5,0,0,0,3.17,4.64c2.26.9,4.32,1.8,2.83,4.81-1,2-1.73,4.41-4.61,4.2a5.52,5.52,0,0,1-5.26-4.7c-1.6-8.52-3.44-17-4.25-25.65-.72-7.63-2.46-9.6-9.57-7.26-6.55,2.16-13.37,1.4-20,2.47s-9.62,4.54-7.49,11.08c1.5,4.59.35,9.86,5,13.81,2.86,2.42.4,7.15-2.2,8.58-3.69,2-2.88-2.13-3.83-4.2-5.48-11.87-4.14-25.86-11.8-37.07-1.52-2.22-.49-5.17,2.24-6.37s5.27.11,5.68,3.08c1,7.12,5.4,6.65,10.45,5.17,6.76-2,13.89-.77,20.76-2.64,3.72-1,6.68-1.29,5.85-6-.47-2.65.45-4.73,3-5.21,3.41-.64,2.64,2.9,3.69,4.57C691,1810.07,692.61,1814.76,691.67,1820.05Z"/><path d="M816.79,1847.85c-3-12.07-3.35-24.78-9.25-36.1-1.71-3.26,1-6,3.72-7.61,2.24-1.36,4.2-.94,6.59,1.16,10.47,9.24,20.56,19.07,33.42,25.17a22.65,22.65,0,0,1,3.68,2c2.33,1.69,3.88,6.5,7.14,4.19,3-2.11.19-6.36-.92-8.94-3.42-8-3.44-17-7.94-24.56-1.39-2.36.15-3.8,2.33-4.23,2.59-.52,5.39,1,4.7,3.31-3.31,11.12,6.89,18.55,7.27,28.53,0,.27.26.52.29.79.54,3.78,2.7,8.72-.67,10.91-2.78,1.81-7.2-.28-10.95-1.88-10.54-4.52-19.25-11.81-28.72-17.94-1.64-1.06-3-2.75-5.22-1.49s-1.38,3.24-1,5.2c.82,4.39,1.64,8.8,2.07,13.24S822.17,1847.24,816.79,1847.85Zm-.24-24.19c5.17-6.1,6.29-10.77-3-12.74C813.76,1815.54,817.68,1818.76,816.55,1823.66Z"/><path d="M932.55,1820.54c-.95,5.71,1.41,11,2,16.53a44.54,44.54,0,0,1-.19,8.32c-.14,1.63-1.51,2.34-3.05,2.15a3.74,3.74,0,0,1-2-1.08c1.36-4.66-3.82-8-2.67-12.41,2.07-8-2.38-14.09-6.09-20.24-1.75-2.91-5.13-5.55-1.57-8.61,3.29-2.83,8.91-4.16,11.55-.78,10.34,13.26,27,17.58,38.87,28.45,1.29,1.18,3.6,2.91,5.25,1.44,1.94-1.72-.23-3.37-1.31-5-5.89-8.73-5.41-19-6.92-28.83-.32-2.08.42-3.29,2.6-3.22s4.7.73,4.12,3.07c-3,12,3.43,22.23,5.65,33.21,1.18,5.87-.89,6.44-5.69,5.14-11.42-3.1-21.42-9.19-31.58-14.93-2.92-1.65-5.41-4.16-9.18-3.07,2.24-6.79-.8-10.84-9.59-11.87C929.15,1810.3,926.93,1818.46,932.55,1820.54Z"/><path d="M251.45,1805.19a16.37,16.37,0,0,1,10.75,7.73c3.74,6.37,8.56,6.92,14.74,5,1.65-.5,4.21-2.16,4.79.9.47,2.51-2.41,2.63-4.1,3.34-8.52,3.59-8.69,3.77-1.79,9.52,2.65,2.21,3.1,4.47,2.59,7.36-.24,1.38-.89,2.89-2.47,3.05-3.33.32-3.57-3.06-5.23-4.74-3.28-3.33-3.26-11.09-10.06-9.51-7.23,1.69-13.61,5.54-15,14.1-.22,1.34-1.14,2.56-1.64,3.87-.79,2.09-1.29,4.86-4.39,3.65a4.33,4.33,0,0,1-2.52-5.62c3.68-11.15,4.75-22.65,5.46-34.3C242.81,1805.52,247.4,1805.64,251.45,1805.19Z"/><path d="M794.22,1817.71c-.33,1.65-1.58,2.09-3,2.51-6.18,1.86-12.24,4.26-18.53,5.54-4.4.89-5.27,3.07-3.71,6.37,2.27,4.81,2.2,10.37,5.38,14.89,2.33,3.31,3.24,13.53,7.37.87.22-.67,1.89-1.35,2.78-1.23,1.74.25,1.93,1.95,1.69,3.31a10.37,10.37,0,0,1-9,8.88c-3.4.43-4.58-3.65-6.27-6.68-4.84-8.63-4.52-19.43-12.73-26.89-3.1-2.82-2.93-9.45-3.81-14.42-.49-2.75,2.19-2.78,4-3.16,12.62-2.62,25.35-4.79,37.53-9.19,2.21-.8,4.65-.89,6,1.54,1.84,3.38-1.65,3.33-3.2,4.53-8.33,6.44-18.85,5.9-28.25,8.92-2.68.85-7.81-1-7.49,3.13.34,4.51,5.32,2.55,8.46,2.72,6.29.33,12-2.38,18.11-3.31C791.42,1815.76,793.58,1814.68,794.22,1817.71Z"/><path d="M449.09,1824.68a46.08,46.08,0,0,1-23.16,8.73c-5.4.59-7,2.65-5,7.73,1.81,4.66,1.72,9.92,5.06,14.15,2.17,2.73,1.68,7-.88,8.24-3.94,2-4.35-2.91-4.87-5-3.55-14.34-6.69-28.79-9.9-43.22-.65-2.93.77-6,3.52-5.37,11.28,2.63,21.52-3.49,32.49-3.26,3.34.08,6.28-1.14,6.52,3.61.23,4.39-2.67,5.17-6.11,4.86-8.66-.78-16.29,3.78-24.65,4.68-2.23.24-5.55,1-4.81,4.54.57,2.7,3,2.32,5.37,2.64C431.7,1828.23,440.22,1825.39,449.09,1824.68Z"/><path d="M67.67,1797.27c2.86.9,7-.79,8.13,2.83a7.67,7.67,0,0,1-2.92,8.27c-3.5,2.55-3.95,5.59-2.82,9.61,2.27,8.12.36,16.87,3.54,24.91.78,2,.64,4-1.76,4.89s-4.54.27-5.49-2.26a34,34,0,0,1-1.95-7.26c-.38-2.76-.2-5.6-.34-8.41-1.1-22.51-1.11-22.58-23.77-22-3.79.09-6.1-.95-6.32-4.84-.26-4.62,3.47-3.51,6-3.72C49.2,1798.51,58.54,1799.18,67.67,1797.27Z"/><path d="M312.85,1853.61c-8.58-.13-19.37-7.39-22.05-14.39-.54-1.4-.78-3,.68-3.71s2.62.3,3.33,1.65c4.43,8.41,12.63,8.12,20.4,8.85,2.7.25,5-.44,6.59-2.81,1.83-2.79-.05-4.67-1.65-6.69-5.5-7-12.1-13.18-15.64-21.58-2.17-5.15-3.25-10,2.1-14.35,2.31-1.9,4.13-3.08,6.47-1.22a4.27,4.27,0,0,1,.31,6.7c-6.33,4.76-2.84,8.63.55,12.58,4.53,5.27,8.05,11.27,13.54,15.89,6.15,5.19,1.89,15.79-7,18.07A55.13,55.13,0,0,1,312.85,1853.61Z"/><path d="M728.47,1826.38c-.09-.84-.21-1.67-.26-2.51-.91-13.47-.9-13.47-14.24-11.82a25.84,25.84,0,0,1-4.15.51c-3.52-.14-4.89-2.63-5-5.63s2.36-3.06,4.71-3.34c8.88-1,17.74-2.33,26.61-3.46,3.31-.43,7.28-1.39,8.46,3,1.25,4.66-1.84,6.52-6.06,6.95-3.63.38-5.42,2.08-5.23,6.07.45,9.46,0,19,2.3,28.27.26,1,.24,2.48.92,3.07,2.24,1.93,5.09,4.07,1,6.25-3.44,1.82-5.07-1.88-5.94-4.29A55.74,55.74,0,0,1,728.47,1826.38Z"/><path d="M18.37,1830.92c.6-9.87-2.15-19.31-3.56-28.92a37.54,37.54,0,0,1-.88-5.79c0-1.88.09-4.3,2.58-4.68,2.9-.44,2.51,2.26,3.21,4,3.61,8.72,2,18.25,4.3,27.17a90.28,90.28,0,0,1,2.66,13c.27,2.58.27,6.94-3.13,6.61-2.48-.24-7.44-1.88-5.49-7.22C18.52,1833.83,18.29,1832.31,18.37,1830.92Z"/><path d="M884.33,1807.66c.09-2.82,1.07-4.44,3.33-4.81,3.46-.57,3.15,2.05,3.58,4.27q3,15.56,6.21,31.07c.49,2.38.51,5.12,3.55,6.16,2,.67,2.65,2.27,1.56,4a6.63,6.63,0,0,1-5.58,3.23c-2,0-2.55-1.7-2.87-3.49-1.74-9.86-4-19.66-5.11-29.59C888.51,1813.92,884,1811.58,884.33,1807.66Z"/><path d="M561,1850.42c.11,2.24-.66,3.76-2.6,4-2.26.3-3.72-1.12-4.4-3.16-2.11-6.32-4.89-12.56-6-19.06-.84-5.12-2.78-9.62-4.63-14.25-1.07-2.68-3-5.74.88-7s4.15,2.76,4.92,5.26c2.61,8.57,5.45,17.11,7.4,25.84C557.36,1845.57,561.87,1846.72,561,1850.42Z"/><path d="M507.5,177c13.7-.68,14.89.71,12.29,14-1.55,7.9-5.09,14.52-12.2,18.62-5.34,3.08-5.17,5.88-.44,9.32,2.47,1.8,4.59,4.07,7,6,9.86,7.9,18,7.85,28.22-.09,2.25-1.74,4.8-3.11,7.32-1,3.25,2.7.15,4.79-1.27,6.79-9.92,14.06-26.18,16.06-41.17,4.9-7.28-5.42-14-11.59-21.41-16.8-11.24-7.92-15.58-6.13-18.86,6.92-.56,2.25-1.31,4.44-1.95,6.67-1.06,3.7-3,6.51-7.33,5.59s-7.37-4-6-8.3c3.55-10.89-1.49-20.4-4.19-30.21-.86-3.12-.35-6.09-1-9.05-1.23-5.76,3.77-6.49,7-7.27,4.84-1.18,5.39,3,5.58,6.61.26,4.81-2.59,11.94,2.08,13.75,5.72,2.21,6.51-6,9.71-9.39C481,183.45,492.94,177.56,507.5,177Zm-16.37,26.81c8.33-.51,13.28-5.69,17.7-11.6,1.27-1.69,1.47-4.11-.53-5-6.28-2.69-11.74,1-17.37,3A12.69,12.69,0,0,0,488,192c-2.65,1.87-7.84,2.26-7,6.38C482.05,203.14,487.32,203,491.13,203.79Z"/><path d="M796.91,176.11c5.06.27,10,.5,14.78,2.46,6.51,2.68,11.85,5.5,7.72,14.39-2.93,6.29-.71,9.63,7.09,10.21,4.18.31,11.42.11,12.11,6.22.65,5.71.25,11.76-5.61,16.54-6.89,5.62-13.73,11.09-21.66,15.09-6.68,3.36-13.51,3.29-19.64-1-4.52-3.12-6.73-12.36-14.28-2.21-2.54,3.41-6.36-2.24-6.93-6.12-1.34-9.09-1.92-18.3-3.4-27.36-3.4-20.83-3.58-20.94,17.28-27.09C788.32,176.12,792.72,176.46,796.91,176.11Zm1.41,11c-1.43.34-3.28.87-5.16,1.22-14.81,2.76-18.34,7.89-15.59,22.62.93,5,3.76,4.18,6.53,2,6.6-5.23,13.07-10.63,19.46-16.13,2-1.71,4.17-3.92,2.32-6.9C804.32,187.41,801.59,186.94,798.32,187.13Zm17.11,25.74c-6.3,2-15.49,2.09-21.48,9.83-1.47,1.9-2.69,3.86-1.55,6.26,1.26,2.67,3.83,4.44,6.48,3.69,8.48-2.38,16.51-5.9,22.62-12.61,1.57-1.73,2.71-4,1.27-6.25C821.58,212,819.36,212.59,815.43,212.87Z"/><path d="M715.84,197.62c-4.08.42-5.31,3.71-7.19,5.92-12.08,14.24-12,14.3-27.84,6.18s-15.67-8.14-18.49,10.17c-.74,4.79-1.62,12.74-6.17,13.14-7,.61-6.35-8.13-7-12.55a61.41,61.41,0,0,0-4.81-16.89c-3.6-8,5.38-12.51,9.57-17.88,3.45-4.42,9-3.67,13.64-.63,3.21,2.07,6.22,4.46,9.49,6.42,17.23,10.35,17.25,10.32,31.85-4.68.27-.27.52-.57.81-.82,4.28-3.62,8.17-10.65,14.09-7.86,4.76,2.24,5.63,9.47,7,15.12,2.92,11.9.08,24.92,9.34,35.78,3.81,4.47-2.5,10.28-7.09,12.41-5.14,2.39-6.22-3.37-7.08-6.73-2.16-8.49-4.5-16.94-4.2-26C721.92,204.34,720.33,199.74,715.84,197.62Z"/><path d="M99.69,200.59c2.14-5.12-.31-7.89-1.53-11.1-2.26-6,1.45-10.25,6.29-11.67,6.23-1.83,4.89,4.46,5.47,7.64,1.24,6.86,4,10.12,11.71,8.55,6.71-1.37,13.84-.56,20.6-1.78s14.53-.75,17.19-10.43c1.25-4.56,6.25-7.92,9.33,0,.88,2.29,2.19,4.41,4.53,4.85,8.14,1.56,8.38,3,2.58,9.71-6.09,7.06-.81,15.91,3.47,22.89,1.61,2.63,4.35,4,2.29,7.56s-5,5.9-9.11,6.28-4.28-3.39-5.83-5.94c-3.64-6-2.7-12.69-3.58-19.1-1-7.42-4.17-11.26-12.4-8.24a114.86,114.86,0,0,1-29.18,6.33c-7.43.7-11,5.16-8.1,13,1.59,4.28,1.61,8.86,3.73,13.19,2.31,4.73-2.35,8.27-5.86,9.76S104,240,104.08,236.6A137.7,137.7,0,0,0,99.69,200.59Z"/><path d="M1022.87,192.43c7.59-15.12,10.94-16.33,26.29-13.24,11.54,2.33,19.06,10.64,25.11,18.79,5.83,7.86.77,17.51-5.61,24-8.42,8.54-19.27,14-30.13,18.93-7.46,3.39-14.77-5.14-23-.91-1.56.8-2.54-5.08-2.56-8-.07-12.91,2-26-4.79-38.17a6.34,6.34,0,0,1,2.87-9C1017.77,181.74,1019.18,188.37,1022.87,192.43Zm24.9-1.42c-11.87.15-21.56,10.32-21.77,23.62-.29,18.21-5.17,19.28,16.54,12.37,8.63-2.75,15-8.93,21.94-14.35,4.62-3.63,4.45-8.56.76-12C1060,195.78,1053.7,192,1047.77,191Z"/><path d="M619,202.75C608.34,206,597.84,210,587,212.48c-15,3.5-15,3-11,17.17.44,1.57-.49,3.53-.87,5.79,5.35-2,6.38-7.42,9.73-10.69,1.57-1.54,3.86-3.2,6.15-1.58s1.4,4.2.07,6.15c-2.83,4.13-5.24,8.84-8.94,12-5.24,4.47-10.24,5.36-14.84-2.49-7.74-13.19-9-28.31-14.28-42.19-2.4-6.34,0-10.35,6.85-11.7,16.49-3.23,32.93-6.66,49.42-9.87,1.81-.35,4.2-.49,5.6.41,3,1.91,8.88,1.22,8.4,6.33-.45,4.81-5.24,2.82-8.44,3.44-14.71,2.87-29.38,6-44,9.2-2.8.62-7.12.93-6.71,5,.52,5.23,4.77,2,7.36,2.08,15.55.72,31-.74,46.49-2.91C618.3,200,618.64,201.36,619,202.75Z"/><path d="M252.66,198.11c-9.18,10.31-20.71,10.8-30.49,14.7-6,2.41-12.34,4.34-7.2,12.93,3.9,6.52,8,9.89,13.46,1.5,1.81-2.76,4.06-5.29,7.37-2.28,2.7,2.46.74,4.91-1.15,6.95-4.48,4.82-6.73,12.81-15.89,11-8.37-1.69-13.24-7.17-16.08-14.73-1.36-3.61-2.51-7.16-5.29-10.08-3.36-3.53-3.62-8.68-.47-11.43,5.24-4.57,4.46-9.7,3-14.73-2.2-7.8,1.82-11,8.17-12.14,14.34-2.64,28.88-3.32,43.44-3.39,2.32,0,5-.06,5.44,2.88s-2,3.57-4.2,4.6c-10.29,4.85-22.14.12-32.58,5.91-4.47,2.48-8.78,4.13-7.86,9.46,1.28,7.47,7.11,3.12,11.16,3.26C232.67,202.8,240.87,196.67,252.66,198.11Z"/><path d="M382.61,177.52c13.81,0,27.62-.07,41.43,0,3.74,0,8.66-.45,7.95,5.48-.52,4.38-4.2,7.07-8.36,6.07-12.37-3-14.21,4.79-13.75,13.6.48,9.42.71,19.32,8.34,26.69,2.89,2.79,3.19,5.91,1.36,9.45-1.52,2.92-3.94,3.63-6.8,2.88-3.79-1-6.65-2.38-7.43-7.36-1.87-12-5.07-23.77-7-35.75-1.14-7-5.31-7.56-10.79-7-12.28,1.19-24.55,2.39-36.84,3.51-3.8.35-8.55,1.31-9.4-3.92-.73-4.49,3.48-6.9,7-8.09C359.38,179.32,371,179.2,382.61,177.52Z"/><path d="M37.49,245.92c-8.91-3.32-18.93-.67-26.16-8.47-3.38-3.64-4-7.17-3.16-11.52a4.68,4.68,0,0,1,4.71-4.2c2.38-.12,5,.15,4.9,3.31-.18,5.49,3.59,6.25,7.53,6.58,4.41.36,10.42,2.63,12.47-2.33,1.8-4.35-4.75-4.86-7.27-7.41-7.93-8-14.38-17.57-11.08-28.64s14.21-15.47,24.71-18.74c2.79-.86,6.8-2.31,7.24,2.37.32,3.42,1.42,7.94-3.21,10.11a9.21,9.21,0,0,1-2.27.36c-7,1.19-14.57,3-15.39,11.21-.94,9.38,6.89,15.62,13.83,17.88,9.15,3,14.93,5.56,12.16,16.24C53.87,242.83,45.45,244.05,37.49,245.92Z"/><path d="M921.53,205.53c1.46-6.32-.58-10.2-1.41-14.33-1.19-6,3.63-8,8-9.54,4.51-1.64,6.56,1.44,7,5.25.8,6.74,5.11,6.92,10.07,5.79,9.8-2.22,20.09-.06,29.78-3.43,2.13-.74,4.9-1.36,5.49,1.93.53,3-1.95,3.83-4.28,4.34-11.2,2.46-22.35,5.27-33.64,7.18-7.65,1.29-11.23,4.86-9.12,12.4,2.06,7.38,6.19,12.83,15,9.16,6-2.49,12.9-2.59,18.09-7.1,1.41-1.23,3.06-2.87,4.84-.71,1.46,1.77.42,3.65-.57,5.31-3.64,6.1-29,17.7-35.74,16.43-6-1.13-7.86-6.44-9.21-10.84C923.48,219.74,922.66,211.65,921.53,205.53Z"/><path d="M868.55,178.1c5.23-.06,4.52,4.19,4.92,7.39,1.45,11.39,1.08,22.86,2.74,34.35,1.78,12.38,7.39,10.53,15.67,8.5,3.17-.78,7.48-7.29,10.17-.79,2.78,6.73-3.41,7.51-8.25,9.41-21.3,8.38-25,6.25-28.09-17.7-1.42-10.9-2.26-21.88-4-32.73C860.83,180.67,863.63,178.9,868.55,178.1Z"/><path d="M973.68,204c6.54,0,13.08,0,19.62,0,2.25,0,5-.78,5.84,2.16.83,2.79-1.25,4.71-3.49,5.07-15.42,2.49-30.69,6.78-46.57,4.29-3.8-.59-5.31-3-4.79-6.54.61-4.1,3.4-5.76,7.4-5.74,7.33,0,14.66,0,22,0Z"/><path d="M787,350.35c9.14-.71,17.81,1.93,26.32,4.28,11.16,3.09,13,10.66,6,20.35-6.43,8.92-15.13,14.73-25,19-9,3.88-17.15,9.95-28,8.72-6.24-.71-8.65-3-9.74-9.3-2.1-12.14-2.59-24.92-10.41-35.41-1.75-2.34-3.31-4.69-.35-7.1,2.08-1.7,5.31-4.52,7.12-1.9,5.19,7.55,11.7,3.19,17.7,2.91C776.08,351.65,781.53,350.89,787,350.35Zm2.66,11.24c-3.73-.93-9.94,2.1-16.41,2.33-5.1.18-8.29,2.31-9.75,7.32-2,6.82.36,13.25,3.9,18.22a11,11,0,0,0,13.15,3.19c9-4.29,18-8.86,24.92-16,2.8-2.89,8.2-6,6.81-10.66-1.75-5.88-8.39-2.54-12.61-4.25C797.6,360.9,794.93,361.59,789.64,361.59Z"/><path d="M641,373.59c-.58.55-1.19,1.6-2,1.84-9.18,2.65-10.22,6.83-3.07,13.4a7.42,7.42,0,0,1,1.49,9.47c-1.32,2.45-3.17,3.59-5.85,3.12-4.2-.75-5-3.81-5.55-7.54-.64-4.35-1.51-10.24-7.32-9.39-8.06,1.17-18.3-.4-22.23,9.5a30.39,30.39,0,0,1-9.69,12.93,3.87,3.87,0,0,1-4.76.52c-1.68-1.1-1.49-2.69-.83-4.52,6.29-17.34,12.36-34.76,18.77-52.06a12.14,12.14,0,0,1,10-8.08c4.41-.41,2.31,5,4.26,7.07s4.42,4.31,5.39,7.43c2.58,8.26,5.94,15.47,16.92,13.23C638.15,370.16,640.79,370.23,641,373.59Zm-31.16-9.24c-3.9,1.49-4.66,4.9-5.19,8.28s1.78,4.1,4.5,3.87c3.1-.25,6.78-.24,5.79-5C614.28,368.52,613.17,365.56,609.79,364.35Z"/><path d="M723.65,386.87c.14,7.73-5.29,11.85-14.06,10.51-10.35-1.57-19.42-6.49-28.22-11.69-10.19-6-10.36-6.12-11.08,6.15-.12,2-.09,4.17-.83,6-.87,2.16-2.23,4.62-5,4.55-3-.07-3.61-2.79-4.17-5.13-2.23-9.27-3-18.81-7-27.78-2.81-6.38,4.21-7.76,7.77-10.23,4.2-2.92,8.18-1.76,11.63,2.35,8.2,9.75,17.74,17.88,29.54,23.11,3.22,1.42,6.81,3.09,9.86,1.3,3.9-2.28.61-6.28.79-9.5.29-5.26-4.13-8.52-6.09-12.85-1.42-3.16-3.32-6.06-2.89-9.7.3-2.49,1-5,3.84-5.44a4.32,4.32,0,0,1,4.63,3.34C714.35,364.11,722.06,374.51,723.65,386.87Z"/><path d="M212.87,367.49c4.26-5.68-4.17-9.78.1-14.8,1.27-1.5,1.84-3.86,4.19-3.61,2.7.28,2.5,2.56,2.38,4.62-.48,8.2,4.47,8.52,10.41,6.94,7-1.89,13.9-4.5,21.43-4,1.44.09,3.92-.95,4.33-2.06,4.92-13.32,11.15-3.57,16.75-.94,2.21,1,3.1,3.26,2.08,6-4.2,11-4.82,20.86,4.57,30.68,4.2,4.39-4.38,7.66-7.25,10.83s-3.38-1.58-4.56-3.74c-4.14-7.55-3.46-16.1-4.87-24.12-1.61-9.18-7-9.86-13.63-8.28-7.38,1.77-14.42,4.92-21.71,7.14-4,1.2-6,4-5,7.4,1.45,4.83-2.61,11.8,4.54,14.27,2.23.77,3.79.46,2.8,3.23-.87,2.44-1.17,5.53-4.48,6-2.35.34-5.58.12-5.8-2.55A144.85,144.85,0,0,0,212.87,367.49Z"/><path d="M345.19,363.81c-8.31,7-18.32,10.22-28.25,13.12-9.68,2.83-7.77,10.08-6.59,16.09s8.46,5.22,13.22-1c1.35-1.75,1.09-6.6,4.93-4.05,2.54,1.69.59,5-.78,7.26-1.72,2.83-3.44,5.84-5.83,8s-4.53,6.88-8.75,5.32a12.38,12.38,0,0,1-7.81-8.61c-1-3.87-2.93-8-2.26-11.65,1.18-6.45-1.87-7.77-6.87-7.83-6.08-.07-5.55-3.89-2.44-6,7-4.9,7.72-9.88,3.08-16.71-3-4.43.14-7.12,4-8.12,15.47-4,31.33-5.82,47.16-7.71,3.15-.38,5.36.85,5.13,4.38-.17,2.54-1.37,4.56-4.38,4.35-11.58-.81-22,5.17-33.36,5.62-5.43.21-6.73,2.64-7.11,8.23-.49,7.32,1.72,6.42,7.19,5.36C325.37,368,335.23,366.09,345.19,363.81Z"/><path d="M60.16,391.27c1.44,3,.4,5.74-1.47,8.26-1.42,1.92-1.08,5.74-5,5-4.83-.87-1.75-4.59-2.59-6.8-3.43-9,.23-19.16-5.6-27.89-3.15-4.7-.44-10,4.37-12.76,5.27-3.05,5.92,3,7.75,5.3,8.09,10.29,19.34,14.88,31.3,18.16,5.56,1.53,8.34-1.93,5.74-6.56-4.07-7.27.3-16-5-22.86-1.23-1.58,0-4,2.2-4.75,3-1,5,1.22,4.79,3.48-1.18,10.5,4.21,19.29,6.62,28.87,2.58,10.21-2.55,15.06-13.16,13.89-7.74-.85-14.44-4.65-21.44-7.59-2.37-1-4.41-3.49-7.2-1.29C58.85,385.76,59.47,388.48,60.16,391.27Z"/><path d="M963.82,358.27c-6.28-1.15-10.17.55-12,4.65a20.54,20.54,0,0,0,1.94,20.46c12.79,18.77,26.57,13,40.36-1.41,1.13-1.18,1.43-3.21,2.63-4.27s3.2-2.13,4.44-1.76c3,.87,1.21,3.26.81,5.08-2.62,11.88-21.35,26-33.16,25-13.2-1.11-26.34-15.34-26.71-29.6A88.69,88.69,0,0,1,943.82,359c2.24-12.74,6.09-15.28,19.07-13.84,4.72.53,9.44,1,9.12,7.2C971.68,358.74,967,358.73,963.82,358.27Z"/><path d="M360.78,387.6c-.06-3.54,0-7,4.32-9.78,5.06-3.2,5.24-9.73,7.48-14.85,2.46-5.62,3.38-12.92,11.84-12.78,7.82.13,10.51,5.53,12.11,12.25,1,4.18,2.31,8.84,8.63,6.93,1.73-.53,3.56-.15,3.72,2,.09,1.09-.66,2.9-1.53,3.31-6.59,3.1-4.7,8.12-2.83,12.79,1.16,2.89,2,5.68,1.49,8.71-.38,2.46-1.58,4.6-4.44,4.45s-5.09-1.85-5-5.08c.06-2.65.9-5.29.85-7.92-.14-7.72-3.28-9.44-10.09-6.15-6.57,3.17-13.25,6.09-19.18,10.43-1.87,1.36-2.09,5.91-5.84,3.58C359.61,393.79,360.52,390.72,360.78,387.6Zm24.79-22.3c-3.46-.08-4.38,2.53-5,5.11-.58,2.42,1.15,3.94,3.19,4.09,3.2.23,6.09-1.28,6.39-4.68C390.38,367.31,387.93,366,385.57,365.3Z"/><path d="M488.14,348.18c-14.33,3.2-12.81,12.49-12.85,20.92,0,5.33.85,10.7.41,16-.43,5.1-2.71,10.37,6.05,9.56,2-.19,2.8,2.55,1.69,3.7-2.67,2.76-4.44,7-8.91,7.31-2.85.21-4-2.1-4.17-4.64-.64-9.29-1.19-18.58-1.75-27.87-.13-2.33-.19-4.68-.22-7-.07-6.59-3.42-9.09-9.67-7.53-10.54,2.63-21.84,2.27-31.57,8.1-1.85,1.11-4.08,1-5.27-1.08a4.29,4.29,0,0,1,1.59-6.13A60.21,60.21,0,0,1,436.25,354c11.25-3,22.67-5.34,34-8.17C475.56,344.49,480.42,345.07,488.14,348.18Z"/><path d="M896.06,382.43c-1.48-9.62-.08-19.95-5.75-28.64-2.91-4.46-1.62-6.83,3-8.44s7-.47,7.72,4.71c1.18,8.74,3.19,17.38,4.18,26.13.69,6.15.66,12.14,5.24,17.21,2.53,2.79,2,6.5-.59,9.4-1.88,2.05-4.2,3.86-7.21,3.17-4.44-1-4-4.9-4.47-8.27C897.57,392.6,896.79,387.52,896.06,382.43Z"/><path d="M1038,400.15c-11.85.58-16-5.59-19.6-11.82-5.57-9.71-5.46-21-7.69-31.62-.49-2.34-.1-5.07,2.81-5.93,2.38-.7,4.1,1,4.87,2.87,3.52,8.6,10.26,7.74,17.27,6.1,11-2.58,21.92-5.39,32.95-7.76,2.62-.56,6.34-3.08,8.14,1.17,1.86,4.41-1.53,6.37-4.88,7.52-13.21,4.56-26.39,9.33-40.42,10.82-3.09.33-6.42,0-8,3.41-1.86,4,2.86,3.9,4.07,6,.34.59.81,1.1,1.19,1.67,2,3,3,7.62,8,6.5,4.58-1,5.31-4.76,5.1-8.89-.09-1.73.28-3.65,2.42-4,2.4-.35,4,1.42,4.77,3.22C1052.25,387.25,1043.43,400,1038,400.15Z"/><path d="M1058.21,369.7c2.07.27,4.06-.06,4.34,2.07s-1.09,3.23-3.15,3.59c-8.21,1.41-16.51,2.3-24.37,5.44a3.83,3.83,0,0,1-5.3-2.56c-.48-2,1.39-3.23,3.23-3.61C1041.53,372.89,1050.13,371.27,1058.21,369.7Z"/><path d="M9.92,372.53c.34-5.35.27-10.7-1.85-15.75-1.72-4.09.11-6.77,3.95-7.43,4.84-.84,4.11,3,4,6-.39,13.12,1.91,26,3.47,39,.54,4.42-.54,6.81-4.22,7.25-4.09.48-4.29-2.84-4.35-6.19C10.82,387.74,10.28,380.13,9.92,372.53Z"/><path d="M294.51,40.92c2.17-10.76,1.14-21.63,1.3-32.46.05-3.32.87-8,5.34-6,9.22,4.22,18.75,2.33,28.11,3,11.73.83,15.05,5.36,9.85,16-2.33,4.75-2.29,6.46,3.22,6.83,3,.2,8-1.81,8,3,0,4.6,2.68,9.6-1.38,14.18-9.75,11-23,11.63-36.11,12.9-2.5.24-4-2.13-4.38-4.63-.44-3.16,2-3.85,4.29-4.36,6.75-1.5,13.55-2.74,20.27-4.36,1.86-.44,3.87-1.9,3.3-4.19-.64-2.56-2.85-2.1-4.86-1.56-10.94,2.89-24.42.37-30,14.65-1.15,3-3.51,2.13-5.15-.47C293.84,49.47,294.25,45.22,294.51,40.92Zm23-25.51a19,19,0,0,0-4.59-.15c-3.69.43-7.25,1.52-8.06,5.9-.57,3.14-1.91,6.63,1.36,9.11,3.68,2.78,6.92.24,10-1.49,2.55-1.44,5.27-3,7-5.24s6.58-4,4.8-7.56C326.51,13,322.59,15.33,317.47,15.41Z"/><path d="M860.47,38.61c-11.51.85-21.11,4.4-26.59,15.62-1.29,2.65-3.16,8.06-7.83,5.4s-1.52-6.86-.31-10.54c4.07-12.47,11-23.94,12.5-37.32.47-4.22,13-12.34,16.92-11.74,1.87.29,2.75,1.41,3.3,3.14a47.59,47.59,0,0,0,2.82,7.38c11,21,4.83,18.47,28.17,15.44,3.45-.45,9-5.38,10.13-.34,1.37,6-5.76,4.07-9.47,5.1-2.86.8-5.69,1.72-8.52,2.62-2.45.79-5.68.61-6.72,3.51-1.51,4.18,2.91,3.29,4.55,4.83,2.26,2.1,4.27,5.15,2.39,7.82-1.71,2.42-3.2,6.45-7.13,5.95-3.29-.41-4.41-3.74-5.33-6.51C867.77,44.16,868.08,37.89,860.47,38.61ZM859,28.44c-1.51-3.3-3.12-7.38-6.68-7.77-4.56-.49-4.74,4.71-5.82,7.67-1.2,3.26,1.44,4.76,4.53,4.08C853.93,31.79,857.83,32.78,859,28.44Z"/><path d="M11.68,51.6C22.21,38.76,23.62,19.77,33.45,4.69c3.95-6.07,9.94-6,14.27.83C50.52,10,52.17,15.72,56,18.76,62.64,24,69.06,27.91,63.65,38c-1.08,2,2.67,4.68,5.69,5.85,3.51,1.36,6.56,3.57,5,8.12-1.29,3.74-2.72,7.6-7.54,8.12s-5.93-3.25-7.3-6.58c-.74-1.81-1-3.87-1.93-5.54-2.87-5.05-1.1-13.54-9.41-14.55-9.63-1.16-18.63,5-22.22,14-1.33,3.33-2.79,6.62-4.33,9.86a4.39,4.39,0,0,1-5.75,2.46C13,58.77,11.72,56.64,11.68,51.6Z"/><path d="M157.92,40.53c-1.53-6.12-.85-14.18-5.17-21.12-3.68-5.91-2.09-10.95,4.59-11.55,11.91-1.06,24-1.5,35.94.2,5,.72,9.87,1.61,11.85,7.23a15,15,0,0,1-3.28,15.62c-6.85,7-14.81,12.88-22.59,18.87-2.24,1.72-5.35,2.59-8.2,3.18C162,54.84,157.64,51.06,157.92,40.53Zm24.77-24.06c-5.74-.39-11.72.16-16.1,3.63-4.85,3.85,1.73,8.22,1.15,12.63-.21,1.6.49,3.31.31,4.92-.78,6.76,2.92,6.91,7,4.14,6.48-4.41,12.72-9.08,17.5-15.71,4.54-6.3,3.42-8.68-3.91-9.19Z"/><path d="M756.4,4.47a34.85,34.85,0,0,1,4,0c3,.35,7.41-1.15,7.12,4.23-.24,4.34-3.78,3.29-6.71,3.62-9.51,1.07-19,2.33-28.45,3.91a31.73,31.73,0,0,0-9.17,3.51c-3,1.6-3.61,4.57-2.67,7.73,1,3.31,3.67,3.32,6.43,3,7.88-.78,15.78-1.44,23.64-2.39,2.77-.34,5.43-1.13,6.24,2.59.92,4.24-2.14,4.89-5.22,5.49s-6.36,1.45-9.58,2c-8.51,1.3-17.23,1.95-19.72,12.8-.53,2.3-2.22,5.3-5.46,4.93s-2.35-3.42-2.81-5.55A8.52,8.52,0,0,0,708.37,44c-6.8-2.66-7.2-6.91-1.39-10.49,4.92-3,3.57-6,2.31-10-2.78-8.77.51-13.53,9.79-15A351.15,351.15,0,0,1,756.4,4.47Z"/><path d="M413.46,16.72c-3.87,9.13-10.64,8.49-15.83,10.45-5.75,2.16-11.5,4.1-10,12.17.6,3.23.61,7.46,3.87,8.58,4.09,1.4,3.9-3.4,5.37-5.65s3.05-3.73,5.66-2.42c3.05,1.53,3.09,4.3,1.48,6.73-2.35,3.56-4.78,7.23-7.87,10.1-5.68,5.26-15.18,2.87-16.29-5-1.26-8.84-6-16.52-6.17-25.71C373.52,15.24,377.51,10,388,7.37c9.91-2.54,20-3.81,30-5.9,3.38-.71,8.14-1.8,8.73,3.45.5,4.41-3.7,4.25-7,5C409,12.25,398.51,15,388,17.59c-2,.5-4.15,1.42-3.79,3.74.48,3.12,3.24,3,5.51,2.37C396.85,21.72,404,19.52,413.46,16.72Z"/><path d="M136.09,29.46a35.92,35.92,0,0,1-1.66,13.91c-2.14,5.86-8.6,7.5-12.28,2.56-4.37-5.89-11.5-8.86-15-15.48A4.09,4.09,0,0,0,102,28.38c-2.13.78-2.68,2.7-2.72,4.79C99.2,38.11,99,43,96.82,47.64c-1,2.22-1.75,4.42-4.74,3.89a4.75,4.75,0,0,1-4.21-4.83,285,285,0,0,0,.29-32.29c-.27-5.78,8.5-7.53,13.15-3.44,6.43,5.65,12.72,11.37,17.74,18.39,1.11,1.55,2.85,3.35,4.9,2.75,2.55-.76,2.93-3.35,2.92-5.73,0-5.42-3.64-14.32,4.89-13.84C138.61,12.93,136.24,22,136.09,29.46Z"/><path d="M639,29.11c.47-14.44,7.33-21.91,19.75-21.51,18.35.6,32.62,10.45,32.18,22.22-.39,10.22-18.64,23.78-31.15,22.9C648,51.89,635.66,40.84,639,29.11Zm22.79-10.55c-5.41-1.33-10.16-1.55-12.42,3.79-1.43,3.38-5.05,7-2,10.9,3.86,5,8.64,9.12,15.69,8.63,7.56-.53,14-3.44,18.72-9.48,1.56-2,.87-4.07-.38-6.35C676.7,17.68,669.62,16.33,661.77,18.56Z"/><path d="M452.24,57.62c-3.22-.7-7.73-1.56-12.17-2.67-4.21-1.05-7.41-3.46-6.75-8.23.57-4.15,1.13-9,6.64-9.72,7.29-1,6.09-3.91,2.52-8.21s-4.68-10.2-1.57-14.7c3.84-5.54,9.21-10.19,16.49-11.22,1.88-.27,4.12-.4,5.05,2A5.22,5.22,0,0,1,460.69,11c-1.74,1.41-4.06,2.09-6.07,3.19-5.53,3-8.17,6.14-2.32,12a46.4,46.4,0,0,0,17.27,10.76c3.87,1.42,7.05,3,6.87,8.22-.16,4.78-2.54,6.83-6.64,8.51A55.14,55.14,0,0,1,452.24,57.62Zm-10.92-13.2c.57,3.4,2.91,3.68,5.23,3.1,3.21-.79,8.24.72,8.53-4.52.15-2.79-3.13-4.43-5.72-4.63C445.14,38.06,443.48,41.8,441.32,44.42Z"/><path d="M530,38.88c0-2,.08-4,0-5.93-.65-14.62-2-15.56-16-12.63-3.85.8-7.88.76-11.83,1.12-3.05.28-6.43.56-7.05-3.41-.66-4.24,1.67-6.89,5.92-7.6,7.48-1.24,15-3.12,22.46-3.37,5.44-.18,9.66-4.11,15.21-3.33,5.38.75,9.15,2.52,4.52,7.88-8.54,9.9-3.65,20.68-2.24,30.9.6,4.36,3.75,8.43.42,12.67-1.52,2-4.25,1.92-6.4.63-4.51-2.71-5.58-7-5.15-12,.14-1.64,0-3.3,0-4.95Z"/><path d="M970.68,20.13c.14-1.13.23-1.78.29-2.44.38-4.62-3.29-12.44,5.13-11.76,8.91.72,1.8,7.63,2.11,11.59.41,5.19.15,10.39,1.66,15.49,2.84,9.62,7.4,11.83,16.86,8.59,10.28-3.52,20.67-6.72,31.06-9.9,2.62-.8,5.7-.68,6.63,2.45s-1.35,5-4.2,5.49c-12.82,2.37-23.8,9.55-36,13.5-11.38,3.68-17.88-.35-21.17-12C971.07,34,971.27,26.82,970.68,20.13Z"/><path d="M917.48,24.07c1.1,6.15-2.43,15.4,4,18.53s13.21-3.76,19.51-6.87c4.94-2.45,9.19-6.25,13.91-9.18,1.58-1,4.06-1.75,5.35.31s-.48,3.62-2.16,4.77c-10.28,7-20.24,14.61-31,20.89-8.81,5.16-13.45,1.37-15.46-8.58-2.07-10.2,2.34-21.63-6.28-30.84-2.2-2.34.8-6.1,4.61-7.1,3.65-1,6-.84,7,4A52.16,52.16,0,0,1,917.48,24.07Z"/><path d="M1073,58.52c-2.65,8.41-1,18.25-8,25.57-1.37,1.42-2.41,3.66-4.6,2.66-3.06-1.4-1.43-3.8-.45-5.8,3.46-7.15,5.79-14.66,5.55-22.61-.12-3.83-.94-7.92,4.21-7.75S1072,55.57,1073,58.52Z"/><path d="M64.48,2683.78c-15.63,7.1-23.48,1.31-29.44-12.37-2.9-6.68-8.11-13.56-16.41-15.88-5.72-1.6-6.81-6-4.93-10.43,2.32-5.48,7.52-3.54,11.68-2.34a9.06,9.06,0,0,1,5.23,3.89c10.65,21.53,28.35,18.84,47.14,14.66,17.38-3.86,35.26-5.62,52.44-10.15,9.14-2.41,15.12-15.11,27.64-7.56,3.44,2.08,9.55.39,9,7.05-.48,6.13-5.05,8.73-10.43,8.85-21.88.49-42.68,6.89-63.9,11-6.33,1.23-13.21.95-9.24,10.71,1.5,3.68-.88,6.18-2.8,9-14.95,22.12-32.92,41.76-50.37,61.84-5.09,5.85-10.31,9.21-16.65,2.55-6.65-7,1.5-9.31,4.88-12.81C35.23,2724.35,53.9,2708.34,64.48,2683.78Z"/><path d="M99.48,2532.91c17.3,0,39.47,15.67,45.46,32.14,5.56,15.3.87,24.4-18.35,31-22.34,7.69-46.06,8.37-69.32,10.83-11,1.17-10.94-10.9-13-16.82-6.07-17.83-9.69-36.52-13.82-55-1.18-5.27-2.56-12.85,4.59-14.07,6.63-1.14,6.05,6.28,7.19,11,4.22,17.36,8.69,34.67,12.81,52,1.87,7.87,4.77,14.17,14.49,12,10.44-2.32,10.7-10.19,8.92-18.39s-4.34-16.17-6.44-24.28c-.87-3.34-1.36-7.38,2.81-8.35,4.38-1,5,3.39,5.9,6.39q4.63,15.15,8.93,30.43c.58,2.06-.26,5.46.92,6.29,12.42,8.78,22.82-1.89,34-4.29,7.93-1.7,11.18-7.39,6.13-15.12-7.84-12-14.21-26-32.22-25-4.43.24-8.33-1.72-8.12-6.39C90.66,2531.76,95.71,2533,99.48,2532.91Z"/><path d="M135.76,2471.85c1.46,14.74-9.9,24.41-23,32.9-4,2.58-8.57,3.08-12.69.72-1.41-.81-2.51-3.88-2.21-5.66.89-5.26,4.75-7,9.84-6.84,10.69.38,12.67-8.77,14.62-15.64,2.31-8.18-1.17-16.62-5.87-23.6-3.13-4.66-7.13-1.8-9.39,1.71-8.17,12.73-20.38,21.6-30.52,32.44-6.78,7.25-15.58,12.23-25.38,9.26-10-3-12.48-13.55-16-22.2a5.83,5.83,0,0,1,3.75-8.11c3.16-1,5.42,1,6.41,3.83,8,22.87,19.51,13.07,30.45,3.08a236.14,236.14,0,0,0,21.78-22.62c6.09-7.26,11.07-17.72,22-14.62,10.49,3,13,14.2,15.59,23.89C135.82,2463,135.47,2466,135.76,2471.85Z"/><path d="M101.8,2352.17c1.6-.12,4,1,4.23,4.39a5.73,5.73,0,0,1-4.57,6.14c-24.31,5.66-48.85,10.4-72.1,20-3.57,1.46-6.93,0-7.39-4.16-.78-7.08,4-9.83,10-11,16.88-3.43,33.8-6.64,50.66-10.15C88.57,2356.06,94.41,2354.17,101.8,2352.17Z"/><path d="M125.45,2367.16c-5.81-2.77-12.09-5.79-11.35-14.09.35-4,2.22-8.5,7.28-6.67,6.69,2.42,10.91,7.59,10.64,15.26C131.88,2365.44,130.42,2368.16,125.45,2367.16Z"/><path d="M829.61,2526.39c7.7-.1,15.76,4,23.34,8.53,8,4.81,10.33,16.81,5.22,26.58-5.23,10-13.28,17.92-22.25,24.66-5.11,3.84-22.6-2.42-23.21-8.58-1-10.23-6.8-19.13-7.19-29.39-.15-4.11-4.26-5.7-5.79-9-1.14-2.44-2.63-4.91-1.19-7.47,1.84-3.26,4.43-1.71,6.79-.4,2.92,1.62,5.08-.65,7.35-1.64A35.22,35.22,0,0,1,829.61,2526.39Zm4.2,55.17c.4-3.39.35-6.15,3.52-8.66a87.08,87.08,0,0,0,14-14.61c7.28-9.26,5.79-15.28-5.06-19.53a41.68,41.68,0,0,0-32.31.24c-2.45,1-5.7,2.61-4.2,5.59C816.27,2557.56,813.75,2576.31,833.81,2581.56Z"/><path d="M570.55,2544.76c-8.27,11.47-10.76,24-13.75,36.42-.37,1.55,0,3.6-2,4.1-2.56.65-3.45-1.68-4.13-3.34-3.37-8.21-6.81-16.42-9.66-24.82a51,51,0,0,0-8.81-15.32c-1.27-1.6-5-1.9-3.29-5,.61-1.12,2.67-1.76,4.18-2,3.36-.62,3.87,1.8,5.2,4.37a241,241,0,0,1,14.88,34.12c2.32-10.42,3.33-20.8,9.34-29.7,2.25-3.34,4.42-7.25,8.15-8.17,5.1-1.25,4.92,4.8,6.29,7.33,5.49,10.2,13.7,18.07,20.92,27.05.21-11.33,2.11-22.6-4.23-32.8-1.68-2.71-.49-5.16,1.16-7.24a4.33,4.33,0,0,1,3.41-1.37c3.18.43,2.52,3.26,2.88,5.43,1.45,8.73,2.85,17.47,4.39,26.19a22.9,22.9,0,0,1-1.1,11.65c-2.34,6.87-5.41,8.46-11,2.7A145.06,145.06,0,0,1,570.55,2544.76Z"/><path d="M410.62,2545.26q2,10.69,4.05,21.32c.48,2.49,1.8,4.44,4.42,4.66,4,.33,5.39,2.09,3.72,5.83-1.05,2.36-1.76,5.42-5.11,5.24-3.53-.2-6.77-1.73-6.78-5.79,0-9.71-4.85-18.35-5.8-27.85-.5-5-2.64-7.77-8.69-5.08-6.56,2.92-13.49,5.75-20.51,6.69-10,1.32-9.41,6.16-6.81,13.37,2.12,5.86,3.45,12,5,18.06.49,1.85,1.17,4.11-1.39,5-1.95.65-3.19-.94-3.55-2.55-3.39-15.39-8.94-30.1-13.66-45.07a3,3,0,0,1,1.88-4c2.07-.77,3.23.57,3.67,2.2,1.64,6,5.89,5,10.27,4.12,6.47-1.23,12.95-2.4,19.46-3.33,4.24-.6,9,0,8.14-6.8-.22-1.81,1.68-3.67,3.72-4.18,4-1,2.47,2.84,3.62,4.36C409.39,2535.48,414.61,2538.77,410.62,2545.26Z"/><path d="M305,2566.59c-7.31,9.32-1.29,11.38,5.77,12.77,2.25.44,4.56.55,6.85.77,3.94.37,8.88,1.32,10.13-3.44s-4.36-3.79-6.86-5.33c-10.07-6.22-14.33-16.05-16.51-26.88-1.48-7.37,3.56-11.67,9.44-14.63,6.55-3.31,13.5-5.46,20.72-2.35a6.24,6.24,0,0,1,3,4.72c0,2.44-2.69,2.36-4.57,2.67-2.93.48-6,.41-8.78,1.41-4.69,1.71-12.5.88-12.54,7.41-.05,6.79-.53,14.49,8.66,18.93,6.56,3.16,12.07,8.77,19.6,10.64,3.05.76,3.93,3.24,4.05,6.09a5.19,5.19,0,0,1-4.37,5.75c-13,2.87-25.88,5.27-37.79-3.94C294.09,2575.2,294.31,2571.78,305,2566.59Z"/><path d="M461.75,2566.07c2.43,8.45.25,15.42-6.34,19.85-5.06,3.4-13.12-.47-14.88-6.88-3.08-11.19-9-21.94-6.55-34.12.88-4.34-5.65-7.59-2.67-10.58,4.1-4.12,10.48-5.13,16.32-6.12a116.55,116.55,0,0,1,13.68-1.63c2.42-.12,5.91-.56,6.26,3.11.37,3.82-2.88,3.41-5.49,3.87-5.49,1-10.88,2.41-16.36,3.43-5.05.95-6.48,4.7-6,8.78.54,5,4.8,3.54,7.82,3,6.13-1.11,12.17-2.68,18.27-4,1.91-.41,4.34-.82,4.88,1.69.62,2.9-2.2,2.54-3.92,3.11-7.72,2.54-13.86,8.86-22.53,9.19-3,.12-3.83,2.29-3.05,4.95a46.4,46.4,0,0,0,2.16,5.52c1.66,3.71,1.34,9.25,7,9.61s7.64-4.07,9.08-8.72A21.28,21.28,0,0,1,461.75,2566.07Z"/><path d="M685.24,2545.39c-.91,7.43,1.74,13.69,3.45,19.87,1.28,4.65,5.15,9.19,11,8,8.88-1.88,15.93-7.07,18-16.24,1.49-6.71,1.65-14-5.5-18.6-2-1.26-4-2.63-3-5.52.77-2.29,2.89-2.59,4.78-2.94,4.49-.83,2.93,3.14,4,5.14,6,11.34,8.27,22.77,1.79,34.79-3.29,6.11-8.66,10-14.37,13.11-6.51,3.59-15.19-.34-19.4-10.35-5-11.79-8.06-24.37-11.83-36.65-.71-2.31-.33-4.87,2-6.09,3.31-1.69,3.13,1.78,4.57,3.21C684.47,2536.81,687.07,2540.57,685.24,2545.39Z"/><path d="M638.22,2534.7c12.17-1.48,19.7,7.3,25.52,17.57,4.73,8.36-.3,19.24-10.23,24.76a17.93,17.93,0,0,1-24-6.5c-5.93-9.55-5.81-20.19-4-30.65C626.44,2534.2,631.76,2534,638.22,2534.7Zm3,8.83c-10.17-.14-10.18-.13-10.42,11s3.89,15.87,14.72,15.58c7.37-.19,12.55-4,12.92-11.82C658.89,2550,651.22,2543.68,641.27,2543.53Z"/><path d="M791.8,2558.61c3.8,2.86,4.75,5.41,3.69,9-2.66,9.06-14.73,17.48-25.16,17.27-8.71-.18-15.54-5.89-17.63-16.71-2.17-11.28-3-22.81-4.39-34.23-.3-2.47,0-5,2.94-5.22s3.53,2.42,3.55,4.85c.06,8.87.36,17.65,2.11,26.46,1.56,7.83,2.3,15.17,12.84,15.3C783.39,2575.54,789.44,2571.39,791.8,2558.61Z"/><path d="M1073.75,2547c-9.46,6-20.5,7.71-31,11-4.46,1.4-11.74.06-12.47,5.87s3.52,10.75,8.49,14.77c2.82,2.27,6.2,3.12,9.08,5.29,3.57,2.71,3.86-2.82,5.44-4.75,2-2.5,1.93-9,6.33-6.6,3.74,2-.46,6.59-2,9.45-5.75,10.55-10.23,11.3-19.71,3.66-12-9.67-15.84-23.7-19.74-37.65-.53-1.9-1-4.42,1.51-5a3.66,3.66,0,0,1,4.46,4c-.86,10.38,3.05,5,8.42,4,8.23-1.57,16.53-4.35,25.25-3.62A65,65,0,0,0,1073.75,2547Z"/><path d="M1059.75,2522.91a2.3,2.3,0,0,1,1,0c3.76,1.77,11.12-2.59,11.3,3.49s-8.14,6.22-11.86,5.57c-9.68-1.7-18.11,1.23-26.76,4.05-3.56,1.16-7.12,1.41-8.27-2.41-1.26-4.18,3.16-4.11,5.71-5.13A80.06,80.06,0,0,1,1059.75,2522.91Z"/><path d="M940.42,2536.18c4.81-7,24.29-13.58,30.06-11.46,4.45,1.64,5.76,10.93,2,15.44-1.45,1.74-3.51,3-5.12,4.59-1.2,1.2-2,2.85-1,4.47,1.09,1.77,3,1.3,4.38.5,5.51-3.16,10.47-1.58,15.8.83,7.63,3.44,8.94,9.08,3,15.14-8.6,8.73-18.63,15.47-30.87,21.81a16.6,16.6,0,0,1,8.74-9.49c8.3-3.57,11.58-12,18.34-17.09,4.64-3.47.11-5.86-3.15-6.23a47.32,47.32,0,0,0-21.37,2.16,17.81,17.81,0,0,1-6.67,1.31c-2,0-4.22.65-4.85-1.93a4.06,4.06,0,0,1,2.63-4.82c6.63-2.42,9.38-9,14.5-13.09,2-1.55,3.52-4.35,2.08-7.07s-4.49-2.86-7-2.11C955.27,2531.07,948.84,2533.38,940.42,2536.18Z"/><path d="M949.51,2589.37c-4-3.42-9.75-5.73-6.7-13,.61-1.44-.23-4.08-1.28-5.54-7.63-10.55-5.7-24.27-11.87-35.28-.74-1.31-.47-3.23-.47-4.87,0-2.06.44-4.28,3-4.29,2.68,0,3.17,2.43,2.68,4.31-2.93,11.15,7.51,19.38,6.39,30.08C952.82,2567.74,945.41,2580.19,949.51,2589.37Z"/><path d="M793.74,2687.7c.74-4.23,1.54-7.45.42-10.76-1-2.92-2-6.1,2.56-6.8,3.46-.52,6.4,1.13,6.14,4.68-.51,6.87,3.26,6.68,8,5.95,7.83-1.19,15.7-2.17,23.53-3.35,1.58-.24,3.43-.6,4.54-1.59,2.55-2.27,2.81-9.41,8-5.54,3.77,2.79,7.27,7.17,7.36,13.13a69.91,69.91,0,0,0,2.24,17.55c1.25,4.54.44,11.2,8.08,11.82a3.08,3.08,0,0,1,2.61,4.43c-1.53,3.92-2.81,8.34-7.37,9.9-2.49.85-4.33-.77-5.68-2.89-3.52-5.54-3.7-11.93-4.53-18.09-2.68-20.09-2.7-20.22-21.85-16.84-4.22.75-8.37,1.85-12.57,2.69-11.39,2.3-11.54,2.33-7.27,13.57,2.2,5.81,5.18,11.29,5.44,17.74.1,2.2,1.9,4.55-1.3,5.8-2.46,1-4.5-.26-6.28-1.85a10.38,10.38,0,0,1-3.85-7.78c0-10.06-1-19.73-7.69-28C793.48,2690.41,793.83,2688.36,793.74,2687.7Z"/><path d="M741.28,2713c-8.63-3.6-7.12,5-9.52,9.15-1.57,2.7.68,8.54-5.28,7.48-4.75-.84-7.2-5.19-7.13-9.56.08-5.21,1-9.92-5.93-11.32-1.91-.38-2.09-2.75-.6-3.94,7.67-6.12,2.88-12-.09-18a54.32,54.32,0,0,1-3.52-8.07c-.88-2.92.66-6.29,3.34-6.05,11.49,1.06,21.89-6.18,33.76-3.22,13.33,3.32,23.4,14.94,21.82,27.29C767,2705.83,755.14,2713.18,741.28,2713Zm-7.09-7.52c6.77,2.05,12-2.41,17.74-4.41,5.35-1.85,8.45-5.22,7.54-12-.87-6.46-4.1-8.64-9.8-10.46-9.63-3.07-18,1.61-26.92,3-2.07.31-3.08,2.17-3.46,4.34C717.63,2695.27,725,2705,734.19,2705.52Z"/><path d="M955.22,2672a47.82,47.82,0,0,0,19.47-2.43c3.41-1.13,6.88-2.5,10.6-1.71,2.89.61,6.17,1,6.42,4.91.21,3.35-2.24,4.74-5,5-5.29.56-6.42,4.68-6.58,8.47-.43,9.82.88,19.59,2.78,29.22.45,2.23,1.8,4.46,4.45,4.72s2.91-2,3.49-3.92c.86-2.84,2.95-3.75,5.29-2.06s3.44,4.1.73,6.62c-1,.89-2,1.69-2.92,2.63-3.05,3.14-5.05,8.85-10.51,7.15-5.28-1.65-6-6.71-6.55-12.07-1-10.12-3.15-20.12-4.69-30.18-.81-5.28-3.11-7.27-8.78-6-8,1.82-16.24,2.58-24.3,4.18-5.31,1.06-9.78-.47-11-5.41-1.49-6.25,4.68-6.32,8.47-7.07C942.72,2672.92,949,2672.67,955.22,2672Z"/><path d="M1012,2699.68c.74-5.21.68-10.7,2.39-15.57,2.79-8,7-14.62,17.6-13.29,15.78,2,27.54,9.38,35.91,22.95,4.39,7.12,2.37,12.54-2.9,17.48-7.28,6.82-15.94,11.73-25,15.72-10.17,4.49-25.65-7.19-27.54-20.35a48.24,48.24,0,0,1,0-6.91Zm23.24,17.33c11.47,1.24,18.64-6,26.11-12.29,3.13-2.63,3-6.38.69-9.87-7.66-11.6-18.79-16.77-32.34-17.45-2.39-.12-6.33,1-5.8,2.37,3,7.72-5.16,11.75-5.27,18.61C1018.43,2710.86,1023.16,2716.77,1035.25,2717Z"/><path d="M896.17,2722.84c-7.71.06-13.07-3.13-15.75-10.7-2.2-6.25-4.32-12.58-3.88-19.18.32-4.94-1.68-11.92,4.35-14.05,6.56-2.31,13.78-6,20.88.57,5.82,5.41,11.42,11,14.8,18.06C922.69,2710.37,912.54,2722.67,896.17,2722.84Zm2.52-12.3c4.87-.44,9.18-3.89,10-10.07.78-6-10.43-14.74-17.43-14.1-6.55.61-6,5.93-6.15,10.38C884.91,2704.49,890.54,2710.73,898.69,2710.54Z"/><path d="M635,2683.48c-8.71,6.21-18.24,10.06-28.68,10.75-6.79.44-8.85,2.89-7.37,9.27,1,4.48,1.53,9.09,2.53,13.58.62,2.79.78,6.14,4.61,6.85,3.42.63,5.72-1.37,7.53-3.77,4.5-6,8.81-12.07,14-17.64a69.63,69.63,0,0,1-15.55,29.73c-4.22,4.65-13.33-.72-15.08-8.79-1.47-6.76-1.92-13.72-3.25-20.51-1.8-9.19-4.74-18.13-4.08-27.76.27-3.77-.17-5.75,4.88-6.12,10.43-.75,20.78-2.62,31.13-4.26,3.1-.49,5.53-.17,5.9,3.23.39,3.59-2.87,4.93-5.23,4.33-8.35-2.12-15.42,3.06-23.25,3.38-3.48.14-7,.37-6.68,5.15.26,4.6,2.55,7.51,7.48,7.35,8.76-.28,17.78.47,25.2-5.83C630.59,2681.13,632.44,2680.17,635,2683.48Z"/><path d="M554.49,2674.4c10.39,2.91,16.4,7.13,11.94,19-1.24,3.34-2.4,12.14,7.79,10.32,3.39-.61,3.67,3.09,2.61,5.86-1.12,3-3,5.55-4.26,8.52-2,4.6-4.75.6-6.28-1.56-4.18-5.86-3.47-13.19-5.32-19.77-3.1-11-4.15-11.89-14.94-7.87-7.34,2.74-15.19,4-22,8.55-3.77,2.55-5.65,5.1-2.62,8.62,3.57,4.16,1.95,8.78,2.45,13.21.21,1.87,1.07,4.29-1.73,4.81-2.4.45-3.68-1.86-4.09-3.55-2.16-8.87-4.14-17.79-5.85-26.76a107,107,0,0,1-1.44-13.75c-.13-2.21-.23-5,3.08-5.16,2.42-.09,3.54,1.76,3.36,4-.8,10.09,5.06,9.23,11.86,7.61a76.79,76.79,0,0,1,13.7-2.1C549.45,2684.06,554.4,2682.11,554.49,2674.4Z"/><path d="M351.73,2717.11c-1.42,2.8,1.58,6.69-2.26,7.31s-4.84-3.12-5.2-6c-1.58-12.74-2.91-25.52-4.24-38.29-.24-2.23-.77-5,2.21-5.82,3.15-.87,5.41,1.49,6.08,3.89,2.95,10.52,11.22,16.77,18.32,24,1.66,1.68,2.95,3.75,5.43,3.81,3.21.08,6.35,4.18,9.2,1.34,3.18-3.17-.35-6.53-1.21-9.88-1.49-5.75-7-9.76-6.63-16.19.09-1.63,0-3.42,2.08-3.89A2.7,2.7,0,0,1,379,2680c-.15,8.19,5.94,13.72,8.54,20.73,1.73,4.68,2.65,9.54-.9,13-3.7,3.62-8.72,1.82-13-.18-8.18-3.86-14.59-9.87-19.79-17.19-1.31-1.83-2.4-4.86-4.94-3.88-3.39,1.31-1.51,4.4-1,6.88C349.28,2705.42,350.55,2711.53,351.73,2717.11Z"/><path d="M309.33,2721.94c-1.9-16.91-4.42-33.77-9-50.24-.73-2.67-1.91-5,.35-7.18a4.13,4.13,0,0,1,3.46-1c3.1,1.24,2.09,4.26,2.56,6.76,3.3,17.85,4.21,36.18,10.69,53.38a7.39,7.39,0,0,1,.87,2.8c-.21,3.42.48,8.27-3.83,8.74-3.82.41-4.25-4.33-5-7.37C309,2726,309.33,2723.9,309.33,2721.94Z"/><path d="M483.13,2665.35c3.36.87,5.11,3,3.1,5-4.62,4.59-3.36,9.76-2.06,14.67,2.54,9.57,3.28,19.33,4.08,29.11.26,3.18-.55,7,3.5,8.35,3.06,1,4.71,2.56,2.88,5.7-1.44,2.49-2.9,5.8-6.52,4.88-2.89-.74-3.19-3.66-3.44-6.43-1.35-14.7-3.12-29.32-6.86-43.68C476.05,2676.26,479.1,2670.46,483.13,2665.35Z"/><path d="M456.47,2675c-5.91.53-11.76,1.09-17.61,1.57-2.93.24-5.52-.49-5.52-4,0-3,2.58-3.9,4.91-3.74,10.07.71,20-2.25,30.12-.63,1.66.26,3.48.33,3.81,2.32.39,2.35-1.63,2.62-3.18,2.7C464.74,2673.42,460.9,2676.45,456.47,2675Z"/><path d="M897.2,2413c10-20.9,18.64-26.43,37.81-25.49,3.24.15,6.75-.52,8.16,3.77,1.34,4.11.84,7.91-2,11.09a24,24,0,0,1-14.54,7.72c-3.74.63-8.32,1.39-8.67,6.56-.37,5.32,3.61,7.64,7.84,8.83,10.68,3,21.73,9,31-3.43,1.7-2.28,5.29-2.39,9.49-1.13-5.84,4-3.43,10-4.08,14.93-.69,5.19,5.39,6.12,9.61,5.2a102.58,102.58,0,0,0,18.69-5.93c8.11-3.52,8.12-6.31,1-11.34-9.39-6.59-17.75-14.12-22.87-24.73-2.35-4.87-2.18-9.55.73-13.87,1.45-2.14,4-3.93,6.83-2.09,2.68,1.73,3.13,4.41.83,6.71-5.38,5.35-1.57,10.15,1.63,13.72,5.67,6.31,11,13.09,18.34,17.85,4.83,3.12,8.5,7.84,7.4,14.08-1.05,5.94-6.68,6.44-11.33,8.05-7.62,2.62-15.43,3.06-23.38,2.91-3.84-.08-8-.65-9.72-3.83-4.19-7.71-10.11-7.5-17.26-5.71-11.06,2.78-20.07-2.63-28.38-8.67-7.68-5.59-6.76-16.22,1.6-21.36,3.87-2.38,8.57-3.36,12.64-5.47,2-1,6-1.31,4.83-5-1-3.11-4.29-2.3-6.91-2.19-12.27.56-20.2,7.67-21.77,19.91-1.12,8.72-1.79,17.49-3,26.2-.29,2.12,1.14,6.13-3.39,5.58a4.52,4.52,0,0,1-4.28-4.71,76,76,0,0,0-7.86-40,3.22,3.22,0,0,1,2.06-4.75c2.59-.82,4.77.06,5.56,2.64C895,2403.06,895.81,2407.19,897.2,2413Z"/><path d="M613.14,2385.16c3.48,0,7.78-.1,12.07,0a5.8,5.8,0,0,1,5.87,6.58c-.64,4.05-4.05,2.26-7.09,1.65-11.84-2.4-23.56-.48-35.09,2.34-4.09,1-5.86,3.93-4.35,8.36,1.37,4.06,2,9.19,7.82,8.44,8.48-1.1,17.25,1.17,25.5-2.25,2.34-1,4.77-1.39,5.76,1.51,1,3.09-1.72,3.68-3.79,4.65-7.32,3.44-15.36,4.13-23.11,5.28-8.55,1.26-9.31,4.65-5.49,11.17a10.61,10.61,0,0,1,1.19,2.72c.87,3.35,1.42,7.41-2.68,8.29s-6.53-2.49-7.14-6.51c-.44-2.9-.5-5.87-.7-8.8-.16-2.4-.54-4.38-3.35-5.36-6.08-2.12-7.31-5.6-1.79-9.8,5-3.76.61-7.3-.25-10.58-2.56-9.66,1.14-16,11.1-16.66C595.84,2385.66,604,2383.89,613.14,2385.16Z"/><path d="M439.22,2429.45c-5.63-4.66-13.31-5.59-19-11.07-7.18-7-8.42-15.51-10.43-24-1.16-4.86,3.43-7.88,7.48-9.18,4.5-1.44,9.76-3.92,14.12-.85,3.14,2.2.58,4.22-2.23,5.53-9.06,4.25-10.08,16.05-1.63,21.77,4.3,2.91,9,5.34,14.48,6,8.25,1.06,11.72,9,7.27,16.15-8.17,13.09-31.83,16.1-43.3,5.69-2.75-2.49-4.35-5-3.1-8.59,1-2.89,3.86-3.79,5-1,6.09,15.12,15.91,6.65,24.62,4.1C434.82,2433.43,437.76,2432.8,439.22,2429.45Z"/><path d="M503.48,2407.89c-.32-8.52,8.56-12.84,16.35-14.41,12.95-2.62,18.92,5.3,26.43,12,5.4,4.83,8.08,11.39,5.79,17.82s-8.43,11.07-15.55,12.21C520.46,2438.06,504.09,2424.1,503.48,2407.89Zm20.36-9.09c-6.07,1.29-11.77,2.9-12,11.34-.27,11.18,14.5,19.71,26.1,14.54,3-1.33,7.72-1.36,7.26-6.59C544.7,2412.19,530.33,2399.11,523.84,2398.8Z"/><path d="M305.07,2384.16c.07,19.65,2.29,38.45,5.13,57.18.31,2.08.9,3.8,3.05,4.63,2.53,1,7.95-.58,5.15,5.31-1.18,2.48-2.09,6.38-5.92,5.44-3.52-.86-6.57-3-7.13-7.33-1.84-14-4.18-27.92-5.43-41.95-.46-5.14-1.62-7.38-6.8-8.72-11.5-3-20.68-9.8-28.19-19-1.89-2.32-3.58-4.44-1-6.71,3.36-2.92,4.35.86,5.79,2.76,5.2,6.81,12.26,10.81,20.12,13.77,5.71,2.15,8.25.73,7.26-5.58-.15-1-.15-2-.33-3-.74-4.08.5-8.37,4.49-8.49,4.95-.13,3.84,5,4.09,8.4A16.12,16.12,0,0,1,305.07,2384.16Z"/><path d="M848.62,2436.81c-10.09,1.34-14.09-7.7-19.67-13.63-3.92-4.17-5.61-10.29-9.67-14.72a4.31,4.31,0,0,1-.69-5.48c1.23-1.84,3.35-2.06,5.29-2.15,2.9-.15,4.21,1.81,4.22,4.38,0,8.1,7,12.4,10.36,18.63,2.48,4.56,8,4,12.54,2.28,5-2,8.64-5.68,7.6-11.36-1-5.22-.71-11.24-7.07-14.29-3.39-1.63-2.6-5.12-.48-7.6s4-.42,5.77,1.1c11.67,10.19,12.06,29.6,1.14,40.13A9.25,9.25,0,0,1,848.62,2436.81Z"/><path d="M1047.15,2426.74c3,10.16-3.83,14.29-9.77,17.48-7,3.76-11.73-1-14.94-7.11-5.77-11-6.23-23.1-7.51-35a3.48,3.48,0,0,1,3.26-4.14c1.87-.22,2.95,1.11,3.7,2.67,1.75,3.58-2.08,10.55,3.71,10.87,7.32.42,15,1.82,22.36-1a67.41,67.41,0,0,1,6.55-2.09c2.07-.57,4.82-2.2,5.5,1.33.51,2.61-1.6,4-4.11,4.65-8,1.92-15.87,4.59-24,5.6-5.42.68-8,1.65-6.52,7.58,1.41,5.6,3.76,8.66,10.39,7C1040.35,2433.42,1042.38,2429.38,1047.15,2426.74Z"/><path d="M1022.16,2392.89a25.42,25.42,0,0,1-4.91.22c-1.89-.27-4.25-.67-4.31-3.16s2-3.25,4.12-3.21c12.55.29,24.85-2.06,37.25-3.4,3-.33,6.62-.28,6.35,4-.23,3.51-3.47,2.85-6.16,3C1043.71,2391,1032.94,2392,1022.16,2392.89Z"/><path d="M375.52,2382.22c5.41.29,13.45-2.15,13.42,3.21,0,5.66-8.09,2-12.52,2.86-8.69,1.76-17.45,3.17-26.22,4.47-4.62.69-6.71,3.77-6,7.56,2.11,10.6,2.3,21.74,7.64,31.51,4.76,8.71,10.41,9.06,16.6,1.18,1.63-2.06,2.82-4.46,4.35-6.6,1.34-1.86,0-6.64,3.87-5.38,3.56,1.16,1.63,5,1.17,7.84a3.87,3.87,0,0,1-.84,1.77c-5.22,6.19-6.33,17.35-17.63,16.31s-12.18-11-15.47-19.25c-4.2-10.54-4.5-21.82-7.74-32.51-1.58-5.21,1.37-10,6.88-9.69C354.38,2386.13,364.91,2380.1,375.52,2382.22Z"/><path d="M362.51,2397.56c3.33,1.12,7.7-3.41,8.75,1.68.69,3.41-3.11,4.55-6.36,3.77-3.89-.94-10.83,2.45-11.18-2.5C353.27,2394.23,360.13,2400.11,362.51,2397.56Z"/><path d="M731.47,2398.19c-5.93-1.08-9.6.53-11.3,4.4a19.39,19.39,0,0,0,1.84,19.34c12.09,17.74,25.11,12.3,38.14-1.33,1.07-1.12,1.35-3,2.48-4s3-2,4.2-1.67c2.83.83,1.15,3.09.77,4.81-2.48,11.22-20.18,24.53-31.35,23.58-12.47-1.05-24.89-14.49-25.24-28a83.54,83.54,0,0,1,1.56-16.44c2.11-12,5.76-14.45,18-13.08,4.46.49,8.93.95,8.63,6.81C738.9,2398.64,734.47,2398.63,731.47,2398.19Z"/><path d="M810.44,2418.64a22.19,22.19,0,0,1-11.14,18.5c-6,3.6-12.25,2.43-16.92-4-6.22-8.66-6.1-18.6-5.55-28.25.36-6.41,3.78-12.92,10.59-14.83s11.09,3.62,15.34,7.75C808.64,2403.48,809.6,2411.2,810.44,2418.64Zm-27.73-6c.59,5.9-.23,12.68,6.73,15.65,4.3,1.84,8.82,2.12,12.55-2.09,4.9-5.52,2.88-10.67,1-16.9-2.48-8.08-9.9-9.22-14.93-9.9C784.44,2398.89,782.16,2406.94,782.71,2412.61Z"/></svg>