<?xml version="1.0" encoding="utf-8"?>
<!-- Generator: Adobe Illustrator 22.0.1, SVG Export Plug-In . SVG Version: 6.00 Build 0)  -->
<svg version="1.1" id="Layer_1" xmlns="http://www.w3.org/2000/svg" xmlns:xlink="http://www.w3.org/1999/xlink" x="0px" y="0px"
	 viewBox="0 0 1084.7 2758.3" style="enable-background:new 0 0 1084.7 2758.3;" xml:space="preserve">
<title>c30-txt</title>
<path d="M941.2,1346.4c5.3-1,9-1.9,10.2,2.3c1.4,4.9-3.5,5.4-6.3,7.2c-3.7,2.4-7.6,1.5-11.4,0.4c-13.2-3.5-25.7-8.7-36.8-16.8
	c-6.2-4.6-10-5.4-12.7,3.9c-1.8,6.2-0.8,13.6-6.2,18.8c-2.1,2-3.4,5-6.9,3.3c-2.7-1.3-4.5-3.6-3.8-6.9c3.1-14.6,3.3-28.8-3.2-42.9
	c-1.9-4.1,0.6-7.6,5.5-8.5c4.2-0.7,7.1,0.1,7.3,5.2c0.1,2.4,0.1,5.4,3.3,6c2.5,0.5,3.4-1.8,4.7-3.5c9-12.2,25.7-18,39.9-13.9
	c1.8,0.5,3.9,1.1,3.5,3.2c-0.8,4.4,0.4,9.6-4.4,12.6c-4.6,2.8-9.1,5.6-13.8,8.1c-5,2.6-7,4.5-1.2,9
	C919,1341.9,930.9,1344.5,941.2,1346.4z"/>
<path d="M401.3,1134c1.1,8.9-2.2,15.3-8.7,20.3c-6.1,4.7-4.5,8.5,2,10.1c8.5,2,16.7,9.3,26.2,2.4c1.8-1.3,3.7,0.3,5.1,1.9
	c1.9,2.2,1.2,4.2-0.5,6.2c-3,3.4-6.6,4.7-11.4,4.7c-14.2,0-25.8-7.1-37.8-13.2c-2.6-1.3-5.1-2.9-7.7-4.4c-6-3.4-9.4-1.2-10.5,5.1
	c-0.9,5.2-1.1,10.4-1.5,15.7c-0.1,1.6,0.8,3.7-1.6,3.8c-1.6,0-3.1-0.7-4.1-2c-1.4-2.6-3.1-5.7-2.7-8.3c1.4-10.9-4-20.6-4.4-31.1
	c-0.1-4.3-2.5-8-4.7-11.8c-2-3.6-2.4-8.6,2.3-10.1c4.8-1.5,3.9,3.8,5.1,6.6c2.8,6.5,3.1,13.5,4.1,20.3c0.2,1.6,0.4,3.6,2.6,3.7
	s2.5-1.6,3-3.2c6.5-18.7,16.9-26.2,35.3-26.5C399.3,1123.9,403.9,1125.6,401.3,1134z M387.1,1131.9c-8.4,0.2-19.7,7.2-19.4,12.5
	c0.4,6.8,6.2,5.7,10.5,5.7c7.5,0.1,15.8-7.4,15.8-13.6C393.9,1131.5,390.4,1131.8,387.1,1131.9z"/>
<path d="M699.7,1341.1c-0.7,4.6,1,9.2-0.6,13.8c-1.1,3.3-2.5,6.3-6.5,5.6s-4.5-4.2-4.7-7.5c-0.4-8.9,0.1-17.9-1.1-26.7
	c-0.8-6.1-4.8-11.5-0.8-18.2c4.9-8.2,7.4-8.7,13.3-1.2c8,10.3,17.3,19.6,23.7,31.3c2.3,4.2,4.9,4.3,7.9,0c6.2-8.7,13-17,19.2-25.6
	s9.9-8.4,15.4,0.5c5.6,8.9,8.5,18.8,11.1,28.8c1.3,5.1,0.3,11.1,8.5,10.6c2-0.1,3.1,2.1,2.3,3.9c-2.4,4.9-7.5,6.8-12.2,7.4
	c-5.3,0.6-5.8-3.9-5.8-8.2c0.2-9.6-3-18.1-7.8-26.3c-3.4-5.8-7-5.7-10.4-0.5c-4.2,6.5-10.2,11.7-13.8,19
	c-5.5,11.2-12.9,10.6-19.4-0.4c-3.1-5.2-6.5-10.3-9.8-15.3c-1.7-2.5-2.9-6.6-7-5.2c-3.9,1.3-1.4,4.9-1.6,7.5
	C699.6,1336.8,699.7,1339,699.7,1341.1z"/>
<path d="M565.2,1166.2c-0.1-8.3-0.3-16.4-3.6-24.1c-0.9-2.1-0.8-4.4,1-5.3c5.1-2.6,9.8-5.8,14-9.6c2.7-2.4,5.5,0.8,6.1,4.1
	c1.2,5.7,5.3,9.8,7.8,14.8c3.1,6.1,8.5,11.3,15.5,10.3c6.8-0.9,12.3-5.9,15.5-12.4c0.7-1.4,0.8-3.3,1.7-4.6c1.7-2.4,3.1-5.5,6.6-5.3
	c3.7,0.3,3.9,3.7,5,6.5c1.9,4.8,1.1,9.8,1.6,14.7c0.7,6.6,1.1,13.2,5.2,18.8c1.4,1.9,3.7,3.4,1.2,5.7c-2.1,1.9-4.4,3.8-7.8,3.6
	c-3.6-0.2-4.4-2.5-4.8-5.2c-0.8-5.2-1.1-10.5-2.1-15.6c-0.8-3.8-1.1-8.6-7-2.9c-10.3,9.8-24.1,13.3-36-3.1c-1.5-2.1-3.1-5-6.1-4.2
	c-3.7,1-3,4.7-3,7.5c0,5.3,0.7,10.5,0.4,15.8c-0.1,2.8,1,7.5-4.2,7.3c-4.8-0.2-8.2-2.4-7.7-8C564.7,1172,565,1169.1,565.2,1166.2z"
	/>
<path d="M221.3,1154c-2.7,13.6-10.6,25.7-21.9,33.7c-6.7,4.8-12.2,0.8-15.3-5.4c-2.3-4.6-3.9-9.8-3.4-15.3c0.3-2.6,0.9-6.4-0.4-7.7
	c-11.5-11.2,2.4-21.7,0.7-32.6c-0.5-3.1,2.6-4.1,5.5-4.3c10.5-0.5,21.1,0,31.5-2.6c2.6-0.7,6.6,0,6.9,3.9c0.3,3-1.4,5.4-5.2,6
	c-8.2,1.3-16.3,3.2-24.6,2.7c-4.8-0.3-8.3,1.3-8.4,6.1c-0.1,5.6,4.6,4.6,8.1,4c11-1.7,22.1-3.7,33.1-5.6c1.9-0.3,4.2-1.3,4.6,1.7
	c0.3,2-1.7,2.5-3.3,3c-11.3,4.2-22.1,10-34.3,11.5c-3.2,0.4-7.3,0.7-7,5.3c0.4,6.8-0.6,14.4,5.8,19.2c4.7,3.5,6.6-1.9,9.6-4
	c5-3.3,8.6-8.3,10.3-14C214.5,1156.5,216,1153.1,221.3,1154z"/>
<path d="M514.9,1341.3c1.6-14.6-0.9-26.6-1-38.7c0-4.1-0.2-8.2,5.3-8.7c5.1-0.5,6.7,1.5,8.1,7c3.1,12.8,13.9,20.7,22.4,30
	c2.9,3.2,6.4,2.2,8.9-1.5c4.8-7,11.4-12.8,13.3-21.6c0.6-2.9,2.6-5.6,5.6-5.8c4-0.3,3.6,3.6,4.4,6.1c4.7,13.9,6.6,28.4,8.4,42.9
	c0.4,3-0.7,6.9,3.2,8.4c4.3,1.7,4-2.9,5.8-4.6c1-1,2.4-2.2,3.7-1.1c0.9,1,1.4,2.3,1.2,3.7c-1.3,5.9-4.7,11-9.7,13.5
	c-5.5,2.7-10.4,1.1-10.4-6.9c-0.1-12.9-2-25.6-4.9-38.2c-0.5-2.5-1.1-5.8-3.5-6.2c-3.4-0.7-4.3,2.9-5.6,5.4c-2,3.8-3.9,7.7-6.5,11.1
	c-4.9,6.3-11,7.9-17.4,2.1c-5.2-4.8-11.1-8.9-14.9-15.1c-1.2-2-2-5.2-5.3-3.9c-3.8,1.4-2.5,4.6-2.1,7.3c1.3,9.8,4.5,19.6,0.1,29.4
	c-1,2.2-0.7,5.5-4.3,5.1c-3.3-0.4-4.8-2.9-4.9-6.1C514.8,1349.4,514.9,1344.1,514.9,1341.3z"/>
<path d="M999.4,1302.1c-1-3.5-1.4-6.2,0.2-8.9c1.4-2.4,3.3-3.7,6-3.8c3.1-0.1,4.6,1.7,4.9,4.5c0.4,3.5,2.9,6.6,1.7,10.4
	c-4.6,14.7-3.1,30.3-6.8,45.2c-2.3,9.2-4.1,18.9-0.6,28.4c2,5.4-1,8.5-5.9,9.1c-5.2,0.7-6.8-2.8-6.2-7.5c1.5-13.1,2.8-26.2,4.6-39.2
	c0.8-5.9,0.6-9.3-6.7-9.9c-10.7-0.8-15.6-9.4-19.7-17.7c-4.4-8.9-7.5-18.3-14.9-25.4c-2.2-2.1-2.3-4.4,0.2-6.3
	c3.5-2.7,7.4-3.7,10.3,0.4c2.5,3.4,4,7.5,6,11.3c3.6,7,7.4,13.8,10.6,21c1.9,4.3,4.8,6.4,9,6c5-0.4,5.6-4.8,6.3-8.7
	C999,1307.8,999.2,1304.6,999.4,1302.1z"/>
<path d="M680.4,1319.8c-15.9,3.9-30.2,7.6-44.6,10.7c-3.5,0.8-7.6-0.4-7.8,4.8c-0.3,6.8-0.9,14,4.1,19.3c3.6,3.9,7.4-0.3,10.4-2.3
	c5.8-3.8,11.2-8.2,17.5-11.8c-4.6,11.6-11.9,21.3-23.1,26.7c-6,2.9-10.9-2.1-12.8-8.1c-1.5-4.7-1.9-9.8-2.7-14.7
	c-0.4-2.5,0.3-6.2-1.1-7.2c-7.2-5.4-11.2-10.4-1.2-17c0.2-0.1-1-2.4-1.7-3.6c-5.4-9.1-4.5-12,5.7-12.9c17.1-1.4,33.5-7.6,50.8-6.2
	c2.6,0.2,6.6-1.1,6.9,3.1c0.3,4.3-3.4,4.6-6.8,4.8c-14.2,0.8-28.3,3-42.1,6.6c-4.8,1.2-7.2,3.7-6.2,8.1s4.8,2.6,8,2
	c10.9-2.1,21.8-4,32.7-5.6C670.6,1316.2,675.1,1314.8,680.4,1319.8z"/>
<path d="M770.6,1127.6c14.8-0.1,30.8,16.1,30.9,31.4c0.1,9.8-15.4,23-27,23c-14.2,0.1-25.4-11.3-25.4-25.9
	C749,1140.5,758.7,1127.6,770.6,1127.6z M774.5,1141.1c-14.5-0.1-21.6,11.2-14.4,23.3c4.9,8.4,12.7,5.8,20.2,4.8s12.3-6.3,13.3-12.2
	c1.2-6.7-4.1-12-10.3-15.3C780.3,1140.1,777.4,1141,774.5,1141.1L774.5,1141.1z"/>
<path d="M873.5,1146.8c-4.5,9.4-10.4,11.4-17,12.6c-12,2.3-18.7,9.1-14,14.8c4.7,5.9-0.8,7-2,10.1c-0.8,2.2-2.6,2.9-4.8,2.4
	c-2.5-0.6-2.5-2.9-2.6-4.8c-0.2-3.3-0.1-6.5,0-9.8c0-1.6,0.8-4.3,0.2-4.7c-9.7-5.8-6.1-10.7-0.6-17.5c2-2.5-0.6-9.5-2.1-14.1
	c-2.6-8.3,2.2-11.4,8.7-11.8c13.8-1,27.6-0.9,41.4-1.3c3.4-0.1,6.2,0.6,6,4.6c-0.3,4.2-3.5,3.7-6.6,3.8c-10.8,0.5-21.5-0.7-32.1,3.3
	c-5.7,2.2-7.5,5.8-8.3,10.8s0.6,8.5,6.9,7.1C854.8,1150.5,863.4,1151.7,873.5,1146.8z"/>
<path d="M1015.2,1154.3c-0.7,3.9-3.3,4.4-6.6,4.6c-3.7,0.2-9-1.6-10,3.7c-0.9,4.9,0.8,10.6,5.1,13.2c9.1,5.5,0.9,10.7-1.2,13
	c-2.9,3.3-5.7-1-5.9-4.5c-0.2-5.3-1.5-10.5-4-15.1c-4.8-8.9-13-9.6-18.9-0.9c-3.8,5.7-6.5,12.1-9.7,18.2c-1.5,2.8-3.3,5.4-6.8,3.9
	c-3.3-1.4-1.7-4.4-1.3-6.9c0.9-5.1,4.7-8.6,7-13c0.9-1.7,2.7-3.4,1.1-5.4c-1.4-1.8-3.2-1.6-5.2-0.4c-2.7,1.6-6.4,2.6-7.5-1
	c-1.4-4.3,3-5.5,6.1-6c8.8-1.4,15.4-4.4,16.9-14.6c0.5-3.4,3.5-7.6,8.1-7.7c5.6-0.2,3.8,5.3,5,8.2c4.5,11,14.1,8.2,22.5,8.8
	C1012.1,1152.5,1014.5,1151,1015.2,1154.3z"/>
<path d="M817.9,1358.9c-11.8-0.3-20.5-9.6-19.9-21.5c0.8-17.5,12.6-30.8,26.8-30.4c8.6,0.3,27.1,19.9,27.1,28.8
	C852,1345.8,832.2,1359.2,817.9,1358.9z M821.5,1345.5c12.7-0.2,19.2-3.9,19.4-10.8c0.1-5-10.8-14.2-16.8-14.3
	c-6.6-0.1-14.6,8.1-14.2,15C810,1342.7,813.6,1346.7,821.5,1345.5L821.5,1345.5z"/>
<path d="M153.8,1150.4c2.5,8.8-2.5,18.9,6.8,25.9c2.7,2,0.6,5.7-2.3,7.3s-5.9,1.7-7.9-1.3c-1.2-2-1.9-4.2-2-6.5
	c-0.4-4.9-0.1-9.9-0.4-14.8c-0.4-6.7,0.4-16.5-4.6-18.7c-6-2.7-14.5,1.5-21.4,4.5c-1.8,0.7-3.1,2.4-4.8,3.3
	c-10.5,5.4-11.5,7.8-6.6,19c1.3,3,3.8,5.7,1.2,9c-1.6,2-3.5,0.7-5.4,0.2c-4.3-1.2-3.7-4.5-3.9-7.9c-0.5-12.3-1.3-24.7-2.1-37
	c-0.2-2.4-0.9-5,2.2-5.6c3.6-0.7,5.1,2.2,4.6,4.8c-1.8,11.5,4.7,9.1,11.3,7.4c4.8-1.2,9.6-2,14.5-2.9c2.8-0.5,5.2-1.1,5.4-4.6
	c0.2-4.5,2.3-8.4,7.1-7.4s7.7,5,8.1,9.9C154.2,1140.1,153.8,1145.4,153.8,1150.4z"/>
<path d="M52.5,1115.8c12.7-1.3,22.7,0.2,32.2-3.3c2.7-1,5.3-0.5,6.5,2.6s-0.8,4.9-3.3,6.2c-1.2,0.6-2.4,1.7-3.6,1.6
	c-14.4-1.5-15.8,7.5-15.2,18.4c0.7,13.4,1.3,26.9,1.6,40.4c0.1,3.4,2.5,4.3,4.2,6.1c3.9,4.2-0.1,6.8-2.5,8.9c-3.5,3-4.1-1-5.3-3.1
	c-5.8-10.4-3.6-21.9-3.2-32.7c0.4-9.1-2-17.5-2.6-26.3c-0.3-5.5-3.7-9.6-10.9-8.1c-6.5,1.3-13.1-0.4-19.5-2.2
	c-2.3-0.7-6-0.1-5.4-4.1c0.5-3,3.4-4.1,6.1-4.2C39.7,1115.6,47.6,1115.8,52.5,1115.8z"/>
<path d="M452.9,1177.6c-9.2,0.5-16.1-3.7-19.5-12c-5.8-14.1-4-25.6,4-31.7c7.4-5.7,28.8,1.3,34.8,11.3
	C482.4,1162.4,473.8,1176.8,452.9,1177.6z M453.5,1166.2c6.3,0.2,12.4-1.9,15.7-6.8c2.9-4.2-3.4-7.3-5.4-10.3
	c-4.4-6.5-12.7-5.3-19.8-5.5c-2,0-3.7,2.3-4.4,4.8c-2.1,7.4,2.2,15.2,9.6,17.3C450.6,1166.1,452,1166.2,453.5,1166.2z"/>
<path d="M521.3,1131.9c6.3-1.7,9.1,2.1,12,7.9c3,6,8.4,10.7,11.3,17c3.9,8.2,1.7,15-6.6,18.3c-9.7,3.9-19.4,4.8-27.7-2.7
	s-11.2-17.8-10.8-28.6C499.8,1136.4,509.3,1131.6,521.3,1131.9z M525.7,1167.1c4.6-0.7,10.7,0.4,11.1-6.7c0.3-5.8-12.2-17.7-18-17.4
	c-4.7,0.2-8.3,2.3-8.8,7.5C509.3,1159,516.9,1166.9,525.7,1167.1z"/>
<path d="M1037.4,860.9c-13.5,1.5-20.9-12.3-24.5-25.8c-2.8-10.3-0.7-21.3,5.9-29.8c4.5-6,10.1-8.9,17.6-6.5c5,1.5,8.6,4.8,6.6,10.2
	c-1.6,4.4-4.9,8.4-10.7,5.4c-5.1-2.6-7.2,0.3-9.2,4.3c-2.2,4.1-2.8,8.9-1.7,13.4c2.3,11,3.8,11.4,13.3,5.3
	c7.2-4.7,14.8-8.7,23.8-9.3c5.2-0.4,7.7,1.7,10.2,5.8s1.1,6.9-1.4,9.9C1059.5,853.1,1050.2,860.1,1037.4,860.9z M1050.1,841
	c-3.9,1.7-7.8,3.3-11.6,5.2c-1.4,0.7-2.5,2.3-1.2,3.7c2.7,3,6,1.5,8.2-0.2c2.8-2.2,8.7-1,8.2-6.8
	C1053.6,841.3,1051.7,840.8,1050.1,841z"/>
<path d="M927.3,836c-0.3-7.8,1.2-15.6-4.3-22.9c-3-3.9,0.5-8.5,4.3-10.9c4.1-2.5,8.1-0.8,11.7,2.1c8.8,7.2,17.7,14.2,26.5,21.3
	c2.2,1.8,4.3,4.2,7.3,2.5c2.8-1.5,2.8-4.6,2.9-7.4c0.2-6.1-2.1-12.2,0.3-18.3c1.4-3.6,2.9-7,7.2-7.5c2.7-0.3,6.1-0.1,7.5,2.5
	c1.4,2.7-1.2,4.4-3.5,5.5c-3.5,1.6-3.5,4.4-3.5,7.7c-0.2,8.9-0.1,17.7-1.5,26.7c-1.3,7.9-4.7,7-9.2,4.4c-7-4.2-13.7-9-20.5-13.6
	c-1.5-1-2.8-2.5-4.4-3.4c-2.7-1.4-5.3-4.3-8.3-3.1c-3.9,1.5-1.7,5.5-1.9,8.3c-0.4,5.5,0.4,11-3,16c-1.2,1.7-1.1,4.6-4,4
	s-4-2.8-4-5.5S927.1,838.8,927.3,836z"/>
<path d="M669.8,834.5c-2.3-10.9,0.8-21.8-8-30.3c-3.6-3.5,0.3-7.9,4.3-7.3c8.5,1.3,16.5-0.8,24.6-1.8c11.5-1.3,21.6,1.9,29.5,9.2
	c5.6,5.2,4.7,14,1.2,20.7c-7,13.3-18.8,21.9-32,28.1c-8.6,4-20.8-6.3-20-16C669.5,836.1,669.6,835.3,669.8,834.5z M694.3,801
	c-5.4,1.1-10.8,2-16.2,3.3c-3.6,0.9-6,2.9-5.4,7.3c1.4,9.4,2.8,18.7,4,28.1c0.5,3.7,1.3,4.8,5.8,4.5c14-1,22.6-10.5,31.3-19.3
	c5.6-5.7,4.1-15.1-1.9-18.4C706.5,803.6,700.8,801,694.3,801z"/>
<path d="M49.4,812.5c-5.4,2.5-12.3,2.6-14.9,10.4c-1.9,5.8-5.3,11.1-8.3,16.4c-1.5,2.6-3.9,4.4-6.9,2.2c-2.3-1.7-2.1-4.2-0.9-6.7
	c3.9-7.7,6.5-16.6,9.9-23.7c4-8.5,7.1-18.6,13.8-26.1c3.2-3.5,5.6-3.5,7.8,0.5c2,3.8,3.7,7.7,5.5,11.5c0.8,1.7,1.4,4.8,2.2,4.9
	c12.3,0.5,5.8,8.4,5.5,13.7c-0.3,5,1.5,8.5,6.7,8.9c3,0.2,5,0.7,4.4,4.1s-1.9,6.5-5.5,8c-3,1.2-4.1-0.6-5.8-2.8
	c-3.8-5-5.6-10.8-7.5-16.6C54.5,814.2,53.2,812.2,49.4,812.5z"/>
<path d="M811,853c-12.5-0.1-20.7-2.4-27.7-8.6c-2.4-2.1-5.2-4-3-7.6s4.7-7.3,9.4-8.2c0.9-0.1,1.8,0.3,2.3,1c0.8,1.6-0.6,2.7-1.5,4
	c-5.2,7.6-4.7,8.3,4.3,10.1c6.6,1.5,13.6,1.1,19.9-1.3c5.1-1.9,5.7-4.8,1.1-7.7c-10.5-6.6-11.8-17.5-13.3-28.1
	c-1.7-12.3,19-20.9,29-19.1c3.5,0.6,2.6,3.7,2.6,6c0.1,2.8-0.9,4.8-4.1,4.8c-2.8-0.1-5.5,0-8.3,0.2c-4.3,0.5-9.2,1.1-10.2,6.3
	s-4.4,11.1,2,16c5.5,4.3,9.6,10.3,16.6,12.4c3.1,1,4.4,2.5,3.7,6.1s0.2,7.6-4.7,8.8C822.1,850.1,815.4,854,811,853z"/>
<path d="M467.4,820.2c0.4,9.5-1.4,12.5-9.1,10.5c-12.9-3.3-25.4-7.3-37.3-13.1c-5-2.4-7.5-2-7.1,4.4c0.3,4.6,0.3,9.3-2.3,13.5
	c-1.1,1.7-1.1,4.8-3.9,4.5c-3.3-0.4-2.8-3.5-3.1-5.9c-0.5-4.9-0.8-9.8-1.3-14.8c-0.3-2.7-0.5-5.7-2.7-7.7c-3.4-3-4.3-6.5-0.5-9.4
	s7.5-6.5,13-2c11.2,9,24.1,14.9,38,19c8,2.3,8.8-0.5,7-7c-1.3-4.7-2.6-9.5-3.8-14.3c-0.4-1.2,0.2-2.5,1.3-3c1.1-0.5,2.4,0,2.9,1.2
	c0,0.1,0,0.1,0.1,0.2C462,805,465.1,814,467.4,820.2z"/>
<path d="M328.4,845.2c4.7-6.6,5.6-15.4,9.3-23c3.1-6,5.8-12.2,8.1-18.5c1.3-4.6,5.1-8,9.7-8.9c5.6-1.2,5,4.6,6.6,7.3
	c4.3,7,6.8,15.8,18.1,13c1.5-0.5,3,0.4,3.5,1.8c0,0.1,0.1,0.2,0.1,0.3c0.3,2.6-1.6,3.8-3.9,4.3s-5.3,0.3-5.7,3.6
	c-0.4,3,1.4,4.5,4.2,5.1s3.7,2.3,2.3,4.7c-1.6,2.8-2.2,6.9-6.5,7c-2.9,0.1-2.4-2.9-3.4-4.7c-2.5-4.5-1.8-12.2-9.6-11.5
	s-16.2,1-19.4,10.9c-1.3,4-4.2,7.4-6.3,11.2c-1.1,1.9-2.5,2.6-4.5,1.8C329.3,848.8,328.5,847.5,328.4,845.2z M350,815.5
	c-0.1,3.2,2.1,3.5,4.3,3.3c2.5-0.3,4.9-1.4,4.5-4.5c-0.3-2.1-1.3-4.4-3.9-4.3C351.4,810.1,350.5,812.8,350,815.5z"/>
<path d="M254.1,804.5c4.3-0.2,8.6-0.4,12.8-1.9c2.6-0.9,6.1-2.5,7.4,0.7c1.7,4.3-3.2,4.2-5.5,5.7c-4.9,3.1-10.6,3.2-16.1,3.2
	c-7.8,0.1-11,2-9.9,11c0.5,3.9,5.9,12.6-1.7,13.1c-7.3,0.5-3-8.2-3.9-12.8c-1.8-8.4-1.6-17.1-4.3-25.4c-1.5-4.5-2.6-6.6,5.1-8.5
	c12.6-3.1,25.5-3.4,38.1-6c3-0.6,7.3-1.6,7.7,2.3c0.5,4.3-3.5,4.6-7.2,4.8c-9.8,0.4-19.7,0.6-28.8,5c-2.6,1.2-7.1,1.7-6.1,5.7
	c1,4.2,5.5,2.7,8.7,3.1C251.6,804.6,252.8,804.6,254.1,804.5z"/>
<path d="M117.8,834.9c-5.4-0.7-10.7-1-15.8-2.1c-2.6-0.5-5.6-1.6-6.1-4.9c-0.4-2.8,1.3-4.8,3.8-5.7c4.2-1.4,3.8-4,2.4-7.3
	c-1.8-4.2-3.6-8.5-5-12.8c-3.1-9.1,0-16.9,7.8-19.9c2.4-0.9,5.7-3.1,7.3,0.3c1.2,2.5,1.5,6.3-1.9,8.2c-9.9,5.5-4.7,12.9-2.4,19.6
	c3.8,11.2,12.8,14,23.6,13.1c2.3-0.2,4.9-0.6,4.5,2.6c-0.3,2.9,1.4,7.5-3.8,8C127.4,834.6,122.5,834.7,117.8,834.9z"/>
<path d="M869.2,819.6c-2.5-10.2,6.5-13.2,13.9-16.3c7-2.9,10.1,3.8,13.5,8.3c2.8,3.7,5.5,7.4,6.4,12.1c2.2,11.3-0.3,16.7-9.7,19.5
	c-8.1,2.4-19-2.7-22.1-10.6C869.6,828.5,868.9,824.1,869.2,819.6z M877.2,824.1c0,6,4.3,8.9,10.4,9.5c5.1,0.5,8.7-2.4,8.4-7.3
	c-0.3-4.7-1.8-10.8-7.8-10.8C884,815.5,876.9,814.9,877.2,824.1z"/>
<path d="M562.1,823c-0.3,7.7-4.5,14.7-11.1,18.5c-6,3.6-12.3,2.4-16.9-4.1c-6.2-8.7-6.1-18.6-5.5-28.3c0.4-6.4,3.8-12.9,10.6-14.8
	s11.1,3.6,15.3,7.8C560.3,807.8,561.2,815.5,562.1,823z M534.3,817c0.6,5.9-0.2,12.7,6.7,15.7c4.3,1.8,8.8,2.1,12.5-2.1
	c4.9-5.5,2.9-10.7,1-16.9c-2.5-8.1-9.9-9.2-14.9-9.9C536.1,803.2,533.8,811.3,534.3,817L534.3,817z"/>
<path d="M602.3,815.2c-0.5,5-0.3,10.1,0.6,15c1.9,10.1,6.3,12.9,16.1,8.9c5.3-2.2,11.2-3.9,13-10.7c0.3-1.6,1.9-2.7,3.5-2.4
	c0.3,0.1,0.6,0.2,0.9,0.3c1.5,0.8,1.3,2.6,1.2,4.1c-0.5,9-20.1,24.7-28.7,22c-5-1.8-8.8-6-9.9-11.2c-2.8-12.7-2-26-6.5-38.5
	c-1.1-3,0.9-6.2,4.6-6.7c4.2-0.6,2.4,3.2,3.3,5.1C602.6,805.7,600.9,810.8,602.3,815.2z"/>
<path d="M202.4,808.1c0.9,7.7-2.3,14.8,3.5,21c2.1,2.2-1.4,4.2-3,5.8s-3.4,2.6-5.8,1.5c-2.6-1.2-3.1-3.2-2.9-6
	c0.6-8.2,0.9-16.4,1-24.6c0.1-3.6-0.2-7-2.2-10.5c-2.2-3.8,1-6.7,4.1-7.9c4.6-1.8,5,2.2,5.1,5.2
	C202.5,798.2,202.4,803.7,202.4,808.1z"/>
<path d="M385.3,981.1c4,1.1,10.9-2.5,13.5,3.9c2.6,6.6-0.3,13.5-4.2,19c-10.9,15.1-37.7,22.6-56.7,6.7c-1.7-1.2-2.5-3.2-2.1-5.2
	c2.9-13.9-1.7-27.1-3.4-40.6c-0.3-2.7-1.5-5,1.9-6.3c2.7-1,4.9-1,6.2,2.3c1.5,3.8,4.9,3,7.2,1.8c4.6-2.4,9.8-2.5,14.6-3.9
	c10.3-2.9,13.5,0,12.3,10.8C373.1,981.2,373.1,981.2,385.3,981.1z M381.7,988.1c-14.8,0.3-29.7,9-31.8,18.3c-1,4.1,0,6.5,3.9,6.3
	c12.2-0.5,24.4-1.7,33.1-11.6c2.4-2.8,7.3-5.4,5.7-9.6C390.7,986.7,384.8,990.1,381.7,988.1L381.7,988.1z M362,967.5
	c-3.5,1.5-8.4,1.1-12.1,4.1c-3.1,2.5-10.3-0.2-9.8,6.9c0.4,4.5,1.1,8.9,2.3,13.3c0.6,2.3,2.4,2.9,4.5,1.4
	c7.6-5.1,14.2-11.7,19.4-19.3c1.1-1.7,2-3.6,0.9-5.5S364.3,967.2,362,967.5z"/>
<path d="M134.1,987.9c0.1-1.7,0.9-3.8,0.2-5c-5.9-9.3,4.8-10.1,7.7-14.8c1.4-2.3,4.1,0.1,5.4,2c3.9,5.8,9.4,9.8,15,13.5
	c4.2,2.8,8.4,4,11.7-2.5c3-5.9,7.9-10.9,12-16.2c1-1.5,2.7-2.2,4.4-1.8c2,0.5,3.3,2.5,3,4.6c-1.1,8.7,4.8,16.7,2.5,25.7
	c-0.9,3.7,1.3,6.5,6.1,5.4c6.2-1.5,5.6,2.3,3.4,5.6c-2.4,3.6-4.9,8.6-10.4,7.2s-5.2-6.5-5.3-11.2s-0.5-9.5-0.8-14.3
	c-0.1-2-0.2-4.3-2.6-4.7s-3.3,1.7-4.2,3.5c-6.4,12.5-16.8,15.2-28.8,4c-2.1-2-4.5-5.3-7.9-3.6c-3,1.5-1.3,5.2-1.6,7.8
	c-0.6,4.5-0.6,9-1.2,13.5c-0.4,2.3-2,4.3-4.7,4s-3.5-2.1-3.4-4.9c0.3-5.9,0.1-11.8,0.1-17.7L134.1,987.9z"/>
<path d="M88.6,961.8c2.1,0.2,3.7,1.9,3.8,4c0.2,4,3.1,6.6,4.4,10c2,5.6,5.3,9.3,12.1,7.6c2.1-0.5,5-0.5,5.7,2.3c0.7,3-2.2,2.5-3.9,3
	c-5.7,1.9-6.8,4.6-1.8,8.8c1.9,1.6,3.3,3.9,5.3,5.4c2.4,1.9,3.6,3.7,0.9,6.1c-2.9,2.6-5.5,2.6-7.8-0.8c-1.6-2.3-3.1-4.7-4.8-7
	c-6.9-9.2-17.6-9-24.5,0.4c-1.9,2.6-3,7-7.3,5.2c-4-1.7-1.8-5.4-0.8-8.2c3.8-11.6,8.1-23.1,14.3-33.7
	C85,963.3,86.3,961.8,88.6,961.8z"/>
<path d="M456.6,1001.5c-1.5-3.8-2-8.9-6.5-10.7c-4.9-2-10,0-14.3,2.6s-8.1,5.8-10.7,10.5c-1.1,2-3.4,5.6-6.6,3.7
	c-3.4-2-1.7-5.3-0.6-8.2c3.1-8.4,7.1-16.6,8.7-25.3c1.2-6.3,5.9-8.6,9.5-12.2c2.6-2.6,5.3-1,7.2,1.5c2.8,3.6,6.6,7,7.7,11
	c2.6,9.7,9.2,9.8,16.9,9c1.9-0.2,5-2.4,5,1.7c0,2.4-1.9,4.1-4.7,3.6c-8.5-1.4-9.7,1.8-5.7,8.6c0.6,1.3,1.1,2.6,1.3,4
	c0.6,2.2,1.1,4.5-0.5,6.5s-3,0.5-4.5-0.3C456.3,1006.4,454,1005.2,456.6,1001.5z M439.2,985.9c2.3-1.3,7.5,0.2,7.3-4.1
	c-0.1-2.6-3.8-6.1-7.2-6s-4.8,3.7-5.1,6.8S436.3,986.1,439.2,985.9L439.2,985.9z"/>
<path d="M254.4,966.5c-5.7,0.4-11.3,1-16.5,3.4c-1.3,0.6-3,1-2.8,2.7c0.3,2.1,2.5,2.3,4,2.1c4.4-0.6,8.9-1.6,13.3-2.5
	c2-0.4,4.5-2.6,5.7,0.8c1,3-1.4,4.8-3.8,5.6c-4.3,1.5-8.6,2.5-13,3.6c-3.1,0.8-6.2,1.6-5.9,5.8c0.3,4.5,0.5,9.5,4.9,12
	c3.5,1.9,6.1-1.4,9-2.9c3.1-1.6,4-9.6,8.2-5.3c3.3,3.3-2.7,7.7-5.1,11.3c-1.2,1.8-3.3,3-5,4.5c-6.4,5.8-13.6,4.7-16.9-3.3
	c-3.8-9.3-4.7-19.4-6-29.3c-0.5-4.3,9.5-14,14-14.7c5-0.7,10-1.6,15-2.3c4.1-0.6,9.5-2,9.7,4.2C263.4,967.7,258.2,966.6,254.4,966.5
	z"/>
<path d="M816.2,968c8.6-5.3,18.5-8.4,28.6-9c5.5-0.3,11.2,0.3,16.8-0.1c3.3-0.2,6.7,0.9,6.4,4.9s-3.9,3.4-6.6,2.8
	c-13.5-2.8-26.2-0.7-38.5,5.4c-3.2,1.6-5.7,2.4-5,6.3c0.7,3.6,3.2,2.8,6.2,3.3c12.5,2.2,25.3,1.1,37.2-3.2c1.3-0.5,3-0.6,3.6,1.1
	s-0.8,2.5-2.1,3c-11.5,4.1-22.2,12-35.5,7.7c-2.4-0.8-5.6-2.1-6,1.8s-0.5,8.6,3.1,11.5c1.2,1,5.5-1.7,4.6,2.1
	c-0.5,2.3-2.6,5.8-6.5,5.6c-2.9-0.2-5.1-2.3-5-4.9c0.3-5.8-2.3-11-3.1-16.5c-0.8-6.4-2.1-12.7-3.8-18.9c-1-3.3-1.7-7.2,1.1-8.3
	C816.6,960.8,814.7,966.9,816.2,968z"/>
<path d="M547.4,984.9c-3,6.3-0.9,10.9,1.7,15.2c1.5,2.4,2.3,4.6,0.3,7c-0.8,1.2-2.3,1.8-3.7,1.3c-2.8-1.1-3.3-3.5-3.7-6.1
	c-1.5-9.5-3.3-18.9-4.7-28.4c-0.5-3.7-3-5.1-5.9-6.5c-2.7-1.3-4.2-3.5-2-6.1s5-3.7,7.9-0.4c3.5,4.1,4.1,9.2,5.1,14.1
	c0.7,3.3,2.3,6.7,5,3c5-6.6,13.3-8.5,18.1-15.1c1.6-2.3,4.7-4.8,6.9-1.9c1.8,2.3,0.6,6-2.1,8.2c-3.3,2.7-6.7,5.2-10.1,7.7
	c-1.9,1.3-4.1,2.4-3.2,5.2c0.8,2.6,3.2,3.2,5.4,3.6c6.4,1,12.8,1.8,19.3,2.7c1.7,0.2,3.8,0.3,4,2.3s-2,2.6-3.5,3
	c-7.2,1.7-14.3,2.6-21.8,1.6C553.9,994.7,551,989.9,547.4,984.9z"/>
<path d="M14.6,971.1c-0.2-8.9,4.6-16.5,10.4-17.5c5.3-0.9,18.8,6.2,20.9,11.2c1,2.1,0.5,4.7-1.3,6.2c-2.3,2.2-4.1,0.6-6-0.7
	c-0.7-0.5-1.2-1.2-1.6-1.9c-2.5-4.8-6.7-6.6-11.3-4.3c-5.2,2.5-6.2,8.5-5.1,13.2c1.3,5.6,3.9,10.7,7.5,15.2c9,11.1,24,9.8,32-2.1
	c0.9-1.4,1.7-2.9,2.8-4.2c0.9-1.1,2.1-2.2,3.6-1.2c1.3,0.8,1.4,2.2,1,3.7c-4.6,15.9-24.7,24.3-38.3,14.9
	C17.9,995.7,15.3,983,14.6,971.1z"/>
<path d="M681.3,991.4c1-23.7,0.2-22-22.6-19c-5,0.6-10.1,0.9-15.2,0.8c-2.1,0-4.9,0-5.3-3.1c-0.4-3.4,2.3-4.4,4.8-4.8
	c7.8-1.3,15.6-2.6,23.4-3.3c10.6-1,21.2-1.4,31.8-2c1.8-0.1,3.4,0.4,3.9,2.5c0.5,2.4-1.3,3-3,3c-10.7,0.1-13.1,6.1-12.6,15.6
	c0.3,5.5-1.2,11.1-0.5,16.8c0.6,4.8-2.1,12.4,7.8,8c0.5-0.2,2,0.7,2,1c-0.2,1.3-0.3,3.2-1.2,3.8c-2.5,1.8-5.6,4-8.5,2.5
	c-2.9-1.4-4.7-4.3-4.8-7.5C681.3,1001,681.3,996.2,681.3,991.4z"/>
<path d="M479.6,984.4c1.1-5.7,0.7-11.6,3.9-17.1c2.7-4.7,5.8-5.8,10.4-4.2c5.1,1.9,4.9,6.8,4.5,10.7c-0.3,3.8-2.5,2.4-4.5,0.5
	c-3-2.9-5.2-1.4-6.2,2c-1.9,6.8-1.8,13.3,3.6,18.8c5,5.1,10.7,6,16.9,3c7.2-3.3,16.1-3.7,20.9-11.5c0.6-1,1.8-1.3,2.7-0.7
	c0.1,0.1,0.2,0.1,0.3,0.2c1.5,1,0.9,2.4,0.3,3.7c-3.8,8.2-26.1,20-35.1,18.5C486.8,1006.5,480.9,994.7,479.6,984.4z"/>
<path d="M990.8,1015.5c-12.1,0.2-17.2-5.2-17.8-17.3c-0.4-8.3-1.2-16.7-3.9-24.6c-0.7-1.9-0.7-3.3,1-4.3c1.4-0.9,2.9-2.2,4.6-1.4
	c2.1,1,0.9,2.9,1,4.5c0.5,7.8,1,15.6,1.7,23.4c0.4,5.1,4.3,9.1,9.3,9.7c8.2,1,16.4,0.1,24.2-2.4c4.2-1.4,5.6-5.2,7.5-8.5
	c0.8-1.5,2.1-3,4.1-2.1c2.3,1,1,2.8,0.7,4.4c-2.3,10.3-12,17-27.4,18.8C994.2,1015.5,992.5,1015.6,990.8,1015.5z"/>
<path d="M919.2,971.7c-0.2-4,0.8-6.5,3.8-6.7c4.5-0.3,2.5,3.1,2.8,5.3c0.9,8.7,1.9,17.3,2.8,25.9c0.5,5,3,8.2,8.1,7.5
	c8.8-1.1,18.1-0.9,24.4-8.9c1.1-1.4,2.7-2.5,4.3-1s0.1,3.2-0.8,4.4c-7.2,9.5-16.7,14.6-28.6,15c-5.6,0.2-8.5-3.2-10.4-8.2
	C921.4,993.9,924.1,981.6,919.2,971.7z"/>
<path d="M718.1,988.5c0.2-2.6,1.5-6.4-0.1-10.4c-1-2.6,1.2-3.2,3.3-3.6c7.6-1.5,24.4,6.9,27.2,13.8c3.4,8.3-3.9,11.6-8.1,15.7
	c-4.7,4.5-10.5,2.8-15.5-0.4S718.2,995.4,718.1,988.5z M723.8,988.4c0.5,3.6,1.1,7.7,5.8,8.7s10.3,1.5,13.1-3s-3.5-5.4-5.3-8.2
	c-0.7-1.1-2.3-1.5-3.4-2.4c-1.9-1.5-3.3-4.4-6.3-2.9C724.7,982,725.3,985.5,723.8,988.4z"/>
<path d="M895.1,1008.8c2,0,4.8-3.9,6.1,0.2c1,3.2-2.3,5.1-4.8,6.1c-2.7,1-5.4-0.2-5.3-3.5c0.3-10.8-2.5-21.1-5.2-31.4
	c-1-3.8-1.5-7.7-4.2-10.9c-1.9-2.2-2.3-4.9,0.4-6.6c3.3-2.2,5,0.9,5.5,3.1C891,979.7,895.4,993.5,895.1,1008.8z"/>
<path d="M588.5,1988c-14.5,11.8-51,8-62.8-6.3c-2.4-2.9-3.8-6.1-0.5-8.5c4.1-3,4.5,1.9,6.1,3.9c4.3,5.3,22.5,10.3,29.3,7.8
	c1.4-0.5,3.4-1.7,3.7-2.8c0.7-3-2.2-3.3-4.2-4.4c-11.2-5.6-19.9-13.7-25.4-25.1c-2.7-5.6-3.3-11.3,1.1-15.6c4.8-4.7,11.1-7.2,18.1-5
	c2.9,0.9,5.8,3,5.6,6.2c-0.3,3.8-4,3.5-6.9,3.9c-10.8,1.4-13.2,5.2-6.5,13.9c10.3,13.3,24.4,21.8,40.6,26c5.4,1.4,5.7-4.4,3.7-7.1
	c-6-8.1,1.1-17.1-2.5-25.2c-0.4-1.3-0.1-2.7,0.8-3.7c3.9-2.9,10-2.6,12.3-8c2.7,1.8,6.2,3,8,5.4c6.8,9.1,14.8,14.9,27.2,11.6
	c-0.5,2.4-0.4,3.2-0.7,3.6c-2.7,3.1-10.5-0.8-9.9,5.4c0.7,6.9,6.3,12,11.7,16.3c2.4,1.9,6.7,2.3,4.7,7.1c-1,2.4-1.3,5.4-4.5,6
	c-3,0.5-5-1.1-6.4-3.6c-2.9-5.2-5.6-10.4-8.7-15.5c-2.6-4.3-5.9-8.8-11.5-7.7s-8.8,5.3-8.8,11.4c0.1,2-0.2,4-0.7,5.9
	c-1.2,3.5-0.3,8.4-4.8,10C591.6,1995.5,591.7,1989.3,588.5,1988z"/>
<path d="M65,1960.4c0,2.6-2.1,3.2-3.8,4.1c-9,4.4-10.2,9.9-3.9,18c1.4,1.8,3.3,3.3,4.6,5.2c1.7,2.5,1.8,5.8,0.4,8.5
	c-0.6,1.6-2.3,2.3-3.9,1.8c-0.1,0-0.2-0.1-0.3-0.1c-2.6-1.2-5.9-2-5.9-5.8c0-4.5-3.1-8-4.1-12.1c-1.3-5.5-3.9-10.8-10.2-10.2
	c-6.6,0.6-13.9,1.6-18,8.1c-2.3,3.6-3.8,7.7-6,11.3c-2,3.3-5,5.7-9.1,3.6c-3.3-1.7-5.5-4.3-4.6-8.8c3.6-17.7,8.6-35.2,15.1-52.1
	c0.8-2,1.6-3.7,3.9-3.7c2.8,0,3.1,1.9,2.8,4.1s-0.4,4.9,1.7,5c9.8,0.8,11.4,9.6,15.4,15.7c4.5,6.9,10.5,8.2,18,6.2
	C59.8,1958.4,62.8,1957.2,65,1960.4z M19.3,1942.7c-3,5.5-5.6,10.6-4.7,16.6c0.2,1.2,2.4,1.8,3.3,0.7c3.8-4.7,5.9-9.8,3.4-15.9
	C21.1,1943.8,20.8,1943.7,19.3,1942.7L19.3,1942.7z"/>
<path d="M507.7,1972.6c-0.3,5,1,8.5-2,10.4c-3.5,2.2-5.9-1.1-8.7-2.6c-10.8-5.6-22.2-10.1-32.3-17c-1.6-1.1-3.5-2.7-5.4-1.4
	s-1,3.6-0.7,5.6c0.7,5.2,1.8,10.4,1.8,15.7c0,2.9,0.6,7.5-3.7,8.1c-3.8,0.5-5.6-2.7-6.4-6.2c-1.4-5.7-3.2-11.3-4-17
	c-0.3-3.6-1.5-7.1-3.3-10.2c-4.5-7-1-11.9,3.9-16.2c5.1-4.6,8.1,0.6,11.7,3.1c10.6,7.4,21.2,14.7,31.9,21.9c1.1,0.6,2.4,0.8,3.5,0.4
	c2-1,2.3-3,1.8-5.1c-1.4-6.4-2.7-12.8-4.3-19.1c-0.9-3.5-1.4-7.1,3-7.9c4.8-0.9,5.1,3.2,5.3,6.4
	C500.6,1953,505.1,1963.6,507.7,1972.6z"/>
<path d="M180.6,1931.8c13.9,1.2,23.5,2.7,30.5,9.8c5.7,5.8,5.9,22.9,1.1,31.1c-3.3,5.7-7.1,11-12.4,15.2s-11.7,8.6-17.9,5.5
	c-7.1-3.6-13.4-9.6-13.4-19c0-11-3.9-20.6-10.4-29.1c-3.4-4.6-2.2-9.3,1.8-8.9C168.8,1937.1,176.2,1931.2,180.6,1931.8z M187,1942.7
	c-12.2-0.4-15.7,3.5-13,13.7c2,7.6,4.7,15,6.8,22.6c1.4,5,4.4,5.3,8.2,3.3c9.9-5.3,15.8-13.8,18.5-24.4c1.9-7.3-2.7-11.2-8.9-13.1
	C194.5,1943.6,190.2,1943.3,187,1942.7L187,1942.7z"/>
<path d="M944.1,1948.5c1.5-3.4,2.4-6.2,3.8-8.7c2.3-4.1,6.3-5.4,8.3-1c8.1,17.7,22.5,13.2,36.3,11.4c3-0.4,7.1-3.4,8.1,1.6
	c0.8,4.3-3.5,3.3-6.3,3.9c-3.8,0.9-6.5,4.4-10.8,4.6c-2.8,0.1-5.3,1.4-4.9,4.9c0.3,2.8,2.6,3.7,5,3.9c2.9,0.2,6.4-0.8,6.1,4
	c-0.2,3.7-0.6,7.6-4.8,9s-5.8-1.9-7.6-4.7c-6.1-9.8-12.8-16.7-26.4-12.2c-7.3,2.4-10,6.5-12,12.6c-1.8,5.4-3.3,14.2-10.1,11.9
	c-7.2-2.4-1.3-9.3,0.2-14.4c2.7-9.1,5-18.3,7.3-27.6c0.8-3.3-1-9,3.3-9.1C946.2,1938.3,940.1,1945.3,944.1,1948.5z"/>
<path d="M75.1,1957.3c0.6-4-1.6-8.9,3.6-11.4c4.8-2.3,7.2,1.9,10.3,3.9c10.7,6.9,21.4,13.9,32,20.9c2.9,1.9,6.2,3.2,9.1,1.2
	c2.7-1.9,0.6-5,0.2-7.4c-0.9-5.8-2.4-11.6-3.7-17.3c-1-4.1-0.8-8,2.9-10.6c2.1-1.5,4.5-0.7,6.4,0.9c3.5,3.1,2.7,6.4,0.2,9.6
	c-2.7,3.6-0.6,6.8,0.3,10.2c2.3,8.5,4.5,17,6.5,25.5c0.6,2.7,0,5.3-2.7,6.8s-5.2,0.3-7.3-1.3c-11.4-8.6-25.1-12.9-36.8-20.8
	c-1.9-1.2-4-3-6.2-0.9c-1.7,1.6-0.7,3.6-0.4,5.6c0.5,3.2,0.7,6.5,0.5,9.8c-0.2,2.5-0.4,5.5-3.9,6.1c-2.7,0.5-5.4-1.3-5.9-4
	c-0.1-0.4-0.1-0.7-0.1-1.1C80.3,1974.1,73.6,1966.5,75.1,1957.3z"/>
<path d="M847.3,1967.8c-1,8,1.5,14.2-2.5,19.4c-1.4,1.9-3,3.9-5.6,3.4c-2.9-0.6-2.7-3.1-2.9-5.5c-1.2-12.8-1.1-25.7-3.9-38.2
	c-0.9-3.9,1.5-5.6,4.7-6s6.4,0.1,8.4-3.7c1.8-3.4,3.5-0.8,5.1,1c9.5,9.9,19.2,19.8,28.8,29.6c0.5,0.5,0.5,1.4,1,1.6
	c6.1,2.6,9.8,12.6,16.6,9.7c6.3-2.7,0.6-10.6,0.8-16.2c0.3-6.9-0.1-13.8,0-20.7c0-2.2,1.1-3.8,3.5-3.8c2,0,3.3,1.1,2.8,3.1
	c-3.5,13.2,2.7,26.1,1.5,39.2c-0.8,9-4.6,11.3-12.5,6.3c-11.1-7.2-20.3-16.8-30-25.6c-4-3.7-8.2-10.1-12.9-8.5s-2.7,9.2-2.9,14.3
	C847.3,1968.1,847.3,1969.1,847.3,1967.8z"/>
<path d="M380.3,1947.3c6.6,2.7,13.3-0.2,19.7,1.5c2.2,0.6,5.9-2.2,6.3,2s-3.7,4.3-6.5,4.1c-4.9-0.3-9.8,0.8-14.2,3
	c-2.8,1.3-4.5,2.8-3.3,6c2.3,5.8,4.3,11.8,7.1,17.4c2.5,4.9,5.8,3,8.6-0.1c1.8-1.9,3.8-2.8,6-0.8s1.4,4,0.2,6.2
	c-5.7,11.3-13.4,12.2-20.9,1.8c-7.9-10.9-9.6-24.2-12.6-36.9c-0.5-2.2-0.1-4.7-1-6.7c-4.1-9-3.1-11.3,6.7-12.2
	c11.5-1,23.1-1.2,34.6-1.8c3.9-0.2,7.9,0,8,4.9c0.1,4.5-4,4.5-7.3,4.7c-9.2,0.4-18.4,0.9-27.4,3.1
	C382.6,1943.7,381,1944.1,380.3,1947.3z"/>
<path d="M333,1995.8c-12.4,0.2-21.4-3.8-29.8-9.3c-3.3-2.1-7.3-5-3.2-9.4c3.6-3.8,5.6-0.1,7.4,2.7c1.6,2.5,4.5,3.1,6.9,3.4
	c3.9,0.5,9.1,5,11.6,0c2.4-4.7-4.7-5-6.9-7.9c-4.8-6.3-10.6-11.8-11.8-20.5c-2.3-17.3,11.1-28.6,27.9-23.3c2,0.6,4.1,1.2,3.9,3.6
	s-2.5,2.7-4.6,2.7c-8.1,0.1-14.9,4-17.3,11c-2.7,8,1.7,14.9,8,20.8c3.4,3.2,6.1,7.4,10.5,8.8c6.6,2.2,9.3,5.9,7.5,12.5
	C341.3,1997.8,335.5,1995.6,333,1995.8z"/>
<path d="M800.8,1982.3c-10.9,0.4-22.1,3.4-31.9-5.1c-7.4-6.4-7.8-27.5,0.3-32.7c2-1.2,4.3-1.7,6.6-1.3c13.3,3.5,26.5,7.3,37.4,16.3
	c4.6,3.8,10,8,8.1,14.6c-2.1,7.3-9.8,6.5-15.6,8.1C804.2,1982.6,802.5,1982.3,800.8,1982.3z M803.1,1975.4c1-0.1,2-0.2,3-0.2
	c3.4,0.3,7.1,0.6,8.6-3c1.9-4.5-3-5.1-5.2-7.2c-8.8-8.5-20.3-10.1-31.6-11.8c-3.5-0.5-5.4,1.5-6.5,4.7c-2.8,7.7,1,14,10.1,15.4
	C788.7,1974.4,795.9,1974.7,803.1,1975.4z"/>
<path d="M1020.6,1947.4c0.5,33,6.2,34.4,37.4,36.8c7.4,0.6,16.3,1.2,19-9.7c0.8-3.4,4.9-2,6.2,0.4c2,3.9,2.6,8.2-1.7,11.5
	c-13.4,10.5-39.2,11.1-53.5,1.5c-12.3-8.4-12.6-21.5-13.9-34.2c-0.4-4.9-0.5-9.8-0.3-14.7c0.1-3-1-7.7,3.8-7.6s3.3,4.8,3.4,7.9
	S1020.7,1945.3,1020.6,1947.4z"/>
<path d="M708.7,1935.3c-6.3,2.9-6.8,7-6,12.8c1.3,9.1,1.3,18.4,1.6,27.7c0.1,3.5,0.4,6.7,3.6,8.7c3.8,2.3,4.3,4.9,0.5,7.6
	c-3.6,2.6-7,2.1-9.5-1.4c-2.2-3.1-2.1-6.9-1.8-10.6c0.8-10.6-2-20.8-3.1-31.2c-0.8-7.5-4.7-9.5-12.4-8.1c-9.5,1.7-17.7,7.7-27.5,7.4
	c-3.4-0.1-9.1,2.7-9.6-3.6c-0.4-5.3,4.4-5,8.4-5.8c12.5-2.7,25.2-4.4,37.8-6.3C697.1,1931.6,702.1,1935.8,708.7,1935.3z"/>
<path d="M720.7,1942.6c0.3-3.9-0.3-6.8,2.9-7.2s4.7,2.3,5.3,4.9c2.6,11.2,5.2,22.3,7.2,33.6c0.7,3.7,1.8,6.2,5.5,7.2
	c2,0.5,5.8-1,5.4,2.3c-0.5,3.7-4.6,5.3-7.7,7c-2.4,1.3-4.5-0.3-5.7-2.6c-3.4-6.2-4.4-12.9-5.4-19.8
	C726.7,1958.7,724.7,1949.5,720.7,1942.6z"/>
<path d="M512.6,1815.9c1,6.3-5,8.3-8.4,12.1c-2.8,3.2-4.7,5,0.8,7.9c4.8,2.6,9.9,5,13.9,9.3c2.5,2.8,6.3,0.2,9.5-0.2
	c1.4-0.2,2.9-1,3.7,0.5c1,1.8-0.3,2.9-1.6,4.1c-5.8,5.5-14.8,5.1-20.5-1.2c-5.3-5.8-12.4-8.6-19.2-11.7c-4.3-1.9-6.9-0.2-7.5,4.7
	c-0.5,3.9-1.6,7.6-2.4,11.5c-0.4,1.8-1.3,3.3-3.3,3c-2.2-0.3-2.3-2.3-2-4c2.1-10.9-2.8-20-7-29.3c-0.9-2-3.1-3.7-1.1-5.9
	c1-1.1,3-2.1,4.4-1.9c2.3,0.3,2,3,2.6,4.8c0.9,2.3,0.1,5.9,3.1,6.4c3.2,0.5,5.7-2.1,7.4-4.8c4.2-6.7,10.9-11.4,18.6-13.1
	C510.5,1806.3,513.1,1808.6,512.6,1815.9z M507.6,1812.7c-6.7,0.3-11.2,4-15.9,7.5c-1.3,0.7-1.8,2.3-1.2,3.7c0.5,1.3,1.9,2,3.3,1.5
	c0.1,0,0.2-0.1,0.2-0.1C499.6,1822.5,506.4,1821.1,507.6,1812.7L507.6,1812.7z"/>
<path d="M1018.7,1864.3c-15-0.4-19.6-4.6-22.4-17.5s0.3-25,4.5-36.9c1.2-3.2,4.6-5.7,8.3-6.5c3-0.6,6.7-0.9,7.6,3.2
	c0.8,3.6-2.5,3.4-4.9,4c-8.5,2.2-9.1,10.1-10.8,16.6c-1.8,7.1-0.4,14.6,0.4,21.8c0.2,1.9,0.4,4.2,3,4.4c2,0.2,2.8-1.4,3.6-3
	c3.4-6.4,7.6-12.4,12.5-17.8c6.8-7.5,14.8-9.1,22-3.5c5.6,4.3,5.4,13.3-0.3,20.8C1035.7,1858.3,1026.9,1862.4,1018.7,1864.3z
	 M1034,1834.7c-9.1,2.3-13.8,8.9-17.8,16.4c-1.3,2.4-1.4,4.8,0.8,6.8s4.5,0.7,6.2-0.4c5.6-3.6,11.6-6.7,15.5-12.5
	c1.4-2.2,5.4-4,3.3-6.8C1040.4,1836.3,1036.7,1835.9,1034,1834.7L1034,1834.7z"/>
<path d="M210.2,1825.8c-2.8-4.4,1.3-10.2-3-14.4c-1.2-1.2-0.2-2.6,1-3.5c2.4-1.9,4.8-0.9,7.1,0.2c1.3,0.6,3,1.9,1.9,3.1
	c-6.3,6.8-1.6,14.5-2.1,21.7c-0.3,4.4,0.9,9.8-4.1,11.9c-4.8,2-8.5-1.9-11.8-4.8c-4.1-3.7-7.9-7.9-11.8-11.9c-4.3-4.5-6.7-3-7.8,2.4
	c-1.2,5.8-2,11.6-4.6,17c-1.4,2.8-2.3,6.2-6.3,5.7c-3.4-0.4-5.5-2.9-6.4-6c-2.8-9.3-5.7-18.6-8-28.1c-0.9-3.6-1.4-7.1-3.7-10.1
	c-1.3-1.7-1.9-3.5-0.1-5.2c1.2-1.1,2.5-2.6,4.3-2.2c2.3,0.5,2.7,2.6,2.9,4.6c1.2,10.6,3.7,21,7.5,31c0.7,2,0.5,5,3.6,4.8
	s4.1-2.7,4.5-5.3c0.9-5.8,1.7-11.6,2.6-17.4c0.4-3,0.1-6.6,3.7-7.8c3.4-1.2,3.6,2.9,5.6,4.2c6.4,4.1,7.7,13.2,15.7,15.9
	c2.4,0.8,3.4,5.6,6.7,3.6S209.4,1829,210.2,1825.8z"/>
<path d="M583.9,1817.9c-2.1,11.7,1.4,21.7,8.6,31c3,3.8,6.3,4.6,10.3,3.2c5-1.8,3.3-6,2.5-9.3c-1.1-4.3-1.5-8.8-2.2-13.2
	c-1.1-6.4,0.2-10.3,6.9-11.9c9.8-2.3,17.3-0.2,19.4,6.6c1.8,5.9,2.6,12.1-2.6,17.4c-3.3,3.4-6.2,7.2-6.6,12.3
	c-0.2,2.4-1.6,5.5-3.7,4.8c-7.1-2.4-14.3,2.2-21-0.5c-7.9-3.2-11.6-10.6-14.1-18c-2.4-7.1-3.3-14.7-4.7-22.1
	c-0.5-2.4-0.9-5.2,1.9-6.8c1.2-0.8,2.9-0.7,4,0.3C584.4,1813.3,584.4,1815.6,583.9,1817.9z M618.2,1825.6c-7.8-0.3-8.3,5.7-8.3,10.9
	c0,3-0.6,7.9,4.1,8.8c3.7,0.7,12.1-9.5,11.7-13.8C625.2,1827,622.2,1825.5,618.2,1825.6L618.2,1825.6z"/>
<path d="M691.7,1820.1c-1.3,7.7,3,14.7,3,22.4c0,2.1,1.3,3.9,3.2,4.6c2.3,0.9,4.3,1.8,2.8,4.8c-1,2-1.7,4.4-4.6,4.2
	c-2.7-0.1-4.9-2.1-5.3-4.7c-1.6-8.5-3.4-17-4.3-25.7c-0.7-7.6-2.5-9.6-9.6-7.3c-6.5,2.2-13.4,1.4-20,2.5s-9.6,4.5-7.5,11.1
	c1.5,4.6,0.3,9.9,5,13.8c2.9,2.4,0.4,7.2-2.2,8.6c-3.7,2-2.9-2.1-3.8-4.2c-5.5-11.9-4.1-25.9-11.8-37.1c-1.5-2.2-0.5-5.2,2.2-6.4
	s5.3,0.1,5.7,3.1c1,7.1,5.4,6.7,10.5,5.2c6.8-2,13.9-0.8,20.8-2.6c3.7-1,6.7-1.3,5.8-6c-0.5-2.7,0.5-4.7,3-5.2
	c3.4-0.6,2.6,2.9,3.7,4.6C691,1810.1,692.6,1814.8,691.7,1820.1z"/>
<path d="M816.8,1847.8c-3-12.1-3.3-24.8-9.3-36.1c-1.7-3.3,1-6,3.7-7.6c2.2-1.4,4.2-0.9,6.6,1.2c10.5,9.2,20.6,19.1,33.4,25.2
	c1.3,0.6,2.5,1.2,3.7,2c2.3,1.7,3.9,6.5,7.1,4.2c3-2.1,0.2-6.4-0.9-8.9c-3.4-8-3.4-17-7.9-24.6c-1.4-2.4,0.2-3.8,2.3-4.2
	c2.6-0.5,5.4,1,4.7,3.3c-3.3,11.1,6.9,18.6,7.3,28.5c0,0.3,0.3,0.5,0.3,0.8c0.5,3.8,2.7,8.7-0.7,10.9c-2.8,1.8-7.2-0.3-11-1.9
	c-10.5-4.5-19.3-11.8-28.7-17.9c-1.6-1.1-3-2.8-5.2-1.5s-1.4,3.2-1,5.2c0.8,4.4,1.6,8.8,2.1,13.2S822.2,1847.2,816.8,1847.8z
	 M816.5,1823.7c5.2-6.1,6.3-10.8-3-12.7C813.8,1815.5,817.7,1818.8,816.5,1823.7z"/>
<path d="M932.5,1820.5c-1,5.7,1.4,11,2,16.5c0.2,2.8,0.1,5.6-0.2,8.3c-0.1,1.6-1.5,2.3-3,2.2c-0.8-0.1-1.5-0.5-2-1.1
	c1.4-4.7-3.8-8-2.7-12.4c2.1-8-2.4-14.1-6.1-20.2c-1.8-2.9-5.1-5.6-1.6-8.6c3.3-2.8,8.9-4.2,11.5-0.8c10.3,13.3,27,17.6,38.9,28.4
	c1.3,1.2,3.6,2.9,5.3,1.4c1.9-1.7-0.2-3.4-1.3-5c-5.9-8.7-5.4-19-6.9-28.8c-0.3-2.1,0.4-3.3,2.6-3.2s4.7,0.7,4.1,3.1
	c-3,12,3.4,22.2,5.7,33.2c1.2,5.9-0.9,6.4-5.7,5.1c-11.4-3.1-21.4-9.2-31.6-14.9c-2.9-1.7-5.4-4.2-9.2-3.1
	c2.2-6.8-0.8-10.8-9.6-11.9C929.2,1810.3,926.9,1818.5,932.5,1820.5z"/>
<path d="M251.4,1805.2c4.5,0.9,8.4,3.8,10.8,7.7c3.7,6.4,8.6,6.9,14.7,5c1.6-0.5,4.2-2.2,4.8,0.9c0.5,2.5-2.4,2.6-4.1,3.3
	c-8.5,3.6-8.7,3.8-1.8,9.5c2.6,2.2,3.1,4.5,2.6,7.4c-0.2,1.4-0.9,2.9-2.5,3.1c-3.3,0.3-3.6-3.1-5.2-4.7c-3.3-3.3-3.3-11.1-10.1-9.5
	c-7.2,1.7-13.6,5.5-15,14.1c-0.2,1.3-1.1,2.6-1.6,3.9c-0.8,2.1-1.3,4.9-4.4,3.7c-2.2-0.8-3.4-3.3-2.5-5.6c0,0,0,0,0,0
	c3.7-11.2,4.8-22.7,5.5-34.3C242.8,1805.5,247.4,1805.6,251.4,1805.2z"/>
<path d="M794.2,1817.7c-0.3,1.7-1.6,2.1-3,2.5c-6.2,1.9-12.2,4.3-18.5,5.5c-4.4,0.9-5.3,3.1-3.7,6.4c2.3,4.8,2.2,10.4,5.4,14.9
	c2.3,3.3,3.2,13.5,7.4,0.9c0.2-0.7,1.9-1.3,2.8-1.2c1.7,0.3,1.9,1.9,1.7,3.3c-0.6,4.7-4.3,8.3-9,8.9c-3.4,0.4-4.6-3.7-6.3-6.7
	c-4.8-8.6-4.5-19.4-12.7-26.9c-3.1-2.8-2.9-9.4-3.8-14.4c-0.5-2.8,2.2-2.8,4-3.2c12.6-2.6,25.3-4.8,37.5-9.2c2.2-0.8,4.7-0.9,6,1.5
	c1.8,3.4-1.7,3.3-3.2,4.5c-8.3,6.4-18.8,5.9-28.3,8.9c-2.7,0.8-7.8-1-7.5,3.1c0.3,4.5,5.3,2.6,8.5,2.7c6.3,0.3,12-2.4,18.1-3.3
	C791.4,1815.8,793.6,1814.7,794.2,1817.7z"/>
<path d="M449.1,1824.7c-6.8,5-14.8,8-23.2,8.7c-5.4,0.6-7,2.7-5,7.7c1.8,4.7,1.7,9.9,5.1,14.2c2.2,2.7,1.7,7-0.9,8.2
	c-3.9,2-4.4-2.9-4.9-5c-3.5-14.3-6.7-28.8-9.9-43.2c-0.6-2.9,0.8-6,3.5-5.4c11.3,2.6,21.5-3.5,32.5-3.3c3.3,0.1,6.3-1.1,6.5,3.6
	c0.2,4.4-2.7,5.2-6.1,4.9c-8.7-0.8-16.3,3.8-24.6,4.7c-2.2,0.2-5.5,1-4.8,4.5c0.6,2.7,3,2.3,5.4,2.6
	C431.7,1828.2,440.2,1825.4,449.1,1824.7z"/>
<path d="M67.7,1797.3c2.9,0.9,7-0.8,8.1,2.8c0.9,3.1-0.3,6.4-2.9,8.3c-3.5,2.6-3.9,5.6-2.8,9.6c2.3,8.1,0.4,16.9,3.5,24.9
	c0.8,2,0.6,4-1.8,4.9s-4.5,0.3-5.5-2.3c-0.9-2.3-1.6-4.8-1.9-7.3c-0.4-2.8-0.2-5.6-0.3-8.4c-1.1-22.5-1.1-22.6-23.8-22
	c-3.8,0.1-6.1-0.9-6.3-4.8c-0.3-4.6,3.5-3.5,6-3.7C49.2,1798.5,58.5,1799.2,67.7,1797.3z"/>
<path d="M312.9,1853.6c-8.6-0.1-19.4-7.4-22-14.4c-0.5-1.4-0.8-3,0.7-3.7s2.6,0.3,3.3,1.7c4.4,8.4,12.6,8.1,20.4,8.8
	c2.7,0.3,5-0.4,6.6-2.8c1.8-2.8,0-4.7-1.6-6.7c-5.5-7-12.1-13.2-15.6-21.6c-2.2-5.2-3.3-10,2.1-14.3c2.3-1.9,4.1-3.1,6.5-1.2
	c1.9,1.4,2.4,4,1,6c-0.2,0.3-0.4,0.5-0.7,0.7c-6.3,4.8-2.8,8.6,0.5,12.6c4.5,5.3,8,11.3,13.5,15.9c6.1,5.2,1.9,15.8-7,18.1
	C318,1853.1,315.4,1853.5,312.9,1853.6z"/>
<path d="M728.5,1826.4c-0.1-0.8-0.2-1.7-0.3-2.5c-0.9-13.5-0.9-13.5-14.2-11.8c-1.4,0.3-2.8,0.5-4.2,0.5c-3.5-0.1-4.9-2.6-5-5.6
	s2.4-3.1,4.7-3.3c8.9-1,17.7-2.3,26.6-3.5c3.3-0.4,7.3-1.4,8.5,3c1.3,4.7-1.8,6.5-6.1,6.9c-3.6,0.4-5.4,2.1-5.2,6.1
	c0.5,9.5,0,19,2.3,28.3c0.3,1,0.2,2.5,0.9,3.1c2.2,1.9,5.1,4.1,1,6.3c-3.4,1.8-5.1-1.9-5.9-4.3
	C728.9,1842.1,727.9,1834.2,728.5,1826.4z"/>
<path d="M18.4,1830.9c0.6-9.9-2.1-19.3-3.6-28.9c-0.4-1.9-0.7-3.8-0.9-5.8c0-1.9,0.1-4.3,2.6-4.7c2.9-0.4,2.5,2.3,3.2,4
	c3.6,8.7,2,18.3,4.3,27.2c1.2,4.3,2.1,8.6,2.7,13c0.3,2.6,0.3,6.9-3.1,6.6c-2.5-0.2-7.4-1.9-5.5-7.2
	C18.5,1833.8,18.3,1832.3,18.4,1830.9z"/>
<path d="M884.3,1807.7c0.1-2.8,1.1-4.4,3.3-4.8c3.5-0.6,3.2,2.1,3.6,4.3c2,10.4,4.1,20.7,6.2,31.1c0.5,2.4,0.5,5.1,3.5,6.2
	c2,0.7,2.7,2.3,1.6,4c-1.2,2-3.3,3.2-5.6,3.2c-2,0-2.5-1.7-2.9-3.5c-1.7-9.9-4-19.7-5.1-29.6C888.5,1813.9,884,1811.6,884.3,1807.7z
	"/>
<path d="M561,1850.4c0.1,2.2-0.7,3.8-2.6,4c-2.3,0.3-3.7-1.1-4.4-3.2c-2.1-6.3-4.9-12.6-6-19.1c-0.8-5.1-2.8-9.6-4.6-14.3
	c-1.1-2.7-3-5.7,0.9-7s4.2,2.8,4.9,5.3c2.6,8.6,5.5,17.1,7.4,25.8C557.4,1845.6,561.9,1846.7,561,1850.4z"/>
<path d="M507.5,177c13.7-0.7,14.9,0.7,12.3,14c-1.5,7.9-5.1,14.5-12.2,18.6c-5.3,3.1-5.2,5.9-0.4,9.3c2.5,1.8,4.6,4.1,7,6
	c9.9,7.9,18,7.9,28.2-0.1c2.3-1.7,4.8-3.1,7.3-1c3.3,2.7,0.2,4.8-1.3,6.8c-9.9,14.1-26.2,16.1-41.2,4.9c-7.3-5.4-14-11.6-21.4-16.8
	c-11.2-7.9-15.6-6.1-18.9,6.9c-0.6,2.3-1.3,4.4-2,6.7c-1.1,3.7-3,6.5-7.3,5.6s-7.4-4-6-8.3c3.5-10.9-1.5-20.4-4.2-30.2
	c-0.9-3.1-0.4-6.1-1-9.1c-1.2-5.8,3.8-6.5,7-7.3c4.8-1.2,5.4,3,5.6,6.6c0.3,4.8-2.6,11.9,2.1,13.8c5.7,2.2,6.5-6,9.7-9.4
	C481,183.4,492.9,177.6,507.5,177z M491.1,203.8c8.3-0.5,13.3-5.7,17.7-11.6c1.3-1.7,1.5-4.1-0.5-5c-6.3-2.7-11.7,1-17.4,3
	c-1.1,0.5-2,1.1-2.9,1.8c-2.6,1.9-7.8,2.3-7,6.4C482,203.1,487.3,203,491.1,203.8L491.1,203.8z"/>
<path d="M796.9,176.1c5.1,0.3,10,0.5,14.8,2.5c6.5,2.7,11.8,5.5,7.7,14.4c-2.9,6.3-0.7,9.6,7.1,10.2c4.2,0.3,11.4,0.1,12.1,6.2
	c0.7,5.7,0.3,11.8-5.6,16.5c-6.9,5.6-13.7,11.1-21.7,15.1c-6.7,3.4-13.5,3.3-19.6-1c-4.5-3.1-6.7-12.4-14.3-2.2
	c-2.5,3.4-6.4-2.2-6.9-6.1c-1.3-9.1-1.9-18.3-3.4-27.4c-3.4-20.8-3.6-20.9,17.3-27.1C788.3,176.1,792.7,176.5,796.9,176.1z
	 M798.3,187.1c-1.4,0.3-3.3,0.9-5.2,1.2c-14.8,2.8-18.3,7.9-15.6,22.6c0.9,5,3.8,4.2,6.5,2c6.6-5.2,13.1-10.6,19.5-16.1
	c2-1.7,4.2-3.9,2.3-6.9C804.3,187.4,801.6,186.9,798.3,187.1L798.3,187.1z M815.4,212.9c-6.3,2-15.5,2.1-21.5,9.8
	c-1.5,1.9-2.7,3.9-1.5,6.3c1.3,2.7,3.8,4.4,6.5,3.7c8.5-2.4,16.5-5.9,22.6-12.6c1.6-1.7,2.7-4,1.3-6.3
	C821.6,212,819.4,212.6,815.4,212.9L815.4,212.9z"/>
<path d="M715.8,197.6c-4.1,0.4-5.3,3.7-7.2,5.9c-12.1,14.2-12,14.3-27.8,6.2s-15.7-8.1-18.5,10.2c-0.7,4.8-1.6,12.7-6.2,13.1
	c-7,0.6-6.3-8.1-7-12.6c-0.8-5.8-2.4-11.5-4.8-16.9c-3.6-8,5.4-12.5,9.6-17.9c3.5-4.4,9-3.7,13.6-0.6c3.2,2.1,6.2,4.5,9.5,6.4
	c17.2,10.4,17.3,10.3,31.8-4.7c0.3-0.3,0.5-0.6,0.8-0.8c4.3-3.6,8.2-10.6,14.1-7.9c4.8,2.2,5.6,9.5,7,15.1
	c2.9,11.9,0.1,24.9,9.3,35.8c3.8,4.5-2.5,10.3-7.1,12.4c-5.1,2.4-6.2-3.4-7.1-6.7c-2.2-8.5-4.5-16.9-4.2-26
	C721.9,204.3,720.3,199.7,715.8,197.6z"/>
<path d="M99.7,200.6c2.1-5.1-0.3-7.9-1.5-11.1c-2.3-6,1.4-10.3,6.3-11.7c6.2-1.8,4.9,4.5,5.5,7.6c1.2,6.9,4,10.1,11.7,8.6
	c6.7-1.4,13.8-0.6,20.6-1.8s14.5-0.8,17.2-10.4c1.3-4.6,6.3-7.9,9.3,0c0.9,2.3,2.2,4.4,4.5,4.9c8.1,1.6,8.4,3,2.6,9.7
	c-6.1,7.1-0.8,15.9,3.5,22.9c1.6,2.6,4.4,4,2.3,7.6s-5,5.9-9.1,6.3s-4.3-3.4-5.8-5.9c-3.6-6-2.7-12.7-3.6-19.1
	c-1-7.4-4.2-11.3-12.4-8.2c-9.4,3.4-19.2,5.5-29.2,6.3c-7.4,0.7-11,5.2-8.1,13c1.6,4.3,1.6,8.9,3.7,13.2c2.3,4.7-2.3,8.3-5.9,9.8
	s-7.3-2.1-7.2-5.5C104.2,224.5,102.7,212.3,99.7,200.6z"/>
<path d="M1022.9,192.4c7.6-15.1,10.9-16.3,26.3-13.2c11.5,2.3,19.1,10.6,25.1,18.8c5.8,7.9,0.8,17.5-5.6,24
	c-8.4,8.5-19.3,14-30.1,18.9c-7.5,3.4-14.8-5.1-23-0.9c-1.6,0.8-2.5-5.1-2.6-8c-0.1-12.9,2-26-4.8-38.2c-1.8-3-0.8-6.9,2.2-8.7
	c0.2-0.1,0.4-0.2,0.6-0.3C1017.8,181.7,1019.2,188.4,1022.9,192.4z M1047.8,191c-11.9,0.1-21.6,10.3-21.8,23.6
	c-0.3,18.2-5.2,19.3,16.5,12.4c8.6-2.8,15-8.9,21.9-14.4c4.6-3.6,4.4-8.6,0.8-12C1060,195.8,1053.7,192,1047.8,191L1047.8,191z"/>
<path d="M619,202.8c-10.7,3.3-21.2,7.3-32,9.7c-15,3.5-15,3-11,17.2c0.4,1.6-0.5,3.5-0.9,5.8c5.3-2,6.4-7.4,9.7-10.7
	c1.6-1.5,3.9-3.2,6.2-1.6s1.4,4.2,0.1,6.1c-2.8,4.1-5.2,8.8-8.9,12c-5.2,4.5-10.2,5.4-14.8-2.5c-7.7-13.2-9-28.3-14.3-42.2
	c-2.4-6.3,0-10.4,6.8-11.7c16.5-3.2,32.9-6.7,49.4-9.9c1.8-0.4,4.2-0.5,5.6,0.4c3,1.9,8.9,1.2,8.4,6.3c-0.5,4.8-5.2,2.8-8.4,3.4
	c-14.7,2.9-29.4,6-44,9.2c-2.8,0.6-7.1,0.9-6.7,5c0.5,5.2,4.8,2,7.4,2.1c15.5,0.7,31-0.7,46.5-2.9C618.3,200,618.6,201.4,619,202.8z
	"/>
<path d="M252.7,198.1c-9.2,10.3-20.7,10.8-30.5,14.7c-6,2.4-12.3,4.3-7.2,12.9c3.9,6.5,8,9.9,13.5,1.5c1.8-2.8,4.1-5.3,7.4-2.3
	c2.7,2.5,0.7,4.9-1.1,6.9c-4.5,4.8-6.7,12.8-15.9,11c-8.4-1.7-13.2-7.2-16.1-14.7c-1.4-3.6-2.5-7.2-5.3-10.1
	c-3.4-3.5-3.6-8.7-0.5-11.4c5.2-4.6,4.5-9.7,3-14.7c-2.2-7.8,1.8-11,8.2-12.1c14.3-2.6,28.9-3.3,43.4-3.4c2.3,0,5-0.1,5.4,2.9
	s-2,3.6-4.2,4.6c-10.3,4.9-22.1,0.1-32.6,5.9c-4.5,2.5-8.8,4.1-7.9,9.5c1.3,7.5,7.1,3.1,11.2,3.3
	C232.7,202.8,240.9,196.7,252.7,198.1z"/>
<path d="M382.6,177.5c13.8,0,27.6-0.1,41.4,0c3.7,0,8.7-0.4,8,5.5c-0.5,4.4-4.2,7.1-8.4,6.1c-12.4-3-14.2,4.8-13.8,13.6
	c0.5,9.4,0.7,19.3,8.3,26.7c2.9,2.8,3.2,5.9,1.4,9.4c-1.5,2.9-3.9,3.6-6.8,2.9c-3.8-1-6.6-2.4-7.4-7.4c-1.9-12-5.1-23.8-7-35.8
	c-1.1-7-5.3-7.6-10.8-7c-12.3,1.2-24.5,2.4-36.8,3.5c-3.8,0.4-8.5,1.3-9.4-3.9c-0.7-4.5,3.5-6.9,7-8.1
	C359.4,179.3,371,179.2,382.6,177.5z"/>
<path d="M37.5,245.9c-8.9-3.3-18.9-0.7-26.2-8.5c-3.4-3.6-4-7.2-3.2-11.5c0.2-2.4,2.3-4.2,4.7-4.2c2.4-0.1,5,0.1,4.9,3.3
	c-0.2,5.5,3.6,6.3,7.5,6.6c4.4,0.4,10.4,2.6,12.5-2.3c1.8-4.4-4.8-4.9-7.3-7.4c-7.9-8-14.4-17.6-11.1-28.6s14.2-15.5,24.7-18.7
	c2.8-0.9,6.8-2.3,7.2,2.4c0.3,3.4,1.4,7.9-3.2,10.1c-0.7,0.2-1.5,0.3-2.3,0.4c-7,1.2-14.6,3-15.4,11.2c-0.9,9.4,6.9,15.6,13.8,17.9
	c9.2,3,14.9,5.6,12.2,16.2C53.9,242.8,45.5,244.1,37.5,245.9z"/>
<path d="M921.5,205.5c1.5-6.3-0.6-10.2-1.4-14.3c-1.2-6,3.6-8,8-9.5c4.5-1.6,6.6,1.4,7,5.3c0.8,6.7,5.1,6.9,10.1,5.8
	c9.8-2.2,20.1-0.1,29.8-3.4c2.1-0.7,4.9-1.4,5.5,1.9c0.5,3-2,3.8-4.3,4.3c-11.2,2.5-22.3,5.3-33.6,7.2c-7.7,1.3-11.2,4.9-9.1,12.4
	c2.1,7.4,6.2,12.8,15,9.2c6-2.5,12.9-2.6,18.1-7.1c1.4-1.2,3.1-2.9,4.8-0.7c1.5,1.8,0.4,3.6-0.6,5.3c-3.6,6.1-29,17.7-35.7,16.4
	c-6-1.1-7.9-6.4-9.2-10.8C923.5,219.7,922.7,211.6,921.5,205.5z"/>
<path d="M868.5,178.1c5.2-0.1,4.5,4.2,4.9,7.4c1.5,11.4,1.1,22.9,2.7,34.3c1.8,12.4,7.4,10.5,15.7,8.5c3.2-0.8,7.5-7.3,10.2-0.8
	c2.8,6.7-3.4,7.5-8.3,9.4c-21.3,8.4-25,6.3-28.1-17.7c-1.4-10.9-2.3-21.9-4-32.7C860.8,180.7,863.6,178.9,868.5,178.1z"/>
<path d="M973.7,204c6.5,0,13.1,0,19.6,0c2.3,0,5-0.8,5.8,2.2c0.8,2.8-1.3,4.7-3.5,5.1c-15.4,2.5-30.7,6.8-46.6,4.3
	c-3.8-0.6-5.3-3-4.8-6.5c0.6-4.1,3.4-5.8,7.4-5.7c7.3,0,14.7,0,22,0L973.7,204z"/>
<path d="M787,350.4c9.1-0.7,17.8,1.9,26.3,4.3c11.2,3.1,13,10.7,6,20.4c-6.4,8.9-15.1,14.7-25,19c-9,3.9-17.2,10-28,8.7
	c-6.2-0.7-8.7-3-9.7-9.3c-2.1-12.1-2.6-24.9-10.4-35.4c-1.8-2.3-3.3-4.7-0.3-7.1c2.1-1.7,5.3-4.5,7.1-1.9c5.2,7.5,11.7,3.2,17.7,2.9
	C776.1,351.6,781.5,350.9,787,350.4z M789.7,361.6c-3.7-0.9-9.9,2.1-16.4,2.3c-5.1,0.2-8.3,2.3-9.8,7.3c-2,6.8,0.4,13.3,3.9,18.2
	c3.1,4,8.6,5.3,13.2,3.2c9-4.3,18-8.9,24.9-16c2.8-2.9,8.2-6,6.8-10.7c-1.8-5.9-8.4-2.5-12.6-4.3
	C797.6,360.9,794.9,361.6,789.7,361.6L789.7,361.6z"/>
<path d="M641,373.6c-0.6,0.5-1.2,1.6-2,1.8c-9.2,2.6-10.2,6.8-3.1,13.4c2.7,2.4,3.4,6.4,1.5,9.5c-1.3,2.5-3.2,3.6-5.8,3.1
	c-4.2-0.8-5-3.8-5.5-7.5c-0.6-4.4-1.5-10.2-7.3-9.4c-8.1,1.2-18.3-0.4-22.2,9.5c-2,5.1-5.4,9.6-9.7,12.9c-1.3,1.3-3.2,1.5-4.8,0.5
	c-1.7-1.1-1.5-2.7-0.8-4.5c6.3-17.3,12.4-34.8,18.8-52.1c1.5-4.4,5.4-7.5,10-8.1c4.4-0.4,2.3,5,4.3,7.1s4.4,4.3,5.4,7.4
	c2.6,8.3,5.9,15.5,16.9,13.2C638.2,370.2,640.8,370.2,641,373.6z M609.8,364.4c-3.9,1.5-4.7,4.9-5.2,8.3s1.8,4.1,4.5,3.9
	c3.1-0.3,6.8-0.2,5.8-5C614.3,368.5,613.2,365.6,609.8,364.4L609.8,364.4z"/>
<path d="M723.7,386.9c0.1,7.7-5.3,11.9-14.1,10.5c-10.3-1.6-19.4-6.5-28.2-11.7c-10.2-6-10.4-6.1-11.1,6.1c-0.1,2-0.1,4.2-0.8,6
	c-0.9,2.2-2.2,4.6-5,4.5c-3-0.1-3.6-2.8-4.2-5.1c-2.2-9.3-3-18.8-7-27.8c-2.8-6.4,4.2-7.8,7.8-10.2c4.2-2.9,8.2-1.8,11.6,2.4
	c8.2,9.8,17.7,17.9,29.5,23.1c3.2,1.4,6.8,3.1,9.9,1.3c3.9-2.3,0.6-6.3,0.8-9.5c0.3-5.3-4.1-8.5-6.1-12.9c-1.4-3.2-3.3-6.1-2.9-9.7
	c0.3-2.5,1-5,3.8-5.4c2.2-0.2,4.1,1.2,4.6,3.3C714.3,364.1,722.1,374.5,723.7,386.9z"/>
<path d="M212.9,367.5c4.3-5.7-4.2-9.8,0.1-14.8c1.3-1.5,1.8-3.9,4.2-3.6c2.7,0.3,2.5,2.6,2.4,4.6c-0.5,8.2,4.5,8.5,10.4,6.9
	c7-1.9,13.9-4.5,21.4-4c1.4,0.1,3.9-1,4.3-2.1c4.9-13.3,11.2-3.6,16.8-0.9c2.2,1,3.1,3.3,2.1,6c-4.2,11-4.8,20.9,4.6,30.7
	c4.2,4.4-4.4,7.7-7.3,10.8s-3.4-1.6-4.6-3.7c-4.1-7.5-3.5-16.1-4.9-24.1c-1.6-9.2-7-9.9-13.6-8.3c-7.4,1.8-14.4,4.9-21.7,7.1
	c-4,1.2-6,4-5,7.4c1.4,4.8-2.6,11.8,4.5,14.3c2.2,0.8,3.8,0.5,2.8,3.2c-0.9,2.4-1.2,5.5-4.5,6c-2.4,0.3-5.6,0.1-5.8-2.5
	C218.3,389.3,216.2,378.2,212.9,367.5z"/>
<path d="M345.2,363.8c-8.3,7-18.3,10.2-28.3,13.1c-9.7,2.8-7.8,10.1-6.6,16.1s8.5,5.2,13.2-1c1.4-1.8,1.1-6.6,4.9-4
	c2.5,1.7,0.6,5-0.8,7.3c-1.7,2.8-3.4,5.8-5.8,8s-4.5,6.9-8.8,5.3c-3.9-1.4-6.8-4.6-7.8-8.6c-1-3.9-2.9-8-2.3-11.6
	c1.2-6.5-1.9-7.8-6.9-7.8c-6.1-0.1-5.5-3.9-2.4-6c7-4.9,7.7-9.9,3.1-16.7c-3-4.4,0.1-7.1,4-8.1c15.5-4,31.3-5.8,47.2-7.7
	c3.1-0.4,5.4,0.9,5.1,4.4c-0.2,2.5-1.4,4.6-4.4,4.4c-11.6-0.8-22,5.2-33.4,5.6c-5.4,0.2-6.7,2.6-7.1,8.2c-0.5,7.3,1.7,6.4,7.2,5.4
	C325.4,368,335.2,366.1,345.2,363.8z"/>
<path d="M60.2,391.3c1.4,3,0.4,5.7-1.5,8.3c-1.4,1.9-1.1,5.7-5,5c-4.8-0.9-1.8-4.6-2.6-6.8c-3.4-9,0.2-19.2-5.6-27.9
	c-3.2-4.7-0.4-10,4.4-12.8c5.3-3,5.9,3,7.8,5.3c8.1,10.3,19.3,14.9,31.3,18.2c5.6,1.5,8.3-1.9,5.7-6.6c-4.1-7.3,0.3-16-5-22.9
	c-1.2-1.6,0-4,2.2-4.8c3-1,5,1.2,4.8,3.5c-1.2,10.5,4.2,19.3,6.6,28.9c2.6,10.2-2.6,15.1-13.2,13.9c-7.7-0.9-14.4-4.6-21.4-7.6
	c-2.4-1-4.4-3.5-7.2-1.3C58.8,385.8,59.5,388.5,60.2,391.3z"/>
<path d="M963.8,358.3c-6.3-1.1-10.2,0.5-12,4.6c-3.1,6.7-2.3,14.5,1.9,20.5c12.8,18.8,26.6,13,40.4-1.4c1.1-1.2,1.4-3.2,2.6-4.3
	s3.2-2.1,4.4-1.8c3,0.9,1.2,3.3,0.8,5.1c-2.6,11.9-21.3,26-33.2,25c-13.2-1.1-26.3-15.3-26.7-29.6c0-5.8,0.6-11.7,1.7-17.4
	c2.2-12.7,6.1-15.3,19.1-13.8c4.7,0.5,9.4,1,9.1,7.2C971.7,358.7,967,358.7,963.8,358.3z"/>
<path d="M360.8,387.6c-0.1-3.5,0-7,4.3-9.8c5.1-3.2,5.2-9.7,7.5-14.9c2.5-5.6,3.4-12.9,11.8-12.8c7.8,0.1,10.5,5.5,12.1,12.3
	c1,4.2,2.3,8.8,8.6,6.9c1.7-0.5,3.6-0.1,3.7,2c0.1,1.1-0.7,2.9-1.5,3.3c-6.6,3.1-4.7,8.1-2.8,12.8c1.2,2.9,2,5.7,1.5,8.7
	c-0.4,2.5-1.6,4.6-4.4,4.5s-5.1-1.9-5-5.1c0.1-2.6,0.9-5.3,0.9-7.9c-0.1-7.7-3.3-9.4-10.1-6.1c-6.6,3.2-13.3,6.1-19.2,10.4
	c-1.9,1.4-2.1,5.9-5.8,3.6C359.6,393.8,360.5,390.7,360.8,387.6z M385.6,365.3c-3.5-0.1-4.4,2.5-5,5.1c-0.6,2.4,1.1,3.9,3.2,4.1
	c3.2,0.2,6.1-1.3,6.4-4.7C390.4,367.3,387.9,366,385.6,365.3L385.6,365.3z"/>
<path d="M488.1,348.2c-14.3,3.2-12.8,12.5-12.9,20.9c0,5.3,0.9,10.7,0.4,16c-0.4,5.1-2.7,10.4,6,9.6c2-0.2,2.8,2.5,1.7,3.7
	c-2.7,2.8-4.4,7-8.9,7.3c-2.9,0.2-4-2.1-4.2-4.6c-0.6-9.3-1.2-18.6-1.8-27.9c-0.1-2.3-0.2-4.7-0.2-7c-0.1-6.6-3.4-9.1-9.7-7.5
	c-10.5,2.6-21.8,2.3-31.6,8.1c-1.9,1.1-4.1,1-5.3-1.1c-1.3-2-0.7-4.6,1.3-5.9c0.1-0.1,0.2-0.1,0.3-0.2c4-2.3,8.3-4.2,12.8-5.5
	c11.3-3,22.7-5.3,34-8.2C475.6,344.5,480.4,345.1,488.1,348.2z"/>
<path d="M896.1,382.4c-1.5-9.6-0.1-20-5.8-28.6c-2.9-4.5-1.6-6.8,3-8.4s7-0.5,7.7,4.7c1.2,8.7,3.2,17.4,4.2,26.1
	c0.7,6.1,0.7,12.1,5.2,17.2c2.5,2.8,2,6.5-0.6,9.4c-1.9,2-4.2,3.9-7.2,3.2c-4.4-1-4-4.9-4.5-8.3
	C897.6,392.6,896.8,387.5,896.1,382.4z"/>
<path d="M1038,400.1c-11.8,0.6-16-5.6-19.6-11.8c-5.6-9.7-5.5-21-7.7-31.6c-0.5-2.3-0.1-5.1,2.8-5.9c2.4-0.7,4.1,1,4.9,2.9
	c3.5,8.6,10.3,7.7,17.3,6.1c11-2.6,21.9-5.4,32.9-7.8c2.6-0.6,6.3-3.1,8.1,1.2c1.9,4.4-1.5,6.4-4.9,7.5
	c-13.2,4.6-26.4,9.3-40.4,10.8c-3.1,0.3-6.4,0-8,3.4c-1.9,4,2.9,3.9,4.1,6c0.3,0.6,0.8,1.1,1.2,1.7c2,3,3,7.6,8,6.5
	c4.6-1,5.3-4.8,5.1-8.9c-0.1-1.7,0.3-3.6,2.4-4c2.4-0.4,4,1.4,4.8,3.2C1052.3,387.3,1043.4,400,1038,400.1z"/>
<path d="M1058.2,369.7c2.1,0.3,4.1-0.1,4.3,2.1s-1.1,3.2-3.2,3.6c-8.2,1.4-16.5,2.3-24.4,5.4c-1.9,0.9-4.2,0-5.1-1.9
	c-0.1-0.2-0.2-0.4-0.2-0.7c-0.5-2,1.4-3.2,3.2-3.6C1041.5,372.9,1050.1,371.3,1058.2,369.7z"/>
<path d="M9.9,372.5c0.3-5.4,0.3-10.7-1.9-15.8c-1.7-4.1,0.1-6.8,3.9-7.4c4.8-0.8,4.1,3,4,6c-0.4,13.1,1.9,26,3.5,39
	c0.5,4.4-0.5,6.8-4.2,7.3c-4.1,0.5-4.3-2.8-4.4-6.2C10.8,387.7,10.3,380.1,9.9,372.5z"/>
<path d="M294.5,40.9c2.2-10.8,1.1-21.6,1.3-32.5c0-3.3,0.9-8,5.3-6c9.2,4.2,18.8,2.3,28.1,3c11.7,0.8,15,5.4,9.9,16
	c-2.3,4.8-2.3,6.5,3.2,6.8c3,0.2,8-1.8,8,3c0,4.6,2.7,9.6-1.4,14.2c-9.8,11-23,11.6-36.1,12.9c-2.5,0.2-4-2.1-4.4-4.6
	c-0.4-3.2,2-3.8,4.3-4.4c6.8-1.5,13.5-2.7,20.3-4.4c1.9-0.4,3.9-1.9,3.3-4.2c-0.6-2.6-2.9-2.1-4.9-1.6c-10.9,2.9-24.4,0.4-30,14.6
	c-1.1,3-3.5,2.1-5.1-0.5C293.8,49.5,294.3,45.2,294.5,40.9z M317.5,15.4c-1.5-0.2-3.1-0.3-4.6-0.1c-3.7,0.4-7.3,1.5-8.1,5.9
	c-0.6,3.1-1.9,6.6,1.4,9.1c3.7,2.8,6.9,0.2,10-1.5c2.5-1.4,5.3-3,7-5.2s6.6-4,4.8-7.6C326.5,13,322.6,15.3,317.5,15.4L317.5,15.4z"
	/>
<path d="M860.5,38.6c-11.5,0.8-21.1,4.4-26.6,15.6c-1.3,2.7-3.2,8.1-7.8,5.4s-1.5-6.9-0.3-10.5c4.1-12.5,11-23.9,12.5-37.3
	c0.5-4.2,13-12.3,16.9-11.7c1.9,0.3,2.8,1.4,3.3,3.1c0.7,2.5,1.7,5,2.8,7.4c11,21,4.8,18.5,28.2,15.4c3.5-0.5,9-5.4,10.1-0.3
	c1.4,6-5.8,4.1-9.5,5.1c-2.9,0.8-5.7,1.7-8.5,2.6c-2.5,0.8-5.7,0.6-6.7,3.5c-1.5,4.2,2.9,3.3,4.5,4.8c2.3,2.1,4.3,5.2,2.4,7.8
	c-1.7,2.4-3.2,6.5-7.1,6c-3.3-0.4-4.4-3.7-5.3-6.5C867.8,44.2,868.1,37.9,860.5,38.6z M859,28.4c-1.5-3.3-3.1-7.4-6.7-7.8
	c-4.6-0.5-4.7,4.7-5.8,7.7c-1.2,3.3,1.4,4.8,4.5,4.1C853.9,31.8,857.8,32.8,859,28.4z"/>
<path d="M11.7,51.6C22.2,38.8,23.6,19.8,33.5,4.7c4-6.1,9.9-6,14.3,0.8c2.8,4.5,4.4,10.2,8.3,13.2c6.6,5.2,13.1,9.1,7.7,19.2
	c-1.1,2,2.7,4.7,5.7,5.8c3.5,1.4,6.6,3.6,5,8.1c-1.3,3.7-2.7,7.6-7.5,8.1s-5.9-3.3-7.3-6.6c-0.7-1.8-1-3.9-1.9-5.5
	c-2.9-5-1.1-13.5-9.4-14.5c-9.6-1.2-18.6,5-22.2,14c-1.3,3.3-2.8,6.6-4.3,9.9c-0.9,2.3-3.4,3.4-5.7,2.5c0,0,0,0-0.1,0
	C13,58.8,11.7,56.6,11.7,51.6z"/>
<path d="M157.9,40.5c-1.5-6.1-0.9-14.2-5.2-21.1c-3.7-5.9-2.1-10.9,4.6-11.6c11.9-1.1,24-1.5,35.9,0.2c5,0.7,9.9,1.6,11.9,7.2
	c2,5.4,0.7,11.5-3.3,15.6c-6.9,7-14.8,12.9-22.6,18.9c-2.2,1.7-5.4,2.6-8.2,3.2C162,54.8,157.6,51.1,157.9,40.5z M182.7,16.5
	c-5.7-0.4-11.7,0.2-16.1,3.6c-4.9,3.9,1.7,8.2,1.1,12.6c-0.2,1.6,0.5,3.3,0.3,4.9c-0.8,6.8,2.9,6.9,7,4.1
	c6.5-4.4,12.7-9.1,17.5-15.7c4.5-6.3,3.4-8.7-3.9-9.2L182.7,16.5z"/>
<path d="M756.4,4.5c1.3-0.1,2.7-0.1,4,0c3,0.3,7.4-1.2,7.1,4.2c-0.2,4.3-3.8,3.3-6.7,3.6c-9.5,1.1-19,2.3-28.5,3.9
	c-3.2,0.7-6.3,1.9-9.2,3.5c-3,1.6-3.6,4.6-2.7,7.7c1,3.3,3.7,3.3,6.4,3c7.9-0.8,15.8-1.4,23.6-2.4c2.8-0.3,5.4-1.1,6.2,2.6
	c0.9,4.2-2.1,4.9-5.2,5.5s-6.4,1.5-9.6,2c-8.5,1.3-17.2,2-19.7,12.8c-0.5,2.3-2.2,5.3-5.5,4.9s-2.3-3.4-2.8-5.5
	c-0.6-3-2.8-5.4-5.7-6.3c-6.8-2.7-7.2-6.9-1.4-10.5c4.9-3,3.6-6,2.3-10c-2.8-8.8,0.5-13.5,9.8-15C731.4,6.5,743.9,5.2,756.4,4.5z"/>
<path d="M413.5,16.7c-3.9,9.1-10.6,8.5-15.8,10.4c-5.8,2.2-11.5,4.1-10,12.2c0.6,3.2,0.6,7.5,3.9,8.6c4.1,1.4,3.9-3.4,5.4-5.7
	s3-3.7,5.7-2.4c3,1.5,3.1,4.3,1.5,6.7c-2.4,3.6-4.8,7.2-7.9,10.1c-5.7,5.3-15.2,2.9-16.3-5c-1.3-8.8-6-16.5-6.2-25.7
	c-0.2-10.7,3.8-16,14.3-18.6c9.9-2.5,20-3.8,30-5.9c3.4-0.7,8.1-1.8,8.7,3.5c0.5,4.4-3.7,4.3-7,5C409,12.3,398.5,15,388,17.6
	c-2,0.5-4.1,1.4-3.8,3.7c0.5,3.1,3.2,3,5.5,2.4C396.9,21.7,404,19.5,413.5,16.7z"/>
<path d="M136.1,29.5c0.4,4.7-0.2,9.4-1.7,13.9c-2.1,5.9-8.6,7.5-12.3,2.6c-4.4-5.9-11.5-8.9-15-15.5c-0.9-1.9-3.2-2.8-5.1-2.1
	c-2.1,0.8-2.7,2.7-2.7,4.8c-0.1,4.9-0.3,9.8-2.5,14.5c-1,2.2-1.8,4.4-4.7,3.9c-2.4-0.3-4.3-2.4-4.2-4.8c0.7-10.7,0.8-21.5,0.3-32.3
	c-0.3-5.8,8.5-7.5,13.2-3.4c6.4,5.6,12.7,11.4,17.7,18.4c1.1,1.5,2.8,3.4,4.9,2.7c2.6-0.8,2.9-3.4,2.9-5.7c0-5.4-3.6-14.3,4.9-13.8
	C138.6,12.9,136.2,22,136.1,29.5z"/>
<path d="M639,29.1c0.5-14.4,7.3-21.9,19.8-21.5c18.3,0.6,32.6,10.4,32.2,22.2c-0.4,10.2-18.6,23.8-31.2,22.9
	C648,51.9,635.7,40.8,639,29.1z M661.8,18.6c-5.4-1.3-10.2-1.5-12.4,3.8c-1.4,3.4-5,7-2,10.9c3.9,5,8.6,9.1,15.7,8.6
	c7.6-0.5,14-3.4,18.7-9.5c1.6-2,0.9-4.1-0.4-6.4C676.7,17.7,669.6,16.3,661.8,18.6L661.8,18.6z"/>
<path d="M452.2,57.6c-3.2-0.7-7.7-1.6-12.2-2.7c-4.2-1-7.4-3.5-6.8-8.2c0.6-4.2,1.1-9,6.6-9.7c7.3-1,6.1-3.9,2.5-8.2
	s-4.7-10.2-1.6-14.7c3.8-5.5,9.2-10.2,16.5-11.2c1.9-0.3,4.1-0.4,5,2c0.9,2.2,0.2,4.7-1.8,6.1c-1.7,1.4-4.1,2.1-6.1,3.2
	c-5.5,3-8.2,6.1-2.3,12c4.9,4.8,10.8,8.5,17.3,10.8c3.9,1.4,7,3,6.9,8.2c-0.2,4.8-2.5,6.8-6.6,8.5C464.2,55.9,458.3,57.3,452.2,57.6
	z M441.3,44.4c0.6,3.4,2.9,3.7,5.2,3.1c3.2-0.8,8.2,0.7,8.5-4.5c0.1-2.8-3.1-4.4-5.7-4.6C445.1,38.1,443.5,41.8,441.3,44.4
	L441.3,44.4z"/>
<path d="M530,38.9c0-2,0.1-4,0-5.9c-0.7-14.6-2-15.6-16-12.6c-3.9,0.8-7.9,0.8-11.8,1.1c-3,0.3-6.4,0.6-7-3.4
	c-0.7-4.2,1.7-6.9,5.9-7.6c7.5-1.2,15-3.1,22.5-3.4c5.4-0.2,9.7-4.1,15.2-3.3c5.4,0.8,9.2,2.5,4.5,7.9c-8.5,9.9-3.7,20.7-2.2,30.9
	c0.6,4.4,3.8,8.4,0.4,12.7c-1.5,2-4.3,1.9-6.4,0.6c-4.5-2.7-5.6-7-5.2-12c0.1-1.6,0-3.3,0-5L530,38.9z"/>
<path d="M970.7,20.1c0.1-1.1,0.2-1.8,0.3-2.4c0.4-4.6-3.3-12.4,5.1-11.8c8.9,0.7,1.8,7.6,2.1,11.6c0.4,5.2,0.2,10.4,1.7,15.5
	c2.8,9.6,7.4,11.8,16.9,8.6c10.3-3.5,20.7-6.7,31.1-9.9c2.6-0.8,5.7-0.7,6.6,2.4s-1.3,5-4.2,5.5c-12.8,2.4-23.8,9.5-36,13.5
	c-11.4,3.7-17.9-0.3-21.2-12C971.1,34,971.3,26.8,970.7,20.1z"/>
<path d="M917.5,24.1c1.1,6.1-2.4,15.4,4,18.5s13.2-3.8,19.5-6.9c4.9-2.5,9.2-6.3,13.9-9.2c1.6-1,4.1-1.8,5.3,0.3s-0.5,3.6-2.2,4.8
	c-10.3,7-20.2,14.6-31,20.9c-8.8,5.2-13.5,1.4-15.5-8.6c-2.1-10.2,2.3-21.6-6.3-30.8c-2.2-2.3,0.8-6.1,4.6-7.1c3.7-1,6-0.8,7,4
	C917.8,14.6,917.9,19.4,917.5,24.1z"/>
<path d="M1073,58.5c-2.7,8.4-1,18.3-8,25.6c-1.4,1.4-2.4,3.7-4.6,2.7c-3.1-1.4-1.4-3.8-0.4-5.8c3.5-7.2,5.8-14.7,5.6-22.6
	c-0.1-3.8-0.9-7.9,4.2-7.8S1072,55.6,1073,58.5z"/>
<path d="M64.5,2683.8c-15.6,7.1-23.5,1.3-29.4-12.4c-2.9-6.7-8.1-13.6-16.4-15.9c-5.7-1.6-6.8-6-4.9-10.4c2.3-5.5,7.5-3.5,11.7-2.3
	c2.2,0.6,4,2,5.2,3.9c10.7,21.5,28.3,18.8,47.1,14.7c17.4-3.9,35.3-5.6,52.4-10.1c9.1-2.4,15.1-15.1,27.6-7.6c3.4,2.1,9.6,0.4,9,7.1
	c-0.5,6.1-5.1,8.7-10.4,8.9c-21.9,0.5-42.7,6.9-63.9,11c-6.3,1.2-13.2,0.9-9.2,10.7c1.5,3.7-0.9,6.2-2.8,9
	c-14.9,22.1-32.9,41.8-50.4,61.8c-5.1,5.9-10.3,9.2-16.6,2.6c-6.7-7,1.5-9.3,4.9-12.8C35.2,2724.4,53.9,2708.3,64.5,2683.8z"/>
<path d="M99.5,2532.9c17.3,0,39.5,15.7,45.5,32.1c5.6,15.3,0.9,24.4-18.3,31c-22.3,7.7-46.1,8.4-69.3,10.8
	c-11,1.2-10.9-10.9-13-16.8c-6.1-17.8-9.7-36.5-13.8-55c-1.2-5.3-2.6-12.9,4.6-14.1c6.6-1.1,6,6.3,7.2,11c4.2,17.4,8.7,34.7,12.8,52
	c1.9,7.9,4.8,14.2,14.5,12c10.4-2.3,10.7-10.2,8.9-18.4s-4.3-16.2-6.4-24.3c-0.9-3.3-1.4-7.4,2.8-8.4c4.4-1,5,3.4,5.9,6.4
	c3.1,10.1,6.1,20.2,8.9,30.4c0.6,2.1-0.3,5.5,0.9,6.3c12.4,8.8,22.8-1.9,34-4.3c7.9-1.7,11.2-7.4,6.1-15.1c-7.8-12-14.2-26-32.2-25
	c-4.4,0.2-8.3-1.7-8.1-6.4C90.7,2531.8,95.7,2533,99.5,2532.9z"/>
<path d="M135.8,2471.9c1.5,14.7-9.9,24.4-23,32.9c-4,2.6-8.6,3.1-12.7,0.7c-1.4-0.8-2.5-3.9-2.2-5.7c0.9-5.3,4.8-7,9.8-6.8
	c10.7,0.4,12.7-8.8,14.6-15.6c2.3-8.2-1.2-16.6-5.9-23.6c-3.1-4.7-7.1-1.8-9.4,1.7c-8.2,12.7-20.4,21.6-30.5,32.4
	c-6.8,7.3-15.6,12.2-25.4,9.3c-10-3-12.5-13.6-16-22.2c-1.4-2.9-0.1-6.4,2.8-7.8c0.3-0.1,0.6-0.3,1-0.4c3.2-1,5.4,1,6.4,3.8
	c8,22.9,19.5,13.1,30.5,3.1c7.8-7,15-14.6,21.8-22.6c6.1-7.3,11.1-17.7,22-14.6c10.5,3,13,14.2,15.6,23.9
	C135.8,2463,135.5,2466,135.8,2471.9z"/>
<path d="M101.8,2352.2c1.6-0.1,4,1,4.2,4.4c0.3,2.9-1.7,5.6-4.6,6.1c-24.3,5.7-48.8,10.4-72.1,20c-3.6,1.5-6.9,0-7.4-4.2
	c-0.8-7.1,4-9.8,10-11c16.9-3.4,33.8-6.6,50.7-10.1C88.6,2356.1,94.4,2354.2,101.8,2352.2z"/>
<path d="M125.4,2367.2c-5.8-2.8-12.1-5.8-11.3-14.1c0.3-4,2.2-8.5,7.3-6.7c6.7,2.4,10.9,7.6,10.6,15.3
	C131.9,2365.4,130.4,2368.2,125.4,2367.2z"/>
<path d="M829.6,2526.4c7.7-0.1,15.8,4,23.3,8.5c8,4.8,10.3,16.8,5.2,26.6c-5.2,10-13.3,17.9-22.3,24.7c-5.1,3.8-22.6-2.4-23.2-8.6
	c-1-10.2-6.8-19.1-7.2-29.4c-0.2-4.1-4.3-5.7-5.8-9c-1.1-2.4-2.6-4.9-1.2-7.5c1.8-3.3,4.4-1.7,6.8-0.4c2.9,1.6,5.1-0.6,7.3-1.6
	C818,2527.2,823.8,2526.1,829.6,2526.4z M833.8,2581.6c0.4-3.4,0.3-6.1,3.5-8.7c5.2-4.3,9.9-9.2,14-14.6c7.3-9.3,5.8-15.3-5.1-19.5
	c-10.4-4.3-22-4.2-32.3,0.2c-2.5,1-5.7,2.6-4.2,5.6C816.3,2557.6,813.8,2576.3,833.8,2581.6L833.8,2581.6z"/>
<path d="M570.5,2544.8c-8.3,11.5-10.8,24-13.8,36.4c-0.4,1.6,0,3.6-2,4.1c-2.6,0.6-3.5-1.7-4.1-3.3c-3.4-8.2-6.8-16.4-9.7-24.8
	c-2-5.6-5-10.8-8.8-15.3c-1.3-1.6-5-1.9-3.3-5c0.6-1.1,2.7-1.8,4.2-2c3.4-0.6,3.9,1.8,5.2,4.4c5.8,11,10.8,22.4,14.9,34.1
	c2.3-10.4,3.3-20.8,9.3-29.7c2.3-3.3,4.4-7.3,8.2-8.2c5.1-1.3,4.9,4.8,6.3,7.3c5.5,10.2,13.7,18.1,20.9,27.1
	c0.2-11.3,2.1-22.6-4.2-32.8c-1.7-2.7-0.5-5.2,1.2-7.2c0.9-0.9,2.1-1.4,3.4-1.4c3.2,0.4,2.5,3.3,2.9,5.4c1.5,8.7,2.8,17.5,4.4,26.2
	c0.6,3.9,0.3,7.9-1.1,11.6c-2.3,6.9-5.4,8.5-11,2.7C584.5,2565.5,576.9,2555.6,570.5,2544.8z"/>
<path d="M410.6,2545.3c1.3,7.1,2.7,14.2,4,21.3c0.5,2.5,1.8,4.4,4.4,4.7c4,0.3,5.4,2.1,3.7,5.8c-1,2.4-1.8,5.4-5.1,5.2
	c-3.5-0.2-6.8-1.7-6.8-5.8c0-9.7-4.9-18.4-5.8-27.9c-0.5-5-2.6-7.8-8.7-5.1c-6.6,2.9-13.5,5.8-20.5,6.7c-10,1.3-9.4,6.2-6.8,13.4
	c2.1,5.9,3.5,12,5,18.1c0.5,1.9,1.2,4.1-1.4,5c-2,0.6-3.2-0.9-3.5-2.6c-3.4-15.4-8.9-30.1-13.7-45.1c-0.6-1.5,0.1-3.3,1.6-3.9
	c0.1,0,0.2-0.1,0.2-0.1c2.1-0.8,3.2,0.6,3.7,2.2c1.6,6,5.9,5,10.3,4.1c6.5-1.2,13-2.4,19.5-3.3c4.2-0.6,9,0,8.1-6.8
	c-0.2-1.8,1.7-3.7,3.7-4.2c4-1,2.5,2.8,3.6,4.4C409.4,2535.5,414.6,2538.8,410.6,2545.3z"/>
<path d="M305,2566.6c-7.3,9.3-1.3,11.4,5.8,12.8c2.3,0.4,4.6,0.6,6.9,0.8c3.9,0.4,8.9,1.3,10.1-3.4s-4.4-3.8-6.9-5.3
	c-10.1-6.2-14.3-16.1-16.5-26.9c-1.5-7.4,3.6-11.7,9.4-14.6c6.5-3.3,13.5-5.5,20.7-2.4c1.7,1,2.8,2.8,3,4.7c0,2.4-2.7,2.4-4.6,2.7
	c-2.9,0.5-6,0.4-8.8,1.4c-4.7,1.7-12.5,0.9-12.5,7.4c0,6.8-0.5,14.5,8.7,18.9c6.6,3.2,12.1,8.8,19.6,10.6c3,0.8,3.9,3.2,4,6.1
	c0.3,2.8-1.6,5.3-4.4,5.8c-13,2.9-25.9,5.3-37.8-3.9C294.1,2575.2,294.3,2571.8,305,2566.6z"/>
<path d="M461.8,2566.1c2.4,8.4,0.3,15.4-6.3,19.9c-5.1,3.4-13.1-0.5-14.9-6.9c-3.1-11.2-9-21.9-6.5-34.1c0.9-4.3-5.6-7.6-2.7-10.6
	c4.1-4.1,10.5-5.1,16.3-6.1c4.5-0.8,9.1-1.4,13.7-1.6c2.4-0.1,5.9-0.6,6.3,3.1c0.4,3.8-2.9,3.4-5.5,3.9c-5.5,1-10.9,2.4-16.4,3.4
	c-5,0.9-6.5,4.7-6,8.8c0.5,5,4.8,3.5,7.8,3c6.1-1.1,12.2-2.7,18.3-4c1.9-0.4,4.3-0.8,4.9,1.7c0.6,2.9-2.2,2.5-3.9,3.1
	c-7.7,2.5-13.9,8.9-22.5,9.2c-3,0.1-3.8,2.3-3,4.9c0.6,1.9,1.3,3.7,2.2,5.5c1.7,3.7,1.3,9.3,7,9.6s7.6-4.1,9.1-8.7
	C460.1,2568.7,460.8,2567.3,461.8,2566.1z"/>
<path d="M685.2,2545.4c-0.9,7.4,1.7,13.7,3.5,19.9c1.3,4.6,5.2,9.2,11,8c8.9-1.9,15.9-7.1,18-16.2c1.5-6.7,1.7-14-5.5-18.6
	c-2-1.3-4-2.6-3-5.5c0.8-2.3,2.9-2.6,4.8-2.9c4.5-0.8,2.9,3.1,4,5.1c6,11.3,8.3,22.8,1.8,34.8c-3.3,6.1-8.7,10-14.4,13.1
	c-6.5,3.6-15.2-0.3-19.4-10.4c-5-11.8-8.1-24.4-11.8-36.6c-0.7-2.3-0.3-4.9,2-6.1c3.3-1.7,3.1,1.8,4.6,3.2
	C684.5,2536.8,687.1,2540.6,685.2,2545.4z"/>
<path d="M638.2,2534.7c12.2-1.5,19.7,7.3,25.5,17.6c4.7,8.4-0.3,19.2-10.2,24.8c-8.4,4.6-19,1.8-24-6.5c-5.9-9.6-5.8-20.2-4-30.6
	C626.4,2534.2,631.8,2534,638.2,2534.7z M641.2,2543.5c-10.2-0.1-10.2-0.1-10.4,11s3.9,15.9,14.7,15.6c7.4-0.2,12.5-4,12.9-11.8
	C658.9,2550,651.2,2543.7,641.2,2543.5L641.2,2543.5z"/>
<path d="M791.8,2558.6c3.8,2.9,4.8,5.4,3.7,9c-2.7,9.1-14.7,17.5-25.2,17.3c-8.7-0.2-15.5-5.9-17.6-16.7c-2.2-11.3-3-22.8-4.4-34.2
	c-0.3-2.5,0-5,2.9-5.2s3.5,2.4,3.5,4.9c0.1,8.9,0.4,17.6,2.1,26.5c1.6,7.8,2.3,15.2,12.8,15.3
	C783.4,2575.5,789.4,2571.4,791.8,2558.6z"/>
<path d="M1073.8,2547c-9.5,6-20.5,7.7-31,11c-4.5,1.4-11.7,0.1-12.5,5.9s3.5,10.8,8.5,14.8c2.8,2.3,6.2,3.1,9.1,5.3
	c3.6,2.7,3.9-2.8,5.4-4.8c2-2.5,1.9-9,6.3-6.6c3.7,2-0.5,6.6-2,9.4c-5.8,10.6-10.2,11.3-19.7,3.7c-12-9.7-15.8-23.7-19.7-37.6
	c-0.5-1.9-1-4.4,1.5-5c2-0.5,3.9,0.8,4.4,2.7c0.1,0.4,0.1,0.8,0.1,1.3c-0.9,10.4,3.1,5,8.4,4c8.2-1.6,16.5-4.4,25.3-3.6
	C1063.1,2547.9,1068.5,2547.8,1073.8,2547z"/>
<path d="M1059.8,2522.9c0.3-0.1,0.7-0.1,1,0c3.8,1.8,11.1-2.6,11.3,3.5s-8.1,6.2-11.9,5.6c-9.7-1.7-18.1,1.2-26.8,4.1
	c-3.6,1.2-7.1,1.4-8.3-2.4c-1.3-4.2,3.2-4.1,5.7-5.1C1040.1,2524.9,1049.9,2523,1059.8,2522.9z"/>
<path d="M940.4,2536.2c4.8-7,24.3-13.6,30.1-11.5c4.5,1.6,5.8,10.9,2,15.4c-1.5,1.7-3.5,3-5.1,4.6c-1.2,1.2-2,2.9-1,4.5
	c1.1,1.8,3,1.3,4.4,0.5c5.5-3.2,10.5-1.6,15.8,0.8c7.6,3.4,8.9,9.1,3,15.1c-8.6,8.7-18.6,15.5-30.9,21.8c1.5-4.2,4.7-7.6,8.7-9.5
	c8.3-3.6,11.6-12,18.3-17.1c4.6-3.5,0.1-5.9-3.2-6.2c-7.2-0.9-14.5-0.2-21.4,2.2c-2.1,0.9-4.4,1.3-6.7,1.3c-2,0-4.2,0.6-4.8-1.9
	c-0.5-2,0.6-4.1,2.6-4.8c6.6-2.4,9.4-9,14.5-13.1c2-1.6,3.5-4.4,2.1-7.1s-4.5-2.9-7-2.1C955.3,2531.1,948.8,2533.4,940.4,2536.2z"/>
<path d="M949.5,2589.4c-4-3.4-9.8-5.7-6.7-13c0.6-1.4-0.2-4.1-1.3-5.5c-7.6-10.6-5.7-24.3-11.9-35.3c-0.7-1.3-0.5-3.2-0.5-4.9
	c0-2.1,0.4-4.3,3-4.3c2.7,0,3.2,2.4,2.7,4.3c-2.9,11.1,7.5,19.4,6.4,30.1C952.8,2567.7,945.4,2580.2,949.5,2589.4z"/>
<path d="M793.7,2687.7c0.7-4.2,1.5-7.4,0.4-10.8c-1-2.9-2-6.1,2.6-6.8c3.5-0.5,6.4,1.1,6.1,4.7c-0.5,6.9,3.3,6.7,8,5.9
	c7.8-1.2,15.7-2.2,23.5-3.4c1.6-0.2,3.4-0.6,4.5-1.6c2.5-2.3,2.8-9.4,8-5.5c3.8,2.8,7.3,7.2,7.4,13.1c0,5.9,0.8,11.8,2.2,17.6
	c1.3,4.5,0.4,11.2,8.1,11.8c1.7,0.1,3,1.5,2.9,3.2c0,0.4-0.1,0.8-0.3,1.2c-1.5,3.9-2.8,8.3-7.4,9.9c-2.5,0.9-4.3-0.8-5.7-2.9
	c-3.5-5.5-3.7-11.9-4.5-18.1c-2.7-20.1-2.7-20.2-21.8-16.8c-4.2,0.8-8.4,1.9-12.6,2.7c-11.4,2.3-11.5,2.3-7.3,13.6
	c2.2,5.8,5.2,11.3,5.4,17.7c0.1,2.2,1.9,4.6-1.3,5.8c-2.5,1-4.5-0.3-6.3-1.9c-2.4-1.9-3.8-4.7-3.8-7.8c0-10.1-1-19.7-7.7-28
	C793.5,2690.4,793.8,2688.4,793.7,2687.7z"/>
<path d="M741.3,2713c-8.6-3.6-7.1,5-9.5,9.1c-1.6,2.7,0.7,8.5-5.3,7.5c-4.8-0.8-7.2-5.2-7.1-9.6c0.1-5.2,1-9.9-5.9-11.3
	c-1.9-0.4-2.1-2.8-0.6-3.9c7.7-6.1,2.9-12-0.1-18c-1.4-2.6-2.6-5.3-3.5-8.1c-0.9-2.9,0.7-6.3,3.3-6.1c11.5,1.1,21.9-6.2,33.8-3.2
	c13.3,3.3,23.4,14.9,21.8,27.3C767,2705.8,755.1,2713.2,741.3,2713z M734.2,2705.5c6.8,2.1,12-2.4,17.7-4.4c5.3-1.9,8.5-5.2,7.5-12
	c-0.9-6.5-4.1-8.6-9.8-10.5c-9.6-3.1-18,1.6-26.9,3c-2.1,0.3-3.1,2.2-3.5,4.3C717.6,2695.3,725,2705,734.2,2705.5L734.2,2705.5z"/>
<path d="M955.2,2672c6.6,0.5,13.2-0.3,19.5-2.4c3.4-1.1,6.9-2.5,10.6-1.7c2.9,0.6,6.2,1,6.4,4.9c0.2,3.4-2.2,4.7-5,5
	c-5.3,0.6-6.4,4.7-6.6,8.5c-0.4,9.8,0.9,19.6,2.8,29.2c0.5,2.2,1.8,4.5,4.5,4.7s2.9-2,3.5-3.9c0.9-2.8,3-3.8,5.3-2.1
	s3.4,4.1,0.7,6.6c-1,0.9-2,1.7-2.9,2.6c-3,3.1-5,8.9-10.5,7.1c-5.3-1.6-6-6.7-6.5-12.1c-1-10.1-3.2-20.1-4.7-30.2
	c-0.8-5.3-3.1-7.3-8.8-6c-8,1.8-16.2,2.6-24.3,4.2c-5.3,1.1-9.8-0.5-11-5.4c-1.5-6.3,4.7-6.3,8.5-7.1
	C942.7,2672.9,949,2672.7,955.2,2672z"/>
<path d="M1012,2699.7c0.7-5.2,0.7-10.7,2.4-15.6c2.8-8,7-14.6,17.6-13.3c15.8,2,27.5,9.4,35.9,22.9c4.4,7.1,2.4,12.5-2.9,17.5
	c-7.3,6.8-15.9,11.7-25,15.7c-10.2,4.5-25.7-7.2-27.5-20.4c-0.2-2.3-0.2-4.6,0-6.9L1012,2699.7z M1035.2,2717
	c11.5,1.2,18.6-6,26.1-12.3c3.1-2.6,3-6.4,0.7-9.9c-7.7-11.6-18.8-16.8-32.3-17.4c-2.4-0.1-6.3,1-5.8,2.4c3,7.7-5.2,11.8-5.3,18.6
	C1018.4,2710.9,1023.2,2716.8,1035.2,2717L1035.2,2717z"/>
<path d="M896.2,2722.8c-7.7,0.1-13.1-3.1-15.8-10.7c-2.2-6.3-4.3-12.6-3.9-19.2c0.3-4.9-1.7-11.9,4.3-14.1c6.6-2.3,13.8-6,20.9,0.6
	c5.8,5.4,11.4,11,14.8,18.1C922.7,2710.4,912.5,2722.7,896.2,2722.8z M898.7,2710.5c4.9-0.4,9.2-3.9,10-10.1
	c0.8-6-10.4-14.7-17.4-14.1c-6.5,0.6-6,5.9-6.2,10.4C884.9,2704.5,890.5,2710.7,898.7,2710.5z"/>
<path d="M635,2683.5c-8.7,6.2-18.2,10.1-28.7,10.8c-6.8,0.4-8.8,2.9-7.4,9.3c1,4.5,1.5,9.1,2.5,13.6c0.6,2.8,0.8,6.1,4.6,6.9
	c3.4,0.6,5.7-1.4,7.5-3.8c4.5-6,8.8-12.1,14-17.6c-2.7,11-8,21.2-15.5,29.7c-4.2,4.6-13.3-0.7-15.1-8.8c-1.5-6.8-1.9-13.7-3.3-20.5
	c-1.8-9.2-4.7-18.1-4.1-27.8c0.3-3.8-0.2-5.8,4.9-6.1c10.4-0.8,20.8-2.6,31.1-4.3c3.1-0.5,5.5-0.2,5.9,3.2c0.4,3.6-2.9,4.9-5.2,4.3
	c-8.3-2.1-15.4,3.1-23.3,3.4c-3.5,0.1-7,0.4-6.7,5.1c0.3,4.6,2.5,7.5,7.5,7.4c8.8-0.3,17.8,0.5,25.2-5.8
	C630.6,2681.1,632.4,2680.2,635,2683.5z"/>
<path d="M554.5,2674.4c10.4,2.9,16.4,7.1,11.9,19c-1.2,3.3-2.4,12.1,7.8,10.3c3.4-0.6,3.7,3.1,2.6,5.9c-1.1,3-3,5.6-4.3,8.5
	c-2,4.6-4.8,0.6-6.3-1.6c-4.2-5.9-3.5-13.2-5.3-19.8c-3.1-11-4.2-11.9-14.9-7.9c-7.3,2.7-15.2,4-22,8.6c-3.8,2.6-5.7,5.1-2.6,8.6
	c3.6,4.2,2,8.8,2.5,13.2c0.2,1.9,1.1,4.3-1.7,4.8c-2.4,0.4-3.7-1.9-4.1-3.6c-2.2-8.9-4.1-17.8-5.8-26.8c-0.8-4.5-1.3-9.1-1.4-13.8
	c-0.1-2.2-0.2-5,3.1-5.2c2.4-0.1,3.5,1.8,3.4,4c-0.8,10.1,5.1,9.2,11.9,7.6c4.5-1.1,9.1-1.8,13.7-2.1
	C549.5,2684.1,554.4,2682.1,554.5,2674.4z"/>
<path d="M351.7,2717.1c-1.4,2.8,1.6,6.7-2.3,7.3s-4.8-3.1-5.2-6c-1.6-12.7-2.9-25.5-4.2-38.3c-0.2-2.2-0.8-5,2.2-5.8
	c3.1-0.9,5.4,1.5,6.1,3.9c3,10.5,11.2,16.8,18.3,24c1.7,1.7,3,3.8,5.4,3.8c3.2,0.1,6.4,4.2,9.2,1.3c3.2-3.2-0.4-6.5-1.2-9.9
	c-1.5-5.8-7-9.8-6.6-16.2c0.1-1.6,0-3.4,2.1-3.9c1.4-0.4,2.9,0.4,3.4,1.8c0.1,0.3,0.1,0.5,0.1,0.8c-0.1,8.2,5.9,13.7,8.5,20.7
	c1.7,4.7,2.6,9.5-0.9,13c-3.7,3.6-8.7,1.8-13-0.2c-8.2-3.9-14.6-9.9-19.8-17.2c-1.3-1.8-2.4-4.9-4.9-3.9c-3.4,1.3-1.5,4.4-1,6.9
	C349.3,2705.4,350.5,2711.5,351.7,2717.1z"/>
<path d="M309.3,2721.9c-1.9-16.9-4.4-33.8-9-50.2c-0.7-2.7-1.9-5,0.4-7.2c0.9-0.8,2.2-1.2,3.5-1c3.1,1.2,2.1,4.3,2.6,6.8
	c3.3,17.9,4.2,36.2,10.7,53.4c0.5,0.9,0.8,1.8,0.9,2.8c-0.2,3.4,0.5,8.3-3.8,8.7c-3.8,0.4-4.3-4.3-5-7.4
	C309,2726,309.3,2723.9,309.3,2721.9z"/>
<path d="M483.1,2665.4c3.4,0.9,5.1,3,3.1,5c-4.6,4.6-3.4,9.8-2.1,14.7c2.5,9.6,3.3,19.3,4.1,29.1c0.3,3.2-0.5,7,3.5,8.4
	c3.1,1,4.7,2.6,2.9,5.7c-1.4,2.5-2.9,5.8-6.5,4.9c-2.9-0.7-3.2-3.7-3.4-6.4c-1.4-14.7-3.1-29.3-6.9-43.7
	C476,2676.3,479.1,2670.5,483.1,2665.4z"/>
<path d="M456.5,2675c-5.9,0.5-11.8,1.1-17.6,1.6c-2.9,0.2-5.5-0.5-5.5-4c0-3,2.6-3.9,4.9-3.7c10.1,0.7,20-2.3,30.1-0.6
	c1.7,0.3,3.5,0.3,3.8,2.3c0.4,2.4-1.6,2.6-3.2,2.7C464.7,2673.4,460.9,2676.4,456.5,2675z"/>
<path d="M897.2,2413c10-20.9,18.6-26.4,37.8-25.5c3.2,0.1,6.8-0.5,8.2,3.8c1.3,4.1,0.8,7.9-2,11.1c-3.8,4.2-8.9,6.9-14.5,7.7
	c-3.7,0.6-8.3,1.4-8.7,6.6c-0.4,5.3,3.6,7.6,7.8,8.8c10.7,3,21.7,9,31-3.4c1.7-2.3,5.3-2.4,9.5-1.1c-5.8,4-3.4,10-4.1,14.9
	c-0.7,5.2,5.4,6.1,9.6,5.2c6.4-1.4,12.7-3.4,18.7-5.9c8.1-3.5,8.1-6.3,1-11.3c-9.4-6.6-17.8-14.1-22.9-24.7
	c-2.3-4.9-2.2-9.6,0.7-13.9c1.5-2.1,4-3.9,6.8-2.1c2.7,1.7,3.1,4.4,0.8,6.7c-5.4,5.4-1.6,10.1,1.6,13.7c5.7,6.3,11,13.1,18.3,17.9
	c4.8,3.1,8.5,7.8,7.4,14.1c-1,5.9-6.7,6.4-11.3,8.1c-7.6,2.6-15.4,3.1-23.4,2.9c-3.8-0.1-8-0.6-9.7-3.8c-4.2-7.7-10.1-7.5-17.3-5.7
	c-11.1,2.8-20.1-2.6-28.4-8.7c-7.7-5.6-6.8-16.2,1.6-21.4c3.9-2.4,8.6-3.4,12.6-5.5c2-1,6-1.3,4.8-5c-1-3.1-4.3-2.3-6.9-2.2
	c-12.3,0.6-20.2,7.7-21.8,19.9c-1.1,8.7-1.8,17.5-3,26.2c-0.3,2.1,1.1,6.1-3.4,5.6c-2.5-0.1-4.4-2.2-4.3-4.7
	c1.1-13.8-1.6-27.6-7.9-40c-0.9-1.5-0.4-3.5,1.2-4.4c0.3-0.2,0.6-0.3,0.9-0.4c2.6-0.8,4.8,0.1,5.6,2.6
	C895,2403.1,895.8,2407.2,897.2,2413z"/>
<path d="M613.1,2385.2c3.5,0,7.8-0.1,12.1,0c3.2-0.1,5.9,2.5,5.9,5.7c0,0.3,0,0.6-0.1,0.9c-0.6,4.1-4,2.3-7.1,1.6
	c-11.8-2.4-23.6-0.5-35.1,2.3c-4.1,1-5.9,3.9-4.3,8.4c1.4,4.1,2,9.2,7.8,8.4c8.5-1.1,17.3,1.2,25.5-2.3c2.3-1,4.8-1.4,5.8,1.5
	c1,3.1-1.7,3.7-3.8,4.6c-7.3,3.4-15.4,4.1-23.1,5.3c-8.5,1.3-9.3,4.6-5.5,11.2c0.5,0.8,0.9,1.8,1.2,2.7c0.9,3.4,1.4,7.4-2.7,8.3
	s-6.5-2.5-7.1-6.5c-0.4-2.9-0.5-5.9-0.7-8.8c-0.2-2.4-0.5-4.4-3.3-5.4c-6.1-2.1-7.3-5.6-1.8-9.8c5-3.8,0.6-7.3-0.3-10.6
	c-2.6-9.7,1.1-16,11.1-16.7C595.8,2385.7,604,2383.9,613.1,2385.2z"/>
<path d="M439.2,2429.4c-5.6-4.7-13.3-5.6-19-11.1c-7.2-7-8.4-15.5-10.4-24c-1.2-4.9,3.4-7.9,7.5-9.2c4.5-1.4,9.8-3.9,14.1-0.9
	c3.1,2.2,0.6,4.2-2.2,5.5c-9.1,4.3-10.1,16.1-1.6,21.8c4.3,2.9,9,5.3,14.5,6c8.3,1.1,11.7,9,7.3,16.1c-8.2,13.1-31.8,16.1-43.3,5.7
	c-2.8-2.5-4.4-5-3.1-8.6c1-2.9,3.9-3.8,5-1c6.1,15.1,15.9,6.6,24.6,4.1C434.8,2433.4,437.8,2432.8,439.2,2429.4z"/>
<path d="M503.5,2407.9c-0.3-8.5,8.6-12.8,16.4-14.4c13-2.6,18.9,5.3,26.4,12c5.4,4.8,8.1,11.4,5.8,17.8s-8.4,11.1-15.5,12.2
	C520.5,2438.1,504.1,2424.1,503.5,2407.9z M523.8,2398.8c-6.1,1.3-11.8,2.9-12,11.3c-0.3,11.2,14.5,19.7,26.1,14.5
	c3-1.3,7.7-1.4,7.3-6.6C544.7,2412.2,530.3,2399.1,523.8,2398.8L523.8,2398.8z"/>
<path d="M305.1,2384.2c0.1,19.6,2.3,38.4,5.1,57.2c0.3,2.1,0.9,3.8,3,4.6c2.5,1,8-0.6,5.1,5.3c-1.2,2.5-2.1,6.4-5.9,5.4
	c-3.5-0.9-6.6-3-7.1-7.3c-1.8-14-4.2-27.9-5.4-41.9c-0.5-5.1-1.6-7.4-6.8-8.7c-11.5-3-20.7-9.8-28.2-19c-1.9-2.3-3.6-4.4-1-6.7
	c3.4-2.9,4.4,0.9,5.8,2.8c5.2,6.8,12.3,10.8,20.1,13.8c5.7,2.1,8.3,0.7,7.3-5.6c-0.1-1-0.1-2-0.3-3c-0.7-4.1,0.5-8.4,4.5-8.5
	c5-0.1,3.8,5,4.1,8.4C305.4,2382,305.3,2383.1,305.1,2384.2z"/>
<path d="M848.6,2436.8c-10.1,1.3-14.1-7.7-19.7-13.6c-3.9-4.2-5.6-10.3-9.7-14.7c-1.5-1.4-1.8-3.7-0.7-5.5c1.2-1.8,3.3-2.1,5.3-2.1
	c2.9-0.1,4.2,1.8,4.2,4.4c0,8.1,7,12.4,10.4,18.6c2.5,4.6,8,4,12.5,2.3c5-2,8.6-5.7,7.6-11.4c-1-5.2-0.7-11.2-7.1-14.3
	c-3.4-1.6-2.6-5.1-0.5-7.6s4-0.4,5.8,1.1c11.7,10.2,12.1,29.6,1.1,40.1C855.6,2436.7,852,2437.7,848.6,2436.8z"/>
<path d="M1047.2,2426.7c3,10.2-3.8,14.3-9.8,17.5c-7,3.8-11.7-1-14.9-7.1c-5.8-11-6.2-23.1-7.5-35c-0.4-1.9,0.9-3.7,2.8-4.1
	c0.2,0,0.3-0.1,0.5-0.1c1.9-0.2,3,1.1,3.7,2.7c1.8,3.6-2.1,10.6,3.7,10.9c7.3,0.4,15,1.8,22.4-1c2.1-0.8,4.3-1.5,6.6-2.1
	c2.1-0.6,4.8-2.2,5.5,1.3c0.5,2.6-1.6,4-4.1,4.6c-8,1.9-15.9,4.6-24,5.6c-5.4,0.7-8,1.6-6.5,7.6c1.4,5.6,3.8,8.7,10.4,7
	C1040.3,2433.4,1042.4,2429.4,1047.2,2426.7z"/>
<path d="M1022.2,2392.9c-1.6,0.2-3.3,0.3-4.9,0.2c-1.9-0.3-4.3-0.7-4.3-3.2s2-3.3,4.1-3.2c12.5,0.3,24.9-2.1,37.3-3.4
	c3-0.3,6.6-0.3,6.3,4c-0.2,3.5-3.5,2.9-6.2,3C1043.7,2391,1032.9,2392,1022.2,2392.9z"/>
<path d="M375.5,2382.2c5.4,0.3,13.5-2.1,13.4,3.2c0,5.7-8.1,2-12.5,2.9c-8.7,1.8-17.5,3.2-26.2,4.5c-4.6,0.7-6.7,3.8-6,7.6
	c2.1,10.6,2.3,21.7,7.6,31.5c4.8,8.7,10.4,9.1,16.6,1.2c1.6-2.1,2.8-4.5,4.4-6.6c1.3-1.9,0-6.6,3.9-5.4c3.6,1.2,1.6,5,1.2,7.8
	c-0.1,0.7-0.4,1.3-0.8,1.8c-5.2,6.2-6.3,17.4-17.6,16.3s-12.2-11-15.5-19.3c-4.2-10.5-4.5-21.8-7.7-32.5c-1.6-5.2,1.4-10,6.9-9.7
	C354.4,2386.1,364.9,2380.1,375.5,2382.2z"/>
<path d="M362.5,2397.6c3.3,1.1,7.7-3.4,8.8,1.7c0.7,3.4-3.1,4.6-6.4,3.8c-3.9-0.9-10.8,2.4-11.2-2.5
	C353.3,2394.2,360.1,2400.1,362.5,2397.6z"/>
<path d="M731.5,2398.2c-5.9-1.1-9.6,0.5-11.3,4.4c-2.9,6.3-2.2,13.7,1.8,19.3c12.1,17.7,25.1,12.3,38.1-1.3c1.1-1.1,1.3-3,2.5-4
	s3-2,4.2-1.7c2.8,0.8,1.2,3.1,0.8,4.8c-2.5,11.2-20.2,24.5-31.3,23.6c-12.5-1.1-24.9-14.5-25.2-28c0-5.5,0.5-11,1.6-16.4
	c2.1-12,5.8-14.4,18-13.1c4.5,0.5,8.9,0.9,8.6,6.8C738.9,2398.6,734.5,2398.6,731.5,2398.2z"/>
<path d="M810.4,2418.6c-0.3,7.7-4.5,14.7-11.1,18.5c-6,3.6-12.3,2.4-16.9-4c-6.2-8.7-6.1-18.6-5.5-28.3c0.4-6.4,3.8-12.9,10.6-14.8
	s11.1,3.6,15.3,7.8C808.6,2403.5,809.6,2411.2,810.4,2418.6z M782.7,2412.6c0.6,5.9-0.2,12.7,6.7,15.6c4.3,1.8,8.8,2.1,12.5-2.1
	c4.9-5.5,2.9-10.7,1-16.9c-2.5-8.1-9.9-9.2-14.9-9.9C784.4,2398.9,782.2,2406.9,782.7,2412.6L782.7,2412.6z"/>
<g>
	<path d="M123.7,1324.6c-0.4-21.4,6.4-28.3,27.8-28.5c7.9-0.1,19.9,15.3,20.1,25.9c0.4,14.9-13.4,31.4-27.1,32.3
		C132.9,1355.1,124,1342.6,123.7,1324.6z M148.9,1305.1c-12.3,0-18.8,6.2-19,18c-0.2,13.9,6.4,21.9,17.7,21.5
		c9-0.3,18.4-12.1,18.2-22.8C165.8,1312.2,158.5,1305.1,148.9,1305.1z"/>
	<path d="M79.1,1294.4c-1-3.5-1.4-6.2,0.2-8.9c1.4-2.4,3.3-3.7,6-3.8c3.1-0.1,4.6,1.7,4.9,4.5c0.4,3.5,2.9,6.6,1.7,10.4
		c-4.6,14.7-3.1,30.3-6.8,45.2c-2.3,9.2-4.1,18.9-0.6,28.4c2,5.4-1,8.5-5.9,9.1c-5.2,0.7-6.8-2.8-6.2-7.5
		c1.5-13.1,2.8-26.2,4.6-39.2c0.8-5.9,0.6-9.3-6.7-9.9c-10.7-0.8-15.6-9.4-19.7-17.7c-4.4-8.9-7.5-18.3-14.9-25.4
		c-2.2-2.1-2.3-4.4,0.2-6.3c3.5-2.7,7.4-3.7,10.3,0.4c2.5,3.4,4,7.5,6,11.3c3.6,7,7.4,13.8,10.6,21c1.9,4.3,4.8,6.4,9,6
		c5-0.4,5.6-4.8,6.3-8.7C78.7,1300.1,78.9,1296.9,79.1,1294.4z"/>
	<path d="M232.3,1354.5c-13.3,1.8-18.6-10.2-26-18c-5.2-5.5-7.4-13.6-12.8-19.5c-2-1.9-2.4-4.9-0.9-7.2c1.6-2.4,4.4-2.7,7-2.8
		c3.8-0.2,5.6,2.4,5.6,5.8c0,10.7,9.3,16.4,13.7,24.6c3.3,6,10.6,5.3,16.6,3c6.6-2.6,11.4-7.5,10.1-15c-1.3-6.9-0.9-14.9-9.4-18.9
		c-4.5-2.2-3.4-6.8-0.6-10.1c2.8-3.3,5.3-0.6,7.6,1.5c15.4,13.5,16,39.1,1.5,53.1C241.5,1354.3,236.7,1355.7,232.3,1354.5z"/>
	<path d="M354.6,1328.2c0.5,10.4-1.5,13.6-10,11.5c-14.1-3.6-27.8-7.9-40.9-14.3c-5.5-2.7-8.2-2.2-7.8,4.8c0.3,5,0.3,10.2-2.5,14.8
		c-1.2,1.9-1.2,5.2-4.3,4.9c-3.6-0.4-3.1-3.9-3.3-6.4c-0.5-5.4-0.8-10.8-1.4-16.1c-0.3-3-0.5-6.2-3-8.4c-3.7-3.3-4.7-7.2-0.6-10.2
		c4.1-3.1,8.2-7.1,14.2-2.2c12.3,9.8,26.4,16.3,41.6,20.8c8.8,2.6,9.6-0.5,7.7-7.7c-1.5-5.2-2.9-10.4-4.2-15.7
		c-0.5-1.3,0.2-2.7,1.5-3.3c1.2-0.5,2.7,0,3.2,1.3c0,0.1,0.1,0.1,0.1,0.2C348.7,1311.5,352.1,1321.3,354.6,1328.2z"/>
	<path d="M409.2,1369.9c-16.5,1.8-25.5-15-29.9-31.5c-3.5-12.6-0.8-26.1,7.2-36.4c5.5-7.3,12.3-10.8,21.5-8c6.1,1.9,10.5,5.8,8,12.4
		c-2,5.3-6,10.2-13.1,6.6c-6.3-3.2-8.8,0.4-11.3,5.2c-2.6,5-3.4,10.8-2.1,16.4c2.8,13.4,4.6,13.9,16.2,6.4
		c8.8-5.7,18-10.6,29.1-11.4c6.4-0.5,9.4,2,12.5,7c3.1,5,1.3,8.4-1.7,12.1C436.2,1360.5,424.8,1369,409.2,1369.9z M424.6,1345.7
		c-4.7,2.1-9.5,4.1-14.2,6.3c-1.7,0.9-3,2.8-1.5,4.5c3.2,3.7,7.3,1.9,10.1-0.3c3.4-2.7,10.6-1.2,10.1-8.3
		C429,1346.1,426.6,1345.5,424.6,1345.7z"/>
</g>
</svg>
