<?xml version="1.0" encoding="utf-8"?>
<!-- Generator: Adobe Illustrator 22.0.1, SVG Export Plug-In . SVG Version: 6.00 Build 0)  -->
<svg version="1.1" id="Layer_1" xmlns="http://www.w3.org/2000/svg" xmlns:xlink="http://www.w3.org/1999/xlink" x="0px" y="0px"
	 viewBox="0 0 1233.3 2936.6" style="enable-background:new 0 0 1233.3 2936.6;" xml:space="preserve">
<title>c31-txt</title>
<path d="M23.2,295c-0.3-4.9-0.2-8.8-0.8-12.6c-1.9-11.2,0.8-15.2,11.9-16.8c6.2-0.9,12.5-1.5,18.7-2.5c8.9-1.4,12.5,2.7,11.9,11.1
	c-0.2,3.1-0.8,6.2-1.8,9.1c-2.5,7-3.8,11.8,7.2,10.9c8-0.6,10.9,9.1,6.3,18.5c-7.3,14.8-22,20.1-37.2,13.3c-2.3-1-4.8-1.2-7.2-0.6
	c-4.5,0.9-7.4-1.8-6.9-5.6C26.5,310.9,20.1,302.8,23.2,295z M28.8,286c0.2,9.7,4.1,12.2,12.5,8.2c1.9-1,3.7-2,5.4-3.2
	c5.5-3.5,11.9-8,8.6-14.6c-3.1-6.3-9.9-1.6-15-0.3c-2.3,0.6-4.5,2-6.8,2.5C29.3,279.6,27.6,281.9,28.8,286L28.8,286z M67.3,309
	c-0.4-4-2.5-6.5-6.2-5.1c-7.4,2.7-15.2,2-22.7,3.4c-2.1,0.4-6.5,0.6-4.5,3.7c3.1,4.6,6.5,11,13.5,9.8
	C55.2,319.3,62.9,316.6,67.3,309L67.3,309z"/>
<path d="M34.8,196.2c-11.6-0.1-16.7-4.7-16.9-16.4c-0.3-14.5-2.2-28.5-9.2-41.4c-1.8-3.3-0.7-5.4,1.6-7.3c2.1-1.7,4.7-2.4,6.2,0.5
	c2.3,4.6,5.3,3.3,8.7,1.7c5.9-2.7,12.4-2.6,18.6-2.8c11.4-0.5,16.2,6.9,11.3,17.5c-2.6,5.7-0.6,7,4.6,8.4
	c15.6,3.9,17.9,13.3,6.6,25.4C58.3,190.5,45.5,196.3,34.8,196.2z M62.9,170.9c0.1-3.6-2-5.1-5.2-5.1c-10.2,0.1-19.9,3-29.6,5.5
	c-0.9,0.2-1.5,1.2-2.3,1.8c6.4,3,3.7,12,9.2,14.8C40.8,190.9,62.4,177.1,62.9,170.9L62.9,170.9z M21.4,153.1c0.8,2.3-1,7.3,4.8,7.8
	c6.9,0.5,18.4-7.9,20.5-14.4c0.8-2.3,0.7-4.4-1.3-5.6c-6.7-3.7-11.9,1.5-17.7,3.3C24.1,145.4,20.1,146.7,21.4,153.1z"/>
<path d="M1140.3,50.6c-0.7-8.5,1.8-20.4-12.1-25.1c-1.6-0.5-2.5-2.1-2-3.7c0.1-0.2,0.1-0.4,0.2-0.6c0.8-2,2.7-3.4,4.8-3.6
	c8.3-0.8,12,4.2,13.7,11.5c0.6,2.6,0,6.5,3.4,7s3.8-3.3,5.2-5.7c6.4-11.6,20.8-16.9,32.9-12.4c2.8,1,3.7,2.5,3.6,5.5
	c-0.1,3.7-0.3,7-4.4,8.5c-6.2,2.2-12.3,4.6-18.6,6.8c-2,0.7-4.3,0.8-4.7,3.4s1.7,3.5,3.4,4.7c13.2,9,28.6,7,43.2,8.4
	c3.5,0.3,7.6-1.3,8.1,3.6c0.6,5.7-3.9,5.6-7.9,5.4c-17.9-1-36.3,0.7-52.5-9.8c-3.3-2.1-5.3-0.6-6.1,2.8c-0.7,3.1-0.9,6.2-1.6,9.3
	c-0.5,2.2-1.9,3.8-4.4,3.7c-2.2,0-4.1-1.8-4.2-4C1140.1,61.7,1140.3,57.1,1140.3,50.6z"/>
<path d="M919.5,315.6c-0.5-7.5-0.3-15.6-4.9-22.8c-2.3-3.7-4.8-8,0.5-10.8s6.2,1.9,7.7,5.5c2.7,6.5,5.8,4,9.1,0.3
	c7.3-8.1,17.2-11.7,27.2-15.1c4.8-1.7,6.9-0.8,6.9,5c0,10-4,17.8-12.3,22.9c-6.6,4-4.9,7.7-0.5,11.2c6.2,5.1,13,9.8,21.8,7.3
	c3.6-1,6.5-0.3,7.7,3.3c1,3.3-2,5.2-4.3,6.5c-7.7,4.4-14.8,1.6-21.6-2.4c-6-3.6-11.9-7.2-17.7-11c-4.9-3.1-8-3.1-9.9,3.5
	c-1,3.3,1.1,10.3-5.6,9.1C916.5,326.9,918.6,320.8,919.5,315.6z M943,295.8c4.3-1.5,8.8-3.3,10.4-8.5c0.6-1.6-0.2-3.3-1.8-3.9
	c-0.5-0.2-1.1-0.2-1.6-0.1c-5,0.8-8.8,4.2-11.1,8.4C938,293.6,940.2,295.5,943,295.8z"/>
<path d="M1163.8,299.9c9.5-1.3,19.5-2.7,29.5-4.2c2.9-0.4,6.1-0.8,7.3,2.4c1.6,4.3-2.8,4-5,5c-8.3,4.1-17.2,5.6-26.4,6.4
	c-4.5,0.4-9.8,0.1-11.4,5.4c-1,3.3,1.2,6.9,3.9,9.3c4.1,3.6,8.3,1.6,12.8,0c3.6-1.3,5.9-10.3,10.3-3.8c3.9,5.8-2.7,8.7-7.2,11.5
	c-14.2,9.2-23.9,5.4-31.1-12.9c-3.8-9.6-4.1-20-4.2-30c-0.1-6.4,7.2-11.9,13.8-12.2c12.4-0.7,24.2-3.4,36.2-5.9
	c4.1-0.9,8.5-0.2,8.8,4.7c0.3,4.6-4.2,4.5-7.7,5c-10.4,1.5-20.7,3.3-31.1,4.9c-5.5,0.8-11.3,2.2-10.7,9
	C1152.2,302.1,1158.6,299.6,1163.8,299.9z"/>
<path d="M745.7,176.1c0.9-6.4,0.3-14,2.5-21.6c2.9-9.8,9.8-9.5,17.2-9.6c8.7-0.1,11.8,6.8,15.2,12.6c1.8,3.1-2.2,4.6-4.2,6.3
	c-2.7,2.3-5.3,1.3-7.2-1.3c-2.6-3.7-5.7-6.7-10.4-4.8c-4.3,1.7-3.6,6.4-4.2,10.1c-0.6,4.1-1,8.3-0.9,12.5c0,3.3-1.4,7.4,2.5,9.5
	c4.5,2.4,7.9-0.6,11.4-3.1c8.1-5.9,15.1-13.4,25.4-15.9c5.2-1.2,6.8-1,5.5,5.3c-3.5,17.2-14.3,27.5-30.1,32.8
	c-12.5,4.2-21.3-3.3-22.7-18.1C745.3,186.4,745.7,181.8,745.7,176.1z M784.3,190.3c-0.2-2.1-1.7-3.2-2.7-2.4c-4.4,3-11,3.1-13.1,8.8
	c-0.7,2,2.3,3.1,4.5,2.5C778.1,197.8,782.5,195.4,784.3,190.3L784.3,190.3z"/>
<path d="M817.8,195.1c-0.7-10.2-1.9-19.4-5.8-28.2c-1.5-3.4-3.5-7.6-0.2-10.7s6.2-0.7,8.9,2c4.2,4.1,6.9-0.4,9.8-2.4s4-6.4,7.7-6.8
	c6.1-0.5,13.5-4.9,17.9,3.3c3.2,5.9-2.5,17.2-10,21c-3.2,1.6-9.5,0.7-8.8,5.5c0.8,5.5,7.2,4.4,11.4,4.9c4.5,0.5,9.1,0.4,13.6-0.3
	c3.6-0.5,6.4-0.3,7.9,3.1c1.3,3,1.3,6.4-0.9,8.9c-2.5,2.9-5,0.3-7.6-0.5c-9.1-2.7-18.8-1.2-27.9-4.5c-3.9-1.4-5.4,1.9-6,5.4
	c-0.8,4.3-2.5,9.3-7.3,8.8C814,203.8,819.1,197.7,817.8,195.1z M847.8,161c-0.2-3.4-2.5-4.7-5-4c-4.7,1.2-9.7,2.8-10.7,8.4
	c-0.4,2.4,2.1,3.7,4.4,3C841,167.1,846.3,166.7,847.8,161L847.8,161z"/>
<path d="M1224.8,174.4c-0.3,4.7-2.1,9.2-4.9,13c-8.6,11.7-18.6,21.6-32.3,27.4c-11.5,4.8-15.2,1-21.2-9.5
	c-7.2-12.6-1.2-27.1-8.8-39.3c-2.4-3.8,0.9-9.8,7.3-6.7c5.6,2.8,10.8,2,16.2,0.9c13.2-2.7,25.6,1.3,38,4.8
	C1223.3,166.2,1225.4,169.3,1224.8,174.4z M1194.4,169.1c-19.2-0.1-21.6,2.3-21.4,20.6c0,2.1-0.3,4.2-0.7,6.2
	c-2.2,9.9,2.5,14.5,12.1,11.1c7.3-2.6,13-7.8,18.8-13c5.3-4.8,14.4-8.9,11.5-16.9C1211.4,168.7,1201.1,170.4,1194.4,169.1
	L1194.4,169.1z"/>
<path d="M440.1,163.4c0.1,15.8-19.1,32-34.5,28.9c-3.1-0.6-6.5-2.8-7.6,1.7c-0.9,3.8,2.5,3.9,5.5,4.2c4,0.4,3.9,3.6,2.9,6.4
	c-1.3,3.9-2.3,8.6-7.3,9.3c-3.4,0.4-4.8-2.9-5.3-5.6c-2.7-13.7-5.4-27.4-7.5-41.1c-0.9-5.5-2.5-10.9-4.6-16c-1.3-3.2-0.5-6.6,3-8
	c3.2-1.4,4.1,1.4,5,3.8c1.8,4.9,5.5,2.8,8.8,2.5c10.5-0.8,20.8-2.4,31.3,0.4C437.1,151.9,440.5,155.9,440.1,163.4z M414.9,157.4
	c-3.4,0.2-6.6,0.1-9.6,0.5c-5,0.7-9.7,2.7-11.7,7.5c-2.4,5.9,2.8,5.5,6.3,6.6c0.7,0.2,1.4,2.4,1.2,3.5c-2.2,11.5,6,10.3,12.2,9
	c8.7-1.8,13.7-9.3,18.3-16.1c2.6-3.8-0.1-7.8-4.5-10C422.9,156.4,418.7,157.7,414.9,157.4L414.9,157.4z"/>
<path d="M445.3,33.7c-0.4,4.8-1.2,9.5,1.6,14.3c3.7,6.4-2.1,10.4-5.9,12.7c-4.6,2.8-6.8-2-6.9-6c-0.1-5.6,0.6-11.2,1.1-16.8
	c0.5-6.4-2-9.2-8.6-7.8c-10.5,2.3-21.1,4.3-31.6,6.8c-5.5,1.3-6.6,10.7-1.5,16.5c2.1,2.4,5,4.1,3.9,7.7c-1.1,3.6-1.4,8.3-6.5,8.2
	c-4.6-0.1-4.9-4.2-5.4-7.7c-2-15.2-3.8-30.4-5.9-45.5c-0.4-3.3-1.5-6.9,2.9-7.4c3.5-0.4,6.1,3.2,5.8,6.1c-1.3,12.5,6,11.8,14.5,10.4
	c5.9-1,11.8-1.8,17.7-2.3c6.9-0.6,14.2-0.4,11.2-11c-0.5-1.9,1-3.3,2.9-3.7c2.8-0.7,5.8,0.6,7.1,3.2
	C445.6,18.3,446.1,25.9,445.3,33.7z"/>
<path d="M956.2,210.3c-3.8-7.9-7.3-17.9-1.2-29.3c2-3.7-1.9-10.7-3.1-16.1c-0.8-3.5,0-6.3,3.4-7.8c3.1-1.4,5.2-0.6,6.6,2.8
	c2,4.9,5.6,3.4,8.6,1.3c6.3-4.5,13-3.9,20.1-2.5c10.9,2.2,13.2,5.8,7.7,15.8c-5.2,9.4-13.1,17.1-23.3,20.1c-7.5,2.2-8.7,5.7-7.8,12
	c0.7,5,0.8,9.9-2.5,14c-1.7,2.1-2.9,5.7-6.1,4.9c-3.1-0.9-2.9-4.4-3-7.1C955.5,216.5,955.8,214.8,956.2,210.3z M967,180.7
	c-0.3,2.5-0.6,5,1.7,6.7c1.5,1.1,3.3,0.8,4.9-0.4c4.8-3.5,9.6-7,14.3-10.6c2.1-1.6,3.4-3.7,2.4-6.4c-0.8-2-2.6-3.4-4.8-3.7
	C979.6,165.4,967.8,174.6,967,180.7z"/>
<path d="M295.9,148.1c-1.2,9.5,3.9,17.6,5.8,26.5c0.8,3.9,3.1,9-0.8,11.9c-3.2,2.4-7.3-0.4-10.9-1.7c-10.6-3.8-20-9.8-29.5-15.8
	c-5.6-3.5-9.7-2.9-9,4.8c0.3,3.6-1,6.1-2.7,8.7s-2.9,6.1-6.9,5.2c-3.7-0.8-4.4-4-4.6-7.4c-0.8-10.8,0.3-21.7-2.1-32.5
	c-0.6-2.5,0-5.1,2.9-6s5.4,0.3,7.6,2.3c8.2,7.6,16.4,15.2,26,21.1c0.9,0.5,1.5,1.8,2.4,2c5.9,1.6,11.1,9.7,16.7,6.2
	s-1.5-10-1.5-15.4c0-4.9-0.4-9.8-0.5-14.7c0-2.8-0.2-6.2,3.8-6.3c4.8-0.1,4.1,3.7,4.1,6.9C296.4,145.3,296.2,146.7,295.9,148.1z"/>
<path d="M1024,192.4c-0.1-9.1,1-18.2-3-26.9c-1.4-2.9-1.8-6.6,2.1-8c3.9-1.4,6.7,1.1,8.3,4.6c2,4.6,0.8,11.6,10,10
	c7.6-1.3,16.8,1.7,18.9-9.9c0.5-2.7,1.7-5.8,5.6-4.8s5.7,3.7,6.8,7.3c3.9,13.2,3.5,27,5.7,40.4c0.3,2.1-1.4,4.6-2.5,6.8
	c-1.4,2.8-3.8,4.3-6.9,3.4c-2.9-0.8-3.3-3.6-3.2-6c0.4-7.3,1-14.6,0.2-22c-0.8-6.7-3-10.6-10.7-8.6c-4.3,1.1-8.9,0.6-13.4,2
	c-8.4,2.6-11,7.9-9.4,16c0.6,2.8,1.7,5.4,1.9,8.2c0.3,4.9-1.8,10.2-6.4,10.4c-5,0.2-3.7-5.6-3.8-9.2
	C1023.9,201.5,1024,197,1024,192.4z"/>
<path d="M678.1,49.4c0.2-9.6-2-18.9-2.6-28.3c-0.3-4.3,1-7.9,5.2-9.3c3.9-1.2,5.3,2.4,6.8,5.1c5.3,9,15.1,13.3,21.5,21.4
	c2.4,3,6.2,1.7,6.8-2.5c0.7-4.7,2-9.8-1.1-14.2c-1.8-2.5-3.4-4.7-0.5-7.2c1.9-1.6,4.2-2.9,6.8-2.2c3.2,1,6.1,3.5,5.7,6.7
	c-1.5,12,0.8,24.6-5.5,36c-3.1,5.6-6.8,6.8-9.7,0.8c-3.7-7.8-11.6-10.9-16.9-16.9c-1-1.1-3.3-2.2-4.6-1.8c-2.4,0.7-2,3.2-2,5.3
	c-0.1,6.6,0.1,13.3-0.6,19.9c-0.3,2.9-1.7,6.9-5.5,6.6c-4.4-0.4-4.9-4.6-4.9-8.1C677,57,677.7,53.2,678.1,49.4z"/>
<path d="M547,66.2c-8.5,1.4-11.5-4.8-12-12.5c-0.6-10.1-0.1-20.1-6.5-29c-1.7-2.2-1.3-5.3,0.9-7c0.8-0.6,1.7-1,2.7-1.1
	c12-0.9,23.7-5.8,36.1-2.1c13.2,3.8,18.5,13.7,13.4,26.5C576.1,54.4,560.7,66.1,547,66.2z M545.4,38.2c2.6,5.2-3.5,15.6,4.5,18.3
	s13.9-6.2,19.5-11.6c2.4-2.3,3.5-5.9,5.2-8.9c1.1-1.8,1.1-4.1-0.1-5.9c-5.5-9-13.9-7.5-22.2-5.9C544.9,25.6,544.4,31,545.4,38.2
	L545.4,38.2z"/>
<path d="M467.6,173.4c0.1-6.4,0.9-10.8-2.5-14.9c-2.7-3.3-0.9-7.4,2.4-8.8c3.1-1.3,6.6,1.5,7.1,4.7c1.7,9.9,8,8.9,14.9,6.9
	c7.6-2.2,15.6-1.4,22.9-6.1c5.3-3.3,9.2,1.5,9.7,7.2c0.6,6.6,0.6,13.3,0.7,19.9c0,3.7,0.2,7.2,4.9,7.9c3,0.4,6.3,1.1,4.7,4.9
	c-2,4.9-5.3,9.5-11.4,9.3c-3.7-0.1-6.4-2-6.5-6.6c-0.2-7.3-0.8-14.6-1.3-21.9c-0.5-7.9-4.9-10.4-12.1-8.4c-4.4,1.2-8.5,3.1-12.9,4.2
	c-10.1,2.7-14.3,7.9-8.6,18c0.7,1.2,1.2,2.5,1.2,3.9c-0.1,3.6-0.5,7.6-4.5,8.5c-4.8,1-5.6-3.6-6.1-6.8
	C468.8,187.4,468.2,179.4,467.6,173.4z"/>
<path d="M938,193.9c0.3,6.2-0.9,8.6-4,9.6c-3.6,1.1-4.9-1.6-6.1-4.2c-0.8-1.5-1.5-3.2-2-4.8c-1.3-5.9-2.1-12.4-10.5-11.5
	c-7.8,0.8-15,2.1-17.4,11.9c-1.1,4.3-2.4,12.7-8.1,11c-6.6-2-1.2-9-1.1-13.9c0.2-11.7,10.8-21,7.5-33.8c-0.9-3.6,13-8.9,16.3-5.9
	C925.5,164.6,931.7,180.9,938,193.9z"/>
<path d="M843.5,33.4c-8.7,0.8-17.2,1.3-25.3,4.4c-3.1,1.2-8.2,1.7-7.8,5.8c0.6,6.3,3.4,12.2,7.8,16.7c2.8,2.9,6.4,1.5,9.4-1
	c1.1-0.9,2.3-1.6,3.7-2c2.2-0.7,4.7-3,6.7-0.4c2.6,3.4-1,4.8-2.9,6.6c-14.4,13.9-24.3,11.9-30.7-7c-2.9-8.6-7.8-16.2-9.8-25.2
	c-1.6-7.3-1.5-9.8,7.1-12.1c10.3-2.8,21-4.3,31.3-7.7c3.3-1.1,8.8-2.6,9.8,2.6s-4.1,6.5-8.3,7.2c-7.5,1.3-15.1,2.4-22.7,3.8
	c-2.1,0.4-5.7-0.2-5.2,3.5s3.6,3.5,6.6,3.2C823.2,30.8,833.5,26.5,843.5,33.4z"/>
<path d="M461.1,54.4c2-10.5,7.3-20.1,7.3-31.4c0-6.4,10.7-9.1,15.9-4.5c3.9,3.4,8.8,5.5,11.7,10.2c2.7,4.3,7.2,5.1,12.1,4.2
	c2.8-0.5,4.8,0.6,5.4,3.6c0.5,2.3,0,4.3-2.6,4.9c-9,2-4.4,6.7-2,10.7c1.5,2.5,5.4,4.1,2.8,8c-1.2,1.7-2.4,3.8-4.9,3.5
	c-3.8-0.5-4.8-3.9-5.7-6.8c-1.4-4.6-1.4-10.7-8.2-10.3c-7.2,0.4-15.1,0-19.4,7.9c-0.7,1.2-1.5,2.4-2.1,3.7c-1.5,3.3-3.9,5.1-7.5,3.5
	C460.8,60.1,460.6,57.3,461.1,54.4z"/>
<path d="M181.7,191.9c-5.3,0.3-8.3-1.1-10.4-3.4c-4.4-4.7-3.3-11-4.5-16.7c-1-5-7.2-9.4-0.3-14.5c0.3-0.2,0.4-0.6,0.4-0.9
	c-2.3-18.8,13-16,23.4-18.6c6.4-1.6,13.2-1.4,19.8-2.1c3.1-0.3,6.8-1.6,7,3.4c0.2,4.1-3.2,3.7-6,3.8c-10.2,0.3-20,3-29.7,5.7
	c-3.1,0.9-6.8,1.5-5.8,5.8c0.9,3.8,4.2,4.3,7.6,3.6c7.8-1.6,15.7-3.1,23.5-5c3-0.8,7-3.4,8.2,0.1c1.7,4.7-3.4,5.2-6.6,5.9
	c-8.5,1.8-16.4,5.9-25.2,6.4c-3.3,0.2-6.4,1.4-7.2,5c-0.9,3.5,0.1,7.2,2.7,9.7c2.7,2.6,5.7,1,8.8,0c2.9-1,6.4-5.9,8.9-1.2
	c2.3,4.5-1.9,7.8-5.6,9.8C187.4,190.4,183.6,191.3,181.7,191.9z"/>
<path d="M246.8,67.2c-15.3-0.6-30-26.1-23.5-41.3c1.7-4,2.6-8.8,6.4-11.8c2.6-2,5.1-3.9,8.5-2.3c2.5,1.2,3.2,3.6,3.5,6.1
	c0.5,3.8-2.3,4.1-5,5.2c-6.2,2.5-8.3,17.1-3.3,21.6c3.4,3.1,6,0.2,7.9-2c4.3-4.9,9.9-7.7,15.7-10.1c8-3.3,13,0,14,8.3
	C272.1,50.4,256.3,67.6,246.8,67.2z M259.1,47.8c-0.1-2.7-1.8-4.1-4-3.7c-4.5,0.9-8.9,2.6-9.3,8.2c-0.2,2.7,1.5,5,4.5,4.6
	C255.5,56.3,257.6,52.2,259.1,47.8z"/>
<path d="M1049.6,20.7c-3.1-0.6-5.6-0.8-7.8,0.5c-1.9,1.1-3.7,2.2-3.4,4.8s2.2,3.1,4.4,3.5c7.3,1.1,14.8,0.7,21.9-1.2
	c2.7-0.7,6.1-1.9,7,1.9c1.1,4.2-3,3.9-5.4,4.7c-6.4,2-13.1,2.9-19.7,2.5c-6-0.3-8,1.5-6.4,8c3,12.4,5,19.5,20.3,13.7
	c2.5-1,6.8-3.3,8.5,0.4c2.3,5-3.4,5.4-5.9,6.8c-15.3,8.5-23.3,5.1-29.1-11.2c-3.7-10.5-3.1-21.5-4.3-32.2c-0.7-6.5,3.8-9.7,9.7-10
	c10.5-0.6,21-0.3,31.3-3c3.2-0.8,7-0.2,7.6,3.7c0.8,4.8-3.4,4.2-6.4,4.6L1049.6,20.7z"/>
<path d="M697.3,301.9c-0.8-5.6,1-10.9,3.6-15.9c2.7-5.4,7.6-7.9,13-5.5c8.6,3.7,17.9,5.8,25.8,11.3c10.4,7.4,12.3,18.9,4.5,28.9
	c-7.3,9.4-15.1,17.9-28.6,14.6c-10.4-2.5-17.5-14.8-18.2-30.1C697.3,304.1,697.3,303.1,697.3,301.9z M719,292.3
	c-7.8-1.2-12.2,2.7-12.8,10.8c-0.9,12.3,6.7,22.8,16.3,23c7.9,0.1,19.5-10,19.8-17.4C742.6,301.1,731,292.7,719,292.3z"/>
<path d="M116.2,140c6.3-0.6,12.6-0.7,18.8-1.9c5.1-0.9,10.3-0.8,10.7,4.7c0.4,6-5.6,3.4-8.9,3.7c-9.8,1-19.6,1.7-29.3,2.3
	c-4.2,0.3-6.8,2-6.6,6.3c0.3,4.9,3.7,5.1,7.6,4.4c4.5-0.8,9-1.2,13.5-1.8c1.9-0.3,3.6,0.1,4.2,2.1c0.8,2.5-0.8,4.1-3,4.6
	c-3.8,0.9-7.6,1.2-11.4,2.1c-3.2,0.8-7.9-0.4-8.3,4.5c-0.3,4.2,0.9,8.4,3.5,11.8c2.1,2.8,4.8,1.5,7.4-0.2c5.5-3.4,6.2,0.7,5.4,4.5
	c-1.1,5.1-4.3,8.9-10,9.4s-9.4-2.1-10.7-7.8c-2.6-11.2-5.3-22.4-7.7-33.7c-2.2-10.5,2-15.6,13.1-16.2c3.8-0.2,7.7,0,11.6,0
	L116.2,140z"/>
<path d="M139.1,44.5c-0.8-6.8-1.6-15.1-2.9-23.3c-0.7-4.5-1.2-8.7,3.4-10.9s6,2.2,7.9,4.8c6.3,9,17,12,25.1,18.5
	c2,1.6,5.2,2.7,7.8,0.4c2.1-1.9,1.2-4.6,0.7-6.9c-0.6-3.1-1.6-6.1-1.9-9.2c-0.3-3.4-1.1-7.9,4.2-7.8c4,0.1,8.5,3.4,7.5,7
	c-2.3,8.3,1.1,15.9,0.9,23.9s-4,9.7-10,6.5c-9.5-5-20.5-7.2-28.6-15c-1.2-1.2-2.8-2.4-4.6-1.6c-2.5,1.1-1.9,3.5-1.6,5.5
	c0.4,3.1,1.2,6.2,1.5,9.3c0.4,4.2,1,9.5-5,9.5C137.3,55.2,137.7,50.4,139.1,44.5z"/>
<path d="M510.3,274c2.4-0.2,4.9-0.5,7.3-0.5c4.8,0,5.9,3.4,5.6,7.1c-0.4,4-3.5,5.5-6.8,4.2c-7.9-3.1-15.2,0.1-22.6,1.5
	c-3.6,0.7-8.8,1.9-7.6,6.8c1.1,4.7,6.1,3,10,3c4.8,0,8.8-2.3,13.1-3.6c1.8-0.5,3.8-0.4,4.7,1.3c1,1.8-0.5,3.2-2.1,4.2
	c-2.4,1.4-4.6,3.4-7.2,4.2c-9.5,2.9-16.3,7.1-13.5,19c0.7,3.1-1.8,6.1-5.7,6.1s-5.8-3-5.2-6.4c2.1-11.8-5.7-21.7-5.7-33.3
	c0-5.9,1-8.1,5.9-9.8C490,274.3,500.2,274.3,510.3,274z"/>
<path d="M97.8,36.8c-5.7,2.9-13.4,2.8-15.2,11.1c-0.4,1.7-0.5,3.6-1.4,5c-2.1,3.4-3.5,9-8.6,7.5c-5.4-1.7-1.9-6.4-1.2-9.8
	c2.5-11.9,5-23.8,7.7-35.6c1.8-7.7,7.1-9.5,12.7-3.8c6.5,6.7,13.8,12.9,17.4,22c1.2,3.4,3.9,6,7.3,7c3.6,1.1,5.3,3.4,4.2,7.1
	c-0.9,3-2.5,6.1-5.8,6.9c-3.6,0.8-5.7-1.8-7.5-4.6C104.7,45.2,104.7,38.5,97.8,36.8z"/>
<path d="M47.3,45.4c1.9,12.1-7.6,16.8-16,21.2C22,71.6,9,68.6,3,61.7c-5.4-6.3-2.8-11.5,2.3-16.4c2-1.9,4.1-2.9,6.5-1.3
	c2.9,1.9,1.6,4.2-0.1,6.2c-5.8,6.9-0.6,9.3,4.8,10.9c7.9,2.3,22-7.2,23.7-15.2c0.7-3.1-1-4.4-3.2-5.8c-5.6-3.6-11.3-7-16.5-11.2
	C9,19.4,9.9,11.1,23.2,4.2c3.5-1.7,7.1-3,10.8-4c2.7-0.8,5,0.2,5.8,3.1c0.9,3.2-1.4,4.6-3.9,5.2C31,9.8,23.5,9.1,22.9,15
	c-0.7,6.5,6.9,8.9,11.5,12.3C47,36.7,47.2,36.5,47.3,45.4z"/>
<path d="M687.8,197.6c-13.3-0.1-21.2-12.5-20.1-34.3c0.3-5.5,5.1-10.5,12-10.5c18.6-0.1,36.6,11.3,36.5,23
	C716.2,185.4,700.1,197.8,687.8,197.6z M679.1,174c-0.4,8.1,2.9,13.4,12.2,12.4c7.3-0.8,15.4-1.6,17.5-10.4
	c1.2-5.4-11.6-13-20.8-12.6C681.8,163.7,678,166.7,679.1,174z"/>
<path d="M954.6,41.4c0.5-5.1-0.4-10.5-1.7-16.1c-1-4.2,1.5-7.6,6.3-7.7c3-0.2,5.6,2.1,5.7,5.1c0,0.7-0.1,1.5-0.3,2.2
	c-3.8,9.9-0.4,20.2-2.5,30c-1.4,6.5-2.5,14-10.5,15.3c-7.8,1.3-14.3-2.1-18.3-9.4c-3.7-6.7-7.7-13.3-11.8-19.8
	c-2.2-3.4-3.5-7.6-8.5-8.6c-2.9-0.6-7.2-2-4.6-6c2.4-3.6,5.3-9.3,11.5-5.7c3.9,2.3,6.6,5.9,8.5,10.2c3.5,7.6,6.3,15.5,11.8,22.1
	c2.7,3.2,4.4,7.8,9.6,6.3c5.6-1.6,5.5-6.6,5.3-11.2C955.1,46.1,954.8,44,954.6,41.4z"/>
<path d="M633.3,143.2c15.5-0.4,15.1-0.1,12.8,12c-1.6,8.5-0.9,17.4-1.2,26.2c-0.1,2.3,1.3,3.8,3.3,4.9c2.6,1.4,6.6,1.9,5.6,6.3
	c-0.6,2.7-3.1,3.9-5.6,4.2c-3.9,0.6-7.9,0.4-10.3-3.4c-2-3.3-2.9-7.1-2.8-11c0.1-6.7-0.5-13.3-0.4-20c0.1-7.4-2.1-10.7-10.1-7.9
	c-5.9,2.1-12.2,3.3-18.1,5.2c-5.4,1.8-9.7,0-10.9-4.9c-1.3-5.4,3.9-5.5,7.6-6.3C614.6,145.8,625.8,143.2,633.3,143.2z"/>
<path d="M1115.4,213.5c-7.5-1.5-12.7-7.2-13.8-15.9c-1-7.4-1.2-14.2-11.2-14.4c-2.3,0-3.4-2.4-3.3-4.7c0.2-3.6,15.5-12.1,17.5-9.6
	c5.7,7.3,12.6,4.1,19.3,3.3c5.2-0.7,10.4-1.5,15.6-2.1c2.5-0.3,6.3-2.2,7,1.9c0.6,3.8-3,4-5.9,4.1c-8.5,0.4-16.2,3.8-24.2,6.2
	c-3.1,0.9-6.7,1.2-6.1,5.6c0.8,5.7,3,10.9,8.4,13.9c3.5,1.9,6.7,1.2,9.2-2.2c1.4-2,2.1-6.6,5.7-3.6c2.8,2.3,3.1,6.4,0,9.3
	C1129.1,209.7,1123.8,213.1,1115.4,213.5z"/>
<path d="M544.6,172.2c0.2-0.8,0.4-2.6,0.8-4.3c2-7.6-1.6-20.2,12.3-18.2s26.4,19.4,23.5,30.1c-1.7,6.4-16.9,15.6-23.7,14.4
	C549.4,192.9,544.5,184.9,544.6,172.2z M564.6,162.7c-10,0.4-10.9,5.7-10.8,11.7c0,5.8,2.9,9.9,8.8,8.9c4.9-0.8,10.9-3.2,10-9.7
	C571.8,168.3,570.1,162.2,564.6,162.7L564.6,162.7z"/>
<path d="M270.5,325.4c4-0.5,5.2-4,7.8-5.6c2.5-1.5,4.8-5.5,8-2.5c3.8,3.5-0.8,5.2-2.6,7.4s-3.7,4.2-5.6,6.2
	c-3.9,4.1-8.4,6.4-14.1,4.4s-8.2-6.1-8.3-12.1c0-5-0.3-9.8-4.5-13.5c-2.1-1.9-1.9-4.7-0.3-6.7c3.7-4.9,4.4-10,2.8-15.8
	c-0.8-2.7-0.5-6,3.6-6.1c3.6-0.1,5,2.7,4.6,5.7c-1.7,12.1,5.5,12.2,14,10.8c5.4-0.9,11.1,1.1,16.4-2c2.8-1.6,5.9-0.5,6.6,2.8
	s-1.4,5.5-4.8,5.3c-9.1-0.5-16.4,5.8-25.3,6.5c-4.2,0.3-6.1,2.8-5.2,7.3C264.6,321.5,266.8,324.2,270.5,325.4z"/>
<path d="M282.1,273.9c4.8,1,9.6-0.3,13.6,2.6c2.4,1.8,4.4,3.5,3.2,6.9c-1.1,2.9-3.6,3.2-6,2.9c-6.9-1-13.7-2.2-20.8-1
	c-2.8,0.4-6,0.2-6.4-3.6c-0.3-3.2,1.7-5.3,4.5-6.3C274.1,273.9,278.1,273.5,282.1,273.9z"/>
<path d="M1104.6,164c-0.8,0.1-3.5-0.8-3.6-4.3c-0.1-2.9,2.3-4.2,4.9-4.4c11.1-1.1,22.3-1.6,32.8-5.8c2.8-1.1,5.8-0.5,6.7,3
	s-1.6,5.3-4.5,5.8C1129.6,160.2,1118.3,161.9,1104.6,164z"/>
<path d="M473.4,964c0-10.5-0.8-21-8.1-29.4c-3.2-3.7-2.9-6.3,1.2-8.6c4.4-2.5,7.5,0.1,8.1,3.8c2.2,12,5.2,9.4,10.8,1.6
	c7-9.8,17.8-12.3,29.3-12.8c3.7-0.2,6.3,1.5,7.5,5c2.2,6.2,0.1,11.5-3.8,16.2c-3.3,4-8.2,4.9-13.2,5.4c-2.3,0.2-4.8,0.4-5.6,3
	c-0.9,2.8,1.5,4.2,3.3,5.3c8.1,5.1,14.4,14.9,26.4,10.5c2.5-0.9,4.7,1,5.2,3.2c0.9,3.9-0.1,7.9-2.8,10.9c-2.2,2.7-5.9,3.4-8.9,1.6
	c-5.5-2.9-10.7-6.2-15.6-9.9c-5.2-3.9-9.9-8.4-14.9-12.5c-1.9-1.6-3.8-4.1-6.7-3.1c-3.1,1.1-2.3,4.2-2.5,6.7
	c-0.3,4.2-0.6,8.4-1,12.6c-0.2,2.2,0.5,5.1-2.7,5.3c-2.9,0.4-5.5-1.6-5.9-4.5c0-0.2,0-0.4,0-0.7C473.2,970.5,473.4,967.3,473.4,964z
	 M496.2,938.7c3.3,0,10.9-2.6,14.5-5c1.9-1.2,4.3-2.3,3.2-5.1c-1.2-3.2-3.9-3-6.5-2.3c-4.8,1-9.3,2.8-13.4,5.4
	c-1.8,1.2-4.3,2.3-3,5.2C492.1,938.9,494.2,938.9,496.2,938.7z"/>
<path d="M1123.3,950.4c5.5,3.8,10.7,1.8,15.7,1.8c2.6,0,6.1-0.9,6.6,2.3c0.6,4.4-3.4,2.5-5.6,2.8c-12.2,1.7-23.9,6.4-36.6,4.8
	c-3.1-0.4-7.2,0.3-7.4,4.5c-0.4,5.9,2.8,10.8,6.9,14.4c2.3,2,6.3,1.5,8.8-1.3c2.2-2.5,3.7-7.7,7.9-2.8c3.2,3.8,0.8,6.7-2.8,9.6
	c-13.8,11.4-23.3,9.2-28.6-8.1c-3.6-11.8-7.9-24,0.6-35.9c2-2.7,3.7-4.5,7-3.7c11.9,3.1,24,0.5,36,2c2.7,0.3,6.7-1.2,6.6,3.2
	c-0.1,3.4-3.6,4-6.6,4.5C1129.2,948.9,1126.5,947.2,1123.3,950.4z"/>
<path d="M1185.7,800.9c-3-7.7,0-15.5-0.2-23.2c-0.1-5.1,3-7.7,7.1-7.4c5.4,0.3,4.2,5,3.1,8.3c-4,11.8,0.8,23.9-1.7,35.8
	c-1.8,8.4-4.4,10.7-12.3,6.9c-9.8-4.7-18.9-10.4-26.2-18.4c-6.2-6.9-9.5-5-14,1.8c-3,4.6-4.2,13.4-9.9,13c-6.6-0.5-5.9-9.7-8.8-15
	c-1.9-3.6-2.2-7.9-5.7-11c-2.8-2.5-2.6-6.6-1.4-10.1c0.9-2.9,3.6-4.9,6.7-4.8c3.3,0.1,3.8,3.1,4.2,5.7c0.7,3.8,1,7.8,2.1,11.5
	c1.7,5.3,4.6,5.7,8.4,1.5c4.1-4.5,5.7-13.8,12.7-12.5c5.1,1,9.2,7.7,13.5,12.1c3.7,3.7,6.8,7.9,10.7,11.4c2.3,2.1,5.2,4.4,8.7,2.2
	C1185.7,806.8,1186.2,804,1185.7,800.9z"/>
<path d="M637.7,663c1.7-6.8,3.5-15.4,6-23.7c1.4-4,2.1-8.2,2.1-12.4c-0.2-4-0.9-8.6,3.8-9.9s10.2-3.1,14.7,1.2
	c1.7,1.6,3.7,3,4.8,4.9c4.6,8.4,11.6,10.4,20.4,8.3c2-0.5,5-1,5.6,2.1c0.5,2.7-1.6,3.7-4,4.5c-8.4,2.5-9.2,5.4-3.1,11.5
	c1.2,1,2.6,1.9,4,2.6c3.6,2.2,3.2,5.5,1.9,8.6c-0.9,2.3-1.8,5.3-4.8,5.6c-3.6,0.4-4.6-2.6-6.1-5.2c-2.5-4.5-5.3-8.9-8.3-13
	c-4.7-6.2-19-1.8-22.1,6.9c-1.6,4.6-2.5,9.5-5.7,13.3c-1.8,2.1-3.3,5.6-6.9,4C636.6,671,637.3,667.6,637.7,663z"/>
<path d="M1002,659.8c-1.1,4.2-1.9,7.7-8.9,4.5c-16.2-7.4-33-13.5-48.2-23.2c-1.9-1.2-3.9-2.6-6.2-0.7c-2.8,2.3-0.3,4.5,0,6.9
	c0.9,5.7,5.7,10.5,4.1,16.7c-0.6,2.4-0.4,5.6-4,5.7c-2.4,0.1-4.6-1.4-5.3-3.7c-4-12.7-7.4-25.6-14-37.3c-2.1-3.8,2.4-5.7,4.6-7.6
	c3.4-2.8,7.2-2.5,10.6,0.6c11.2,10.2,24.7,16.6,37.6,24.1c2.5,1.5,5.2,2.8,7.9,3.8c1.7,0.6,4.2,1.2,5.5,0.5c2.4-1.3,1.5-4,0.7-6.1
	c-2.6-7.1-4.4-14.3-2.3-21.9c0.5-1.7,1.1-3.2,3-3.2c1.3-0.1,2.4,0.8,2.5,2c0,0.1,0,0.2,0,0.3c-0.3,12.1,3.2,22.9,11.1,32.3
	C1001.9,654.7,1001.6,657.2,1002,659.8z"/>
<path d="M269.2,780.9c11.3,3.5,23.1,2,34.8,0.8c3.3-0.3,6.9-2.5,8,1.8c1.4,5-3.7,4.4-6.4,5.1c-8.3,2.1-16.8,1.7-25.2,2.1
	c-10,0.5-11.1,2.7-7.2,12c0.5,1.2,0.9,2.4,1.4,3.6c1.4,3.3,0,8.7,5.5,9.1c4.2,0.3,6-3.2,7.4-6.7c1.2-2.9,3.4-4.2,6.2-2.4
	s2,4.4,0.5,6.8c-0.2,0.3-0.4,0.5-0.6,0.8c-5.3,5.6-7.3,16.6-17.5,14.5c-9.6-2-9.2-12.5-11.4-19.8c-2.8-9.3-3.8-19.1-5.6-28.7
	c-1.1-6,1.4-7.3,7.1-9.7c14-6,28.7-2.5,42.8-5.5c3.7-0.8,8.6-1.4,8.7,4.5c0,5.2-4.6,4.4-8.1,4.7c-13.5,1-27,2.1-40.5,3.1
	L269.2,780.9z"/>
<path d="M599.2,826.6c-1.9,0-3.9-1.6-3.4-2.7c4.1-8.8-10.4-11.4-6.5-19.9c0.3-0.6,0.8-1,1.5-1.2c18.4-2.1,13-18.3,16.8-28.9
	c0.9-2.6,0.2-5.7,3.4-6.9s4.7,1.1,6.4,3.2c3.7,4.5,8,8.6,11.2,13.5c4.8,7.6,9.7,13.9,20.1,10.6c1.7-0.6,4.1,0,4.5,2.5
	c0.3,2.1-0.7,3.6-2.9,4.4c-7.5,2.6-8.9,5.9-1.5,10.8c6.2,4.1,1.6,8.8-0.2,12.8c-1.2,2.7-3.8,1.7-5.5-0.3c-0.6-0.7-0.6-1.8-1-2.7
	c-7.2-15.8-12-17.8-28.5-12.2c-4.5,1.5-5.2,5.4-6.8,8.8C603.7,824.6,601.7,826.7,599.2,826.6z M625.3,795.1
	c-1.1-3.5-3.7-5.6-7.1-5.6c-3.7,0-4.4,3.2-4.3,6.2c0.1,3.3,2.3,4.2,5.3,3.9S625,799,625.3,795.1L625.3,795.1z"/>
<path d="M511.6,793.5c0.3-5.2,0.7-10.3,0.9-15.5c0.1-3,1.2-5.4,4.4-5.3c4,0.1,4.7,3.3,4.1,6.3c-2.1,11.2,0.4,22,2.2,33
	c0.4,2.5,1.4,5.3-1.5,7s-5.6,0.8-8.2-1c-11.5-7.9-23-15.7-34.5-23.5c-2.5-1.7-5-5.4-8.4-2.8c-2.9,2.2-1.5,6-0.9,9.2
	c0.9,5.1,2.5,10.3,0.8,15.4c-0.9,2.7-0.2,7.7-4.8,7.3c-4.1-0.4-6.9-3.7-7.3-8c-0.6-6.8-1-13.6-1.2-20.4c-0.1-4.3-0.4-8.2-2.3-12.3
	c-2.1-4.5,0-9.4,3.6-12.2c3.9-2.9,7.2,0.8,10.2,3.3c10.2,8.5,20.3,17.2,30.7,25.5c2.9,2.3,6.7,5.6,10.5,3.8S511.4,796.8,511.6,793.5
	z"/>
<path d="M295.2,922c0.6,0,3.5-0.3,6.5-0.5c2.6-0.1,6.4-2.3,6.8,2.6c0.3,3.9-1.9,5.6-6,5.9c-10,0.8-20,2.2-30.1,3.3
	c-3.9,0.4-8.9,0-8.2,5.7s5.6,4.2,9.4,4c4.2-0.3,8.4-0.9,12.6-1.2c1.5-0.1,3.4-0.3,4,1.7s-0.9,3-2.3,3.7c-4.7,2.3-10.1,3-15.3,2.2
	c-3.8-0.6-7.1,0-6.1,4.7c1.9,8.8,1.5,18.2,5.9,26.5c3.5,6.6,7.9,6.4,12.5,2.2c5.6-5.1,8.7-12.4,8.6-19.9c0-2,0.4-4.2,2.9-4.3
	s2.9,2.1,3.2,4.1c1.4,8.9-7.6,28-15.3,32.3c-6.4,3.6-13.1,1.7-16.3-5c-1.7-3.5-3.9-7.2-4.1-10.9c-0.9-15.1-8.9-28.4-10.1-43.4
	c-0.5-6.4,1.5-9.7,8.3-10.4C272.3,924.5,282.3,921,295.2,922z"/>
<path d="M678.9,954.6c5.8-8,10.4-17.5,21.9-20.2c10.2-2.4,19.7-1.1,22,4.5c3.1,7.4-1.5,17.8-10,23.3c-2.8,1.8-7.9,1.9-7.2,6.7
	c0.7,4.4,3.8,7.4,8.4,8.5c7.9,1.9,15.4,9.9,24,0.7c2-2.2,3.6,1.4,3.7,3.7c0.3,6.7-7.2,10.8-15.2,8.6c-13-3.5-24.1-10.3-34.7-18.2
	c-2.3-1.7-4.9-4.2-7.8-2.5s-2.3,5.1-2.3,8c-0.2,5.5-0.4,11-0.8,16.6c-0.1,1.9-0.9,4.2-3,4.5c-2.7,0.3-4-2.1-4.5-4.3
	c-1.2-4.8-0.5-9.7,0.5-14.5c1.5-7.5,0.5-14.9-1.2-22.2c-0.9-3.8-5.5-8.9-0.1-11S674,953.5,678.9,954.6z M687.7,964.4
	c11.7-0.8,20-6.6,27.2-14.5c1.9-1.8,2.5-4.7,1.4-7.2c-1.2-2.6-3.6-3.4-6.4-3.4c-11.1,0-22.3,7.8-26.1,18.1
	C682,962.2,681.9,965.4,687.7,964.4L687.7,964.4z"/>
<path d="M809.2,790.3c1,7.8,0.8,15.6-0.5,23.3c-0.5,2.6,0.1,6.7-3.6,7.3s-5.7-2.5-7.4-5.3c-4.8-7.7-9.6-15.4-14.5-23.1
	c-1.2-1.9-2.3-4.6-4.8-4.2s-2.6,3.4-3.2,5.6c-2.9,10.3-5.6,20.7-8.7,31c-0.6,1.9-0.3,5.1-3.3,5.3s-5.1-2.3-5.5-4.7
	c-3.6-19.3-12.3-36.8-19.5-54.8c-1.1-2.7-1.3-6.4,2.4-7.4s6.4,1.7,6.8,5.2c1.9,13.5,8.2,25.7,11.5,38.8c0.5,1.9,0.8,4.2,3.2,4.3
	c2.9,0.1,3.4-2.5,4-4.7c2.3-9.1,4.5-18.3,6.7-27.4c0.6-2.5,0.7-5.6,3.8-6.2c3.7-0.7,5,2.6,6.4,5c4.3,7.3,8.4,14.7,12.7,22
	c1.3,2.2,2.6,5.2,5.7,4.5c3.3-0.8,2.5-4.2,2.2-6.7c-0.9-6.1-0.7-12.4-3.5-18.1c-1.3-2.7-2.1-5.6,0.1-8.2c1.3-1.6,3.5-2.1,5.3-1.4
	c3.6,1.3,3.1,4.4,3.2,7.3C808.7,782.5,809,787.4,809.2,790.3z"/>
<path d="M1180.4,993.4c-14.2,0-16.8-3.2-16.7-17.7c0.1-9.3,1.1-18.7-3-27.8c-1.6-3.5-1.4-8.1,4.5-8.7c11.7-1.1,23-0.9,33.7,5.6
	c9.1,5.6,14.8,13,14.8,23.3c-0.1,9.5-6.8,15.5-14.8,20.1C1193.3,991.6,1186.9,993.4,1180.4,993.4z M1182.6,950.3
	c-3.8,0.8-12.2-0.8-9.8,6.8c2.8,9.1-4.5,22.8,8.8,26.8c8.5,2.6,24.1-10.9,23.9-17.9S1193.2,950.4,1182.6,950.3z"/>
<path d="M399.5,653.5c0.1,2.6,0.1,5.2,0,7.8c-0.1,2.7-1.6,5.1-3.9,6.4c-2.9,1.5-4.7-0.7-6.7-2.4c-6.4-5.4-13-10.7-19.5-16
	c-1.7-1.4-3.6-3.6-5.9-2.6c-2.9,1.3-2,4.4-2,7c-0.1,3.9,0,7.8-0.2,11.6c-0.2,2.8-1.4,5.2-4.6,5.3s-4.8-2.1-5.1-4.9
	c-1.4-13.5-3.1-27-6.7-40.2c-0.9-3.2,0.1-6,3.3-7.2c2.8-1.2,4.5,0.6,6.5,2.7c9.2,9.4,18.8,18.5,28.2,27.7c1.8,1.8,3.5,4.4,6.5,3.1
	c3.3-1.4,1.8-4.4,1.5-6.8c-0.5-4.9-1.1-9.6-4.3-13.7c-1.8-2.4-3.2-5.1-1.1-8c1.4-2,3.6-3.2,5.9-2.3c3.2,1.1,5.3,4.2,5.1,7.6
	C395.7,637,400.6,644.9,399.5,653.5z"/>
<path d="M20.5,669.8c-0.5-3.3,1.7-6.3,3.1-9.5c2-4.8,6.3-9.6,0.9-15.1c-1.5-1.5-1.1-4.5,0.7-5.1c10.3-3.7,8-13.5,10.3-20.9
	c1-3.2,1.3-6.2,5.3-7.1s5.2,1.1,7.5,3.9c5.9,7.2,10,18.6,23.3,13.3c1.7-0.7,3.9,0.6,4.3,2.9s-1.3,3.3-3.1,4.3
	c-8.9,4.8-9.2,7-2.2,14.5c1.1,1.2,3,1.9,3.4,3.2c1.2,3.9,1.4,8.3-2.5,10.5c-4.1,2.3-5.4-2.3-7-4.8c-2.1-3.2-3.5-6.8-5.2-10.3
	c-2.1-4.3-4.7-7.7-10.5-6.4s-9.9,3-11.4,9.9s-3.6,13.8-7.6,19.9c-1.5,2.3-3.3,4.2-6.3,3.7C20,675.8,20.5,672.8,20.5,669.8z"/>
<path d="M904.2,945.5c-2-0.2-4.9-0.5-7.8-0.6c-2.5-0.1-5.7-0.9-5.9,3c-0.2,3.1,2.1,4.6,5,4.9c9.6,1.1,19.1,4,28.9,1.1
	c2.8-0.8,7-2.8,7.7,2.4c0.6,4.5-3.6,4.7-6.7,5.3c-7.3,1.5-14.5,3.5-22.1,1.7c-3.6-0.8-8.9-1.4-9.9,3.5c-1.3,5.5,0.4,11.3,4.5,15.3
	c3.9,3.7,6.9,1,9.8-2.1c1.6-1.7,3.8-4.6,6.5-2.3s0.5,4.7-0.8,6.9c-1.2,2-2.1,4.1-3.4,5.9c-2.7,3.7-5.8,7.8-10.9,6.8
	c-4.7-0.9-7.2-4.9-9.2-9.3c-5.4-12-5.6-25.2-8.5-37.7c-2.2-9.8,5-16.2,15-15.3c10.6,1,21.3,2.4,32,1.3c3-0.3,7.5-1,7.7,3.4
	c0.2,3.9-4.2,3.4-6.8,3.7C921.3,944.3,913.3,944.7,904.2,945.5z"/>
<path d="M974.3,769.7c15,0.8,26.9,2.9,37.5,10.3c7.5,5.3,10.1,15.3,3.5,22c-10.4,10.8-22.3,19.3-38.2,21.3
	c-9.9,1.3-13.3-4.8-14.6-11.7c-2.1-11-0.2-22.5-8.2-32.3c-2.7-3.2,1.6-6.7,5.3-7.5C965.2,770.7,971.1,770.2,974.3,769.7z
	 M979.3,779.1c-14.4,0.1-15.4,1.8-11.8,13.3c1.3,4.2,4.6,7.8,3.9,12.8c-1.4,8.9,3.9,10.4,10.7,8c9.2-3.3,17.6-8.6,24.5-15.4
	c6.2-5.9,4.9-10.6-3.3-13.7C995.5,781.3,987.4,779.6,979.3,779.1L979.3,779.1z"/>
<path d="M125,956c7,1.8,4.2,9,6.6,13.3c1.3,2.2-2.4,6.5-5.2,5.2c-11.8-5.4-22.9,0-34.4,0.7c-17.8,1.1-35.5,2.2-53.2,3.4
	c-4.2,0.3-8.2,1.6-12.4,2c-4.7,0.3-9.1-1.8-9.3-6.5c-0.3-5.3,4.6-4.9,8.6-5.3c29.1-2.7,58.1-5.4,87.2-8.4
	C116.9,960,120.7,957.6,125,956z"/>
<path d="M416.7,765.4c6.8,0,13.7,0,20.5,0c2.6,0,5.6,0,5.7,3.7s-2.5,3.9-5.4,4.2c-10.4,0.8-20.8,1.7-31.1,2.6
	c-3.2,0.3-7.4,0.2-6.7,4.8c0.6,3.8,4.4,4.4,7.9,3.9c5.8-0.8,11.6-1.8,17.3-2.7c2.4-0.4,5.1-0.4,5.6,2.3s-2.4,2.2-4.2,2.8
	c-6.1,2.2-12.2,4.2-18.7,5c-6.1,0.7-8.5,4.3-5.7,10.4c1.4,2.9,3.1,5.7,4.2,8.8c2.3,6.5,5.8,8.2,11.7,3.9c3-2.1,7.3-3.5,9.4,0.4
	c1.9,3.6-2.5,5.7-4.8,7.5c-11,8.7-20.1,5.5-25.5-7.8c-3.1-7.7-5.9-15.8-8.7-23.5c-2.1-6-1.1-15.6,3-22.9c1.6-2.8,4.1-2.7,6.8-2.6
	c6.2,0,12.4,0,18.5,0L416.7,765.4z"/>
<path d="M435.8,936.9c-5.7,6.4-12.4,8-19.6,8c-6-0.1-8.2,2.7-7,8.6c0.8,3.8,0.8,7.8,1.5,11.6c1,5.4,1.9,12.7,8.2,13
	c6.8,0.3,12.6-4.5,15.6-11.2c1.1-2.4,0.1-7,4.8-4.6c3.9,2,0.9,5.1-0.5,7.4c-2.9,5-5.9,9.8-10.6,13.7c-8.8,7.3-17.6,5.6-21.9-5.4
	c-2.5-6.3-4.2-13-4-20c0.3-8-2.2-15.7-5.9-22.3c-4.1-7.4-1.1-9.8,5.2-10.4c15.5-1.5,31.1-2.7,46.3-6.6c2.5-0.6,5.8-0.7,6.3,2.7
	c0.5,3-2.9,3.4-4.8,3.8c-10.7,2.5-21.5,4.7-32.3,6.9c-2.3,0.5-5.2,0.2-4.9,3.3s3.2,2.7,5.5,2.5C423.8,937.7,429.8,937.3,435.8,936.9
	z"/>
<path d="M1140.9,1135.7c0.6-13.8,2.4-24.6,9.9-33.5c1.9-2.2,4.1-5.7,8.1-3.2c2.9,1.8,4.7,4.2,4.7,8c0,4-1.4,6.1-5.5,6.4
	c-4.3,0.3-5.9,3.7-7.2,7c-1.9,4.9-3.2,10-1.7,15.3c1.1,3.9-1.2,9.5,3.6,11.4c5.1,2,6.3-4.5,9.7-6.5c8.8-5.2,15.6-13.5,27.2-14.2
	c11.9-0.7,18.1,6.5,13.8,17.4c-5.4,13.6-30.3,26.6-43.9,23.1c-8.4-2.2-18.2-17.2-18.7-28.8
	C1140.9,1136.3,1140.9,1134.7,1140.9,1135.7z M1167.5,1158.1c5.4,0.2,25.3-10.3,27.4-13.9c2.4-4.2,0.7-6.3-3.7-6.1
	c-10.9,0.5-18.7,6.8-25.6,14.4C1162.9,1155.5,1164.7,1157.7,1167.5,1158.1z"/>
<path d="M980.6,1108.1c3.8-4.3,7.8-8,7.8-14.1c0-3.1,1.6-4.9,4.6-5.3c2.7-0.3,4.2,1.4,4.8,3.8c1.5,6,7,9.8,8.4,16.2
	c1.2,5.7,6.5,6.5,11.8,5.6c3.1-0.5,7.2-2.3,7.8,2.6c0.5,4-3.7,4.3-6.3,4.3c-8.3-0.2-7.6,3.7-4.4,9c1.8,3,3.3,6.2,5.8,8.9
	c3.8,4.2-0.1,7.6-2.9,9.6c-3.5,2.5-4.9-1.4-6.1-4s-2.2-5.4-3.4-8c-2.2-4.6-1-13.1-8.2-12.4c-8.7,0.8-19.5-1.6-24.3,10
	c-2,4.8-4.5,9.4-7.4,13.6c-1.8,2.6-3.7,7.1-8.3,4.5c-3.4-2-2.7-5.6-1.7-8.8c2.7-8.7,5.4-17.3,8.1-25.9c0.7-2.2,1.7-4.4,1.7-6.6
	c0-4.6-0.8-9.9,5-11.1C978.8,1098.8,977,1106,980.6,1108.1z M997.5,1111.5c-0.2-3-2.3-4.5-5.1-4.6c-2.7-0.1-5.1,1.8-5.5,4.6
	c-0.6,2.7,1.3,4.4,3.9,4.5C993.8,1116,996.7,1115.4,997.5,1111.5z"/>
<path d="M1111.6,1105.8c-0.8,9.5,2.1,18.7,2.7,28.1c0.2,3.5,1.1,7.8-2.5,9.8s-5.6-2.3-8.2-3.7c-10.9-5.8-21.8-11.7-32.6-17.6
	c-2-1.1-3.9-2.8-6.3-1.3s-1.4,4.1-0.8,6.2c1.6,5.6,3.8,13.7-2.9,14.7c-7.9,1.2-6.1-8.1-7.3-13.4c-1.6-6.6-3-13.3-4.5-19.9
	c-0.7-3-0.9-6,2.1-7.8c2.9-1.7,5.7-0.8,8.1,1.2c11.5,9.7,25.6,15.4,37.9,23.9c2,1.4,4.2,3.7,7,2c3.1-1.8,1.4-4.6,1-7
	c-0.9-6.1-1.6-12.2-2.8-18.2c-0.7-3.4-0.9-6.5,2-8.9c1.5-1.3,3.7-2,5.5-1c3.3,1.8,1.7,5.2,1.8,7.9
	C1111.8,1102.5,1111.8,1104.1,1111.6,1105.8z"/>
<path d="M914.6,1150c-12.1,3-23.3-3.2-34.8-7.5c-2.4-1-4.5-2.5-6.2-4.5c-2-2.2-1.2-4.9,0.4-7.2c1.2-1.7,2.6-3,4.8-2.7
	c2.6,0.4,2.6,2.5,2.6,4.4c0,3.7,2.6,5,5.6,5.8c3.4,1.1,6.9,1.9,10.4,2.6c5,0.7,12,4.2,14.3-0.9c2.4-5.3-5.6-6.2-9.1-8.8
	c-7.7-5.8-11.5-16.3-8.7-25.1c3.3-9.4,12.3-15.7,22.3-15.6c3.5,0.1,5.5,1.6,5.7,5.2c0.3,3.9-1.3,6.4-5.6,6c-6-0.6-11.9,0.7-13.7,6.6
	c-2.1,6.8,1.7,12.3,7.1,16.8c5.1,4.3,10.4,7.7,17,9c5.3,1,8.9,3.4,8.6,9.7c-0.4,7.3-6.1,5.4-10.1,6
	C922.1,1150.4,918.8,1150,914.6,1150z"/>
<path d="M758.9,660.1c-1.3-9.7-2.5-19.3-3.9-29c-0.7-4.5-3.3-7.3-8.1-6.2c-7.9,1.9-16.4,0-23.8,4.3c-1.2,0.5-2.5,0.8-3.8,0.8
	c-5.3,0.8-11.2,1.7-11.9-5.7c-0.8-7.6,5.1-7.7,10.5-7.8c8.1-0.1,16.3-0.4,24.4-0.4c3.8,0,7.1-0.6,9.2-4.2c2.6-4.3,5.7-3.9,9.9-2
	c4.5,2,4,4.6,4.4,8.9c1.7,17.5-1.9,35.6,6.1,52.4c2.2,4.7-2,6.5-5,8c-3.3,1.7-6.5,1.1-7.1-3.5c-0.7-5.1-1.2-10.3-1.8-15.4
	L758.9,660.1z"/>
<path d="M142.9,631.5c-1,7.8,3.8,14.4,4,22c0.3,9.2-2.7,11.8-10.8,8c-7.3-3.3-15-6.3-21.2-11.6c-1.6-1.3-3.1-2.8-5.1-2
	c-2.8,1.1-2,3.7-1.8,5.9c0.6,5.9,3.9,15-4.3,15.4c-8.4,0.5-4.6-9.5-5.9-14.9c-1.4-5.6-0.7-11.6-3.7-17c-2.1-3.7-2-7.7,2.5-10
	c3.9-2,7.4-1.7,10.5,1.8c6.1,6.8,12.9,12.8,21,17.1c2.3,1.2,4.7,3,7.2,1.1s0.4-4.1,0-6.2c-0.8-4.5-1.2-9-2-13.5
	c-0.7-3.6-1.9-7.8,3.3-8.4c4.7-0.5,6.9,2.8,6.7,7.5C143.2,628.2,143,629.8,142.9,631.5z"/>
<path d="M1053.2,773c12.9-0.1,23.3,5.5,32.2,14.1c8.2,8,6.6,19-3.1,25.3c-5.5,3.4-11.5,5.9-17.8,7.4c-9.8,2.5-21.4-4.7-24.4-14.6
	c-3.6-11.9,1.1-27.6,9.4-31.2C1050.7,773.5,1052,773.2,1053.2,773z M1060.6,809c8.8,0,20.1-5.7,20.4-10.3
	c0.3-5.3-14.8-15.5-23.1-14.9c-7,0.5-9.8,5.5-9.5,12.3C1048.8,803.9,1051.8,809.2,1060.6,809L1060.6,809z"/>
<path d="M56.9,786.2c1.4-4.1-4.5-12.7,3.4-13.2c8.8-0.5,3.9,8,4.3,12.8c0.5,6.2,1.7,12.3,1.3,18.4c-0.6,9.4-4.9,10.9-12.6,5.6
	c-8.2-5.5-14.5-12.9-21.4-19.8c-1.5-1.5-1.9-4.9-4.8-3.8c-3.4,1.3-1.8,4.5-1.5,6.8c0.7,6.1,1.7,12.2,2.5,18.4
	c0.3,2.6,0.8,5.3,0.2,7.7c-0.7,3.2-0.5,8.2-5.3,8.1c-5.5-0.1-3.3-5-3.8-8.3c-2.1-14.4-0.9-29.2-4.2-43.5c-0.8-3.6-1.1-7.3,3.3-9
	c4.6-1.8,6.6,1.5,8.4,4.6c6.4,11,17.9,17.7,24.5,28.6c0.9,1.4,2.3,2.7,4,2c2-0.8,2.3-3,2.3-5C57.4,793.4,57.1,790.2,56.9,786.2z"/>
<path d="M877.8,624.2c10,1.5,21.7,0.4,30.8,9.4c10.2,10.1,8.4,19.8-4.7,25.5c-9.6,4.2-19.6,4.9-29.6,5c-9.4,0.1-14.1-5.1-15.2-14.3
	c-0.8-6.6,0.7-13.1,2-19.3C862.8,622.1,871,625.7,877.8,624.2z M885.7,654.8c4.5-0.6,9.8-0.3,14.8-2.4c2.7-1.2,5.8-1.9,6.3-5.4
	c0.5-4-2.6-5.7-5.4-7.3c-8.2-4.8-17.5-4.7-26.5-5.4c-3.7-0.3-4.9,2.4-5.8,5.4C866.2,650.1,871.8,655.3,885.7,654.8z"/>
<path d="M883.3,806.5c-0.9-6.7-1.7-14.1-3.1-21.5c-0.9-5,0.7-8.5,5.2-10.2c4.9-1.8,5.5,2.6,7.3,5.7c6.9,11.8,17.5,19.9,29,26.7
	c6.1,3.6,8.4,1,7.2-5.7s-1-13.6-4.3-19.9c-1.9-3.7-1.5-7.5,2.9-8.8c4.6-1.3,5.1,2.8,5.6,6c1.6,10.3,3.4,20.5,4.6,30.8
	c1.3,10.9-1.9,13.1-11.4,8.8c-10.2-4.6-18.7-11.5-26.7-19.1c-1.7-1.5-2.9-3.9-5.6-2.6c-2.6,1.2-2.1,3.8-2.1,6c0,3.2,0.5,6.6,0,9.7
	s-1,7.2-5.5,6.5c-3.5-0.5-4.1-3.7-3.7-6.9C883,810.6,883.1,809,883.3,806.5z"/>
<path d="M658.4,947.9c-0.2,10.5-14.8,22.6-28.1,22.1c-9.8-0.4-11.2,2.3-8.8,10.9c1.3,4.5,3.1,9.4,1.7,14.3c-0.6,2.1-0.7,5-3.6,5.1
	c-2.7,0.2-4.3-2.4-4.8-4.3c-1.1-4.7-1.3-9.6-1.8-14.4c-0.5-5.4,1.1-11.1-3.4-15.8c-0.9-0.9-1-3.4-0.4-4.6c3.9-7.9,2-15.9,0.8-23.9
	c-0.3-2.2-1.3-4.8,2-5.6c2.2-0.5,3.8,0.8,4.3,3c1.3,4.8,3.5,4.3,7.9,3.1c8.8-2.4,18.2-2.2,26.9,0.7
	C656,940.3,658.8,943.4,658.4,947.9z M639.9,943.3c-7.8,0-14.3,1.8-19.6,6.7c-3.6,3.2-3.3,7.6-2.5,11.8c0.2,2.2,2.2,3.8,4.4,3.5
	c0.2,0,0.4-0.1,0.6-0.1c10-2.1,19.6-5.1,26.5-13.3c3.1-3.6,2.6-6.6-2.5-7.7C644.6,943.8,642.2,943.5,639.9,943.3z"/>
<path d="M1056.6,972.8c0-1.6,0-3.3,0-4.9c-0.6-24.3,3.8-21-22.3-20.5c-4.6,0.2-9.1,0.8-13.5,1.7c-3.8,0.8-6.5,0.5-7-4.1
	s1.1-7.7,6.3-7.6c13.7,0.5,27.2,0.2,40.7-3.1c6.4-1.6,9.5,3.1,7.4,8.8c-4.4,12.4-2.3,24.9-2.3,37.4c0,2.3,0.1,4.7,2.6,5.8
	c4,1.8,3,4.5,1.4,7.2c-2,3.4-4.8,5.1-9,4.2c-3.5-0.8-4.6-3.1-4.5-6.5c0.1-6.2,0-12.4,0-18.6L1056.6,972.8z"/>
<path d="M783.6,952.8c-4.8,2.1-9.5,5-14.5,6.2c-6.8,1.6-8.4,5-6.3,11.1c1,3.1,1.2,6.5,2.5,9.4c1.4,3.1,2.5,7.4,7,7.1
	c3.8-0.2,6.2-2.9,7.6-6.7c1-2.8,1.7-7.7,6.1-5.4c3.7,2,1.2,6.2-0.6,8.6c-4.1,5.3-5.9,14.9-14.7,13.3s-12.7-8.8-13.7-17.9
	c-1.1-10.3-3-20.5-4.9-30.8c-1.3-6.6,1.4-9,7.7-10.8c13.5-3.7,27,0.4,40.4-1.5c2.7-0.4,4.5,0.9,4.2,3.9c-0.4,3.4-2.2,5.3-5.9,4.8
	c-10.4-1.4-20.7-0.5-31.1,0.7c-4,0.5-7.6,1.2-6.8,6c0.9,5.4,5,3.9,8.5,3c4.5-1.2,9-2.7,13.5-4.1
	C782.8,950.9,783.2,951.9,783.6,952.8z"/>
<path d="M842.5,995c-10.6,0.4-20.5-2.8-28.4-11.1c-2.4-2.5-5.2-5.8-1.1-9.1c4.5-3.6,5.8,0.2,7.9,3.4c4,6.3,16.3,10.4,23.4,8.1
	c1.6-0.5,3.2-1.2,3.3-3c0.2-2.7-1.8-4-3.7-5.3c-7.2-5.3-13.2-11.6-16.1-20.3c-1.8-5.4-3.1-11.4,1.9-15.4c5.4-4.3,12-6.4,19.2-4.6
	c1.9,0.5,3.9,1.3,3.9,3.7c0,2.9-2.3,3.3-4.7,3.8c-14.1,3-15.8,7.7-6.7,19.1c3.4,3.9,7.2,7.5,11.5,10.5c5.1,3.9,10.5,8.4,8.5,15
	c-2.2,7-9.9,4-15.3,5.2C844.9,995.2,843.7,995.2,842.5,995z"/>
<path d="M188.2,769c4.8,0,6.8-0.1,8.7,0c3.1,0.2,7-0.8,8,3.6c1.1,4.8-2.4,6.2-6.1,7.1s-6,2.8-4.8,6.9c2.7,9,0.4,18.8,4.7,27.6
	c1.3,2.3,1.2,5.2-0.3,7.5c-1.4,2-3.3,3.2-5.9,2.7c-3.6-0.7-4.6-3.5-4.3-6.6c1.1-11-2.9-21.1-4.7-31.6c-1-5.5-2.6-7.6-9-6.1
	c-8.1,1.9-16.7,2.2-25.1,2.8c-3.9,0.3-8.1-0.2-8.4-5.7c-0.3-6.5,4.6-5.2,8.2-5.2C162.3,771.7,175.3,770.7,188.2,769z"/>
<path d="M606.1,661.3c-0.4-8.1-0.8-16.2-1.3-24.3c-0.4-5.8-4.2-8.4-9.3-7c-7.4,2-15,0.2-22.2,2.3c-3.5,1-5.6,0.1-6.4-3.7
	s0.2-7.1,4.3-7.2c14.3-0.5,28.4-2.5,42.3-5.9c2.3-0.6,3.7,0.8,4.7,2.7c1.3,2.6,1.4,5.5-1.3,6.9c-5.1,2.7-4.1,6.6-3.1,10.9
	c2.2,9.4-0.2,19.3,3.8,28.7c1.4,3.4,0.9,8.5-5,8.2C604.7,672.5,605.8,666.6,606.1,661.3z"/>
<path d="M457.4,637.9c-0.1-5.5-0.4-9.2-2.5-12.8c-2.2-4,0.3-7.2,4.1-8.3s4.8,2.3,5.6,5.1c2.4,7.4,0.6,14.9-0.1,22.1
	c-0.8,7.6-3.5,15.1-6,22.4c-2.3,6.5-7.5,7.4-10.3,1.4c-5.8-12.8-14-24.1-21.6-35.8c-2.4-3.8-1.4-6.9,2.5-8.9
	c4.2-2.2,6.5-0.2,8.3,3.7c2.9,6.2,6.3,12.1,9.4,18.1c1.4,2.8,1.8,7.3,5.8,6.9c5.2-0.5,2.7-5.7,3.8-8.8
	C457.1,641.4,457.4,639.7,457.4,637.9z"/>
<path d="M131.9,796.5c0.3,11.5-7.8,18.7-16.8,24.8c-5.4,3.6-15.9-1.4-19.4-8.7c-5.8-11.9-5.3-24.6-3.9-37.3c0.3-3,2.6-5.8,5-3.6
	c5,4.6,10.4,2.4,15.7,2.8C124.7,775.3,132.3,783.6,131.9,796.5z M108.4,782.5c-3.6,0.8-9.7-2.8-9.8,5.9c-0.2,15.6,4,25.6,11.6,25.6
	c7.4,0,14.1-8.6,14.8-19C125.4,787.3,119.7,782.9,108.4,782.5L108.4,782.5z"/>
<path d="M589.5,1108.2c1,12.1,1.8,22.5,2.8,32.8c0.3,2.9,0.7,5.9,3.8,7.4c2.2,1.1,4.2,2.5,2.3,5.2c-1.5,2.1-3.6,4-6.4,4.1
	c-3.2,0.1-4.5-2.3-4.7-5.1c-1.1-11.7-2.4-23.3-3.2-35c-1.2-17-4.3-19.4-19.1-11.8c-6.9,3.6-13.9,2.4-20.8,3.7
	c-2.2,0.4-5.1-0.1-5.7-2.7c-0.8-3.5,2.6-4.4,4.9-4.8c8.6-1.7,17.3-2.8,25.9-4.5c11.1-2.2,22.2-4.6,33.3-7.2c3.3-0.8,5.8-0.5,7.5,2.6
	c1.5,2.6,1.6,5.8,0.2,8.5c-2.1,3.7-5.3,1-7.8,0.2C591.3,1097.6,589.3,1098.8,589.5,1108.2z"/>
<path d="M647.2,1141.2c-15,0.2-25.5-11.4-23.2-25.3c1.1-6.6,4.1-11.6,12.5-10.1c10.1,1.9,20.8,1.2,30,7.2c8.2,5.3,9,11.2,2.3,18.2
	C662.7,1137.4,655.7,1141.9,647.2,1141.2z M644.7,1115.6c-3.8,1.8-12.4-3.2-11.7,6.2c0.5,7.2,6.7,11.4,14,10.8
	c6.5-0.5,15.9-1.2,16.1-9.2c0.2-7.5-9.3-6.1-14.8-7.8C647.4,1115.3,646.3,1115.6,644.7,1115.6L644.7,1115.6z"/>
<path d="M333.5,778.1c3,0.3,4.7,2.5,6.4,5c3.5,5.4,7,10.8,10.7,16.1c1.2,1.7,1.8,4.7,4.6,4.3s2.9-3.1,3.3-5.3
	c1.1-6.4,1.9-12.8,3.5-19c0.7-2.6-0.5-8.1,4.2-7.2c4.2,0.8,7.7,5.4,6,9.7c-4.1,10.7-4.1,22.2-8,32.8c-1.1,2.9-1.8,6.8-5.8,7
	s-6.4-2.6-8.3-5.9c-5.5-9.4-9.8-19.7-20-25.6c-3.2-1.9-1.4-5.3-0.9-8C329.5,779.8,331.3,778.1,333.5,778.1z"/>
<path d="M1147.5,639.9c11.5-1.5,25,2.2,38.1-2.4c3.1-1.3,6.7,0.2,7.9,3.3c0,0.1,0.1,0.2,0.1,0.3c1.1,2.7,2.5,5.2,0,8.1
	c-2.6,3.1-5.2,1.9-8.6,1.6c-18.5-1.8-37-0.4-55.6-0.3c-4.5,0.1-9.1-0.2-13.6-1c-3.3-0.7-5.9-3.4-5-7.2c0.8-3.4,3.9-2.4,6.5-2.4
	C1126.9,639.9,1136.4,639.9,1147.5,639.9z"/>
<path d="M359.6,946.7c-0.4-5.2-1-9.3-1-13.5c0-2.7,1.1-5.5,4.6-4.8c3,0.6,6.6,2.8,5.2,5.8c-5.5,11.9-1.9,25.1-5.9,37.1
	c-1.2,3.4-2.6,6.6-4.3,9.8c-1.2,2.5-4,3.7-6.6,3c-2.8-0.6-4.2-2.4-4.7-5.4c-2.3-12.4-9.1-22.5-17-32c-3.1-3.8-4.5-7.8-0.3-11
	c5.1-3.8,7,1.7,8.5,4.7c3.7,7.5,6.5,15.5,9.8,23.2c1,2.3,1.7,5.5,4.9,5.3s3.9-3.3,4.4-5.7C358.4,957.3,359,951.5,359.6,946.7z"/>
<path d="M288.4,624c-0.4-4.3,0.9-6.8,4.2-7.8c4.4-1.3,4.6,2.4,5.6,5c3.4,8.3,2.3,17.3,4.4,25.9c1.2,4.9,0.7,9.9,4.8,14.3
	s-1,7.8-4.3,10s-6.9,0.7-7.2-3.4C294.7,652.7,292.6,637.7,288.4,624z"/>
<path d="M530.8,665.9c-0.1,2.6-1.6,4.9-3.9,5.9c-2,0.9-3.8,0.1-5.2-1.5c-2.7-3-3.8-6.5-4.3-10.5c-1.6-11.4-1.3-23.3-8.7-33.4
	c-2.6-3.6,0.1-8,3.9-9.6c4.4-2,5.3,2.1,6.4,5.2c3.6,10.1,5.8,20.6,6.7,31.3C526,658.5,529.3,662,530.8,665.9z"/>
<path d="M160.4,1094.4c10.5-0.7,21.2,2,31.7-1.4c3.1-1,4.6,1.4,5,4.4s-1.3,4.4-3.9,4.3c-9.8-0.5-19.2,3.6-29.1,2.2
	c-3.2-0.5-7.2-1.5-7.1,3.6c0.1,4.1,0.3,8.7,6.4,9.2c9.3,0.8,17.9-1.9,26.5-4.6c1.9-0.6,3.9-2.1,4.8,0.5c0.8,2.3-1.4,3.5-3.4,3.9
	c-9.4,1.9-17.3,8.9-27.4,8.6c-1.8-0.2-3.5,1.1-3.7,2.9c0,0.3,0,0.5,0,0.8c0.9,6.7,2,13.6,5.4,19.5c2.1,3.6,5.6,2.3,8.5,0.4
	c5.2-3.4,9.2-8.3,11.6-14.1c0.8-1.8,1.8-4,4.1-2.8c0.9,0.5,1.3,2.9,1.2,4.4c-0.4,5.5-15.1,24.5-20.2,25.3
	c-6.9,1.1-10.9-3.4-12.7-9.4c-1.9-6.2-3.4-12.5-4.6-18.9c-0.7-3.6-0.6-7.1-4.9-8.6c-2.2-0.7-2.6-2.9-1.9-4.9
	c2.4-6.7,3.2-12.9-0.9-19.5c-1.6-2.5,0.8-5,3.9-5.3C153.2,1094.6,156.8,1094.6,160.4,1094.4z"/>
<path d="M99.5,1153.6c-5.2,1.3-10,0-14.8-0.4c-4-0.3-5.3-3.3-6.2-6.5c-0.4-1.6-0.9-3.4,0.9-4.3s2.8,0.2,4.1,1.3
	c4.6,4.2,26.7,1.5,29.7-3.4c2.2-3.7-1-5.2-2.9-7.2c-7.8-7.6-12.5-16.4-11.6-27.7c0.4-5.5,3.3-9,8.1-11.2c3.1-1.4,5.8-0.5,7.4,2.5
	c1.4,2.3,0.9,5.3-1.1,7.1c-6.8,7.2-6.9,13.9-0.1,20.8c3.4,3.4,6.5,7.4,11.6,8.6c3.8,0.9,5.2,3.3,5,7.1c-0.2,3.6-1.5,6.1-5,7.6
	C116.5,1151.4,108.2,1154.2,99.5,1153.6z"/>
<path d="M63.9,1134.3c-1.1-6.8-2.5-16.5-4.5-26c-1.4-6.7-5.5-9.5-12.9-8.4c-4.8,0.7-12.7,4.2-13.5-3.9c-0.8-8.7,7.9-6.9,13.2-7.3
	c7.8-0.5,15.6-0.6,23-3.8c3.1-1.3,6-1.3,7.3,2.2c1.2,3.3,0.7,7.2-2.8,8.3c-7.1,2.1-6.4,6.4-5.5,12.1c1.8,11.8,0,24,4.3,35.6
	c1.1,3,0.6,6.3-3.2,6.9c-3.3,0.5-5.6-1.8-5.9-5.1C63.1,1142.3,63.6,1139.7,63.9,1134.3z"/>
<path d="M241.6,1162.1c-6.1-1.2-10.1-4.8-12.2-10.9c-5.2-14.8-3-31-8.4-45.8c-0.9-2.5,0.4-5.2,2.9-6.1c0.5-0.2,1-0.3,1.5-0.3
	c4.1-0.2,5.1,3.7,5.5,6.8c1.1,9,1.1,18.2,2.8,27.1c1.1,5.9-0.4,14.6,7.3,16.7c8.9,2.5,17-2.2,24.2-7.5c1.3-0.9,1.9-2.6,3-3.8
	c1.6-1.7,3.5-3.3,5.8-1.2c1.5,1.4,1.6,3.8,0.3,5.4C265.8,1153,255.4,1160.1,241.6,1162.1z"/>
<path d="M303.8,1129.1c-14.3-0.4-16.2,2-11.3,13.6c2.1,4.8,3.1,9,1.1,13.8c-0.8,2.1-0.9,4.8-4.1,4.3c-2.5-0.4-3.8-2.2-4-4.8
	c-0.6-6.1-1.5-12.2-2.1-18.3c-0.4-3.9-0.5-7.8-4.1-10.5c-2.4-1.8-2.6-4.4-1.2-6.9c2-3.5,1.2-6.9,0-10.3c-1-3.1-2.6-7,1.6-8.3
	c3.4-1,5.5,3.1,5.7,5.4c1.1,10.4,9.3,12.4,16.6,12.6c5.9,0.2,11.9,2.1,18,0.5c2.1-0.5,5-1.8,5.3,1.7c0.2,2.3-2,4.3-4.2,4.7
	C314.5,1127.8,307.7,1128.5,303.8,1129.1z"/>
<path d="M334.7,1093.7c-1.6,3.7-3.9,7.8-8.2,6.7c-9.9-2.4-20,0.4-29.9-2c-3.6-0.8-7-1.6-9.3-4.6c-1.2-1.6-1.3-3.8-0.1-5.5
	c1.1-1.8,2.7-3,4.8-2.2c11.4,4,23.1,2.5,34.8,2.2C330.8,1088.3,334,1088.9,334.7,1093.7z"/>
<path d="M15.1,1091.1c5.2-0.4,6.7,2.1,7.1,5.2c1,7,2,14.1,2.6,21.2c0.5,6.1,0.2,12.1,5.7,16.8c2.5,2.2,1.5,6.1-0.2,9.1
	c-1,1.7-2.8,3.3-4.8,2.7c-3.3-1.2-4.3-4-5.1-7.5c-2.9-12.2-2-25.1-7.6-36.9C11.2,1098.6,9.6,1092.4,15.1,1091.1z"/>
<path d="M822.8,662.1c-0.2,3.4-2.2,4.9-5,5.4c-2.9,0.6-5.3-0.8-6.1-3.5c-0.6-2.8-0.8-5.7-0.7-8.6c-0.2-8.4-0.1-16.8-5.4-24.2
	c-2.4-3.3-2.1-7.1,1.4-9.4c4.7-3.2,6.2,1.5,8,4.2c3.5,5.1,5.4,11.1,5.5,17.3C820.6,649.7,819.8,656.3,822.8,662.1z"/>
<path d="M844.3,810.9c-3.3-9.2-2.2-21-8.2-31c-1.1-1.9-3.9-3.2-1.3-5.5c1.4-1.3,3.2-2,5.2-2.1c2.6,0,3.5,2.2,4,4.7
	c1.8,9.5,3.7,19,5.6,28.5c0.4,2.2,0.9,4.4,1.5,6.6c0.7,2.6,3.4,5.3,0.4,7.9c-1.6,1.3-3.8,1.4-5.5,0.3
	C842.5,818.4,843.8,815.3,844.3,810.9z"/>
<path d="M433.9,1606c-3.4,5-7.4,2.6-10.8,4c-2.5,1.1-6.7-1-7.6,3.2c-0.7,3.2,1.2,5.7,3.3,8c3,3.3,8.4,5.4,6,11.4
	c-0.7,2-2.8,3.2-4.9,2.7c-5.5-1.7-5.7-7.1-7-11.4c-1.8-5.9-4.2-11.8-11-10.8c-7.9,1.1-17.4,0.7-21,10.6c-1.5,4.1-2.5,8.3-5.2,11.9
	c-1.2,1.7-2.5,3.3-4.9,2.3s-2.5-3-1.7-5.1c6.3-16.5,11-33.5,15.5-50.6c0.8-3.1,3-6.5,7-6.3c3.8,0.2,2.4,4.1,3.6,6.2
	c3.9,6.6,8.2,12.9,12.5,19.3c2.4,3.6,6.1,3.3,9.9,3.3C423.1,1604.8,428.5,1605.6,433.9,1606z M393.3,1607.9c2.4-1,7.8,0.9,7.1-5
	c-0.5-4.1-3.5-8.3-7.2-8.7c-5.1-0.5-5.4,5-6,8.8S388.8,1608.4,393.3,1607.9L393.3,1607.9z"/>
<path d="M127,1605.5c1.5-0.2,5.9-0.3,10.1-1.1c2.7-0.5,5.5-2.1,5.9,2.3c0.3,3.4-1,5.7-5.1,5.8c-7.4,0.2-14.7,0.7-22.1,1
	c-10.5,0.4-13.1,4.4-8.9,13.9c0.4,0.9,1,1.8,1.7,2.5c2.3,2.6,2.7,5.3,0.7,8.3c-1.3,1.9-3,2.7-5.1,2.1c-3.3-1-4.8-3.9-5.1-6.9
	c-1-10-1.7-20-2.3-30c-0.3-5,0.2-9.6-4.9-13.3c-3.7-2.7-2-6.8,2.8-6.3c14.8,1.6,29.4,0.2,44.1-1.1c2.4-0.2,4.9,0.5,5.1,3.5
	c0.2,3.3-2,4.9-5,5c-8.4,0.4-16.7,0.7-25.1,0.8c-3.5,0-7.1-0.4-7.5,4.4s1.8,7.7,6.8,8.1C116.8,1604.9,120.5,1605.1,127,1605.5z"/>
<path d="M70.8,1617.6c0.2,12.4-8.6,21.3-21.4,21.7c-11.9,0.3-24.1-10.9-24.3-22.3c-0.2-13.1,9.7-28.9,18.1-29
	C56.2,1587.6,70.5,1603,70.8,1617.6z M51.1,1630.2c5.6-0.8,12.5-2.3,12.8-11.7c0.3-9.4-9.5-21.2-16.9-20.7s-14.1,8.2-13.8,15.8
	C33.6,1623.8,40,1630.4,51.1,1630.2L51.1,1630.2z"/>
<path d="M918.2,1613.1c0.8-6.4-0.5-12.7-1.6-19c-1.1-5.9,1.6-10.2,6.5-12.3s5.4,3.7,7.5,6.3c6,7.3,12.3,14.3,20,19.7
	s9.4,4.4,10.4-4.7c0.6-5,1.4-9.9,2.5-14.8c0.7-4.1,3.9-7.3,8-8.1c4.5-1,5.7,2.6,7.7,5.1c8.3,10.4,7.1,23.5,9.8,35.4
	c0.7,3.2,0.3,7.1,4.8,7.7c2.7,0.3,6.1-0.1,5,4.1c-1.1,4-4.3,7.1-8.3,8.1c-3.4,1-6.1-0.4-7.3-3.7c-2.1-5.7-3.4-11.5-4.1-17.5
	c-0.5-5.7-1.8-11.2-2.9-16.8c-0.3-1.7-1.2-3.3-3.1-3.5c-2.6-0.2-3.5,1.8-3.8,3.8c-0.5,4-0.7,8-0.7,12c0,7.6-3.5,9.4-10.3,7
	c-7.8-2.7-14.4-7.2-20.7-12.2c-1.8-1.4-3.5-3.6-6.1-2.4c-3.2,1.5-2.1,4.5-1.8,7.1c0.3,2,0.5,4,0.5,6c-0.1,4.7-1.3,9.1-6.9,9.3
	c-6.4,0.2-5.1-4.8-5.1-8.7C918.3,1618.5,918.2,1615.8,918.2,1613.1z"/>
<path d="M758.2,1610.4c-0.1-5.8,1.1-10-1.4-12.9c-5-5.9-1.7-8.7,3.4-11.4c5.9-3.1,8.7-0.4,10.2,5.1c2.5,8.9,10,14.2,15.5,20.8
	c4,4.7,8.3,1.5,10.6-2.6c4.3-7.9,10.5-14.7,13.5-23.4c1.1-3.1,2.6-5.4,6.3-5.3s3.5,3.1,4.8,5.4c5.5,10,7.7,20.6,7.8,31.8
	c0,2.8,0.3,5.5,3.7,6.2s7.2,1.8,5.2,6.4c-1.6,3.8-5.4,6.4-9.5,6.4c-4.4,0.2-5.6-3.2-6.2-6.6c-1.3-7.6-2.1-15.3-3.5-22.8
	c-0.5-2.7-0.2-6.7-4.2-7.1c-3.5-0.4-4,3.2-5.1,5.4c-3.2,6.2-8.5,11-10.9,17.8c-2.1,5.9-6.5,6.1-11.2,2.4c-4.8-3.7-9-8-12.5-13
	c-0.9-1.2-2.8-2.7-3.9-2.5c-2.3,0.4-2.2,2.9-2.3,4.9c-0.3,5.7,3.3,11.2,1.5,16.9c-0.8,2.6-0.2,7.1-4.2,7c-3.6-0.1-5.6-3.4-5.9-7
	C759.2,1624.3,758.7,1616.3,758.2,1610.4z"/>
<path d="M1087.9,1608.4c0-5.6-0.5-11.3-1.8-16.8c-1.1-4.3-0.2-8.4,4.1-10.3c4.7-2,6,2.1,8.1,5.2c9.4,14.3,19,28.6,36.9,33.6
	c2.7,0.8,5.5,4,8.1,0.9s-0.6-5.6-2-8.1c-4.3-7.5-9.6-14.5-11.6-23.2c-0.8-3.3-2-7.2,2.7-8.2c4.1-0.9,4.7,3,5.3,5.9
	c2.5,10.6,9.6,19,13.8,28.9c2.2,5.2,5.3,12,1,15.9c-3.8,3.3-11,1.9-16.2-0.7c-10.2-4.9-21.1-8.7-29.4-17.1c-4.7-4.8-6.3-2.8-7.2,3.1
	c-0.7,5,1.4,13.8-6.8,13s-4.7-9.5-5.6-14.9C1087.1,1614,1087.6,1612.2,1087.9,1608.4z"/>
<path d="M1050.8,1578.2c7,0,11,0.1,15.1,0c3.3-0.1,5.3,1.1,5.2,4.5c-0.1,3.3-2,5-5.2,4.6c-8.1-1-16.1-0.3-24.1,0.5
	c-6.1,0.6-15.5,0.8-15.3,7.7c0.2,6.4,9.3,3.5,14.6,3.9c6.1,0.5,12.1-0.5,17.7-2.9c2.2-0.9,5-2.1,6.2,0.6s-1.7,4.3-3.9,4.8
	c-7.5,1.7-14.1,6.3-22.2,5.8c-4-0.2-9,0.1-9.7,5c-0.7,5.3,0.6,11.2,5.4,14.3c5.7,3.7,8.1-2.4,11.3-5.3c2.2-2,3-7.8,7-5
	c3.3,2.4,0.9,7.5-1.2,9.9c-4.7,5.2-8,12.8-17.1,12.1c-9.4-0.7-11.9-8.1-14.1-15c-2.5-8.3-4.4-16.8-5.8-25.5
	c-1.2-6.9,7-17.3,14.1-18.2C1037,1579.2,1045.4,1578.7,1050.8,1578.2z"/>
<path d="M849.6,1614.7c0.1-17.1,6-25.1,18.4-24.9c18.8,0.3,29.7,7.7,29.4,20.1c-0.2,8.2-21.4,24-31.8,23.7
	C855.6,1633.3,849.6,1626.2,849.6,1614.7z M871.2,1599.2c-5.5-1.5-8.3,1.2-9.8,6c-1.6,5.3-5.2,10.7,0.7,15.6c4.4,3.8,9,2.3,12.8-0.7
	c5-4,15.5-4,13.3-13.7C886.1,1597.8,877,1601.1,871.2,1599.2z"/>
<path d="M1186.7,1612.6c0-3-0.1-6,0-9c0.3-8.3-3.1-11.9-11.7-9.6c-6.4,1.7-13.4,0.2-19.7,3.2c-1.9,1.1-4.3,0.4-5.4-1.5
	c-0.2-0.3-0.3-0.6-0.4-0.9c-0.8-2.3,1.1-3.7,2.8-4.8c7.1-4.6,15.3-4.6,23.3-4.7c4,0,8.1,1,10.8-3.3c1.8-2.8,4.9-4.1,7.9-2.6
	c3.3,1.8,5.8,4.8,5.5,8.9c-0.3,2.3-0.8,4.6-1.5,6.8c-3.2,13.5-5.8,26.9,0.4,40.4c1.6,3.5,1.8,8-2.8,9.2c-4.9,1.2-7.2-2.4-7.5-7.1
	C1187.8,1629.3,1185.8,1621,1186.7,1612.6z"/>
<path d="M411.7,1472.8c-1.1,6,1.4,9.3,5.8,11.3s3,5.5,2.7,8.7c-0.1,2.1-1.8,3.8-3.9,4c-3.7,0.6-5.4-1.7-6.7-4.7
	c-0.8-1.5-1.6-2.9-2.5-4.4c-2.5-4.6-4.9-12.4-10.3-10.7c-7.3,2.3-17,3.5-19.4,13.7c-0.8,3.3-1.8,6.5-2.9,9.7
	c-1.3,3.7-3.9,5.6-7.8,4.4s-3.8-4.8-2.6-7.5c3.5-8.3,5.5-16.9,7.7-25.6c1.4-5.5,4.1-10.6,3.5-16.5c-0.5-4.7,3-7.4,6.5-9.3
	c4.2-2.2,6.8,1.3,9.3,3.9c5.9,6.2,7.9,16.4,19.4,16.8C412.9,1466.5,412.3,1471,411.7,1472.8z"/>
<path d="M704.8,1486.1c0.3-10.4-1.6-20-8.1-28.5c-1.8-2.4-3.1-5.3-1.2-8.4c1.5-2.3,3.9-2.7,6.2-2.4c4.1,0.4,3.5,4.3,4.7,6.9
	c1.5,3.1-0.3,8.4,4.8,8.9c4.4,0.3,5.2-4.5,7.5-7.2c2.3-2.9,4.9-5.5,7.8-7.8c5.7-4.1,12.1-9.3,18.3-1.1c4.9,6.5,1,18.6-6.8,22.5
	c-2.8,1.4-7.8,0.9-7.4,5.3c0.4,4.8,5.3,4.2,8.8,4.6c7.8,0.9,14.8,7,23.4,3.9c2.1-0.7,3.7,1.3,3.5,3.7c-0.3,3.7-1.7,6.9-6,6.7
	c-11.3-0.8-22.7-1.7-33.2-6.5c-10.1-4.6-11-4.1-13.1,6.1c-0.7,3.3-1.2,8.4-6.1,7.9s-4.9-4.6-3.8-8.6
	C704.6,1490.1,704.8,1488.1,704.8,1486.1z"/>
<path d="M807.7,1444.7c5.5,0.9,8.3,6,11.7,9.8c3.2,3.6,5.6,7.4,10.8,8.2c2,0.3,4.5,1.3,4,3.7c-1.3,5.7,2.8,7.7,6.3,10.2
	c3.2,2.3,5.6,5,3.6,9.3c-1.1,2.3-1.5,5.8-4.8,5.6c-4.1-0.3-6-3.8-7.9-7c-6.8-11.4-10.6-12.5-22.8-7.4c-4.1,1.7-6.7,4.2-7.2,8.8
	c-0.2,2-0.4,4.4-1.5,5.7c-2.8,3.4-2.4,11.8-9.5,8.8c-6.4-2.7-3.1-8.4-1-13c0.8-1.8,2.1-3.7,0.4-5.6c-2.2-2.4-4.3-0.4-6.4,0.4
	c-3.2,1.3-6.5,2.4-9.3-0.7c-1.4-1.5-1.7-3.8-0.6-5.6c1.7-3.2,4.8-3.7,7.8-3.2c11.3,1.9,13.1-4.9,12.9-13.7
	C794.1,1453.8,802.2,1444.9,807.7,1444.7z"/>
<path d="M1193.9,1456.1c0.1,10.8,2.6,21.2,4.7,31.7c0.9,4.7,2.8,10.7-1.9,14s-9.3-0.3-14-2.2c-11.1-4.4-20-12-29.6-18.6
	c-1.8-1.3-3.7-3.6-6.2-1.6c-1.7,1.4-1,3.6-0.7,5.6c0.8,5.6,4.4,14-3.6,15.1c-7.6,1.1-5.7-8.1-7-13.2c-1.8-6.8-3.6-13.6-5.4-20.3
	c-1.4-5.2-1.9-10.2,3.5-13.4c6.2-3.7,6.9,2.9,9.5,5.7c11.3,12.5,24,23.2,39.2,30.8c2,1,4,3,6.4,1.2c2.6-1.9,2.3-4.8,1.7-7.4
	c-2.2-8.8-3.4-17.8-3.8-26.9c-0.1-4.1-2.8-10.3,3.5-10.6C1197.1,1445.8,1194,1452.2,1193.9,1456.1z"/>
<path d="M885.2,1447.6c4,0.1,8.3-0.7,10.5,4c1.1,2.3,4.1,4.3,2.4,7.2c-2.1,3.4-4.7,0.5-7-0.1c-16-4-23.2,2.8-20.3,19.1
	c3.7,20.9,25.7,32.2,42.2,21.4c6.5-4.2,11-9.8,10.3-18.3c-0.3-2.9-0.4-7.1,4-6.3s2.3,4.5,1.7,7.3c-4,20.3-10,27.8-23.8,30
	c-23.7,3.8-40.1-10.8-42.9-38.1C860.4,1456.4,868.1,1447.6,885.2,1447.6z"/>
<path d="M651.8,1465c3.4-0.1,7.7-0.2,11.9-1.9c2.4-1,5.8-1.2,6.8,2c1.1,3.7-2.1,5.7-4.9,6.4c-5.5,1.3-11.2,1.8-16.8,2.8
	c-10,1.6-13,7.2-8.9,16.4c0.7,1.5,2.2,2.6,2.8,4.1c2.1,5-1.5,8-5.1,9.2s-4.9-2.5-5.2-5.6c-1-10-2.1-19.9-2.9-29.9
	c-0.4-5.2,1-10.9-6.2-13.1c-1.8-0.6-2.9-2.5-2.3-4.3c0.2-0.6,0.5-1.1,0.9-1.5c3.1-3.2,5.4-10.8,9.6-8.6c9.8,5.2,18-0.1,26.9-1.2
	c4.6-0.6,9.2-1.7,13.9-2.1c3.2-0.3,6.4,0.8,6.7,4.5c0.3,3.8-3,3.2-5.6,3.8c-9.4,2.2-18.7,4.6-28,7.2c-3.9,1.1-9.9,1.1-8.6,7.4
	c1,5.1,6.3,3.9,10.1,4.4C648.6,1465.1,650.2,1465.1,651.8,1465z"/>
<path d="M1065.2,1452.4c12-0.9,21.6,1.1,28.1,10.4c5.8,8.2,4.8,15.3-3,21.7s-15.8,11.1-26.3,10.8c-8.8-0.3-14.2-5.2-15.1-14
	s1.6-17.3,3.1-25.6C1053.5,1447.7,1061.9,1454.3,1065.2,1452.4z M1057,1473.6c-1,9.1,3.7,12.3,11.1,12.9c7.1,0.5,20.9-9.1,21-14.5
	c0.1-4.8-11.1-12.5-18.8-12.9C1062,1458.8,1057.6,1463.8,1057,1473.6z"/>
<path d="M981.4,1492.8c0.2,2.3-1.5,4.3-3.7,4.6c-0.1,0-0.1,0-0.2,0c-4.6,0.5-5.5-3.2-5.7-6.6c-0.8-10.7-1.5-21.4-2-32.1
	c-0.3-6.3-2.2-9.1-9.4-7.1c-7.9,2.2-14.9,6-22.4,8.9c-4,1.5-8.6,3-10.4-2c-1.9-5.5,3.5-5.7,7.1-7.4c10.1-4.6,21.3-6,31.2-10.5
	c9.4-4.3,11.9,1.1,12.8,7.7c1.2,9.3,0.9,18.7,1.4,28.1C980.4,1481,980.8,1485.7,981.4,1492.8z"/>
<path d="M1021.5,1463.2c0,7,0,14,0,21.1c0,3.3,2.3,4.5,4.5,6.1c4.8,3.3,2.7,7,0,10.3c-4,5-6.2-0.2-8.8-2s-2.2-4.6-2.8-7.3
	c-2.5-12.3-1.4-24.8-2.4-37.1c-0.3-3.5,0.3-7.6,4.4-7.7c4.4-0.1,4.5,4,4.4,7.6c-0.1,3,0,6,0,9.1L1021.5,1463.2z"/>
<path d="M129.9,1460.7c0,8.4,0.4,16.8-0.1,25.1c-0.8,11.8-6.2,14.3-16.4,8.9c-8.3-4.4-14.6-11.2-22-16.7c-1.7-1.2-3-3-5.2-1.8
	s-1.7,3.4-1.4,5.4c1.2,7.6,2.4,15.2,0.6,23c-0.5,2.3-0.4,5.1-3.3,5.4c-3.3,0.4-5.2-2.2-5.3-4.9c-0.6-16.4-2.7-32.6-4.8-48.8
	c-0.4-3.2,1.6-6.1,4.6-7c3.3-1,2.7,3,4,4.7c9.4,12.1,22.1,20.4,34,29.6c1.5,1.2,3.5,2.4,5.5,0.7c2.3-1.9,2.5-4.5,2.2-7.3
	c-0.8-9.6-1.3-19.2-2.1-28.8c-0.3-4-0.1-8.4,4.6-8.4c4.3,0,3.8,4.9,4.1,8c0.4,4.3,0.1,8.7,0.1,13L129.9,1460.7z"/>
<path d="M28.2,1501.6c2.8-11.8,0.2-23.2-2.4-34.6c-0.9-4.1-1.9-9,3.5-9.9c6.5-1.2,4.8,5.1,5.5,8.4c2.3,10.1-1.9,21.1,5.5,30.9
	c2.4,3.2-2.4,8.5-4.5,12.5c-0.8,1.3-2.4,1.8-3.8,1.1c-0.2-0.1-0.4-0.3-0.6-0.4C28.9,1507.5,27.4,1505,28.2,1501.6z"/>
<path d="M536,2163.9c-0.6-6.2,0-14.4-3.4-22c-0.9-2.1-2.7-4.2-0.5-6.4c1.7-1.6,3.8-0.3,5.7-0.1c3.3,0.3,4.4,2.4,4.9,5.4
	s-3.1,7.9,1.3,8.8s4-5.2,6.1-8c4.3-5.6,8.2-11.5,14.9-14.5c6-2.7,12.3-4.8,17.1,1.9c4.4,6.2,3.1,16.7-2.7,21
	c-3.7,2.8-8.1,4.7-12.2,6.9c-4.9,2.5-6.1,6.1-1.3,9c8.9,5.4,18.6,9.2,29.3,6.6c3-0.8,5.4-2.4,8.1,0c1.9,1.6,2.2,4.4,0.7,6.3
	c0,0,0,0-0.1,0.1c-2.1,2.7-3,7.1-8,6.3c-15.3-2.5-30.6-5.1-41.5-17.8c-1.7-2-2.8-5.7-5.8-4.6c-3.5,1.2-2.4,5.2-2.3,8
	c0.1,4.3,0.9,8.6-0.4,12.9c-0.6,1.9-0.4,4.4-2.9,4.7c-2.7,0.3-4.2-1.8-5-4.1C535.8,2178.4,535.9,2172.1,536,2163.9z M576.5,2137.1
	c0.1-4.1-2.5-5-5.8-5c-4.2-0.1-18,12.4-18.1,16.5c0,1.8,0.5,3.2,2.5,3.8C560.4,2154,576.3,2142.7,576.5,2137.1L576.5,2137.1z"/>
<path d="M609.5,2165.2c-0.6-9.4,0-19-2.3-28c-1.9-7.9,3.5-10,7.2-13.6c3.2-3.1,5.7,0,7,2.7c4.9,10.3,14.1,16.8,21.7,24.7
	c5.6,5.9,8.6,3.7,11.5-3c2.2-5.1,1.6-10.5,3.6-15.5c1.1-2.9,1.9-6.1,5.5-6.4c3.8-0.4,4.6,3,5.9,5.8c3.9,8,4,16.9,5.8,25.4
	c1.7,7.8,1.5,15.8,5.7,23.1c2,3.5,1.3,9.3-2.8,10.5c-5.1,1.5-7.6-3.2-8.1-7.9c-1-9.3-1.4-18.7-2.5-28c-0.3-2.7-0.7-6.9-4.3-7
	s-3.1,4.1-3.4,6.3c-1.5,11.3-6.2,15.9-19.7,5.6c-5.3-4.1-9.6-9.3-14.3-14c-2-2-3.4-6.3-6.7-4.9c-4,1.6-2.3,6.1-1.6,9
	c2,8.3,1.6,16.7,0.7,25c-0.3,2.9,0.8,7.8-4.5,7.1c-4-0.5-4.7-4.3-4.8-7.8c-0.1-3,0-6,0-9L609.5,2165.2z"/>
<path d="M1044.4,2138.4c-0.9,7.9,2.7,15,3.5,22.7c1.2,12.5-1.9,14.8-14.2,10.9c-8.1-2.6-15.1-7-22.3-11.2c-5.9-3.4-8-1.6-7.7,4.5
	c0.2,5.7,0.7,11.4-2.4,16.6c-1.3,2.2-1.3,5.8-5,5.4s-5-3-5.5-6.3c-1-8-2.1-16-3.1-23.9c-0.7-6-1.5-11.8-5.1-17.1
	c-2.8-4.1-3.2-9.5,1.2-12.8s4.7,3.4,7.2,4.3c15.5,5.4,21.8,23.3,37.9,27.6c2.4,0.7,4.5,3.3,7.3,1.2c2.2-1.7,1.5-4.2,1.3-6.5
	c-0.6-6.7-1.2-13.4-1.3-20.1c-0.1-2.9-1.5-7.8,3.6-7.8s4.6,4.7,4.5,8.4C1044.4,2135.7,1044.4,2137.1,1044.4,2138.4z"/>
<path d="M82.8,2175.8c0.4-9.2-1.3-18.4-5.1-26.9c-1.5-3.4-1.9-5.9,1.3-7.7c3.7-2,4,1.4,5.4,3.7c3.9,6.5,6.9,3.3,9-1.5
	c4.6-10.5,13-15.7,23.6-18.3c4.1-1,6.1,0.3,7.7,4.1c3.9,9.5,2.2,19.9-5.2,26.8c-2.1,2-5.7,3.3-3.9,7.1c1.5,3.2,4.9,3.4,7.9,3.5
	c2.7,0,5.4-0.2,8-0.6c3.4-0.4,6.5-5.6,9.8-1.7c2.2,2.6-1.8,5.3-2.7,8c-1.8,5.1-5.4,6.5-10.3,5.1c-9-2.6-18.3-4.5-26.9-8
	c-7.7-3.1-9.5-1.3-9.4,6.5c0.1,4.6,3.1,13-5.1,12.5S83.6,2180,82.8,2175.8z M113.4,2134.4c-4.7,0.3-15.7,10.9-16.3,15.2
	c-0.3,2.3,0.2,4.3,2.6,4.4c6.8,0.4,13.3-2.8,16.9-8.5c1-1.3,1.8-2.8,2.3-4.3C120.1,2136.4,117.5,2134.5,113.4,2134.4L113.4,2134.4z"
	/>
<path d="M292.5,2135.5c0.3,8.7,1.4,18,5.2,26.8c1.3,3.1,2.1,6.3,2.6,9.6c1.4,8.8-3.8,9.6-10.4,7.9c-9.9-2.5-18.4-7.9-27-13.1
	c-5.4-3.3-10.7-6.9-16-10.3c-1.8-1.2-2.6-4.8-5.5-3s-1.2,4.8-0.8,7.3c1.3,7.2,3.5,14.4,1.9,21.9c-0.6,2.8,0.4,7-3.6,7.2
	s-6.9-2.8-7.5-6.9c-1.3-8.6-2.3-17.3-3.5-25.9c-0.5-3.3-1.2-6.6-2-9.9c-0.9-3.7-4.4-8.2,0.4-10.8c4.3-2.3,9.7-1.5,13.2,1.9
	c8.1,8.2,17.4,14.4,27.1,20.4c4.8,2.9,9.5,6.2,14.7,8.4c2.5,1.1,4.7,4.8,7.9,1.8c2.3-2.2,0.8-5,0.1-7.6c-2.6-9.1-3.5-18.4-4.4-27.7
	c-0.5-5.1,0.1-10,5.3-9.8s2.1,5.9,2.5,9.1C292.8,2133.7,292.7,2134.6,292.5,2135.5z"/>
<path d="M780.1,2139.8c5.1-4.5,9.8-9.3,16.9-10.1c12.5-1.4,23,2.9,25.6,10.9c5.9,18.3,0.2,31.4-11.5,37.5c-10.4,5.4-21.9,10-33.3,0
	c-2.9-2.5-4.3-4.1-3.9-8c1-9,0.1-18.1-2.5-26.8c-1.1-3.8-3.6-8.6,1.3-10.5C778.4,2130.5,775.5,2138.6,780.1,2139.8z M817.6,2153.9
	c-0.5-10.1-6.5-13.6-14.6-14.4s-17.2,6.2-17.8,14.1c-0.5,6-0.3,12-2.1,17.9c-0.9,2.9-0.3,5.1,3.3,5.9
	C798,2179.5,817.7,2164.3,817.6,2153.9L817.6,2153.9z"/>
<path d="M729.1,2161.9c1.6,10.7-4.7,17.8-11.7,24.4c-9.6,9.1-15.2,7.4-20.1-5.3c-6.1-15.6-5.7-32.2-7-48.4c-0.3-3.2,1-5.1,4.3-5.5
	c14.9-1.9,29.8-3.8,44.7-5.6c3.3-0.4,7.7-0.7,7.8,3.9c0.1,4-4.3,3.5-7.1,3.6c-13.4,0.4-25,9-38.8,8c-3.2-0.2-5.2,3-4.9,6.5
	c0.4,4.5,3.8,5.2,7.3,4.9c13.3-0.9,26.7-2.1,40-3c3.1-0.2,7.9-2,8.1,2.7c0.1,3.6-4.8,2.5-7.6,2.8c-12,1-24,2.1-36.1,2.6
	c-8.2,0.4-12.2,3-8.9,11.8c0.8,2.2,0.8,4.6,1.6,6.8c3.9,10.5,11.3,12,19.1,4C723.8,2172,725.9,2166.7,729.1,2161.9z"/>
<path d="M211.7,2180.1c-5.1-1.1-7.3-3.1-8.7-6.6c-1.5-3.7-3.3-7.3-5.4-10.7c-2.2-3.6-4.1-8.3-9.8-6.7c-5.3,1.4-11.3,1.3-13.1,8.8
	c-1.3,5.1-4.4,9.7-6.9,14.4c-1.2,2.2-2.3,5.5-5.8,3.8c-3.2-1.3-4.8-4.9-3.5-8.2c0-0.1,0.1-0.2,0.1-0.3c0.9-2.5,2.5-4.7,3.6-7.2
	c1.9-4.1,3.9-8.3-2.4-10.6c-1.9-0.5-3-2.5-2.5-4.4c0-0.1,0.1-0.3,0.1-0.4c0.8-2.5,2.1-4.4,5.1-3.3c3.7,1.3,7.3-0.5,6.5-3.5
	c-3.1-11.2,7-10.7,11.9-14.3c3.4-2.6,5.9-0.1,7.7,3.5c3.5,7,6.3,15.6,17.3,9.7c1.6-0.6,3.4,0.2,4,1.8c0,0,0,0.1,0.1,0.1
	c0.6,1.4,0,2.5-1.2,3.4c-2.6,2-11.1-1.2-6.8,6.9c1.9,3.6,3.8,7.7,8.5,9.5c6.3,2.4,2.9,7.9,2.8,12.2
	C213.1,2178.9,212.6,2179.7,211.7,2180.1z"/>
<path d="M1166.2,2180.3c-10.7,0.5-18.7-5.3-20.7-14.9c-2.6-12.8,3.6-28.2,12.1-31.7c6.1-2.5,9.4,3.6,14.9,3.9
	c8.6,0.4,15.8,5.7,21.5,11.9c9.5,10.3,7.7,19-4.6,25.6C1182.8,2178.6,1177.9,2179.7,1166.2,2180.3z M1170.9,2171.8
	c5.9-3,17-0.8,19.4-9.6c2.3-8.5-8-10.9-13.4-15.3c-0.3-0.2-0.6-0.3-0.9-0.5c-5.7-3.3-11.5-4.4-16.8,0.3c-5.1,4.4-6.4,10.5-4.3,16.6
	C1157,2170,1163.4,2171,1170.9,2171.8z"/>
<path d="M434.2,2143c-9.3,5.3-18.3,9.9-28.7,10.5c-7.6,0.4-11.9,2.2-9.1,11.4c1.8,5.9,0.6,12.4,4.3,18.3c2,3.1,1.2,7.9-1,11.5
	c-0.8,1.1-2.3,1.4-3.4,0.6c-0.1,0-0.1-0.1-0.2-0.1c-3.4-2.4-5.2-6.4-4.7-10.6c0.8-10.9-1.5-20.7-5.5-31c-2.2-5.8-1.6-13.8-2.9-20.8
	c-0.8-4.3,3.5-5.3,7.7-5.6c16.6-1.4,33.1-3.8,49.2-8.4c2.7-0.8,5.5-2.1,6.8,1.3c1.6,4.1-1.4,5.2-4.7,5.8c-14.5,2.7-29,5.6-43.5,8.1
	c-4,0.7-7.6,1.6-7,6.5c0.6,4.7,3.7,6.3,8.6,6.5c8.5,0.3,16.6-1.6,24.7-4C427.5,2142.2,430.1,2139.4,434.2,2143z"/>
<path d="M1102.6,2130c6.1,0.8,10.2-0.6,14.4-1.8c2.8-0.8,6.3-1.7,8.5,0.8s1.2,5.9,0.3,8.6c-4.6,13.6-4.7,27.2,0.7,40.5
	c1.6,3.8,0.3,5.8-2.7,7.2c-3.8,1.8-6.2,0.3-7.8-3.6c-3.8-9.3-2.3-19.2-3.2-28.8c-1.3-14.2-0.6-14.4-14.2-12.3
	c-8,1.3-15.8,3-23.7,4.5c-4,0.8-7.5,0.5-8.2-4.7s2.5-6.3,6.6-6.8C1083.7,2132.4,1093.9,2131.1,1102.6,2130z"/>
<path d="M352,2123.8c-2.4,4.6-7.7,4.1-11.8,5.6c-12,4.6-14.2,14-4.4,22.6c6.9,6,13.8,12.4,24.2,13.1c7.5,0.5,9.3,5.5,5.1,11
	c-5.8,7.6-38.9,18.1-48.3,15.2c-3-0.9-8-1.1-6.5-5.7c1.9-5.8,4.4,0.6,6.6,0.5c11.4-0.1,22.6-3.8,31.8-10.6c3.5-2.5,2.3-4.8-1.3-6.7
	c-4.4-2.3-9-4.7-12.8-7.9c-7.1-5.9-13.3-13.2-11.5-23.1c1.5-8.6,15.8-16.8,25.6-16.4C350,2121.6,351.5,2121.7,352,2123.8z"/>
<path d="M54.5,2146.3c0.8,9,1.6,18,2.3,27.1c0.2,2.4,0.1,4.9,2.8,6c4.5,1.8,4,4.7,2.2,8.1c-1.1,2.2-3.5,3.4-5.9,2.9
	c-4-0.6-5.3-3.2-5.6-7.1c-0.8-11.7-2.2-23.3-2.7-35c-0.3-8-3.7-11.5-11.6-11.6c-9.4-0.2-18.7-1.5-27.8-3.8c-2.7-0.7-5.7-1.4-5.5-4.8
	c0.3-4,3.9-4.4,6.9-4.2c6.3,0.5,12.6,1.4,18.9,2.3c5.7,0.8,11.2,1,16.7-1.6c6.6-3.2,10.3-1.2,9.8,6.7c-0.3,5,0,10,0,15.1
	L54.5,2146.3z"/>
<path d="M513,2160.4c0,8.9-10.2,19.2-20.9,21.1c-8,1.4-17.7-7.2-21-18.2c-3.1-10.5,2.6-19.5,4.5-29.2c0.2-0.9,2-1.8,3.1-2
	C490.8,2129.3,513,2147.8,513,2160.4z M479,2155.3c0,8.9,5.2,16.4,10.4,16.4c6.1,0,15.9-7.1,15.8-11.6c-0.1-5.9-12.6-19.7-17.7-18.4
	C480.2,2143.6,479.7,2150.6,479,2155.3z"/>
<path d="M947.1,2143.7c3.4,8.8-3.9,19.9,5.5,27.6c2.3,1.9,0.8,5.1-0.9,7.3c-1.6,2-3.1,5-6.3,4.1c-2.9-0.8-6-2.5-6-6
	c0.3-13.5-1.6-26.7-3.1-40.1c-0.4-3.6,1.5-5.7,5.1-6.1c3.8-0.4,4.2,2.9,4.8,5.3S946.8,2141,947.1,2143.7z"/>
<path d="M675.9,2337.3c-1,4.9-3.2,9.5-6.3,13.4c-9.7,12.4-24.4,14.5-38.2,17.6c-6,1.4-12.3-1.6-11.7-10c1.1-15.4-1.5-30.6-3-45.9
	c-0.3-2.9-2.9-6.1-0.2-8.5c3.3-2.9,5.1,2.2,7.5,2.4c8.5,0.7,17,1.1,25.5,3C662.9,2312.5,675.4,2324.9,675.9,2337.3z M630.5,2339.8
	c1.3,25.5,1.3,25.5,23.2,12.4c1.4-0.9,3.2-1.5,4.1-2.8c3.6-4.6,9.9-7.6,9.4-14.8c-0.6-8.3-16.9-19.3-28.6-18.4
	c-10.9,0.8-6.9,10.2-8.1,16.4C630.1,2335,630.5,2337.4,630.5,2339.8L630.5,2339.8z"/>
<path d="M61.3,2338.8c2.7,12.8-3,22.8-12,30.6c-4.8,4.1-10.8,3.8-13.6-3.6c-2.3-5.9-4.2-12-6.3-18c-2-5.7-1-12.8-8.6-15.8
	c-2.7-1-2-4.8,0.4-5.6c6.9-2.4,5.4-6.2,2.8-10.9c-1.6-3,0.1-5.1,3.1-6.1c14.6-4.9,29.4-9.2,44.9-9.6c2.9-0.1,6.9-0.1,7,3.9
	c0,4.4-3.3,6.3-7.6,6.1c-11.5-0.6-22.6,1.8-33.4,5.6c-3,1.1-6.1,2.2-5.2,6.1c1,4.1,4.4,3.1,7.4,2.6c10.3-1.6,20.6-3.1,30.8-4.7
	c2-0.3,4.3-1.3,5.1,1.2c1,3-1.8,3.2-3.6,3.3c-11.7,0.8-21.7,8.7-33.8,7.9c-4.7-0.3-6.2,2.3-5,6.3c1.4,5.5,3.2,10.9,5.3,16.2
	c3.7,8.8,7.3,8.8,13.4,1.1C56.5,2350.4,56.5,2343.6,61.3,2338.8z"/>
<path d="M151.1,2352c-8-0.3-14.7-3.5-20.7-8.9c-2-1.9-5-4.6-8-2.8c-2.7,1.6-0.7,4.9-0.4,7.5c0.6,5.8,3.2,15.7-2.2,16
	c-7.5,0.4-6.7-9.6-8-16c-2.1-9.7-2.7-19.9-7.2-29c-1.6-3.3-4.6-6.7,0-9.6s8.7-0.7,11,3.6c4.1,7.8,8.9,15,15.9,20.4
	c0.8,0.6,1.4,1.5,2.2,2.1c7,5.1,16.3,10.1,22.9,4.9c4.8-3.8-2.8-12.3-4.7-18.7c-1.2-4-9-8.2-3.3-11.6c6.3-3.8,6.6,5.3,9.6,8.6
	c3.6,4.1,5.3,9.1,6.9,14.2C169.1,2345.4,164.4,2352.2,151.1,2352z"/>
<path d="M283.2,2342.1c0.1,4.9,0.4,9.2,2.8,13.1c1.8,3,2.5,6.3-0.4,9.2c-1.2,1.2-2.8,2-4.6,1.3c-3.7-1.5-4.4-5-4.6-8.3
	c-0.9-11-1.8-22-1.9-33.1c-0.1-4.5-1.8-8.5-1.9-12.8c-0.1-2.7,0.1-5.7,3.9-5.8c3.3-0.1,5.3,2.1,4.8,5.1c-1.7,10.1,4.3,10.3,11.4,9.5
	c4.3-0.5,8.6-1.1,13-1.6c3.9-0.4,7.6-0.5,6.2-6.3c-0.9-3.9,2.6-5.3,5.2-6.2c3.2-1.2,4.7,1.7,6.2,3.9c6.6,10,3.6,21.4,4.8,32.2
	c0.3,2.8-1.1,6.3,3.3,7.3c2.3,0.5,6.5-0.8,5.5,3.5c-0.9,4.1-4.6,6.7-8.7,7.4s-6-2.9-6.5-6.3c-1.2-7.6-2.1-15.2-2.8-22.9
	c-0.5-6.1-2.3-8.5-8.9-5.6c-5.1,2.3-10.9,4.1-16.5,4.1C283.8,2329.9,281.6,2334.4,283.2,2342.1z"/>
<path d="M234.9,2345.7c-2.3-11.5-0.3-20.7-2.9-29.6c-1.3-4.6-3.3-6-7.9-4.8c-8.1,2.1-16.3,3.8-24.4,5.9c-3.8,1-6.9,0.3-8.3-3.4
	c-1.7-4.7,2.6-5.9,5.5-6.6c14-3.2,28.1-6.2,42.1-9c2.4-0.5,5.5-1.1,7,2.2c1.2,2.2,0.6,4.8-1.3,6.4c-4.5,4.1-4.5,10.1-4.1,14.9
	c0.8,11,1.1,22.1,0.7,33.1c-0.1,3.2,0.8,5.9,3.9,7.5s3.2,4.1,1.5,6.8c-1.4,2.3-3,4.9-6,4.8c-3.2,0-5.8-2.6-6-5.8
	C234.6,2359.8,234.9,2351.4,234.9,2345.7z"/>
<path d="M416.8,2336.5c1.1,14.8-11.7,29.7-25.5,30.7c-7.8,0.6-12.4-3.8-15.8-10.2c-6.8-12.6-7-27.2-12.3-40.3c-1-2.2,0-4.8,2.2-5.8
	c0.1,0,0.2-0.1,0.2-0.1c3-1.2,4.4,1,5.3,3.1c1,2.5,1.9,5,2.5,7.6c2,7.8,3.6,15.6,5.8,23.4c2,7.3,5.2,13.3,14.6,11.3
	s15.6-9.2,15.8-18.1c0.2-9.8-5.5-17.1-10.8-24.3c-2.4-3.2-4.2-5.6-0.7-8.3c4-3.1,5.8,0.7,7.6,3.5
	C411.4,2317.9,418,2326.2,416.8,2336.5z"/>
<path d="M484.1,2308.6c-6,4.9-17,0.1-17,9.6c0,11,5.8,20.6,14.7,27.4c4.2,3.2,9.4,5.2,14.3,7.2c3,1.3,5.4,2.6,5.4,6.3
	s-2.9,4.3-5.4,5.1c-12.1,3.8-24.5,3.7-36.8,2.1c-4.9-0.6-8.1-4.6-10-9.1c-1-2.5-1.1-5.8,2-6.9c3.7-1.3,2.8,2.5,3.8,4.3
	c2.7,5.1,23.3,7.8,27.6,3.4c3.6-3.6-0.1-5.1-2.6-6.7c-8.9-5.4-15.6-13.8-18.9-23.8c-2.4-7.1-4.2-14.2,2-19.5
	S476.7,2304.2,484.1,2308.6z"/>
<path d="M1147.2,2357.2c-10.3-2.8-19.6-8.4-26.9-16.3c-5.9-6.2-8.4-14.8-6.8-23.2c1.5-7.3,10.1-9.8,17.5-11.5c3.7-0.8,6.6-1,7.4,3.7
	c0.7,4.1,0.5,7-4.3,8.6c-12,4.1-12.8,9.4-3.1,18.3c6.3,5.8,13.8,10,22.1,11c10.6,1.3,18.1,11.2,30,9.1c11-2,11.5-2.8,6.7-12.7
	c-5-10.2-9.1-20.9-10.9-32.3c-0.3-1.6-0.3-3.7,0.6-4.8c5.7-6.9,14-7.2,21.9-8c5.5-0.6,10.9,1.8,14.2,6.3c2.8,3.7,0.3,6.1-4.2,6.4
	c-22.7,1.2-24.5,3.9-14.2,24.6c3.9,7.8,9.4,15.1,19.3,16c7.8,0.7,5.5,6.4,5.3,10.5c-0.3,5.5-4.1,4.5-8.1,3.8c-9-1.7-18.3,1.2-27-0.3
	c-16.2-2.9-30.5,4.5-45.7,6.3c-8.6,1.1-17.4-0.1-25.5-3.4c-7-2.9-6.5-7.8-2.9-13c1.1-1.6,2.5-2.8,4.8-0.5
	C1126.5,2364.6,1132.6,2365.1,1147.2,2357.2z"/>
<path d="M1076.1,2322.7c-7,6.7-14.6,7-22.1,6.8c-8-0.2-11.2,1.9-6.3,9.8c1.6,2.5,2.3,5.6,4,8c5.3,7.7,8.9,7.6,14.4,0.2
	c1.6-2.2,2-6.9,6.2-4.1c3,2.1,1.3,5.5,0,8.3c-0.9,1.8-1.5,3.8-2.7,5.4c-3.6,4.6-6.1,11.6-13.5,10.3c-6.5-1.1-9.8-6.3-11.2-12.8
	c-0.8-3.5-1.8-7.8-6-8.6c-4-0.7-5,3.8-7.3,6c-10.9,10.5-23.6,17.7-38.5,20.5c-5.5,1-10.7-2.1-14.4-5.9c-11.1-11.3-12.7-38.9-3.7-52
	c4.3-6.3,10.3-5.1,16.3-4.5c4.5,0.4,4.7,3.9,5.5,7.2c1.2,4.5-0.3,5-4.5,4.6c-12.5-1.3-14.5,0.6-14.8,13.4c-0.1,5,0.3,9.8,2.3,14.7
	c3.4,8,9,12.3,17.3,9.9c12.7-3.7,26-6.7,34.3-18.9c4.3-6.3,4.1-19.3-0.9-25.4s-3.9-11.1,3.7-12c17.3-2.1,34.7-3.4,52-4.6
	c3.1-0.2,7.7,0.8,7.4,5c-0.3,3.9-4.4,4.3-7.9,4.6c-12.3,1.1-24.8,1.1-36.9,4.5c-2.5,0.7-6.3,0.6-6.4,3.6c-0.1,4.2,4.5,2.9,7,4
	C1057.7,2324.3,1066.6,2319.2,1076.1,2322.7z"/>
<path d="M858.5,2304.4c-19.2-0.7-36.6,4.3-54.3,9.1c-8,2.2-4.7,6.9-4.9,10.6c-0.3,5.7,3.9,4.7,7.8,4.1c12.3-1.9,24.3-5.9,37-4
	c-10.3,5.6-21.8,7.1-33,8.4c-9.9,1.2-10,5.6-7.3,12.7c0.7,1.9,1.5,3.7,2.5,5.5c3,5.1,4.9,11.8,12.4,11.7s11.9-5,16.1-10.6
	c2.8-3.8,3.2-13.2,8.2-10.5c4.8,2.6-2.4,8.8-4.4,13.2s-5.5,8.4-8.9,12c-7.6,8.2-15.3,7.8-22.4-1.1c-2.3-2.9-4.2-6.1-5.7-9.4
	c-6.7-14.3-9.7-30-8.9-45.7c0.3-5.6,1.3-9.5,8.4-5.7c4,2.1,8.5,0.1,12.7-0.8c13-2.9,26.1-6,39.6-4.1
	C855.3,2300.1,857.5,2300.1,858.5,2304.4z"/>
<path d="M905.5,2326c-0.7-5.4-4.8-8.3-7.6-11.9c-1.6-2.1-4.9-3.7-2.2-6.5s5.6-0.9,7.7,1.6c1.2,1.6,2.2,3.3,3.1,5.1
	c2.9,4.6,5,3.8,8-0.4c2.4-3.3,3.2-11.8,8.1-8.6c5.7,3.8-1.9,8.4-3.9,12.4c-1.9,3.8-3.4,7.1-1.2,11.3c3.7,7.1,7.4,14.3,10.8,21.6
	c1.4,3,3.1,5,6.5,5.6c2.1,0.4,5.4-0.1,5.4,3.2s-2.3,5.6-5,7s-5.3,0.3-7.2-2c-6.1-7.4-8.7-16.6-12.7-25c-1.3-2.7-1.6-6.4-5.1-6.9
	c-3.9-0.6-4.2,3.6-5.9,5.8c-3.2,4.3-7.4,7.8-9.1,13.1c-0.8,2.3-2.8,4.8-5.3,3.3c-3.3-1.9-1.3-5,0.3-6.9c4.9-5.5,9.2-11.5,12.9-17.9
	C903.8,2328.6,904.7,2327.3,905.5,2326z"/>
<path d="M596.1,2316.1c-16,1.7-31,3.3-46.1,4.9c-3.7,0.4-7.3,0.7-11,0.8c-4.4,0.1-6.1,1.6-4.5,6.2c1.4,4.1,2.2,8.4,3.3,12.6
	c0.8,4.1,4.4,7.2,8.7,7.2c5.9,0.4,12.3,1.4,16.5-4.6c1.3-1.9,2.3-4,3.5-6s2.2-5,5-3.8c3.1,1.4,1.9,4.6,1.1,7.1
	c-3.1,9.6-14.7,18-25.1,19.1s-13.9-6.3-16.4-13.3c-3.2-9.1-4.4-18.9-6.5-28.3c-0.8-3.9,1.5-6.6,4.8-5.8c20.4,5.5,40.7-1.4,61,0.4
	C592.1,2312.8,593.9,2312.5,596.1,2316.1z"/>
<path d="M552,2332c8.7-0.4,17.3-0.9,26-1.3c3.5-0.2,6.9,0.5,8.5,4c1.3,2.9,0.2,6.7-3,5.2c-12.5-5.8-24.3,2.8-36.4,0.8
	c-4.9-0.8-13.5,2.9-13.6-3.8c-0.1-8.8,8.7-3.4,13.5-4.3c1.7-0.2,3.3-0.3,5-0.4V2332z"/>
<path d="M241.8,1991.8c1.8-0.1,2.8-0.1,3.8-0.2c3.4-0.5,7.2-3.2,9.7,1.7c1.2,2.4,0.5,4.4-1,6.5c-2.6,3.6-5.7,5.1-10.4,4
	c-12.8-3-24.8-8.1-36.9-13.1c-6.7-2.7-10.2-3.3-9.8,5.5c0.1,2.9-0.4,7-4,7.1c-4.5,0.1-4.7-4-4.5-7.4c0.6-11.1-3.4-21.1-7.4-31
	c-1.1-2.8-3.4-5.2-0.4-8.1c1.5-1.4,3-3.2,5.2-2.1c2.8,1.4,2.8,4.3,2.9,7.1c0,1,0.1,2,0.3,3c0.7,3.2,0,7.6,3.8,8.7
	c4.6,1.3,6.1-3.1,7.8-6.3c5.9-11.4,15.8-15.9,28-16.2c4-0.1,8.6-0.3,10.3,4.5c1.4,4.1-0.3,7.7-2.9,11.2c-4.9,6.6-12.1,9.3-19.4,11.9
	c-1.9,0.7-4.1,1.1-4.4,3.5c-0.3,2,1.3,3.1,2.9,3.5C224.4,1987.8,233.5,1989.8,241.8,1991.8z M230,1960.2c0.2-2.5-1.3-3.5-3.4-4
	c-6-1.5-20.4,7.3-21.8,13.3c-0.5,2.3,0,4,2.3,4.8C210.9,1975.7,229.5,1964.3,230,1960.2z"/>
<path d="M910.2,1961.8c9.5,3.3,18.3,2.2,27.3,0.4c4.4-0.9,11.6-2.4,12.7,2.3c1.5,6.5-6.7,4.7-10.5,6.2c-5.4,2.2-11.8,2-17.5,3.4
	c-2.8,0.7-7.3,0.7-6.6,5.9c1,7,1.5,14.6,7.7,19c4.2,3,6.9-2.5,10.3-4.2c0.3-0.2,0.4-0.5,0.7-0.7c3-1.8,3.1-9.8,8.1-6.2
	c4.8,3.4-0.7,8.1-2.7,11.3c-3.7,5.8-7.8,12.7-16.5,10.7s-13.8-7.8-14.8-16.9c-1.2-10.7-3.4-21-8.4-30.6c-1.5-2.9-1.1-5.6,1.5-7.1
	c14.4-8.1,29.9-11.9,46.5-10.4c2.2,0.2,4.2,0.7,3.8,3.4c-0.5,3.1-2.9,4.4-5.7,4.8c-8.6,1.5-17.2,2.9-25.8,4.3
	C917,1958.1,913.3,1957.3,910.2,1961.8z"/>
<path d="M73.7,1977c1.2,7.3-1,13.8,3.5,19.5c2,2.5,0.5,6.2-2.8,7.4c-4.1,1.5-6.6-1.1-7.2-4.8c-1.1-6.6-1.8-13.3-2.5-19.9
	c-0.4-3.7-1-6.8-5.9-5.7c-7.8,1.8-15.8,3-23.5,5.2c-7.4,2.1-8.6,8.8-3.1,14.2c3.3,3.2,1.4,14.7-3,16c-5.3,1.5-7.3-1.7-7-6.7
	s2.5-12.7,0.2-14.6c-8.9-7.2-6.9-13.5-2.5-22c1.8-3.5-0.9-9.1-0.9-13.8c0-3.1,1.2-6.3,5-6.3s3.3,3.3,3.6,6
	c1.6,17.9,1.6,17.8,20,14.7c6.2-1.1,14.3,1.8,13.6-9.9c-0.2-3.9,3.6-2.8,6.2,0.2C72.7,1963.1,76.5,1969.6,73.7,1977z"/>
<path d="M586.6,1959.7c2.1,8.4,4.8,18.4,6.9,28.6c0.6,3,2.7,7-0.7,9.4s-6.2-1-9.1-2.3c-8.9-3.8-17.8-7.7-26.8-11.2
	c-5.7-2.2-9.1-1-7.6,6.4c1,5.1,2.8,12.8-3.8,13.6c-7,0.8-7-6.4-7.8-12.5c-0.9-7.2-0.5-14.7-3.8-21.6c-1.7-3.1-0.8-7,2.2-9.1
	c3.2-2.5,4.6,0.7,6.7,2.1c8.5,5.8,18.1,10,26.2,16.6c3.1,2.5,7.8,4.1,11.4,2.2c4.5-2.4,0.2-6.6,0-9.9c-0.3-4.7-1.7-9.2-2.3-13.9
	c-0.5-3.7,0.9-7.2,5-7.3C588.1,1950.5,587.6,1954.4,586.6,1959.7z"/>
<path d="M470.8,1975.1c-0.3,2.6-2.3,2.8-4.3,3.4c-2.6,0.8-6.9-0.6-7.2,3.6c-0.3,4,2.4,7,6.2,8.1c4.7,1.4,4.5,4.2,2.9,7.7
	c-2.4,5-5.3,5.7-9,1.2c-0.4-0.5-0.6-1.2-1.1-1.7c-4.5-4.9-3.9-16.7-15.8-11.7c-6.8,2.8-14,5.1-15.8,13.7c-0.5,1.3-1.2,2.4-2.1,3.4
	c-1.5,2-3.3,3.8-5.9,2.3c-2.5-1.2-3.7-4.3-2.5-6.8c5.2-14.7,12.9-28.5,15.8-44.1c0.6-3.3,4.1-4.3,7.1-4.6c3.3-0.3,4.3,2.2,5.2,5
	c1.2,3.5,2.6,6.8,4.3,10.1c3.1,6.9,6.9,12.4,15.9,8.1C467,1971.4,469.9,1971.3,470.8,1975.1z"/>
<path d="M1185.9,1983.1c0,6.4,0,12.8,0,19.1c0,3.4,0.1,6.7,3.8,8.6c3.9,2,3.6,5.2,2.1,8.6c-1.3,2.9-3.6,3.8-6.6,3.4
	c-4.2-0.6-5.5-3.8-5.8-7.2c-0.9-11-2-22.1-2.1-33.1c-0.1-7-2.6-8.5-9.1-7.9c-11.4,1.1-28.3-14.9-28.3-26.3c0-3.2,1.7-6.2,4.8-7
	c4.2-1.1,4.8,2.6,5.4,5.5c0.7,3.6,2,7.1,4,10.2c4.5,6.6,10.3,11.8,18.4,8.5c7.3-2.9,2.7-9.9,2.6-15.1c-0.1-4-0.7-8-0.9-12
	s2.1-6.4,6-6.4c3.7,0,3.6,3.2,3.7,5.9c0.7,15,1.4,30.1,2.1,45.1L1185.9,1983.1z"/>
<path d="M667.4,1953.6c4.8,1,7,5.2,9.5,8.6c4.8,6.6,8.1,6.3,10.8-1.4c0.7-1.9,1.4-3.8,2.2-5.6c1.2-3,2.1-7.7,6.5-5.6
	c3.7,1.8,5,6.3,3.1,10.5c-1,2.4-3.1,4.3-4.6,6.5c-6.8,10.2-4.7,19.4,6.4,24.4c4.5,2,7.4,4.3,4.9,8.7c-2.7,4.7-6.9,2.6-10.3,0.1
	c-1.9-1.4-3.7-2.9-5.3-4.7c-8-8.9-9-8.7-13.4,2.9c-1.2,3.3-1,7.8-6.1,7.9c-2,0-4.2-0.1-5.2-2.3c-2.2-4.6,0.8-7.6,3.2-10.8
	c1.2-1.6,2.5-3.2,3.6-4.8c7.1-10.1,6.5-14-4.7-19.6c-5.6-2.8-7.9-5.9-5.2-11.7C663.7,1954.7,665,1953.3,667.4,1953.6z"/>
<path d="M1038.3,1956.6c8.8-1.1,18.3,0.7,26.9-4.8c2.6-1.7,7.5-2,10.3,1.3s-0.7,6-1.9,8.9c-4.2,10.3-3.4,20.7,0.7,30.8
	c1.5,3.6,3.1,6.7,0,10.2c-1.2,1.4-2.7,2.2-4.4,1.3c-3.4-1.8-5.8-4.6-6.2-8.6c-0.9-8-0.4-16-2.2-24c-1.2-5.5-3.8-7.2-9.1-6.6
	c-9.3,1.2-18.7,1.8-28,3.2c-5.3,0.8-9.1-0.4-9.2-6c-0.1-5.3,4.2-5.9,8.7-5.7C1028.5,1956.8,1033.2,1956.6,1038.3,1956.6z"/>
<path d="M107.4,1951.5c3.5,13.5,3.5,13.4,16.8,9.2c4.8-1.5,9.7-2.8,14.5-4.1c1.6-0.4,3.6-1,4.1,1.3c0.4,2.1-1.4,2.9-3.1,3
	c-8.1,0.5-14.4,5.1-21.3,8.6c-3.4,1.8-7.5,2.8-6.4,7.6c1.4,6.2,3.1,12.6,9.6,15.7c3.9,1.8,8,1.5,11.2-1.7c4.8-4.7,9.6-9.4,11.7-16.1
	c0.7-2.2,0.6-6.9,4.1-5.6c4.2,1.5,0.8,5.1,0,7.7c-2.7,8.8-6.5,16.9-14,22.8c-7.3,5.8-15.7,5-21.1-2.4c-8-10.9-9.9-24-12.7-36.8
	c-1.3-5.6,4.5-5.9,6.8-8.8L107.4,1951.5z"/>
<path d="M815.6,2001.8c0.1,0.4-0.8,2.3-3.8,2.7c-4,0.6-6.6-0.9-7.3-5c-1.4-8.6-2.1-17.2-4.4-25.7c-1.4-5.2-2.2-10.3-5-15
	c-2.3-3.9-0.3-6.4,3.3-7.9c2.9-1.2,5.8-0.4,6.5,2.6C808.5,1968.9,811.7,1984.2,815.6,2001.8z"/>
<path d="M107.7,1984.4c0.1-3.8,1.5-6.7,5.7-6.8c12.2-0.4,23.7-3.9,35.3-7c2.2-0.6,4.9-1.1,5.6,2.2c0.5,2-0.7,4-2.8,4.5
	c-0.1,0-0.2,0-0.2,0.1c-14.8,1.4-28.4,9.9-43.9,6.8L107.7,1984.4z"/>
<path d="M591.6,2900.3c-0.2,16.7,8.8,24.5,24.8,22.8c17.4-1.9,29.7-11.9,38.8-25.6c3.5-5.3,0.1-13-2-19.2c-1-2.9-3.7-5.7,0.8-7.2
	c3.7-1.2,6.1,1.7,6.2,4.8c0.3,10.4,6.3,10.3,14.2,9.3c7-0.9,14-1.5,21-2.3c6-0.6,9.3-2.1,9-9c-0.3-7.6,4.1-6.4,8.4-3.5
	c3,2,3.8,5.3,4.2,8.8c1.4,10,3,19.9,4.3,29.9c0.5,4,0.3,7.9,4.9,10.1c3.8,1.8,1.9,5.1,1,7.9c-0.8,2.4-2,4.2-5,3.9
	c-2.8-0.1-5.2-1.9-6-4.6c-3.6-10.2-3.5-21.1-5.2-31.6c-1.2-7.7-3.2-9.8-11-7.1c-6.9,2.4-14.4,2.9-21.7,4.3
	c-4.6,0.9-10.9,0.9-11.9,5.8c-1.3,6.6,0.4,13.5,4.7,18.8c2.1,2.5,6.1,3.5,3.7,7.8c-1.6,2.8-3.8,4.6-7.3,4.2
	c-5.5-0.6-4.1-5.2-5.1-8.5c-0.1-0.3-0.1-0.7-0.1-1c-1.2-5.1,0.1-12.5-5.7-13.9c-4.6-1.1-5.7,6.4-9,9.4c-12.5,11-25.1,21.6-43.8,15.5
	c-11.5-3.8-17.7-11.1-19.1-23.1c-1.7-14.6,1.2-27.9,13.5-36.8c5.3-3.9,11.6-0.6,16.3,3.7c1.5,1.4,1.3,3.8,0.1,5.6
	c-0.7,1.1-2.2,1.5-3.3,0.8c-0.1,0-0.1-0.1-0.2-0.1c-3.9-2.3-7.5-4.5-11.8-0.5s-7.2,8.8-7.4,14.9
	C592,2896.7,591.7,2898.7,591.6,2900.3z"/>
<path d="M875.6,2936.5c-6.8-0.4-13.5-0.6-17.5-7.5c-1.1-1.9-3-2.5-5.2-1.1c-6.7,4.2-8.4,0.3-9.9-5.7c-4.3-17.5-7.4-35.3-13.3-52.4
	c-1-2.9-0.9-5.5,2-6.9c3.8-1.8,4.9,1.3,5.3,3.8c0.9,5.6,3.9,3.9,7.3,2.7c13.6-4.9,27.8-7.5,42.1-9.9c2.8-0.4,6.2-2.6,8,1.3
	c1.3,2.9,0.3,6.3-1.7,8.6c-3.3,3.8-7.1,7.1-10.8,10.5c-1.6,1.5-4.7,2.2-3.4,5.3c1.1,2.5,3.9,2.6,6.2,2.4c8-0.5,16-1.8,24.1-1.2
	c10.7,0.8,14.8,5.2,12.2,15.7c-2.4,9.5-6.7,18.3-15.6,23.8C896.3,2931.7,887,2937.1,875.6,2936.5z M877.1,2928.9
	c20.3-0.8,29.2-10.9,35.3-27.6c1.8-5-0.7-7.9-5.9-7.8c-6.4,0.1-12.8,0.5-19.1,1c-8.7,0.6-17.3,1.4-26,1.9c-2.3,0.1-5.1,0.3-5.4-3
	c-0.3-2.9,1.5-4.3,4.2-4.6c9.2-1.1,12.3-9.9,18.5-14.6c1.9-1.5,3.5-3.9,2.1-6.1s-4.3-1.5-6.5-0.9c-6.4,1.9-12.8,3.9-19.1,6.1
	c-15.9,5.7-15.9,5.8-11.9,22.4c0.9,3.6,1.5,7.3,2.6,10.8c0.8,2.4,0.4,6.1,3.3,6.9c3.7,1.1,3.8-2.8,5-5c1-2,2.3-3.5,4.6-2.7
	c2.7,0.9,1.5,3.1,1.3,5C859,2923.7,864,2929.1,877.1,2928.9z"/>
<path d="M424.7,2880.5c-0.2,12.8,3.8,25.3,2.4,38.1c-0.4,3.4,1.2,8.3-3.8,9.3c-4.4,0.9-8.3-0.6-11.3-4.8
	c-6.7-9.1-14.7-17.2-22.8-25.2c-4.7-4.6-6.4-3.3-7.9,2.2c-2.3,8-4.9,16-7.4,23.9c-1,3-2.8,5.7-6.3,5.6c-3.7-0.1-4.6-3.3-5.3-6.3
	c-4.1-16.5-7.3-33.3-13.6-49.3c-1.1-2.8-1-5.6,2.3-6.6c4.1-1.3,5,1.8,5.8,4.9c2.7,11.3,5.3,22.7,8.2,34c0.5,2.1,0.2,5.5,3.3,5.6
	c3.6,0.1,3.5-3.5,4.1-5.9c1.6-6.5,2.9-13.1,4.4-19.6c1.6-7,4.9-8.5,10.1-2.7c8.2,9.3,16.5,18.6,24.7,27.9c1.8,2,3.3,5,6.4,3.8
	s2.3-4.4,2.2-7.1c-0.2-10.1-2.4-20-4.4-29.8c-0.7-3.6-2.7-7.1,1.2-10.1c1.4-1.1,2.9-1.7,4.6-0.7c4,2.3,3.3,6.2,3.1,9.8
	C424.7,2878.5,424.7,2879.5,424.7,2880.5z"/>
<path d="M512.3,2919.7c0.8-10.9-2.9-20.4-4.4-30.3c-0.5-3-2.4-4.7-5.8-3.8c-8.8,2.2-17.5,4.6-26.3,6.5c-4.9,1.1-5.7,3.4-4.4,7.9
	c2.1,7.4,3.6,15,5.3,22.5c0.8,3.4,0.9,7.5-3.2,8.4c-4.9,1-6.1-3.5-6.5-7.1c-0.9-7.3-1.3-14.7-1.9-22c-0.5-5.1-1.8-9.3-6-13.1
	c-5.1-4.6-3.3-11.9-0.5-16.8c2.5-4.5,6.5-0.4,6.9,2.8c1.5,11.5,9.2,10.3,17,9.2c4-0.6,7.9-1.4,11.9-1.9c4.8-0.6,8.7-1.4,6.9-8
	c-0.8-2.7,0.8-5.4,3.4-6.2c0.1,0,0.2-0.1,0.3-0.1c3.2-0.9,3.2,2.7,4.9,4.1c5.3,4.4,6.8,9.9,7.2,16.6c0.6,10,2.3,20,3.9,29.9
	c0.7,4.6,3,9.1-0.5,13.3c-0.7,0.8-3.5,0.8-4.7,0.1C510.4,2928.8,512.9,2923.5,512.3,2919.7z"/>
<path d="M1005.9,2893.1c0.3-13.7,4.9-19.9,17.5-23.4c4-1.1,7.9-1.8,10.8,2.4c1.9,2.8,5,3,8,3.4c4.7,0.6,9.3,2,12.9,5.2
	c6.6,6,12.7,13.2,10.8,22.4c-2.5,11.8-12.9,17.6-23.4,19.7C1023.9,2926.5,1004.7,2916.2,1005.9,2893.1z M1035.3,2915.4
	c11,0,22-6.7,23-14s-6.4-15.5-17.5-19.3c-3.8-1.3-7.3-3.2-11.1-4.4c-7-2.2-12.9,0-15.6,6.7
	C1007.9,2900.2,1018.5,2915.4,1035.3,2915.4L1035.3,2915.4z"/>
<path d="M932.3,2897.4c-0.4-19.8,10.4-26.9,30.3-19.9c8.9,3.1,15.7,9.2,20.8,16.8c6.8,9.9-2,24.2-17,28.2
	C947.9,2927.4,932.7,2916.2,932.3,2897.4z M956.6,2914.2c11.7-0.1,20-5.4,19.9-12.6c-0.1-7.8-13.2-18.2-22.6-18
	c-10.8,0.3-14.4,3.6-14.4,13.2C939.5,2908.7,945,2914.3,956.6,2914.2L956.6,2914.2z"/>
<path d="M1209.6,2853.6c21.8-0.4,28.4,9.5,20.4,28.6c-3.4,8.2-9.3,14.6-14.7,21.4c-1.8,2.2-3.6,4.4-6.6,2.2c-2.7-2-0.7-4.2,0.5-6.1
	c4.3-6.8,8.7-13.4,12.9-20.2c2.8-4.6,5.8-10.1,2.2-14.9c-3.1-3.9-8.6-3.9-13.9-3.4c-8.4,0.7-16.4,2.8-24.6,4.7
	c-2.4,0.6-5.8,1.8-6.8-1.8c-0.9-3.2,1.9-4.9,4.5-5.7C1192.3,2855.5,1201.3,2853,1209.6,2853.6z"/>
<path d="M1141.3,2901.8c-5.4,0-13.4,0.4-21.4-0.2c-4.5-0.3-9.3-1.3-11.2-6.9s0.4-9.3,4-13.4c4.6-5.1,11.3-8.5,13.1-16.2
	c0.3-1.9,2.1-3.2,4-3c0.6,0.1,1.1,0.3,1.6,0.6c3,1.9,3.5,5,2.1,8c-2.3,5-6.9,8.1-10.7,11.9c-1.8,1.8-5.1,3.2-4,6.3s4.7,3.5,7.7,3.6
	c6,0.3,12.1,0,18.1,0.4c2.8,0.2,7.9-2,7.4,3.6C1151.7,2900.7,1148.4,2903,1141.3,2901.8z"/>
<path d="M1117.2,2922.6c-1,3.7,0.2,10.5-3.9,11c-5.9,0.8-7.1-5.8-8.4-10.6c-5.3-19-10.6-38-15.9-57c-0.9-3.2-1.3-6.3,2.8-7.2
	s4.9,2.3,5.3,5.5c2.3,15.6,6.6,30.7,10.9,45.8c0.7,2.3,0.5,5.4,3.7,4.8C1119.3,2913.4,1116.8,2918.7,1117.2,2922.6z"/>
<path d="M548.3,2870.5c3.6,1,3.7,3.9,4.2,6.4c2.3,11.1,4.6,22.3,4.5,33.7c0,3.8,0,7.4,3.5,9.9c3,2.1,3.2,4.9,1.4,7.9
	c-1.4,2.2-3.3,3.3-5.9,2.5c-3.2-1-5.3-3.3-5.5-6.5c-0.5-6-0.2-12-0.6-18c-0.5-9.3-1.9-18.6-4.3-27.6
	C544.5,2875.5,544,2872,548.3,2870.5z"/>
<path d="M1229.3,2920c-0.5,3.9-2,6.8-6.2,6.5c-3.3-0.3-7.3-0.9-7.4-5.2s3.3-6.6,7.1-7.2C1227,2913.5,1228.8,2916.4,1229.3,2920z"/>
<path d="M192.2,2721.7c0,7.6,1.2,15.1,3.4,22.3c1.3,4,1.5,9.1-3.8,9.7c-6,0.7-3.6-5-4.3-8.1c-3.2-13-0.2-26.8-6.5-39.5
	c-2.6-5.3,2-8.9,7.1-9.9c9.9-2,19.8-4,29.8-4.9c13.4-1.2,19.2,7.9,13.5,20.4c-1.5,3.3-4.2,6-6.3,9c-0.9,1.3-2.5,2.6-1.5,4.4
	s2.8,1.4,4.4,1.1c0.3,0,0.7-0.1,1-0.2c7.7-0.8,16.4-2.5,20.4,6.4c4.1,9.1-1.9,16.6-8.1,22.1c-9.1,8.1-17.6,18.1-32,16.3
	c-6.5-0.8-11.7-3.3-12.6-10.7c-0.2-1.6,0-3.5,2.2-3.9c1.5-0.3,2.2,1,3,2.1c6.3,8.4,12.8,9.7,21.5,3.4c6.9-4.8,12.7-11,17.2-18.1
	c4.2-6.9,2.2-11.2-5.8-11.1c-8.4,0.1-16.7,1.4-25.1,1.8c-3,0.1-7.4,1.9-8.7-2.4c-1.4-4.6,2.9-5.3,6.1-6.3
	c8.8-2.8,13.3-9.6,16.7-17.6c3.1-7.4-0.6-9.2-6.8-8.9c-3.3,0.2-6.6,1.2-9.9,1.9C191.4,2704.3,191.4,2704.3,192.2,2721.7z"/>
<path d="M566.2,2727.2c-0.5,4.7-0.8,9.4-1.4,14c-1.7,12.6-8.7,15.5-18.4,7.3c-5-4-9.3-8.8-12.7-14.2c-1.4-2.4-3.6-4.4-6.6-3.5
	c-2.5,0.8-3.1,3.4-3.4,5.8c-0.8,7.8-3.6,15-6.6,22.1c-1.5,3.6-4.3,5.9-8.6,5.7c-4.6-0.2-4.6-3.9-6-6.9
	c-6.4-14.4-10.9-29.6-19.7-42.8c-1.9-2.8-1.6-5.3,1-6.9c3.2-2,4.9,0.6,6.1,3.1c5.2,10.9,10.5,21.7,15.5,32.6
	c1.1,2.4,1.7,5.9,4.7,5.8s3.5-3.7,4.3-6.2c2.3-7.7,5.6-15.2,4.8-23.5c-0.3-2.9,0-5.6,2.8-7c3-1.5,4.9,0.6,6.7,2.8
	c5.8,6.9,11.7,13.7,17.7,20.4c2.2,2.4,4.4,5.7,8.4,3.8c3.4-1.6,2.6-5,2.7-8c0.1-8.5-0.7-16.7-4.7-24.4c-1.5-2.9-3-7.1,0.9-8.9
	c4.8-2.1,4.9,3.1,6.2,5.8C563.6,2711.4,567.1,2718.7,566.2,2727.2z"/>
<path d="M603.7,2697.9c1.4,1.2,3.4,2,3.8,3.3c1.7,5.4,6.6,8.5,8.7,13.3c2.8,6.3,6.5,9.1,13.3,5.7c2.1-1,4.9-1.3,6,1.5
	c0.9,2.5-0.7,4.3-2.9,5.8c-6.5,4.4-6.6,9.7,0.8,12.6c6,2.4,6.5,5.7,5.6,10.8c-0.4,2.4-0.5,4.9-3.2,5.7c-3.3,1-4.9-1.3-6.2-3.8
	c-2-3.8-5.4-6.6-6.9-11s-3.8-8.6-10.2-7.2c-5.9,1.3-10.9,2.7-11.1,10.3c-0.2,4.4-1,8.7-2.5,12.8c-1,3-2.2,7.3-6.4,6.4
	c-4.7-0.9-4.7-4.9-3.8-8.9c0.7-2.9,1-6,1.7-8.9c0.9-3.6,1.8-7.1-1.3-10.4c-2.5-2.6-2.3-6.2,0.6-7.9c7.4-4.1,6.4-11,7-17.6
	C597.3,2705.7,597.8,2700.5,603.7,2697.9z"/>
<path d="M735.3,2721.8c0.9,8.7,2,18,2.8,27.3c0.2,2.6,1,4.5,3.4,5.6c3,1.5,5.2,3.5,3,7c-1.5,2.7-4.6,4.2-7.6,3.8
	c-3.7-0.3-5.4-2.6-5.8-5.9c-1.3-11-2.5-21.9-3.6-32.9c-1.6-16-1.7-16.1-17.5-13c-7.2,1.4-14.3,3.1-21.6,4.3c-3,0.5-7.4,1.1-7.5-4
	c-0.1-3.6,2.9-4.6,6.1-5.4c13.1-3.2,27.2-2.4,39-11.1c4.1-3,7.3,1.3,8.5,5.6C736.2,2709.1,736,2715.1,735.3,2721.8z"/>
<path d="M361.8,2728.9c-0.2-2-0.2-2.3-0.2-2.6c-1.2-24.4-8.4-28.6-31.8-19c-4.2,1.7-10.3,7.5-12.7,1.2c-2-5.4,5.7-7.8,10.9-9
	c4.9-1.1,10.1-2.5,14.9-1.9c8.3,1,14.4-5.5,22.4-5.1c3.4,0.2,7-0.6,8.7,3.2c1.4,3.2-0.1,5.8-2.8,7.8c-2.1,1.8-3.1,4.6-2.7,7.3
	c1.9,16.8-2.1,34.3,5.7,50.4c1.5,3.1,1.8,7-2.8,8s-6.5-1.3-6.9-6.1C363.6,2751.3,360.3,2739.5,361.8,2728.9z"/>
<path d="M302.7,2730.8c0.3-6.8-1-13.6-3.7-19.8c-0.8-1.9-2.4-4.9,0.9-5.9c2.4-0.9,5.1,0.4,6,2.8c0.1,0.3,0.2,0.6,0.2,0.9
	c1.8,11.9,5.1,23.8,2.8,35.8c-1.1,5.6-4,11.4-11.3,12.6c-7.9,1.2-10.1-4.5-13.2-9.8c-5.9-9.8-8.2-21.2-15.1-30.5
	c-2.5-3.4-0.3-6.3,2.1-7.6c4.1-2.3,4.9,1.9,5.9,4.4c3.9,9.2,7.4,18.6,11.6,27.7c1.3,2.7,2.4,7.3,6.4,6.8c4.5-0.5,6.2-5.1,7.3-8.8
	C303.5,2736.4,302.7,2732.9,302.7,2730.8z"/>
<path d="M662.7,2749.1c-0.5-13.7-0.9-27.4-7.9-39.8c-1.7-3-3.2-6.7,0.6-8.9c4.7-2.7,6.5,1.7,8.3,4.7c3.7,6.2,3.9,13.4,4.9,20.2
	c1.5,10.2,1.5,20.6,5.7,30.3c1.4,3.3,0.2,6.3-3.4,6.8c-3.3,0.4-7.1-0.4-8-4.4C662.2,2755.2,662.7,2752.1,662.7,2749.1z"/>
<path d="M890.2,2730.6c0.8-2.6,0.1-7.4,4.6-7.1c5.7,0.3,5.7,5.5,6,9.8c0.3,3.7-1.2,5.8-5.1,5.4
	C891.2,2738.2,889.7,2735.2,890.2,2730.6z"/>
<path d="M794,2730c-1.9,2.8-2.8,7.5-7,7.1c-3-0.3-8.2-1.3-7.2-6.2c0.7-3.6,3.7-6,8.1-5.9C791.3,2725.1,793.6,2726.1,794,2730z"/>
<path d="M837.9,2737.6c-3.8-0.3-6.5-2.1-6.3-5.4c0.3-4.1,2.7-7.6,7.5-7.6c3.3,0,5.7,2.1,5,5.8S842.2,2737.4,837.9,2737.6z"/>
<path d="M113.2,2738.6c0.8-2.6,0.1-7.4,4.6-7.1c5.7,0.3,5.7,5.5,6,9.8c0.3,3.7-1.2,5.8-5.1,5.4
	C114.2,2746.2,112.7,2743.2,113.2,2738.6z"/>
<path d="M17,2738c-1.9,2.8-2.8,7.5-7,7.1c-3-0.3-8.1-1.3-7.2-6.2c0.7-3.6,3.7-6,8.1-5.9C14.3,2733.1,16.6,2734.1,17,2738z"/>
<path d="M60.9,2745.6c-3.8-0.3-6.5-2.1-6.3-5.4c0.3-4.1,2.7-7.6,7.5-7.6c3.3,0,5.6,2.1,5,5.8S65.2,2745.4,60.9,2745.6z"/>
<path d="M949.2,976c-0.9-6.7-1.7-14.1-3.1-21.5c-0.9-5,0.7-8.5,5.2-10.2c4.9-1.8,5.5,2.6,7.3,5.7c6.9,11.8,17.5,19.9,29,26.7
	c6.1,3.6,8.4,1,7.2-5.7s-1-13.6-4.3-19.9c-1.9-3.7-1.5-7.5,2.9-8.8c4.6-1.3,5.1,2.8,5.6,6c1.6,10.3,3.4,20.5,4.6,30.8
	c1.3,10.9-1.9,13.1-11.4,8.8c-10.2-4.6-18.7-11.5-26.7-19.1c-1.7-1.5-2.9-3.9-5.6-2.6c-2.6,1.2-2.1,3.8-2.1,6c0,3.2,0.5,6.6,0,9.7
	s-1,7.2-5.5,6.5c-3.5-0.5-4.1-3.7-3.7-6.9C948.9,980.1,949,978.5,949.2,976z"/>
</svg>
