<svg xmlns="http://www.w3.org/2000/svg" width="1233.26" height="2936.55" viewBox="0 0 1233.26 2936.55"><title>c31-txt</title><path d="M23.16,295c-.3-4.88-.19-8.79-.84-12.56-1.93-11.18.82-15.23,11.92-16.75,6.23-.85,12.5-1.51,18.7-2.52,8.89-1.43,12.48,2.69,11.86,11.11A35.65,35.65,0,0,1,63,283.39c-2.47,7-3.77,11.77,7.17,10.87,8-.64,10.89,9.13,6.26,18.52-7.31,14.83-22,20.12-37.2,13.27a11.18,11.18,0,0,0-7.16-.57c-4.55.92-7.44-1.79-6.88-5.61C26.47,310.93,20.1,302.83,23.16,295Zm5.63-9c.21,9.68,4.09,12.2,12.54,8.23A53.28,53.28,0,0,0,46.76,291c5.45-3.45,11.88-8,8.59-14.62-3.11-6.3-9.86-1.59-15-.26-2.33.61-4.47,2-6.81,2.52C29.25,279.57,27.6,281.85,28.79,285.93Zm38.46,23c-.45-4-2.54-6.5-6.24-5.14-7.4,2.73-15.18,2-22.68,3.44-2.14.42-6.49.65-4.46,3.71,3.08,4.65,6.53,11,13.48,9.76C55.24,319.31,62.92,316.58,67.25,308.91Z"/><path d="M34.85,196.23c-11.6-.08-16.71-4.66-16.91-16.38-.25-14.48-2.17-28.49-9.18-41.36-1.78-3.25-.74-5.38,1.57-7.28,2.08-1.73,4.74-2.38,6.22.53,2.33,4.57,5.34,3.32,8.73,1.74,5.89-2.74,12.38-2.56,18.58-2.82,11.43-.47,16.18,6.93,11.33,17.47-2.61,5.69-.63,7,4.61,8.35,15.55,3.87,17.87,13.33,6.59,25.4C58.34,190.48,45.54,196.31,34.85,196.23Zm28.06-25.35c.13-3.56-2-5.11-5.16-5.07-10.16.12-19.85,3-29.6,5.46-.86.22-1.54,1.18-2.3,1.8,6.37,3,3.71,12,9.19,14.81C40.8,190.87,62.37,177.1,62.91,170.88ZM21.4,153.12c.76,2.25-1,7.31,4.8,7.76,6.93.54,18.43-7.87,20.51-14.42.75-2.34.67-4.45-1.29-5.55-6.67-3.73-11.93,1.46-17.69,3.3C24.06,145.38,20.11,146.72,21.4,153.12Z"/><path d="M1140.25,50.61c-.68-8.54,1.83-20.44-12.08-25.14a3,3,0,0,1-1.8-4.29,5.7,5.7,0,0,1,4.84-3.56c8.34-.77,12,4.21,13.68,11.46.62,2.59,0,6.45,3.4,7s3.84-3.32,5.16-5.66c6.45-11.56,20.78-16.88,32.88-12.43,2.78,1,3.65,2.54,3.57,5.45-.1,3.71-.29,7-4.43,8.51-6.19,2.24-12.34,4.6-18.55,6.79-2,.69-4.34.77-4.69,3.38s1.67,3.52,3.43,4.72c13.18,9,28.56,7,43.18,8.4,3.52.34,7.55-1.32,8.09,3.59.62,5.72-3.86,5.61-7.9,5.38-17.93-1-36.34.72-52.51-9.8-3.28-2.13-5.33-.59-6.09,2.82-.68,3.07-.9,6.24-1.56,9.31-.47,2.23-1.89,3.8-4.39,3.65a4.11,4.11,0,0,1-4.15-4C1140.08,61.68,1140.25,57.13,1140.25,50.61Z"/><path d="M919.48,315.56c-.48-7.5-.28-15.61-4.87-22.77-2.35-3.67-4.77-8,.47-10.75s6.17,1.89,7.68,5.55c2.68,6.5,5.76,4,9.14.28,7.29-8.13,17.22-11.66,27.17-15.11,4.84-1.68,6.9-.77,6.87,5,0,10-4,17.84-12.28,22.85-6.63,4-4.86,7.67-.53,11.21,6.24,5.11,13,9.79,21.8,7.31,3.59-1,6.55-.27,7.65,3.29,1,3.28-2,5.18-4.25,6.49-7.68,4.44-14.81,1.64-21.62-2.43q-9-5.34-17.73-11c-4.88-3.11-8-3.09-9.94,3.46-1,3.29,1.06,10.27-5.63,9.1C916.5,326.88,918.61,320.84,919.48,315.56ZM943,295.79c4.27-1.5,8.85-3.29,10.43-8.46a3,3,0,0,0-3.37-4c-5,.82-8.75,4.18-11.08,8.44C938,293.56,940.2,295.45,943,295.79Z"/><path d="M1163.75,299.87c9.5-1.34,19.52-2.73,29.53-4.16,2.88-.41,6.1-.79,7.27,2.44,1.56,4.29-2.81,4-5,5-8.27,4.15-17.24,5.65-26.36,6.43-4.53.4-9.81.15-11.39,5.44-1,3.33,1.17,6.94,3.89,9.31,4.12,3.6,8.32,1.57,12.76,0,3.59-1.28,5.87-10.34,10.32-3.77,3.92,5.77-2.71,8.66-7.17,11.54-14.24,9.22-23.87,5.44-31.14-12.87-3.81-9.58-4.11-20-4.23-30-.07-6.35,7.23-11.85,13.76-12.22,12.37-.7,24.22-3.44,36.2-5.94,4.06-.85,8.52-.22,8.83,4.73.29,4.64-4.16,4.52-7.71,5-10.39,1.49-20.74,3.3-31.12,4.85-5.51.83-11.26,2.24-10.68,9C1152.18,302.06,1158.57,299.58,1163.75,299.87Z"/><path d="M745.68,176.15c.88-6.41.26-14,2.51-21.61,2.89-9.8,9.75-9.48,17.23-9.59,8.69-.12,11.75,6.79,15.19,12.64,1.84,3.12-2.22,4.58-4.22,6.25-2.73,2.28-5.32,1.33-7.15-1.31-2.58-3.73-5.74-6.68-10.41-4.82-4.29,1.71-3.61,6.45-4.21,10.09a78.4,78.4,0,0,0-.93,12.54c0,3.31-1.39,7.4,2.53,9.48,4.51,2.39,7.92-.57,11.36-3.06,8.1-5.86,15.06-13.44,25.37-15.92,5.17-1.24,6.85-1,5.54,5.33C795,193.34,784.21,203.7,768.4,209c-12.46,4.16-21.34-3.29-22.66-18.07C745.34,186.39,745.68,181.83,745.68,176.15Zm38.66,14.15c-.18-2.14-1.66-3.2-2.74-2.45-4.37,3-11,3.08-13.08,8.83-.71,2,2.35,3.06,4.53,2.46C778.14,197.75,782.55,195.39,784.34,190.3Z"/><path d="M817.75,195.1c-.67-10.2-1.94-19.43-5.82-28.2-1.51-3.43-3.55-7.58-.2-10.73s6.19-.66,8.94,2c4.18,4.09,6.93-.4,9.79-2.38s4-6.45,7.71-6.77c6.13-.52,13.45-4.88,17.88,3.26,3.18,5.85-2.54,17.22-10,21-3.18,1.61-9.45.7-8.77,5.52.78,5.53,7.23,4.36,11.39,4.93a48.62,48.62,0,0,0,13.57-.32c3.56-.54,6.41-.33,7.89,3.12,1.28,3,1.34,6.36-.86,8.94-2.46,2.88-5,.28-7.59-.49-9.06-2.74-18.8-1.17-27.86-4.52-3.86-1.43-5.39,1.87-6,5.37-.75,4.32-2.53,9.32-7.28,8.76C814,203.82,819.1,197.7,817.75,195.1Zm30-34.1c-.24-3.4-2.52-4.69-5-4-4.67,1.21-9.69,2.81-10.66,8.45-.41,2.38,2.12,3.66,4.37,3C841,167.12,846.28,166.74,847.76,161Z"/><path d="M1224.79,174.36a24.48,24.48,0,0,1-4.91,13c-8.58,11.67-18.63,21.63-32.33,27.37-11.46,4.8-15.15,1-21.17-9.53-7.24-12.64-1.24-27.07-8.78-39.26-2.36-3.81.87-9.82,7.28-6.68,5.61,2.75,10.75,2,16.22.9,13.22-2.71,25.61,1.29,38,4.82C1223.25,166.19,1225.38,169.26,1224.79,174.36Zm-30.44-5.3c-19.23-.09-21.55,2.27-21.43,20.63a28.85,28.85,0,0,1-.74,6.19c-2.18,9.93,2.52,14.48,12.1,11.08,7.31-2.6,13-7.82,18.75-13,5.31-4.83,14.37-8.9,11.47-16.86C1211.43,168.67,1201.09,170.38,1194.35,169.06Z"/><path d="M440.13,163.39c.1,15.79-19.06,32-34.54,28.94-3.09-.61-6.55-2.84-7.61,1.72-.89,3.83,2.45,3.95,5.49,4.24,4,.38,3.87,3.57,2.92,6.38-1.33,3.91-2.34,8.63-7.32,9.29-3.38.45-4.76-2.87-5.29-5.58-2.68-13.68-5.41-27.37-7.49-41.15a73.86,73.86,0,0,0-4.61-16c-1.25-3.24-.45-6.55,3-8,3.19-1.35,4.1,1.44,4.95,3.81,1.78,4.95,5.53,2.76,8.84,2.51,10.45-.78,20.84-2.36,31.34.42C437.11,151.85,440.53,155.94,440.13,163.39Zm-25.22-6c-3.41.16-6.56.09-9.65.5-5,.66-9.74,2.74-11.73,7.53-2.44,5.86,2.76,5.52,6.25,6.59.71.22,1.4,2.39,1.19,3.49-2.23,11.54,5.95,10.29,12.17,9,8.67-1.83,13.7-9.32,18.34-16.05,2.64-3.84-.1-7.76-4.55-10C422.85,156.37,418.72,157.67,414.91,157.37Z"/><path d="M445.32,33.67c-.41,4.85-1.18,9.55,1.56,14.27,3.72,6.41-2.06,10.35-5.86,12.68-4.6,2.83-6.84-2-6.94-6-.14-5.58.62-11.18,1.06-16.76.52-6.42-2-9.22-8.65-7.75-10.53,2.32-21.14,4.32-31.64,6.76-5.52,1.28-6.62,10.66-1.47,16.49,2.15,2.43,5,4.09,3.85,7.73s-1.4,8.32-6.51,8.22c-4.61-.09-4.9-4.22-5.35-7.72-2-15.18-3.83-30.37-5.92-45.54-.44-3.25-1.48-6.93,2.92-7.4,3.55-.38,6.07,3.17,5.75,6.15-1.32,12.51,6,11.82,14.46,10.37,5.86-1,11.77-1.77,17.7-2.32,6.88-.63,14.22-.37,11.19-11-.53-1.87,1-3.32,2.9-3.71a6.36,6.36,0,0,1,7.15,3.21C445.64,18.26,446.12,25.87,445.32,33.67Z"/><path d="M956.17,210.34c-3.77-7.85-7.3-17.88-1.18-29.27,2-3.73-1.87-10.66-3.13-16.11-.82-3.51,0-6.26,3.42-7.82,3.13-1.41,5.24-.55,6.63,2.77,2,4.87,5.56,3.44,8.56,1.28,6.33-4.54,13-3.95,20.08-2.5,10.88,2.23,13.2,5.82,7.71,15.78-5.17,9.37-13.14,17.08-23.32,20.06-7.47,2.19-8.72,5.69-7.77,12,.74,5,.83,9.88-2.51,14-1.66,2.08-2.86,5.73-6.14,4.85-3.12-.85-2.87-4.41-3-7.14C955.46,216.51,955.79,214.76,956.17,210.34ZM967,180.71c-.27,2.46-.62,5,1.71,6.73,1.55,1.12,3.32.77,4.86-.37,4.78-3.54,9.58-7,14.3-10.64,2.08-1.58,3.4-3.71,2.39-6.39a5.87,5.87,0,0,0-4.78-3.66C979.59,165.39,967.76,174.58,967,180.71Z"/><path d="M295.92,148.09c-1.19,9.52,3.88,17.64,5.75,26.46.81,3.86,3.07,9-.78,11.88-3.21,2.43-7.28-.42-10.89-1.72-10.62-3.84-20.05-9.84-29.55-15.78-5.63-3.51-9.7-2.94-9,4.84.32,3.56-1,6.06-2.67,8.74s-2.94,6.07-6.93,5.19c-3.71-.83-4.39-4-4.63-7.37-.77-10.82.29-21.74-2.12-32.46-.56-2.49,0-5.08,2.89-6s5.37.26,7.59,2.33c8.16,7.63,16.37,15.21,26,21.05.88.53,1.46,1.78,2.36,2,5.93,1.61,11.09,9.74,16.71,6.18s-1.48-10-1.51-15.35c0-4.9-.44-9.79-.47-14.69,0-2.75-.17-6.22,3.75-6.3,4.75-.1,4.15,3.74,4.07,6.85A37.21,37.21,0,0,1,295.92,148.09Z"/><path d="M1024,192.4c-.12-9.06,1-18.21-3-26.89-1.36-2.9-1.8-6.62,2.13-8s6.74,1.08,8.26,4.58c2,4.65.78,11.57,10,10,7.63-1.33,16.76,1.69,18.92-9.9.51-2.73,1.72-5.75,5.55-4.77s5.71,3.68,6.79,7.31c3.92,13.18,3.52,27,5.7,40.39.33,2.08-1.44,4.59-2.5,6.76-1.37,2.8-3.77,4.3-6.88,3.43-2.89-.8-3.33-3.56-3.19-6,.4-7.33,1-14.61.22-22-.75-6.7-3-10.62-10.71-8.62-4.35,1.13-8.94.63-13.42,2-8.4,2.57-11,7.94-9.37,16,.55,2.75,1.68,5.43,1.86,8.18.32,4.91-1.79,10.22-6.45,10.39-5,.19-3.68-5.57-3.78-9.18C1023.93,201.51,1024,197,1024,192.4Z"/><path d="M678.11,49.39c.2-9.57-2-18.86-2.63-28.28-.27-4.29,1-7.94,5.21-9.26,3.93-1.24,5.26,2.42,6.83,5.09,5.29,9,15.12,13.34,21.46,21.37,2.38,3,6.2,1.66,6.82-2.51.69-4.74,2-9.82-1.12-14.23-1.78-2.47-3.43-4.7-.5-7.2,1.88-1.6,4.24-2.93,6.75-2.18,3.18,1,6.13,3.53,5.73,6.7-1.51,12,.78,24.63-5.5,36-3.11,5.63-6.84,6.83-9.7.79-3.72-7.85-11.62-10.93-16.9-16.88-1-1.14-3.28-2.16-4.57-1.8-2.39.67-2,3.21-2,5.35-.06,6.64.08,13.32-.59,19.91-.29,2.88-1.65,6.95-5.45,6.64-4.36-.36-4.86-4.63-4.87-8.11C677,57,677.72,53.19,678.11,49.39Z"/><path d="M547,66.18c-8.54,1.37-11.5-4.83-12-12.49-.62-10.08-.06-20.14-6.55-29A5,5,0,0,1,532,16.62c12-.9,23.67-5.76,36.06-2.15,13.22,3.84,18.53,13.74,13.39,26.51C576.08,54.44,560.67,66.05,547,66.18Zm-1.59-28c2.64,5.18-3.53,15.62,4.48,18.25s13.89-6.16,19.49-11.64c2.37-2.31,3.51-5.87,5.22-8.86a5.43,5.43,0,0,0-.06-5.91c-5.53-9-13.89-7.46-22.21-5.85C544.88,25.64,544.44,31,545.36,38.22Z"/><path d="M467.56,173.37c.11-6.43.88-10.8-2.5-14.89-2.7-3.26-.86-7.43,2.4-8.8,3.08-1.29,6.57,1.52,7.11,4.66,1.71,9.92,8,8.91,14.86,6.91,7.56-2.21,15.6-1.44,22.95-6.05,5.29-3.31,9.16,1.54,9.68,7.21.61,6.61.59,13.28.69,19.92,0,3.69.17,7.21,4.86,7.89,3,.43,6.3,1.07,4.73,4.9-2,4.92-5.31,9.46-11.4,9.33-3.65-.08-6.44-2-6.55-6.61-.18-7.32-.81-14.63-1.29-21.94-.52-7.85-4.9-10.39-12.12-8.41-4.37,1.19-8.55,3.07-12.93,4.22-10.11,2.66-14.27,7.91-8.56,18a8.15,8.15,0,0,1,1.22,3.94c-.06,3.55-.48,7.64-4.55,8.46-4.83,1-5.64-3.57-6.14-6.79C468.81,187.43,468.21,179.41,467.56,173.37Z"/><path d="M938,193.91c.27,6.19-.88,8.64-4,9.58-3.6,1.1-4.94-1.55-6.13-4.18a27,27,0,0,1-2-4.84c-1.35-5.85-2.06-12.42-10.45-11.54-7.75.81-15,2.11-17.39,11.9-1.06,4.29-2.36,12.66-8.1,11-6.61-2-1.24-9-1.14-13.86.24-11.68,10.75-21,7.47-33.76-.92-3.55,13-8.95,16.31-5.87C925.55,164.55,931.65,180.91,938,193.91Z"/><path d="M843.55,33.4c-8.68.77-17.21,1.35-25.25,4.44-3.13,1.21-8.18,1.7-7.84,5.77a27.55,27.55,0,0,0,7.84,16.74c2.85,2.93,6.44,1.53,9.41-1a11.64,11.64,0,0,1,3.65-2c2.18-.74,4.73-3,6.69-.4,2.56,3.4-1,4.78-2.93,6.59-14.42,13.85-24.26,11.85-30.68-7-2.92-8.56-7.85-16.2-9.83-25.23C793,24,793.13,21.5,801.7,19.18c10.34-2.8,21-4.27,31.25-7.67,3.25-1.08,8.75-2.65,9.77,2.57s-4.06,6.51-8.33,7.23c-7.55,1.29-15.13,2.42-22.66,3.81-2.13.4-5.7-.23-5.23,3.51s3.62,3.51,6.57,3.2C823.23,30.75,833.46,26.48,843.55,33.4Z"/><path d="M461.11,54.36c1.95-10.55,7.28-20.11,7.31-31.4,0-6.4,10.71-9.12,15.9-4.5C488.17,21.9,493.1,24,496,28.71c2.69,4.35,7.19,5.14,12.1,4.2,2.79-.53,4.78.6,5.35,3.61.45,2.33-.05,4.32-2.59,4.9-9,2-4.4,6.71-2,10.72,1.49,2.52,5.4,4.11,2.77,8-1.17,1.71-2.44,3.76-4.86,3.45-3.84-.48-4.78-3.86-5.67-6.81-1.39-4.62-1.43-10.67-8.17-10.32-7.16.38-15.07,0-19.35,7.89-.66,1.23-1.47,2.39-2.07,3.66-1.55,3.3-3.85,5.06-7.53,3.49C460.77,60.09,460.58,57.32,461.11,54.36Z"/><path d="M181.74,191.9c-5.33.28-8.29-1.06-10.45-3.39-4.39-4.72-3.32-11-4.49-16.71-1-5-7.22-9.4-.26-14.47a1.23,1.23,0,0,0,.41-.94c-2.25-18.76,13-16,23.38-18.55,6.38-1.57,13.19-1.38,19.8-2.08,3.13-.34,6.8-1.55,7,3.38.19,4.15-3.18,3.72-6,3.81-10.21.29-20,3-29.71,5.7-3.1.86-6.77,1.49-5.76,5.78.88,3.75,4.17,4.28,7.6,3.57,7.84-1.63,15.73-3.05,23.49-5,3-.76,7-3.41,8.24.06,1.74,4.69-3.35,5.23-6.61,5.92-8.49,1.8-16.37,5.95-25.22,6.38-3.33.16-6.39,1.38-7.2,5a10,10,0,0,0,2.68,9.69c2.73,2.6,5.73,1,8.79,0,2.89-1,6.42-5.92,8.88-1.2,2.34,4.46-1.91,7.82-5.65,9.82C187.36,190.39,183.56,191.26,181.74,191.9Z"/><path d="M246.76,67.2c-15.26-.55-30-26.09-23.49-41.26,1.74-4,2.57-8.76,6.39-11.82,2.55-2,5.07-3.93,8.49-2.31,2.49,1.18,3.19,3.64,3.53,6.08.51,3.75-2.27,4.11-5,5.23-6.23,2.54-8.3,17.07-3.29,21.63,3.44,3.13,6,.17,7.9-2,4.3-4.94,9.94-7.74,15.7-10.09,8-3.28,13,0,14,8.34C272.13,50.38,256.25,67.55,246.76,67.2Zm12.37-19.39c-.13-2.65-1.79-4.1-4-3.65-4.53.9-8.93,2.58-9.26,8.16-.16,2.67,1.53,5,4.47,4.59C255.51,56.27,257.64,52.23,259.13,47.81Z"/><path d="M1049.58,20.72c-3.13-.65-5.55-.82-7.84.49-1.86,1.07-3.67,2.24-3.45,4.76s2.19,3.12,4.42,3.46a52.46,52.46,0,0,0,21.88-1.23c2.66-.72,6.07-1.91,7,1.92,1.06,4.16-3,3.91-5.43,4.72a53.65,53.65,0,0,1-19.73,2.48c-6-.29-8,1.47-6.45,8,3,12.36,5,19.49,20.32,13.69,2.51-.95,6.76-3.32,8.5.44,2.3,5-3.41,5.45-5.89,6.83-15.33,8.49-23.29,5.14-29.12-11.24-3.73-10.48-3.06-21.46-4.27-32.22-.73-6.54,3.81-9.66,9.71-10,10.5-.57,21-.32,31.35-3,3.17-.82,7-.19,7.61,3.67.79,4.78-3.43,4.21-6.45,4.57Z"/><path d="M697.35,301.85c-.81-5.64,1-10.9,3.58-15.93,2.73-5.43,7.56-7.89,13-5.51,8.59,3.74,17.91,5.75,25.76,11.32,10.4,7.37,12.25,18.89,4.47,28.87-7.31,9.4-15.12,17.93-28.6,14.63-10.41-2.55-17.52-14.83-18.23-30.07C697.31,304.12,697.35,303.07,697.35,301.85ZM719,292.33c-7.76-1.21-12.23,2.69-12.85,10.77-.94,12.28,6.7,22.8,16.32,23,7.87.15,19.45-10,19.76-17.39C742.58,301.09,731,292.73,719,292.33Z"/><path d="M116.15,140c6.27-.58,12.62-.74,18.79-1.86,5.07-.91,10.32-.83,10.74,4.73.45,6-5.6,3.41-8.94,3.74-9.77,1-19.56,1.71-29.35,2.32-4.21.26-6.84,2-6.55,6.34.32,4.91,3.66,5.09,7.62,4.37,4.47-.8,9-1.21,13.53-1.81,1.89-.25,3.59.09,4.19,2.12.75,2.54-.77,4.1-3,4.63-3.75.88-7.63,1.22-11.37,2.13-3.15.76-7.9-.37-8.32,4.52A17.62,17.62,0,0,0,107,183.07c2.1,2.81,4.77,1.46,7.42-.16,5.54-3.37,6.24.73,5.45,4.47-1.08,5.1-4.29,8.91-10,9.39s-9.41-2.1-10.72-7.8c-2.59-11.23-5.35-22.43-7.71-33.72-2.19-10.51,2-15.56,13.12-16.22,3.84-.22,7.71,0,11.56,0Z"/><path d="M139.1,44.5c-.83-6.85-1.6-15.12-2.93-23.3-.72-4.46-1.21-8.66,3.42-10.93s6,2.19,7.9,4.84c6.33,9,17,12,25.11,18.47,2,1.57,5.24,2.68,7.76.42,2.12-1.9,1.17-4.56.73-6.93-.59-3.09-1.57-6.13-1.88-9.23-.33-3.39-1.05-7.89,4.17-7.82,4,.05,8.49,3.38,7.5,7-2.27,8.27,1.09,15.9.91,23.86s-4,9.66-10,6.51c-9.52-5-20.54-7.2-28.58-15-1.23-1.2-2.83-2.39-4.65-1.58-2.47,1.1-1.88,3.47-1.61,5.49.41,3.12,1.2,6.19,1.48,9.31.37,4.2,1,9.45-5,9.53C137.28,55.18,137.66,50.38,139.1,44.5Z"/><path d="M510.28,274c2.44-.17,4.89-.47,7.34-.46,4.78,0,5.89,3.36,5.56,7.13-.36,4-3.47,5.5-6.85,4.18-7.89-3.09-15.21.14-22.64,1.54-3.57.67-8.82,1.85-7.62,6.76,1.14,4.67,6.15,3,9.95,3,4.78,0,8.76-2.25,13.08-3.57,1.79-.55,3.81-.36,4.66,1.29,1,1.84-.52,3.21-2.13,4.16-2.4,1.44-4.63,3.43-7.23,4.23-9.46,2.91-16.33,7.09-13.52,19,.73,3.1-1.77,6.15-5.66,6.11s-5.78-3-5.18-6.42c2.11-11.79-5.7-21.71-5.73-33.33,0-5.89,1-8.09,5.94-9.83C490,274.32,500.16,274.29,510.28,274Z"/><path d="M97.84,36.84c-5.73,2.89-13.43,2.75-15.19,11.06-.37,1.71-.48,3.62-1.36,5-2.1,3.36-3.53,9-8.56,7.46-5.39-1.65-1.91-6.36-1.18-9.8,2.52-11.88,5-23.76,7.73-35.6C81.05,7.23,86.42,5.43,92,11.14c6.53,6.68,13.83,12.9,17.4,22a11.1,11.1,0,0,0,7.27,7c3.6,1.11,5.34,3.4,4.21,7.09-.93,3-2.51,6.11-5.82,6.89-3.6.85-5.68-1.84-7.48-4.58C104.68,45.15,104.69,38.48,97.84,36.84Z"/><path d="M47.3,45.44c1.87,12.11-7.63,16.81-16,21.24C22,71.55,9,68.61,3,61.74-2.39,55.47.15,50.25,5.26,45.32c2-1.91,4.1-2.93,6.52-1.33,2.92,1.93,1.6,4.21-.07,6.2-5.82,6.93-.57,9.31,4.81,10.86,7.92,2.29,22-7.16,23.74-15.2.66-3.12-1-4.36-3.17-5.78-5.56-3.61-11.34-7-16.45-11.17C9,19.36,9.93,11.09,23.22,4.24A59.69,59.69,0,0,1,34,.25c2.65-.77,5,.23,5.76,3.1.86,3.15-1.44,4.56-3.86,5.19C31,9.81,23.54,9.08,22.86,15c-.74,6.47,6.88,8.87,11.46,12.26C47.05,36.67,47.16,36.53,47.3,45.44Z"/><path d="M687.84,197.65c-13.33-.12-21.15-12.51-20.09-34.34.27-5.54,5.07-10.51,12-10.54,18.59-.08,36.6,11.33,36.53,23C716.22,185.37,700.13,197.76,687.84,197.65ZM679.14,174c-.42,8.06,2.89,13.44,12.16,12.44,7.25-.79,15.44-1.56,17.45-10.41,1.21-5.36-11.57-13-20.79-12.61C681.83,163.67,678,166.67,679.14,174Z"/><path d="M954.62,41.41c.45-5.14-.43-10.54-1.71-16.06-1-4.21,1.49-7.6,6.31-7.73a5.42,5.42,0,0,1,5.42,7.25c-3.75,9.92-.36,20.19-2.47,30.05-1.39,6.54-2.51,14-10.52,15.29-7.81,1.25-14.25-2.1-18.33-9.4-3.74-6.7-7.69-13.3-11.78-19.8-2.16-3.42-3.54-7.61-8.5-8.6-2.92-.58-7.2-2-4.57-6,2.39-3.65,5.27-9.32,11.48-5.71,3.92,2.28,6.56,5.88,8.54,10.21C932,38.51,934.77,46.45,940.3,53c2.7,3.22,4.44,7.8,9.61,6.34,5.59-1.57,5.45-6.57,5.26-11.21C955.08,46.07,954.84,44,954.62,41.41Z"/><path d="M633.3,143.19c15.54-.44,15.13-.12,12.79,12-1.63,8.48-.94,17.42-1.2,26.16-.07,2.33,1.32,3.76,3.34,4.87,2.59,1.42,6.61,1.92,5.64,6.31-.6,2.69-3.08,3.85-5.56,4.2-3.93.57-7.9.36-10.35-3.41a19.39,19.39,0,0,1-2.75-11c.06-6.66-.49-13.32-.37-20,.13-7.36-2.08-10.73-10.06-7.86-5.9,2.13-12.15,3.26-18.13,5.2-5.37,1.75-9.69,0-10.91-4.93-1.32-5.37,3.94-5.49,7.62-6.33C614.58,145.79,625.79,143.16,633.3,143.19Z"/><path d="M1115.44,213.47c-7.52-1.46-12.67-7.21-13.78-15.85-1-7.39-1.24-14.19-11.16-14.39-2.33,0-3.38-2.43-3.27-4.69.18-3.55,15.48-12.11,17.49-9.55,5.73,7.28,12.56,4.14,19.26,3.29,5.21-.67,10.4-1.53,15.62-2.11,2.54-.29,6.29-2.21,7,1.9.62,3.8-3,4-5.87,4.14-8.52.38-16.24,3.75-24.23,6.16-3.06.92-6.7,1.19-6.07,5.6.81,5.73,3,10.91,8.4,13.85,3.52,1.92,6.73,1.18,9.17-2.21,1.45-2,2.12-6.55,5.72-3.6,2.85,2.33,3.12,6.41,0,9.33C1129.05,209.71,1123.8,213.13,1115.44,213.47Z"/><path d="M544.64,172.24c.15-.83.38-2.57.81-4.25,1.95-7.62-1.63-20.17,12.35-18.19s26.43,19.42,23.51,30.11c-1.73,6.36-16.94,15.64-23.69,14.45C549.38,192.91,544.46,184.88,544.64,172.24Zm20-9.54c-10,.41-10.88,5.72-10.85,11.67,0,5.79,2.93,9.86,8.77,8.9,4.9-.8,10.86-3.23,10-9.73C571.77,168.33,570.09,162.2,564.61,162.7Z"/><path d="M270.48,325.39c4-.48,5.2-4,7.81-5.62,2.45-1.53,4.78-5.54,8-2.48,3.75,3.53-.75,5.22-2.64,7.35s-3.69,4.19-5.61,6.22c-3.87,4.1-8.4,6.41-14.1,4.38s-8.23-6.15-8.29-12.07c0-4.95-.31-9.77-4.46-13.48-2.13-1.9-1.91-4.7-.34-6.73,3.74-4.87,4.41-10,2.77-15.79-.76-2.71-.48-6,3.55-6.12,3.61-.09,5,2.7,4.6,5.69-1.71,12.13,5.48,12.18,14,10.75,5.43-.91,11.12,1.07,16.44-2,2.77-1.6,5.86-.51,6.63,2.83s-1.35,5.46-4.75,5.28c-9.13-.48-16.44,5.79-25.26,6.49-4.17.34-6.14,2.84-5.16,7.29C264.63,321.47,266.83,324.21,270.48,325.39Z"/><path d="M282.14,273.94c4.82,1,9.56-.32,13.6,2.6,2.44,1.76,4.38,3.54,3.16,6.85-1.06,2.9-3.62,3.23-6,2.86-6.89-1.05-13.72-2.17-20.76-1.05-2.77.44-6,.16-6.36-3.62-.34-3.16,1.7-5.25,4.5-6.3A26.16,26.16,0,0,1,282.14,273.94Z"/><path d="M1104.61,164c-.77.05-3.46-.75-3.58-4.34-.1-2.92,2.25-4.16,4.87-4.42,11.09-1.09,22.25-1.55,32.8-5.79,2.81-1.13,5.77-.46,6.71,3s-1.61,5.33-4.46,5.82C1129.63,160.22,1118.27,161.87,1104.61,164Z"/><path d="M473.4,964c0-10.53-.75-21-8.11-29.41-3.2-3.67-2.87-6.25,1.22-8.56,4.44-2.5,7.45.11,8.13,3.8,2.23,12,5.21,9.42,10.78,1.63,7-9.76,17.84-12.35,29.27-12.81,3.7-.15,6.3,1.48,7.54,5,2.2,6.18.1,11.54-3.79,16.23-3.35,4-8.24,4.94-13.2,5.38-2.29.2-4.8.39-5.65,3-.93,2.82,1.54,4.23,3.3,5.34,8.12,5.14,14.42,14.9,26.43,10.47,2.52-.92,4.7,1,5.22,3.23a12,12,0,0,1-2.81,10.88,6.93,6.93,0,0,1-8.9,1.62,114.2,114.2,0,0,1-15.6-9.87c-5.21-3.88-9.92-8.41-14.94-12.55-1.94-1.6-3.82-4.12-6.72-3.07-3.13,1.12-2.31,4.23-2.49,6.74q-.46,6.32-1,12.63c-.17,2.18.49,5.11-2.74,5.31a5.22,5.22,0,0,1-5.91-5.16C473.19,970.53,473.4,967.26,473.4,964Zm22.78-25.26c3.28,0,10.92-2.63,14.53-5,1.85-1.24,4.31-2.26,3.25-5.14-1.16-3.17-3.88-2.95-6.52-2.34a38.87,38.87,0,0,0-13.39,5.44c-1.78,1.21-4.34,2.33-2.95,5.22C492.07,938.91,494.21,938.86,496.18,938.74Z"/><path d="M1123.3,954c5.47,3.78,10.69,1.8,15.65,1.77,2.61,0,6.09-.87,6.55,2.34.63,4.39-3.43,2.54-5.61,2.85-12.17,1.72-23.92,6.38-36.58,4.77-3.14-.4-7.17.25-7.44,4.5-.38,5.86,2.76,10.82,6.94,14.38,2.32,2,6.33,1.53,8.83-1.27,2.22-2.48,3.74-7.67,7.86-2.8,3.19,3.77.78,6.65-2.79,9.6-13.83,11.4-23.25,9.21-28.61-8.11-3.64-11.75-7.93-24,.59-35.89,2-2.74,3.68-4.51,7-3.65,11.87,3.07,24,.47,36,2,2.68.34,6.7-1.16,6.62,3.22-.07,3.43-3.61,4-6.63,4.46C1129.2,952.5,1126.48,950.86,1123.3,954Z"/><path d="M1185.7,800.87c-3-7.72,0-15.45-.17-23.17-.12-5.11,3-7.69,7.09-7.44,5.41.33,4.19,5,3.1,8.27-4,11.79.78,23.88-1.74,35.81-1.78,8.42-4.43,10.67-12.28,6.92-9.75-4.66-18.94-10.39-26.18-18.42-6.22-6.87-9.54-5-14,1.84-3,4.64-4.24,13.44-9.87,13-6.59-.52-5.95-9.71-8.76-14.95-1.94-3.62-2.23-7.89-5.71-11-2.81-2.52-2.59-6.63-1.36-10.13a6.81,6.81,0,0,1,6.7-4.82c3.28.12,3.76,3.08,4.24,5.7.69,3.84,1,7.79,2.13,11.49,1.65,5.34,4.6,5.7,8.4,1.54C1141.39,791,1143,781.69,1150,783c5.09,1,9.15,7.73,13.48,12.09,3.67,3.69,6.84,7.89,10.67,11.38,2.28,2.08,5.2,4.43,8.74,2.17C1185.73,806.84,1186.21,804,1185.7,800.87Z"/><path d="M637.69,663c1.7-6.84,3.45-15.38,6-23.67a36.31,36.31,0,0,0,2.1-12.37c-.15-4-.93-8.58,3.84-9.88s10.16-3.13,14.69,1.21c1.65,1.58,3.71,3,4.77,4.86,4.64,8.37,11.57,10.37,20.44,8.32,2-.46,5-1,5.61,2.12.52,2.68-1.64,3.74-4,4.45-8.37,2.46-9.17,5.42-3.14,11.51a21,21,0,0,0,4,2.62c3.58,2.21,3.17,5.5,1.91,8.61-.93,2.29-1.82,5.28-4.83,5.59-3.58.37-4.64-2.58-6.12-5.24a107.87,107.87,0,0,0-8.35-13c-4.66-6.17-19-1.81-22.09,6.91-1.63,4.6-2.46,9.54-5.71,13.33-1.77,2.06-3.34,5.63-6.93,4C636.61,671,637.27,667.59,637.69,663Z"/><path d="M1002,659.84c-1.1,4.18-1.92,7.69-8.88,4.49-16.2-7.44-33-13.54-48.15-23.23-1.91-1.22-3.93-2.6-6.22-.71-2.84,2.34-.34,4.51,0,6.91.89,5.71,5.68,10.45,4.08,16.67-.61,2.37-.4,5.61-4,5.69a5.35,5.35,0,0,1-5.3-3.7c-4-12.69-7.41-25.56-14-37.34-2.09-3.75,2.39-5.67,4.61-7.56,3.37-2.85,7.15-2.54,10.57.59,11.15,10.21,24.74,16.63,37.63,24.12a48,48,0,0,0,7.92,3.8c1.73.62,4.16,1.2,5.54.45,2.41-1.31,1.47-4,.71-6.14-2.57-7.14-4.44-14.29-2.27-21.93.48-1.68,1.08-3.16,3-3.24a2.3,2.3,0,0,1,2.54,2.37c-.26,12.14,3.21,22.92,11.08,32.33C1001.94,654.7,1001.59,657.18,1002,659.84Z"/><path d="M269.18,780.87c11.34,3.53,23.14,2,34.77.83,3.27-.33,6.88-2.46,8.05,1.84,1.37,5-3.71,4.4-6.41,5.09-8.26,2.11-16.78,1.7-25.22,2.14-9.95.52-11.09,2.73-7.19,12,.5,1.2.93,2.43,1.41,3.64,1.36,3.35,0,8.69,5.48,9.1,4.21.32,6-3.24,7.42-6.67,1.21-2.87,3.41-4.23,6.2-2.44s2,4.44.5,6.85a4.07,4.07,0,0,1-.61.76c-5.32,5.58-7.26,16.61-17.45,14.54-9.57-2-9.18-12.48-11.39-19.77-2.81-9.27-3.8-19.1-5.64-28.68-1.15-6,1.42-7.28,7.1-9.72,14.05-6,28.74-2.54,42.83-5.48,3.72-.78,8.65-1.42,8.69,4.54,0,5.24-4.65,4.41-8.07,4.67q-20.22,1.57-40.45,3.06Z"/><path d="M599.22,826.61c-1.93,0-3.86-1.63-3.36-2.71,4.09-8.82-10.39-11.42-6.46-19.94a2.3,2.3,0,0,1,1.48-1.19c18.38-2.09,13-18.35,16.78-28.91.92-2.59.18-5.65,3.43-6.89s4.68,1.06,6.38,3.15c3.68,4.55,8,8.64,11.15,13.54,4.8,7.62,9.66,13.93,20.11,10.57,1.74-.56,4.13-.05,4.49,2.52.3,2.14-.71,3.62-2.93,4.4-7.46,2.61-8.92,5.93-1.46,10.84,6.19,4.07,1.62,8.78-.24,12.8-1.24,2.68-3.83,1.71-5.49-.35-.58-.72-.63-1.84-1-2.72-7.18-15.76-12-17.75-28.52-12.21-4.46,1.5-5.18,5.37-6.84,8.84C603.73,824.59,601.71,826.67,599.22,826.61Zm26.1-31.48c-1.12-3.48-3.72-5.56-7.06-5.58-3.7,0-4.41,3.24-4.34,6.22.08,3.31,2.35,4.2,5.31,3.91S625.05,799,625.32,795.13Z"/><path d="M511.61,793.45c.31-5.18.67-10.35.9-15.53.14-3,1.23-5.36,4.44-5.29,4,.09,4.72,3.27,4.14,6.33-2.1,11.2.36,22,2.16,32.95.41,2.53,1.44,5.34-1.49,7s-5.61.83-8.22-1q-17.22-11.79-34.49-23.49c-2.54-1.72-5-5.37-8.39-2.8-2.9,2.22-1.48,6.05-.91,9.22.92,5.13,2.49,10.34.81,15.44-.89,2.72-.24,7.67-4.78,7.25-4.09-.38-6.87-3.71-7.25-8-.6-6.78-1-13.59-1.17-20.39-.09-4.27-.44-8.21-2.29-12.28-2.06-4.55,0-9.43,3.61-12.17,3.86-2.92,7.2.78,10.18,3.26,10.24,8.51,20.34,17.2,30.74,25.5,2.93,2.34,6.74,5.56,10.47,3.81S511.42,796.85,511.61,793.45Z"/><path d="M295.16,922c.62,0,3.53-.32,6.45-.45,2.62-.12,6.35-2.27,6.75,2.62.31,3.91-1.87,5.58-6,5.92-10,.82-20,2.18-30.07,3.26-3.85.42-8.86,0-8.24,5.67s5.63,4.21,9.39,4c4.2-.26,8.39-.86,12.59-1.17,1.53-.11,3.42-.34,4,1.74s-.87,3-2.34,3.72a26.18,26.18,0,0,1-15.25,2.24c-3.81-.6-7.11,0-6.1,4.71,1.89,8.85,1.5,18.16,5.92,26.54,3.46,6.58,7.85,6.43,12.45,2.18a26.84,26.84,0,0,0,8.64-19.93c0-2,.44-4.2,2.94-4.29s2.85,2.09,3.16,4.09c1.37,8.91-7.61,28-15.26,32.27-6.44,3.64-13.07,1.69-16.25-5-1.66-3.5-3.87-7.16-4.08-10.86-.88-15.09-8.91-28.41-10.14-43.38-.53-6.39,1.5-9.67,8.27-10.36C272.3,924.49,282.31,921,295.16,922Z"/><path d="M727,951.32c5.83-8,10.4-17.52,21.86-20.22,10.17-2.4,19.67-1.07,22.05,4.54,3.11,7.39-1.51,17.81-10,23.34-2.75,1.8-7.88,1.93-7.17,6.73.65,4.44,3.82,7.43,8.42,8.5,7.91,1.86,15.41,9.93,24,.66,2-2.16,3.6,1.38,3.71,3.74.31,6.68-7.24,10.75-15.2,8.63-13-3.45-24.1-10.28-34.71-18.16-2.35-1.74-4.9-4.2-7.85-2.54s-2.26,5.08-2.35,8c-.18,5.52-.41,11.05-.83,16.56-.14,1.92-.89,4.22-3,4.47-2.73.32-4-2.13-4.55-4.29-1.24-4.84-.52-9.73.46-14.53,1.54-7.54.46-14.91-1.23-22.24-.88-3.82-5.46-8.94-.08-11S722.08,950.22,727,951.32Zm8.83,9.75c11.7-.78,20-6.64,27.16-14.45a6.31,6.31,0,0,0,1.4-7.15c-1.15-2.58-3.59-3.37-6.44-3.37-11.11,0-22.29,7.75-26.12,18.13C730.08,958.85,730,962.05,735.78,961.07Z"/><path d="M809.18,790.35a76.87,76.87,0,0,1-.52,23.33c-.47,2.62.07,6.66-3.58,7.27s-5.66-2.54-7.42-5.34c-4.84-7.7-9.64-15.42-14.51-23.1-1.2-1.88-2.28-4.63-4.85-4.21s-2.56,3.43-3.15,5.56c-2.89,10.32-5.61,20.69-8.69,31-.57,1.91-.31,5.12-3.3,5.34s-5.09-2.25-5.55-4.68c-3.61-19.34-12.32-36.8-19.53-54.83-1.06-2.66-1.25-6.4,2.43-7.37s6.36,1.7,6.84,5.22c1.86,13.54,8.18,25.71,11.49,38.79.48,1.91.84,4.2,3.22,4.26,2.88.06,3.44-2.55,4-4.73q3.45-13.68,6.73-27.4c.6-2.55.7-5.57,3.8-6.18,3.69-.72,5,2.62,6.4,5,4.34,7.25,8.4,14.66,12.66,22,1.29,2.19,2.64,5.23,5.65,4.47,3.31-.85,2.5-4.24,2.15-6.67-.87-6.08-.72-12.37-3.53-18.09-1.34-2.73-2.1-5.59.14-8.23a4.71,4.71,0,0,1,5.35-1.37c3.61,1.26,3.13,4.39,3.2,7.34C808.71,782.55,809,787.42,809.18,790.35Z"/><path d="M1180.42,996.05c-14.2,0-16.84-3.23-16.66-17.67.12-9.28,1.14-18.73-3-27.78-1.57-3.45-1.37-8.11,4.46-8.66,11.7-1.1,23-.93,33.69,5.62,9.14,5.58,14.83,13,14.75,23.33-.09,9.51-6.75,15.5-14.76,20.06A36.77,36.77,0,0,1,1180.42,996.05Zm2.14-43.16c-3.78.84-12.19-.83-9.82,6.85,2.79,9.06-4.54,22.78,8.76,26.79,8.51,2.58,24.12-10.89,23.87-17.86S1193.2,953,1182.56,952.89Z"/><path d="M399.49,653.47a74.34,74.34,0,0,1-.05,7.76,7.85,7.85,0,0,1-3.89,6.42c-2.9,1.53-4.73-.72-6.73-2.4-6.44-5.39-12.95-10.7-19.47-16-1.73-1.4-3.64-3.59-5.93-2.58-2.89,1.27-1.95,4.44-2,7-.07,3.88,0,7.77-.23,11.64-.19,2.76-1.42,5.15-4.65,5.25s-4.78-2.13-5.07-4.88c-1.43-13.54-3.08-27-6.66-40.22-.85-3.16.14-5.95,3.31-7.24,2.83-1.15,4.48.64,6.49,2.69,9.22,9.4,18.76,18.48,28.21,27.65,1.82,1.77,3.54,4.37,6.52,3.13,3.33-1.38,1.79-4.37,1.55-6.83-.47-4.86-1.14-9.64-4.25-13.74-1.8-2.37-3.22-5.07-1.15-8,1.4-2,3.56-3.2,5.91-2.31a7.46,7.46,0,0,1,5.06,7.62C395.71,637,400.62,644.88,399.49,653.47Z"/><path d="M20.53,669.76c-.55-3.33,1.69-6.26,3.07-9.52,2-4.83,6.29-9.6.89-15.08-1.48-1.5-1.06-4.49.74-5.13,10.31-3.71,8-13.47,10.29-20.93,1-3.22,1.27-6.16,5.33-7.11s5.17,1.06,7.49,3.87c5.93,7.18,10,18.58,23.35,13.31,1.71-.67,3.93.62,4.34,2.92s-1.28,3.34-3.09,4.31c-8.89,4.77-9.23,7-2.21,14.48,1.09,1.15,3,1.93,3.4,3.23,1.2,3.86,1.37,8.32-2.54,10.47-4.09,2.26-5.44-2.32-7-4.75-2.1-3.21-3.54-6.85-5.24-10.32-2.14-4.35-4.72-7.67-10.48-6.41s-9.86,3-11.4,9.86-3.64,13.81-7.59,19.9c-1.51,2.33-3.32,4.23-6.28,3.65C20.05,675.82,20.55,672.84,20.53,669.76Z"/><path d="M965.92,946c-2-.17-4.87-.53-7.79-.62-2.48-.08-5.72-.89-5.92,3-.16,3.13,2.13,4.61,5,4.94,9.61,1.1,19.12,4,28.94,1.09,2.79-.83,7-2.83,7.71,2.38.59,4.5-3.56,4.7-6.7,5.34-7.29,1.5-14.47,3.45-22.14,1.67-3.63-.84-8.89-1.38-9.9,3.49a16.12,16.12,0,0,0,4.52,15.29c3.91,3.68,6.89,1,9.84-2.12,1.62-1.7,3.77-4.57,6.53-2.27s.54,4.68-.8,6.89c-1.18,1.95-2.1,4.08-3.44,5.89-2.73,3.68-5.78,7.75-10.91,6.75-4.71-.92-7.18-4.89-9.17-9.29-5.44-12-5.6-25.16-8.48-37.71-2.24-9.76,5-16.17,15-15.25,10.63,1,21.25,2.38,32,1.3,3-.31,7.48-1,7.72,3.44.21,3.9-4.21,3.44-6.8,3.73C983.07,944.84,975,945.27,965.92,946Z"/><path d="M974.29,769.71c15,.79,26.92,2.86,37.45,10.34,7.46,5.31,10.06,15.32,3.55,22.05-10.42,10.76-22.34,19.28-38.18,21.28-9.92,1.25-13.29-4.83-14.6-11.68-2.08-11-.19-22.55-8.22-32.33-2.66-3.23,1.58-6.66,5.27-7.46C965.23,770.68,971.06,770.17,974.29,769.71Zm5,9.36c-14.41.09-15.4,1.82-11.79,13.33,1.34,4.24,4.64,7.81,3.88,12.83-1.36,8.89,3.89,10.38,10.65,8a68.54,68.54,0,0,0,24.54-15.4c6.17-5.86,4.93-10.6-3.35-13.71A88.36,88.36,0,0,0,979.27,779.07Z"/><path d="M125,956c7,1.79,4.19,9,6.64,13.32,1.25,2.19-2.39,6.46-5.2,5.17-11.75-5.39-22.95,0-34.36.68-17.75,1.12-35.5,2.17-53.23,3.44-4.15.29-8.22,1.64-12.36,2-4.68.34-9.06-1.8-9.34-6.54-.31-5.26,4.57-4.89,8.56-5.26,29.08-2.65,58.15-5.37,87.19-8.41C116.92,960,120.72,957.63,125,956Z"/><path d="M416.73,765.44c6.84,0,13.67-.05,20.5,0,2.6,0,5.62,0,5.74,3.67s-2.53,3.94-5.35,4.17c-10.38.81-20.75,1.72-31.12,2.64-3.18.28-7.43.15-6.71,4.78.58,3.78,4.44,4.39,7.86,3.94,5.79-.76,11.56-1.76,17.33-2.68,2.37-.37,5.14-.44,5.63,2.28s-2.44,2.17-4.16,2.8c-6.11,2.22-12.19,4.23-18.74,5-6.09.69-8.55,4.31-5.69,10.36,1.38,2.93,3.14,5.73,4.23,8.77,2.32,6.46,5.76,8.17,11.73,3.91,3-2.14,7.26-3.54,9.35.36,1.92,3.58-2.48,5.66-4.78,7.49-11,8.73-20.14,5.53-25.46-7.77-3.09-7.73-5.91-15.78-8.66-23.45-2.14-6-1.1-15.63,3-22.93,1.57-2.81,4.15-2.66,6.79-2.64,6.18.05,12.36,0,18.53,0Z"/><path d="M435.78,936.9c-5.68,6.36-12.36,8-19.59,8-6-.07-8.21,2.7-7,8.63.79,3.82.8,7.78,1.51,11.61,1,5.44,1.89,12.72,8.19,13,6.76.25,12.62-4.54,15.62-11.22,1.08-2.41.12-7,4.77-4.58,3.87,2,.89,5.06-.5,7.43-2.93,5-5.86,9.85-10.56,13.74-8.75,7.26-17.6,5.56-21.89-5.38-2.48-6.34-4.23-13-3.95-20,.33-8-2.16-15.66-5.88-22.29-4.15-7.41-1.09-9.82,5.22-10.41,15.53-1.45,31.07-2.65,46.25-6.56,2.48-.64,5.78-.65,6.32,2.73.47,3-2.87,3.37-4.79,3.81-10.73,2.49-21.53,4.71-32.33,6.87-2.25.45-5.16.23-4.86,3.32s3.19,2.65,5.45,2.52C423.77,937.71,429.77,937.29,435.78,936.9Z"/><path d="M1140.93,1135.67c.61-13.78,2.38-24.64,9.91-33.53,1.91-2.24,4.09-5.69,8.1-3.16,2.88,1.82,4.68,4.22,4.72,8,0,4-1.39,6.14-5.48,6.43-4.32.31-5.93,3.65-7.22,7-1.87,4.91-3.19,10-1.66,15.25,1.13,3.89-1.23,9.53,3.6,11.41,5.13,2,6.26-4.48,9.67-6.52,8.77-5.22,15.64-13.53,27.16-14.15,11.9-.65,18.14,6.53,13.82,17.36-5.4,13.56-30.28,26.64-43.9,23.07-8.41-2.21-18.15-17.2-18.71-28.85C1140.86,1136.35,1140.93,1134.72,1140.93,1135.67Zm26.57,22.39c5.42.22,25.25-10.25,27.4-13.91,2.45-4.16.72-6.34-3.65-6.13-10.86.51-18.74,6.82-25.58,14.42C1162.9,1155.52,1164.73,1157.74,1167.5,1158.06Z"/><path d="M980.63,1108.14c3.83-4.25,7.8-8,7.75-14.1,0-3.06,1.63-4.94,4.63-5.25,2.67-.27,4.23,1.37,4.84,3.84,1.47,6,7,9.79,8.38,16.16,1.24,5.71,6.53,6.51,11.85,5.58,3.08-.54,7.17-2.27,7.79,2.59.5,4-3.66,4.31-6.35,4.25-8.35-.16-7.56,3.68-4.43,9,1.81,3,3.33,6.18,5.79,8.92,3.76,4.18-.11,7.64-2.88,9.6-3.48,2.47-4.91-1.42-6.14-4s-2.15-5.42-3.39-8c-2.18-4.62-1-13.05-8.17-12.42-8.66.76-19.54-1.57-24.32,10a74.24,74.24,0,0,1-7.4,13.63c-1.8,2.61-3.7,7.14-8.29,4.48-3.43-2-2.68-5.57-1.7-8.78,2.66-8.65,5.39-17.28,8.06-25.93.67-2.17,1.73-4.37,1.72-6.55,0-4.63-.83-9.89,5-11.13C978.79,1098.84,977,1106,980.63,1108.14Zm16.87,3.39c-.22-3-2.28-4.52-5.09-4.64a5.32,5.32,0,0,0-5.52,4.56c-.56,2.68,1.28,4.39,3.88,4.46C993.77,1116,996.68,1115.37,997.5,1111.53Z"/><path d="M1111.64,1105.76c-.79,9.52,2.11,18.69,2.72,28.06.22,3.5,1.05,7.75-2.53,9.84s-5.55-2.27-8.23-3.69c-10.93-5.78-21.78-11.71-32.64-17.6-2-1.07-3.92-2.84-6.26-1.25s-1.37,4.13-.76,6.23c1.64,5.64,3.8,13.71-2.9,14.73-7.92,1.2-6.07-8.07-7.32-13.38-1.55-6.63-3-13.28-4.52-19.92-.68-3-.93-6,2.14-7.83,2.88-1.72,5.69-.82,8.08,1.2,11.52,9.72,25.6,15.39,37.87,23.92,2,1.41,4.18,3.68,7,2,3.08-1.79,1.38-4.58,1-7-.9-6.08-1.63-12.2-2.82-18.22-.67-3.44-.88-6.54,2-8.91,1.54-1.25,3.67-2,5.49-1,3.33,1.82,1.69,5.17,1.85,7.91A42.08,42.08,0,0,1,1111.64,1105.76Z"/><path d="M914.63,1150c-12.13,3-23.29-3.2-34.79-7.49a16.75,16.75,0,0,1-6.2-4.51c-2-2.24-1.19-4.87.41-7.16,1.16-1.66,2.62-3,4.82-2.67,2.64.37,2.57,2.49,2.58,4.45,0,3.72,2.6,5,5.57,5.75a94.68,94.68,0,0,0,10.41,2.57c5,.73,12.05,4.19,14.35-.93,2.39-5.35-5.59-6.21-9.13-8.84-7.74-5.75-11.55-16.34-8.73-25.07a23.41,23.41,0,0,1,22.29-15.59c3.52.12,5.49,1.62,5.73,5.17.27,3.95-1.35,6.45-5.56,6-6-.58-11.86.65-13.71,6.64-2.1,6.82,1.71,12.33,7.11,16.83,5.08,4.25,10.42,7.73,17,9,5.34,1,8.92,3.37,8.57,9.7-.4,7.34-6.1,5.37-10.11,6C922.09,1150.37,918.78,1150,914.63,1150Z"/><path d="M758.88,660.06c-1.3-9.65-2.5-19.32-3.93-28.95-.66-4.48-3.31-7.35-8.08-6.22-7.87,1.88-16.39,0-23.85,4.25a11,11,0,0,1-3.79.79c-5.29.78-11.16,1.72-11.94-5.74-.8-7.62,5.09-7.73,10.54-7.81,8.13-.12,16.26-.39,24.39-.43,3.78,0,7.11-.64,9.24-4.16,2.6-4.28,5.71-3.9,9.94-2,4.51,2,4,4.63,4.4,8.93,1.72,17.48-1.94,35.64,6.08,52.41,2.23,4.68-2,6.49-5,8-3.25,1.65-6.52,1.09-7.12-3.54-.67-5.12-1.22-10.25-1.82-15.38Z"/><path d="M142.88,631.47c-1,7.75,3.83,14.43,4,22,.26,9.21-2.7,11.75-10.78,8.05-7.33-3.35-15-6.32-21.22-11.64-1.55-1.31-3.06-2.77-5.1-2-2.8,1.13-2,3.73-1.76,5.94.59,5.92,3.87,15-4.28,15.44-8.44.46-4.58-9.5-5.92-14.93-1.39-5.63-.68-11.63-3.74-17-2.1-3.69-2-7.66,2.54-10,3.9-2,7.36-1.73,10.52,1.79,6.09,6.8,12.89,12.78,21,17.07,2.28,1.2,4.67,3,7.19,1.09s.36-4.1,0-6.23c-.8-4.47-1.22-9-2-13.47-.67-3.63-1.93-7.83,3.3-8.42,4.74-.54,6.92,2.78,6.68,7.47C143.23,628.23,143,629.85,142.88,631.47Z"/><path d="M1053.21,773c12.89-.12,23.33,5.49,32.18,14.07,8.23,8,6.57,19-3.13,25.26a60.48,60.48,0,0,1-17.78,7.37c-9.82,2.53-21.41-4.66-24.42-14.57-3.63-11.94,1.1-27.64,9.44-31.2A24,24,0,0,1,1053.21,773Zm7.35,36c8.82,0,20.13-5.71,20.42-10.28.32-5.26-14.76-15.54-23.07-14.89-7,.54-9.8,5.48-9.5,12.26C1048.76,803.93,1051.81,809.19,1060.56,809Z"/><path d="M56.9,786.23c1.39-4.08-4.47-12.72,3.43-13.21,8.8-.54,3.87,8,4.28,12.84.52,6.15,1.7,12.34,1.32,18.44-.59,9.39-4.89,10.86-12.64,5.6-8.17-5.54-14.52-12.91-21.36-19.82-1.47-1.48-1.85-4.92-4.81-3.81-3.35,1.27-1.81,4.47-1.55,6.85.69,6.13,1.71,12.23,2.46,18.36.31,2.56.79,5.29.24,7.72-.73,3.23-.54,8.2-5.3,8.08-5.54-.13-3.34-5-3.81-8.28-2.09-14.44-.91-29.18-4.2-43.5-.83-3.59-1.11-7.28,3.33-9,4.6-1.8,6.58,1.54,8.39,4.63,6.44,11,17.94,17.69,24.53,28.58.86,1.42,2.34,2.73,4,2,2-.85,2.35-3,2.28-5C57.38,793.43,57.13,790.18,56.9,786.23Z"/><path d="M877.81,624.22c10,1.54,21.68.43,30.78,9.44,10.2,10.08,8.36,19.8-4.73,25.54-9.56,4.2-19.57,4.87-29.64,4.95-9.39.07-14.12-5.07-15.2-14.31-.77-6.61.65-13.08,2-19.25C862.82,622.14,871,625.72,877.81,624.22Zm7.84,30.53c4.54-.62,9.82-.29,14.75-2.39,2.7-1.15,5.8-1.86,6.26-5.4.51-4-2.6-5.69-5.37-7.33-8.18-4.85-17.45-4.65-26.49-5.36-3.68-.28-4.94,2.4-5.76,5.44C866.24,650.11,871.78,655.34,885.65,654.75Z"/><path d="M883.31,806.54c-.92-6.67-1.7-14.13-3.06-21.48-.94-5,.7-8.54,5.2-10.17,4.91-1.77,5.45,2.62,7.26,5.71,6.9,11.81,17.46,19.9,29,26.66,6.08,3.56,8.39,1,7.22-5.67s-1-13.63-4.28-19.92c-1.91-3.65-1.5-7.54,2.87-8.77,4.59-1.28,5.13,2.82,5.63,6,1.62,10.26,3.42,20.5,4.59,30.81,1.25,10.91-1.89,13.08-11.42,8.76-10.16-4.6-18.65-11.5-26.67-19.06-1.65-1.55-2.87-3.9-5.6-2.63-2.58,1.19-2.09,3.79-2.11,6,0,3.24.52,6.56,0,9.72s-1,7.18-5.51,6.51c-3.53-.52-4.11-3.68-3.72-6.88C883,810.57,883.08,809,883.31,806.54Z"/><path d="M706.51,940.11c-.15,10.52-14.78,22.64-28.13,22.08-9.79-.4-11.24,2.33-8.79,10.93,1.28,4.51,3.14,9.39,1.65,14.35-.62,2.06-.65,5-3.59,5.13-2.65.16-4.34-2.42-4.76-4.25-1.07-4.69-1.32-9.58-1.77-14.4-.51-5.38,1.09-11.11-3.37-15.77-.86-.9-1-3.39-.43-4.6,3.88-7.9,2-15.89.84-23.9-.32-2.16-1.26-4.84,2-5.61,2.16-.51,3.76.82,4.34,2.95,1.29,4.77,3.5,4.28,7.91,3.1a46.61,46.61,0,0,1,26.86.72C704.15,932.45,706.89,935.62,706.51,940.11ZM688,935.47c-7.84,0-14.3,1.85-19.6,6.66-3.56,3.24-3.29,7.62-2.51,11.85a4,4,0,0,0,5.05,3.41c10-2.07,19.6-5.11,26.51-13.29,3.06-3.63,2.59-6.62-2.48-7.73A68.9,68.9,0,0,0,688,935.47Z"/><path d="M1056.58,983.05c0-1.62,0-3.25,0-4.88-.55-24.33,3.8-21-22.33-20.51a78.26,78.26,0,0,0-13.53,1.72c-3.8.75-6.54.45-7-4.1s1.07-7.74,6.35-7.56c13.67.48,27.21.23,40.68-3.07,6.4-1.57,9.49,3.14,7.45,8.85-4.43,12.37-2.33,24.9-2.34,37.4,0,2.32.13,4.7,2.64,5.83,4,1.78,3,4.48,1.39,7.2-2,3.43-4.82,5.14-9,4.15-3.5-.85-4.58-3.11-4.52-6.47.11-6.18,0-12.37,0-18.56Z"/><path d="M831.66,951.27c-4.83,2.14-9.47,5-14.52,6.24-6.75,1.61-8.37,5-6.28,11.13,1,3.06,1.17,6.46,2.46,9.37,1.37,3.11,2.5,7.38,7,7.13,3.82-.22,6.22-2.94,7.59-6.65,1-2.81,1.73-7.71,6.07-5.37,3.71,2,1.22,6.18-.59,8.56-4.08,5.35-5.92,14.88-14.67,13.32S806,986.21,805,977.07c-1.06-10.31-3-20.55-4.94-30.75-1.25-6.6,1.37-9,7.65-10.77,13.47-3.72,27,.4,40.41-1.47,2.69-.38,4.5.9,4.17,3.88-.39,3.41-2.22,5.33-5.9,4.82-10.4-1.44-20.73-.48-31.08.71-4,.46-7.56,1.19-6.78,6,.86,5.37,5,3.94,8.48,3,4.55-1.23,9-2.7,13.55-4.07C830.94,949.39,831.3,950.33,831.66,951.27Z"/><path d="M904.28,992.27c-10.58.41-20.5-2.85-28.38-11.11-2.42-2.54-5.17-5.81-1.07-9.12,4.46-3.6,5.85.23,7.86,3.41,4,6.33,16.33,10.38,23.38,8.09,1.58-.51,3.17-1.15,3.33-3,.22-2.67-1.81-3.95-3.66-5.32-7.16-5.32-13.2-11.57-16.07-20.27-1.79-5.41-3.11-11.41,1.86-15.4,5.38-4.33,12-6.43,19.22-4.59,1.87.47,3.9,1.31,3.87,3.7,0,2.92-2.27,3.32-4.67,3.84-14.13,3-15.85,7.69-6.65,19.13a65.34,65.34,0,0,0,11.46,10.48c5.1,3.89,10.52,8.43,8.47,15-2.17,7-9.93,4.05-15.33,5.19A22,22,0,0,1,904.28,992.27Z"/><path d="M188.2,769c4.8,0,6.76-.08,8.7,0,3.13.15,7-.75,8,3.58,1.13,4.77-2.36,6.19-6.06,7.07s-6,2.76-4.78,6.86c2.67,9,.4,18.85,4.74,27.6a7.11,7.11,0,0,1-.25,7.46c-1.37,2-3.32,3.17-5.85,2.65-3.6-.74-4.62-3.54-4.32-6.63,1.09-11-2.86-21.13-4.73-31.63-1-5.55-2.57-7.61-9-6.09-8.14,1.93-16.71,2.23-25.12,2.78-3.88.25-8.14-.17-8.42-5.72-.32-6.46,4.65-5.18,8.19-5.16A310,310,0,0,0,188.2,769Z"/><path d="M606.08,661.33c-.43-8.1-.81-16.2-1.33-24.28-.38-5.85-4.19-8.36-9.31-7-7.36,2-15,.19-22.22,2.29-3.45,1-5.64.09-6.4-3.68s.24-7.06,4.27-7.21a207.85,207.85,0,0,0,42.29-5.89c2.25-.56,3.69.8,4.65,2.67,1.33,2.61,1.39,5.5-1.27,6.9-5.12,2.71-4.06,6.59-3.08,10.86,2.19,9.4-.19,19.34,3.81,28.68,1.44,3.36.94,8.5-5,8.19C604.69,672.49,605.77,666.56,606.08,661.33Z"/><path d="M457.43,637.93c-.07-5.51-.44-9.19-2.45-12.84-2.18-4,.3-7.16,4.06-8.33s4.76,2.34,5.65,5.12c2.35,7.36.63,14.88-.11,22.13-.77,7.6-3.45,15.11-6,22.4-2.33,6.55-7.55,7.39-10.28,1.4-5.84-12.84-14-24.14-21.56-35.85-2.42-3.75-1.37-6.88,2.52-8.9,4.22-2.19,6.49-.16,8.33,3.7,2.93,6.15,6.29,12.09,9.42,18.14,1.44,2.78,1.75,7.29,5.77,6.9,5.2-.51,2.66-5.74,3.82-8.75A18.85,18.85,0,0,0,457.43,637.93Z"/><path d="M131.93,796.47c.26,11.45-7.79,18.69-16.81,24.75-5.42,3.64-15.87-1.4-19.41-8.71-5.78-11.92-5.34-24.59-3.91-37.3.33-3,2.6-5.85,5-3.57,5,4.63,10.43,2.37,15.69,2.77C124.67,775.35,132.31,783.56,131.93,796.47Zm-23.56-14c-3.57.77-9.7-2.84-9.8,5.91-.19,15.62,4,25.57,11.61,25.56,7.45,0,14.11-8.56,14.77-19C125.44,787.35,119.7,782.88,108.37,782.52Z"/><path d="M589.47,1108.15c1,12.07,1.81,22.46,2.76,32.84.27,2.9.65,5.92,3.81,7.43,2.23,1.07,4.21,2.46,2.3,5.18-1.51,2.14-3.6,4-6.36,4.09-3.2.07-4.45-2.25-4.72-5.13-1.11-11.66-2.42-23.3-3.23-35-1.19-17-4.25-19.41-19.07-11.76-6.88,3.56-13.9,2.43-20.8,3.74-2.19.42-5.08-.1-5.67-2.69-.8-3.51,2.56-4.39,4.87-4.85,8.61-1.72,17.33-2.83,25.94-4.54q16.69-3.3,33.26-7.24c3.33-.79,5.84-.48,7.48,2.59a8.75,8.75,0,0,1,.2,8.47c-2.13,3.72-5.28,1-7.76.16C591.3,1097.55,589.32,1098.75,589.47,1108.15Z"/><path d="M647.21,1141.24c-15,.24-25.48-11.36-23.18-25.33,1.08-6.59,4.09-11.64,12.46-10.1,10.14,1.87,20.81,1.21,30,7.16,8.17,5.28,9,11.19,2.25,18.19C662.66,1137.45,655.71,1141.91,647.21,1141.24Zm-2.48-25.66c-3.76,1.77-12.44-3.23-11.74,6.2.54,7.23,6.73,11.39,14,10.82,6.55-.52,15.93-1.2,16.14-9.18.2-7.47-9.26-6.05-14.84-7.8C647.38,1115.34,646.33,1115.58,644.73,1115.58Z"/><path d="M333.47,778.14c3,.27,4.73,2.53,6.37,5,3.53,5.38,7,10.83,10.72,16.06,1.2,1.68,1.79,4.69,4.65,4.27s2.86-3.07,3.25-5.33c1.08-6.37,1.89-12.82,3.54-19,.69-2.61-.54-8.06,4.22-7.17,4.24.79,7.66,5.39,6,9.67-4.06,10.67-4.13,22.19-8,32.79-1.09,2.94-1.78,6.8-5.81,7s-6.35-2.63-8.26-5.87c-5.54-9.39-9.83-19.7-19.95-25.63-3.24-1.9-1.41-5.25-.89-8A4.12,4.12,0,0,1,333.47,778.14Z"/><path d="M1147.51,639.88c11.5-1.53,25,2.22,38.07-2.41a6.09,6.09,0,0,1,8.06,3.67c1.11,2.71,2.47,5.18,0,8.09-2.64,3.09-5.18,1.93-8.58,1.59-18.47-1.82-37-.38-55.56-.34a68,68,0,0,1-13.55-1c-3.35-.69-5.88-3.39-5-7.22.83-3.43,3.93-2.41,6.51-2.39C1126.93,639.94,1136.37,639.88,1147.51,639.88Z"/><path d="M359.63,946.65c-.42-5.15-1-9.35-1-13.55,0-2.68,1.11-5.48,4.61-4.79,3,.58,6.59,2.76,5.2,5.77-5.47,11.92-1.85,25.11-5.92,37.09a71.2,71.2,0,0,1-4.25,9.78,5.61,5.61,0,0,1-6.59,3c-2.79-.61-4.2-2.38-4.74-5.36-2.28-12.4-9.07-22.51-17-31.95-3.14-3.75-4.48-7.82-.25-11,5.07-3.82,7,1.7,8.48,4.65,3.69,7.54,6.51,15.49,9.8,23.23,1,2.29,1.69,5.45,4.87,5.27s3.94-3.31,4.39-5.74C358.35,957.31,359,951.51,359.63,946.65Z"/><path d="M288.36,624c-.35-4.35.92-6.8,4.2-7.77,4.36-1.29,4.59,2.4,5.65,5,3.41,8.28,2.28,17.34,4.35,25.89,1.2,4.92.73,9.88,4.77,14.34s-1,7.85-4.27,10-6.9.72-7.2-3.42C294.73,652.73,292.64,637.67,288.36,624Z"/><path d="M530.79,665.86a6.72,6.72,0,0,1-3.94,5.91c-2,.92-3.75.13-5.21-1.5-2.7-3-3.75-6.45-4.33-10.54-1.61-11.4-1.32-23.25-8.67-33.38-2.62-3.61.11-8,3.88-9.63,4.37-2,5.28,2.1,6.37,5.19a121.82,121.82,0,0,1,6.66,31.34C526,658.54,529.3,662,530.79,665.86Z"/><path d="M160.38,1094.42c10.54-.68,21.19,2,31.7-1.36,3.11-1,4.63,1.41,5,4.42s-1.29,4.41-3.91,4.28c-9.79-.49-19.21,3.63-29.06,2.17-3.16-.47-7.18-1.48-7.08,3.6.08,4.1.33,8.65,6.39,9.2,9.28.85,17.87-1.92,26.47-4.59,1.89-.59,3.86-2.09,4.76.49.8,2.3-1.4,3.47-3.36,3.86-9.45,1.89-17.27,8.93-27.44,8.63a3.32,3.32,0,0,0-3.65,3.7c.9,6.73,2,13.56,5.35,19.5,2.07,3.64,5.59,2.29,8.53.39a30.9,30.9,0,0,0,11.62-14.06c.78-1.8,1.8-4,4.13-2.77.93.5,1.3,2.88,1.2,4.36-.38,5.53-15.06,24.53-20.17,25.32-6.94,1.06-10.85-3.39-12.69-9.45a175,175,0,0,1-4.6-18.92c-.67-3.58-.57-7.1-4.91-8.56-2.19-.74-2.64-2.89-1.91-4.89,2.45-6.65,3.17-12.93-.94-19.47-1.58-2.51.78-5,3.87-5.31C153.21,1094.59,156.8,1094.58,160.38,1094.42Z"/><path d="M99.49,1153.57c-5.17,1.25-10,0-14.82-.36-4-.33-5.32-3.26-6.16-6.54-.4-1.55-.88-3.36.89-4.32s2.79.15,4.12,1.35c4.6,4.15,26.69,1.5,29.68-3.41,2.23-3.65-1-5.23-2.94-7.16-7.75-7.62-12.46-16.43-11.62-27.7.41-5.51,3.27-9,8.06-11.15,3.11-1.39,5.85-.52,7.44,2.5a5.72,5.72,0,0,1-1.07,7.12c-6.75,7.2-6.95,13.94-.08,20.77,3.38,3.36,6.54,7.37,11.58,8.59,3.81.92,5.19,3.27,5,7.12-.17,3.64-1.51,6.13-5,7.58C116.5,1151.39,108.22,1154.17,99.49,1153.57Z"/><path d="M63.93,1134.25c-1.14-6.82-2.47-16.46-4.45-26-1.4-6.68-5.54-9.52-12.9-8.44-4.76.7-12.71,4.16-13.5-3.9-.84-8.7,7.88-6.92,13.16-7.28,7.82-.52,15.6-.62,22.95-3.75,3.08-1.32,6-1.28,7.32,2.19,1.24,3.28.74,7.22-2.85,8.27-7.08,2.06-6.4,6.43-5.54,12.1,1.8,11.8,0,24,4.32,35.59,1.09,3,.59,6.29-3.15,6.89-3.32.53-5.56-1.82-5.93-5.09C63.08,1142.33,63.59,1139.71,63.93,1134.25Z"/><path d="M241.62,1162.11c-6.15-1.24-10.06-4.83-12.17-10.88-5.17-14.85-3-31-8.37-45.84a4.77,4.77,0,0,1,4.36-6.37c4.14-.22,5.09,3.73,5.47,6.84,1.09,9,1.12,18.18,2.8,27.05,1.13,5.94-.42,14.57,7.25,16.69,8.95,2.48,17-2.22,24.15-7.51,1.26-.93,1.92-2.63,3-3.78,1.62-1.66,3.52-3.3,5.8-1.17a3.86,3.86,0,0,1,.25,5.36C265.84,1153,255.37,1160.09,241.62,1162.11Z"/><path d="M303.8,1129.09c-14.32-.43-16.2,2-11.3,13.55,2.06,4.84,3.11,9,1.12,13.84-.84,2.07-.92,4.85-4.09,4.31-2.45-.42-3.75-2.23-4-4.82-.65-6.11-1.45-12.21-2.14-18.33-.43-3.86-.48-7.78-4.08-10.47-2.44-1.84-2.63-4.36-1.17-6.94,2-3.47,1.16-6.89.05-10.35-1-3.11-2.59-7,1.65-8.26,3.37-1,5.48,3.13,5.72,5.45,1.07,10.4,9.31,12.41,16.56,12.59,5.92.16,11.94,2.06,18,.5,2.06-.54,5-1.81,5.34,1.69.23,2.28-2,4.31-4.21,4.72C314.49,1127.76,307.73,1128.54,303.8,1129.09Z"/><path d="M334.73,1093.72c-1.58,3.65-3.9,7.78-8.22,6.74-9.91-2.37-20,.38-29.87-2-3.6-.85-6.95-1.56-9.25-4.63a4.64,4.64,0,0,1-.14-5.48c1.08-1.78,2.66-3,4.83-2.24,11.39,4,23.12,2.52,34.76,2.23C330.8,1088.28,334,1088.92,334.73,1093.72Z"/><path d="M15.05,1091.08c5.24-.36,6.68,2.11,7.13,5.23,1,7,2,14.09,2.56,21.17.48,6.13.21,12.08,5.67,16.79,2.5,2.15,1.51,6.14-.24,9.1-1,1.71-2.76,3.35-4.77,2.65-3.32-1.16-4.31-4-5.13-7.49-2.89-12.2-2-25.12-7.63-36.89C11.16,1098.56,9.56,1092.44,15.05,1091.08Z"/><path d="M822.78,662.11c-.22,3.37-2.24,4.86-5,5.4-2.91.57-5.33-.79-6.06-3.52a36.4,36.4,0,0,1-.74-8.63c-.16-8.43-.12-16.81-5.43-24.15-2.37-3.28-2.1-7.09,1.37-9.43,4.68-3.15,6.22,1.55,8,4.22a31.85,31.85,0,0,1,5.47,17.29C820.56,649.69,819.79,656.29,822.78,662.11Z"/><path d="M844.33,810.89c-3.32-9.17-2.19-21-8.15-31-1.11-1.86-3.87-3.21-1.31-5.52a8.5,8.5,0,0,1,5.15-2.14c2.64,0,3.52,2.21,4,4.66,1.78,9.52,3.68,19,5.56,28.53.44,2.22.87,4.44,1.45,6.63.7,2.64,3.4,5.28.36,7.92a4.69,4.69,0,0,1-5.47.3C842.5,818.38,843.8,815.29,844.33,810.89Z"/><path d="M433.92,1606c-3.44,5-7.38,2.62-10.77,4-2.55,1.07-6.67-1-7.58,3.19-.69,3.16,1.24,5.74,3.34,8,3,3.28,8.37,5.41,6,11.39a4.14,4.14,0,0,1-4.92,2.66c-5.51-1.67-5.68-7.11-7-11.39-1.78-5.86-4.19-11.75-11-10.82-7.87,1.08-17.42.73-21,10.59-1.5,4.1-2.54,8.33-5.17,11.93-1.24,1.71-2.55,3.28-4.91,2.26s-2.48-3-1.71-5.07c6.27-16.53,11-33.52,15.51-50.6.81-3.09,3-6.46,7-6.27,3.84.18,2.37,4.1,3.57,6.15,3.88,6.61,8.21,12.95,12.47,19.34,2.4,3.6,6.07,3.3,9.89,3.32C423.06,1604.81,428.49,1605.58,433.92,1606Zm-40.66,1.87c2.37-1,7.75.89,7.06-5-.48-4.09-3.52-8.33-7.2-8.67-5.07-.48-5.36,5-6,8.77S388.84,1608.4,393.26,1607.9Z"/><path d="M127,1605.48c1.54-.15,5.89-.33,10.14-1.06,2.69-.46,5.53-2.05,5.93,2.33.31,3.43-1,5.71-5.06,5.79-7.36.16-14.71.68-22.06,1-10.51.42-13.1,4.41-8.89,13.89a9.86,9.86,0,0,0,1.65,2.5c2.29,2.59,2.67,5.28.74,8.25-1.25,1.92-3,2.74-5.13,2.08-3.32-1-4.84-3.92-5.14-6.88-1-10-1.73-20-2.29-30-.28-5,.23-9.58-4.92-13.28-3.7-2.65-2-6.75,2.75-6.25,14.79,1.55,29.41.22,44.08-1.13,2.45-.22,4.93.5,5.14,3.51.23,3.33-2,4.88-5,5-8.36.4-16.73.7-25.1.82-3.49,0-7.12-.37-7.48,4.38s1.84,7.73,6.81,8.14C116.85,1604.89,120.53,1605.07,127,1605.48Z"/><path d="M70.75,1617.57c.24,12.36-8.63,21.35-21.39,21.7-11.94.33-24.13-10.88-24.28-22.32-.16-13.08,9.67-28.86,18.11-29C56.15,1587.62,70.48,1603,70.75,1617.57Zm-19.67,12.6c5.63-.78,12.52-2.26,12.8-11.69s-9.48-21.2-16.86-20.74-14.12,8.16-13.83,15.82C33.57,1623.77,40,1630.37,51.08,1630.17Z"/><path d="M918.23,1613.12c.75-6.45-.48-12.73-1.63-19-1.06-5.86,1.63-10.2,6.53-12.25s5.43,3.7,7.52,6.26c6,7.29,12.28,14.28,20,19.68s9.38,4.4,10.38-4.65a139.88,139.88,0,0,1,2.47-14.81,10,10,0,0,1,8-8.06c4.46-1,5.66,2.57,7.67,5.11,8.28,10.43,7.09,23.48,9.81,35.44.73,3.19.26,7.1,4.84,7.69,2.65.35,6.14-.13,5,4.07a11.49,11.49,0,0,1-8.27,8.11c-3.38,1-6.14-.37-7.25-3.69a75,75,0,0,1-4.11-17.53c-.47-5.65-1.82-11.23-2.91-16.82-.33-1.68-1.22-3.33-3.14-3.51-2.59-.24-3.55,1.84-3.78,3.81a96.51,96.51,0,0,0-.69,12c0,7.63-3.46,9.4-10.29,7-7.75-2.68-14.37-7.16-20.72-12.16-1.82-1.44-3.55-3.57-6.14-2.38-3.24,1.5-2.09,4.46-1.78,7.07a45.24,45.24,0,0,1,.49,6c-.08,4.71-1.3,9.08-6.93,9.3-6.39.24-5.1-4.75-5.08-8.67C918.25,1618.49,918.24,1615.8,918.23,1613.12Z"/><path d="M758.24,1610.4c-.06-5.84,1.1-10-1.42-12.94-5-5.94-1.73-8.74,3.42-11.42,5.92-3.09,8.68-.41,10.24,5.14,2.51,8.87,9.95,14.21,15.55,20.75,4,4.66,8.3,1.53,10.56-2.6,4.34-7.89,10.53-14.72,13.49-23.37,1.07-3.13,2.57-5.43,6.31-5.33s3.5,3.09,4.77,5.39c5.5,10,7.74,20.61,7.79,31.85,0,2.78.29,5.46,3.74,6.24s7.21,1.8,5.19,6.43a10.59,10.59,0,0,1-9.53,6.45c-4.4.2-5.61-3.15-6.19-6.59-1.27-7.6-2.14-15.27-3.54-22.85-.5-2.73-.18-6.67-4.23-7.13-3.53-.4-4,3.23-5.09,5.41-3.17,6.23-8.47,11-10.92,17.81-2.12,5.88-6.45,6.07-11.15,2.45a58.65,58.65,0,0,1-12.5-13c-.86-1.23-2.79-2.74-3.91-2.53-2.31.45-2.17,2.9-2.26,4.94-.26,5.72,3.26,11.17,1.47,16.89-.81,2.58-.15,7.07-4.16,7-3.59-.1-5.61-3.42-5.94-7C759.21,1624.29,758.68,1616.26,758.24,1610.4Z"/><path d="M1087.93,1608.39a75,75,0,0,0-1.76-16.78c-1.05-4.3-.18-8.45,4.07-10.32,4.65-2,6,2.08,8.07,5.23,9.43,14.3,19,28.57,36.94,33.56,2.72.76,5.52,4,8.13.94s-.58-5.6-2-8.07c-4.34-7.5-9.63-14.51-11.58-23.22-.75-3.33-2-7.18,2.66-8.17,4.07-.86,4.65,3,5.34,5.87,2.52,10.64,9.64,19,13.79,28.88,2.18,5.17,5.35,12,1,15.88-3.84,3.35-11,1.88-16.22-.65-10.22-4.92-21.13-8.68-29.36-17.13-4.65-4.79-6.33-2.78-7.19,3.06-.74,5,1.38,13.79-6.82,13s-4.68-9.49-5.62-14.93C1087.06,1614,1087.57,1612.23,1087.93,1608.39Z"/><path d="M1050.78,1578.22c7,0,11,.11,15.06,0,3.25-.11,5.27,1.08,5.19,4.49-.07,3.26-2,5-5.24,4.57-8.07-1-16.11-.33-24.1.48-6.12.63-15.51.8-15.27,7.66.22,6.45,9.33,3.47,14.64,3.93a38.44,38.44,0,0,0,17.73-2.86c2.18-.87,5-2.08,6.17.58s-1.66,4.29-3.89,4.8c-7.47,1.69-14.11,6.32-22.21,5.84-4-.24-9,.06-9.73,5-.74,5.3.62,11.17,5.42,14.32,5.7,3.74,8.06-2.36,11.33-5.26,2.24-2,3-7.81,7-5,3.34,2.38.92,7.48-1.24,9.91-4.67,5.24-8,12.79-17.13,12.11-9.39-.71-11.91-8.09-14.11-15a183.25,183.25,0,0,1-5.76-25.46c-1.15-6.94,7-17.31,14.06-18.16C1037,1579.16,1045.4,1578.68,1050.78,1578.22Z"/><path d="M849.64,1614.67c.08-17.05,6-25.09,18.39-24.92,18.77.25,29.71,7.74,29.36,20.09-.24,8.23-21.4,24-31.83,23.69C855.56,1633.25,849.58,1626.17,849.64,1614.67Zm21.55-15.5c-5.52-1.54-8.35,1.21-9.84,6-1.64,5.27-5.16,10.7.67,15.63,4.44,3.77,9,2.3,12.8-.7,5-4,15.45-4,13.26-13.68C886.11,1597.77,877,1601.12,871.19,1599.17Z"/><path d="M1186.68,1612.57c0-3-.08-6,0-9,.28-8.35-3.12-11.88-11.71-9.59-6.44,1.72-13.41.18-19.74,3.23a3.94,3.94,0,0,1-5.72-2.44c-.78-2.34,1.09-3.7,2.78-4.79,7.14-4.63,15.25-4.62,23.3-4.68,4,0,8.06,1,10.79-3.32,1.83-2.85,4.91-4.14,7.86-2.55,3.26,1.77,5.78,4.76,5.52,8.9a42.69,42.69,0,0,1-1.52,6.85c-3.18,13.48-5.85,26.9.36,40.38,1.6,3.49,1.8,8-2.84,9.17-4.93,1.21-7.2-2.41-7.48-7.08C1187.82,1629.27,1185.78,1621,1186.68,1612.57Z"/><path d="M411.67,1472.78c-1.09,6,1.43,9.3,5.78,11.3s3,5.46,2.67,8.66a4.29,4.29,0,0,1-3.89,4c-3.73.64-5.43-1.67-6.69-4.71a49.73,49.73,0,0,0-2.48-4.36c-2.54-4.63-4.92-12.4-10.25-10.73-7.27,2.28-17,3.52-19.41,13.71-.77,3.26-1.82,6.47-2.89,9.65-1.26,3.72-3.92,5.57-7.78,4.4s-3.78-4.78-2.63-7.52c3.51-8.28,5.55-16.94,7.74-25.6,1.38-5.48,4.11-10.55,3.5-16.54-.48-4.66,3-7.44,6.52-9.31,4.18-2.23,6.84,1.27,9.34,3.92,5.85,6.22,7.94,16.45,19.37,16.78C412.92,1466.49,412.27,1471,411.67,1472.78Z"/><path d="M704.85,1486.11c.3-10.37-1.57-20-8.06-28.51-1.83-2.38-3.13-5.29-1.15-8.41,1.47-2.32,3.88-2.68,6.22-2.43,4.06.43,3.5,4.32,4.72,6.89,1.46,3.09-.3,8.45,4.81,8.86,4.37.35,5.22-4.52,7.54-7.22a46.11,46.11,0,0,1,7.8-7.75c5.73-4.11,12.08-9.31,18.27-1.08,4.92,6.52,1,18.62-6.77,22.52-2.82,1.42-7.81.92-7.44,5.32.4,4.81,5.34,4.22,8.83,4.63,7.84.93,14.76,7,23.39,3.93,2.08-.73,3.71,1.3,3.54,3.7-.28,3.67-1.68,6.94-5.95,6.65-11.32-.79-22.71-1.73-33.22-6.51-10.06-4.57-11-4.12-13.14,6.1-.7,3.34-1.22,8.38-6.1,7.91s-4.86-4.57-3.85-8.6A38.47,38.47,0,0,0,704.85,1486.11Z"/><path d="M807.69,1444.66c5.45.89,8.29,6,11.7,9.85,3.18,3.55,5.61,7.39,10.77,8.23,2,.32,4.52,1.28,4,3.67-1.25,5.68,2.75,7.65,6.27,10.16,3.21,2.28,5.6,5,3.6,9.28-1.09,2.35-1.47,5.85-4.83,5.62-4.07-.27-6-3.76-7.94-7-6.82-11.45-10.57-12.54-22.83-7.37-4.12,1.74-6.65,4.22-7.16,8.75-.21,2-.36,4.36-1.52,5.72-2.84,3.36-2.36,11.84-9.46,8.85-6.38-2.69-3.06-8.4-1-13,.82-1.79,2.13-3.7.43-5.58-2.19-2.42-4.29-.39-6.36.41-3.22,1.25-6.49,2.39-9.26-.73a4.71,4.71,0,0,1-.62-5.63c1.71-3.18,4.77-3.67,7.83-3.17,11.26,1.86,13.13-4.86,12.92-13.72C794.12,1453.8,802.19,1444.93,807.69,1444.66Z"/><path d="M1193.94,1456.07c.1,10.81,2.62,21.23,4.72,31.74.94,4.72,2.75,10.71-1.89,14s-9.25-.33-14-2.22c-11.11-4.41-20-12-29.62-18.61-1.85-1.27-3.71-3.59-6.15-1.62-1.71,1.37-1,3.6-.74,5.63.75,5.63,4.41,14-3.58,15.14-7.62,1.09-5.66-8.07-7-13.16-1.83-6.77-3.57-13.57-5.39-20.35-1.39-5.15-1.89-10.24,3.48-13.39,6.24-3.66,6.89,2.89,9.47,5.73,11.32,12.47,24,23.2,39.15,30.82,2,1,4,3,6.44,1.21,2.63-1.89,2.29-4.76,1.68-7.36a137.71,137.71,0,0,1-3.83-26.86c-.13-4.06-2.8-10.32,3.52-10.62C1197.11,1445.82,1194,1452.17,1193.94,1456.07Z"/><path d="M885.22,1447.61c4,.1,8.34-.65,10.52,4,1.09,2.29,4.07,4.34,2.37,7.19-2.06,3.45-4.71.5-7.05-.09-16-4-23.18,2.76-20.32,19.1,3.66,20.93,25.71,32.16,42.24,21.41,6.52-4.24,11-9.77,10.25-18.26-.25-2.91-.42-7.09,4-6.31s2.28,4.5,1.71,7.34c-4.05,20.32-10,27.78-23.85,30-23.73,3.76-40.1-10.76-42.92-38.08C860.38,1456.38,868.09,1447.59,885.22,1447.61Z"/><path d="M651.82,1465c3.43-.12,7.71-.19,11.9-1.91,2.4-1,5.85-1.24,6.84,2,1.12,3.72-2.12,5.68-4.93,6.36-5.5,1.33-11.2,1.85-16.81,2.76-10,1.62-13,7.19-8.86,16.43.67,1.49,2.22,2.6,2.84,4.1,2.06,5-1.49,8-5.1,9.2s-4.88-2.46-5.21-5.64c-1-10-2.08-19.94-2.89-29.93-.43-5.22,1-10.92-6.23-13.08a3.47,3.47,0,0,1-1.36-5.83c3.12-3.15,5.44-10.76,9.64-8.55,9.8,5.15,18.05-.05,26.91-1.19,4.64-.59,9.23-1.69,13.88-2.14,3.19-.31,6.39.84,6.7,4.49.33,3.81-3,3.24-5.64,3.85q-14.1,3.27-28,7.18c-3.91,1.09-9.87,1.11-8.64,7.39,1,5.06,6.27,3.91,10.08,4.45A42.8,42.8,0,0,0,651.82,1465Z"/><path d="M1065.23,1452.44c12-.93,21.55,1.12,28.12,10.41,5.84,8.24,4.75,15.31-3,21.68s-15.83,11.11-26.29,10.77c-8.82-.29-14.18-5.18-15.14-14s1.59-17.26,3.12-25.59C1053.53,1447.72,1061.9,1454.3,1065.23,1452.44ZM1057,1473.6c-1,9.08,3.68,12.33,11.1,12.89,7.07.52,20.9-9.11,21-14.48.12-4.83-11.1-12.51-18.76-12.86C1062,1458.78,1057.55,1463.79,1057,1473.6Z"/><path d="M981.39,1492.81a4.17,4.17,0,0,1-3.9,4.57c-4.63.54-5.46-3.2-5.71-6.63q-1.18-16.07-2-32.14c-.3-6.35-2.24-9.09-9.41-7.13-7.86,2.15-14.89,6-22.41,8.86-4,1.48-8.64,3-10.38-2-1.92-5.5,3.53-5.74,7.12-7.39,10.08-4.63,21.3-6,31.23-10.51,9.42-4.31,11.89,1.1,12.77,7.73,1.23,9.27.94,18.74,1.4,28.12C980.37,1481,980.84,1485.68,981.39,1492.81Z"/><path d="M1021.55,1463.16c0,7,.05,14,0,21.06,0,3.26,2.25,4.51,4.5,6.06,4.82,3.31,2.66,7,0,10.29-4,5-6.21-.21-8.82-2s-2.21-4.63-2.75-7.25c-2.55-12.27-1.41-24.76-2.42-37.11-.28-3.47.3-7.62,4.44-7.71,4.37-.09,4.52,4,4.43,7.57-.08,3,0,6,0,9.06Z"/><path d="M129.87,1460.74c0,8.36.44,16.76-.1,25.09-.77,11.76-6.19,14.34-16.38,8.89-8.26-4.42-14.59-11.24-22-16.72-1.65-1.21-3-3-5.18-1.75s-1.69,3.38-1.37,5.36c1.23,7.62,2.38,15.22.55,23-.54,2.3-.37,5.06-3.35,5.39-3.29.37-5.23-2.23-5.33-4.88-.62-16.36-2.65-32.55-4.82-48.75a6.5,6.5,0,0,1,4.64-7c3.27-1,2.71,3,4,4.65,9.39,12.08,22.09,20.36,34,29.58,1.52,1.18,3.48,2.36,5.49.72,2.35-1.91,2.46-4.5,2.23-7.31-.76-9.61-1.31-19.24-2.12-28.85-.33-4-.09-8.36,4.59-8.37,4.33,0,3.83,4.86,4.09,8,.35,4.32.09,8.68.09,13Z"/><path d="M28.18,1501.64c2.75-11.76.16-23.17-2.39-34.58-.91-4.09-1.85-9,3.45-9.92,6.46-1.19,4.78,5.14,5.5,8.4,2.26,10.13-1.92,21.12,5.5,30.87,2.43,3.19-2.43,8.47-4.54,12.52a2.77,2.77,0,0,1-4.36.61C28.88,1507.53,27.35,1505,28.18,1501.64Z"/><path d="M536,2163.9c-.64-6.21,0-14.38-3.37-22-.94-2.09-2.72-4.22-.54-6.36,1.67-1.65,3.8-.26,5.72-.08,3.26.31,4.36,2.45,4.9,5.4s-3.1,7.89,1.29,8.78,4-5.24,6.09-8c4.3-5.59,8.21-11.46,14.9-14.46,6-2.69,12.33-4.75,17.08,1.94,4.4,6.19,3.09,16.66-2.68,21-3.68,2.81-8.06,4.73-12.23,6.85-4.87,2.48-6.12,6.12-1.32,9,8.88,5.37,18.63,9.24,29.26,6.55,3-.76,5.42-2.45,8.14,0a4.47,4.47,0,0,1,.61,6.36c-2.1,2.69-3,7.13-8,6.33-15.31-2.48-30.57-5.05-41.47-17.81-1.66-2-2.85-5.66-5.84-4.63-3.49,1.2-2.38,5.22-2.29,8,.14,4.34.86,8.62-.38,12.95-.56,1.92-.42,4.41-2.87,4.71-2.72.34-4.22-1.82-5-4.08C535.77,2178.44,535.87,2172.05,536,2163.9Zm40.45-26.81c.09-4.05-2.46-5-5.85-5-4.17-.11-18,12.4-18.14,16.54,0,1.76.53,3.17,2.5,3.76C560.43,2154,576.29,2142.74,576.49,2137.09Z"/><path d="M609.49,2165.17c-.63-9.36,0-19-2.25-28-1.94-7.9,3.53-10,7.2-13.64,3.21-3.15,5.66,0,7,2.69,4.94,10.29,14.11,16.8,21.66,24.74,5.61,5.91,8.56,3.74,11.46-3,2.2-5.09,1.62-10.53,3.6-15.52,1.14-2.86,1.9-6.09,5.48-6.43,3.85-.37,4.58,3,5.91,5.75,3.92,8,4,16.91,5.8,25.39,1.67,7.76,1.49,15.83,5.71,23.15,2,3.51,1.25,9.3-2.78,10.5-5.06,1.51-7.6-3.19-8.1-7.9-1-9.32-1.43-18.7-2.55-28-.33-2.71-.65-6.89-4.32-7s-3.13,4.07-3.43,6.31c-1.49,11.28-6.23,15.94-19.69,5.56-5.26-4.05-9.58-9.32-14.35-14-2-2-3.36-6.26-6.7-4.9-4,1.62-2.27,6.05-1.57,9,2,8.34,1.58,16.67.73,25-.3,2.91.81,7.79-4.53,7.15-4-.48-4.68-4.3-4.78-7.81-.08-3,0-6,0-9Z"/><path d="M1044.39,2138.42c-.89,7.87,2.71,15,3.46,22.72,1.24,12.5-1.91,14.75-14.15,10.88-8.14-2.58-15.13-7-22.3-11.18-5.92-3.44-8-1.61-7.71,4.49.24,5.72.66,11.42-2.37,16.65-1.26,2.18-1.33,5.76-5,5.38s-5-3-5.47-6.3q-1.57-12-3.07-23.95c-.74-6-1.46-11.79-5.13-17.08-2.83-4.07-3.21-9.51,1.16-12.78s4.69,3.38,7.23,4.27c15.46,5.41,21.75,23.26,37.93,27.63,2.45.66,4.54,3.26,7.28,1.16,2.2-1.69,1.54-4.17,1.34-6.52-.55-6.68-1.21-13.37-1.34-20.06-.06-2.94-1.48-7.82,3.62-7.75s4.56,4.73,4.51,8.42C1044.38,2135.74,1044.4,2137.08,1044.39,2138.42Z"/><path d="M82.75,2175.76a60.12,60.12,0,0,0-5.08-26.86c-1.47-3.39-1.86-5.93,1.31-7.67,3.65-2,4,1.4,5.4,3.72,3.9,6.53,6.94,3.28,9-1.47C98,2133,106.34,2127.74,117,2125.2c4.07-1,6.08.25,7.66,4.1,3.92,9.54,2.16,19.85-5.17,26.77-2.11,2-5.71,3.27-3.89,7.11,1.51,3.16,4.87,3.37,7.86,3.48a51.46,51.46,0,0,0,8-.64c3.38-.4,6.49-5.65,9.83-1.66,2.22,2.64-1.76,5.26-2.71,8-1.77,5.07-5.36,6.54-10.34,5.11-9-2.57-18.26-4.5-26.9-8-7.66-3.07-9.52-1.32-9.4,6.49.08,4.58,3.11,13-5.1,12.49S83.64,2180,82.75,2175.76Zm30.66-41.38c-4.69.3-15.65,10.87-16.3,15.23-.34,2.3.22,4.34,2.6,4.44a18.7,18.7,0,0,0,16.93-8.52,13.55,13.55,0,0,0,2.26-4.34C120.05,2136.39,117.52,2134.49,113.41,2134.38Z"/><path d="M292.55,2135.48c.33,8.71,1.4,18,5.22,26.77a39.19,39.19,0,0,1,2.58,9.62c1.35,8.8-3.77,9.63-10.43,7.94-9.89-2.51-18.42-7.93-27-13.09-5.44-3.26-10.68-6.87-16-10.33-1.8-1.16-2.65-4.78-5.51-3s-1.21,4.79-.76,7.32c1.29,7.23,3.48,14.37,1.93,21.85-.57,2.79.44,7-3.64,7.21s-6.86-2.75-7.48-6.85c-1.32-8.61-2.3-17.27-3.54-25.89a97.55,97.55,0,0,0-2-9.85c-.93-3.73-4.4-8.19.4-10.79a11.4,11.4,0,0,1,13.2,1.87c8.06,8.24,17.36,14.42,27.15,20.36,4.84,2.93,9.46,6.2,14.7,8.4,2.53,1.07,4.73,4.82,7.91,1.75,2.27-2.21.84-5,.11-7.58-2.56-9.08-3.51-18.37-4.37-27.74-.46-5.07.14-10,5.27-9.76s2.06,5.85,2.53,9.11A14.94,14.94,0,0,1,292.55,2135.48Z"/><path d="M780.11,2139.77c5.06-4.48,9.78-9.26,16.9-10.09,12.49-1.45,23,2.85,25.59,10.89,5.87,18.33.2,31.41-11.49,37.49-10.43,5.43-21.93,10-33.28,0-2.87-2.53-4.3-4.12-3.88-8a67.41,67.41,0,0,0-2.48-26.77c-1.14-3.81-3.64-8.55,1.33-10.51C778.44,2130.52,775.46,2138.59,780.11,2139.77Zm37.47,14.11c-.52-10.09-6.47-13.56-14.6-14.36s-17.19,6.2-17.8,14.1c-.47,6-.26,12-2.11,17.85-.93,2.9-.34,5.15,3.32,5.85C798.05,2179.54,817.65,2164.33,817.58,2153.88Z"/><path d="M729.12,2161.91c1.64,10.74-4.71,17.83-11.71,24.42-9.63,9.07-15.15,7.45-20.14-5.28-6.14-15.62-5.67-32.16-7-48.45-.27-3.19,1-5.11,4.3-5.52,14.89-1.86,29.77-3.84,44.67-5.59,3.26-.38,7.71-.67,7.81,3.87.08,4-4.33,3.54-7.1,3.63-13.38.45-25,9-38.77,8-3.18-.23-5.21,3-4.9,6.47.39,4.46,3.81,5.17,7.35,4.92,13.34-.94,26.65-2.1,40-3,3.06-.22,7.94-2,8.1,2.67.12,3.59-4.75,2.52-7.58,2.75-12,1-24,2.1-36.07,2.63-8.22.36-12.21,3-8.94,11.79.81,2.18.81,4.65,1.61,6.83,3.86,10.51,11.26,12,19.07,4C723.75,2172,725.86,2166.74,729.12,2161.91Z"/><path d="M211.73,2180.09c-5.07-1.05-7.3-3.12-8.69-6.56a78,78,0,0,0-5.38-10.69c-2.17-3.64-4.1-8.26-9.75-6.73-5.25,1.42-11.26,1.31-13.13,8.79-1.26,5.06-4.41,9.67-6.93,14.37-1.19,2.21-2.25,5.54-5.82,3.81a6.28,6.28,0,0,1-3.38-8.43c.91-2.49,2.47-4.73,3.58-7.17,1.85-4.08,3.93-8.25-2.39-10.61a3.59,3.59,0,0,1-2.39-4.81c.78-2.49,2.15-4.37,5.1-3.34,3.68,1.28,7.34-.53,6.49-3.52-3.15-11.16,7-10.66,11.92-14.34,3.44-2.56,5.89-.13,7.68,3.46,3.47,7,6.3,15.58,17.27,9.69A3.14,3.14,0,0,1,210,2146c.55,1.44,0,2.47-1.24,3.4-2.62,2-11.08-1.19-6.8,6.85,1.91,3.58,3.75,7.67,8.48,9.46,6.34,2.38,2.85,7.93,2.79,12.21A2.77,2.77,0,0,1,211.73,2180.09Z"/><path d="M1166.19,2180.26c-10.72.51-18.71-5.25-20.66-14.88-2.57-12.76,3.61-28.23,12.1-31.71,6.13-2.51,9.42,3.62,14.94,3.86,8.57.38,15.81,5.67,21.51,11.86,9.49,10.31,7.66,19-4.61,25.61C1182.81,2178.6,1177.91,2179.7,1166.19,2180.26Zm4.67-8.49c5.89-3,17-.81,19.37-9.56,2.35-8.51-8-10.86-13.43-15.33a6.26,6.26,0,0,0-.89-.47c-5.67-3.29-11.49-4.36-16.83.26-5.08,4.39-6.38,10.51-4.33,16.59C1157,2170,1163.37,2171,1170.86,2171.77Z"/><path d="M434.17,2143c-9.29,5.33-18.28,9.92-28.73,10.47-7.65.41-11.9,2.16-9.09,11.36,1.81,5.91.58,12.44,4.34,18.3,2,3.1,1.24,7.89-1,11.52a2.44,2.44,0,0,1-3.58.44,11.48,11.48,0,0,1-4.74-10.55c.84-10.86-1.46-20.71-5.47-31-2.24-5.79-1.56-13.79-2.85-20.81-.79-4.31,3.53-5.26,7.71-5.62,16.63-1.44,33.15-3.78,49.24-8.38,2.71-.78,5.49-2.1,6.82,1.32,1.58,4.07-1.4,5.21-4.7,5.83-14.5,2.72-29,5.6-43.51,8.14-4.05.71-7.63,1.55-7,6.51.63,4.66,3.69,6.34,8.56,6.49,8.55.25,16.6-1.65,24.68-4C427.53,2142.19,430.15,2139.45,434.17,2143Z"/><path d="M1102.63,2130c6.07.81,10.18-.63,14.41-1.8,2.79-.78,6.27-1.74,8.53.83s1.19,5.86.28,8.6c-4.55,13.62-4.7,27.16.72,40.47,1.56,3.83.34,5.78-2.7,7.21-3.83,1.8-6.21.28-7.77-3.59-3.75-9.32-2.32-19.23-3.2-28.82-1.32-14.21-.63-14.4-14.18-12.27-8,1.26-15.82,3-23.73,4.54-4,.77-7.48.46-8.18-4.68s2.49-6.26,6.6-6.76C1083.67,2132.45,1093.92,2131.09,1102.63,2130Z"/><path d="M352,2123.83c-2.41,4.61-7.66,4.05-11.77,5.63-12,4.64-14.22,14-4.41,22.65,6.89,6,13.82,12.43,24.21,13.11,7.48.49,9.26,5.51,5.06,11-5.82,7.59-38.87,18.06-48.25,15.18-3-.93-8-1.14-6.5-5.74,1.92-5.83,4.39.56,6.64.51a54.87,54.87,0,0,0,31.79-10.6c3.48-2.53,2.27-4.81-1.31-6.7-4.42-2.32-9-4.7-12.76-7.87-7.08-5.93-13.29-13.24-11.52-23.06,1.54-8.56,15.81-16.82,25.63-16.41C350,2121.56,351.5,2121.66,352,2123.83Z"/><path d="M54.48,2146.27c.76,9,1.56,18,2.26,27.05.19,2.4.14,4.94,2.75,6,4.5,1.77,4,4.72,2.23,8.08a5.32,5.32,0,0,1-5.89,2.9c-4-.6-5.34-3.22-5.6-7.09-.8-11.69-2.24-23.34-2.67-35-.3-8-3.66-11.51-11.6-11.62a125.16,125.16,0,0,1-27.82-3.78c-2.72-.67-5.71-1.43-5.47-4.76.29-4,3.92-4.39,6.88-4.16,6.34.48,12.64,1.39,18.94,2.27,5.7.79,11.18,1,16.68-1.62,6.61-3.2,10.27-1.23,9.83,6.7-.28,5,0,10,0,15.07Z"/><path d="M513,2160.42c0,8.95-10.22,19.21-20.9,21.07-8,1.38-17.72-7.16-21-18.24-3.1-10.46,2.58-19.54,4.46-29.22.17-.86,2-1.77,3.13-2C490.77,2129.27,513,2147.77,513,2160.42Zm-34-5.16c0,8.86,5.23,16.4,10.36,16.41,6.15,0,15.86-7.08,15.79-11.56-.08-5.91-12.59-19.73-17.71-18.37C480.24,2143.64,479.7,2150.59,479,2155.26Z"/><path d="M947.08,2143.67c3.42,8.79-3.87,19.85,5.53,27.62,2.27,1.88.77,5.12-.94,7.32-1.6,2-3.1,5-6.28,4.1-2.91-.79-6-2.54-5.95-6,.33-13.48-1.59-26.74-3.12-40.06-.42-3.63,1.53-5.73,5.1-6.12,3.84-.43,4.18,2.85,4.8,5.27S946.83,2141,947.08,2143.67Z"/><path d="M675.88,2337.26a32.52,32.52,0,0,1-6.33,13.45c-9.66,12.38-24.41,14.5-38.22,17.65-6,1.36-12.28-1.63-11.68-10,1.12-15.45-1.51-30.63-3-45.89-.27-2.88-2.92-6.12-.23-8.51,3.28-2.9,5.1,2.22,7.48,2.41,8.54.66,17,1.07,25.45,3C662.93,2312.54,675.4,2324.94,675.88,2337.26Zm-45.41,2.55c1.34,25.47,1.35,25.48,23.2,12.43,1.43-.85,3.17-1.54,4.14-2.79,3.58-4.62,9.92-7.59,9.43-14.75-.57-8.28-16.91-19.26-28.64-18.37-10.94.83-6.93,10.2-8.06,16.43C630.13,2335,630.47,2337.45,630.47,2339.81Z"/><path d="M61.3,2338.76c2.71,12.82-3,22.77-12,30.62-4.75,4.14-10.82,3.8-13.63-3.61-2.26-5.94-4.24-12-6.33-18-2-5.71-.95-12.82-8.56-15.82-2.66-1-2-4.81.4-5.65,6.86-2.42,5.37-6.16,2.83-10.88-1.6-3,.11-5.12,3.13-6.12,14.63-4.85,29.37-9.24,44.94-9.6,2.9-.07,6.91-.15,7,3.9,0,4.37-3.28,6.34-7.56,6.12-11.55-.61-22.57,1.75-33.36,5.63-3,1.06-6.14,2.17-5.19,6.09,1,4.15,4.4,3.1,7.41,2.63,10.28-1.58,20.56-3.06,30.84-4.66,2-.31,4.3-1.29,5.14,1.22,1,3-1.85,3.18-3.62,3.3-11.7.81-21.72,8.73-33.78,7.91-4.66-.32-6.17,2.27-5.05,6.31a134.56,134.56,0,0,0,5.32,16.2c3.68,8.79,7.35,8.82,13.39,1.07C56.54,2350.36,56.52,2343.55,61.3,2338.76Z"/><path d="M151.13,2352c-8-.31-14.74-3.47-20.68-8.92-2-1.88-5-4.55-8-2.76-2.73,1.65-.69,4.94-.42,7.48.62,5.83,3.15,15.66-2.23,16-7.46.43-6.69-9.59-8-16-2.08-9.72-2.74-19.85-7.19-29-1.64-3.34-4.55-6.74,0-9.55s8.72-.7,11,3.59c4.09,7.83,8.86,15,15.93,20.44.79.62,1.39,1.48,2.2,2.06,7,5.07,16.32,10.1,22.87,4.89,4.76-3.78-2.78-12.28-4.72-18.7-1.21-4-9-8.21-3.34-11.6,6.33-3.79,6.61,5.28,9.59,8.62,3.62,4.06,5.27,9.09,6.95,14.24C169.08,2345.37,164.36,2352.19,151.13,2352Z"/><path d="M283.18,2342.12c.13,4.87.36,9.16,2.75,13.11,1.82,3,2.46,6.32-.43,9.22-1.23,1.23-2.8,2-4.56,1.28-3.72-1.48-4.38-5-4.63-8.26-.85-11-1.77-22-1.93-33.07-.07-4.47-1.79-8.5-1.88-12.83-.06-2.69.09-5.72,3.87-5.83,3.27-.1,5.33,2.07,4.82,5.08-1.73,10.1,4.29,10.34,11.41,9.49,4.32-.52,8.63-1.1,13-1.55,3.85-.39,7.59-.48,6.18-6.32-.93-3.86,2.56-5.25,5.24-6.23,3.22-1.19,4.74,1.73,6.18,3.91,6.56,10,3.57,21.44,4.82,32.24.33,2.84-1.12,6.28,3.26,7.27,2.29.52,6.49-.8,5.53,3.52-.93,4.12-4.65,6.73-8.74,7.36s-6-2.93-6.52-6.25c-1.23-7.57-2.08-15.21-2.76-22.86-.53-6.09-2.31-8.51-8.92-5.61-5.13,2.25-10.94,4.08-16.46,4.1C283.84,2329.94,281.6,2334.41,283.18,2342.12Z"/><path d="M234.85,2345.68c-2.29-11.52-.31-20.67-2.91-29.58-1.33-4.56-3.26-6-7.87-4.82-8.1,2.15-16.32,3.83-24.43,5.9-3.8,1-6.93.33-8.26-3.45-1.68-4.74,2.55-5.87,5.51-6.56,14-3.24,28.06-6.17,42.14-9,2.45-.49,5.46-1.1,7,2.18a5.08,5.08,0,0,1-1.26,6.39c-4.54,4.14-4.47,10.11-4.06,14.94a305.58,305.58,0,0,1,.74,33.14c-.08,3.21.8,5.86,3.93,7.51s3.18,4.15,1.54,6.79c-1.41,2.27-3,4.94-6,4.83a6.07,6.07,0,0,1-6-5.78C234.6,2359.82,234.85,2351.44,234.85,2345.68Z"/><path d="M416.82,2336.49c1.12,14.82-11.73,29.66-25.55,30.69-7.83.59-12.39-3.82-15.78-10.17-6.75-12.62-7-27.2-12.27-40.26a4.4,4.4,0,0,1,2.45-5.92c2.95-1.22,4.37,1,5.32,3.15a47.64,47.64,0,0,1,2.48,7.58c2,7.78,3.61,15.65,5.75,23.39,2,7.25,5.16,13.3,14.62,11.26s15.59-9.21,15.75-18.05c.18-9.84-5.48-17.11-10.79-24.27-2.38-3.22-4.18-5.62-.72-8.25,4-3.06,5.79.71,7.63,3.54C411.37,2317.88,418.05,2326.17,416.82,2336.49Z"/><path d="M484.12,2308.55c-6,4.89-17,.09-17,9.57,0,11,5.77,20.6,14.67,27.39,4.19,3.18,9.37,5.18,14.3,7.23,3.05,1.27,5.42,2.58,5.39,6.25s-2.9,4.33-5.36,5.1c-12.07,3.78-24.46,3.68-36.8,2.07-4.87-.64-8.14-4.59-10-9.09-1-2.49-1.07-5.84,2-6.92,3.66-1.3,2.8,2.46,3.75,4.29,2.69,5.15,23.3,7.82,27.6,3.42,3.56-3.63-.13-5.15-2.61-6.71a43.47,43.47,0,0,1-18.85-23.76c-2.4-7.15-4.21-14.17,2-19.48S476.72,2304.16,484.12,2308.55Z"/><path d="M1147.2,2357.19a56.13,56.13,0,0,1-26.86-16.26,26.46,26.46,0,0,1-6.84-23.23c1.53-7.29,10.08-9.84,17.5-11.53,3.72-.84,6.55-1,7.42,3.72.74,4.07.48,7-4.28,8.61-12,4.11-12.78,9.43-3.14,18.26,6.35,5.81,13.85,10,22.13,11,10.61,1.32,18.12,11.24,30,9.05,11-2,11.52-2.76,6.65-12.74-5-10.21-9.06-20.93-10.9-32.28-.26-1.56-.28-3.73.59-4.81,5.65-6.95,14-7.18,21.9-8a15.59,15.59,0,0,1,14.15,6.29c2.8,3.67.27,6.11-4.15,6.35-22.72,1.24-24.48,3.89-14.22,24.6,3.86,7.78,9.41,15.07,19.27,16,7.84.72,5.51,6.38,5.31,10.51-.26,5.54-4.07,4.53-8.08,3.77-9-1.7-18.33,1.22-27-.34-16.19-2.91-30.46,4.49-45.71,6.27a49.25,49.25,0,0,1-25.48-3.44c-7-2.94-6.46-7.76-2.88-13,1.09-1.59,2.52-2.82,4.79-.54C1126.48,2364.61,1132.62,2365.09,1147.2,2357.19Z"/><path d="M1076.08,2322.71c-7,6.71-14.62,7-22.11,6.77-8-.2-11.16,1.92-6.26,9.78,1.58,2.52,2.3,5.61,4,8,5.33,7.66,8.92,7.64,14.43.21,1.61-2.18,2-6.92,6.18-4.05,3,2.09,1.31,5.48,0,8.26-.88,1.81-1.49,3.83-2.7,5.39-3.58,4.63-6.1,11.56-13.47,10.31-6.52-1.11-9.79-6.25-11.21-12.77-.75-3.46-1.75-7.82-6-8.57-4-.71-5,3.77-7.26,6-10.87,10.46-23.61,17.71-38.47,20.5-5.53,1-10.65-2.09-14.41-5.92-11.11-11.33-12.67-38.92-3.67-52,4.35-6.32,10.29-5.06,16.3-4.53,4.52.39,4.68,3.87,5.54,7.17,1.17,4.48-.33,5-4.54,4.57-12.52-1.33-14.47.62-14.77,13.42-.12,5,.26,9.84,2.34,14.72,3.42,8,9,12.33,17.28,9.87,12.7-3.73,26.05-6.74,34.33-18.88,4.32-6.34,4.08-19.25-.91-25.37s-3.89-11.09,3.71-12c17.28-2.11,34.67-3.39,52-4.6,3.09-.22,7.71.75,7.41,5-.27,3.88-4.42,4.31-7.92,4.63-12.33,1.1-24.8,1.05-36.86,4.47-2.54.72-6.34.56-6.43,3.65-.13,4.24,4.47,2.86,7,4C1057.67,2324.3,1066.6,2319.2,1076.08,2322.71Z"/><path d="M858.46,2304.45c-19.15-.72-36.63,4.27-54.32,9.08-8,2.18-4.71,6.87-4.88,10.58-.27,5.67,3.87,4.7,7.82,4.09,12.25-1.89,24.3-5.94,37-4-10.35,5.56-21.81,7.14-33,8.45-9.87,1.16-10,5.56-7.34,12.67a33.48,33.48,0,0,0,2.47,5.49c3,5.09,4.92,11.81,12.38,11.67s11.91-5,16.14-10.61c2.81-3.75,3.16-13.21,8.16-10.46,4.79,2.65-2.44,8.79-4.37,13.24s-5.5,8.39-8.89,12c-7.62,8.17-15.3,7.75-22.41-1.13a45.64,45.64,0,0,1-5.71-9.45,96,96,0,0,1-8.92-45.72c.3-5.63,1.29-9.5,8.41-5.7,4,2.13,8.51.13,12.74-.8,13-2.87,26.06-6,39.59-4.1C855.32,2300.06,857.53,2300.08,858.46,2304.45Z"/><path d="M905.46,2326c-.72-5.44-4.84-8.28-7.6-11.92-1.56-2.08-4.88-3.68-2.16-6.49s5.6-.92,7.65,1.6a48.86,48.86,0,0,1,3.14,5.11c2.9,4.63,5,3.79,8-.35,2.41-3.27,3.23-11.8,8.06-8.61,5.73,3.77-1.91,8.39-3.91,12.4-1.91,3.83-3.4,7.12-1.23,11.28,3.73,7.13,7.37,14.31,10.78,21.59,1.39,3,3.08,5,6.45,5.62,2.09.4,5.38-.11,5.4,3.23s-2.26,5.64-5,7-5.29.26-7.17-2c-6.08-7.39-8.67-16.58-12.69-25-1.29-2.73-1.63-6.37-5.06-6.89-3.88-.58-4.23,3.55-5.94,5.83-3.19,4.27-7.36,7.81-9.13,13.14-.75,2.25-2.78,4.75-5.26,3.34-3.26-1.87-1.25-5,.32-6.9A114,114,0,0,0,903,2330.07C903.83,2328.64,904.71,2327.27,905.46,2326Z"/><path d="M596.13,2316.05c-16,1.71-31,3.34-46.08,4.9-3.66.38-7.35.68-11,.75-4.41.08-6.1,1.62-4.55,6.21,1.38,4.09,2.21,8.37,3.26,12.58a9,9,0,0,0,8.66,7.23c5.89.36,12.33,1.44,16.55-4.56,1.32-1.89,2.25-4,3.51-6s2.18-5,5-3.76c3.14,1.41,1.9,4.61,1.12,7.08-3.07,9.63-14.74,18-25.07,19.1s-13.89-6.32-16.36-13.3c-3.22-9.07-4.43-18.85-6.45-28.34-.83-3.91,1.55-6.64,4.8-5.76,20.37,5.51,40.73-1.41,61.05.43C592.13,2312.77,593.93,2312.49,596.13,2316.05Z"/><path d="M552,2332c8.66-.43,17.32-.88,26-1.27,3.51-.16,6.86.48,8.45,4,1.29,2.86.2,6.72-3,5.24-12.46-5.83-24.26,2.76-36.38.76-4.87-.8-13.46,2.95-13.58-3.83-.14-8.83,8.65-3.37,13.51-4.31a41.42,41.42,0,0,1,5-.37Z"/><path d="M241.81,1991.81c1.81-.1,2.83-.09,3.82-.23,3.42-.46,7.21-3.18,9.71,1.65,1.23,2.38.53,4.44-1,6.51-2.65,3.6-5.73,5.1-10.39,4-12.78-3-24.83-8.14-36.9-13.06-6.67-2.71-10.2-3.3-9.75,5.51.15,2.93-.38,7-4,7.07-4.51.13-4.73-4-4.54-7.45.59-11.08-3.37-21.06-7.41-31-1.14-2.79-3.43-5.2-.42-8.08,1.46-1.39,3-3.19,5.17-2.08,2.77,1.43,2.77,4.35,2.87,7.08a17.76,17.76,0,0,0,.31,3c.66,3.18,0,7.6,3.75,8.66,4.59,1.28,6.08-3.11,7.75-6.32,5.93-11.37,15.82-15.86,28-16.15,4-.09,8.57-.28,10.26,4.46,1.45,4.09-.27,7.71-2.86,11.18-4.93,6.63-12.13,9.27-19.39,11.92-1.9.7-4.06,1.06-4.39,3.5-.28,2,1.25,3.14,2.88,3.54C224.36,1987.76,233.47,1989.85,241.81,1991.81ZM230,1960.21c.2-2.49-1.26-3.48-3.45-4-6-1.46-20.42,7.34-21.79,13.3-.52,2.28,0,4,2.27,4.76C210.88,1975.68,229.46,1964.26,230,1960.21Z"/><path d="M910.16,1961.81c9.55,3.33,18.33,2.18,27.28.42,4.43-.88,11.64-2.38,12.68,2.26,1.47,6.49-6.74,4.67-10.45,6.22-5.38,2.24-11.77,2-17.55,3.45-2.78.72-7.29.66-6.56,5.87,1,7,1.45,14.57,7.65,19,4.21,3,6.89-2.5,10.25-4.2.28-.15.44-.52.72-.69,3-1.85,3.07-9.79,8.11-6.16,4.75,3.43-.68,8.11-2.74,11.3-3.72,5.77-7.85,12.67-16.46,10.71s-13.8-7.81-14.79-16.88c-1.17-10.66-3.39-21-8.44-30.63-1.52-2.89-1.1-5.6,1.51-7.06,14.44-8.07,29.89-11.93,46.53-10.42,2.24.21,4.19.71,3.77,3.39-.48,3.07-2.93,4.37-5.71,4.85-8.59,1.5-17.2,2.9-25.81,4.34C917,1958.1,913.31,1957.27,910.16,1961.81Z"/><path d="M73.72,1977c1.23,7.32-1,13.78,3.52,19.54,2,2.53.47,6.22-2.79,7.45-4.08,1.54-6.58-1.11-7.22-4.78-1.14-6.58-1.8-13.25-2.5-19.89-.39-3.7-1-6.8-5.93-5.68-7.83,1.77-15.81,3-23.5,5.22-7.38,2.13-8.6,8.83-3.09,14.2,3.25,3.18,1.37,14.72-3,16-5.34,1.51-7.26-1.74-7-6.71s2.53-12.67.2-14.55c-8.94-7.21-6.93-13.52-2.5-22,1.82-3.47-.85-9.13-.93-13.8-.05-3.1,1.22-6.34,5-6.27s3.34,3.34,3.58,6c1.64,17.93,1.65,17.85,20,14.69,6.21-1.07,14.33,1.84,13.63-9.9-.23-3.86,3.65-2.85,6.22.24C72.71,1963.05,76.52,1969.58,73.72,1977Z"/><path d="M586.63,1959.66c2.08,8.44,4.81,18.44,6.86,28.57.59,3,2.7,7-.7,9.41s-6.18-1-9.14-2.28c-8.93-3.77-17.8-7.71-26.85-11.16-5.71-2.18-9.14-1-7.59,6.4,1,5.07,2.85,12.79-3.78,13.59-7,.85-7-6.43-7.79-12.48-.92-7.18-.51-14.73-3.81-21.59a7,7,0,0,1,2.15-9.06c3.16-2.52,4.57.69,6.67,2.12,8.55,5.81,18.12,10,26.23,16.59,3.11,2.52,7.84,4.06,11.38,2.15,4.52-2.45.18-6.58,0-9.93-.29-4.66-1.69-9.24-2.26-13.9-.46-3.71.87-7.18,5-7.35C588.09,1950.53,587.62,1954.37,586.63,1959.66Z"/><path d="M470.79,1975.08c-.31,2.59-2.31,2.78-4.3,3.36-2.63.77-6.94-.58-7.24,3.61-.28,4,2.35,7,6.24,8.12,4.67,1.37,4.55,4.16,2.9,7.69-2.36,5-5.34,5.67-9,1.21-.42-.51-.64-1.2-1.08-1.68-4.53-4.86-3.89-16.65-15.75-11.71-6.8,2.82-13.95,5.09-15.84,13.65a10,10,0,0,1-2.07,3.41c-1.46,2-3.28,3.76-5.85,2.28a5.27,5.27,0,0,1-2.53-6.85c5.17-14.72,12.86-28.53,15.8-44.09.62-3.3,4.11-4.35,7.12-4.63,3.29-.3,4.3,2.23,5.19,5a97.13,97.13,0,0,0,4.25,10.12c3.13,6.89,6.9,12.4,15.89,8.05C467.05,1971.42,469.9,1971.26,470.79,1975.08Z"/><path d="M1185.89,1983.09c0,6.37,0,12.75,0,19.12,0,3.39.09,6.72,3.78,8.63,3.86,2,3.6,5.22,2.11,8.63-1.27,2.91-3.62,3.75-6.57,3.36-4.2-.55-5.48-3.75-5.77-7.17-.92-11-2-22.06-2.13-33.1-.06-7-2.57-8.53-9.1-7.92-11.44,1.07-28.33-14.93-28.29-26.29,0-3.21,1.65-6.16,4.83-7,4.23-1.07,4.77,2.55,5.45,5.51a29.43,29.43,0,0,0,4,10.22c4.51,6.61,10.34,11.75,18.45,8.53,7.33-2.91,2.7-9.89,2.59-15.14-.08-4-.74-8-.94-12s2.08-6.45,6-6.39c3.71,0,3.61,3.21,3.74,5.93q1,22.55,2.07,45.09Z"/><path d="M667.39,1953.61c4.8,1,7,5.16,9.49,8.59,4.77,6.61,8.1,6.34,10.79-1.38.67-1.9,1.44-3.77,2.2-5.63,1.23-3,2.12-7.73,6.45-5.62,3.66,1.78,5,6.33,3.14,10.5-1,2.39-3.12,4.32-4.61,6.54-6.8,10.16-4.72,19.37,6.36,24.37,4.54,2,7.42,4.31,4.92,8.7-2.66,4.68-6.88,2.57-10.31.09a33.86,33.86,0,0,1-5.25-4.68c-8-8.9-9.05-8.7-13.42,2.91-1.24,3.29-1,7.79-6.14,7.94-2,0-4.15-.06-5.2-2.26-2.17-4.55.75-7.63,3.22-10.84,1.23-1.59,2.49-3.18,3.64-4.83,7.1-10.12,6.45-14-4.71-19.57-5.6-2.79-7.91-5.86-5.18-11.74C663.69,1954.74,665,1953.31,667.39,1953.61Z"/><path d="M1038.26,1956.56c8.8-1.1,18.3.69,26.91-4.85,2.61-1.68,7.54-2,10.31,1.25s-.67,6-1.88,8.93c-4.22,10.32-3.43,20.73.65,30.83,1.47,3.62,3.09,6.74,0,10.15-1.22,1.36-2.73,2.17-4.43,1.27-3.43-1.82-5.77-4.58-6.22-8.59-.88-8-.45-16-2.17-24-1.18-5.48-3.85-7.22-9.14-6.56-9.31,1.17-18.7,1.75-28,3.16-5.34.82-9.13-.44-9.22-6-.09-5.35,4.19-5.92,8.67-5.66C1028.5,1956.76,1033.2,1956.56,1038.26,1956.56Z"/><path d="M107.42,1951.47c3.52,13.46,3.5,13.41,16.79,9.19,4.79-1.52,9.67-2.76,14.52-4.07,1.58-.43,3.57-1,4.05,1.26.44,2.14-1.37,2.9-3.12,3-8.08.5-14.42,5.09-21.25,8.63-3.37,1.75-7.46,2.8-6.38,7.58,1.4,6.2,3.09,12.62,9.6,15.66,3.92,1.83,8,1.47,11.22-1.74,4.76-4.73,9.58-9.37,11.73-16.12.69-2.18.59-6.88,4.09-5.6,4.19,1.52.75,5.11,0,7.66-2.69,8.78-6.48,16.88-14,22.79-7.32,5.76-15.67,5-21.06-2.39-8-10.94-9.87-24-12.73-36.76-1.25-5.56,4.48-5.93,6.85-8.81Z"/><path d="M815.58,2001.78c.06.45-.78,2.26-3.79,2.69-4,.58-6.61-.9-7.29-5-1.44-8.56-2.11-17.19-4.36-25.7-1.37-5.17-2.24-10.31-5-15-2.34-3.92-.27-6.39,3.26-7.89,2.91-1.24,5.84-.4,6.55,2.64C808.5,1968.87,811.74,1984.23,815.58,2001.78Z"/><path d="M107.71,1984.42c.14-3.75,1.46-6.69,5.7-6.83,12.16-.42,23.69-3.89,35.31-7,2.18-.58,4.92-1.11,5.6,2.22a3.75,3.75,0,0,1-3,4.58c-14.76,1.45-28.44,9.91-43.9,6.77Z"/><path d="M591.6,2900.25c-.16,16.73,8.78,24.51,24.77,22.77,17.44-1.89,29.72-11.94,38.82-25.57,3.54-5.3.06-13-2-19.21-.95-2.87-3.73-5.68.84-7.19,3.65-1.21,6.09,1.66,6.17,4.84.26,10.44,6.27,10.29,14.24,9.27,7-.88,14-1.5,21-2.25,6-.64,9.34-2.12,9-9-.34-7.63,4.11-6.37,8.41-3.49,3,2,3.75,5.33,4.22,8.79,1.37,10,3,19.9,4.32,29.88.52,4,.32,7.92,4.94,10.12,3.81,1.82,1.88,5.15.95,7.95-.79,2.39-2,4.2-5,3.91a6.48,6.48,0,0,1-6-4.6c-3.6-10.22-3.52-21.08-5.15-31.62-1.19-7.66-3.24-9.78-11-7.07-6.88,2.41-14.43,2.92-21.68,4.28-4.57.86-10.94.87-11.89,5.77a22.65,22.65,0,0,0,4.73,18.76c2.07,2.47,6.14,3.48,3.74,7.83-1.56,2.83-3.84,4.58-7.34,4.22-5.49-.58-4.08-5.24-5.09-8.46-.1-.32-.06-.67-.13-1-1.15-5.07.1-12.48-5.65-13.92-4.59-1.14-5.66,6.43-9,9.4-12.52,11-25.11,21.61-43.81,15.48-11.48-3.77-17.66-11.07-19.09-23.11-1.74-14.61,1.15-27.85,13.5-36.77,5.33-3.85,11.63-.56,16.28,3.72,1.46,1.35,1.3,3.76.1,5.64a2.41,2.41,0,0,1-3.52.65c-3.88-2.25-7.54-4.54-11.79-.47s-7.17,8.79-7.39,14.89C592,2896.72,591.73,2898.72,591.6,2900.25Z"/><path d="M875.64,2936.5c-6.75-.37-13.49-.57-17.48-7.53-1.09-1.91-3-2.46-5.16-1.1-6.74,4.17-8.43.34-9.9-5.66-4.27-17.5-7.41-35.3-13.29-52.39-1-2.88-.92-5.48,2-6.92,3.78-1.84,4.92,1.27,5.33,3.83.89,5.61,3.92,3.94,7.28,2.74,13.64-4.86,27.82-7.51,42.06-9.85,2.75-.45,6.23-2.58,8,1.26,1.3,2.88.26,6.3-1.68,8.56-3.26,3.8-7.14,7.07-10.8,10.51-1.59,1.51-4.74,2.24-3.44,5.26,1.07,2.51,3.92,2.59,6.19,2.45,8-.51,16-1.82,24.09-1.22,10.74.8,14.85,5.21,12.21,15.72-2.38,9.49-6.68,18.3-15.58,23.82C896.3,2931.67,887.05,2937.13,875.64,2936.5Zm1.44-7.64c20.28-.79,29.19-10.89,35.31-27.59,1.84-5-.66-7.89-5.87-7.82-6.38.1-12.76.53-19.13,1-8.67.59-17.32,1.39-26,1.94-2.28.15-5.07.26-5.42-3-.31-2.87,1.48-4.26,4.17-4.59,9.15-1.11,12.27-9.87,18.54-14.64,1.93-1.47,3.49-3.92,2.14-6.14s-4.25-1.54-6.49-.86c-6.41,1.94-12.84,3.87-19.14,6.13-15.93,5.71-15.9,5.79-11.93,22.37.86,3.59,1.46,7.27,2.62,10.75.81,2.44.38,6.07,3.33,6.94,3.72,1.08,3.84-2.81,5-5,1-2,2.3-3.52,4.64-2.74,2.71.9,1.51,3.06,1.34,5C859,2923.72,864,2929.08,877.08,2928.86Z"/><path d="M424.74,2880.48c-.23,12.77,3.82,25.27,2.42,38.1-.38,3.42,1.16,8.26-3.79,9.25-4.37.88-8.26-.64-11.29-4.77-6.71-9.14-14.66-17.22-22.76-25.18-4.71-4.62-6.36-3.28-7.9,2.22-2.26,8-4.85,16-7.44,23.92-1,3-2.83,5.71-6.31,5.62-3.71-.1-4.57-3.31-5.32-6.32-4.13-16.53-7.31-33.32-13.61-49.25-1.1-2.77-1-5.62,2.29-6.63,4.07-1.26,5.05,1.78,5.8,4.95,2.67,11.34,5.34,22.69,8.24,34,.52,2.05.21,5.46,3.25,5.56,3.61.12,3.55-3.53,4.15-5.93,1.64-6.49,2.89-13.07,4.43-19.59,1.65-7,4.93-8.53,10.09-2.72,8.24,9.28,16.5,18.55,24.68,27.87,1.77,2,3.27,5,6.36,3.78s2.26-4.42,2.2-7.1c-.22-10.12-2.35-20-4.37-29.82-.74-3.6-2.69-7.11,1.19-10.07,1.4-1.07,2.89-1.71,4.6-.73,4.05,2.32,3.27,6.17,3.1,9.84C424.7,2878.47,424.74,2879.47,424.74,2880.48Z"/><path d="M512.29,2919.73c.76-10.85-2.92-20.39-4.41-30.25-.46-3-2.39-4.69-5.77-3.83-8.75,2.22-17.47,4.61-26.29,6.54-4.89,1.07-5.67,3.38-4.4,7.91,2.09,7.4,3.63,15,5.29,22.48.76,3.44.85,7.54-3.17,8.36-4.85,1-6.06-3.53-6.52-7.13-.94-7.29-1.28-14.66-1.94-22-.45-5.07-1.76-9.28-6-13.15-5.1-4.63-3.29-11.93-.55-16.83,2.51-4.46,6.53-.38,6.94,2.77,1.47,11.48,9.16,10.34,17.05,9.24,4-.56,7.91-1.41,11.89-1.9,4.79-.59,8.71-1.43,6.9-8a5,5,0,0,1,3.72-6.26c3.22-.9,3.23,2.7,4.87,4.06,5.26,4.36,6.79,9.88,7.17,16.61.57,10,2.27,20,3.86,29.89.73,4.57,3,9.15-.46,13.32-.69.83-3.46.8-4.7.13C510.36,2928.81,512.91,2923.46,512.29,2919.73Z"/><path d="M1005.91,2893.14c.3-13.7,4.89-19.86,17.55-23.4,4-1.11,7.91-1.84,10.84,2.38,1.92,2.75,5,3,8,3.37,4.69.61,9.28,2,12.86,5.22,6.63,6,12.74,13.17,10.75,22.41-2.53,11.79-12.88,17.58-23.38,19.66C1023.94,2926.47,1004.69,2916.24,1005.91,2893.14Zm29.39,22.24c11,0,22-6.72,23-14s-6.4-15.47-17.47-19.3c-3.75-1.3-7.3-3.24-11.08-4.44-7-2.23-12.88,0-15.56,6.72C1007.92,2900.16,1018.52,2915.42,1035.3,2915.38Z"/><path d="M932.26,2897.35c-.42-19.75,10.4-26.87,30.31-19.86,8.9,3.13,15.65,9.2,20.81,16.79,6.75,9.92-2,24.17-17,28.19C947.89,2927.41,932.67,2916.19,932.26,2897.35Zm24.34,16.82c11.66-.14,20-5.39,19.92-12.59-.06-7.76-13.17-18.19-22.59-18-10.83.27-14.44,3.58-14.43,13.19C939.53,2908.71,945.05,2914.31,956.6,2914.17Z"/><path d="M1209.58,2853.61c21.84-.41,28.41,9.48,20.38,28.58-3.44,8.19-9.28,14.64-14.67,21.45-1.77,2.24-3.63,4.42-6.57,2.24-2.68-2-.71-4.23.48-6.13,4.27-6.77,8.74-13.41,12.9-20.24,2.82-4.62,5.84-10.15,2.15-14.88-3.07-3.94-8.64-3.87-13.93-3.45-8.42.67-16.45,2.79-24.57,4.69-2.4.56-5.83,1.82-6.85-1.79-.91-3.2,1.93-4.87,4.48-5.68C1192.28,2855.54,1201.27,2853,1209.58,2853.61Z"/><path d="M1141.32,2901.76c-5.39,0-13.42.42-21.38-.16-4.51-.32-9.27-1.27-11.22-6.92s.4-9.32,4-13.4c4.57-5.15,11.33-8.54,13.06-16.16a3.52,3.52,0,0,1,5.56-2.31c3,1.89,3.52,5,2.12,8-2.3,5-6.91,8.1-10.66,11.91-1.76,1.78-5.13,3.17-4,6.34s4.71,3.5,7.69,3.63c6,.26,12.1,0,18.13.43,2.8.19,7.86-2,7.37,3.59C1151.71,2900.66,1148.43,2903,1141.32,2901.76Z"/><path d="M1117.2,2922.56c-1,3.72.15,10.46-3.9,11-5.86.82-7.07-5.75-8.41-10.55q-8-28.51-15.93-57c-.89-3.2-1.26-6.34,2.8-7.17s4.88,2.33,5.35,5.54c2.27,15.58,6.61,30.66,10.93,45.75.65,2.25.46,5.42,3.67,4.78C1119.32,2913.38,1116.83,2918.69,1117.2,2922.56Z"/><path d="M548.25,2870.48c3.56,1,3.66,3.89,4.18,6.41,2.32,11.12,4.62,22.25,4.49,33.69,0,3.75,0,7.35,3.5,9.86,3,2.12,3.23,4.86,1.37,7.86-1.37,2.2-3.33,3.3-5.94,2.5-3.17-1-5.3-3.25-5.53-6.46-.45-6-.24-12-.61-18a133.59,133.59,0,0,0-4.34-27.65C544.49,2875.5,544.05,2872,548.25,2870.48Z"/><path d="M1229.3,2920c-.47,3.87-2,6.84-6.16,6.52-3.29-.25-7.31-.94-7.37-5.2s3.25-6.61,7.09-7.17C1227,2913.53,1228.76,2916.39,1229.3,2920Z"/><path d="M192.22,2721.7a77.07,77.07,0,0,0,3.39,22.3c1.28,4,1.5,9.05-3.82,9.69-6,.72-3.55-5-4.31-8.11-3.19-13-.21-26.83-6.47-39.52-2.62-5.31,2-8.91,7.08-9.92,9.86-2,19.79-4,29.78-4.89,13.35-1.2,19.23,7.92,13.54,20.39-1.51,3.29-4.2,6-6.33,9-.94,1.32-2.48,2.57-1.52,4.41s2.81,1.37,4.45,1.13c.33,0,.66-.15,1-.19,7.74-.77,16.45-2.46,20.38,6.37,4.06,9.12-1.91,16.59-8.1,22.13-9.05,8.11-17.64,18.14-32,16.28-6.53-.84-11.7-3.25-12.55-10.66-.19-1.64,0-3.52,2.16-3.92,1.54-.28,2.19,1,3,2.08,6.26,8.38,12.82,9.7,21.54,3.44a63.56,63.56,0,0,0,17.24-18.06c4.24-6.9,2.24-11.16-5.81-11.1-8.37.06-16.73,1.39-25.11,1.78-3,.14-7.43,1.91-8.74-2.43-1.39-4.58,2.9-5.28,6.05-6.28,8.84-2.8,13.27-9.6,16.68-17.63,3.12-7.37-.61-9.22-6.83-8.9-3.32.18-6.59,1.23-9.87,1.92C191.41,2704.3,191.41,2704.31,192.22,2721.7Z"/><path d="M566.16,2727.19c-.47,4.67-.79,9.36-1.44,14-1.74,12.6-8.68,15.52-18.37,7.29a57.74,57.74,0,0,1-12.67-14.23c-1.41-2.37-3.56-4.44-6.61-3.49-2.51.79-3.13,3.44-3.37,5.76-.77,7.81-3.61,15-6.61,22.09-1.53,3.62-4.25,5.9-8.61,5.72-4.62-.19-4.64-3.89-6-6.9-6.39-14.35-10.88-29.59-19.66-42.83-1.87-2.82-1.61-5.31,1-6.93,3.2-2,4.9.61,6.1,3.11,5.24,10.85,10.46,21.71,15.51,32.65,1.14,2.45,1.68,5.94,4.72,5.76s3.54-3.73,4.3-6.22c2.32-7.67,5.62-15.19,4.84-23.48-.27-2.9,0-5.59,2.76-7,3-1.49,4.91.62,6.74,2.78,5.82,6.86,11.65,13.71,17.66,20.4,2.16,2.4,4.43,5.72,8.42,3.82,3.36-1.59,2.64-5,2.69-8,.13-8.46-.66-16.66-4.66-24.37-1.53-2.95-3-7.14.93-8.86,4.8-2.09,4.89,3.11,6.21,5.81C563.59,2711.37,567.13,2718.67,566.16,2727.19Z"/><path d="M603.69,2697.91c1.4,1.16,3.37,2,3.77,3.26,1.65,5.35,6.61,8.47,8.74,13.32,2.77,6.33,6.49,9.06,13.33,5.71,2.07-1,4.93-1.34,6,1.54.94,2.54-.74,4.28-2.89,5.75-6.48,4.43-6.57,9.72.77,12.63,6,2.38,6.52,5.72,5.61,10.83-.42,2.35-.46,4.91-3.19,5.73-3.29,1-4.87-1.25-6.17-3.77-2-3.84-5.42-6.64-6.9-11s-3.85-8.61-10.23-7.24c-5.94,1.28-10.93,2.68-11.14,10.3a45.9,45.9,0,0,1-2.45,12.77c-1,3-2.16,7.26-6.44,6.39-4.66-.95-4.73-4.89-3.76-8.88.71-2.94,1-6,1.72-8.9.86-3.64,1.81-7.07-1.27-10.37-2.45-2.61-2.31-6.24.64-7.9,7.36-4.13,6.39-11,7-17.58C597.35,2705.72,597.77,2700.5,603.69,2697.91Z"/><path d="M735.33,2721.77c.9,8.7,2,18,2.78,27.34.22,2.62,1,4.5,3.38,5.64,3,1.49,5.18,3.47,3,7a7.56,7.56,0,0,1-7.63,3.78c-3.73-.29-5.41-2.64-5.79-5.85q-2-16.44-3.56-32.94c-1.56-16-1.65-16.09-17.47-13-7.2,1.39-14.35,3.14-21.61,4.26-3.05.46-7.38,1.14-7.51-4-.08-3.65,2.93-4.6,6.12-5.38,13.1-3.22,27.2-2.37,39-11.09,4.13-3,7.34,1.34,8.5,5.59C736.17,2709.05,736,2715.1,735.33,2721.77Z"/><path d="M361.78,2728.92c-.16-2-.2-2.31-.22-2.64-1.21-24.39-8.43-28.65-31.84-19-4.22,1.74-10.33,7.51-12.68,1.16-2-5.42,5.73-7.83,10.87-9,4.89-1.12,10.08-2.46,14.92-1.89,8.27,1,14.43-5.48,22.4-5.05,3.41.19,7-.59,8.69,3.24,1.41,3.22-.14,5.75-2.79,7.84a8,8,0,0,0-2.67,7.33c1.85,16.82-2.15,34.28,5.74,50.45,1.54,3.15,1.82,7-2.79,8s-6.47-1.29-6.86-6.06C363.57,2751.34,360.34,2739.5,361.78,2728.92Z"/><path d="M302.74,2730.81A45.43,45.43,0,0,0,299,2711c-.8-1.85-2.38-4.93.92-5.93a4.66,4.66,0,0,1,6.18,3.66c1.82,11.87,5.08,23.83,2.76,35.81-1.08,5.57-4,11.43-11.3,12.58-7.9,1.24-10.1-4.5-13.24-9.75-5.85-9.77-8.24-21.23-15.09-30.49-2.54-3.43-.25-6.25,2.13-7.59,4.14-2.33,4.85,1.85,5.94,4.44,3.89,9.23,7.41,18.63,11.64,27.7,1.26,2.71,2.39,7.25,6.41,6.8,4.51-.51,6.16-5.07,7.25-8.77C303.46,2736.41,302.74,2732.86,302.74,2730.81Z"/><path d="M662.72,2749.12c-.47-13.69-.87-27.37-7.86-39.8-1.67-3-3.19-6.67.57-8.87,4.68-2.74,6.48,1.66,8.26,4.7,3.65,6.21,3.89,13.36,4.88,20.24,1.48,10.17,1.52,20.56,5.7,30.25,1.41,3.27.2,6.34-3.43,6.83-3.3.45-7.1-.38-8-4.38C662.2,2755.24,662.72,2752.12,662.72,2749.12Z"/><path d="M890.24,2730.55c.8-2.6.13-7.36,4.6-7.11,5.68.31,5.65,5.53,6,9.83.35,3.7-1.23,5.84-5.11,5.42C891.21,2738.19,889.7,2735.24,890.24,2730.55Z"/><path d="M794,2730c-1.89,2.79-2.79,7.54-7,7.09-3-.32-8.15-1.3-7.2-6.24.69-3.59,3.71-6,8.08-5.86C791.34,2725.09,793.6,2726.07,794,2730Z"/><path d="M837.91,2737.58c-3.82-.26-6.52-2.1-6.28-5.4.3-4.13,2.73-7.63,7.46-7.6,3.32,0,5.65,2.14,5,5.8S842.17,2737.45,837.91,2737.58Z"/><path d="M113.24,2738.55c.8-2.6.13-7.36,4.6-7.11,5.68.31,5.65,5.53,6,9.83.35,3.7-1.23,5.84-5.11,5.42C114.21,2746.19,112.7,2743.24,113.24,2738.55Z"/><path d="M17,2738c-1.89,2.79-2.79,7.54-7,7.09-3-.32-8.15-1.3-7.2-6.24.69-3.59,3.71-6,8.08-5.86C14.34,2733.09,16.6,2734.07,17,2738Z"/><path d="M60.91,2745.58c-3.82-.26-6.52-2.1-6.28-5.4.3-4.13,2.73-7.63,7.46-7.6,3.32,0,5.65,2.14,5,5.8S65.17,2745.45,60.91,2745.58Z"/></svg>