<svg xmlns="http://www.w3.org/2000/svg" width="1142.77" height="2587.54" viewBox="0 0 1142.77 2587.54"><title>c32-txt</title><path d="M294.52,740.14c.47-1.19,1.8-4.82,3.31-8.37q9.35-21.91,18.79-43.79c1.6-3.72,3.86-7.2,8.28-7.2,4.13,0,3.82,4.29,5,6.94,2.39,5.3,3.26,13.68,7.16,15.43,10.17,4.55,16.76,9.12,12.26,21.3-.09.26,1,1.11,1.65,1.46,4.62,2.39,7.52,5.61,5.3,11.18-.73,1.85-2,3.59-4.16,3.56-5.45-.06-8.22-4.2-10.35-8.22-3.57-6.74-5-15.07-16.07-13S307,726.71,306,738.79a11.56,11.56,0,0,1-3.16,7.32c-1.8,1.83-3.37,4.85-6.6,3.6S293.5,745.45,294.52,740.14Z"/><path d="M4.28,619.89C6.42,599,15,566.73,38.64,540.24c3.44-3.86,7.51-13,15-5.46,5.46,5.54,2.7,11.41-2.4,16.7-20.14,20.87-23.58,48.2-28.09,75-.5,3,.66,7.66,2.81,9.48,4.49,3.82,6.84-1.71,9.8-4,22.1-16.77,39.47-14.79,50.5,8.29,6.61,13.85,2.92,28.65-5.95,42-7.91,11.9-19.91,9.87-29.68,7.68C17.3,682.47,3,665,4.28,619.89Zm62.8,39.35C66,652.46,63.3,646.32,55.75,646c-6.27-.3-11.65,3.52-11.52,10.38.13,7.09,4.69,11.95,12.12,12.07C62,668.49,66.28,665.58,67.08,659.24Z"/><path d="M133,629.11c1.49-20.68,12.85-41.6,22.34-63.11,3-6.89,6.48-13.62,10-20.29,2.35-4.48,6.15-7.55,11.31-5.45s6,6.77,4.33,11.74-3.08,9.67-6.6,14c-13.82,16.95-18.47,37.65-22.24,58.5-.77,4.24-2.15,9.93,3.58,12.16,5.37,2.07,6.34-3.58,8.84-6.39,9.84-11.06,21.09-5.69,30.11-.37,13.46,8,19.19,21.59,15.84,37.08-3.72,17.26-18.23,25.5-33.3,25.69-13.83.17-30.06-1.37-35.49-21.13C138.18,658.64,134.29,646.06,133,629.11ZM173.87,667c5.95.25,10.39-2.49,11.23-8.26s-3.46-7.94-8.63-8.18c-5.91-.28-10.24,2.31-11.17,8.3C164.34,665,168.94,666.38,173.87,667Z"/><path d="M299.52,576.4c-.61-9.64-.9-19.31-1.93-28.91-1-9.29-.93-14.45,11.53-10.26,12.12,4.08,25.94,1.77,37.28,10.28,19,14.25,20,27.18,3.47,44.53-12.49,13.11-29.77,11.22-45.08,15.38-4,1.09-5.59-3.4-5.61-7.24-.06-7.92,0-15.83,0-23.75Zm8.67-8.61c-.32,13.13,7.95,27.14,15.05,27,10.11-.23,26.38-14.64,26.79-23.73.5-11.12-9.88-18.16-26.65-19.1C310.38,551.21,305.53,556.68,308.19,567.79Z"/><path d="M1113.4,562.27c6.37-1.07,12.45-2.07,18.51-3.13,2.69-.47,5.44-1,6.45,2.49.93,3.25-1.35,5.09-3.79,6.06a72.32,72.32,0,0,1-32.35,4.53c-4-.29-9.42-4.08-11.17,2.36a23.82,23.82,0,0,0,3.53,20.22c3,4.39,6.91,4.68,11.62,3.23,3.18-1,6.3-7.49,9.71-1.58,3.1,5.39-2.24,7.26-6,9.65-13.5,8.66-24.24,5.54-27.23-10.23-2.41-12.76-7-26-1.37-39.43.93-2.22.61-5.3,0-7.77-1.9-7.64,1.11-10.53,8.64-10.61,12.33-.14,24.64-.44,36.47-4.85,5.06-1.88,8.79,0,9.23,5.83.39,5-.94,8.08-7.21,8.35-8.24.36-16.44,2-24.62,3.4-3.26.54-8.09-.07-8.37,4.59s4.39,4.69,7.7,5.37S1110.11,561.79,1113.4,562.27Z"/><path d="M674.09,736.43c0,5-2.26,7.47-5.53,9.32-3.69,2.08-7.11,1.52-9.13-2-2.62-4.52-5.53-9.28-6.44-14.28-2.07-11.26-7.66-12.39-16.9-8C628.35,725.25,619,725.9,614.3,735a6.45,6.45,0,0,1-9.36,2c-3.72-2.53-2.25-6.62-.81-9.6,6.21-12.8,12.49-25.59,19.4-38,4.47-8.06,14.15-8.34,19.27-.75a249.12,249.12,0,0,1,14.84,24.56c3.63,7,5.77,14.7,13.49,18.81C672.75,732.79,673.44,735.38,674.09,736.43Z"/><path d="M764,570c0-7.9.13-15.8,0-23.69-.09-3.94.64-7.51,5.13-7.53s6.13,4.21,5.17,7.56c-5,17.45,5.28,16.77,17.07,15.16a56.4,56.4,0,0,1,13.18-.08c6.27.65,10.28-.93,10.94-7.93.36-3.79.16-8.67,6-8.36s8.28,4.48,8.73,9.78a41.49,41.49,0,0,1-.32,9.18c-1.26,9.14-3.22,18.22,2.19,26.9,2.58,4.14-.31,7.62-2.66,10.74-1.78,2.36-4.48,2.59-7.13,1.34-3.89-1.84-3.68-5.41-3.95-9-1.93-25-2-25-26.69-21-2.6.42-5.23.64-7.85.89-11.11,1.07-13.81,5.37-9.56,15.42.84,2,2.46,3.78,2.84,5.83,1,5.34-2,8.68-6.89,9.35-4.52.62-5.9-2.87-5.9-6.84q0-13.87,0-27.73Z"/><path d="M731.62,679.68c4-.27,7.92-.66,8.45,4.25.43,3.92-2.86,5-5.93,5.79-5.89,1.61-13.25,2.26-13.82,10-.62,8.42,7.44,9.77,13.09,12.77,2.33,1.23,4.55,2.91,7,3.58,10.7,2.87,16.71,9.62,12.81,20.33-3.54,9.69-12,15-23,14s-21.81-3.56-29-13.29c-2.13-2.89-6.82-6.26-1.9-9.84,3.8-2.77,6,1.28,8.16,4.11,7.93,10.3,18.2,8.9,28.71,5.26,2.52-.87,4.87-2.52,5.12-5.49.3-3.7-2.28-5.43-5.38-6.51-3.73-1.29-7.55-2.38-11.23-3.81-13.1-5.09-20.05-15.24-17.59-25.81C710.33,681.62,721.51,681.14,731.62,679.68Z"/><path d="M808.78,749.42c-10-.93-15.94-9.18-23-15.41-2-1.8-.52-5.09,1.69-6.88,2.74-2.22,4.53-.81,6.33,1.74s3.73,5.45,6.27,6.37c5.32,1.92,12.1,3.68,15.92-1.46,4.31-5.82-3.08-8-6.08-11-7.23-7.35-13.65-14.68-13-26.11.53-8.77,7.15-11.51,13.18-14.73,3.54-1.89,7.44-2.22,10.51,2,3.52,4.84,6.71,8.21-2.44,10.93-11.26,3.36-12.32,8.7-4.48,18,5.46,6.46,12.18,11.67,20.63,13.5,7,1.52,7.47,6.54,7.61,11.95.16,6.07-4.83,6.92-9,7.71C825.22,747.46,817.33,748.25,808.78,749.42Z"/><path d="M421.12,548.88l3.66-.19c20-1.18,28.36,2.34,31.82,13.86,3.93,13.09-6.14,19.68-14,25.76-13,10-27,9.13-37.64-.23-9.55-8.4-7.57-19.19-5-29.42C403.18,545.66,413.64,547.44,421.12,548.88ZM446,567c-.61-7.93-7.72-9-14.16-9-9.33.11-19.64,3.1-22,12.47-1.76,7,4.23,14.29,13.38,14.64C432.14,585.49,445.74,575,446,567Z"/><path d="M461.5,747.92c-31.37,1-39.92-33-29.91-54.94,6.2-13.57,33.88-14.6,41-2.36,2.24,3.85,4.1,8.63-.24,12-3.69,2.86-5.9-.79-8.52-3.35-6.2-6.07-14.28-8.24-21.64-3.72-7.11,4.36-7.69,12.7-5.84,20.28,2.59,10.57,8.89,18,20.19,20.24s22,1.83,29.76-8.44c2.8-3.7,5.65-10.11,10.83-5s-1.65,8.12-4.73,11.41C481.13,746,476.41,748.17,461.5,747.92Z"/><path d="M958.68,709.88c-1.29-11.8,3.5-21.53,13.48-26.57,7.06-3.56,16.08-4.74,23.68,1.63,2.89,2.43,5.64,4.59,3.64,8.65-1.77,3.6-4.94,2.89-8,1.89-8-2.57-15.52-1.12-20,5.74s-2.15,14.19,1.75,21.23c8.36,15,21.22,18.39,34.17,8.17,2.93-2.3,5.77-5,9.09-1.85,4.21,4.06.48,7.08-2.39,9.82-9.2,8.81-20.41,13.26-32.64,9.93C968.33,745,959,727.51,958.68,709.88Z"/><path d="M879.07,599.81c-13.93.08-20.93-8.56-20.94-25.83,0-12.84,9.6-30.22,16.81-30.43,17.47-.51,35.13,12.59,35.34,26.22C910.51,584.33,894.52,599.71,879.07,599.81Zm3.2-38.86c-10.8-2.66-13.7,3.49-14.41,12.81s3.17,14.08,12.37,14.67c7.91.5,21.14-10.18,20.12-17C898.79,561.17,890.88,560.24,882.27,561Z"/><path d="M1023.14,607.3c-7-.49-17.11-1.58-21.46-13.07-1.22-3.23-1.73-7.48,1.93-9.53,4.37-2.45,6.35,1.06,7.5,4.62,1.83,5.67,6,7.12,11.34,6.74,3.76-.27,6.88-1.92,8.35-5.5s-1-5.91-3.54-7.69a34.68,34.68,0,0,1-14-20.11c-3.62-14.12,8.53-28.14,23-26.6,3.94.42,7.19,2,7.39,6.06.22,4.32-3.3,5.41-7.11,6.08-13.41,2.39-15.15,6.11-9.06,18,2.44,4.78,5.3,9.37,9.78,12.23,8.61,5.47,7.46,13.7,5.6,21.19C1040.85,608,1033,607,1023.14,607.3Z"/><path d="M953.69,600c-15.13,0-23.55-10.88-23.38-30.21.11-12.27,11.36-26.31,21.24-26.51,9.29-.19,30,23,30.08,33.66C981.69,587.46,966.46,600,953.69,600Zm.62-11c9.08-.56,15.66-2.68,15.76-11.86.09-7.64-10.15-17.85-16.93-17.09-8.17.91-12.84,6.44-12.42,14.07C941.2,582.65,946,588.83,954.31,589Z"/><path d="M685.09,566.86c-.16-17.82,8.42-28.6,22.37-30,7.09-.73,11.77,2.62,16,7.37,2.92,3.31,3.91,7.5.6,10.71-3.81,3.72-6-.91-8.58-2.84-9.24-6.88-13.92-5.53-19,5.3-4.74,10.14-4.05,19.81,3.26,28.33,6.1,7.09,12.51,13.11,23.71,8.73,5.69-2.23,7.41-7.19,11.38-10.38,2.49-2,5.46-3.94,8.22-1.27,3,2.9.36,5.43-1.58,7.89C730.34,604.72,718,610,705,604.41,688.24,597.23,686,581.67,685.09,566.86Z"/><path d="M519.9,710.33c.7-6.64,1.4-14.09,2.3-21.51.33-2.66,1.27-5.6,4.61-5.29s5.78,2.67,5.35,6.3c-.78,6.54-2.08,13-3,19.54-3.05,20.42,6.49,28.44,25.75,21.36,5.28-2,10.83-3.35,15.36-7.39,4-3.55,8.71-2.72,10.86,2.28,2,4.71,0,8.68-5.31,10.14-10.12,2.81-20,6.39-30,9.54-14.51,4.57-24.85-4.07-25.82-19.61C519.65,720.86,519.9,716,519.9,710.33Z"/><path d="M580.77,558.77c-.94,9.73-1.07,19.42,4.22,28.2,2.69,4.45.86,8.54-1.22,12.5-1.53,2.93-3.89,4.89-7.45,4.25-3.19-.58-4.11-3.34-4.34-5.94-1.43-16.7-2.79-33.41-3.88-50.14-.28-4.25,1.37-8.24,6.54-8.14,4.33.08,5.83,3.59,6.07,7.36C581,550.82,580.77,554.8,580.77,558.77Z"/><path d="M895.41,723.47c1.29-7.85-3.53-16.4-4.31-25.55-.38-4.45-1.14-9.75,4.13-11.24,6.69-1.91,8.11,4.52,9.17,8.74,3.17,12.58-.25,26.11,6.19,38.57,1.69,3.27-2.48,9.54-8.36,9.7-4.79.13-6.65-3.61-6.8-8C895.32,732.14,895.41,728.63,895.41,723.47Z"/><path d="M1132.79,682.29c1,6.57-2.15,12.94-6.33,17.67-6.37,7.21-12.28,13.5-8.5,24.21,1.38,3.91-2.26,5.46-5.65,5.09-8.32-.89-8.69-9.06-12-14.27-2.51-4-1.43-8.28,3.26-11.27a73.23,73.23,0,0,0,10.09-8.4c2.92-2.72,6.41-6.05,3.25-10.14-3.68-4.75-7.89-1.26-11.72.72-3.66,1.9-5.64,5.39-8.2,8.4-3,3.56-7.26,6.1-11.16,1.63-3.31-3.82-2.64-8.62,1.51-11.62,9.27-6.73,19.24-12.6,30.27-15.61C1128.48,665.73,1132.83,670,1132.79,682.29Z"/><path d="M1121.25,753.17c-.87,5.16-1.09,9.91-7.68,8.93s-7.15-6.09-6.85-10.79c.31-5,4.3-7.94,9.1-7.48C1121.85,744.41,1121.27,749.56,1121.25,753.17Z"/><path d="M850.91,1033.79c1.22-.5,3.39-1.29,5.46-2.28,2.31-1.11,4.79-3.71,6.66.15,1.33,2.73.19,5.2-2.43,6.89-8.11,5.2-16.31,8-25.15,1.49-2.7-2-5.87-3.42-8.33-5.66-6.78-6.18-10.22-4.57-11.68,4.18-.61,3.67-2.29,7.94-7.06,6.49-4.08-1.24-3.31-5.4-2.24-8.66,3.53-10.76,1.33-21.3-1.24-31.75-1-4.28-.91-7.79,3.82-8.52,4.29-.66,5.29,2.61,5.49,6.51.15,2.86-.3,7.08,2.86,8.06,3.81,1.18,3.81-3.81,5.93-5.67,8.13-7.11,17.13-11.87,28.35-10.31,6.42.89,8.52,4.62,6.51,10.78-2.27,7-6.73,12.22-12.46,16.65-2.35,1.82-7.9,2-5.89,6.5C841.13,1032.31,845.52,1033.71,850.91,1033.79ZM841.42,1002c-6.41.1-16.07,7.67-15.59,12.62.34,3.53,2.88,4.15,5.75,4.16,6,0,16.49-8.38,16.13-12.95C847.43,1002.24,844.84,1001.79,841.42,1002Z"/><path d="M521.94,1020.17a44.42,44.42,0,0,1,11.39-25.74c3.37-3.82,6.54-4.92,10-1.14s3,7.22-1.68,9.88c-10.77,6.09-10.29,16.34-9.56,26.57.14,2,.65,4.25,3.09,4.65,3.26.53,4.06-2.28,4.36-4.42,1.12-8,5.15-14.39,10-20.46,3.13-4,7-6.51,12.26-4.45a12.51,12.51,0,0,1,8.23,10.59c1.94,15.95-16,33.19-29.67,33.15-9.45,0-14.52-7.72-17.1-16.2C522.11,1028.83,522.37,1024.63,521.94,1020.17Zm35.67-2.59c-5.67,1.07-7.52,6.51-9.66,11.11-1.41,3,1.06,5.24,4.31,4.87,6.5-.75,8.3-6.1,9.82-11.28C562.94,1019.35,560.86,1018.1,557.61,1017.58Z"/><path d="M1070.5,1012.9c-.55,5.15-.65,9.92-1.63,14.49-2.71,12.61-11.89,16.65-23.37,10.81-4.56-2.32-8.74-4.93-11.85-9.09-1.22-1.63-2.74-3.19-5.05-2.26s-2.22,3.15-1.86,5.15c1.09,6,2.47,15-4,15.45-7.37.52-4.76-9.31-6.19-14.68-2.35-8.82-.8-18.46-6.23-26.73-2.51-3.82,1.66-4.9,4.09-6.47,4.13-2.69,7.91-2.3,10.31,2a104.56,104.56,0,0,0,14,19.6c5.42,6,11.27,11.13,19.69,8.05,4.75-1.73,6.66-17,3.43-23.46-1.93-3.87-5.33-7.24-2.37-11.91a3.55,3.55,0,0,1,4.5-1.23c5.3,2.13,5.77,6.92,6.1,11.71C1070.21,1007.33,1070.35,1010.35,1070.5,1012.9Z"/><path d="M918.66,1000.39c1.39,12.08-6.95,22.49-6,34.54.32,4-.8,7.76,2.69,11.18,2.74,2.68,1.84,6.28-.51,9.15-1.59,2-3.84,3-6.28,1.93-3.12-1.34-4.27-4.07-4.32-7.36a70.2,70.2,0,0,1-.2-8.06c.79-8.16,2.77-16.59-10.91-13.93-3.91.76-7.28-3.53-9.59-6.68-7-9.45-8.51-21-10.95-32-.64-2.88.73-6.44,4.35-6.93s4,3,4.57,5.52c1.42,5.84,2.41,11.8,4,17.61,1.35,5,4.08,9.15,8.86,11.7,5.85,3.14,10.54,2,10.53-4.95,0-7.49,3.1-14.45,2.65-21.8-.23-3.82,0-7.24,4.36-7.47,3.9-.21,5.89,3.44,6.58,6.6C919.25,992.91,918.66,996.71,918.66,1000.39Z"/><path d="M650.46,997.77l-15.24,1.55c-1.78.18-3.4.88-3.83,2.71-.57,2.43,1.14,3.73,3.1,4.47,4.46,1.69,9,2.55,13.8,1.2,2.73-.76,5.91-2.94,8,.85a6.1,6.1,0,0,1,.11,4.78c-1.74,3.75-5.28,2-8,1.83-4.68-.24-9.33-.95-14-1.51-2.82-.34-6.24-.63-5.19,3.51a88.88,88.88,0,0,0,6.3,18c2.31,4.62,6.25,4.08,9.93.59s6.73-2,6.61,2.47c-.14,5.51-5.49,8.21-9.24,11.28-3.25,2.67-6.48.56-9.83-1.84-8.1-5.8-8.74-14.76-10.68-23.08-1.75-7.47-2.47-15.1-5-22.53-2.07-6.17.21-11,8.26-11.15,10.05-.19,20.1-.88,30.13-1.62,4.18-.3,9-1.08,9,4.57s-5.1,3.83-8.56,3.94C654.81,997.81,653.47,997.77,650.46,997.77Z"/><path d="M125,1024.18c.66-6.34.26-13,3.52-18.7,2.45-4.32,5.39-8,11-3,15.49,13.87,21.5,13.71,37.51-.41,6.82-6,9.54-5.49,12.45,3,3.42,10,1.35,20.65,3.45,30.87.47,2.3-.95,5.84-4.32,5.78a5.54,5.54,0,0,1-5.28-5.23c-.66-6-1-12.06-1.53-18.09-.62-7-4.08-7.75-9.46-4.21-3.92,2.58-7.78,5.26-11.84,7.61-6.46,3.74-12.91,6.61-18-2.21-1-1.65-3-3.16-5.12-2.28s-2.41,3.06-2.16,5.16a24,24,0,0,1-1.8,12.81c-1.08,2.46-1.26,5.52-5,5.06s-3.84-3.39-3.86-6.09C124.53,1030.88,124.86,1027.53,125,1024.18Z"/><path d="M443.67,1016.66c2.14-4.2-4.5-11.32,3.1-14.51s9.29,4.73,12.89,8.55a72.08,72.08,0,0,0,24.62,16.83c7.58,3.27,8.8-.18,8.85-6.51.05-5.35-2.61-9.58-4.88-14.08-1.69-3.35-3.43-7.59,1.67-9.22,4.67-1.49,7.35,1.31,8.24,6.21,1.71,9.5,5.63,18.73,2.41,28.69-1.67,5.18-4.17,7.63-10.22,6.91-10.15-1.2-18.1-6.42-26.11-12-2.26-1.56-3.89-5.66-7.44-3.56-2.85,1.68-1.47,4.77-.71,7.34,1,3.41-1.18,5.76-2.82,8.24-1.1,1.67-2.41,3.42-4.85,2.66s-2.67-2.73-2.85-4.81C445,1030.76,444.35,1024.08,443.67,1016.66Z"/><path d="M382.29,1012.71c.22,6.94-1.42,14.13,4,20.2,2.38,2.66,1.65,5.78-1.3,7.86-2.32,1.64-3.77,5.44-7.44,4.08-3.37-1.24-3.28-4.54-3.63-7.62-.82-7.21,3.12-16.49-2.57-21.13-5-4.08-13.47.49-20.48.35-10.18-.2-11,1-6.93,10.79,2.27,5.52-1.59,7.88-4.9,9.14-4.27,1.63-5.9-2.27-6.14-5.82-.66-9.71.25-19.49-1.62-29.16a4,4,0,0,1,3.75-5c3.16-.37,5.46,1.39,5.74,4.38.6,6.27,4.78,8.77,9.65,7.1,6.85-2.34,18,6.25,20.49-7.75a6.33,6.33,0,0,1,7.36-5.44c4.29.47,3.86,4,4,7C382.45,1005.3,382.3,1009,382.29,1012.71Z"/><path d="M761.34,1008.35c2-.21,4-.58,6-.61s4.12.84,4.68,3c.78,3.05-1.59,4.26-3.88,4.85a39.94,39.94,0,0,1-7,.71c-12.56.89-14.25,4.06-9.91,16,2.07,5.7,4.48,7,9.39,3.56,1.75-1.23,3.72-2.06,5.46-.35,2.21,2.18.57,4.32-.67,6.31-5.48,8.76-12.93,9-19.27.61-5.34-7.1-5.26-15.73-6.1-24-.49-4.89.43-9.35-4.71-13.19-4.19-3.13-3.49-9.14,2.83-9,12,.23,22.93-4.78,34.66-5,3-.06,7.11-.49,7.34,3.29.29,4.71-4.06,4.52-7.38,4.09-5.58-.73-10.52,1.91-15.82,2.6-2.71.36-7,.16-6.15,4.66.76,4.06,4.49,3.1,7.48,2.79C759.33,1008.53,760.34,1008.44,761.34,1008.35Z"/><path d="M253.71,996.9c.26,4.22-2.42,4.94-5.8,5a87.07,87.07,0,0,0-19.94,2.33c-5.52,1.39-6.62,4.79-5.38,9.85,1.41,5.76,5,6.06,10,5.06,4.08-.82,10.07-6.86,11.83-1.15,1.55,5-6.82,5.62-11.17,7.6-.92.41-1.91.65-2.86,1-3.45,1.16-6.42,3-5.27,7.18,1.21,4.42,4.4,4.23,8,2.65,2.1-.93,4.71-2.16,6.3.49s-1,4.13-2.6,5.77c-7.75,8-15.46,6.2-19-4.17-3.2-9.47-6.14-19.07-3.71-29.05,1.69-6.92,3-14.62,13.52-14.28,6.25.21,12.62-1.54,18.86-2.76C250.6,991.59,253.09,992.55,253.71,996.9Z"/><path d="M995.3,1027.62c1,7-3.86,11.41-9.23,14.94-6,3.92-12.46,2.44-18.2-.89-14.18-8.2-14.36-36.92-.33-45.31a9.82,9.82,0,0,1,12.23,1.38C987.72,1005.89,995.31,1014.53,995.3,1027.62Zm-30-7.33c-.47,7.89,4.34,11.72,9.87,14.43,3.74,1.84,8.08,1.89,11-1.91,4-5.13,2.24-10-1.12-14.78-1.92-2.72-3.23-5.88-5.15-8.61-3.75-5.32-7.58-4.56-11.32.18C966,1013,965.5,1017,965.31,1020.29Z"/><path d="M301,1023.51c.22-2.64.44-4.64.53-6.66.43-10.3-1.56-12.08-11.44-10.26-3.29.61-6.55,1.57-9.87,1.87s-6-1.54-6.37-5a5.13,5.13,0,0,1,4.76-5.62c12.3-1.5,24.63-2.81,37-3.84,3.06-.26,6.28,1,6.36,5,.08,3.49-1.72,5.71-5.55,5.61-6.14-.16-7.3,3.5-6.7,8.6.86,7.23-1,14.61,2.71,21.73,2,3.93,1.42,9.32-4,10.7-6,1.51-5.48-4.31-7-7.72C299.22,1032.88,301.47,1027.86,301,1023.51Z"/><path d="M715,1011.6c-.4-3.34-.79-6.67-1.22-10s.73-5.36,4.11-5.64c3.2-.28,5.52,1.56,5.52,4.58,0,13.13-1,26.46-7.55,37.94-4.62,8-13.8,6.69-18.25-1.74-5.32-10.11-10.35-20.38-15.3-30.68-1.57-3.26-3.64-7.21,1.52-9.34,4.63-1.91,6.45,1.55,8.5,4.88,4.63,7.53,5.46,16.51,9.52,24.22,1.19,2.26,1.67,5.92,4.78,5.88,3.45,0,4.38-3.64,5.75-6.33A26.66,26.66,0,0,0,715,1011.6Z"/><path d="M30.71,1048.67c-11.3-.26-25-15.54-23.25-26.13.42-2.59,1.19-6.38,4.22-5.93,4.39.64,1.65,3.94,1,6.28-2.15,8,3,13,8.54,16.48s11.76,1.52,16.8-2.62c3.51-2.89,3.25-6.57.71-9.83a17,17,0,0,0-5.56-4.22c-7.54-3.94-12.89-9.77-10.63-18.47,2.23-8.53,11.48-9.47,18.19-12.8,2.21-1.09,4.76.46,5.19,3.29s-1.58,4-4,5c-15.45,6.52-16,10.91-1.46,21.69,6.65,4.94,9.65,10.68,6.69,18.06C44.44,1046.33,38,1048.69,30.71,1048.67Z"/><path d="M85.89,1002.23c5.23-2.08,11.32-2.21,16.09,3.69,3,3.78,5,8,4.8,12.93-.35,9.66-13.29,20.61-23.49,19.95-7.86-.51-16.34-10.87-15.87-19.4C68,1009.77,76.07,1001.64,85.89,1002.23Zm-.48,28.3c9.14-.17,15.35-5.55,15.3-12.34,0-4.73-10.87-12.4-17.43-10.78s-9.87,7.32-9.73,14.49C73.74,1031.06,81.14,1029.23,85.41,1030.53Z"/><path d="M410.34,1023.77c.61-7.23,1.06-14.28,1.85-21.28.31-2.76,1.7-5.46,5.1-5a4.78,4.78,0,0,1,4.29,5.82c-1.75,10.63-2.8,21,1.07,31.61,1.37,3.75-1.81,7.37-6.18,7.47-3.87.08-6-2.8-6.1-6.66C410.23,1031.66,410.34,1027.63,410.34,1023.77Z"/><path d="M1122.18,1013.85c-6.88.44-12.89,1-18.91,1.17-4,.14-5.21,2.67-5.62,5.85-.69,5.49.14,11.05,3.22,15.47,3.85,5.51,8.71,10.6,14.66,1.63,1.37-2.07,3.5-3.89,5.88-2.22,2.77,2,2,5.18.09,7.11-4.7,4.75-9.58,9.84-17.22,8.67-7.1-1.09-8.83-7.1-11.43-12.66-4.17-8.91-2.48-18.36-3.34-27.53-.58-6.22,3.5-7.71,9.27-6.22,8.4,2.15,16.91,3.71,25.66,2.16,2.72-.48,6.87-2.65,7.19,2,.28,4-3.61,5.13-7.34,4.87A17.5,17.5,0,0,1,1122.18,1013.85Z"/><path d="M1101.28,997.29c-2.68,1.33-5.79,1.72-5.89-2.21-.07-3,2.48-4,4.81-4.24,10.32-1,20.8,0,31-2.67a3.26,3.26,0,0,1,4.23,3.16c-.25,4-3.54,5.75-7,5.86C1119.4,997.48,1110.33,997.29,1101.28,997.29Z"/><path d="M671.78,1139.79c-.35,7-2.55,12.1-8.39,15.27-1.68.91-3.88,2.18-3.64,4.6.31,3.08,3.09,3.31,5.41,3.86a21.07,21.07,0,0,0,5.08,1c5,0,10.76-.11,12.31,5.31a17.7,17.7,0,0,1-3.28,15.62c-12.66,16.39-38.91,14.42-46.73-4.36-2.72-6.53-1-14.93-1.26-22.48-.26-8.12-5.52-16.35,1.09-24.4,1.57-1.91,2.72-5.15,5-3.55,8.36,5.72,16.86,1.55,25.11.74C670.43,1130.59,672.73,1133.44,671.78,1139.79Zm-15.49,31.63c-14.32-.94-16.43,1.07-11.39,11.16,2.75,5.48,7.31,6.92,13.06,4.83,6-2.17,13.19-5,13.22-11.45,0-6.77-7.56-3.25-11.79-4.26A19.85,19.85,0,0,0,656.29,1171.42Zm-16.35-19.12c.87,1.61-1.76,5.35,2.78,6,2.88.38,16.91-10.59,16.51-13-.53-3.07-3-3.92-5.5-3.17C648.17,1143.8,639.28,1141,639.94,1152.3Z"/><path d="M887.69,1178.27c1.1-9.78,2.7-20.93-4-31.49-2.25-3.56.63-6.75,4.29-7.9,4.59-1.46,4.89,2.48,5.67,5.37s-1.35,7.37,2.43,8.22c4.67,1,3.34-5.06,6-7.07,1.58-1.22,2.28-3.52,3.78-4.89,5.39-4.92,11-9.88,19.12-7.44,5,1.51,6.85,6.19,6.76,10.63-.18,8.06-1.68,16.66-10.11,20-5.64,2.23-8.66,4-5.64,10,3.75,7.49,14.29,12.39,19.31,9.09,2.27-1.49,3.88-6.39,7.26-2.4,3.06,3.61-.55,6.32-3,8.65-7.32,7.09-16.18,7.06-22.38-1-4.11-5.35-9.45-10.13-11-17.29-.5-2.36-1.94-4.79-4.86-4.49-3.29.33-3.1,3.24-3,5.61a21.38,21.38,0,0,1-1.92,10.06c-1.28,2.6-1.24,6.91-5.77,5.54C887.05,1186.42,886.78,1183.09,887.69,1178.27Zm26.3-22.58c4.67-.88,8.57-3,8.7-8.42.07-3-2-5.51-5.41-4.65-4.51,1.15-8.43,4-9.18,8.69C907.59,1154.48,910.79,1155.66,914,1155.69Z"/><path d="M287.54,1152.82c.32,8.63,2.33,17.15,1.3,25.88-.92,7.82-5.06,9.46-11.48,6.07s-11.39-9-16.59-14c-4-3.87-7.85-5.21-10.11,1.39-1.7,4.94-5.91,7.6-9,11.2-5.86,6.69-10.08,5.8-12.78-3s-4.6-18-9.64-26c-1.32-2.11-1.94-4.82,1-6.24s4.63.83,5.72,3a73.85,73.85,0,0,1,6.45,19.57c.44,2.33.62,5.2,3.35,6,3.51,1,4.78-2.18,6.22-4.35,3-4.58,6.37-9,6-15.08a6.53,6.53,0,0,1,4-6.72c3.53-1.26,4.58,2,6,4.35,4,6.68,10.56,10.9,15.69,16.49,1.4,1.52,3.15,3.13,5.4,2.11,2.7-1.24,2.51-3.95,2.3-6.37-.57-6.56-1.4-13.09-1.85-19.66-.21-3-2.89-7.83,2.6-8.28s6.59,4.08,6.37,8.66A38.19,38.19,0,0,1,287.54,1152.82Z"/><path d="M1035.75,1153.19c4.67-5.16-6.11-12.19,1-16.26,4.65-2.65,11.4-2.14,17.2-2.1s10.61-.95,15.47-4.33c3.55-2.47,9.39-1.82,10.55,2.18,1,3.47-3.78,5.64-7.87,6.13-7.5.9-14.39,4.7-22.18,4.49-2.78-.08-7.28-1.36-7.42,3.19s3.37,7.85,8,7.73c6.53-.18,13-1.33,19.53-2.16,2.21-.29,5-2.24,5.87,1.36.64,2.69-2.19,3.2-4,3.72q-9.41,2.65-18.91,4.92c-3.65.88-8.74.78-8.26,5.87.63,6.78,1.89,14.33,8.64,17.8,4.22,2.17,9.47,1.75,12.82-3.37,1.56-2.38,2-8.52,6.55-4.71,2.89,2.41,1.12,7-1.82,10.1-5.08,5.37-10.58,11.55-18.41,9.52-10.56-2.72-12.31-13.34-14.71-22C1035.89,1168.37,1036.36,1160.86,1035.75,1153.19Z"/><path d="M721,1129.71c4.43,0,8.23.12,12,0,3.12-.13,7-1.09,6.48,3.84-.33,3.42-1.71,6.61-6.53,6.41-7.25-.29-14.52-.1-21.79-.06-4.12,0-7.74.8-7.88,6-.14,5.71,3.67,6.87,8.23,6.9a49.86,49.86,0,0,0,7.22-.59c2.85-.42,5.93-1.12,6.13,3.07.15,3.33-2.15,4.86-5.31,5.15-1,.1-2.08.11-3.11.26-14.44,2.09-15.53,3.73-11.53,17.4,1.62,5.52,3.88,9.92,11,6.7,2.46-1.12,4.84-.83,6,2.08,1,2.6-.06,4.62-1.94,6.49-6.5,6.44-15.74,4.72-20.37-4.67-5.62-11.4-4.83-24.09-6.43-36.36-1.33-10.16,3.29-15.33,10.3-20.17C709,1128.28,715.73,1132.33,721,1129.71Z"/><path d="M91.75,1171.49c-.65-9.1-.93-16-1.74-22.84-.46-4,.18-7.19,4.3-8.09s5.13,2.74,6.19,5.62c5.42,14.61,16.76,23.2,30.2,29.49,7.18,3.36,10.13.8,9.43-7.21-.43-5-2.57-9.32-4.65-13.63-1.67-3.46-4.07-6.59-1.65-10.56,1-1.58,2.48-2.72,4.29-1.63,3.36,2,3.12,5.71,4.09,9,2.21,7.53,5.95,14.54,5.68,22.8-.32,10-5.65,14.38-14.74,10.35-9.64-4.28-20.33-7.25-26.64-16.9-1.19-1.82-2.86-3.56-5-2.25-1.15.7-1.74,2.85-2,4.44-.71,4.83,4.24,13.43-4.27,13.14C87.47,1183,93.28,1174,91.75,1171.49Z"/><path d="M53.47,1171.48c-7.76-.71-15.71.66-23.1-3.91-5.69-3.51-7.51.79-6.71,5.78.7,4.4,2.38,8.63,3.47,13,.62,2.49.47,5-2.42,6S20.06,1191,19.1,1189a18.93,18.93,0,0,1-1.35-7c-.69-14.74-.51-29.58-5.09-43.86-.65-2-.1-3.63,1.9-3.93a4.41,4.41,0,0,1,5.33,3.79c.64,4.43.68,9,1,13.42.54,6.93,2.14,11.3,9.74,4.93,5.79-4.85,12.09-9.09,18.12-13.66,1.82-1.37,3.49-4.27,5.84-1.23,1.78,2.31.47,4.78-1.61,6.3-3.33,2.43-6.93,4.49-10.36,6.79-1.64,1.11-3.95,2-3.27,4.61.59,2.3,2.71,3.14,4.76,3.39,7.18.89,14.32,1.7,21.41-1.06,3.67-1.42,8.2-2.06,8.57,3.66.28,4.32-2.81,7-7.23,7.06S58,1171.73,53.47,1171.48Z"/><path d="M533.38,1184.34c-10,.05-20.83-11.28-21-21.95-.17-11,8.52-20.09,19.09-20,17.11.12,28.14,8.27,28.3,20.9C559.9,1173.51,546.4,1184.29,533.38,1184.34Zm-.29-33.37c-5.32,1.33-9.8,4.29-9.91,11.53-.15,9.41,7.1,12.22,13.75,12.35,6.09.12,13.17-2.92,14.85-10.23C552.91,1159.75,541,1151.17,533.09,1151Z"/><path d="M478.78,1169.2c0-20.9,0-20.75-20.59-20.51-4.66,0-12.48,3.14-13-3.85-.52-7.61,7.47-5.95,12.78-6.35,9.2-.7,18.64,1.27,27.55-2.93,2.39-1.13,5.67-1.4,7.64,1.24,2.12,2.85,1.53,6-.63,8.59-7.62,9.14-2.56,20.06-4.26,30a3.77,3.77,0,0,0,2.05,3.07c3.91.82,8.55,1.49,5.89,6.83-2.17,4.34-6.58,7.34-11.92,6.53-4.93-.75-6.54-4.69-6.44-9.21S478.47,1173.68,478.78,1169.2Z"/><path d="M335.33,1193.23c-11.32-.16-20.06-6.23-24.1-15.93-1.24-3-1.32-5.58,1.6-7.18,3.26-1.8,5.19.46,6.42,3.16,2.75,6.07,6.77,10.5,13.87,10.79,2.82.12,5.74-.48,7.23-3.22,1.67-3-.53-5.49-2.36-7.35a79,79,0,0,0-10.93-9.51c-4.33-3-6.33-7.15-7.45-12-2.78-12,2.18-18.38,14.54-18.58,2.48,0,5.18-.42,5.59,2.94.37,3-1.77,4-4.34,4.8-9.69,3.11-10.89,7.66-3.74,15.41a113,113,0,0,0,13.1,11.81c5.61,4.43,9.77,9.38,6.41,16.78C348,1192.06,341.8,1193.87,335.33,1193.23Z"/><path d="M853.62,1168.89c-.16-2.43-.29-4.85-.47-7.27-1.52-20.33,2.19-19.87-21.94-17.86-3.3.27-7.14,3-8.41-2.2-1.36-5.66,3.71-4.59,6.69-5.35,11.35-2.89,22.69-5.82,34.5-6.3,3.41-.14,6.4-.1,6.78,4.25.26,3,1.1,6.47-3.7,6.94-4.15.4-4.62,3.46-4.74,6.78-.45,13.44-2.76,26.87-.31,40.34.6,3.3,2.42,7.93-2.4,8.56-5,.66-5.49-4.3-5.59-8.14-.16-6.58,0-13.17,0-19.76Z"/><path d="M1000.23,1161.34a20.13,20.13,0,0,0-5-13.81c-1.76-2-2.93-4.06-.44-6.24,2.34-2.06,4.31-.92,6.34.86,11.13,9.79,7.77,36.42-5.48,42.92-7.36,3.61-15.14.51-20.11-9.29-4-8-7-16.52-10-25-1.24-3.51-1.9-8.31,3-9.49,4.43-1.07,5.37,3.18,6.22,6.62,1.74,7,2.18,14.62,6.58,20.55,2.74,3.71,4.4,11,11.35,8C998.45,1173.89,1001.21,1168.54,1000.23,1161.34Z"/><path d="M178.81,1142.38c-3.11,6.66-8.27,11.63-7.94,19.06.31,7,1.74,13.86,8.78,15.76,6.29,1.69,12.34-1.91,15.56-7.9,3.74-6.93.87-12.63-4.84-17.11-2.63-2.06-7.27-4-4-7.64s6.65-.09,9.58,2.49c7.21,6.36,10.39,13.82,6.09,23-4.54,9.66-15.08,15.65-24.09,14.33a11.61,11.61,0,0,1-7.74-4.65c-6.73-8.64-6.65-25.48-.08-34.1C172.25,1142.79,174.51,1141.69,178.81,1142.38Z"/><path d="M1125.27,1150.94c-1.66,3.79-2.07,9.06-7.79,9.5-4,.3-5.41-3.38-5.28-6.29.2-4.5,3.23-7.54,7.87-8.13C1123.3,1145.61,1125.38,1147.09,1125.27,1150.94Z"/><path d="M1123.42,1180.76c-4-.41-5.79-3-5.18-6.34.74-4,2.37-8.23,7.58-8.15,3.26,0,5,2.52,4.44,5.63C1129.54,1175.9,1128.55,1180.11,1123.42,1180.76Z"/><path d="M420.33,38.72c.34-10.35-1.65-19.09-3.35-27.89-.66-3.43-1.67-7.56,2.13-10.06,3.65-2.41,5.11,1.49,7.39,3.06,5.95,4.11,11.56-.6,17.29-1,15.72-1.23,18.65,1.29,15.07,16.34-1,4.12-.42,5.92,3,8,8.65,5.07,10.71,14.06,6.28,25.63-3.77,9.85-9.9,13.18-20.25,11.62-9.7-1.47-16-9.58-25.51-12.17C417.81,50.9,420.37,42.61,420.33,38.72Zm31.9-3.29c-6.36,2.11-13,4.11-19.46,6.58-2.56,1-2.77,3.3-1.29,5.81,3.53,6,14.47,10.62,21,8.38s9.34-7,9.09-13.82C461.38,36.29,456.82,36.07,452.23,35.43Zm-.81-18.5c.13-3.12-1.25-5.59-4.47-4.93a151.6,151.6,0,0,0-18,5c-2.88,1-3.55,3.82-2.84,6.61s.62,6.16,3.91,7.43C435.91,33.31,451.12,23.18,451.42,16.93Z"/><path d="M299.14,286.29c1.17-6.1-2.89-14.47,2.6-22.25,5-7.08,7.74-7.78,13.16-1.39,16.12,19,19.17,19.14,36.15,1.18,2.51-2.65,4.76-6.26,9.05-4.35,3.82,1.69,4.35,5.53,4.34,9.35,0,8.31-.06,16.63,0,24.94,0,3.23-.86,6.8,2.83,8.9,2.71,1.55,4,3.79,2,6.54-2.28,3.14-5.52,4.87-9.52,4-3.28-.75-3.5-3.41-3.53-6.27q-.13-12-.61-23.92c-.11-2.63-.45-5.72-3-7-2.86-1.39-4.78,1.57-7,2.83a14.83,14.83,0,0,0-2.87,2.74c-9.58,9.74-9.47,9.61-19.79,1.38-2.39-1.91-4.75-5.68-8.43-4.08-3.47,1.52-3.29,5.57-3.41,8.82-.25,6.37-.76,12.6-4.58,18-1.39,2-3.13,3.83-5.72,3.08s-2.91-3.3-2.76-5.74C298.37,298.11,298.69,293.13,299.14,286.29Z"/><path d="M11.49,176.14c-3.07-11.5.32-23.22-2-34.84-1.34-6.68-1.2-14.73,10.47-12.43,3.27.64,7.08-1.48,10.65-2.27,10.54-2.31,15.25,2.11,13.47,12.78A30.15,30.15,0,0,1,41.69,147c-2.47,5.33-.4,8,4.9,7.54,9.72-.81,11,4.71,10.64,12.43-.66,13.66-11.17,26.39-22.3,26.65-4.48.1-8.65-.33-11.43-4.6-.86-1.33-2.82-3.52-3.32-3.29C6.8,192,12.54,180.8,11.49,176.14Zm30.27-13.33c-13.71.28-21.5,4.86-21.66,11.36-.22,9.36,7.76,10.25,13.38,11.55,6.23,1.45,16.28-10.19,15.87-16.63C49,163,44.54,162.82,41.76,162.81ZM16.47,147.94c1.88,2.94-1.89,9.12,5.21,9.61,5.72.39,15.73-11.15,15.15-17.46-.34-3.58-2.65-5.68-6.12-4.58C24.45,137.51,16.36,137.78,16.47,147.94Z"/><path d="M776,169.09c-.13-6.9,1.1-14-3.14-20.33-3.06-4.58-1.48-8.71,3.22-10.62,5.75-2.34,6.78,1.85,6.89,6.37,0,2.18.81,4,3.12,4.46s3.52-1.45,4.67-3.07c3.85-5.42,7.19-11.44,14.8-12.35,5-.59,10.32-1.66,13.2,4,2.75,5.42,2.49,11-1.18,16-1.35,1.84-3.63,3-5.05,4.79-2.27,2.86-9.06,3.23-6.68,8.39,2.54,5.47,7.49,9.58,14.21,9.39,3.09-.09,7.51-3,7.52,2.49,0,4.39-3.3,8-8.55,7.9-4.89-.11-9-2.43-12.52-5.63s-6.49-6.69-9.75-10c-2-2.08-3.66-5.74-6.95-4.84s-2.83,4.9-3.44,7.74c-1,4.49-1,11-6.71,10.65-7.3-.49-2.83-7.31-3.62-11.34A21.22,21.22,0,0,1,776,169.09Zm36.4-23.23c-.17-4.25-2.63-5.28-5.48-4.86-5.6.83-10.21,3.61-11.54,9.41a4,4,0,0,0,4.7,4.94C805.82,154.22,810.28,151,812.42,145.86Z"/><path d="M605.84,274.59c.16,10.29.58,19.75-4.38,28.13-3.3,5.6-7.15,9-12.55,1.27-3.39-4.86-8.28-8.67-11.95-13.37-4.59-5.89-7.4-4.2-9.77,1.58-1.89,4.61-3.33,9.44-5.62,13.84-2.08,4-5.6,7-10.55,5.73-4.3-1.1-5-5.12-5-8.86-.16-11.11-3.7-21.6-5.69-32.37-.57-3.09-.9-6.5,2.83-7.49,4.32-1.14,4.28,3,5.44,5.56,3,6.6,1.5,13.82,2.94,20.64.49,2.27.28,5.24,2.91,5.86,3.47.82,4.36-2.62,5.25-4.89,1.8-4.58,4.28-9,4-14.25-.18-3.31-.28-7.2,3.87-8.17,3.81-.89,5.94,2.19,7.9,5q6.62,9.35,13.27,18.68c1.36,1.89,2.67,4.08,5.5,3.46,3.3-.73,3.86-3.5,3.74-6.22-.27-5.93,1.06-12-1.54-17.76-1.5-3.34-2.88-7.05,1-9.88,1.64-1.19,3.7-1.92,5.65-1,4.4,2,3.21,6,3.12,9.59C606.18,271.58,605.92,273.57,605.84,274.59Z"/><path d="M1126.09,185.49c-11.94-.87-19.81-6.84-27.21-12.81-7.61-6.14-11.43-5.48-13.31,4.25a21.81,21.81,0,0,1-2.23,5.54c-1.15,2.23-2.93,3.94-5.61,2.73a4.45,4.45,0,0,1-2.43-5.85c4.41-13.1,4.87-25.82-2.62-38.16-1.62-2.67.06-5.3,2.59-6.68s4.28.23,5.66,2.43c2,3.23,2.54,6.73,2.93,10.44.25,2.42-.68,6.08,2.55,6.92s5.84-1.52,7.27-4.2c3.72-7,11-8.57,17.29-11,8.86-3.4,13.4,1.2,11.28,10.7a24.69,24.69,0,0,1-8.62,14.22c-4.84,3.94-4.05,7.23,1.76,9.3,6.08,2.17,12,6.59,18.54.62,2.1-1.91,5.24-1.52,6.76,1.5s-.36,5.41-2.93,6.42C1133.47,183.58,1128.92,184.64,1126.09,185.49Zm-12.56-33.59c-.06-3.85-2.31-5-5.29-4.59-4.79.62-9.43,2.21-10.59,7.51-.73,3.37,1.63,5.86,5.18,5.73C1108.51,160.35,1111.53,156.48,1113.53,151.9Z"/><path d="M1061.92,311.61c-8.68.79-14.44-4.38-20.06-9.69-4.77-4.49-8.25-5.49-10.07,2.45-.83,3.62-.91,9.6-6.32,8.27-5.16-1.26-4-6.92-3.33-11.17,1.77-10.56,3.25-21-1.4-31.34-1.47-3.3-2-8.16,2.88-9.06,6.15-1.15,5.29,4.23,5.76,8.07.41,3.44-1.7,8.15,2.64,9.85,4.91,1.94,5.45-3.64,7.71-6.08a52.74,52.74,0,0,1,18.6-13c6.49-2.7,9.27-.12,8.92,6.91-.5,10.43-4.57,18.9-13.77,23.86-7.39,4-4.75,6.57.35,9.4s10.55,4,16.26,1.61c2.07-.86,4.44-2.91,6.26-.32,2.06,2.94-.67,4.93-2.54,6.68A13.19,13.19,0,0,1,1061.92,311.61Zm-6.74-43.87c-4,1.81-7.74,4.33-10.08,7.91-1.88,2.89-8.8,4.42-4.74,9.15s8.6.76,12.23-2a19.77,19.77,0,0,0,6.46-9.87C1060.13,269.55,1058.6,267.86,1055.18,267.74Z"/><path d="M414.77,257c7-.65,14.58-1.27,22.16-2.09,3-.32,6.73-1.35,7,2.95.26,4.56-2.75,5.5-7.34,5.36-10.85-.33-20.81,5.39-31.77,5.46-2.47,0-3.65,2.79-3.3,5.33s2.23,4.39,4.81,4.06c5.5-.7,11.29.77,16.46-2.67,2.39-1.59,5.62-1.38,6.65,1.74s-.69,5.73-4.24,6.53c-5.78,1.31-11.55,2.65-17.34,3.89-9,1.93-7.19,8.16-5.29,14,2.25,6.9,6.06,5.75,10.22,1.42,1.54-1.61,3.58-2,5.18-.07,1.29,1.53,2.32,3.45.94,5.45-3.29,4.76-6.88,8.81-13.55,8.69s-9.64-4.1-10.54-9.8q-3-18.58-5.15-37.26c-.51-4.41,2.34-7.47,6.24-9.31C401.66,258,407.59,255.93,414.77,257Z"/><path d="M899.39,31.81c-.86,8.93-1.43,15.16.73,21.39,1.1,3.15,1.27,7.65-3,8-3.82.27-4.67-4-4.87-7.43-.4-6.62-.62-13.25-1-19.87-.08-1.63.34-4.14-.53-4.75C881.77,22.74,874,31,865.65,32c-5.78.7-4.27,6.26-2.22,10.45,1,2.07,2.59,4.18,2.67,6.32.18,4.43-2.47,8-6.67,8.64-4.79.75-5.37-3.92-4.82-6.89,1.82-9.92-5.88-18.07-4.71-27.8a5.6,5.6,0,0,0-2.09-4.25c-3.23-2.4-7.76-4.13-2.9-8.9,2.82-2.78,4.49-8.11,10.3-5.2,4.3,2.15,9.57,3,7.25,10.36-2,6.47,1.48,8.44,7.69,6.6,7.51-2.24,17.81,2.27,21-10.23,1-3.87,4.25-.37,5.42,1.94A31.19,31.19,0,0,1,899.39,31.81Z"/><path d="M731.72,282.3c0-5-.06-10,0-15,0-2.5.87-4.73,3.74-5.07,2.58-.31,3.63,1.84,3.83,3.73,1,9.36,7.36,8.75,14,7.89,3.3-.42,6.84-1.62,9.89-.88,8.32,2,12.58-.8,13.85-9.17.39-2.61,1.8-5.46,5.11-5.13,3.52.34,3.5,3.66,3.63,6.19.44,8.65.59,17.32.91,26,.15,4,0,8.17,3.15,11.26s1.86,6,0,9c-1.22,2-3.31,2.28-5.29,1.65-3.77-1.19-4.75-4.21-4.81-7.85-.09-5.67-.11-11.35-.65-17-.55-5.83-3.14-9.07-10-7.59s-13.8,1.91-20.71,2.85c-3.81.52-7.33,1.69-8.25,6-.77,3.6.36,6.52,3.93,8.26,2.21,1.07,4.24,2.67,2.74,5.44a9.46,9.46,0,0,1-8,5.29c-3,.09-4.83-2.37-5.52-5C731.57,296.31,731.64,289.3,731.72,282.3Z"/><path d="M871.23,295.9c-1.1-6.94-2.38-16.39-4.2-25.73-.73-3.72-1.8-7.12,1.1-10.28,1.2-1.32,2.63-2.17,4.28-.8,3,2.47,2.72,5.78,2.26,9.16-1,7.09,3.49,8.64,9.12,8.41,5-.2,9.91-1.22,14.88-1.31,8.57-.15,15.87-1.13,13.22-12.78a3.09,3.09,0,0,1,2.06-4c2.4-.72,3.66.81,4.57,2.73A61.61,61.61,0,0,1,923,275.44c1.63,7.86-1.81,16.42,4.35,23.87,2.37,2.86-1,7.2-4.94,8s-5.32-1.83-6-5.87c-1.07-6.7,2.61-15.54-3.48-19.66-5.36-3.64-12.34,2.71-18.92,2.76-.33,0-.66.11-1,.14-17.85,1.92-17.83,1.91-11.2,19.2,1.39,3.63.13,7-2.9,8.67-4.06,2.25-6-1.36-7.48-4.31C869.88,305.15,871,301.74,871.23,295.9Z"/><path d="M504.82,136.05c11.25-1.74,22.12-2.42,32.81,1.4,12.6,4.5,15.78,16.62,6.55,26.48-5.22,5.57-11,10.66-16.71,15.72-6.67,5.88-15,6.47-22.55,3.62-7-2.63-7.21-10.06-7.62-16.83-.4-6.58-1.54-13.13-2.58-19.66C493.39,138.43,495.1,133.25,504.82,136.05Zm17.72,6.86c-21.86-.65-21.79,5.63-15.84,22.67.53,1.51,2,2.92,1.95,4.36-.24,11.89,6.07,8.15,12.19,5.33,3.72-1.71,6.48-4.53,9.25-7.39,5.25-5.42,13.33-11.45,10.41-18.75S527.5,143.46,522.54,142.91Z"/><path d="M300.38,28.1c1.52,5.25-3.13,13.19,4.15,19,2.15,1.73.7,5.13-1.16,7.23s-4.21,3.19-7.14,2c-3.13-1.27-3-3.81-3.08-6.59-.28-7-1.13-13.91-1.39-20.87-.17-4.55-1.83-6.07-6.21-4.42a67.35,67.35,0,0,1-20.23,4.57c-7.88.45-9.81,10.46-3.65,19.89,2,3.11,4,5.32.65,8.46-1.69,1.59-3.21,3.52-5.91,3.11-3-.46-3.18-3.05-3.67-5.27a47,47,0,0,1-1.14-6.86c-.74-10.56,1.15-21.29-2.34-31.71-1.09-3.26.64-6.1,4-7,4-1,4.14,1.77,4.09,4.78-.11,6,3.34,7.23,8.58,6.27,4.9-.9,9.86-1.58,14.82-2.15,5.53-.63,9.62-2.35,9.33-9.09-.12-2.74,1-5.66,4.47-5.42,3,.2,4.64,2.81,4.9,5.54C300,15.29,300,21,300.38,28.1Z"/><path d="M100.7,287.61c.48,4.06.55,10.6-3.1,16.72s-7.26,7.21-12,.9A140.57,140.57,0,0,0,66.47,285.1c-5.33-4.75-7.2-2.77-7.93,3.4-.62,5.24.27,10.7-2,15.71-1.14,2.52-2.67,4.84-5.95,4.25-4.05-.73-2.75-3.76-2.44-6.31,1.21-9.85,3.3-19.58.44-29.65-1.06-3.71,1-8,5.19-9.83s5.43,2.21,7.76,4.33c8.37,7.63,13.7,18,22.71,25,2,1.57,3.7,4.43,6.8,3,3.46-1.63,2.85-5.11,2.41-7.94-.75-4.9-2.29-9.67-3-14.56-.47-3-2.38-7.46,2.19-8.46,4.72-1,6,3.51,6.57,7.05C100,275.63,100.07,280.33,100.7,287.61Z"/><path d="M649.08,31.72c5.41,1.84,15.32-5.1,16.46,4,.58,4.58-10.63,3.73-16.56,3.56-7.37-.21-13.9,3.78-21.54,2.76-5.09-.67-5.64,3.88-3,7.61,2.41,3.36,2.1,6-.64,8.81-1.69,1.73-3.42,3.57-6,2.48-3.72-1.57-4.11-5.5-3.87-8.53,1.16-14.63,2.08-29.17-1.75-43.6-.64-2.45.27-4.9,3.15-5.27,3.46-.45,5.43,1.27,6.29,4.86,1.09,4.55-2.24,11.43,3.93,13.25,6.79,2,10.22-6.16,16.06-8.12,1-.35,1.48-2.16,2.39-3.12,2.21-2.34,4.81-2.34,7.06-.32,2.64,2.36,1.24,4.87-.52,7-2.83,3.49-6.79,5.21-10.9,6.71-2.69,1-6.73,1.41-6.09,5.32.72,4.45,4.72,3.74,8.06,3.4C644,32.3,646.3,32,649.08,31.72Z"/><path d="M381.78,185c-7.25.81-10.81-5.21-7.28-13.57,1.88-4.45,4.49-7.63-.48-12.07-3.29-2.94.41-4.32,3.12-4.85,4.27-.85,8.68-2.56,6.69-7.57-2.07-5.21-6.14-1-9.32-.18-4.36,1.07-8.45,4.59-13.24,1.5a3.41,3.41,0,0,1-1.42-4.38c2.77-4.7,7.93-3.94,12.36-4.89q8.28-1.78,16.46-4c6.23-1.69,7.78.61,6.64,6.6-.77,4-6,11.29,5.08,9.34,1.4-.24,2.53,1.72,2,2.77a6.17,6.17,0,0,1-3.61,3c-5.48,1.21-9.65,4.39-13.41,8.22a6.43,6.43,0,0,0-1.51,7.36c1.28,2.87,4,3.57,6.74,2.64,6-2,12.57-.44,18.39-3.9,3.24-1.92,7.71-2,8.71,3,.87,4.34-1.89,6.54-6.32,7.06C401.49,182.29,391.64,183.72,381.78,185Z"/><path d="M956.17,288c.92-7.89.33-16.38,3.12-23.54,3.91-10.05,14.27-2.4,21.31-5.19,5.62-2.23,11.8-1.52,17.79-1.24,3.36.16,8.73-1.62,8.19,4s-5.75,2.8-9,2.58c-8.41-.57-16.45,1.66-24.55,3.06-2.95.51-8.41,1.32-7,6.52,1.25,4.61,5.52,3.19,9.24,2.94,6.83-.44,17.21-5.44,19.25,1.89,1.26,4.54-11.62,4-18,5.59-6.83,1.66-13.77,1-11.28,11.31.91,3.73,2.17,7.17,6.19,8.25,3.63,1,6.42-.77,8.52-3.77,1.47-2.08,3-5.64,6-3.45,3.52,2.59.24,5.53-1.47,7.58-4.22,5.08-8.79,11.53-16.32,8.68-7.11-2.7-11.51-8.78-11.11-17.18.13-2.66,0-5.32,0-8Z"/><path d="M114.23,41.29c.2-14.52-1.57-15.89-15.87-12.43C84.5,32.22,84,32.66,86.88,45.44c1,4.28-.27,6.61-4.11,7.42s-6.08-2-6-5.08A113.56,113.56,0,0,0,73,13.2c-.52-1.91.12-4.16,2.75-4.44,2.3-.23,3.65,1.11,4.33,3.27,1.61,5.11,1.22,12.42,10,10.48,9-2,21.56,1.61,22.44-13.76.13-2.21,1.37-3.85,3.89-3.45,2.72.45,3.85,2.52,4,5q.78,12,1.36,23.93c.22,4.26-.65,8.66,3.13,12.11,3.94,3.61.21,6.66-1.24,9.72-.84,1.76-2.15,3.94-4.45,3.24-3.81-1.16-3.94-5.22-4.75-8.17S114.23,44.59,114.23,41.29Z"/><path d="M433.4,166c-1.78-4.86-1.3-12.2-1.9-19.42-.65-7.8,3-10.91,9-11.62,11.18-1.33,22.49-1.67,33.76-2.29,2.47-.14,4.79.71,4.9,3.74.12,3.34-2.68,3.55-4.89,3.64-9,.38-17.89.87-26.65,3.06-3.51.88-7.06,2.37-6.51,6.2.68,4.71,4.8,3.33,8.06,2.75,5.23-.94,10.49-1.72,15.69-2.79,3-.62,5.6-.32,6.11,3.09s-1.8,4.87-5,4.3c-5.61-1-10.27,2.37-15.53,3.12-7.77,1.11-10.85,7.18-8,14.45,2.24,5.78,5.8,2.25,9,1.27,1.54-.47,3.21-1.74,4.53,0a3.74,3.74,0,0,1-.87,5.34c-4.06,3.26-7.8,7.72-14,5.51C436,184.56,433.24,178.08,433.4,166Z"/><path d="M1.17,20.31A71.56,71.56,0,0,0,.39,12.4c-.52-2.49-1-5.07,2.23-5.33,2.72-.2,4,2.25,4.14,4.74.32,7.3.37,14.62.67,21.92.06,1.55,0,3.68,2,4.16,2.63.62,3.33-1.68,3.93-3.5.83-2.51.92-5.35,2.1-7.66,2.49-4.91,5.77-6.47,9.64-1.05q5.19,7.26,10.49,14.43c1.18,1.59,2.44,3.5,4.78,2.8,2.61-.78,3.28-3,3.18-5.54-.24-5.64-.64-11.28-.71-16.93,0-3.32,1.33-6.23,5.27-5.58,3.19.53,3.56,3.16,3.32,6.2-.75,9.6-1.25,19.23-1.71,28.85-.15,3.21-.88,6-4.08,7.29s-5.68-.52-7.64-3.08c-3.23-4.21-6.47-8.42-9.82-12.54-4.19-5.15-8-5.9-10.93,1.19-2.2,5.32-2.66,14.31-9.77,13-6.83-1.26-3.77-10.05-4.6-15.6C1.85,33.6,1.35,27,.63,20.36Z"/><path d="M662.32,142.82C651,142.2,643,145,634.87,146.43c-3.74.67-5.93,3.07-5.15,7.14.73,3.84,3.2,4,6.73,3.61,6.57-.77,13.27-.34,19.54-3.15,2.1-.94,4.84-2,5.74,1.3.84,3.06-1.14,5.08-4.06,5.76-5.42,1.26-10.86,3-16.35,3.28-8.41.41-10.36,4.5-8,11.64,1.11,3.39,2,6.32-1.43,8.87-2.06,1.55-4.22,2.09-6.47.78-3.51-2-3.36-5.22-2.67-8.74,2-10.38-1.24-20.3-3.16-30.28-1.75-9,.18-10.86,9.24-9,9.64,1.92,19.11-.7,28.44-2.91,2.57-.61,5-1.9,7.7-1.37,3.24.62,8.36-1,7.73,4.95-.5,4.73-4.17,5.32-8.28,4.61C662.79,142.59,661.09,142.82,662.32,142.82Z"/><path d="M1113.63,7.28a26.25,26.25,0,0,1,14.54,2.38c11.45,5.46,14.24,14.46,7.33,25.11-6.52,10.07-16.62,16-26.7,21.71-5.4,3-9.22-.53-10.35-5.63-2.71-12.28.31-25.17-3.74-37.43-.79-2.41,1.41-4.09,4.18-4.37C1103.81,8.54,1108.72,7.88,1113.63,7.28Zm2.27,7.84c-9.79,0-12.8,1.7-12.5,7.27.48,8.7,1.43,18.13,8.64,23.47,3.46,2.56,19.34-15.21,18.69-21C1129.63,15.1,1121.38,16.25,1115.9,15.12Z"/><path d="M206,265.36c-4.76-.88-10.19,1.73-15.88,3.44-3.56,1.08-8,.87-8.5-4.1s3-5.36,7.25-5.38c14.18-.07,28-4.88,42.34-3.76,3,.23,6.27-1.12,6.77,3.28.37,3.26.85,7.09-4,7.62-6.21.68-5,5.28-4.75,9,.71,9.9,1.6,19.8,2.75,29.66a10.46,10.46,0,0,1-4.47,10.33,3.51,3.51,0,0,1-4.61-.08c-3.3-2.95-1.59-6.32-1.11-10,1.61-12.27-.15-24.42-3-36.39C217,261.66,211.61,265.31,206,265.36Z"/><path d="M873.08,152.43c5.86.58,10.17.8,14.43-.45,1.94-.56,4.33-1.06,4.9,1.57.65,3-1.89,4.08-4.24,4.27-5.3.45-10.64.52-16,.77-3.32.16-8.32.11-8.25,3.7a25.77,25.77,0,0,0,6,16.41c2.48,2.9,5.3,2,8.09.45.87-.5,1.64-1.37,2.56-1.53,3-.54,5.84-6.4,8.24-2.83,3,4.42-2.66,6.62-5.69,8.71-11.61,8-20.17,4.53-23.46-9.06-1.24-5.09-2.42-10.13-5-15-7.06-13-1.87-22.1,13.92-24.62,8.84-1.42,17.84-1.84,26.74-2.9,3.06-.37,5.6-.12,5.66,3.52s-2.44,4.26-5.51,3.52c-10.94-2.66-20.84,3.52-31.47,3.73-2.34.05-4.81,1.09-4.1,4.33.67,3.08,2.07,5.8,5.78,5.81C868.64,152.88,871.62,152.53,873.08,152.43Z"/><path d="M265.89,140.8c-4.89.83-9.89,1.3-14.64,2.62-4.55,1.26-6.38,5-4.84,9.4,1.35,3.82,4.56,4,8.28,2.82,2.79-.92,7.13-3.95,8.41.65,1.41,5.08-4.14,5-7.33,6-7.75,2.31-9.74,8.11-4.7,14.47,3.76,4.76,6.24,1.06,8.81-1.39,2.16-2.06,4.67-5.33,7.38-2.27,3,3.45-1.61,4.82-3.44,6.74a45.13,45.13,0,0,1-5.24,4.61c-7.42,5.74-13.27,3.85-15.23-5.25-1.35-6.27-.21-13.44-7.73-16.95-.77-.36-1.37-3.26-1.07-3.44,7.08-4.47,4.26-10.3,2.8-16.28-.92-3.82,2.6-5.14,5.54-5.72,9.09-1.78,18.21-3.42,27.37-4.8,3.51-.54,5.94,1.79,6.14,5.11s-2.43,4.38-5.44,4.39c-1.66,0-3.32,0-5,0Z"/><path d="M1038.73,186.68c-10.53-.16-22.18-9.85-21.48-21,.57-9.2-10.62-7.09-9.15-12.57,1.08-4,11.25-4.08,5.85-12.69-1.86-3,2.69-3.78,5.23-3.94,9-.59,17.91-1.16,26.69-3.32,2.28-.56,5.27-.49,5.77,2.36.68,3.89-3,4.38-5.31,3.94-5.89-1.13-11,2.16-16.7,2.08-3-.05-5.71,1.35-5.4,4.53.38,3.76,3.75,4.28,6.89,3.85,3.29-.45,6.5-1.4,9.77-2,1.84-.32,4.31-1.37,5.14,1.22s-1.68,3.33-3.47,3.89c-2.85.89-5.83,1.35-8.72,2.11-5,1.31-11.55,1.38-9.35,9.54,1.93,7.12,5.3,13.14,14,13,3.3-.06,8.35-5.67,9.08,1.67C1048.12,185,1042.61,186.41,1038.73,186.68Z"/><path d="M677,273.84l-8,.65c-3.12.25-6.6.28-6.92-3.68-.24-3,2.72-4.82,5.36-4.9,14.16-.41,28-3,42-5.06,2.47-.36,4.82-.28,5.43,2.78.45,2.22,1.75,5.36-.38,6.58-13.93,8-4.86,19.26-4.12,29.07.23,3.21,4.08,6.23,1,9.88a5,5,0,0,1-5.44,1.55c-4.57-1.48-5.55-5.59-6-9.54-.71-6.61-1-13.26-1.25-19.91s-2.21-10.08-9.8-7.85c-3.72,1.09-7.92.57-11.9.78Z"/><path d="M745,163.12c0,8.15-14.68,17.77-26.64,17.45-10.07-.28-18.24-8.14-17.94-17.29.27-8.6,12.43-22.68,20.88-24.16a7.15,7.15,0,0,1,2-.08C727.8,139.55,745,158.57,745,163.12Zm-25.34,10.17c5.33-3.61,14.65-.18,17.08-9,1.07-3.88-10.77-15.17-14.15-13.4-5.33,2.79-14.28,2.53-14.09,11.54C708.59,168.8,712.78,172.49,719.61,173.29Z"/><path d="M74.69,157.35c.25-3.63.76-7.26.69-10.88-.1-5.61,3.12-7.94,8-8.06a45.45,45.45,0,0,0,19.14-4.53c2.87-1.4,5.77-2,8.27.51a3.86,3.86,0,0,1,.38,4.66c-1.51,2.84-4,4.8-7.25,4.08-5.21-1.15-9.8,1.1-14.64,2-4.28.76-6.55,3.35-5.33,7.81s4.31,3.65,7.88,2.59c2.45-.72,6.47-3.54,7.74.43,1.06,3.3-3.47,4.22-5.91,5.37-4.6,2.16-9.66,2.91-5.55,10.35,3.71,6.72,7.06,7,12.14,2.08,1.55-1.5,3.57-2,5.29-.21,2.18,2.27.72,4.12-.87,6-8.62,10.35-15.16,9.85-21.94-1.76C79.57,172.37,74.32,159.4,74.69,157.35Z"/><path d="M544.18,34c-.47-13.29,3.76-17.42,21-20.46,9-1.6,17.55,3.76,20.61,13.23,1.36,4.21,1.22,8-2.26,11.85-10.57,11.66-20.62,15.51-30.84,11C544.61,46,544.61,46,544.18,34Zm15.21,9c9.74-.13,18.8-6.72,18-12.28-1-7.07-7-9.67-13.1-9.35-7,.38-11.23,5.35-11.67,12.33C552.24,39.55,555.52,42.94,559.39,43.05Z"/><path d="M788.75,58.84c-9.43.15-17.76-5.48-19.18-13.41-.41-2.25-1.06-5.07,1.77-6,3.15-1,3.64,1.68,4.3,4,2.77,9.72,9.7,9.61,17.39,7.06,7.1-2.35,8.23-6.43,2.77-11.51-3.19-3-6.39-5.71-8.19-9.77C781.8,16.06,790,4.67,804.36,6c2.56.23,6,.16,6.19,3.61.19,3.29-3.38,2.47-5.32,3.17-13.82,5-16,11.42-5.42,20C806.32,38,810,43.43,807.12,51.26,804.09,59.58,796.07,58.28,788.75,58.84Z"/><path d="M190.52,30.1c-.11-14,5.76-20.92,16-20.12,4.18.32,7.44,2.49,7.85,6.29.56,5.28-3.68,3.67-6.95,3.8-8.86.37-9.51,6.85-9,13.51.6,7.17,7.73,12.13,15.08,10.78a14.82,14.82,0,0,0,9.38-5.19c2.25-2.85,5.25-3.64,7.71-1.23,2.74,2.69.92,5.89-1.59,7.66C221.26,51.13,212.82,58,203,53.15,193.87,48.68,189.44,39.78,190.52,30.1Z"/><path d="M506.43,49.21c-11.38,3-23.8-18.34-18.2-28.81,1.27-2.36,3.35-5.85,5.55-5.1,8.08,2.77,16.56-1.37,24.37,1.9,11,4.59,11.9,18.64,1.79,26.66C516,47,511.62,49.41,506.43,49.21Zm-4.38-23.55c-3.79-1.09-8-1.91-7.44,3.95.67,6.87,4.53,11.93,12,12.12,6.7.18,12.87-3.42,12.12-10.2C517.48,20.38,508.11,26.49,502.05,25.66Z"/><path d="M189.84,185.35c-5.57.75-11.35-2.5-16.88-6.37-2.86-2-4.78-4.73-4.6-8.37.1-2,.59-4.3,2.81-4.86,2.75-.7,3,1.69,3.54,3.62,2,7.19,7.85,8.42,14,8.77,3,.16,6.41.15,7.83-3.13,1.54-3.57-1.39-5.77-3.83-7.21-4.94-2.91-7.3-7.66-9.75-12.33-5.37-10.19.65-20.43,12.26-21.06,1.95-.11,4.37-.35,5.13,1.93.87,2.62-.77,4.14-3.19,5.32-11.68,5.7-12,7.15-3.72,17.41,2.49,3.08,5.23,6.23,8.5,8.34,4,2.56,8.92,4,6.8,10.24-2,5.86-6.42,8.16-12.4,7.93C194.73,185.51,193.07,185.46,189.84,185.35Z"/><path d="M1017.89,30.84c-.16,3.34-.09,5-.34,6.66-1.37,9-6.42,16.24-14.73,18.4-8.94,2.33-12.45-6.06-15.24-12.75-3.19-7.63-5.43-15.66-8-23.54a4.3,4.3,0,0,1,2.63-5.71c2.85-1.26,4.63.48,5.34,2.85A159.28,159.28,0,0,1,992.27,35c1.11,6.37,4.22,11.63,10.58,11,6.19-.66,8.1-6.78,9-12.82.82-5.82-2.5-10.16-4.12-15.14-1.07-3.33-3.13-8,1.8-9.36s5.51,3.56,5.87,7.15C1015.92,21.4,1018.83,26.68,1017.89,30.84Z"/><path d="M1043.38,29c.93,3.75-3.15,11.74,2.81,14.71s12.59-1.94,18.3-5.36c2.27-1.36,4.4-3.14,6.86-3.94,2.82-.92,5.28.43,6.35,3.34s.07,6-2.87,6.34c-9,.91-15.53,7.42-23.75,10-9.19,2.83-12.35,1-13.49-8.56-1.17-9.9-1.88-19.86-2.67-29.81-.2-2.47-1.26-6.11,2.6-6.29,3.15-.15,5.56,2.37,5.79,5.76C1043.59,19.14,1043.38,23.15,1043.38,29Z"/><path d="M964.86,153.23c-.42-3.79-.91-6.42-.94-9,0-3.19.76-6.28,4.82-6,3.38.24,4.63,3.2,3.85,5.82-3.22,10.72-2.54,22.25-7.41,32.66-3,6.34-5.62,5.73-10.3,1.69-5.8-5-8-12.05-12.06-18-2.17-3.23-2.79-7.38-6.57-9.72-2.76-1.71-4.35-5.25-1.36-7.45,3.44-2.53,6.91-.77,8.88,3.09q4.49,8.83,8.89,17.71c1.32,2.64,2.31,6.23,5.92,5.77s4-3.9,4.5-6.94C963.66,159.22,964.4,155.66,964.86,153.23Z"/><path d="M922.74,34.69c-.29-13,7.68-20.79,21.19-20.77,8.63,0,15.08,5.68,15.49,13.64.47,9.17-15,23.59-25,23.21C927.47,50.51,922.94,44.28,922.74,34.69Zm7-3.48C929,38.57,931.3,41.93,937.25,42c8.29.13,16.6-5.53,16.36-11.53-.37-9.55-8.56-9.21-14.66-9.87C930.28,19.69,930.76,27.29,929.76,31.21Z"/><path d="M630.65,289.74c-.12-6.66.07-13.3-1.42-19.9-.69-3.06.29-6.59,3.71-7.23,4.15-.78,4.51,3.05,4.94,6,1.53,10.47.22,21.23,4.1,31.53,1.42,3.76-.48,8.75-5.37,9s-6.28-3.82-6-8.42C630.83,297.08,630.65,293.41,630.65,289.74Z"/><path d="M12,306c1.61-13.53,2.68-27.09,1.94-40.75-.14-2.4.39-5.17,3.05-5.55,3.6-.52,4.42,2.83,4.4,5.34-.06,6.92-.63,13.83-1,20.73-.31,5.24-1.57,10.4,2.12,15.31,2.66,3.54-1.18,6-2.9,8.64a4.53,4.53,0,0,1-5.17,2.17C11.57,310.93,12,308.3,12,306Z"/><path d="M265.18,291.94c-.63-7.51-1.28-15-1.86-22.54-.24-3.14.08-6.4,4.06-6.61s4.81,2.88,4.94,6c.45,11.21,0,22.47,2.18,33.58.64,3.3-.63,6-4.39,6.44-3.56.4-4.47-2.34-4.82-5-.5-3.91-.65-7.87-1-11.82Z"/><path d="M319.05,169.33a48.12,48.12,0,0,0-3.8-19.34c-1.82-4.54-2.49-9.25,3.27-10.17,5.21-.83,5.24,4.34,6.13,8.27,1.8,8,1.16,16.42,4.75,24.11,2,4.31-.12,7.06-4.71,7.57-3.9.44-6.5-1-6-5.52C318.85,172.61,318.93,171,319.05,169.33Z"/><path d="M153,30.18c0-4.65-.12-9.31.06-13.95.09-2.4,1-4.9,3.89-4.84s3.7,2.75,3.71,5.05c0,9.63.31,19.09,3.88,28.35,1.14,3,.34,8.18-4.44,8.5-4,.27-5.15-3.76-5.48-7.17-.51-5.29-.64-10.63-.93-15.94Z"/><path d="M1129.91,243.09c10.79,0,14,3.79,12.54,13.08-.62,4-1.63,8.07-4.36,11-8,8.55-10.15,19.61-13.6,30.13-.76,2.3-1.51,4.71-4.58,4a5.41,5.41,0,0,1-4.35-5.92c.34-4.76-.27-8.86-3-13.11-2.23-3.53.38-6,4.21-7.16,7.38-2.3,12.09-7.9,16.39-13.92,1.4-2,2.63-4.07,1-6.38s-3.8-2.15-6.25-1.54c-5.31,1.32-9.8,3.66-13.17,8.24-1.58,2.14-4.54,3.68-6.94,1.53s-1.24-4.93.79-7C1115,249.61,1121.8,244,1129.91,243.09Z"/><path d="M1124.31,321.44c-.75,3.6-1.82,7.16-6.49,7.15-3.86,0-6-2.22-6.16-6.14-.21-5,3.48-5.78,7.15-6.25S1124.23,317.75,1124.31,321.44Z"/><path d="M553.21,1488.91c.22-7.42,1.59-15-3.89-21.59-1.53-1.82-1.3-5.27-1.49-8-.24-3.42.89-6.48,4.53-7.45,4.14-1.11,5.86,2.08,6.69,5.13,3,10.87,6.63,10,12.11,1.42,5.84-9.18,15.86-11.51,25.62-13.26,10.9-2,14.64,2.52,11.82,13.29-1.11,4.21-2.39,8.59-6.28,11.18-4.29,2.85-11.93,3.7-7.25,11.68,5.81,9.91,16.28,13.88,24.06,9.24,3.31-2,6.54-4.28,9.11-.19,2.19,3.5,0,6.76-2.93,9.34-9,8-23.49,5.63-34.54-6-4.09-4.3-7.42-9.34-11.66-13.48-5.58-5.44-9.77-4.79-11,3.74-.86,5.81-.43,11.79-3.41,17.32-1.83,3.41-3.41,6.54-7.79,5.71-5.13-1-3.79-5.09-3.68-8.57C553.29,1495.26,553.21,1492.08,553.21,1488.91Z"/><path d="M808.18,1514.93c0-3.18,0-6.36,0-9.54.09-6.49-1.77-9.55-9.33-7.55-13.61,3.6-24.52-4.19-26.91-18.2-.8-4.67-2.18-9.26-2.77-14s.07-9.53,5.7-10.08c5.27-.52,6,4.1,6.4,8.25.44,4.35.63,8.76,1.46,13,1.59,8.22,5.19,13.42,15.23,12.9,9.84-.5,11.72-6.27,12.67-14,.77-6.31,1.72-12.6,2.73-18.87.52-3.2,1.32-6.73,5.57-6.35,4.45.41,5.82,3.74,5.4,7.75-.36,3.54-1,7.06-1.66,10.55-4,20.61-8.41,41.09,1,61.65,2.46,5.38.41,12-6.1,13.32-6.9,1.45-8.27-4.25-8.61-9.93-.37-6.34-1-12.66-1.55-19Z"/><path d="M296,1521.67c-19.57-.59-32.35-11.2-31.38-24,.2-2.6-.42-6.56,3-7s3.91,3.12,3.92,6c0,6.67,2.61,12.05,9.26,13.67a33.76,33.76,0,0,0,26.44-4.09c4.87-3.07,2-7-2.09-9.11-4.56-2.39-9.48-4.11-14-6.59C281,1485,274,1472.16,275.88,1463.28c1.52-7.18,17-22,24.27-23.31,2.09-.38,4.32-.47,5,1.8.47,1.73.47,4.46-.57,5.56a30.7,30.7,0,0,1-7.7,5.34c-5.75,3.12-12,6.5-11.7,13.74.37,7.95,5.34,13.86,12.66,17.45,4.64,2.27,9.13,4.89,13.89,6.84,6.71,2.75,10.39,7,9.34,14.64s-5,12.55-12.44,14.23C303.57,1520.7,298.43,1521.27,296,1521.67Z"/><path d="M439.59,1510.08c-21.75-.08-39.12-25.3-31.42-45.61,4.92-13,26.36-17.88,36.07-8.22,3.18,3.17,4,7.3,2.07,10.86-2.32,4.26-5.34.7-8-.62-6.29-3.16-12.8-5.41-18.52.61-6.13,6.44-2.93,13.46.29,19.81,4.51,8.88,13.26,10.74,22.13,11.44,7.7.61,12.67-3.58,15.42-10.51,1.07-2.7,2.09-5.74,5.56-4.89,4.38,1.08,3.13,4.85,2.61,7.89C463.87,1502.35,453.19,1510.13,439.59,1510.08Z"/><path d="M388.06,1448.35c-8.75,10.29-24.61,5.19-34.26,15.66,4.45,3.76,9.16,3.9,14.2,2.69,3.06-.74,6.95-2.22,7.53,2.46.5,4-3.47,4.83-6.56,5.49-1.9.41-4-.06-5.91.29-5,.91-13-2.44-13.32,5.83-.33,8.68,2.13,17.55,10,23.1,3.19,2.25,5.91-.49,8.1-2.94,2.85-3.18,6.44-4,9.28-.84,3.15,3.54-.86,5.53-3,7.64-13.15,13.27-21.46,10.62-27.69-7.07-4.85-13.78-3.64-29-11.11-42.05-2.11-3.71.74-6.63,4.17-6.76,14.38-.56,28.25-3.73,42.13-7.09C383.9,1444.22,386.27,1445.65,388.06,1448.35Z"/><path d="M721.9,1445.73c5.87.57,11.78,1.13,17.68,1.74,2.66.28,6-.27,6.64,3.45a8.57,8.57,0,0,1-2.65,7.53c-7.21,7.45-10,26.18-4.27,33.83,2.55,3.44,5.25,6.14,2.43,10.29-1.9,2.79-4.8,4.24-8.27,3-4.85-1.69-8-4.5-7.93-10.35.1-8.71-.76-17.44-.58-26.14s-3.31-12.55-12.2-10.93c-5,.93-10.15,1.48-15.22,2.28-4.33.68-9.59,2.21-10.29-4.1-.59-5.21,3.87-7.41,8.55-8C704.44,1447.38,713.13,1446.61,721.9,1445.73Z"/><path d="M523.16,1479.78c.55-4.61-1-10.46-5.81-15.44-4.09-4.23-2.26-8.51,1.69-11.13,4.55-3,6.07,1.89,7.83,4.62,9.7,15,8.26,32.64-3.46,44.44-11.14,11.21-25.72,9-33.12-5.11-5-9.67-5.42-20.58-7.46-31-.78-4,.57-8.57,5.6-8.93s4.35,4.64,5.55,7.75c2.61,6.76.65,14.16,3.56,21,3.43,8.1,8.69,12.27,17.44,10.84S522.5,1488,523.16,1479.78Z"/><path d="M670.74,1495.46c-.6,4.22-2.63,6.7-5.53,8.14-4.08,2-6.56-.49-8.88-3.61-3.88-5.22-1.6-11.8-3.87-17.13-3.12-7.32-3-15.43-6.62-22.67-2-4-.6-9.55,4.34-10.76,5.68-1.39,5.48,4.38,6.31,7.92,2,8.48,4.37,17,5.18,25.6C662.28,1489.55,669,1491,670.74,1495.46Z"/><path d="M878.16,1532.94c.83,9.44-5.67,17.22-5.87,26.53-.07,3.41-4.46,5.73-8.41,4.24-4.14-1.56-3.1-5-1.58-8,5.8-11.24,9.17-22.63,4.27-35.25-1.09-2.8-1-6.86,2.92-8,5-1.4,5.91,2.94,6.63,6.32C877.12,1523.48,877.51,1528.24,878.16,1532.94Z"/><path d="M387.76,1603.84c.22,6.5-1.38,11.85-7.38,15.73-5.23,3.39-4.36,7.48,1.33,9.35,7.36,2.41,14.67,6.48,22.89,3.36,3.57-1.35,7.31-2.78,8.45,2.66,1,4.78-1.78,7.62-6.19,8.56-7.3,1.56-14.56-.09-21.28-2.37a154.9,154.9,0,0,1-26.65-11.67c-6.36-3.61-7.6-.86-8.44,4.31-.63,3.91-.8,7.92-1.69,11.77-.64,2.74-1.78,6.06-5.45,5.6-3.43-.42-4.32-3.74-4.5-6.58-.21-3.19.57-6.44.64-9.68.23-9.93,2.86-20.06-3.42-29.38-1.78-2.65-2.08-6.82,1.7-8.39s5.65,1.53,6.87,4.86c2.65,7.22,6.48,7,10.78,1.39,4.69-6.1,11.31-8.88,18.4-10.64C385.63,1589.78,387.75,1591.58,387.76,1603.84Zm-32.85,9.52c8.52,5.16,15.2,3.61,21.1-2.39a6,6,0,0,0,1.37-7c-1.51-3-4.09-1.91-6.54-1.21C364.85,1604.5,359.89,1607.72,354.91,1613.36Z"/><path d="M839,1621.85c.46,18.79-9.58,24-28.72,15.82-5.51-2.37-11-5-15.67-9.37-5.76-5.44-9.61-3.92-10.26,4.24a17.37,17.37,0,0,1-.46,4.29c-1.77,5.12-3.73,11.88-9.74,11.29-5.31-.51-6-7.28-6.39-12.3-.59-8.23-.28-16.46-2.29-24.65s6.21-8.3,10.63-11.2c5.12-3.37,7.74-.45,10,4,7.78,15.24,21.59,22,37.16,26.63,6.48,1.9,7.73-.51,7.13-6.24-.81-7.55-2-14.93-5.09-22-1.43-3.24-2.27-7.8,2.13-9.37,4.57-1.63,6,2.45,7.14,6C837.19,1606.93,840,1614.77,839,1621.85Z"/><path d="M503.49,1654.86c-5.3-1.31-11.18-3.91-11.12-12.67.07-11.52-.34-23-4.76-33.89-1.05-2.61-1.68-5.9.82-8.11,2.23-2,4.8-1.19,6.7,1,2.57,2.9,5.17.95,7.93.47,10.12-1.77,20.15-.66,29.9,2.14,10,2.87,10.26,11.92,9.51,19.51C541.1,1637.15,519.36,1654.83,503.49,1654.86Zm-3-30c.4,11.17,4.56,19.52,9.72,19.53,7.69,0,23.55-16.62,22.62-25-1.28-11.56-10.77-7.94-17.72-7.9C503.27,1611.48,500.09,1614.65,500.46,1624.82Z"/><path d="M474.51,1638.86c.1,4-1.5,5.88-5.89,3.91-4-1.79-5.41-4.5-5.88-9.15-.9-8.87-5.68-13-15.54-10.3-9,2.51-16.87,5.32-18.49,16.08-.3,2-1.67,3.95-2.71,5.84-1.71,3.12-4.57,3.61-7.36,2.08s-3-4.38-2.14-7.49c3.32-11.6,10.69-21.83,11.09-34.5.14-4.24,17.46-10,21.37-7.09C462.5,1608.4,470.84,1622,474.51,1638.86Z"/><path d="M301.73,1629.09c-.46-9.67-1.28-19-1.22-28.42.05-7.31-3.67-8.58-9.65-7.68-5.71.87-11.44,1.57-17.12,2.6-5.43,1-8.78-1.53-9.17-6.51-.44-5.59,3.71-7,8.65-7.07q15.69-.21,31.37-.79c5.05-.18,10.08-.67,14.72-3.07,2.67-1.38,5.59-2.21,8,.25,2.26,2.28,2,5.38,1.31,8.19-.83,3.22-3.67,5.1-6.58,4.37-12.06-3-13.36,3.43-12.54,13,1.29,14.88-3.57,30,2.87,44.83,1.7,3.88-2.59,7.49-6.74,8.15-4.4.69-5.42-3.28-5.35-6.5C300.46,1643.2,301.23,1636,301.73,1629.09Z"/><path d="M731.19,1640.08a38.9,38.9,0,0,0,7.53-1c7.06-2,8.5-7.57,3.48-13-3.73-4.06-8.44-6.52-13.69-8.35-4.67-1.63-8.87-5.79-6.76-10.52,2.77-6.17,7.15-2.32,11.55,0,6.65,3.47,11.63,8.43,16.18,14,8.29,10.18,5.72,20.85-6.51,25.53a66.72,66.72,0,0,1-16.81,3.75c-10.49,1.1-19-3.37-22.34-13.21-3.43-10.13-2.22-20.64,4.59-29.73,1.11-1.49,2.37-2.8,4.47-1.8a4.15,4.15,0,0,1,2.29,4.51,49.46,49.46,0,0,1-1.73,8.43C709.12,1633.32,714.12,1640.25,731.19,1640.08Z"/><path d="M654,1601c-.76,5.25-3.9,6.3-8,5.78-3.86-.5-6.93.73-6.65,4.88.67,9.55-.86,19.66,5.18,28.11,2.15,3,3.39,5.62.89,8.68-2.27,2.79-4.75,5.85-9,4.89-4-.92-4.38-4.58-4.67-7.77-.89-9.7-1.74-19.42-2.17-29.15-.37-8.21-4.16-10.89-12-9a77.24,77.24,0,0,1-12.83,1.88c-3.93.25-7.61-1.18-7.64-5.73,0-3.85,3.54-5.54,6.77-5.78,9-.67,18.08-1.6,27-.88a119.2,119.2,0,0,0,17.21.21C651.24,1596.92,654.1,1597.41,654,1601Z"/><path d="M667.45,1602c3.73,1.84,5,5.53,5.28,8.9.91,11,1.68,21.93,6.1,32.38,1.32,3.12-.7,8.08-4.83,8-3.62,0-7.79-2.59-7.87-7.36-.19-11.47-.34-22.85-4-34C660.89,1606.25,663.3,1603.14,667.45,1602Z"/><path d="M566.1,1635.72c.35-8-1.39-15.62-4.22-23.08-1.46-3.86-2.13-8.43,3.33-9.48s4.89,3.88,5.56,7.2c2,10.17,3.88,20.38,6.13,30.5.73,3.33,1.49,6.31-1.4,8.89-1.73,1.54-3.73,2.29-5.81.88-3-2-3.82-5-3.62-8.46C566.2,1640,566.1,1637.87,566.1,1635.72Z"/><path d="M869.76,1655a20.1,20.1,0,0,1,0-2.91c.65-3.26-4.56-9,2.23-9.36,5.86-.28,6.22,5.53,6.22,10.59,0,8.71-3,16.06-8.25,22.89-2.07,2.73-3.68,6.15-7.47,3.52-4-2.73-2.45-6.42.11-9.37C866.69,1665.72,871.36,1661.43,869.76,1655Z"/><path d="M545,1763.57c3.48-1.84,5.74-.83,7.44,1.73,1.52,2.28,1,4.53-.41,6.68-1.87,2.8-4.74,2.68-7.25,1.8-10.16-3.56-20-8-28.64-14.43-7.34-5.5-9.53-2.38-11.23,4.62-.77,3.13.26,8.91-4.39,8.32s-5.51-6.14-4.59-10.32c2-8.81,1.15-17-3.07-25-1.32-2.51-.67-5.79,2.27-6.8s3.9,1.9,4.76,4.14c3.3,8.64,3.09,8.46,9.51,1.19,6.68-7.55,15.61-9.8,25.26-8.45,5.89.83,7.32,11.07,2.47,16.32-2.7,2.93-6.37,4.34-9.92,5.94-4.27,1.92-6.15,4.07-.56,7C532.6,1759.52,538.25,1763.51,545,1763.57Zm-19.21-30.37c-3.85,2.47-10.93.24-12.76,7.12-1,3.62,2.22,3.92,4.56,3.49,5.3-1,10.81-2.57,13.21-7.79C531.87,1733.59,528.42,1733.39,525.75,1733.2Z"/><path d="M785.94,1748.33c-8.27-2.29-10,1.12-7.76,8.31,1.06,3.41,1.15,7.21,2.64,10.38,2.92,6.19,9,6.48,15.41,1.09,1.58-1.32,3.11-3.57,5.22-1.64s1.38,4.75-.62,6.29c-5,3.87-8.72,10-16.78,8.39s-8.75-8.49-10.75-14.05c-2.47-6.87.85-15.83-7.7-20.57-.54-.3-.71-2.8-.19-3.22,5-4.12,4.47-7.39.25-12.29-2.46-2.86,1.52-4.66,4.78-5.29,9.33-1.8,18.65-3.66,27.88-5.85,4.31-1,6.44.68,7,4.5.55,3.67-1.76,5.95-5.21,5.65-6.07-.55-11.9,1-17.86,1.26-3.11.15-6.48.79-5.92,4.93s3.62,4.8,7.43,4.06c5.53-1.06,11.19-1.51,16.69-2.7,2.82-.62,6.19-3.33,7.33,1.05.86,3.32-1.82,6.6-5.21,7.36C797.09,1747.24,791.39,1747.61,785.94,1748.33Z"/><path d="M680.61,1757c-1.47-7.14-1.7-14.39-4.66-21.11-1.25-2.82-1.41-5.93,1.23-8.29a3.36,3.36,0,0,1,4.18-.19c2.68,1.68,2.87,4.47,2.69,7.16-.52,7.37,3.12,13.92,4,21.05.73,6.06.48,11.11-4.57,15.42-5.26,4.48-10.41,2.08-15.12-.09-6.79-3.12-13.05-7.3-17.33-13.81-1.11-1.69-2.47-4-4.88-3.1-3.24,1.25-1.41,4-1,6.17a16,16,0,0,0,.89,2.54c1.85,4.85.11,10.13-3.76,11.23-4.39,1.26-4.07-4.84-5.28-7.88-3-7.52-1.11-15.86-3.66-23.63-1.28-3.92,1.19-8.12,5-9.52s5.44,2.9,7.4,5.29c5.87,7.14,10.63,15.27,18.56,20.52a49.75,49.75,0,0,0,7.77,4.41C678.28,1765.85,681.32,1763.84,680.61,1757Z"/><path d="M614.92,1769.38c-1.11,2.71-3.17,5.17-6,5.88a5.5,5.5,0,0,1-6.43-3.78c-1.38-3.93-2-8.16-3.46-12-1.21-3.14-1.51-7.61-6.28-7.77-4.36-.15-8.41,1.25-11,5-2.7,3.93-4.93,8.18-7.48,12.21-1.94,3.07-4.64,5.17-8.22,2.93s-2-5.18-1.18-8.63c2.69-11.56,12.34-19.89,13.92-32,.84-6.44,7.9-4.11,12.08-5.32,4-1.17,4,3.11,4.66,6a22.14,22.14,0,0,0,2.06,4.92c2.75,5.57,7.2,10,6.62,17.49a11,11,0,0,0,7.94,10.89C614.13,1765.64,615,1767.1,614.92,1769.38Z"/><path d="M265.13,1766.24c4.62-11.29,9.87-24.19,15.21-37,.86-2.09,2.89-3.63,5-3.26,4.32.77,7.1,5.14,7.31,8.16.67,9.72,11.76,14.79,10.31,25.33-.37,2.65,2.22,5.41,6.09,5.17,3.19-.2,4.07,2,3.88,4.71-.18,2.55-1.24,4.65-3.81,5.56-3.06,1.07-4.32-1.24-5.57-3.27-1.56-2.53-2.93-5.18-4.43-7.75-2-3.38-1.63-9.75-6.92-9.06-6.14.8-13.41,1.17-16.68,8.42-1.11,2.45-2.06,5-3.32,7.36-1.06,2-1.91,5-5.08,3.69C264.38,1773.16,264.59,1770.47,265.13,1766.24Zm21.07-25.81c-3.81.91-5.26,3.78-5.66,7.12-.32,2.77,1.71,3.64,4,3.09,2.66-.62,6.68-.26,6.15-4.55C290.45,1743.79,289.64,1740.74,286.2,1740.43Z"/><path d="M720.1,1754.06c.08,5,1.26,10.37,7.65,12.83s16.42-.49,20.24-5.86c1.3-1.82.8-6.52,5-4,3.49,2.06.43,4.88-.5,7-3.67,8.51-16,14.41-24.5,12-11-3.07-17.41-12.45-14.84-24,1.91-8.55,3.85-17.49,10.31-24.34,2.45-2.59,5-4.33,8.62-2.46s6.41,4.42,7.11,8.64c.38,2.29-.58,3.13-3,2.87-9.27-1-14,2.72-15.32,11.88C720.6,1750.1,720.42,1751.58,720.1,1754.06Z"/><path d="M467.91,1748.14c1.64-5.07-1.73-9.1-4.41-13.43-1.33-2.17-1.51-4.6.95-6.37,2.24-1.62,3.82-.41,5.35,1.31,10.51,11.85,5.92,35.52-8.11,41.72-10.16,4.48-18.23,1.61-23-8.28-3.68-7.6-3.86-15.6-2.18-23.68.48-2.33,1.41-5.06,4.55-4.39s3.35,3.24,2.44,5.71a21.33,21.33,0,0,0-.76,9.74c1.12,10.71,4.28,14.32,12.39,14C463.42,1764.21,468,1758.59,467.91,1748.14Z"/><path d="M331.62,1758.31c4.93,4.43,8,11.07,15.63,9.33,2.72-.61,5.55-.84,6.41-3.93.81-2.88-1.63-3.85-3.49-5.46a121.84,121.84,0,0,1-12.68-12.62c-3.24-3.8-4.59-8.71-2.4-13.41,2.26-4.85,8.09-4.48,12.2-6.68.57-.3,2.48.62,2.81,1.38.87,2-.68,3.06-2.23,4.2-8.32,6.09-8.34,7.1-1.26,14.78,3.44,3.73,6.53,7.8,10.14,11.35,4.32,4.25,4.35,9,2.21,14-2.36,5.55-7.49,4.24-11.74,3.93C338.15,1774.52,332.08,1768.09,331.62,1758.31Z"/><path d="M387.83,1771.83a28.09,28.09,0,0,1-17.4-3.58c-3.41-1.89-4.93-5.18-5.6-8.78-.38-2-.19-4.8,2.21-5.24,3.41-.63,2.31,2.39,2.59,4.27,1.15,7.78,6.79,8.62,13.19,8.68,3.88,0,6.58-2.65,10-3.53,2.06-.54,4.22-.82,4.59-3.48s-1.61-3.64-3.53-4.52c-6.35-2.9-9.42-8.83-13.27-14.09-4.83-6.61-3.07-10.12,4.81-11.32,2.54-.39,6-3,7.3-.09,2,4.55-3.38,2.27-5,3.8-3.68,3.43-3.69,6.67-.16,9.92,3.94,3.64,8.22,6.93,12.11,10.63,3.5,3.32,7.27,7.14,4.88,12.4-2.28,5-7.53,5.21-12.36,5.31A36.35,36.35,0,0,1,387.83,1771.83Z"/><path d="M877.77,1731c.91,5.24-1.33,9.59-4.11,13.47-2.37,3.31-5.74,5.54-5.5,10.6.17,3.65-4.1,3.63-6.95,4.15s-4.56-1-5.78-3.32c-1.93-3.61,1.45-4.52,3.25-6.26,4.3-4.15,8.8-8.13,11.42-13.68,1-2.11,2.87-4.28,1.11-6.64-2-2.62-4.94-2-7.44-1.1-4.2,1.49-8.21,3.52-12.36,5.17-1.32.53-2.92,1.21-4.2,0s-.75-2.8-.29-4.19c2.21-6.78,21.86-12.88,27.64-8.74C878.47,1723.28,877.55,1727.33,877.77,1731Z"/><path d="M871.34,1776.09c-.63,3.17-2.55,5.43-5.74,5.75s-4.69-2.15-4.66-5.06c0-3.22,1.39-5.91,5.19-5.58C868.86,1771.44,871.22,1772.68,871.34,1776.09Z"/><path d="M353.77,2080.89c-1.07-6.52.55-13-1.71-19.36s3.67-7.14,7.25-9.49c4.47-2.95,5.26.88,7.06,3.48,9.88,14.23,22.3,20.22,31.5,14.62a185.12,185.12,0,0,0,20.24-14.71c7.24-5.88,10.17-5.29,11.94,4,1.07,5.66.76,11.57,1.27,17.35.47,5.33-2,11.15,6.14,14.34,4.15,1.63-1.68,5.56-3.06,8.15-2.08,3.87-5.73,3.58-8.9.62-2.31-2.17-2.53-5.11-2.66-8.05-.27-6.45-.34-12.91-.88-19.34-.5-6-2.59-9.58-9-4.51-4.75,3.78-10,6.95-14.39,11.1-6.46,6.13-12.64,4.93-19.16.65-1.08-.71-1.91-1.82-3-2.4-3.79-1.93-6.34-8.27-11.14-5.66s-1.57,8.2-1.77,12.51c-.07,1.6.51,3.35.05,4.8-1.29,4.08-1,10.71-6.62,10.36-7-.44-3.41-6.9-3.65-10.91A56.69,56.69,0,0,1,353.77,2080.89Z"/><path d="M128.19,2094.49c-8.54-.15-15.92-1.65-22.79-5.89-7.47-4.62-8.77-3.49-9.36,5.65-.21,3.16,3,9-3.43,8.82-4.56-.1-5.19-4.66-4.8-9,1-10.77-3.45-20.9-4.08-31.51-.16-2.67-.89-5.65,2.56-6.26,4.26-.76,4.45,2.46,4.4,5.58,0,1.91-.28,4.4,1.8,5.08,3.12,1,3.29-2.33,4.43-4,2.53-3.75,5.11-7.58,9-9.94,6-3.65,12.2-4.8,17.32,1.49a14.77,14.77,0,0,1-1.75,19.93c-2.47,2.11-8,2.67-6.39,7.08,1.45,3.89,6.67,3.13,10.33,3.91s7.07-.37,10.14-2.35c2.61-1.7,5.55-3.29,7.51.07s.77,6.8-2.47,9.35C136.57,2095.67,131.86,2094,128.19,2094.49Zm-22.54-21.63c3.68-2.78,10.79-2,11.81-8.86a4.16,4.16,0,0,0-5.06-4.45c-5.37,1.32-10,4.41-11.29,10.24C100.68,2071.69,102.75,2073.05,105.65,2072.86Z"/><path d="M699.21,2083.75c.74-4.58-1-9.91-1.31-15.34-.29-4.57.61-9.65,5.61-11.28s4.68,4,6.75,6.42c8.88,10.46,19.21,18.74,33.15,21.43,8,1.53,10.1-1.91,7.92-9.16-1.38-4.64-2.77-9.25-5.72-13.23-1.56-2.1-3.27-5,.12-6.42,2.72-1.17,6.76-2.13,8.06,2.3,2.18,7.4,4.55,14.83,5.67,22.42,1.52,10.3-4.05,14.89-14.38,13.21-9.14-1.5-17-5.91-24.78-10.45-6.38-3.71-11-4.79-11,5.06a13.75,13.75,0,0,1-1.18,4.63c-1.1,2.89-2.73,5.36-6.38,4.38-3.21-.86-3.27-3.58-3.09-6.26C698.78,2089.21,699,2087,699.21,2083.75Z"/><path d="M781.89,2071.46c.43-4.8-.1-9.82,2.12-14.27,1.24-2.49,2.09-7.34,6.5-4.41,2.94,1.95,6.26,4.65,2.43,9.46-6.19,7.78-6.63,16.25-1.8,25.22,2.34,4.37,5.84,6.19,10.14,6,4.61-.22,3.34-4.76,4.17-7.6,1.09-3.72,1.53-7.66,2.93-11.24,2-5.22,2.85-13.11,9.41-13.2,6.36-.08,14,1,17.19,9.35,2.77,7.18,3.5,13.66-1.65,19.91-7.78,9.44-25.43,13.34-38.41,8.51C785.81,2095.79,781,2085.66,781.89,2071.46Zm49.72,8.56c-.55-3.9-1.92-8.94-8-8.66-8.44.39-10.32,7.78-11.9,14.13-1.15,4.6,2.63,6.79,6.88,7.25C824.15,2093.34,831.37,2086.82,831.61,2080Z"/><path d="M627.63,2071.75c.63,8.71-.57,15.16,2.37,21.39,1.62,3.44.85,7.61-3.62,8.44-3.86.7-5.86-2.82-6.29-6-.78-5.74-.72-11.59-1.14-17.38-.16-2.2,0-5.76-1.17-6.33-7-3.4-12.69,2.27-19.07,3.59-3.64.75-7.4,3-5.86,8.28a24.58,24.58,0,0,1,1.21,6.64c0,3.82-2.29,6.32-6.06,5.9-3.16-.35-4.83-2.72-4.35-6.31,1.19-9,1.18-18-1.26-26.85-1.08-3.91.8-6.71,4.12-7.57,4.32-1.11,4.31,2.73,4.52,5.56.35,4.74,2.75,6.1,7.17,5,7.4-1.88,16.07-.55,18.91-11.35,1.37-5.22,5.65-3.5,8.58.54C630,2061.22,627.06,2067.83,627.63,2071.75Z"/><path d="M1078.5,2080.77c-.4,3.72-.26,7.72-1.34,11.36-3,10-7.26,10.8-14.2,3.11-.65-.71-1.24-1.49-1.92-2.18-13.28-13.3-13.88-13.18-21.94,3.38-1.57,3.22-1.5,8.6-6.94,7.74-5.17-.82-4.14-5.66-4.66-9.39-1.16-8.32-3.12-16.43-7.12-23.92-1.28-2.39-2.35-5.24.6-6.78,3.51-1.84,5.44.75,6.3,3.82,1.46,5.28,2.63,10.63,4,15.94.47,1.84.86,4.13,3.12,4.34,2.44.22,2.59-2.33,3.59-3.89,2.55-4-1-11.64,5.89-12.43,5.55-.63,7.73,6.22,12.13,8.81,4.56,2.69,8.3,10.55,13.19,7.86,5.9-3.25,2.34-11.23,1.8-17.06-.47-5.05-2.79-9.9-3.79-14.94-.52-2.6-1.88-6.49,2-7.49s5.66,2,6.11,5.65C1076.34,2063.33,1077.41,2072,1078.5,2080.77Z"/><path d="M470,2067.45c3.62.09,6.88-2.19,8,1.25s-2.8,3.66-4.74,5c-4.38,3.11-11.89,4.07-8,12.55,2.66,5.82,4.55,12.84,12.36,4.41,1.51-1.62,4.16-2.35,6.09-.37,1.58,1.62.41,3.58-.29,5.39-2.31,6-8.35,7.26-13.1,8.69-4.54,1.37-8.05-3.31-10.28-7.33-7.4-13.35-7.82-27.38-3.49-41.75,1-3.42,3.66-4.59,6.82-3.62,6,1.85,11.47-.79,17.17-1.41,3.09-.33,7.49-4.55,8.74,1.07,1,4.48-3.26,7.59-7.44,8.68-3.68,1-7.76.33-11.49,1.17-2.69.6-7.7,0-6.55,4.88C464.78,2070.43,468.73,2066.89,470,2067.45Z"/><path d="M260.55,2048.74c5.42-.37,10.69-.33,11.7,6.77.3,2.14,1,4.75-1.37,6.17-2.1,1.23-3.44-.63-4.92-1.86-4.72-3.94-9.94-3-14.18.14-5,3.67-1.34,7.9.44,12,1.71,3.95,4.31,7,7.08,10.22a15.43,15.43,0,0,1,2.57,17.21c-2.87,6.37-9,5.09-14.44,4.78-8.21-.46-14.61-4.72-20.12-10.42-3.75-3.88-3.83-8.75-2.25-13.49,1-2.89,3.4-5.09,6.73-4,3.07,1,1.46,3.61,1.18,5.76-1.09,8.53,5.35,15,14.23,14.47,7-.43,9-4.12,5.23-10.26-2.17-3.57-4.89-6.82-7-10.42C235.76,2059.36,241.54,2049.09,260.55,2048.74Z"/><path d="M947,2079.73c-.55,4.78-.37,9.53-5.35,11.92-4.59,2.19-8.79.49-12.65-2.21-4.49-3.14-8.83-6.47-12.1-11-1.18-1.63-2.48-3.14-4.74-2s-1.75,3.09-1.42,5c.85,5,2.85,10,1.11,15.22-.58,1.74-.33,4.16-3,4.29s-4.78-1.66-4.7-3.92c.42-11.71-2.66-22.93-4.2-34.36-.45-3.38,1.6-5.73,4.19-7,3.78-1.82,5.36,1.91,6.41,4.16,4.14,8.86,12.46,13.65,18.95,20.19,2.08,2.1,4.56,5.45,8.2,3.35s1.88-5.58,1.17-8.7c-1.14-5-2-10-5.21-14.38-1.75-2.38-2.86-5.74.49-7.58,3.56-1.95,5.67,1.41,6.47,3.88C943.09,2064.21,944.91,2072,947,2079.73Z"/><path d="M533.76,2052.27c8.13.1,15.93-1.89,23.73-3.69,3.76-.86,7.65-1.35,9.19,2.7,1.79,4.67-2.37,6.26-5.81,6.91-3.67.69-6.29,2.14-6.47,5.91-.46,10.14-2.9,20.62,3.39,29.94,2.41,3.56.54,6.08-1.32,8.71-1.16,1.63-2.83,2.89-5,2.19-3.67-1.2-4.34-4.13-4.45-7.68-.27-8.71-1-17.41-1.3-26.12-.29-10-2.63-11.93-12.14-9a16.46,16.46,0,0,0-4.32,2.15c-4.46,3-8.41,2.2-10.15-2.64s1.55-8.07,6-9.27C527.81,2051.67,530.87,2052.27,533.76,2052.27Z"/><path d="M308.56,2056.69c9.71-.31,25.48,10.47,28.61,19.43,2.49,7.12-1.45,12.23-6.28,15.76-12.81,9.38-32.36,3.61-39.14-10.93C286.46,2069.61,295.12,2057.11,308.56,2056.69Zm8.85,31.24c5.14.33,9.89-.68,11.87-6,1.83-5-2.15-7.56-5.3-10.28-2.93-2.52-6.34-4.3-9.56-6.37-6.06-3.9-9.38-.35-13.13,3.39-4.62,4.61-2.21,8.89.68,12.89C305.71,2086.69,311.41,2087.79,317.41,2087.93Z"/><path d="M36.32,2101.35c-6.3-.43-13.13-4.07-16.23-13.34-3.85-11.49-.61-25.17,8.15-32.73,2.64-2.28,5.94-5.56,9.08-1.76S37,2059.84,34,2062c-10.33,7.16-11.88,12.93-8.06,24.6,1.55,4.72,4.81,6.84,8.69,8.26,9.26,3.4,25.85-5.85,28.13-15.38,2.25-9.36-4.47-11.63-11.06-13.89-2.39-.82-5.22.62-7.46-1.29-1.77-1.51-3.47-3.21-2.62-5.73.75-2.24,3.12-2.12,4.94-2.22,6.94-.39,20.12,7.78,22.89,14.25,3.59,8.36-1.28,14.14-6.4,19.73C56.52,2097.39,47.9,2101.35,36.32,2101.35Z"/><path d="M987.16,2090.75c-1.45,4.42-3.14,8.68-7.63,9.68-4.87,1.08-9.29-1.12-10.93-5.94-2.28-6.69-5.42-13.17-6-20.38-.2-2.54,0-5.26-2.37-7.09-2.68-2.11-8.18-2.79-2.73-8.17,3.51-3.45,5.09-8.72,11.26-2.89,3.29,3.12,8,.85,11.83-1.06,2.6-1.31,5-3.05,8.15-2.29,1.58.38,3.33.75,3.53,2.68.23,2.15-1.6,2.32-3.14,2.83-5.2,1.72-10.24,4.18-15.56,5.19s-6.12,3.58-4.89,8.16c.92,3.42,1.23,7,2.1,10.43,1.64,6.55,2.05,15.44,12.18,6.3C985.42,2086,986.75,2088.47,987.16,2090.75Z"/><path d="M670.28,2073.88c.34,4.73-.71,10.8,3,16.41,2.24,3.43-.31,6.28-3.59,7.49-4.19,1.55-6.16-1.28-6.29-4.84a183.91,183.91,0,0,0-3.65-31.38c-.72-3.48.6-6.55,4.89-6.65,4.06-.09,5.63,2.48,5.68,6.2S670.28,2068.79,670.28,2073.88Z"/><path d="M994.94,2075.83c-.8,3.78-3.56,4.1-6,3.34-9.13-2.81-17.66-.78-26.11,2.58-2.51,1-5.59,1.81-6.61-1.2-1.25-3.71,2.74-3.63,4.87-4.41a102.75,102.75,0,0,1,25.34-5.59C990.65,2070.12,994,2071.31,994.94,2075.83Z"/><path d="M1118.43,2083.4c3.69.43,6,2,5.84,5.44-.24,4.56-3.42,5.49-7.34,5.18-2.71-.2-5.54-.76-5-4.14C1112.48,2086.24,1114.8,2083.66,1118.43,2083.4Z"/><path d="M1116.45,2059.06c3,.71,6.73,1.08,6.91,5.16.14,3.24-2.21,5.24-5.63,5.27s-5.23-1.9-5.36-5.37C1112.26,2061.32,1112.53,2058.86,1116.45,2059.06Z"/><path d="M529.37,2407.8c5.91-1.81,10.38-1.66,10.66,3.28s-3.33,7.72-9,8.19c-7.23.59-12.82-2.89-18.59-5.89-5.15-2.68-9.89-6.05-15-8.86-12.52-6.94-12.41-6.84-16,6.79-1,3.87-2.79,8.83-7.92,8.3-6.26-.65-4.39-6-3.91-9.85,1.07-8.56,1.93-16.83-3.1-24.91-2.34-3.75-3.13-9.49,2.52-11.56,4.74-1.73,6.64,2.77,7.79,6.43,1.58,5.07,4.33,5,7.16,1.29,3.56-4.64,9-7.1,13.06-11,6.56-6.25,13.14-6.59,19.6-1.35s6,12.44,2.45,19.33a14.34,14.34,0,0,1-4.28,5.23c-7.15,4.9-3.71,8,2,10.11C521.38,2405.06,525.31,2409.34,529.37,2407.8Zm-18.48-25.33c-.22-3.81-2.77-4.94-5.56-4.8-5.38.27-9.85,3.1-11.7,7.6-1.33,3.21,2.8,4.24,5.29,3.73C503.61,2388.05,508.9,2387.43,510.89,2382.47Z"/><path d="M397.82,2412.27c-.77-5.62,1.15-14.15-6.33-20.41-1.59-1.32-2.49-3.59-1.11-5,7.27-7.35,2.79-15.3,1.61-23-.68-4.45.76-8.68,5.65-7.1,9.28,3,17.8.05,26.44-1.25,10.47-1.57,14.71,4.52,16.49,11.9,2.92,12.08-8.44,27.52-21.24,27.52-13.39,0-13.85,6.35-11.94,15.48.69,3.26,2.65,6.37,2.82,9.61.2,3.94,0,9.14-5.57,9.49-5,.3-7.35-3.64-7.52-8.26C397.05,2419,397.45,2416.77,397.82,2412.27Zm31.63-40c-.07-3.49-3.1-5.53-8.32-4.87-8.06,1-15.86,2.81-16.6,12.34-.31,4,.21,8.42,6.51,8.5C419.49,2388.33,429.5,2380.72,429.45,2372.25Z"/><path d="M1025.57,2393.2c-1.07-9.76,5.78-17.58,7.33-26.76.62-3.69,4.39-5.39,8.23-2.65,3.34,2.38,4.38,5.37.4,8.21-7,5-7.24,12.87-9.25,19.94a4.17,4.17,0,0,0,2.87,5.43c2.11.62,3.57-.86,4.74-2.51a37.14,37.14,0,0,1,7.65-8.33c18-14,26.46-13,40.41,4.75,5.53,7,5,13.6-1.58,18.78-13,10.27-27.91,15.13-44.83,10.36C1030.83,2417.4,1025.66,2408,1025.57,2393.2Zm29.57,20.14c3.53-.3,8.81,0,13.58-1.35,5.87-1.66,13-4,14-10.28.92-5.55-4-10.26-9-13.4-7.38-4.67-17.22-1-27.32,9.27-2.93,3-4.54,5.94-2.8,10C1045.47,2411.79,1048.58,2414.09,1055.14,2413.34Z"/><path d="M996.48,2387.18c-.63,7.94,2.91,20.16-6,24.76s-17.54-5-25.89-9.36c-.35-.18-.67-.4-1-.56-6.16-2.85-10.9-11.61-17.55-9.12-7.43,2.78-1,11.49-2.82,17.34-.94,3-.16,7.71-5.15,7.36-4.75-.33-6.3-4.55-5.76-8.38,1.26-9.06-.48-17.69-2.41-26.46-1.13-5.19-.41-11.45,5.24-13.59,6.23-2.35,7.48,4,10.55,7.7,8.92,10.83,21.42,17.91,33.29,25.42,4.1,2.6,7.73-.72,8.31-4.95,1-7.16,4.33-14.61-1.82-21.36-2-2.17-2-4.77.14-7.09s5-1.92,7.64-1.37c3.65.75,3.29,3.56,3.25,6.2C996.43,2377.81,996.48,2381.9,996.48,2387.18Z"/><path d="M702.17,2394.23c1.27-5.42,2-12.1,4.46-18.19,3.64-9.2,10.41-11.53,19.57-6.71,8.54,4.5,15.79,11,20.35,19.23,8.26,15,.91,27.3-16.89,29.14C715.76,2419.14,701.56,2407.57,702.17,2394.23ZM729,2407.5c7.11,0,10.36-2.39,10.43-7.61.09-6.8-10.47-19.56-16.17-19.32-9.45.38-12.08,7.65-11.56,14C712.47,2403.31,719.62,2407.54,729,2407.5Z"/><path d="M560.68,2389.21c-.18-11,8.44-18.4,21.64-18.62,8.62-.14,20.67,15.23,20.58,26.24-.07,8.62-10.37,17.13-20.92,17.28C570.18,2414.28,560.92,2403.45,560.68,2389.21Zm32.23,6.27c-2.23-6.43-6.28-11.61-14.28-12.53-5.62-.65-9,3.85-7.74,7.46,2.06,5.8,3.44,13.93,12.75,13.83C588.69,2404.18,592.5,2401.49,592.91,2395.48Z"/><path d="M659.59,2378.43c1.37-4.06-5-13.65,5.1-13.24,10.69.43,3.68,9.48,3.28,14.23-.91,10.64,1.19,21.73-4.06,31.88-5.38,10.39-9,10.74-16.62,2.17-7.9-8.9-10.17-20.88-18.51-29.62-2.18-2.29-.6-6,3-7.19,4.29-1.47,7.69-.18,9.57,4,2.61,5.81,5.19,11.65,7.94,17.4,1.11,2.32,2.31,5.39,5.75,4.46,3-.81,3.38-3.82,3.55-6.48C658.91,2390.49,659.21,2384.92,659.59,2378.43Z"/><path d="M817.56,2398.88c5.41-1,10.84-1.71,16.33-.81,1.89.31,4.13.32,4.67,2.6a4.23,4.23,0,0,1-3.41,5.11c-12.47,2.38-25.16,6.68-37.52.14-7.3-3.86-6.74-12.45,1.18-18.61,4.8-3.72,10.2-6.75,15.38-10,2.7-1.71,5.94-3.3,8.31-.24s1,6.47-2.07,8.75c-1.46,1.09-3.54,1.4-5.28,2.19-3.68,1.67-9.61,2.39-7.9,7.65C808.44,2399.33,813.5,2399.42,817.56,2398.88Z"/><path d="M787.13,2423.47c-4.75-1-5.48-4.06-5.76-8.24-1.07-15.47-1.76-31.06-10.07-45.15-2.33-3.95-.78-7.81,3.83-8.68,5-1,8,2.41,8.65,7,1.1,7.32.63,14.75,2.55,22.06,1.77,6.76,2.11,13.65,7.4,19.43C797.35,2413.81,792.15,2423.51,787.13,2423.47Z"/><path d="M873.19,2409.58c-.17-11.31,1.4-25.11-4.9-38.22-1.72-3.58-.36-7.13,3.53-8.22,5.18-1.45,5.7,3.27,6.14,6.2,1.4,9.21,2.1,18.5,3.22,27.74.58,4.75-.82,9.79,2.07,14.21,1.94,3,3.81,5.86.46,9a5.78,5.78,0,0,1-6.53,1C872.89,2419.44,871.91,2416.06,873.19,2409.58Z"/><path d="M1115.61,2415.88c-2.21,12-4.7,23.54-13.7,32.65-2.39,2.42-5.26,5.66-8.8,2.9s.62-5.21,2.05-7.44c6.47-10.1,13.76-19.85,12.07-32.68-.33-2.48.77-4.74,3.78-4.23C1116.68,2408.05,1114.22,2412.93,1115.61,2415.88Z"/><path d="M47.92,2419.9a38.75,38.75,0,0,1-5.39,0c-16.07-2.27-23.41-15.24-18.31-33.51,2.78-10,1.25-19.45-1.68-28.4-1.91-5.82-1.91-10.28,2.76-12.28,9.13-3.9,18.68-6.48,28.16-.62,8.75,5.4,10.86,13.15,6.32,26.33-1.49,4.33-3.32,8.16,2,9.5,8.88,2.25,10.3,9.17,9.34,17.7-1.15,10.17-5.34,17.86-14.66,20.47a75.73,75.73,0,0,1-8.5,1.42Zm-11.16-67.48c-5.13-.93-8,3.7-6.27,11.91,1.32,6.13-4.41,16.23,5.87,17.63,7.37,1,15-9.67,15.09-19.2S45.62,2353,36.76,2352.42Zm12,37.35c-5.43,1.86-13.72-1.43-15.23,9.07-.58,4.08-2.16,9.94,2.23,12.37,5.78,3.2,12,1.52,17.65-1.51,4.45-2.41,10-5.09,8.69-12.31C60.68,2389.47,54.59,2389.84,48.75,2389.77Z"/><path d="M250.78,2357c8.6,2.27,18.43,2.55,27.26,7.74,10.81,6.35,13.55,14.26,9.42,27.34-8,25.37-26.93,36-49.27,27.9-3.78-1.37-6.26-2.6-6.38-8-.34-15,1.2-30.25-3.31-45-1.31-4.3,1.59-6.76,5.34-7.35Zm5.68,12.83c-15-1-17.06,1.95-16.72,18.15.18,8.38,6.24,14.37,5.32,22.9-.25,2.34,2.61,3.46,4.82,4,11.76,2.84,27.84-12.48,30.29-28.89,1.4-9.39-4.21-13.77-19.93-15.58C258.82,2370.19,257.41,2369.92,256.46,2369.78Z"/><path d="M88.7,2377.25a11.09,11.09,0,0,1,4.37-11.33c2.81-2.05,5.73-7.1,9.28-3.5,4.92,5-1.52,6.52-3.38,9-3.14,4.19-4.67,9-2.47,13.53,3.21,6.5,8.24,11.79,15,12.92,3.72.62,7.94-.5,11.58-2,3.45-1.39,5.92-4.75,6-9.41s-3.15-6-6.27-7.16a77.3,77.3,0,0,0-9.23-3.25c-3.23-.76-7.28-.77-5.6-6.2,1.22-4,4.47-7.23,8.49-5.54,6.34,2.67,13,5,17.94,10.78,4.17,4.89,5.54,9.53,1.8,16.29-7.24,13.12-16.73,19.56-27.18,16.69C95.75,2404.47,88.9,2394.18,88.7,2377.25Z"/><path d="M162.06,2383.67c-.35-4.71-.65-11.69-1.46-18.59-.58-5,1.67-7,5.28-7.37,3.76-.4,5,2.71,5.05,6.35a184.64,184.64,0,0,1-.75,23.38c-1.21,12,2.62,15.85,12.83,14.16,6.76-1.12,13.62-1.76,19.54-6.4,2.26-1.77,5-1.84,7.07.24,2.66,2.72,2.41,6.83,2.13,10.41s-3.19,4-5.8,3.91c-7.65-.18-15,1.93-22.45,3.55-17.68,3.87-23.13-1.7-22-22.44C161.56,2389.22,161.74,2387.59,162.06,2383.67Z"/><path d="M297,2432.72c6.05-6.4,6-16.16,8.39-24.95.74-2.79,2.78-4.83,5.84-3.71s5.36,3.69,4.22,7.26c-2.77,8.69-5,17.79-10.41,25-1.44,1.9-3.38,3.08-5.72,2.08C297.36,2437.58,296.87,2435.73,297,2432.72Z"/><path d="M639.61,2539.78c-.61-15.9,5.13-25.34,16.75-31.11,4-2,8.39-3.92,12.25.5,3.73,4.27,6.82,8.74,4.31,14.91-.92,2.24-1.28,4.77-4.28,5.18-3.4.48-5.09-1.43-5.91-4.42-2.58-9.29-6.61-5.56-10.66-1.17-6.12,6.65-7,24.06-1.64,30.9,2.73,3.52,5.31,2.84,8.89,1,8.14-4.19,13.47-11.83,21.11-16.49,6.87-4.19,13.93-10.91,20.27,1.36,1.92,3.71,18.69-2.27,20.55-7.35,1.4-3.86,1.91-8,3.11-12a12,12,0,0,1,10.16-8.91c5.06-.76,5.46,3.9,7.58,6.91,7.44,10.59,15.13,21,23.2,31.14,2.34,2.94,3.74,5.58,3.42,9.23-.26,3-1.17,5.61-4.41,6.19-2.93.53-4.19-1.84-5.24-4.06-1.49-3.1-2.78-6.3-4.32-9.37-6.66-13.33-20.84-14.25-29.71-1.93-2,2.78-3.83,5.7-5.93,8.4-1.32,1.7-2.22,5.05-5.32,3.1-2-1.26-3.75-3.81-2.87-6.19,1.67-4.5,1.29-7-4.06-8s-7.2,1.43-9,5.94c-7,17.13-23,24.65-39.9,19.58-11.46-3.44-13.62-13.7-16.95-22.87C639.48,2546.18,639.8,2541.43,639.61,2539.78Zm30.26,27.07c8.53-1.89,16.32-5.12,20.2-13.7,1.59-3.51.53-6.56-4.14-4.89a55,55,0,0,0-18.88,11.81,4,4,0,0,0-1.36,4.56C666.41,2566.52,668.05,2566.84,669.87,2566.85Z"/><path d="M390.92,2552c.07-9.35.05-18.69-5.79-26.73-2.61-3.59-2-6.48,1.77-8.53,3.51-1.91,6-.62,7.11,3.12,1.81,6.27,4.75,6.05,8.44,1.57,8.11-9.83,19-10.77,30.6-9.85,3.55.28,4.56,2.13,4.73,5.37.46,8.86-3.21,15.44-11,19.24-7.09,3.43-5.32,6.17.25,8.66,8.82,3.94,16.49,11.41,27.86,7.3,4-1.44,6.35,2.15,3.56,6.41-4,6.13-9.54,7.49-16.08,4.38q-15.37-7.32-30.64-14.85c-8.33-4.13-11.56-2.34-11.47,6.66.06,5.82,2.81,15.34-4.69,15.15s-4-10-4.58-15.83C390.87,2553.38,390.93,2552.68,390.92,2552Zm18.28-20.15c8.61-1.39,15.65-2.76,17.79-10.52.77-2.78-2.9-3.72-5.22-3-6.22,1.85-12.5,4.49-15.62,10.38C404.75,2531.33,408.49,2531.91,409.2,2531.84Z"/><path d="M483.91,2511.5c8.24-1.53,15.45.09,22.57,3.25,13.76,6.13,18.12,14.36,12.71,28-5.67,14.3-16.91,23.08-31.74,27a14.42,14.42,0,0,1-13.56-3c-5.07-4.3-.46-7.74,0-11.88,1.07-9.67,1.32-20-2-29.58-4.47-12.89-4.08-13.81,9.4-13.71C482.34,2511.51,483.37,2511.5,483.91,2511.5ZM497,2523c-6.67-.47-9.36,1.94-9.27,8.34.11,8,3.14,16.31-2.25,23.91-.61.86.24,3.51,1.23,4.55,1.23,1.29,3.28.67,4.68-.43,4.82-3.83,9.7-7.62,14.32-11.69,4.79-4.21,8.89-9.62,6.86-16C510.23,2524.43,502.76,2524,497,2523Z"/><path d="M806.33,2570.71c-1.38,0-2.75,0-4.13,0-5.44.05-9.28-2.93-11.67-7.28-2.48-4.52,1.26-7.53,3.82-10.74s7-6,5.25-10.42c-1.7-4.29-6.46-2.52-10.1-2.56-2.77,0-6.06.14-5.76-3.92.24-3.14,3.09-3.17,5.53-3.23,4.82-.14,9.64-.41,14.45-.32,4.25.07,7.15-2,9.6-5.1,1.53-2,3-4,1.39-6.52s-4-1.93-6.45-1.41c-9.69,2.11-19.4,4.12-29.09,6.2-2.61.56-5.7,2.24-6.92-1.58-1.06-3.29,1.5-5.64,4.15-6.12,15.13-2.73,30.3-5.36,45.54-7.37,4.26-.57,3.24,3.53,2.55,6.09-1.54,5.71-3.09,11.07,5.94,11.4,2.61.09,4.29,2.37,4.38,5,.1,3.14-2.43,3.68-4.9,4.18-10.19,2-19.93,4.36-25.42,15-2.88,5.57-1.67,8.19,3.81,8.09,6.18-.1,13.05,2.35,18.31-3.88,2.59-3.06,6.91-2.8,10.61-2,2.45.54,2.54,3,2.12,5.12-.89,4.57-4.24,5.64-8.33,6.14C822.65,2566.55,815.2,2572,806.33,2570.71Z"/><path d="M200.55,2566.34c-12,.41-18.26-9.47-27.49-13.4-1.19-.5-2-1.9-3.05-2.73-14.35-11.16-14.3-11.15-17.39,7-.61,3.6-.79,9-5.63,8.36-5.43-.68-3.19-5.9-2.7-9.33,1.69-11.8.18-23.23-3.28-34.5-.67-2.19-2.49-4.68,0-6.56,1.09-.83,3.3-.75,4.8-.35,2.92.77,2.95,3.35,2.89,5.86s-1.36,6,1.87,7.32,4.67-2.16,6.75-3.74c9.89-7.5,21.52-5.89,32.73-6.12,3.45-.06,4.36,2.77,3.86,5.95-1.11,7-4.4,12-11.4,14.57-5.92,2.17-6.55,5.63-1.14,9.55,7.43,5.38,14.26,12.45,24.86,7.61a3.83,3.83,0,0,1,5.31,1.69c1.13,2.12.24,4-1.21,5.64A9.71,9.71,0,0,1,200.55,2566.34Zm-31.45-31.83c4.05-2.21,11.1-.92,13.25-6.92,1.28-3.57-3.31-4-5.81-3.37-5.12,1.2-11.95.29-14.12,6.39C161.19,2534.08,165.67,2534,169.1,2534.51Z"/><path d="M1023.34,2570.89c-17.32.23-24.37-6.61-25.49-22.56-.72-10.2-.13-19.84,6.28-28.54a22.78,22.78,0,0,1,15.3-9.56c4.68-.74,7.85,2.47,7.78,6.35-.1,5.62-4.23,2-6.8,1.77-6.18-.59-14.44,7.72-16.32,17.16a28.09,28.09,0,0,0,.18,11.26c1,4.56,3.73,7.15,7.53,1.92a50.06,50.06,0,0,1,13.56-12.57c9.45-6.11,20.23-3.55,25.92,5.82,5.43,8.92,2.28,18.56-7.75,24.22C1036.71,2570,1029.46,2571.63,1023.34,2570.89Zm1.58-6.33c5.73-.09,10.34-2.5,15.2-4.11s6.44-5.31,5.47-9.59c-1.15-5.06-4.72-8.13-10.33-8.1-5.88,0-10.12,3.85-14.84,6.47-3.72,2.08-7.09,5.53-6,9.83C1015.64,2564.22,1020.87,2564.31,1024.92,2564.56Z"/><path d="M291,2532.21c.65,6.32,1.47,12.46,1.88,18.63.82,12.21-2.68,14.54-13.52,9.6a49.12,49.12,0,0,1-16.54-12.05c-5.82-6.64-8.32-4.66-11.73,1.64-2.24,4.16-1.15,12.13-8.3,11.28-7.7-.92-6.14-8.87-7.44-14.22-1.54-6.34-2.47-12.77-6.11-18.48-2.3-3.61-2.18-7.9,2.43-9.38,5.07-1.64,4.6,3.67,6,6.4a12.42,12.42,0,0,1,.43,2c1.43,4.44-.08,11.76,4.83,12.65,6.13,1.12,3.88-6.6,6-10.06,2.82-4.56,6-5.74,9.28-.39,4.2,6.91,11.54,10.74,16.47,17a6.2,6.2,0,0,0,7.44,2c2.68-1.15,2.37-4,2.38-6.33,0-4.82-.26-9.58-2-14.21-1.08-2.92-1.66-6.19,1-8.68a5,5,0,0,1,5.79-.63c3.56,1.91,2.29,5.27,2.06,8.25C291.25,2528.93,291.09,2530.64,291,2532.21Z"/><path d="M345.2,2543.73c-6.21,2.07-12.62,3.74-15.71,10.5-1.43,3.12-3.12,6.12-4.49,9.27-1.27,2.93-3.15,4.77-6.34,3.32s-4.11-4.31-2.88-7.77c4.91-13.9,12.1-26.84,17-40.84,2.54-7.32,8.61-4.1,12.16.16,5,6.06,10.05,12.38,13.61,19.34,2.73,5.34,5.36,10.27,10.22,13.83,3.12,2.29,4.47,5.25,2.92,9-.8,1.94-2.21,3.65-4.49,3.83-4.1.33-5.94-2.44-7.73-5.63-2.17-3.88-4.81-7.5-7.32-11.18A7.8,7.8,0,0,0,345.2,2543.73Z"/><path d="M969.75,2541.92c-.31,5.85,2.92,14-4.19,16.41-6.58,2.21-14-.18-19.47-6.15-3.44-3.76-7.74-6.74-11.64-10.08-1.77-1.52-3.36-4.17-6-3.09-3.1,1.29-2.58,4.42-2.31,7.21a34.65,34.65,0,0,1-1.68,15.23c-1,2.84-.67,6.75-5.3,5.81-4.1-.83-3.83-4.45-3.61-7.48.38-5.13,1.35-10.21,1.69-15.34.37-5.81.5-11.65.39-17.48-.06-3.27-.23-6.43,3.51-7.62,3.11-1,5.3,1,6.91,3.34,6.47,9.56,15.24,16.63,24.55,23.19,2.26,1.59,4.26,4,7.27,2.73,3.61-1.51,3.29-4.95,2.86-8-.9-6.42-.3-13-3-19.26-1.1-2.55-2.83-6.84,1.82-7.48,3.65-.51,6.29,2.54,6.23,6.59C967.73,2527.67,971,2534.58,969.75,2541.92Z"/><path d="M37.42,2557.09c-2.38-11.91-.07-25.86-5.15-39-1.75-4.53,2.28-7.39,5-7.34,12.6.22,24.19-5,36.51-5.87,4.62-.32,8.28.69,8.73,6.25.22,2.68,1.35,5.77-1.78,7.39-3.61,1.86-4.85-1.2-6-3.65-2.72-5.62-6.24-6.15-10.21-1.48-3.61,4.27-8.63,3.49-13.24,4.52s-9.84,1.36-10,8.18c-.18,5.66.61,9.54,7.83,8.37s14.32-1.81,21.51-2.42c1.79-.15,4.6-.95,5.18,1.8s-2.16,3.87-3.9,3.62c-8.9-1.31-14.6,8.88-24.15,6.18-3.47-1-4.48,3.26-4.35,6.67.21,5.16.48,10.24,2,15.28,1,3.23,1.07,6.89-1.76,9.68a3.12,3.12,0,0,1-4.6.07c-3-2.56-2.82-6.1-2.6-9.55C36.5,2563.42,36.92,2561,37.42,2557.09Z"/><path d="M82.21,2540.49c.1-9.65,8.94-23.95,14.78-23.9,14.34.13,31.83,13.9,31.57,24.84-.21,8.85-17.54,23.6-27.2,23.16C90.7,2564.1,82.08,2553.25,82.21,2540.49Zm15.37-15.38c-7.11.36-7.25,9.11-8.66,15.44-1.63,7.32,8.24,15.79,17,16,5.71.13,17.2-9.47,17.22-14.38C123.2,2535.44,110.11,2525.61,97.58,2525.11Z"/><path d="M577.64,2546.11c-5.14,0-10.29.14-15.42-.05-3.85-.15-5.42-2.76-5.1-6.29.27-3.11,2.2-5.1,5.47-5,10.62.46,21.22,1.17,31.8-.75,3.25-.58,5.37,1.54,5.28,4.79-.11,3.64-1.71,6.67-5.64,7.65C588.59,2547.85,583.11,2547.05,577.64,2546.11Z"/><path d="M872.05,2544.75c-.29-7.46.7-15.06-2-22.34-1.19-3.18-.75-6.59,3.11-7.34,4.31-.84,4.72,2.89,5.18,6,1.91,12.71-1,25.91,4.54,38.34,1.46,3.3-1.46,6.62-5.65,6.85s-5.1-2.7-5.14-6.09C872,2555,872.05,2549.88,872.05,2544.75Z"/><path d="M1099.76,2541.91c2.24,1.46,4.58,2.44,6.14,4.13a4.92,4.92,0,0,1,.4,6.61c-1.53,1.89-3.92,1.6-5.66.53-4.33-2.65-9.87-4.87-10.62-10.42-.78-5.83,3.64-9.34,8.52-11.66,5.44-2.6,9.11-7,13.11-11.3,3.39-3.6,3.56-7.27,1.83-11.33s-5.48-5.06-9.4-5a32.29,32.29,0,0,0-17.57,5.12c-2,1.31-3.94,1.15-5.53-.6s-1.42-3.55,0-5.53c6.43-9.07,25.14-11.88,32.79-4.84,12.2,11.25,9.6,28.16-5.88,38.35C1105.35,2537.62,1101.9,2537.87,1099.76,2541.91Z"/><path d="M1102.18,2587.54c-3.44-.19-4.19-2.2-4.06-4.85.14-2.83.5-5.63,4.33-5.37,3.17.21,4.93,2.06,4.75,5.29S1104.8,2587.16,1102.18,2587.54Z"/></svg>