<svg xmlns="http://www.w3.org/2000/svg" width="815.43" height="2718.07" viewBox="0 0 815.43 2718.07"><title>c33-txt_1</title><path d="M312.82,606.77a36.59,36.59,0,0,1-25.59-14.11c-3.52-4.5-5.57-5.34-8.1,1-2,5.08-2.05,10.5-3.95,15.5-.83,2.19-1.61,4.65-4.66,4-2.81-.63-3.21-3-2.91-5.43,1.26-10.1,1.33-19.85-6.12-28.15-1.47-1.64-1.9-4.78.64-6.08s5.43-1.11,7.34,1.87c2.53,3.94,1.16,10.82,6,12,1.87.44,5-6.9,8.32-9.78,7.5-6.45,16.75-8.24,26.4-8,2.35.06,5,1.51,5.18,3.82.35,4.68,1.47,9.8-2.35,13.78a15.41,15.41,0,0,1-6.95,4.6c-1.53.43-3.05,1.23-2.87,3.06s1.78,2.31,3.27,2.83c3.11,1.1,6.11,2.56,9.61,1.29,2.36-.85,5.44-2,6.09,1.84.6,3.56-1.33,5.83-5.17,6C316,606.81,315,606.77,312.82,606.77Zm-15.37-20.52a10.56,10.56,0,0,0,10.23-5.13c1.13-1.79,1.26-4.25-.8-5.46-3.65-2.14-7.3-.53-10.85.84-.23.09-.47.18-.7.29-2.61,1.33-6.46,1.92-5.45,6C290.81,586.66,294.38,586.24,297.45,586.25Z"/><path d="M459,487c1.1-9.78,2.78-18.12-1.18-26.23-.89-1.81-.08-3.52,1.66-4.58,2.18-1.32,3.25,0,4,1.84,1.65,3.94,4,3.13,6.53.93,5.61-4.83,12.5-5.56,19.41-5.45,3.19.06,8.21-1.49,8.76,3.57a10.33,10.33,0,0,1-5.78,10.79c-2.28,1.14-6.59.29-6.29,4.07.23,3.07,4.25,3.12,6.57,4.52,3.06,1.83,6.28,3.4,9.31,5.27,3.91,2.4,7.67,4.07,11.84.4,1.32-1.16,3.28-1.94,4.79-.19,1.72,2,.52,3.94-.84,5.47-5.5,6.18-10.54,6.5-18,2-7.84-4.74-15.82-9.27-23.94-13.52-5.34-2.8-8.89-1.44-9,5.31a18.38,18.38,0,0,1-.64,5.3c-.74,2.29-1.08,5.64-4.49,5.18S458.93,488.05,459,487Z"/><path d="M319.63,478.9c1.91-9.83-2.46-16.61-2-24,.24-4.19.89-7,5.53-3.4,2.37,1.83,4.29.43,6.4-.35,2.39-.89,4.78-1.8,7.22-2.52,10.6-3.15,14.1-.14,11.37,10.7-1.38,5.47-.22,7.3,5.22,8,9.31,1.23,12.2,7.05,8.72,16.41a22.27,22.27,0,0,1-22.8,14.56c-5-.46-9.7-2.93-15-1.8-2.66.56-3.46-1.86-3.35-4C321.18,487.14,318.1,482,319.63,478.9Zm21.54,13.9c5.79-1,10.93-5.32,14.72-11.32,1.33-2.1,2.25-4.81.56-7.21-1.83-2.59-4.5-1.28-7-1.19-6.91.24-12,5.3-18.45,6.56-2,.39-4.26-.07-4.64,2.73s0,5.28,2.51,6.76A23.44,23.44,0,0,0,341.17,492.8Zm-16.3-26.73c.67,2-1.28,6.81,4.06,5.54,5.8-1.39,10.65-4.61,12.93-10.6,1-2.64,1.19-5.11-2.15-6.13C334.15,453.2,324.93,459.92,324.87,466.07Z"/><path d="M332.3,597.28c-.26-4.07.08-8.29-.9-12.17-1.57-6.21,2.73-8.47,6.62-10.44,4.73-2.4,5,3,6.8,5.18,4.24,5,8.16,10.37,12.25,15.54,2.46,3.11,5,2.1,7-.37,6.19-7.47,14.27-13.15,19.8-21.23,1.11-1.63,2.18-3.75,4.71-3.23s2.34,2.94,2.59,4.93c.79,6.07,1.81,12.13,2.35,18.23.31,3.59.31,6.84,3.4,9.67,3.37,3.09,1.32,6.27-1.77,8.15-3.33,2-5.07-.41-6.29-3.29-2.44-5.78-1.82-12-2.76-18-.36-2.31-.32-4.89-2.91-5.76-3.29-1.09-3.25,2.23-4.6,3.85-4.08,4.89-8,10.07-12.75,14.2-4,3.5-8.66,3.12-12.76-1.35-3.34-3.63-5.7-11-10.79-9.55s-.54,8.6-2.13,13a48.82,48.82,0,0,1-1.62,5c-.79,1.6-2,3.14-4.2,2.5-1.94-.57-2.77-2-2.73-4.08.06-3.57,0-7.15,0-10.72Z"/><path d="M498.84,587.2q-.4,8.77-.82,17.55c-.2,4.31-2.12,5.83-5.78,3.06-8.31-6.27-18.05-10.41-25.82-17.47-1.31-1.18-2.68-2.58-4.7-1.7s-1.64,2.93-1.82,4.65c-.54,5.19,1.69,10.64-1.92,15.57-1.3,1.77-2.36,3.4-4.72,3.09-2.91-.38-2.3-2.76-2.5-4.74-.92-9,.93-18.19-3.06-27.05-1.9-4.22,3.38-5.56,6-7.61,2.37-1.84,4-.5,5.73,1.54,8,9.65,19.15,15.3,28.79,22.87,1.37,1.08,2.69,1.54,4.13.52s1.35-2.61,1.19-4.17c-.57-5.58-1.17-11.15-1.65-16.73-.22-2.58-.4-5.76,3.14-5.8s3.46,3.36,3.57,5.73c.17,3.54-.26,7.1-.44,10.65Z"/><path d="M798.38,579c-.17,6.37,3.1,11.75,5.1,17.48.59,1.68,1.92,3.21,2.1,4.89.34,3.2,1.82,7-.83,9.49-2.45,2.28-5.26-.66-7.82-1.36A93.11,93.11,0,0,1,765,593.64c-2.07-1.57-4.54-3.31-7-2-3.27,1.79-.46,4.54-.1,6.8.68,4.4,3.6,10.89-1.5,12.15s-4-6-5.44-9.67A100.53,100.53,0,0,1,747,590.25c-1-3.84-2.8-8.17,1.35-11.31s8.25-.7,11.07,2c7.7,7.32,17.13,11.77,26.1,17a12.62,12.62,0,0,0,1.94,1.23c3.26,1.15,6.89,4.67,9.8,2.39,3.28-2.56-.84-5.91-1.72-8.87-1.53-5.14-3.1-10.25-3.14-15.67,0-2.56-.14-5.82,3.2-6,3.85-.18,3,3.25,3,5.68A20.06,20.06,0,0,1,798.38,579Z"/><path d="M245.27,486.53c.65,3.91-.89,6-6.74,2.82-6.66-3.59-14.48-4.82-20.3-10.28-2.31-2.17-5-2-7.15,1.06s-4.83,5.91-7,9.06c-2.26,3.36-5.06,6.29-9.12,5.94s-4.22-4.87-5.16-7.75c-2.57-7.89-4.52-16-6.63-24-.53-2-.78-4.32,1.81-5.12,3.1-1,3.88,1.49,4.66,3.73,2.08,6,2.15,12.47,4.75,18.43,2.25,5.15,4.32,5.15,7.4,1.14,2.58-3.35,6.3-5.71,7.3-10.42.91-4.24,3.91-3.88,7.05-1.76q8.25,5.55,16.64,10.86c1.47.94,3.18,2,4.94.65s1.56-3.11,1.16-4.9c-1.4-6.27-1.6-12.64-1.75-19-.05-2.3-2.16-5.87,1.61-6.3,3-.35,3.45,3.58,3.72,5.84C243.61,465.83,244.27,475.24,245.27,486.53Z"/><path d="M229.29,582.79c4.68-.91,9.44-1.77,14.18-2.78,2.14-.45,4.31-.93,4.57,2.09.19,2.08-1.22,3.17-3.34,3.33-6.6.53-12.25,4.78-19,4.76-2.2,0-5,.8-4.57,3.94.58,4.5.85,9.45,4.27,12.73,2.17,2.08,5.29.95,7.64-1.05,1.76-1.51,3.49-5.14,5.95-2.25,2.3,2.69-.57,5-2.8,6.82-11.06,9-18.13,6.39-21.08-7.9-1.81-8.76-.61-18-5-26.4-1.63-3.08,1.41-4.63,4.23-4.57,10.81.22,21.12-3.31,31.8-4.11,2.79-.21,5.3-1.07,5.74,2.6.5,4.27-2.74,2.93-5.15,3.27-6.28.88-12.5,2.17-18.75,3.24-2.35.41-5,.84-4.47,3.92C224,583.69,227.11,582.13,229.29,582.79Z"/><path d="M549.86,587c-4.55,7.76-.4,12.58,4.44,17.53,2.13,2.18,2.19,5.23-.62,7.35s-5.24.29-6.53-1.76c-2-3.19-3-7-4.83-10.35-1.59-3-2.3-7.6-6.68-7.48-4.83.15-8.51,3.09-10.73,7.52-1.26,2.5-2.34,5.09-3.72,7.53-1.14,2-2.68,4.3-5.36,2.38-2-1.44-2.78-4.24-1.18-6.1,2.91-3.38,2.54-4.83-1.16-7.62-4.11-3.09-1.28-6,2.64-6.59,4.58-.72,7-2.61,6.54-7.46-.08-.94.68-1.93.78-2.93.46-4.67,3.43-7.47,7.47-8.74,4.37-1.38,5.08,3.46,7.31,5.52,3.36,3.11,3,10.32,10.36,9.12C548.92,584.82,549.52,586.38,549.86,587Z"/><path d="M70.94,585c-.59,17.51-16.48,30.35-32.34,26.92-7.4-1.6-8.68-6.63-8.68-12.25,0-7.43-.21-14.63-2.52-21.83-1.8-5.6,1.41-8.18,7.47-7.45,7.33.88,14.74,1.07,22.08,1.9C67.25,573.48,71.21,577.24,70.94,585ZM35.1,583.59c.43,4.06.8,8.12,1.32,12.16A27,27,0,0,0,37.6,601c2.44,7.1,6.22,8.74,12.83,5.08,6.44-3.57,10.61-9.29,13.81-15.87,2.93-6,.18-9.19-5.21-10.95-6.72-2.2-13.61-.73-20.43-.42C35.79,578.92,34.69,580.84,35.1,583.59Z"/><path d="M696.18,479.84c-.2,3.79.65,7.44-1.44,10.72-1,1.5-1.68,3.4-4,2.83a3.88,3.88,0,0,1-3-4c-.13-8.91-.19-17.67-4.77-25.94-1.27-2.31,2.18-5.52,4.68-7.2,2.26-1.53,4.23-.05,5.93,1.84,8.71,9.71,19.82,15.77,31.72,20.56,5.88,2.37,7.47,1.08,6.26-5.23-1.07-5.52-2.74-10.91-2.32-16.63.19-2.57.91-4.85,3.91-4.48s2.45,2.86,1.95,4.83c-1.86,7.38,1.54,14.1,2.48,21.12,1,7.7-.85,9.31-8.22,7.66-9.16-2.05-16.61-7.76-25.07-11.27-2.49-1-4.52-4.38-7.46-2.86C693,473.84,696.86,477.33,696.18,479.84Z"/><path d="M552.82,481.13c-.17,3.05-.1,6.13-.57,9.13-.37,2.29-2.06,3.41-4.53,2.91s-2.08-2.31-2-4.15c.16-7.92-.22-15.86-3-23.3-2-5.21,2.19-6.94,4.64-9.23,2.85-2.66,5,.3,6.91,2.35,5.2,5.62,10.34,11.28,15.63,16.81,1.56,1.63,3.51,3.49,6,2.42,2.76-1.19,1.81-3.87,1.52-6.07-.64-4.77-.12-9.67-2.05-14.32-1-2.42.07-4.76,2.91-5.14s3.87,1.63,4.06,4.28a157.08,157.08,0,0,1-.62,30.51c-.57,4.59-3.13,5-6.29,2.44-4.9-4-9.6-8.25-14.31-12.49-2.28-2-3.18-7-7.33-5.13C549.75,474,553,478.08,552.82,481.13Z"/><path d="M113.41,575.28c-3.31,0-6.63,0-9.94,0-2.64,0-5.59-.23-5.31,3.55.25,3.3,2.36,4.84,5.84,4.42,6.06-.74,12.13-1.36,18.21-2,1.41-.15,3.37-.94,3.91,1,.71,2.57-1.57,2.81-3.3,3-5.93.63-11.2,3.26-16.71,5.22-3.44,1.22-7.66,1.69-5.71,6.75,1.47,3.81-.5,11,7.77,9.33,1.37-.28,2.58-.32,3.07,1.26a4.86,4.86,0,0,1-1.06,5c-3.66,4.13-10.06,2.78-13.16-3.27a48.26,48.26,0,0,1-4.77-17.62c-.52-5.83-.43-11.73-.89-17.57-.29-3.62,1.55-5.38,4.64-5.79,8.87-1.2,17.78-1.43,26.57.71,2.4.58,5.66,1.48,5.07,4.61s-3.8,1.34-5.83,1.44c-2.79.14-5.59-.2-8.39-.33Z"/><path d="M762.45,470.64c-.84-5.61,2.53-10.92,5.09-16.46.89-1.92,1.9-4,4.49-2.76,2.77,1.35,2.67,3.93.85,5.74-7.14,7.11-5.51,15.34-3.36,23.65,1.94,7.47,8,7.63,14.06,7.51s4.89-4.72,5-8.4c.15-5.67,3.57-10,5.93-14.77,1-2,3.15-2.43,5.21-.79,9,7.17,8.42,20.52.34,24.79-6.57,3.48-13.24,5.58-20.38,5.59C769.39,494.74,762.78,485.42,762.45,470.64Zm36.3,3.88c-2.69.4-3.06,2.69-3.38,4.92s0,4.54,2.52,4.63c3.11.12,4-2.56,4.23-5.21C802.34,476.56,801.4,475,798.75,474.52Z"/><path d="M177.3,567.51c2.67-.22,6.49-.44,10.29-.89,2.39-.28,4,.16,4.41,2.84.33,2.48.2,5.14-2.89,5.16-7.12,0-6.61,4.53-6.28,9.42.46,6.88.59,13.78.87,20.66.07,1.73-.54,3.65,1.26,4.93s3.58,2.52,1.75,4.89c-1.17,1.51-3.09,1.79-4.88,1.67a4.12,4.12,0,0,1-4.12-3.83c-.47-5.08-.55-10.2-.88-15.29-.27-4.08-.7-8.15-1-12.23-.88-10.79-2.07-11.6-12.79-8.72-2.94.79-5.84,1.72-8.82,2.34-2.77.58-5.29-.12-6-3.23-.73-3.38,1.94-4.61,4.44-5.1C160.41,568.64,168.14,566.79,177.3,567.51Z"/><path d="M606.63,568.28c1.19-.15,2.71-.33,4.23-.54,2-.28,3.54.22,3.95,2.49.34,1.87.41,3.8-1.79,4.45-5.1,1.49-4.51,5.24-4.19,9.23.54,6.6.76,13.22,1,19.84.06,1.56-.1,3.08,1.5,4s4.2,1.75,2.45,4.45c-1.3,2-3.38,3.39-5.87,2.71s-3.46-2.45-3.67-5.16c-.64-8.39-1.68-16.75-2.45-25.13-.69-7.55-2.48-9-9.72-7.15-4.17,1.09-8.14,3-12.59,2.67-2.86-.25-6.06-.72-6-4.44,0-3.22,2.8-4.05,5.54-4C588.34,572.11,597,567.69,606.63,568.28Z"/><path d="M698.28,592.1c.36-2.76.21-5.71,1.17-8.25,4.86-12.94,13.31-14.53,22.36-4.41,1.71,1.9,3.49,3.73,5.2,5.63,4.67,5.2,8.18,10.77,3.48,17.7-4.17,6.15-14.39,8.92-21.24,5.94C702.07,605.57,697.31,600.77,698.28,592.1Zm19.56,11.41a7.31,7.31,0,0,0,8-3.17c2.08-3.14.36-5.84-1.65-8.29-2.74-3.35-5.59-6.61-8.34-9.95-2.36-2.85-4.55-2.53-7,0-4.16,4.24-5.48,9.12-3.53,14.71C707.43,602.76,712.66,603.18,717.84,603.51Z"/><path d="M431.46,474.47c.85,7.19-1.87,12.85-8,16.12-4.9,2.61-16.24-1.34-19.71-7A40.43,40.43,0,0,1,397.38,465c-.21-3.14.94-5.14,4-5.26s3.87,2.36,3.56,4.78c-.75,5.89,2,10.28,5.32,14.67,2.61,3.51,6.07,5.06,10,3.79s5.52-4.76,5.4-9.1c-.13-4.73-1-9.11-3.74-13.05-1.34-1.92-2.82-4.38,0-5.91,3.22-1.73,4.45,1,5.48,3.49C429.66,463.58,432,468.74,431.46,474.47Z"/><path d="M147.43,488.22c-8.84,0-14.87-5.58-14.83-13.84,0-6.7,8.15-17.09,13.14-16.82,8.94.48,20,10.69,19.86,18.4C165.53,481.46,155.57,488.18,147.43,488.22Zm-.76-6.34c5.87-.79,11.19-1.54,13.2-7.13.91-2.53-8.86-10.09-12.51-9.79-5.35.45-8.52,3.65-8.48,9S142.8,481.11,146.67,481.88Z"/><path d="M29.29,474.87c2.84,12.19,7.21,16.9,16.13,17.78,3.27.32,6.4.11,8-3.06s-1.21-4.9-3.23-6.91c-4.89-4.86-9.45-9.86-10.58-17.23-1.32-8.59,8.89-19.7,17.58-18.66A2.94,2.94,0,0,1,59.92,449c.68,2-.62,2.76-2.18,3.24s-3,.78-4.43,1.24c-11,3.49-13.31,11.38-5.72,20.19,2.83,3.28,6,6.23,9.07,9.32A10.6,10.6,0,0,1,58.88,495c-1.7,3.89-6.12,4.22-10.05,3.94-8.51-.61-19.18-9.5-21.25-17.69C27,479,25.79,476.28,29.29,474.87Z"/><path d="M84.92,470.26c0-3.82,0-7.63,0-11.45,0-1.53,0-3.49,1.74-3.78,2.34-.39,2.94,1.72,3,3.51.28,5.84.69,11.7.47,17.54-.2,5.42,2.27,6.64,7,5.88,6.75-1.08,13.59-1.71,20.28-3,3.15-.63,4.48.25,4.55,3.09.07,2.68.4,6.7-3.8,5.78-7.15-1.57-13.54,1.08-20.17,2.36-9.87,1.91-12.67-.06-13.13-9.95-.15-3.3,0-6.62,0-9.93Z"/><path d="M415.19,583.69c-.58,7.67,0,13.41,1.85,19,.91,2.81,2.44,6.14-2.22,7.34-5.21,1.35-5.5-2.75-5.74-5.88-.66-8.89-.16-17.85-2-26.68-.44-2.13-.18-4.93,3.09-5.09,3.07-.16,4.78,1.66,5,4.63C415.33,579.85,415.19,582.67,415.19,583.69Z"/><path d="M656.75,593.51c-.07,4.17-1.43,8.45,3.09,11.74,2.76,2,.67,4.84-1.71,6-2.78,1.41-5.22-.22-6-2.82-.89-2.85-.85-6-1.16-9-.82-7.81-1.66-15.63-2.36-23.46-.2-2.33.13-4.93,3.18-5,2.84-.11,2.72,2.43,3,4.42Z"/><path d="M631.62,452c3.2.63,4.64,3,5.21,5.86,2.09,10.42,1.86,21.31,6.48,31.23.9,1.94-.3,3.45-2.18,4.23-2.33,1-4.06.12-4.86-2.16a19.32,19.32,0,0,1-.74-4.51,122.77,122.77,0,0,0-5.71-29.15C629,455.26,628.24,453,631.62,452Z"/><path d="M789.93,18.28c3.55-.46,7.17-.06,10.63-1.47,2.58-1.06,4.61-.23,5.12,2.76.48,2.76-1.51,3.59-3.62,4-6.28,1.16-12.56,2.4-18.89,3.23-3.11.4-5.59.93-5.9,4.6a9.49,9.49,0,0,0,4.56,9.14c2.91,2,5.37.82,7.6-1.24a37,37,0,0,0,2.53-2.9c1.22-1.39,1.6-4.54,4.37-3,2.94,1.61,1.26,4,.06,5.91a22.63,22.63,0,0,1-7.31,7.79c-7.39,4.52-14.86,1.71-16.23-7a257.27,257.27,0,0,1-2.7-31.39C770,3.56,774,.83,779,1.09c8,.42,15.86,1,23.72-.91C804.25-.2,806,0,806.25,2c.33,2.73-1.13,4.28-3.86,4.73-5.55.91-11.17,1.62-16.62,3-2.35.59-7.26-1.36-6.28,4.2.81,4.53,4,5.54,8.14,4.61A17.74,17.74,0,0,1,789.93,18.28Z"/><path d="M610.1,21c.52,2.8.1,4.54-1,6-8.14,11.27-19.2,17.58-33,18.72-3.27.27-5.86-1.12-7.62-5-4.8-10.59-1.94-22.33-5.76-33-1.07-3,1-5.93,4.89-3.27,2.23,1.54,4.16,1.47,6.47.69,11.86-4,22.07.54,31.69,6.72C609.05,14,611,17.58,610.1,21Zm-25.9-9.23c-6.63-1.06-10.16,2.18-11,8.56-.59,4.52.09,9.38-1.33,13.58-2.18,6.48,1.27,6.27,5.6,6.15,8.06-.21,13.22-6.29,19.62-9.77,3.48-1.89,7.6-4.64,7.34-9.08-.29-4.81-5.24-5.69-9-7.15C591.86,12.67,588.23,11.4,584.2,11.78Z"/><path d="M533,5.64c4.36,0,8.71,0,13.07,0,2.11,0,3.55.78,3.47,3.08s-1.66,2.63-3.74,2.65a190.9,190.9,0,0,0-34.35,3.77c-2.84.56-5.2.85-4.79,4.4.44,3.73,2.66,4.12,6.09,3.64,8.89-1.27,17.85-2,26.77-3.05,1.78-.21,3.91-1.08,4.56,1.26.77,2.72-1.69,3.43-3.6,4a100.21,100.21,0,0,1-25,3.74c-2.33.06-6.08-1.5-5.85,2.5a7.1,7.1,0,0,0,6,6.18c1.64.27,3.47-.55,5.2-1,2.2-.52,5-3.64,6.3.42,1,3.36-2.59,3.81-4.84,4.77-10.11,4.35-14.56,2-19.14-8.15C495,15.72,501,7.21,521.48,5.77c3.84-.27,7.7-.42,11.54-.63Z"/><path d="M514.88,122c.54-4.09-.59-7.55-1-11.1-.27-2.33.3-4.87,3.51-4.84,2.78,0,4.29,1.72,4.22,4.45-.25,9.47-.6,19-.93,28.42-.06,1.82-.12,3.75-2.23,4.47s-3.86-.09-5.23-2a33.56,33.56,0,0,0-4.15-4.54c-8.76-8.58-10.14-8.4-16.32,2a5.22,5.22,0,0,1-.82,1.3c-3.46,3.16-5.34,9.91-10.47,8.91-5.33-1-2.45-7.46-3.47-11.44-1.78-6.89-3.33-13.85-5.23-20.71-.71-2.57-.79-4.94,1.76-5.89,3.36-1.24,3.84,2.14,4.25,4.06,1.3,6,2.1,12.12,3.12,18.18.25,1.5.41,3.27,2.3,3.54s2.46-1.48,3.16-2.82c.94-1.82,1.79-3.68,2.78-5.47,4.81-8.67,8-9.25,15.77-3,2.23,1.8,3.35,6.07,7.23,4.4S513.55,124.14,514.88,122Z"/><path d="M627.24,119.84a42.1,42.1,0,0,1-.74-5.31c0-2.83,1.77-4.2,4.38-4.3s3.78,1.75,3.28,4.06c-1.21,5.62,2.4,6,6.24,5.88,4.62-.17,9.21-.92,13.82-1,5.9-.17,10.18-1.66,9.46-8.82-.27-2.72,1-4.59,3.88-4.52s4.11,2.18,4.21,4.62c.18,4.09,0,8.2-.16,12.29-.29,6.7-2.8,13.44,2.47,19.74,2,2.36-.1,5.45-3.24,6.54-3.38,1.17-4.87-.91-5.21-3.8-.69-5.86-1.32-11.74-1.59-17.64-.2-4.23-1.89-5.28-5.88-4.31s-8.08,1.33-12.12,2c-10.5,1.81-11.15,2.73-9.53,13.22.35,2.28,1.17,5.16-2.13,5.51s-5.23-2.07-5.63-5.15c-.8-6.29-1.3-12.62-1.92-18.94Z"/><path d="M309.76,141.89c-5.74,5.3-11.61,9.37-19.27,7.09-7.28-2.17-8.23-9-9.47-15.42s-.54-13.25-2.55-19.68c-1-3.18,1-5.42,3.74-5.45,12.07-.12,23.83-3.91,36-2.76,2.21.2,6.27-1,5.84,2.84-.33,3-3.95,2.3-6.5,2.18-8.82-.42-17.38,1.27-25.94,3.12-2.48.54-5,1.45-4.68,4.08.45,3.61,3.58,2.61,6.13,2.42,7.93-.6,15.75-3.28,23.89-1.51-6.92,4.12-14.68,5.06-22.22,6.73-3.34.74-8.29.1-6.75,5.75,1.33,4.86.06,11.86,8.94,11.84C301.07,143.12,304.63,138.76,309.76,141.89Z"/><path d="M120.22,124.06c-.2-2.56-.77-5.16-.54-7.68.29-3.1,1.3-6.28,5.1-6.76,9.65-1.21,19.33-2.27,29-3.3,2.27-.24,5.26-.6,5.59,2.48.37,3.42-2.83,2.89-5,3.19-7.37,1-14.76,2-22.11,3.11-2.72.42-6.34.81-5.37,4.86.87,3.63,4.3,2.28,6.53,1.77,7-1.61,14-3.43,21.2-3.5,2.17,0,6-.71,6,2.93-.05,2.87-3.52,2.89-5.59,2.52-7.87-1.38-14.2,3.88-21.56,4.65-3.63.38-7.83,1.63-5.74,6.75,1.71,4.2,4,9,10,7,2.72-.88,5.93-3.23,7.12.38,1.3,4-3.4,4.56-5.94,5.54a12.7,12.7,0,0,1-16.37-7.32C120.37,135.4,120.06,129.75,120.22,124.06Z"/><path d="M59.22,26.67c.09-5.13.32-10.24-.88-15.34-.65-2.79-.58-6.44,3.13-6.64,3.16-.18,3.44,3.43,3.69,5.87,1.11,10.71,1.45,10.89,11.89,8.32,3.94-1,8.21-2.08,12.09-1.5,6.31.95,7.42-1.47,6.22-6.76-.52-2.29-1.22-5,1.9-5.74,3.64-.83,3.94,2.41,4.56,4.85a51.51,51.51,0,0,1,1.23,14.55c-.14,3.76-.87,7.46,1.83,11.06,2,2.66.59,5.62-2.71,6.66s-4.47-1.54-5.36-4.07a8.31,8.31,0,0,1-.21-1.52C94.34,21,93.22,20.22,78.08,24.51c-1.22.35-2.31,1.4-3.52,1.5-8.35.7-11.51,4.65-8.38,12.81a6.91,6.91,0,0,1,.32,1.5c.34,2.11-.55,3.6-2.57,4.08-2.52.61-3.78-.84-4.36-3.15C58.37,36.41,59,31.53,59.22,26.67Z"/><path d="M435.09,31c-.53-4.17.35-8.38-1.8-12.21-1.56-2.77-.36-5.49.54-8.18.52-1.55,1.31-2.88,3-3.1,2-.26,3.25.81,4.19,2.64,5.05,9.9,15,14.37,23.3,20.63,3.1,2.34,5.24,1.37,6.16-2.33,1.23-4.95,2.93-9.84,2.05-15.1-.5-3-.13-6.44,3.47-6.46,4.74,0,3.78,4.06,3.22,7-1.51,7.77-3.3,15.48-5,23.21-.79,3.53-2.64,4.85-6.09,2.82-7-4.15-14.29-8-21.07-12.49-4-2.68-5.47-2.26-5.58,2.49,0,2.06-.11,4.11-.05,6.16.09,3.06-.6,6.49-4,6.26-3.67-.25-3-4.08-2.89-6.84C434.66,33.94,434.93,32.41,435.09,31Z"/><path d="M67,133.38c.52,2.74.1,5.64,2,8.09,1.5,1.9.85,3.91-.64,5.61-1.07,1.23-2.46,2-4.1,1.45-2.3-.83-2.56-2.85-2.77-5-1.07-11.21-.38-22.36.93-33.5.27-2.34,1.57-4,4-3.61s2,2.72,1.87,4.4c-.18,2-1,4-1.23,6-.24,2.53,1,4.41,3.63,3,5.07-2.69,10.13-.74,15.16-.48,4,.2,7.31.48,6.87-5.22-.19-2.6.87-5.62,4.19-5.26,3.5.38,1.54,3.66,2,5.66,2.36,9.41-.66,19.6,4.21,28.68,1.06,2-.44,3.47-2.25,4.19-2.27.9-4.14.19-4.92-2.2-1-3.16-2-6.35-1.6-9.8.79-7.37-1.08-11.55-10-10.62-5.16.54-9.82,2.67-15,3C66.41,128,66.89,131.07,67,133.38Z"/><path d="M802.76,123.2c-6.45,5.47,0,8.72,2.39,13.11,1.06,2,2.38,5.91-1.16,7.39-3.32,1.38-4.15-2-5.31-4.19a33.51,33.51,0,0,0-1.68-3.46c-2-2.92-2.1-8.73-7.4-7.2s-12.33,1-14.38,8.45a18.64,18.64,0,0,1-1.09,2.89c-1.5,3.22-2.81,7.84-7.42,5.63s-1.18-5.58.41-8.33c.25-.44,1-1,.87-1.21-4.25-11.18,10.74-13.51,10.68-23.64,0-5.14,6.35-5.06,10-1,3.43,3.79,5.06,9.73,12.12,8.36C802,119.74,802.8,121.34,802.76,123.2Z"/><path d="M343.19,151.86c-4.42-.45-9.11-.66-12.75-4.09-1.57-1.48-2.93-3.33-1.14-5.32s3.28-.88,5.07.78c3.38,3.13,19.44,2.73,23.24-.23,2.44-1.91,2.85-3.68-.53-4.94a17,17,0,0,1-9.33-8.6,18,18,0,0,1,13-26c1.74-.28,3.92-.86,4.19,1.8.37,3.75-1,6.55-5.1,7.34-7.35,1.44-9.48,6.15-6.58,12.45,3,6.55,8.74,10.52,15.87,11.88,2.67.5,6.66-.56,6.51,3.24a7.84,7.84,0,0,1-5.69,7.44,91.46,91.46,0,0,1-9.71,2.35C354.64,150.78,349,151.24,343.19,151.86Z"/><path d="M143.63,42.27c-1.4,3.76-3.65,7-8,6.95a10.83,10.83,0,0,1-10.42-6.69C121,33.06,119,23,118.05,12.82c-.48-5.16,3.2-7.55,7.6-8A145.58,145.58,0,0,0,146.8.54C148.93,0,151-.82,151.74,2.09s-.89,4.49-3.38,5.11c-6,1.48-12,2.71-18.05,4.11-2.16.51-5.26.59-4.79,3.75.44,2.94,3.27,2.82,5.61,2.43,4.29-.71,8.55-1.61,12.84-2.31,1.63-.26,3.84-1.28,4.48,1.3.53,2.13-1.11,3.34-2.89,3.94-4.13,1.38-8.24,3.1-12.51,3.74-5.2.78-6.68,3.27-5.08,7.88,1.69,4.9,2.05,11.27,9.72,10.63C139.59,42.51,141.28,40.37,143.63,42.27Z"/><path d="M406.63,20.13a9.5,9.5,0,0,1-.22-2c.5-3.6-1.07-9.65,3.52-9.68,5.94-.05,2.61,5.84,2.73,9.14.22,5.64-.06,11.3-.27,16.95-.23,6.43-1.62,7-7.31,3.55s-11.46-6.86-17.33-10c-4-2.14-6.66-1.5-5.73,3.86.31,1.8.7,3.53,0,5.3s-1.29,3.6-3.52,3.52c-1.91-.06-2.56-1.89-2.68-3.31-.63-7.13-1.46-14.29-1.34-21.43.06-3.81,2.73-6.86,6.55-2.95,4.72,4.82,10.39,8.19,15.88,11.84,2.59,1.73,5.15,5.49,8.69,3.36C408.76,26.35,406.64,22.62,406.63,20.13Z"/><path d="M348.33,22.78c-5.54,4.35-5.55,8.08-1.44,11.92,2.81,2.62,1,4.78-1.07,6.33-2.94,2.18-4.64.09-5.92-2.43-.11-.22-.06-.52-.18-.74-1.86-3.41-.79-9.47-5.76-9.86-5.91-.47-11.33,2.73-15.52,7-2.08,2.12-3.77,5-6.74,2.39-2.58-2.25-1-4.6.81-7.26a174.13,174.13,0,0,0,9.63-17.34c3.57-6.95,6.3-7.17,11.93-1.48C338.23,15.53,338,24.52,348.33,22.78Z"/><path d="M18.8,150.5c-5.18.7-10.12-2.3-15.12-4.88-3.88-2-4.42-5.3-2.89-9.21.79-2,1.61-4.28,4.12-3.69,2.91.69.67,2.87.67,4.41,0,5.27,4.2,6,7.87,6.74,2.44.5,5.11,0,7.66-.24,3.11-.3,6.67-.69,7.88-3.88,1.39-3.63-2.68-4.31-4.59-6.1-.94-.87-2-1.65-2.91-2.52-5.49-5-8.3-11.2-7.14-18.55.5-3.15,15.37-8.61,20.12-8.07,1.65.19,3.2.51,3.33,2.42S36.57,109.61,35,110L24.5,112.63c-5,1.25-5.33,4.84-3,8.22A60.47,60.47,0,0,0,31.2,131.6c2.1,1.88,6.92,1.67,6.05,5.66-1,4.6-2.27,9.58-7.79,11.6A30.78,30.78,0,0,1,18.8,150.5Z"/><path d="M597,137.31c-.47-4.34-.84-8.69-1.43-13-1.32-9.64-2-10.18-11.81-8.63-4,.64-8,1.82-12,2.48-2.43.4-4.81-.2-5.43-3.06s1.51-4.54,3.77-4.94c10.81-1.91,21.63-3.79,32.51-5.09,4-.49,6.3,3.67,3.42,5.85-5,3.76-3.6,8-3.23,12.39.56,6.67,1.26,13.33,1.82,20,.24,2.86.55,6.49-3.19,6.75s-4.82-3.1-4.77-6.52c0-2.06,0-4.12,0-6.18Z"/><path d="M236.58.33c1.54,0,3.07,0,4.61,0,2,0,3.58.68,3.79,2.92.25,2.59-1.65,2.6-3.49,3-12.21,2.4-13.81,6.37-6.7,17,2.27,3.39,5,6.47,7.53,9.71,3.5,4.52,2.86,10.28-1.86,13.19-12.37,7.63-26-1.29-29.56-12.24a6.87,6.87,0,0,1,.66-6c.95-1.39,2.31-2.21,3.93-1.59,1.37.52,1.35,1.91,1.34,3.25a12.74,12.74,0,0,0,16.08,12.29c2.1-.51,3.92-1.46,4.52-3.69a5.25,5.25,0,0,0-2.39-6c-6.47-4.37-8.38-11.59-10.23-18.26C222.26,4.69,227.1-.32,236.58.33Z"/><path d="M706.62,29.81c-.28-4.2-.88-10.06.49-15.88.36-1.52.44-3.14,2.34-3.49,1.24-.22,1.62.89,2.24,1.7,4.68,6.11,19.68,4.88,23-1.89.74-1.51.4-3.92,3-3.67,2.13.2,2.57,2.31,3.47,3.8,2.58,4.29,2.14,9,1.15,13.48-.94,4.33-.76,8.15,2.38,11.49,1.5,1.6,2.64,3.22,1.15,5.43a4.18,4.18,0,0,1-4,1.87c-2.65-.14-4.44-1.53-4.85-4.12-.56-3.55-1.46-7.21-1.06-10.7.79-6.91-2.28-8.2-8.1-6.78a21.28,21.28,0,0,1-3.83.42c-12.08.75-12,.75-12,12.48,0,2.48,1.9,6.71-2.35,6.87-4.89.18-3-4.23-3.08-7C706.6,33,706.62,32.24,706.62,29.81Z"/><path d="M37.9,37.32c.2,6.69-3.21,10.15-9.46,9.57-7.58-.7-13.51-4.52-18.06-10.52-1.65-2.17-3-5.07-.29-6.76,3-1.9,3.55,1.66,4.46,3.51,2,4.14,6,5.41,9.84,6.81a3.8,3.8,0,0,0,4.67-1.79c1.22-1.91.43-3.51-1.25-4.6-5.58-3.6-7.32-9.7-10-15.17-2.16-4.34-1-8.21,2.59-11,5.93-4.67,12.83-6,20.21-4.52,1.45.29,3.3.54,3.21,2.61S42,7.69,40.45,7.88c-3.82.45-7.69.67-11.46,1.4-5.77,1.13-7.16,5-4.41,9.7s4.7,10.38,10.34,13A5,5,0,0,1,37.9,37.32Z"/><path d="M675.19,10c-4.33-2.53-8.09,2.43-12.73,2-2.32-.21-5,.53-4.87-3,.1-2.59,1.55-3.73,4.5-4,11.71-1.1,23.39-2.5,35-4.09,2.89-.39,4.48.1,5,3,.44,2.55.06,4.9-3.08,5-5.95.22-6.65,3.58-6.66,8.71,0,8.86-4.15,17.42-2,26.59.39,1.73-1.39,4.17-3.72,4.2-3,0-3.32-2.46-3.51-4.94-.45-5.92,3.63-11.06,2.78-17.06-.21-1.48.41-3.05.49-4.58C686.88,11.49,686,10.52,675.19,10Z"/><path d="M260.94,25.65c-.33-12.38,5.52-19.55,15.32-19.78,4.95-.12,6.79,2.68,8.61,6.22.91,1.76,1.23,3.49-.44,4.87-1.42,1.16-2.92.59-4.2-.46-3.2-2.63-6.77-4.36-10.46-1.51-4.85,3.75-3.56,9.65-3,14.38.47,3.94,4.5,6.76,8.9,7.37,4.86.68,9.66.79,14-2.31a99.94,99.94,0,0,1,9.35-5.34c1.28-.71,2.64-.68,3.16.8a3.08,3.08,0,0,1-.57,2.76C294.52,38.68,286.74,44,277,43.3,266.37,42.58,261.23,36.34,260.94,25.65Z"/><path d="M233.1,113.62c3.7.3,4.85,2.38,6.12,4.3,2.69,4,5.38,8,8,12.11,1.14,1.75,2.19,3.54,4.67,3.4,3-.17,2.6-2.65,3.14-4.51,1.54-5.42,3.18-10.8,4.62-16.24.49-1.86.73-3.79,3.28-3,1.91.61,3.28,2.53,2.46,4.18-4.68,9.42-4.15,20.49-9.63,29.65-1.53,2.56-3.46,2.47-5,1-7.78-7.38-14.06-16.08-20.42-24.64C228.05,116.78,230.35,114.28,233.1,113.62Z"/><path d="M188.23,126.22c.2-4.34.19-8.71.7-13,.23-1.93,1.34-4.25,4-3.73,2.27.44,1.92,2.52,1.94,4.37,0,5.65.42,11.28.45,16.92,0,4.47,2,6.8,6.5,6.55,5.78-.32,11.72,1.36,17.24-2.22,1.9-1.23,5.4-2,6.13,1.75a4.65,4.65,0,0,1-3.88,5.75c-6,1.11-12.06,2.38-18.14,2.93-10.93,1-14.75-2.83-14.73-13.91v-5.4Z"/><path d="M542.9,130.28c-.52-4.83-1.13-9.65-1.52-14.5-.2-2.43-1.1-6,2.1-6.51,4-.68,3.88,3.43,4.24,6,.54,3.79.38,7.67.58,11.51.22,4-.62,8.06,1.7,12a4.78,4.78,0,0,1-2.68,7c-3.78,1-4.4-2.61-4.61-5.42-.24-3.31-.05-6.65-.05-10Z"/><path d="M679.25,993.62c-11.5.62-20.61-3.23-29.4-10.22S629.92,972.08,621.07,965c-9.23-7.37-11.07-1.26-12.6,5.47-1.41,6.2-1.53,12.69-2.32,19-.56,4.49-2.1,8.44-7.72,7.08-4.61-1.11-6.81-4.38-5.9-9.31.16-.9.22-1.83.33-2.74,1.89-14.72,2.87-29.12-7.09-42.07-2.47-3.2-4.93-9,1-11.84,5.58-2.66,9.78,0,11.5,5.92,2.6,9,7.3,11.89,14,3.91,11.56-13.69,27.52-17.06,43.83-19.83,4.79-.82,10.72-3.42,13.77,2.16a15.11,15.11,0,0,1-.59,15.74c-4.89,7.09-7.94,15.68-15.69,20.59-6.55,4.16-4.75,8.15.54,11.45,12.54,7.84,25.12,16.14,40.71,7.38,3.08-1.74,6.61-2.51,8.37.95,1.55,3-.48,6.2-3,8.51C694.19,993.07,687.2,995.77,679.25,993.62Zm-32.73-62.19c-11-.62-19.15,4.7-21.17,14.71-1.05,5.23,6.89,7.63,12.4,7.88,6.48.31,19.2-11.7,18.9-17.48C656.28,929.2,650.7,931.55,646.52,931.43Z"/><path d="M537.58,918c3.7.33,4.17.31,4.61.42,5.39,1.29,15.18-4.88,15,5.51-.1,8.78-9.3,4-14.55,5-8.09,1.54-16.18,3.07-24.22,4.82-3.76.83-7.39,2.61-6.5,7.29.86,4.5,5,5.34,8.66,5,7.73-.79,15.37-2.32,23.08-3.34,4.14-.54,9.23-.91,9.81,4.53.55,5.11-4.58,5.21-8,5.08-9.82-.37-18,5.43-27.83,6.19-10.66.83-5.41,9-3.53,14.79,2.27,7,5.08,14.08,14.25,8.61,4.2-2.5,8.23-6.33,11.43-.91,3.35,5.65-.14,10-5.79,13.17-15.84,8.78-25.58,4.62-31.16-12.55-2.85-8.79-1.36-19.6-13.3-24.79-5.36-2.33-3.15-8.84,3.67-10.53,2.31-.58,4.71-1.1,5-3.86.35-3.79-2.68-4.15-5.41-4.64-4.11-.74-6.9-2.84-6.38-7.37a5.49,5.49,0,0,1,5.57-5.12C508.6,925.12,524,916.94,537.58,918Z"/><path d="M742,952.57c7.27-.9,14.53-1.76,21.79-2.72,3-.39,5.78-.1,6.8,3,1.14,3.53-2.25,4.16-4.25,5.9-8.16,7.07-18.43,4.36-27.64,6.41-3.4.76-8-.85-9.64,3.56-1.8,5,2.14,8.73,4.41,12.41,2.72,4.41,7.33,2.71,11.22,1.22,2.52-1,4.71-2.88,7.26-3.69,2.39-.76,4.31.72,5.69,2.82s1.17,4.08-.54,6.13c-12.07,14.43-31.3,11.75-38-5.55-5.81-15-8-30.77-9.84-46.64-.76-6.4,1-9.45,7.55-10.13,17.34-1.84,34.63-4,52-5.88,5.77-.61,12.21-.14,11.79,7.57-.36,6.6-6.57,4.29-10.88,4.72-12.74,1.29-25.46,2.79-38.17,4.39-4.89.62-11,.53-10,8.14.87,7.19,6,8.31,12.18,7.72,2.73-.26,5.51,0,8.26,0Z"/><path d="M399.63,973.58c.28,5,.6,8.16.63,11.36,0,5.35-3.16,7.16-8,7s-6.76-3.59-5.41-7.48c5.5-15.87-4.29-29.95-5-45.09-.17-3.59-2.71-7.37,1.77-9.24,5-2.07,9.8-.13,10.71,5.24,1.76,10.48,8.5,10,16.33,9.13,6.81-.8,13.71-.93,20.57-1.34,8.7-.53,17.3-1,14.77-13.77-.61-3.05,1-5.42,4.33-5.82,4.29-.52,7.77,1.69,8.09,5.68,1.46,18.21,3.37,36.33,6.3,54.37a7.88,7.88,0,0,1-6.72,9.09c-5.83.94-6.68-4.29-7.37-8a213.65,213.65,0,0,1-2.48-21.76c-.62-7.59-4.23-10.44-11.84-9a216.19,216.19,0,0,1-23.06,3.29C401.53,958.15,395,962.41,399.63,973.58Z"/><path d="M318.65,918.44c11-.65,22,.1,32.79-2.82,5.77-1.56,10.17.38,11.84,6.2,1.82,6.33-2.34,7.85-7.57,8.34-6.26.59-6.76,5.19-6.46,10.08.9,14.56-3.78,29.07-.2,43.74.64,2.59-1.64,6-2.76,8.9-1.57,4.1-2.2,10-8.8,7.78-5.46-1.79-5.23-6.8-4.75-11.53,1.3-12.74,3.16-25.46,3.73-38.24.83-18.46.43-18.47-18.43-19.46-5.94-.31-11.9-.44-17.81-1-5.44-.54-10.28-3-10-9.12.36-7.63,6.7-4.3,10.61-4.29C306.78,917,312.71,917.92,318.65,918.44Z"/><path d="M804.86,999.65c-.47,6.07-3,9.2-7.75,8.79-5.34-.45-7.57-4.56-7.56-9.57,0-5.59,3.2-10.71,8.32-10.63C805.56,988.36,800,997.83,804.86,999.65Z"/><path d="M544.71,1069.89c-.57,6.37-2.82,11.22-8.41,13.48-5.29,2.13-4.17,4-.43,6.53,5,3.4,9.84,6.44,15.89,2.2a2.89,2.89,0,0,1,4.38.78c1.11,2-.77,3-2,3.93-7.6,5.78-15.74,4.34-25.38-4.35-2.31-2.08-4.78-4-7.23-5.89-2.84-2.24-4.45-1.32-5.16,2-.5,2.43-1.13,4.83-1.77,7.22-.39,1.43-1,2.94-2.89,2.49-1.58-.38-2.81-1.74-2.27-3.23,2.72-7.52,1.11-14.67-1.21-21.89a3.23,3.23,0,0,1,2.33-3.93c2-.67,2.48.71,3,2.2,1.21,3.66,2.85,3,5.44,1a31,31,0,0,1,21.55-6.52C543.73,1066.11,545.12,1067.25,544.71,1069.89Zm-16.1,9.54a17.14,17.14,0,0,0,8.76-3c1.84-1.25,2.75-3.12,1.73-5.36s-3-2-4.8-1.5a54.54,54.54,0,0,0-7,2.43c-2,.86-5,1.57-4.64,4.2C523.1,1079.17,526.34,1078.92,528.61,1079.43Z"/><path d="M284.12,1087.05a46.07,46.07,0,0,0-1.69-11.09c-.66-2.54-1-5.38,1.86-6.48s6.12-1.55,8.47,1.45c2.55,3.26,5.11,6.51,7.5,9.88,1.62,2.29,3.69,3.65,6.35,2.75,7.36-2.48,14.4-5.53,17.59-13.48.68-1.68.74-3.95,3.4-3.63s2.93,2.39,3.5,4.49c1.77,6.47,1.34,13.52,6.22,19.2,1.92,2.24-.84,4.73-3.08,5.77-2.47,1.14-4.07-.68-4.47-2.91-.61-3.46-.79-7-1.16-10.51-.43-4-2.06-5.3-5.58-2.48a93,93,0,0,1-13.67,9.44c-5.95,3.26-9.76,1-13.19-3.83-1-1.38-1.62-3.93-4.05-3-2.07.8-1.76,3-1.87,4.9-.17,3.08.31,6.24-1.16,9.18-.72,1.45-.88,3.49-3.23,2.89-1.9-.49-2.58-2.16-2.52-3.87C283.44,1092.82,283.84,1089.94,284.12,1087.05Z"/><path d="M637,1098.92a12.3,12.3,0,0,0-2.51-13.2c-1-1.11-1.8-3.12-.76-4,5.3-4.51,2.75-10.21,2.77-15.53,0-2.07-.37-4.49,1.93-5.43,2.46-1,2.1,1.84,3.07,2.91,1.55,1.67,3.07.42,4.5-.22,9.23-4.11,13.93-3.88,17.23.91,4.27,6.2,3.13,15.43-2.51,21.66-3.9,4.29-8.35,6.77-14.31,5.13-4-1.11-4.82.78-4.11,4.24a15,15,0,0,1,.43,3.7c-.11,2.35.77,6-2.4,6.15C636.71,1105.35,637.62,1101.41,637,1098.92Zm23.67-25.51c-.07-2.18-.43-4.89-3.42-6.13s-5.78-1.09-8.16,1a20.25,20.25,0,0,0-6.7,14.23c-.18,2.51.64,3.9,3.28,4.22C652.56,1087.62,660.56,1080.89,660.64,1073.41Z"/><path d="M766.69,1064.42c5.95-.83,11.87-1.85,17.84-2.36,1.67-.15,4.78-1.81,5.19,1.26.33,2.43-2.11,3.7-4.58,4.21-5.23,1.08-10.42,2.38-15.67,3.37-2,.39-3.94.83-3.63,3.24s2.6,2.42,4.43,2.14c4.92-.75,9.82-1.66,14.71-2.57,1.65-.3,3.54-1,4.3,1.08,1,2.56-1.21,3.15-3,3.65-5.37,1.46-10.51,4-16.16,4.17-3.55.14-4.32,2.08-3.73,4.91a28.7,28.7,0,0,0,2.22,6.46c2.49,5.24,4.68,5.43,8.49,1,1.38-1.6,2.76-4.64,5.3-2.14s.35,4.48-1.71,6.15c-.81.65-1.55,1.38-2.35,2-6.91,5.77-13.27,3.7-14.91-5.16-.87-4.68-3.18-9.35-3.34-13.59a147.78,147.78,0,0,1,.17-16.83C760.5,1062.13,764.43,1064.56,766.69,1064.42Z"/><path d="M494.21,1079.41c-.41,1.56-1.22,1.53-2.07,1.61-8.26.79-9.09,2.34-5.15,9.16a13.46,13.46,0,0,1,1.76,4.56c.25,1.59.16,3.65-1.65,4.31-2.31.84-3.29-1.07-4.05-2.83-.65-1.53-1-3.2-1.78-4.64-1.57-2.86-1.17-8-6.06-7.36s-10.63.43-12.5,7.09c-.64,2.3-2.34,4.34-3.71,6.41-.84,1.27-2.06,2.11-3.69,1.23s-1.69-2.26-1-3.72c2.86-6.43,1.09-13.81,4.28-20.23,1.19-2.38,1.53-5.4,4.75-2.26,4.32,4.21,4,.1,4.35-2.34.56-4.2,2.86-4.37,5.55-2.3C485.11,1077.28,485.06,1077.34,494.21,1079.41Z"/><path d="M120.61,1094.44c2.24-2.55,1.09-7.17,4.29-10.76,2.86-3.19,3.79-8,4.09-12.69.13-2.08.6-5.14,2.75-5.86,2.52-.85,3.75,2,5.15,3.71a13.47,13.47,0,0,1,2.52,3.51c2.22,6.28,5.32,11.14,13.17,10,1.34-.2,2.56.55,2.24,2.17-.29,1.41-1.6,1.69-2.89,1.88-6.86,1-7.36,1.81-3.16,6.54,2,2.22,2.36,4.23,1.48,6.74a2.17,2.17,0,0,1-2.49,1.44c-2.68-.52-3.27-3-4.16-5-3.25-7.29-7.93-9.28-13.21-5.5-2.22,1.59-2.77,4-3.6,6.35-.69,2-1.26,4.47-4.07,3.41C120.72,1099.58,119.47,1097.77,120.61,1094.44Z"/><path d="M704,1083.47c0-3.94,0-7.89,0-11.84a2.93,2.93,0,0,1,1.7-3.05,2.1,2.1,0,0,1,2.67.88c5.9,7.85,15,11.48,22.57,17.2,2.14,1.63,4.69,4.18,7.78,1.84s3.44-5.83,2.68-9.56c-.47-2.26-4-5.57-.38-6.68,4.53-1.38,5,3.42,5.28,6.55.43,5.33.6,10.67-3.6,15.18-3.55,3.82-7.11,4.35-10.73.87-4.74-4.55-11-6.62-16.21-10.3-3.27-2.3-6-2.21-5.66,3a7.37,7.37,0,0,1,.12,1.86c-.58,3.13-.52,8-4,7.93-4.47-.06-1.31-4.6-1.84-7.1a54.71,54.71,0,0,1-.64-6.81Z"/><path d="M234.13,1090.93c-1-3.08,0-5.65,3-7.6a4.05,4.05,0,0,0,1.55-3.2c-.87-8,6.12-8.83,10.62-11.77,1.62-1.06,3.3,0,4.72,1.7,3.4,4.1,6.44,8.55,9.71,12.67,2.1,2.66,3.43,7.87,3.64,12.28a2.7,2.7,0,0,1-2.34,3.14,2.81,2.81,0,0,1-3-1.66,11.53,11.53,0,0,1-.54-1.12c-1.77-4.12-1.35-11-9.24-7.5-4.32,1.93-10.19,1.11-12.39,6.93-.59,1.56-1.61,3.26-3.62,2.62C233,1096.4,233.49,1093.76,234.13,1090.93Zm15.64-6.74c1.89-.36,4.39-.28,4.13-3.22a3.29,3.29,0,0,0-3.75-3.24,4.54,4.54,0,0,0-3.92,4.19C245.91,1084.4,248.17,1083.93,249.77,1084.19Z"/><path d="M214.07,1079.32h9.34c1.18,0,2.71-.54,3,1.21s-1,2.12-2.34,2.24c-6.31.56-12.19,3.63-18.77,2.94-3.07-.33-5.14,1.15-4.39,5a16.78,16.78,0,0,1-.23,5.55c-.23,1.53,0,3.73-2.36,3.75s-3.1-1.75-3.07-3.85c.07-4.82,1.95-10-3-13.73,4.38-5.51.85-7.61-3.81-9.85-1.41-.68-.58-3,1.3-3.91,7.83-3.56,16.2-2.2,24.35-2.42,2.59-.07,3.26,3,2.77,5.4s-2.37,2.78-4.42,2.25c-3-.78-6-1.92-9.16-1.42-2,.3-3.78,1-3.83,3.36,0,2.6,1.74,3.67,4.06,3.74,3.53.11,7.06,0,10.59,0Z"/><path d="M618.75,1064.92c1.08,0,4.07,0,4,3.43,0,3.07-3,2-4.85,2.33-3.73.66-8.42-.07-9.64,5-1.4,5.76,2.42,9.65,6.4,12.43,3.46,2.43,6.14,4.57,4.16,8.82-1.84,4-5.75,4.18-9.62,3.88a20.45,20.45,0,0,1-14.51-7.46c-1.31-1.55-2.6-3.27-2.49-5.53.1-1.9.18-4.08,2.57-4.28,2.23-.19,2.37,1.87,2.54,3.53.62,6,5.19,6.79,9.84,7.45,1.29.18,2.56,0,3.2-1.33.73-1.49-.53-2.14-1.4-3-1.59-1.59-3.46-3.09-4.52-5C598.44,1074.16,604.53,1064.67,618.75,1064.92Z"/><path d="M390.09,1079.3c-.17,3.31-.2,6.64-.55,9.93-.44,4.17,1.72,5.17,5.24,4.64,4-.61,7.45-2.48,10.77-4.62,1.78-1.15,3.49-1.69,4.88.27a3.15,3.15,0,0,1-1,4.86c-6,3.53-12.22,6.86-19.43,6.93-3.71,0-5.81-2.13-5.47-6,.74-8.47,1.38-16.93.85-25.45-.14-2.22.26-5.31,3.2-5.05s1.57,3.28,1.65,5.15c.13,3.1,0,6.21,0,9.32Z"/><path d="M352.31,1071.81c-.1-2.39.82-3.84,3.05-4.09,2-.23,3.05,1.11,3.39,2.87,1.55,8.06,1.78,16.37,4.76,24.16a2.64,2.64,0,0,1-2.36,3.63c-3.09.41-4.57-1.75-5-4.32-.85-4.87-1.25-9.81-2-14.69C353.7,1076.75,352.89,1074.2,352.31,1071.81Z"/><path d="M436.21,1093.86c-.25,2.92-.3,5.4-3,5.63-3.11.27-2.52-2.52-3-4.44-1.78-7.78-.59-16.15-5.05-23.44-1.13-1.85-.24-4.11,2.35-4.84s3.14,1.22,3.77,3C434.19,1077.85,432.93,1086.69,436.21,1093.86Z"/><path d="M678.34,1086.56c1.06-4.6.41-9.12-.38-13.64-.43-2.44-.15-5,2.64-5.48s3.31,2.37,3.36,4.29c.21,7.85.19,15.71,0,23.56a2.94,2.94,0,0,1-3.21,3.1c-1.76-.13-2.39-1.55-2.43-3.11C678.29,1092.38,678.34,1089.47,678.34,1086.56Z"/><path d="M806.07,1100.45c-.94,1.73,1.55,5.36-2.6,5.33-3.16,0-4.21-3.2-4.53-5.78s1.93-3.07,4.31-3.32C807.27,1096.24,806.21,1098.52,806.07,1100.45Z"/><path d="M321.13,1418.66c.16,10.37-7.25,19.85-17.63,20.64-7.25.56-7.76,3.28-6.19,9.26,1.2,4.61,1.24,9.56,1.45,14.37.08,1.93-.32,4.43-2.72,4.92-2.67.55-3.46-2-4-3.78-1.8-6.79-2.4-14-5.16-20.39-4.72-10.89.07-21.91-1.81-32.72-.56-3.22,1-5.29,4.35-3.89,3.91,1.64,6.74-.27,10-1.65C310.13,1401,321,1407.69,321.13,1418.66Zm-27.84,6.47c.83,2.9-2.06,8.41,4.61,8.55,7.37.16,15.69-7.08,16.72-14.14.48-3.31-.37-6.13-3.84-7.35C302.75,1409.37,293.35,1416.11,293.29,1425.13Z"/><path d="M543.57,1411.61c2.19,1.93,7.69-2.25,7.7,3,0,4.44-5,3.64-8,3.34-7.58-.75-14.29,3.32-21.67,3.38a2.87,2.87,0,0,0-3.09,3.48c.33,2.12,2.06,2.67,4,2.55a167.81,167.81,0,0,0,24-3.5c2-.41,5.12-2.12,6,.89s-2.67,3.23-4.58,3.76c-7.27,2-14.65,3.67-22,5.6-2.84.75-6.73,1-7,4.71-.31,4.2-.38,8.87,3.81,11.73,3.36,2.28,6.17,1.16,8.62-1.81a2.86,2.86,0,0,1,4.63-.24c2.13,2.06.87,3.86-.9,5-4.22,2.79-7.43,8.78-13.67,6.09-5.89-2.54-8.19-8.08-8.65-14.19-.38-5.06-.35-10.16-.37-15.24,0-2.57-.2-4.89-1.77-7.19-3.83-5.61-2.93-8,3.77-8.85C524.06,1413,533.7,1412.46,543.57,1411.61Z"/><path d="M578.38,1458.33c-3.39-.39-8.47.73-4.47-5.92,2-3.25-.27-7-1.26-10.22-2.11-6.77-1.09-14.12-4.45-20.65-1.16-2.27.59-4.36,2.77-5.55,10.37-5.67,28.15-1.56,35,8.07,6.2,8.65,2.43,23.39-8.2,28.68C591.89,1455.68,585.8,1459.51,578.38,1458.33Zm9.9-36.36c-10.66-.57-11.91.81-10.51,9.42.49,3,.62,6.3,2,8.83,2.11,3.78-3.18,10.69,3.32,11.33,4,.39,8.55-3.78,12.82-6a6.27,6.27,0,0,0,1.84-1.34c3.53-3.91,5.94-8.38,4.58-13.75-1.28-5-5.8-6.76-10.19-8.13A11.55,11.55,0,0,0,588.28,1422Z"/><path d="M177.94,1427.29c-1.3-12.36,8.07-14.78,16.12-13.78,3.89.49,7.08,3.22,6,7.26-1.18,4.58-4.28,1.06-6.56.37-6-1.78-10.63,1.44-9.65,7.53.77,4.79-1.09,11.92,4.05,13.75,4.52,1.6,7.14-5,10.59-8,4.8-4.18,9-10.84,16.71-6.6,4.08,2.24,3.58,13.57-1.15,19.79-4,5.22-7.66,12.41-16,10.81-8-1.55-14.24-5.76-16.83-14.45C179.59,1438.34,177.64,1432.9,177.94,1427.29Zm20.48,25.15c6.07.49,12.43-5.35,13.91-12.74.29-1.46,1.12-3.06-.44-4.16s-2.95-.37-4.16.65q-6.09,5.1-12.07,10.33c-1.19,1-1.88,2.41-1.07,4S196.84,1452.44,198.42,1452.44Z"/><path d="M109.16,1426.92c.6-2.76-.65-5.68,2.16-6.66,2.5-.88,4.29,1.15,5.69,2.92,6.6,8.4,17.43,11.13,24.78,18.54a4.21,4.21,0,0,0,3.41.92c1.94-.5,1.58-2.4,1.23-3.81-1.22-4.86-.5-10.12-3.42-14.67-1.14-1.79-2-4.68,1.13-5.71s4.54,1.12,5,4c1.16,8.27,2.43,16.53,3.47,24.81.28,2.26.11,5-2.14,6.13-2.47,1.24-4.39-1-5.86-2.55-6.25-6.49-14.87-9.51-21.67-15.17-1.41-1.18-3-2.23-4.75-.87-1.32,1.06-.93,2.79-.71,4.29.42,2.94,2.46,5.73.8,8.84-.76,1.42-.34,3.87-2.93,3.78-2.25-.08-2.88-1.81-3.15-3.65C111.1,1440.83,110.1,1433.57,109.16,1426.92Z"/><path d="M39.27,1413.39c-5.39.18-9.82-.27-12.56,3.34-3.13,4.13.17,7.8,2.12,11.14a30.22,30.22,0,0,0,7.16,8.71c4.14,3.26,6,7.83,6.58,13.16.64,6-1.46,11-6.55,13.45-5.37,2.61-11.75,2.5-16.63-1.21s-9-8.84-13.55-13.28a5.25,5.25,0,0,1-1.31-5.58c.29-1.07,1-1.9,2.15-1.64,2.2.52,1.69,2.82,2.54,4.23a27.13,27.13,0,0,0,15.93,12.11,9.56,9.56,0,0,0,11.23-4.41c2.38-4.17,1-7.77-1.83-11.15-4.36-5.18-10.45-8.72-13.24-15.46-2.06-5-3.81-9.62.19-14.08S38,1405.61,42,1407.66c2.13,1.09,3.21,2.84,2.42,4.94C43,1416.47,40.12,1413.25,39.27,1413.39Z"/><path d="M800.69,1450.37a30,30,0,0,1-11.28,9.52c-3.08,1.52-5.76-.42-7.85-3-4.08-5.05-2.38-13.11-8.84-17a3.6,3.6,0,0,1,.81-2.61c4.74-3.21,3.58-8.15,3.47-12.49s1.62-6,5.44-6.69a47.31,47.31,0,0,0,15.72-5.51c1.91-1.14,3.84-2,5.07.63,1.15,2.43-.52,4-2.49,4.74-4.72,1.83-9.47,3.62-14.34,5-5.57,1.56-5.46,5.9-4.45,9.74,1.23,4.73,4.73,1.9,7.46,1.15,4.64-1.27,9.28-2.54,14-3.63a3.19,3.19,0,0,1,2.57,1,1.6,1.6,0,0,1-.75,2.51c-6.14,1.52-10.65,6.81-17.11,7.41-2.31.21-4.88-.33-5.17,2.92a9.52,9.52,0,0,0,3.47,8.11c2.14,1.92,4.2,1.09,6.18-.38a45.19,45.19,0,0,1,4.87-3.59C799.14,1447.26,800.32,1448.08,800.69,1450.37Z"/><path d="M378.86,1436.36c-.11,4.78-.66,8.4-2.83,11.82-6.61,10.45-15,11.22-22.62,1.67-6.65-8.39-8.78-18.67-11.44-28.69-.8-3,.54-5.31,3.42-5.7,3.17-.44,4.2,2.34,4.71,4.91,1.39,7.07,1.07,14.54,5.94,20.71,2.63,3.33,4.07,8.24,9.66,6.73s6.57-6.79,7-11.51c.43-5.16-1.55-10-4.48-14.3-1.34-2-2.52-4.29.44-5.78,2.79-1.41,4.28.64,5.16,2.89C376.08,1425,379.35,1430.63,378.86,1436.36Z"/><path d="M65.45,1455.6c-3.18-1.84-3.25-4.67-1.77-7.71,1.91-4,5.81-7.69,0-11.77-1.16-.83-.29-2.66,1.13-2.84,7.16-.9,6.61-7.42,8.85-11.88,1-2,.85-4.86,3.82-5.05,2.77-.18,3.71,2.41,4.88,4.26,2,3.17,3,7.13,7.76,7.48,1.79.14,2.29,1.45,2.28,3.27a15.31,15.31,0,0,0,6.32,12.9c3.12,2.38,1.72,5.73,0,7.35-2.85,2.74-4.4-.77-5.62-2.7-1.74-2.77-2.78-6-4.53-8.77-1.54-2.46-2.95-6-6.82-4.84-3.71,1.12-7.88,1.77-8.89,7-.72,3.67-2.65,7.1-4.07,10.63C68.28,1454.34,67.67,1455.8,65.45,1455.6Z"/><path d="M750.9,1419.49c-.2-1.69-.57-3.49,1-4.26,2.13-1,3.18.91,4.21,2.28,3.07,4,5.77,7.55,3.51,13.73-2.2,6-1.32,13,.38,19.48.6,2.31,2,5.64-1.62,6.24-3.44.56-3.6-3.25-3.86-5.45-.61-5-.42-10.13-.8-15.18-.55-7.42-2.53-8.4-8.94-4.86a33.84,33.84,0,0,1-6.88,3.08c-5.46,1.55-10.29,3.09-7.59,10.63.86,2.4,0,5.55-3.32,5.61s-2.4-3-2.89-5.15c-2-8.57,1.78-17,.3-25.58-.22-1.27.1-2.68,1.68-2.93,2.14-.34,2.43,1.39,2.61,2.87a33.61,33.61,0,0,1,.24,5.31c-.16,4.31,2.22,4.46,5.44,3.55,3.9-1.1,7.78-2.27,11.73-3.11C749.78,1425,752.74,1424,750.9,1419.49Z"/><path d="M452.67,1429.52c.25-2.11.57-6.15,1.26-10.13.32-1.87.72-4.28,3.68-3.82,2.34.37,2.61,2.35,2.63,4.06.1,5.82-.33,11.66,0,17.45.47,7.91,6.08,12.93,13.67,11.72,4.64-.74,9.53-1.52,13.69-4.18,2.32-1.48,5.27-4.3,7.11-1.08s-2.61,3.88-4.54,5.55a30,30,0,0,1-16.38,7.11c-12.57,1.55-19.92-4.47-20.7-17.12C453,1436.54,452.87,1434,452.67,1429.52Z"/><path d="M699.54,1441.28c0-4.57.16-9.15,0-13.71-.28-6.82-2.33-8.37-8.6-5.54a21.38,21.38,0,0,1-14.77,1c-1.73-.44-3.67-.94-3.43-3.3a3.5,3.5,0,0,1,3.08-3c9.23-1.74,18.46-3.49,27.72-5,2.82-.46,5.76,0,7,3.26s-1.11,4.47-3.37,5.88c-2.75,1.73-2.76,4.6-2.68,7.46.23,8.9-.75,17.81.51,26.68.33,2.34.75,5.14-2.37,5.42-3.7.33-3.49-2.83-3.5-5.39,0-4.58,0-9.15,0-13.72Z"/><path d="M399.89,1426.4c0,.42-.14-.37,0-1.1.57-2.57-2.89-7.13,2-7.37,4.65-.23,4.51,4.65,4.73,8.11.27,4.3.05,8.64.33,12.93s2.41,6.72,7,5.58c5.23-1.3,11.9,1,14.27-7.23.84-2.9,4.62-1.43,5.46,1.55,1.31,4.65.05,8.5-4.75,10.71-6.59,3.05-13.73,3.81-20.76,4.42-4.36.38-6.72-3.09-7.05-7.41C400.69,1440.26,400.36,1433.92,399.89,1426.4Z"/><path d="M496.38,1539.56c.69-5.13-.19-10.58-1.09-16-.52-3.11,0-5.88,3-7.43s4.85.72,6.6,2.7c5.32,6,13.37,7,19.91,10.69,2.15,1.23,4.29.29,5.43-1.72,4-7,11-10.2,17.43-14.14,4.25-2.59,6.68-2.43,7.65,3,1.32,7.48,2.79,14.94,4.47,22.35.77,3.4.32,7.34,4.49,9.46,2.73,1.38,1.51,4.15.56,6.29-.74,1.68-1.87,3.42-4,3.34-2.91-.11-3.83-2.51-4.35-4.83-1.42-6.4-2.84-12.81-3.92-19.28-.78-4.65-.61-10.75-6-11.56-4.76-.72-8.56,4.65-10.26,8.4-3.73,8.27-9.24,6.81-15.48,4.81-.74-.24-1.43-.66-2.17-.93-14.72-5.45-14.7-5.45-14.84,9.83,0,4-.43,9.81-4.22,9.76-5.67-.09-2.76-6.07-3.21-9.61A43,43,0,0,1,496.38,1539.56Z"/><path d="M416.55,1552.39a48.41,48.41,0,0,1-20.79-7.94c-5.48-3.67-8.52-3-9.31,4.11-.28,2.53.46,6.89-3.78,6.44-3.43-.36-3.39-4-3.34-7,.1-6.74-2.44-12.63-6.09-18.17-1.69-2.57-4.21-6.07.15-7.84,3.67-1.49,4.39,2.36,5.26,5.15,1.86,5.91,4.67,4.6,7.43.71,3.22-4.56,6.86-8.64,11.89-11.21,6.29-3.2,10.48-1.47,11.44,5.33.68,4.85,2.77,10.16-3.1,14.23-3.65,2.53-.28,4.5,2.17,5.43,5.89,2.23,11.83,4.42,18.25,1.7,2.59-1.1,5.7-1.44,6.56,1.85.74,2.87-2.24,3.58-4.5,4.4C424.84,1551,420.94,1552.59,416.55,1552.39ZM404,1526.91a3.19,3.19,0,0,0-4.1-2.71c-3.53.75-7.34,1.87-8.14,6-.48,2.5,2,2.73,3.81,2.25C398.93,1531.55,402.77,1531.11,404,1526.91Z"/><path d="M15.89,1543.43c-1.43-8.41.2-17.17-3.67-25.36-1.47-3.08.5-6.51,4.12-7.18,4.86-.9,9.56-2.61,14.67-2.52,10.92.19,16.17,6.83,13,17.41-1,3.31-.76,4.85,2.8,5.53,7.18,1.36,10.09,6,9.4,13.06-.88,9-6.72,16.16-13.72,17.08-8.63,1.14-16.66-1.08-24.1-5.07C12.74,1553.37,17.14,1547.69,15.89,1543.43Zm16.18,14.3c9.4.17,17.72-6.51,18.56-14.22.42-3.85-1-5.61-4.91-6.35-6.74-1.27-12.68,1.8-19,2.59-5.74.73-6.68,3.88-5.89,8.68C21.93,1555.2,27.09,1556.73,32.07,1557.73Zm-13.08-33c.54,9.57.64,9.79,4.42,9.5,8.18-.65,17.19-7.87,16.75-13.79-.46-6.13-5.1-6.43-9.78-6.17C21.12,1514.82,18.57,1517.2,19,1524.77Z"/><path d="M783.89,1519.15c-1.29-.22-2.57-.51-3.88-.63-3.12-.3-4.23,1.35-4,4.27s1.37,4.61,4.45,4c4.65-.87,9.25-2,13.9-2.88,3-.55,6.25-.57,6.65,3.41.36,3.46-2.44,4-5.26,4.39a76.05,76.05,0,0,0-10.85,1.93c-2.82.77-8.15-.88-7.18,4.66.9,5.13.69,11.49,7.45,13.57,4.94,1.53,8.83.16,11.12-4.68.93-2,.92-5.71,4.14-4.26s.84,4.29,0,6.7c-2.23,6.63-6.43,10.94-13.57,10.78s-10-5.56-12.5-11.42c-2.16-5.07-1-11.76-7.2-15a2.27,2.27,0,0,1-.44-2.12c5-5,2.83-12.36,6.2-17.93,1.42-2.34,2.86-2.51,5.12-2.29,6.19.6,12.33,1.92,18.4-1.47,1.85-1,5.87-.92,6.5,2.41.58,3.13-1.48,5.62-5,5.77-4.69.21-9.4,0-14.1,0C783.9,1518.7,783.9,1518.92,783.89,1519.15Z"/><path d="M318.11,1548.34c-2.32-9.63,1.3-20.47-6.61-29.12-2.7-3-1.27-7,3.77-6.71,11.14.57,22-2,33-2.76a15.76,15.76,0,0,1,5.45.18,4.31,4.31,0,0,1,2.95,5c-.32,2.52-2.28,2.24-4.25,2.11-9-.61-17.61,2-26.27,4.06-2.43.56-6,.14-5.44,4,.64,4.15,4,4.18,7.41,3.53q10.07-1.92,20.16-3.66c2.53-.43,6.24-1.47,6.78,1.74.66,4-3.62,2.86-5.77,3-7.89.61-14.41,6.26-22.68,5.71-3.3-.22-4,2.88-3.34,5.82.87,3.8,2.25,7.53,2.65,11.38.35,3.29.24,7.62-4.3,7.84s-2.8-4.19-3.39-6.67C317.78,1552.1,318.11,1550.18,318.11,1548.34Z"/><path d="M212.31,1546c-7.52-1.82-15.8,1.19-23.83-1.42-3.22-1-4.12,1.11-3.8,4a37.21,37.21,0,0,1,.22,5.48c-.08,1.93-.66,3.89-3,4-2.7.14-3.62-1.84-3.58-4.17.09-5-.73-9.9-1.29-14.85-.67-5.92-3-11-5-16.42-1.06-2.94-1.07-6.07,2.88-6.79s4.57,2.07,4.93,5.33c1,8.92,2.11,9.26,9.93,4.38,4.76-3,9.1-6.19,12-11.09,1.15-1.91,3-3.39,5.21-1.83,2,1.43.59,3.25-.17,4.89-2.54,5.52-7.13,9-12,12.17-1.76,1.14-4.19,2.07-3.41,4.62.68,2.25,3.15,2.54,5.27,2.78,5.47.63,10.93,1.38,16.42,1.77,2.88.2,4.64,1.43,4.67,4.17C217.91,1546.53,215.31,1546.42,212.31,1546Z"/><path d="M744.07,1530c-.72,5,0,9.12,2.31,12.73,1.41,2.22,1.5,4.34,1.38,6.73-.1,1.94-.28,4.13-2.41,4.39-2.29.28-3.74-1.32-4.2-3.77-1.11-5.89.24-13.7-3.91-17.16-4.37-3.66-11,2.7-17.09,1.79-2.38-.36-4.6.39-6.92.89-5.68,1.19-10.28,2.39-5.11,9.39a5.76,5.76,0,0,1,.53,3.8c-.26,1.86,1.22,4.72-1.75,5.27-2.48.47-3.58-2-4.33-3.86-1.88-4.73-2.86-9.78-4.71-14.56-1.32-3.39,3.22-9.74,3.2-15.28,0-.24,1.38-.78,2-.69a2.9,2.9,0,0,1,2.53,3.43c-1.29,8.07,2.85,7.76,8.76,6.44,5.08-1.13,10.41-1.15,15.64-1.62,4.62-.43,8.69-1.24,6.59-7.57-.58-1.76-1-3.94,1.65-4.32,2.14-.31,3.54,1.41,3.89,3.22C742.88,1523,745.8,1526.49,744.07,1530Z"/><path d="M659.5,1521.93c-3-.64-6.07-.11-9.2.33-2.76.4-5.62-.26-6.09-3.49-.56-3.84,2.75-4,5.29-4.14q12.93-.92,25.87-1.46c1.83-.08,3.57.31,5.27-.85,2.41-1.65,5.67-3.53,6.83.61,1,3.47,0,8.52-4.36,8.71-6.82.29-6.85,4.8-7,9-.24,7.32.29,14.66.4,22,0,2.78.72,6.93-3,7-4,.07-4.28-4.22-3.8-7.27,1-6.55.63-13.07.54-19.62C670.18,1522.39,670.25,1522.39,659.5,1521.93Z"/><path d="M454.5,1551.19c-8.7,0-15.28-7.13-15.16-16.33.11-8.21,7-15.81,14.37-15.94s18.6,10.95,18.81,18.54C472.71,1544.28,463.59,1551.23,454.5,1551.19Zm4.52-7.46a7.44,7.44,0,0,0,7-6.16c.56-3-8.95-12.68-11.85-12.33-5.49.68-6.91,5.34-7.68,9.59C445.69,1539.23,451.72,1543.79,459,1543.73Z"/><path d="M124.82,1534.72c.26-10.27,5.57-18.1,12.18-18,10.73.22,20.37,10.14,20.28,20.85-.06,6.26-11,15.72-18.19,15.75C131.4,1553.39,124.58,1544.48,124.82,1534.72Zm5.06-1.9c-.08,8.17,3.72,12.47,10,12.62,5.71.14,12-4.43,12.16-8.83s-8.94-12.75-14.22-12.75C131,1523.85,130.37,1529,129.88,1532.82Z"/><path d="M89.93,1517.61c12.35.65,22.32,9.61,21.59,19.39-.62,8.4-10,15.82-19.56,15.52-8.93-.29-16.12-9.88-15.58-20.8C76.8,1523.13,82.48,1517.21,89.93,1517.61ZM82.2,1533c.14,9.28,4.74,14.67,11.81,14.63,6,0,13.24-6.13,13.28-11.19,0-6.16-8.93-13.42-16.25-13C84.6,1523.84,81.54,1527.28,82.2,1533Z"/><path d="M208.21,1635.27c.15,4.41-1.61,5.1-5.42,4.09a57.61,57.61,0,0,1-17.4-7.84c-7.54-5-8.89-4.46-13.62,3a86,86,0,0,1-6.18,8.61c-2.75,3.38-5.35,4-7.22-.94-2.32-6.21-4.82-12.36-7.19-18.55-1-2.65-.52-5,2.38-6,2.65-.83,4.08.81,4.8,3.29s1.47,4.66,2.29,7c.56,1.58-.14,3.93,2,4.55,2.42.7,3.45-1.45,4.69-3s2.41-3.2,3.76-4.67c7-7.57,7.5-7.51,15.49-.89a106.35,106.35,0,0,0,9.3,6.33c1.29.85,2.65,2,4.24.81s1-2.7.53-4.22a27.58,27.58,0,0,1-1.41-10.51c.12-1.82.38-3.78,2.64-4,2.55-.27,2.77,1.83,2.77,3.61C204.71,1622.71,207.16,1629,208.21,1635.27Z"/><path d="M485.89,1637.52c-.78-8.63-1-17.3-3.34-25.72-.75-2.67-.13-5.33,2.9-5.63,2.74-.26,3.4,2.23,3.43,4.66,0,1.24-.53,3,1.33,3.22s2.4-1.64,3-3c2.13-5,5.32-9,11.13-9,3.74,0,8.46-1,10.56,3.69,2,4.46,2.39,9.64-.78,13.32-5,5.79-9.52,13.41-19.69,9.53-3.16-1.2-3.85,1.72-3.86,4.5,0,6.43,1.05,12.86-.05,19.29-.27,1.59.54,4-2.24,3.91-2.43-.11-2.34-2.3-2.36-4.06C485.85,1647.28,485.89,1642.4,485.89,1637.52Zm12.19-12.39c5.2-.71,9.44-4.64,12.38-10.11,2.38-4.44.58-7.36-4.49-7.23-7.34.18-10.37,6-13.38,11.28C490.24,1623.21,492.22,1625.27,498.08,1625.13Z"/><path d="M689.6,1646.18c-9.41,3.21-5.51-6.12-6.81-9.64-2.32-6.28-1.57-13.52-4.91-19.74a2.35,2.35,0,0,1,.8-3.45c9-5,28-.33,33.76,8.65,3.11,4.88,1.92,10-1.4,14.23C705.89,1642.73,699.25,1646.87,689.6,1646.18Zm-1.84-8.82c-1.3,2.68-1.15,4.64,2.63,4.82,5.31.25,18.17-7.92,18.25-12.82.1-7.28-6.75-8.88-11.9-11.57a7.25,7.25,0,0,0-1.89-.63c-5.74-1.24-8.6.92-8.42,6.84C686.57,1628.42,687.29,1632.82,687.76,1637.36Z"/><path d="M25.34,1639.14c-.48-7.83-.11-15.74-2.76-23.32-.83-2.38-.28-4.88.39-7.21.49-1.71,2.55-2.92,3.47-1.28,3.91,7,10.29,3.13,15.54,3.86a16.91,16.91,0,0,0,7.24-.85c3.39-1.1,5.42-.15,5.56,3.27.14,3.59-3.1,3.54-5.34,3.37-5.29-.4-10.48-1.77-15.83-.11-2.32.72-5.32.39-5,3.92s3.3,4.24,5.92,4.11a125.81,125.81,0,0,0,13.22-1.72c2.09-.32,4.45-.65,4.65,2.09.18,2.53-2.48,2.19-4.06,2.32-5.52.48-10.38,3.73-16.23,3.27-3.27-.26-1.95,3-2.13,5.1-.35,4.3,4.5,8,1.29,12.6-.84,1.22-.82,3.25-2.87,3s-3-1.68-3.06-3.75C25.33,1644.91,25.34,1642,25.34,1639.14Z"/><path d="M361.31,1633.87c-.85-6.32-1-12.52-3.05-18.42-.53-1.52-.87-3,.49-4.31s2.64-.61,4.09.27c4.42,2.68,9.16-.5,14.07.95,11.67,3.46,16.8,15.47,9.9,25.54-1,1.46-2.28,2.71-3.36,4.11-3.45,4.42-8.38,7.43-13.22,4.67C365.75,1644.13,358.5,1641.86,361.31,1633.87Zm5.06-2.47h0c.08,1.1.09,2.21.24,3.31.35,2.58-1.74,6,2.36,7.35,3.55,1.21,6.42-.17,9.22-2.21a16.6,16.6,0,0,0,4.84-6.21c2-3.94,3-8.33-.45-11.67a13.44,13.44,0,0,0-12.87-3.51c-4.87,1.45-3.61,6.39-3.54,10.3C366.21,1629.64,366.31,1630.52,366.37,1631.4Z"/><path d="M613.54,1635.18c-.25,10.56-.33,10.7-8.15,6.42-6.79-3.71-13.39-7.77-20-11.72-1.32-.78-2.48-2.13-4.16-1s-1.15,2.74-.86,4.24c.77,4,1,7.89-.4,11.81-.84,2.3-2.12,2.86-3.92,1.23-2.08-1.9-2.6-22.39-1.06-24.83,2.21-3.51,4.19-4.64,7.65-1.21,5.84,5.81,13.19,9.64,20,14.2,1.58,1.06,3.32,2.83,5.36,1.52s1.06-3.62.76-5.53c-.79-5-1.7-10-2.46-15.08-.25-1.64-1-3.85,1.64-4.21,1.9-.27,2.72,1.4,2.94,3C611.84,1621.48,612.75,1629,613.54,1635.18Z"/><path d="M277.44,1609.25c2.58.07,3.19,1.9,4.19,3.33,3.86,5.51,5.45,12.09,7.87,18.2a76.58,76.58,0,0,0,5.76,12.5c1.13,1.81,2.58,3.61.15,5-2.22,1.28-3.73-.5-4.64-2.43a62.66,62.66,0,0,1-3.13-7.32c-1-3.13-2.81-3.68-6.05-3.43-7.76.61-14.93,1.47-17.17,10.81-.45,1.89-2.12,3.95-4.46,2.41-2.16-1.43-.82-3.4,0-5.29q6.44-14.2,12.6-28.53C273.68,1612,274.61,1609.54,277.44,1609.25Zm-1.32,22c2-1.52,7.28.92,7-4.24-.17-3.21-1.85-8.9-4.6-8.28-3.61.82-4.41,6.43-5.79,10.24C272,1631,273.9,1631.43,276.12,1631.25Z"/><path d="M455.93,1641.69c6.74-.07,13.21-4.33,14-9.2.82-5.27-4.64-13.65-10.3-15.7-1.92-.7-5.18-.33-4.1-3.71s3.64-1.86,6.1-1.26c6.49,1.59,12.68,12.8,12.51,19.66s-4.56,11-10.2,13.52c-8.7,3.9-15.49,2.3-21.42-3.42-6.62-6.39-3.84-20.47,1.44-24.4,2.22-1.66,4.58-3,7.37-1.78,1.27.56,3.43.74,3.16,2.82-.2,1.48-1.77,1.68-3.1,2-7.28,2-9.78,5.38-8.73,11.47C443.56,1637.18,449.69,1641.76,455.93,1641.69Z"/><path d="M556.28,1621.15c-5,1.25-10,2.42-15,3.8-2.45.68-5.84,1-5.13,4.78.86,4.62-.33,10.33,4.9,13.08,3.53,1.86,5.61-1.2,7.67-3.56,1-1.14,1.61-4,3.74-2,1.66,1.56-.12,3-1.43,4.36-3.1,3.11-4.36,9.19-10.45,7.52s-7.05-7.45-8.52-12.56c-1.93-6.67-.37-13.92-3.4-20.48-.87-1.89.9-2.89,2.64-2.77,6.61.44,12.72-1.38,18.74-3.8,2.4-1,5.47-1.6,6.14,1.49.73,3.37-2.76,2.43-4.72,2.9-3.44.83-6.87,1.7-10.3,2.58-1.73.45-3.9,1-3.59,3.15.34,2.49,2.87,1.75,4.37,1.57,4.71-.58,9.29-2.52,14.12-1.88Z"/><path d="M109.23,1630.62c-1.14-5.49,2.31-9.38,4.46-13.65a3.13,3.13,0,0,1,4.63-1.22c4,2.79,8.39,5.33,11.32,9s5.9,9.16,1.81,13.33c-3.15,3.22-8.31,6.11-13.2,4.28C113.21,1640.5,107.66,1637.86,109.23,1630.62Zm11.63,4.26c2.53.37,5.17-.45,5.1-3.34-.09-4-4.08-4.91-7-5.8-2.68-.82-3.81,1.75-3.85,4.07C115.06,1633.38,117.39,1634.73,120.86,1634.88Z"/><path d="M342.26,1627.68a22.25,22.25,0,0,1,0,2.49c-.7,10.82-3.58,12.27-12.91,6.41-1.48-.92-2.53-2.82-4.07-3.28-3.09-.93-6.08-4.37-9.18-2.51-2.62,1.59.09,4.89,0,7.41-.11,2.31.14,5.93-2.25,6.25-3.23.44-3.76-2.89-3.88-5.67a60.81,60.81,0,0,0-1.4-12.52,4.63,4.63,0,0,1,1.95-5.27c1.89-1.21,3.22.11,4.76,1,5.35,3.13,10.84,6,16.17,9.17,4.22,2.51,6.64,2.48,6.26-3.41-.22-3.51,0-7,0-10.58,0-1.62.15-3.29,2.16-3.52,2.27-.26,3.26,1.2,3.19,3.25C342.9,1620,342.59,1623.09,342.26,1627.68Z"/><path d="M70.34,1624.63c0-2.45-.13-4.91,0-7.34.11-1.58-.59-4.06,2.1-4.08,2.16,0,3,2.11,3.08,3.8a79.15,79.15,0,0,1-.09,10c-.35,6.87,1.62,9.21,8.54,10a46.9,46.9,0,0,0,13.27-.69c2.71-.47,5.75-.63,5.89,3.29.12,3.19-1.9,5-5.08,4.82-5.77-.3-11.47.62-17.26.5-7.39-.15-9.76-4-10.23-10.28-.25-3.32-.33-6.65-.49-10Z"/><path d="M628.66,1620.72c0-1.55-.11-3.34,1.89-3.71,2.64-.49,2.47,1.66,2.94,3.35,1.52,5.5,1,11.4,3.51,16.72,1,2,1.29,4.35,4,4.79s4.61-.92,5.94-3.26c.85-1.49,1.81-3.7,3.9-2.22,1.78,1.26,1,3.6-.37,4.64-3.18,2.46-4.61,7.89-9.59,7.17s-6.47-5.08-8.21-9.39C630.25,1632.92,630.47,1626.63,628.66,1620.72Z"/><path d="M666.11,1622.93c-8.34-.26-16,2.5-23.82,4-1.81.35-4.71.58-5.12-1.73-.48-2.79,2.28-3.33,4.51-3.53C649.86,1620.92,658.06,1619.88,666.11,1622.93Z"/><path d="M646,1615c-2.09,0-6,.07-10,0-1.71,0-3.06-.87-2.79-2.86s1.82-2.3,3.49-2c5.94.94,11.85.53,17.78-.12,2.53-.27,5.65.61,5.58,3.29s-3.17,1.15-4.94,1.32C652.73,1614.75,650.3,1614.76,646,1615Z"/><path d="M755.5,1609.85c2.9.57,4.21,2.75,4.73,5.32,1.9,9.46,1.68,19.35,5.88,28.36.82,1.76-.28,3.13-2,3.84-2.12.87-3.69.11-4.41-2a16.81,16.81,0,0,1-.67-4.09,111.72,111.72,0,0,0-5.19-26.47C753.16,1612.79,752.43,1610.75,755.5,1609.85Z"/><path d="M792.84,1607.4c2.42-.2,5.89-.4,9.34-.81,2.17-.25,3.67.15,4,2.58.31,2.25.19,4.67-2.62,4.68-6.46,0-6,4.12-5.7,8.56.42,6.24.53,12.51.78,18.76.07,1.57-.48,3.31,1.15,4.47s3.25,2.29,1.59,4.44c-1.06,1.38-2.8,1.62-4.43,1.52a3.74,3.74,0,0,1-3.74-3.48c-.42-4.61-.5-9.26-.8-13.89-.25-3.7-.64-7.39-.94-11.09-.8-9.8-1.88-10.54-11.61-7.92-2.67.71-5.3,1.56-8,2.12-2.52.53-4.82-.11-5.43-2.94-.66-3.06,1.76-4.18,4-4.62C777.5,1608.42,784.52,1606.74,792.84,1607.4Z"/><path d="M724.17,2587.06c6.09-.58,12.73,2,18.14-3.09a2.74,2.74,0,0,1,4.06,0c1.2,1.28.89,2.77.25,4.2-1.5,3.35-4.25,5-7.79,5.37-21.64,2.45-42.91.83-62.86-8.21-6.86-3.11-10.63-5.27-10,4.82a7.47,7.47,0,0,1-2.44,5.65c-1.25,1.32-2.36,2.92-4.53,2a4,4,0,0,1-2.46-4.4c1.53-12.24-1.37-24-3.53-35.89-.6-3.34.25-6.23,4-6.94,4.55-.87,4.51,2.35,4.71,5.61.13,1.93-.15,4.62,2.26,5.51,2.8,1,3.42-1.65,4.52-3.33,6-9.2,15.25-11.05,25.3-10.85,3,.06,6,.32,9,.66,3.93.45,10-1.62,10.69,3.8s-1,11.23-6.88,14.6c-6.18,3.5-13.42,3.44-19.67,6.56-1.81.9-4.72.64-4.66,3.36,0,2.49,2.78,3,4.69,3.61C699,2584.15,711.25,2587.37,724.17,2587.06Zm-23.63-28.46c-.64-1.07-.92-2-1.56-2.52-4.74-3.55-9.84-1.37-14.61-.33-4.44,1-9.91,1.14-11.35,7.2-.73,3,.33,5,3.52,4.49a93.57,93.57,0,0,0,21.48-6.5C699,2560.52,699.66,2559.43,700.54,2558.6Z"/><path d="M484.73,2579.7c.27,4.23.77,8.48-1.13,12.51-1.13,2.38-2.65,4.16-5.54,3.68s-2.67-2.69-2.85-4.88c-.78-9.62-.56-19.34-3.63-28.71-1.53-4.68,2.2-6.92,5.28-9.52s5.87-2.31,8.87,0c7.44,5.63,15,11.15,22.34,16.87,3.81,2.95,7.33,3.36,11.63.8,9.32-5.54,19.26-10.16,26.47-18.64,1.53-1.8,3.27-2.69,5.53-2.32,2.68.45,2.87,2.77,3.3,4.83,1.82,8.54,3.83,17,5.34,25.63.72,4.09,1.49,7.14,6.68,6,2.31-.49,4.32.35,4.77,2.94s-1.78,3.41-3.65,4.45c-9,5-11.62,3.83-14.21-6.34-1.49-5.83-3-11.66-4.39-17.51-1.39-5.66-3.94-7-8.89-3.08-6.15,4.82-12.49,9.41-19,13.68-4.94,3.24-9.79,5.61-15-.8-3.11-3.82-8.17-6.08-12.42-8.95-2.43-1.65-4.87-4.43-8.05-2.68-2.95,1.63-1.24,4.93-1.4,7.52C484.65,2576.67,484.73,2578.19,484.73,2579.7Z"/><path d="M704.84,2129.67c3.63-5.57,9-7.42,15-7.37,2.74,0,6.32-.23,7.08,3.4a8.73,8.73,0,0,1-3.83,9.19c-1.12.78-3,.79-2.67,2.76.33,1.81,2.17,1.54,3.46,2.07,2.94,1.21,5.69-.18,8.51-.47,1.15-.12,2.34-.43,2.81,1s-.4,2.14-1.46,2.67c-4,2-7.6,4.08-12.51,1.14-3.61-2.16-7.92-3.35-11.72-5.43-3-1.63-4.55-.66-4.54,2.76,0,2.4.21,4.83-1.33,6.94-.71,1-.94,2.76-2.59,2.31a2.73,2.73,0,0,1-1.79-3.1c1.79-6.41,1-12.61-.61-18.91-.3-1.19.26-3.77,2-4C703.82,2124.22,703,2127.86,704.84,2129.67Zm14.87-3.77c-3.68-.13-6.8,1.32-9.71,3.36a1.93,1.93,0,0,0-1,2,1.55,1.55,0,0,0,1.81,1.18c3.3-.38,6.63-.68,9.87-1.37,1.52-.33,2.94-1.5,2.45-3.49C722.7,2125.77,721.16,2125.8,719.71,2125.9Z"/><path d="M481,2126.63c1.53-3.71,4.51-4.87,8.43-4.75,5.76.16,8.49,2.86,7.44,8.45-.57,3-.46,4.7,3,5.65,3.1.87,3.19,8.42-.13,10.43-5.83,3.52-12.11,5.92-19.19,4.16a4.29,4.29,0,0,1-3.52-3.52c-1.15-6.75.81-13.62-.79-20.37a2.37,2.37,0,0,1,1.79-2.58C479.94,2123.6,479,2126.26,481,2126.63Zm3.77,20.71a31.68,31.68,0,0,0,10-3.09c1.43-.64,3.24-1.51,2.64-3.41-.53-1.69-2.54-2-4-1.83-3.3.42-6.55,1.19-9.81,1.87-1.94.4-3.26,1.53-3,3.64C480.93,2146.84,482.58,2147.59,484.79,2147.34Zm.29-11.58c2.49-1.14,5.67-1.78,7.81-4.36,1.16-1.41.63-2.59-.53-3.73-2.43-2.39-4.86-1-6.92.31s-3.7,3.53-3,6.45C482.7,2135.58,483.65,2135.76,485.08,2135.76Z"/><path d="M241.41,2134.62c5.15-4,8.32-9.17,14.18-10.82,1.84-.52,3.87-1.69,5.44-.2s.38,3.63-.35,5.37c-.81,1.9-1.51,3.87-3.32,5.19-2,1.49-1.82,3,.53,3.8,2.82.91,5.63,2.52,8.77,1.12.83-.38,1.69-1.28,2.56-.36a3,3,0,0,1,.31,3.2c-1.1,2.76-3.07,4-6.11,3-4.52-1.62-9.09-3.12-13.55-4.88-3.18-1.26-5.37-1.34-5.47,2.94a9,9,0,0,1-.68,2.8c-.72,1.9-1.24,4.81-3.62,4.36-2.19-.41-.52-3-.69-4.67-.58-5.75-.77-11.54-2-17.21-.41-1.89-1-4.4,1.74-4.62,2.89-.23,2.24,2.44,2.26,4.28C241.43,2129.93,241.41,2132,241.41,2134.62Z"/><path d="M188.69,2134.77c1,3-2.14,7.51,2.76,10.2,1,.55-.41,1.94-1.1,2.79-.84,1-1.73,1.92-3.24,1.58a2.73,2.73,0,0,1-2.05-2.92c-.1-3.86,0-7.72.05-11.58,0-1.23.46-2.71-1-3.43-1.69-.81-2.82.48-3.74,1.48a26.52,26.52,0,0,0-4,5.31c-1.92,3.59-4.37,3.28-7.17,1.42-1.86-1.24-3.63-2.62-5.4-4-1-.79-2-1.82-3.4-1-1.18.67-.82,2-.79,3.08.06,2.85.88,5.76-.8,8.48-.5.81-.7,2-1.94,1.69-1-.25-1.4-1.23-1.46-2.26q-.54-8.43-1.06-16.85c-.1-1.76,1-2.53,2.47-3.11s2.6-.69,3.87.65c2.85,3,5.49,6.79,9.48,7.95,4.94,1.43,5.93-5.08,9.9-6.25,2.72-.81,4.36-5.45,6.92-4.12,3,1.55,1.08,5.9,1.77,9A12,12,0,0,1,188.69,2134.77Z"/><path d="M755.12,2150c-5.43-.07-7.41-2-7.66-7.33a64,64,0,0,0-2.2-14.7c-.49-1.7-.48-3.1.9-4.37s2.24-.12,3.22.66c1.57,1.25,3.14.2,4.55-.3a22,22,0,0,1,9.48-.91c7.59.63,11.08,6,8.57,13.13C770.05,2141.71,762.39,2150.6,755.12,2150Zm5.27-21.9c-7.79.05-10.06,2.7-8.73,11.61a10.75,10.75,0,0,1,.21,3.33c-.67,3.79,1.34,3.49,3.94,2.9,4.56-1,7.4-4.3,10.29-7.52,1.79-2,4.12-4,2.51-7.11C767.17,2128.62,764.48,2128,760.39,2128.14Z"/><path d="M289.5,2122.85a24.12,24.12,0,0,0,10-.91c1.37-.47,3.16-.6,3.7,1.12.46,1.48-1.13,2.17-2.24,2.72-4.82,2.37-9.87,2.4-15.06,1.56-1.76-.29-4-1.38-5.3.67-.95,1.54-.07,3.52.53,5.11.88,2.32,3.05,1.13,4.66,1.09a20.9,20.9,0,0,0,7.54-1.33c1.22-.5,3.17-1.18,3.76.5s-1.46,2.15-2.58,2.95c-2.33,1.67-5.32.92-7.81,2.13-1.32.64-3.67,0-3.59,2.27a6,6,0,0,0,3.39,4.95c1.59.85,3,.36,4.38-.79s1.79-4.81,3.67-3.27c2.36,1.94-1,3.91-2.11,5.47-4.43,6.4-8.19,5.64-12-2.18-1.22-2.52-1.38-5.74-4.77-6.73a1.3,1.3,0,0,1-.58-.69c3-3.76-.63-7.45-.11-10.88.43-2.83,4.54-3.15,7.31-3.67C284.62,2122.51,287.09,2122.86,289.5,2122.85Z"/><path d="M632.37,2549.5c-9.55,2.83-18.44,6.61-28.09,7.08-2,.1-4.91-.19-4.52,2.84.36,2.83,3.25,2.29,5.21,2,8.12-1.35,16.1-4.54,24.81-1-7.94,2.55-15.67,5.4-23.36,8.33-3.43,1.3-7.59,1.34-7.15,6.34.47,5.36.5,11.52,5.52,14.67,3.72,2.33,6.54-1.38,8.78-4.26,1.28-1.65,1-5.67,4.56-3.76,2.34,1.26,2.37,4.33,1.36,6.56-2.72,6-6.89,10.87-13.76,11.71-6.5.79-9.74-4.19-12.08-9.12-1.51-3.18-2-6.94-2.44-10.5-.57-5-.37-9.66-5.45-13.49-3.84-2.89-2.75-9-2-13.54s5.38-3.42,9-3.77c8.69-.84,17.55-1.32,25.91-3.57C624.47,2544.45,628.24,2546.35,632.37,2549.5Z"/><path d="M205.07,2125c1.91-3.74,5.08-4.85,8.49-5a11.42,11.42,0,0,1,11,5.74c2.23,3.88.54,7.58-2.09,10.64a16.54,16.54,0,0,1-11.57,6.15c-3.09.17-4.18.91-3.44,3.9a2.43,2.43,0,0,1,.08.47c0,2.55.31,6.19-2.66,6.26-2.7.06-1.66-3.57-1.8-5.64-.16-2.4.25-4.86-1.35-7s.44-3.62.49-5.4c.1-3.08-1.13-5.93-2.07-8.85-.59-1.83-1.41-4.49,1.33-5.4C204.62,2119.8,203.15,2123.55,205.07,2125Zm9.57-.61c-4,.5-7.82,2.5-9.13,5.74-.75,1.84-1.22,6.5,1.51,8.24,2.45,1.56,5.51,0,7.92-1.71,1.29-.92,2.54-1.91,3.75-2.94,1.75-1.51,3.55-3.38,2.36-5.73S217.25,2124.74,214.64,2124.36Z"/><path d="M649.47,2125.61c-3.31,6.44-2.1,14.07-4.15,21.1-.78,2.65-2.06,2.5-3.81,1.25a86,86,0,0,1-7.25-5.47c-4.57-4.06-5.48-4-8.73,1a66.29,66.29,0,0,1-4.74,6.62c-1.75,2.09-3.18,1.93-3.84-1-1.55-6.88-1.52-14-3.64-20.82-.29-.94-.36-2.45,1.18-2.7,1.82-.3,2,1.21,2.25,2.46.71,4.11,1.32,8.23,2,12.34.18,1.06.09,2.47,1.37,2.83,1.46.41,1.7-1.1,2.33-2,6.15-8.3,6.13-8.26,14.54-2.28,1.45,1,2.79,3.27,5,2,1.67-1,1.57-3.12,1.54-4.84-.08-4.16,2-8,1.34-12.29-.26-1.49,1.14-2.38,2.51-2.27C649.68,2121.72,649.13,2123.77,649.47,2125.61Z"/><path d="M372.42,2121.33a10.09,10.09,0,0,1,1.83-.11c1.49.37,4.1-.9,4.09,1.69,0,2-2.27,2.31-4.13,2.36a53.66,53.66,0,0,0-11.43,1.47c-1.71.43-3,1.39-2.8,3.34.21,2.34,2,2.19,3.63,2,4.3-.48,8.58-1.06,12.87-1.66,1-.14,2.27-1.15,2.79.45.39,1.2-1,1.43-1.74,1.91-3.94,2.51-8.55,3-12.92,3.44s-5.27,1.94-4.24,5.76c1,3.57,4.3,5.83,7.66,4.67a10,10,0,0,0,5.91-4.67c.44-.83.82-2.5,2.35-1.5.84.56.65,1.77.34,2.7-1,3-8.35,8.42-11.67,8.62-5.29.32-6.15-3.76-7.21-7.46-.85-3-.3-6.44-3.2-8.78a1.76,1.76,0,0,1,.39-2.9,3.09,3.09,0,0,0,1.14-3.85c-1.43-4.23,1-5.39,4.35-5.89C364.7,2122.3,369,2121.79,372.42,2121.33Z"/><path d="M424.75,2550.72c4.8-.89,5.2,3.19,6.74,5.88,3.35,5.85,3.75,14.34,14.08,13.52,2.86-.22,3.35,2.61.3,4.84-6.43,4.71-2.69,7.56,2.38,9.14,2.44.76,4.81.69,4.83,4,0,2.29-.69,4.31-3.17,4.86-2.84.62-5.94,2.22-8.38-.8a40.08,40.08,0,0,1-2.76-4.67c-6.26-10.38-17.23-10.87-25.26-1.1-1.34,1.63-2.38,3.52-3.82,5-2.06,2.19-4.33,4.79-7.75,2.88-3.67-2.06-1.17-5-1-7.9.66-12.3,11.59-19.83,13.93-31.33C415.94,2549.68,421.74,2552.87,424.75,2550.72Z"/><path d="M754.51,2589.1c9.61-4,1.73-17.26,11.11-22.88,2.48-1.49,3.08-5.21,2.89-8.28-.21-3.31-1.33-8.43,2.46-8.35,4.7.1,10.76-1.68,14.5,3.68,1.9,2.71,4.21,5.16,5.94,8,1.87,3,3.66,5.23,7.82,4.67,5.81-.78,7.65,3.11,4.86,7.11-3.11,4.48-2.12,7.51.2,11.43,1.18,2,1.55,4.56,1.94,6.92.3,1.85-.29,3.79-2.21,4.52-2.48.95-3.94-.65-5-2.66a25.8,25.8,0,0,1-1.57-3.27c-5-14-5-13.71-19.16-12.91-5.17.29-7.34,3-9.78,6.63a83.5,83.5,0,0,1-8.08,9.69,3.25,3.25,0,0,1-4.13.78C754.82,2593.31,754.32,2592,754.51,2589.1Z"/><path d="M708.43,2237.85c0-14.64,10.15-20.93,23.06-14,5.47,2.93,11.09,5.84,14,12,2.74,5.8,2.11,10.88-3.43,14-9.39,5.34-18.85,8.1-28.66-.13C709.44,2246.43,708.62,2242.43,708.43,2237.85Zm21.43,10.29a24.62,24.62,0,0,0,4.06-.62c8-2.21,10.21-7.68,4.44-12.18-4.44-3.47-10-5.85-15.44-7.55-4.74-1.48-9.06,3-9,8.16C714,2243.43,719.66,2248.11,729.86,2248.14Z"/><path d="M553.66,2126.54c-1.53.71-4.92-1.29-5,1.41-.12,3.07,3.45,1.8,5.44,2.2,3.25.65,6.37-.4,9.5-1.12,1-.23,2.45-.75,2.77.89a2.15,2.15,0,0,1-1.78,2.51c-4.24.68-8,3.56-12.58,2.7-2.84-.53-3.81,1.06-3.37,3.69a17.45,17.45,0,0,0,.8,3.28c.62,1.65-.07,4.11,2.69,4.52,2.49.37,4.27-.8,6-2.4.91-.85,1.17-3.48,2.95-2.17,1.54,1.13.38,2.91-.76,4.18a26.79,26.79,0,0,1-3.24,3.55c-3.58,2.77-8.55,1.54-10-2.75-2.54-7.36-3.9-14.88-.51-22.43.59-1.33,1.19-2.9,2.94-2.77,4.32.32,8.62.71,12.95,0,1-.18,1.77.59,1.81,1.77a1.9,1.9,0,0,1-1.71,2A27.8,27.8,0,0,1,553.66,2126.54Z"/><path d="M74.88,2235c.65,6.56-1.24,11.85-6.4,15.52-6.22,4.44-12.56,7.36-20.46,2.82-10.75-6.17-15.49-15.29-15.13-27.3a14.53,14.53,0,0,1,9.47-13.63c6.71-2.72,13.68-2.6,20.16,1.23,1.8,1.07,1.95,3.19,1.36,4.86-.91,2.58-3.12,1.21-4.53.63a18.49,18.49,0,0,0-7.13-1.6c-5.38,0-10.73.17-13.28,5.84-2.4,5.32-1.17,10.82,2,15.34,8.78,12.46,24.67,15,30.32-.89A3.79,3.79,0,0,1,74.88,2235Z"/><path d="M213.3,2552.76c3.12-.22,6.74-.64,10.37-.66,2.4,0,5.45.45,6,3.05.62,3.22-2.83,3.64-4.93,4-5.94,1.13-11.95,1.93-18,2.54-4.06.42-7.37,1.39-6.84,6.33.6,5.59,4.79,4.44,8.31,3.88s7-1.74,10.59-2.34c2.36-.4,5.39-.68,6.17,2.22s-2.46,2.67-4.16,3.55c-4.27,2.23-8.34,4.76-13.35,5.35-4.36.5-7.61,2.39-5.76,7.83,1.8,5.24,5.52,7.21,10.59,5.6,2.47-.78,4.51-2.93,6.72-4.5,1.76-1.25,3.22-4.82,5.69-2.16,1.9,2.06-.51,4.48-2,6.31-1.31,1.64-3.13,2.88-4.47,4.5-3.9,4.76-8.86,6.26-14.62,4.59s-7.63-6.66-8.52-11.74-1.6-9.55-8.14-9.92a3.67,3.67,0,0,1-3.53-4.43c.3-2.06,2-2.49,4-3,7.58-1.88,9.08-5.68,3.8-11.41-4.73-5.15-1.79-6.51,2.71-7.79C200.08,2552.88,206.43,2552.65,213.3,2552.76Z"/><path d="M55.35,2554.48c-6.31.45-12.62.92-18.93,1.33-2.64.18-5.78,1.07-6-3.19-.21-3.64,1.53-5.61,5.25-5.91,5.11-.39,10.2-1.24,15.31-1.33a401,401,0,0,0,44.22-2.77,27.18,27.18,0,0,1,6.31,0,4,4,0,0,1,3.8,3.29c.38,2.14-1,3.46-2.78,4.13a33.35,33.35,0,0,1-7.72,2.29c-3.18.4-5.92,2-5.45,4.86,1.52,9-3.08,18.51,2.52,27.3,2.73,4.3-.49,8.89-3.49,10.9-4.88,3.25-5.23-1.82-5.37-4.93-.44-9.35-.58-18.71-.74-28.06-.12-6.49-1.84-10.29-9.74-8.58-5.52,1.2-11.41.7-17.14.95Z"/><path d="M113.34,2562c0-.67-.09-3.39,0-6.1.11-2.35,0-5.44,3.41-5.12,2.8.26,4,3,3.5,5.48-1.47,7.64,2.16,8.8,8.6,7.77,5.94-.94,12-1.31,18-1.73,5-.34,9.9-.18,9.6-7.51-.1-2.52,3-4.2,4.34-2.14,3,4.51,9,7.68,7.71,14.48-1.81,9.74.54,18.59,5.35,27.08,1.88,3.32-.53,6-3.28,7.25-3.18,1.44-5.45-1.12-6-3.78-1.53-7.05-3.17-14.2-3.46-21.36-.34-8.71-3.59-11.55-11.63-8-6.2,2.75-12.93,2.36-19.38,3.58-10.46,2-12.05,4.43-8.56,14.37.59,1.67,2.17,3.06,2.49,4.74a5.05,5.05,0,0,1-3.48,5.73c-3.11,1.08-4.43-1.41-4.66-4C115,2583.22,112.24,2573.81,113.34,2562Z"/><path d="M172.11,2239.74c-.15-2.34-.47-5.92-.59-9.51a7.26,7.26,0,0,1,3.18-6.37c2.38-1.61,3.4,1.23,5,2.13,7.31,4.05,12.11,11.38,19.73,15,1.62.77,3.15,2.18,5,1.17,2-1.11,1.22-3.13,1-4.85-.67-4.4-.53-9-3.4-12.86-1.7-2.3-1-4.38,1.61-5.42,3-1.2,3.25,1.19,3.69,3.21,1.46,6.8,3.23,13.53,3.73,20.5.22,2.91-.36,5.7-2.64,7.26s-4.74-.24-6.78-1.62c-5.55-3.78-11.78-6.48-16.86-11-1.44-1.29-3.42-2.74-5.48-1.73-2.23,1.1-1.62,3.57-1.34,5.45.62,4.14-.36,8.05-1.13,12-.31,1.59-.6,3.41-2.71,3.08-1.94-.3-2-2.11-2-3.73Z"/><path d="M321.93,2144.38c-.73,1.88,1.56,6.29-1.62,6.14-3.84-.17-1.31-4.29-1.34-6.71a21.42,21.42,0,0,0-1.29-7.87c-1.31-3.4-1.16-7.37-1.55-11.1a1.65,1.65,0,0,1,1.36-1.76c1-.22,1.29.71,1.67,1.38a2.1,2.1,0,0,1,.33.9c-.2,7.07,3.71,7.8,9.34,6.22a11.19,11.19,0,0,1,4.32-.15c4.39.57,6-1.15,5-5.49-.32-1.29-.38-2.81,1.11-3.32,1.93-.67,1.49,1.69,2.28,2.2,5.42,3.47,1.84,8,1.63,12.12a11.22,11.22,0,0,0,1.18,6.54c1.39,2.33-.05,4.07-1.67,4.77-2.34,1-2.93-1.51-3.19-3a63.15,63.15,0,0,1-.54-8.15c-.12-2.43-1-3.58-3.67-2.64a32.13,32.13,0,0,1-6.12,1.27C321.87,2136.71,321.86,2136.68,321.93,2144.38Z"/><path d="M765.57,2246.9c.11-3.54,1.08-7.22-1.63-10.34-1.28-1.47-.47-3,.44-4.33,1.3-1.92,1.38-3.56-.27-5.45-3.83-4.37-1-6.93,3.06-7.53,8-1.16,16.11-1.59,24.19-2.2,2.66-.19,4.5,1.41,4.52,4,0,2.8-2.69,2.92-4.51,2.64-5.3-.79-10.2,1.79-15.41,1.45-2.82-.19-4.29,1.27-4.09,4,.22,3,2.39,3.62,4.86,3.17,3.3-.59,6.74-.25,9.91-1.77,2.08-1,5-1.73,6.09.56,1.52,3.25-2.27,4-4.12,4.87-3.41,1.54-6.85,3.2-10.89,3.11-6.19-.15-8.88,3.9-6.11,9.35,1.26,2.48,3.35,4.42.7,7.07a4,4,0,0,1-4.34,1.08c-3.68-1.32-1.8-4.6-2.37-7A12.7,12.7,0,0,1,765.57,2246.9Z"/><path d="M422.1,2136.71c0,4.65-1,8-3.91,9.59-3.36,1.88-6.58-.89-9.28-2.49a28.85,28.85,0,0,1-8.42-7c-.9-1.18-1.95-3.15-3.78-2.18s-.67,2.89-.6,4.42c.1,2.4.34,4.8.42,7.2,0,1-.19,2.12-1.26,2.34-1.4.28-2.08-1-2.29-2-.41-2-.42-4.13-.73-6.18-.49-3.33-1.08-6.64-1.65-10-.36-2.1-.88-4.3,1.79-5.28,2.46-.91,3.37,1.08,4.49,2.63a42.91,42.91,0,0,0,14.35,13c2.13,1.15,4.29,1.52,6.35.05s1.14-3.45.9-5.34a16.15,16.15,0,0,0-2.57-7.18c-.82-1.19-1.72-2.74.13-3.65,1.45-.72,2.39.53,2.86,1.81C420.26,2130.2,422,2133.84,422.1,2136.71Z"/><path d="M53.47,2135.35c-.17-1.76-.31-3.52-.51-5.28s.25-3.45,2-4c2.24-.7,2.11,1.53,2.95,2.79,3.8,5.73,9.73,9.05,15.4,12.54,1.66,1,2.07-.9,1.9-2.22-.46-3.66-1-7.31-1.6-11-.2-1.25-.88-2.75,1-3.1,1.54-.28,2.42,1,2.6,2.29.72,5.24,1.68,10.5,1.8,15.78.11,4.79-2.93,6-6.9,3.31-3.42-2.34-6.8-4.74-10.23-7.08-2.13-1.45-4-2.23-3.56,1.74a4.89,4.89,0,0,1-.37,2.35c-.46,1.08-.46,2.82-2.23,2.64-1.38-.15-1.55-1.61-1.68-2.64-.35-2.7-.48-5.44-.69-8.16Z"/><path d="M791.35,2697.39c6.65,3,12.53,6.41,19.61,4.61,1.81-.46,3-.57,4,1s.17,3-.89,4.26c-2.32,2.79-4.87,4.57-8.76,2.93-6.19-2.62-12.82-4.14-18.42-8.17-3.73-2.68-6.76-2.6-7.16,3.1a7.56,7.56,0,0,1-.78,3.26c-1.19,2-1.42,6.07-3.9,5.57-3.47-.68-1.59-4.26-1.53-6.8.16-6.75-.41-13.44-2.81-19.85a18.73,18.73,0,0,1-1.33-3.08c-.33-1.95.46-3.92,2.25-4.47,2.71-.82,2.49,1.73,3,3.35.53,1.83-.6,4.6,1.94,5.27s4.62-1.28,6.22-3.22c2.9-3.51,6-6.84,10.49-8.2,3.9-1.18,8.3-2.38,11.59.59,2.78,2.5,1.41,6.28.51,9.58-1.25,4.58-3.87,7.56-8.85,7.87C794.92,2695.1,793.32,2695,791.35,2697.39Zm-.24-7.81c4.9-.63,9.34-.2,9.71-5.56.19-2.81-2.13-3.1-4.24-2.85-3.79.45-8,.87-8.62,5.64C787.62,2689.42,790.2,2689.65,791.11,2689.58Z"/><path d="M746.69,2703.4c-.32,7.75-3.9,11.76-8.85,13.94-5.29,2.34-9-1.38-11.74-5.45-6.5-9.63-5.91-20.91-7-31.79a2.3,2.3,0,0,1,2-2.42c9.93-2.38,19.4-7.21,30.07-5.79.91.12,1.76.23,2.12,2.27-7.81,1.87-14.82,6.41-23.08,7.64-1.85.27-4.84.12-4.35,2.92s3.24,1.57,5.14,1.4c5.95-.55,11.5-4,18.18-1.47-5.82,2.3-11.7,4.46-17.43,7-2.37,1-6.42.65-5.79,5.14.83,6,2.59,11.65,8.91,13.92,4,1.44,6.86-.77,8.67-4.46C743.86,2705.51,744.74,2705.08,746.69,2703.4Z"/><path d="M660.4,2683.36c.15,3.75.08,7.59,6.43,4.76,4-1.81,8.63-1.61,13.17-1.49,4.86.13,10.71.29,8.89-7.8-.41-1.84.67-3,2.5-3.33,2.22-.38,2.29,1.25,2.86,2.81,2.18,5.94,2.57,12.18,3.36,18.34.45,3.6.44,7.15,4.39,9.17,2.46,1.26,1.92,3.37.17,5-2,1.83-4,1.94-5.61-.63-3.37-5.35-3.77-11.53-4.55-17.5-.59-4.51-2.32-5.1-6.27-3.92a120.45,120.45,0,0,1-14.32,3.21c-8.89,1.5-10.56,4-8.53,12.81.76,3.34,4.57,8.65-1,9.44-5,.7-3.15-5.74-3.79-9.08-.6-3.08-.33-6.31-2.58-8.88-1.19-1.35-1.46-2.77-.25-4.24,2.14-2.63,1.8-5.4.46-8.19a4.22,4.22,0,0,1,1.11-5.46c.87-.77,2-1.24,3.06-.42C661.72,2679.34,660.77,2681.18,660.4,2683.36Z"/><path d="M792.87,2151.83c-3.91,0-7.75-.37-10.76-3.24-.91-.86-1.79-2.16-.67-3.38s2.25-.25,2.95.51c3.13,3.42,7.13,2.15,10.87,2.16,1.43,0,3-.35,3.42-2.09.44-2.05-1.45-2.18-2.63-2.83-6.54-3.56-9.54-9.06-8.26-15.22a8.08,8.08,0,0,1,9.73-6.34,2.87,2.87,0,0,1,2.56,3c0,2.1-1.41,2-3,2-5.18,0-6.64,2-4.43,6.79s6.29,7.53,10.88,9.66c1.09.5,2.76.25,2.76,2.08s-.4,3.5-2.27,4.44A23.2,23.2,0,0,1,792.87,2151.83Z"/><path d="M663.4,2137.86c-.27-5.06,3.85-8.38,5-12.85.08-.31.75-.54,1.19-.67,3.7-1.15,13.76,2.78,15.87,6.16,2.32,3.73,1.6,9.35-1.65,12.92-4.81,5.28-11,6.94-16.36,4.09C663.6,2145.44,663.85,2141.45,663.4,2137.86Zm10.17,6.91c4.32,0,9.77-4.66,9.76-8.36,0-3.39-4.14-7.14-7.78-7.06s-8.1,5-8.07,8.82S670.06,2144.77,673.57,2144.77Z"/><path d="M536.26,2257.77c-4.73,1-10.32-.49-15-5.26a9.19,9.19,0,0,1-2.78-4.5c-.34-1.67-1.4-4,.48-4.92,2.4-1.2,2.63,1.57,3.55,2.95,3,4.44,11.05,7.15,15.5,5,3.68-1.8,1.52-4.24,0-6-3.82-4.32-5.07-9.47-5.22-15-.21-7.87,6.63-13,14.17-10.71,2.31.7,4.22,2.44,4,4.83-.29,2.8-3.05,2.21-4.92,2.05-6.15-.51-7.21,2.69-6.52,7.93a18.69,18.69,0,0,0,8.24,13.26c2.52,1.78,4.62,3.4,3.38,7s-4.27,3.55-7.17,3.65C542,2258.17,539.94,2257.94,536.26,2257.77Z"/><path d="M364.47,2596.55c-21,.13-33.48-19.52-24.4-38.37,4-8.3,11.76-8.51,19.28-9.12,6.93-.57,12.22,2.74,16.33,8,1.3,1.67,2.18,4.08.39,5.81-2.23,2.15-3.75-.4-5.26-1.58-5.91-4.65-12-6.55-19.22-2.69-8.9,4.74-10.78,15-3.78,22.52,10.62,11.39,32.8,9.28,43.48-4.09,1.63-2,2.29-7.05,6.29-3.79,3.32,2.7-.23,5.41-1.88,7.69C389,2590.32,376.49,2596.48,364.47,2596.55Z"/><path d="M484.36,2242.44c.06,12.22-5.05,17.81-16,18.54-5.7.38-13.28-6.45-15.79-14.41-1.62-5.14-3-10.36-4.57-15.51-.73-2.38-1.16-4.63,2-5.25,2.75-.53,4,1,4.46,3.73a80,80,0,0,0,5.41,18c2.48,5.85,6.77,7.11,12.65,5.45,5.55-1.56,7.61-4.94,7.1-10.5-.42-4.5-.54-8.95-4-12.51a5,5,0,0,1-.51-6.28c.69-1.17,1.82-2.19,3.33-1.64,2.23.81,2.62,3.05,3,5C482.46,2232.5,485.31,2237.68,484.36,2242.44Z"/><path d="M243.6,2239.69c-.83-5.72,1.8-9.76,5.12-13.13a11.21,11.21,0,0,1,11.32-2.84c4.14,1.29,4.91,6.1,7,9.45a1.76,1.76,0,0,1-.92,2.76,3.92,3.92,0,0,1-4.2-1.57c-3.12-3.7-6.68-4.7-10.51-1.46s-4.4,8.15-2.55,12.39c3,6.9,15.4,7.79,20.53,2.15,1.68-1.85,2.25-7.27,5.85-4.51,3.31,2.53-.78,5.55-2.47,7.86-4.87,6.68-11,8.72-18.19,6.48C247.12,2255,244,2249.86,243.6,2239.69Z"/><path d="M94.37,2134.27a51.65,51.65,0,0,1,1.25-5.12c2.73-7.85,9.31-9.12,15-3,.88,1,2,1.94,1,3.26-.83,1-2.19.62-3.1-.06-2.38-1.78-5-3.84-7.73-1.55-3.17,2.71-2.79,6.7-1.67,10.35,2.07,6.76,9.46,9.58,16.46,6.56,1.23-.53,2.86-2.72,4-.48.82,1.62-1.23,2.76-2.44,3.72-6.62,5.22-16.22,2.69-20.07-5.48C95.75,2139.89,94.22,2137.4,94.37,2134.27Z"/><path d="M120.26,2257.7c-5.77.18-12.53-8.16-12.88-15.89-.38-8.44,5.46-17,11.8-17.37,7.46-.4,18.33,10.21,18.68,18.23C138.19,2250.09,129.61,2257.41,120.26,2257.7Zm2.18-6c5.41,0,11.55-4.94,11.55-9.35,0-5.41-6.34-9.82-14-9.58-5.37.17-7.39,3.83-7.69,8.46C111.94,2246.64,117.12,2251.72,122.44,2251.74Z"/><path d="M396.54,2260.35c-9.33-.18-14.81-7.21-13-17,1.09-5.85,5.14-10.36,7.73-15.54.92-1.84,2.88-1.67,4.78-1.16,7.51,2,16.5,15.67,15.34,23.44C410.62,2255.27,403.09,2260.47,396.54,2260.35Zm-2-5.84c7.58-.19,12.13-3.63,12-7.69-.12-3.37-7.09-13.13-9.4-13.17s-8.95,9.11-8.56,12.7C389.05,2250.88,391.27,2254.21,394.54,2254.51Z"/><path d="M440.19,2689.88c-6.64,9-6.6,10.09.86,18,1.77,1.89,1.53,3.64-.22,5.25-2.25,2.06-4.61,2-6.28-.6s-2.94-5.54-4.4-8.31c-1.31-2.47-1.53-7-4.95-6.32-4.37.86-9.58,1-12.58,5.43-.88,1.29-1.33,2.89-2.29,4.1s-.54,4.89-3.69,3.43c-2.42-1.11-1.73-3.6-1.67-5.93.23-8.07,7.13-13,9.12-20.28,1-3.65,1.69-9.26,6.19-9.53,4.24-.25,3.51,5.48,5,8.44C428.53,2690,432.88,2692.6,440.19,2689.88Z"/><path d="M495.3,2678.78c-4.06,7.69-2,16-1.16,24.23.17,1.77-.22,3.8,1.73,4.8,1.79.92,3.26,1.85,1.93,4.07a5.34,5.34,0,0,1-5.24,2.42c-2.26-.16-2.83-2.09-3-3.9-.77-6.93-1.61-13.86-2-20.82-.32-5.14-1.38-8.2-7.68-6.44-4.72,1.33-9.75,1.57-14.65,2.21-2.59.34-5.4.27-5.63-3.1-.18-2.7,1.95-3.65,4.52-3.91,8.73-.89,17.44-1.94,26.16-2.87C492.56,2675.22,494.86,2675.27,495.3,2678.78Z"/><path d="M426.66,2136.79c.73,1.5-.12,2.24-.46,3.08-.9,2.2-1.57,4.38.95,6a6.9,6.9,0,0,0,7.34.21c2-1.08,1.52-2.5.32-4a36.46,36.46,0,0,1-5.15-8.1c-1.39-3.08-1.15-6,1.24-8.48a9.29,9.29,0,0,1,9.69-2.68,2.55,2.55,0,0,1,2,3.32c-.47,2.1-1.94,1.08-3.05.76-2-.55-3.74-.7-5.25,1.11-1.73,2.07-1.35,4.29-.34,6.33a25.15,25.15,0,0,0,5.48,7.25c3.42,3.18,2.39,7.21-2.1,8.29-3.25.79-6.57,1.33-9.85-.49C421.68,2146.19,421.24,2141.27,426.66,2136.79Z"/><path d="M127,2133a20.26,20.26,0,0,1,.9-4.62c1.44-3.64,5.36-4.61,8.63-2.58,4.18,2.59,6.55,6.42,8.13,10.91,1.76,5,.39,8.41-4.86,10.91-4.15,2-7.25-.67-9.59-3.37S126.72,2137.82,127,2133Zm3.88,1.75a28.39,28.39,0,0,0,1.42,5.09c1.26,2.67,3.4,4.48,6.51,3.14s4-3.78,2.42-7.05a15.13,15.13,0,0,0-3.35-4.56c-1.26-1.2-2.33-2.89-4.4-1.8C131.59,2130.52,130.82,2132.23,130.85,2134.73Z"/><path d="M780.24,2052.39c.13-3.61.89-6.18-1.91-7.91-1-.61-1.46-2.61-.65-3.1,4.7-2.85,2.08-6.77,1.85-10.34-.15-2.31.62-4.09,3.26-3.42,6.17,1.56,12.33.56,18.49.32,1.82-.07,3.52,0,4.61,1.72a2.22,2.22,0,0,1-.1,2.7c-1.4,1.82-3.08,1.7-5.17,1.08-4.62-1.37-9.23-.09-13.82.62-1.58.25-3.21.64-2.92,2.79s1.54,3.42,4,3.12c4-.5,8.08-.92,12.12-1.31,1.52-.15,3.48-.46,3.88,1.47s-.84,3.09-2.93,3.54c-4,.85-7.82,2.16-11.94,1.82-4.75-.38-5.29,2-3.83,5.75.35.89,1.24,1.65,1.35,2.54a5.1,5.1,0,0,1-3.52,5.4c-2.88.88-2.43-2.17-2.72-3.89A13.24,13.24,0,0,1,780.24,2052.39Z"/><path d="M742.87,2054.39c-8.38,0-13.42-4.11-13.64-11-.23-7.28,6.38-15.46,13.06-16.1a3.09,3.09,0,0,1,2.09.57c3.31,3,7,5.6,9.68,9.09,5.7,7.59,1.31,16.46-8.29,17.44C744.81,2054.47,743.83,2054.39,742.87,2054.39Zm-2.23-5.32c7.71-.28,11.66-3,11.41-6.72-.19-2.95-6.37-8.74-9.17-8.6-4.1.2-10.19,5.78-9.69,9.24C733.92,2048.15,738,2048.87,740.64,2049.07Z"/><path d="M510.49,2047.36a48.08,48.08,0,0,0-1.83-13.92c-.64-2.67-.22-5.18,2.51-5.44s1.63,2.83,2.29,4.44c1.08,2.65-1.61,6.84,1.55,7.8,2.18.66,3.34-3.74,5.3-5.49,4.67-4.18,10.42-6.66,16.08-9.13,3-1.32,5.77,1.64,5,5.5a30.87,30.87,0,0,1-2.91,8.15c-1.33,2.57-3.6,4.66-.63,7.63s6.15,3.87,10,2.73c1.86-.55,4-3.16,5.39-.18s-1.64,4.3-3.75,5.57c-4.64,2.77-9.33,2-12.8-1.54-4.79-4.91-11.2-4.54-16.89-6.48-2.25-.78-3.14.89-3.67,2.66-.67,2.22-1.11,4.5-1.83,6.7-.57,1.74-.87,4.34-3.65,3.27-2.45-.94-1.74-3.22-1-5A16.77,16.77,0,0,0,510.49,2047.36Zm18.22-6.09c4.13-.06,5.45-3.54,7.23-6.39.73-1.17,1.19-2.92-.26-3.59-2.68-1.25-4.66.93-6.79,2.11-.67.38-1.27.87-1.94,1.23-1.82,1-4.49,1.82-3.9,4.29S526.72,2040.32,528.71,2041.27Z"/><path d="M167.08,2050.32c1.7.15,3.59-1.4,4.31.84.5,1.57-1.34,2.14-2.19,3.12-2.39,2.76-5,3-8.31,1.39-5.32-2.6-10.08-6.24-16.29-7.19-4-.61-5.43.17-6.19,4.07-.3,1.53.28,5.26-3,4.49-2.68-.63-1.66-3.4-1.41-5.5.69-5.75,1.61-11.48-1.16-17.07-.73-1.48-.73-3.89,1.43-4.4,2.49-.58,1.88,1.9,2.08,3.2.77,5,2.44,6,6.15,1.92,3.08-3.43,7.59-4.63,11.67-6.3,2.65-1.09,6.44-1.52,7.85,1.18,1.66,3.19.39,7-2.58,9.39-1.93,1.55-4.44,2.34-6.57,3.66-1.37.85-2.88,2.71-.38,3.28C157.5,2047.57,161.81,2051.47,167.08,2050.32Zm-11.19-15.6c0-.86-.45-1.76-1.25-1.59-3.41.73-6.56,2.07-8.86,4.83-.58.69-.07,1.38.71,1.8C148.78,2041,155.91,2037.18,155.89,2034.72Z"/><path d="M435.06,2062.16c-4.63-.73-6.3-5.76-7-10.24-.85-5.31-3.13-10.81-.6-16.34a4.87,4.87,0,0,0,.11-1.72c.23-8.58.23-8.74,9.3-8.86a43,43,0,0,0,12-1.55c1.73-.52,3.61-1,4.12,1.52.46,2.31-1.08,2.94-3,3.26-4.58.73-9.14,1.64-13.71,2.39-2.26.37-3.68,1.31-3.13,3.83.52,2.35,2.19,2.33,4.07,1.86,3.38-.85,6.76-1.71,10.16-2.42,1.6-.34,3.73-1.17,4.13,1.49.3,1.91-.87,4-2.71,3.75-4.26-.51-7.22,2.43-10.9,3.34-2.2.55-5.64.11-5.08,4,.47,3.38.33,7.4,4.2,8.95,3,1.19,5.66-.18,7.59-2.79a21.94,21.94,0,0,1,2.2-2.68,2,2,0,0,1,2.59-.53c1,.7.43,1.76.19,2.68C448.28,2057,441.44,2062.2,435.06,2062.16Z"/><path d="M640.38,2046c-.17,2.93,0,6.44-3.5,8.28s-5.1-1.56-7.42-3-3.63-4-5.35-6.06c-1.08-1.29-1.59-3.4-3.84-2.88s-1.87,2.6-2.36,4.22a27.14,27.14,0,0,1-5.39,9.54c-1.54,1.84-2.89,2.49-4.34-.2-3.18-5.9-4-12.48-5.56-18.83-.38-1.52,0-3.25,2-3.66,1.68-.35,2.25,1,2.93,2.25,1.57,2.83,1.2,6,2,9,.28,1.07,0,2.53,1.41,2.89,1.73.46,2.51-1,2.86-2.24,1.11-3.92,3.9-6.59,6.47-9.49,2.23-2.53,3.68-2.31,5,.73a28.52,28.52,0,0,0,5.92,9.2c.94.9,2,2.29,3.47,1.51s1.48-2.38,1.16-4.09c-.72-3.8-1.22-7.65-1.62-11.5-.17-1.68-.26-3.88,2.08-4.14,2.63-.29,2.25,2,2.43,3.65C639.22,2036,639.79,2040.8,640.38,2046Z"/><path d="M418,2040.77c-.33,4.23-.37,7.16,1.39,10.1s-.78,5.22-2.84,6c-2.59,1-3.4-1.71-3.79-3.92,0-.19,0-.39-.06-.58-1.5-12-1.82-12.27-13.63-9-1.48.4-2.85,1.51-4.33,1.63-4.52.38-6.1,2.64-5.27,7,.47,2.51-.16,5.43-2.86,5.3-2.3-.11-2.44-3.18-3.07-5.52-1.59-5.95,1.23-11.42,1-17.15-.06-1.75.36-3.8,2.72-3.67,2,.12,2.26,1.83,2.06,3.5-.58,4.92,2,6.08,6.3,5.53,2.68-.35,5.44-.15,8.09-.6,3.84-.65,7.93-1.18,6.09-7.11a3.32,3.32,0,0,1,3.05-4.2c2.48-.29,3.31,1.35,3.63,3.55C417,2035,417.64,2038.42,418,2040.77Z"/><path d="M350.63,2027.23c6.5.78,12.61-1.5,18.9-2.35,1.83-.25,3.64-.39,4.37,1.72a3.93,3.93,0,0,1-1.28,4.73c-8,5.51-5.31,13.56-4.84,21,.11,1.71.78,3.29-.18,4.94s-1.91,3.74-4.29,3.1-1.68-2.74-1.64-4.43c.12-6,.17-12,.45-18,.18-3.91-1.32-5.37-5.2-4.51-4.84,1.08-9.62.1-14.42-.52-2-.25-3.49-1-3.42-3.12.08-2.44,1.73-3.21,4-3C345.6,2027,348.12,2027.08,350.63,2027.23Z"/><path d="M669.94,2060.66a33.2,33.2,0,0,1-19.6-6.21c-.91-.65-2.55-1-2-2.41.81-1.93,2.41-.71,3.38-.08,5.41,3.51,11.26,3.84,17.37,2.72,1.33-.24,2.89-.27,3.08-2,.17-1.46-1.28-1.77-2.27-2.26-5.42-2.73-6.86-8.21-8.64-13.2-1.18-3.32-.88-7.43,2.53-9.45,3.76-2.23,8.06-3.91,12.65-3,1.34.28,3.07,1.29,2.79,3.22-.22,1.59-1.72,1.19-2.81,1.23-3.69.12-8.4.07-9.55,3.74-1.45,4.62,1.6,9,4.73,12.51,1.76,2,4.33,3.2,6.53,4.77,1.84,1.33,4.42,2.31,3.56,5.29a6,6,0,0,1-6,4.59C673.79,2060.2,671.86,2060.48,669.94,2060.66Z"/><path d="M68.44,2053.61c-.21,1.73-.52,3.07-2.08,3.54a2.88,2.88,0,0,1-3.45-1.51c-1.7-2.8-3-5.85-5-8.49-4.15-5.71-11.79-4.64-14.89,1.81a66.27,66.27,0,0,1-3.94,6.4c-.82,1.31-1.61,3-3.56,1.94s-1.59-2.79-.8-4.54a110.06,110.06,0,0,1,8.09-15.15c2.29-3.47,2.22-9.89,6.75-10,4.07-.14,5,6,7.69,9.14,4,4.67,5.24,11.24,10.45,15.09C68.25,2052.17,68.29,2053.17,68.44,2053.61Z"/><path d="M228.7,2060.11c-4.58.08-8.22-2.46-12.11-4.06a3.11,3.11,0,0,1-.89-5c1.56-1.77,2.57.21,3.7,1.17,2.88,2.46,12.51,3.05,15.37,1s.7-3.29-.69-4.53c-4-3.59-8.63-6.62-10.16-12.33-1.85-6.89,1.87-11.65,8.85-11.27,2.3.12,3.84.94,4.06,3.21.24,2.44-1.7,2.55-3.5,2.85-5.29.87-6.87,4.34-3.07,8.12s6,9.36,12.12,10.32c1.51.23,2.14,1.52,2,3.09-.18,2.26-.86,4.08-3.26,5C237.07,2059.22,232.81,2059.5,228.7,2060.11Z"/><path d="M265.83,2059.71c-4.66-.81-11,.19-13.61-6.81-.67-1.83-1.69-4.28.13-5.35,2.47-1.45,2.31,1.63,3.11,2.88,2.18,3.4,9.8,4.92,13,2.54,2.67-2,.29-2.73-.88-3.81-5.25-4.84-9.86-10-7.82-18,1.07-4.23,4.75-6.55,8.76-5.42,2.14.6,3.45,2.11,3.23,4.22s-2.09,1.61-3.65,1.41c-3.58-.45-3.74,1.67-3.2,4.37a14.88,14.88,0,0,0,6.81,10.32c3.29,2,4.8,4.59,3.52,8.21C273.87,2058.18,270.81,2060,265.83,2059.71Z"/><path d="M565.11,2041.56c.22-9.33,3.73-13.1,12.06-12.91,5.59.13,11.26,7.66,11.23,14.9,0,6.84-6.65,13.4-13.09,13C570,2056.18,565,2048.78,565.11,2041.56Zm5.16-1.81c0,6.69,3.28,10.83,7.83,10.39,3.75-.37,5.88-2.8,6-6.58.2-4.42-5.73-11.76-9.36-11.06C570.63,2033.31,570.71,2037.36,570.27,2039.75Z"/><path d="M191.35,2054.09c-5.44.23-9-3.77-10-10.68-.81-6,1.83-11.08,6.34-12.14,5.37-1.27,15.72,4.4,17.65,9.67,1.69,4.61-3,11.2-9.14,12.59A38.82,38.82,0,0,1,191.35,2054.09Zm1-4.81c4.26-.86,8.38-1.27,9.12-6.07.36-2.37-7.12-6.43-11.26-6.26-3.7.15-5.21,2.84-4.92,5.87C185.64,2047,189.23,2048.24,192.31,2049.28Z"/><path d="M95.05,2029.29c3.32-.12,6.7-.38,8.88,2.93a3.06,3.06,0,0,1,.26,3.31c-.8,1.33-1.9.8-3,.1a10.33,10.33,0,0,0-12.47.32c-3,2.19-2.25,6-.79,8.59,2.48,4.44,6.64,6.8,12,6.87,4.26.06,7.15-2.52,10.27-4.8.71-.52,1.67-1.29,2.59-.56a1.64,1.64,0,0,1,0,2.58c-4.5,3.64-9.24,7.6-15.21,7.32-5.43-.25-10.6-2.85-13-8.19C80.16,2038.28,82.26,2028.62,95.05,2029.29Z"/><path d="M516.36,2129.23c-.06-.8-.15-1.6-.15-2.4a2.18,2.18,0,0,1,2.32-2.47c1.52,0,2.19,1,2.28,2.55.23,3.67.38,7.36.86,11,.75,5.61,3.62,6.93,8.64,4.21,1.3-.71,2.86-2.38,4.06-.36,1,1.64-1,2.45-2,3.32-7.53,6.2-13,4.28-14.87-5.34-.67-3.45-.82-7-1.21-10.51Z"/><path d="M537.94,1964.65c.75-9.13.31-17.48-2.88-25.51-.76-1.9-1.18-3.79,1-4.87,2.82-1.4,3.62,1.15,4.72,2.85.37.57.4,1.36.73,2,1,1.92.59,5.22,3.48,5.38,2.34.13,3-2.53,4.09-4.35,5-8.3,13.21-9.9,21.89-9.92,2.72,0,5.89,1.35,6.8,4.17s-.33,5.41-2.36,7.73c-3.23,3.68-7.74,4.11-12,5.31a4.49,4.49,0,0,0-2.71,1.85c-.48,1.19.74,2,1.81,2.61,5,2.63,9.83,5.57,15,7.79,3.81,1.63,7.3.12,10-3.11.84-1,1.62-2.68,3.3-1.39,1.4,1.08.62,2.47.11,3.82-2.26,6-10.17,9.3-16.47,6.25-7.53-3.63-15-7.48-22.13-11.82-4.12-2.5-5.29-1.34-6,2.73-.49,3-1.31,5.95-2,8.91-.56,2.31-1.89,3.91-4.46,3.49C537,1968.08,538.11,1965.72,537.94,1964.65Zm29.13-29.85c-4.14.77-9.14,0-12.67,3.93-1.1,1.24-2.15,2.63-1.32,4.4.92,2,2.66,1.42,4.28,1.18a32.24,32.24,0,0,0,11.75-4.31c1.47-.88,3.1-1.74,2.53-3.65S569.06,1934.77,567.07,1934.8Z"/><path d="M132.33,1948.22c5.89-10.46,12.55-16.39,23-17,3.74-.21,8.36-.11,8.9,3.46.57,3.83.9,9.07-3.74,11.89a32.72,32.72,0,0,1-4.4,2.18c-3.76,1.6-4.57,4-.43,5.49,6.39,2.29,12.63,6.39,20.06,3.33,1.74-.71,4.32-1.85,5.09,1.44.57,2.49-1,4.2-3.06,4.93-4.32,1.55-8.78,1.08-13.12-.13-7.66-2.15-15.16-4.87-21.47-9.85-5.37-4.25-6.69-1.17-7.5,3.56-.4,2.29-.7,4.6-1.22,6.86-.37,1.63-1.06,3.27-3.12,3.22-2.28-.07-2.46-2.15-2.57-3.62-.57-7.92-.84-15.81-4.85-23.09-1.22-2.22.3-4.9,2.89-5.55,3.16-.79,2.94,2.15,3.44,4.07C130.76,1941.64,131.27,1943.86,132.33,1948.22Zm14.52-2.18c4.49-.83,9.48-1.34,11.5-6.46.91-2.3-1.42-2.63-3.08-2.33-4.75.85-10.28.83-12.49,6.12C141.94,1945.38,144.69,1946.06,146.85,1946Z"/><path d="M29.59,1961.82c1-4.75,2-9.12-5.19-8.32-1.23.13-2-1.11-2-2.42s.46-2.7,1.6-2.88c8.68-1.4,5.66-7.39,5-12.45-.09-.7-.27-1.39-.31-2.09-.13-2.16-2.12-5.49,1-6,3.71-.67,3.91,3.16,4.22,5.91,1.56,13.79,1.51,13.59,15.32,11.83,6.67-.85,11-2.63,8.49-10.61-.57-1.83-1-4.76,2-5.12s2.9,2.56,3.43,4.49c1.69,6.18,1.74,12.57,2,18.9.19,4.27.08,8.43,2.88,12.07,1.8,2.35,1.07,4.8-1.42,5.85s-4.33-.64-5.22-3.21c-1.5-4.32-1.28-8.83-1.41-13.27s-2.25-5.76-6.37-4.64c-5.18,1.42-10.07,3.92-15.65,3.83-2.28,0-2.88,1.6-1.66,3.35,1.1,1.58,2.24,3,1.8,5.07-.62,3-.94,7.31-4.24,7.2C30,1969.14,29.65,1964.91,29.59,1961.82Z"/><path d="M777.64,1930.8c8-1.36,15.13,1,22.12,4.86,6.26,3.47,8.72,10.46,4.81,16.42-5.69,8.66-14.21,13.6-24,16-6.86,1.68-12-3-12.22-10.1a79.32,79.32,0,0,0-3.62-20c-1.71-5.72-.45-8.09,5.76-7.2A51.52,51.52,0,0,0,777.64,1930.8Zm3.55,5.55c-11,.37-10.92.36-9.21,10.6.73,4.36,2.43,8.55,2.11,13.1-.18,2.53,1,4.58,3.68,3.45,8.15-3.48,16.38-7.06,21.62-14.79,1.78-2.62,1.89-6-1.31-7.16C792.52,1939.47,787.62,1934.92,781.19,1936.35Z"/><path d="M259.3,1929.87c3.75,0,7.5-.06,11.25,0,1.88,0,4.22.25,4.39,2.55.21,3-2.57,3.06-4.55,3a113.81,113.81,0,0,0-18.91,1.24c-1.57.21-3.84-.22-3.95,1.9s2.19,2,3.74,2.32c7.26,1.72,14.5.25,21.74-.2,1.83-.12,4.18-1,4.38,1.82.17,2.33-1.93,2.86-3.94,3-6.07.56-12.16,1-18.2,1.81-2.3.32-6.28-1.43-6.59,1.88-.39,4.2-.42,9.08,3.52,12.27,2.79,2.26,6,2.85,9,.41a22,22,0,0,0,3.27-3.61c.85-1,1.47-2.91,3.12-1.82,1.21.81,1.1,2.65.39,3.91-2.89,5.12-6.49,9.21-13.18,8.8-6.07-.36-8.62-4.46-9.68-9.51a190.11,190.11,0,0,1-3.08-20.14c-.76-7.68,1.9-10.2,9.54-10,2.57.06,5.15,0,7.73,0Z"/><path d="M732.47,1937.22c5.47,2,8.9-.3,12.52-.64,2.12-.2,4.93-1.07,5.46,1.43.65,3-2.32,2.56-4.38,2.84-5.78.8-11.05,3.51-16.64,5.07s-1.25,7.37-1.51,11.2c-.22,3.36,1.87,6.22,5.87,6.65,3.82.42,5.54-1.54,6.21-5.08.36-1.92,1.69-3.91,3.77-3.32,2.88.82,1.92,3.62,1.18,5.35-2.27,5.3-5.24,10.18-12,10.26-5.07.06-10.33-6-11.22-13.43-.61-5.14-1.4-10.19-2.5-15.23-1-4.54,4-10.31,8.73-11,6.42-.94,13.11,0,19.28-2.89,1.91-.91,4.58-1.15,4.85,2,.22,2.57-1.92,3.31-4.23,3.65C743.22,1934.73,738.29,1934.33,732.47,1937.22Z"/><path d="M84.18,1942.67c1.33-3,.79-4.63-1.65-5.74-1.55-.71-2.82-1.85-2-3.87a4.32,4.32,0,0,1,4.36-2.93c6.38.24,12.63,0,18.47-3.15,1.87-1,3.76-.33,4.38,2s-.75,3.4-2.84,4a81.87,81.87,0,0,0-8,2.5c-1.65.64-4.16,1.16-3.85,3.46.36,2.71,3,1.33,4.64,1.67,2.86.6,5.56-.39,8.3-1,1.4-.31,3.1-.41,3.58,1.2.6,2-1,3-2.66,3.37a58.85,58.85,0,0,1-9,1.53c-5.79.32-7.24,3.28-5.82,8.43.43,1.58.43,3.35,1.14,4.78,1.48,3,1.73,7.41,6.36,7.44,4.24,0,5.93-3.09,6.92-6.77.47-1.74,1-4.1,3.63-3,2.12.83,1,2.72.77,4.28-1,5.66-3,10.36-9.55,11.31-6.8,1-10-2.67-12.84-8.35C85.1,1956.79,86.2,1949.21,84.18,1942.67Z"/><path d="M325.21,1936c.13,8.63-1.82,17.21-.3,25.9.51,2.9-.66,6,1.83,8.64,1.71,1.78.19,3.52-.85,5a3.24,3.24,0,0,1-3.73,1.3c-2.3-.67-2.35-2.68-2.44-4.56-.35-7.26-1-14.54-.89-21.8.07-4.77-1.33-5.93-6.1-5.59-9,.64-22-10.49-23.36-19.16a2.79,2.79,0,0,1,1.72-3.39c2.09-.91,3.72,0,4.83,1.69,2.37,3.74,4,7.88,7,11.31s6.25,4.32,10.53,4.34c3.82,0,5.18-1.51,4.91-5a32.91,32.91,0,0,0-.9-6.27c-.87-3.11-.84-6,2.89-6.53s4.44,2.86,4.76,5.65A76.58,76.58,0,0,1,325.21,1936Z"/><path d="M527.67,1933.05c-.1,2.85-1.49,4.5-4.85,4.11s-4.78,1-4,4.51c1.39,6.11.29,12.6,3.22,18.55a5.56,5.56,0,0,1-.8,6.54c-1.27,1.24-2.12,3.36-4.5,2.52-1.88-.66-2-2.37-2.22-4-.77-6.74-1.83-13.47-2.28-20.23-.41-6.14-3.29-8.2-9.17-7.26-4.16.66-8.39.91-12.6,1.16-2.69.15-5.62-.21-5.48-3.77.12-3.14,2.92-2.16,4.91-2.36,10.71-1.07,21.42-2.21,32.13-3.29C524.67,1929.23,527.47,1928.81,527.67,1933.05Z"/><path d="M407.57,1971.5c-6.94.25-11.92-3-12.6-8.44-.21-1.73-.82-4.18,1.5-4.87s2.45,1.69,3,3.12c1.23,3.36,3.57,4.92,7.06,4.46,4.05-.54,8.78-1.66,10-5.44,1.21-3.6-2.3-6.52-5.59-8.66-6-3.88-7.82-10-7.09-16.57.53-4.69,4.81-6.59,9.19-7.46,1.53-.31,3.46-1.21,4.13,1.11.59,2.07.58,3.92-1.77,5.45-6.29,4.07-6.59,8.06-1.34,13.55a29.79,29.79,0,0,0,4.11,3.84c3.72,2.6,7.8,4.94,5.8,10.57s-6.82,8-12.2,9.29A18.56,18.56,0,0,1,407.57,1971.5Z"/><path d="M607.48,1932.62c2.81-.6,4.86.89,6.12,3.37q6.2,12.18,12.14,24.5c1,2,1.31,4.85-.82,5.64s-4.37-1-5.39-3.36c-1.2-2.8-2.43-5.58-3.54-8.41-1-2.66-1.79-5.34-5.52-5.4a7.79,7.79,0,0,0-7.43,4.39c-1.6,2.84-2.29,6.22-5.12,8.31-1.42,1-3,1.66-4.49.51s-.12-2.51,0-3.83c.73-8.82,8.69-14.7,9.43-23.54C603.06,1932.36,605.28,1932.33,607.48,1932.62Z"/><path d="M676,1938.4c.55-2.82-3-8.92,2.73-9.13,4.83-.18,2.35,6,3,9.4s.47,7,1.25,10.42c2.64,11.38,8.16,15.6,22.64,12.43,3.7-.82,6-2.57,5.87-6.57-.05-1.83.15-3.44,2.56-3,1.82.3,1.85,1.88,1.87,3.28.06,3.78-1.77,6.69-4.41,9.18-9.13,8.64-25.12,6.1-31.26-4.87C676.65,1953.11,676.14,1946.16,676,1938.4Z"/><path d="M377.37,1935.63a31.21,31.21,0,0,1-15.91,6.54c-6.08.54-7.62,3.51-4.92,8.28,2.18,3.84,3,13,10.89,4.74a1.4,1.4,0,0,1,2.35.36,3.81,3.81,0,0,1,.19,2.68c-1.53,3.21-3.58,6.7-7.29,6.76-3.25,0-7.17-.81-8.84-4.49a65.42,65.42,0,0,1-5.79-21.62c-.27-3.25,1.26-5.85,4.34-3.92,7.48,4.68,14.35-.2,21.47-.46a10.86,10.86,0,0,0,2.49-.68Z"/><path d="M643.35,1930.48c3-.14,3.78,1.57,4.13,3.94.91,6,2.29,12,2.28,18.13,0,3.1-1.69,7.54,4.44,7.17,1.07-.06,1.85,1.62,1.32,2.8a10.66,10.66,0,0,1-6.8,5.67c-2,.63-3.19-.89-3.37-2.65-.39-4-.63-7.94-.69-11.92-.09-6.11-.13-12.15-3.61-17.62C639.25,1933.18,640.15,1931.09,643.35,1930.48Z"/><path d="M357.79,1954.41c-2.09-.12-4.21-.1-6.27-.41a3,3,0,0,1-2.78-3.44,2.83,2.83,0,0,1,3.35-2.81c10.21,1.12,19.91-2.52,29.93-3.07,1.9-.11,4.82-1.32,5.29,1.71s-2.05,3.86-4.65,3.81C374.13,1950,366.44,1955,357.79,1954.41Z"/><path d="M333.88,2254.46c-.32,1.95.34,4.55-2.48,4.84s-3.1-2.09-3.15-4.14a69.85,69.85,0,0,0-4.47-24.25c-.82-2.07-.16-4.67,2.68-5.27s3.29,1.67,3.6,3.7C331.37,2237.72,332.62,2246.12,333.88,2254.46Z"/><path d="M132.59,2699.14c-.55,3.28,1.09,8.86-3.34,8.82s-2-5.5-2.37-8.49c-.56-5.36-.41-10.79-.5-16.2,0-1.93-.84-4.37,1.79-5.19,2.45-.76,4.49.57,5.77,2.55,4.47,7,11.51,10.23,18.68,13.45,4.42,2,7.53,2.11,9.22-3.46,1.23-4,3.28-7.84,5-11.73.56-1.27,1.31-2.51,2.91-2.36s1.89,1.67,2.21,3c1.8,7.42,3.93,14.79,5.27,22.29.83,4.71,2.53,5.91,6.69,3.66,1.57-.85,3.45-2.08,4.61.25.93,1.85-1.05,2.8-2.18,3.7-2.39,1.88-4.52,4.81-8.21,3.42-3.14-1.19-3.75-3.91-4.23-7a109.69,109.69,0,0,0-3.16-12.42c-.37-1.31-1.13-2.67-2.73-2.55-1.21.08-1.65,1.28-2.09,2.37-1.44,3.55-.79,8.88-5.77,9.66-5.18.82-10-1.54-14.58-4-2-1.08-3.75-2.52-5.78-3.46s-3.4-4.6-6.14-3.13S133,2696.79,132.59,2699.14Z"/><path d="M294.21,2684.41c0,13.26-12.8,28.68-24.91,31a11.22,11.22,0,0,1-8.94-1.9c-1.1-.77-2.36-1.88-1.45-3.31,5.81-9.18,1.08-18.17-.43-27.2-.29-1.71-1.74-3.36-1-5.14.89-2,3.1-4.95,4.52-1.62,2,4.72,3.81,2.32,5.87.91,5.9-4.06,12.61-3.4,18.81-2.18C291.27,2675.87,295.46,2679.16,294.21,2684.41Zm-27.5,11.68c.3,3.59.61,7.18.89,10.78.17,2.33,1.14,3.14,3.55,2.4,6.71-2.08,17.35-16.14,17.76-23.38.12-2.13-.18-3.33-2.5-3.89C276.23,2679.57,265.56,2680,266.71,2696.09Z"/><path d="M90.16,2694.1c-3.56,4.48-8.4,1.18-11.79,3.53-1.55,1.09-4.35.66-4.58,3.3-.21,2.41,1.52,3.61,3.62,4.19,2.33.64,3.57,1.9,2.81,4.41-.58,1.92-1,4.23-3.45,4.48s-3.59-2-4.3-3.71c-2.4-5.85-4.63-11-12.88-9.5-4,.73-6.51,1.61-8,5.66-1.36,3.8-3.27,10.31-7.34,8.63-5.18-2.14-.28-7.37.83-11.07,2.76-9.2,8.82-17.14,10.2-26.91.45-3.25,2.46-3.48,4.77-1.55a5,5,0,0,1,1.94,2.63c2.23,15.85,13.41,16.32,25.65,15.09C88.24,2693.23,88.84,2693.65,90.16,2694.1Z"/><path d="M234.42,2689.66c-6,2.31-11.93,5.07-18.13,6.78-4.73,1.3-4.38,3.84-2.93,7,1.6,3.43,4.09,5.47,8,2.92a14.61,14.61,0,0,0,2.57-2.14c1.34-1.39,2.58-4,4.73-1.84,1.57,1.6-.79,3.23-1.7,4.53a36.31,36.31,0,0,1-4.72,4.81c-5.36,5.14-11.48,3.62-13.11-3.7-1.78-8-4.56-15.75-4.29-24.15.16-4.75,1.1-7.7,6.63-8,7-.38,13.9-1.55,20.88-.35,2.1.36,5.11.2,4.9,3.37s-3,2.44-5.24,2.57c-5.61.33-11.21,1-16.83,1.26-3.53.16-5.11,1.77-4.38,5.1.78,3.57,3.59,2.87,5.95,2C222.48,2687.84,228.19,2686.47,234.42,2689.66Z"/><path d="M110.87,2707.31c-.09,2.19.13,4-2,4.24a2.93,2.93,0,0,1-3.28-2.72c-1.35-8.82-2.19-17.73-5-26.3a3.44,3.44,0,0,1,2.51-4.22c2.82-.85,2.39,1.69,2.73,3.32C107.62,2690.38,107.59,2699.48,110.87,2707.31Z"/><path d="M35.74,2136.73c.26,2.7.6,5.4.74,8.11.07,1.5-.43,3.14-2.12,3.29-2.07.18-2.09-1.72-2-3.09a67.27,67.27,0,0,0-.88-16.76c-.28-1.39,0-3.27,1.81-3.39,1.93-.14,2,1.83,2.08,3.18.15,2.88,0,5.77,0,8.65Z"/><path d="M464,2129.66a71.5,71.5,0,0,0,0,13.72c.15,1.91.1,4.51-2.37,4.41s-1.72-2.64-1.48-4.28a70.57,70.57,0,0,0,.44-13.86c-.09-1.71-1.28-4.52,1.61-4.41C464.47,2125.32,464,2128.1,464,2129.66Z"/></svg>