<svg xmlns="http://www.w3.org/2000/svg" width="721.58" height="1001.01" viewBox="0 0 721.58 1001.01"><title>c34-txt</title><path d="M494.37,908.47c.7-4.24-.66-8.49,3.94-9.35,4.38-.82,5.65,2.85,6.55,6.13,2.23,8.21,5,16.37,6.13,24.74.68,4.92,1.88,7.82,6.72,6.22,25.73-8.47,52.83-7.34,79.16-11.53,10.15-1.62,18-3.5,8.32-15.41a2.12,2.12,0,0,1-.35-1.38c.74-7.79-4.45-20.14,3.78-22.18,9.57-2.36,8.63,10.25,11.58,17.31,9,21.64,5.82,46.5,18.45,67.19,2.28,3.74,2.47,10.76-3.15,12.41-5.09,1.49-8.68-3.29-10-8.3-2.89-11.14-6.06-22.26-8-33.58-1.71-10.08-7.29-11.3-15.4-8.77-20.16,6.28-40.85,9.89-61.67,13.17-20.35,3.22-24.23,12.76-12.66,29,3.08,4.35,2.81,9.1,2.17,13.82-.58,4.36-2.14,9.46-6.86,9.93-5.33.53-6.72-4.8-7.38-9.06-2.61-17-10.46-32.76-11.73-50.1C503.2,927.67,498.7,917.54,494.37,908.47Z"/><path d="M20,894.28C38,890,60,890.12,81.18,884.05c4.23-1.21,10.09-4.29,11.7,3.08s-4.17,8.89-9.66,9.52c-20,2.29-39.52,7.11-59.17,11.29-13.7,2.91-8.88,12-8.38,20,.69,11,7.81,6.08,13.55,5.73,13.79-.83,25.51-7.89,38.23-11.89,4.27-1.35,10.89-4.91,12.6.55,2,6.27-4.13,9.25-10.34,10.72-13.86,3.27-26.44,10.77-40.81,12.61-8.1,1-9.1,5.62-7.88,13.38,1.76,11.24,8.59,21.43,6.77,33.29-.51,3.34,1.69,8.72-4.43,8.65-4.53,0-6.18-3.92-6.66-8-1-9-2-18.05-3.07-27.08-.7-6.09-.11-12.64-8.67-14.43-3.61-.76-5.92-4.66-2.54-7.68,11-9.82,5-20.84,1.22-30.25C-3.12,896.45-2,893.62,20,894.28Z"/><path d="M292.61,896.77c1.72,1.28,4.27,2.26,5.34,4.11,7.64,13.27,19.23,23.94,24.13,39.16a43.55,43.55,0,0,0,12.39,19.11c5.11,4.55,7.45,12,1.25,16.06s-8.15-4-10.87-8c-1.58-2.36-2.62-5.08-4.06-7.56-4-6.88-2.77-19.92-14.53-18.08-12.21,1.91-24.12,7.74-27.87,21.67a78.54,78.54,0,0,1-7.84,18.43c-1.38,2.44-2.81,5.88-6.18,4.77-3.7-1.22-4.25-5-3.53-8.48.68-3.27,1.87-6.44,2.74-9.67,1.6-5.92.87-9.65-6.78-7.81-4.6,1.11-9.15.4-9.66-5.39-.49-5.44,2.72-7.24,8.2-7,10.83.48,16.42-5.74,19-15.81,2.22-8.81,5.13-17.44,7.67-26.17C283.46,900.9,287.11,898.26,292.61,896.77Zm12.55,32.4c-3.6-2.87-4.32-10.14-10.84-9.2s-6.56,7.59-7.39,12.42c-1,6.09,3.74,5.55,7.5,4.59C298.66,935.91,304.27,936.41,305.16,929.17Z"/><path d="M379.06,969.56C389.51,986.8,393,987.93,411.5,981.4c7.67-2.7,15.39-5.28,22.93-8.3,3.05-1.22,6.41-3.36,5.42-7.4-.83-3.37-4.39-2.89-7.15-3.54-23-5.36-40-17.13-46.63-41.4-4.47-16.27-.34-24.37,16.21-27.22,5.65-1,11.29-2.25,17-2.57,4.18-.24,7.71,2.12,7.49,6.83-.23,5-4.36,4-7.65,3.93-9.76-.18-21.78-.88-23.23,11.19-1.35,11.33.88,23.39,14,30.19,14.51,7.5,28.54,15,45.62,11.89,3.64-.66,8.19-2.47,9.44,3.06,1.15,5.06,2.44,10.8-3.13,14.37-21.37,13.66-44,23.44-70.11,18.86C379.92,989.23,376.82,983.57,379.06,969.56Z"/><path d="M174,991.85c-14.52-3.06-23.74-10.45-26.17-23.35-4.15-22-8.38-44.19-7.7-66.82.12-3.93-1.5-10.39,4.55-10.14,5.35.22,4.32,6.48,4.43,10.62.49,20.59,1.33,41.13,7.23,61.06,4.22,14.26,14.22,18.32,26.47,10.41,11.4-7.37,26.12-8.55,35.5-20.12,2.49-3.06,7.55.36,7.88,4.9.19,2.53-1.11,6.2-3,7.7C208.06,978,190.55,985.24,174,991.85Z"/><path d="M9.59,494.2c-.95,23.68,22.13,36,45.43,35.28,23.09-.71,42.55-11.06,48.81-36.58.91-3.71,1.75-8.8,6.73-7.21,4.68,1.5,2.61,6.95,1.81,10.11-6.71,26.63-22.5,41.8-51.1,45.93C29.54,546.3,4.58,532.33.66,501.92A78.68,78.68,0,0,1,13,448.5c11.11-17.1,40.36-16.81,52.25-.52,2.21,3,3.19,6.11,1.34,9.28-2,3.41-4.34,1.79-7.12.19C31.85,441.6,12.59,452,10.15,483.83,10,486.22,9.89,488.62,9.59,494.2Z"/><path d="M536,506.26c-2.4,0-4.88-.42-7.17.08-5.63,1.22-13.86-5.11-16,0-2.92,7-.93,15.88,3.63,23.14,1.24,2,2.85,4.2,2.91,6.34.11,3.79-.54,8.29-4.36,9.95-5,2.18-6.22-2.68-8.16-5.84-2.62-4.28-2.23-9.16-3.15-13.81-5.35-26.9-5.85-55.08-20.62-79.57-3.33-5.53-1.37-10.93,3.67-13.62,6.08-3.25,8.19,2.17,10,6.77a10.09,10.09,0,0,0,.35,1.39c4,6.95.39,20.49,8.08,21.19,8,.73,16.83-7.16,25.11-11.64,4.61-2.49,8.75-5.82,13.24-8.54,3.25-2,7.36-4.66,10-.16s-.47,8.13-4.64,10.44c-10.41,5.79-21.84,9.71-30.66,18.38-3.11,3.07-7.39,5-6.42,10.13s5.56,6.31,9.66,7.56c13.5,4.11,27.62,2.8,41.39,4.57,3.37.43,8.82-1.21,9.24,4.35.49,6.42-4.81,5.39-9.09,6C554,504.66,545.17,507,536,506.26Z"/><path d="M369.1,491.76c.91-17.75,2.95-32.24,12.52-44.68,8.55-11.12,28.56-12.77,36.79-2.55,3.14,3.89,5.41,9,1.55,13-3.42,3.54-6.64-.58-9.7-2.81-11.57-8.46-19-.23-25,7.66-11.12,14.68-10.61,41,.43,55.63,7,9.28,16.91,12,28.2,9.92,24.68-4.44,38.05-21,37.32-46.33-.11-3.78-1.5-9,4-8.83s3.57,5.65,3.91,9.2c1.89,19.79-5,35.94-20.94,47.71-11.88,8.8-24.82,13.78-40.26,9.07-17.17-5.24-26.35-16.22-27.65-34C369.91,499.49,369.33,494.25,369.1,491.76Z"/><path d="M164.94,458.54c2.63-6-5.2-17.85,5.52-17.63,9.08.19,4.2,11.7,4.43,18,.58,15.39,1.79,30.5,7.53,45,6.9,17.45,20,22.67,36.7,14.08,11-5.65,23.24-9.45,30-21.22,1.29-2.24,3.71-5.42,6.8-3.43,2.59,1.66,2.19,5.32,1.14,8-3.85,9.83-12,16.58-20,22.08-12.64,8.73-25.47,19.28-43.42,10.86-10.77-5-15.86-13.95-19.55-23.65A133.15,133.15,0,0,1,164.94,458.54Z"/><path d="M309.85,519.24c-1,6.19-1.07,11.41-6.66,11.66-4.25.19-7.06-3.72-7.29-7.62-1.3-22.67-8.42-43.93-14.87-65.4-1.1-3.66-.62-8.87,3.22-10.13,5.62-1.84,6.45,3.73,8,7.65,6.37,15.66,7.47,32.56,11,48.86C304.58,510.51,311.08,514.34,309.85,519.24Z"/><path d="M648.11,551.45c-1-5.14-2.15-10.26-2.79-15.45-.35-2.78-.16-6.18,3.52-6.84,3.52-.62,5.11,2.18,5.94,5,6.44,21.58,5.52,46.36-16.66,62-3.16,2.23-6.8,5.84-10.09,2.51-4.18-4.24,1.71-6.46,3.86-8.76C644.43,576.47,648,568.09,648.11,551.45Z"/><path d="M161.11,48.31c9.1-18.09,21-28.49,36.55-34.8,12.05-4.89,21.93-1.06,27,10.64C234.45,46.66,230.9,64.91,213,82c-4.14,4-3.78,7.32-.28,11,14.15,14.9,33.51,14.69,46.56-.66,1.68-2,3.08-3.76,5.74-2.87A5.57,5.57,0,0,1,268.81,95c-.08,9.18-4.62,15.11-13.25,18.39-19.61,7.45-36.44.48-52.29-10.2C192.21,95.77,181.54,87.65,173.21,77c-2-2.52-3.24-6.93-7.3-5.53-4.22,1.46-2.07,5.69-2.09,8.87-.06,10.53.07,21.07-.38,31.58-.16,3.77-1.52,8.35-6.46,8-5.51-.35-4.28-5.17-4.4-8.9-.72-23.42,1.83-47-3.72-70.19-.77-3.2-1.17-7.36,3.2-8.23,3.42-.68,4.53,2.65,5.38,5.52C158.1,40.36,159,42.52,161.11,48.31Zm43-21.71c-15,.4-34.16,13.63-33.69,22.91.47,9,17.68,20.47,30.28,20.09,13.67-.41,20.33-8.52,19.69-24.26C220,34.53,218.58,24.36,204.11,26.6Z"/><path d="M411.38,65.4c-.49-7.87-1.07-12.66-1-17.44.05-4.54-1.85-11.2,3.9-12.4,5.54-1.16,11.93-1.08,16.75,5C445.57,59,461.47,76,483.32,86.25c4.48,2.11,8.74,5.28,13.28,2.36,5.31-3.41,2.19-8.78,1-13.12-4-14.28-8.59-28.39-12.53-42.68-1.25-4.53-2-9.71,2.28-13.38,1.12-1,3.94-1.4,5.07-.67,4.67,3,4.25,7.56,3.92,12.7-1.08,16.82,8.24,31.14,12.76,46.6,2.46,8.44,3.89,16.59-.85,23.31-5.47,7.75-13.59,3-20.92,1.11-18.24-4.7-32.33-15.84-45.64-28.31-2.38-2.23-4.05-6.15-8-4-3.38,1.82-3,5.66-2.68,9.06.81,8.93,4.18,18-.86,26.65-1.79,3-2.8,8-7.77,7-3.69-.78-4.55-4.83-5.18-8C414.42,90.74,409.38,77,411.38,65.4Z"/><path d="M616.83,79.29c-22.93-.05-22.93-.05-19.46,20.28.32,1.89.67,3.78.86,5.69.71,6.87,4,17.33-5.15,17.82-8.42.45-4.52-10.51-5.58-16.49-2.34-13.17.06-28.16-15.58-35.72A6,6,0,0,1,569.86,62c10.09-13.69,2.38-25.13-4.13-36.82A32,32,0,0,1,563.22,20c-1.43-4.21-2.64-9.13,2.4-11.27s6.6,3.11,8,6.24c3.07,7,7.29,13.49,8,21.39.91,9.43,5.19,10.83,11.84,4.21,6.44-6.4,12.68-13,18.92-19.6,3.05-3.22,5.25-10,10.87-5,4.19,3.74,1.23,9.14-1.79,12.86a123,123,0,0,1-24,22.58c-3.07,2.2-7.37,4-5.17,8.74,1.93,4.19,6.14,3.63,10.09,3.34,14.85-1.07,29.48,1.34,44.11,3.3,4.22.56,9.22,1.81,8.06,7.81-1.07,5.54-5.36,3.6-9.2,3.25C635.37,76.9,625.56,81.34,616.83,79.29Z"/><path d="M362.33,52.19c-8.92,10.4-6.76,27.91,5.95,40.69,4.3,4.33,5,7.91,3.52,12.38-1.33,4-5.67,5.29-9.52,5.23-6.53-.11-6.41-5.13-7.34-10.14-1.39-7.45-4.2-14.63-6.48-21.91-2-6.31-3-15.06-10.92-15-8.65.1-18.17,2-21.84,12.79-2.62,7.7-5.95,15.09-11.12,21.66-2.5,3.16-4.15,7.15-8.75,4.54-3.85-2.2-3.88-6.28-2.43-10.22,1-2.68,1.71-5.57,3.24-7.92,4.88-7.5,10.78-14.86-5.49-14.5-3,.07-4.88-3-4.27-6.36.88-4.86,4-8.42,8.92-7.47,13.86,2.67,16.08-6.84,18.44-16.51.57-2.32.65-4.83,1.58-7,2.12-4.9,4.78-9.84,10.32-11.3,6.84-1.8,9,4.62,11.89,8.53C344.75,38.72,348,51,362.33,52.19Z"/><path d="M106.08,68c7.36,13.76,3.74,32-7.94,43.7-20.55,20.54-48.51,25.63-73.32,12.16-10-5.44-15.24-16.63-18.6-26.5C-2.86,70.67-2.5,43.57,10.65,17.72,19.22.88,34.63-4.52,51.56,4,63.27,9.81,73.71,17.54,76.41,31.72c.5,2.64,1.93,6.13-1.71,7.49s-4.7-2.1-6.11-4.53C61.14,21.86,51.23,13.74,35.17,14.24c-14.18.44-21.46,9-24.28,20.63-7.19,29.59-5.17,57.8,17.4,81.34,3.41,3.55,31.79,9.78,36.2,7.58,21.94-11,40.53-24.4,38.89-52.78C103.34,70.38,104.53,69.68,106.08,68Z"/><path d="M702.41,180.47c-5.44-9.59,1.67-15.09,3.18-21.44,2.17-9.1,8.14-17.33,4.36-27.57-1.5-4.06.84-7.86,5.39-8.4,5.34-.64,6,3.69,6.17,7.64C722.32,149.56,716.26,165.67,702.41,180.47Z"/></svg>