<svg xmlns="http://www.w3.org/2000/svg" width="559.78" height="117.81" viewBox="0 0 559.78 117.81"><title>c4-txt</title><path d="M413.62,59.66c-6.25-.75-12.54-1.26-18.75-2.3-5.64-.94-7,1.36-5.95,6.41,2.14,10.69,4.14,21.4,6.21,32.1a20.51,20.51,0,0,1,.75,3.54c0,3.73,1.15,8.93-4.05,9.28s-3.29-5.1-3.63-8c-2.83-23.56-5.27-47.15-8-70.71-.45-3.8-2-7.45-2.87-11.21-.61-2.63-.06-5,3-5.65s4.63,1.31,4.68,4.06c.18,9.18,3.2,18.19,1.43,27.48-.54,2.85-1.15,6.45,2.12,7.68,2.77,1,3.59-2.5,5-4.25,6.33-7.66,12.83-15.18,18.23-23.56,1.27-2,2.76-4.56,5.71-2.59,3.42,2.28,1.25,4.6-.47,6.65-4.53,5.38-9,10.84-13.75,16-4.13,4.44-2.39,6,2.61,6.36s10.16.48,15.24.68c3.26.13,6.86.26,6.77,4.64-.09,4.78-3.86,4-7,3.73l-7.24-.57Z"/><path d="M126.36,92.43a67.58,67.58,0,0,1,0-7.26c.77-7.17-.85-11.89-9.52-11.23-2.49.19-6-.6-5.79-4.11.22-3.77,3.57-3.11,6.2-3,6.63.4,9.48-3.13,9-9.29-.69-8.93-1.94-17.81-2.67-26.73-.52-6.3-.44-12.64,2.45-18.52,4.68-9.55,18.09-11.93,24.2-4.27,1.27,1.59,3.32,3.28,1.36,5.69-1.65,2-3.42.81-5.23.06-10.39-4.26-15.6-1-15.6,10.34,0,12.34,2.72,24.53,1.71,37-.42,5.24,3.73,3.37,6.79,2.72,2.5-.53,6-3.84,7.43.42,1.31,3.8-2.7,5.86-5.5,6.37-8.95,1.62-10.11,7.21-9.13,14.85.73,5.74.66,11.59.91,17.39.11,2.64.67,6-3.22,6-4.34.08-3.82-3.45-3.66-6.37.18-3.38.44-6.76.66-10.14Z"/><path d="M177.82,91.61c.39-6,.82-12.08,1.19-18.12.34-5.62-1.79-8.89-8-8.28-2.21.22-4.57.41-5-2.66-.45-3.26,1.89-4.46,4.36-4.68,8.18-.72,8.16-5.17,6.39-11.65-3.18-11.62,0-23,2.27-34.43A3.37,3.37,0,0,1,182,9c4.07-.79,6.65-3.68,9.54-6.28,4.2-3.78,10.45-3.49,13.62.33,1.53,1.83,2.21,3.75.69,5.92s-3.65,3-5.59,1.26c-3.9-3.4-5.23-.52-8,1.93-13,11.72-9.21,26.37-7.76,40.66.37,3.6,3,3.73,6,3.46,2.66-.25,6.58-2,7.22,2.17.68,4.42-3.59,4.37-6.58,4.85-4.34.69-6.29,3.15-6.24,7.45.08,7.75,0,15.5.2,23.25.09,3,.68,6.48-3.34,6.67-4.68.21-4.11-3.71-4-6.86C177.71,93.06,177.78,92.33,177.82,91.61Z"/><path d="M326.88,76.12c-1.49-20.53-2-40.45-7.2-59.81-.86-3.19-.78-6.24,3.19-6.6s4.47,2.78,4.74,5.91c1.6,18.36,3.27,36.71,4.88,55.06.57,6.51.53,13.12,3.26,19.26,1.33,3-.2,5.08-2.06,7.14-1.26,1.39-2.84,2.12-4.52,1.38-2.81-1.24-2.19-4-2.32-6.36C326.54,86.54,328.09,81,326.88,76.12Z"/><path d="M286.44,46.23c.78,14.3,1.9,27.59,3.93,40.79a25.32,25.32,0,0,1,.27,7.21c-.37,2.64-2.56,3.33-5,3s-2.82-2-2.86-4.23c-.35-24.19.14-48.45-6-72.16-.86-3.33-.79-6.6,3.71-7.06,4.34-.43,4.45,3,4.52,5.88C285.27,28.83,287.41,37.94,286.44,46.23Z"/><path d="M247.64,93.45c-.07,2.32-.56,5.86-4,6-4.35.19-3.19-3.9-3.43-6.58-1.9-20.7-.72-41.61-4.27-62.19-.62-3.57-1.45-7.1-2.26-10.63-.62-2.73-1.22-5.78,2.46-6.35,4-.62,3.76,3,4,5.46,1.94,20.71,3.75,41.42,5.7,62.13C246.19,85.14,247,88.94,247.64,93.45Z"/><path d="M48.32,91.7c4.58.06,8.33-.06,8.07,5s-2,9-8.11,8.86c-4.67-.11-7.33-2.61-7.22-7.18C41.18,93.16,44.57,91.35,48.32,91.7Z"/><path d="M468.44,117.81c-2.17-.07-5.32-1.48-5.64-6.52s2.72-6.53,6.77-6.23c3.72.28,9.14-1.07,9.06,5.38C478.57,115.35,475.52,117.8,468.44,117.81Z"/><path d="M13.24,97.28c0,4.41-2.26,6.7-6.53,6.75-4.93.06-6.63-3.27-6.71-7.52-.07-3.88,1.92-6.58,6-6.41C10.32,90.27,13.18,92.51,13.24,97.28Z"/><path d="M553.1,102.38c3.84-.25,7,.58,6.65,5.81-.36,4.8-3.07,6.86-7.67,6.78-4.44-.07-6.7-2.23-6.43-6.82S548.27,101.63,553.1,102.38Z"/><path d="M81.73,105.75c-3.61-.44-7.89-.38-8.14-5.76-.17-3.7,2.16-6.95,5.5-5.48,3.14,1.38,9.3-3.93,9.46,3.67C88.64,102.28,87.1,105.81,81.73,105.75Z"/><path d="M515.21,102.86c3.34.58,6.49,1.52,6.09,5.65a7.06,7.06,0,0,1-7.8,6.72c-2.93-.18-7.14-.9-7-5.65C506.75,104,511.37,103.86,515.21,102.86Z"/></svg>