<svg xmlns="http://www.w3.org/2000/svg" width="648.18" height="117.81" viewBox="0 0 648.18 117.81"><title>c5-txt</title><path d="M497.61,62.47c-6.51-2.84-14.18-3.32-21.42-5.4s-7.21,1-5.94,6.35a162,162,0,0,1,3.92,20c.43,4.14,1.48,11-3.83,11.37s-3.33-6.27-3.83-9.9c-3-21.5-5.83-43-12.65-63.77-.88-2.68-2.06-5.82,1.61-7.07,4.14-1.4,5.15,1.94,5.85,5,1.78,7.87,3.58,15.74,5.21,23.64,1,5,3.06,4.72,5.76,1.31,5.77-7.29,12.95-13.56,16.37-22.57,1.12-2.94,3-4.86,6.39-3.29s1.7,4.21.8,6.48c-2.5,6.33-7.63,10.57-12.21,15.25-5.59,5.69-4.76,8.72,3,10.66,4.41,1.1,8.88,1.92,13.28,3,2.64.67,5.94,1.16,4.68,5.25C503.65,61.92,501.41,63.23,497.61,62.47Z"/><path d="M153.41,32c.31,5.64,1.81,13.12.32,20.72-.66,3.35,1.54,4.6,4.66,3.81,3.67-.92,7.25-2.16,10.93-3,3.24-.77,5.47.46,6,4,.52,3.66-1.47,5.05-4.81,5.12-2.27,0-4.57-.11-6.82.13-7.77.8-10.11,3.52-8.14,10.89,1.66,6.22-.78,12-.65,18A45.67,45.67,0,0,0,156,102.06a6.16,6.16,0,0,1-2.52,6.68,3,3,0,0,1-3.56.11c-2.52-1.65-2.74-4.32-2.16-6.79,2.29-9.7,2.29-19.47,1.8-29.35-.27-5.41-1.91-7.41-7.35-5.79-3,.88-6.44,1.38-7.12-3s2.48-5.09,5.79-4.87c7.27.48,8.73-3.78,7.85-9.64a115.56,115.56,0,0,1-1-28.71C149,8.65,157.21.54,168.18,0a15.45,15.45,0,0,1,9.42,2.25c1.55,1,2.6,2.54,1.81,4.51C178.7,8.57,177,8.2,175.5,8.24,156.73,8.8,153.92,11.57,153.41,32Z"/><path d="M210.48,53.47c7.06,1.44,8.49-2.13,7.1-8.2-1.74-7.63-3.92-15.2-3.32-23.18.58-7.56,4.45-13,11.32-15.71s13.93-2.72,20,2.31c2.34,1.92,5.1,4.46,2.59,7.64s-4.4-.53-6.29-1.63c-5.59-3.27-11-3.58-16.33.33-4.92,3.61-5.67,8.7-4.66,14.27.81,4.47,2.32,8.9,2.51,13.39.29,6.77,1.63,11.67,10,10.34,1.44-.23,3.2-.05,3.55,1.93a3.06,3.06,0,0,1-3,3.66c-8.4.8-7.37,5.53-6.29,11.87,1.53,8.92,1.44,18.12,2,27.19.2,3-1.23,5.14-4.24,5-2.76-.12-3.5-2.49-3.37-5,.55-10.39-.26-20.73-.94-31.09-.36-5.51-2.23-8.2-8-5.55a6.46,6.46,0,0,1-1.46.42c-3.5.7-7.07,1.51-10-1.31a3.24,3.24,0,0,1-.3-4.23C203.6,52.55,207.18,53.58,210.48,53.47Z"/><path d="M280.85,61.5a34,34,0,0,1-3.78,0c-2.24-.24-4.82-.28-5-3.44-.16-3.49,2.66-4.08,5.1-4.4,10.29-1.33,9.47-1.13,8-11.47-2.23-15.29,1-29.65,16.95-30.4a18.12,18.12,0,0,1,5.93.58A3.4,3.4,0,0,1,310.23,16c-.11,2-1.62,2.35-3.18,2.44-5.31.32-10.92.07-13.54,6.15-3.15,7.32-2.7,14.75-.38,22.21.9,2.88,2.55,4.23,5.59,3.69,2.72-.49,5.45-.95,8.17-1.42s5.82-1,6.45,3c.55,3.51-2,3.93-4.64,4.51C296,59.3,296.15,59.35,297.9,71.87a213.74,213.74,0,0,1,2.2,21.83c.09,2.42.91,7.06-3.73,6.88-4.34-.17-3.87-4.08-3.48-7C294.18,83.8,291,74.52,290,65,289.33,59.41,284.44,61.3,280.85,61.5Z"/><path d="M372.57,101c-.15,4.08-1.33,8.33-5.14,8.42-4.32.1-3.55-4.69-3.73-7.74-1.61-27.69-3.21-55.38-9.06-82.61-.6-2.75-.38-5.28,2.8-6,4.06-.94,4.48,2.13,4.79,5,1.87,17.3,4,34.57,5.49,51.9C368.66,80.55,369.73,91.05,372.57,101Z"/><path d="M417.13,90.11c-.91,2.57,0,6.7-4.2,6.93s-4.33-3.71-4.53-6.57a474.07,474.07,0,0,0-7.09-57.2c-.87-4.43-1.48-8.92-3.56-13.11-1.59-3.21-2.75-7.48,1.9-8.88,4.85-1.46,4.54,3.09,5.33,6.2,5.87,23.1,6.53,47.07,11.68,70.28C416.83,88.5,417,89.25,417.13,90.11Z"/><path d="M543.59,92.66c2.61,1.11,8-2.38,7.78,3.79-.16,5.37-3.2,8.71-9.28,8.73-5.6,0-8.13-3.13-8-7.93C534.31,90.76,539.76,93.25,543.59,92.66Z"/><path d="M643,91.08c2.79-.06,5.06.57,5.2,4,.17,3.92-6.15,9.8-10.8,10.17-3.47.27-5.24-1.51-5.56-4.69C631.43,96.7,638.14,91.15,643,91.08Z"/><path d="M58.25,117.62c-3.11-.3-6.55-.57-6.36-5.29.18-4.19.75-8.45,6.06-8.88s6.78,3.59,7.24,7.82C65.7,116,62.37,117.21,58.25,117.62Z"/><path d="M587.17,106.78c-5.43-.45-9.54-.58-9.39-6,.15-5.81,5.22-5.48,8.83-6,3.38-.48,6.55.91,6.25,5.44S590.33,107.16,587.17,106.78Z"/><path d="M90.11,110c.5-2.28.09-5.91,4.32-5,4.5.92,9.88,1.29,9.8,8,0,4-2.54,4.83-6,4.83C93.08,117.81,90.24,115.59,90.11,110Z"/><path d="M6.94,115.26C3.42,114.88.07,114,0,109.3c-.06-4.37,1.94-6.55,6.5-6.09,3.38.35,7.56-.6,7.54,4.88C14,112.62,11.78,115.09,6.94,115.26Z"/></svg>