<svg xmlns="http://www.w3.org/2000/svg" width="645.84" height="117.81" viewBox="0 0 645.84 117.81"><title>c6-txt</title><path d="M159.57,28.12a35.42,35.42,0,0,1-.3,4.22c-.77,5.57,1.85,7.18,6.85,5.92,3.48-.88,7.37-2,7.74,3.22.33,4.77-3.15,6.25-7.39,5.8-6-.64-6.74,1.95-6,7.41,1.81,13.31,2.87,26.73,4.13,40.11.31,3.23-.63,6.13-4.5,6.19-4.12.07-4.67-2.94-4.17-6.15,2-12.76-.31-25.38-1.1-38.05-.36-5.87-2.29-9.46-9.26-6.86-2.67,1-5.77,1-8.7,1.13-2.36.13-5.23.6-5.39-3.13-.13-3,1-5.25,4.19-6a9.93,9.93,0,0,1,1.45-.21c15.2-1,15.8-1.09,16.33-19.34.12-4.14-.06-8.27,1.42-12.31A15.12,15.12,0,0,1,177.8,2.76c1.52,1.08,2.56,2.31,2.14,4.27-.48,2.21-2.18,2.16-4,2.22C159.72,9.85,159.72,9.87,159.57,28.12Z"/><path d="M229.56,10.69c4.53,0,8.67,1.51,12.69,3.32,2.45,1.11,4,3,2.91,5.89-1.26,3.2-3.75,2.49-6.14,1.48-2-.86-4-2-6-2.68-4.63-1.53-8.9-.72-11.92,3.23a18.35,18.35,0,0,0-3.76,15.2c.49,2.3,3.1,2.11,5,1.72,4.55-.92,9.05-2.08,13.59-3.06,3.3-.7,6.06,0,6.55,3.85.46,3.62-2,4.31-5,4.71-21,2.81-21.81,3.91-17.79,24.48A89.72,89.72,0,0,1,221.55,93c-.19,2.4.85,6.22-3.42,5.91-3.72-.26-3.39-3.68-3.31-6.31.33-11.34-1.6-22.47-2.79-33.67-.56-5.31-2.24-8.15-8.33-6.85-2.87.61-7,1-7.23-3.76s3.74-3.44,6.46-3.79c6.15-.8,7.9-5.07,8.14-10.44.19-4.15-.18-8.3,1.28-12.36C215,14.42,220.78,10.6,229.56,10.69Z"/><path d="M473.15,45.77H471c-20,.27-17.66-3.19-15.21,18.46.52,4.6,1.81,9.14,1.3,13.79-.27,2.39,1,6.34-2.81,6.49-4.07.15-2.94-3.84-3-6.23-.5-14.92-1.48-29.78-4.42-44.46a115.46,115.46,0,0,0-5.58-18.19c-1-2.72-2-6.36,1.85-7.4,3.69-1,4.08,2.78,4.63,5.25,1,4.52,1.51,9.16,2.53,13.69.63,2.79,1.78,4.81,4.56,1.18,5.33-7,12.77-12.17,17-20.08,1-1.9,2.24-4.32,5-2.85,3,1.59,1.91,4.27.69,6.38-2.72,4.74-7.27,7.88-10.91,11.81-2.16,2.34-4.5,4.5-6.71,6.79-1.35,1.39-3.05,2.87-2.25,5,.93,2.54,3.41,2.49,5.62,2.43,6.35-.16,12.7-.44,19.05-.6a21.7,21.7,0,0,1,5.82.32c2.46.61,3.44,2.62,3.09,5.1-.32,2.31-1.84,3.26-4.12,3.24-4.65,0-9.3,0-14,0Z"/><path d="M322.53,56.47c.53,7.07,1.14,14.13,1.57,21.21.19,3,.17,6.44-3.86,6.63-4.18.2-4.23-3.25-4.15-6.27.64-21.8.59-43.52-5.85-64.68-1-3.19-.27-6.13,3.39-6.87,4.21-.85,4.65,2.3,4.95,5.44C320,26.77,321.52,41.6,323,56.43Z"/><path d="M284.86,72.51c0,5.82.24,9.48-.09,13.1-.21,2.4-1.16,5.51-4,5.33-3.31-.2-2.64-3.54-2.68-5.89q-.27-15.75-.41-31.52a142.14,142.14,0,0,0-5.06-35.46c-.85-3.19-1.28-6.09,2.56-7,4.09-1,4.75,2.22,5.36,5.23C284.39,35.55,282.28,55.28,284.86,72.51Z"/><path d="M363.93,34.4a174,174,0,0,0,2.73,38,21.57,21.57,0,0,1,.4,7.27c-.45,2.46-1.11,6-4.45,5.69-3.18-.26-4.23-3.53-3.75-6.23,2.66-14.72-.88-29.29-.79-43.93.05-7.14-.49-14.17-2.64-21-.74-2.35-1.42-4.77.82-6.81A4.68,4.68,0,0,1,361,6.28c3.29,1.17,2.82,4.24,2.85,6.83C364,20.21,363.93,27.3,363.93,34.4Z"/><path d="M403.49,72c-1.43-16.11-1.75-32.3-4.71-48.24-.49-2.65-1-5.29-1.43-8s-.48-5.9,3.12-6.32c3.42-.4,3.45,2.59,3.73,5.09,2.24,19.46,3,39.07,6.18,58.44.57,3.37.45,9.17-3.79,8.81C401.58,81.43,404,75.6,403.49,72Z"/><path d="M7.92,116.43C4.8,115.68.43,116.24,0,111c-.37-4.62,4.58-7.57,12.22-7.53,3.29,0,6.18.7,5.69,4.8C17.27,113.84,13.55,116.15,7.92,116.43Z"/><path d="M524.63,95c.31-4.37,4-6.4,9.24-6.29,3.22.07,6.55.35,6.64,4.89.1,5.09-4.71,9.78-10,9.57C526.34,102.94,524.52,100.54,524.63,95Z"/><path d="M93.9,117.81c-2.22-.45-5.55-.36-5-4.26.73-5,3.39-9,9-8.36,3.06.35,8-1.19,8.58,4.37C106.86,113.31,99.92,117.84,93.9,117.81Z"/><path d="M636.67,102.05c-3.13,0-7.42.67-7.38-4.77,0-4.22,1.86-7.56,7-7.34,4.59.2,9,.79,9.51,6.62C646.37,103.57,640.76,101.28,636.67,102.05Z"/><path d="M50.87,117.36c-3.29-.17-6.68-.36-6.69-4.87,0-6.22,4.81-6.7,9.19-7.16,3.66-.39,5.27,2,5.33,5.46C58.79,116.18,55.14,117.15,50.87,117.36Z"/><path d="M586.5,102.83c-4.2-.2-8.22-1.25-8.43-6.13S582,91,585.73,91c3.48,0,7,.56,6.74,5.48C592.28,100.37,591,103.11,586.5,102.83Z"/></svg>