<svg xmlns="http://www.w3.org/2000/svg" width="1267.03" height="1432.98" viewBox="0 0 1267.03 1432.98"><title>c7-txt</title><path d="M758.38,575.89c-4.72,3.6-9.14,7.39-14,10.58-13.49,8.93-26.28,4.08-30.7-11.4-3.36-11.77-.88-23.83-1.82-35.72-.25-3.18,2-4.33,4.72-4.37,3,0,4.43,1.73,4.44,4.68,0,7.06-.21,14.14.14,21.19.33,6.79.9,13.94,8.53,17s13.8-.19,19.4-5.07c2.3-2,4.11-4.62,6.5-6.5,3.11-2.45,5.82-1.63,7,2.25,2.55,8.46,14.36,14.14,21.61,9.72,6.16-3.74,1.17-6.26-1.71-8.82-10.22-9.08-9.82-23.25.89-30.76a13.24,13.24,0,0,1,4-2.16c4.69-1.19,10.84-3.48,13.23,1.75,2.51,5.49-4.2,6.19-7.68,8.09-8.42,4.62-9.2,10.19-1.78,16.37,3,2.52,6.88,4,10.07,6.37,5.48,4,6.36,9.07,1.59,14.09C792.74,593.8,763.58,593.58,758.38,575.89Z"/><path d="M643.62,563.67c0-3.68,0-7.35,0-11-.2-14.55-.21-14.52,13.82-15.81,8.52-.78,17.12-1,25.43-3.41,2.52-.74,5.1-.61,6.19,2.27,1.32,3.5-1.81,4-3.92,4.91-8.56,3.62-17.77,4.47-26.77,6.18-2.62.49-6.11.5-5.64,4.45.39,3.27,3.55,2.76,5.89,3,9.55,1,18.87-1.71,28.36-1.92,3.67-.09,4-3.21,4.27-6,.38-3.71,1.73-6.78,6-6.64,3.74.12,6.16,2.4,7.11,6.08s.1,7.09-3.75,8.23c-13.13,3.9-25.39,11.1-39.57,11.06-7.29,0-10.77,2.12-9.53,10.35,1.8,11.94,3.49,14.21,12.43,12.84,7-1.06,12.43-4.81,17.39-9.6,2.19-2.11,5.07-4.5,7.86-1.32,2.44,2.77-.24,5-2.09,7a55.47,55.47,0,0,1-25.35,15.93c-8.77,2.68-14-.29-16.58-9.18S643.65,572.83,643.62,563.67Z"/><path d="M1187.09,558.1c-.84-5.54-1.06-12.08-6.19-17-2.17-2.08-6.77-3.91-2.11-7.71,4-3.29,8.24-2.85,11.09,1.51,5.26,8,6,17.25,5.75,26.52a33.62,33.62,0,0,1-1.71,9c-4.7,15-13.35,17.81-26.37,8.79-5.79-4-11.62-8-17.53-11.83-1.42-.93-2.94-2.6-4.92-1.47-2.29,1.3-1.86,3.63-1.67,5.77.4,4.26,1.11,8.52,1.17,12.78.05,3.2-1.18,6.14-5,6.57s-4.48-2.63-5.26-5.21c-3.94-12.87-5.54-26.38-10.89-38.9-1.7-4,.87-7.09,4.44-9,4.65-2.51,8.15-.66,11.18,3.11,8.91,11.09,19.21,20.63,31.68,27.67,3.7,2.09,7.21,5.12,11.83,2.37S1187.26,563.6,1187.09,558.1Z"/><path d="M813.83,438.71c-12.28,0-19.84-5.37-27.56-10.37-5.66-3.66-11.48-8.07-13.32,3.43-.35,2.17-1.62,4.18-4.29,4s-3.06-2.42-3.76-4.53a31,31,0,0,1-1.73-10.8c.22-8-1.9-15.15-8-20.71-2.71-2.45-5-5.29-1.69-8.5s5.94-.52,8.4,2.08c2.61,2.76,4.53,5.72,5.07,9.55.31,2.16,1.12,4.43,3.6,4.74s3.61-2,4.41-4c4.87-11.8,14.78-15.72,26.36-16.71,6.15-.52,11.76.72,13.73,7.83,2,7.34-2.28,10.92-8.24,13.12-4.28,1.59-8.76,2.69-13.18,3.87-2.1.56-4.42.74-4.62,3.54-.19,2.58,1.65,3.86,3.68,4.71,8,3.37,14.72,10.46,24.64,8.29,1.82-.4,3.85.2,4.22,2.48.48,2.91-.29,5.76-3,7A12.13,12.13,0,0,1,813.83,438.71Zm-10-41.42a5.42,5.42,0,0,0-.67-1.65c-2.1-2.32-15.68.87-16.71,4-.25.72-.23,2.11.2,2.39,4,2.62,7.6-.37,11.34-1.07C800.25,400.49,802.77,400,803.79,397.29Z"/><path d="M901.49,539c10.42-.4,20.84-.47,30.2,5.3,11.62,7.16,14,16.89,5.79,27.54-9.74,12.56-22.9,20.23-38.47,23.25-8.59,1.66-12.78-2.38-12.2-11.28a100.82,100.82,0,0,1,2.48-14.45c1.11-5.18.34-10.06-3.4-13.63s-4.55-6.9-2.36-11.39,6-5.7,10.64-5.37C896.6,539.13,899.05,539,901.49,539Zm8.79,10.2c-5.3,1.26-12.52-2.4-13.67,6.09s-.6,17.09,2.74,25.25c1.45,3.55,3.24,5.9,7.52,3.47,7.72-4.37,15.7-8.45,22.13-14.6,7-6.71,4.71-15.8-4.62-18.37C919.72,549.74,914.72,549.72,910.28,549.18Z"/><path d="M1093.12,556.74a65.15,65.15,0,0,1-1.81,19.79c-2.59,9.63-5.91,11.18-14.3,6.2a67.34,67.34,0,0,1-16.74-14.21c-5.43-6.3-6.79-5.95-9.49,2.3-1.6,4.93-2.36,10.16-5.26,14.61-1.49,2.29-2.84,5-6.26,4.44-3-.44-3.71-3-4.26-5.36-2.68-11.63-5.23-23.29-7.86-34.93-.91-4,.72-7.07,4.51-7.68,4.4-.7,5.62,3,5.89,6.51.4,5.19.46,10.41.68,15.61.08,1.88.41,4,2.41,4.51,2.69.75,3.75-1.42,4.55-3.48,1.44-3.7,2.55-7.56,4.27-11.13,3.24-6.71,6.73-7.18,11.65-1.42,4.57,5.35,8.55,11.23,14.15,15.63,1.91,1.49,4,3.29,6.63,2.33,3.32-1.2,3-4.43,2.85-7-.4-6.41-1.17-12.79-1.87-19.17-.4-3.67-1.57-8,3.82-8.6,5.55-.61,6.29,3.73,6.42,8C1093.22,547.58,1093.12,551.57,1093.12,556.74Z"/><path d="M368.77,401.48c-1.55-7.56.08-12,5.41-14.12,5.58-2.18,6.26,3.54,8.54,6.29a108.39,108.39,0,0,0,16.82,16.9c6.32,4.92,11.93,5.49,17.62-1,4.44-5.05,9.3-9.73,14-14.55,4.94-5.06,8.11-4.22,10.07,2.68,2.22,7.84,1,15.87,1.18,23.81.12,4.37-.24,8.68,4.64,11,3.05,1.47,2.2,3.88,1.27,6.3s-2.26,4.57-5.17,4.41-4.25-2.2-5-4.7c-2.47-8.11-.6-16.48-1.43-24.7-.34-3.26,1-7.36-3-8.82s-5.86,2.31-7.87,4.91c-14.59,19-15.5,19-34.23,3.71-3.39-2.77-6.47-9-11-6.69-5.21,2.64-1.34,8.86-1.3,13.52,0,3.68.23,7.36.14,11-.06,2.61.7,6.14-3.3,6.41-4.45.3-4.38-3.5-4.66-6.47C370.44,420.78,369.54,410.09,368.77,401.48Z"/><path d="M1140.05,396.25c-.14,14.14-13.19,29.53-28.36,31.74-8.68,1.27-10.12,4.64-7.44,12.22,1.67,4.71,6,12.09-1.28,13.87-7.48,1.84-5.89-6.7-6.6-11.3-2.3-14.79-4.32-29.64-6.16-44.5-.67-5.37-2.41-13.13,7.53-6.36,3.17,2.16,5-.15,7.15-1.85,6.75-5.49,14.61-7.5,23.12-7.09C1136.31,383.39,1139.8,388.41,1140.05,396.25Zm-8.3.85c0-4.85-4.16-7.84-9.8-6.36-8.54,2.24-15.38,7.34-20.93,14.13-2.75,3.36-1.83,6.92.18,10.24s5,5.25,9.12,4.91C1118.23,419.38,1131.79,404.91,1131.75,397.1Z"/><path d="M325.86,546.59c10.07.59,18.67,4.24,26.58,9.76a8.11,8.11,0,0,1,.72.56c6.33,6,5.43,14.84-2.79,27.58-7.07,11-15.21,15.31-22.94,11.4-4.47-2.25-6.9-3.28-10.09,2.21-3,5.27-6.54,1.63-7.46-2.29-2.85-12.12-3.19-24.71-8-36.55-2-4.86,2.38-8.27,7.15-10.06C314.57,547.12,320.46,547.54,325.86,546.59ZM329,558.35c-15.26-.2-17.9,2.76-15.42,16.27.65,3.53,2.29,6.91,3.71,10.26.72,1.69,2.23,3.64,4.13,3,6.25-2.16,13.53-.73,19-5.48,5.07-4.41,8.94-9.61,7-16.69-1.87-6.82-8.3-6.14-13.59-7A45.69,45.69,0,0,0,329,558.35Z"/><path d="M580.47,556c-.83-5.46,2.7-9.64,10.28-11.47,9.24-2.22,18.38-5,28-5.12,2.73,0,7-1.61,7.44,2.94.36,4.21-3.54,4.35-6.65,4.31-8.26-.1-15.39,3.8-22.88,6.37-3,1-5.82,2.74-4.68,6.71s4.37,3.81,7.51,3.35c6.34-.94,12.24-4.22,18.86-3.63,1.7.15,4.07-.3,4.45,2.14s-1.68,2.91-3.46,3.49c-5.52,1.82-11,3.76-16.57,5.47-4.39,1.34-8.2,3.15-8,8.53.12,3.74.71,7.68,4.53,9.46,4.93,2.3,7.95-1.47,11.13-4.31a17.83,17.83,0,0,1,1.25-1.35c2.58-1.89,3.59-8.17,8-4.68s.28,7.4-2.27,10c-5.88,6.08-11.62,15-20.71,13.27C589,600,588.83,590,586,583.38,582.68,575.44,581.05,567,580.47,556Z"/><path d="M553,558.52l-1.26-8.4c-.43-2.86-.51-5.62,2.75-7,2.07-.88,4.16-1.12,6.06.47,2.44,2,5.61,5.32,3.88,7.64-5.83,7.8-3.2,16.55-4.26,24.88-1.36,10.7-6.21,12.89-15.67,7.55-5.87-3.32-11.77-6.61-17.76-9.7-4.39-2.26-7.54-2.33-5.55,4.18a10.48,10.48,0,0,1,.56,2.69c.18,5,.46,11.1-5.46,12.14-7.11,1.25-5.8-5.67-6.37-9.74-1.2-8.5-1.81-17.09-2.66-25.63-.36-3.66.52-6.71,4.16-8.39,3.81-1.75,5.6,1,7.53,3.4,5.53,6.87,12.93,11.29,20.59,15.21,3.29,1.68,6.31,6.44,10.48,3.46C553.47,568.85,553.08,564.18,553,558.52Z"/><path d="M173.59,420.57c.55,7.86,1.23,14.26,1.34,20.67,0,2.66-.8,5.89-4.57,5.62-3-.21-4.16-2.73-4-5.31.91-12-2.38-23.79-2-35.73.1-3.81.27-8.66,4.5-10.38,5-2,6.66,3.1,9.17,5.86,2.89,3.17,5.38,6.7,8.22,9.91,7.21,8.14,10.68,7.85,16.82-1.49,2.19-3.31,3.89-6.94,5.93-10.35,1.28-2.15,2.84-4.27,5.8-3.55,2.68.66,4,2.85,4.41,5.37.8,5.15,1.55,10.32,1.95,15.51.39,4.91-.06,9.86,5.74,12.4,2.47,1.07,1.9,3.5.63,5.52s-2.66,4.34-5.39,4.57-3.46-2.05-4.45-3.94c-2.53-4.83-1.45-10.27-2.62-15.31-.67-2.9-1.27-6.78-4.43-7.43s-3.76,3.42-5.17,5.56c-9.1,13.77-14.78,14.07-24.92,1.18-1.38-1.76-2-5.17-5.31-3.75C172.28,416.76,173.66,419.73,173.59,420.57Z"/><path d="M689.46,402.48c0-12.34.24-12.93,13.78-16.25,8.32-2,16.78-3.51,25.2-5.13,3.53-.68,7.31-.74,7.53,4.07s-3.49,4.84-7.12,4.59c-9.15-.65-17.36,3.41-26,5.41-2.21.52-4.12,1.71-3.77,4.41s2.43,3.23,4.63,3.67c5.56,1.14,11,.29,16.43-.86,1.54-.33,3.1-.86,4,.88,1.16,2.27-.47,3.29-2.18,4.19-5.22,2.71-10.6,4.66-16.64,4.76-8.59.14-6.2,7-6.08,11.57.15,5.38,3.36,8.57,9.33,6.72a43.52,43.52,0,0,0,15.88-9c1.28-1.11,2.92-3,4.64-1.24.78.78.7,2.93.32,4.26-2,7-16.06,17.2-23.49,17.35-7.16.14-10.73-4.4-12.3-10.34C691.29,422.62,689.29,413.59,689.46,402.48Z"/><path d="M492.8,581.82c-8.45-2.47-17.65.69-26.81-.2-5.46-.53-7.68,1.2-5.49,6.79a24,24,0,0,1,1.41,5.33c.52,3.78-.69,7-4.76,7.58s-5.26-2.61-5.37-5.94c-.47-13.71-4.64-26.49-9.72-39-1.58-3.91-1.93-7.72,2.92-8.85,4.7-1.1,4.94,3.52,6.06,6.49,1.21,3.17-.9,8.18,4.17,9.13,4.81.91,6.68-3.51,9.13-6.54,2.12-2.62,4.06-5.39,6.27-7.93,1.95-2.24,4.6-3.69,7.28-1.71,3.08,2.27,1.29,5-.46,7.16-2.1,2.64-4.37,5.15-6.69,7.59-1.53,1.6-3.16,3.13-2.33,5.56.93,2.75,3.33,3.19,5.9,3.39,6.72.53,13.45,1,20.14,1.86,2.84.35,5.49,1.77,5.14,5.31S496.5,581.94,492.8,581.82Z"/><path d="M212.53,578.53c-1,3.2-4,3.38-6.56,4-5.92,1.5-6.86,4.38-2.86,9a15.79,15.79,0,0,1,4,7.1c.83,4-.9,7.09-4.17,8.24-3.79,1.34-3.58-3-4.79-5a24.44,24.44,0,0,1-2.4-5.92c-1.15-4.06.52-10.23-6.71-9.75-6.91.46-13.42,2.12-16,9.86-1.46,4.33-2,9-4.73,12.86-1.47,2.11-3.15,4.07-6,3.07-3.26-1.15-2.35-4.11-1.64-6.23,5.3-15.92,8.25-32.64,16-47.72,1.38-2.67,2.39-6,6.06-6.19,4-.17,4.53,3.4,5.68,6.17s2.44,5.59,3.64,8.4c2.85,6.68,6.36,12.06,15.15,9.13C209.51,574.79,212.31,574.65,212.53,578.53Zm-29.55.9c2.36-.46,5.22-.55,5-3.95-.19-2.77-1.22-5.8-4.37-6.08-3.46-.31-4.29,2.76-4.67,5.55C178.53,577.91,179.81,579.57,183,579.43Z"/><path d="M989.38,544.52c8.34-.67,15.08,3.08,18.17,11.47,3,8.23.53,15.77-5.88,21.64a59,59,0,0,1-22.08,12.75c-12.79,4-21.23-3.35-19.39-16.59C962.52,557.13,974.88,544.43,989.38,544.52Zm-13.76,35.92c9.51-.69,16.91-4,23.18-9.81,3.49-3.23,3.44-6.83,1-10.7-4.38-6.86-11.47-8.53-19.16-4.38-8,4.33-13.38,14.94-10.76,21.31C971.11,580,973.71,580.42,975.62,580.44Z"/><path d="M606.61,415.49c0-7.33,0-14.66,0-22,0-1.62.47-3.17,2.3-3.44,2.19-.33,3.76.93,3.72,3-.16,11.45,7.25,9.78,14.57,8.74,3.94-.57,7.95-.6,11.93-.95,3.71-.32,7.51-.54,8.35-5.43.32-1.86,1.1-3.62,3.47-3.5,2.71.14,3.57,2.13,3.87,4.37,1,7.6,2.15,15.19,2.79,22.82.37,4.47.89,8.38,5.22,11,4.16,2.5,2.8,5.86.12,8.41-2.88,2.74-5.51,1.29-7.78-1.44-4.73-5.67-4.73-12.34-4.53-19.18.32-11-1.82-12.58-12.31-10.31-4.79,1-9.65,1.75-14.52,2.35-10.24,1.25-12.39,5.09-7.57,13.89.59,1.07,1.31,2.08,1.86,3.17,1.77,3.5.22,5.84-2.78,7.59-3.57,2.09-5.05-.73-6.4-3.05s-2.55-4.87-2.42-7.8c.12-2.75,0-5.51,0-8.27Z"/><path d="M248.57,586.82c0,1.83.08,3.67,0,5.5-.19,3.31-1.19,6.44-5.11,6.26-4.49-.2-3.82-3.83-3.6-6.89.63-8.61-.79-17.05-1.84-25.55-.48-3.9-.72-8.52,3.58-10.54,4.71-2.2,6.14,2.45,8.31,5.19,5.35,6.77,12.92,10.2,20.65,13.07s8.66-3.28,9.54-8.44c.65-3.84-.4-8,2.66-11.28,1.48-1.61,2.63-3.66,5.2-2.22a4,4,0,0,1,1.77,5.55C286.47,564,286.31,571,286,578c-.26,6-3.46,8.36-9.12,6.78a163.94,163.94,0,0,1-17.36-5.72C248.4,574.61,248.47,574.45,248.57,586.82Z"/><path d="M286,427.62c.8,6.69-3.09,17.14,5.13,25.91,2.77,3-.45,6.54-3.7,8-4,1.73-6.65-.3-7.14-4.45-.78-6.7-1.14-13.45-1.82-20.17-.52-5-2.66-7.59-7.85-4.36-7.3,4.54-12.1,1.1-16.06-5-4.08-6.28-5.27-13.68-7.79-20.56-.84-2.29-.45-4.48,2.11-5.22s4.25.93,4.89,3.12c1.11,3.82,1.46,7.88,2.77,11.61,1.81,5.18,4.78,9.7,11.32,8.5,5.91-1.08,8.8-5.26,9.15-11.11a54.57,54.57,0,0,0-.33-7.33c-.23-3-.16-5.81,3.71-6.05s5.58,2,5.6,5.68C286.05,412.28,286,418.42,286,427.62Z"/><path d="M1152.61,418.52c10.13,6.37,20,8.2,30.42,3.57,4.33-1.91,5.25-4,.73-6.83-6.27-3.89-12.43-7.94-16.27-14.51-6.91-11.84-2.17-24.26,10.08-26.62,2.73-.53,5.92-1.28,7.3,1.87,1.67,3.81-1.91,4.61-4.33,5.55-4.45,1.72-8.54,3.34-8.19,9.39s2.49,10.55,8.23,13.15a120.55,120.55,0,0,1,13.11,6.56c5.91,3.59,6.67,11.27,1.89,15.57-8.62,7.76-28.71,9.07-38.13,2.42C1154.42,426.5,1151.77,424,1152.61,418.52Z"/><path d="M906.91,446.23c-8.35.59-15.84-2.34-19.62-11.74-.91-2.27-2-4.9.94-6.45,3.18-1.66,4.62.9,5.29,3.24,1.1,3.83,3.41,5.59,7.27,5.7,3,.08,6.43.93,8.06-2.62s-1.54-4.7-3.47-6.6c-10.21-10.08-10.58-27.17-.76-37.31,2.5-2.58,5.7-6.17,9.3-2.75s.34,6.32-2.52,9c-11.45,10.66-10.56,20.15,2.67,27.83,5.52,3.21,11.16,6.11,8.86,13.94C920.71,446,914.34,446.22,906.91,446.23Z"/><path d="M1059.55,413.22c-.47,11.94-19.74,25.91-31.19,22.6a12.91,12.91,0,0,1-1.69-.67c-7-3.28-10.18-13-7.3-22.43,3.51-11.46,14.36-20.29,23.08-18.78C1051,395.41,1059.85,405.42,1059.55,413.22Zm-27,13.28c8.75.09,19.75-7.65,18.62-13.08-1.44-7-7.19-10.61-13.61-12.08-5.09-1.16-12.55,9.44-12.69,16.82C1024.81,424.17,1028.32,426.16,1032.6,426.5Z"/><path d="M960.11,396.43c9.2,2.32,19.14.06,28.59-5.07,2.54-1.37,5.3-2.36,7.59.05,2.67,2.82-.18,4.82-1.42,7.18-6.74,12.82-5.85,25.9-.91,39,1.26,3.34,4,7.63-.65,9.45-5.46,2.14-6.16-3.12-7.16-6.94-2.44-9.32-1.81-18.85-1.73-28.31.07-7.13-2.79-10-10-9a192.73,192.73,0,0,1-20.09,1.52c-3.19.09-8,.33-8.1-3.88-.16-4.6,4.59-3.76,7.81-4C955.54,396.34,957.07,396.43,960.11,396.43Z"/><path d="M507.05,420.4c.13-1.66.09-.74,0,.17-1.14,9.78-8.64,19-15.7,19.31s-15.46-8.16-17.14-17.92a57.82,57.82,0,0,1-.45-11.92c.26-6.67,1.4-13.2,9.08-15.35,7.32-2.05,13.3,1,18.08,6.32C505.1,405.73,507.54,411.3,507.05,420.4Zm-5.65-2.2c-.19-8-7-15.78-13.92-15.51-10.75.42-6.87,9.26-7.43,14.63-.73,6.95,2.3,12.74,10.59,13.1C496.86,430.69,501.57,425.15,501.4,418.2Z"/><path d="M569.49,423.74c-1.06-7.09-2.3-15.24-3.49-23.39-.8-5.43-4.35-6.05-8.78-5.05-5.66,1.28-11.27,2.75-17,3.88-2.3.46-5.31,1-6-2.35-.62-3.12,1.92-4.21,4.39-4.78,11-2.54,22-5.1,33.07-7.41,5.4-1.13,8.81.24,6,6.68-4.82,11.28-6.38,22.21,1.92,32.84,2.9,3.71-.54,6.8-2.39,9.86-1.35,2.24-3.32,2.82-5.45,1.55C567.5,432.94,568.85,428.74,569.49,423.74Z"/><path d="M464.54,16C466.27,12.8,461.12,5.6,467.48,5c7.67-.67,3.92,7.34,5.1,11.44,1.07,3.76.84,7.91,1.11,11.89,1,14.85,5.74,19.2,20.35,18.05,9.27-.72,18.09-3.08,25.9-8.55,5-3.46,7.29-7.32,3.81-13.14a12.49,12.49,0,0,1-1.45-4.35c-.48-2.93-1.8-6.51,2.65-7.47,3.69-.79,4.69,2.41,5.39,5C531.71,23,533,28,537.24,31.63c9.37,8.1,19.3,5.12,22.21-6.82,1-4.16,1.39-8.47,2.16-12.7.56-3,1-6.5,5.41-5.83,4.08.62,4.42,4,4,7.11-1.21,9.74-2.62,19.45-4.14,29.15-1.1,7-2.21,14-1.74,21.05.41,6.25,1.85,12.16,7.47,16.11,2.88,2,4,4.63,1.73,7.86-1.77,2.5-3.42,5.49-7,5.1s-4.42-3.55-5.2-6.66a121.81,121.81,0,0,1-3.93-31.87c.21-11.08-.52-11.52-11.38-9.8-2.82.45-5.57.64-7.82-1.46-6.15-5.74-11.84-3.39-17.22,1.09-9.56,8-20.76,11.69-32.91,12.87C477.23,58,471.91,54.34,468.42,43,465.8,34.41,464.79,25.57,464.54,16Z"/><path d="M162.85,57.55c-9.23,0-13-3.22-13.09-12.57-.12-8.91-.65-17.56-3.48-26.19-2.29-7,1-9.93,7.86-7.61,8.18,2.77,16.4.45,24.59.79,6.76.27,13.47.68,20,2.43,8.29,2.23,10.26,6.67,7,14.38C201,40.05,174.94,57.51,162.85,57.55Zm16.08-38.36c-4.14.33-8.42.58-12.67,1-6.38.7-9.46,4.2-8,10.65s-.51,14.86,6.85,17.8c7.79,3.12,12.86-3.55,17.86-8.52.87-.87,1.79-1.69,2.62-2.59,3.93-4.24,12.47-6.26,9.86-13.81C192.69,15.93,184.59,21,178.93,19.19Z"/><path d="M439.23,13.38c.54,6.4,1.26,13.11,1.62,19.83.38,7.1-2.43,9.89-9.49,6.46-10.17-4.94-21.75-6.59-31.09-13.57-3.52-2.64-5.73-.92-5.91,3.32s.11,8.62-.53,12.83c-.44,3-1.83,6.21-5.81,6s-6.19-3.11-6.15-6.78c.09-6.43,1-12.84,1.25-19.27.2-4.9-.11-9.81-.11-14.72,0-2.85.42-5.64,3.62-6.77,3.62-1.28,5.73.64,7.43,3.6C400.44,15.44,410.2,22.54,422,27c8,3.05,10.08,1.63,9.56-6.87-.19-3-1.19-6-1.77-9-.52-2.71-1.46-5.68,1.08-7.73,1.74-1.4,4.11-1.14,6.13-.1,3.4,1.75,3.55,4.67,2.62,7.91C439.47,11.84,439.41,12.46,439.23,13.38Z"/><path d="M354.2,22.88c-7.53,5.83-15.42,5.92-22.72,7.84-5.07,1.32-10.77,2.4-8.87,9.94,1.72,6.85,5.18,12,13.28,10.94,2.94-.36,6.24-2.61,7.95,1.39,1.55,3.61-1.87,5.44-4,7.46C335.1,65,330,64.7,324.92,61c-8.41-6.22-10.83-15.41-11.34-25.07-.42-8.23.29-16.51.36-24.76,0-4,2.61-5.24,5.85-5.72C331.91,3.62,344,1.91,356.16.2c2.16-.31,4.64-.63,5.35,2.09.87,3.39-1.89,4-4.32,4.57q-13.35,3.35-26.7,6.71c-3.68.93-7.69,1.95-6.35,7,1.2,4.53,4.77,3.35,8.26,2.82C339.13,22.39,345.89,19.61,354.2,22.88Z"/><path d="M241.25,39.58c1.16,4.42-1.95,10.05,3.41,12.7,4.91,2.42,8.7-1.38,12.41-4q9.39-6.61,18.6-13.51c2.51-1.89,4.52-4.39,3.94-7.79-.64-3.82-4-4.14-7-4.82-8.34-1.91-16.55-4.49-25.25-4.64-2.15,0-5.43.86-5.53-3-.08-2.68,2.34-3.39,4.32-4.09,7.68-2.72,35.48,5.47,40.38,11.91,3.82,5,2.75,9.9-1.31,14.09a89.4,89.4,0,0,1-38.91,23.48c-7.59,2.29-11.49-1.09-12.52-8.86-1.56-11.72-.13-24.06-7-34.77-1.34-2.09-.6-4.1,2-5.1,2.75-1.06,5.29-.58,5.9,2.33C236.53,22.39,244.16,29.77,241.25,39.58Z"/><path d="M28.1,76.57C17.25,76.53,5,68.42,1.31,59.69.38,57.45-1.3,55,1.74,53.31c2.58-1.41,4.16.85,5,2.73,4.11,9.62,12.38,9.71,20.88,9.52,2.83-.07,5.8-.08,7-3.16s-1.75-4.19-3.36-5.89C18.92,43.63,20.41,24,34.33,16.14c3-1.66,6.13-3.11,9.6-1.64,2.22.94,2.78,3.09,3,5.32.34,3.38-1.78,4.78-4.43,6.11C27.31,33.54,26.27,39.55,38.16,50.6,42.88,55,51,58,47.21,66.49,43.47,74.77,34.93,75.68,28.1,76.57Z"/><path d="M127.37,32.14a31.71,31.71,0,0,1-7,23.21c-7.7,9.79-18.75,9.68-26-.57C88.43,46.43,87,36,82,27.15c-1.65-3,.73-5.2,3.73-6.08,3.29-1,5.3.56,6.16,3.73,1.87,6.79,3.89,13.51,7.26,19.77,2.13,4,4.63,7.61,9.66,7,4.62-.52,7.51-3.6,9.21-8,3-7.67,2.3-14.92-1.61-22.09-1.75-3.21-4-7.24,1.56-8.89,4.47-1.33,6.88,1.84,7.63,5.85C126.49,23,126.82,27.59,127.37,32.14Z"/><path d="M630.73,68.25a89.5,89.5,0,0,1-4.2,23.18c-.9,2.78-2,6.46-6.15,4.95-4-1.43-1.7-4.61-1-7,2.48-9.12,5.55-18.13,1.76-27.71-.93-2.35-.52-5.24,2.34-6.1s4.26,1.68,5.64,3.67C631.13,62.22,630.21,65.74,630.73,68.25Z"/><path d="M724.57,1337.74a55.51,55.51,0,0,0,18.72-2.29c3.44-1.1,7.72-3.21,9.13,2.11,1.62,6.15-4,6-7.57,6.63-9.36,1.66-18.81,2.81-28.23,4.11-3.47.48-7.2.89-6.84,5.57.38,5,4.67,4.46,7.77,4,14.33-2,28.72-1.72,43.11-1.7,3.45,0,5.38-1.41,7.12-4.53,6.66-11.93,10.53-12.09,19.25-1.31,8.56,10.58,18.71,19.46,29.56,27.56,2.64,2,5.58,4.37,9.21,2.72,4.25-1.93,2.39-5.81,2.15-8.95-.6-7.65-1.5-15.27-2.15-22.92-.27-3.27.2-6.42,4.5-6.47,3.51,0,4.71,2.43,4.94,5.47.87,11.61,2.07,23.21,2.39,34.84.23,8.51-4.22,11.68-12.51,9.46C813,1388.8,803,1381.85,794,1373.18c-2.33-2.25-4.23-6.51-7.83-5.7-4.45,1-1.66,5.79-2.72,8.75-1.55,4.29-1.71,9-4.61,12.89-2,2.64-4.24,4.44-7.76,3.6s-3.7-3.7-4.17-6.43c-1-5.84-.24-11.65.48-17.43.69-5.55-1.14-8.19-7.08-7.32-15.46,2.25-30.57,6.73-46.3,7.38-1,0-2.77.87-3,1.66-1.71,6.27-.19,12.14,3,17.6,2.82,4.84,7,4.82,12,3.8,3.63-.74,8.65-6.26,11.11-.27s-4.61,7-8.19,9c-11.61,6.38-20,3.09-24.93-9.06-3.56-8.72-3.58-18.25-7-27.24-2.33-6.09,5.19-13.16,7.63-20.1S707.41,1337.66,724.57,1337.74Z"/><path d="M450.24,1060a16.63,16.63,0,0,1,0,3.67c-.95,4-.74,9.58-6.54,9.48s-5-5.55-5.12-9.22c-.46-10.09.51-20.29-4.45-29.74-1.36-2.59.11-4.78,2.63-6,3.7-1.79,7.11-1.64,9.9,1.82,6.93,8.6,16.34,13.83,25.95,18.67,7.35,3.71,9.95,2.2,11-5.9a42.37,42.37,0,0,0,.31-5.52c-.08-8.71,3.31-13.26,12.83-11.62a32.79,32.79,0,0,0,10.07-.3c10.66-1.57,11.35-1,11.49,10.08.23,17.35,4.79,24.27,17.66,26.85,5.8,1.16,9.32,0,7.48-7-1.67-6.34,1-12,2.61-17.92,1.71-6.19,5.77-8.39,11.74-7.6s9.64,3.93,10.16,10.06c.69,8.13-2,15.74-4.19,23.38-.38,1.31-1.8,2.48-3,3.36-19,13.9-48.6,2.34-53.08-20.69-.46-2.4-.68-4.86-1.22-7.24-.88-3.91-3.6-5.48-7.44-5.4-4.19.09-5.85,2.54-6.27,6.44-.5,4.57-1.12,9.14-2,13.66-1.32,7.09-5.38,9.92-12.6,7.85-6.21-1.78-12.28-3.79-17.75-7.37-2.54-1.67-5.33-3.71-8.5-2C448.38,1053.57,449.9,1057,450.24,1060Zm106.69-6.37c2.45-1.28,3.4-4,3.53-7.1.08-1.82-.71-4-3-3.45-3.52.84-4.18,3.91-4.09,7.09C553.44,1052,553.52,1053.89,556.93,1053.6Z"/><path d="M379.69,1421.15c-3.38-.43-7.54,0-9.85-3.42-3.52-5.13-6.51-9.48-13.92-5.35-2.71,1.51-3.67-2.57-3.83-4.85-1-14.06-1.87-28.1-5.28-41.88-.87-3.53-.07-7.34,5.31-5,3.32,1.44,6.07.29,8.54-1.62,11.18-8.63,23.36-5.34,35.27-2.68,5.83,1.3,5.55,6.13,3,10.24-4.42,7.13-2.58,10.73,5.19,13.53s9.63,10.2,6.41,19.4C406.57,1410.91,392.2,1421.05,379.69,1421.15ZM358.56,1385c2.12,5.93-.77,15.43,10.17,17.41,1,.19,2,2.15,2.59,3.49,3.14,7.65,8.85,7.61,15.2,5.06,7.45-3,12.25-8.93,16.51-15.47,2.27-3.48,1.39-5.45-2.11-7.21-6.05-3-12.2-4.15-18.6-1.43-3.37,1.44-6.6,3.23-9.86,4.91-2.69,1.39-5.18,1.87-7.34-.94s-1-5.16.69-7.54a13.47,13.47,0,0,1,7.6-4.88c5.9-1.73,9.57-6.5,14.12-10.06,1.53-1.19,2.54-2.77,1.51-4.75-.78-1.5-2.29-1.75-3.88-2A23.13,23.13,0,0,0,358.56,1385Z"/><path d="M574.54,1233.9c-5.82-.2-14.16-6-24-5.79-3.81.09-3.95-5-3.92-8.28.09-10.54-.9-20.8-5.31-30.58-2-4.54-.62-7.78,4.69-8.64,8.17-1.33,16.34-2.68,24.52-4,5.75-.93,9,1.18,8.56,7.37-.39,5,1.93,6.57,6.58,6A64.67,64.67,0,0,1,593,1190c13,.1,18.25,7.1,14.8,19.64C603.53,1225.2,593,1233.89,574.54,1233.9Zm-.6-8.9c8.17-.55,17-2.53,22.48-11.41,1.88-3.08,4.49-6.36,2.57-10.2-2.07-4.16-6.36-4.25-10.39-4.49-9.46-.55-17.08,4.15-24.86,8.5-3,1.67-6.37,3.38-8.85-.64-2.19-3.54-.46-6.49,2.37-8.83,2.6-2.15,5.54-3.91,8-6.22,2.22-2.11,2.32-5.22-1.29-5.08-5.84.24-11.86,1.83-13.83,8.5C546.18,1208.44,558.65,1224.79,573.94,1225Z"/><path d="M933.18,1035.66c.75,6.7,3.17,13.83,2.05,21.31-.47,3.11-.59,6.44-4.86,6.49-4,0-5.17-3.06-5.62-6.13-1.47-10-2.91-20-3.84-30.11a10.82,10.82,0,0,1,5.75-10.76c4.68-2.71,9.19-1.8,12.81,1.42a264,264,0,0,1,19.79,19.22c5,5.51,9,5.07,13.63-.21,5.86-6.69,12.14-13,18-19.68,4.41-5,7.75-6.15,9.73,1.73,3.13,12.47,6.35,24.92,9.44,37.4.84,3.42,0,6.25-4,6.88s-5.56-2.06-6.06-5.34c-1-6.67-1.59-13.41-2.75-20.05-.5-2.87-.5-6.56-3.92-7.84-4-1.48-5,2.54-7.08,4.53-4.4,4.28-8.59,8.76-13,13-6.31,6-12.47,5.66-18.32-.82-4.53-5-9.14-9.94-13.68-14.94-1.57-1.72-3.41-2.69-5.71-2C932.8,1030.58,933.15,1032.93,933.18,1035.66Z"/><path d="M953.59,1203.21c.16-6.44.34-12.9-2.1-19-2-5.13-.17-8.47,4.8-9.91,7.64-2.2,15.3-4.46,23.1-5.9,8.43-1.56,11.5,2.3,9.12,10.43-3.25,11.12-3.27,11.22,8.67,14.55,4.79,1.34,7.92,4.4,7.53,9.08-1,12-8.23,20.2-18.39,25.77-8.78,4.82-18.84,3.24-26.59-3C952.34,1219.21,953.31,1211.18,953.59,1203.21Zm30-1.94c-5.16.17-10.54,2.22-15.85,4.52-3.76,1.64-5.84,4.34-5,8.63.82,3.92,3,6.45,7.18,7.22,8,1.49,14.19-2.13,19.69-7.27,2.62-2.44,6-5.13,4.22-9.25C992.14,1201.21,988,1201.49,983.57,1201.27Zm-24.07-9.82c-.09,1.93.33,3.69,2.07,4.79s3-.12,4-1.07c4.1-3.65,8.25-7.28,12-11.23,2.7-2.81,1.66-4.89-2.11-5.66C969,1176.94,959.43,1184.76,959.5,1191.45Z"/><path d="M695.88,1357.56a95.63,95.63,0,0,1-31.06,8.9c-3.75.46-8.71-1.51-9.58,4.29s-.74,12,5.32,15.5c4.51,2.57,9.34,3,13.55-1.1.88-.86,1.68-1.8,2.58-2.62,2.2-2,4.41-1.93,6.48.17s1.41,4.22-.33,6.44c-5.59,7.14-17.8,12.71-24.16,10.81-7.54-2.24-13-11.24-13.17-22.28-.08-5,.28-10-5.62-12.28-1.36-.53-1.4-1.81-1.49-3.07-.62-8.42,9.83-20.47,18.37-21.57,10-1.29,20.27-1.1,30.06-4,3.42-1,6.32-1,7.11,3.06.83,4.32-2.55,4.92-5.7,5.43-8.48,1.38-17,2.71-25.43,4.17-2.6.45-6.24.43-6,4.23.24,3.52,3.73,2.2,5.92,2.61,7.12,1.34,14-.18,21-1.49C687.75,1354,692,1352.81,695.88,1357.56Z"/><path d="M488.11,1203.62c11.19,8,21.07,11.64,32.11,12.34,4.14.26,7.73,1.65,6.83,6.44-1,5.19-4.47,6.67-9.67,4.71-12.83-4.85-26.46-8-36.66-18.13-4-4-5.66-1.75-6.51,2.51-.9,4.5-1.75,9-2.74,13.48-.51,2.28-.44,5.54-3.85,5.2s-4.14-3.32-4-6.25c.23-4.26,1.17-8.54,1-12.77a51.17,51.17,0,0,0-5-19.43c-1.41-3-1.3-6.17,2.84-7.23,3.75-1,5,1.61,5.42,4.53,1.27,8.77,4.6,7.46,9.76,2.58,8.8-8.32,20.76-10,31.6-13.95,4.23-1.52,4.86,2.61,5.23,5.63,1.08,8.9-6.41,18-15.87,19.44C496.06,1203.1,493.46,1203.17,488.11,1203.62Z"/><path d="M756.48,1193.38c-.12-2.2-.24-4.64-.4-7.09-.21-3.4.37-6.3,4.64-6.22,4,.08,5.14,2.69,4.84,6.23a66.29,66.29,0,0,0,1.82,20,34.16,34.16,0,0,0,5.9,13.33c1.88,2.49,4.29,5.33,7.54,2.88,3-2.25-.54-4.2-1.52-6.11-6.85-13.32-1.21-29,12.16-33.24,7.11-2.24,12.32-.89,14.93,7.28,5.49,17.17-2.18,35.35-18.31,42.06-9.14,3.8-16,2.08-21.53-6.24C760.05,1216.47,755.27,1205.92,756.48,1193.38Zm44.14,9.23c-1.62-2.7-.36-7.9-5.75-7.69-6.45.26-7.63,5.1-7.43,10.45.16,4.44,1.14,10,6,9.81C800.37,1214.88,799,1207.68,800.62,1202.61Z"/><path d="M823.42,1029.27c1.36-.08,5.33-.45,9.31-.53,2.36,0,5.43-.37,5.87,2.9.5,3.67-2.68,3.3-5,3.64-8.17,1.17-16.33,2.41-24.51,3.54-8.69,1.2-14.06,13.4-8.81,20.53,4.66,6.34,8.88,1.91,13.31-.78,3.2-1.94,5.67-9,9.87-4.59s-1.86,7.94-4.71,11.18c-5.73,6.51-12.72,9.91-21.27,6.31s-9.2-11.53-8.77-19.43c.59-10.67,4.22-21.06,2.81-31.92-.43-3.38,1.44-5.45,4.75-5.3,11.52.53,22.4-2.88,33.51-5,2.48-.46,6.1-2,7,1.86.9,4-2.44,4.9-5.72,5.39-9.07,1.36-16.89,7.45-26.45,7-1.6-.07-3.27.53-3.31,2.38s1.54,2.67,3.08,2.71C809.8,1029.35,815.31,1029.27,823.42,1029.27Z"/><path d="M631.93,1364.1a81,81,0,0,1-4.5,27.09c-3.81,10.52-12,12.84-21,6.12a49.62,49.62,0,0,1-4.22-3.56c-6.64-6.19-12.9-6.22-19,.89-2.58,3-5.33,6.64-9.94,5.08-4.33-1.46-5.2-5.8-5.87-9.76-1.17-6.94-2.22-13.87-4.4-20.64-1-3.11-.9-7,3.77-8,4.3-.85,5.17,2.31,5.73,5.45.65,3.61,1.1,7.25,1.61,10.89.33,2.41.22,5.14,3.33,5.84,2.8.63,4.58-1.19,6.2-3.12l.58-.72c9.6-11.62,9.6-11.62,18.91,1.24,3,4.08,6.08,8.22,11.93,6.56,5.23-1.49,6.51-6.08,7-10.85.57-6.1,1-12.21,1.47-18.32.21-2.82-1.5-6.92,3.33-7,4.53-.08,5,3.69,5,7.26C631.94,1360.41,631.93,1362.26,631.93,1364.1Z"/><path d="M724.81,1191.22c1,25.55.83,25.74-22.24,19.63a131.32,131.32,0,0,1-14.74-5c-4.1-1.63-5.78-.41-5.61,3.84.21,5.21.5,10.41.63,15.62.08,3.1-1,5.41-4.66,5.46s-4.89-2-5-5.19a121,121,0,0,0-5.94-32.4c-1.29-3.94-1.24-7.48,2.45-9.74s6.38.27,8.81,2.74c8.25,8.38,18.43,12.74,29.78,15.27,7.13,1.59,9-1.39,8.36-7.56-.46-4.25-1.44-8.43-2-12.66-.5-3.57-.17-7.08,4.17-7.89,5-.94,5.22,2.75,5.37,6.33C724.32,1184.21,724.66,1188.8,724.81,1191.22Z"/><path d="M762.81,1048.5c-.86,5.62-.95,9.48,2,12.88,1.83,2.13,3.32,4.62,1.3,7.46-1.81,2.55-4.26,3.16-7.29,2.27-3.31-1-5.46-2.94-5.67-6.37-.36-5.81-.21-11.65-.64-17.45-.71-9.55-3.28-11.16-12.23-8.23a62.15,62.15,0,0,1-7.07,1.94c-6.83,1.36-10.37,4.62-8.35,12.22.67,2.52.26,5.49-.3,8.12-.47,2.25-2.56,3.3-4.91,3.42-1.63.07-3.62-.33-3.62-2,0-11-8.54-19.81-7.59-31,.25-2.94-.76-6.55,3.46-7.44,3.65-.77,4.32,2.37,5.67,4.76,3.94,7,20.64,4.9,26.46-3.32,1.72-2.45,2.38-5.85,5.8-6.74,5.56-1.43,9.1.88,10,6.42C761.09,1033.63,762,1041.85,762.81,1048.5Z"/><path d="M173.73,1092.09c-2.67-.51-3.31-2.81-3.66-5.35-1-7.53-.85-15.41-6.66-21.52a3.94,3.94,0,0,1-.44-3.49c3.68-8.69.7-16.82-1.62-25.12-.86-3.07-2.76-6.9.43-9.5,3.67-3,5.11,1.28,7.28,3.08s4.67.83,7.06.47c9.1-1.37,18.18-2.79,27.29-4.09,4-.57,8.48-.8,10.53,3.43,1.89,3.89.29,7.86-2.5,11-7.95,9.07-16.66,17.3-28.12,21.74-7.09,2.74-10.14,6.44-5.68,13.81,2.61,4.31,1.44,8.92,0,13.38C177.09,1091.71,175.77,1092.23,173.73,1092.09ZM170.24,1051c1.07,3.12,1.59,8.51,7,6.55,9.78-3.52,18.92-8.57,24.71-17.86,2.5-4,1.64-6.74-3.47-6a151.08,151.08,0,0,0-19.7,3.87C172.63,1039.25,170.93,1044.61,170.24,1051Z"/><path d="M188.5,1193.67c21.22-.06,30,12.64,23.14,29.94A45.61,45.61,0,0,1,193,1245.77c-3.71,2.33-7.36,4.29-12,2.06-3-1.46-5.56-.77-7.83,2.39-4,5.63-6.62,2.89-7.44-2.28-2.41-15.11-.67-30.62-4.27-45.68-.7-3,1.61-5.49,4.83-5.54C174.65,1196.6,182.7,1194.54,188.5,1193.67Zm-18.3,28.83c.6,5.53-.91,13.73,7.59,16.76,8.33,3,14.84-1.45,20.3-7.47,4.37-4.83,8.07-10.12,9-16.75.7-4.74.28-9.22-4.6-12C188.77,1195.26,170.12,1205.68,170.2,1222.5Z"/><path d="M212.43,1415.93c1.28-9.53,2-18.81-2.93-27.84-3-5.56.21-10.58,5.13-13.1s5.89,3.11,7.63,5.79c4.77,7.39,10.53,13.45,18.52,17.39,7.31,3.61,11.76,1.66,13-6.39.86-5.63-.08-11-3.88-15.57-2.62-3.18-2.62-6.48,1.27-8.42s5.71,1.33,6.46,4.29c1.87,7.42,3.91,14.86,3.79,22.61-.23,14-7.55,18.78-20.51,13.43-15.34-6.33-15.28-6.32-18.25,9.48-.69,3.69-.25,9.21-6,8.62C210.15,1425.55,212.89,1419.8,212.43,1415.93Z"/><path d="M994.37,1248.87c2.81,7.57,4.34,14.41,8.78,19.86,4.28,5.25,9.17,9.19,16.42,8s8.3-7.24,10-12.82c7-22.49,4.39-44.72-1.32-67-1-4.1-5.4-10.73,1.86-12.13,6.25-1.2,5.33,6.26,6.12,10.27,4.11,21.13,6.63,42.4,2.12,63.8a93.61,93.61,0,0,1-5.23,16.58c-5.76,13.76-14.9,15.94-26.64,6.73C996.81,1274.53,991.39,1260.81,994.37,1248.87Z"/><path d="M1024.1,1404.81c-6-1-12.08-1.83-18-3.08-3.93-.82-6.31-3.54-7-7.59-.39-2.25,0-4.39,1.78-5.83,2.5-2,4,.23,5.2,1.86,4.48,6,11.06,4,16.93,4.53,1.83.17,3.73-.42,4.24-2.66s-1.25-3.19-2.74-4.24c-8.9-6.33-14.68-14.75-15.74-25.7-1.08-11.18,7.36-18,18.16-15.21,2.76.72,5.55,1.93,5.67,5.16.16,4.13-3.16,3.34-5.9,3.66-8.28,1-11,6-7,13.49,4.15,7.84,10.68,13.26,18.71,16.91,3.6,1.63,7.93,2.8,7.23,8.08-.67,5-4.28,7.11-8.81,8C1032.59,1403.11,1028.4,1403.94,1024.1,1404.81Z"/><path d="M1172.2,1015c9,.4,15.85-.24,22.45-3.47,3.6-1.75,8.1-2.62,10.77,1.6,2.52,4-.88,6.67-3.24,9.5-8.58,10.31-9.25,34.79-1.34,46.06,1.83,2.62,5.7,5.18,1.18,8.24-3.79,2.57-7,.29-9.46-2.86-3.57-4.53-4.85-9.81-4.86-15.47,0-7.36-.16-14.72,0-22.08.15-6-2.43-9.12-8.46-9.66-5.17-.46-10.34-1.11-15.46-2-2.73-.45-5.7-1.34-5.45-5,.27-3.93,3.19-4.84,6.52-4.89C1167.94,1015,1171,1015,1172.2,1015Z"/><path d="M893.3,1220.37c-10.65.09-16.7-5.35-16.82-15.13-.14-12.16,11.09-29.2,19.52-29.63s22.55,15.26,22.69,25C918.82,1209.79,905.38,1220.26,893.3,1220.37Zm2.05-9.55c6.16.18,16.07-6,15.22-10.26-1.2-5.87-3.78-11.26-11.14-11.36-6.22-.09-12.89,7.56-13,14.4C886.33,1209.73,890.69,1210.21,895.35,1210.82Z"/><path d="M1167.28,1191.8c-7.27-1.16-11.19,1.48-11.18,8.68,0,6.71-4,14.87,4,19.22,8.12,4.45,16.54,3.08,24.12-2.61,3.94-3,7.88-5.82,10.2-10.37,1-1.92,2.3-4.1,4.89-2.78,1.93,1,1.44,3.17,1.08,5-2.57,12.76-28.95,27-41.18,22.21-4.82-1.87-8.59-5-10.12-10-4.15-13.5-1.34-26.06,6.17-37.63,2.56-4,7-4.91,11.49-4.08,5,.93,10.25,3.06,9.69,9.08C1175.82,1195,1170.09,1190.57,1167.28,1191.8Z"/><path d="M1110.67,1068.49c-6.82.78-11.9-1.5-15.85-6.38-1.5-1.86-1.88-4.1-.44-5.91,1.78-2.23,3.64-1,5.46.53,1.59,1.37,3.38,2.9,5.33,3.36,4.22,1,9.32,1.63,11.21-3.27,1.82-4.73-3.65-4.63-6.17-6.13-11.54-6.86-16.09-17.61-11.82-28.6,4-10.33,14.82-16.84,24.51-14.83,2.72.56,6.08.76,5.48,4.58-.53,3.43-3.6,2.21-6,2.24-7.93.12-13.12,4.25-16,11.47-3,7.52,1.44,12.18,6.56,16.45,4.25,3.54,8.78,6.64,14.27,8,2.74.69,5.27,1.56,5.43,5.16s-.63,6.61-4.29,8.3C1122.58,1066.16,1117,1069.73,1110.67,1068.49Z"/><path d="M963.62,1385c-.07-5.1-2.52-11.39-4.78-17.75-.9-2.53-.78-5,2.4-5.85,2.34-.65,4.71,0,5.2,2.44,2.65,13.54,9.73,27,1.94,41-6.77,12.17-19.06,13.51-27.64,2.72-8.43-10.6-10.49-24-14.65-36.43a4.25,4.25,0,0,1,3.17-5.74c3-.76,4.78,1,5.53,3.58,1.72,5.87,3.1,11.85,4.76,17.75a25.65,25.65,0,0,0,2.37,6c3,5.18,5.08,11.91,13.1,10.45C961.11,1402,964.06,1396,963.62,1385Z"/><path d="M532.86,1354c6.35-.66,7.3,3,6.56,8-1,7-2,14-3,20.94-1.05,7.71-1.32,15.28,3.31,22.2,1.68,2.5,1.83,5.24-.65,7.49-1.91,1.73-4.2,2.68-6.77,1.85-2.9-.93-3.17-3.68-3.29-6-.54-10.42-.86-20.85-1.28-31.27-.4-9.72-2.78-11.83-12.55-10.54-6.08.81-12.1,2-18.13,3.15-2.54.47-5.12.93-6.06-2.24-1-3.37,1-5.11,4-6.09C507.34,1357.42,520.15,1355.9,532.86,1354Z"/><path d="M647.23,1022c9.35-1.22,19-.71,27.84-4.86,3.09-1.45,6.48-2,9.38.84,3.31,3.24,1.19,6.13-.56,9-6.78,11.23-4.76,22.93-1.83,34.67.72,2.88,2.62,5.81-.43,8.44-2.13,1.84-4.38,1.53-6.85.53-3.71-1.51-3.42-4.62-3.52-7.68-.23-7.64-.21-15.3-.82-22.91-.7-8.85-4.14-11.38-12.62-9.27-4.88,1.21-9.76.37-14.58,1-3.56.5-7,1-7.47-4s2.7-6.32,6.89-6.3C644.18,1021.56,645.7,1021.83,647.23,1022Z"/><path d="M1050.78,1056.94c-10.68.07-17.33-6.81-17.56-18.18-.31-14.7,7-25.63,17.06-25.4,9.65.22,20.91,12.64,21.24,23.42C1071.86,1047.74,1062.47,1056.86,1050.78,1056.94Zm.48-9.2c6-1.33,12.7-1.72,13-10.12.19-5.22-7.47-13.4-12.4-12.86-7.6.85-9.76,6.53-10,13.15C1041.64,1044.21,1044.89,1047.53,1051.26,1047.74Z"/><path d="M1267,1182.68c-.21,3.54-3.14,3.73-5.87,4.21-9.3,1.66-12.82,7.2-11.49,16.45a54.37,54.37,0,0,1-.05,11c-.34,5.38-.1,10.46,4.81,14,3.73,2.7,3.36,5.58,0,8.16s-6.42,1.52-8.37-2a25.38,25.38,0,0,1-3.3-12.27c0-5.51,0-11-.06-16.53-.09-14.33-2.21-16-16.34-13.13-.59.12-1.16.42-1.76.49-3.12.4-7.25,2.91-8.64-1.79-1.45-4.88,3.17-5.83,6.52-7.13,7.77-3,16-4.12,24.19-4.86,5.18-.46,10.39-.48,15.59-.6C1264.79,1178.6,1267.36,1178.76,1267,1182.68Z"/><path d="M1112,1188.28c-8,6.73-16.24,8.83-25.26,7.72-6.08-.75-8.73,1.38-8,7.51.1.91.15,1.83.18,2.74.25,6.88-1.48,14.87,8.46,16.72,7,1.31,16.54-6.15,18.94-14.55.25-.87.06-1.9.42-2.71,1.27-2.92-.56-9.21,5-7.67,4.72,1.32,1.42,6.25.75,9.54-1.77,8.67-5.76,16.18-13,21.47-10.83,7.9-22.91,3.47-26.36-9.32-2.78-10.29-1.52-20.69-1-31,.19-3.44,3.59-6.88,5.62-2.71,2.83,5.8,6.64,4.08,10.58,3.91C1095.77,1189.56,1103.13,1187.13,1112,1188.28Z"/><path d="M315.55,1046.31c-5.51,4-5.23,7.42-2.21,11.1,1.74,2.13,3.35,4.37,5,6.6,1.78,2.48,2.53,5.41-.18,7.31s-5.37,0-7-2.34a45.6,45.6,0,0,1-3.21-6.54c-1.54-3.19-2-7.6-6.81-7.57-5.11,0-9.63,1.82-12.39,6.51a35.88,35.88,0,0,0-1.64,4.27c-1.6,3.77-2.4,9.8-8.11,7.49s-5.14-9-2.38-12.7c6-8.06,9.31-17,12.25-26.38.85-2.71,2.76-4.7,6.08-4.71,3.53,0,4.93,2.42,5.55,5.13C302.12,1041.72,306.8,1045.34,315.55,1046.31Z"/><path d="M380.72,1048.22c-2.43,5.78-4,10.37-6.23,14.65-5.43,10.6-12.53,14.4-22.07,12.2-12.57-2.9-19.07-10.16-19.06-21.3,0-11.93,7.09-22.3,16.78-24.88,4.62-1.23,8.48.1,11.85,3.08,2.62,2.32,5.12,5.51,2.86,8.78s-4.78,0-7.05-1.26c-5-2.67-8.7-.58-12.22,3-4.37,4.45-5.6,9.52-3,15.11s6.63,9.77,13.53,9a18.48,18.48,0,0,0,14.59-9.94C372.69,1053.14,374.56,1049.61,380.72,1048.22Z"/><path d="M445.7,1201.54C445.54,1216,427.39,1233,413,1232.4c-6.17-.26-9.32-4.11-11.76-8.94-4.69-9.31-4.47-19.64-5.71-29.64-.34-2.66.82-5.14,3.93-5,2.86.08,3,2.65,2.94,4.83a58,58,0,0,0,3.21,21.73c2.34,6.63,6.47,9.29,13.53,6.61,5.76-2.2,11.53-4.2,15.84-9,6.51-7.16,5.83-12.9-2.11-18.18-2-1.36-6-1.36-5.08-5.24.54-2.31,1.94-4.6,4.71-5.17a8.33,8.33,0,0,1,8.37,2.59C444.62,1191.13,445.34,1196.28,445.7,1201.54Z"/><path d="M471.92,1379.51c-7.73,6.35-14.44,6.67-21,7.91-4.16.78-9.94-.67-11.61,5.2-1.39,4.92,1.12,9.37,4.61,12.33,4.38,3.71,8.59.26,12.5-2.09,2.56-1.54,4.9-3.72,8.81-2.27-1.62,6-4.42,10.84-9.33,14.22-6.92,4.77-13.46,3.46-18.22-3.42-6.81-9.87-7.7-21.08-7.2-32.57a6,6,0,0,1,3.09-5.32c2.68-1.45,4,.47,5.06,2.37,2,3.67,5.29,3.66,8.72,3.65C454.7,1379.5,462,1379.51,471.92,1379.51Z"/><path d="M372.58,1185.42a28.38,28.38,0,0,1-1.9,3.84c-6.64,9.84-7.4,19.92-1,30.08,2.27,3.58,1.08,6.44-1,9.28-1.24,1.73-2.83,3.49-5.26,3.09-3-.51-3.5-3-3.68-5.56-.58-7.94-.93-15.9-1.82-23.8-.75-6.65-3.76-10.13-11.21-7-4.47,1.88-9.36,2.79-14.06,4.16-2.45.71-5,1.42-5.91-2-.65-2.5.8-4.18,3.07-4.91,12.23-3.93,24.47-7.86,36.76-11.6C369.9,1180,371.88,1181.79,372.58,1185.42Z"/><path d="M274,1223.6c9.93,12.51,16.45,13.88,24,5.62,4.38-4.8,4.8-9-1.26-12.73a42.9,42.9,0,0,1-11.11-9.47c-4.92-6.06-3.17-12,.44-17.76,1.16-1.86,2.9-3.25,5.38-1.83,2,1.16,1.93,2.77,1.23,4.71-2.73,7.55,1.35,12.35,7,16.11,7.49,5,11,11.28,8.19,20.25A21.89,21.89,0,0,1,288,1243.71C276.6,1244.2,270.72,1236.33,274,1223.6Z"/><path d="M249.27,1087c-8.67.35-14.12-3.92-15.93-12.15-2.24-10.15-3.88-20.44-5.67-30.69-.55-3.15-.57-6.6,3.5-7.23,4.87-.76,5.51,2.85,5.34,6.48-.36,8.09,1.58,15.8,3.49,23.53,1.25,5,3.38,9.4,9,10.4,6,1.07,9.66-2.7,12.79-7.16a23.49,23.49,0,0,0,4-9.19c.37-1.94,1-3.75,3.43-3.21,2.1.47,2.54,2.34,2.73,4.28C273.2,1074.68,261.83,1087.2,249.27,1087Z"/><path d="M175.43,1407.3c-.65-9.83-.86-19.62-3.12-29.28-.81-3.5-.37-7,4.35-7.52,5.42-.58,4.8,3.54,4.86,6.79.2,9.82.46,19.63.26,29.44-.08,3.61.18,6.89,3,9.18,2.66,2.17,2.77,4.89,1.9,7.47-1.28,3.79-1,9.77-6.63,9.6-6.67-.2-4.29-6.22-4.53-10.06C175.19,1417.73,175.43,1412.5,175.43,1407.3Z"/><path d="M639.88,1194.82c.49,8.53.76,17,4.55,25,2.05,4.28-.07,7.27-3.94,8.63-5.07,1.77-6.67-2.06-7-5.89-.94-12.14-1.5-24.31-2.2-36.47-.17-3,.44-5.82,4.07-5.87,4.21-.06,4.6,3.09,4.5,6.41C639.81,1189.36,639.88,1192.09,639.88,1194.82Z"/><path d="M1115.71,1164.72c2.41-.58,4.5.14,4.72,2.76.28,3.41-2.39,5-5.16,5.45-9.07,1.48-18.18,2.72-27.3,3.85-2.7.34-5.46-.18-8.09,1.14s-5.55,2.24-6.5-1.84c-.74-3.18,1-5.51,4.1-6.13,5.7-1.12,11.47-2,17.24-2.76C1101.7,1166.26,1108.71,1165.53,1115.71,1164.72Z"/><path d="M403.94,1030.33c3,.24,3.95,2.56,4.8,4.85,3,7.92,3.28,16.59,8.14,24.09,2.22,3.43-.35,8-4.75,9.39s-5.77-2-6.43-5.63c-1.65-9-3.4-17.94-4.91-27C400.38,1033.63,400.84,1031.15,403.94,1030.33Z"/><path d="M242.73,1216c-.46-5.19-1-10.37-1.36-15.55-.15-1.88,0-4,2.14-4.56,2.57-.68,3.83,1.29,4.73,3.35,1.54,3.53,1,7.27.85,10.9-.22,6.72-.8,13.3,2.37,19.75,1.74,3.52,1,8.06-3.56,8.8-4.82.76-4.66-3.87-4.81-7.08-.25-5.19-.07-10.4-.07-15.6Z"/><path d="M480.11,1358.71c-.42,2.76-2.92,3.09-4.81,3.62-9.13,2.58-18.82,2.45-27.85,5.67a3.29,3.29,0,0,1-4.33-2.35c-.76-2.28-.37-4.88,2.1-5.27,10.58-1.7,21.21-3,31.84-4.36A2.71,2.71,0,0,1,480.11,1358.71Z"/></svg>