<svg xmlns="http://www.w3.org/2000/svg" width="1309.78" height="2042.6" viewBox="0 0 1309.78 2042.6"><title>c8-txt</title><path d="M680.47,1744.61c6.47-2.75,13.3,2.15,20.65,3.83a5.6,5.6,0,0,1,4.4,3.61c2.43,7.32,5.33,6.3,9.46,1,7.22-9.19,17.74-8.67,28-8.63,1.93,0,3.56.72,3.44,2.78-.25,4.14.34,8.69-4.1,11.35a72,72,0,0,1-17,7.36c-5.19,1.5-5.54,3.73-2,7.57a87.45,87.45,0,0,0,14.55,12.91c1.55,1,2.9,2.76,5.28,1.6,2.17-1.07,5-2.93,6.16.91,1.08,3.56-.12,6.68-3.73,8.5-3.28,1.64-6.48,2-9.49-.53-5.81-4.92-12-9.52-17.29-14.92-4.3-4.35-6.1-3.86-7.71,1.8-.71,2.51-1.22,6.48-4.8,6-4.44-.61-2.81-4.84-2.87-7.65-.22-9.88.5-19.91-6.68-28.15-.79-.9-.18-3.33-2.17-2.94-10.25,2-21-1.68-31,2.85-1.91.87-5,1.24-4.2,4.3s3.71,1.91,5.77,1.72c7.87-.7,15.71-1.73,23.58-2.36,2.28-.18,5.7-1.1,6.19,2.53.55,4-3,3.21-5.32,3.54-7.27,1-14.55,2-21.84,2.88-4.55.53-9.7.35-9.74,6.79,0,5.36-2.11,12,5.24,14.52,5.9,2.07,10.25-1.38,14.25-5.17.2-.18.27-.5.45-.71,1.65-2,1.32-7.71,5.85-4.55,3.56,2.49,1.12,6.37-1.12,8.87a37.71,37.71,0,0,1-18.53,11.3c-4.81,1.3-8.24-.6-10.51-4.88-4.3-8.12-2.62-17.6-7.3-26.23-3.74-6.9,5.08-17,14.06-20.36C666.44,1743.79,672.67,1744.87,680.47,1744.61Zm55.17,8.77c-.3-.92-.33-2.05-.83-2.31-3.13-1.69-6,.07-8.8,1.16-2.46,1-5.64,1.76-5.71,5.42,0,1.16.43,2.59,1.77,2.32A30.1,30.1,0,0,0,735.64,1753.38Z"/><path d="M1037,1542.35c-2-9.6-2.69-19.47-3.12-29.37-.12-2.78-.82-5.85,2.12-7.66a5.27,5.27,0,0,1,5.67.4c3,2.08,1.61,5.1.87,7.75-1.78,6.39.81,12.26,1.81,18.34,1.36,8.27,4.69,17.52-3.43,23.72s-16.17.18-23.73-3.21c-5-2.23-8.72-6.22-12.2-10.37-3.61-4.32-6.59-3.48-9.07,1.17-1.86,3.49-3.65,7-5.61,10.46-1.31,2.29-3.13,4.17-6.09,3.76s-5.2-2.15-5.76-5.35-1.07-6.7-1.62-10c-.86-5.17-2.41-10-7.51-12.57-4-2-4.86-4.64-2.33-8.12s6-5.21,10.26-2.59c5.09,3.13,6.54,8.22,7.3,13.7.26,1.87-.12,4.36,2.24,5,2.93.81,3.78-2.06,4.93-3.78,9-13.44,8.78-13.35,18.64-.7a48.35,48.35,0,0,0,18.7,14.31C1033.44,1549.18,1036.87,1548.39,1037,1542.35Z"/><path d="M708.85,1529.48c0-5.09,0-10.18,0-15.27s2.43-7.89,7.15-9.08c4.95-1.25,6.28,2.31,7.83,5.75,3,6.54,6.92,12.35,13,16.41,8.53,5.72,14.57,2.91,15.84-7.26.38-3.06.17-6.33,1.2-9.14s2.59-6.08,6.33-6.06c4,0,5,3.7,5.58,6.53,1.54,7.44,2.58,15,3.59,22.54.63,4.78,1.26,9.45,3.32,13.93,1.75,3.78.34,7.17-2.72,9.85-1.57,1.37-3.21,2.26-5.35,1-3.53-2-3.82-5.31-3.63-8.83,0-.56,0-1.13.07-1.69.53-14,.44-14.17-12.32-8.86-8.81,3.66-14.46-1.34-20.44-6.25-2-1.63-3.18-5.65-6.65-3.82-2.66,1.41-1.22,4.6-1.16,7,.11,4.29-.19,8.52-2,12.44-1.09,2.36-1.31,6.23-5.32,5.28-3.18-.75-4.08-3.82-4.16-6.72-.18-5.93-.06-11.87-.06-17.81Z"/><path d="M313,78.5c-12.08,0-18.55-8.13-16.38-20.18,1.51-8.4,1.08-16.92.49-25.36-.43-6.09,2-8.83,8-9.24,5.05-.34,10-1.62,15.1-1.91,9.21-.53,12.24,2.68,10.25,11.45-1.77,7.87-.9,12.47,8.76,12.6,5.76.08,5.9,4.94,4.83,9.52C341.05,68,326.9,78.55,313,78.5Zm-.12-7.19c9.49.09,14.92-6,19.79-12.15,2.86-3.6-.57-5.87-4-6.06a27.59,27.59,0,0,0-20.19,7.17,6.84,6.84,0,0,0-2.14,7.7C307.56,71.32,310.38,71.49,312.85,71.31Zm-2.62-25.54c5.53.09,11.44-5.39,11.32-10.42-.07-3.06-1.51-4.62-4.59-4.81-5.54-.33-11,4.9-11,10.53C305.9,44.1,306.82,46,310.23,45.77Z"/><path d="M182.75,192c-7.7-.77-11.21-6.72-15.84-11.1-2.53-2.39-3.81-7.11-8.41-5.77-4,1.18-1.69,5.42-2.76,8.12-1.2,3-.92,7.16-5.7,7.18-5,0-4.93-4.15-5-7.29a84.77,84.77,0,0,0-8.3-34.26c-1.71-3.51-2.63-7.27,2.59-8.79,4.66-1.36,6.73,1.79,8.12,5.39.58,1.52.42,3.33.64,5s.75,3.52,2.56,4c2.33.66,3.56-.89,4.42-2.91,2.5-5.92,7.5-9,13.17-11.15,8.12-3.08,13.11.48,13.46,9.27.22,5.73-2.41,10.28-5.53,14.73-1.65,2.36-5.37,4.44-2.67,7.86,2.81,3.57,4.53,8.83,10.64,8.47,3.79-.23,9.71-3.28,9.31,4C193.08,190.66,186.8,190.58,182.75,192Zm-10-38.81c0-2.44-1.1-4.19-3.93-3.76-4.77.73-7.17,4-7.72,8.54-.33,2.76.83,5.16,4.06,5C171.27,162.75,170.82,157.16,172.72,153.16Z"/><path d="M907.35,1531.75c2.43,5.63-3.27,16,9.54,15.82,1.37,0,1.44,2.42.78,3.63-1.89,3.45-3.48,7.34-6.22,10-3.86,3.71-7.55,1.86-9-2.85-1.69-5.66-2.56-11.57-3.86-17.35-.49-2.19-.56-5.63-1.92-6.3-8.4-4.17-17-.56-25.32.78-5.78.92-4.55,5.91-3.6,10.28,1.27,5.85.83,11.82.39,17.75-.15,2.09-.76,4-3.1,4.46-2.54.49-3.41-1.35-4-3.36-.5-1.62-1.39-3.2-1.5-4.83a162.33,162.33,0,0,0-7.74-40.52,6.2,6.2,0,0,1,4.28-8.16c4.59-1.45,6,2.12,6.73,5.55,1.6,7.21,6.45,9.44,13.16,9.11,2.54-.13,5.09-.49,7.62-.41,6.68.21,15.17,2.33,8.5-9.51a3.77,3.77,0,0,1,1.63-5.17,6.42,6.42,0,0,1,7.18.48C908.34,1516.22,908.82,1523.6,907.35,1531.75Z"/><path d="M1021.74,156.11a59.67,59.67,0,0,1,24.67,3.06c10.26,3.65,14.13,12,10.14,22.15-5.31,13.53-27.61,26.65-42,24.93-6-.73-9.06-3.45-9.06-9.82,0-11.85,1.38-23.68.13-35.53-.43-4.05,1.85-5.63,5.64-5.43S1018.59,155.92,1021.74,156.11Zm8,8.67c-7.42-.72-9.63,2.31-10.51,7.1-1.25,6.88-.29,14-2.71,20.83-1.41,4,2.84,5.68,5.86,4.69,10.23-3.35,20.21-7.62,25.65-17.75,2.48-4.63,2.4-9.66-3.88-11.56C1038.84,166.46,1033.26,165.56,1029.78,164.78Z"/><path d="M555,1394.32c6.52-4.23,11.38-10.9,19.94-10.65,6,.19,12.43-.5,14.42,7.13,1.9,7.25-1.19,12.45-7.48,16.3-3,1.86-9.18,1-8.31,6.58.74,4.72,6.07,4.17,9.68,5.37,6.61,2.21,12.92,5.77,20.38,4,2.49-.6,4.5.56,4.58,3.52.08,3.3-2.09,4.65-4.9,4.51-12.47-.62-24.9-1.8-35.37-9.55-5.83-4.32-10.05-5.43-11.65,3.51-.51,2.86-2.25,4.69-5.32,4.07s-4.11-2.9-3.77-5.74c1.21-10.13,2.28-20.19-2.75-29.79-1-1.92.3-4,2.18-5,2.15-1.15,4.35-1.26,5.81,1.29Zm21-4.24c-6,1.68-11.94,3.69-14.69,10.05-.82,1.92-1.75,5.27,2.13,4.45,6-1.28,12-3.35,15.8-8.78.93-1.31,2.07-2.79.54-4.51A3.81,3.81,0,0,0,576,1390.08Z"/><path d="M232.63,1514.9c-.53-21.41-.52-21.3,19-24a50,50,0,0,1,28.06,4.22c12,5.44,14.65,16,6.55,26.17-12.85,16-28.73,25.36-50.17,21.21-2.81-.54-7.31,0-6.4-4.64.78-3.89,4.55-2.23,7.15-1.76,16.07,2.94,37-7.65,44-22.1,2.84-5.93,1.31-9.85-4.75-11.92a76.36,76.36,0,0,0-20.69-4.21c-7.11-.37-10.51,3.15-10.75,10-.18,5.36.05,10.75-.27,16.1-.23,3.93-1.59,7.15-6.62,7-5.34-.22-5.55-4-5.59-7.73C232.12,1519.8,232.53,1516.42,232.63,1514.9Z"/><path d="M317.91,1661c-.54-7.58-.5-15.24-4.74-22.08-1.72-2.77-1.2-5.6,2-7,3.57-1.6,5.16.7,6.11,3.7.43,1.35.79,2.72,1.11,4.09,2.71,11.7,2.81,11.85,12.43,5.22,5.45-3.75,8.47-.49,11.12,3.36,4.74,6.89,10.21,12.78,18.21,15.85,8.44,3.23,12.17,1,13.12-8,.62-6,.63-11.83-3-17.1-1.84-2.64-2.89-5.56-.57-8.6a5.1,5.1,0,0,1,5.27-1.84c4.26.67,3.91,4.46,4.5,7.25,1.8,8.52,4.19,17,2.59,25.92-2.3,12.85-8.62,16.7-21.08,12.56a53,53,0,0,1-21.27-13.36c-6.16-6.21-9-5.68-13.36,2a29.54,29.54,0,0,0-1.42,3.07c-1.47,3.46-1.67,8.52-7.36,7.32-5.93-1.24-3.28-6.14-3.53-9.74C318,1662.7,318,1661.85,317.91,1661Z"/><path d="M888,1405.49c4.83-.65,8.64.48,11.89-2.06,2.91-2.28,5.42-1.65,6.63,1.79s-1.2,5.43-4.1,6.14c-4.37,1.08-8.93,1.42-13.32,2.42-3.26.73-7.56,1.5-7.41,5.65.18,5.22.55,11.16,3.16,15.34,1.92,3.06,5.09-.54,6.66-3.54s1.19-10.15,5.77-8.31c4.92,2,.88,7.88.06,12a8.08,8.08,0,0,1-1.41,3c-3.26,4.49-6,10.52-12.64,9.65-6.28-.82-6.58-7.16-7.8-11.88-3.24-12.55-5.93-25.24-9.1-37.82-1.5-6,.28-9.23,6.48-10.08,10.07-1.38,20.06-3.06,29.8-6.17,4-1.27,8.73-.78,9.31,4.21.52,4.45-3.06,7.06-7.71,7.07-6.92,0-13.27,2.57-19.78,4.35-2.38.65-6.57-.15-6,4.22.54,4.11,4.48,3.56,7.41,4A5.46,5.46,0,0,0,888,1405.49Z"/><path d="M351.69,174.15c.28-9,1.37-16.83,5-24.08,1.89-3.81,4.16-7.33,9-4,4.15,2.8,4.27,6.73,1,10.12-6.78,7-6.88,15.06-4.58,23.7.66,2.47,1,5.5,4.2,5.55,3,.05,3-3.11,3.45-5.12a30.22,30.22,0,0,1,7.8-14.79c3.83-4,8.22-6.16,13.69-3.89,5.22,2.16,7.65,6.43,8.09,11.95,1.07,13.46-9.75,28-21.61,28.1C365.43,201.77,350,190.54,351.69,174.15Zm28.76,8.61c-.08,2.85,1.24,7,4.34,6.45,5-.92,5.48-6.59,6.61-10.81.84-3.18-1.58-4.8-4.38-4.41C382.49,174.61,380.3,177.64,380.45,182.76Z"/><path d="M464.17,1409.35c0,3.11.14,6.23,0,9.33-.23,4.14-.28,7.8,5.7,5.88,1.89-.6,3.89.27,3.94,2,.15,5.78-4.25,8.42-8.73,10.1-4.28,1.61-7.33-.79-7.77-5.21-.73-7.3-.95-14.65-1.37-22-.14-2.4,1.06-5.4-2.24-6.53-2.86-1-4.7,1.31-6.71,2.78a13.82,13.82,0,0,0-1.87,1.72c-9.43,10-9.48,10.12-21,1.52-4.84-3.62-7.07-2.5-7.44,3.37-.32,5.07-.58,10.16-1.15,15.21-.36,3.12-1.07,6.63-5.33,6.22-3.87-.36-3.55-3.73-3.71-6.54-.62-10.34,2.24-20.86-1.91-31-.94-2.3.62-4.29,3-5.32,3.59-1.54,7.11-2.22,10.21.87,2.8,2.8,5.44,5.75,8.16,8.61,5.24,5.5,10.41,6,16,.23,4.1-4.28,8.51-8.28,12.91-12.26,3.84-3.47,6.65-2.56,7.92,2.43C464.3,1396.88,464.21,1403.12,464.17,1409.35Z"/><path d="M193.44,1669.39c0,3.09.15,6.2,0,9.29-.17,2.78-1.32,4.91-4.66,4.79-3.07-.11-4.93-1.84-4.94-4.7a287.13,287.13,0,0,0-3.86-44.69c-.36-2.25.09-4.62,3.2-5,3.46-.4,5.43,1.73,6.41,4.46,5.4,14.93,17.73,22.91,30.32,30.66a42.78,42.78,0,0,0,5.31,2.6c4.24,1.86,6.22.12,5.27-4.1-2-9-1-18.69-5.42-27.26-1.25-2.41-1.44-4.92.89-6.94a5.23,5.23,0,0,1,5.57-.93c2.53,1,2.69,3.31,2.59,5.68-.46,11.71,4.22,22.72,4.73,34.3.42,9.76-2.43,12.06-11.37,8.47-10.23-4.12-20.14-8.92-28.45-16.45-1.59-1.44-2.7-4.54-5.16-3.69-3.31,1.14-1.21,4.42-1.36,6.73a43.89,43.89,0,0,0,.51,6.74Z"/><path d="M328.35,162.16c-.46,5.63-.82,11.27-1.41,16.88-.78,7.41-4.82,8.32-10.55,4.84-7.48-4.53-15.43-8.33-22-14.23-1.46-1.3-3.1-2.84-5.23-2.09-2.83,1-2.22,3.7-2.1,5.84.28,4.91.4,9.64-3.95,13.16s-7.77,3.05-8.29-2.7c-.88-9.53-.08-19.16-1.52-28.74-.59-4,2.72-6.72,6.31-8.2,3.89-1.6,6.51.83,8.63,3.61a76.56,76.56,0,0,0,22.2,19.4c5.4,3.21,8.45,2.28,8.83-4.4.29-5.09.38-10.07-1.09-15.12-1.26-4.37.48-8.43,5.33-8.78,5.06-.37,5.42,3.91,5.24,7.81-.19,4.23-.47,8.46-.71,12.69Z"/><path d="M490.92,188.56c-6.17.54-10.27,3.67-13.7,8.14-1.79,2.35-3.68,5.67-7.53,3.51s-2.93-5.72-1.57-8.94c4.62-10.92,9.42-21.77,14-32.71,1.58-3.74,4.58-5.69,8-7.1,4.56-1.88,8.06-1.47,7.32,4.78-.72,6,2.21,11,4,16.25,1.51,4.39,5.15,5.57,9.37,5.92,4,.33,7.28,1.58,3.68,6.19-2,2.6-1.3,4.36.1,6.78,2.48,4.28-.25,6.76-3.62,8.92-4.23,2.72-6.25.07-7.88-3.18C500.51,191.86,496.44,188.9,490.92,188.56Z"/><path d="M325,1413c-.69-7.56-1.32-13.76-1.8-20-.23-3-1.07-6.47,2.57-8.21s7.08-.85,10.05,2c5.28,5.08,11.7,9,15.73,15.35,3.47,5.49,6.44,4.25,9.24-.61,2-3.42,4.1-6.77,6-10.23,1.34-2.4,1.87-5.62,5.68-5.23,4.06.41,5.71,3.27,6.43,6.83,1.18,5.81,2.43,11.62,3.29,17.49.61,4.2.81,8.38,3.3,12.11,1.87,2.79.74,5.4-1.34,7.67a5,5,0,0,1-5.37,1.6c-3-.9-3.48-3.33-3.63-6-.35-6.49-.76-13-1.17-19.45-.13-2.06-.61-4-3-4.59s-2.73,1.4-3.6,2.79c-9.29,14.72-9.23,14.65-22.08,2.56-2.51-2.36-4.33-7.4-8.54-5.66s-1.16,6.62-2.15,9.93c-1.44,4.76,3.16,13.59-5.48,13.4C320.8,1424.58,327.12,1415.88,325,1413Z"/><path d="M802,1522.84c6.76-.67,13.5-1.3,19.95-3.75,1.93-.74,4.76-1.67,5.82,1.33,1.12,3.19-1,4.58-3.84,5.22-7.17,1.6-14.32,3.29-21.48,4.93-3.68.84-8,1.72-7.12,6.6,1.08,6.06-.71,13.84,7,16.9,4.89,1.93,7.35-1.2,8.13-5.81.56-3.23,1.32-6.86,5.56-5.53,4.5,1.41,3.12,5.38,2.11,8.6-2.48,7.88-10.62,14.53-17.32,14-8.81-.64-11.36-7.2-13.15-14.39-1.83-7.38-3.27-14.83-5.71-22.12-2.72-8.11,3.14-17.14,11.72-18.48,9.48-1.48,19.15-1.73,27.93-6.35,2.22-1.17,4.56-.79,5.62,1.9,1.29,3.25-.73,4.78-3.47,5.48-7.66,1.94-15.37,3.71-23,5.62-2.18.54-5.09,1.23-4.52,4S799.76,1523,802,1522.84Z"/><path d="M377,1892.31a54.91,54.91,0,0,1,0,6.79c-.88,7-5.42,9.06-11.4,5.24-3.62-2.32-6.3-5.62-8.8-9.08-1.43-2-2.63-4.92-5.79-3.93-2.5.78-2.38,3.46-2.91,5.67a105.41,105.41,0,0,1-3.81,13c-1.24,3.24-3.54,6-7.52,5.89-3.61-.07-5.54-2.67-6.76-5.62a114.53,114.53,0,0,1-4.89-13.5c-1.73-6.29-3.36-12.52-7.48-17.81-2.73-3.51-2.53-7.23,1.41-9.39,4.57-2.51,5.94,1.59,7,4.74,2.56,7.48,4.78,15.07,7.26,22.57.75,2.29.8,5.78,4.1,5.58,3.05-.19,3.12-3.7,4-5.93,1.89-4.79,2.06-9.92,2.26-15,.11-3.08-.13-6.56,3.74-7.67s5.46,1.82,7.21,4.49c2.16,3.31,4.43,6.56,6.82,9.71,1.46,1.93,2.75,5.2,5.69,4.08,3.45-1.31,2.08-4.94,1.65-7.47-.69-4.15-2.26-8.15-3.13-12.28-.57-2.66-1.56-6,2.56-6.83,3.65-.69,6,1.13,6.48,4.92q1.42,10.92,2.8,21.83Z"/><path d="M494,1500.18c9.05,2.07,20.16.23,25.31,10.51s-.66,19.22-6.38,27.33S500,1553,490.62,1557c-3.51,1.46-7.91,3.58-10.18-1.68-2.57-6,2.43-6.38,6.21-7.31,2.51-.62,4.36-1.12,2.61-4.41-5.95-11.19-4.95-24.75-12.25-35.6-2-3-.41-6.92,3.52-6.63C485.16,1501.67,489.44,1499.78,494,1500.18Zm5,9.78c-9.07-.18-10.29,1.42-7.37,10.23,1.85,5.57,4.94,10.8,4.29,17-.16,1.55-1.3,3.77,1,4.26,1.32.28,3.25-.72,4.45-1.7,4-3.27,6.39-7.82,8.47-12.45C515.08,1515.8,511.56,1510.21,499.06,1510Z"/><path d="M628.87,1768c-.43,5.61-.86,9.62,3,12.4,2.17,1.55,2.74,3.61,1.16,5.87a7.2,7.2,0,0,1-6.57,3.2c-3.13-.21-4.24-2.5-4.33-5.29-.19-6.23-.6-12.43-2.34-18.45-1.61-5.53-3.93-8.51-8.65-2.14-2.68,3.62-5.89,6.89-8.32,10.67-3.34,5.19-6.34,4.81-9.65.2-1.32-1.83-2.52-3.76-4-5.48a4,4,0,0,0-4.53-1.47,3.29,3.29,0,0,0-2.28,4c.85,4.31-1.27,7.67-3.26,11.08-.84,1.44-1.72,3.12-3.84,2.6a4,4,0,0,1-3.24-4.43c1-8.92-2.12-17.33-2.94-26-.26-2.81-.59-5.77,2.51-7.48,3.31-1.82,6-.44,8.41,1.8,3.74,3.45,7.7,6.72,11,10.53,5.32,6.1,9.77,5.31,14.49-.63,3.15-4,6.8-7.55,10.09-11.43,1.7-2,3.27-4.08,6.28-3.21,2.63.77,3.06,3,3.24,5.38C625.69,1756.45,629.89,1762.54,628.87,1768Z"/><path d="M670.18,187.13c-6.19-.22-11.08,2-14,7.65a19.05,19.05,0,0,1-6,7c-3.64,2.52-6.44,2.75-8-2.76-3.39-12-3.66-12,7.09-18.19,2.83-1.63,3.67-4.27,4.41-6.91a27.86,27.86,0,0,1,5.1-10.59c4.91-5.9,11-6.28,15.71-.28a107.86,107.86,0,0,1,17.73,33.52c1.29,4,1.7,8.4-3.8,9.33-5.16.88-6.6-2.83-7.1-7.29C680.12,187.65,679.29,186.91,670.18,187.13Z"/><path d="M791.46,203.78c-8.39-.55-15.6-1.78-22-5.89-2.19-1.42-5.85-2.67-4-6.29,1.74-3.32,4.77-2.06,7.4-.73,1.26.64,2.46,1.4,3.74,2,2.13,1,4.47,1.7,6.07-.64,1.43-2.09-.39-3.57-1.58-5.15-13.23-17.54-10.94-27.52,8.51-37.23,2.77-1.39,5.62-2.63,8.43-4s5.76-2.83,7.63,1.54.7,7.25-3.53,8.8c-3.69,1.35-7.7,1.9-11.3,3.44-9.66,4.15-11.23,12.89-3.65,20.2,6.05,5.84,13,9.91,21.87,9.56,3.49-.14,7,0,7.23,4.93.2,4.6-2.31,6.68-6.55,7.2Z"/><path d="M37.88,195c-14.15.15-22.68-9.38-17.76-18.62,1.44-2.71,3.13-6.19,6.92-4.68s1.63,4.6.68,7.16c-1.86,5,.88,6.67,5.28,7a21.78,21.78,0,0,0,10-1.22c4.57-1.85,10.55-2.17,11.84-8.26s-4.49-7.74-8-10.63c-8.12-6.62-12.07-14.78-9.44-25.34,2-7.92,9.57-14,18.54-15.12,4.3-.53,8.12-.2,8.87,5.15.78,5.62-3.23,5.29-7,5.79-12.68,1.67-15.32,8-7.55,18.37A80.16,80.16,0,0,0,59,163.76c8.18,7.83,7.86,16.74-1,23.78A36.67,36.67,0,0,1,37.88,195Z"/><path d="M466,1530.17c0,11-3.84,14.34-14.76,12.11a66.08,66.08,0,0,1-21.77-9.16c-1.8-1.12-3.58-3.18-6.09-1.73s-1.58,3.88-1.28,6.08c.59,4.32,2.82,10.57-2.87,11.52-6.95,1.16-5.61-6.15-6.44-10.42-1.35-6.92-2.31-13.93-3.25-20.93-.46-3.36-.9-6.91,3.37-8.54s6.49.91,8.43,3.81c6.23,9.36,15,15.17,25.48,18.7,2.86,1,6,2.4,8.76-.25,3.07-3,.31-5.84-.7-8.53-1.9-5-4.3-9.82-6.26-14.8-.88-2.22-.69-4.66,1.85-5.82s5.46-1,6.61,1.75C460.59,1512.49,466,1520.44,466,1530.17Z"/><path d="M368.67,1502.81c3.31,0,4.6,1.85,5.52,5.06,3.86,13.35,5.51,14.16,19.06,10.7,1.09-.27,2.11-.8,3.19-1.1,2.56-.7,5.45-1.3,6.19,2.13.58,2.68-1.63,3.84-4.1,4.36a58.16,58.16,0,0,0-7.36,1.94c-8.43,3-9.55,6.84-4,13.74,1.94,2.41,4.28,4.54,6,7.09,2.13,3.16.94,6-2,8-3.09,2-4.65-.41-5.93-2.63-2.94-5.13-5.78-10.32-8.58-15.52-1.41-2.63-1.75-6.23-6-6-3.82.18-6.29,2.4-7.89,5.57-2.54,5-4.88,10.16-7.29,15.25-1.38,2.93-3.29,4.78-6.61,2.82-2.92-1.73-3-4.14-1.86-7.29,4.45-12.62,11.51-24.19,14.73-37.32C362.55,1506.34,364.62,1503.35,368.67,1502.81Z"/><path d="M266.85,1426.28c.32,5.38-1.38,8.25-5.38,8.61-4.26.39-4.78-3-5-6.29-.44-5.63-.84-11.26-1.32-16.89-.52-6.15-4.17-8.65-9.87-7.16-5.43,1.41-10.65,3.63-15.92,5.63-2.61,1-2.91,3.11-2.27,5.59.71,2.73,1.4,5.48,1.9,8.25.81,4.51-.52,8.26-5.43,8.84-5.57.65-4-4.18-4.48-7.15-1.77-10.89-3.21-21.83-5.26-32.66-.59-3.11-.16-5,2.59-6.11,2.59-1,4.11.44,5.43,2.63,5.78,9.65,12.09,11.81,22.79,8.24,2.6-.86,3.25-2.6,3.75-5,.76-3.59,3.45-4.86,6.94-4.88s5.07,2.1,6.28,4.81a15.45,15.45,0,0,1,1.36,4C264.37,1407.06,262.58,1417.77,266.85,1426.28Z"/><path d="M547.54,204.65c-6.38.4-12.2-1.8-18.07-3.81-2.21-.76-4.71-1.4-4-4.39s3-5,6.25-4.37c5.26.95,10.42,2.42,15.68,3.37,2.72.49,6.43,1.11,7.47-2.09,1.33-4.05-3.18-3.7-5.33-5-5.63-3.29-11.28-6.41-14.46-12.56-2.83-5.46-2.14-10.29,2-14.74,4.47-4.85,10.12-5.87,16.28-4.76,2.25.4,3.06,2.43,3.3,4.43.31,2.64-1.56,3.95-3.51,5.28-9.42,6.42-9.26,8.4.94,14.17,5.24,3,11,4.14,16.79,5.53,3.18.77,6.9,1.49,6.85,6.13,0,4.26-2.42,6.85-6.22,8.1C563.7,202.56,555.89,205.05,547.54,204.65Z"/><path d="M542.32,1775c-.84-3.21,2.24-9.67-1.9-10.79-5.37-1.45-7,5.24-9,9.3-3.38,7-7.31,8.86-13.47,3-4.85-4.58-8.12-4.8-8.65,3.29-.22,3.41-.63,8.28-5.89,7.47-4.83-.74-2.82-5.16-3.23-8.32-.71-5.58-.26-11.26-2.08-16.76-1.44-4.38.73-7.69,4.59-9.84,4.22-2.36,6,.88,8.19,3.54,12.65,15.72,13.79,15.64,24.15-1.64,1.72-2.87,2.92-6.45,7.23-6.07,4.83.42,5.27,4.6,6.17,8,2.43,9.24.83,19.17,5.09,28.2,1.41,3-1.24,5.27-4.31,6-3.83,1-6.19-1.19-6.76-4.58S542.32,1779.15,542.32,1775Z"/><path d="M841.19,1413.63c-5.69-.21-13.87,1-21.34-4.07-4.47-3-4.5,1.33-4,4,1.08,6.1,2.62,12.12,4,18.17.8,3.5,1.3,7.31-3.17,8.24-4.63,1-5.5-3.08-6-6.43q-1.93-12.54-3.43-25.15c-.68-5.65-1.48-11.2-4.86-16-2.32-3.28-2.54-6.51,1.23-8.64,4.25-2.41,6,.87,7.64,4,2,3.93-.49,11,5.9,11.66,4.76.51,6.66-5.51,10.26-8.1,2.51-1.81,4.87-3.84,7.42-5.6s4.78-.79,6.6,1.46c2.09,2.6,1.19,4.44-1.15,6.4-3.22,2.69-10.6,3.52-8.66,8.53,2.07,5.34,9.07,2.26,13.9,2.74,4.21.42,8.46.23,12.69.46,2.55.15,4.45,1.57,4.3,4.23s-1.85,4-4.52,4.07C853.18,1413.65,848.39,1413.63,841.19,1413.63Z"/><path d="M415.63,47.14c1.88-.44,4.08-.93,6.27-1.49,2.35-.61,4.8-.83,5.67,2,1.11,3.54-2,3.29-4.06,3.78-4.67,1.13-9.38,2.07-14,3.31-3.57,1-6.19,3.29-6.24,7.12-.07,4.77.07,9.79,3.28,13.67,1.81,2.18,4.27,1.14,5.67-1s2.18-4.58,3.48-6.74,3.08-3.35,5.6-1.56c2,1.44,2.11,3.16.81,5.12-1.56,2.36-3,4.79-4.69,7.07-3.64,5-8.06,9.68-14.68,8-6.28-1.56-6.54-7.94-7.13-13.22-1.33-11.79-2.71-23.57-.17-35.46,1.3-6.07,4.32-9.17,10.43-8.51,7.61.83,14.43-2,21.51-3.86,2.93-.75,6.56-1.75,7.46,2.83.77,3.92-1.88,5.75-5.22,6.38-5.83,1.1-11.72,1.86-17.56,2.86-3.26.55-8.17.39-8.2,4.26,0,3.65,4.89,3.88,8.12,4.73C413.05,46.66,414.17,46.84,415.63,47.14Z"/><path d="M609,1663.06a5.48,5.48,0,0,1-5.42-3.8c-1-2.61-1.37-5.51-2.53-8-1.47-3.22-.17-8.69-6.18-8.56-5.71.13-10.48,1.95-13,7.68-1.89,4.39-4,8.71-5.9,13.08-1.32,3-3.29,4.72-6.61,3.14-3-1.42-2.78-4.06-1.57-6.51,5-10.18,7.38-21.23,10.68-32a20.13,20.13,0,0,1,4.15-7.23c7.25-8.24,9.87-7.86,15,2,2.51,4.77,4.22,10.47,11.64,6.42,1.22-.66,2.79.21,3.35,1.77.91,2.58-.54,4.16-2.35,5.76-6.47,5.71-6,8.22,2.53,10.84,4.61,1.42,2.38,4.38,2.23,6.78C614.87,1658.53,613.46,1662.1,609,1663.06Z"/><path d="M75.37,34.31q-.54-8-1.09-16c-.18-2.67,0-5.27,3.16-6.13s4.9.87,5.72,3.61c1.64,5.42,5.17,6.75,10.46,5.71s11.65-.3,11.18-8.85A5,5,0,0,1,109.91,7c3.73-.09,4.31,3.19,5,5.86,1.58,6.11.94,12.34.8,18.55-.1,4.5-.37,9,1.22,13.42s.65,8.34-4.4,9.15c-5.88.93-5.88-3.9-6.18-7.85-.18-2.53,0-5.09,0-7.63-.06-4.18,2.32-9.53-5.26-9.91-8.2-.41-14,2.88-14.9,9.15-.79,5.2.86,10.75-2.62,15.6C82,55.43,80.8,58,77.72,56.92c-2.44-.83-2.79-3.24-2.77-5.64,0-5.65,0-11.3,0-17Z"/><path d="M74.8,1771c.19,8.83.35,15.9-1.75,22.78-3.11,10.19-7.29,11.65-16,5.73-4.27-2.93-7.46-6.81-10.66-10.79-5.35-6.69-7.08-6.41-11,1.5-2.48,5.07-4.71,10.26-7.18,15.33-1.36,2.8-2.79,6-6.73,5.21-3.25-.63-4.08-3.46-4.69-6.35C14,1790.61,14.49,1776.2,9,1762.9c-1-2.42.15-4.5,3.13-4.73,3.36-.26,4.41,2.08,4.77,4.76,1.31,9.79,2.57,19.58,3.71,29.39.29,2.46-.62,5.68,2.62,6.34s3.72-2.63,4.65-4.93c2-5,3.84-10,6.14-14.86,3.5-7.38,7.2-7.62,12.28-1.38,3.74,4.6,7.67,9,11.8,13.3,4.92,5,7.71,4.29,10.17-2.53,2.28-6.31,2-12.74.65-19.2a60.67,60.67,0,0,1-1.43-8.31c-.18-2.75,1.62-3.93,4.3-4.09,3.16-.19,3.91,1.67,3.77,4.24C75.31,1764.84,75,1768.78,74.8,1771Z"/><path d="M11.18,1528.28c.52-10.62-1.67-20.83-5-30.78-2.36-7,.22-10.41,7.19-10.69,11.34-.44,22.54-1.62,33.48-4.79,2.51-.73,5.31-.86,6.28,2.45,1.06,3.59-1.19,5.38-4.24,6q-11.59,2.4-23.3,4.37c-2.56.43-5.09.83-7,2.6s-3.64,3.77-2.47,6.66,3.8,3,6.43,2.41c6.89-1.51,13.75-3.26,20.68-4.53,2.52-.46,6.46-2.11,7.5,1.17,1.28,4-3.38,3.73-5.65,4.58-5.54,2.08-11.25,3.71-16.94,5.37-8.89,2.59-11.07,5.94-8.72,14.87a33.36,33.36,0,0,1,1.38,10c-.16,3.4-1.81,5.33-5.28,5.22s-5-2.28-4.83-5.62C10.77,1534.48,11,1531.38,11.18,1528.28Z"/><path d="M502.14,1395.09c6.58,5.14,12,2.79,17.36,1.18,2.54-.76,5.31-1.62,6.23,1.9.75,2.86-1.72,4-3.89,4.63-5.41,1.59-10.75,3.54-16.5,3.56-3.46,0-6.39,1-6.43,5.05,0,5.36-.32,11,4.92,14.54,3.73,2.54,5.52-.74,7.71-2.84,1.85-1.77,3.95-3.83,6.46-1.17,2,2.07.8,4.3-.71,6.1-3.48,4.14-7.08,8.54-13.17,8.12-5.93-.42-8.54-5.15-10.56-9.91-4.43-10.45-4-21.57-3.75-32.6.09-3.61,2.8-5.34,5.91-6.43a105.37,105.37,0,0,1,34.88-6.36c2.95,0,6.12.11,5.78,4.22-.33,4-2.9,5.26-6.62,4.14C519.84,1386.25,511.86,1391.58,502.14,1395.09Z"/><path d="M407.14,1785.32c-.91-4.93-2.1-11-3.15-17.1-.43-2.49-1.1-5.11-.72-7.52.52-3.26-1-8.41,4.42-8.64,4.54-.18,4.68,4.11,5,7.46.41,4.4,3,5.75,7,5.37,3.65-.35,7.28-.9,10.94-1.14,4-.25,6.22-1.86,6.38-6.17s2.11-7,6.86-6.61c5.18.45,4.74,4.31,5.18,8.07,1.2,10.35-2,21.51,6.6,30.55,2.94,3.08-1.68,5.24-3.58,7.34-2.51,2.77-4.64,1-6.19-1.2-3.63-5.08-3.79-11-4-17-.4-9.64-1.17-10.11-10.49-7.59-3.25.88-6.61,1.42-9.82,2.44-6.08,1.92-8.23,6.14-7.27,12.44.54,3.57,4.67,9.27-2.69,9.81C404.94,1796.32,406.42,1790.73,407.14,1785.32Z"/><path d="M489,1860.24c3.7.2,4.55,2.39,4.3,5.75-.42,5.61,3.1,6.62,7.65,6,3.91-.54,7.81-1.2,11.7-1.87,4.09-.71,7-2.41,5.73-7.35-1-3.76.71-6.06,4.3-6.84s4.79,2,6,4.61c2.12,4.54,1.72,9.36,1.8,14.14.15,9-.39,18.09,5.29,26,2.72,3.81-.19,5.78-3.26,6.89-3.42,1.24-6.31.25-7-3.76-1.15-7.24-2.29-14.49-3-21.78-.57-5.94-2.62-8.32-8.64-5.43a78.8,78.8,0,0,1-10.31,3.76c-5.74,1.8-10.21,3.75-5.73,11.15,1.86,3.08,1.92,7.88-1.93,9.62-4.68,2.12-6.11-2.39-7.48-5.78-4-9.87-1-20.77-4.54-30.82C482.92,1861.73,486.14,1860.46,489,1860.24Z"/><path d="M555.5,1639.94c.22,5.87-.5,11.58,1.61,17.52,1.6,4.48-2.11,7.54-6.54,7.86-4.7.34-5.36-3.42-5-7s1.44-7.2,1.74-10.83c.59-7-2.53-9.82-9-8s-12.83,4.24-19.25,6.35c-7,2.29-4.46,7.23-3.47,11.86.67,3.07,3.54,6.33-.23,9.22-1.74,1.34-3.62,1-5.52-.09-3.78-2.24-4.07-5.37-3.57-9.44,1.1-8.92,2.07-17.91.43-26.91-.47-2.6-.64-5.37,2.72-6.11,3.77-.83,4.26,2.2,4.34,4.69.23,6.73,4,7.93,9.65,6.76,5-1,10-2,15-2.87,3.46-.57,6-1.76,5.6-5.87-.34-3.58.54-6.38,4.78-6.23,4,.14,6.28,2.82,6.68,6.45C555.85,1631.44,555.5,1635.71,555.5,1639.94Z"/><path d="M229.1,1888.32c1,10.3-2.47,11.32-7.92,9q-12.8-5.52-25.47-11.34c-5.48-2.52-10.09-4.16-8.34,5.12.3,1.57-.33,3.35-.74,5-.5,2-1.37,3.84-3.91,3.61-2.17-.2-3.84-1.35-4.18-3.55a102.7,102.7,0,0,0-6.07-21.93c-1.38-3.47,1.24-5.71,3.91-7.61,2.93-2.08,5.42-1,7.53,1.14,7.92,8.08,18.18,12.18,28.12,16.83,2.1,1,4.39,3.62,6.77,1.29,2.09-2.06.46-4.82-.13-7.22-1.43-5.72-3-11.4-4.37-17.13-.66-2.72-.21-5.27,2.89-6.1,2.78-.74,5.27.19,5.91,3.24C225.43,1869.6,227.57,1880.64,229.1,1888.32Z"/><path d="M131,32.94c.46-14.33,6.49-20.51,20.7-21.38,3.67-.23,7.31-.91,11-1.07,3.08-.13,7.41-2,7.5,3.74.08,4.66-2.87,6.31-7.18,6.41-4.81.11-9.61.37-14.41.66-4.53.28-7.84,2-6.92,7.31.89,5.17,4.6,6,9,5,3-.68,5.9-2,8.9-2.73,2.54-.65,5.56-1,6.34,2.27.83,3.46-1.74,5.44-4.8,5.55a47.35,47.35,0,0,0-11.63,2.11,12,12,0,0,0-4.5,2.16c-2.8,2.41-3,5.53-.58,8.19,2.82,3,5,1.19,6.63-1.63s3.58-5.71,7.11-2.43c3.2,3,1.16,5.55-1.28,7.87-2.66,2.52-4.89,5.62-8.49,6.9-5.76,2-11.56,1.33-13.38-4.85C132.66,49.29,132.22,41,131,32.94Z"/><path d="M125.18,2005.85c-1,6.82-1,13.61,1.88,20,3.22,7.07,9.6,10,16.59,8,4.77-1.35,7.29-3.78,6.3-9.17-1.38-7.49.58-14.61,3.26-21.54,2-5.17,5.51-6.15,10-3,5.91,4.09,8.47,9.74,7,16.88-1.16,5.79-5.45,10.6-5.37,16.86a3.19,3.19,0,0,1-2.21,2.22c-7.71-.36-13.83,4.72-21,6-8.23,1.44-17.63-4.06-20.4-12-4-11.44-4.31-23.28-2.45-35.2.26-1.68.42-3.53,2.86-3.27a3.63,3.63,0,0,1,3.39,3.3C125.38,1998.5,125.18,2002.18,125.18,2005.85ZM156.26,2018c.49,1.92-.57,5.33,2.87,4.87,4.72-.63,4.39-5.24,5.13-8.62.43-2-.47-4.4-3-4C157.16,2011,156.49,2014.43,156.26,2018Z"/><path d="M370.56,64.29c1.39,16.49.54,32.72-5.37,48.4-1.74,4.61-3.65,9.19-9.55,9.4-6.29.22-10-3.58-12-9s-3.54-10.71-5-16.14c-.64-2.36-1.49-5.63,1.8-6.51,4.21-1.12,4,2.76,4.72,5.33,1,3.53,1.95,7.07,3,10.59.79,2.79,1.72,5.8,5.34,5.46,3.14-.29,4.72-2.78,5.51-5.7,2.36-8.76,4.42-17.6,3.72-26.73-1-13-2.34-25.87-3.44-38.81a18.21,18.21,0,0,1,.29-6.64A4.73,4.73,0,0,1,365,30.72c3.24.42,3.66,3,3.83,5.67C369.35,45.69,370,55,370.56,64.29Z"/><path d="M193.24,2013.79a29,29,0,0,0-2.56-18.71c-1.51-3.15-3.23-6.8,1.63-8.3,4.46-1.39,4.93,2.18,5.3,5.47.63,5.55,4,6.89,9,5.84,6.36-1.34,12.77-2.42,19.1-3.89,5.58-1.31,12.48-1.38,11.19-10.4-.27-1.86,1.49-2.91,3.37-3.08a4.24,4.24,0,0,1,4.17,2.32c2.37,3.82,2.49,8,2.2,12.31-.53,8-.68,15.84,3.8,23,1.89,3,1.29,6-.88,8.61-1.37,1.68-3.28,2.51-5.27,1.75-3.23-1.23-3.16-4.48-3.46-7.2-.65-5.88-1.23-11.8-1.43-17.71s-1.59-8.42-8.11-5.62c-7.24,3.1-14.87,5.3-22.39,7.7-8.29,2.64-9.87,5.49-7.24,13.72a33.93,33.93,0,0,1,1.78,6.5c.28,2.64-1.58,4.15-3.91,4.85-3,.9-4-1.26-4.82-3.45a12.82,12.82,0,0,1-.68-3.31C193.74,2020.54,193.48,2016.87,193.24,2013.79Z"/><path d="M809,61.18c.18,4.65-.4,7.47-4,7.89-3,.36-4.59-1.64-5.23-4.44-.51-2.21-1-4.41-1.61-6.6-2.19-8.37-8.58-10.3-14.88-4-3.56,3.55-6.18,8-9.2,12.13-2.17,2.94-4.15,6.9-8.66,4.3-4.2-2.44-2.47-6.4-1.27-9.86,1.87-5.39,5.09-10.06,8.17-14.81,3.67-5.69,7.25-11.45,10.78-17.23,2.7-4.41,6.43-6.62,10.08-2C801.5,37.16,804.15,50.5,809,61.18Z"/><path d="M266.47,1748a28.54,28.54,0,0,1,16.14,4.55,12,12,0,0,1,6,11.38c-.73,15.56-15.44,30.25-30.74,30.91-4.82.2-7.31-.82-8.29-6.68-1.64-9.89,1.31-20.34-4-29.82-1.75-3.15,1.33-5.18,3.95-6.35C254.93,1749.5,260.54,1747.68,266.47,1748Zm-10.08,24.72c.51,4.93-1.95,11.34,5.92,12.83,6,1.15,20.84-14.34,19.33-20.31a9.71,9.71,0,0,0-3.31-4.7c-4.67-3.77-9.92-5.17-15.73-2.7C255.72,1760.72,255.35,1766.39,256.39,1772.67Z"/><path d="M564.21,1891.31c-.34-9.3,2.08-15.94,5-22.35,3-6.63,13.16-10.43,21.11-8.28,8.27,2.23,12.92,8.38,11.86,17s.37,17.72-5.65,25.14c-5.16,6.36-10.76,11.69-20.08,8.94s-11.5-9.92-12.24-18.22A7.46,7.46,0,0,1,564.21,1891.31Zm30.67-7.79a18.14,18.14,0,0,0,0-3.14c-.62-4.82-1.05-10.11-7.12-11.12-5.86-1-9.46,2.53-12,7.44a38,38,0,0,0-4.14,14.58c-.42,5.11,1.39,9.43,6.4,11.84,4.78,2.31,8.17-.44,11.4-3.21C594,1895.91,595.38,1890.54,594.88,1883.52Z"/><path d="M52.21,36.19a49,49,0,0,0,1,16.78c1,4.56-1.09,7.29-5.54,7.59-5,.34-7.53-2.57-6.65-7.43A203.1,203.1,0,0,0,44,21.93c.29-10.23-1.51-11.84-11.56-11.88a15.34,15.34,0,0,1-2.54,0c-4.17-.73-10.8.6-10-6s6.76-2.81,10.46-2.48c11,1,22,1.56,32.9-1,2.48-.59,5.06-1.25,7,1.2,1.63,2,1.38,4.26.38,6.39a5.1,5.1,0,0,1-6.52,2.66c-9.77-3.25-11.2,3.13-11.82,10.1C51.89,25.38,52.21,29.92,52.21,36.19Z"/><path d="M19.51,1877c5.44-1,11.27-2,17.12-3,1.57-.25,3.58-.77,4.11,1.59.46,2-.72,3.12-2.59,3.64-5.43,1.53-10.82,3.22-16.3,4.55-2.72.66-5.31,1.67-5.23,4.59.16,5.39,1.37,10.82,5.13,14.88,2.62,2.82,4.32-.68,6.19-2.08,1.48-1.1,3-1.55,4.57-.13,1.24,1.12,1.54,2.55.64,3.77-2.43,3.33-4,7.75-9,8.15s-7.94-2.32-10-6.41c-3.84-7.57-1.92-17.66-10.35-23.31-1.06-.7-.23-2.76.73-3.83,2.5-2.78,2-4.89-1-6.92-6.17-4.22-3.28-6.8,1.86-8.36,9.73-2.94,19.52-5.63,29.31-8.33,2.64-.73,5.87-2.15,6.76,2.17.82,4-1,6.92-5.22,6.9-6.74,0-12.51,3.28-18.78,4.81-2.25.55-4.57,1.52-3.82,4.53C14.31,1877,16.79,1877,19.51,1877Z"/><path d="M210.51,169.8c0-13.1,5.89-21.29,15.33-21.15,15.87.24,23.51,7,23.71,21.14.16,11.13-10.4,22.34-21.08,22.37C218.08,192.2,210.56,182.83,210.51,169.8Zm19.87-10.41c-6.9,0-10.39,2.72-10.58,8.24-.29,8.72,3.35,14,9.8,14.1,7.24.16,11.81-4.27,11.76-11.4S237.62,159.4,230.38,159.39Z"/><path d="M567.14,28.21c4.09-.26,6.11,1.54,6.57,4.71s-1.64,4.48-4.34,5.3c-4.83,1.48-11.38-1.46-14.24,5.07-2.28,5.24.52,10.58.3,15.89-.2,5,2.21,9.26,3.65,13.82,1.2,3.83,1,7.49-3.88,8.69s-6.85-1.8-7.3-5.91c-1-8.71-1.87-17.43-2.35-26.16-.4-7.3-3.64-8.88-9.95-6.07C532.77,44.82,529.89,46,527,47s-5.71.55-7-2.71c-1.4-3.44-.32-5.9,3.15-7.55,5.49-2.61,11.35-3.53,17.27-3.85A116.13,116.13,0,0,0,567.14,28.21Z"/><path d="M148.69,1860.66c2.14-.45,4,0,4.21,2.62.28,3.16-1.74,3.72-4.31,3.65-7.75-.2-15.08,1.77-22.19,4.61-2.14.86-5.8,1.15-4.38,4.73,1.21,3.07,4.4,2.11,6.72,1.28,5.83-2.1,11.51-4.6,17.32-6.75,1.66-.61,4.07-1.89,4.87,1,.56,2-1.42,3-3,3.35-5.92,1.37-10.63,5.13-15.87,7.83-8.2,4.22-9.3,7.22-5.54,15.26,1.2,2.59,2.68,5.47,5.93,5.22,2.79-.22,2.62-3.29,3.17-5.37s.6-4.2,3.46-3.66c2.65.5,4,2.32,3.23,4.94-1.17,4.06-2.36,8.27-5.37,11.36-4,4.11-8.28,3.28-11.64-.86-5.94-7.35-10.11-15.6-11-25.21a47.9,47.9,0,0,0-.49-5.89c-2.82-12.69-2.85-12.68,9.81-14.51Z"/><path d="M686.84,72.16c-10.34,0-14.65-3.19-14.74-10.27,0-2.22-.21-4.74,2.31-5.89s4,.11,5.61,2.18c4.07,5.28,9.67,5.06,15.4,3.46,2.54-.71,4.85-2,5-5,.14-2.82-2.15-3.64-4.33-4.46a26.89,26.89,0,0,1-15.25-13.93c-2.37-4.92-2.66-9.81.86-14.34,4-5.12,9.62-5.35,15.41-4.82a3.5,3.5,0,0,1,3.48,3.09c.37,2.56-1.47,3.18-3.38,4.05-9.37,4.27-10,7.86-2.15,14.73,3.58,3.13,8,5.33,11.84,8.13,6.53,4.69,6.85,10.26.65,15.27S693.93,72.29,686.84,72.16Z"/><path d="M624,1552.44a30.49,30.49,0,0,1-22.5-11.8c-2.28-2.83-3.19-6.62.48-8.86,4.07-2.48,5.25,1.37,6.36,4.23.84,2.16,1.69,4.24,3.9,5.3s5.12,2.3,7.06,0-.67-4.08-2-5.69c-3-3.7-6.58-7-7.22-12.17-1.67-13.73,15.24-27.73,28.58-23.54,1.7.53,3.25,1.37,2.92,3.43-.27,1.68-1,3.2-3.1,3.52-2.79.44-5.57.95-8.36,1.44-5.09.9-8.92,3.23-10.46,8.58-1.63,5.65.64,10,4.42,13.74a23.07,23.07,0,0,0,6.24,4.32c4.22,2,8.43,3.59,7.19,9.71s-6,6.82-10.85,7.48C625.79,1552.29,624.94,1552.35,624,1552.44Z"/><path d="M476,1654.35c.67-22.86.68-22.83-20.47-20.83-3.36.32-6.75.39-10.13.43-3.53,0-7.22-.07-6.9-5.09s3.43-6.95,8.08-6.37c4.46.55,8.85,1.85,13.32,2.23a51.75,51.75,0,0,0,24-3.66c2.64-1.06,5.53-1.82,7.54,1.31,1.9,3,1.95,6-.62,8.49-8.44,8.23-6.73,18.56-6.13,28.66.11,2,1,3.93.77,5.81-.4,3.36-1,7.32-5.41,7.43-4.84.11-4.76-4.17-4.81-7.42C475.24,1661.13,475.83,1656.91,476,1654.35Z"/><path d="M633.33,1440.63c-7.33-.27-14.63-.92-18.67-8.74-.95-1.83-1.92-3.63.05-5.32,2.2-1.88,4.31-1.3,5.78.88,5.17,7.7,12.08,5.45,19,3.58,5.76-1.55,5.38-4.44,1.37-7.4-5.1-3.75-9-8.44-12.85-13.38-4.07-5.27-4.32-10.92-2.49-16.86,1.93-6.28,8.31-8.79,14.3-5.94,1.89.9,3.37,2.13,3.83,4.21.59,2.66-1.6,3.4-3.34,4.14-6.87,2.92-6.05,7.55-2.38,12.17,3.14,4,7,7.35,10.57,11,9,9,7.2,16.06-5,20.5C640.17,1440.66,636.88,1440.43,633.33,1440.63Z"/><path d="M378.43,1802.71c-12.46,1-20.37-6.89-28.2-14.71-1.85-1.84-3-4.7-.4-6.71,3.21-2.5,4.15.8,5.55,2.8,5.19,7.39,12.22,11.51,21.37,11.6,2.64,0,5.36-.6,6.41-3.24,1.33-3.37-2-4.08-3.91-5.47-6.67-4.72-13.65-9.12-17.45-16.83-5.22-10.6-1.18-22,9-24.94,3.24-.92,7.48-1.79,9,2.13s-2.74,4.69-5.47,6c-8.63,4-9.26,6.09-4.37,14.06,4.21,6.87,9.53,12.71,16.88,16.16,5.14,2.41,8.65,5.36,7.39,11.57-1.29,6.37-6.26,7.29-11.57,7.61C381.25,1802.78,379.83,1802.7,378.43,1802.71Z"/><path d="M840.36,75.7c-3.49.27-7.7-3.31-12-6.46-2.25-1.64-3.13-4-1.07-6.61s4-1.18,5.91.13c3.28,2.27,6.66,4.3,10.7,4.78,2.35.29,4.56-.2,5.88-2.45,1.51-2.58-.2-4.58-1.86-5.86-4.66-3.62-9.84-6.6-14.42-10.31-11.4-9.24-9.84-23.37,3.13-29.49,3.68-1.75,8-3.3,10.54,1.13,3,5.14-1.44,6.71-5.24,8.27-6.43,2.65-6.46,7-3.06,12.18s8.52,8.17,13,12,10.55,7.09,7.35,14.4C856.16,74.44,849.47,75.29,840.36,75.7Z"/><path d="M254.32,66.49c-10.3-.08-17.8-8-17.71-18.62.08-10,11.25-22.69,19.67-22.38,7,.25,20.08,15.77,20.25,24C276.69,57.45,264.8,66.57,254.32,66.49Zm2.32-8.9c4.8-1.09,10.74-1.52,11.43-8.56.48-5-7.65-11.74-13.61-12-6.59-.26-8,4.32-8.56,9.36C245.29,52.18,250.25,57.34,256.64,57.59Z"/><path d="M169.12,1436.71c-5.45-1.43-11.86-1.54-14.76-8-1.15-2.56-2.64-5.64.07-7.8,2.93-2.33,5.13.08,7.12,2.25,4.07,4.43,8.8,6,14.41,2.93,6-3.36,6.42-7.18.81-11.39-4.58-3.44-8.8-7.14-11.52-12.23-2.52-4.74-3.56-9.72,0-14.36,4-5.13,9-8.55,15.89-8.3,2.85.11,5,1.55,5.31,4.47s-2.36,3.2-4.5,4c-11.14,4.18-11.79,7.09-3.68,15.7,1,1,2,2.06,3,3,4.85,4.24,10.92,7.86,8.17,16C187.43,1429,176.32,1436.54,169.12,1436.71Z"/><path d="M284.59,1986.24c-5.7.79-10.73,1.5-15.77,2.18-3.95.54-8.66,1.64-9.2-4.15-.48-5.15,4.5-4.41,7.43-4.68,9.58-.89,19-1.84,28.14-5.48,5.77-2.31,9.84,1.42,8,7.31-4.06,13.13-2.3,25.65,2.34,38.15,1.44,3.87,2.22,8.49-2.39,10.24s-6.11-3.06-7.37-6.3c-3.44-8.86-2.59-18.4-3.94-27.6C290.63,1987.6,289.31,1986.16,284.59,1986.24Z"/><path d="M78.57,1383.51a20.29,20.29,0,0,1-1,3.6c-4.34,9.41-3.21,18.62.72,27.82a21,21,0,0,1,1.62,5.62c.52,4.08-1.48,6.31-5.54,7-4.33.69-6.34-1.23-6.74-5.38-.79-8.13-1.92-16.25-2.32-24.41-.36-7.16-2.69-10.62-10.48-8.42-3.76,1.06-7.78,1.26-11.7,1.66-2.74.28-5.16-.37-5.7-3.63s1.6-4.65,4.27-5.21c10.2-2.11,20.4-4.28,30.67-6C77.47,1375.21,78.38,1379,78.57,1383.51Z"/><path d="M931.38,1534.11c0-16.58.58-17.17,15-19.55,6.61-1.09,10.15,1.57,12.07,7.57a52.9,52.9,0,0,1,2.27,20.09c-.63,8.78-9.76,17.52-17.23,16.9-6-.5-11.85-8.85-12.11-17.38C931.32,1539.2,931.39,1536.65,931.38,1534.11Zm8.14.57a72.48,72.48,0,0,0,.83,8.38c1.3,5.8,5.1,6.38,9.56,3.7,5.06-3.06,4.27-19.62-1-22-4.13-1.87-7.25,0-8.7,4C939.43,1530.82,939.66,1533.22,939.52,1534.68Z"/><path d="M110.83,170c0-1.41,0-2.82,0-4.23-.32-14-.84-14.35-14.6-12.88-3.52.38-8.59,3.17-9.47-3.15s4.64-6.26,8.62-6.71c8.72-1,17.32-2.28,25.68-5,2.71-.9,5.66-1.49,7.33,1.93s1,5.83-2.42,7.72c-6.13,3.38-7.3,8.62-5.82,15.19a128.76,128.76,0,0,1,2.39,16.74c.39,4.4-1.37,8.23-6.23,8.44-5.08.22-5.33-4.08-5.45-7.85C110.75,176.79,110.84,173.4,110.83,170Z"/><path d="M713.18,1890.85c.2-8.65.43-14.54-.84-20.42-2.66-12.35-9.6-16.42-21.65-12.26-3.45,1.19-6.74,2.84-10.07,4.37-2.91,1.33-5.68,1.52-7.23-1.71-1.75-3.65.5-5.77,3.59-7.3,4.67-2.31,9.75-2.91,14.79-3.13,9-.4,18.07,0,26.77-3,2.31-.81,4.57-.72,6,1.62s-.67,3.58-2.13,4.77a9.32,9.32,0,0,0-3.87,8c.45,11,.73,22,1.27,33,.16,3.35.72,6.64,3.83,9,3.28,2.49,2.69,5.38-.29,7.72-3.68,2.89-5.95,0-7.43-2.64C712.22,1902.37,713.93,1895.05,713.18,1890.85Z"/><path d="M735.75,1438.26c-13.26-.67-18.23-4.5-21.19-17.38-2-8.77-3.41-17.68-4.92-26.55-.57-3.31,0-6.37,4.14-6.92s6.29,1.38,6.79,5.53c.92,7.54,1.82,15.1,3.07,22.59,2,11.67,10.55,15.18,20.08,8.37,3.26-2.33,6.92-5.65,9.87-.57,2.3,4,1.21,8.26-3.51,10.64C745.56,1436.26,741.06,1438.65,735.75,1438.26Z"/><path d="M457.3,1858.68c5.83,0,6.82,3.25,5.05,6.77-6.11,12.1-5.76,23.2,3.33,33.79,2.7,3.14,1.46,6.83-2,8.58-3.72,1.89-7.46.71-9.16-3.38-2.61-6.29-3.77-13-4.63-19.73-1.82-14.33-6.64-16.92-20.35-11.32-1.81.74-3.51,2.07-5.38,2.33-2.58.36-4.21-1.38-4.7-3.89-.59-3,.94-5,3.77-5.64C434.82,1863.56,446.43,1861.07,457.3,1858.68Z"/><path d="M849.23,190.85c-8.7-.56-14.38-5.8-14.63-13.51s7.62-17.85,15.15-19.32c1.91-.37,4-.31,5.74-1,10.3-4.1,13.38-3.2,18.42,5.73,4.52,8,3.19,13.57-5,19.48C863,186.49,857.23,191.3,849.23,190.85Zm2.95-9.13c6.82-.18,15.94-7,15.61-11.89-.31-4.63-3.4-5.91-7.64-5.74-8.71.35-16.12,5.29-15.72,10.85C844.76,179.61,847.3,182.1,852.18,181.72Z"/><path d="M91.17,1540.77c-9.27,0-13.91-4.09-14.56-12.53-.88-11.51.25-23.16-2.85-34.53-.85-3.14,1-5.47,4.53-5.73s4.12,2.19,4.2,4.94c.27,9.32.35,18.64.82,27.94.45,8.78,3.23,11.22,11.87,9.68s17.4-2.32,25.07-7.14c2.78-1.75,5.91-2.55,8.57-.08a5.93,5.93,0,0,1,1.56,4.57c-.55,3.77-3.78,4.27-6.94,5C112.19,1535.51,101,1538.35,91.17,1540.77Z"/><path d="M657.31,1524.09c0-10.45,4.92-15.2,15.83-15.24,9.94,0,18.72,8.81,18.92,19.06.18,9.6-6.62,16.74-16.18,17C665.24,1545.14,657.33,1536.27,657.31,1524.09Zm25.79,3c-.48-4.86-2.55-8.42-8.19-8.4-4.27,0-7.92,1.18-7.82,6.47s2.91,8.39,8.16,8.7C679.71,1534.16,682.79,1532.26,683.1,1527.12Z"/><path d="M656.19,1882.52c-.53-6.67.51-11.83-3.69-16.06-2.14-2.16-1.36-5,1.9-5.81,2.28-.58,6.41-1.48,6.28,1.82-.52,13,6.31,26.18-1.31,39.08-4.92,8.32-13.3,9.12-18,.65-3.85-6.87-7.14-14.23-7.62-22.3-.3-4.88-1-9.53-3.36-13.86-1.47-2.69-1.91-5.32.43-7.8a4.46,4.46,0,0,1,5.44-.88c2.8,1.21,4.53,3.2,4.61,6.47.11,4.52.48,9,.6,13.56a30.15,30.15,0,0,0,4,14.54c1.34,2.32,1.72,6.16,5.42,5.44,3.44-.68,4.43-4.15,4.88-7.25A65.32,65.32,0,0,0,656.19,1882.52Z"/><path d="M657.31,1635.85c1,11-2.59,20.21,4.79,28.11,2.38,2.54.07,6.79-3.65,8-3.9,1.22-6.9-1.25-7.6-4.81-1-5.21-1.08-10.62-1.49-15.95-.19-2.53-.21-5.07-.34-7.6-.78-16-1-16.14-16.67-11.5a30.14,30.14,0,0,1-5.78,1.2c-2.37.23-4.6-.22-5.11-3.15s.06-5.18,3.16-6c9.55-2.41,19.08-4.58,27.86-9.54,3.54-2,4.62,2.26,4.74,5C657.5,1625.76,657.31,1632,657.31,1635.85Z"/><path d="M789.14,1625.07c-1.36,5.41-4.56,11-4.15,17.42.55,8.74,1,17.48,1.47,26.22.18,3.36,1,7.74-3.92,7.7-4.56,0-4.12-4.35-4.33-7.78-.51-8.17-.69-16.4-2-24.45-1.38-8.47-5.46-10.6-13.88-8.73-1.93.43-3.87.86-5.82,1.14-3.07.43-5.91-.22-6.76-3.57-1-4.06,1.87-5.56,5.16-6.22,10-2,19.94-3.88,29.9-5.84C787.72,1620.39,789.08,1621.58,789.14,1625.07Z"/><path d="M259.78,1655.46c0-13.71,9.32-26.73,19.32-27.08,7.79-.27,15,10,14.93,21.31-.07,11.7-9.4,22.63-19.44,22.75C264.26,1672.57,259.75,1667.39,259.78,1655.46Zm26.51-6.45c-.73-5.11.21-11.58-7.48-12-6.83-.33-8.75,5-10.06,10.4a29.25,29.25,0,0,0-.45,6.7c0,3.9-.64,8.34,4.26,9.88,5.18,1.62,8.45-1.64,11.21-5.42C285.85,1655.77,286.23,1652.42,286.29,1649Z"/><path d="M460.53,60.26c.55-6.92,1.14-14.08,7-19.2,3.82-3.36,8.4-4.68,13.41-3,3.31,1.11,4.88,3.78,5.05,7.14.2,4-.55,7.32-5.68,4.47-6.19-3.44-8.94,0-10.47,5.24-1.85,6.43,2.09,14.09,7.65,14.84,7.38,1,13.36-1.45,17.1-8.24,1.38-2.51,2.7-5.75,6.22-3.7,3.68,2.15.88,5.11-.3,7.32a30.51,30.51,0,0,1-11.7,12c-6,3.54-12.22,4.38-18.48.85C463.53,74.15,460.28,68.23,460.53,60.26Z"/><path d="M911.82,162.27c-2.79,5.31-2.71,11.28-2.77,17.19-.07,8,4,10.7,11.35,7.42a27,27,0,0,0,11.14-8.81c2.65-3.66,5.79-3.61,8.4-.41,2.4,3,4,7.06-.33,9.45A215.37,215.37,0,0,1,915.3,198.8c-7.19,2.84-11.67.2-12.57-7.52-1.21-10.34-1.46-20.79-1.87-31.2-.13-3.18-.59-7.61,4.77-6.74C910.21,154.08,911.92,157.59,911.82,162.27Z"/><path d="M149.86,1657.9c-7,.62-14.06,1.3-21.09,1.81a20.19,20.19,0,0,1-11.51-2.22c-5.17-2.88-6.06-8.13-1.47-11.67,5.92-4.57,10.49-10.24,15.22-15.85,1.64-2,3.43-4.31,6.28-2.09s2,5,0,7.38-4.18,4.6-6.35,6.83c-1.73,1.77-4.43,3.18-2.65,6.27,1.48,2.55,4.08,2.55,6.73,2.57,8.45,0,16.91.22,25.36.42a15.84,15.84,0,0,1,5,.75c3.68,1.37,10.34,1,8.89,6.66-1.53,6-6.7.93-10.06.53C159.41,1658.74,154.7,1657.84,149.86,1657.9Z"/><path d="M168.27,1506c.6,7.75-.19,15.24-4.35,22-4.56,7.44-11.23,8.26-17.61,2.35-6.08-5.63-7.08-13.22-8.06-20.8-.51-3.91-.58-7.89-1.34-11.74-.59-3-.27-5.33,2.87-5.85,3.68-.61,4.95,2,5,5.18a71,71,0,0,0,2.73,20c1.06,3.58,2.13,7.84,6.4,8,5.09.14,5.39-4.73,6.54-8.48,2.12-6.91.82-13.32-2.23-19.63-1.55-3.21-2.57-6.81,1.92-8.46,5-1.81,6.72,1.83,7.39,5.64S168,1502.06,168.27,1506Z"/><path d="M83.14,1882.64c0-3.94,0-7.89,0-11.83,0-3.34,1.65-5.44,5.12-5.33s4.27,2.71,3.69,5.4c-2.66,12.17-1,24.84-4.43,36.89-.67,2.39-.81,5.19-4.11,5.7s-5.17-1.45-6.65-4.08c-6.3-11.23-9.31-24.24-18.71-33.84-1.81-1.84-1.08-5.18,1.67-6.47,3.15-1.48,6.37-.78,7.87,2.63,3.3,7.45,6.13,15.11,9.43,22.57,1,2.28.55,6.68,4.47,6,3.09-.56,2-4.21,2.1-6.6.15-3.66,0-7.34,0-11Z"/><path d="M28.22,2004.65c-.24,3.9-.74,8.69-.77,13.48-.06,8.37,2.73,10.39,10.36,7.31s14.94-6.66,22.5-9.77c2.61-1.08,6.2-3.74,8,.45,1.48,3.49-2.28,4.55-4.75,5.72-8.41,4-16.76,8.11-25.29,11.79-10.93,4.72-17.79-.3-16.9-12.22s1.86-23.63-.68-35.4c-.52-2.37-1.31-5.76,2.28-6.13,3-.32,4.08,2.54,4.24,5.28C27.56,1991.36,27.85,1997.56,28.22,2004.65Z"/><path d="M192.41,1765.45c1.72-2.62-4.14-10.11,3.4-9.91,7.29.19,4.09,7.23,3.69,11.54-1.33,14.45,1.59,17.27,15.27,13.5,5.7-1.57,11.2-3.86,16.74-5.93,2.77-1,5.63-2.26,7.22,1.36s-.83,5-3.77,6.16c-8.1,3.31-16,7.16-24.2,10.17-10.78,4-14.57,1.7-16.78-9.22C192.86,1777.59,191.44,1772.07,192.41,1765.45Z"/><path d="M168.48,1773.31c-.58,4,.42,9.16-1.23,14.13-1.39,4.19-3.11,8-8,8.81-4.42.77-7.51-1.39-10.23-4.6a51,51,0,0,1-10.24-20.18c-.88-3.27-1.66-6.67,2.59-7.41s4.93,2.64,4.68,6.09c-.44,6.09,2.3,11,6.19,15.23,3.37,3.68,6.58,3.09,8.38-1.54,2-5.09,2.9-10.33-.11-15.49-1.8-3.09-2.85-6.29.13-9.29a4.59,4.59,0,0,1,5.47-1c3.82,1.81,1.8,5.48,2.34,8.31C168.77,1768.3,168.48,1770.33,168.48,1773.31Z"/><path d="M1051.19,1572.74c3.78-5.29,6.58-9.68,7.42-15.13.47-3.09,3.47-4.37,6.49-4.42,2.47,0,4.14,1.36,5.05,3.77,4.35,11.52-3.43,34.62-14,41.09-2.74,1.68-6.3,4.7-8.76.46s2.07-5,4.65-6.33a16.87,16.87,0,0,0,6.61-6.37C1064.71,1575.85,1063.64,1573.51,1051.19,1572.74Z"/><path d="M95.56,1782.92c.09-8.4,6.92-19.28,12.22-19.48,6.63-.25,14.63,9.74,14.66,18.29s-6.59,15.82-14.25,15.88C100.32,1797.68,95.46,1792,95.56,1782.92Zm20.35-.54c0-4.82-1.79-8.57-7-8.72-6.48-.18-6.15,5.35-7,9.61-.94,4.87,2.26,7.06,6.18,7C112.66,1790.22,116.17,1787.86,115.91,1782.38Z"/><path d="M785.45,1427.7c-.24,4.43-.15,7.89-4.36,8.38-4.47.52-6-2.46-6.18-6.23-.7-12.76-4.23-24.93-7.62-37.13a21,21,0,0,1-.89-5c-.08-2.91,1.41-4.87,4.36-5.26,2.75-.37,4.12,1.36,4.73,3.79C779.09,1400.46,780.5,1415.13,785.45,1427.7Z"/><path d="M732.62,1648.32c0-6.47-.09-13,0-19.43.06-3.17-1-7.82,4.06-7.6,4.84.2,3.82,4.79,3.78,8-.11,8.73-.36,17.47-.8,26.19-.14,2.69-.41,6,2.21,6.65,7.31,1.92,4.73,5.69,2.8,10-1.41,3.16-3,5.49-6.82,4.7-3.56-.72-4-3.61-4.07-6.51-.09-7.32,0-14.65,0-22Z"/><path d="M20,1628.77c-.14-3.46.21-6.08,3.57-6.39,2.84-.27,4,2,4.3,4.31.54,3.63.79,7.3,1.13,11,.91,9.49,0,19.26,5.09,28.07,1.92,3.32.52,6.55-2.23,9.14-1.57,1.47-3.37,2.34-5.39,1.5-3.39-1.41-3.84-4.44-4-7.73C21.69,1655.1,23.49,1641.41,20,1628.77Z"/><path d="M102.92,1667a185.59,185.59,0,0,0-4.14-33.61c-.63-2.74-2.58-6.66,2.38-7.41,4.34-.66,5,3.17,5.35,6.17,1,7.56,1.82,15.16,2.26,22.78.29,4.94.61,9.67,4.93,12.93,3.57,2.69,1.83,5.34.18,8.11s-3.93,5-7.56,3.72c-3-1.1-4.2-3.61-3.94-6.78Q102.64,1670,102.92,1667Z"/><path d="M966.68,184.2a78.73,78.73,0,0,0-2.31-23.4c-.82-3.5-.7-6.53,3.2-7.3,4.19-.83,5.25,2.77,5.59,5.81.84,7.53,1.36,15.1,1.78,22.66.19,3.4.07,6.76,2.28,9.64,1.8,2.34,1.86,4.66-.4,6.73-2.06,1.9-4.32,4.27-7.29,3.3-2.75-.9-2.77-4-2.83-6.49C966.61,191.5,966.68,187.85,966.68,184.2Z"/><path d="M210.27,1531.64c-.09,2.62-1.37,5.06-4.58,5.67-3,.58-4.94-1.32-5.43-4.08a67.37,67.37,0,0,1-1-10.89c-.1-8.51-.51-17-4.18-24.8-1.76-3.75-1.74-6.6,2.75-7.88,4.18-1.2,5.38,1.51,6.13,4.91C206.59,1506.66,206.34,1519.25,210.27,1531.64Z"/><path d="M1023.76,717.66c-9.1.23-15.59-1-20.46-5.79-4.2-4.17-6.31-4.63-10.15.93-7.84,11.33-22.06,13.51-33,6.13-1.78-1.2-4.57-2.07-3.45-5,1.17-3.1,3.59-1.6,5.74-1,9.19,2.44,17.42,1,23.89-6.49,1.65-1.91,3.27-4.18,1.53-6.89-1.47-2.3-3.8-1.86-6.11-1.68-7,.56-12.77,4.3-18.94,7.06-7.79,3.49-11.28,1.48-11.4-7.1-.11-7.24-2.28-13.91-4.35-20.65-1.72-5.59-.49-9.25,6.06-8.53a15.21,15.21,0,0,0,10.37-2.48c4-2.56,8.66-2.45,13.19-1.91,5.93.7,7.65,4.49,6.08,9.72-2.54,8.52-1.2,14.35,8.82,16.17,4.79.87,6.93,5.39,9.49,9.16,5.9,8.73,17.43,13.59,26.43,11.36,2.19-.54,4.84-.8,5.28-3.5.53-3.31-2.54-3.18-4.53-3.76a30.65,30.65,0,0,1-12.53-6.84c-7.11-6.54-8.75-13.75-5.07-22.18,4.06-9.3,12.21-14.54,21.27-13.79,3,.24,6,.59,6.48,4.15s-2.67,3.71-5,4.44c-6.32,2-13.44,4-13.74,11.79s6.53,11.36,12.39,14.81c2.13,1.25,4.76,1.71,7.21,2.37,3.74,1,7,2.36,7.18,7,.2,5-2.33,8.22-6.71,9.69A60.67,60.67,0,0,1,1023.76,717.66Zm-50-38.8c-.31-1.55-.43-3.46-2.78-3-5.65,1-8.61,4.77-9.36,10.26-.23,1.7-.8,4.91,2,4.41C969.63,689.4,970.82,683.43,973.75,678.86Z"/><path d="M431.43,797.24c.32,4.74,0,9.2-3,13-1.59,2-3.13,4.25-6.15,3.66-3.4-.67-3.25-3.7-3.31-6.08-.13-5.36.17-10.72.27-16.08.09-5.06.78-10.12-.71-15.15-1.57-5.31.91-8.57,5.79-10.59s8.14-.64,10.69,3.68c1.86,3.16,3.8,6.28,5.84,9.33,5.71,8.5,8.11,8.65,14.37.87,2.83-3.52,5.48-7.18,8.19-10.79,1.66-2.22,3.74-3.49,6.56-2.74s2.91,3.16,3.21,5.4c.77,5.88,1.73,11.75,2.18,17.65.35,4.6,1,8.84,4.1,12.59,2.51,3.08,3.3,6.8.35,10-2.12,2.33-5.22,4-8.37,3.11-4.6-1.3-3.91-5.66-4.07-9.23-.27-5.92-.35-11.86-.51-17.79,0-1.77-.45-3.59-2.3-4.06-2-.52-2.87,1.4-3.71,2.81-2.45,4.12-4.7,8.36-7.25,12.42-2.81,4.46-6.09,4.58-9.39.44-1.41-1.77-2.54-3.77-4.06-5.42-2.11-2.29-2.52-7.62-6.79-6.1C429.24,789.68,432.25,794.29,431.43,797.24Z"/><path d="M931.67,794.52c.14,3.67-1.59,6.54-4.25,8.82-6,5.18-3.84,8.39,2.41,10.7,3.42,1.27,6.84,2.55,10.33,3.61,2.12.64,4.8.48,4.38,3.81-.39,3-2.31,4.35-5.27,4.31-7.24-.1-13.77-2.76-20.19-5.68-2.82-1.28-5.49-2.89-8.22-4.36-9.92-5.36-10-5.37-12.24,5.25-.61,2.8-1.9,4.64-5,4.82-3.81.23-4.94-2.25-5-5.34a79.09,79.09,0,0,0-5.58-28c-1.31-3.2,0-6.12,2.75-8.2,3.24-2.43,5.15-.18,7,2.13,3.1,4,5.41.56,7.86-.86,11.66-6.76,20.66-6.28,27.62,1.49C930.19,789.16,931.62,791.51,931.67,794.52Zm-20.81,7.11c4.92-.19,9.31-1.58,9.81-7,.39-4.19-3.77-4.81-6.54-4.37-4.33.69-10.5.15-10.73,6.73C903.24,801.48,907.76,801,910.86,801.63Z"/><path d="M1262.51,697.3c0-.84,0-1.69,0-2.54.85-23.69,1.89-24.87,25.08-29,5-.89,10-2.1,15-3,3.22-.56,6.46-.56,7.13,3.75.68,4.46-1.82,6.23-5.87,6.27a71.7,71.7,0,0,0-23.14,4.53c-2.8,1-6.73,1.12-6.44,5.37.26,4,3.88,4.65,6.93,4.83,6.69.41,13.25,2.93,20.13.8,2.61-.81,6.11-1,6.62,3,.59,4.63-3.16,4.62-6.22,4.84-6.76.48-13.54.73-20.3,1.21-3,.21-6.68-.33-7.34,4-.69,4.48.6,8.53,4.4,11.21,3.13,2.21,6.26,1.3,9.5-.47,2.77-1.51,4.06-9.62,8.51-3.58,3.76,5.09-2.52,7.62-5.88,10.19a31.55,31.55,0,0,1-7.42,4c-9,3.64-13.76,1.63-17.52-7.15C1263.73,711.09,1262.48,703.79,1262.51,697.3Z"/><path d="M700.39,905.69c1.35-16.77,1.35-16.72,17.07-18.65,6.17-.75,12.29-1.9,18.46-2.68,3.76-.47,7.18.68,7.48,4.93s-2.82,5.79-6.73,5.67c-6.83-.21-13.52,1-20.21,2.08-4.68.77-7.2,3.57-6.36,8.28.95,5.3,4.94,3.29,8.1,2.68,9.43-1.81,18.84-3.8,28.29-5.52,2.27-.41,5.6-1.82,6.37,1.82s-2.72,3.89-5.05,4.2c-10.49,1.39-19.95,6.07-29.92,9.13-3.42,1.06-8,1.78-5.74,7.08,2.12,4.93,6.19,7.53,11.67,5.57,2.29-.82,4.1-2.93,6.17-4.39,1.88-1.33,3.79-2.8,5.91-.34,1.65,1.91.91,3.78-.4,5.37-4.45,5.37-9.65,9.8-17,9.83s-11.69-4.8-14.87-10.88C699.46,922,699.46,913.57,700.39,905.69Z"/><path d="M624.89,914.49c.31-8.33,2.71-17.37,11.71-23.26,3.49-2.29,7.3-4.14,10.15.69,2.63,4.45.19,7.1-3.69,9.56-10.59,6.7-12.44,16-5,23.68,2,2,4.15,4.13,7.32,3.37,3.72-.88,3.12-4.11,3.36-6.88a35.94,35.94,0,0,1,8.26-20,12.46,12.46,0,0,1,13.67-4.43c5.76,1.52,5.51,6.5,5.68,11,.69,18.91-18.53,34-36.78,28.92C629.62,934.35,624.82,927.5,624.89,914.49Zm36.46,8.13c4.19-1.27,6.13-4.48,6.69-8.63.28-2-.27-4.47-2.81-4.15-4.72.61-6,4.47-6.55,8.55C658.41,920.4,658.34,922.42,661.35,922.62Z"/><path d="M689.52,796.93c0-4.23,0-8.46,0-12.7,0-3.42-.4-7.09,4-8.24,4.2-1.09,7.81-.37,10.09,3.89,5.42,10.11,13.85,17,24.06,21.78,6.89,3.25,8.43,2.19,7.93-5.61-.4-6.19-1.15-12.36-1.68-18.54-.27-3.16.58-5.81,4.25-6,3.2-.16,4.36,2.27,4.73,5A160,160,0,0,1,744,810.27c-.49,6.64-5.23,6.72-9.93,4.92-8.94-3.44-17.86-7.05-25.19-13.55-1.46-1.29-2.94-3.5-4.92-2.66-2.33,1-2.08,3.75-2.06,6,0,3.65.62,7.43-2.06,10.51-1.57,1.81-2.2,5.25-5.39,4.62-3.55-.71-4.7-3.78-4.76-7.1-.1-5.37,0-10.73,0-16.1Z"/><path d="M765.18,707.47c-.46-4.76-.59-9.58-1.49-14.25-.73-3.79-1.83-7.52,2.4-9.64s8-.77,11.37,2.74c8,8.4,16.29,16.51,26,23,2.23,1.48,4.46,4.57,7.42,2.57,3.27-2.21,1.47-5.66.55-8.54-1.62-5.08-2.61-10.35-5.43-15.08-1.83-3.07-2.25-6.92,2-8.54,4-1.53,5.31,1.81,6.46,4.85a115,115,0,0,1,7.06,29.59c.72,7.47-2.06,9.94-9.25,8.32a53.69,53.69,0,0,1-25-13.56c-3.91-3.63-7-4.27-9.31,1.87-1.85,4.84-1.8,13.3-9.54,11.47S767,712.29,765.18,707.47Z"/><path d="M526.31,701.16c-.07,5-2.32,8.06-6.84,8.72-5.23.76-4.83-3.47-5.25-6.74-.37-2.79-.73-5.59-.91-8.39-.69-10.7-4.64-13.31-15-9.91-4.74,1.55-7.84,3.54-3.93,9,2.35,3.25,1.47,6.41-1.23,9.15-1.47,1.48-3.16,2.57-5.29,1.61-3.46-1.56-5.39-4.53-4.89-8.12.63-4.57-1.06-6.68-5.25-8.06-5.63-1.86-5.22-5.73-1.37-8.79,4.46-3.56,5.45-7.56,3.94-12.68-1.32-4.5-1.42-8.87,4.28-10s6.07,3.33,6.55,7.47c.76,6.58,4.51,11.07,10.87,12.59,5.35,1.28,10.36.7,11.07-6.56.33-3.29,1.28-6.23,5.34-6.37,4.48-.16,4.46,3.52,5.21,6.41C526.25,680.69,522.86,691.43,526.31,701.16Z"/><path d="M942.73,703.69c-1.11,5.16-4.14,6.09-8.24,4.23-3.23-1.46-4.71-4.75-6.83-7.37-6.79-8.4-14.62-8-20.6,1.15-2.94,4.48-5.49,9.22-8.4,13.73-2,3.12-4.9,5.26-8.5,2.78s-2.83-5.92-.26-8.78c2.87-3.21,2.74-6.22,1.07-10.06-1.93-4.44-1.2-8.62,4.59-9.58,7.05-1.16,9.63-6.15,11.31-12.18.83-3,1.44-6.1,2.85-8.79,1.3-2.47,3.64-4.58,6.76-4.43s3.65,3,4.61,5.38c4.33,10.62,14.77,17.16,18.78,28A63.42,63.42,0,0,0,942.73,703.69Z"/><path d="M857.69,807.56a24.17,24.17,0,0,1-.49,5.64c-.75,2.67-2.94,4-5.78,4.12-2.39.12-3.73-1-4.09-3.28-1-6.09-4.85-6.44-10-5.81-6.45.78-12.42,1.69-18.33,5.3-6.24,3.81-9.88-2.7-12.26-6.89s2.69-4.25,5.23-5.12c4.24-1.45,5.92-4.83,7.39-8.63,2.84-7.34,5-15,9.55-21.58,4.22-6.1,8.42-6.06,12,.51a156.37,156.37,0,0,1,6.67,14.6c1.83,4.46,3.41,9,7.87,11.65C858.77,800.11,857.78,803.45,857.69,807.56Zm-22.54-7.39c3.63.2,6.39-.59,5.83-5-.47-3.76-1.39-8.08-5.93-7.85-4.32.22-5.25,4.7-5.88,8.31C828.29,800.65,832.25,799.87,835.15,800.17Z"/><path d="M539.85,703.58c-.62-5.27,2.53-10,5.7-14.7,3.3-4.91,6.87-9.69,6.6-16.1-.19-4.43,3.19-5.71,6.52-6.5,3.92-.93,8.4-3.46,11.58,1.22,8.6,12.67,11.38,27.39,14.16,42.06a3,3,0,0,1-1.7,3.5,4,4,0,0,1-4.68-.9,10.41,10.41,0,0,1-2-4.46c-2.59-12.43-9.66-14.83-19.58-6.38-2.32,2-4.08,4.62-6,7-2.24,2.77-4.77,5.17-8.6,3.52C538.27,710.35,539.76,707.1,539.85,703.58Z"/><path d="M339.2,653.67c6.61.47,12.88-1.07,19.13-3,3.31-1,7.12-1.89,8.46,2.62,1.45,4.9-2.49,5.53-5.92,6.12q-9.6,1.64-19.23,3.1c-2.69.41-5.36,1.07-5,4.4s2.85,4.7,6.12,4.18c4.18-.68,8.33-1.52,12.5-2.29,2.39-.44,5.53-2,6.31,1.65s-2.43,3.46-5,4.11A131.29,131.29,0,0,0,342.93,679c-3.59,1.35-5.23,4.06-4.68,8,.32,2.35.75,4.75,3.28,5.39,3.68.93,5.6-1.91,7.58-4.3a19.64,19.64,0,0,0,2-2.73c1.22-2.13,2.65-4,5.33-2.43s2.13,3.63.9,5.84c-3,5.51-6.71,10.56-12,14-7.32,4.81-14.44,1.71-15.47-6.94-.71-5.86.2-11.75-7.2-14.64-3.1-1.2-1.77-5,.13-7.31a13.72,13.72,0,0,0,3.46-8.36C326.82,653,326.94,653,339.2,653.67Z"/><path d="M1141.55,810.8c.31,9.2-2.3,11.42-10.72,9.47-9-2.07-16.3-7.55-24.17-11.9-8.23-4.56-9.71-3.69-9.63,5.36a20,20,0,0,1-.86,6.59c-.83,2.41-2.49,4.74-5.4,4.62-3.18-.14-4-2.86-4.25-5.45-1-9.21-.84-18.52-4.16-27.46-1.33-3.58,1.46-6.32,4.89-7.85s6.54-.76,8.17,2.21c6.57,11.94,18.74,16.69,29.28,23.55,1.85,1.21,3.71,2.94,6.15,1.45s1.46-3.81.92-6c-1.34-5.45-1.86-11.15-5.2-16-2.17-3.12-2-6.22,1.64-7.66,3.78-1.51,7.16-.84,8.37,4.11C1138.64,794.37,1140.83,802.83,1141.55,810.8Z"/><path d="M541,809c-.22,3-.58,5.07-2.68,5.93a4.47,4.47,0,0,1-5.82-2.12c-1.13-2.16-1.39-4.8-1.9-7.26-.88-4.29-.31-9.75-6.33-10.52-6.21-.78-10.89,2.22-13.75,7.78-1.55,3-2.9,6.09-4.28,9.17-1.71,3.83-4.65,5-8.25,3.19-3.36-1.66-3.7-4.59-2.09-7.89,4.36-8.92,6.36-18.6,8.84-28.12,1.08-4.15,2.68-8,6.42-10.57,6.15-4.23,10.28-3.36,13.32,3.36,1.79,4,3.68,7.46,7.92,9.32a7.57,7.57,0,0,1,4.06,5.19C538.44,794.17,534.52,803,541,809Z"/><path d="M1183,782.5a91.81,91.81,0,0,1,10,1.68c13.33,3.7,17.63,16,9.07,26.81-8.23,10.42-20.52,15.67-31.36,22.6-4.06,2.59-8.5-.74-6.86-5.77,3.8-11.62,1.08-22.17-3.13-32.83-2.24-5.68-1.29-9.2,6.1-8.8C1172.28,786.49,1176.88,781,1183,782.5Zm4.33,9.14c-14,.12-18.31,7.47-13.17,20.52,3.11,7.93,5.54,8.47,11.51,2.84,2.24-2.11,4.88-3.78,7.19-5.81,3.17-2.8,6.87-5.66,4.85-10.63S1191.27,791.79,1187.29,791.64Z"/><path d="M325.88,791.42c.17-5.32,1.16-10.7-2.08-15.64-2.12-3.23-2.07-6.64,1.39-8.91,3.89-2.54,7.47-1.73,10.36,2q9.27,12.11,18.63,24.15c1.5,1.94,2.56,4.92,5.79,3.8,3-1,2.57-4,2.66-6.51.16-4.26-.07-8.41-2.51-12.22a12.06,12.06,0,0,1-.81-11.39,5.43,5.43,0,0,1,5.31-3.54,3.42,3.42,0,0,1,3.54,3c.68,11.46,4.45,22.86.79,34.41-3.32,10.5-7.45,11.58-14.92,3.78-3.9-4.07-7.62-8.32-11.46-12.46-1.44-1.55-2.3-4.43-5.18-3.32-2.44,1-1.29,3.36-1.33,5.22,0,1.4.29,2.9-.07,4.21-.94,3.34-2.3,6.9-6.53,6.55-4.56-.38-3.39-4.37-3.56-7.29C325.78,795.39,325.88,793.4,325.88,791.42Z"/><path d="M755.29,699.17a3.58,3.58,0,0,1-3.72,3.73c-2.53.15-5.08,0-7.62.17-2,.09-4.13.07-4.85,2.49-.56,1.88.52,3.26,1.89,4.37,2.65,2.14,5.73,4,3.65,8.28a6.26,6.26,0,0,1-6.07,3.76c-4.72.07-6.18-3.37-7.47-6.84-1.36-3.63-1.59-8.21-6.73-8.59s-7.08,3.85-9.21,7.51c-2.27,3.93-4.74,7.73-8.41,10.49-2,1.53-4.26,3-6.89.94s-2.38-4.63-1.16-6.86c6.23-11.39,11.95-23,17.09-34.93,2.54-5.89,9.87-5.18,12.12,1.09,3.64,10.11,10.22,13.54,20.41,11.27C751.24,695.4,754,695.76,755.29,699.17Z"/><path d="M609.85,714.31c-6.29.61-12.39-1.66-18.58-3.72-2.73-.91-4.83-1.85-3.82-5.21a4.79,4.79,0,0,1,5.87-3.64c5,.92,9.87,2.49,14.88,3.25,2.83.42,6.94,1.82,8.16-2s-3.26-3.73-5.42-5c-4.62-2.77-9.4-5.25-12.68-9.74-3.64-5-5-10.18-1.11-15.66,4.21-6,10.22-7.65,17.17-6.69,2.27.31,3.38,1.94,3.85,4a4.36,4.36,0,0,1-2.26,5c-1.7,1-3.42,2-5.12,3-4.25,2.5-4.62,5-.61,8.38,6.11,5.07,13.36,7.08,20.84,8.88,3.64.88,8.18,1.11,8,6.88-.14,4.91-3.22,6.79-7.25,8.13C624.78,712.42,617.72,714.41,609.85,714.31Z"/><path d="M502.8,905c.55-5.42-1.9-11.7,1.11-16.45,3.47-5.46,9.94-.87,15-1.93,7.71-1.61,15.62-2.26,23.47-3.13,2.73-.3,6.16-.78,6.66,3.21.59,4.67-3.2,3.61-5.79,3.73-9.4.44-18.34,3-27.22,5.77-1.57.49-4.71.26-3.91,3.22.67,2.48,3.18,1.65,5.1,1.46,8.42-.83,16.84-1.71,25.27-2.49,1.81-.17,4.27-1.14,4.86,1.73s-1.59,4-4,4.33c-7.54,1.06-15.15,1.66-22.62,3-8.56,1.59-11.83,6.8-9,13.79,1.93,4.7,4.71,7.37,9.14,2,2-2.44,3.92-7,7.81-3.66,3.57,3-.08,6.08-2,8.64-3.69,4.89-7.89,9.22-14.85,7.28s-7.48-7.65-7.86-13.47C503.69,916.41,503.23,910.79,502.8,905Z"/><path d="M775.65,944.5c-7.79.8-13.17-3.41-17.29-9.66-1.7-2.59-3.58-5.7,0-8.18,3.16-2.18,4.92.43,7,2.55,7.59,7.84,17.61,8.95,25.09,3,5.51-4.34,5.37-7.19-.82-10.54-7.44-4-15.45-7.12-21.33-13.54-3.88-4.22-8.13-9-5.62-15,2.74-6.5,10.31-7.08,16-9.86,1.58-.77,3.34.34,4.18,2,1.18,2.4.22,4.16-1.63,5.93-8.29,7.93-8.32,8.07,1,14.77,4.56,3.3,9.4,6.22,14.17,9.22,10,6.31,9.76,19-.84,24.36C789.38,942.68,782.94,945,775.65,944.5Z"/><path d="M288.9,701.65c1.83-8.59,1.32-16.49,1.05-24.4-.2-6-2.5-9.94-8.75-11.76a40.6,40.6,0,0,1-15.4-8.66c-2.27-2-4.26-4.17-2.42-7.23,2-3.4,4.92-1.74,7.42-.44,2.25,1.16,4.36,2.61,6.53,3.93,5.5,3.34,10.38,2.65,13.91-2.79,3.19-4.91,8.3-6.53,13.12-8.79,2.42-1.13,4.52-.74,5.9,1.47,1.53,2.43.34,4.57-1.91,5.62-8.62,4-9.13,11.52-8.35,19.42,1.09,11-.37,22,1.48,33,.73,4.36-1.12,8.92-6.52,9.13C288.47,710.38,290,704.67,288.9,701.65Z"/><path d="M570.48,932.31a44.6,44.6,0,0,1-5.27-.68c-4.79-1.13-6.89-3.84-2.24-7.28,4.26-3.16,4.39-6.47,3.21-11-1.55-6-2.55-12.11-3.67-18.19-.59-3.22-.11-6.18,2.84-8.24s5.63-2,8.44.31c3.07,2.58,6.91,1.84,10.52,2.14,13.09,1.09,18.92,10,14.72,22.38S583.09,932.77,570.48,932.31Zm11.1-33.25c-3,.44-6,1.09-7.15,4.64-1,3.09,2,18.38,3.64,18.15,6.42-.9,8.78-6.53,11.4-11.26C593,904.21,589.23,899,581.58,899.06Z"/><path d="M1233.46,708.31c.11-6.76.62-13.51-1.7-20.11-3.11-8.82-5.5-10.11-14.43-7.62-3.88,1.09-8.59,3.85-10-3-1.27-6.13,3.13-7,7.62-7.44,10.1-1.06,20.21-2,30.3-3.14,3.81-.42,6.7.36,7.76,4.56s-.88,6.61-4.86,7.21c-4.72.71-5.84,3.9-6,7.84-.27,7.89-.42,15.79-.61,23.69,0,2.29.07,4.46,2.06,6.14,2.69,2.27,2.51,4.83.31,7.36-1.94,2.24-4.2,4-7.36,3-3.71-1.14-4.18-4.23-4-7.5C1232.81,715.62,1233.16,712,1233.46,708.31Z"/><path d="M314.18,780.65c.15,5.32-7.81,2.75-7.59,7.62.17,3.6,5.65,5,4.65,9.45a4.86,4.86,0,0,1-4.07,3.85c-3.24.59-4.26-1.71-5.47-4.13-1.82-3.65.52-10.41-7.76-9.43-7.1.85-11.08,3.62-12.95,10.88-1.22,4.75-3.74,12.65-9.67,10.43-7-2.61-.84-8.86.69-13,3.8-10.32,8.46-20.33,10.71-31.19.66-3.15,1.64-6.4,5.3-6.89,3.42-.45,4.59,2.73,6.05,5.1,1.63,2.65,3.29,5.28,4.81,8,2.32,4.13,4.56,8,10.5,5.57C312.65,775.55,314,777.58,314.18,780.65Z"/><path d="M1075.52,717.29c-10.51,0-18-8.55-18-20.42,0-13.15,8.15-24.21,17.78-24.12,9.3.09,23.22,14.87,23.48,24.93C1099,706.62,1086.31,717.34,1075.52,717.29Zm2.88-8.75c6.66.17,11.71-3.73,12-9.23.29-6.28-7-16-12.4-16.35-5.51-.4-10.79,6.29-10.81,13.7S1071.29,708.36,1078.4,708.54Z"/><path d="M974.63,821.92c-10.28.13-17-6.78-17.34-17.71-.32-11.76,7.73-22,17.58-22.27,13-.41,23.87,8.44,23.67,19.19S987.11,821.77,974.63,821.92Zm15.47-19.35c.15-6.61-4-10.78-11.11-11.08-7.48-.31-11.78,3.9-12,12-.18,5.89,2.06,9.75,8.63,10C983.58,813.7,990,809,990.1,802.57Z"/><path d="M1199.15,690.7c-.51,10.72-3.92,20-13.6,25.81-9.29,5.59-18,2.83-22.16-7.17-3.2-7.62-4.26-15.81-5.49-23.92-.46-3.06.45-5.68,3.74-6.74,3.93-1.29,4.83,1.91,6,4.37,2.25,4.72,1.95,9.94,2.57,15,.66,5.3,1.75,10.54,8,11.52,6,.94,8.11-3.87,10.18-8.37,3-6.58,4.71-12.9-2.07-18.35-2.14-1.73-2.31-3.82-.53-5.9,1.91-2.24,4.19-2.73,6.75-1C1197.76,679.48,1199.33,684.67,1199.15,690.7Z"/><path d="M649.11,813.71c-8.93-.06-14.06-4.27-15.34-12.14C632.14,791.51,641,778.5,651,776.45a11.45,11.45,0,0,1,5.82.14c5,1.76,16.2,19.46,15.55,24-1.1,7.59-8,12-20.4,13C650.83,813.63,649.7,813.68,649.11,813.71Zm4.62-8.73c3.55-1,8.68-.24,8.88-6.32.14-4.15-7.28-11.89-10.94-11.19-5.51,1-7.86,5.17-7.69,10.4C644.18,803.79,648.61,804.79,653.73,805Z"/><path d="M418.72,658.3c-2.55,11-1.64,21.71-.63,32.44.39,4.16.07,8.58-5.28,8.89s-5-4.35-5.21-7.93c-.52-7.33-1.06-14.67-1.29-22-.19-5.88-2.76-7.44-8.19-5.62-4.54,1.53-9.2,2.72-13.85,3.93-3,.77-5.85.62-6.86-3-.94-3.33.74-5.58,3.92-6.38C392,656,402.63,653,413.45,651,418.62,650.05,418.64,654.84,418.72,658.3Z"/><path d="M588.43,773.68a14.46,14.46,0,0,1-1.66,3.24c-7,8.45-4.65,16.85.5,24.86,1.79,2.8,2.61,4.81.43,7.48s-4.46,4.28-8,3.57c-3.27-.66-4.85-2.89-5.19-5.89-.61-5.33-.61-10.74-1.44-16-1.71-11-4.42-12.57-14.73-9.36a33.92,33.92,0,0,1-4.81,1.52c-3.45.53-5.32-1.68-6.18-4.56s.74-5.15,3.5-5.82c10.69-2.57,21.43-5.12,32.55-4.34C586,768.53,588.27,769.91,588.43,773.68Z"/><path d="M1121.5,687.54c-.09,3.05-.47,7.53.63,12,.95,3.87,1.25,8,6.23,9,4.82,1,9-.09,12.25-3.82,1.3-1.47,2.29-3.23,3.67-4.62,1.2-1.21,2.76-2.06,4.56-1s1.8,2.52,1.69,4.36c-.46,7.65-8.06,14.66-18.09,16.49-8.93,1.63-14.93-1.51-17.9-10.13-3.55-10.29-3.26-21.13-3.27-31.82,0-3.22,1.42-7.16,5.77-7.1,5,.06,4.29,4.27,4.44,7.55C1121.59,681,1121.5,683.54,1121.5,687.54Z"/><path d="M356.82,872c2.91.36,4.68,1.84,5.08,4.79s-1.26,4.41-3.86,4.32c-5.91-.18-5.21,3.54-4.87,7.4.75,8.43,2.79,16.77,1.93,25.31-.37,3.56.1,8.28-5,8.39-5.74.13-4.06-4.76-4.32-8.21q-.93-12.26-2-24.48c-.51-5.68-3.24-7.93-9.15-6.45a122.41,122.41,0,0,1-15.05,2.37c-2.58.31-6.17,1.82-6.76-2.49-.55-4,2.86-4.2,5.69-4.57,8.69-1.14,17.35-2.49,26.07-3.27C348.9,874.67,352.74,872.91,356.82,872Z"/><path d="M1040.14,819.08a19.91,19.91,0,0,1-19.25-14.91,114.23,114.23,0,0,1-2.15-12.53c-.49-3.53-.56-7.07,4.36-7.47,4.66-.37,5.54,3,6.07,6.51s1,7.28,1.51,10.9c.86,5.71,4,9.39,9.88,9.95,6.48.62,12.81-.47,16.34-6.56s-2.46-8.94-5.31-12.79c-1.89-2.56-8.24-3.93-3.89-8.25,3.9-3.88,7.74-.63,10.47,3.14,1.66,2.29,3.56,4.42,5,6.83,4.8,8,2.77,15.32-5.35,20A35.94,35.94,0,0,1,1040.14,819.08Z"/><path d="M402.61,923.84a29.49,29.49,0,0,1-19.21-9c-1.5-1.5-4-3-1.71-5.57s4.7-2,6.48.48c4,5.43,9.59,5.46,15.32,4.85,4.77-.51,6-2.9,2.51-6.65-4.05-4.32-8.67-8.15-10.95-13.87-3.53-8.86.3-16.84,8.81-18.36,2.64-.47,5.34-.59,6.84,1.9,1.4,2.32-.42,4.07-1.94,5.88-6.32,7.49-5.79,12.42,1.78,18.26,4.1,3.15,10.2,5.11,7.91,12.21C415.9,921.83,408.74,922.49,402.61,923.84Z"/><path d="M613.21,801.74c.23-6.77.38-13.27-5.47-17.94-3.1-2.47-1.73-4.9.29-7.18,2.37-2.69,4.75-2.25,7.31-.1a18.25,18.25,0,0,1,6.27,11.61c1.27,8.59,2.17,17.25,3,25.9.35,3.75-1,6.79-5.51,6.66-4.24-.12-7.43-2.17-6.86-6.64A71.59,71.59,0,0,0,613.21,801.74Z"/><path d="M378.62,774.51c0-5.47,1.84-7.65,5.37-8.27,3.77-.68,4.86,1.84,5.47,4.87,2.35,11.53,1.91,23.56,6.84,34.67,1.26,2.83-1.32,5.28-4.38,6.1-3.21.85-5.57-.18-6.36-3.66C382.9,796.45,383.23,784.09,378.62,774.51Z"/><path d="M283.75,898.64A60,60,0,0,0,283.7,881c-.62-4,.23-7.88,5.25-7.6s4.09,4.53,3.84,7.81c-.51,6.72-1.25,13.44-1.88,20.16-.32,3.36-1,6.81,2.59,9.1,2.45,1.58,3.57,3.77,1.93,6.43a6.76,6.76,0,0,1-6.39,3.44c-3.36-.26-5-2.71-5.2-5.67C283.53,909.33,283.75,904,283.75,898.64Z"/><path d="M399.29,1866.31c2.92.22,4.08,2.13,5,4.25,4.86,11.45,5.81,24,9.63,35.71.93,2.82-1.08,4.17-3.47,4.66-2.8.58-5.15-.49-6-3.3s-1.15-6.06-1.89-9.05c-2.09-8.4-2.26-17.27-6.6-25.13C393.93,1869.81,394.8,1866.9,399.29,1866.31Z"/><path d="M485.52,1789.58c-.07,3.6-.9,6.17-4.43,6.67s-5.27-1.13-5.65-4.61c-1.3-12,0-24.29-4.17-36-.67-1.89,1-3.7,3.27-4.16,2.59-.51,4.73.42,5.47,2.82a53.51,53.51,0,0,1,1.94,9.9C482.87,1772.87,481.88,1781.78,485.52,1789.58Z"/><path d="M10.72,1412.12c-.61-7-1.26-14.06-1.81-21.1-.22-2.79-.81-6.06,3.29-6.56,3.8-.47,4.76,2.26,5.08,5.32,1.22,11.44-.15,23.1,3.34,34.39.92,3-1.19,5.56-4.63,5.79s-5.37-1.78-5.54-5.07c-.21-4.24,0-8.49,0-12.73Z"/><path d="M91,2037c-.11,2.76.18,5.32-3,5.61-2.67.25-4.23-1.07-4.49-3.83-1.51-16-2.53-32-8.82-47.08-.88-2.1-.07-3.9,2.36-4.51,3.3-.84,4.67,1,5.22,3.88q3.18,16.58,6.33,33.15C89.39,2028.6,90.23,2033,91,2037Z"/><path d="M653.47,27c3.34.14,4,2.43,4.26,5.17.41,5,1,10.05,1.24,15.09.18,3.73.38,7.34,3.55,9.94,2.79,2.28,2.31,4.77.6,7.43-1.47,2.27-3.23,4-6.17,3.41-3.42-.64-4.15-3.17-4.47-6.21-1-9.48-2.24-18.94-3.27-28.41C648.87,30.22,648.76,26.92,653.47,27Z"/><path d="M302.58,1420.43c.5,4.61-.44,7.21-4,7.37s-4.82-2.31-4.76-5.55a152.15,152.15,0,0,0-2.61-29.28c-.61-3.41.74-5.72,4-6.14,3.92-.49,5.51,2.1,5.57,5.68C301,1402.32,300.3,1412.18,302.58,1420.43Z"/><path d="M545.58,1553.77c-2.88,7.74-4.19,16.56-9.34,23.88-1.92,2.71-4.65,3.44-7.34,1.5s-.54-4,.63-5.81c4-6,4.33-13.37,7.14-19.83,1.26-2.9,3.16-4.67,6.52-4.06C545.32,1549.84,545.63,1551.49,545.58,1553.77Z"/><path d="M432.89,2017.71c-.33,2.73-.78,5.64-4.63,5.43-3.16-.17-6.34-.92-6.68-4.85-.32-3.71,2.1-5.77,5.4-6.28C430.93,2011.41,432.22,2014.29,432.89,2017.71Z"/><path d="M359.72,2027.46c-5.08,0-7-1.5-7-5s1.57-5.84,5.38-5.92c3.43-.06,5.06,2,5.22,5.15C363.49,2025.34,361.75,2027.44,359.72,2027.46Z"/><path d="M390.25,2022.13c-3-.41-6.09-1-6.12-5.18,0-3,1.91-5,4.52-5.06a5.83,5.83,0,0,1,6.21,5.59C395.18,2020.69,393.47,2022.09,390.25,2022.13Z"/></svg>